<?xml version="1.0" encoding="UTF-8" standalone="no"?>
<svg
   width="40.428pt"
   height="20.187pt"
   viewBox="0 0 40.428 20.187"
   version="1.1"
   id="svg15"
   sodipodi:docname="C.svg"
   inkscape:version="1.1.1 (3bf5ae0d25, 2021-09-20)"
   xmlns:inkscape="http://www.inkscape.org/namespaces/inkscape"
   xmlns:sodipodi="http://sodipodi.sourceforge.net/DTD/sodipodi-0.dtd"
   xmlns="http://www.w3.org/2000/svg"
   xmlns:svg="http://www.w3.org/2000/svg"><defs
   id="defs19" />
<sodipodi:namedview
   id="namedview17"
   pagecolor="#ffffff"
   bordercolor="#666666"
   borderopacity="1.0"
   inkscape:pageshadow="2"
   inkscape:pageopacity="0.0"
   inkscape:pagecheckerboard="0"
   inkscape:document-units="pt"
   showgrid="false"
   inkscape:zoom="12.735"
   inkscape:cx="13.899"
   inkscape:cy="19.239"
   inkscape:window-width="1920"
   inkscape:window-height="986"
   inkscape:window-x="-11"
   inkscape:window-y="-11"
   inkscape:window-maximized="1"
   inkscape:current-layer="svg15" />

  
      /&gt;
  <path
   style="color:#000000;fill:#ffffff;fill-opacity:1;stroke-miterlimit:3;-inkscape-stroke:none"
   d="M 0,0 V 20.187 H 4.0254 V 0 Z"
   id="path2254"
   sodipodi:nodetypes="ccccc" />
<path
   d="M 1,1.0001 H 3.025 V 19.187 H 1 Z"
   style="stroke-width:1.09375"
   id="path4" />
<path
   style="color:#000000;fill:#ffffff;fill-opacity:1;stroke-linecap:square;stroke-miterlimit:3;-inkscape-stroke:none"
   d="m 6,0 v 20.187 h 4.025 V 6.9746 l 7.649,13.2124 h 4.351 V 0 H 18 V 11.527 L 11.326,0 Z"
   id="path2248"
   sodipodi:nodetypes="ccccccccccc" />
<path
   d="m 7,1.0001 h 3.75 L 19,15.25 V 1.0001 c 2.025,0 0.02,-2.1e-4 2.025,0 V 19.187 H 18.25 L 9.025,3.2501 V 19.187 H 7 Z"
   style="display:inline;stroke-width:2"
   id="path8" />
<path
   style="color:#000000;display:inline;fill:#ffffff;fill-opacity:1;stroke-miterlimit:3;-inkscape-stroke:none"
   d="m 21.611,0 6.951,20.187 h 4.915 L 40.428,0 H 36.18 L 31.02,14.672 25.857,0 Z"
   id="path2242"
   sodipodi:nodetypes="cccccccc" />
<path
   d="m 23.013,1.0001 c 2.137,0 0,0 2.137,0 L 31.019,17.685 36.888,1.0001 h 2.137 L 32.763,19.187 h -3.488 z"
   style="display:inline;stroke-width:2;stroke-miterlimit:3.8;stroke-dasharray:none"
   id="path12" />
</svg>
