<?xml version="1.0" encoding="UTF-8" standalone="no"?>
<svg xmlns:svg="http://www.w3.org/2000/svg" xmlns="http://www.w3.org/2000/svg" xmlns:xlink="http://www.w3.org/1999/xlink" version="1.1" width="94" height="105.2">
  <path d="m 21.103516,4.5 h 51.792968 c 1.670106,2.1874709 6.943958,7.870457 16.498047,8.78125 -0.539797,12.202215 -5.759447,21.352114 -12.18164,27.355469 -5.134701,4.799829 -11.075279,7.437147 -15.539063,8.101562 1.461578,-2.460589 2.510168,-4.886544 2.716797,-7.193359 C 64.701122,38.078513 63.633063,34.93382 61.855469,32.443359 58.300281,27.462438 52.22496,24.75 47,24.75 c -5.22496,0 -11.300281,2.712438 -14.855469,7.693359 -1.777594,2.490461 -2.845653,5.635154 -2.535156,9.101563 0.206629,2.306815 1.255219,4.73277 2.716797,7.193359 C 27.862388,48.073866 21.92181,45.436548 16.787109,40.636719 10.364916,34.633364 5.1452655,25.483465 4.6054688,13.28125 14.159558,12.370457 19.43341,6.6874709 21.103516,4.5 Z" id="path3813"/>
  <use transform="rotate(180,47,52.6)" id="use4898" x="0" y="0" width="130" height="113" xlink:href="#path3813"/>
</svg>
