<?xml version="1.0" encoding="UTF-8" standalone="no"?><!DOCTYPE svg PUBLIC "-//W3C//DTD SVG 1.1//EN" "http://www.w3.org/Graphics/SVG/1.1/DTD/svg11.dtd"><svg width="484" height="484" viewBox="0 0 484 484" version="1.1" xmlns="http://www.w3.org/2000/svg" xmlns:xlink="http://www.w3.org/1999/xlink" xml:space="preserve" xmlns:serif="http://www.serif.com/" style="fill-rule:evenodd;clip-rule:evenodd;stroke-linejoin:round;stroke-miterlimit:2;"><rect x="0" y="0" width="484" height="484" style="fill:none;"/><path d="M438.555,259.198c0,7.515 -2.931,14.279 -8.717,20.291c-5.787,6.012 -12.475,9.018 -19.99,9.018c-12.024,-0 -20.817,-5.636 -26.453,-16.909l-26.453,-1.127c-5.636,-0 -16.758,2.48 -33.216,7.365c-17.661,4.884 -27.806,8.792 -30.436,11.798c-4.133,4.509 -7.515,15.03 -10.145,31.563c-2.255,13.527 -3.382,23.447 -3.382,29.835c-0,10.145 1.578,17.585 4.81,22.244c3.231,4.66 9.769,8.643 19.689,11.799c9.92,3.156 16.082,4.96 18.337,5.335c1.503,0 3.907,-0.15 7.364,-0.526l6.764,0c4.885,0 9.92,0.752 15.18,2.255c7.515,2.254 10.747,5.26 9.619,9.018c-5.26,-0.752 -14.429,0.376 -27.58,3.382l15.782,7.89c-0,4.509 -6.388,6.764 -19.164,6.764c-3.381,-0 -7.965,-0.752 -13.827,-2.255c-5.787,-1.503 -9.695,-2.254 -11.573,-2.254l-7.29,-0c-0.376,3.757 -1.503,9.394 -3.382,16.909c-6.387,-0.376 -13.902,-4.134 -22.545,-11.273c-8.642,-7.139 -14.053,-10.671 -16.307,-10.671c-2.255,-0 -5.486,3.607 -9.544,10.671c-4.134,7.139 -6.163,12.024 -6.163,14.655c-4.884,-2.631 -9.018,-7.516 -12.399,-14.655c-1.503,-4.885 -3.157,-9.769 -5.035,-14.654c-3.758,0.376 -10.672,8.266 -20.817,23.672l-2.856,0c-0.751,-1.127 -3.607,-9.018 -8.417,-23.672c-11.648,-3.758 -22.545,-5.636 -32.69,-5.636c-4.885,-0 -12.4,1.127 -22.545,3.381l-15.781,-1.127c2.254,-2.254 8.792,-6.538 19.689,-12.926c12.775,-7.515 22.545,-11.272 29.308,-11.272c1.128,-0 2.631,0.225 4.509,0.601c1.879,0.376 3.382,0.601 4.509,0.601c2.631,0 6.839,-1.428 12.701,-4.208c5.786,-2.781 9.168,-5.336 10.145,-7.59c0.977,-2.255 1.428,-8.117 1.428,-17.435c-0,-21.418 -5.636,-37.35 -16.909,-47.871c-9.769,-9.394 -25.927,-16.157 -48.472,-20.29c-6.012,21.417 -22.92,32.089 -50.651,32.089c-9.018,-0 -18.036,-5.411 -27.054,-16.308c-9.243,-11.122 -13.752,-21.042 -13.752,-30.06c-0,-13.903 5.786,-25.325 17.434,-34.343c-9.393,-9.77 -14.053,-19.69 -14.053,-29.835c0,-9.394 2.931,-17.66 8.718,-24.8c5.786,-7.139 13.452,-11.272 22.845,-12.399c-0.751,-12.024 3.157,-20.291 11.799,-24.8c-4.133,-4.133 -6.162,-11.423 -6.162,-21.944c-0,-12.4 4.133,-22.695 12.399,-30.962c8.267,-8.266 18.563,-12.399 30.962,-12.399c13.527,-0 24.574,4.734 33.217,14.128c10.896,-37.199 34.343,-55.762 70.415,-55.762c18.788,0 35.321,7.515 49.599,22.545c5.261,5.637 7.891,8.643 7.891,9.018c-4.509,0 -2.254,-0.826 6.764,-2.555c9.018,-1.653 15.556,-2.555 19.689,-2.555c14.654,0 27.58,5.411 38.853,16.308c9.769,9.769 16.533,22.169 20.29,37.199c2.63,0.376 6.764,1.503 12.4,3.382c8.267,4.133 12.4,11.272 12.4,21.418c-0,1.878 -1.503,5.486 -4.509,10.671c24.048,13.527 36.072,32.315 36.072,56.363c-0,6.763 -2.63,16.157 -7.891,28.181c9.77,5.636 14.654,13.903 14.654,24.799m-232.063,24.8l-0,-7.29c-0,-8.642 -4.209,-16.533 -12.701,-23.672c-8.416,-7.139 -16.984,-10.671 -25.626,-10.671c-10.521,-0 -20.29,2.405 -29.308,7.289c19.914,-1.127 42.459,10.371 67.56,34.344m-10.146,-69.814c-5.636,-6.388 -10.521,-12.926 -14.654,-19.69c-15.782,4.133 -23.672,8.793 -23.672,14.053c4.509,-0.375 11.047,0.451 19.689,2.555c8.642,2.105 14.805,3.082 18.637,3.082m34.344,-17.435l-0,-24.8c-9.018,-1.503 -14.504,-2.254 -16.308,-2.254l0,8.416l16.308,18.563m73.196,-15.782c-4.509,-1.879 -12.926,-5.636 -25.325,-11.272l-0,48.471c17.66,-10.145 26.077,-22.545 25.325,-37.199m30.962,66.508l-12.4,-15.18c-7.515,5.26 -15.105,10.596 -22.845,16.082c-7.741,5.411 -14.354,11.573 -19.99,18.336c16.908,-9.018 35.32,-15.405 55.16,-19.163" style="fill-rule:nonzero;"/></svg>