<?xml version="1.0" encoding="UTF-8" standalone="no"?><!DOCTYPE svg PUBLIC "-//W3C//DTD SVG 1.1//EN" "http://www.w3.org/Graphics/SVG/1.1/DTD/svg11.dtd"><svg width="484" height="484" viewBox="0 0 484 484" version="1.1" xmlns="http://www.w3.org/2000/svg" xmlns:xlink="http://www.w3.org/1999/xlink" xml:space="preserve" xmlns:serif="http://www.serif.com/" style="fill-rule:evenodd;clip-rule:evenodd;stroke-linejoin:round;stroke-miterlimit:2;"><rect x="0" y="0" width="484" height="484" style="fill:none;"/><path d="M322.63,383.503c-21.585,21.966 -48.171,32.947 -79.757,32.947c-35.448,-0 -63.569,-12.129 -84.371,-36.403c-19.652,-23.117 -29.474,-52.584 -29.474,-88.406c0,-38.522 16.76,-82.455 50.276,-131.769c27.339,-40.441 59.511,-75.886 96.5,-106.322c-5.397,24.66 -8.085,42.182 -8.085,52.584c0,23.893 7.503,47.196 22.527,69.927c18.496,26.964 32.548,47.014 42.19,60.096c15.024,22.741 22.536,44.887 22.536,66.448c0,31.982 -10.781,58.948 -32.345,80.899m-0.582,-123.374c-5.776,-12.903 -12.521,-21.472 -20.227,-25.716c1.154,2.317 1.736,5.591 1.736,9.829c-0,8.094 -2.309,19.645 -6.939,34.667l-7.503,23.118c-0,13.482 6.727,20.227 20.218,20.227c14.248,0 21.382,-9.446 21.382,-28.321c-0,-9.622 -2.886,-20.885 -8.667,-33.808" style="fill-rule:nonzero;"/></svg>