<?xml version="1.0" encoding="UTF-8" standalone="no"?>
<svg xmlns="http://www.w3.org/2000/svg" version="1.1" width="600" height="451.99835">
  <g transform="matrix(1.9999927,0,0,-1.9999927,735.99791,451.99895)">
    <path d="m -242.1323,170.3223 c 18.57,0 35.463,-7.159 48.095,-18.856 1.992,-2.067 3.612,-4.61 4.661,-7.543 1.814,-5.082 1.575,-10.357 -0.268,-14.791 -10.352,18.294 -29.972,30.649 -52.488,30.649 -33.294,0 -60.284,-26.993 -60.284,-60.294 0,-13.983 4.772,-26.844 12.759,-37.072 -3.21,-1.524 -6.301,-3.288 -9.251,-5.277 -8.821,11.815 -14.046,26.471 -14.046,42.349 0,39.121 31.708,70.835 70.822,70.835 m 1.031,55.678 c -70.084,0 -126.899,-56.825 -126.899,-126.923 0,-37.541 16.299,-73.638 42.2,-99.077 l 257.667,0 c 4.529,189.939 -106.721,226 -172.968,226" style="fill:#ffffff"/>
    <path d="m -241.1001,180.1294 c 12.854,0 25.009,-2.98 35.827,-8.272 0.576,3.375 0.892,6.848 0.892,10.402 0,10.655 -2.718,20.625 -7.439,29.168 -9.353,2.432 -19.166,3.729 -29.28,3.729 -64.098,0 -116.059,-51.97 -116.059,-116.079 0,-25.452 8.196,-48.986 22.083,-68.117 4.921,11.45 12.369,21.55 21.629,29.626 -5.937,11.321 -9.312,24.197 -9.312,37.868 0,45.107 36.56,81.675 81.659,81.675"/>
    <path d="m -182.3066,203.4478 c 2.436,-6.556 3.787,-13.701 3.787,-21.188 0,-9.489 -2.161,-18.429 -5.966,-26.308 1.868,-2.488 3.431,-5.3 4.588,-8.395 5.988,-16.015 -1.058,-33.453 -15.737,-38.979 -3.887,22.912 -23.815,40.365 -47.83,40.365 -26.8,0 -48.527,-21.73 -48.527,-48.536 0,-18.432 10.272,-34.463 25.401,-42.684 -25.09,-3.05 -45.854,-21.833 -51.14,-46.882 l 238.748,0 c -1.175,106.67 -33.889,165.49 -103.324,192.607"/>
  </g>
</svg>
