<?xml version="1.0" encoding="UTF-8" standalone="no"?>
<svg xmlns="http://www.w3.org/2000/svg" version="1.1" width="600" height="610.96326">
  <path d="m 586.69273,307.28458 c -3.81852,-0.36658 -15.51846,-2.21474 -23.5679,-6.75115 -10.44747,-5.91107 -15.27408,-13.71612 -16.48074,-26.85183 -0.94699,-10.79878 -1.72597,-21.65865 -2.44385,-32.45742 -1.06918,-14.90751 -2.19947,-30.24268 -3.81852,-45.45567 l 7.63704,0 4.124,-7.69814 10.4933,-19.93267 1.68015,-3.22283 0,-3.57414 0,-146.66173 0,-14.5562 -14.51038,0 -32.21304,0 -177.97359,0 -19.87158,0 5.97216,18.90932 0.35192,0.96165 -17.00005,0 6.14018,19.03151 13.36482,41.88153 c 0.41179,1.25247 39.85007,126.85124 39.85007,219.27471 0,76.66061 -17.18334,109.36242 -57.50691,109.36242 l -7.63704,0 c -61.34071,0 -68.01549,-90.39201 -68.01549,-129.234 0,-91.0488 38.18521,-214.02043 39.85008,-219.27471 l 13.36482,-41.94263 6.03327,-18.97041 -19.87158,0 L 53.88757,0 l -14.5562,0 0,14.5562 0,166.6555 0,14.5562 14.5562,0 11.745768,0 c -2.32166,17.24444 -4.23092,34.1223 -5.666684,50.29755 l -0.351915,3.94071 c -2.336934,27.20314 -4.475306,43.07291 -20.77275,51.84023 -4.704417,2.50495 -18.069239,4.71969 -25.645183,5.43758 C 5.7277805,307.98657 0,314.31004 0,321.84017 c 0.06109632,7.51484 5.8499731,13.77722 13.303725,14.434 6.81224,0.5963 18.741297,2.74934 24.056678,5.66669 16.816763,9.19499 25.477167,29.83028 27.737731,44.75306 13.838318,89.07844 59.309256,161.63032 124.941986,199.15874 29.35678,16.64875 64.54827,25.11059 104.64273,25.11059 l 3.81852,0 c 84.78642,0 166.88461,-55.53656 209.19382,-141.51436 14.4951,-29.35679 22.97221,-59.67584 29.95247,-88.07036 5.4223,-22.19324 12.76913,-33.89318 25.35497,-40.44576 5.30011,-2.81043 16.64875,-4.41421 23.03332,-4.6586 7.63704,-0.30548 13.77722,-6.50676 13.96051,-14.20489 0.1674,-7.63704 -5.62086,-14.12853 -13.30373,-14.78531"/>
  <path d="m 556.02238,313.18037 c -14.6173,-8.17163 -22.14742,-20.03959 -23.87339,-38.1852 -2.62714,-29.41788 -3.69633,-58.75939 -7.51485,-88.11617 -0.18329,-1.84817 -0.47288,-3.75743 -0.71727,-5.66669 l 15.33518,0 10.55439,-19.87158 0,-146.66173 -32.21304,0 -178.03469,0 c 1.37467,4.1851 3.87962,12.05125 6.38457,19.87158 l -16.89314,0 c 3.28393,10.26419 13.36482,42.00373 13.36482,42.00373 0.42768,1.25247 40.58324,128.10372 40.58324,223.62782 0,49.99207 -5.19319,123.91862 -72.07839,123.91862 l -7.63704,0 c -74.52224,0 -82.57169,-100.534 -82.57169,-143.7902 0,-95.5852 40.15556,-222.37535 40.56796,-223.68892 0,0 10.0809,-31.67844 13.36483,-41.94263 -13.42592,0 -220.7563,-0.12219 -220.7563,-0.12219 0,0 0,157.0481 0,166.6555 l 28.516709,0 -0.839463,6.20128 c -2.91735,19.93267 -5.300106,39.91117 -7.102448,59.96604 -2.443853,27.79883 -3.513039,53.6884 -28.699999,67.23651 -9.5463,5.19318 -31.204948,7.16354 -31.204948,7.16354 0,0 19.275891,1.60378 29.845555,7.39266 19.856306,10.92096 31.861734,34.07647 35.130387,55.24635 11.577754,74.94991 49.885147,150.06785 117.717347,188.78764 29.54007,16.81677 63.55545,23.26243 97.43336,23.26243 l 3.81852,0 c 85.85561,0 159.30867,-58.59138 196.1803,-133.46492 13.48702,-27.38643 21.53646,-55.67403 28.82219,-85.13773 5.19319,-21.06296 13.42592,-39.74316 32.74763,-49.82406 10.63076,-5.54449 29.23459,-6.26237 29.23459,-6.26237 0,0 -16.81676,-1.43576 -29.4637,-8.59931" style="fill:#ffffff"/>
  <path d="m 440.5045,100.00002 8.59931,18.90931 8.64513,-18.90931 18.90931,-8.64513 -18.90931,-8.59931 -8.64513,-18.97041 -8.59931,18.97041 -18.97041,8.59931 18.97041,8.64513 z m -283.57859,0 8.64513,18.90931 8.59931,-18.90931 18.97041,-8.64513 -18.97041,-8.59931 -8.59931,-18.97041 -8.64513,18.97041 -18.90931,8.59931 18.90931,8.64513 z m 23.32352,352.98402 c 0,10.85987 8.76733,19.62719 19.5661,19.62719 10.85987,0 19.64247,-8.76732 19.64247,-19.62719 0,-10.85987 -8.7826,-19.64247 -19.64247,-19.64247 -10.79877,0 -19.5661,8.7826 -19.5661,19.64247 M 142.9043,374.52108 c 0,10.85988 8.76733,19.6272 19.6272,19.6272 10.79877,0 19.62719,-8.76732 19.62719,-19.6272 0,-10.85987 -8.82842,-19.62719 -19.62719,-19.62719 -10.85987,0 -19.6272,8.76732 -19.6272,19.62719 m -11.45556,-85.13773 c 0,10.85988 8.76733,19.6272 19.6272,19.6272 10.79877,0 19.5661,-8.76732 19.5661,-19.6272 0,-10.85987 -8.76733,-19.62719 -19.5661,-19.62719 -10.85987,0 -19.6272,8.76732 -19.6272,19.62719 m 5.72778,-88.97152 c 0,10.85987 8.76733,19.64247 19.6272,19.64247 10.85987,0 19.5661,-8.7826 19.5661,-19.64247 0,-10.8446 -8.70623,-19.62719 -19.5661,-19.62719 -10.85987,0 -19.6272,8.78259 -19.6272,19.62719 m 88.36056,275.54443 c 10.55439,34.4125 58.83576,47.30383 58.83576,47.30383 -16.23634,-20.52837 -0.48877,-39.66679 -0.48877,-39.66679 -28.21122,10.0198 -58.34699,-7.63704 -58.34699,-7.63704 m 81.79271,7.14827 c -10.79878,0 -19.5661,8.82842 -19.5661,19.62719 0,10.79878 8.76732,19.64247 19.5661,19.64247 10.85987,0 19.64247,-8.84369 19.64247,-19.64247 0,-10.79877 -8.7826,-19.62719 -19.64247,-19.62719 m 22.97222,-0.47289 c 0,0 15.82395,19.1537 -0.47289,39.74316 0,0 48.32719,-12.95242 58.83576,-47.3802 0,0 -30.13576,17.71794 -58.36226,7.63704 m 83.83943,-49.28946 c -10.85987,0 -19.62719,8.7826 -19.62719,19.64247 0,10.85987 8.76732,19.62719 19.62719,19.62719 10.85987,0 19.62719,-8.76732 19.62719,-19.62719 0,-10.85987 -8.76732,-19.64247 -19.62719,-19.64247 m 37.34513,-78.44768 c -10.85987,0 -19.6272,8.76732 -19.6272,19.62719 0,10.85988 8.76733,19.6272 19.6272,19.6272 10.79877,0 19.5661,-8.76732 19.5661,-19.6272 0,-10.85987 -8.76733,-19.62719 -19.5661,-19.62719 m 11.45556,-85.13773 c -10.85987,0 -19.62719,8.76732 -19.62719,19.6272 0,10.85987 8.76732,19.62719 19.62719,19.62719 10.85987,0 19.62719,-8.76732 19.62719,-19.62719 0,-10.85988 -8.76732,-19.6272 -19.62719,-19.6272 m -5.72778,-88.97152 c -10.79878,0 -19.6272,8.78259 -19.6272,19.62719 0,10.85987 8.82842,19.64247 19.6272,19.64247 10.85987,0 19.62719,-8.7826 19.62719,-19.64247 0,-10.8446 -8.76732,-19.62719 -19.62719,-19.62719 M 305.19203,544.32366 c -153.10739,0 -191.35369,-164.54768 -191.35369,-246.82916 0,-82.28147 17.24444,-168.38147 17.24444,-168.38147 l -34.473605,0 0,-82.2662 133.999515,0 c 0,0 -42.12592,132.02916 -42.12592,233.46433 0,101.37408 36.33704,176.00324 114.8,176.00324 l 7.69814,0 c 78.40185,0 114.72362,-74.62916 114.72362,-176.00324 0,-101.43517 -42.04955,-233.46433 -42.04955,-233.46433 l 133.93842,0 0,82.2662 -34.42778,0 c 0,0 17.24444,86.1 17.24444,168.38147 0,82.28148 -38.30739,246.82916 -191.39951,246.82916 l -3.81852,0 z"/>
</svg>
