<?xml version="1.0" encoding="UTF-8" standalone="no"?>
<svg xmlns="http://www.w3.org/2000/svg" version="1.1" width="344.20309" height="400.91797">
  <path d="m 0,324.13476 c 14.3508,24.38465 33.9136,45.42775 58.9629,59.71094 21.7114,12.35765 46.6821,17.07227 71.5684,17.07227 h 2.8339 c 63.1032,0 117.0552,-43.04875 144.1543,-98.04883 9.899,-20.1186 15.821,-40.92293 21.1661,-62.54883 4.2225,-17.08263 10.903,-32.35735 28.6484,-38.54687 4.8854,-1.7104 10.3162,-2.12783 16.8691,-2.70508 0,0 -7.0994,-0.29971 -15.8652,-3.67774 -14.6987,-5.64434 -21.838,-15.15883 -23.2598,-30.6914 -2.0097,-21.59382 -2.7597,-43.17571 -5.5605,-64.76953 -0.1172,-1.33625 -0.3296,-2.75771 -0.4903,-4.13672 h 11.2247 l 7.7714,-14.61328 V 0 Z M 191,129.46289 c 2.6569,18.17738 4.4199,36.65659 4.4199,53.77344 0,36.75223 -3.7537,91.07812 -52.9492,91.07812 h -5.5898 c -26.4841,0 -41.5219,-17.28381 -50.0118,-38.71875 z"/>
  <path style="fill:#d4a83a" d="m 26.957,296.66015 c 0,0 56.105,65.96485 111.334,65.96485 h 2.8008 c 112.459,0 140.5957,-120.88209 140.5957,-181.35547 C 281.6875,120.80686 269.041,57.5 269.041,57.5 h 25.3028 V 24.13476 Z M 220.3223,99.57812 c 3.822,22.92145 6.5468,46.96529 6.5468,69.04493 0,74.49867 -26.7255,129.35937 -84.3554,129.35937 h -5.6328 c -31.8104,0 -54.2,-16.69608 -67.8887,-44.16601 z"/>
  <path d="m 249.959,95.50391 c -7.9427,0 -14.4102,6.43541 -14.4102,14.41015 0,7.97475 6.4675,14.39844 14.4102,14.39844 7.9748,0 14.4433,-6.42369 14.4433,-14.39844 0,-7.97474 -6.4685,-14.41015 -14.4433,-14.41015 z m 4.2129,65.34765 c -7.932,0 -14.4004,6.47839 -14.4004,14.45313 0,7.93199 6.4684,14.41015 14.4004,14.41015 7.9748,0 14.4101,-6.47816 14.4101,-14.41015 0,-7.97474 -6.4353,-14.45313 -14.4101,-14.45313 z m -8.3926,62.59961 c -8.0176,0 -14.4531,6.42564 -14.4531,14.40039 0,7.98543 6.4355,14.41016 14.4531,14.41016 7.932,0 14.3672,-6.42473 14.3672,-14.41016 0,-7.97475 -6.4352,-14.40039 -14.3672,-14.40039 z m -27.4727,57.61914 c -7.932,0 -14.4101,6.47839 -14.4101,14.45313 0,7.932 6.4781,14.41015 14.4101,14.41015 7.9746,0 14.4415,-6.47815 14.4415,-14.41015 0,-7.97474 -6.4669,-14.45313 -14.4415,-14.45313 z m -157.4316,0.002 c -7.9747,0 -14.4004,6.47643 -14.4004,14.45118 0,7.93199 6.4257,14.41015 14.4004,14.41015 7.932,0 14.3672,-6.47816 14.3672,-14.41015 0,-7.97475 -6.4352,-14.45118 -14.3672,-14.45118 z m 138.7246,30.61524 c 0,0 -22.1395,12.98734 -42.8887,5.58984 0,0 11.6082,14.07964 -0.332,29.19531 0,0 35.4919,-9.4819 43.2207,-34.78515 z m -119.8887,0.70508 c 7.7609,25.30326 43.2618,34.78515 43.2618,34.78515 -11.9408,-15.11567 -0.3321,-29.18359 -0.3321,-29.18359 -20.76,7.38679 -42.9297,-5.60156 -42.9297,-5.60156 z m 60.1309,5.25976 c -7.9748,0 -14.4102,6.47818 -14.4102,14.41016 0,7.97474 6.4354,14.41015 14.4102,14.41015 7.9746,0 14.4414,-6.43541 14.4414,-14.41015 0,-7.93198 -6.4668,-14.41016 -14.4414,-14.41016 z"/>
</svg>
