<?xml version="1.0" encoding="UTF-8" standalone="no"?>
<svg xmlns="http://www.w3.org/2000/svg" xmlns:xlink="http://www.w3.org/1999/xlink" version="1.1" width="600" height="611.52789">
  <linearGradient x1="0" y1="0" x2="1" y2="0" id="linearGradient212" gradientUnits="userSpaceOnUse" gradientTransform="matrix(28.655594,-24.044907,-24.044907,-28.655594,386.63379,501.04102)" spreadMethod="pad">
    <stop style="stop-color:#612c75" offset="0"/>
    <stop style="stop-color:#7b5190" offset="0.3"/>
    <stop style="stop-color:#bf99c3" offset="0.5"/>
    <stop style="stop-color:#7b5190" offset="0.7"/>
    <stop style="stop-color:#612c75" offset="1"/>
  </linearGradient>
  <linearGradient x1="0" y1="0" x2="1" y2="0" id="linearGradient3000" xlink:href="#linearGradient212" gradientUnits="userSpaceOnUse" gradientTransform="matrix(438.0924,367.6033,-367.6033,438.0924,80.396813,41.00227)" spreadMethod="pad"/>
  <path d="m 575.87522,326.72407 c 6.98671,-2.44611 14.75311,-3.04235 24.12478,-3.86791 0,0 -10.15136,-0.42807 -22.68769,-5.25914 -21.02127,-8.07217 -31.23378,-21.67867 -33.26711,-43.89242 -2.87419,-30.88216 -3.94436,-61.74903 -7.94987,-92.63119 -0.16756,-1.91102 -0.47332,-3.94435 -0.70325,-5.91653 l 16.0526,0 11.11452,-20.89897 0,-154.13561 -33.86335,0 -187.03582,0 c 1.42181,4.41829 3.99022,12.71978 6.61979,20.89897 l -17.73431,0 c 3.47042,10.80876 14.03457,44.13703 14.03457,44.13703 0.41217,1.31478 42.63878,134.61258 42.63878,235.05604 0,52.56082 -5.36615,130.25544 -75.72244,130.25544 l -7.99573,0 c -78.35201,0 -86.77581,-105.7026 -86.77581,-151.15441 0,-100.44346 42.16485,-233.74125 42.63878,-235.05604 0,0 10.56415,-33.32827 14.03457,-44.13703 C 259.30251,0.1223 41.32339,0 41.32339,0 c 0,0 0.06115,165.06667 0.06115,175.15688 l 29.980156,0 -0.962545,6.51277 c -3.042351,20.89897 -5.549616,41.92024 -7.399488,63.00267 -2.858893,32.60972 -3.638591,63.24727 -40.5443,74.95803 C 15.94559,321.70954 7.8887101,322.73385 0,322.90202 c 0,0 9.2493597,0.0612 21.021272,3.53158 27.22828,7.93457 43.296176,36.59994 47.301684,62.28412 12.123544,78.76479 52.423234,157.72833 123.742674,198.39494 31.05033,17.67316 66.76356,24.41525 102.35448,24.41525 l 4.05138,0 c 90.24623,0 167.40576,-61.56557 206.16134,-140.22335 14.15687,-28.77239 22.62654,-58.52322 30.27064,-89.45125 6.03883,-24.43054 15.59396,-46.27737 40.97237,-55.12924" fill="#ffffff"/>
  <path d="m 387.93741,33.92414 c 0,0 44.19818,138.78626 44.19818,245.39086 l 0,0 c 0,106.54346 -38.15934,185.00249 -120.57802,185.00249 l 0,0 -8.05688,0 c -82.47983,0 -120.70032,-78.45903 -120.70032,-185.00249 l 0,0 c 0,-106.6046 44.3052,-245.39086 44.3052,-245.39086 l 0,0 -140.804302,0 0,86.47005 36.187162,0 c 0,0 -18.10123,90.53671 -18.10123,177.00675 l 0,0 c 0,86.48534 40.25383,259.36428 201.13153,259.36428 l 0,0 3.94436,0 c 160.89299,0 201.13153,-172.87894 201.13153,-259.36428 l 0,0 c 0,-86.47004 -18.08594,-177.00675 -18.08594,-177.00675 l 0,0 36.18717,0 0,-86.47005 -140.75844,0 z" style="fill:url(#linearGradient3000)"/>
  <path d="m 174.14725,460.80157 c 0,11.34384 9.24936,20.60849 20.5932,20.60849 11.405,0 20.60849,-9.26465 20.60849,-20.60849 0,-11.405 -9.20349,-20.66965 -20.60849,-20.66965 -11.34384,0 -20.5932,9.26465 -20.5932,20.66965 M 134.9636,378.32174 c 0,11.42028 9.20349,20.60849 20.60849,20.60849 11.34384,0 20.5932,-9.18821 20.5932,-20.60849 0,-11.405 -9.24936,-20.5932 -20.5932,-20.5932 -11.405,0 -20.60849,9.1882 -20.60849,20.5932 M 122.90121,288.8705 c 0,11.34384 9.2035,20.60849 20.60849,20.60849 11.34384,0 20.5932,-9.26465 20.5932,-20.60849 0,-11.405 -9.24936,-20.66965 -20.5932,-20.66965 -11.40499,0 -20.60849,9.26465 -20.60849,20.66965 m 5.97769,-93.51791 c 0,11.40499 9.24936,20.5932 20.65435,20.5932 11.34384,0 20.54734,-9.18821 20.54734,-20.5932 0,-11.405 -9.2035,-20.60849 -20.54734,-20.60849 -11.40499,0 -20.65435,9.20349 -20.65435,20.60849 m 4.05137,-113.11738 c 0,0 27.12126,0.12231 27.12126,27.12127 0,0 2.03333,-27.12127 27.16713,-27.12127 0,0 -27.16713,-1.00902 -27.16713,-31.17263 0,0 0,31.17263 -27.12126,31.17263 m 88.80914,402.69113 c 11.09923,36.18717 61.87134,49.7478 61.87134,49.7478 -17.07692,-21.61751 -0.47455,-41.73678 -0.47455,-41.73678 -29.68968,10.56414 -61.3974,-8.01102 -61.3974,-8.01102 m 85.99611,7.5218 c -11.40499,0 -20.60849,9.26465 -20.60849,20.60849 0,11.40499 9.2035,20.60849 20.60849,20.60849 11.405,0 20.65436,-9.2035 20.65436,-20.60849 0,-11.34384 -9.24936,-20.60849 -20.65436,-20.60849 m 24.12478,-0.5357 c 0,0 16.60298,20.13456 -0.47333,41.75207 0,0 50.75682,-13.56063 61.81019,-49.7478 0,0 -31.66186,18.57516 -61.33625,7.99573 m 88.09059,-51.78113 c -11.34384,0 -20.60849,9.26465 -20.60849,20.66965 0,11.34384 9.26465,20.60849 20.60849,20.60849 11.405,0 20.65436,-9.26465 20.65436,-20.60849 0,-11.405 -9.24936,-20.66965 -20.65436,-20.66965 m 39.29067,-82.40338 c -11.46615,0 -20.66964,9.1882 -20.66964,20.5932 0,11.42028 9.20349,20.60849 20.66964,20.60849 11.34385,0 20.54734,-9.18821 20.54734,-20.60849 0,-11.405 -9.20349,-20.5932 -20.54734,-20.5932 m 12.00124,-89.52769 c -11.405,0 -20.5932,9.26465 -20.5932,20.66964 0,11.34385 9.1882,20.60849 20.5932,20.60849 11.40499,0 20.60849,-9.26464 20.60849,-20.60849 0,-11.40499 -9.2035,-20.66964 -20.60849,-20.66964 m -6.02355,-93.45675 c -11.35913,0 -20.60849,9.20349 -20.60849,20.60849 0,11.40499 9.24936,20.5932 20.60849,20.5932 11.40499,0 20.65435,-9.18821 20.65435,-20.5932 0,-11.405 -9.24936,-20.60849 -20.65435,-20.60849 M 454.70097,51.06197 c 0,30.16361 -27.16713,31.17263 -27.16713,31.17263 25.1338,0 27.16713,27.12126 27.16713,27.12126 0,-26.99895 27.12126,-27.12126 27.12126,-27.12126 -27.12126,0 -27.12126,-31.17263 -27.12126,-31.17263" fill="#ffffff"/>
</svg>
