<?xml version="1.0" encoding="UTF-8" standalone="no"?>
<svg xmlns="http://www.w3.org/2000/svg" version="1.1" width="600" height="610.96326">
  <path d="M 39.332031 0 L 39.332031 14.556641 L 39.332031 181.21094 L 39.332031 195.76758 L 53.886719 195.76758 L 65.632812 195.76758 C 63.311152 213.01202 61.402561 229.89116 59.966797 246.06641 L 59.615234 250.00586 C 57.2783 277.209 55.139241 293.07838 38.841797 301.8457 C 34.13738 304.35065 20.77321 306.56531 13.197266 307.2832 C 5.7282397 307.9858 3.5527137e-015 314.30971 0 321.83984 C 0.06109632 329.35468 5.8509351 335.61666 13.304688 336.27344 C 20.116927 336.86974 32.045947 339.02406 37.361328 341.94141 C 54.178091 351.1364 62.837092 371.77058 65.097656 386.69336 C 78.935974 475.7718 124.40829 548.3251 190.04102 585.85352 C 219.3978 602.50227 254.58913 610.96289 294.68359 610.96289 L 298.50195 610.96289 C 383.28837 610.96289 465.3861 555.42702 507.69531 469.44922 C 522.19041 440.09243 530.66818 409.77343 537.64844 381.37891 C 543.07074 359.18567 550.41611 347.48617 563.00195 340.93359 C 568.30206 338.12316 579.65059 336.51783 586.03516 336.27344 C 593.6722 335.96796 599.8128 329.76649 599.99609 322.06836 C 600.16349 314.43132 594.37623 307.93998 586.69336 307.2832 L 586.69336 307.28516 C 582.87484 306.91858 571.17444 305.06961 563.125 300.5332 C 552.67753 294.62213 547.85119 286.81735 546.64453 273.68164 C 545.69754 262.88286 544.91905 252.02338 544.20117 241.22461 C 543.13199 226.3171 541.99991 210.98057 540.38086 195.76758 L 548.01953 195.76758 L 552.14258 188.07031 L 562.63672 168.13867 L 564.31641 164.91406 L 564.31641 161.33984 L 564.31641 14.679688 L 564.31641 0.12304688 L 549.80664 0.12304688 L 517.59375 0.12304688 L 339.61914 0.12304688 L 319.74805 0.12304688 L 325.7207 19.03125 L 326.07227 19.994141 L 309.07227 19.994141 L 315.21094 39.025391 L 328.57617 80.90625 C 328.98796 82.15872 368.42578 207.75817 368.42578 300.18164 C 368.42578 376.84225 351.24349 409.54297 310.91992 409.54297 L 303.2832 409.54297 C 241.94249 409.54297 235.26758 319.15254 235.26758 280.31055 C 235.26758 189.26175 273.45232 66.289436 275.11719 61.035156 L 288.48242 19.091797 L 294.51562 0.12304688 L 274.64453 0.12304688 L 53.886719 0 L 39.332031 0 z M 53.886719 14.556641 C 53.886719 14.556641 261.21861 14.679688 274.64453 14.679688 C 271.3606 24.943877 261.2793 56.621094 261.2793 56.621094 C 260.8669 57.934664 220.71094 184.72535 220.71094 280.31055 C 220.71094 323.56675 228.76096 424.10156 303.2832 424.10156 L 310.91992 424.10156 C 377.80512 424.10156 382.99805 350.17371 382.99805 300.18164 C 382.99805 204.65754 342.84174 77.807158 342.41406 76.554688 C 342.41406 76.554688 332.33471 44.814971 329.05078 34.550781 L 345.94336 34.550781 C 343.43841 26.730451 340.93326 18.864787 339.55859 14.679688 L 517.59375 14.679688 L 549.80664 14.679688 L 549.80664 161.33984 L 539.25195 181.21289 L 523.91602 181.21289 C 524.16041 183.12215 524.45148 185.03074 524.63477 186.87891 C 528.45329 216.23569 529.5213 245.57821 532.14844 274.99609 C 533.87441 293.1417 541.40418 305.00806 556.02148 313.17969 L 556.02344 313.17969 C 568.67038 320.34324 585.48633 321.7793 585.48633 321.7793 C 585.48633 321.7793 566.88271 322.49848 556.25195 328.04297 C 536.93024 338.12387 528.69905 356.80227 523.50586 377.86523 C 516.22013 407.32893 508.17061 435.61748 494.68359 463.00391 C 457.81196 537.87745 384.35756 596.46875 298.50195 596.46875 L 294.68359 596.46875 C 260.80568 596.46875 226.79007 590.0238 197.25 573.20703 C 129.4178 534.48724 91.110957 459.36788 79.533203 384.41797 C 76.26455 363.24809 64.25865 340.09283 44.402344 329.17188 C 33.83268 323.38299 14.556641 321.7793 14.556641 321.7793 C 14.556641 321.7793 36.215419 319.80841 45.761719 314.61523 C 70.948679 301.06712 72.019038 275.17774 74.462891 247.37891 C 76.265233 227.32404 78.647103 207.34673 81.564453 187.41406 L 82.404297 181.21289 L 53.886719 181.21289 L 53.886719 14.556641 z M 96.609375 46.847656 L 96.609375 129.11328 L 131.08203 129.11328 C 131.08203 129.11328 113.83789 215.21267 113.83789 297.49414 C 113.83789 379.77562 152.08402 544.32422 305.19141 544.32422 L 309.00977 544.32422 C 462.10189 544.32422 500.41016 379.77562 500.41016 297.49414 C 500.41016 215.21267 483.16602 129.11328 483.16602 129.11328 L 517.59375 129.11328 L 517.59375 46.847656 L 383.6543 46.847656 C 383.6543 46.847656 425.70508 178.87538 425.70508 280.31055 C 425.70508 381.68463 389.38232 456.31445 310.98047 456.31445 L 303.2832 456.31445 C 224.82024 456.31445 188.48242 381.68463 188.48242 280.31055 C 188.48242 178.87538 230.60938 46.847656 230.60938 46.847656 L 96.609375 46.847656 z M 165.57031 63.785156 L 174.16992 82.755859 L 193.14062 91.355469 L 174.16992 100 L 165.57031 118.91016 L 156.92578 100 L 138.01562 91.355469 L 156.92578 82.755859 L 165.57031 63.785156 z M 449.10352 63.785156 L 457.74805 82.755859 L 476.6582 91.355469 L 457.74805 100 L 449.10352 118.91016 L 440.50391 100 L 421.5332 91.355469 L 440.50391 82.755859 L 449.10352 63.785156 z M 156.80469 180.78516 C 167.66456 180.78516 176.36914 189.56751 176.36914 200.41211 C 176.36914 211.27198 167.66456 220.05469 156.80469 220.05469 C 145.94482 220.05469 137.17578 211.27198 137.17578 200.41211 C 137.17578 189.56751 145.94482 180.78516 156.80469 180.78516 z M 457.21484 180.78516 C 468.07471 180.78516 476.8418 189.56751 476.8418 200.41211 C 476.8418 211.27198 468.07471 220.05469 457.21484 220.05469 C 446.41606 220.05469 437.58789 211.27198 437.58789 200.41211 C 437.58789 189.56751 446.41606 180.78516 457.21484 180.78516 z M 151.07617 269.75586 C 161.87494 269.75586 170.64258 278.52294 170.64258 289.38281 C 170.64258 300.24269 161.87494 309.00977 151.07617 309.00977 C 140.2163 309.00977 131.44922 300.24269 131.44922 289.38281 C 131.44922 278.52294 140.2163 269.75586 151.07617 269.75586 z M 462.94336 269.75586 C 473.80323 269.75586 482.57031 278.52489 482.57031 289.38477 C 482.57031 300.24464 473.80323 309.01172 462.94336 309.01172 C 452.08349 309.01172 443.31641 300.24464 443.31641 289.38477 C 443.31641 278.52489 452.08349 269.75586 462.94336 269.75586 z M 162.53125 354.89453 C 173.33002 354.89453 182.1582 363.66161 182.1582 374.52148 C 182.1582 385.38136 173.33002 394.14844 162.53125 394.14844 C 151.67138 394.14844 142.9043 385.38136 142.9043 374.52148 C 142.9043 363.66161 151.67138 354.89453 162.53125 354.89453 z M 451.48633 354.89453 C 462.2851 354.89453 471.05273 363.66161 471.05273 374.52148 C 471.05273 385.38136 462.2851 394.14844 451.48633 394.14844 C 440.62646 394.14844 431.85938 385.38136 431.85938 374.52148 C 431.85937 363.66161 440.62646 354.89453 451.48633 354.89453 z M 199.81641 433.3418 C 210.67628 433.3418 219.45703 442.1245 219.45703 452.98438 C 219.45703 463.84425 210.67628 472.61133 199.81641 472.61133 C 189.01764 472.61133 180.25 463.84425 180.25 452.98438 C 180.25 442.1245 189.01764 433.3418 199.81641 433.3418 z M 414.14258 433.3418 C 425.00245 433.3418 433.76953 442.1245 433.76953 452.98438 C 433.76953 463.84424 425.00245 472.61133 414.14258 472.61133 C 403.28271 472.61133 394.51562 463.84425 394.51562 452.98438 C 394.51563 442.1245 403.28271 433.3418 414.14258 433.3418 z M 388.66406 474.99414 C 378.15549 509.42192 329.83008 522.375 329.83008 522.375 C 346.12692 501.78554 330.30273 482.63086 330.30273 482.63086 C 358.52923 492.71176 388.66406 474.99414 388.66406 474.99414 z M 225.53711 475.95703 C 225.53711 475.95703 255.67355 493.61355 283.88477 483.59375 C 283.88477 483.59375 268.13671 502.7314 284.37305 523.25977 C 284.37305 523.25977 236.0915 510.36953 225.53711 475.95703 z M 307.33008 483.10547 C 318.18995 483.10547 326.97266 491.93365 326.97266 502.73242 C 326.97266 513.5312 318.18995 522.375 307.33008 522.375 C 296.5313 522.375 287.76367 513.5312 287.76367 502.73242 C 287.76367 491.93365 296.5313 483.10547 307.33008 483.10547 z "/>
</svg>
