<?xml version="1.0" encoding="UTF-8" standalone="no"?>
<svg xmlns="http://www.w3.org/2000/svg" xmlns:xlink="http://www.w3.org/1999/xlink" version="1.1" width="600" height="483.92941">
  <radialGradient cx="0" cy="0" r="1" fx="0" fy="0" id="radialGradient398" gradientUnits="userSpaceOnUse" gradientTransform="matrix(20.597137,0,0,-20.597137,233.73877,371.88525)" spreadMethod="pad">
    <stop style="stop-color:#bf331c" offset="0"/>
    <stop style="stop-color:#d3641c" offset="0.3"/>
    <stop style="stop-color:#f6b91d" offset="0.5"/>
    <stop style="stop-color:#d3641c" offset="0.7"/>
    <stop style="stop-color:#bf331c" offset="1"/>
  </radialGradient>
  <radialGradient cx="0" cy="0" r="1" fx="0" fy="0" id="radialGradient2997" xlink:href="#radialGradient398" gradientUnits="userSpaceOnUse" gradientTransform="matrix(20.597137,0,0,-20.597137,233.73877,371.88525)" spreadMethod="pad"/>
  <radialGradient cx="0" cy="0" r="1" fx="0" fy="0" id="radialGradient3000" xlink:href="#radialGradient398" gradientUnits="userSpaceOnUse" gradientTransform="matrix(249.18926,0,0,249.18926,300.00955,244.49046)" spreadMethod="pad"/>
  <path d="M 163.79817,48.11473 C 38.048988,109.45284 6.1943027,256.14409 4.9239867,262.38679 L 0,286.24453 l 24.390067,0 c 11.106191,0 15.267988,0 36.960146,29.64071 5.190148,7.08957 9.823777,13.65892 14.650977,20.6517 15.691427,22.39386 31.84259,45.5983 69.17778,86.85332 46.03383,50.94572 127.37035,59.02735 151.22809,60.35816 l 0.61653,0.18099 0.5691,0 c 0,0 0.84688,0 2.40755,-0.0484 1.56068,0.0484 2.41965,0.0484 2.41965,0.0484 l 0.60491,-0.18099 0.56814,0 c 23.86984,-1.33081 105.19426,-9.41244 151.27648,-60.35816 37.2868,-41.25502 53.49845,-64.45946 69.14149,-86.85332 4.86349,-6.99278 9.44873,-13.56213 14.65098,-20.6517 21.69215,-29.64071 25.85395,-29.64071 36.96014,-29.64071 l 24.37797,0 -4.91189,-23.85774 C 593.8057,256.14409 562.09619,108.93262 435.97196,47.96955 401.46776,31.33446 350.94548,28.16472 350.94548,28.16472 340.73456,20.22827 328.82988,12.76365 315.17096,6.71452 L 300.00024,0 284.82904,6.71452 c -13.46535,5.95234 -25.23694,13.32017 -35.35108,21.07515 0,0 -59.11204,7.36783 -85.67979,20.32506" style="fill:#ffffff"/>
  <path d="m 298.11292,476.65885 -1.31871,-0.19357 C 273.63816,475.24335 194.70919,467.39159 150.57479,418.47838 113.56625,377.55 97.451383,354.58753 81.953528,332.32676 77.077934,325.33397 72.456404,318.71623 67.205765,311.52987 45.658786,282.17952 39.464483,278.97348 24.390067,278.97348 l -15.4494621,0 3.0729551,-15.12281 C 13.283876,257.80155 44.569944,114.36473 166.96791,54.63568 192.10807,42.34386 249.76832,35.07282 250.38533,35.02442 l 1.93572,-0.24196 1.60907,-1.22193 c 10.58596,-8.17841 21.97041,-14.94133 33.83879,-20.22827 l 12.23133,-5.34742 12.24343,5.34742 c 12.09825,5.38372 23.62788,12.27973 34.26224,20.55493 l 1.75424,1.3671 2.21398,0.14518 c 0.52071,0 49.57862,3.30282 82.32857,19.13943 122.54315,59.17252 153.92601,203.21426 155.19632,209.31177 l 3.12135,15.12281 -15.49785,0 c -15.08652,0 -21.26872,3.20604 -42.8278,32.55639 -5.19015,7.18636 -9.87217,13.8041 -14.73567,20.84528 -15.50995,22.21238 -31.57642,45.17485 -68.57286,86.10322 -44.1949,48.91322 -123.11177,56.76498 -146.26781,57.9869 l -0.79849,0.0484 -0.76267,0.14518 -1.4155,-0.0484 -2.12929,0.0484 z"/>
  <path d="m 307.13821,382.55868 c 0,0 147.7317,-27.49932 147.7317,-185.49033 l 0,0 c 0,0 -35.62934,65.27004 -106.94851,97.82643 l 0,0 0,-40.7348 c 0,0 56.00279,-27.49932 89.64801,-86.57506 l 0,0 c 0,0 -7.12586,-43.85615 -25.46681,-66.2621 l 0,0 c 0,0 -19.38139,49.90527 -64.1812,79.49758 l 0,0 0,-38.76278 c 0,0 22.40595,-22.39386 35.64144,-45.84026 l 0,0 c 0,0 -23.44641,-47.87277 -76.42463,-71.30707 l 0,0 0,357.64839 z M 216.44975,96.21736 c 13.23548,23.4464 35.67773,45.84026 35.67773,45.84026 l 0,0 0,38.76278 c -44.84821,-29.59231 -64.2175,-79.49758 -64.2175,-79.49758 l 0,0 c -18.29255,22.40595 -25.47891,66.2621 -25.47891,66.2621 l 0,0 c 33.64523,59.07574 89.69641,86.57506 89.69641,86.57506 l 0,0 0,40.7348 C 180.82041,262.33839 145.14267,197.06835 145.14267,197.06835 l 0,0 c 0,157.99101 147.71961,185.49033 147.71961,185.49033 l 0,0 0,-357.64839 c -52.96613,23.4343 -76.41253,71.30707 -76.41253,71.30707 m 266.4397,117.20782 c 0,96.07218 -70.21823,201.13336 -182.88921,202.69404 l 0,0 C 187.38975,414.55854 117.11104,309.49736 117.11104,213.42518 l 0,0 c 0,-91.68052 56.05118,-147.78009 56.05118,-147.78009 l 0,0 C 53.921889,122.73672 24.390067,266.4034 24.390067,266.4034 l 0,0 c 21.413898,0 30.572271,7.13797 52.978225,37.71024 l 0,0 c 22.405955,30.52388 34.637278,52.97823 82.510048,105.95645 l 0,0 c 41.30342,45.69508 117.3409,52.73626 137.56917,53.82511 l 0,0 0,0.19357 c 0,0 0.90737,0 2.55273,-0.0968 l 0,0 c 1.65746,0.0968 2.55273,0.0968 2.55273,0.0968 l 0,0 0,-0.19357 c 20.22827,-1.08885 96.26576,-8.13003 137.52078,-53.82511 l 0,0 c 47.92116,-52.97822 60.16459,-75.43257 82.61893,-105.95645 l 0,0 c 22.34547,-30.57227 31.56433,-37.71024 52.92984,-37.71024 l 0,0 c 0,0 -29.54392,-143.66668 -148.72376,-200.75831 l 0,0 c 0,0 55.99069,56.09957 55.99069,147.78009" style="fill:url(#radialGradient3000)"/>
</svg>
