<?xml version="1.0" encoding="UTF-8" standalone="no"?>
<svg
   xmlns:dc="http://purl.org/dc/elements/1.1/"
   xmlns:cc="http://creativecommons.org/ns#"
   xmlns:rdf="http://www.w3.org/1999/02/22-rdf-syntax-ns#"
   xmlns:svg="http://www.w3.org/2000/svg"
   xmlns="http://www.w3.org/2000/svg"
   xmlns:xlink="http://www.w3.org/1999/xlink"
   height="487.71289"
   width="648.72656"
   version="1.1">
  <defs>
    <linearGradient id="g1">
      <stop offset="0"    style="stop-color:#536e78" />
      <stop offset="0.15" style="stop-color:#829ba5" />
      <stop offset="0.3"  style="stop-color:#d9eaf3" />
      <stop offset="0.7"  style="stop-color:#d9eaf3" />
      <stop offset="0.85" style="stop-color:#829ba5" />
      <stop offset="1"    style="stop-color:#536e78" />
    </linearGradient>
    <linearGradient
       gradientTransform="translate(-608.63672,-140.29297)"
       gradientUnits="userSpaceOnUse"
       y2="336.7832"
       x2="1226.584"
       y1="336.7832"
       x1="639.41602"
       id="g2"
       xlink:href="#g1" />
  </defs>
  <path
     d="m 182.36133,0 c -70,25.75 -97.65372,86.98577 -108.33008,114.38867 C 60.26952,149.71076 58,167.69336 0,193.69336 c 14.5,11 64.12699,48.47695 67.96094,53.97656 1.91697,2.74981 2.55983,4.41705 3.23828,9.51953 0.67844,5.10248 0.85376,13.22747 1.18945,24.91797 0.66718,23.2349 0.77021,28.09787 9.8457,46.57813 7.25346,14.77009 29.19922,47.63867 78.94922,69.88867 -20.55696,-38.06311 -18.79156,-93.36274 -10.23633,-101.91797 7.23464,-7.23464 32.56284,4.97639 49.00391,11.2539 5.36663,2.04909 47.22868,16.57194 49.61914,18.61524 3.37167,2.88202 18.26359,32.1365 17.44922,35.17578 -0.7723,2.88226 -7.58753,12.64933 -10.30273,14.42969 -2.76132,1.8106 -49.79714,8.44904 -53.11524,9.54101 -9.95189,3.27511 -25.36187,34.05539 -25.48047,46.86524 89.60056,-10.13916 113.94042,25.07676 146.24219,55.17578 32.30177,-30.09902 56.64164,-65.31494 146.2422,-55.17578 -0.1186,-12.80985 -15.5286,-43.59013 -25.4805,-46.86524 -3.3181,-1.09197 -50.3539,-7.73041 -53.1152,-9.54101 -2.71524,-1.78036 -9.53045,-11.54743 -10.30275,-14.42969 -0.81437,-3.03928 14.07755,-32.29376 17.44925,-35.17578 2.3904,-2.0433 44.2525,-16.56615 49.6191,-18.61524 16.4411,-6.27751 41.7693,-18.48854 49.0039,-11.2539 8.5553,8.55523 10.3207,63.85486 -10.2363,101.91797 49.75,-22.25 71.6958,-55.11858 78.9492,-69.88867 9.0755,-18.48026 9.1785,-23.34323 9.8457,-46.57813 0.3357,-11.6905 0.511,-19.81549 1.1895,-24.91797 0.6784,-5.10248 1.3213,-6.76972 3.2382,-9.51953 3.834,-5.49961 53.461,-42.97656 67.961,-53.97656 -58,-26 -60.2695,-43.9826 -74.0313,-79.30469 C 564.01898,86.98577 536.36528,25.75 466.36528,0 c 30.2499,60 22.1073,105.40832 11.1914,127.57812 -7.0818,-8.33367 -15.4541,-15.53827 -27.836,-19.23437 -6.4177,31.61518 -23.6113,50.11694 -38.9629,53.78125 l -5.666,-7.05469 10.7246,-52.52734 c 0,0 -37.60672,-58.38177 -41.52927,-61.69141 -3.40725,-2.87485 -24.27735,-10.94141 -24.27735,-10.94141 v 63.33204 c 1.09422,7.2233 0.72139,13.51921 -2.65039,17.92187 -7.52353,-1.60428 -15.2726,-2.56641 -22.99609,-2.56641 -7.72349,0 -15.47256,0.96213 -22.99609,2.56641 -3.37178,-4.40266 -3.74461,-10.69857 -2.65039,-17.92187 V 29.91015 c 0,0 -20.8701,8.06656 -24.27735,10.94141 -3.92255,3.30964 -41.52929,61.69141 -41.52929,61.69141 l 10.7246,52.52734 -5.66601,7.05469 c -15.35164,-3.66431 -32.54521,-22.16607 -38.96289,-53.78125 -12.38191,3.6961 -20.75411,10.9007 -27.83594,19.23437 C 160.25406,105.40832 152.11133,60 182.36133,0 Z"
     style="fill:#000000" />
  <path
     d="m 151.39062,34.38476 c -38.58161,30.58502 -51.54279,59.19388 -61.98437,85.99415 -10.4938,26.93432 -17.5847,52.57107 -58.62695,76.11132 59.10112,44.0337 56.77562,38.89998 58.10351,85.14453 0.9037,31.47209 7.1285,47.88817 41.19336,80.14063 -6.1466,-89.52924 8.52501,-94.95081 75.75977,-69.2793 8.23379,3.14382 46.79131,15.5712 54.19922,21.07032 8.63188,6.40769 24.30664,44.31303 24.30664,49 0,5.33708 -15.27579,26.13567 -17.91211,28.1621 -2.67324,2.05481 -49.52321,7.66989 -55.05079,9.8379 -4.46105,1.74968 -10.04243,11.70091 -8.40429,13.71289 57.13562,-0.77216 92.49221,21.48526 121.38867,50.02734 28.89646,-28.54208 64.25302,-50.7995 121.3887,-50.02734 1.6381,-2.01198 -3.9433,-11.96321 -8.4043,-13.71289 -5.5276,-2.16801 -52.37757,-7.78309 -55.05081,-9.8379 -2.63632,-2.02643 -17.91211,-22.82502 -17.91211,-28.1621 0,-4.68697 15.67476,-42.59231 24.30664,-49 7.40788,-5.49912 45.96548,-17.9265 54.19918,-21.07032 67.2348,-25.67151 81.9064,-20.24994 75.7598,69.2793 34.0649,-32.25246 40.2897,-48.66854 41.1934,-80.14063 1.3279,-46.24455 -0.9976,-41.11083 58.1035,-85.14453 -41.0423,-23.54025 -48.1332,-49.177 -58.627,-76.11132 -10.4415,-26.80026 -23.4027,-55.40913 -61.9843,-85.99415 12.6717,52.70545 5.7091,92.57387 -18.3848,121.24024 l -19.0918,-23.7168 c -16.3898,37.79477 -35.4516,41.38773 -54.0938,50.35156 l -18.4023,-22.91211 11.125,-54 -31.625,-46 v 44.5 l -8.48242,27.6504 c -10.85924,-4.17165 -22.38462,-6.4004 -34.01758,-6.4004 -11.63296,0 -23.15834,2.22875 -34.01758,6.4004 l -8.48242,-27.6504 v -44.5 l -31.625,46 11.125,54 -18.40234,22.91211 c -18.64217,-8.96383 -37.704,-12.55679 -54.09375,-50.35156 l -19.0918,23.7168 C 145.6815,126.95863 138.71885,87.09021 151.39062,34.38476 Z m 136.38477,164.47852 c 5.75711,0.36463 12.90374,6.55094 19.4082,20.1582 -4.8764,15.94585 1.26466,51.41735 5.34375,78.49805 -23.53308,-28.32437 -36.01758,-63.69121 -36.01758,-79.79102 0,-12.21511 4.7409,-19.27848 11.26563,-18.86523 z m 73.17578,0 c 6.52473,-0.41325 11.26563,6.65012 11.26563,18.86523 0,16.09981 -12.4845,51.46665 -36.01758,79.79102 4.07909,-27.0807 10.22015,-62.5522 5.34375,-78.49805 6.50446,-13.60726 13.65109,-19.79357 19.4082,-20.1582 z"
     style="fill:url(#g2)" />
</svg>
