<?xml version="1.0" encoding="UTF-8" standalone="no"?>
<svg xmlns="http://www.w3.org/2000/svg" version="1.1" width="600" height="275.69537">
  <path d="m 473.33538,112.06153 c -117.84,-3.89538 -202.50461,48.68308 -230.76923,69.34154 16.36616,15.32308 91.44,85.59693 91.44,85.59693 0,0 -134.56615,-59.49231 -165.14769,-73.01539 -3.78461,4.40308 -69.553845,80.76923 -69.553845,80.76923 l -36.96,0.94154 c 0,0 24.701539,-102.15692 27.978462,-116.61231 C 78.858462,151.18153 0,96.84923 0,96.84923 l 79.763077,0 C 75.72,82.64307 50.196923,0 50.196923,0 c 0,0 79.689227,65.0123 90.286157,73.87384 24.8123,-12 67.86461,-27.61846 122.16,-33.20308 C 452.49231,21.16615 600,131.03076 600,131.03076 c 0,0 -77.44615,-17.34461 -126.66462,-18.96923" style="fill:#ffffff"/>
  <path d="m 83.04,250.34769 66.99692,-79.11693 118.12616,52.21847 -90.18462,-84.37847 40.09846,-31.66153 L 144.23077,112.68 83.584615,62.04923 97.283077,110.04 l -54.876923,0 62.778466,43.27384 L 83.04,250.34769 z m 75.54462,-145.32 C 187.75385,88.91076 278.54769,43.87384 364.68923,55.2 c 0,0 -75.57231,-1.72616 -169.21846,47.23384 l -37.32,2.85231 0.43421,-0.25846 z m 79.54153,-5.4 -15.17538,0.93231 c 109.32,-54.23077 206.10461,-33.7477 206.10461,-33.7477 -116.89846,0 -196.44923,42.00923 -229.57846,63.53539 l 38.64923,-30.72 z m -43.0523,46.2923 C 345.39692,40.23692 490.24615,84.72923 490.24615,84.72923 321.84923,65.15076 221.61231,146.42769 208.05231,158.21538 l -12.97846,-12.29539 z m 32.4923,30.28616 c 23.00308,-18.20308 137.91693,-100.59692 300.64616,-71.42769 0,0 -151.51385,-56.82462 -312.69231,60.75692 l 12.04615,10.67077 z M 151.58769,99.98769 C 206.28923,61.44 275.01231,53.07692 275.01231,53.07692 210,56.24307 159.84923,78.48923 139.00615,89.34461 l -0.36037,0.14769 C 112.46732,67.74461 74.464246,35.98153 74.464246,35.98153 l 4.753846,14.20616 67.107688,55.99384 11.46462,-0.75692 c 0,0 -2.38154,-1.97538 -6.37846,-5.29846 l 0.17501,-0.13809 z m 9.26769,83.04 -67.790765,78.71077 -11.824615,0.32344 70.56923,-83.15077 9.04615,4.11693 z"/>
</svg>
