<?xml version="1.0" encoding="UTF-8" standalone="no"?>
<svg xmlns="http://www.w3.org/2000/svg" xmlns:xlink="http://www.w3.org/1999/xlink" version="1.1" width="600" height="275.71234">
  <radialGradient cx="0" cy="0" r="1" fx="0" fy="0" id="radialGradient548" gradientUnits="userSpaceOnUse" gradientTransform="matrix(17.148361,0,0,-17.148361,477.05566,369.73877)" spreadMethod="pad">
    <stop style="stop-color:#ebd491" offset="0"/>
    <stop style="stop-color:#d2bb7b" offset="0.7"/>
    <stop style="stop-color:#8b723c" offset="1"/>
  </radialGradient>
  <radialGradient cx="0" cy="0" r="1" fx="0" fy="0" id="radialGradient2995" xlink:href="#radialGradient548" gradientUnits="userSpaceOnUse" gradientTransform="matrix(17.148361,0,0,-17.148361,477.05566,369.73877)" spreadMethod="pad"/>
  <radialGradient cx="0" cy="0" r="1" fx="0" fy="0" id="radialGradient2998" xlink:href="#radialGradient548" gradientUnits="userSpaceOnUse" gradientTransform="matrix(158.3023,0,0,158.3023,251.74466,152.63306)" spreadMethod="pad"/>
  <path d="m 473.29066,112.06843 c -117.81032,-3.89562 -202.48015,48.68608 -230.7465,69.34581 16.36716,15.32402 91.44562,85.60219 91.44562,85.60219 0,0 -134.57443,-59.49597 -165.15785,-73.01988 -3.78485,4.40335 -69.558129,80.7742 -69.558129,80.7742 l -36.962274,0.9416 c 0,0 24.666133,-102.16321 27.980183,-116.61948 C 78.826389,151.19084 0,96.85519 0,96.85519 l 79.73106,0 C 75.72466,82.64816 50.163087,0 50.163087,0 c 0,0 79.721833,65.01631 90.291713,73.87839 C 165.29633,61.87765 208.32359,46.25823 262.62232,40.67327 452.48323,21.16745 600,131.03883 600,131.03883 c 0,0 -77.48785,-17.34568 -126.70934,-18.9704" style="fill:#ffffff"/>
  <path d="m 83.008185,250.3631 67.001045,-79.12179 118.17035,52.22167 -90.22709,-84.38365 40.10093,-31.66349 -73.8507,5.27109 -60.649886,-50.63388 13.699305,47.99372 -54.843375,0 62.745396,43.27651 -22.145975,97.03982 z M 158.55745,105.03415 C 187.72848,88.91624 278.56483,43.87654 364.71167,55.2034 c 0,0 -75.61388,-1.72626 -169.2658,47.23675 l -37.28537,2.85248 0.39732,-0.25848 z m 79.58336,-5.40033 -15.21325,0.93237 c 109.28981,-54.23411 206.1173,-33.74977 206.1173,-33.74977 -116.90565,0 -196.48901,42.01181 -229.59259,63.53929 l 38.68854,-30.72189 z m -43.09188,46.29516 C 345.38125,40.2394 490.2394,84.73444 490.2394,84.73444 321.83211,65.15478 221.58902,146.4367 208.02819,158.22512 l -12.97926,-12.29614 z m 32.4943,30.28802 c 23.0045,-18.2042 137.92541,-100.60312 300.66466,-71.43209 0,0 -151.52317,-56.82811 -312.71155,60.76066 L 227.54323,176.217 z M 151.59702,99.99384 C 206.265,61.44378 275.02923,53.08019 275.02923,53.08019 209.976,56.24654 159.82214,78.49406 138.97778,89.35011 l -0.36039,0.1477 C 112.43732,67.74878 74.431904,35.98375 74.431904,35.98375 l 4.717213,14.20703 67.148743,55.99729 11.50225,-0.75697 c 0,0 -2.41861,-1.9755 -6.41578,-5.29879 l 0.21195,-0.1381 z m 9.26826,83.04511 -67.794937,78.71562 -11.825343,0.32346 70.53665,-83.15588 9.08363,4.11717 z" style="fill:#8b723c"/>
  <path d="m 82.325066,48.03065 65.200934,54.37257 0.82159,-0.0369 -2.84325,-2.63093 3.96947,-2.77864 c 17.44723,-12.29614 36.19608,-21.55517 53.76331,-28.47867 l 0,0 c -29.53105,8.14204 -51.56625,18.42575 -62.5977,24.15841 l 0,0 -2.49246,1.29239 -1.87396,-1.58779 C 118.4196,77.48786 95.128931,58.0559 82.07582,47.126 l 0,0 0.249246,0.90467 z m 93.218044,52.24937 18.89655,-1.44009 C 235.22371,77.56169 272.79525,65.8379 302.1509,59.38519 l 0,0 c -51.4647,6.71118 -98.4799,26.76165 -126.60779,40.89483 m 66.74257,-4.57875 7.32045,-0.4708 -9.19441,7.28353 -3.06481,2.41861 C 269.29657,89.64552 312.89618,74.09994 367.26876,67.02874 l 0,0 c -33.14051,1.44932 -77.34938,8.15127 -124.98308,28.67253 m -141.46101,13.33928 1.30161,4.72645 -4.874141,0 -42.981107,0 52.969418,36.49148 2.05858,1.44009 -0.54465,2.45553 -18.785767,82.28814 57.197367,-67.57339 1.80011,-2.13244 2.52016,1.11699 98.26758,43.45191 -74.3215,-69.5212 -3.13865,-2.95403 3.3879,-2.64016 30.6942,-24.25996 -61.91458,4.43105 -1.48625,0.1477 -1.11699,-0.97853 L 90.402486,72.586 100.82467,109.04055 z m 100.06769,37.35923 7.28353,6.84965 c 18.42575,-15.2871 87.11613,-65.73635 198.90762,-74.09995 l 0,0 c -52.18475,0.86775 -128.30635,13.69931 -206.19115,67.2503 m 20.48434,19.43196 6.305,5.59419 C 253.32636,151.66164 333.40821,98.00911 449.19687,95.04585 l 0,0 c -4.50489,-0.21232 -9.15748,-0.3231 -13.94855,-0.3231 l 0,0 c -52.32322,0 -131.58348,12.44384 -213.87162,71.10899 m -131.980429,92.31338 1.947812,-0.0646 63.465447,-73.71223 -2.02167,-0.93237 -63.391589,74.70921 z" style="fill:url(#radialGradient2998)"/>
</svg>
