<?xml version="1.0" encoding="UTF-8" standalone="no"?>
<svg xmlns="http://www.w3.org/2000/svg" xmlns:xlink="http://www.w3.org/1999/xlink" version="1.1" width="600" height="275.69537">
  <radialGradient cx="0" cy="0" r="1" fx="0" fy="0" id="radialGradient532" gradientUnits="userSpaceOnUse" gradientTransform="matrix(17.148361,0,0,-17.148361,392.80566,369.73877)" spreadMethod="pad">
    <stop style="stop-color:#bf99c3" offset="0"/>
    <stop style="stop-color:#7b5190" offset="0.66291797"/>
    <stop style="stop-color:#612c75" offset="1"/>
  </radialGradient>
  <radialGradient cx="0" cy="0" r="1" fx="0" fy="0" id="radialGradient2995" xlink:href="#radialGradient532" gradientUnits="userSpaceOnUse" gradientTransform="matrix(17.148361,0,0,-17.148361,392.80566,369.73877)" spreadMethod="pad"/>
  <radialGradient cx="0" cy="0" r="1" fx="0" fy="0" id="radialGradient2998" xlink:href="#radialGradient532" gradientUnits="userSpaceOnUse" gradientTransform="matrix(158.29256,0,0,158.29256,251.76609,152.62366)" spreadMethod="pad"/>
  <path d="M 473.29846,112.06153 C 355.49538,108.16615 270.83077,160.74461 242.56615,181.40307 L 334.00615,267 c 0,0 -134.56615,-59.49231 -165.14769,-73.01539 -3.78461,4.40308 -69.553845,80.76923 -69.553845,80.76923 l -36.923077,0.94154 c 0,0 24.664616,-102.15692 27.941539,-116.61231 C 78.858462,151.18153 0,96.84923 0,96.84923 l 79.763077,0 C 75.72,82.64307 50.196923,0 50.196923,0 c 0,0 79.689227,65.0123 90.286157,73.87384 24.8123,-12 67.86461,-27.61846 122.16,-33.20308 C 452.49231,21.16615 600,131.03076 600,131.03076 c 0,0 -77.48308,-17.34461 -126.70154,-18.96923" style="fill:#ffffff"/>
  <path d="m 83.04,250.34769 66.99692,-79.11693 118.12616,52.21847 -90.18462,-84.37847 40.09846,-31.66153 L 144.23077,112.68 83.584615,62.04923 97.283077,110.04 l -54.876923,0 62.778466,43.27384 L 83.04,250.34769 z m 75.54462,-145.32 C 187.75385,88.91076 278.54769,43.87384 364.68923,55.2 c 0,0 -75.57231,-1.72616 -169.21846,47.23384 l -37.32,2.85231 0.43421,-0.25846 z m 79.54153,-5.4 -15.17538,0.93231 c 109.32,-54.23077 206.10461,-33.7477 206.10461,-33.7477 -116.89846,0 -196.44923,42.00923 -229.57846,63.53539 l 38.64923,-30.72 z m -43.0523,46.2923 C 345.39692,40.23692 490.24615,84.72923 490.24615,84.72923 321.84923,65.15076 221.61231,146.42769 208.05231,158.21538 l -12.97846,-12.29539 z m 32.4923,30.28616 c 23.00308,-18.20308 137.91693,-100.59692 300.64616,-71.42769 0,0 -151.51385,-56.82462 -312.69231,60.75692 l 12.04615,10.67077 z M 151.58769,99.98769 C 206.28923,61.44 275.01231,53.07692 275.01231,53.07692 210,56.24307 159.84923,78.48923 139.00615,89.34461 l -0.36037,0.14769 C 112.46732,67.74461 74.464246,35.98153 74.464246,35.98153 l 4.753846,14.20616 67.107688,55.99384 11.46462,-0.75692 c 0,0 -2.38154,-1.97538 -6.37846,-5.29846 l 0.17575,-0.13883 z m 9.26769,83.04 -67.790765,78.71077 -11.824615,0.32271 70.56923,-83.15078 9.04615,4.11693 z" style="fill:#612c75"/>
  <path d="m 82.356923,48.02769 65.196927,54.36923 0.82153,-0.0369 -2.84307,-2.63077 3.93231,-2.77847 C 166.94769,84.6554 185.69538,75.39694 203.29846,68.47386 l 0,0 c -29.56615,8.14154 -51.6,18.42462 -62.63077,24.15692 l 0,0 -2.49231,1.29231 -1.91076,-1.58769 C 118.44923,77.48309 95.123077,58.05232 82.070769,47.12309 l 0,0 0.286154,0.90462 z m 93.212307,52.24615 18.85846,-1.44 c 40.81846,-21.27692 78.38769,-33 107.70462,-39.45231 l 0,0 c -51.42462,6.71077 -98.43693,26.76 -126.56308,40.89231 m 66.73846,-4.57846 7.32,-0.47077 -9.19384,7.28308 -3.06462,2.41846 C 269.31692,89.64 312.91385,74.09538 367.28308,67.02461 l 0,0 c -33.13846,1.44923 -77.34462,8.15077 -124.97539,28.67077 m -141.45231,13.33846 1.33847,4.72616 -4.910773,0 -42.941539,0 52.929232,36.48923 2.05846,1.44 -0.54461,2.45538 L 90,236.42769 l 57.22154,-67.56923 1.77231,-2.13231 2.52,1.11692 98.26153,43.44923 -74.31692,-69.51692 -3.13846,-2.95385 3.38769,-2.64 30.69231,-24.25846 -61.91077,4.43077 -1.48615,0.14769 -1.15385,-0.97846 -51.415384,-42.94154 10.421534,36.45231 z M 200.91692,146.39077 208.2,153.24 c 18.42462,-15.28616 87.11077,-65.73231 198.85846,-74.09539 l 0,0 C 354.88615,80.0123 278.79692,92.84307 200.91692,146.39077 m 20.52,19.43076 6.2677,5.59385 C 253.34769,151.6523 333.42462,98.00307 449.20615,95.04 l 0,0 c -4.50461,-0.21231 -9.15692,-0.32308 -13.94769,-0.32308 l 0,0 c -52.32,0 -131.61231,12.44308 -213.82154,71.10461 m -132.009228,92.3077 1.91077,-0.0646 63.498458,-73.7077 -2.02154,-0.9323 -63.387688,74.70461 z" style="fill:url(#radialGradient2998)"/>
</svg>
