<?xml version="1.0" encoding="utf-8"?>
<svg xmlns="http://www.w3.org/2000/svg" xmlns:xlink="http://www.w3.org/1999/xlink" version="1.1" id="Layer_1" x="0px" y="0px" width="254px" height="300px">
    <path d="M95.608,249.115c9.14-7.066,18.99-15.119,29.04-24.365l2.377-2.252l2.504,2.277l0.001-0.001   c9.975,9.224,19.789,17.281,28.97,24.331c-14.826,16.269-27.914,29.222-31.652,32.883   C123.157,278.31,110.28,265.354,95.608,249.115z M30.66,134.646c5.006,17.305,9.996,33.609,13.274,42.83   c2.674,7.083,6.659,14.895,12.718,23.871c7.807-5.18,18.354-12.473,29.435-21.003c-16.13-17.849-40.549-47.178-45.568-53.224   L30.66,134.646z M209.826,177.423c3.333-9.178,8.358-25.596,13.383-42.899l-9.646-7.412c-5.039,6.049-29.537,35.38-45.625,53.225   c11.142,8.551,21.727,15.912,29.547,21.011C203.386,192.459,207.232,184.535,209.826,177.423z M127.012,143.954   c12.553-12.477,41.586-42.049,47.716-48.296l-17.905-14.671l17.658-10.352c-8.929-4.721-19.551-9.937-32.05-14.882   c-2.005-0.903-3.459-3.039-5.322-5.887c-3.804-6.05-8.091-15.364-10.256-20.249c-1.142,2.601-8.382,17.413-10.149,20.252   c-1.843,2.844-3.263,4.973-5.26,5.874c-12.455,4.915-23.079,10.14-31.996,14.813l17.786,10.416L79.248,95.691   C85.396,101.939,114.485,131.481,127.012,143.954z"/>
    <path d="M133.425,214.383l3.062,2.803c39.481,36.484,77.208,56.44,77.208,56.44s-8.74-13.775-10.066-29.568   c-0.762-8.641,1.596-25.78,1.596-25.78s-21.737-12.84-45.355-31.309C151.277,196.268,142.283,205.633,133.425,214.383    M226.77,60.263l-0.019,0.186l-22.063,24.82l-18.121-9.902l-11.976,7.015l15.181,12.473c0,0-57.591,58.753-70.745,71.021   c-30.687,28.972-70.241,52.44-70.241,52.44s2.427,17.056,1.673,25.732c-1.347,15.851-10.103,29.564-10.103,29.564   s37.776-19.941,77.25-56.375c31.864-29.245,67.308-71.344,83.004-90.485l11.326-13.702l15.602,11.932l4.193-14.713l-12.174-13.35   c9.512-10.75,21.588-24.157,21.637-24.165c3.757-4.238,3.557-10.344-0.43-13.783c-1.788-1.505-3.905-2.24-6.14-2.26l-1.606,0.116   C230.688,57.238,228.49,58.387,226.77,60.263 M13.266,58.971c-4.011,3.456-4.223,9.57-0.503,13.765   c0.113-0.02,12.269,13.515,21.7,24.188l-12.21,13.38l4.231,14.701l15.55-11.995l11.428,13.727   c8.996,10.919,24.276,29.218,41.694,48.38c6.095-4.88,22.869-20.176,25.698-23.009C108.062,139.563,64.271,94.88,64.271,94.88   l-0.05,0.009l15.287-12.463L67.44,75.38l-18.194,9.88L27.312,60.403l-0.049,0.009l-0.02-0.114   c-2.111-2.311-5.077-3.544-7.884-3.578l-1.619,0.105C16.15,57.106,14.589,57.846,13.266,58.971"/>
</svg>
