<?xml version="1.0" encoding="UTF-8" standalone="no"?>
<svg
   version="1.1"
   id="Layer_1"
   x="0px"
   y="0px"
   width="375.08"
   height="500"
   viewBox="0 0 375.08 500"
   sodipodi:docname="C.svg"
   inkscape:version="1.1.1 (3bf5ae0d25, 2021-09-20)"
   xmlns:inkscape="http://www.inkscape.org/namespaces/inkscape"
   xmlns:sodipodi="http://sodipodi.sourceforge.net/DTD/sodipodi-0.dtd"
   xmlns="http://www.w3.org/2000/svg"
   xmlns:svg="http://www.w3.org/2000/svg">
  <defs
     id="defs15" />
  <sodipodi:namedview
     id="namedview13"
     pagecolor="#ffffff"
     bordercolor="#666666"
     borderopacity="1.0"
     inkscape:pageshadow="2"
     inkscape:pageopacity="0.0"
     inkscape:pagecheckerboard="0"
     showgrid="false"
     inkscape:zoom="15.64"
     inkscape:cx="18.766"
     inkscape:cy="25"
     inkscape:window-width="1920"
     inkscape:window-height="986"
     inkscape:window-x="-11"
     inkscape:window-y="-11"
     inkscape:window-maximized="1"
     inkscape:current-layer="Layer_1" />
  <path
     style="fill:#ffffff;stroke-width:10.0002"
     d="m 176.02,0 -16.67,2.8401 -1.27,0.22 v -0.07 C 82.072,15.01 25.581,72.541 6.7105,140.98 -11.89,208.43 7.0705,287.54 77.502,342.66 110.37,407.9 133.96,434.65 166.6,500 l 9.42,-203.17 v -0.9 -7.48 c 3.76,0.4 7.56,0.7 11.44,0.7 14.64,0 28.62,-3.2 41.19,-8.97 -60.9,58.79 -59.32,130.97 -27.13,176.18 16.79,23.6 40.55,41.65 66.76,41.56 37.43,-0.1 67.39,-6.87 98.22,-58.31 -20.63,13.7 -54.42,32.32 -78.63,17.19 -46.89,-29.29 -36.69,-85.01 6.35,-111.83 76.84,-47.85 91.82,-135.52 74.22,-203.18 C 350.84,74.151 295.06,17.41 216.68,3.0701 h -0.2 l -0.18,-0.08 -1.42,-0.22 L 198.29,0.15 v 16.82 1.42 61.822 0.82 9.72 c -3.57,-0.39 -7.17,-0.6 -10.84,-0.6 -3.87,0 -7.68,0.23 -11.44,0.67 V 0 Z"
     id="path2" />
  <path
     d="m 161.67,16.97 -1.35,0.23 C 90.212,28.281 38.011,81.432 20.541,144.79 c -17.4406,63.23 -0.17,136.65 68.241,188.6 0,0 0,0 0.1,0 l 70.258,139.85 2.24,4.49 v -5.01 l 0.3,-175.96 v -0.9 l -0.9,-0.2 C 108.26,281.89 79.522,237.6 78.232,192.12 76.942,146.64 103.06,99.982 160.83,81.342 l 0.8,-0.22 v -0.9 -61.832 -1.42 z m 50.97,0 v 1.42 61.822 0.82 l 0.7,0.3 c 74.41,27.208 93.1,88.228 83.28,133.508 -7.03,32.43 -31.02,51.79 -50.16,68.33 -65.18,56.3 -62.94,123.31 -33.35,164.9 14.8,20.79 36.38,35.28 59.81,38.95 23.33,3.65 48.43,-3.6 70.04,-25.79 0,0 0,0 0,0 0,0 0.2,-0.1 0.2,-0.2 l 7.1,-7.33 -8.59,5.53 c 0,0 -0.2,0.1 -0.2,0.2 -33.65,21.42 -70.89,8.67 -88.28,-18.61 C 235.87,413.41 238.28,371.39 285.23,333.78 351.97,280.32 370.75,207.83 354.52,145.4 338.29,82.972 287.08,30.561 214.06,17.2 Z m -25.19,98.97 c -40.7,0 -73.7,32.92 -73.7,73.63 0,40.71 33,73.72 73.7,73.72 40.7,0 73.71,-33.01 73.71,-73.72 0,-40.71 -33.01,-73.63 -73.71,-73.63 z"
     id="path4"
     style="stroke-width:10.0002" />
</svg>
