<?xml version="1.0" encoding="UTF-8" standalone="no"?>
<svg
   version="1.1"
   id="Layer_1"
   x="0px"
   y="0px"
   width="361.21"
   height="500"
   sodipodi:docname="M.svg"
   inkscape:version="1.1.1 (3bf5ae0d25, 2021-09-20)"
   xmlns:inkscape="http://www.inkscape.org/namespaces/inkscape"
   xmlns:sodipodi="http://sodipodi.sourceforge.net/DTD/sodipodi-0.dtd"
   xmlns="http://www.w3.org/2000/svg"
   xmlns:svg="http://www.w3.org/2000/svg">
  <defs
     id="defs24">
    <linearGradient
       id="SVGID_2_"
       gradientUnits="userSpaceOnUse"
       x1="4.0703"
       y1="28.541"
       x2="34.882"
       y2="20.285"
       gradientTransform="matrix(10,0,0,10,-0.3704,0)">
      <stop
         offset="0"
         style="stop-color:#bf331c"
         id="stop6" />
      <stop
         offset="0.4"
         style="stop-color:#d3641c"
         id="stop8" />
      <stop
         offset="0.5"
         style="stop-color:#f6b91d"
         id="stop10" />
      <stop
         offset="0.6"
         style="stop-color:#d3641c"
         id="stop12" />
      <stop
         offset="1"
         style="stop-color:#bf331c"
         id="stop14" />
    </linearGradient>
  </defs>
  <sodipodi:namedview
     id="namedview22"
     pagecolor="#ffffff"
     bordercolor="#666666"
     borderopacity="1.0"
     inkscape:pageshadow="2"
     inkscape:pageopacity="0.0"
     inkscape:pagecheckerboard="0"
     showgrid="false"
     inkscape:zoom="15.64"
     inkscape:cx="17.999"
     inkscape:cy="25"
     inkscape:window-width="1920"
     inkscape:window-height="986"
     inkscape:window-x="-11"
     inkscape:window-y="-11"
     inkscape:window-maximized="1"
     inkscape:current-layer="Layer_1" />
  <path
     fill="#ffffff"
     d="m 166.6,0 -15.77,2.69 -1.2,0.21 V 2.83 C 77.679,14.2 24.219,68.66 6.3496,133.44 -11.251,197.28 6.6896,272.16 73.349,324.33 104.46,386.08 132.33,438.13 163.22,500 l 3.38,-219.04 v -0.9 -7.07 c 3.56,0.4 7.16,0.6 10.83,0.6 13.86,0 27.09,-3.03 38.98,-8.49 -57.65,55.65 -56.14,123.96 -25.68,166.76 15.9,22.33 38.79,34.82 63.18,39.34 38.04,7.05 80.74,-12.37 107.3,-74.09 -19.52,12.97 -65.85,49.49 -88.77,35.18 -44.38,-27.72 -34.74,-80.47 6.02,-105.84 72.73,-45.29 86.9,-128.26 70.25,-192.3 C 332.08,70.18 279.28,16.48 205.1,2.9 h -0.2 L 204.74,2.83 203.39,2.62 187.68,0.14 v 15.92 1.35 58.51 0.78 9.2 c -3.38,-0.37 -6.78,-0.57 -10.25,-0.57 -3.66,0 -7.27,0.22 -10.83,0.64 z"
     id="path2"
     style="stroke-width:10" />
  <path
     d="m 177.43,253.63 c -40.92,0 -74.2,-33.29 -74.2,-74.2 0,-40.87 33.28,-74.13 74.2,-74.13 40.92,0 74.2,33.26 74.2,74.13 0,40.91 -33.28,74.2 -74.2,74.2 z m 91.82,212.61 c -3.84,0 -7.72,-0.3 -11.56,-0.9 -22.89,-3.58 -44.59,-17.68 -59.53,-38.67 -29.42,-41.34 -30.86,-107.48 32.27,-162.01 0.9,-0.7 1.71,-1.46 2.57,-2.21 17.55,-15.1 37.44,-32.22 43.48,-60.04 9.35,-43.1 -10.54,-97.31 -76.01,-121.25 l -0.84,-0.34 -2.79,-1.12 V 10.87 l 6.58,1.04 c 33.91,6.21 64.63,21.55 88.87,44.38 23.15,21.82 39.61,49.55 47.57,80.21 8.14,31.3 6.95,64.11 -3.43,94.87 -11.37,33.66 -32.79,63.27 -63.67,88.01 -43.96,35.21 -43.93,72.36 -29.25,95.4 10.13,15.89 27.85,25.77 46.24,25.77 10.79,0 21.29,-3.2 31.19,-9.51 h 0.1 v 0 l 28.8,-19.24 -21.58,27.55 -0.3,0.3 v 0 c -0.2,0.2 -0.4,0.3 -0.6,0.5 C 310.5,457.26 290.4,466.3 269.2,466.3 Z M 157.18,471.05 146.65,449.99 80.589,318.51 C 49.449,294.65 28.069,265.44 17.049,231.68 7.0096,200.92 6.3596,167.79 15.169,135.87 c 8.55,-31.05 25.4,-59.06 48.7,-81 24.38,-22.96 54.541,-37.82 87.191,-42.98 l 6.41,-1.07 v 69.34 l -3.96,1.07 c -56.881,18.4 -76.041,63.96 -75.011,100.48 1.29,45.4 30.651,82.26 74.801,93.9 l 4.16,1.04 v 4.31 l -0.3,166.56 z"
     id="path4"
     style="stroke-width:10" />
  <path
     fill="url(#SVGID_2_)"
     d="m 87.159,312.37 0.46,0.4 60.701,120.83 0.3,-150.05 c -23.46,-6.77 -43.17,-20.12 -57.231,-38.8 -13.39,-17.8 -21.12,-40.11 -21.77,-62.8 -0.66,-23.39 5.87,-45.73 18.91,-64.6 C 102.36,97.34 123.08,82.21 148.58,73.51 V 21.31 C 89.139,32.3 40.379,77.79 23.719,138.23 5.7396,203.42 29.279,268.37 86.689,312 Z M 205.71,73.63 c 31.96,12.18 55.96,32.22 69.5,58.06 11.71,22.33 15.23,48.12 9.92,72.59 -6.66,30.72 -28.67,49.67 -46.36,64.89 -0.9,0.7 -1.71,1.47 -2.55,2.2 -58.91,50.89 -57.94,112.08 -30.85,150.15 13.57,19.06 33.13,31.84 53.68,35.05 3.38,0.5 6.81,0.8 10.19,0.8 11.78,0 23.21,-3.2 33.84,-9.38 -4.38,0.9 -8.83,1.43 -13.34,1.43 -21.4,0 -41.98,-11.45 -53.72,-29.87 -9.44,-14.81 -12.4,-32.7 -8.33,-50.36 4.64,-20.13 18.3,-39.74 39.5,-56.73 C 323.8,267.12 347.75,202.18 331.26,138.74 315.7,78.84 267.78,34.19 205.71,21.4 Z m -28.28,40.54 c -36.03,0 -65.32,29.27 -65.32,65.25 0,36.02 29.3,65.33 65.32,65.33 36.02,0 65.32,-29.31 65.32,-65.33 0,-35.97 -29.3,-65.25 -65.32,-65.25 z"
     id="path17"
     style="fill:url(#SVGID_2_);stroke-width:10" />
</svg>
