<?xml version="1.0" encoding="UTF-8" standalone="no"?>
<svg
   version="1.1"
   id="Layer_1"
   x="0px"
   y="0px"
   width="365.07"
   height="500"
   sodipodi:docname="R.svg"
   inkscape:version="1.1.1 (3bf5ae0d25, 2021-09-20)"
   xmlns:inkscape="http://www.inkscape.org/namespaces/inkscape"
   xmlns:sodipodi="http://sodipodi.sourceforge.net/DTD/sodipodi-0.dtd"
   xmlns="http://www.w3.org/2000/svg"
   xmlns:svg="http://www.w3.org/2000/svg">
  <defs
     id="defs22">
    <linearGradient
       id="path3765_3_"
       gradientUnits="userSpaceOnUse"
       x1="11.123"
       y1="649.34"
       x2="44.799"
       y2="658.36"
       gradientTransform="matrix(10,0,0,-10,-83.599,6790.5)">
      <stop
         offset="0"
         style="stop-color:#8b723c"
         id="stop4" />
      <stop
         offset="0.4"
         style="stop-color:#d2bb7b"
         id="stop6" />
      <stop
         offset="0.5"
         style="stop-color:#ebd491"
         id="stop8" />
      <stop
         offset="0.6"
         style="stop-color:#d2bb7b"
         id="stop10" />
      <stop
         offset="1"
         style="stop-color:#8b723c"
         id="stop12" />
    </linearGradient>
  </defs>
  <sodipodi:namedview
     id="namedview20"
     pagecolor="#ffffff"
     bordercolor="#666666"
     borderopacity="1.0"
     inkscape:pageshadow="2"
     inkscape:pageopacity="0.0"
     inkscape:pagecheckerboard="0"
     showgrid="false"
     inkscape:zoom="15.64"
     inkscape:cx="18.254"
     inkscape:cy="25"
     inkscape:window-width="1920"
     inkscape:window-height="986"
     inkscape:window-x="-11"
     inkscape:window-y="-11"
     inkscape:window-maximized="1"
     inkscape:current-layer="Layer_1" />
  <path
     d="m 171.33,0 -16.22,2.76 -1.24,0.22 V 2.91 C 79.884,14.6 24.904,70.61 6.5337,137.23 -11.576,202.88 6.8837,279.88 75.434,333.53 107.42,397.04 133.87,436.38 165.64,500 l 5.69,-211.07 v -0.9 -7.28 c 3.66,0.4 7.36,0.7 11.13,0.7 14.26,0 27.86,-3.12 40.09,-8.73 -59.28,57.23 -57.73,127.48 -26.41,171.49 16.35,22.97 39.46,40.54 64.97,40.45 36.44,-0.1 69.66,-9 96.77,-60.22 -20.09,13.33 -54.13,34.93 -77.71,20.21 C 234.54,416.14 244.46,361.9 286.36,335.8 361.15,289.22 375.73,203.9 358.61,138.04 341.49,72.17 287.2,16.94 210.91,2.98 h -0.2 L 210.55,2.91 209.17,2.69 193.02,0.15 v 16.37 1.38 60.17 0.8 9.46 c -3.48,-0.38 -6.98,-0.58 -10.56,-0.58 -3.77,0 -7.47,0.23 -11.13,0.65 z"
     id="path2"
     style="stroke-width:10" />
  <path
     fill="url(#path3765_3_)"
     d="m 157.36,16.52 -1.31,0.21 C 87.814,27.52 37.004,79.26 19.994,140.94 c -16.9703,61.54 -0.17,132.99 66.43,183.57 0,0 0.1,0 0.1,0 l 68.386,136.13 2.19,4.37 v -4.87 l 0.3,-171.27 v -0.9 l -0.9,-0.2 C 105.41,274.38 77.434,231.28 76.174,187.01 74.914,142.74 100.34,97.33 156.57,79.18 l 0.8,-0.21 V 78.07 17.9 16.52 Z m 49.62,0 v 1.38 60.17 0.8 l 0.7,0.29 c 72.41,26.49 90.61,85.88 81.05,129.95 -6.85,31.57 -30.2,50.41 -48.83,66.5 -63.43,54.8 -61.26,120.02 -32.45,160.51 14.4,20.24 35.41,34.34 58.21,37.91 22.71,3.55 47.14,-3.51 68.17,-25.1 0,0 0,0 0,0 0,0 0.2,-0.1 0.2,-0.2 l 6.9,-7.13 -8.36,5.39 c 0,0 -0.2,0.1 -0.2,0.2 -32.74,20.85 -68.99,8.44 -85.93,-18.12 C 229.58,402.39 231.91,361.5 277.61,324.89 342.57,272.85 360.85,202.31 345.05,141.54 329.29,80.75 279.42,29.74 208.37,16.73 Z m -24.52,96.33 c -39.62,0 -71.74,32.05 -71.74,71.67 0,39.62 32.12,71.74 71.74,71.74 39.62,0 71.74,-32.12 71.74,-71.74 0,-39.62 -32.12,-71.67 -71.74,-71.67 z"
     id="path15"
     style="fill:url(#path3765_3_);stroke-width:10" />
</svg>
