<?xml version="1.0" encoding="UTF-8" standalone="no"?>
<svg
   version="1.1"
   id="Layer_1"
   x="0px"
   y="0px"
   width="665.2"
   height="500"
   viewBox="0 0 665.2 500"
   sodipodi:docname="C.svg"
   inkscape:version="1.1.1 (3bf5ae0d25, 2021-09-20)"
   xmlns:inkscape="http://www.inkscape.org/namespaces/inkscape"
   xmlns:sodipodi="http://sodipodi.sourceforge.net/DTD/sodipodi-0.dtd"
   xmlns="http://www.w3.org/2000/svg"
   xmlns:svg="http://www.w3.org/2000/svg">
  <defs
     id="defs26" />
  <sodipodi:namedview
     id="namedview24"
     pagecolor="#ffffff"
     bordercolor="#666666"
     borderopacity="1.0"
     inkscape:pageshadow="2"
     inkscape:pageopacity="0.0"
     inkscape:pagecheckerboard="0"
     showgrid="false"
     inkscape:zoom="15.64"
     inkscape:cx="33.28"
     inkscape:cy="25"
     inkscape:window-width="1920"
     inkscape:window-height="986"
     inkscape:window-x="-11"
     inkscape:window-y="-11"
     inkscape:window-maximized="1"
     inkscape:current-layer="Layer_1" />
  <path
     style="fill:#ffffff;stroke-width:10"
     d="m 623.24,232.41 c -2.68,-1.7 -5.21,-3.32 -7.76,-4.88 12.88,-8.4 23.36,-16.69 32.05,-25.29 l 17.67,-17.51 -22.34,-10.92 c -8.07,-3.94 -15.8,-6.83 -23.62,-9.23 14.14,-18.27 24.55,-38.39 32.62,-62.55 l 8.74,-26.17 -27.43,3.02 c -41.2,4.55 -67.86,15.04 -87.31,22.7 -10.32,4.06 -18.52,7.29 -23.82,7.47 -0.4,0 -3.02,-0.5 -8.84,-5.74 C 507.54,98.24 501.5,91.02 495.66,84.05 491.61,79.22 487.42,74.22 483.29,69.84 428.62,12.12 371.17,0 332.6,0 294.03,0 236.57,12.12 181.93,69.83 c -4.13,4.38 -8.32,9.38 -12.37,14.21 -5.84,6.98 -11.88,14.19 -17.54,19.27 -5.81,5.21 -8.48,5.69 -8.84,5.73 -5.3,-0.2 -13.5,-3.4 -23.82,-7.47 C 99.89,93.92 73.24,83.43 32.04,78.89 L 4.6,75.86 l 8.75,26.17 c 8.06,24.16 18.48,44.28 32.62,62.56 -7.83,2.39 -15.56,5.28 -23.62,9.23 L 0,184.74 l 17.67,17.5 c 8.69,8.6 19.17,16.89 32.05,25.29 -2.55,1.56 -5.09,3.17 -7.76,4.88 -1.19,0.7 -2.42,1.54 -3.7,2.34 l -25.9,16.38 27.15,14.21 c 20.46,10.71 37,17.16 56.8,21.43 -0.71,1.01 -1.45,2.04 -2.18,3.12 l -16.83,24.22 29.3,3.39 c 16.23,1.87 28.16,2.63 41.19,2.63 11.28,0 23.21,-0.6 40.02,-1.55 2.11,-0.1 4.21,-0.2 6.23,-0.2 18.3,0 32.44,5.16 39.8,14.51 8.83,11.2 7.38,27.28 4.61,38.78 l -1.7,7.11 58.84,96.27 c 2.7,4.41 5.63,8.23 8.73,11.47 17.14,17.97 39.4,17.97 56.54,0 3.1,-3.24 6.04,-7.06 8.73,-11.47 l 58.84,-96.27 -1.71,-7.11 c -2.76,-11.5 -4.21,-27.58 4.62,-38.78 7.37,-9.36 21.5,-14.51 39.8,-14.51 2.02,0 4.12,0 6.23,0.2 16.81,1 28.74,1.55 40.02,1.55 13.03,0 24.96,-0.8 41.18,-2.63 l 29.31,-3.39 -16.82,-24.23 c -0.7,-1.07 -1.46,-2.11 -2.19,-3.12 19.79,-4.28 36.35,-10.71 56.81,-21.43 l 27.14,-14.21 -25.89,-16.38 c -1.27,-0.8 -2.5,-1.57 -3.69,-2.33 z"
     id="path2" />
  <path
     d="m 471.15,300.71 c 2.37,0 4.79,0 7.28,0.2 16.2,1 28.01,1.53 38.97,1.53 12.42,0 23.76,-0.7 39.16,-2.52 -7.34,-10.59 -12.64,-17.18 -22.93,-25.66 36.2,-3.81 56.09,-10.06 83.87,-24.6 -13.46,-8.51 -21.7,-14.24 -39.26,-20.81 23.54,-12.58 42.66,-25.14 56.85,-39.19 -15.64,-7.66 -30.28,-10.96 -48.37,-15.23 21.04,-20.52 36.98,-43.89 48.37,-78.02 -64.61,7.13 -91.72,29.93 -113.03,30.28 -18.08,0 -35.95,-28.18 -51.62,-44.74 -46.27,-48.85 -96.35,-64.3 -137.84,-64.3 -41.5,0 -91.58,15.45 -137.85,64.32 -15.66,16.55 -33.54,44.74 -51.62,44.74 -21.31,-0.4 -48.42,-23.15 -113.03,-30.28 11.4,34.13 27.34,57.5 48.37,78.02 -18.08,4.28 -32.72,7.58 -48.37,15.23 14.19,14.05 33.3,26.61 56.86,39.19 -17.57,6.57 -25.81,12.3 -39.27,20.81 27.78,14.54 47.67,20.79 83.87,24.6 -10.29,8.49 -15.59,15.08 -22.93,25.66 15.4,1.77 26.74,2.52 39.16,2.52 10.97,0 22.78,-0.6 38.97,-1.53 2.48,-0.2 4.9,-0.2 7.29,-0.2 46.59,0 72.95,27.87 61.59,75.09 l 48.69,79.66 V 269.79 C 222.52,258.06 192.19,196.2 192.19,162.48 c 0,-4.6 0.4,-9.13 1.07,-13.58 14.31,-16.6 37.11,-30.3 65.11,-39.15 -4.97,10.15 -7.76,21.47 -7.76,33.44 0,43.44 36.71,78.64 81.99,78.64 45.27,0 81.98,-35.21 81.98,-78.64 0,-11.96 -2.79,-23.29 -7.76,-33.44 27.99,8.85 50.8,22.55 65.11,39.15 0.7,4.45 1.07,8.98 1.07,13.58 0,33.72 -30.33,95.59 -112.14,107.31 v 185.66 l 48.69,-79.66 c -11.35,-47.21 15.01,-75.08 61.6,-75.08 z"
     id="path4"
     style="stroke-width:10" />
</svg>
