<?xml version="1.0" encoding="UTF-8" standalone="no"?>
<svg
   version="1.1"
   id="Layer_1"
   x="0px"
   y="0px"
   width="665.2"
   height="500"
   sodipodi:docname="T.svg"
   inkscape:version="1.1.1 (3bf5ae0d25, 2021-09-20)"
   xmlns:inkscape="http://www.inkscape.org/namespaces/inkscape"
   xmlns:sodipodi="http://sodipodi.sourceforge.net/DTD/sodipodi-0.dtd"
   xmlns="http://www.w3.org/2000/svg"
   xmlns:svg="http://www.w3.org/2000/svg">
  <defs
     id="defs19">
    <linearGradient
       id="SVGID_2_"
       gradientUnits="userSpaceOnUse"
       x1="31.233"
       y1="203.86"
       x2="48.736"
       y2="236.77"
       gradientTransform="matrix(10,0,0,-10,-83.599,2390.5)">
      <stop
         offset="0.1"
         style="stop-color:#612c75"
         id="stop4" />
      <stop
         offset="0.5"
         style="stop-color:#bf99c3"
         id="stop6" />
      <stop
         offset="0.9"
         style="stop-color:#612c75"
         id="stop8" />
    </linearGradient>
  </defs>
  <sodipodi:namedview
     id="namedview17"
     pagecolor="#ffffff"
     bordercolor="#666666"
     borderopacity="1.0"
     inkscape:pageshadow="2"
     inkscape:pageopacity="0.0"
     inkscape:pagecheckerboard="0"
     showgrid="false"
     inkscape:zoom="15.64"
     inkscape:cx="33.28"
     inkscape:cy="25"
     inkscape:window-width="1920"
     inkscape:window-height="986"
     inkscape:window-x="-11"
     inkscape:window-y="-11"
     inkscape:window-maximized="1"
     inkscape:current-layer="Layer_1" />
  <path
     fill="#ffffff"
     d="m 623.24,232.41 c -2.68,-1.7 -5.22,-3.32 -7.76,-4.88 12.88,-8.4 23.36,-16.69 32.04,-25.29 l 17.68,-17.51 -22.34,-10.92 c -8.07,-3.94 -15.79,-6.83 -23.62,-9.23 14.14,-18.27 24.56,-38.39 32.62,-62.55 l 8.74,-26.17 -27.43,3.02 c -41.2,4.55 -67.85,15.04 -87.31,22.7 -10.32,4.06 -18.52,7.29 -23.82,7.47 -0.4,0 -3.02,-0.5 -8.84,-5.74 C 507.54,98.24 501.5,91.02 495.66,84.05 491.61,79.22 487.43,74.22 483.29,69.84 428.62,12.12 371.17,0 332.6,0 294.03,0 236.57,12.12 181.93,69.83 c -4.13,4.38 -8.32,9.38 -12.37,14.21 -5.84,6.98 -11.88,14.19 -17.54,19.27 -5.81,5.21 -8.48,5.69 -8.84,5.73 -5.3,-0.2 -13.5,-3.41 -23.82,-7.47 C 99.89,93.92 73.24,83.43 32.04,78.89 L 4.6,75.86 l 8.75,26.17 c 8.06,24.16 18.48,44.28 32.62,62.56 -7.83,2.39 -15.56,5.28 -23.62,9.23 L 0,184.74 l 17.67,17.5 c 8.69,8.6 19.17,16.89 32.05,25.29 -2.54,1.56 -5.09,3.17 -7.76,4.88 -1.19,0.7 -2.42,1.54 -3.7,2.34 l -25.9,16.38 27.15,14.21 c 20.46,10.71 37,17.16 56.8,21.43 -0.71,1.01 -1.45,2.04 -2.18,3.12 l -16.83,24.22 29.31,3.39 c 16.22,1.87 28.15,2.63 41.18,2.63 11.28,0 23.21,-0.6 40.02,-1.55 2.11,-0.1 4.21,-0.2 6.23,-0.2 18.3,0 32.43,5.16 39.8,14.51 8.83,11.2 7.38,27.28 4.62,38.78 l -1.71,7.11 3.81,6.24 33.19,54.3 v 0 l 21.84,35.72 c 2.7,4.42 5.63,8.24 8.73,11.48 h 56.54 c 3.1,-3.24 6.04,-7.06 8.73,-11.48 l 4.48,-7.32 c 0,0 0,0 0,0 v 0 l 17.32,-28.34 v 0 l 33.18,-54.3 3.82,-6.24 -1.71,-7.11 c -2.77,-11.5 -4.22,-27.58 4.61,-38.78 7.37,-9.36 21.51,-14.51 39.8,-14.51 2.03,0 4.13,0 6.24,0.2 16.8,1 28.73,1.55 40.02,1.55 13.03,0 24.95,-0.8 41.18,-2.63 l 29.31,-3.39 -16.82,-24.23 c -0.7,-1.07 -1.46,-2.11 -2.19,-3.12 19.79,-4.28 36.34,-10.71 56.81,-21.43 l 27.14,-14.21 -25.9,-16.38 c -1.26,-0.8 -2.49,-1.57 -3.68,-2.33 z"
     id="path2"
     style="stroke-width:10" />
  <path
     fill="url(#SVGID_2_)"
     d="m 207.44,232.92 c -17.84,-21.2 -28.51,-47.53 -28.51,-70.44 0,-5.21 0.4,-10.49 1.24,-15.66 l 0.6,-3.72 2.45,-2.85 c 16.01,-18.56 40.62,-33.48 71.16,-43.13 l 29.51,-9.33 -13.63,27.79 c -4.25,8.67 -6.41,17.96 -6.41,27.6 0,36.06 30.84,65.4 68.74,65.4 37.9,0 68.74,-29.34 68.74,-65.4 0,-9.64 -2.16,-18.93 -6.41,-27.6 l -13.62,-27.79 29.51,9.33 c 30.55,9.65 55.16,24.57 71.16,43.13 l 2.45,2.85 0.6,3.72 c 0.8,5.18 1.24,10.45 1.24,15.66 0,22.91 -10.66,49.24 -28.51,70.44 -14.65,17.38 -40.74,39.11 -83.63,48.01 v 146.51 l 31.9,-52.21 c -5.1,-22.39 -2.04,-41.5 8.85,-55.32 11.6,-14.73 31.06,-22.51 56.28,-22.51 2.43,0 4.95,0 7.47,0.2 16.42,1 28.02,1.52 38.79,1.52 10.65,0 20.59,-0.6 33.21,-1.88 -5.73,-7.89 -10.73,-13.54 -19.09,-20.43 l -6.08,-5.03 7.85,-0.8 c 32.75,-3.44 51.79,-8.64 77.55,-21.6 -10.65,-6.77 -18.74,-11.78 -33.77,-17.4 l -6.86,-2.57 6.46,-3.45 c 23.13,-12.36 40,-23.67 52.62,-35.32 -13.14,-5.83 -25.79,-8.82 -41.39,-12.5 l -1.95,-0.5 -5.86,-1.37 4.32,-4.21 c 21.28,-20.76 35.56,-43.05 45.83,-71.73 -35.51,4.52 -59.2,13.84 -76.71,20.74 -12.47,4.9 -22.31,8.78 -31.41,8.93 -15.33,0 -29.18,-16.52 -42.56,-32.52 -4.03,-4.77 -7.83,-9.32 -11.53,-13.22 C 418.52,31.96 367.05,20.98 332.6,20.98 c -34.45,0 -85.92,10.98 -135.44,63.28 -3.7,3.91 -7.5,8.45 -11.52,13.25 -13.39,15.99 -27.23,32.52 -42.51,32.52 -9.14,-0.16 -18.98,-4.03 -31.46,-8.94 -17.51,-6.89 -41.21,-16.22 -76.71,-20.74 10.27,28.68 24.54,50.98 45.83,71.74 l 4.31,4.2 -5.86,1.39 -1.96,0.5 c -15.6,3.68 -28.24,6.66 -41.39,12.5 12.63,11.64 29.49,22.96 52.63,35.31 l 6.46,3.46 -6.87,2.57 c -15.03,5.63 -23.11,10.63 -33.77,17.4 25.77,12.96 44.79,18.15 77.56,21.6 l 7.85,0.8 -6.08,5.02 c -8.37,6.9 -13.37,12.54 -19.09,20.43 12.63,1.33 22.56,1.88 33.21,1.88 10.76,0 22.37,-0.6 38.78,-1.52 2.53,-0.2 5.04,-0.2 7.47,-0.2 25.22,0 44.69,7.78 56.29,22.5 10.89,13.82 13.94,32.93 8.85,55.33 l 31.9,52.2 V 280.92 c -42.9,-8.89 -68.99,-30.62 -83.64,-48 z"
     id="path11"
     style="fill:url(#SVGID_2_);stroke-width:10" />
  <path
     fill="#ffffff"
     d="m 471.93,148.9 c -14.32,-16.6 -37.12,-30.3 -65.12,-39.14 4.98,10.15 7.76,21.47 7.76,33.43 0,43.44 -36.71,78.64 -81.98,78.64 -45.28,0 -81.99,-35.21 -81.99,-78.64 0,-11.95 2.79,-23.28 7.77,-33.43 -28,8.84 -50.8,22.54 -65.12,39.14 -0.7,4.45 -1.07,8.98 -1.07,13.58 0,33.72 30.34,95.59 112.14,107.31 v 216.73 c 17.14,17.97 39.4,17.97 56.54,0 V 269.79 C 442.66,258.07 473,196.2 473,162.48 c 0,-4.6 -0.4,-9.13 -1.07,-13.58 z"
     id="path13"
     style="stroke-width:10" />
</svg>
