<?xml version="1.0" encoding="UTF-8" standalone="no"?>
<svg xmlns="http://www.w3.org/2000/svg" version="1.1" width="600" height="616.87146">
  <path d="M 346.45042,0 231.08004,0 c 0,0 -44.81571,75.73639 -54.87071,92.77746 -20.12544,0.2924 -116.033522,1.68097 -116.033522,1.68097 L 0,210.18352 c 0,0 41.685087,81.56582 50.182491,98.08255 C 41.685087,324.82907 0,406.3949 0,406.3949 l 60.175808,115.72508 c 0,0 94.890252,1.38796 113.982422,1.68097 10.59476,15.79191 62.10353,93.07048 62.10353,93.07048 l 130.00565,-0.0617 8.79042,-14.63527 c 14.57359,-24.21221 36.87349,-61.20907 47.17524,-78.37352 20.11001,-0.23071 117.59112,-1.68097 117.59112,-1.68097 L 599.93831,406.3949 c 0,0 -41.6234,-81.56583 -50.1208,-98.12883 C 558.31491,291.74934 600,210.18352 600,210.18352 L 539.82419,94.52012 c 0,0 -96.26279,-1.44965 -115.37038,-1.74266 C 413.85904,76.93929 362.70498,0 362.70498,0 l -12.16779,0 -4.08677,0 z" style="fill:#808080"/>
  <path d="m 321.92978,431.27024 -20.12543,-94.6435 -10.11669,0 -16.39336,97.11098 c 6.33835,58.01676 16.39336,75.72097 16.39336,75.72097 l 10.11669,0 c 12.5996,-34.08214 20.12543,-78.18845 20.12543,-78.18845 m 100.78137,-80.59426 -92.05264,-29.76404 -4.99666,8.72873 75.90603,62.7204 c 53.43649,23.54907 73.73156,23.61076 73.73156,23.61076 l 5.05835,-8.79042 C 457.16342,379.2834 422.71115,350.67598 422.71115,350.67598 m -303.91713,56.50543 4.99665,8.79042 c 0,0 20.37218,-0.12338 73.79325,-23.61076 l 75.90603,-62.7204 -4.99666,-8.72873 -92.05264,29.76404 c 0,0 -34.45227,28.60742 -57.64663,56.50543 m 361.56377,-197.3526 -5.05835,-8.74415 c 0,0 -20.29507,0.0617 -73.73156,23.56449 l -75.90603,62.70498 4.99666,8.79042 92.05264,-29.81031 c 0,0 34.45227,-28.62284 57.64664,-56.50543 m -303.91714,56.50543 92.05264,29.81031 4.99666,-8.79042 -75.90603,-62.70498 c -53.42107,-23.5028 -73.79325,-23.56449 -73.79325,-23.56449 l -4.99665,8.74415 c 23.19436,27.88259 57.64663,56.50543 57.64663,56.50543 m 119.04077,-160.54079 10.055,0 c 0,0 10.13211,17.64252 16.39336,75.72097 l -16.39336,97.11098 -10.055,0 -20.18712,-94.58181 c 0,0 7.60294,-44.15257 20.18712,-78.25014 m -40.35882,281.92566 0,44.15258 -29.03922,67.47031 15.17504,22.71629 22.6546,-46.68175 c 0,0 7.58752,54.26927 24.04257,74.45639 l 22.6546,0 c 0,0 21.43628,-37.89133 25.23004,-75.72097 l 22.71629,46.68174 13.84876,-23.98087 -25.23004,-64.33969 0,-42.88799 37.89133,23.98088 43.84414,53.3748 27.65126,-0.43181 -29.64067,-42.57955 c 34.88408,15.17503 78.37351,14.92829 78.37351,14.92829 l 11.08827,-19.817 c -9.63862,-24.15052 -53.25143,-57.23025 -53.25143,-57.23025 l 51.8172,3.02267 -12.41454,-24.351 -71.44913,-6.67763 -35.36216,-27.40451 35.36216,-23.62618 71.44913,-6.67763 12.41454,-24.28931 -51.8172,2.96098 c 0,0 43.61281,-33.07973 53.25143,-57.23025 l -11.08827,-19.81699 c 0,0 -43.48943,-0.24675 -78.37351,14.94371 l 29.64067,-42.59498 -27.65126,-0.43181 -43.84414,53.43649 -41.03737,26.32499 -0.60083,-46.62006 28.97753,-65.60427 -15.11335,-22.7163 -22.71629,46.63548 c 0,0 -7.58752,-54.22299 -23.96545,-74.39469 l -22.65461,0 c 0,0 -21.51339,37.82964 -25.30715,75.72097 l -22.6546,-46.69717 -13.91045,23.98088 25.24546,64.33969 4.39521,47.88464 -40.79062,-28.85416 -43.78245,-53.43649 -27.71295,0.43181 29.64067,42.59498 C 138.19524,177.47391 94.705804,177.72066 94.705804,177.72066 L 83.61754,197.53765 c 9.638616,24.15052 53.18974,57.23025 53.18974,57.23025 l -51.755514,-2.96098 12.414537,24.28931 71.387447,6.67763 32.64792,24.89076 -32.64792,26.13993 -71.387447,6.67763 -12.414537,24.351 51.755514,-3.02267 c 0,0 -43.551124,33.07973 -53.18974,57.23025 l 11.088264,19.817 c 0,0 43.489436,0.24674 78.373516,-14.92829 l -29.64067,42.57955 27.71295,0.43181 43.78245,-53.3748 40.18917,-25.84692 z m 91.32782,-365.00282 4.08677,0 c 0,0 57.477,86.43911 61.57919,92.5924 7.40246,0.12337 113.84363,1.74266 113.84363,1.74266 l 48.50151,93.19385 c 0,0 -46.80512,91.63625 -50.1208,98.02087 3.31568,6.44631 50.1208,98.06714 50.1208,98.06714 l -48.50151,93.25554 c 0,0 -108.78528,1.61929 -116.80461,1.74266 -0.417,0.78589 -1.01784,1.80435 -1.01784,1.80435 -1.86603,3.254 -47.3603,78.74364 -52.54202,87.28731 l -2.22074,3.6858 -105.00694,0.0617 c 0,0 -57.8317,-86.74754 -61.91847,-92.96252 -7.41788,-0.0617 -112.409396,-1.61929 -112.409396,-1.61929 L 25.538477,406.33321 c 0,0 46.80512,-91.62083 50.120804,-98.06714 C 72.343597,301.88145 25.538477,210.2452 25.538477,210.2452 l 48.501517,-93.25554 c 0,0 107.351056,-1.5576 115.231586,-1.68097 3.97882,-6.75474 54.76276,-92.5924 54.76276,-92.5924 l 4.33352,0 98.08256,0 z"/>
</svg>
