<?xml version="1.0" encoding="UTF-8" standalone="no"?>
<svg xmlns="http://www.w3.org/2000/svg" version="1.1" width="600" height="624.64679">
  <path d="m 243.54978,0 -4.71162,0 c 0,0 -55.52218,93.8398 -59.85009,101.19278 -8.6112,0.14278 -125.973406,1.84717 -125.973406,1.84717 L 0,204.96446 c 0,0 51.203189,100.14872 54.82614,107.15369 C 51.203189,319.12312 0.0356941,419.29861 0.0356941,419.29861 L 53.014664,521.22312 c 0,0 114.783306,1.71332 122.841246,1.8204 4.49746,6.71941 67.79203,101.60326 67.79203,101.60326 l 114.75653,-0.10708 2.40043,-4.00666 c 5.64859,-9.37863 55.35263,-91.88555 57.37827,-95.40142 0,0 0.66034,-1.11544 1.15114,-2.02563 8.70936,-0.13422 127.6778,-1.88287 127.6778,-1.88287 L 600,419.29861 c 0,0 -51.20319,-100.17549 -54.79937,-107.18046 C 548.79681,305.11318 600,204.96446 600,204.96446 L 547.01211,103.07564 c 0,0 -116.35385,-1.74008 -124.43857,-1.84717 C 418.07609,94.46444 355.26339,0 355.26339,0 l -4.46176,0 -107.25185,0 z"/>
  <path d="m 243.54978,8.29888 c -6.38032,10.69931 -59.81439,101.0857 -59.81439,101.0857 0,0 -112.525657,1.67762 -125.634316,1.84717 -5.675362,10.91347 -43.778816,84.28269 -48.7581429,93.8041 5.2202619,10.17281 54.7547519,107.0823 54.7547519,107.0823 0,0 -49.53449,96.93626 -54.7547519,107.15369 4.9793269,9.47679 43.0827809,82.85494 48.7581429,93.75948 13.072964,0.17847 122.252296,1.78471 122.252296,1.78471 0,0 61.09938,91.63568 67.72064,101.5408 11.09194,0 93.94687,-0.0714 105.65454,-0.0714 18.23076,-30.29536 55.56679,-92.34064 57.30688,-95.30325 l 3.48909,-6.10369 c 0,0 114.26575,-1.6687 127.40118,-1.84717 5.68428,-10.90455 43.81451,-84.28269 48.73137,-93.75948 -5.19349,-10.21743 -54.72798,-107.15369 -54.72798,-107.15369 0,0 49.53449,-96.90949 54.72798,-107.0823 -4.91686,-9.52141 -43.04709,-82.89063 -48.73137,-93.8041 -13.10866,-0.14278 -123.84961,-1.81148 -123.84961,-1.81148 0,0 -60.6532,-91.26089 -67.27446,-101.12139 l -107.25185,0 z" style="fill:#d1d3d4"/>
  <path d="m 311.59166,39.80785 -29.59933,0 -2.40043,4.18513 c -0.80312,1.39207 -15.75895,28.12696 -23.95074,60.51043 -6.79973,-14.00994 -20.5955,-42.35105 -20.5955,-42.35105 l -24.9591,43.15417 c 0,0 27.74324,70.76355 28.58205,72.88735 0.1699,1.49915 1.74009,18.37354 3.09646,33.35614 -12.8231,-9.05738 -27.88601,-19.72992 -29.06392,-20.53303 -1.3653,-1.7044 -49.71296,-60.64428 -49.71296,-60.64428 l -49.81112,0.73173 c 0,0 18.06122,25.93176 26.98474,38.79056 -32.27639,-8.67366 -62.991162,-8.78075 -64.597397,-8.78075 l -4.80978,0 -16.383593,29.34948 1.436688,3.65864 c 6.65695,16.76731 26.101312,36.31875 41.298075,49.81112 C 81.525328,243.03222 51.1318,241.3189 51.1318,241.3189 l 22.237426,43.4308 c 0,0 75.787504,7.11205 80.177874,7.49576 2.54321,1.95425 16.20512,12.37693 25.36958,19.3462 -9.05737,7.21913 -22.86207,18.30215 -25.47666,20.42595 -4.60454,0.45474 -80.070794,7.49576 -80.070794,7.49576 L 51.1318,382.97987 c 0,0 30.393528,-1.74009 45.974003,-2.65029 -15.196763,13.49237 -34.641125,33.07951 -41.298075,49.84681 l -1.436688,3.65865 16.383593,29.3227 4.80978,0 c 1.606235,0 32.321007,-0.10708 64.597397,-8.78967 -8.92352,12.83203 -26.98474,38.79949 -26.98474,38.79949 l 49.81112,0.69603 c 0,0 47.99964,-58.49371 49.60588,-60.43904 1.46346,-0.94589 17.70427,-11.36857 30.0812,-19.31943 l 0,31.41081 c -1.29391,2.99831 -32.80288,76.30507 -32.80288,76.30507 l 27.04721,40.57527 c 0,0 13.32282,-27.36846 20.14932,-41.41408 4.3636,19.8013 11.95752,46.32202 23.32609,60.37657 l 2.47182,3.02507 33.606,0 2.32904,-4.17621 c 0.80312,-1.39207 15.75894,-28.16264 23.98643,-60.51935 6.79081,13.98317 20.5955,42.32429 20.5955,42.32429 l 24.92341,-43.08278 c 0,0 -27.32384,-69.7909 -28.43928,-72.61073 l 0,-30.29537 c 11.74336,7.38868 26.14593,16.49067 27.5737,17.40087 1.66869,2.01672 49.59695,60.43904 49.59695,60.43904 l 49.77542,-0.69603 c 0,0 -18.05229,-25.96746 -26.94012,-38.79949 32.27639,8.68259 62.98224,8.78967 64.58848,8.78967 l 4.80978,0 16.41928,-29.3227 -1.46345,-3.65865 c -6.65695,-16.7673 -26.11024,-36.35444 -41.307,-49.84681 15.58047,0.9102 45.974,2.65029 45.974,2.65029 l -22.20173,-43.4665 c 0,0 -75.6715,-7.11205 -80.16895,-7.49576 -2.5789,-2.05241 -17.7489,-13.769 -27.68078,-21.50569 10.18174,-6.76404 24.9948,-16.66023 27.36845,-18.23077 3.93528,-0.34766 80.48128,-7.53145 80.48128,-7.53145 l 22.20173,-43.4308 c 0,0 -30.39353,1.71332 -45.974,2.61459 15.19676,-13.49237 34.65005,-33.04381 41.307,-49.81112 l 1.46345,-3.65864 -16.41928,-29.27809 -4.80978,-0.0714 c -1.60624,0 -32.31209,0.10709 -64.58848,8.78075 8.88783,-12.8588 26.94012,-38.79056 26.94012,-38.79056 l -49.77542,-0.73173 c 0,0 -47.99964,58.55617 -49.59695,60.51042 -1.49916,0.93697 -18.65017,11.95753 -31.23234,20.00655 -0.17847,-14.15271 -0.41977,-31.92838 -0.45546,-34.26634 1.39207,-3.16785 32.83857,-74.20804 32.83857,-74.20804 L 361.50058,61.80433 c 0,0 -13.3139,27.35953 -20.1404,41.41408 -4.3636,-19.837 -11.95752,-46.36664 -23.32609,-60.37657 l -2.47182,-3.034 -3.97097,0 z"/>
  <path d="m 207.05256,427.17809 -47.92826,58.38662 -30.25967,-0.48187 32.38347,-46.57188 c -38.10345,16.62453 -85.647993,16.3479 -85.647993,16.3479 L 63.473036,433.21039 c 10.52976,-26.42256 58.208154,-62.60745 58.208154,-62.60745 l -56.601919,3.28385 13.554835,-26.56533 78.009454,-7.31729 35.7298,-28.58205 -35.7298,-27.15429 -78.009454,-7.32622 -13.554835,-26.52071 56.601919,3.23924 c 0,0 -47.678394,-36.1849 -58.208154,-62.60746 l 12.127071,-21.63955 c 0,0 47.544543,-0.28555 85.647993,16.31221 l -32.38347,-46.57188 30.25967,-0.45475 47.92826,58.38663 44.58193,31.61605 -4.80978,-52.42571 -27.60939,-70.30846 15.19677,-26.20839 24.81632,51.02472 c 4.11375,-41.33377 27.5737,-82.71216 27.5737,-82.71216 l 24.82524,0 c 17.90952,22.03219 26.1727,81.32009 26.1727,81.32009 l 24.81633,-50.99795 16.56206,24.86094 -31.72313,71.66483 0.69603,50.99795 44.86749,-28.79621 47.89256,-58.42233 30.25075,0.49044 -32.41024,46.53619 c 38.13022,-16.59776 85.67476,-16.31221 85.67476,-16.31221 l 12.136,21.63955 c -10.49407,26.42256 -58.21708,62.60746 -58.21708,62.60746 l 56.61084,-3.23924 -13.56376,26.52071 -78.04515,7.32622 -38.65671,25.75329 38.65671,29.98305 78.04515,7.31729 13.56376,26.56533 -56.61084,-3.28385 c 0,0 47.72301,36.18489 58.21708,62.60745 l -12.136,21.64847 c 0,0 -47.54454,0.27627 -85.67476,-16.3479 l 32.41024,46.57188 -30.25075,0.48187 -47.89256,-58.38662 -41.44978,-26.1727 0,46.8842 27.60939,70.33523 -15.16107,26.21731 -24.82525,-51.06933 c -4.14051,41.37839 -27.56477,82.72108 -27.56477,82.72108 l -24.82524,0 c -17.91844,-22.03219 -26.1727,-81.32009 -26.1727,-81.32009 l -24.82525,50.98903 -16.58884,-24.81633 31.75883,-73.72617 0,-48.27627 -43.92159,28.23404 z" style="fill:#eaeaea"/>
  <path d="m 324.03105,446.52429 -22.05895,-103.42366 -11.05625,0 -17.91844,106.18103 c 6.9425,63.40165 17.91844,82.68539 17.91844,82.68539 l 11.05625,0 c 13.76008,-37.19326 22.05895,-85.44276 22.05895,-85.44276 m 110.11631,-88.08412 -100.5949,-32.51733 -5.51474,9.58387 83.0334,68.53268 c 58.38663,25.6819 80.58836,25.78898 80.58836,25.78898 l 5.51474,-9.58386 C 471.8314,389.7082 434.14736,358.44017 434.14736,358.44017 m -332.22285,61.80434 5.50581,9.58386 c 0,0 22.23743,-0.13421 80.62405,-25.78898 l 83.03341,-68.53268 -5.54151,-9.58387 -100.56813,32.51733 c 0,0 -37.68405,31.26803 -63.05363,61.80434 m 395.24971,-215.73515 -5.51474,-9.58387 c 0,0 -22.20173,0.10708 -80.58836,25.79791 l -83.0334,68.52375 5.51474,9.58387 100.5949,-32.55302 c 0,0 37.68404,-31.26803 63.02686,-61.76864 m -332.19608,61.76864 100.56813,32.55302 5.54151,-9.58387 -83.03341,-68.52375 c -58.38662,-25.69083 -80.62405,-25.76221 -80.62405,-25.76221 l -5.50581,9.54817 c 25.36958,30.50061 63.05363,61.76864 63.05363,61.76864 m 130.08715,-175.4722 11.04732,0 c 0,0 11.02056,19.31051 17.91844,82.72108 l -17.91844,106.1721 -11.04732,0 -22.06788,-103.42366 c 0,0 8.29888,-48.27627 22.06788,-85.46952"/>
  <path d="m 283.14346,449.45121 c 4.07805,36.6043 9.5214,57.76198 13.03727,68.49698 9.83373,-30.1169 16.24082,-63.61582 17.60612,-71.28112 -0.63322,-2.85553 -11.08302,-51.97062 -16.803,-78.88397 -4.7027,27.74324 -13.42098,79.50861 -13.84039,81.66811 M 416.30031,395.3568 c 33.70415,14.74166 54.76367,20.56872 65.811,22.89776 -21.15768,-23.55811 -47.01806,-45.86692 -52.9522,-50.85517 -2.78414,-0.90128 -50.57855,-16.3479 -76.75125,-24.85202 21.68417,17.91844 62.18805,51.34597 63.89245,52.80943 M 169.93069,367.39939 c -5.92522,4.98825 -31.79452,27.29706 -52.9165,50.85517 11.04732,-2.32904 32.10684,-8.1561 65.7753,-22.89776 1.7044,-1.46346 42.24397,-34.92668 63.92814,-52.80943 -26.1727,8.50412 -74.0028,23.95074 -76.78694,24.85202 m 0,-110.08061 c 2.78414,0.94589 50.61424,16.41929 76.78694,24.85202 -21.68417,-17.88275 -62.22374,-51.34597 -63.92814,-52.77373 -33.66846,-14.74166 -54.76367,-20.5955 -65.7753,-22.89777 21.12198,23.55811 46.99128,45.84015 52.9165,50.81948 m 246.36962,-27.92171 c -1.7044,1.42776 -42.20828,34.86421 -63.89245,52.77373 26.2084,-8.50412 73.96711,-23.94182 76.75125,-24.85202 5.93414,-4.97933 31.79452,-27.26137 52.9522,-50.81948 -11.04733,2.30227 -32.10685,8.15611 -65.811,22.89777 M 283.28624,176.13255 c 0.58895,2.86445 11.04732,52.01523 16.803,78.91966 4.667,-27.74324 13.41205,-79.54431 13.79577,-81.7395 -4.07806,-36.5686 -9.47679,-57.72628 -13.02835,-68.46128 -9.83373,30.11689 -16.24974,63.6515 -17.57042,71.28112" style="fill:#c4c4c4"/>
</svg>
