<?xml version="1.0" encoding="UTF-8" standalone="no"?>
<svg xmlns="http://www.w3.org/2000/svg" version="1.1" width="600" height="616.87146">
  <radialGradient cx="0" cy="0" r="1" fx="0" fy="0" id="radialGradient292" gradientUnits="userSpaceOnUse" gradientTransform="matrix(17.741104,0,0,-17.741104,135.12402,483.72217)" spreadMethod="pad">
    <stop style="stop-color:#d9eaf3" offset="0"/>
    <stop style="stop-color:#99aebc" offset="0.66291797"/>
    <stop style="stop-color:#536e78" offset="1"/>
  </radialGradient>
  <path d="M 346.45042,0 231.08004,0 c 0,0 -44.81571,75.73639 -54.87071,92.77746 -20.18712,0.29363 -116.033522,1.68097 -116.033522,1.68097 L 0,210.18352 c 0,0 41.685087,81.56582 50.182491,98.08255 C 41.685087,324.82907 0,406.3949 0,406.3949 l 60.175808,115.72508 c 0,0 94.890252,1.38796 113.982422,1.68097 10.59476,15.79191 62.10353,93.07048 62.10353,93.07048 l 129.94397,-0.0617 8.8521,-14.63527 c 14.58901,-24.21221 36.8118,-61.20907 47.11356,-78.37352 20.17169,-0.23194 117.6528,-1.68097 117.6528,-1.68097 L 599.93831,406.3949 c 0,0 -41.68508,-81.56583 -50.1208,-98.12883 C 558.25323,291.74934 600,210.18352 600,210.18352 L 539.82419,94.52012 c 0,0 -96.26279,-1.44965 -115.37038,-1.74266 C 413.85904,76.93929 362.70498,0 362.70498,0 l -12.16779,0 -4.08677,0 z" style="fill:#ffffff"/>
  <path d="m 321.92978,431.27024 -20.18712,-94.6435 -10.055,0 -16.39336,97.11098 c 6.33835,58.01676 16.39336,75.72097 16.39336,75.72097 l 10.055,0 c 12.66129,-34.08214 20.18712,-78.18845 20.18712,-78.18845 m 100.78137,-80.59426 -92.05264,-29.76404 -5.05835,8.72873 75.96772,62.7204 c 53.43649,23.54907 73.73156,23.61076 73.73156,23.61076 l 5.05835,-8.79042 C 457.16342,379.2834 422.71115,350.67598 422.71115,350.67598 m -303.97882,56.50543 5.05834,8.79042 c 0,0 20.37218,-0.12338 73.79325,-23.61076 l 75.90603,-62.7204 -5.05835,-8.72873 -91.99095,29.76404 c 0,0 -34.45227,28.60742 -57.70832,56.50543 m 361.62546,-197.3526 -5.05835,-8.74415 c 0,0 -20.29507,0.0617 -73.73156,23.56449 l -75.96772,62.70498 5.05835,8.79042 92.05264,-29.81031 c 0,0 34.45227,-28.62284 57.64664,-56.50543 m -303.91714,56.50543 91.99095,29.81031 5.05835,-8.79042 -75.90603,-62.70498 c -53.42107,-23.5028 -73.79325,-23.56449 -73.79325,-23.56449 l -5.05834,8.74415 c 23.25605,27.88259 57.70832,56.50543 57.70832,56.50543 m 119.04077,-160.54079 10.055,0 c 0,0 10.13211,17.64252 16.39336,75.72097 l -16.39336,97.11098 -10.055,0 -20.18712,-94.58181 c 0,0 7.60294,-44.15257 20.18712,-78.25014 m -40.35882,281.92566 0,44.15258 -29.03922,67.47031 15.17504,22.71629 22.6546,-46.68175 c 0,0 7.58752,54.26927 24.04257,74.45639 l 22.63918,0 c 0,0 21.4517,-37.89133 25.24546,-75.72097 l 22.71629,46.68174 13.84876,-23.98087 -25.23004,-64.33969 0,-42.88799 37.89133,23.98088 43.84414,53.3748 27.65126,-0.43181 -29.64067,-42.57955 c 34.88408,15.17503 78.38893,14.92829 78.38893,14.92829 l 11.07285,-19.817 c -9.63862,-24.15052 -53.25143,-57.23025 -53.25143,-57.23025 l 51.80178,3.02267 -12.39912,-24.351 -71.44913,-6.67763 -35.36216,-27.40451 35.36216,-23.62618 71.44913,-6.67763 12.39912,-24.28931 -51.80178,2.96098 c 0,0 43.61281,-33.07973 53.25143,-57.23025 l -11.07285,-19.81699 c 0,0 -43.50485,-0.24675 -78.38893,14.94371 l 29.64067,-42.59498 -27.65126,-0.43181 -43.84414,53.43649 -41.03737,26.32499 -0.60207,-46.62006 28.97754,-65.60427 -15.11335,-22.7163 -22.71629,46.63548 c 0,0 -7.58752,-54.22299 -23.98088,-74.39469 l -22.63918,0 c 0,0 -21.51339,37.82964 -25.30715,75.72097 l -22.65461,-46.69717 -13.91045,23.98088 25.24547,64.33969 4.39521,47.88464 -40.79063,-28.85416 -43.78245,-53.43649 -27.71295,0.43181 29.64068,42.59498 C 138.19401,177.47391 94.689148,177.72066 94.689148,177.72066 l -11.072842,19.81699 c 9.638616,24.15052 53.189744,57.23025 53.189744,57.23025 l -51.740096,-2.96098 12.399116,24.28931 71.38745,6.67763 32.64792,24.89076 -32.64792,26.13993 -71.38745,6.67763 -12.399116,24.351 51.740096,-3.02267 c 0,0 -43.551128,33.07973 -53.189744,57.23025 l 11.072842,19.817 c 0,0 43.504862,0.24674 78.388942,-14.92829 l -29.64068,42.57955 27.71295,0.43181 43.78245,-53.3748 40.18918,-25.84692 z m 91.32782,-365.00282 4.08677,0 c 0,0 57.477,86.43911 61.57919,92.5924 7.40246,0.12337 113.84363,1.74266 113.84363,1.74266 l 48.43983,93.19385 c 0,0 -46.74344,91.63625 -50.12081,98.02087 3.37737,6.44631 50.12081,98.06714 50.12081,98.06714 l -48.43983,93.25554 c 0,0 -108.78528,1.61929 -116.80461,1.74266 -0.47869,0.78713 -1.01784,1.80435 -1.01784,1.80435 -1.86603,3.254 -47.3603,78.74364 -52.54202,87.28731 l -2.22074,3.6858 -105.00694,0.0617 c 0,0 -57.8317,-86.74754 -61.91847,-92.96252 -7.41788,-0.0617 -112.409396,-1.61929 -112.409396,-1.61929 L 25.538477,406.33321 c 0,0 46.80512,-91.62083 50.120804,-98.06714 C 72.343597,301.88145 25.538477,210.2452 25.538477,210.2452 l 48.501517,-93.25554 c 0,0 107.351056,-1.5576 115.231586,-1.68097 3.97882,-6.75474 54.76276,-92.5924 54.76276,-92.5924 l 4.33352,0 98.08256,0 z" style="fill:#536e78"/>
  <g transform="matrix(15.421786,0,0,-15.421786,-1783.8688,7768.3078)">
    <path d="m 138.137,501.848 -6.364,0 -0.046,0 -3.438,-5.805 -0.117,-0.191 -0.223,-0.004 c -0.457,-0.008 -6.004,-0.09 -7.23,-0.106 l 0,0 -2.942,-5.656 3.153,-6.172 0.097,-0.18 -0.097,-0.183 -3.153,-6.176 2.942,-5.652 c 1.207,-0.016 6.621,-0.094 7.047,-0.102 l 0,0 0.211,0 0.117,-0.18 3.898,-5.847 6.367,0.004 0.028,0.047 c 0.336,0.554 3.285,5.445 3.402,5.652 l 0,0 0.066,0.113 0.114,0.203 0.23,0.004 c 0.457,0.004 6.098,0.09 7.332,0.106 l 0,0 2.942,5.652 c -0.516,1.008 -2.965,5.801 -3.161,6.172 l 0,0 -0.089,0.187 0.089,0.184 c 0.196,0.371 2.645,5.164 3.161,6.168 l 0,0 -2.942,5.652 c -1.219,0.02 -6.715,0.102 -7.14,0.106 l 0,0 -0.211,0.004 -0.118,0.175 c -0.238,0.36 -3.242,4.868 -3.878,5.825 l 0,0 -0.047,0 z m -4.145,-2.254 0.113,0.203 0.239,0 1.468,0 0.192,0 0.121,-0.149 c 0.715,-0.878 1.172,-2.613 1.422,-3.796 l 0,0 0.933,1.921 0.305,0.625 0.387,-0.578 0.98,-1.472 0.125,-0.184 -0.089,-0.199 -1.844,-4.176 0.023,-2.215 2,1.285 2.809,3.414 0.121,0.149 0.191,0 1.797,-0.031 0.75,-0.012 -0.43,-0.617 -1.207,-1.735 c 1.907,0.555 3.782,0.575 4.032,0.575 l 0,0 0.242,0 0.113,-0.207 0.723,-1.286 0.09,-0.164 -0.067,-0.175 c -0.422,-1.055 -1.711,-2.305 -2.621,-3.098 l 0,0 2.129,0.125 0.699,0.039 -0.316,-0.621 -0.809,-1.578 -0.097,-0.196 -0.219,-0.019 -4.535,-0.426 -1.746,-1.16 1.765,-1.371 4.516,-0.422 0.219,-0.023 0.097,-0.196 0.809,-1.574 0.316,-0.621 -0.699,0.039 -2.129,0.125 c 0.914,-0.797 2.199,-2.043 2.621,-3.094 l 0,0 0.067,-0.179 -0.09,-0.165 -0.723,-1.289 -0.113,-0.203 -0.231,0 c -0.101,0 -2.062,-0.004 -4.046,0.575 l 0,0 1.21,-1.739 0.43,-0.617 -0.75,-0.012 -1.797,-0.023 -0.191,-0.004 -0.121,0.148 -2.805,3.411 -1.785,1.132 0,-1.98 1.605,-4.102 0.075,-0.179 -0.098,-0.168 -0.898,-1.551 -0.379,-0.649 -0.332,0.672 -0.922,1.903 c -0.473,-2.012 -1.426,-3.719 -1.477,-3.805 l 0,0 -0.113,-0.203 -0.235,0 -1.468,0 -0.196,0 -0.117,0.148 c -0.719,0.875 -1.176,2.614 -1.422,3.801 l 0,0 -0.933,-1.926 -0.309,-0.625 -0.387,0.578 -0.98,1.473 -0.121,0.184 0.086,0.199 1.847,4.297 0,2.047 -1.933,-1.243 -2.805,-3.414 -0.121,-0.148 -0.191,0.004 -1.797,0.023 -0.75,0.012 0.43,0.617 1.207,1.742 c -1.965,-0.57 -3.934,-0.578 -4.032,-0.578 l 0,0 -0.242,0 -0.113,0.203 -0.723,1.289 -0.09,0.165 0.071,0.179 c 0.418,1.051 1.699,2.297 2.613,3.094 l 0,0 -2.125,-0.125 -0.699,-0.039 0.316,0.621 0.809,1.574 0.097,0.196 0.219,0.023 4.512,0.422 1.625,1.301 -1.621,1.23 -4.516,0.426 -0.219,0.019 -0.097,0.196 -0.809,1.578 -0.316,0.621 0.699,-0.039 2.129,-0.125 c -0.914,0.793 -2.199,2.043 -2.617,3.098 l 0,0 -0.071,0.175 0.09,0.164 0.723,1.286 0.121,0.207 0.234,0 c 0.246,0 2.125,-0.02 4.032,-0.575 l 0,0 -1.207,1.739 -0.43,0.617 0.75,0.012 1.797,0.027 0.191,0 0.121,-0.149 2.809,-3.425 1.89,-1.34 -0.199,2.187 -1.613,4.121 -0.07,0.18 0.093,0.168 0.903,1.555 0.375,0.648 0.332,-0.676 0.926,-1.906 c 0.468,2.016 1.425,3.723 1.472,3.809 m 1.121,-3.133 c -0.668,-1.902 -1.101,-4.211 -1.183,-4.66 l 0,0 1.222,-5.727 0.993,5.887 c -0.297,2.727 -0.731,4.035 -0.915,4.5 l 0,0 -0.117,0 z m 6.813,-7.649 -4.606,-3.804 5.567,1.801 c 0.343,0.293 2.133,1.824 3.449,3.351 l 0,0 -0.063,0.102 c -0.492,-0.071 -1.835,-0.348 -4.347,-1.45 m -18.067,1.348 c 1.317,-1.527 3.106,-3.058 3.45,-3.351 l 0,0 5.57,-1.801 -4.606,3.804 c -2.515,1.102 -3.863,1.379 -4.355,1.45 l 0,0 -0.059,-0.102 z m 3.45,-9.531 c -0.34,-0.289 -2.133,-1.824 -3.45,-3.352 l 0,0 0.055,-0.101 c 0.496,0.07 1.844,0.347 4.359,1.449 l 0,0 4.602,3.801 -5.566,-1.797 z m 14.617,-2.004 c 2.512,-1.102 3.855,-1.383 4.347,-1.449 l 0,0 0.063,0.101 c -1.32,1.532 -3.106,3.063 -3.449,3.352 l 0,0 -5.567,1.797 4.606,-3.801 z m -7.996,-3.035 c 0.297,-2.727 0.73,-4.035 0.914,-4.5 l 0,0 0.117,0 c 0.668,1.902 1.098,4.211 1.18,4.664 l 0,0 -1.219,5.715 -0.992,-5.879 z" style="fill:url(#radialGradient292)"/>
  </g>
</svg>
