<?xml version="1.0" encoding="UTF-8" standalone="no"?>
<svg xmlns="http://www.w3.org/2000/svg" version="1.1" width="600" height="616.87146">
  <path d="m 287.95703,66.699219 c 0,0 -21.51483,37.829371 -25.30859,75.720701 l -22.6543,-46.697264 -13.91016,23.980464 25.2461,64.33985 4.39453,47.88476 -40.79102,-28.85351 -43.78125,-53.4375 -27.71289,0.43359 29.64063,42.59375 C 138.196,177.4736 94.705078,177.7207 94.705078,177.7207 l -11.08789,19.81641 c 9.638615,24.15052 53.189452,57.23047 53.189452,57.23047 l -51.753906,-2.96094 12.414063,24.28906 71.386723,6.67774 32.64843,24.89062 -32.64843,26.14063 -71.386723,6.67773 -12.414063,24.35156 51.753906,-3.02343 c 0,0 -43.550837,33.07995 -53.189452,57.23047 l 11.08789,19.8164 c 0,0 43.490922,0.2473 78.375002,-14.92773 l -29.64063,42.58008 27.71289,0.43164 43.78125,-53.375 40.18946,-25.84766 v 44.15234 l -29.03907,67.47071 15.17383,22.71679 22.6543,-46.68164 c 0,0 7.58792,54.26796 24.04297,74.45508 h 22.6543 c 0,0 21.4367,-37.89106 25.23046,-75.7207 l 22.7168,46.68164 13.84961,-23.98047 -25.23047,-64.33984 v -42.88672 l 37.89063,23.98047 43.84375,53.375 27.65234,-0.43164 -29.64062,-42.58008 c 34.88407,15.17503 78.37304,14.92773 78.37304,14.92773 l 11.08789,-19.8164 c -9.63862,-24.15052 -53.25195,-57.23047 -53.25195,-57.23047 l 51.81836,3.02343 -12.41406,-24.35156 -71.44922,-6.67773 -35.36328,-27.4043 35.36328,-23.62695 71.44922,-6.67774 12.41406,-24.28906 -51.81836,2.96094 c 0,0 43.61333,-33.07995 53.25195,-57.23047 L 505.29492,177.7207 c 0,0 -43.48897,-0.2471 -78.37304,14.94336 l 29.64062,-42.59375 -27.65234,-0.43359 -43.84375,53.4375 -41.03711,26.32422 -0.60157,-46.61914 28.97852,-65.60547 -15.11328,-22.714846 -22.7168,46.634766 c 0,0 -7.58691,-54.222831 -23.96484,-74.394531 z m 7.52344,39.093751 h 10.05664 c 0,0 10.13133,17.64225 16.39258,75.7207 L 305.53711,278.625 h -10.05664 l -20.18555,-94.58203 c 0,0 7.60137,-44.15243 20.18555,-78.25 z m -171.68945,95.29101 c 0,0 20.37189,0.0617 73.79296,23.56446 l 75.90625,62.70508 -4.99609,8.79101 -92.05273,-29.81055 c 0,0 -34.45213,-28.62327 -57.64649,-56.50586 z m 351.50781,0 5.05859,8.74414 c -23.19437,27.88259 -57.64648,56.50586 -57.64648,56.50586 l -92.05274,29.81055 -4.99609,-8.79101 75.90625,-62.70508 c 53.43649,-23.50279 73.73047,-23.56446 73.73047,-23.56446 z m -206.80469,119.82813 4.99609,8.72851 -75.90625,62.72071 c -53.42107,23.48738 -73.79296,23.61133 -73.79296,23.61133 l -4.9961,-8.79102 c 23.19436,-27.89801 57.64649,-56.50586 57.64649,-56.50586 z m 62.16406,0 92.05274,29.76367 c 0,0 34.45211,28.60785 57.64648,56.50586 l -5.05859,8.79102 c 0,0 -20.29398,-0.0623 -73.73047,-23.61133 l -75.90625,-62.72071 z m -38.9707,15.71484 h 10.11719 l 20.125,94.64258 c 0,0 -7.5254,44.10731 -20.125,78.18945 H 291.6875 c 0,0 -10.05423,-17.70394 -16.39258,-75.7207 z"/></svg>
