<?xml version="1.0" encoding="UTF-8" standalone="no"?>
<svg xmlns="http://www.w3.org/2000/svg" version="1.1" width="600" height="574.10773">
  <path d="m 371.53382,233.84843 c 0,-6.38694 8.19539,-24.77274 16.04632,-24.77274 8.97043,0 14.62539,13.67811 14.6828,13.79293 0,0 7.90834,20.06507 12.32897,31.27452 -7.17635,10.93676 -14.18047,21.64387 -14.41011,22.03139 l -0.94728,0 c -18.32839,0 -27.7007,-35.14975 -27.7007,-42.3261 m 29.66702,-197.1773 c -46.25873,94.23979 -93.07722,106.69792 -93.57956,106.79839 l -21.80174,5.38226 3.47335,22.43326 c 0.94728,5.26744 2.02373,22.26103 -5.49708,31.33193 -4.70768,5.5545 -13.2906,8.41068 -25.56215,8.41068 -15.81667,0 -27.14094,-4.14793 -29.49478,-10.76452 -1.44963,-4.09052 0.34446,-8.29586 1.40656,-9.18572 l 37.94852,-17.78299 -32.45144,-24.2704 C 231.93953,146.49794 143.18247,87.69496 42.828437,147.28734 L 0,172.69161 46.746723,190.11578 c 0.788824,0.28705 83.661847,31.7338 113.027457,95.54588 l 8.46809,18.32839 19.63449,-5.38226 c 5.71237,-1.56445 24.2704,-4.37757 34.07329,3.14324 6.34389,4.8225 9.54454,14.6828 9.54454,29.37996 0,21.68692 -5.72672,29.71008 -8.5255,30.21242 -4.87991,0.84738 -14.91244,-5.0952 -18.17051,-14.02258 l -14.79762,-41.09176 -26.52378,34.70481 c -2.56913,3.37288 -62.17587,83.59009 -2.00938,194.10583 l 21.2994,39.06803 20.73964,-39.4125 c 0.40188,-0.78882 41.60846,-78.20782 101.93283,-114.03215 l 14.74022,-8.7982 -3.703,-16.99359 c -1.27739,-5.66931 -3.12889,-24.16993 4.54981,-33.70012 4.37757,-5.43967 12.67342,-8.18104 24.72969,-8.18104 24.04076,0 36.26925,10.14736 37.71888,20.2373 0.61774,4.09052 -0.38695,9.47278 -8.51115,11.82662 l -49.96173,14.81198 43.84748,28.08822 c 3.76041,2.41125 92.67534,58.08535 188.93886,-2.81313 L 600,398.45948 552.67917,382.42752 c -0.50292,-0.17223 -48.59822,-16.82136 -82.91551,-58.25758 -19.29002,-23.26572 -26.56684,-43.44561 -26.62425,-43.67525 0,0 -7.67869,-21.64386 -12.17108,-34.30294 6.50177,-8.97043 12.94613,-17.94087 12.94613,-17.94087 22.1462,-31.17405 29.6096,-62.79303 29.6096,-91.22572 0,-56.56396 -29.43737,-100.58367 -31.28887,-103.26763 L 419.19912,0 401.20084,36.67113 z" style="fill:#808080"/>
  <path d="m 451.43527,339.36944 c 39.4125,47.53612 93.62262,65.64922 93.62262,65.64922 -84.53737,53.49249 -163.3193,2.91359 -163.3193,2.91359 42.78538,-12.67342 33.02555,-78.76758 -35.9822,-78.76758 -69.02211,0 -52.54521,70.97407 -52.54521,70.97407 -67.05579,39.85743 -110.8315,123.51928 -110.8315,123.51928 -53.49249,-98.22983 0,-168.25662 0,-168.25662 12.67342,35.03492 72.94039,52.53085 72.94039,-24.27041 0,-76.81561 -73.90202,-55.45881 -73.90202,-55.45881 -34.03024,-73.88766 -126.418528,-107.9179 -126.418528,-107.9179 88.527418,-52.53086 167.237588,0.94728 167.237588,0.94728 -25.28945,7.79351 -32.06392,66.16592 35.99655,66.16592 68.06047,0 54.43977,-68.07483 54.43977,-68.07483 0,0 56.39173,-10.70711 109.88422,-119.64405 0,0 59.31968,86.57544 1.96632,167.25193 0,0 -10.70711,-29.16467 -36.94383,-29.16467 -26.25108,0 -39.87179,34.04459 -39.87179,48.61257 0,14.58234 13.62071,66.16592 51.52617,66.16592 0,0 13.5633,1.89456 21.41422,-11.66874 0,0 8.08057,23.66759 30.78653,51.02383"/>
</svg>
