<?xml version="1.0" encoding="UTF-8" standalone="no"?>
<svg xmlns="http://www.w3.org/2000/svg" version="1.1" width="600" height="574.10773">
  <linearGradient x1="0" y1="0" x2="1" y2="0" id="linearGradient388" gradientUnits="userSpaceOnUse" gradientTransform="matrix(35.941635,-6.337479,-6.337479,-35.941635,465.0498,375.40381)" spreadMethod="pad">
    <stop style="stop-color:#bf331c" offset="0"/>
    <stop style="stop-color:#d3641c" offset="0.3"/>
    <stop style="stop-color:#f6b91d" offset="0.5"/>
    <stop style="stop-color:#d3641c" offset="0.7"/>
    <stop style="stop-color:#bf331c" offset="1"/>
  </linearGradient>
  <path d="m 371.53382,233.84843 c 0,-6.38694 8.19539,-24.77274 16.04632,-24.77274 8.97043,0 14.62539,13.67811 14.6828,13.79293 0,0 7.90834,20.06507 12.32897,31.27452 -7.17635,10.93676 -14.18047,21.64387 -14.41011,22.03139 l -0.94728,0 c -18.32839,0 -27.7007,-35.14975 -27.7007,-42.3261 m 29.66702,-197.1773 c -46.25873,94.23979 -93.07722,106.69792 -93.57956,106.79839 l -21.80174,5.38226 3.47335,22.43326 c 0.94728,5.26744 2.02373,22.26103 -5.49708,31.33193 -4.65027,5.5545 -13.2906,8.41068 -25.56215,8.41068 -15.81667,0 -27.14094,-4.14793 -29.49478,-10.76452 -1.44963,-4.09052 0.34446,-8.29586 1.40656,-9.18572 l 37.89111,-17.78299 -32.39403,-24.2704 c -3.7604,-2.52608 -92.46005,-61.32906 -192.814083,-1.73668 L 0,172.69161 46.746723,190.11578 c 0.788824,0.28705 83.661847,31.7338 113.027457,95.54588 l 8.46809,18.32839 19.63449,-5.38226 c 5.71237,-1.56445 24.2704,-4.37757 34.07329,3.14324 6.34389,4.8225 9.54454,14.6828 9.54454,29.37996 0,21.68692 -5.72672,29.71008 -8.5255,30.21242 -4.87991,0.84738 -14.96986,-5.0952 -18.17051,-14.02258 l -14.85503,-41.09176 -26.46637,34.70481 c -2.56913,3.37288 -62.17587,83.59009 -2.00938,194.10583 l 21.2994,39.06803 20.73964,-39.4125 c 0.40188,-0.78882 41.60846,-78.20782 101.87542,-114.03215 l 14.79763,-8.7982 -3.703,-16.99359 c -1.27739,-5.66931 -3.12889,-24.16993 4.54981,-33.70012 4.37757,-5.43967 12.67342,-8.18104 24.72969,-8.18104 24.04076,0 36.26925,10.14736 37.71888,20.2373 0.61774,4.09052 -0.38695,9.47278 -8.51115,11.82662 l -49.96173,14.81198 43.84748,28.08822 c 3.76041,2.41125 92.67534,58.08535 188.93886,-2.81313 L 600,398.45948 552.67917,382.42752 c -0.50292,-0.17223 -48.59822,-16.82136 -82.91551,-58.25758 -19.29002,-23.26572 -26.56684,-43.44561 -26.62425,-43.67525 0,0 -7.67869,-21.64386 -12.17108,-34.30294 6.50177,-8.97043 12.94613,-17.94087 12.94613,-17.94087 22.1462,-31.17405 29.6096,-62.79303 29.6096,-91.22572 0,-56.56396 -29.43737,-100.58367 -31.28887,-103.26763 L 419.19912,0 401.20084,36.67113 z"/>
  <g transform="matrix(14.352694,0,0,-14.352694,-6632.351,5627.605)">
    <path d="m 483.883,380.473 c 0,0 0.949,-4.743 -3.793,-4.743 l 0,0 c -4.742,0 -4.27,4.067 -2.508,4.61 l 0,0 c 0,0 -5.488,3.726 -11.652,0.066 l 0,0 c 0,0 6.437,-2.371 8.808,-7.519 l 0,0 c 0,0 5.149,1.492 5.149,-3.864 l 0,0 c 0,-5.351 -4.199,-4.132 -5.082,-1.691 l 0,0 c 0,0 -3.727,-4.879 0,-11.723 l 0,0 c 0,0 3.05,5.829 7.722,8.606 l 0,0 c 0,0 -1.148,4.945 3.661,4.945 l 0,0 c 4.808,0 5.488,-4.605 2.507,-5.488 l 0,0 c 0,0 5.489,-3.524 11.379,0.203 l 0,0 c 0,0 -3.777,1.258 -6.523,4.57 l 0,0 c -1.582,1.91 -2.145,3.559 -2.145,3.559 l 0,0 c -0.543,-0.945 -1.492,-0.813 -1.492,-0.813 l 0,0 c -2.641,0 -3.59,3.59 -3.59,4.61 l 0,0 c 0,1.015 0.949,3.387 2.778,3.387 l 0,0 c 1.828,0 2.574,-2.032 2.574,-2.032 l 0,0 c 3.996,5.621 -0.137,11.653 -0.137,11.653 l 0,0 c -3.727,-7.59 -7.656,-8.336 -7.656,-8.336" style="fill:url(#linearGradient388)"/>
  </g>
</svg>
