<?xml version="1.0" encoding="UTF-8" standalone="no"?>
<svg xmlns="http://www.w3.org/2000/svg" version="1.1" width="600" height="574.10773">
  <path d="m 451.43527,339.36944 c 39.4125,47.53612 93.62262,65.64922 93.62262,65.64922 -84.53737,53.49249 -163.3193,2.91359 -163.3193,2.91359 42.78538,-12.67342 33.02555,-78.76758 -35.9822,-78.76758 -69.02211,0 -52.54521,70.97407 -52.54521,70.97407 -67.05579,39.85743 -110.8315,123.51928 -110.8315,123.51928 -53.49249,-98.22983 0,-168.25662 0,-168.25662 12.67342,35.03492 72.94039,52.53085 72.94039,-24.27041 0,-76.81561 -73.90202,-55.45881 -73.90202,-55.45881 -34.03024,-73.88766 -126.418528,-107.9179 -126.418528,-107.9179 88.527418,-52.53086 167.237588,0.94728 167.237588,0.94728 -25.28945,7.79351 -32.06392,66.16592 35.99655,66.16592 68.06047,0 54.43977,-68.07483 54.43977,-68.07483 0,0 56.39173,-10.70711 109.88422,-119.64405 0,0 59.31968,86.57544 1.96632,167.25193 0,0 -10.70711,-29.16467 -36.94383,-29.16467 -26.25108,0 -39.87179,34.04459 -39.87179,48.61257 0,14.58234 13.62071,66.16592 51.52617,66.16592 0,0 13.5633,1.89456 21.41422,-11.66874 0,0 8.08057,23.66759 30.78653,51.02383"/>
</svg>
