<?xml version="1.0" encoding="UTF-8" standalone="no"?>
<svg xmlns="http://www.w3.org/2000/svg" width="261.12756pt" height="237.00374pt" viewBox="0 0 261.12756 237.00374" version="1.1">
  <g transform="translate(-19.880135,-31.996261)">
    <path d="m 133.55,40.2 c 2.62,-0.01 5.25,-0.02 7.88,-0.02 0.01,31.57 0.03,63.14 -0.01,94.71 5.84,-0.14 11.67,-0.11 17.51,0 0.02,-31.57 0,-63.14 0.01,-94.7 2.65,-0.01 5.3,-0.01 7.95,0 3.01,32.21 5.99,64.42 9.01,96.63 18.77,3.26 35.84,12.76 50.4,24.78 12.06,-3.53 24.11,-7.13 36.17,-10.65 -3.65,12.7 -7.29,25.41 -10.94,38.11 14.19,21.02 21.67,46.38 21.46,71.72 -38.02,0.08 -76.03,0.02 -114.05,0.03 -0.02,-30.78 0.01,-61.56 -0.01,-92.34 -5.83,-0.21 -11.67,-0.21 -17.5,0.06 0.01,30.76 0.01,61.52 0,92.29 -37.81,-0.03 -75.62,0.04 -113.43,-0.04 -0.19,-24.98 7.05,-49.97 20.88,-70.8 -3.72,-13.11 -7.46,-26.2 -11.16,-39.31 12.31,3.64 24.61,7.35 36.92,10.98 14.32,-11.84 31.06,-21.28 49.51,-24.66 3.15,-32.26 6.27,-64.53 9.4,-96.79 M 88.76,188.06 c 11.03,9.04 22.12,18.02 33.18,27.04 0.82,-14.92 1.66,-29.83 2.47,-44.75 -12.47,4.5 -25.31,9.15 -35.65,17.71 m 86.72,-18.08 c 0.8,15.08 1.6,30.16 2.43,45.23 11.34,-9.14 22.67,-18.3 33.99,-27.47 -10.58,-8.65 -23.67,-13.35 -36.42,-17.76 m 23.93,67.21 c 14.57,1.64 29.11,3.48 43.67,5.18 -4.01,-13.69 -9.51,-27.09 -17.24,-39.12 -8.79,11.32 -17.84,22.46 -26.43,33.94 M 57.99,242.03 C 72.2,240.4 86.4,238.77 100.6,237.09 91.97,226.02 83.34,214.95 74.68,203.91 67.25,215.68 61.95,228.72 57.99,242.03 Z"/>
  </g>
</svg>
