<?xml version="1.0" encoding="UTF-8" standalone="no"?>
<svg xmlns="http://www.w3.org/2000/svg" version="1.1" width="600" height="705.4881">
  <path d="m 299.97354,705.48811 0,0 c -5.04424,0 -9.85919,-2.01064 -13.369,-5.66154 L 99.756019,508.63929 c -6.613951,-6.80796 -7.160705,-17.42556 -1.234604,-24.79791 L 107.48111,472.60649 6.0671977,378.91766 C 2.2046503,375.33731 0,370.38126 0,365.14301 0,275.58129 34.445457,190.83453 99.473823,120.14463 148.32888,67.02137 196.90173,40.56557 198.89474,39.47206 c 2.82195,-1.5168 5.85555,-2.20465 8.88915,-2.20465 5.23824,0 10.40595,2.1341 14.05685,6.33176 5.71445,6.47285 6.19065,16.1204 1.16405,23.22819 -0.7591,1.09351 -80.31982,114.43017 -80.31982,248.01435 0,89.22661 23.28111,142.47332 62.27696,142.47332 18.04286,0 28.80156,-10.81161 28.80156,-28.80155 0,-32.17026 -40.93595,-33.47541 -45.60981,-33.47541 -5.9261,-0.0706 -11.51709,-2.8925 -15.0269,-7.7251 -3.43925,-4.7444 -4.5504,-10.88215 -2.7514,-16.59661 L 282.1247,13.0868 C 284.5939,5.29116 291.84279,0 300.04409,0 c 8.11312,0 15.36201,5.29116 17.83121,13.0868 l 111.74932,357.62956 c 1.72845,5.71446 0.68856,11.85221 -2.82195,16.59661 -3.43926,4.8326 -9.03025,7.65455 -14.95635,7.7251 -4.67386,0 -45.66272,1.30515 -45.66272,33.47541 0,17.98994 10.81161,28.80155 28.78392,28.80155 39.0664,0 62.34751,-53.24671 62.34751,-142.47332 0,-134.00747 -79.49087,-246.92084 -80.31982,-248.01435 -5.09715,-7.10779 -4.5504,-16.68479 1.16405,-23.22819 3.6509,-4.19766 8.81861,-6.40231 14.05685,-6.40231 3.0336,0 6.0672,0.75911 8.88915,2.2752 1.99301,1.09351 50.56586,27.54931 99.42092,80.67257 C 565.55454,190.83453 600,275.58129 600,365.14301 c 0,5.23825 -2.20465,10.1943 -6.04956,13.77465 l -101.41392,93.68883 8.94207,11.23489 c 5.9261,7.37235 5.37934,17.98995 -1.23461,24.79791 L 313.32491,699.82657 c -3.50981,3.6509 -8.32476,5.66154 -13.35137,5.66154" style="fill:#808080"/>
  <path d="M 299.97354,686.73976 113.12502,495.55249 132.96687,470.68403 18.730709,365.14301 c 0,-207.37823 189.053181,-309.21544 189.053181,-309.21544 0,0 -83.84727,117.41086 -83.84727,258.91414 0,141.57382 54.0933,161.15112 81.02531,161.15112 27.07311,0 47.53226,-17.70775 47.53226,-47.53226 0,-52.15321 -64.26996,-52.15321 -64.26996,-52.15321 l 111.81986,-357.6472 111.73168,357.6472 c 0,0 -64.26996,0 -64.26996,52.15321 0,29.82451 20.45915,47.53226 47.46171,47.53226 27.02019,0 81.02531,-19.5773 81.02531,-161.15112 0,-141.50328 -83.77672,-258.91414 -83.77672,-258.91414 0,0 189.05318,101.83721 189.05318,309.21544 l -114.23616,105.54102 19.84185,24.86846 -186.90144,191.18727 z"/>
</svg>
