<?xml version="1.0" encoding="UTF-8" standalone="no"?>
<svg xmlns="http://www.w3.org/2000/svg" xmlns:xlink="http://www.w3.org/1999/xlink" version="1.1" width="600" height="705.57104">
  <linearGradient x1="0" y1="0" x2="1" y2="0" id="linearGradient642" gradientUnits="userSpaceOnUse" gradientTransform="matrix(31.895508,0,0,-31.895508,466.73633,146.39844)" spreadMethod="pad">
    <stop style="stop-color:#8b723c" offset="0"/>
    <stop style="stop-color:#d2bb7b" offset="0.3"/>
    <stop style="stop-color:#ebd491" offset="0.5"/>
    <stop style="stop-color:#d2bb7b" offset="0.7"/>
    <stop style="stop-color:#8b723c" offset="1"/>
  </linearGradient>
  <linearGradient x1="0" y1="0" x2="1" y2="0" id="linearGradient2995" xlink:href="#linearGradient642" gradientUnits="userSpaceOnUse" gradientTransform="matrix(31.895508,0,0,-31.895508,466.73633,146.39844)" spreadMethod="pad"/>
  <linearGradient x1="0" y1="0" x2="1" y2="0" id="linearGradient2998" xlink:href="#linearGradient642" gradientUnits="userSpaceOnUse" gradientTransform="matrix(562.61369,0,0,562.61369,18.703454,352.77777)" spreadMethod="pad"/>
  <path d="m 300.00882,705.57107 0,0 c -5.04483,0 -9.93091,-2.01088 -13.44113,-5.66221 L 99.697192,508.6991 c -6.614728,-6.80876 -7.090989,-17.4276 -1.234749,-24.80082 L 107.49375,472.66206 6.0679112,378.96222 C 2.2049096,375.38145 0,370.42481 0,365.18595 0,275.6137 34.37895,190.85697 99.485521,120.15875 148.34632,67.02925 196.85433,40.57034 198.91812,39.4767 c 2.82229,-1.51698 5.85624,-2.20491 8.81964,-2.20491 5.23887,0 10.40718,2.13435 14.05851,6.3325 5.78568,6.47362 6.26194,16.1223 1.23475,23.23093 -0.82976,1.09363 -80.39983,114.44363 -80.39983,248.04351 0,89.2371 23.3544,142.49008 62.35485,142.49008 18.04498,0 28.80493,-10.81288 28.80493,-28.80494 0,-32.17404 -40.94076,-33.47935 -45.61517,-33.47935 -5.92679,-0.0706 -11.51844,-2.89284 -15.02866,-7.726 -3.51022,-4.74497 -4.55093,-10.88344 -2.75173,-16.59856 L 282.15787,13.08834 C 284.62737,5.29178 291.80656,0 300.00882,0 c 8.18462,0 15.43437,5.29178 17.90387,13.08834 l 111.76245,357.67162 c 1.72865,5.71512 0.68723,11.85359 -2.82228,16.59856 -3.43966,4.83316 -9.03131,7.65544 -14.95811,7.726 -4.67441,0 -45.66809,1.30531 -45.66809,33.47935 0,17.99206 10.74232,28.80494 28.7873,28.80494 39.071,0 62.35485,-53.25298 62.35485,-142.49008 0,-134.02323 -79.57078,-246.94988 -80.39983,-248.04351 -5.02719,-7.10863 -4.55093,-16.68676 1.23475,-23.23093 3.65133,-4.19815 8.81964,-6.40306 14.05851,-6.40306 2.9634,0 6.06791,0.7592 8.81964,2.27547 2.06379,1.09364 50.64236,27.55255 99.4326,80.68205 C 565.62105,190.85697 600,275.6137 600,365.18595 c 0,5.23886 -2.13435,10.1955 -5.97971,13.77627 l -101.4964,93.69984 9.01367,11.23622 c 5.92679,7.37322 5.37998,17.99206 -1.23475,24.80082 L 313.36175,699.90886 c -3.51021,3.65133 -8.32574,5.66221 -13.35293,5.66221"/>
  <path d="m 188.24636,376.40453 c 0,0 64.27753,0 64.27753,52.10642 l 0,0 c 0,29.82802 -20.53212,47.53785 -47.53785,47.53785 l 0,0 c -27.00574,0 -81.03484,-19.5796 -81.03484,-161.17007 l 0,0 c 0,-141.51992 83.85712,-258.94458 83.85712,-258.94458 l 0,0 c 0,0 -189.145965,101.84918 -189.145965,309.2518 l 0,0 114.320155,105.55343 -19.84419,24.87138 186.8705,191.20976 186.92342,-191.20976 -19.91475,-24.87138 114.32016,-105.55343 c 0,-207.40262 -189.07541,-309.2518 -189.07541,-309.2518 l 0,0 c 0,0 83.78656,117.42466 83.78656,258.94458 l 0,0 c 0,141.59047 -54.01146,161.17007 -81.03484,161.17007 l 0,0 c -27.00573,0 -47.46729,-17.70983 -47.46729,-47.53785 l 0,0 c 0,-52.10642 64.22461,-52.10642 64.22461,-52.10642 l 0,0 L 300.00882,18.66235 188.24636,376.40453 z" style="fill:url(#linearGradient2998)"/>
</svg>
