<?xml version="1.0" encoding="UTF-8" standalone="no"?>
<svg xmlns="http://www.w3.org/2000/svg" xmlns:xlink="http://www.w3.org/1999/xlink" version="1.1" width="600" height="705.48792">
  <linearGradient x1="0" y1="0" x2="1" y2="0" id="linearGradient624" gradientUnits="userSpaceOnUse" gradientTransform="matrix(31.895019,0,0,-31.895019,384.73779,146.39844)" spreadMethod="pad">
    <stop style="stop-color:#612c75" offset="0"/>
    <stop style="stop-color:#7b5190" offset="0.3"/>
    <stop style="stop-color:#bf99c3" offset="0.5"/>
    <stop style="stop-color:#7b5190" offset="0.7"/>
    <stop style="stop-color:#612c75" offset="1"/>
  </linearGradient>
  <linearGradient x1="0" y1="0" x2="1" y2="0" id="linearGradient2995" xlink:href="#linearGradient624" gradientUnits="userSpaceOnUse" gradientTransform="matrix(31.895019,0,0,-31.895019,384.73779,146.39844)" spreadMethod="pad"/>
  <linearGradient x1="0" y1="0" x2="1" y2="0" id="linearGradient2998" xlink:href="#linearGradient624" gradientUnits="userSpaceOnUse" gradientTransform="matrix(562.53879,0,0,562.53879,18.72686,352.73621)" spreadMethod="pad"/>
  <path d="m 299.97347,705.48794 0,0 c -5.04438,0 -9.85919,-2.01064 -13.36899,-5.66154 L 99.755995,508.63917 c -6.613949,-6.80796 -7.160702,-17.42556 -1.234604,-24.7979 L 107.48109,472.60637 6.0671963,378.91757 C 2.2046498,375.33722 0,370.38117 0,365.14292 0,275.58122 34.445449,190.83449 99.4738,120.14459 c 48.85504,-53.12324 97.42774,-79.57904 99.42089,-80.67254 2.82181,-1.5168 5.85555,-2.20465 8.88915,-2.20465 5.23824,0 10.40594,2.1341 14.05684,6.33175 5.71446,6.47285 6.19066,16.1204 1.16406,23.22819 -0.75911,1.09351 -80.3198,114.43015 -80.3198,248.01429 0,89.22659 23.2811,142.47329 62.27694,142.47329 18.04286,0 28.80155,-10.8116 28.80155,-28.80155 0,-32.17025 -40.93594,-33.4754 -45.60994,-33.4754 -5.92595,-0.0705 -11.51695,-2.8925 -15.02689,-7.72509 -3.43911,-4.74441 -4.55026,-10.88215 -2.75126,-16.59661 L 282.12463,13.0868 C 284.59384,5.29116 291.84258,0 300.04388,0 c 8.18366,0 15.36214,5.29116 17.83135,13.0868 l 111.74929,357.62947 c 1.72845,5.71446 0.68856,11.8522 -2.82195,16.59661 -3.43925,4.83259 -9.03039,7.65454 -14.95635,7.72509 -4.67385,0 -45.60979,1.30515 -45.60979,33.4754 0,17.98995 10.75869,28.80155 28.80154,28.80155 38.99585,0 62.27695,-53.2467 62.27695,-142.47329 0,-134.00744 -79.56154,-246.92078 -80.3198,-248.01429 -5.09715,-7.10779 -4.5504,-16.68479 1.16406,-23.22819 3.65104,-4.19765 8.81859,-6.4023 14.05698,-6.4023 3.0336,0 6.0672,0.7591 8.8186,2.2752 2.06355,1.0935 50.6364,27.5493 99.49144,80.67254 C 565.55441,190.83449 600,275.58122 600,365.14292 c 0,5.23825 -2.20465,10.1943 -6.0497,13.77465 l -101.41389,93.6888 8.9422,11.2349 c 5.9261,7.37234 5.37934,17.98994 -1.23461,24.7979 L 313.32497,699.8264 c -3.50994,3.6509 -8.32489,5.66154 -13.35136,5.66154" fill="#ffffff"/>
  <path d="m 188.22404,376.36018 c 0,0 64.26995,0 64.26995,52.10028 l 0,0 c 0,29.8245 -20.45915,47.53225 -47.4617,47.53225 l 0,0 c -27.00255,0 -81.09584,-19.57729 -81.09584,-161.15108 l 0,0 c 0,-141.50325 83.84725,-258.91408 83.84725,-258.91408 l 0,0 c 0,0 -189.053136,101.83719 -189.053136,309.21537 l 0,0 114.236136,105.541 -19.84185,24.86845 186.84848,191.18723 186.9014,-191.18723 -19.84185,-24.86845 114.23613,-105.541 c 0,-207.37818 -189.05313,-309.21537 -189.05313,-309.21537 l 0,0 c 0,0 83.77669,117.41083 83.77669,258.91408 l 0,0 c 0,141.57379 -54.0051,161.15108 -81.02529,161.15108 l 0,0 c -27.00255,0 -47.4617,-17.70775 -47.4617,-47.53225 l 0,0 c 0,-52.10028 64.26995,-52.10028 64.26995,-52.10028 l 0,0 L 299.97333,18.66015 188.22404,376.36018 z" style="fill:url(#linearGradient2998)"/>
</svg>
