<?xml version="1.0" encoding="UTF-8" standalone="no"?>
<svg xmlns="http://www.w3.org/2000/svg" version="1.1" width="600" height="705.4881">
  <path d="M 299.97354,686.73976 113.12502,495.55249 132.96687,470.68403 18.730709,365.14301 c 0,-207.37823 189.053181,-309.21544 189.053181,-309.21544 0,0 -83.84727,117.41086 -83.84727,258.91414 0,141.57382 54.0933,161.15112 81.02531,161.15112 27.07311,0 47.53226,-17.70775 47.53226,-47.53226 0,-52.15321 -64.26996,-52.15321 -64.26996,-52.15321 l 111.81986,-357.6472 111.73168,357.6472 c 0,0 -64.26996,0 -64.26996,52.15321 0,29.82451 20.45915,47.53226 47.46171,47.53226 27.02019,0 81.02531,-19.5773 81.02531,-161.15112 0,-141.50328 -83.77672,-258.91414 -83.77672,-258.91414 0,0 189.05318,101.83721 189.05318,309.21544 l -114.23616,105.54102 19.84185,24.86846 -186.90144,191.18727 z"/>
</svg>
