<?xml version="1.0" encoding="UTF-8" standalone="no"?>
<!DOCTYPE svg PUBLIC "-//W3C//DTD SVG 1.1//EN" "http://www.w3.org/Graphics/SVG/1.1/DTD/svg11.dtd">
<svg width="100%" height="100%" viewBox="0 0 1000 1000" version="1.1" xmlns="http://www.w3.org/2000/svg" xmlns:xlink="http://www.w3.org/1999/xlink" xml:space="preserve" xmlns:serif="http://www.serif.com/" style="fill-rule:evenodd;clip-rule:evenodd;stroke-linejoin:round;stroke-miterlimit:2;">
    <g transform="matrix(1,0,0,1,-4276,0)">
        <g id="WM" transform="matrix(1,0,0,1,-0.444444,0)">
            <rect x="4276.44" y="0" width="1000" height="1000" style="fill:none;"/>
            <g id="Ebene-1" serif:id="Ebene 1" transform="matrix(1.39361,0,0,1.39361,4280.44,0.00015011)">
                <g transform="matrix(1,0,0,1,356.456,239.41)">
                    <path d="M0,237.513C-64.682,237.513 -117.195,184.3 -117.195,118.757C-117.195,53.213 -64.682,0 0,0C64.681,0 117.195,53.213 117.195,118.757C117.195,184.3 64.681,237.513 0,237.513M0,-21.158C-76.206,-21.158 -138.075,41.536 -138.075,118.757C-138.075,195.977 -76.206,258.671 0,258.671C76.205,258.671 138.075,195.977 138.075,118.757C138.075,41.536 76.205,-21.158 0,-21.158"/>
                </g>
                <g transform="matrix(1,0,0,1,356.456,296.995)">
                    <path d="M0,122.343C-33.318,122.343 -60.367,94.933 -60.367,61.172C-60.367,27.41 -33.318,0.001 0,0.001C33.317,0.001 60.367,27.41 60.367,61.172C60.367,94.933 33.317,122.343 0,122.343M0,-20.66C-44.57,-20.66 -80.756,16.008 -80.756,61.172C-80.756,106.335 -44.57,143.003 0,143.003C44.57,143.003 80.755,106.335 80.755,61.172C80.755,16.008 44.57,-20.66 0,-20.66"/>
                </g>
                <g transform="matrix(1.00252,0,0,0.996612,637.77,184.74)">
                    <path d="M0,348.754L-101.705,274.375C-101.705,274.375 -96.335,266.72 -93.068,256.236L49.024,186.992C49.024,186.992 50.397,274.2 0,348.754M-125.058,400.517L-167.64,344.595C-145.18,330.133 -126.106,311.937 -110.702,289.694L-55.138,330.941C-55.138,330.941 -82.024,371.322 -125.058,400.517M-270.849,508.475L-201.676,365.624C-190.99,362.373 -183.063,356.907 -183.063,356.907L-107.127,458.716C-183.116,508.859 -270.849,508.475 -270.849,508.475M-348.517,349.703C-396.98,330.657 -435.615,291.569 -454.493,242.5L-593.195,174.632L-454.815,106.922C-436.004,57.318 -397.037,17.808 -348.102,-1.287L-281.824,-136.739L-215.698,-1.596C-166.261,17.429 -126.897,57.255 -108.041,107.31L29.547,174.632L-108.36,242.111C-127.286,291.632 -166.318,331.036 -215.285,350.015L-281.824,486.003L-348.517,349.703ZM-455.594,459.045L-380.415,356.907C-380.415,356.907 -372.567,362.391 -361.987,365.652L-293.167,508.474C-293.167,508.474 -380.362,509.35 -455.594,459.045M-511.258,335.423L-455.761,292.288C-441.077,314.603 -422.692,333.495 -400.297,348.678L-440.99,404.648C-440.99,404.648 -481.636,378.165 -511.258,335.423M-563.585,349.471C-613.526,275.186 -612.483,187.576 -612.483,187.576L-470.869,256.408C-467.632,266.854 -462.188,274.603 -462.188,274.603L-563.585,349.471ZM-563.585,-0.812L-462.727,75.204C-462.727,75.204 -468.171,83.245 -471.408,93.841L-612.475,163.185C-612.475,163.185 -613.526,74.528 -563.585,-0.812M-440.05,-56.915L-397.695,-0.821C-420.212,13.55 -439.36,31.669 -454.854,53.849L-510.25,12.379C-510.25,12.379 -483.201,-27.894 -440.05,-56.915M-293.443,-158.885L-360.877,-17.099C-371.324,-13.862 -379.073,-7.864 -379.073,-7.864L-452.668,-109.965C-378.383,-159.906 -293.443,-158.885 -293.443,-158.885M-109.782,-109.965L-184.015,-7.864C-184.015,-7.864 -191.562,-13.203 -202.009,-16.44L-269.709,-158.887C-269.709,-158.887 -184.068,-159.906 -109.782,-109.965M-54.611,15.091L-110.176,58.137C-124.825,35.799 -143.179,16.877 -165.549,1.659L-124.767,-54.246C-124.767,-54.246 -84.163,-27.698 -54.611,15.091M0.393,-2.329C50.334,73.827 48.876,163.443 48.876,163.443L-91.444,93.644C-94.681,82.935 -100.565,74.39 -100.565,74.39L0.393,-2.329ZM7.645,-36.475L-38.857,-2.247C-38.857,-2.247 -56.093,-30.718 -105.851,-69.836L-72.992,-117.403C-72.992,-117.403 -159.49,-182.009 -281.824,-183.84C-404.127,-185.67 -490.675,-119.218 -490.675,-116.443L-456.681,-70.108C-456.681,-70.108 -503.126,-37.046 -523.987,-2.409L-570.432,-37.046C-570.432,-37.046 -637.957,40.949 -637.957,174.632C-637.957,308.315 -570.692,384.684 -570.692,384.684L-524.669,350.293C-524.669,350.293 -502.726,387.189 -456.547,419.316L-490.525,465.186C-490.525,465.186 -416.173,534.424 -281.824,533.678C-149.218,532.942 -74.456,466.009 -72.322,465.884L-106.343,418.552C-106.343,418.552 -67.581,391.394 -38.943,351.152L6.978,384.975C6.978,384.975 73.654,307.347 74.249,174.632C74.838,43.06 7.645,-34.454 7.645,-36.475" style="fill-rule:nonzero;"/>
                </g>
            </g>
        </g>
    </g>
</svg>
