<?xml version="1.0" encoding="utf-8"?>
<!-- Generator: Adobe Illustrator 15.1.0, SVG Export Plug-In . SVG Version: 6.00 Build 0)  -->
<!DOCTYPE svg PUBLIC "-//W3C//DTD SVG 1.1//EN" "http://www.w3.org/Graphics/SVG/1.1/DTD/svg11.dtd">
<svg version="1.1"
	 id="Layer_1" xmlns:rdf="http://www.w3.org/1999/02/22-rdf-syntax-ns#" xmlns:dc="http://purl.org/dc/elements/1.1/" xmlns:cc="http://creativecommons.org/ns#" xmlns:svg="http://www.w3.org/2000/svg"
	 xmlns="http://www.w3.org/2000/svg" xmlns:xlink="http://www.w3.org/1999/xlink" x="0px" y="0px" width="1355.463px"
	 height="612.857px" viewBox="0 0 1355.463 612.857" enable-background="new 0 0 1355.463 612.857" xml:space="preserve">
<g>
	<path fill="#FFFFFF" d="M1271.552,19.092l-9.175-12.777H218.257c-14.527,0-27.064,10.172-30.051,24.401
		c-2.961,14.216,4.425,28.574,17.733,34.418c11.43,5.002,34.911,19.853,40.023,33.071c0.991,2.578,1.257,4.769-0.357,8.397
		L84.193,467.825c-21.201,47.43-58.301,79.087-58.612,79.333c-7.01,5.845-11.034,14.475-11.034,23.585v4.872
		c0,16.964,13.73,30.7,30.693,30.7H315.94c13.885,0,26.863-8.813,30.472-22.212c3.557-13.27-1.329-26.772-13.069-33.796
		c-3.253-2.721-24.389-22.483-24.389-75.16c0-37.671,82.405-92.137,138.107-117.082c0.707-0.324,1.393-0.661,2.073-1.024
		l58.82,131.622c14.526,32.514-27.861,59.766-29.52,60.827c-11.695,7.192-17.184,21.292-13.419,34.51
		c3.732,13.192,15.784,22.315,29.514,22.315h767.847l9.175-12.778c2.877-3.978,69.964-99.496,69.964-287.216
		C1341.516,118.576,1274.429,23.07,1271.552,19.092z"/>
	<path d="M513.813,568.98c19.418-17.48,47.558-52.287,28.21-95.544L379.269,109.22L277.627,336.67h128.466
		c-45.407,23.948-134.466,78.53-134.466,138.478c0,50.202,16.14,79.229,28.088,93.833H57.044
		c13.581-12.997,42.323-43.631,61.223-85.929l161.414-361.21c5.495-12.285,5.864-24.777,1.101-37.088
		c-6.861-17.766-23.267-31.827-37.178-41.105H581.12c-15.499,14.566-28.211,38.462-14.442,69.277l169.189,378.627
		c17.701,39.628,42.893,64.171,60.154,77.428H513.813z"/>
	<g>
		<path d="M1243.068,43.648H664.321c-18.142,0-38.96,11.792-49.502,28.017c-4.976,7.671-9.687,19.528-3.888,32.552
			c1.251,2.799,125.816,282.654,165.081,369.374c41.52,91.683,148.377,95.272,160.364,95.389h306.692
			c10.354-16.289,61.113-104.343,61.113-262.659C1304.182,147.992,1253.423,59.951,1243.068,43.648z M957.006,357.274l20.786-47.636
			c0,0,10.237-2.695,12.09,0v107.013H777.645l-4.159-8.993c101.453-115.254,140.147-197.076,140.147-228.889
			c0-31.814-7.801-52.003-34.885-52.003c-27.083,0-34.781,30.738-34.781,41.338c0,10.575,0.429,16.873,5.884,25.063l-10.445,12.09
			l-56.279-72.932c24.064-20.591,53.844-41.896,97.67-41.896c49.839,0,109.111,29.002,109.086,79.255
			c0,50.241-3.355,55.49-126.205,187.59H957.006z M1201.186,357.274l20.799-47.636c0,0,10.212-2.695,12.091,0v107.013h-212.263
			l-4.135-8.993c101.454-115.254,140.148-197.076,140.148-228.889c0-31.814-7.814-52.003-34.885-52.003
			c-27.084,0-34.781,30.738-34.781,41.338c0,10.575,0.428,16.873,5.883,25.063l-10.444,12.09l-56.279-72.932
			c24.064-20.591,53.844-41.896,97.669-41.896c49.84,0,109.113,29.002,109.087,79.255c-0.025,50.241-3.356,55.49-126.23,187.59
			H1201.186z"/>
	</g>
</g>
</svg>
