<?xml version="1.0" encoding="utf-8"?>
<!-- Generator: Adobe Illustrator 15.1.0, SVG Export Plug-In . SVG Version: 6.00 Build 0)  -->
<!DOCTYPE svg PUBLIC "-//W3C//DTD SVG 1.1//EN" "http://www.w3.org/Graphics/SVG/1.1/DTD/svg11.dtd">
<svg version="1.1"
	 id="Layer_1" xmlns:rdf="http://www.w3.org/1999/02/22-rdf-syntax-ns#" xmlns:dc="http://purl.org/dc/elements/1.1/" xmlns:cc="http://creativecommons.org/ns#" xmlns:svg="http://www.w3.org/2000/svg"
	 xmlns="http://www.w3.org/2000/svg" xmlns:xlink="http://www.w3.org/1999/xlink" x="0px" y="0px" width="612px" height="612.857px"
	 viewBox="0 0 612 612.857" enable-background="new 0 0 612 612.857" xml:space="preserve">
<g>
	<path d="M305.8,606.718c-165.422,0-300-134.573-300-300C5.8,141.3,140.378,6.722,305.8,6.722c165.427,0,300,134.578,300,299.996
		C605.8,472.145,471.227,606.718,305.8,606.718z"/>
	<linearGradient id="SVGID_1_" gradientUnits="userSpaceOnUse" x1="452.5342" y1="560.7627" x2="165.1634" y2="63.022">
		<stop  offset="0" style="stop-color:#745E40"/>
		<stop  offset="0.1499" style="stop-color:#8A704A"/>
		<stop  offset="0.25" style="stop-color:#93784E"/>
		<stop  offset="0.2558" style="stop-color:#967B50"/>
		<stop  offset="0.2974" style="stop-color:#A78A5C"/>
		<stop  offset="0.3431" style="stop-color:#B19363"/>
		<stop  offset="0.4" style="stop-color:#B49665"/>
		<stop  offset="0.55" style="stop-color:#DAC699"/>
		<stop  offset="0.571" style="stop-color:#DCC99D"/>
		<stop  offset="0.7382" style="stop-color:#EBDEB8"/>
		<stop  offset="0.8866" style="stop-color:#F4EBC8"/>
		<stop  offset="1" style="stop-color:#F7EFCE"/>
	</linearGradient>
	<path fill="url(#SVGID_1_)" d="M75.357,411.151l-13.953,34.507C38.04,404.651,24.55,357.291,24.55,306.718
		c0-113.095,66.861-210.42,163.12-255.08l3.099,3.433c5.594,6.203,9.512,12.442,11.646,18.558c0.233,0.664,0.316,1.314,0.508,1.973
		C114.505,115.116,52.675,203.785,52.675,306.718C52.675,343.961,60.855,379.282,75.357,411.151z M434.633,74.695l7.828,19.235
		c69.955,45.085,116.464,123.551,116.464,212.787c0,19.665-2.398,38.754-6.674,57.138l16.873,41.465
		c11.508-30.698,17.926-63.886,17.926-98.603c0-110.39-63.693-205.792-156.253-251.825C430.65,61.333,431.877,67.856,434.633,74.695
		z M401.079,541.074c-29.443,12.03-61.569,18.769-95.279,18.769c-29.232,0-57.284-5.072-83.423-14.236
		c4.303,9.274,8.748,16.836,12.351,21.789l9.998,13.752c19.675,4.366,40.082,6.82,61.075,6.82c19.29,0,38.077-2.105,56.259-5.823
		l20.563-18.2C388.994,558.313,395.576,550.321,401.079,541.074z M391.941,574.473c23.676-20.966,45.996-64.05,31.439-100.049
		L284.294,130.447l-86.856,214.815h109.781c-38.8,22.613-114.908,74.157-114.908,130.773c0,46.812,20.691,85.382,31.041,99.628
		C159.934,556.245,106.091,515,70.486,460.7l144.265-356.694c4.696-11.6,5.008-23.396,0.938-35.024
		c-3.071-8.798-8.409-16.603-14.483-23.332c32.341-12.968,67.616-20.178,104.594-20.178c39.56,0,77.188,8.203,111.337,22.943
		c-1.227,9.393-0.237,19.922,4.459,31.549l139.893,343.904C528.813,495.051,467.345,550.239,391.941,574.473z"/>
</g>
</svg>
