<?xml version="1.0" encoding="utf-8"?>
<!-- Generator: Adobe Illustrator 15.1.0, SVG Export Plug-In . SVG Version: 6.00 Build 0)  -->
<!DOCTYPE svg PUBLIC "-//W3C//DTD SVG 1.1//EN" "http://www.w3.org/Graphics/SVG/1.1/DTD/svg11.dtd">
<svg version="1.1"
	 id="Layer_1" xmlns:rdf="http://www.w3.org/1999/02/22-rdf-syntax-ns#" xmlns:dc="http://purl.org/dc/elements/1.1/" xmlns:cc="http://creativecommons.org/ns#" xmlns:svg="http://www.w3.org/2000/svg"
	 xmlns="http://www.w3.org/2000/svg" xmlns:xlink="http://www.w3.org/1999/xlink" x="0px" y="0px" width="1355.463px"
	 height="612.857px" viewBox="0 0 1355.463 612.857" enable-background="new 0 0 1355.463 612.857" xml:space="preserve">
<g>
	<path d="M1271.564,19.092l-9.188-12.777H218.257c-14.526,0-27.058,10.172-30.051,24.401c-2.968,14.215,4.419,28.574,17.74,34.418
		c11.43,5.002,34.911,19.853,40.017,33.071c0.985,2.579,1.257,4.769-0.363,8.397L84.187,467.825
		c-21.2,47.429-58.288,79.087-58.599,79.333c-7.023,5.845-11.041,14.476-11.041,23.585v4.873c0,16.963,13.736,30.698,30.687,30.698
		h270.707c13.892,0,26.863-8.812,30.479-22.211c3.551-13.27-1.335-26.772-13.075-33.796c-3.253-2.722-24.388-22.483-24.388-75.16
		c0-37.671,82.404-92.137,138.101-117.082c0.712-0.324,1.399-0.661,2.073-1.023l58.833,131.621
		c14.514,32.514-27.861,59.766-29.52,60.828c-11.702,7.191-17.183,21.291-13.425,34.509c3.732,13.192,15.784,22.314,29.52,22.314
		h767.841l9.188-12.776c2.864-3.979,69.951-99.497,69.951-287.217C1341.516,118.576,1274.429,23.07,1271.564,19.092z"/>
	<path fill="#BB2C26" d="M513.819,568.98c19.412-17.48,47.558-52.288,28.198-95.544L379.269,109.22L277.634,336.671h128.459
		c-45.407,23.947-134.472,78.529-134.472,138.477c0,50.201,16.146,79.229,28.094,93.833H57.051
		c13.581-12.997,42.323-43.632,61.217-85.929l161.413-361.21c5.495-12.285,5.857-24.777,1.102-37.087
		c-6.855-17.767-23.261-31.827-37.179-41.105h337.522c-15.499,14.565-28.224,38.461-14.449,69.277l169.202,378.627
		c17.701,39.628,42.893,64.172,60.141,77.428H513.819z"/>
	<g>
		<linearGradient id="SVGID_1_" gradientUnits="userSpaceOnUse" x1="742.6768" y1="402.1279" x2="1292.6245" y2="145.683">
			<stop  offset="0" style="stop-color:#BB2C26"/>
			<stop  offset="0.0302" style="stop-color:#BE3226"/>
			<stop  offset="0.0698" style="stop-color:#C64225"/>
			<stop  offset="0.1143" style="stop-color:#D35D24"/>
			<stop  offset="0.15" style="stop-color:#E07823"/>
			<stop  offset="0.1593" style="stop-color:#E17A23"/>
			<stop  offset="0.2577" style="stop-color:#EE8B1F"/>
			<stop  offset="0.3655" style="stop-color:#F5951E"/>
			<stop  offset="0.5" style="stop-color:#F7981D"/>
			<stop  offset="0.6345" style="stop-color:#F5951E"/>
			<stop  offset="0.7423" style="stop-color:#EE8B1F"/>
			<stop  offset="0.8407" style="stop-color:#E17A23"/>
			<stop  offset="0.85" style="stop-color:#E07823"/>
			<stop  offset="0.8603" style="stop-color:#DB6E23"/>
			<stop  offset="0.896" style="stop-color:#CD5125"/>
			<stop  offset="0.9314" style="stop-color:#C33D25"/>
			<stop  offset="0.9663" style="stop-color:#BD3026"/>
			<stop  offset="1" style="stop-color:#BB2C26"/>
		</linearGradient>
		<path fill="url(#SVGID_1_)" d="M1243.081,43.649h-578.76c-18.142,0-38.954,11.792-49.502,28.017
			c-4.976,7.671-9.693,19.529-3.888,32.552c1.244,2.799,125.803,282.654,165.081,369.374
			c41.507,91.683,148.377,95.272,160.363,95.389h306.706c10.342-16.289,61.113-104.343,61.113-262.659
			C1304.194,147.992,1253.423,59.951,1243.081,43.649z M957.006,357.274l20.785-47.636c0,0,10.237-2.695,12.091,0v107.013h-212.25
			l-4.147-8.993C874.926,292.404,913.62,210.583,913.62,178.769s-7.775-52.003-34.859-52.003c-27.083,0-34.78,30.738-34.78,41.338
			c0,10.574,0.414,16.872,5.883,25.062l-10.471,12.09l-56.267-72.931c24.052-20.591,53.83-41.896,97.656-41.896
			c49.84,0,109.125,29.001,109.1,79.255c0,50.241-3.356,55.489-126.205,187.589H957.006z M1201.173,357.274l20.812-47.636
			c0,0,10.212-2.695,12.091,0v107.013h-212.264l-4.133-8.993c101.44-115.254,140.135-197.076,140.135-228.889
			s-7.801-52.003-34.859-52.003c-27.083,0-34.78,30.738-34.78,41.338c0,10.574,0.414,16.872,5.883,25.062l-10.471,12.09
			l-56.267-72.931c24.052-20.591,53.83-41.896,97.656-41.896c49.84,0,109.126,29.001,109.1,79.255
			c-0.013,50.241-3.356,55.489-126.23,187.589H1201.173z"/>
	</g>
</g>
</svg>
