<?xml version="1.0" encoding="utf-8"?>
<!-- Generator: Adobe Illustrator 15.1.0, SVG Export Plug-In . SVG Version: 6.00 Build 0)  -->
<!DOCTYPE svg PUBLIC "-//W3C//DTD SVG 1.1//EN" "http://www.w3.org/Graphics/SVG/1.1/DTD/svg11.dtd">
<svg version="1.1"
	 id="Layer_1" xmlns:rdf="http://www.w3.org/1999/02/22-rdf-syntax-ns#" xmlns:dc="http://purl.org/dc/elements/1.1/" xmlns:cc="http://creativecommons.org/ns#" xmlns:svg="http://www.w3.org/2000/svg"
	 xmlns="http://www.w3.org/2000/svg" xmlns:xlink="http://www.w3.org/1999/xlink" x="0px" y="0px" width="1355.463px"
	 height="612.857px" viewBox="0 0 1355.463 612.857" enable-background="new 0 0 1355.463 612.857" xml:space="preserve">
<g>
	<path d="M1271.552,19.092l-9.175-12.777H218.257c-14.526,0-27.064,10.172-30.051,24.401c-2.961,14.215,4.425,28.574,17.734,34.418
		c11.429,5.002,34.911,19.853,40.023,33.071c0.991,2.579,1.257,4.769-0.356,8.397L84.193,467.825
		c-21.2,47.429-58.301,79.087-58.612,79.333c-7.011,5.845-11.035,14.476-11.035,23.585v4.873c0,16.963,13.73,30.698,30.693,30.698
		h270.7c13.885,0,26.863-8.812,30.473-22.211c3.557-13.27-1.329-26.772-13.069-33.796c-3.253-2.722-24.388-22.483-24.388-75.16
		c0-37.671,82.404-92.137,138.107-117.082c0.706-0.324,1.393-0.661,2.073-1.023l58.82,131.621
		c14.526,32.514-27.861,59.766-29.52,60.828c-11.695,7.191-17.183,21.291-13.419,34.509c3.732,13.192,15.784,22.314,29.514,22.314
		h767.847l9.175-12.776c2.877-3.979,69.964-99.497,69.964-287.217C1341.516,118.576,1274.429,23.07,1271.552,19.092z"/>
	<path fill="#626E77" d="M513.812,568.98c19.419-17.48,47.559-52.288,28.211-95.544L379.269,109.22L277.627,336.671h128.466
		c-45.407,23.947-134.466,78.529-134.466,138.477c0,50.201,16.14,79.229,28.088,93.833H57.044
		c13.581-12.997,42.323-43.632,61.224-85.929l161.413-361.21c5.495-12.285,5.864-24.777,1.102-37.087
		c-6.862-17.767-23.267-31.827-37.179-41.105H581.12c-15.499,14.565-28.211,38.461-14.442,69.277l169.189,378.627
		c17.701,39.628,42.893,64.172,60.153,77.428H513.812z"/>
	<g>
		<linearGradient id="SVGID_1_" gradientUnits="userSpaceOnUse" x1="742.6758" y1="402.125" x2="1292.6177" y2="145.6829">
			<stop  offset="0" style="stop-color:#626E77"/>
			<stop  offset="0.0035" style="stop-color:#647079"/>
			<stop  offset="0.0676" style="stop-color:#8496A1"/>
			<stop  offset="0.1187" style="stop-color:#99ADB9"/>
			<stop  offset="0.15" style="stop-color:#A0B6C2"/>
			<stop  offset="0.1547" style="stop-color:#A1B7C3"/>
			<stop  offset="0.2545" style="stop-color:#ADC6D4"/>
			<stop  offset="0.3638" style="stop-color:#B5CEDE"/>
			<stop  offset="0.5" style="stop-color:#B7D1E1"/>
			<stop  offset="0.6362" style="stop-color:#B5CEDE"/>
			<stop  offset="0.7455" style="stop-color:#ADC6D4"/>
			<stop  offset="0.8453" style="stop-color:#A1B7C3"/>
			<stop  offset="0.85" style="stop-color:#A0B6C2"/>
			<stop  offset="0.8813" style="stop-color:#99ADB9"/>
			<stop  offset="0.9324" style="stop-color:#8496A1"/>
			<stop  offset="0.9965" style="stop-color:#647079"/>
			<stop  offset="1" style="stop-color:#626E77"/>
		</linearGradient>
		<path fill="url(#SVGID_1_)" d="M1243.068,43.649H664.321c-18.142,0-38.96,11.792-49.502,28.017
			c-4.976,7.671-9.687,19.529-3.888,32.552c1.25,2.799,125.816,282.654,165.081,369.374c41.52,91.683,148.377,95.272,160.363,95.389
			h306.693c10.354-16.289,61.113-104.343,61.113-262.659C1304.182,147.992,1253.423,59.951,1243.068,43.649z M957.006,357.274
			l20.785-47.636c0,0,10.237-2.695,12.091,0v107.013H777.645l-4.16-8.993c101.454-115.254,140.148-197.076,140.148-228.889
			s-7.801-52.003-34.885-52.003s-34.781,30.738-34.781,41.338c0,10.574,0.428,16.872,5.884,25.062l-10.445,12.09l-56.279-72.931
			c24.064-20.591,53.844-41.896,97.67-41.896c49.839,0,109.111,29.001,109.086,79.255c0,50.241-3.356,55.489-126.205,187.589
			H957.006z M1201.187,357.274l20.798-47.636c0,0,10.212-2.695,12.091,0v107.013h-212.264l-4.133-8.993
			c101.453-115.254,140.147-197.076,140.147-228.889s-7.813-52.003-34.885-52.003c-27.083,0-34.781,30.738-34.781,41.338
			c0,10.574,0.428,16.872,5.884,25.062l-10.445,12.09l-56.279-72.931c24.064-20.591,53.844-41.896,97.67-41.896
			c49.839,0,109.112,29.001,109.086,79.255c-0.025,50.241-3.356,55.489-126.23,187.589H1201.187z"/>
	</g>
</g>
</svg>
