<?xml version="1.0" encoding="utf-8"?>
<!-- Generator: Adobe Illustrator 15.1.0, SVG Export Plug-In . SVG Version: 6.00 Build 0)  -->
<!DOCTYPE svg PUBLIC "-//W3C//DTD SVG 1.1//EN" "http://www.w3.org/Graphics/SVG/1.1/DTD/svg11.dtd">
<svg version="1.1"
	 id="Layer_1" xmlns:rdf="http://www.w3.org/1999/02/22-rdf-syntax-ns#" xmlns:dc="http://purl.org/dc/elements/1.1/" xmlns:cc="http://creativecommons.org/ns#" xmlns:svg="http://www.w3.org/2000/svg"
	 xmlns="http://www.w3.org/2000/svg" xmlns:xlink="http://www.w3.org/1999/xlink" x="0px" y="0px" width="612px" height="612.857px"
	 viewBox="0 0 612 612.857" enable-background="new 0 0 612 612.857" xml:space="preserve">
<g>
	<path d="M306.276,6.668c-165.423,0-300,134.578-300,300c0,165.427,134.577,300,300,300c165.418,0,300-134.573,300-300
		C606.276,141.246,471.694,6.668,306.276,6.668z M25.027,306.668c0-113.1,66.86-210.425,163.119-255.084l3.1,3.433
		c5.594,6.203,9.512,12.442,11.646,18.558c0.233,0.664,0.316,1.314,0.509,1.973c-88.417,39.514-150.247,128.183-150.247,231.12
		c-0.003,37.233,8.178,72.563,22.679,104.435L61.881,445.6C38.517,404.602,25.027,357.233,25.027,306.668z M383.099,563.895
		l-20.554,18.2c-18.203,3.718-36.969,5.823-56.269,5.823c-20.998,0-41.4-2.454-61.08-6.82l-9.993-13.752
		c-3.604-4.962-8.048-12.522-12.351-21.789c26.143,9.155,54.191,14.236,83.423,14.236c33.71,0,65.845-6.748,95.288-18.769
		C396.053,550.263,389.461,558.264,383.099,563.895z M392.419,574.423c23.685-20.965,45.986-64.06,31.43-100.058L284.771,130.393
		l-86.856,214.81h109.777c-38.801,22.614-114.904,74.167-114.904,130.783c0,46.812,20.69,85.373,31.041,99.619
		c-63.418-19.409-117.261-60.663-152.866-114.954l144.265-356.698c4.696-11.6,5.009-23.396,0.938-35.024
		c-3.071-8.798-8.409-16.603-14.483-23.332c32.342-12.968,67.616-20.178,104.595-20.178c39.561,0,77.188,8.203,111.338,22.943
		c-1.229,9.393-0.238,19.922,4.458,31.549L561.965,423.81C529.29,495.001,467.813,550.189,392.419,574.423z M552.726,363.806
		c4.277-18.384,6.676-37.473,6.676-57.138c0-89.242-46.511-167.707-116.476-212.792l-7.816-19.235
		c-2.765-6.839-3.982-13.362-3.836-19.803c92.56,46.033,156.253,141.435,156.253,251.83c0,34.717-6.418,67.905-17.928,98.593
		L552.726,363.806z"/>
</g>
</svg>
