<?xml version="1.0" encoding="UTF-8"?>
<svg xmlns="http://www.w3.org/2000/svg" width="310pt" height="310pt" viewBox="0 0 310 310">
  <g id="#808080ff">
    <path fill="#808080" stroke="#808080" stroke-width="0.09375" d=" M 88.25 0.00 L 305.45 0.00 C 305.33 19.85 305.31 39.70 305.30 59.56 C 297.46 67.27 289.33 74.69 281.39 82.31 C 278.48 96.75 279.28 111.63 281.36 126.12 C 285.50 154.32 294.35 181.50 301.92 208.89 C 305.37 221.60 308.90 234.39 310.00 247.57 L 310.00 252.78 C 308.47 269.91 301.85 287.91 287.39 298.26 C 274.77 307.47 258.65 308.91 243.56 310.00 L 239.57 310.00 C 171.28 304.53 103.15 297.42 34.96 290.90 C 29.27 290.61 24.39 287.22 20.04 283.86 C 9.06 274.81 1.89 261.36 0.00 247.31 L 0.00 241.34 C 1.46 225.09 11.68 210.98 23.80 200.74 C 40.88 201.14 57.96 201.93 75.04 202.40 C 76.73 202.51 78.18 201.44 79.56 200.62 C 85.70 196.45 90.10 190.23 93.62 183.81 C 99.39 173.01 102.77 161.11 105.15 149.15 C 109.51 126.52 110.26 103.36 109.79 80.37 C 102.59 73.41 95.48 66.36 88.27 59.40 C 88.21 39.60 88.26 19.80 88.25 0.00 M 101.64 13.30 C 101.71 26.79 101.65 40.29 101.67 53.79 C 108.83 60.81 116.01 67.81 123.19 74.81 C 123.40 103.32 122.60 132.04 117.04 160.09 C 114.16 173.40 110.43 187.03 102.24 198.15 C 99.26 202.30 95.14 205.38 90.84 208.04 C 110.22 208.36 129.63 208.73 149.00 208.96 C 154.95 209.52 160.94 209.22 166.90 209.51 C 166.81 186.96 166.92 164.42 166.85 141.87 C 174.05 134.08 181.57 126.58 188.74 118.76 C 189.63 117.77 190.64 116.89 191.70 116.09 C 199.38 124.81 207.76 132.88 215.59 141.46 C 216.05 142.94 215.77 144.53 215.85 146.05 C 215.78 167.54 215.92 189.02 215.78 210.51 C 224.58 211.04 233.40 211.48 242.09 212.98 C 252.19 214.73 262.55 217.60 270.59 224.25 C 277.32 229.77 281.54 238.26 281.79 246.98 C 282.45 259.54 277.81 272.82 267.90 280.92 C 261.01 286.63 251.80 288.68 243.01 288.51 C 234.43 288.44 225.74 285.52 219.39 279.65 C 212.30 273.16 207.04 263.87 207.44 254.05 C 207.70 246.46 212.48 239.72 218.54 235.47 C 227.74 229.00 238.86 225.47 250.01 224.53 C 240.26 221.62 230.07 220.69 219.94 220.50 C 156.26 218.49 92.60 216.16 28.92 214.27 C 20.15 222.30 13.10 233.70 13.65 246.00 C 14.53 258.88 23.00 270.21 33.37 277.32 C 96.25 283.43 159.15 289.41 222.04 295.52 C 239.33 297.12 257.73 298.25 273.92 290.78 C 284.80 285.92 292.34 275.34 294.91 263.87 C 299.07 246.48 294.87 228.50 289.32 211.92 C 281.85 190.28 275.49 168.25 270.64 145.88 C 267.53 130.81 264.70 115.41 266.21 99.98 C 266.62 91.51 267.76 83.08 269.81 74.86 C 277.19 67.93 284.47 60.91 291.86 54.00 C 291.79 40.41 291.80 26.82 291.85 13.24 C 282.73 13.34 273.60 13.27 264.47 13.28 C 264.55 21.12 264.49 28.96 264.51 36.80 C 255.73 36.76 246.95 36.79 238.16 36.79 C 238.17 28.95 238.15 21.12 238.17 13.29 C 228.88 13.28 219.59 13.32 210.31 13.26 C 210.39 21.11 210.31 28.95 210.35 36.80 C 201.16 36.63 191.96 37.06 182.79 36.58 C 182.83 34.05 182.89 31.52 182.98 29.00 C 182.88 23.74 182.84 18.49 182.91 13.23 C 173.65 13.33 164.40 13.32 155.15 13.24 C 155.23 21.09 155.14 28.94 155.20 36.79 C 146.22 36.77 137.24 36.79 128.27 36.78 C 128.29 28.95 128.25 21.11 128.29 13.28 C 119.41 13.31 110.52 13.27 101.64 13.30 M 242.06 235.27 C 246.98 237.74 252.91 238.95 256.43 243.55 C 260.43 248.61 262.09 257.09 256.86 261.90 C 252.43 265.72 246.32 263.80 241.07 264.22 C 235.41 265.31 230.08 267.68 225.02 270.38 C 232.01 277.83 242.95 281.54 252.99 279.21 C 267.13 275.60 276.32 258.97 271.66 245.09 C 267.59 233.63 252.22 228.87 242.06 235.27 M 218.74 249.59 C 217.55 253.94 218.10 258.65 219.56 262.87 C 228.20 256.60 238.50 252.74 249.00 251.10 C 244.17 245.87 237.38 241.54 229.99 242.15 C 225.36 242.47 220.23 244.86 218.74 249.59 Z"/>
  </g>
  <g>
    <path stroke="#000000" stroke-width="0.09375" d=" M 101.64 13.30 C 110.52 13.27 119.41 13.31 128.29 13.28 C 128.25 21.11 128.29 28.95 128.27 36.78 C 137.24 36.79 146.22 36.77 155.20 36.79 C 155.14 28.94 155.23 21.09 155.15 13.24 C 164.40 13.32 173.65 13.33 182.91 13.23 C 182.84 18.49 182.88 23.74 182.98 29.00 C 182.89 31.52 182.83 34.05 182.79 36.58 C 191.96 37.06 201.16 36.63 210.35 36.80 C 210.31 28.95 210.39 21.11 210.31 13.26 C 219.59 13.32 228.88 13.28 238.17 13.29 C 238.15 21.12 238.17 28.95 238.16 36.79 C 246.95 36.79 255.73 36.76 264.51 36.80 C 264.49 28.96 264.55 21.12 264.47 13.28 C 273.60 13.27 282.73 13.34 291.85 13.24 C 291.80 26.82 291.79 40.41 291.86 54.00 C 284.47 60.91 277.19 67.93 269.81 74.86 C 267.76 83.08 266.62 91.51 266.21 99.98 C 264.70 115.41 267.53 130.81 270.64 145.88 C 275.49 168.25 281.85 190.28 289.32 211.92 C 294.87 228.50 299.07 246.48 294.91 263.87 C 292.34 275.34 284.80 285.92 273.92 290.78 C 257.73 298.25 239.33 297.12 222.04 295.52 C 159.15 289.41 96.25 283.43 33.37 277.32 C 23.00 270.21 14.53 258.88 13.65 246.00 C 13.10 233.70 20.15 222.30 28.92 214.27 C 92.60 216.16 156.26 218.49 219.94 220.50 C 230.07 220.69 240.26 221.62 250.01 224.53 C 238.86 225.47 227.74 229.00 218.54 235.47 C 212.48 239.72 207.70 246.46 207.44 254.05 C 207.04 263.87 212.30 273.16 219.39 279.65 C 225.74 285.52 234.43 288.44 243.01 288.51 C 251.80 288.68 261.01 286.63 267.90 280.92 C 277.81 272.82 282.45 259.54 281.79 246.98 C 281.54 238.26 277.32 229.77 270.59 224.25 C 262.55 217.60 252.19 214.73 242.09 212.98 C 233.40 211.48 224.58 211.04 215.78 210.51 C 215.92 189.02 215.78 167.54 215.85 146.05 C 215.77 144.53 216.05 142.94 215.59 141.46 C 207.76 132.88 199.38 124.81 191.70 116.09 C 190.64 116.89 189.63 117.77 188.74 118.76 C 181.57 126.58 174.05 134.08 166.85 141.87 C 166.92 164.42 166.81 186.96 166.90 209.51 C 160.94 209.22 154.95 209.52 149.00 208.96 C 129.63 208.73 110.22 208.36 90.84 208.04 C 95.14 205.38 99.26 202.30 102.24 198.15 C 110.43 187.03 114.16 173.40 117.04 160.09 C 122.60 132.04 123.40 103.32 123.19 74.81 C 116.01 67.81 108.83 60.81 101.67 53.79 C 101.65 40.29 101.71 26.79 101.64 13.30 Z"/>
    <path stroke="#000000" stroke-width="0.09375" d=" M 242.06 235.27 C 252.22 228.87 267.59 233.63 271.66 245.09 C 276.32 258.97 267.13 275.60 252.99 279.21 C 242.95 281.54 232.01 277.83 225.02 270.38 C 230.08 267.68 235.41 265.31 241.07 264.22 C 246.32 263.80 252.43 265.72 256.86 261.90 C 262.09 257.09 260.43 248.61 256.43 243.55 C 252.91 238.95 246.98 237.74 242.06 235.27 Z"/>
    <path stroke="#000000" stroke-width="0.09375" d=" M 218.74 249.59 C 220.23 244.86 225.36 242.47 229.99 242.15 C 237.38 241.54 244.17 245.87 249.00 251.10 C 238.50 252.74 228.20 256.60 219.56 262.87 C 218.10 258.65 217.55 253.94 218.74 249.59 Z"/>
  </g>
</svg>
