<?xml version="1.0" encoding="UTF-8" standalone="no"?>
<svg xmlns="http://www.w3.org/2000/svg" version="1.1" x="0px" y="0px" width="227.7921" height="227.78865" viewBox="0 0 227.79209 227.78865">
  <linearGradient id="SVGID_1_" gradientUnits="userSpaceOnUse" x1="214.82471" y1="205.56351" x2="48.118801" y2="38.857498">
    <stop offset="0.2" style="stop-color:#536e78"/>
    <stop offset="0.5" style="stop-color:#d9eaf3"/>
    <stop offset="0.8" style="stop-color:#536e78"/>
  </linearGradient>
  <g>
    <path d="m 192.475,229.639 c 18.474,-3.318 30.555,-15.043 34.459,-33.443 2.342,-11.038 0.092,-24.608 -9.235,-55.694 -2.99,-9.963 -4.974,-17.069 -5.718,-20.5 -0.42,-1.925 -1.789,-8.226 -3.045,-14 -1.787,-8.212 -2.303,-13.845 -2.373,-25.854 l -0.088,-15.355 9.25,-8.763 9.25,-8.764 V 25.132 3 h -80 -80 v 22.228 22.228 l 7.693,7.739 7.694,7.739 -0.148,10.283 C 79.87,96.99 78.34,109.176 73.775,124.5 c -2.206,7.404 -7.682,18.383 -10.649,21.35 -5.158,5.158 -5.229,5.17 -25.908,4.479 l -19.348,-0.647 -4.995,4.909 C 1.734,165.541 -2.619,179.939 1.565,192 c 3.793,10.932 10.067,18.744 18.514,23.053 4.021,2.053 6.209,2.338 37.396,4.905 6.05,0.497 15.05,1.373 20,1.944 4.95,0.572 16.425,1.746 25.5,2.607 9.076,0.862 21,2.041 26.5,2.618 5.5,0.578 13.826,1.276 18.5,1.556 4.676,0.274 10.976,0.854 14,1.286 8.492,1.215 22.762,1.058 30.5,-0.33 z"/>
    <path style="fill:url(#SVGID_1_)" d="m 217.975,185.857 c 0,16.035 -5.539,25.723 -18,31.477 -4.998,2.308 -6.672,2.856 -14.474,3.109 -4.031,0.43 -8.41,0.519 -13.169,0.234 -0.156,-0.002 -0.313,-0.006 -0.468,-0.009 -4.872,0.021 -8.632,-0.038 -9.39,-0.169 -1.1,-0.189 -7.399,-0.848 -14,-1.459 -6.6,-0.611 -18.524,-1.757 -26.5,-2.545 -31.872,-3.146 -62.214,-6.061 -73,-7.01 C 38.193,208.536 31.94,207.887 27.903,207.056 27.406,207.02 27.096,207 26.99,207 c -0.572,0 -1.305,-0.269 -2.137,-0.738 -2.155,-0.722 -3.479,-1.619 -4.883,-2.887 -5.753,-5.197 -9.994,-13.998 -9.994,-20.738 0,-6.486 3.239,-14.248 8.121,-19.457 l 3.111,-3.318 21.134,0.604 c 11.624,0.332 39.584,1.25 62.134,2.04 22.55,0.789 47.076,1.634 54.5,1.875 11.334,0.369 20.845,1.597 23.081,2.853 l 1.419,0.324 -0.921,0.246 c -0.004,0.051 -0.019,0.101 -0.05,0.151 -0.267,0.432 -2.361,1.084 -4.654,1.451 -4.963,0.793 -13.256,4.186 -17.223,7.043 -3.536,2.55 -6.866,8.165 -7.526,12.387 -0.093,0.981 -0.109,1.978 -0.04,2.98 0.74,7.302 6.465,15.833 13.291,19.473 5.896,3.144 20.309,3.172 26.123,0.053 1.432,-0.768 2.737,-1.639 3.935,-2.603 0.134,-0.111 0.269,-0.216 0.403,-0.331 0.922,-0.789 1.775,-1.643 2.571,-2.544 3.821,-4.438 5.924,-10.393 6.382,-18.04 0.385,-6.464 0.111,-8.395 -1.733,-12.206 -1.146,-2.367 -2.528,-4.407 -4.253,-6.177 -0.278,-0.278 -0.557,-0.559 -0.847,-0.824 -0.027,-0.024 -0.056,-0.049 -0.083,-0.073 -0.306,-0.277 -0.623,-0.542 -0.942,-0.805 -5.416,-4.38 -13.711,-6.844 -27.183,-8.514 l -9.81,-1.216 -1.94,-0.009 v -0.231 l -1,-0.124 v -25.084 -0.789 l -0.482,-24.811 -8.025,-8.623 -5.729,-6.156 -2.867,-2.893 -8.903,9.22 -8.92,9.235 -0.037,24.506 -0.038,24.75 v 0.313 L 115.419,157 h -6.786 c -2.07,0 -4.468,-0.021 -7.01,-0.058 l -4.898,-0.013 c -14.438,-0.039 -27.085,-0.397 -28.106,-0.801 -0.111,-0.044 -0.213,-0.087 -0.307,-0.129 h -0.697 l 0.037,-0.031 -1.177,-0.002 0.709,-0.455 0.497,-0.425 c 0.226,-0.491 1.08,-1.211 2.726,-2.467 0.828,-0.632 1.603,-1.306 2.337,-2.035 0.537,-0.556 1.08,-1.158 1.606,-1.772 2.541,-3.106 4.626,-7.221 6.86,-13.313 5.423,-14.784 7.646,-29.865 8.398,-57 l 0.366,-13.192 v -6.994 l -6.528,-6.434 -0.972,-0.946 -7.5,-7.298 v -0.104 l -1,-0.985 V 27.773 13 h 1 9.5 0.5 9 1 v 8.5 8.5 h 9 0.5 9.455 l 0.045,-1.365 V 21.5 13 h 10.5 6.97 l 2.452,-0.072 0.003,0.072 h 1.076 v 8.5 8.5 h 9.459 0.041 9.42 l 0.08,-2.286 V 21.5 13 h 1 9.5 0.5 7.485 l 2.515,-0.07 V 13 h 1 v 8.5 8.5 h 8.5 0.5 9 V 21.5 13 h 1.078 8.922 0.5 0.039 9.461 1 v 14.867 0.119 14.748 0.238 l -8.398,8.264 c -8.247,8.114 -8.419,8.383 -9.5,14.846 -0.978,5.846 -1.265,14.082 -0.901,21.852 0.207,3.712 0.56,7.479 1.057,11.154 0.102,0.658 0.211,1.296 0.325,1.913 2.479,13.301 8.147,35.221 12.931,50 6.416,19.829 7.486,24.817 7.486,34.856 z m -45.5,21.206 c 10.396,4.67 21.726,0.268 26.524,-10.309 2.358,-5.195 2.498,-10.588 0.392,-15.008 -3.078,-6.455 -12.227,-10.311 -18.399,-7.753 -0.982,0.407 -1.705,0.782 -2.187,1.131 l -1.328,0.555 0.633,0.323 c -0.053,0.533 0.677,0.985 2.203,1.368 0.448,0.112 0.889,0.261 1.323,0.43 l 1.165,0.595 c 0.494,0.252 0.968,0.517 1.42,0.793 4.492,3.075 7.394,8.852 5.736,12.856 -1.377,3.323 -4.867,4.821 -10.982,4.712 -2.608,-0.047 -6.556,0.831 -9.396,2.09 -4.89,2.168 -4.896,2.176 -3,4.297 1.043,1.168 3.697,2.932 5.896,3.92 z m -11.834,-11.729 c 0.133,0.132 0.248,0.243 0.361,0.333 l 0.029,0.155 0.109,-0.058 c 0.657,0.403 1.441,-0.031 5.156,-2.17 2.299,-1.323 6.879,-3.212 10.178,-4.198 1.319,-0.394 2.568,-0.779 3.611,-1.112 1.317,-0.287 2.352,-0.643 2.724,-0.936 0.035,-0.017 0.061,-0.03 0.075,-0.04 1.047,-0.754 -3.592,-4.404 -7.488,-5.893 -6.186,-2.361 -11.405,-0.974 -13.879,3.069 -0.975,1.314 -1.543,2.956 -1.543,4.888 0,0.262 0.006,0.531 0.016,0.801 -0.003,0.101 -0.016,0.193 -0.016,0.295 0.001,2.309 0.302,4.499 0.667,4.866 z"/>
  </g>
</svg>
