<?xml version="1.0" encoding="UTF-8"?>
<svg xmlns="http://www.w3.org/2000/svg" width="310pt" height="310pt" viewBox="0 0 310 310">
    <path stroke="#000000" stroke-width="0.09375" d=" M 101.64 13.30 C 110.52 13.27 119.41 13.31 128.29 13.28 C 128.25 21.11 128.29 28.95 128.27 36.78 C 137.24 36.79 146.22 36.77 155.20 36.79 C 155.14 28.94 155.23 21.09 155.15 13.24 C 164.40 13.32 173.65 13.33 182.91 13.23 C 182.84 18.49 182.88 23.74 182.98 29.00 C 182.89 31.52 182.83 34.05 182.79 36.58 C 191.96 37.06 201.16 36.63 210.35 36.80 C 210.31 28.95 210.39 21.11 210.31 13.26 C 219.59 13.32 228.88 13.28 238.17 13.29 C 238.15 21.12 238.17 28.95 238.16 36.79 C 246.95 36.79 255.73 36.76 264.51 36.80 C 264.49 28.96 264.55 21.12 264.47 13.28 C 273.60 13.27 282.73 13.34 291.85 13.24 C 291.80 26.82 291.79 40.41 291.86 54.00 C 284.47 60.91 277.19 67.93 269.81 74.86 C 267.76 83.08 266.62 91.51 266.21 99.98 C 264.70 115.41 267.53 130.81 270.64 145.88 C 275.49 168.25 281.85 190.28 289.32 211.92 C 294.87 228.50 299.07 246.48 294.91 263.87 C 292.34 275.34 284.80 285.92 273.92 290.78 C 257.73 298.25 239.33 297.12 222.04 295.52 C 159.15 289.41 96.25 283.43 33.37 277.32 C 23.00 270.21 14.53 258.88 13.65 246.00 C 13.10 233.70 20.15 222.30 28.92 214.27 C 92.60 216.16 156.26 218.49 219.94 220.50 C 230.07 220.69 240.26 221.62 250.01 224.53 C 238.86 225.47 227.74 229.00 218.54 235.47 C 212.48 239.72 207.70 246.46 207.44 254.05 C 207.04 263.87 212.30 273.16 219.39 279.65 C 225.74 285.52 234.43 288.44 243.01 288.51 C 251.80 288.68 261.01 286.63 267.90 280.92 C 277.81 272.82 282.45 259.54 281.79 246.98 C 281.54 238.26 277.32 229.77 270.59 224.25 C 262.55 217.60 252.19 214.73 242.09 212.98 C 233.40 211.48 224.58 211.04 215.78 210.51 C 215.92 189.02 215.78 167.54 215.85 146.05 C 215.77 144.53 216.05 142.94 215.59 141.46 C 207.76 132.88 199.38 124.81 191.70 116.09 C 190.64 116.89 189.63 117.77 188.74 118.76 C 181.57 126.58 174.05 134.08 166.85 141.87 C 166.92 164.42 166.81 186.96 166.90 209.51 C 160.94 209.22 154.95 209.52 149.00 208.96 C 129.63 208.73 110.22 208.36 90.84 208.04 C 95.14 205.38 99.26 202.30 102.24 198.15 C 110.43 187.03 114.16 173.40 117.04 160.09 C 122.60 132.04 123.40 103.32 123.19 74.81 C 116.01 67.81 108.83 60.81 101.67 53.79 C 101.65 40.29 101.71 26.79 101.64 13.30 Z"/>
    <path stroke="#000000" stroke-width="0.09375" d=" M 242.06 235.27 C 252.22 228.87 267.59 233.63 271.66 245.09 C 276.32 258.97 267.13 275.60 252.99 279.21 C 242.95 281.54 232.01 277.83 225.02 270.38 C 230.08 267.68 235.41 265.31 241.07 264.22 C 246.32 263.80 252.43 265.72 256.86 261.90 C 262.09 257.09 260.43 248.61 256.43 243.55 C 252.91 238.95 246.98 237.74 242.06 235.27 Z"/>
    <path stroke="#000000" stroke-width="0.09375" d=" M 218.74 249.59 C 220.23 244.86 225.36 242.47 229.99 242.15 C 237.38 241.54 244.17 245.87 249.00 251.10 C 238.50 252.74 228.20 256.60 219.56 262.87 C 218.10 258.65 217.55 253.94 218.74 249.59 Z"/>
</svg>
