<?xml version="1.0" encoding="UTF-8" standalone="no"?>
<svg xmlns="http://www.w3.org/2000/svg" version="1.1" width="600" height="263.1676">
  <path d="m 14.734076,263.16759 c 0,0 -15.51184965,-4.74454 -14.70354919,-24.92197 0.79326231,-20.03081 16.53820319,-31.0613 16.53820319,-31.0613 0,0 -13.8200579,-12.1433 -13.8200579,-38.68187 0,-8.36873 1.2030518,-16.88784 4.4362536,-24.65505 1.21809,-2.90988 2.6730309,-5.53779 4.5678373,-8.03413 0.879732,-1.18801 1.804578,-2.61287 1.582765,-4.14301 -0.248129,-1.64291 -1.894806,-2.6843 -2.861007,-3.92119 C 8.9744654,125.89938 7.9029973,123.75644 6.9781512,121.53831 4.113384,114.66588 3.4103506,107.19192 3.5268962,99.804428 3.6432915,92.811689 4.0118765,85.604657 5.8314924,78.818693 6.8616056,74.999 8.4744469,71.19435 10.576028,67.8634 15.892014,59.35933 24.659254,53.85161 34.321264,51.56205 c 0.267078,-0.0451 6.00774,-1.07147 6.00774,-0.73311 l 0,-11.60193 c 9.943976,-7.75593 18.782647,0 18.782647,0 l 0,14.34639 2.76326,3.33471 85.085839,0 3.86481,-4.99266 0,-20.44437 c 0,-2.48129 -2.10158,-2.74446 -2.10158,-2.74446 l -11.70344,0 c 0,0 -1.11659,18.79769 -14.92161,18.79769 -13.80502,0 -17.12469,-16.05323 -17.12469,-23.2189 0,-7.18072 4.42122,-20.98574 16.56828,-20.98574 12.15835,0 14.55317,13.24485 14.55317,13.24485 l 22.83543,0 c 0,0 5.71073,-0.55641 5.71073,6.81604 l 0,32.96738 86.19115,0 c 0,0 57.45325,37.565294 164.6414,37.565294 C 522.65129,93.913234 600,0 600,0 c 0,0 -6.98898,45.48288 -39.41499,74.95389 l 12.89522,-0.36468 c -30.19661,32.95234 -50.09583,26.69648 -50.09583,26.69648 6.63934,6.6243 16.21488,5.15432 16.21488,5.15432 -22.83543,19.51952 -56.71638,19.15108 -56.71638,19.15108 5.8724,3.68811 16.19985,5.90623 16.19985,5.90623 -25.48214,11.44028 -42.82489,14.03812 -53.78018,13.69976 -32.6027,-1.01132 -47.8777,-14.45166 -47.8777,-14.45166 4.42121,10.31241 12.5155,17.31642 12.5155,17.31642 C 277.3415,134.78692 219.33184,90.330395 219.33184,90.330395 l -52.20493,0 -3.04147,3.026427 0,26.640078 c 0,0 -0.26316,2.10158 1.93992,2.10158 l 29.75298,0 c 0,0 5.33102,0.17294 5.33102,5.6957 l 0,24.14375 c 0,0 9.38381,25.42199 -5.52276,25.42199 -14.9216,0 -5.52276,-26.52354 -5.52276,-26.52354 l 0,-15.57952 c 0,-2.39482 -2.04142,-2.10158 -2.04142,-2.10158 l -32.04254,0 c -6.1694,0 -5.69946,-6.00774 -5.69946,-6.00774 l 0,-32.132762 -3.31967,-3.861044 -81.769928,0 0,16.579556 -8.28226,0 c -12.718513,0 -14.906564,-17.135968 -14.906564,-17.135968 l -5.549076,0 c 0.353396,0.01504 -0.41355,8.590542 -0.469943,9.207106 -0.439865,4.977632 -0.500018,10.030442 -1.969997,14.846412 -1.451181,4.74454 -4.639269,8.6507 -6.402491,13.25989 -1.026354,2.71814 0.48498,3.75953 2.556485,5.15432 1.454941,1.00004 2.744462,2.43994 3.906159,3.74826 3.834727,4.41746 6.477682,9.77856 8.150676,15.37275 1.834654,6.1694 2.526409,12.66212 2.526409,19.07965 0,4.53776 -0.191586,9.19207 -0.778224,13.69975 -0.661679,4.93627 -1.586525,10.07556 -3.936236,14.51181 -2.157974,4.03775 -5.507721,7.06041 -8.898824,10.03045 -3.451255,3.02267 -6.507758,6.62054 -9.665769,9.97029 -19.2225133,20.39925 -6.737091,43.68958 -6.737091,43.68958"/>
  <path d="m 151.38197,65.20541 0,18.767608 8.28226,4.977627 0,-28.737905 -8.28226,4.99267 z" style="fill:#d1d3d4"/>
  <path d="m 121.54252,10.48535 c 0,0 -8.84243,1.11658 -8.84243,14.37647 0,13.24861 8.84243,14.90656 8.84243,14.90656 0,0 8.2973,-2.20309 8.2973,-14.90656 0,-12.71852 -8.2973,-14.37647 -8.2973,-14.37647" style="fill:#d1d3d4"/>
  <path d="m 20.989946,74.58921 c 0,0 -8.827393,4.962592 -8.827393,20.985739 0,16.023151 3.304633,27.064911 8.28226,27.064911 4.962589,0 7.165678,-19.32778 7.165678,-28.166455 0,-8.842431 -1.086507,-19.884195 -6.620545,-19.884195" style="fill:#d1d3d4"/>
  <path d="m 22.66294,141.43754 c 0,0 -9.959014,2.74822 -9.959014,22.08728 0,19.34282 5.52276,35.92238 11.601931,35.92238 6.082931,0 11.060558,-11.60193 11.060558,-22.64745 0,-11.0568 -2.774538,-35.36221 -12.703475,-35.36221" style="fill:#d1d3d4"/>
  <path d="m 225.22303,83.882789 c 6.46265,3.966312 58.74277,38.685641 165.59633,52.825251 0,0 -4.58287,-7.03409 -2.23316,-18.95934 0,0 12.07187,7.13936 22.29405,11.07559 7.12056,2.74447 18.3691,7.19576 34.68549,7.70706 6.28594,0.19188 16.19984,-0.95493 29.8996,-5.33103 -4.44754,-2.77454 -13.4817,-13.45162 -13.4817,-13.45162 0,0 20.98573,-0.83462 20.98573,-0.83462 0.79326,0 18.91799,-0.19189 36.2457,-7.97398 l -0.27821,-0.57521 c -6.15436,-4.34602 -4.71446,-14.639633 -4.71446,-14.639633 8.13564,0.541373 17.38786,-1.293281 17.38786,-1.293281 4.16933,-0.868453 10.39888,-3.067782 18.18112,-8.504072 -6.18443,0.206924 -12.39519,0.383472 -12.39519,0.383472 L 554.75397,68.53636 C 566.78073,57.59611 574.93141,44.1896 580.5444,31.98614 561.3482,49.22738 532.4336,70.96126 496.45107,85.792634 l -0.61656,0.252039 c -23.98209,9.808632 -50.98684,16.549487 -80.36011,16.549487 -14.27496,0 -27.56492,-0.70304 -40.07666,-1.81962 l -0.93988,-0.12031 C 300.22204,93.811877 257.55881,70.52154 248.4269,65.01382 l -48.5657,0 0,8.37249 11.38012,0 c 0,0 6.81604,6.094212 13.98171,10.496629" style="fill:#d1d3d4"/>
</svg>
