<?xml version="1.0" encoding="UTF-8" standalone="no"?>
<svg xmlns="http://www.w3.org/2000/svg" version="1.1" width="600" height="317.95483">
  <path d="m 576.63728,28.3027 -10.17232,12.36924 c -2.91692,3.42462 -71.64927,82.96621 -162.40625,82.96621 -92.73236,0 -144.80317,-31.65233 -147.00009,-32.99079 0,0 -2.24308,-1.47693 -3.46154,-2.27077 -2.30769,0 -71.14158,0 -71.14158,0 l 0,-17.02155 c 0,-6.27693 -2.27077,-11.75078 -6.3877,-15.5077 -4.68923,-4.24616 -10.09847,-4.8277 -12.8677,-4.8277 l -12.72924,0 -1.22769,-1.62462 C 143.87086,42.33348 136.55085,38.57656 128.077,38.57656 c -18.46155,0 -29.492324,17.09539 -29.492324,33.64617 0,3.89539 1.006155,8.00308 1.984614,11.50155 l 1.44,5.16 -18.646162,0 0,-8.98154 C 81.71082,78.46273 78.609279,75.75812 78.609279,75.75812 70.458505,68.57657 55.892342,65.3735 43.23695,75.25006 c 0,0 -3.498464,2.70461 -5.372311,4.14461 l 0,6.71078 -2.566156,1.00615 c -10.12616,4.08 -18.175396,10.49539 -23.252322,18.60924 -2.6307706,4.21847 -4.7261565,9.04616 -6.0646189,14.05847 -2.1600013,7.93847 -2.5569246,15.79386 -2.6676939,23.07694 0,-0.0369 -0.036923,1.69846 -0.036923,1.69846 0,9.48001 1.4123086,17.27078 4.3661565,24.34156 0,0 2.5292323,5.33538 2.5292323,5.33538 l -2.4553861,5.07693 c -3.3507713,8.11385 -5.12308,17.70463 -5.12308,28.31079 0,11.89847 2.5938477,22.92924 7.7169281,32.8154 l 1.116923,2.19693 -1.4400004,2.02154 c -6.2030808,8.64923 -9.55385208,18.06462 -9.9507754,27.90463 l 0,0 c -1e-7,0 -0.0369232,2.05846 -0.0369232,2.05846 0,13.80924 5.7323112,24.55386 17.021549,31.87387 13.190777,8.5477 28.624633,10.85539 37.818485,11.46462 -4.827696,-6.73847 -11.750777,-17.77847 -16.043087,-31.51387 l -0.867693,-6.37846 c 0,-5.52 2.132309,-10.56924 6.31385,-15.03693 0,0 0,0.1019 0,0.1019 0.646154,-0.85846 1.476924,-1.72615 2.455386,-2.76923 0.10117,-0.0738 5.907696,-5.99077 5.907696,-5.99077 3.101541,-2.74154 7.938467,-6.96 11.215392,-13.12616 3.286156,-6.16616 4.467695,-12.72924 5.224618,-18.31386 l 0.867693,-14.96309 c -0.03692,-7.79077 -0.969231,-14.96308 -2.953848,-21.63693 -1.698462,-5.58462 -4.329233,-10.81847 -8.076928,-16.04309 0,0 0.175754,0.10191 0.212677,0.13883 -0.359631,-0.39729 -0.683077,-0.72 -1.116924,-1.25538 l -1.587693,-1.98462 0.691939,-2.77846 1.476924,-3.21231 9.40616,1.33846 c 0,0 15.396932,0 21.129243,-0.0369 l 0,-15.57232 51.996951,0 0,19.9754 c 0,3.82154 0.94154,7.32 2.74154,10.38462 3.42462,5.76923 9.48001,9.08308 16.58771,9.08308 l 17.84309,0 -2.55693,17.08616 c 0,6.27693 1.47692,11.5754 4.40308,15.69232 3.96,5.62154 10.16308,8.72308 17.48309,8.72308 7.39385,0 13.67078,-3.13846 17.59385,-8.79693 2.85231,-4.08 4.25539,-9.15692 4.25539,-15.18462 0,-4.79077 -0.89538,-10.23693 -2.63077,-15.72001 l -0.21268,-0.60923 0.11077,-20.16001 c 0,-5.26154 -2.45538,-9.9877 -7.32,-14.02155 l -8.62154,-7.21847 14.7877,0 1.04307,0.65576 c 57.40619,37.75387 128.00316,49.71695 177.14781,53.11388 14.89847,1.00615 27.91386,0.96923 39.7754,-0.11077 1.08001,-0.0369 90.72006,-5.26154 139.32932,-87.69236 C 597.87692,71.71578 600,17.34651 600,0.0665 L 600,0 c -5.29846,6.45231 -23.36309,28.30156 -23.36309,28.30156" style="fill:#ffffff"/>
  <path d="m 31.984635,202.96743 c 0,-8.40001 2.196924,-12.00924 3.710772,-13.63386 2.566155,3 5.335387,14.24309 5.335387,26.07694 0,6.88616 -2.233847,12.03693 -3.82154,14.16924 -2.02154,-3.10154 -5.224619,-12.15693 -5.224619,-26.61232 m -0.508062,-63.82158 c 0,-4.21847 0.793847,-7.03385 1.772309,-9.23078 0.285785,1.98462 0.498462,4.43078 0.498462,8.1877 0,4.54154 -0.498462,9.59078 -1.255386,13.69847 -0.581169,-3.17539 -1.015385,-7.24616 -1.015385,-12.65539 m 117.978537,-56.64927 0,13.56001 c -0.24886,0.32345 -0.24886,0.32345 -0.49846,0.64616 l -10.17232,0 c 4.90154,-3.49847 7.60616,-9.08309 8.87078,-14.20617 l 1.8,0 z m -23.5754,-9.76616 c 0,-3.96923 1.04308,-5.74154 1.94769,-6.6 0.89539,0.93231 1.91077,2.74154 1.91077,6.6 0,3.78462 -0.97846,5.76924 -1.91077,6.88616 -0.97846,-1.08923 -1.94769,-3 -1.94769,-6.88616" style="fill:#ffffff"/>
  <path d="m 35.224637,182.19818 c 0,0 -9.369236,2.59385 -9.369236,20.76925 0,18.13847 5.187695,33.71079 10.920006,33.71079 5.704619,0 10.347699,-10.88309 10.347699,-21.26771 0,-10.38462 -2.593848,-33.21233 -11.898469,-33.21233 m -1.578462,-62.7785 c 0,0 -8.298467,4.68924 -8.298467,19.72617 0,15.03693 3.10154,25.42155 7.790774,25.42155 4.65231,0 6.738466,-18.13847 6.738466,-26.46463 0,-8.29847 -1.043078,-18.68309 -6.230773,-18.68309 M 128.077,59.24426 c 0,0 -8.28923,1.04308 -8.28923,13.48616 0,12.47078 8.28923,14.02155 8.28923,14.02155 0,0 7.79078,-2.08616 7.79078,-14.02155 0,-11.93539 -7.79078,-13.48616 -7.79078,-13.48616 m 28.0154,51.37849 0,17.63078 7.79078,4.68924 0,-27.00925 -7.79078,4.68923 z M 27.766171,296.50287 c 0,0 -14.566163,-4.44 -13.809239,-23.40002 0.756923,-18.79385 15.535394,-29.17848 15.535394,-29.17848 0,0 -12.97847,-11.39077 -12.97847,-36.30463 0,-7.86462 1.116924,-15.8677 4.181541,-23.15079 1.116924,-2.70461 2.49231,-5.18769 4.292311,-7.53231 0.830769,-1.11692 1.698462,-2.45539 1.476924,-3.89539 -0.248862,-1.55077 -1.763078,-2.52923 -2.704617,-3.68308 -1.403078,-1.72615 -2.38154,-3.74769 -3.276925,-5.83385 -2.667694,-6.46154 -3.360003,-13.48616 -3.249233,-20.40924 0.110769,-6.56308 0.4704,-13.3477 2.196924,-19.68924 0.941539,-3.57231 2.455386,-7.14462 4.440003,-10.31078 5.012311,-7.97539 13.236931,-13.16308 22.283091,-15.29539 0.248861,-0.0369 5.658465,-1.00616 5.658465,-0.68308 l 0,-10.89231 c 9.341544,-7.28308 17.63078,0 17.63078,0 l 0,13.48616 2.603078,3.10154 79.901592,0 3.60923,-4.65231 0,-19.21847 c 0,-2.34462 -1.98462,-2.59385 -1.98462,-2.59385 l -10.96616,0 c 0,0 -1.04308,17.63078 -14.02155,17.63078 -12.9877,0 -16.08001,-15.03693 -16.08001,-21.7754 0,-6.7477 4.14462,-19.72617 15.57232,-19.72617 11.39078,0 13.66155,12.48001 13.66155,12.48001 l 21.42463,0 c 0,0 5.37231,-0.54424 5.37231,6.37847 l 0,30.94155 80.94466,0 c 0,0 53.94465,35.29849 154.57856,35.29849 100.64314,0 173.26165,-88.20006 173.26165,-88.20006 0,0 -6.56309,42.72926 -36.99695,70.38466 l 12.12001,-0.36037 c -28.38464,30.97848 -47.05849,25.09848 -47.05849,25.09848 6.24,6.20308 15.21231,4.8277 15.21231,4.8277 -21.41539,18.36001 -53.25234,18.00001 -53.25234,18.00001 5.52001,3.46154 15.21232,5.51077 15.21232,5.51077 -23.9354,10.74462 -40.20002,13.20001 -50.47388,12.87693 -30.61848,-0.94154 -44.9631,-13.56001 -44.9631,-13.56001 4.14462,9.70155 11.75077,16.26463 11.75077,16.26463 C 274.36632,175.95781 219.87706,134.20701 219.87706,134.20701 l -48.99695,0 -2.85231,2.84308 0,25.02463 c 0,0 -0.28653,1.98462 1.8,1.98462 l 27.95078,0 c 0,0 5.01231,0.14769 5.01231,5.33539 l 0,22.64309 c 0,0 8.79693,23.87078 -5.19692,23.87078 -14.02155,0 -5.1877,-24.87693 -5.1877,-24.87693 l 0,-14.64001 c 0,-2.23385 -1.91077,-1.9477 -1.91077,-1.9477 l -30.07386,0 c -5.80616,0 -5.37231,-5.65846 -5.37231,-5.65846 l 0,-30.14771 -3.10154,-3.63693 -76.800051,0 0,15.57232 -7.790774,0 c -11.935392,0 -13.993855,-16.08001 -13.993855,-16.08001 l -5.187696,0 c 0.322708,0 -0.396554,8.04 -0.434215,8.62154 -0.433478,4.68001 -0.470401,9.40616 -1.873848,13.9477 -1.338462,4.44001 -4.366156,8.11385 -5.990773,12.44309 -0.969231,2.55692 0.434216,3.53538 2.38154,4.82769 1.375386,0.94154 2.593848,2.3077 3.68308,3.53539 3.600002,4.14462 6.092311,9.19385 7.643081,14.4277 1.726155,5.80616 2.372309,11.89847 2.372309,17.91694 0,4.25538 -0.175754,8.62154 -0.72,12.87693 -0.609231,4.61538 -1.513847,9.44308 -3.710772,13.5877 -2.021539,3.82154 -5.160003,6.63692 -8.363082,9.45231 -3.249233,2.84308 -6.092311,6.20308 -9.05539,9.33231 -18.064626,19.15386 -6.341542,41.04003 -6.341542,41.04003"/>
  <path d="m 225.43398,128.17969 c 6.05539,3.72 55.13542,36.31387 155.48318,49.57849 0,0 -4.32924,-6.59077 -2.09539,-17.76924 0,0 11.32616,6.70154 20.91694,10.38462 6.70154,2.55692 17.27078,6.73847 32.59386,7.24616 5.88001,0.17501 15.21232,-0.90462 28.08925,-5.01231 -4.21846,-2.59385 -12.69231,-12.61847 -12.69231,-12.61847 0,0 19.68924,-0.79385 19.72616,-0.79385 0.72,0 17.73232,-0.18461 33.99695,-7.50462 l -0.24887,-0.53538 c -5.76923,-4.08001 -4.40308,-13.74463 -4.40308,-13.74463 7.61539,0.50806 16.30155,-1.21846 16.30155,-1.21846 3.93231,-0.79385 9.77539,-2.88923 17.0954,-7.97539 -5.80616,0.18462 -11.64924,0.36037 -11.64924,0.36037 l 16.29232,-14.81539 c 11.28924,-10.27386 18.93232,-22.86463 24.23078,-34.32926 -18.0277,16.19078 -45.17541,36.60003 -78.96005,50.52004 l -0.5819,0.2496 c -22.53233,9.19385 -47.88003,15.54462 -75.47082,15.54462 -13.41232,0 -25.88309,-0.65575 -37.6431,-1.73538 l -0.85846,-0.0738 C 295.85557,137.4851 255.794,115.63585 247.20938,110.47585 l -45.60926,0 0,7.8277 10.7077,0 c 0,0 6.37847,5.73231 13.12616,9.87693" style="fill:#ffffff"/>
</svg>
