<svg xmlns="http://www.w3.org/2000/svg" width="73.253632mm" height="22.680004mm" viewBox="0 0 73.253631 22.680004" version="1.1">
  <path d="M 19.72357,7.6782561e-4 C 19.141929,0.00428783 18.560327,0.02087583 17.980008,0.05967983 c -1.150056,0.091723 -1.74235,1.68278437 -0.941543,2.50475747 0.670277,0.8431371 1.848162,0.5041741 2.772439,0.5782575 0.01058,1.1606397 0.04253,2.325026 0.02842,3.4891926 C 15.934075,6.6213042 12.029102,6.6037755 8.1273796,6.656679 8.0709352,6.3462354 8.0144149,6.0359136 7.9614983,5.72547 7.0160539,5.73253 6.0704233,5.73227 5.124979,5.714622 3.9608123,7.6654822 3.9535982,10.36102 5.138931,12.3013 c 0.9489723,-0.01765 1.9015892,-0.01799 2.8540894,-0.01447 0,-0.229307 0.00371,-0.694759 0.00723,-0.927592 3.9652226,-0.0071 7.9301756,0.0177 11.8953986,-0.01757 0.0141,1.823863 -0.01024,3.647551 0.07441,5.467885 0.433917,1.693333 2.490671,1.111353 3.767728,1.16427 0.09878,1.199443 -0.272113,2.539939 0.30644,3.640605 0.772584,1.234721 2.865038,0.543174 2.787428,-0.899689 -0.05997,-1.654527 0.179909,-3.358311 -0.183451,-4.981091 -0.705557,-1.32997 -2.423859,-0.762288 -3.633888,-0.825788 0.0035,-1.18886 -0.0035,-2.377757 -0.01757,-3.563091 2.250723,0.07761 4.508376,-0.08425 6.752042,0.07803 5.30225,3.354917 11.380777,5.400815 17.632,5.954676 -0.536223,-0.881944 -1.058431,-1.774354 -1.509987,-2.702161 1.259416,0.913696 2.547276,1.809732 4.018359,2.360065 2.286,0.98425 4.811482,0.257416 7.168039,-0.02482 -0.945444,-0.69497 -1.887003,-1.40761 -2.631364,-2.321303 1.834444,0.762 3.80982,1.273789 5.813597,1.150315 1.725084,-0.0141 3.161083,-1.076081 4.607473,-1.876888 -0.9525,-0.275166 -1.862997,-0.659955 -2.720247,-1.150315 1.55222,0.264583 3.256145,0.352991 4.681368,-0.398426 C 70.166477,9.5458602 72.354049,5.4536715 73.253633,1.1603678 67.647996,6.3250317 60.553297,10.191319 52.887437,10.963902 46.37163,11.366069 39.655114,10.533581 33.689641,7.7713315 32.687751,7.3762213 31.819727,6.4802416 30.669671,6.614298 28.104977,6.6284 25.536553,6.617658 22.968333,6.628242 c -0.04233,-1.6898065 0.0071,-3.3796526 -0.05995,-5.069459 -0.0141,-0.76199997 -0.624271,-1.57669437 -1.439188,-1.53789057 -0.582083,-0.014102 -1.163986,-0.02368 -1.745631,-0.0201610044 z M 3.131819,6.2298452 C 1.6113468,7.1400119 0.05204135,8.5120272 0.01676365,10.43114 c -0.176389,2.017887 1.07225835,3.718684 2.19056395,5.267378 1.4358056,2.028473 1.622757,4.766042 0.5079793,6.981486 C 3.9641403,21.783948 5.3192202,20.803158 5.7848868,19.257992 6.5680535,17.070769 5.6082568,14.703436 4.1265902,13.063019 2.5355625,11.189769 1.9817634,8.4664552 3.131819,6.2298452 Z m 18.333765,0.2433955 c 0.479777,0.7866962 1.129117,1.5907865 1.026811,2.5750385 -0.03881,0.881944 -0.575358,1.6015548 -1.132747,2.2365548 -0.409224,-0.709083 -0.913316,-1.4107188 -1.022679,-2.2432748 -0.0388,-0.987777 0.599448,-1.7992621 1.128615,-2.5683185 z"/>
</svg>
