<?xml version="1.0" encoding="UTF-8" standalone="no"?><!DOCTYPE svg PUBLIC "-//W3C//DTD SVG 1.1//EN" "http://www.w3.org/Graphics/SVG/1.1/DTD/svg11.dtd"><svg width="100%" height="100%" viewBox="0 0 91 90" version="1.1" xmlns="http://www.w3.org/2000/svg" xmlns:xlink="http://www.w3.org/1999/xlink" xml:space="preserve" xmlns:serif="http://www.serif.com/" style="fill-rule:evenodd;clip-rule:evenodd;stroke-linejoin:round;stroke-miterlimit:2;"><rect id="Common" x="0.008" y="0" width="90" height="90" style="fill:none;"/><path d="M5.615,33.204c3.997,-7.03 8.903,-10.907 14.491,-11.877c5.481,-0.952 11.806,0.914 18.872,6c0.74,0.533 1.154,1.409 1.094,2.32l-2.921,44.728c-0.051,0.774 -0.439,1.487 -1.061,1.95c-0.623,0.464 -1.418,0.63 -2.174,0.456c-5.831,-1.345 -11.545,-5.529 -16.302,-11.342c-6.861,-8.385 -11.753,-20.131 -12.34,-30.782c-0.028,-0.507 0.09,-1.012 0.341,-1.453Zm79.131,1.453c-0.588,10.651 -5.48,22.397 -12.34,30.782c-4.757,5.813 -10.472,9.997 -16.302,11.342c-0.756,0.174 -1.551,0.008 -2.174,-0.456c-0.623,-0.463 -1.011,-1.176 -1.061,-1.95l-2.922,-44.728c-0.059,-0.911 0.355,-1.787 1.095,-2.32c7.066,-5.086 13.391,-6.952 18.872,-6c5.587,0.97 10.494,4.847 14.49,11.877c0.252,0.441 0.37,0.946 0.342,1.453Z" style="fill:#fff;"/><path d="M7.916,34.511c7.032,-12.369 16.842,-14.158 29.516,-5.037l-2.922,44.728c-13.322,-3.072 -25.663,-22.817 -26.594,-39.691Zm74.188,0c-0.931,16.874 -13.272,36.619 -26.595,39.691l-2.921,-44.728c12.674,-9.121 22.484,-7.332 29.516,5.037Z"/><path d="M56.753,6.329c4.328,0 11.606,-3.383 14.65,-5.174l1.941,-1.143l1.438,1.734c3.697,4.457 6.22,7.517 7.733,11.895c1.868,5.405 3.307,14.032 3.208,20.277l-0.092,5.847l-4.331,-3.93c-1.404,-1.273 -2.451,-1.853 -3.352,-1.61c-1.116,0.301 -1.549,1.699 -1.549,2.706c-0,1.918 1.146,3.603 2.485,4.891c1.375,1.323 2.995,2.277 4.162,2.434l3.29,0.442l-1.165,3.109c-1.907,5.09 -4.64,10.137 -8.748,15.112l-2.098,2.54l-2.028,-2.597c-0,0 -3.51,-4.474 -8.251,-1.211c-0.394,0.271 -0.661,0.769 -0.845,1.336c-0.381,1.171 -0.318,2.66 0.423,4.059c0.961,1.812 2.823,2.286 5.676,2.372l5.163,0.156l-3.144,4.099c-3.975,5.184 -18.947,13.642 -25.482,15.797l-0.829,0.273l-0.829,-0.273c-6.535,-2.155 -21.507,-10.613 -25.482,-15.797l-3.144,-4.099l5.163,-0.156c2.853,-0.086 4.715,-0.56 5.675,-2.372c0.742,-1.399 0.805,-2.888 0.424,-4.059c-0.184,-0.567 -0.451,-1.065 -0.845,-1.336c-4.741,-3.263 -8.251,1.211 -8.251,1.211l-2.028,2.597l-2.098,-2.54c-4.108,-4.975 -6.841,-10.022 -8.748,-15.112l-1.165,-3.109l3.29,-0.442c1.167,-0.157 2.787,-1.111 4.162,-2.434c1.339,-1.288 2.485,-2.973 2.485,-4.891c-0,-1.007 -0.433,-2.405 -1.549,-2.706c-0.901,-0.243 -1.948,0.337 -3.352,1.61l-4.331,3.93l-0.092,-5.847c-0.099,-6.245 1.34,-14.872 3.208,-20.277c1.512,-4.378 4.036,-7.438 7.733,-11.895l1.438,-1.734l1.941,1.143c3.044,1.791 10.322,5.174 14.65,5.174l23.49,0Z" style="fill:#fff;"/><path d="M56.753,8.976c4.714,-0 12.676,-3.589 15.992,-5.541c3.451,4.161 5.857,6.984 7.269,11.071c1.784,5.162 3.158,13.404 3.064,19.37c-5.871,-5.327 -9.325,-0.348 -9.325,3.055c-0,5.285 5.81,9.526 8.94,9.947c-1.812,4.836 -4.408,9.63 -8.311,14.356c0,-0 -5.032,-6.446 -11.836,-1.763c-2.042,1.405 -3.121,5.302 -1.26,8.814c1.372,2.588 3.858,3.655 7.934,3.778c-3.769,4.915 -18.016,12.851 -24.212,14.894c-6.196,-2.043 -20.443,-9.979 -24.212,-14.894c4.076,-0.123 6.562,-1.19 7.934,-3.778c1.861,-3.512 0.782,-7.409 -1.26,-8.814c-6.804,-4.683 -11.837,1.763 -11.837,1.763c-3.902,-4.726 -6.498,-9.52 -8.31,-14.356c3.13,-0.421 8.94,-4.662 8.94,-9.947c0,-3.403 -3.454,-8.382 -9.325,-3.055c-0.094,-5.966 1.28,-14.208 3.064,-19.37c1.412,-4.087 3.818,-6.91 7.268,-11.071c3.316,1.952 11.278,5.541 15.993,5.541l23.49,-0Z"/><path d="M45.008,16.439l0.002,-0c12.142,0.001 22.404,5.776 25.788,14.99l0,9.348c-1.88,8.476 -11.792,15.393 -25.788,15.393l-0.002,0c-13.996,0 -23.747,-6.192 -25.789,-15.393l0,-9.348c3.385,-9.214 13.647,-14.989 25.789,-14.99Zm-0,26.104c6.509,-0 12.124,-2.134 16.897,-5.779c-4.959,-2.816 -10.563,-4.207 -16.897,-4.207c-6.334,0 -11.938,1.391 -16.897,4.207c4.773,3.645 10.388,5.779 16.897,5.779Z"/><path d="M45.01,30.091l0.002,-11.524c10.31,-0 17.026,3.415 22.592,11.699c0.504,0.749 0.773,1.631 0.773,2.534c0.001,2.742 0.001,8.741 0.001,8.741c-4.621,-8.543 -14.354,-11.45 -23.368,-11.45Zm-0,0c-9.014,0 -18.748,2.907 -23.369,11.45c0,-0 0,-5.999 0.002,-8.741c0,-0.903 0.269,-1.785 0.772,-2.534c5.566,-8.284 12.283,-11.699 22.593,-11.699l0.002,11.524Zm-0,14.909c8.249,0 14.337,-3.05 18.128,-7.278c-0,-0 3.159,3.417 3.159,5.545c-0,4.568 -7.407,10.573 -21.287,10.573l-0,-8.84Zm-0.002,0l-0,8.84c-13.88,0 -21.287,-6.005 -21.287,-10.573c0,-2.128 3.159,-5.545 3.159,-5.545c3.79,4.228 9.878,7.278 18.128,7.278Z" style="fill:#fff;"/></svg>