<?xml version="1.0" encoding="UTF-8" standalone="no"?><!DOCTYPE svg PUBLIC "-//W3C//DTD SVG 1.1//EN" "http://www.w3.org/Graphics/SVG/1.1/DTD/svg11.dtd"><svg width="100%" height="100%" viewBox="0 0 91 90" version="1.1" xmlns="http://www.w3.org/2000/svg" xmlns:xlink="http://www.w3.org/1999/xlink" xml:space="preserve" xmlns:serif="http://www.serif.com/" style="fill-rule:evenodd;clip-rule:evenodd;stroke-linejoin:round;stroke-miterlimit:2;"><rect id="Uncommon" x="0.065" y="0" width="90" height="90" style="fill:none;"/><path d="M5.673,33.204c3.996,-7.03 8.903,-10.907 14.49,-11.877c5.481,-0.952 11.806,0.914 18.872,6c0.74,0.533 1.154,1.409 1.095,2.32l-2.922,44.728c-0.05,0.774 -0.438,1.487 -1.061,1.95c-0.623,0.464 -1.418,0.63 -2.174,0.456c-5.83,-1.345 -11.545,-5.529 -16.302,-11.342c-6.86,-8.385 -11.752,-20.131 -12.34,-30.782c-0.028,-0.507 0.091,-1.012 0.342,-1.453Zm79.13,1.453c-0.587,10.651 -5.479,22.397 -12.34,30.782c-4.757,5.813 -10.471,9.997 -16.302,11.342c-0.756,0.174 -1.551,0.008 -2.174,-0.456c-0.622,-0.463 -1.01,-1.176 -1.061,-1.95l-2.921,-44.728c-0.06,-0.911 0.354,-1.787 1.094,-2.32c7.066,-5.086 13.391,-6.952 18.872,-6c5.588,0.97 10.494,4.847 14.491,11.877c0.251,0.441 0.369,0.946 0.341,1.453Z"/><path d="M7.973,34.511c7.032,-12.369 16.842,-14.158 29.516,-5.037l-2.921,44.728c-13.323,-3.072 -25.664,-22.817 -26.595,-39.691Zm74.189,0c-0.932,16.874 -13.273,36.619 -26.595,39.691l-2.922,-44.728c12.674,-9.121 22.484,-7.332 29.517,5.037Z" style="fill:url(#_Linear1);"/><path d="M56.811,6.329c4.327,0 11.605,-3.383 14.65,-5.174l1.941,-1.143l1.438,1.734c3.696,4.457 6.22,7.517 7.733,11.895c1.867,5.405 3.307,14.032 3.208,20.277l-0.093,5.847l-4.331,-3.93c-1.403,-1.273 -2.45,-1.853 -3.352,-1.61c-1.116,0.301 -1.549,1.699 -1.549,2.706c0,1.918 1.146,3.603 2.485,4.891c1.376,1.323 2.995,2.277 4.162,2.434l3.291,0.442l-1.165,3.109c-1.908,5.09 -4.641,10.137 -8.749,15.112l-2.098,2.54l-2.028,-2.597c0,0 -3.509,-4.474 -8.251,-1.211c-0.394,0.271 -0.661,0.769 -0.845,1.336c-0.381,1.171 -0.318,2.66 0.424,4.059c0.96,1.812 2.822,2.286 5.675,2.372l5.163,0.156l-3.143,4.099c-3.975,5.184 -18.948,13.642 -25.483,15.797l-0.829,0.273l-0.828,-0.273c-6.536,-2.155 -21.508,-10.613 -25.483,-15.797l-3.144,-4.099l5.164,-0.156c2.852,-0.086 4.715,-0.56 5.675,-2.372c0.742,-1.399 0.804,-2.888 0.424,-4.059c-0.185,-0.567 -0.451,-1.065 -0.846,-1.336c-4.741,-3.263 -8.251,1.211 -8.251,1.211l-2.027,2.597l-2.098,-2.54c-4.109,-4.975 -6.841,-10.022 -8.749,-15.112l-1.165,-3.109l3.29,-0.442c1.168,-0.157 2.787,-1.111 4.162,-2.434c1.339,-1.288 2.485,-2.973 2.485,-4.891c0,-1.007 -0.433,-2.405 -1.548,-2.706c-0.902,-0.243 -1.949,0.337 -3.352,1.61l-4.331,3.93l-0.093,-5.847c-0.099,-6.245 1.341,-14.872 3.208,-20.277c1.513,-4.378 4.036,-7.438 7.733,-11.895l1.438,-1.734l1.941,1.143c3.044,1.791 10.322,5.174 14.65,5.174l23.491,0Z"/><path d="M56.811,8.976c4.714,-0 12.676,-3.589 15.992,-5.541c3.45,4.161 5.856,6.984 7.268,11.071c1.784,5.162 3.158,13.404 3.064,19.37c-5.871,-5.327 -9.325,-0.348 -9.325,3.055c0,5.285 5.811,9.526 8.941,9.947c-1.812,4.836 -4.408,9.63 -8.311,14.356c-0,-0 -5.033,-6.446 -11.837,-1.763c-2.042,1.405 -3.121,5.302 -1.259,8.814c1.371,2.588 3.858,3.655 7.933,3.778c-3.769,4.915 -18.015,12.851 -24.212,14.894c-6.196,-2.043 -20.443,-9.979 -24.211,-14.894c4.075,-0.123 6.561,-1.19 7.933,-3.778c1.862,-3.512 0.783,-7.409 -1.259,-8.814c-6.804,-4.683 -11.837,1.763 -11.837,1.763c-3.903,-4.726 -6.499,-9.52 -8.311,-14.356c3.13,-0.421 8.94,-4.662 8.94,-9.947c0,-3.403 -3.453,-8.382 -9.324,-3.055c-0.095,-5.966 1.279,-14.208 3.063,-19.37c1.412,-4.087 3.818,-6.91 7.269,-11.071c3.316,1.952 11.278,5.541 15.992,5.541l23.491,-0Z" style="fill:url(#_Linear2);"/><path d="M45.065,16.439l0.002,-0c12.142,0.001 22.404,5.776 25.789,14.99l-0,9.348c-1.881,8.476 -11.793,15.393 -25.789,15.393l-0.002,0c-13.995,0 -23.747,-6.192 -25.788,-15.393l-0,-9.348c3.384,-9.214 13.646,-14.989 25.788,-14.99Zm0,26.104c6.509,-0 12.124,-2.134 16.897,-5.779c-4.959,-2.816 -10.562,-4.207 -16.897,-4.207c-6.334,0 -11.937,1.391 -16.896,4.207c4.772,3.645 10.387,5.779 16.896,5.779Z"/><path d="M45.067,30.091c-9.014,0 -18.747,2.907 -23.368,11.45c-0,-0 -0,-5.999 0.002,-8.741c-0,-0.903 0.268,-1.785 0.772,-2.534c5.566,-8.284 12.282,-11.699 22.592,-11.699l0.002,11.524Zm0,0l0.002,-11.524c10.31,-0 17.027,3.415 22.593,11.699c0.503,0.749 0.772,1.631 0.772,2.534c0.002,2.742 0.002,8.741 0.002,8.741c-4.621,-8.543 -14.355,-11.45 -23.369,-11.45Zm0,14.909c8.25,0 14.338,-3.05 18.128,-7.278c-0,-0 3.159,3.417 3.159,5.545c0,4.568 -7.407,10.573 -21.287,10.573l0,-8.84Zm-0.002,0l0,8.84c-13.88,0 -21.287,-6.005 -21.287,-10.573c0,-2.128 3.16,-5.545 3.16,-5.545c3.79,4.228 9.878,7.278 18.127,7.278Z" style="fill:#fff;"/><defs><linearGradient id="_Linear1" x1="0" y1="0" x2="1" y2="0" gradientUnits="userSpaceOnUse" gradientTransform="matrix(8.05908,0,0,8.05908,41.0361,48.9665)"><stop offset="0" style="stop-color:#626e77;stop-opacity:1"/><stop offset="0.04" style="stop-color:#697780;stop-opacity:1"/><stop offset="0.11" style="stop-color:#7d8e98;stop-opacity:1"/><stop offset="0.2" style="stop-color:#9eb4c0;stop-opacity:1"/><stop offset="0.2" style="stop-color:#a0b6c2;stop-opacity:1"/><stop offset="0.2" style="stop-color:#a1b7c3;stop-opacity:1"/><stop offset="0.29" style="stop-color:#adc6d4;stop-opacity:1"/><stop offset="0.38" style="stop-color:#b5cede;stop-opacity:1"/><stop offset="0.5" style="stop-color:#b7d1e1;stop-opacity:1"/><stop offset="0.62" style="stop-color:#b5cede;stop-opacity:1"/><stop offset="0.71" style="stop-color:#adc6d4;stop-opacity:1"/><stop offset="0.8" style="stop-color:#a1b7c3;stop-opacity:1"/><stop offset="0.8" style="stop-color:#a0b6c2;stop-opacity:1"/><stop offset="0.85" style="stop-color:#8b9da8;stop-opacity:1"/><stop offset="0.91" style="stop-color:#74838d;stop-opacity:1"/><stop offset="0.96" style="stop-color:#67747d;stop-opacity:1"/><stop offset="1" style="stop-color:#626e77;stop-opacity:1"/></linearGradient><linearGradient id="_Linear2" x1="0" y1="0" x2="1" y2="0" gradientUnits="userSpaceOnUse" gradientTransform="matrix(76.1484,0,0,83.5219,6.99113,45.1959)"><stop offset="0" style="stop-color:#626e77;stop-opacity:1"/><stop offset="0.04" style="stop-color:#697780;stop-opacity:1"/><stop offset="0.11" style="stop-color:#7d8e98;stop-opacity:1"/><stop offset="0.2" style="stop-color:#9eb4c0;stop-opacity:1"/><stop offset="0.2" style="stop-color:#a0b6c2;stop-opacity:1"/><stop offset="0.2" style="stop-color:#a1b7c3;stop-opacity:1"/><stop offset="0.29" style="stop-color:#adc6d4;stop-opacity:1"/><stop offset="0.38" style="stop-color:#b5cede;stop-opacity:1"/><stop offset="0.5" style="stop-color:#b7d1e1;stop-opacity:1"/><stop offset="0.62" style="stop-color:#b5cede;stop-opacity:1"/><stop offset="0.71" style="stop-color:#adc6d4;stop-opacity:1"/><stop offset="0.8" style="stop-color:#a1b7c3;stop-opacity:1"/><stop offset="0.8" style="stop-color:#a0b6c2;stop-opacity:1"/><stop offset="0.85" style="stop-color:#8b9da8;stop-opacity:1"/><stop offset="0.91" style="stop-color:#74838d;stop-opacity:1"/><stop offset="0.96" style="stop-color:#67747d;stop-opacity:1"/><stop offset="1" style="stop-color:#626e77;stop-opacity:1"/></linearGradient></defs></svg>