<?xml version="1.0" encoding="UTF-8" standalone="no"?><!DOCTYPE svg PUBLIC "-//W3C//DTD SVG 1.1//EN" "http://www.w3.org/Graphics/SVG/1.1/DTD/svg11.dtd"><svg width="100%" height="100%" viewBox="0 0 91 90" version="1.1" xmlns="http://www.w3.org/2000/svg" xmlns:xlink="http://www.w3.org/1999/xlink" xml:space="preserve" xmlns:serif="http://www.serif.com/" style="fill-rule:evenodd;clip-rule:evenodd;stroke-linejoin:round;stroke-miterlimit:2;"><rect id="WM" x="0.079" y="0" width="90" height="90" style="fill:none;"/><path d="M9.396,43.259c-0.595,-2.286 -1.023,-4.579 -1.257,-6.835l0.648,-0.589c1.403,-1.273 2.45,-1.853 3.352,-1.61c1.116,0.301 1.549,1.699 1.549,2.706c-0,1.918 -1.146,3.603 -2.485,4.891c-0.577,0.554 -1.196,1.044 -1.807,1.437Zm72.626,-6.832c-0.235,2.255 -0.662,4.549 -1.258,6.834c-0.612,-0.394 -1.232,-0.884 -1.809,-1.439c-1.339,-1.288 -2.485,-2.973 -2.485,-4.891c-0,-1.007 0.433,-2.405 1.548,-2.706c0.902,-0.243 1.949,0.337 3.352,1.61l0.652,0.592Zm-10.338,25.732c-1.876,2.505 -3.932,4.75 -6.107,6.62c-0.82,-0.36 -1.445,-0.908 -1.882,-1.733c-0.742,-1.399 -0.804,-2.888 -0.424,-4.059c0.185,-0.567 0.452,-1.065 0.846,-1.336c3.497,-2.408 6.325,-0.604 7.567,0.508Zm-47.101,6.619c-2.175,-1.871 -4.231,-4.115 -6.108,-6.621c1.244,-1.112 4.07,-2.912 7.566,-0.506c0.394,0.271 0.661,0.769 0.845,1.336c0.381,1.171 0.318,2.66 -0.424,4.059c-0.437,0.824 -1.06,1.372 -1.879,1.732Z"/><path d="M56.824,8.976c4.714,-0 12.676,-3.589 15.992,-5.541c3.451,4.161 5.857,6.984 7.269,11.071c1.784,5.162 3.158,13.404 3.063,19.37c-5.871,-5.327 -9.324,-0.348 -9.324,3.055c-0,5.285 5.81,9.526 8.94,9.947c-1.812,4.836 -4.408,9.63 -8.311,14.356c0,-0 -5.033,-6.446 -11.837,-1.763c-2.042,1.405 -3.121,5.302 -1.259,8.814c1.372,2.588 3.858,3.655 7.933,3.778c-3.768,4.915 -18.015,12.851 -24.211,14.894c-6.197,-2.043 -20.443,-9.979 -24.212,-14.894c4.075,-0.123 6.562,-1.19 7.933,-3.778c1.862,-3.512 0.783,-7.409 -1.259,-8.814c-6.804,-4.683 -11.837,1.763 -11.837,1.763c-3.903,-4.726 -6.499,-9.52 -8.311,-14.356c3.13,-0.421 8.941,-4.662 8.941,-9.947c-0,-3.403 -3.454,-8.382 -9.325,-3.055c-0.094,-5.966 1.28,-14.208 3.064,-19.37c1.412,-4.087 3.818,-6.91 7.268,-11.071c3.316,1.952 11.278,5.541 15.992,5.541l23.491,-0Zm-11.745,7.463c-12.142,0.001 -22.404,5.776 -25.789,14.99l0,9.348c2.042,9.201 11.793,15.393 25.789,15.393l0.002,0c13.995,0 23.908,-6.917 25.788,-15.393l0,-9.348c-3.384,-9.214 -13.646,-14.989 -25.788,-14.99l-0.002,-0Zm-0,26.104c-6.509,-0 -12.124,-2.134 -16.897,-5.779c4.959,-2.816 10.562,-4.207 16.897,-4.207c6.334,0 11.937,1.391 16.896,4.207c-4.772,3.645 -10.387,5.779 -16.896,5.779Z"/><path d="M45.081,30.091l0.001,-11.524c10.311,-0 17.027,3.415 22.593,11.699c0.503,0.749 0.772,1.631 0.772,2.534c0.002,2.742 0.002,8.741 0.002,8.741c-4.621,-8.543 -14.355,-11.45 -23.368,-11.45Zm-0,0c-9.014,0 -18.748,2.907 -23.369,11.45c0,-0 0,-5.999 0.002,-8.741c-0,-0.903 0.269,-1.785 0.772,-2.534c5.566,-8.284 12.282,-11.699 22.593,-11.699l0.002,11.524Zm-0,14.909c8.249,0 14.337,-3.05 18.127,-7.278c0,-0 3.16,3.417 3.16,5.545c-0,4.568 -7.408,10.573 -21.287,10.573l-0,-8.84Zm-0.002,0l-0,8.84c-13.88,0 -21.287,-6.005 -21.287,-10.573c-0,-2.128 3.159,-5.545 3.159,-5.545c3.79,4.228 9.878,7.278 18.128,7.278Z"/></svg>