<?xml version="1.0" encoding="UTF-8" standalone="no"?>
<!-- Created with Inkscape (http://www.inkscape.org/) -->

<svg
   xmlns:dc="http://purl.org/dc/elements/1.1/"
   xmlns:cc="http://creativecommons.org/ns#"
   xmlns:rdf="http://www.w3.org/1999/02/22-rdf-syntax-ns#"
   xmlns:svg="http://www.w3.org/2000/svg"
   xmlns="http://www.w3.org/2000/svg"
   xmlns:xlink="http://www.w3.org/1999/xlink"
   version="1.1"
   width="234.5625"
   height="274.59375"
   id="svg2">
  <defs
     id="d1">
    <linearGradient
       id="g1">
      <stop
         id="s1"
         style="stop-color:#a72029;stop-opacity:1"
         offset="0" />
      <stop
         id="s2"
         style="stop-color:#c34f25;stop-opacity:1"
         offset="0.1" />
      <stop
         id="s3"
         style="stop-color:#f69932;stop-opacity:1"
         offset="0.5" />
      <stop
         id="s4"
         style="stop-color:#c34f25;stop-opacity:1"
         offset="0.9" />
      <stop
         id="s5"
         style="stop-color:#a72029;stop-opacity:1"
         offset="1" />
    </linearGradient>
    <linearGradient
       x1="-81.743011"
       y1="296.46368"
       x2="98.490227"
       y2="513.24023"
       id="g2"
       xlink:href="#g1"
       gradientUnits="userSpaceOnUse"
       gradientTransform="translate(117.28125,-255)" />
  </defs>
  <path
     d="m 117.28125,0 c -3.89548,0 -6.9224,0.72287 -8.1875,4.03125 L 98.1875,32.6875 87.90625,17.59375 C 85.883357,14.64062 81.399528,14.21537 77.9375,15.125 c -3.462028,0.90963 -5.658748,3.09016 -5.96875,6.65625 L 70.625,37.5625 60.34375,28.375 c -2.670647,-2.3794 -6.85834,-2.86619 -10,-1.15625 C 47.20209,28.92868 45.3268,32.7154 45.875,36.25 l 4.71875,30.125 C 44.022267,70.64744 37.994866,75.54306 32.5625,81 11.92615,101.7297 0,130.36753 0,162 c 0,31.63247 12.90876,60.27029 34.03125,81 10.561245,10.36485 19.809117,11.53601 25.21875,0.40625 17.784002,12.20477 29.923755,31.1875 58.03125,31.1875 28.10749,0 40.24725,-18.98273 58.03125,-31.1875 5.40963,11.12976 14.65751,9.9586 25.21875,-0.40625 21.12249,-20.72971 34.03125,-49.36753 34.03125,-81 0,-31.63247 -11.92615,-60.2703 -32.5625,-81 -5.43237,-5.45694 -11.45977,-10.35256 -18.03125,-14.625 L 188.6875,36.25 c 0.5482,-3.5346 -1.32709,-7.32132 -4.46875,-9.03125 -3.14166,-1.70994 -7.32935,-1.22315 -10,1.15625 l -10.28125,9.1875 -1.34375,-15.78125 c -0.31,-3.56609 -2.50672,-5.74662 -5.96875,-6.65625 -3.46203,-0.90963 -7.94586,-0.48438 -9.96875,2.46875 L 136.375,32.6875 125.46875,4.03125 C 124.20365,0.72287 121.17673,0 117.28125,0 z"
     id="p1"
     style="fill:#000000;fill-opacity:1;stroke:none" />
  <path
     d="M 117.28125,7.15625 101.625,48.3125 c 5.07983,-0.58872 10.30212,-0.875 15.65625,-0.875 5.35413,0 10.57642,0.28628 15.65625,0.875 L 117.28125,7.15625 z M 80.6875,22.53125 78.0625,53.375 c 6.508903,-2.08356 13.344345,-3.65589 20.46875,-4.65625 L 80.6875,22.53125 z m 73.1875,0 -17.84375,26.1875 c 7.1244,1.00036 13.95985,2.57269 20.46875,4.65625 l -2.625,-30.84375 z m -99.34375,12.375 4.15625,26.6875 c 5.458995,-2.92868 11.246784,-5.4344 17.3125,-7.5 L 54.53125,34.90625 z m 125.5,0 -21.46875,19.1875 c 6.06572,2.0656 11.8535,4.57132 17.3125,7.5 l 4.15625,-26.6875 z m -62.75,18.84375 c -59.784824,0 -108.25,48.46518 -108.25,108.25 0,29.89241 11.629353,54.44185 31.21875,74.03125 9.794698,9.7947 12.892899,6.0535 8.625,-8.65625 24.482101,7.29025 41.335044,37.625 68.40625,37.625 27.07121,0 43.92415,-30.33475 68.40625,-37.625 -4.2679,14.70975 -1.1697,18.45095 8.625,8.65625 19.5894,-19.5894 31.21875,-44.13884 31.21875,-74.03125 0,-59.78482 -48.46518,-108.25 -108.25,-108.25 z m 0,4.75 c 26.3716,0 47.75,22.94541 47.75,51.25 0,22.31286 -13.3,41.27567 -31.84375,48.3125 -0.0587,-0.75458 -0.11751,-1.50997 -0.15625,-2.28125 -0.95108,-18.9372 6.80664,-27.88826 7.75,-39.09375 l 16.625,-6.375 c 0,0 -13.77756,-4.32907 -14.0625,-6.75 -0.28494,-2.42093 11,-12.875 11,-12.875 L 136.0625,90.625 c 0.086,-4.61068 5.46875,-13.90625 5.46875,-13.90625 l -14.28125,4.25 6.65625,-8.71875 c -6.91082,-0.0239 -18.09375,6.5 -18.09375,6.5 l 0.59375,-4.21875 c 0,0 -5.43922,4.00069 -13.8125,9.625 -8.373279,5.62431 -15.800893,15.10789 -19.78125,19.65625 -3.980358,4.54837 -1.713412,26.15733 10.5625,25.46875 -2.49309,-11.39455 24.07891,-12.63072 5.375,12.46875 -2.856783,3.83362 -5.203455,7.56164 -7.15625,11.1875 -13.255395,-9.10691 -22.0625,-25.0419 -22.0625,-43.1875 0,-28.30459 21.378403,-51.25 47.75,-51.25 z M 60.3125,118.96875 c 2.870982,17.94073 13.176942,33.20562 27.4375,42.1875 -5.164439,12.91148 -5.303392,23.44473 -4.78125,29.1875 -14.218863,-13.41107 -23.4375,-34.93847 -23.4375,-59.21875 0,-4.14006 0.266097,-8.20248 0.78125,-12.15625 z m 113.9375,0 c 0.51515,3.95377 0.78125,8.01619 0.78125,12.15625 0,27.16718 -11.54569,50.8973 -28.71875,63.65625 -5.84858,-8.91865 -9.89041,-17.71598 -11.90625,-27.78125 20.547,-6.72908 36.19362,-25.22167 39.84375,-48.03125 z"
     id="p2"
     style="fill:url(#g2);fill-opacity:1;stroke:none" />
</svg>
