<?xml version="1.0" encoding="UTF-8" standalone="no"?>
<!-- Created with Inkscape (http://www.inkscape.org/) -->

<svg
   xmlns:dc="http://purl.org/dc/elements/1.1/"
   xmlns:cc="http://creativecommons.org/ns#"
   xmlns:rdf="http://www.w3.org/1999/02/22-rdf-syntax-ns#"
   xmlns:svg="http://www.w3.org/2000/svg"
   xmlns="http://www.w3.org/2000/svg"
   xmlns:xlink="http://www.w3.org/1999/xlink"
   version="1.1"
   width="281.125"
   height="275.53125"
   id="svg2">
  <defs
     id="d1">
    <linearGradient
       id="g1">
      <stop
         id="s1"
         style="stop-color:#536e78;stop-opacity:1"
         offset="0" />
      <stop
         id="s2"
         style="stop-color:#829ba5;stop-opacity:1"
         offset="0.1" />
      <stop
         id="s3"
         style="stop-color:#d9eaf3;stop-opacity:1"
         offset="0.5" />
      <stop
         id="s4"
         style="stop-color:#829ba5;stop-opacity:1"
         offset="0.9" />
      <stop
         id="s5"
         style="stop-color:#536e78;stop-opacity:1"
         offset="1" />
    </linearGradient>
    <linearGradient
       x1="-102"
       y1="317"
       x2="82.90625"
       y2="526.5"
       id="g2"
       xlink:href="#g1"
       gradientUnits="userSpaceOnUse"
       gradientTransform="translate(140.5625,-257)" />
  </defs>
  <path
     d="m 140.5625,0 -21,63.25 -39.25,-49 4,66.5 -45.75,-20.75 21,49.25 -44.6875,0 33.5625,33.5 L 0,161.125 56.625,182.9375 c 3.7035,13.59254 10.610492,25.86247 19.875,35.9375 l -11.59375,28.4375 c 20.268187,17.57747 46.72168,28.21875 75.65625,28.21875 28.93457,0 55.38806,-10.64128 75.65625,-28.21875 L 204.625,218.875 c 9.26451,-10.07503 16.1715,-22.34496 19.875,-35.9375 l 56.625,-21.8125 -48.4375,-18.375 33.5625,-33.5 -44.6875,0 21,-49.25 -45.75,20.75 4,-66.5 -39.25,49 -21,-63.25 z"
     id="p1"
     style="fill:#000000;fill-opacity:1;stroke:none" />
  <path
     d="M 140.5625,26.0625 128.5,84.65625 c -1.81802,0.28879 -3.60213,0.61648 -5.375,1.03125 l -30.75,-40.46875 7.21875,50.375 C 97.706479,96.79633 95.894618,98.07847 94.125,99.4375 L 60.09375,81 78.75,115.28125 c -1.596176,2.20255 -3.110896,4.47276 -4.46875,6.84375 l -34.5,-2.71875 26.40625,23.4375 c -0.556945,2.42209 -0.992128,4.87096 -1.3125,7.375 l -36.75,11.75 37.21875,10.875 c 2.878758,16.97587 11.359281,32.05373 23.46875,43.25 L 77.65625,244 c 8.180263,6.13662 17.309263,11.07038 27.09375,14.625 l 11.9375,-51.125 -24.125,-29.25 0,-28.25 41.5,0 0,15 -26,0 0,6 18.3125,0 28.1875,15 3.75,0 28.25,-15.59375 -5.5625,25.5 -14.09375,13.21875 10.1875,49.25 c 9.51428,-3.53515 18.3936,-8.38757 26.375,-14.375 L 192.3125,216.09375 c 12.10947,-11.19627 20.58999,-26.27413 23.46875,-43.25 L 253,161.96875 l -36.75,-11.75 c -0.32037,-2.50404 -0.75556,-4.95291 -1.3125,-7.375 l 26.40625,-23.4375 -34.5,2.71875 c -1.35785,-2.37099 -2.87257,-4.6412 -4.46875,-6.84375 L 221.03125,81 187,99.4375 c -1.76962,-1.35903 -3.58148,-2.64117 -5.46875,-3.84375 L 188.75,45.21875 158,85.6875 c -1.77287,-0.41477 -3.55698,-0.74246 -5.375,-1.03125 L 140.5625,26.0625 z m -10,87.9375 16,0 0,45.5 -6,0 0,-16 -10,0 0,-29.5 z m -27,7.5 19.5,0 0,22 -19.5,0 0,-22 z m 50,1 14,0 0,38 -14,0 0,-38 z m 22,6 11,0 0,33 -11,0 0,-33 z"
     id="p2"
     style="fill:url(#g2);fill-opacity:1;stroke:none" />
</svg>
