<?xml version="1.0" encoding="UTF-8" standalone="no"?>
<!-- Created with Inkscape (http://www.inkscape.org/) -->

<svg
   xmlns:dc="http://purl.org/dc/elements/1.1/"
   xmlns:cc="http://creativecommons.org/ns#"
   xmlns:rdf="http://www.w3.org/1999/02/22-rdf-syntax-ns#"
   xmlns:svg="http://www.w3.org/2000/svg"
   xmlns="http://www.w3.org/2000/svg"
   xmlns:xlink="http://www.w3.org/1999/xlink"
   version="1.1"
   width="247.97533"
   height="268.15625"
   id="svg2">
  <defs
     id="d1">
    <linearGradient
       id="g1">
      <stop
         id="s1"
         style="stop-color:#a72029;stop-opacity:1"
         offset="0" />
      <stop
         id="s2"
         style="stop-color:#c34f25;stop-opacity:1"
         offset="0.1" />
      <stop
         id="s3"
         style="stop-color:#f69932;stop-opacity:1"
         offset="0.5" />
      <stop
         id="s4"
         style="stop-color:#c34f25;stop-opacity:1"
         offset="0.9" />
      <stop
         id="s5"
         style="stop-color:#a72029;stop-opacity:1"
         offset="1" />
    </linearGradient>
    <linearGradient
       x1="-94.045204"
       y1="338.51114"
       x2="45.041008"
       y2="564.33264"
       id="g2"
       xlink:href="#g1"
       gradientUnits="userSpaceOnUse"
       gradientTransform="translate(123.98766,-314.125)" />
  </defs>
  <path
     d="m 80.675162,0 c 13.578753,17.68435 8.123278,32.14007 0.5,35.25 -7.623278,3.10993 -28.983019,-9.3874 -27,-33.125 C 54.585163,-0.51138 25.498524,14.05875 10.925162,47 -3.6481879,79.94125 -0.6818379,102.85971 3.0814121,118.0625 L 11.550162,102.875 c 10.01689,62.50058 27.301697,75.6871 43.15625,96.875 -0.871917,-8.42635 -1.32077,-16.85489 -1.25,-25.28125 16.089596,55.49162 47.661718,79.83815 68.937498,93.6875 -31.653798,-73.05848 -8.63911,-98.34375 1.59375,-98.34375 10.23286,0 33.24756,25.28527 1.59375,98.34375 21.27579,-13.84935 52.84791,-38.19588 68.9375,-93.6875 0.0708,8.42636 -0.37808,16.8549 -1.25,25.28125 15.85456,-21.1879 33.13936,-34.37442 43.15625,-96.875 l 8.46875,15.1875 c 3.76325,-15.20279 6.7296,-38.12125 -7.84375,-71.0625 -14.57336,-32.94125 -43.66,-47.51138 -43.25,-44.875 1.98302,23.7376 -19.37672,36.23493 -27,33.125 -7.62328,-3.10993 -13.07875,-17.56565 0.5,-35.25 -13.82651,1.82826 -27.64639,3.54824 -43.3125,23.3125 C 108.32156,3.54824 94.501677,1.82826 80.675162,0 z"
     id="p1"
     style="fill:#000000;fill-opacity:1;stroke:none" />
  <path
     d="m 98.393912,15.1875 c -0.916606,0.0635 -1.407716,0.83835 -1.375,2.40625 6.82e-4,0.0327 -0.0011,0.0605 0,0.0937 0.131092,0.84118 0.260006,1.68804 0.375,2.5625 0.865323,6.58026 1.277501,14.03988 0.96875,21.53125 0.188042,0.93638 0.675584,1.27073 1.4375,0.96875 0.04128,-0.0164 0.08208,-0.0738 0.125,-0.0937 0.483538,-0.3658 0.998358,-0.70757 1.499998,-1.0625 3.87567,-2.7422 8.32849,-5.15373 13.75,-6.96875 0.17861,-0.0553 0.35956,-0.12582 0.53125,-0.1875 1.18712,-0.42646 1.98232,-1.17515 -0.21875,-4.71875 -4.60995,-5.77623 -9.36255,-10.3357 -13.8125,-13.1875 -0.0237,-0.0152 -0.0389,-0.0474 -0.0625,-0.0625 -0.42605,-0.28139 -0.84341,-0.52745 -1.21875,-0.71875 -0.796245,-0.40583 -1.465311,-0.59954 -1.999998,-0.5625 z m 50.749998,0 c -0.45107,0.0579 -0.96531,0.25813 -1.5625,0.5625 -0.37533,0.1913 -0.7927,0.43736 -1.21875,0.71875 -0.0237,0.0151 -0.0388,0.0473 -0.0625,0.0625 -4.44995,2.8518 -9.20254,7.41127 -13.8125,13.1875 -2.20107,3.5436 -1.40586,4.29229 -0.21875,4.71875 0.1717,0.0617 0.35265,0.1322 0.53125,0.1875 5.42152,1.81502 9.87434,4.22655 13.75,6.96875 0.50164,0.35493 1.01647,0.6967 1.5,1.0625 0.0429,0.0199 0.0837,0.0774 0.125,0.0937 0.76192,0.30198 1.24946,-0.0324 1.4375,-0.96875 -0.30875,-7.49137 0.10343,-14.95099 0.96875,-21.53125 0.115,-0.87446 0.24391,-1.72132 0.375,-2.5625 0.001,-0.0332 -6.8e-4,-0.0611 0,-0.0937 0.0327,-1.5679 -0.45839,-2.34275 -1.375,-2.40625 -0.13367,-0.009 -0.28714,-0.0193 -0.4375,0 z M 44.143912,19.15625 c -0.828153,0.0978 -1.800041,0.7649 -3.0625,2.25 -10.922719,12.9477 -21.97562,29.09048 -29.15625,54.8125 -0.0357,0.13564 -0.0641,0.24716 -0.0937,0.375 -1.02667,4.43325 1.5738,4.26161 3.09375,2.28125 l 0,-0.0312 C 32.564334,56.16981 52.735909,49.01082 72.987662,75.75 c 2.160394,2.97679 3.440626,3.25029 4.53125,-0.28125 l 0,-0.0312 c 3.8697,-11.72134 8.743456,-17.8668 13.59375,-24.6875 0.0057,-0.0121 0.02538,-0.0192 0.03125,-0.0312 0.825829,-1.71166 3.390676,-4.09996 -1.71875,-3.46875 -16.824052,2.17198 -31.632962,-6.26516 -42.09375,-25.375 -0.0074,-0.0127 -0.02387,-0.0186 -0.03125,-0.0312 -0.872279,-1.50122 -1.787571,-2.84921 -3.15625,-2.6875 z m 159.187498,0 c -1.10402,0.17021 -1.893,1.37393 -2.65625,2.6875 -0.007,0.0126 -0.0239,0.0186 -0.0312,0.0312 -10.46079,19.10984 -25.2697,27.54698 -42.09375,25.375 -5.10942,-0.63121 -2.54458,1.75709 -1.71875,3.46875 0.006,0.012 0.0255,0.0192 0.0312,0.0312 4.8503,6.8207 9.72405,12.96616 13.59375,24.6875 l 0,0.0312 c 1.09063,3.53154 2.37086,3.25804 4.53125,0.28125 20.25176,-26.73918 40.42333,-19.58019 58.0625,3.09375 l 0,0.0312 c 1.51995,1.98036 4.12042,2.152 3.09375,-2.28125 -0.0296,-0.12784 -0.058,-0.23936 -0.0937,-0.375 -7.18063,-25.72202 -18.23353,-41.8648 -29.15625,-54.8125 -1.26246,-1.4851 -2.23434,-2.1522 -3.0625,-2.25 -0.17108,-0.0202 -0.34228,-0.0243 -0.5,0 z M 123.98766,41.75 c -20.71068,0 -37.499998,23.72891 -37.499998,53 0,29.27109 16.789318,53 37.499998,53 20.71068,0 37.5,-23.72891 37.5,-53 0,-29.27109 -16.78932,-53 -37.5,-53 z m 0,43.375 c 15.67108,0 28.375,7.94695 28.375,17.75 0,9.80305 -12.70392,17.75 -28.375,17.75 -15.67108,0 -28.374998,-7.94695 -28.374998,-17.75 0,-9.80305 12.703918,-17.75 28.374998,-17.75 z m -48.312498,0.71875 c -0.276649,3.6e-4 -0.658266,0.3099 -1.15625,0.9375 -0.170824,0.25895 -0.355537,0.4983 -0.53125,0.75 -0.09478,0.13576 -0.185061,0.27258 -0.28125,0.40625 -9.594739,13.33312 -25.31508,16.56791 -45.4375,14.28125 -4.65937,-0.61661 -5.12047,1.57627 -5.5,6.78125 -0.004,0.0544 0.004,0.10118 0,0.15625 -0.1655,18.04566 10.203523,39.69059 18.15625,55.09375 0.03318,0.0638 0.06131,0.0949 0.09375,0.15625 2.044574,3.86728 2.62942,2.91117 2.71875,0.625 0.01296,-0.33178 0.004,-0.71873 0,-1.09375 -0.02605,-27.97523 7.799618,-50.83824 31.5625,-51.09375 0.664693,-0.007 1.341421,0.003 2.03125,0.0312 0.08183,-7.2e-4 0.238097,0.002 0.3125,0 1.263558,-0.0403 1.433098,-0.35242 1.15625,-1.34375 -0.0032,-0.009 0.0032,-0.0222 0,-0.0312 -0.08321,-0.23814 -0.141792,-0.47993 -0.21875,-0.71875 -0.04481,-0.12782 -0.07389,-0.23177 -0.125,-0.375 -2.202167,-7.13946 -1.753504,-14.56019 -2.03125,-21.96875 l -0.03125,0.0312 c -0.0076,-0.34988 -0.0071,-0.67838 -0.03125,-0.96875 -0.0844,-1.01628 -0.275535,-1.65679 -0.6875,-1.65625 z m 96.624998,0 c -0.41196,-5.4e-4 -0.6031,0.63997 -0.6875,1.65625 -0.0241,0.29037 -0.0237,0.61887 -0.0312,0.96875 l -0.0312,-0.0312 c -0.27774,7.40856 0.17092,14.82929 -2.03125,21.96875 -0.0511,0.14323 -0.0802,0.24718 -0.125,0.375 -0.077,0.23882 -0.13554,0.48061 -0.21875,0.71875 -0.003,0.009 0.003,0.0222 0,0.0312 -0.27685,0.99133 -0.10731,1.30345 1.15625,1.34375 0.0744,0.002 0.23067,-7.2e-4 0.3125,0 0.68983,-0.0282 1.36656,-0.0383 2.03125,-0.0312 23.76288,0.25551 31.58855,23.11852 31.5625,51.09375 -0.004,0.37502 -0.013,0.76197 0,1.09375 0.0893,2.28617 0.67418,3.24228 2.71875,-0.625 0.0324,-0.0614 0.0606,-0.0924 0.0937,-0.15625 7.95273,-15.40316 18.32175,-37.04809 18.15625,-55.09375 -0.004,-0.0551 0.004,-0.10185 0,-0.15625 -0.37953,-5.20498 -0.84063,-7.39786 -5.5,-6.78125 -20.12242,2.28666 -35.84276,-0.94813 -45.4375,-14.28125 -0.0962,-0.13367 -0.18647,-0.27049 -0.28125,-0.40625 -0.17571,-0.2517 -0.36042,-0.49105 -0.53125,-0.75 -0.49798,-0.6276 -0.8796,-0.93714 -1.15625,-0.9375 z m -48.3125,6.28125 c -5.93706,0 -10.75,4.81294 -10.75,10.75 0,5.93706 4.81294,10.75 10.75,10.75 5.93706,0 10.75,-4.81294 10.75,-10.75 0,-5.93706 -4.81294,-10.75 -10.75,-10.75 z m -43.218748,29.09375 c -0.514547,0.0874 -1.065889,0.72017 -1.625,2 -0.01434,0.0328 -0.01689,0.0602 -0.03125,0.0937 -2.693259,6.99398 -4.023548,13.74493 -19.28125,23.15625 -2.094842,1.25236 -1.530052,4.31887 -0.875,6.84375 11.305302,41.16698 28.177975,69.8284 44.531248,91.03125 0.0936,0.11113 0.19014,0.24288 0.28125,0.34375 2.86874,3.17594 4.49176,1.30379 3.09375,-2.8125 C 94.950197,206.50664 82.462254,161.80946 95.612662,150.2187 l -0.03125,-0.0312 c 0.136739,-0.0961 0.25613,-0.18599 0.375,-0.28125 0.03431,-0.0277 0.05911,-0.0666 0.09375,-0.0937 0.0546,-0.0457 0.137091,-0.0794 0.1875,-0.125 1.174067,-1.06274 1.186301,-2.13244 -0.15625,-3.71875 -0.149648,-0.16217 -0.289572,-0.33497 -0.4375,-0.5 -5.232417,-5.83734 -9.402407,-13.44705 -12.96875,-22.0625 -0.593553,-1.47387 -1.227726,-2.30274 -1.90625,-2.1875 z m 86.187498,0 c -0.58406,0.1016 -1.13689,0.89786 -1.65625,2.1875 -3.56634,8.61545 -7.73633,16.22516 -12.96875,22.0625 -0.14793,0.16503 -0.28785,0.33783 -0.4375,0.5 -1.34255,1.58631 -1.33031,2.65601 -0.15625,3.71875 0.0504,0.0456 0.1329,0.0793 0.1875,0.125 0.0346,0.0272 0.0594,0.0661 0.0937,0.0937 0.11887,0.0953 0.23826,0.18515 0.375,0.28125 l -0.0312,0.0312 c 13.15041,11.59076 0.66247,56.28794 -11.25,91.65625 -1.39801,4.11629 0.22502,5.98844 3.09375,2.8125 0.0911,-0.10087 0.18767,-0.23262 0.28125,-0.34375 16.35328,-21.20285 33.22595,-49.86427 44.53125,-91.03125 0.65505,-2.52488 1.21984,-5.59139 -0.875,-6.84375 -15.2577,-9.41112 -16.58799,-16.16217 -19.28125,-23.15615 -0.0144,-0.0336 -0.0169,-0.0609 -0.0312,-0.0937 -0.55911,-1.27983 -1.11045,-1.9126 -1.625,-2 -0.0848,-0.0144 -0.16656,-0.0145 -0.25,0 z"
     id="p2"
     style="fill:url(#g2);fill-opacity:1;stroke:none" />
</svg>
