<?xml version="1.0" encoding="UTF-8" standalone="no"?>
<!-- Created with Inkscape (http://www.inkscape.org/) -->

<svg
   xmlns:dc="http://purl.org/dc/elements/1.1/"
   xmlns:cc="http://creativecommons.org/ns#"
   xmlns:rdf="http://www.w3.org/1999/02/22-rdf-syntax-ns#"
   xmlns:svg="http://www.w3.org/2000/svg"
   xmlns="http://www.w3.org/2000/svg"
   xmlns:xlink="http://www.w3.org/1999/xlink"
   version="1.1"
   width="284.41019"
   height="276.31693"
   id="svg2">
  <defs
     id="d1">
    <linearGradient
       id="g1">
      <stop
         id="s1"
         style="stop-color:#a72029;stop-opacity:1"
         offset="0" />
      <stop
         id="s2"
         style="stop-color:#c34f25;stop-opacity:1"
         offset="0.1" />
      <stop
         id="s3"
         style="stop-color:#f69932;stop-opacity:1"
         offset="0.5" />
      <stop
         id="s4"
         style="stop-color:#c34f25;stop-opacity:1"
         offset="0.9" />
      <stop
         id="s5"
         style="stop-color:#a72029;stop-opacity:1"
         offset="1" />
    </linearGradient>
    <linearGradient
       x1="385.49997"
       y1="102.29398"
       x2="581.60419"
       y2="273.9317"
       id="g2"
       xlink:href="#g1"
       gradientUnits="userSpaceOnUse"
       gradientTransform="translate(-343.79491,-40.745572)" />
  </defs>
  <path
     d="m 101.76759,16.848178 c -17.048517,-11.1104414 -39.809837,2.596521 -51.312497,17.4375 -11.50266,14.840978 -16.3824,36.49053 -47.9375003,39.15625 6.53936,20.02038 21.4062503,25.3125 21.4062503,25.3125 -0.0806,20.018112 -24.67365032,36.401512 -23.90625032,60.250002 0.76741,23.8485 20.95405032,33.97562 27.00000032,35.78125 -2.14584,-7.28982 0.46875,-13.4375 0.46875,-13.4375 6.62416,14.10662 9.72156,15.47308 14.34375,21.125 4.62219,5.65192 29.20115,23.10141 10.25,65.625 45.46484,-4.54049 40.78125,-41.34375 40.78125,-41.34375 0,0 10.055057,15.68146 -5.59375,49.5625 76.366537,-27.22605 41.749997,-95.875 41.749997,-95.875 l 13.1875,-13.1875 13.1875,13.1875 c 0,0 -34.61654,68.64895 41.75,95.875 -15.64881,-33.88104 -5.59375,-49.5625 -5.59375,-49.5625 0,0 -4.68359,36.80326 40.78125,41.34375 -18.95115,-42.52359 5.62781,-59.97308 10.25,-65.625 4.62219,-5.65192 7.71959,-7.01838 14.34375,-21.125 0,0 2.61459,6.14768 0.46875,13.4375 6.04595,-1.80563 26.23259,-11.93275 27,-35.78125 0.7674,-23.84849 -23.82569,-40.23189 -23.90625,-60.250002 0,0 14.86689,-5.29212 21.40625,-25.3125 -31.5551,-2.66572 -36.43484,-24.315272 -47.9375,-39.15625 -11.50266,-14.840979 -34.26398,-28.5479414 -51.3125,-17.4375 -5.9435,-17.58175041 -22.06727,-16.84375041 -40.4375,-16.84375041 -18.37023,0 -34.49382,-0.73805 -40.4375,16.84375041 z"
     id="p1"
     style="fill:#000000;fill-opacity:1;stroke:none" />
  <path
     d="m 133.26759,12.441928 c -4.91957,0.02763 -3.38708,2.781251 -12.0625,2.78125 -8.67541,-2e-6 -10.64217,4.360537 -12.375,14.375 -1.73283,10.014463 -5.41605,23.889012 -5.96875,29 -0.5527,5.11099 -7.306257,13.08267 -3.343747,18.75 3.962517,5.66733 9.742457,6.6858 11.624997,3.875 1.88255,-2.81081 10.01267,-10.48746 15.6875,-6.3125 5.67484,4.17496 3.84941,6.93361 0.46875,19.25 -3.38066,12.316392 -4.68947,18.199522 -5.34375,29.125002 -0.65428,10.92548 5.18063,11.46664 4.8125,20.84375 -0.36813,9.37712 -0.9511,11.17317 4.28125,10.40625 5.23235,-0.76693 4.82957,-21.09375 11.15625,-21.09375 6.32668,0 5.9239,20.32682 11.15625,21.09375 5.23235,0.76692 4.64938,-1.02913 4.28125,-10.40625 -0.36813,-9.37711 5.46678,-9.91827 4.8125,-20.84375 -0.65428,-10.92548 -1.96309,-16.80861 -5.34375,-29.125002 -3.38066,-12.31639 -5.20609,-15.07504 0.46875,-19.25 5.67483,-4.17496 13.80495,3.50169 15.6875,6.3125 1.88254,2.8108 7.66248,1.79233 11.625,-3.875 3.96251,-5.66733 -2.79105,-13.63901 -3.34375,-18.75 -0.5527,-5.110988 -4.23592,-18.985537 -5.96875,-29 -1.73283,-10.014463 -3.69959,-14.375002 -12.375,-14.375 -8.67542,10e-7 -7.14293,-2.75362 -12.0625,-2.78125 -4.91956,-0.02763 -3.53903,5.937499 -8.9375,5.9375 -5.39847,-1e-6 -4.01794,-5.96513 -8.9375,-5.9375 z m -44.781247,13.125 c -10.28074,-0.148727 -26.58159,17.910747 -35,29.875 -8.4184,11.96425 -10.79453,17.67634 -15.59375,20.65625 -4.79923,2.97991 -9.5322,2.11702 -9.625,7.3125 -0.0928,5.19549 8.45263,0.58738 10.21875,7.875 1.76612,7.28762 -7.33619,31.131902 -13.75,42.156252 -6.41387,11.02435 -19.2363703,31.28529 -6.375,38.25 0.21959,-2.99998 1.16956,-9.21305 6.375,-9.28125 5.20544,-0.0682 10.87848,15.19317 17.125,23.15625 6.24653,7.96308 15.90451,18.74815 20.8125,26.5625 4.90798,7.81436 9.35939,18.89397 5.34375,40.09375 4.31309,-1.25798 13.70949,-6.81841 10.4375,-33.0625 -3.27199,-26.2441 -23.33844,-40.04394 -28.875,-54.5 -5.53656,-14.45607 -6.19801,-22.99645 1.9375,-20.5625 1.07952,-10.65477 -3.89959,-4.14666 -2.3125,-24.53125 1.58709,-20.384592 13.05184,-35.070512 18.03125,-42.687502 4.97941,-7.61698 20.72692,-17.25984 26.0625,-24.25 5.33558,-6.990162 5.46824,-26.913773 -4.8125,-27.0625 z m 107.437497,0 c -10.28074,0.148727 -10.14808,20.072338 -4.8125,27.0625 5.33558,6.99016 21.08309,16.63302 26.0625,24.25 4.97941,7.61699 16.44416,22.30291 18.03125,42.687502 1.58709,20.38459 -3.39202,13.87648 -2.3125,24.53125 8.13551,-2.43395 7.47406,6.10643 1.9375,20.5625 -5.53656,14.45606 -25.60301,28.2559 -28.875,54.5 -3.27199,26.24409 6.12441,31.80452 10.4375,33.0625 -4.01564,-21.19978 0.43577,-32.27939 5.34375,-40.09375 4.90799,-7.81435 14.56597,-18.59942 20.8125,-26.5625 6.24652,-7.96308 11.91956,-23.22445 17.125,-23.15625 5.20544,0.0682 6.15541,6.28127 6.375,9.28125 12.86137,-6.96471 0.0389,-27.22565 -6.375,-38.25 -6.41381,-11.02435 -15.51612,-34.868632 -13.75,-42.156252 1.76612,-7.28762 10.31155,-2.67951 10.21875,-7.875 -0.0928,-5.19548 -4.82577,-4.33259 -9.625,-7.3125 -4.79922,-2.97991 -7.17535,-8.692 -15.59375,-20.65625 -8.41841,-11.964253 -24.71926,-30.023727 -35,-29.875 z M 88.392593,80.535678 c -2.78689,0 -7.82827,7.34523 -10.25,15.65625 -2.42173,8.311012 -4.73788,22.890112 -0.53125,22.031252 4.20663,-0.85885 1.35608,-8.77945 10.71875,-12.5625 9.36267,-3.78305 13.575407,-6.739862 13.312497,-10.000002 -0.26291,-3.26013 -4.254347,-4.92202 -6.781247,-7.34375 -2.5269,-2.42173 -3.68185,-7.78125 -6.46875,-7.78125 z m 107.624997,0 c -2.7869,0 -3.94185,5.35952 -6.46875,7.78125 -2.5269,2.42173 -6.51834,4.08362 -6.78125,7.34375 -0.26291,3.26014 3.94983,6.216952 13.3125,10.000002 9.36267,3.78305 6.51212,11.70365 10.71875,12.5625 4.20663,0.85886 1.89048,-13.72024 -0.53125,-22.031252 -2.42173,-8.31102 -7.46311,-15.65625 -10.25,-15.65625 z m -80.21875,9.15625 c -3.64797,0.62863 -6.88082,12.325172 -13.78125,19.531252 -7.123027,7.43852 -5.270087,4.15582 -16.312497,15.53125 -11.04241,11.37543 -9.9717,22.38539 -10,29.71875 -0.0283,7.33336 4.00578,38.15211 6.6875,40.78125 2.68173,2.62915 13.10472,9.33675 19.281247,18.09375 6.17653,8.757 10.11345,20.75559 4.75,39.8125 21.5538,-12.41008 16.85877,-47.83053 12.9375,-63.46875 -19.868877,8.79717 -28.423807,-20.40194 -10.375,-15.28125 1.47427,-6.68021 -12.586047,-12.77105 -11.718747,-25.125 0.86731,-12.35396 11.466077,-17.1412 14.874997,-17.1875 -0.61877,-6.57652 2.83434,-24.25505 5.34375,-31.03125 2.50942,-6.776202 2.4533,-11.269832 -1.34375,-11.375002 -0.11866,-0.003 -0.22607,-0.0203 -0.34375,0 z m 52.46875,0 c -3.79705,0.10517 -3.85317,4.5988 -1.34375,11.375002 2.50941,6.7762 5.96252,24.45473 5.34375,31.03125 3.40892,0.0463 14.00769,4.83354 14.875,17.1875 0.8673,12.35395 -13.19302,18.44479 -11.71875,25.125 18.04881,-5.12069 9.49388,24.07842 -10.375,15.28125 -3.92127,15.63822 -8.6163,51.05867 12.9375,63.46875 -5.36345,-19.05691 -1.42653,-31.0555 4.75,-39.8125 6.17653,-8.757 16.59952,-15.4646 19.28125,-18.09375 2.68172,-2.62914 6.7158,-33.44789 6.6875,-40.78125 -0.0283,-7.33336 1.04241,-18.34332 -10,-29.71875 -11.04241,-11.37543 -9.18947,-8.09273 -16.3125,-15.53125 -6.90043,-7.20608 -10.13328,-18.902622 -13.78125,-19.531252 -0.11768,-0.0203 -0.22509,-0.003 -0.34375,0 z"
     id="p2"
     style="fill:url(#g2);fill-opacity:1;stroke:none" />
</svg>
