<?xml version="1.0" encoding="UTF-8" standalone="no"?>
<!-- Created with Inkscape (http://www.inkscape.org/) -->

<svg
   xmlns:dc="http://purl.org/dc/elements/1.1/"
   xmlns:cc="http://creativecommons.org/ns#"
   xmlns:rdf="http://www.w3.org/1999/02/22-rdf-syntax-ns#"
   xmlns:svg="http://www.w3.org/2000/svg"
   xmlns="http://www.w3.org/2000/svg"
   xmlns:xlink="http://www.w3.org/1999/xlink"
   version="1.1"
   width="271"
   height="274.15625"
   id="svg2">
  <defs
     id="d1" />
  <path
     d="m 135.5,0 c -5.57348,0 -9.67123,2.651737 -12.1875,7.125 l -10.71875,19.03125 -16.8125,-12.875 c -3.91501,-3.003138 -9.46086,-3.715758 -14,-1.78125 -4.53914,1.934509 -7.89238,6.439776 -8.4375,11.34375 l -2.4375,21.875 L 51.25,39.59375 C 46.49336,38.3593 41.11472,39.85311 37.6875,43.375 34.26034,46.89689 32.91767,52.31 34.28125,57.03125 L 40.25,77.5625 20.65625,80.21875 c -4.86779,0.66159 -9.25731,4.06863 -11.09375,8.625 -1.83643,4.55638 -1.04851,10.08527 2,13.9375 l 12.75,16.125 -17.25,9.84375 C 2.80134,131.18525 0,135.99831 0,140.90625 c 0,4.90794 2.80134,9.721 7.0625,12.15625 0,0 20.62026,14.74283 32.1875,19.6875 1.87671,0.80224 3.57101,1.54215 5.90625,1.59375 2.77704,0.0614 4.66766,0.18505 22.875,-10.875 8.96622,-5.44653 19.65124,-2.57339 23.1875,-1.09375 7.07252,2.95927 13.05727,10.16485 15.34375,18.1875 2.28648,8.02265 1.22407,15.7099 -4.25,21.8125 -5.47407,6.1026 -1.52225,13.0625 -60.125,13.0625 8.52546,16.37869 33.56249,58.71875 93.3125,58.71875 59.75001,0 84.78704,-42.34006 93.3125,-58.71875 -58.60275,0 -54.65093,-6.9599 -60.125,-13.0625 -5.47407,-6.1026 -6.53648,-13.78985 -4.25,-21.8125 2.28648,-8.02265 8.27123,-15.22823 15.34375,-18.1875 3.53626,-1.47964 14.22128,-4.35278 23.1875,1.09375 18.20734,11.06005 20.09796,10.93635 22.875,10.875 2.33524,-0.0516 4.02954,-0.79151 5.90625,-1.59375 11.56724,-4.94467 32.1875,-19.6875 32.1875,-19.6875 4.26116,-2.43525 7.0625,-7.24831 7.0625,-12.15625 0,-4.90794 -2.80134,-9.721 -7.0625,-12.15625 l -17.25,-9.84375 12.75,-16.125 c 3.04851,-3.85223 3.83643,-9.38112 2,-13.9375 -1.83644,-4.55637 -6.22596,-7.96341 -11.09375,-8.625 L 230.75,77.5625 236.71875,57.03125 C 238.08233,52.31 236.73965,46.89689 233.3125,43.375 229.88528,39.85311 224.50664,38.3593 219.75,39.59375 l -19.65625,5.125 -2.4375,-21.875 c -0.54512,-4.903974 -3.89836,-9.409241 -8.4375,-11.34375 -4.53914,-1.934508 -10.08499,-1.221888 -14,1.78125 l -16.8125,12.875 L 147.6875,7.125 C 145.17123,2.651737 141.07348,0 135.5,0 z"
     id="p1"
     style="fill:#ffffff;fill-opacity:1;stroke:none" />
  <path
     d="m 135.5,14 -18.65625,33.09375 37.3125,0 L 135.5,14 z m 18.65625,33.09375 33.84375,15.25 -4.25,-37.9375 -29.59375,22.6875 z M 188,62.34375 212.75,89.28125 223.28125,53.125 188,62.34375 z m 24.75,26.9375 12.84375,33.6875 22.875,-28.875 -35.71875,-4.8125 z m 12.84375,33.6875 0,35.875 L 257,140.90625 225.59375,122.96875 z m -108.75,-75.875 L 87.25,24.40625 83,62.34375 l 33.84375,-15.25 z M 83,62.34375 47.71875,53.125 58.25,89.28125 83,62.34375 z m -24.75,26.9375 -35.71875,4.8125 22.875,28.875 L 58.25,89.28125 z M 45.40625,122.96875 14,140.90625 l 31.40625,17.9375 0,-35.875 z m 79.875,-66.90625 -9.21875,1.78125 13.875,19.375 -2.09375,28.625 L 109.90625,82.8125 110.46875,59.5 101.4375,63.15625 99.28125,76.09375 85.375,73.3125 78.59375,79.46875 100.5,88.4375 l 15.125,27.875 -30.25,-12.125 -10.625,-20.5625 -6.15625,8.03125 3.78125,13.375 -12.90625,4.15625 -2.8125,8.71875 23.0625,-3.375 29.5,18.6875 -34.78125,2.96875 -18.84375,-13.90625 -1.625,11.125 9.6875,7.5 -9.71875,7.125 1.09375,8.65625 c 61.98464,-44.53575 108.98863,74.27909 7.09375,71 l 6.5625,8.9375 c 0,0 24.80633,0.18821 35.40625,-7.09375 l 2.0625,1.6875 c -8.58034,7.686 -28.125,14.25 -28.125,14.25 l 9.65625,6.59375 c 0,0 17.53951,-7.2459 26.28125,-17.25 l 3.71875,2.03125 -15.84375,21.8125 9.625,2.9375 10.34375,-13.9375 13.6875,16.8125 13.6875,-16.8125 10.34375,13.9375 9.625,-2.9375 -15.84375,-21.8125 3.71875,-2.03125 c 8.74174,10.0041 26.28125,17.25 26.28125,17.25 l 9.65625,-6.59375 c 0,0 -19.54466,-6.564 -28.125,-14.25 l 2.0625,-1.6875 c 10.59992,7.28196 35.40625,7.09375 35.40625,7.09375 l 6.5625,-8.9375 c -101.89488,3.27909 -54.89089,-115.53575 7.09375,-71 l 1.09375,-8.65625 -9.71875,-7.125 9.6875,-7.5 -1.625,-11.125 -18.84375,13.90625 -34.78125,-2.96875 29.5,-18.6875 23.0625,3.375 -2.8125,-8.71875 -12.90625,-4.15625 3.78125,-13.375 -6.15625,-8.03125 -10.625,20.5625 -30.25,12.125 15.125,-27.875 21.90625,-8.96875 -6.78125,-6.15625 -13.90625,2.78125 -2.15625,-12.9375 -9.03125,-3.65625 0.5625,23.3125 -17.9375,23.03125 -2.09375,-28.625 13.875,-19.375 L 145.71875,56.0625 135.5,65.875 125.28125,56.0625 z M 135.5,223.71875 145.59375,238 135.5,249.21875 125.40625,238 135.5,223.71875 z"
     id="path3124"
     style="fill:#000000;fill-opacity:1;stroke:none" />
</svg>
