<?xml version="1.0" encoding="UTF-8" standalone="no"?>
<svg xmlns="http://www.w3.org/2000/svg" version="1.1" width="600" height="450.81448">
  <path d="m 299.33505,450.81447 c -143.65203,0 -272.021454,-75.10569 -298.61950789,-174.69061 -2.42312781,-9.01629 1.45387669,-18.52847 9.42202289,-23.37473 3.392378,-2.02866 7.134139,-3.03173 10.875899,-3.03173 5.150555,0 10.256029,1.88215 14.223196,5.5901 12.104369,11.1802 26.011995,21.52639 41.384769,30.94842 -8.678179,-19.41884 -13.208864,-40.06614 -13.208864,-61.37839 0,-21.30099 4.530685,-41.94829 13.208864,-61.36712 -15.417855,9.37694 -29.2804,19.76821 -41.384769,30.94841 -3.967167,3.6516 -9.072641,5.54502 -14.223196,5.54502 -3.74176,0 -7.483521,-1.00306 -10.875899,-2.98665 C 2.1694188,192.17094 -1.7075857,182.61367 0.71554211,173.59738 27.178352,74.62106 155.55904,0 299.33505,0 c 144.45222,0 273.44152,74.62106 299.94941,173.59738 2.42312,9.01629 -1.45388,18.57356 -9.42203,23.37473 -3.39237,2.02867 -7.13413,3.03173 -10.87589,3.03173 -5.15056,0 -10.25603,-1.89342 -14.2232,-5.54502 -12.14945,-11.1802 -26.012,-21.57147 -41.42985,-30.99349 8.67818,19.41883 13.20886,40.11121 13.20886,61.4122 0,21.31225 -4.53068,41.95955 -13.16378,61.37839 15.37277,-9.42203 29.23532,-19.76822 41.38477,-30.94842 3.96717,-3.70795 9.07264,-5.5901 14.2232,-5.5901 3.74176,0 7.48352,1.00307 10.87589,3.03173 7.96815,4.84626 11.84515,14.35844 9.42203,23.41981 -26.67695,99.53984 -155.63243,174.64553 -299.94941,174.64553" style="fill:#ffffff"/>
  <path d="m 376.42432,360.48252 c 31.8275,-42.7034 43.01897,-76.34543 43.01897,-129.65424 0,-53.275 -11.19147,-86.86068 -43.01897,-129.519 55.65305,23.98333 85.36172,69.38035 85.14759,130.0487 -0.27049,60.30771 -29.81011,105.12994 -85.14759,129.12454 m -75.31983,6.28886 c -36.06515,0 -65.24412,-61.7165 -65.24412,-137.97177 0,-76.21018 29.17897,-137.92669 65.24412,-137.92669 36.00881,0 65.19905,61.71651 65.19905,137.92669 0,76.25527 -29.19024,137.97177 -65.19905,137.97177 M 136.57975,231.35798 c -0.25967,-64.10581 38.38686,-114.15749 100.46401,-130.0487 -40.71982,37.23728 -57.05057,74.3055 -57.05057,129.519 0,55.24731 16.33075,92.31553 57.05057,129.65424 -61.76158,-15.90248 -100.2386,-65.28921 -100.46401,-129.12454 m 378.96592,-6.48045 c 0,-45.73513 -24.78353,-87.16498 -64.71442,-116.88493 51.50555,16.42092 95.52759,40.94523 128.15529,71.01455 -22.93519,-85.6322 -139.77503,-157.9992 -279.65149,-157.9992 -139.91027,0 -255.431481,72.367 -278.321586,157.9992 32.582616,-30.06932 76.604649,-54.54855 128.065116,-71.01455 -39.88581,29.71995 -64.669331,71.1498 -64.669331,116.88493 0,45.79148 24.783521,87.13116 64.669331,116.88492 -51.460467,-16.42092 -95.4825,-40.97904 -128.065116,-71.04836 22.890105,85.7111 138.411316,159.1037 278.321586,159.1037 139.87646,0 256.7163,-73.3926 279.65149,-159.1037 -32.6277,30.06932 -76.64974,54.62744 -128.15529,71.04836 39.93089,-29.75376 64.71442,-71.09344 64.71442,-116.88492"/>
</svg>
