<?xml version="1.0" encoding="UTF-8" standalone="no"?>
<svg xmlns="http://www.w3.org/2000/svg" xmlns:xlink="http://www.w3.org/1999/xlink" version="1.1" width="600" height="450.81448">
  <linearGradient x1="0" y1="0" x2="1" y2="0" id="linearGradient718" gradientUnits="userSpaceOnUse" gradientTransform="matrix(49.508789,0,0,-49.508789,723.24512,146.51172)" spreadMethod="pad">
    <stop style="stop-color:#8b723c" offset="0"/>
    <stop style="stop-color:#d2bb7b" offset="0.3"/>
    <stop style="stop-color:#ebd491" offset="0.5"/>
    <stop style="stop-color:#d2bb7b" offset="0.7"/>
    <stop style="stop-color:#8b723c" offset="1"/>
  </linearGradient>
  <linearGradient x1="0" y1="0" x2="1" y2="0" id="linearGradient2991" xlink:href="#linearGradient718" gradientUnits="userSpaceOnUse" gradientTransform="matrix(557.98196,0,0,557.98196,21.003546,225.41039)" spreadMethod="pad"/>
  <path d="m 299.33505,450.81447 c -143.65203,0 -272.021454,-75.10569 -298.61950789,-174.69061 -2.42312781,-9.01629 1.45387669,-18.52847 9.42202289,-23.37473 3.392378,-2.02866 7.134139,-3.03173 10.875899,-3.03173 5.150555,0 10.256029,1.88215 14.223196,5.5901 12.104369,11.1802 26.011995,21.52639 41.384769,30.94842 -8.678179,-19.41884 -13.208864,-40.06614 -13.208864,-61.37839 0,-21.30099 4.530685,-41.94829 13.208864,-61.36712 -15.417855,9.37694 -29.2804,19.76821 -41.384769,30.94841 -3.967167,3.6516 -9.072641,5.54502 -14.223196,5.54502 -3.74176,0 -7.483521,-1.00306 -10.875899,-2.98665 C 2.1694188,192.17094 -1.7075857,182.61367 0.71554211,173.59738 27.178352,74.62106 155.55904,0 299.33505,0 c 144.45222,0 273.44152,74.62106 299.94941,173.59738 2.42312,9.01629 -1.45388,18.57356 -9.42203,23.37473 -3.39237,2.02867 -7.13413,3.03173 -10.87589,3.03173 -5.15056,0 -10.25603,-1.89342 -14.2232,-5.54502 -12.14945,-11.1802 -26.012,-21.57147 -41.42985,-30.99349 8.67818,19.41883 13.20886,40.11121 13.20886,61.4122 0,21.31225 -4.53068,41.95955 -13.16378,61.37839 15.37277,-9.42203 29.23532,-19.76822 41.38477,-30.94842 3.96717,-3.70795 9.07264,-5.5901 14.2232,-5.5901 3.74176,0 7.48352,1.00307 10.87589,3.03173 7.96815,4.84626 11.84515,14.35844 9.42203,23.41981 -26.67695,99.53984 -155.63243,174.64553 -299.94941,174.64553"/>
  <path d="M 21.013464,179.00715 C 53.59608,148.93783 97.618113,124.4586 149.07858,107.9926 l 0,0 c -39.88581,29.71995 -64.669331,71.1498 -64.669331,116.88493 l 0,0 c 0,45.79148 24.783521,87.17624 64.669331,116.85111 l 0,0 C 97.618113,325.34153 53.59608,300.82849 21.013464,270.71409 l 0,0 c 22.890105,85.7111 138.411316,159.1037 278.321586,159.1037 l 0,0 c 139.87646,0 256.7163,-73.3926 279.65149,-159.1037 l 0,0 c -32.6277,30.1144 -76.64974,54.62744 -128.11021,71.01455 l 0,0 c 39.88581,-29.67487 64.66934,-71.05963 64.66934,-116.85111 l 0,0 c 0,-45.73513 -24.78353,-87.16498 -64.66934,-116.88493 l 0,0 c 51.46047,16.42092 95.48251,40.94523 128.11021,71.01455 l 0,0 C 556.05135,93.37495 439.21151,21.00795 299.33505,21.00795 l 0,0 c -139.91027,0 -255.431481,72.367 -278.321586,157.9992 m 214.846906,49.79246 c 0,-76.21018 29.17897,-137.92669 65.24412,-137.92669 l 0,0 c 36.00881,0 65.19905,61.71651 65.19905,137.92669 l 0,0 c 0,76.25527 -29.19024,137.97177 -65.19905,137.97177 l 0,0 c -36.06515,0 -65.24412,-61.7165 -65.24412,-137.97177 m 183.58292,2.02867 c 0,-53.275 -11.19147,-86.86068 -43.01897,-129.519 l 0,0 c 55.69813,23.98333 85.36172,69.38035 85.14759,130.0487 l 0,0 c -0.27049,60.30771 -29.76503,105.17502 -85.14759,129.12454 l 0,0 c 31.8275,-42.7034 43.01897,-76.39051 43.01897,-129.65424 m -282.86354,0.5297 c -0.25922,-64.10581 38.38686,-114.15749 100.46401,-130.0487 l 0,0 c -40.71982,37.23728 -57.01676,74.3055 -57.01676,129.519 l 0,0 c 0,55.24731 16.29694,92.31553 57.01676,129.65424 l 0,0 C 175.28218,344.58004 136.80516,295.19331 136.57975,231.35798" style="fill:url(#linearGradient2991)"/>
</svg>
