<?xml version="1.0" encoding="UTF-8" standalone="no"?>
<svg xmlns="http://www.w3.org/2000/svg" version="1.1" width="600" height="450.81448">
  <path d="m 376.42432,360.48252 c 31.8275,-42.7034 43.01897,-76.34543 43.01897,-129.65424 0,-53.275 -11.19147,-86.86068 -43.01897,-129.519 55.65305,23.98333 85.36172,69.38035 85.14759,130.0487 -0.27049,60.30771 -29.81011,105.12994 -85.14759,129.12454 m -75.31983,6.28886 c -36.06515,0 -65.24412,-61.7165 -65.24412,-137.97177 0,-76.21018 29.17897,-137.92669 65.24412,-137.92669 36.00881,0 65.19905,61.71651 65.19905,137.92669 0,76.25527 -29.19024,137.97177 -65.19905,137.97177 M 136.57975,231.35798 c -0.25967,-64.10581 38.38686,-114.15749 100.46401,-130.0487 -40.71982,37.23728 -57.05057,74.3055 -57.05057,129.519 0,55.24731 16.33075,92.31553 57.05057,129.65424 -61.76158,-15.90248 -100.2386,-65.28921 -100.46401,-129.12454 m 378.96592,-6.48045 c 0,-45.73513 -24.78353,-87.16498 -64.71442,-116.88493 51.50555,16.42092 95.52759,40.94523 128.15529,71.01455 -22.93519,-85.6322 -139.77503,-157.9992 -279.65149,-157.9992 -139.91027,0 -255.431481,72.367 -278.321586,157.9992 32.582616,-30.06932 76.604649,-54.54855 128.065116,-71.01455 -39.88581,29.71995 -64.669331,71.1498 -64.669331,116.88493 0,45.79148 24.783521,87.13116 64.669331,116.88492 -51.460467,-16.42092 -95.4825,-40.97904 -128.065116,-71.04836 22.890105,85.7111 138.411316,159.1037 278.321586,159.1037 139.87646,0 256.7163,-73.3926 279.65149,-159.1037 -32.6277,30.06932 -76.64974,54.62744 -128.15529,71.04836 39.93089,-29.75376 64.71442,-71.09344 64.71442,-116.88492"/>
</svg>
