<?xml version="1.0" encoding="UTF-8" standalone="no"?><!DOCTYPE svg PUBLIC "-//W3C//DTD SVG 1.1//EN" "http://www.w3.org/Graphics/SVG/1.1/DTD/svg11.dtd"><svg width="100%" height="100%" viewBox="0 0 90 90" version="1.1" xmlns="http://www.w3.org/2000/svg" xmlns:xlink="http://www.w3.org/1999/xlink" xml:space="preserve" xmlns:serif="http://www.serif.com/" style="fill-rule:evenodd;clip-rule:evenodd;stroke-linejoin:round;stroke-miterlimit:2;"><rect id="Mythic" x="0" y="0" width="90" height="90" style="fill:none;"/><g id="Mythic1" serif:id="Mythic"><path d="M48.978,25.927c-0.598,-0.766 -1.273,-1.529 -2.031,-2.288c-6.536,-6.535 -27.908,-7.018 -27.908,-7.018c1.951,-1.725 4.262,-2.761 8.058,-4.177c12.603,-4.703 25.101,-3.751 33.345,2.401c2.008,1.5 3.778,3.306 5.246,5.421l5.026,2.137c7.027,2.989 10.115,9.217 10.989,15.752c0.822,6.148 -0.354,12.522 -1.715,16.24c-0.189,0.517 -0.387,1.022 -0.595,1.517l0.255,0.399c1.105,1.727 1.485,3.892 1.236,6.119c-0.335,2.997 -1.822,6.088 -3.752,8.072c-7.883,8.099 -23.154,15.113 -38.692,13.414c-12.244,-1.339 -30.114,-9.41 -30.892,-30.383l-0.313,-8.439l4.832,6.927c4.513,6.469 8.128,7.953 13.233,7.953c13.417,0 19.269,-13.03 21.249,-18.943c1.204,-3.595 1.325,-8.767 -0.274,-11.37c-1.599,-2.604 -3.295,-3.749 -3.295,-3.749c1.941,-0.754 3.945,-0.681 5.998,0.015Zm-21.562,-3.073c2.405,5.398 5.716,10.099 10.157,13.931l2.156,1.859l-2.135,1.884c-4.215,3.717 -7.65,8.144 -10.137,13.432l-2.251,4.788l-2.245,-4.791c-2.516,-5.368 -6.154,-9.701 -10.695,-13.2l-2.64,-2.034l2.704,-1.948c4.504,-3.245 8.027,-7.836 10.523,-13.861l2.212,-5.338l2.351,5.278Z"/><path d="M25.147,23.865c2.556,5.737 6.083,10.728 10.804,14.8c-4.467,3.94 -8.106,8.633 -10.741,14.239c-2.689,-5.739 -6.574,-10.374 -11.428,-14.114c4.855,-3.498 8.675,-8.43 11.365,-14.925Zm2.818,-9.095c19.515,-7.281 38.792,-0.433 39.873,20.137c0,17.735 -11.002,28.68 -29.955,32.66c16.087,-1.439 29.254,-10.386 34.263,-26.048c1.727,-5.397 1.55,-11.525 -2.404,-16.83c12.256,5.212 10.438,21.959 7.914,28.852c-3.795,10.367 -11.829,15.97 -18.834,18.835c10.507,-0.762 17.294,-8.963 18.734,-14.727c2.029,3.172 0.432,8.412 -2.204,11.12c-7.463,7.669 -21.93,14.287 -36.642,12.678c-11.328,-1.238 -27.96,-8.603 -28.68,-28.006c5.183,7.431 9.406,9.017 15.27,9.017c14.777,-0 21.423,-14.126 23.604,-20.638c1.379,-4.118 1.682,-7.687 -0.301,-13.024c3.595,2.841 5.06,6.51 5.711,13.525c2.051,-6.14 1.335,-13.492 -5.611,-20.438c-5.364,-5.364 -13.154,-7.314 -20.738,-7.113Z" style="fill:url(#_Linear1);"/></g><defs><linearGradient id="_Linear1" x1="0" y1="0" x2="1" y2="0" gradientUnits="userSpaceOnUse" gradientTransform="matrix(82.973,0,0,83.3032,3.27572,45.1776)"><stop offset="0" style="stop-color:#bb2c26;stop-opacity:1"/><stop offset="0.04" style="stop-color:#bf3526;stop-opacity:1"/><stop offset="0.11" style="stop-color:#cb4d25;stop-opacity:1"/><stop offset="0.19" style="stop-color:#de7523;stop-opacity:1"/><stop offset="0.21" style="stop-color:#e17a23;stop-opacity:1"/><stop offset="0.29" style="stop-color:#ee8b1f;stop-opacity:1"/><stop offset="0.38" style="stop-color:#f5951e;stop-opacity:1"/><stop offset="0.5" style="stop-color:#ff9915;stop-opacity:1"/><stop offset="0.62" style="stop-color:#f5951e;stop-opacity:1"/><stop offset="0.71" style="stop-color:#ee8b1f;stop-opacity:1"/><stop offset="0.79" style="stop-color:#e17a23;stop-opacity:1"/><stop offset="0.8" style="stop-color:#e07823;stop-opacity:1"/><stop offset="0.85" style="stop-color:#d35d24;stop-opacity:1"/><stop offset="0.91" style="stop-color:#c64225;stop-opacity:1"/><stop offset="0.96" style="stop-color:#be3226;stop-opacity:1"/><stop offset="1" style="stop-color:#bb2c26;stop-opacity:1"/></linearGradient></defs></svg>