<?xml version="1.0" encoding="UTF-8" standalone="no"?><!DOCTYPE svg PUBLIC "-//W3C//DTD SVG 1.1//EN" "http://www.w3.org/Graphics/SVG/1.1/DTD/svg11.dtd"><svg width="100%" height="100%" viewBox="0 0 91 90" version="1.1" xmlns="http://www.w3.org/2000/svg" xmlns:xlink="http://www.w3.org/1999/xlink" xml:space="preserve" xmlns:serif="http://www.serif.com/" style="fill-rule:evenodd;clip-rule:evenodd;stroke-linejoin:round;stroke-miterlimit:2;"><rect id="Rare" x="0.033" y="0" width="90" height="90" style="fill:none;"/><path d="M49.01,25.927c-0.597,-0.766 -1.272,-1.529 -2.03,-2.288c-6.536,-6.535 -27.908,-7.018 -27.908,-7.018c1.95,-1.725 4.261,-2.761 8.058,-4.177c12.603,-4.703 25.101,-3.751 33.345,2.401c2.008,1.5 3.778,3.306 5.246,5.421l5.025,2.137c7.027,2.989 10.116,9.217 10.99,15.752c0.822,6.148 -0.354,12.522 -1.715,16.24c-0.189,0.517 -0.388,1.022 -0.596,1.517l0.256,0.399c1.105,1.727 1.485,3.892 1.236,6.119c-0.336,2.997 -1.822,6.088 -3.753,8.072c-7.882,8.099 -23.153,15.113 -38.692,13.414c-12.244,-1.339 -30.113,-9.41 -30.891,-30.383l-0.313,-8.439l4.831,6.927c4.513,6.469 8.129,7.953 13.234,7.953c13.416,0 19.269,-13.03 21.248,-18.943c1.204,-3.595 1.325,-8.767 -0.273,-11.37c-1.599,-2.604 -3.295,-3.749 -3.295,-3.749c1.94,-0.754 3.945,-0.681 5.997,0.015Zm-21.561,-3.073c2.404,5.398 5.715,10.099 10.157,13.931l2.156,1.859l-2.136,1.884c-4.215,3.717 -7.65,8.144 -10.136,13.432l-2.251,4.788l-2.245,-4.791c-2.516,-5.368 -6.155,-9.701 -10.696,-13.2l-2.64,-2.034l2.705,-1.948c4.504,-3.245 8.027,-7.836 10.523,-13.861l2.211,-5.338l2.352,5.278Z"/><path d="M25.18,23.865c2.556,5.737 6.083,10.728 10.804,14.8c-4.468,3.94 -8.106,8.633 -10.742,14.239c-2.689,-5.739 -6.574,-10.374 -11.428,-14.114c4.856,-3.498 8.675,-8.43 11.366,-14.925Zm2.818,-9.095c19.515,-7.281 38.792,-0.433 39.873,20.137c0,17.735 -11.002,28.68 -29.955,32.66c16.086,-1.439 29.254,-10.386 34.263,-26.048c1.726,-5.397 1.55,-11.525 -2.404,-16.83c12.256,5.212 10.438,21.959 7.914,28.852c-3.795,10.367 -11.829,15.97 -18.835,18.835c10.507,-0.762 17.295,-8.963 18.735,-14.727c2.029,3.172 0.431,8.412 -2.204,11.12c-7.463,7.669 -21.93,14.287 -36.643,12.678c-11.327,-1.238 -27.96,-8.603 -28.679,-28.006c5.183,7.431 9.406,9.017 15.27,9.017c14.777,-0 21.423,-14.126 23.603,-20.638c1.379,-4.118 1.682,-7.687 -0.3,-13.024c3.594,2.841 5.06,6.51 5.71,13.525c2.052,-6.14 1.336,-13.492 -5.61,-20.438c-5.364,-5.364 -13.154,-7.314 -20.738,-7.113Z" style="fill:url(#_Linear1);"/><defs><linearGradient id="_Linear1" x1="0" y1="0" x2="1" y2="0" gradientUnits="userSpaceOnUse" gradientTransform="matrix(82.973,0,0,83.3032,3.30838,45.1776)"><stop offset="0" style="stop-color:#8d742f;stop-opacity:1"/><stop offset="0.07" style="stop-color:#967d38;stop-opacity:1"/><stop offset="0.18" style="stop-color:#ae954f;stop-opacity:1"/><stop offset="0.2" style="stop-color:#b39a54;stop-opacity:1"/><stop offset="0.22" style="stop-color:#b9a059;stop-opacity:1"/><stop offset="0.3" style="stop-color:#cab068;stop-opacity:1"/><stop offset="0.39" style="stop-color:#d4ba71;stop-opacity:1"/><stop offset="0.5" style="stop-color:#d7bd74;stop-opacity:1"/><stop offset="0.61" style="stop-color:#d4ba71;stop-opacity:1"/><stop offset="0.7" style="stop-color:#cab068;stop-opacity:1"/><stop offset="0.78" style="stop-color:#b9a059;stop-opacity:1"/><stop offset="0.8" style="stop-color:#b39a54;stop-opacity:1"/><stop offset="0.86" style="stop-color:#a38a45;stop-opacity:1"/><stop offset="0.94" style="stop-color:#937a35;stop-opacity:1"/><stop offset="1" style="stop-color:#8d742f;stop-opacity:1"/></linearGradient></defs></svg>