<?xml version="1.0" encoding="UTF-8" standalone="no"?><!DOCTYPE svg PUBLIC "-//W3C//DTD SVG 1.1//EN" "http://www.w3.org/Graphics/SVG/1.1/DTD/svg11.dtd"><svg width="100%" height="100%" viewBox="0 0 91 90" version="1.1" xmlns="http://www.w3.org/2000/svg" xmlns:xlink="http://www.w3.org/1999/xlink" xml:space="preserve" xmlns:serif="http://www.serif.com/" style="fill-rule:evenodd;clip-rule:evenodd;stroke-linejoin:round;stroke-miterlimit:2;"><rect id="Uncommon" x="0.065" y="0" width="90" height="90" style="fill:none;"/><path d="M49.043,25.927c-0.597,-0.766 -1.272,-1.529 -2.03,-2.288c-6.536,-6.535 -27.908,-7.018 -27.908,-7.018c1.95,-1.725 4.261,-2.761 8.057,-4.177c12.603,-4.703 25.102,-3.751 33.345,2.401c2.009,1.5 3.779,3.306 5.247,5.421l5.025,2.137c7.027,2.989 10.116,9.217 10.989,15.752c0.822,6.148 -0.353,12.522 -1.714,16.24c-0.189,0.517 -0.388,1.022 -0.596,1.517l0.255,0.399c1.105,1.727 1.486,3.892 1.236,6.119c-0.335,2.997 -1.821,6.088 -3.752,8.072c-7.882,8.099 -23.153,15.113 -38.692,13.414c-12.244,-1.339 -30.113,-9.41 -30.891,-30.383l-0.314,-8.439l4.832,6.927c4.513,6.469 8.128,7.953 13.234,7.953c13.416,0 19.268,-13.03 21.248,-18.943c1.204,-3.595 1.325,-8.767 -0.274,-11.37c-1.598,-2.604 -3.295,-3.749 -3.295,-3.749c1.941,-0.754 3.946,-0.681 5.998,0.015Zm-21.562,-3.073c2.405,5.398 5.716,10.099 10.158,13.931l2.155,1.859l-2.135,1.884c-4.215,3.717 -7.65,8.144 -10.136,13.432l-2.252,4.788l-2.245,-4.791c-2.515,-5.368 -6.154,-9.701 -10.695,-13.2l-2.64,-2.034l2.704,-1.948c4.505,-3.245 8.027,-7.836 10.523,-13.861l2.212,-5.338l2.351,5.278Z"/><path d="M25.213,23.865c2.556,5.737 6.083,10.728 10.803,14.8c-4.467,3.94 -8.105,8.633 -10.741,14.239c-2.689,-5.739 -6.574,-10.374 -11.428,-14.114c4.856,-3.498 8.675,-8.43 11.366,-14.925Zm2.818,-9.095c19.515,-7.281 38.792,-0.433 39.873,20.137c-0,17.735 -11.003,28.68 -29.955,32.66c16.086,-1.439 29.253,-10.386 34.263,-26.048c1.726,-5.397 1.55,-11.525 -2.405,-16.83c12.257,5.212 10.438,21.959 7.915,28.852c-3.795,10.367 -11.829,15.97 -18.835,18.835c10.507,-0.762 17.294,-8.963 18.735,-14.727c2.029,3.172 0.431,8.412 -2.205,11.12c-7.463,7.669 -21.93,14.287 -36.642,12.678c-11.327,-1.238 -27.96,-8.603 -28.68,-28.006c5.184,7.431 9.407,9.017 15.271,9.017c14.777,-0 21.422,-14.126 23.603,-20.638c1.379,-4.118 1.682,-7.687 -0.301,-13.024c3.595,2.841 5.061,6.51 5.711,13.525c2.052,-6.14 1.336,-13.492 -5.61,-20.438c-5.365,-5.364 -13.155,-7.314 -20.738,-7.113Z" style="fill:url(#_Linear1);"/><defs><linearGradient id="_Linear1" x1="0" y1="0" x2="1" y2="0" gradientUnits="userSpaceOnUse" gradientTransform="matrix(82.973,0,0,83.3032,3.34104,45.1776)"><stop offset="0" style="stop-color:#626e77;stop-opacity:1"/><stop offset="0.04" style="stop-color:#697780;stop-opacity:1"/><stop offset="0.11" style="stop-color:#7d8e98;stop-opacity:1"/><stop offset="0.2" style="stop-color:#9eb4c0;stop-opacity:1"/><stop offset="0.2" style="stop-color:#a0b6c2;stop-opacity:1"/><stop offset="0.2" style="stop-color:#a1b7c3;stop-opacity:1"/><stop offset="0.29" style="stop-color:#adc6d4;stop-opacity:1"/><stop offset="0.38" style="stop-color:#b5cede;stop-opacity:1"/><stop offset="0.5" style="stop-color:#b7d1e1;stop-opacity:1"/><stop offset="0.62" style="stop-color:#b5cede;stop-opacity:1"/><stop offset="0.71" style="stop-color:#adc6d4;stop-opacity:1"/><stop offset="0.8" style="stop-color:#a1b7c3;stop-opacity:1"/><stop offset="0.8" style="stop-color:#a0b6c2;stop-opacity:1"/><stop offset="0.85" style="stop-color:#8b9da8;stop-opacity:1"/><stop offset="0.91" style="stop-color:#74838d;stop-opacity:1"/><stop offset="0.96" style="stop-color:#67747d;stop-opacity:1"/><stop offset="1" style="stop-color:#626e77;stop-opacity:1"/></linearGradient></defs></svg>