<?xml version="1.0" encoding="UTF-8" standalone="no"?><!DOCTYPE svg PUBLIC "-//W3C//DTD SVG 1.1//EN" "http://www.w3.org/Graphics/SVG/1.1/DTD/svg11.dtd"><svg width="100%" height="100%" viewBox="0 0 91 90" version="1.1" xmlns="http://www.w3.org/2000/svg" xmlns:xlink="http://www.w3.org/1999/xlink" xml:space="preserve" xmlns:serif="http://www.serif.com/" style="fill-rule:evenodd;clip-rule:evenodd;stroke-linejoin:round;stroke-miterlimit:2;"><rect id="WM" x="0.079" y="0" width="90" height="90" style="fill:none;"/><path d="M25.226,23.865c2.556,5.737 6.083,10.728 10.804,14.8c-4.468,3.94 -8.106,8.633 -10.741,14.239c-2.689,-5.739 -6.575,-10.374 -11.429,-14.114c4.856,-3.498 8.675,-8.43 11.366,-14.925Zm2.818,-9.095c19.515,-7.281 38.792,-0.433 39.873,20.137c0,17.735 -11.002,28.68 -29.955,32.66c16.086,-1.439 29.254,-10.386 34.263,-26.048c1.726,-5.397 1.55,-11.525 -2.404,-16.83c12.256,5.212 10.438,21.959 7.914,28.852c-3.795,10.367 -11.829,15.97 -18.834,18.835c10.506,-0.762 17.294,-8.963 18.734,-14.727c2.029,3.172 0.431,8.412 -2.204,11.12c-7.463,7.669 -21.93,14.287 -36.643,12.678c-11.327,-1.238 -27.96,-8.603 -28.679,-28.006c5.183,7.431 9.406,9.017 15.27,9.017c14.777,-0 21.423,-14.126 23.603,-20.638c1.379,-4.118 1.682,-7.687 -0.3,-13.024c3.594,2.841 5.06,6.51 5.71,13.525c2.052,-6.14 1.336,-13.492 -5.61,-20.438c-5.364,-5.364 -13.154,-7.314 -20.738,-7.113Z"/></svg>