<?xml version="1.0" encoding="UTF-8" standalone="no"?>
<svg
   version="1.1"
   id="Layer_1"
   x="0px"
   y="0px"
   width="1024"
   height="1024"
   sodipodi:docname="T.svg"
   inkscape:version="1.1.1 (3bf5ae0d25, 2021-09-20)"
   xmlns:inkscape="http://www.inkscape.org/namespaces/inkscape"
   xmlns:sodipodi="http://sodipodi.sourceforge.net/DTD/sodipodi-0.dtd"
   xmlns="http://www.w3.org/2000/svg"
   xmlns:svg="http://www.w3.org/2000/svg">
  <defs
     id="defs16" />
  <sodipodi:namedview
     id="namedview14"
     pagecolor="#ffffff"
     bordercolor="#666666"
     borderopacity="1.0"
     inkscape:pageshadow="2"
     inkscape:pageopacity="0.0"
     inkscape:pagecheckerboard="0"
     showgrid="false"
     inkscape:zoom="0.89875"
     inkscape:cx="-146.87"
     inkscape:cy="124.62"
     inkscape:window-width="1920"
     inkscape:window-height="986"
     inkscape:window-x="-11"
     inkscape:window-y="-11"
     inkscape:window-maximized="1"
     inkscape:current-layer="Layer_1" />
  <linearGradient
     id="SVGID_1_"
     gradientUnits="userSpaceOnUse"
     x1="0"
     y1="25"
     x2="50"
     y2="25"
     gradientTransform="scale(20.48)">
    <stop
       offset="0"
       style="stop-color:#612c75"
       id="stop2" />
    <stop
       offset="0.4675"
       style="stop-color:#bf99c3"
       id="stop4" />
    <stop
       offset="1"
       style="stop-color:#612c75"
       id="stop6" />
  </linearGradient>
  <path
     fill="url(#SVGID_1_)"
     d="M 512,1024 C 356.39,1024 208.28,951.99 111.35,830.34 l -1.09,0.6 -1.72,0.65 c -8.925,3.26 -18.244,4.9 -27.664,4.9 -25.068,0 -48.21,-11.51 -63.652,-31.71 C 6.1645,790.16 0,771.75 0,752.84 0,734.39 5.591,717.15 16.712,701.54 20.808,695.89 25.559,691.1 30.884,687.04 10.404,630.95 0,572.11 0,511.96 0,229.64 229.64,0 512,0 c 282.3,0 512,229.64 512,511.96 0,55.09 -8.7,109.16 -25.85,160.85 1.48,1.45 2.95,2.99 4.45,4.55 l 1.2,1.2 1,1.29 6.3,8.61 0.8,1.1 0.7,1.21 c 7.5,12.92 11.4,27.53 11.4,42.09 0,18.1 -5.8,35.14 -17,49.5 -15.79,20.01 -39.95,31.49 -66.39,31.49 -4.82,0 -9.61,-0.4 -14.4,-1.14 C 829.64,945.3 676.11,1024 512,1024"
     id="path9"
     style="fill:url(#SVGID_1_);stroke-width:20.48" />
  <path
     d="m 968.44,710.1 -0.29,-0.3 C 959.8,701.05 950.89,693.84 942.28,687.45 964.38,633.3 976.67,574.1 976.67,512 976.67,255.34 768.61,47.309 512,47.309 255.37,47.309 47.309,255.34 47.309,512 c 0,69.14 15.196,134.7 42.291,193.6 -7.434,6.41 -15.708,12.04 -25.498,16.5 0.103,0 -0.819,0.41 -0.819,0.41 -3.318,1.5 -5.919,3.65 -8.089,6.6 l -0.635,0.86 c -4.752,6.65 -7.271,14.6 -7.271,22.9 0,8.49 2.724,16.79 7.639,23.24 8.971,11.8 23.593,16.1 37.253,11.1 2.028,-0.76 4.445,-2.05 6.185,-3.36 h 0.04 C 106.41,777.61 115.06,772.4 124.29,768.1 207.44,893.81 350,976.65 512,976.65 c 166.81,0 313,-87.9 394.98,-219.89 5.98,1.94 11.98,4.15 17.86,6.84 0.92,0.34 1.8,0.65 2.76,0.94 16.36,4.85 32.87,0.31 42.17,-11.45 4.57,-5.9 6.94,-12.8 6.94,-20.19 0,-6.31 -1.74,-12.7 -5.1,-18.56 -0.92,-1.43 -2,-2.99 -3.17,-4.24 M 908.25,512 c 0,41.31 -6.35,81.14 -18.13,118.6 -28.81,-110.06 -81.2,-225.16 -121.81,-298.29 -3.22,-14.19 -4.26,-29.55 -5.12,-44.44 0,-0.31 -0.94,-14.15 -1.07,-16.16 0.1,-1.66 0.39,-7.05 0.39,-7.05 0,-0.35 0,-0.75 0,-1.1 v 0 c 0,-14.91 -4.67,-26.05 -13.86,-33.1 -10.35,-7.9 -23.88,-8.81 -40.35,-2.74 -7,2.56 -15.63,1.29 -26.54,-0.31 0.24,0 0.43,0 0.63,0.1 -23.9,-4.26 -40.44,-5.41 -57.95,-6.65 -33,-2.85 -33,-2.85 -33.92,-2.85 -17.1,0 -29.43,14.25 -33.63,27.54 -0.35,1.05 -0.59,2.05 -0.74,3.1 l -0.86,5.34 c -0.18,1.11 -0.28,2.25 -0.28,3.4 v 0.25 c 0.18,10.65 5.14,20.09 13.68,25.9 l 14.01,9.3 c 0,0 16.69,11.35 23.47,15.96 6.86,8.95 8.43,15.19 8.64,20.46 -1.64,2.56 -3.4,5.2 -3.4,5.2 -9.83,15.36 -19.13,29.76 -29.96,40.75 -0.25,0.21 -0.53,0.56 -0.72,0.76 l -3.48,3.85 c -3.73,3.85 -9.65,10.2 -11.43,21.3 -0.2,1.11 -0.26,2.19 -0.26,3.36 0,2.11 0.45,4.16 0.79,6.25 -2.47,-1.15 -4.93,-2.05 -7.39,-2.61 -12.37,-2.9 -24.29,0.95 -31.87,10.35 -1.45,1.84 -2.86,4.15 -3.66,6.45 l -0.25,0.69 c -1.19,3.26 -2.17,5.6 -3.19,7.95 -4.61,-7.95 -24.72,-42.8 -24.72,-42.8 -63.24,-111.8 -92.18,-157.25 -124.05,-156.2 -0.55,0 -1.15,0 -1.74,0.14 -44.3,5.14 -76.82,2.7 -125.13,-1.9 -0.41,0 -0.78,0 -1.21,-0.11 h -0.74 c -1.04,0 -1.92,0 -2.99,0.15 -4.18,0.45 -8.4,2.11 -12.45,4.3 72.13,-74.8 173.2,-121.45 285.04,-121.45 218.5,0 396.25,177.81 396.25,396.31 M 199.09,269.25 c -0.99,2.91 -1.64,5.8 -1.64,8.36 v 2.29 c 0,10.55 7.78,19.5 18.2,20.95 l 2.36,0.31 c 33.03,4.5 33.42,14.99 33.42,25.25 0,0.7 -0.12,2.7 -0.22,4.69 -9.03,34.2 -18.64,52.9 -27.65,67.81 l -0.41,0.65 c -1.97,3.3 -2.99,7.05 -2.99,10.9 v 0.7 c 0,8.11 3.65,14.99 8.83,20.91 -8.97,1.9 -16.37,7.04 -20.54,14.84 -0.41,0.7 -0.74,1.46 -1.03,2.2 l -0.33,0.69 c -0.14,0.49 -0.34,1.01 -0.49,1.46 -19.04,59.59 -40.88,119.95 -68.63,189.85 -0.1,0.14 -0.28,0.41 -0.39,0.55 C 123.49,601.01 115.69,557.4 115.69,512 c 0,-91.4 31.21,-175.6 83.4,-242.75 m 312.91,639 c -127.75,0 -241.5,-60.81 -314.02,-154.89 11.06,0 22.65,0.55 34.92,2 0.41,0 0.8,0.11 1.23,0.11 h 0.71 c 1.07,0 2.15,0 3.2,0 16.18,-1.5 28.04,-14.54 29.51,-32.36 0,-0.35 0,-0.76 0,-1.05 v -1.84 c 0,-0.25 0,-0.86 0,-0.86 0,-17.86 -10.48,-32.44 -26.07,-36.45 -1.04,-0.25 -2.13,-0.41 -3.17,-0.56 -2.34,-0.2 -3.4,-0.45 -4.1,-0.9 -0.92,-6.7 -1.64,-13.39 -1.64,-19.91 0,-44.74 19.64,-100.14 59.97,-169.3 1.25,-2.15 1.29,-1.4 1.76,-3.81 l 2.27,-12.56 c 0.17,-0.86 0.25,-1.21 0.25,-1.39 0,-0.49 -0.29,-0.45 -0.51,-2.01 l -0.37,-2.15 c -0.25,-1.66 -0.7,-3.25 -1.35,-4.79 -1.66,-3.99 -4.49,-7.74 -7.81,-11.3 8.81,-1.56 16.47,-5.66 22.04,-12.21 0.47,-0.59 0.94,-1.21 1.35,-1.84 0,0 0.76,-1.15 1.21,-1.81 2.13,-1.84 3.91,-3.95 5.16,-6.55 0,0 1.8,-3.81 2.5,-5.2 0.8,-1.39 2.87,-4.69 2.87,-4.69 0.2,-0.35 0.41,-0.66 0.59,-1.05 l 3.28,-6.04 c 0.41,-0.75 0.94,-1.94 1.21,-2.7 0,0 0.32,-0.76 0.41,-0.94 68.11,34.14 136.56,267.34 144.54,356.8 -0.1,-0.66 -0.1,-1.29 -0.1,-1.9 0,17.14 9.05,31.94 23.1,37.7 5.96,2.46 12.37,2.91 19.01,1.39 2.35,-0.59 4.65,-1.55 6.69,-2.95 l 5.86,-3.81 c 3.48,-2.29 7.4,-5.85 21.87,-19.21 l 58.97,-54.11 c -0.64,0.56 -1.09,0.8 -1.76,1.36 17.51,-12.6 21.13,-29.11 23.08,-37.95 0,0 0.2,-1.05 0.2,-1.05 0.33,-1.45 0.47,-2.91 0.47,-4.44 0,-1.74 -0.16,-3.44 -0.59,-5.1 l -0.1,-0.49 c -0.21,-0.94 -0.6,-2.3 -0.99,-3.2 -9.01,-22.96 -19.27,-47.8 -32.93,-73.4 -6.14,-12.35 -9.28,-24.31 -9.28,-36.1 0,-13.85 4.06,-27.1 8.75,-42.5 5,-16.24 10.61,-34.65 12.37,-56.71 0,-0.49 0.1,-1.11 0.1,-1.66 0,-1.74 -0.22,-3.6 -0.51,-5.1 v 0 c -0.23,-1.1 -0.76,-2.19 -1.07,-3.36 0.58,0.21 1.07,0.45 1.64,0.66 3.75,1.15 14.09,3.75 23.35,1.1 1.86,-0.49 3.54,-1.45 5.28,-2.25 -0.1,0 -0.1,0.1 -0.18,0.15 0.1,-0.11 0.24,-0.15 0.41,-0.25 2.15,-1 4.24,-2.05 6.31,-3.5 1.72,1.14 3.72,3.15 6,6.94 31.54,50.85 57.53,109.2 77.39,173.75 3.34,16.06 4.88,27.2 4.88,35.6 0,10.79 -2.42,14.15 -3.55,15.36 -1.43,1.29 -5.2,4.6 -5.2,4.6 -10.4,9.26 -20.95,18.66 -29.59,23.66 l -0.95,0.55 c -4.89,2.85 -8.45,7.6 -9.85,13.05 l -0.22,0.9 c -0.9,3.4 -2.13,8.64 -2.13,14.64 0,10.65 4.05,17.76 7.41,21.79 5.04,6.04 14.65,13.01 32.07,11.7 0,0 0.8,0 0.8,0 4.3,-0.31 8.36,-1.85 11.64,-4.51 l 0.75,-0.66 c 9.32,-7.39 22.18,-13.39 38.89,-18.35 22.78,-4.09 42.99,-5.09 61.71,-4.89 C 759.83,844 643.3,908.25 512,908.25"
     id="path11"
     style="stroke-width:20.48;fill:#ffffff;fill-opacity:1" />
</svg>
