<?xml version="1.0" encoding="UTF-8" standalone="no"?>
<svg xmlns="http://www.w3.org/2000/svg" version="1.1" width="600" height="544.59363">
  <g transform="matrix(10.890784,0,0,10.890784,-3784.0437,-5525.5447)">
    <path d="m 374.9975,557.36468 -3.82875,-10.5425 -22.30875,3.8825 11.18125,-7.33 -1.42625,-0.25375 0,-15.33625 -1.79625,-5.91875 -9.365,4.96625 7.34375,-15.5225 10.3125,0 0.0725,0.23375 9.815,-4.18375 9.81875,4.18375 0.0737,-0.23375 10.3125,0 7.34375,15.5225 -9.365,-4.96625 -1.7975,5.91875 0,15.33625 -1.425,0.25375 11.18125,7.33 -22.31,-3.8825 -3.8325,10.5425 z" style="fill:#ffffff"/>
    <path d="m 374.9975,509.02968 8.6275,3.67625 -4.95125,2.12375 0,18.52125 1.5575,-1.12875 5.80125,-19.375 8.2025,0 4.94625,10.465 -6.92875,-3.6775 -2.40125,7.92 0,14.2825 -3.96,0.7075 8.1975,5.37625 -16.26,-2.8275 -2.83125,7.77375 -2.8275,-7.77375 -16.265,2.8275 8.20375,-5.37625 -3.96,-0.7075 0,-14.2825 -2.4025,-7.92 -6.92875,3.6775 4.94625,-10.465 8.20375,0 5.8,19.375 1.5575,1.12875 0,-18.52125 -4.95125,-2.12375 8.62375,-3.67625 z"/>
  </g>
</svg>
