<?xml version="1.0" encoding="UTF-8" standalone="no"?>
<svg xmlns="http://www.w3.org/2000/svg" version="1.1" width="600" height="544.59369">
  <linearGradient x1="0" y1="0" x2="1" y2="0" id="linearGradient592" gradientUnits="userSpaceOnUse" gradientTransform="matrix(23.270309,33.23346,33.23346,-23.270309,88.066406,244.63379)" spreadMethod="pad">
    <stop style="stop-color:#536e78" offset="0"/>
    <stop style="stop-color:#99aebc" offset="0.39999399"/>
    <stop style="stop-color:#d9eaf3" offset="0.5"/>
    <stop style="stop-color:#99aebc" offset="0.69999701"/>
    <stop style="stop-color:#536e78" offset="1"/>
  </linearGradient>
  <path d="m 299.97305,544.59368 -41.6981,-114.8161 -242.959784,42.28347 121.772584,-79.82945 -15.53298,-2.76353 0,-167.0238 L 101.9922,157.98444 0,212.0708 79.979199,43.0186 l 112.311211,0 L 193.08,45.56432 299.97305,0 l 106.93389,45.56432 0.80265,-2.54572 112.31121,0 L 600,212.0708 498.0078,157.98444 l -19.57618,64.45983 0,167.0238 -15.51937,2.76353 121.77258,79.82945 -242.9734,-42.28347 -41.73893,114.8161 z"/>
  <g transform="matrix(13.613481,0,0,-13.613481,-1057.5496,3806.5606)">
    <path d="m 92.82,275.34 3.961,-1.699 0,-14.821 -1.246,0.907 -4.64,15.5 -6.559,0 -3.961,-8.372 5.543,2.942 1.922,-6.336 0,-11.43 3.168,-0.562 -6.563,-4.301 13.012,2.262 2.266,-6.219 2.261,6.219 13.008,-2.262 -6.558,4.301 3.168,0.562 0,11.43 1.921,6.336 5.543,-2.942 -3.961,8.372 -6.558,0 -4.641,-15.5 -1.246,-0.907 0,14.821 3.961,1.699 -6.898,2.941 -6.903,-2.941 z" style="fill:url(#linearGradient592)"/>
  </g>
</svg>
