<?xml version="1.0" encoding="UTF-8" standalone="no"?>
<svg xmlns="http://www.w3.org/2000/svg" version="1.1" width="600" height="544.59363">
  <g transform="matrix(10.890784,0,0,10.890784,-3784.0437,-5525.5447)">
    <path d="m 374.9975,509.02968 8.6275,3.67625 -4.95125,2.12375 0,18.52125 1.5575,-1.12875 5.80125,-19.375 8.2025,0 4.94625,10.465 -6.92875,-3.6775 -2.40125,7.92 0,14.2825 -3.96,0.7075 8.1975,5.37625 -16.26,-2.8275 -2.83125,7.77375 -2.8275,-7.77375 -16.265,2.8275 8.20375,-5.37625 -3.96,-0.7075 0,-14.2825 -2.4025,-7.92 -6.92875,3.6775 4.94625,-10.465 8.20375,0 5.8,19.375 1.5575,1.12875 0,-18.52125 -4.95125,-2.12375 8.62375,-3.67625 z"/>
  </g>
</svg>
