<?xml version="1.0" encoding="UTF-8" standalone="no"?>
<svg
   xmlns:dc="http://purl.org/dc/elements/1.1/"
   xmlns:cc="http://creativecommons.org/ns#"
   xmlns:rdf="http://www.w3.org/1999/02/22-rdf-syntax-ns#"
   xmlns:svg="http://www.w3.org/2000/svg"
   xmlns="http://www.w3.org/2000/svg"
   xmlns:xlink="http://www.w3.org/1999/xlink"
   xmlns:sodipodi="http://sodipodi.sourceforge.net/DTD/sodipodi-0.dtd"
   xmlns:inkscape="http://www.inkscape.org/namespaces/inkscape"
   width="139.01788mm"
   height="151.82742mm"
   viewBox="0 0 139.01788 151.82742"
   version="1.1"
   id="svg8"
   inkscape:version="1.0 (4035a4fb49, 2020-05-01)"
   sodipodi:docname="R.svg">
  <defs
     id="defs2">
    <linearGradient
       inkscape:collect="always"
       id="linearGradient1102">
<stop style="stop-color:#bf331c" offset="0" />
<stop style="stop-color:#d3641c" offset="0.25" />
<stop style="stop-color:#f4a51f" offset="0.5" />
<stop style="stop-color:#d3641c" offset="0.75" />
<stop style="stop-color:#bf331c" offset="1" />
    </linearGradient>
    <linearGradient
       inkscape:collect="always"
       xlink:href="#linearGradient1102"
       id="linearGradient1104"
       x1="720.35773"
       y1="365.12585"
       x2="1146.365"
       y2="365.12585"
       gradientUnits="userSpaceOnUse" />
  </defs>
  <sodipodi:namedview
     id="base"
     pagecolor="#ffffff"
     bordercolor="#666666"
     borderopacity="1.0"
     inkscape:pageopacity="0.0"
     inkscape:pageshadow="2"
     inkscape:zoom="0.98994949"
     inkscape:cx="206.65594"
     inkscape:cy="273.95228"
     inkscape:document-units="mm"
     inkscape:current-layer="layer2"
     inkscape:document-rotation="0"
     showgrid="false"
     showguides="false"
     inkscape:pagecheckerboard="true"
     inkscape:window-width="1920"
     inkscape:window-height="1018"
     inkscape:window-x="-6"
     inkscape:window-y="-6"
     inkscape:window-maximized="1" />
  <metadata
     id="metadata5">
    <rdf:RDF>
      <cc:Work
         rdf:about="">
        <dc:format>image/svg+xml</dc:format>
        <dc:type
           rdf:resource="http://purl.org/dc/dcmitype/StillImage" />
        <dc:title></dc:title>
      </cc:Work>
    </rdf:RDF>
  </metadata>
  <g
     inkscape:groupmode="layer"
     id="layer2"
     inkscape:label="Layer 2"
     style="display:inline;opacity:1"
     transform="translate(-177.44291,-20.584275)">
    <path
       id="path848"
       style="display:inline;opacity:1;fill:#000000;fill-opacity:1;stroke:none;stroke-width:1.00157;stroke-linecap:butt;stroke-linejoin:miter;stroke-miterlimit:4;stroke-dasharray:none;stroke-opacity:1"
       d="m 779.09766,562.37305 c -33.3089,-29.59472 -65.67281,-76.1713 -84.72461,-110.23047 v -18.06641 h 20.92187 c 11.82184,-3.2473 21.58653,-6.80176 30.71485,-14.79101 -6.99055,-11.49952 -13.87434,-23.05781 -20.54493,-34.7461 l -54.81445,-45.65234 55.56836,-45.35547 c 5.68293,-11.76178 11.75291,-23.07254 19.58203,-33.53125 -9.78155,-7.21377 -18.61566,-12.6628 -30.50586,-14.79102 -6.88468,-1.1123 -20.92187,0 -20.92187,0 v -98.78125 c 37.64991,-21.85351 70.11263,-38.20969 111.30468,-50.503902 39.54841,-11.408878 83.42953,-17.091881 127.6836,-18.124992 44.25408,1.033103 88.13517,6.716114 127.68357,18.124996 41.1921,12.294198 73.6548,28.650408 111.3047,50.503898 v 98.78124 c 0,0 -14.0372,-1.11231 -20.9219,0 -11.8901,2.12822 -20.7243,7.57728 -30.5058,14.79103 7.8291,10.45871 13.8991,21.76948 19.582,33.53126 l 55.5684,45.35546 -54.8145,45.65236 c -6.6706,11.68826 -13.5544,23.24659 -20.5449,34.7461 9.1283,7.98924 18.893,11.5437 30.7148,14.791 h 20.9219 v 18.0664 c -19.0518,34.05922 -51.4157,80.63577 -84.7246,110.23049 -45.6168,40.53007 -69.1782,64.54545 -154.26367,89.2617 -85.08548,-24.71626 -108.64689,-48.73162 -154.26367,-89.26172 z"
       transform="scale(0.26458333)"
       sodipodi:nodetypes="scccccccccccccccccccccccccscs" />
    <path
       id="path1053"
       style="display:inline;opacity:1;fill:url(#linearGradient1104);fill-opacity:1;stroke:none;stroke-width:0.999999px;stroke-linecap:butt;stroke-linejoin:miter;stroke-opacity:1"
       d="m 920.67012,237.95096 c -12.99855,37.27799 -38.78417,58.82666 -76.741,67.76333 C 858.34369,275.20677 873.51446,258.62719 902.14258,240 889.98201,194.098 859.46594,160.76373 817.85687,137.50028 v 53.21456 c -17.83697,17.83444 -29.71743,28.24566 -49.2846,54.02615 -14.78265,-12.93745 -27.95937,-20.70731 -48.21457,-24.02726 v -60.35659 c 67.25028,-36.58711 129.59677,-55.35799 213.00363,-55.35799 83.40687,-1e-5 145.75337,18.77087 213.00367,55.35799 v 60.35659 c -20.2552,3.31995 -34.1459,12.42025 -48.9286,25.3577 -14.5164,-21.61361 -30.7336,-37.52215 -48.5706,-55.3566 V 137.50027 C 1007.2567,160.76373 976.74064,194.098 964.58008,240 c 28.62811,18.62719 43.79882,35.20677 58.21342,65.71429 -37.95681,-8.93667 -63.74241,-30.48534 -76.74097,-67.76333 -6.1336,-17.81958 -12.6912,-55.09409 -12.6912,-55.09409 0,0 -6.55762,37.27451 -12.69121,55.09409 z M 726.42773,457.85742 c 14.00996,-3.57151 30.54026,-12.14976 42.14454,-25 15.05671,19.47257 31.29436,38.69192 49.54042,55.24053 l -0.25582,51.18721 c 41.83507,-20.77454 70.89939,-54.76245 84.28626,-100.71289 -27.48524,-17.28394 -44.28079,-34.55749 -57.14397,-65.00084 30.9976,5.25914 56.67646,25.36517 70.00084,52.8563 10.06286,22.93467 18.36133,72.85743 18.36133,72.85743 0,0 8.29845,-49.92276 18.36133,-72.85743 13.32438,-27.49111 39.00325,-47.59717 70.00084,-52.8563 -12.8632,30.44337 -29.65873,47.7169 -57.14399,65.00083 13.3869,45.95044 42.45119,79.93834 84.28629,100.71289 v -52.14259 c 18.2461,-16.54859 34.2279,-34.81255 49.2846,-54.28513 11.6043,12.85024 28.1346,21.42848 42.1445,24.99999 -54.7514,82.22067 -117.4612,138.67015 -206.93357,167.39512 -89.47236,-28.72496 -152.1822,-85.17444 -206.9336,-167.39512 z"
       transform="scale(0.26458333)"
       sodipodi:nodetypes="cccccccczccccccccccccccccccccccccccc" />
    <path
       sodipodi:nodetypes="ccccccccccccccccccccccccc"
       id="path957-6"
       d="m 276.38545,94.220611 c -3.03623,10.224179 -7.4139,16.911999 -16.34258,23.377979 2.5456,7.18878 6.91255,13.07893 13.22173,17.77342 v -7.48354 c 9.63663,-10.10328 18.10363,-19.99099 24.196,-33.141425 l 6.5481,-4.944489 -6.54809,-4.944488 c -6.09237,-13.150432 -14.55937,-23.038141 -24.196,-33.14142 v -7.483541 c -6.30918,4.69449 -10.67613,10.58464 -13.22174,17.77342 8.92868,6.46598 13.30636,13.1538 16.34258,23.37798 -14.43347,-0.13058 -23.92628,-6.934489 -29.4336,-19.903478 -5.50732,12.968992 -15.00013,19.772902 -29.4336,19.903482 3.03622,-10.22418 7.4139,-16.912 16.34258,-23.37798 -2.54561,-7.18878 -6.91256,-13.07893 -13.22174,-17.77342 v 7.483541 c -9.63663,10.103279 -18.10363,19.990989 -24.196,33.141419 l -6.54809,4.94449 6.5481,4.944486 c 6.09237,13.150433 14.55937,23.038143 24.196,33.141423 v 7.48354 c 6.30918,-4.69449 10.67613,-10.58464 13.22173,-17.77342 -8.92868,-6.46598 -13.30635,-13.1538 -16.34258,-23.377975 14.43348,0.13058 23.92628,6.934485 29.4336,19.903475 5.50732,-12.96899 15.00012,-19.772899 29.4336,-19.903479 z"
       style="display:inline;opacity:1;fill:#ffffff;fill-opacity:1;stroke:none;stroke-width:0.264583px;stroke-linecap:butt;stroke-linejoin:miter;stroke-opacity:1"
       inkscape:label="path957" />
  </g>
</svg>
