<?xml version="1.0" encoding="UTF-8" standalone="no"?>
<svg
   width="139.01788mm"
   height="151.82742mm"
   viewBox="0 0 139.01788 151.82742"
   version="1.1"
   id="svg8"
   inkscape:version="1.1.1 (3bf5ae0d25, 2021-09-20)"
   sodipodi:docname="T.svg"
   xmlns:inkscape="http://www.inkscape.org/namespaces/inkscape"
   xmlns:sodipodi="http://sodipodi.sourceforge.net/DTD/sodipodi-0.dtd"
   xmlns:xlink="http://www.w3.org/1999/xlink"
   xmlns="http://www.w3.org/2000/svg"
   xmlns:svg="http://www.w3.org/2000/svg"
   xmlns:rdf="http://www.w3.org/1999/02/22-rdf-syntax-ns#"
   xmlns:cc="http://creativecommons.org/ns#"
   xmlns:dc="http://purl.org/dc/elements/1.1/">
  <defs
     id="defs2">
    <linearGradient
       inkscape:collect="always"
       id="linearGradient1102">
      <stop
         style="stop-color:#612c75"
         offset="0"
         id="stop2" />
      <stop
         style="stop-color:#7b5190"
         offset="0.3"
         id="stop4" />
      <stop
         style="stop-color:#bf99c3"
         offset="0.5"
         id="stop6" />
      <stop
         style="stop-color:#7b5190"
         offset="0.7"
         id="stop8" />
      <stop
         style="stop-color:#612c75"
         offset="1"
         id="stop10" />
    </linearGradient>
    <linearGradient
       inkscape:collect="always"
       xlink:href="#linearGradient1102"
       id="linearGradient1104"
       x1="720.35773"
       y1="365.12585"
       x2="1146.365"
       y2="365.12585"
       gradientUnits="userSpaceOnUse" />
  </defs>
  <sodipodi:namedview
     id="base"
     pagecolor="#ffffff"
     bordercolor="#666666"
     borderopacity="1.0"
     inkscape:pageopacity="0.0"
     inkscape:pageshadow="2"
     inkscape:zoom="0.98995"
     inkscape:cx="206.07"
     inkscape:cy="273.75"
     inkscape:document-units="mm"
     inkscape:current-layer="layer2"
     inkscape:document-rotation="0"
     showgrid="false"
     showguides="false"
     inkscape:pagecheckerboard="true"
     inkscape:window-width="1920"
     inkscape:window-height="986"
     inkscape:window-x="-11"
     inkscape:window-y="-11"
     inkscape:window-maximized="1" />
  <metadata
     id="metadata5">
    <rdf:RDF>
      <cc:Work
         rdf:about="">
        <dc:format>image/svg+xml</dc:format>
        <dc:type
           rdf:resource="http://purl.org/dc/dcmitype/StillImage" />
        <dc:title />
      </cc:Work>
    </rdf:RDF>
  </metadata>
  <g
     inkscape:groupmode="layer"
     id="layer2"
     inkscape:label="Layer 2"
     style="display:inline;opacity:1"
     transform="translate(-177.44,-20.584)">
    <path
       id="path848"
       style="display:inline;opacity:1;fill:#ffffff;fill-opacity:1;stroke:none;stroke-width:1.00157;stroke-linecap:butt;stroke-linejoin:miter;stroke-miterlimit:4;stroke-dasharray:none;stroke-opacity:1"
       d="M 779.1,562.37 C 745.79,532.78 713.42,486.2 694.37,452.14 v -18.06 h 20.92 c 11.83,-3.25 21.59,-6.81 30.72,-14.79 -6.99,-11.5 -13.87,-23.06 -20.55,-34.75 l -54.81,-45.65 55.57,-45.36 c 5.68,-11.76 11.75,-23.07 19.58,-33.53 -9.78,-7.21 -18.61,-12.66 -30.51,-14.79 -6.88,-1.11 -20.92,0 -20.92,0 v -98.78 c 37.65,-21.86 70.12,-38.21 111.31,-50.506 39.55,-11.409 83.43,-17.092 127.68,-18.125 44.26,1.033 88.14,6.716 127.64,18.125 41.2,12.296 73.7,28.646 111.3,50.506 v 98.78 c 0,0 -14,-1.11 -20.9,0 -11.9,2.13 -20.7,7.58 -30.5,14.79 7.9,10.46 13.9,21.77 19.6,33.53 l 55.6,45.36 -54.8,45.65 c -6.7,11.69 -13.6,23.25 -20.6,34.75 9.1,7.98 18.9,11.54 30.7,14.79 h 20.9 v 18.06 c -19,34.06 -51.4,80.64 -84.7,110.23 -45.6,40.53 -69.2,64.55 -154.24,89.26 C 848.28,626.92 824.71,602.9 779.1,562.37 Z"
       transform="scale(0.26458)"
       sodipodi:nodetypes="scccccccccccccccccccccccccscs" />
    <path
       id="path1053"
       style="display:inline;opacity:1;fill:url(#linearGradient1104);fill-opacity:1;stroke:none;stroke-width:0.999999px;stroke-linecap:butt;stroke-linejoin:miter;stroke-opacity:1"
       d="m 920.67,237.95 c -13,37.28 -38.78,58.83 -76.74,67.76 14.41,-30.5 29.58,-47.08 58.21,-65.71 -12.16,-45.9 -42.67,-79.24 -84.28,-102.5 v 53.21 c -17.84,17.84 -29.72,28.25 -49.29,54.03 -14.78,-12.94 -27.96,-20.71 -48.21,-24.03 v -60.35 c 67.25,-36.59 129.59,-55.36 213,-55.36 83.44,0 145.74,18.77 213.04,55.36 v 60.35 c -20.3,3.32 -34.2,12.42 -49,25.36 -14.5,-21.61 -30.7,-37.52 -48.5,-55.36 V 137.5 c -41.6,23.26 -72.16,56.6 -84.32,102.5 28.63,18.63 43.82,35.21 58.22,65.71 -37.96,-8.93 -63.75,-30.48 -76.75,-67.76 -6.13,-17.82 -12.69,-55.09 -12.69,-55.09 0,0 -6.56,37.27 -12.69,55.09 z M 726.43,457.86 c 14.01,-3.57 30.54,-12.15 42.14,-25 15.06,19.47 31.3,38.69 49.54,55.24 l -0.25,51.19 c 41.83,-20.78 70.9,-54.77 84.28,-100.72 -27.48,-17.28 -44.28,-34.56 -57.14,-65 31,5.26 56.68,25.37 70,52.86 10.06,22.93 18.36,72.86 18.36,72.86 0,0 8.3,-49.93 18.36,-72.86 13.33,-27.49 39.01,-47.6 69.98,-52.86 -12.8,30.44 -29.64,47.72 -57.12,65 13.39,45.95 42.42,79.94 84.32,100.72 v -52.15 c 18.2,-16.55 34.2,-34.81 49.3,-54.28 11.6,12.85 28.1,21.43 42.1,25 -54.8,82.22 -117.5,138.67 -206.94,167.39 C 843.89,596.53 781.18,540.08 726.43,457.86 Z"
       transform="scale(0.26458)"
       sodipodi:nodetypes="cccccccczccccccccccccccccccccccccccc" />
    <path
       sodipodi:nodetypes="ccccccccccccccccccccccccc"
       id="path957-6"
       d="m 276.39,94.221 c -3.04,10.219 -7.42,16.909 -16.35,23.379 2.55,7.19 6.92,13.08 13.22,17.77 v -7.48 c 9.64,-10.1 18.11,-19.99 24.2,-33.143 l 6.55,-4.944 -6.55,-4.945 C 291.37,71.708 282.9,61.82 273.26,51.717 v -7.484 c -6.3,4.695 -10.67,10.585 -13.22,17.774 8.93,6.466 13.31,13.153 16.35,23.378 -14.44,-0.131 -23.93,-6.935 -29.44,-19.904 -5.51,12.969 -15,19.773 -29.43,19.904 3.03,-10.225 7.41,-16.912 16.34,-23.378 -2.54,-7.189 -6.91,-13.079 -13.22,-17.774 v 7.484 C 211,61.82 202.54,71.708 196.44,84.858 l -6.55,4.945 6.55,4.944 c 6.1,13.153 14.56,23.043 24.2,33.143 v 7.48 c 6.31,-4.69 10.68,-10.58 13.22,-17.77 -8.93,-6.47 -13.31,-13.16 -16.34,-23.379 14.43,0.13 23.92,6.939 29.43,19.899 5.51,-12.96 15,-19.769 29.44,-19.899 z"
       style="display:inline;opacity:1;fill:#ffffff;fill-opacity:1;stroke:none;stroke-width:0.264583px;stroke-linecap:butt;stroke-linejoin:miter;stroke-opacity:1"
       inkscape:label="path957" />
  </g>
</svg>
