<?xml version="1.0" encoding="UTF-8" standalone="no"?>
<svg
   xmlns:dc="http://purl.org/dc/elements/1.1/"
   xmlns:cc="http://creativecommons.org/ns#"
   xmlns:rdf="http://www.w3.org/1999/02/22-rdf-syntax-ns#"
   xmlns:svg="http://www.w3.org/2000/svg"
   xmlns="http://www.w3.org/2000/svg"
   xmlns:sodipodi="http://sodipodi.sourceforge.net/DTD/sodipodi-0.dtd"
   xmlns:inkscape="http://www.inkscape.org/namespaces/inkscape"
   sodipodi:docname="C.svg"
   inkscape:version="1.0 (4035a4fb49, 2020-05-01)"
   id="svg8"
   version="1.1"
   viewBox="0 0 139.01788 151.82742"
   height="151.82742mm"
   width="139.01788mm">
  <defs
     id="defs2" />
  <sodipodi:namedview
     inkscape:window-maximized="1"
     inkscape:window-y="-6"
     inkscape:window-x="-6"
     inkscape:window-height="1018"
     inkscape:window-width="1920"
     inkscape:pagecheckerboard="true"
     showguides="false"
     showgrid="false"
     inkscape:document-rotation="0"
     inkscape:current-layer="layer2"
     inkscape:document-units="mm"
     inkscape:cy="273.95228"
     inkscape:cx="206.65594"
     inkscape:zoom="0.98994949"
     inkscape:pageshadow="2"
     inkscape:pageopacity="0.0"
     borderopacity="1.0"
     bordercolor="#666666"
     pagecolor="#ffffff"
     id="base" />
  <metadata
     id="metadata5">
    <rdf:RDF>
      <cc:Work
         rdf:about="">
        <dc:format>image/svg+xml</dc:format>
        <dc:type
           rdf:resource="http://purl.org/dc/dcmitype/StillImage" />
        <dc:title></dc:title>
      </cc:Work>
    </rdf:RDF>
  </metadata>
  <g
     transform="translate(-177.44291,-20.584275)"
     style="display:inline;opacity:1"
     inkscape:label="Layer 2"
     id="layer2"
     inkscape:groupmode="layer">
    <path
       sodipodi:nodetypes="scccccccccccccccccccccccccscs"
       transform="scale(0.26458333)"
       d="m 779.09766,562.37305 c -33.3089,-29.59472 -65.67281,-76.1713 -84.72461,-110.23047 v -18.06641 h 20.92187 c 11.82184,-3.2473 21.58653,-6.80176 30.71485,-14.79101 -6.99055,-11.49952 -13.87434,-23.05781 -20.54493,-34.7461 l -54.81445,-45.65234 55.56836,-45.35547 c 5.68293,-11.76178 11.75291,-23.07254 19.58203,-33.53125 -9.78155,-7.21377 -18.61566,-12.6628 -30.50586,-14.79102 -6.88468,-1.1123 -20.92187,0 -20.92187,0 v -98.78125 c 37.64991,-21.85351 70.11263,-38.20969 111.30468,-50.503902 39.54841,-11.408878 83.42953,-17.091881 127.6836,-18.124992 44.25408,1.033103 88.13517,6.716114 127.68357,18.124996 41.1921,12.294198 73.6548,28.650408 111.3047,50.503898 v 98.78124 c 0,0 -14.0372,-1.11231 -20.9219,0 -11.8901,2.12822 -20.7243,7.57728 -30.5058,14.79103 7.8291,10.45871 13.8991,21.76948 19.582,33.53126 l 55.5684,45.35546 -54.8145,45.65236 c -6.6706,11.68826 -13.5544,23.24659 -20.5449,34.7461 9.1283,7.98924 18.893,11.5437 30.7148,14.791 h 20.9219 v 18.0664 c -19.0518,34.05922 -51.4157,80.63577 -84.7246,110.23049 -45.6168,40.53007 -69.1782,64.54545 -154.26367,89.2617 -85.08548,-24.71626 -108.64689,-48.73162 -154.26367,-89.26172 z"
       style="display:inline;opacity:1;fill:#000000;fill-opacity:1;stroke:none;stroke-width:1.00157;stroke-linecap:butt;stroke-linejoin:miter;stroke-miterlimit:4;stroke-dasharray:none;stroke-opacity:1"
       id="path848" />
    <path
       inkscape:label="CommonLayer"
       id="path1071-4"
       style="display:inline;opacity:1;fill:#ffffff;fill-opacity:1;stroke:none;stroke-width:0.264583px;stroke-linecap:butt;stroke-linejoin:miter;stroke-opacity:1"
       d="m 301.70303,121.14144 c -3.7068,-0.94496 -8.08044,-3.21463 -11.15074,-6.61459 3.27166,-4.3828 6.87112,-10.73546 9.78891,-16.573729 L 310.55214,89.640622 300.3412,81.32812 c -3.04608,-6.262182 -5.62533,-10.590199 -9.78891,-16.573738 3.91124,-3.423034 7.39758,-5.478809 12.75677,-6.357213 V 42.427822 c -17.7933,-9.68034 -34.28914,-14.646802 -56.35721,-14.6468 -22.06807,3e-6 -38.56391,4.966465 -56.35721,14.646804 v 15.969348 c 5.35919,0.878403 8.84553,2.934179 12.75677,6.357212 -4.16358,5.983539 -6.74283,10.311556 -9.78891,16.573738 l -10.21094,8.312502 10.21094,8.312499 c 2.91779,5.838265 6.51726,12.190935 9.78891,16.573735 -3.0703,3.39996 -7.44394,5.66962 -11.15074,6.61458 14.48631,21.75422 31.07828,36.68981 54.75118,44.28996 23.6729,-7.60015 40.26488,-22.53574 54.75118,-44.28996 z"
       sodipodi:nodetypes="ccccccccccccccccccc" />
    <path
       inkscape:label="path957"
       style="display:inline;opacity:1;fill:#000000;fill-opacity:1;stroke:none;stroke-width:0.264583px;stroke-linecap:butt;stroke-linejoin:miter;stroke-opacity:1"
       d="m 276.38545,94.220611 c -3.03623,10.224179 -7.4139,16.911999 -16.34258,23.377979 2.5456,7.18878 6.91255,13.07893 13.22173,17.77342 v -7.48354 c 9.63663,-10.10328 18.10363,-19.99099 24.196,-33.141425 l 6.5481,-4.944489 -6.54809,-4.944488 c -6.09237,-13.150432 -14.55937,-23.038141 -24.196,-33.14142 v -7.483541 c -6.30918,4.69449 -10.67613,10.58464 -13.22174,17.77342 8.92868,6.46598 13.30636,13.1538 16.34258,23.37798 -14.43347,-0.13058 -23.92628,-6.934489 -29.4336,-19.903478 -5.50732,12.968992 -15.00013,19.772902 -29.4336,19.903482 3.03622,-10.22418 7.4139,-16.912 16.34258,-23.37798 -2.54561,-7.18878 -6.91256,-13.07893 -13.22174,-17.77342 v 7.483541 c -9.63663,10.103279 -18.10363,19.990989 -24.196,33.141419 l -6.54809,4.94449 6.5481,4.944486 c 6.09237,13.150433 14.55937,23.038143 24.196,33.141423 v 7.48354 c 6.30918,-4.69449 10.67613,-10.58464 13.22173,-17.77342 -8.92868,-6.46598 -13.30635,-13.1538 -16.34258,-23.377975 14.43348,0.13058 23.92628,6.934485 29.4336,19.903475 5.50732,-12.96899 15.00012,-19.772899 29.4336,-19.903479 z"
       id="path957-6"
       sodipodi:nodetypes="ccccccccccccccccccccccccc" />
  </g>
</svg>
