<?xml version="1.0" encoding="UTF-8" standalone="no"?>
<svg
   viewBox="0 0 1024 962.79"
   version="1.1"
   width="1024"
   height="962.79"
   xmlns:xlink="http://www.w3.org/1999/xlink"
   xmlns="http://www.w3.org/2000/svg">
    <linearGradient
       id="linearGradient12304">
      <stop
         style="stop-color:#536e78;stop-opacity:1"
         offset="0"
         id="stop12300" />
      <stop
         style="stop-color:#99aebc;stop-opacity:1"
         offset="0.25"
         id="stop13398" />
      <stop
         style="stop-color:#d9eaf3;stop-opacity:1"
         offset="0.5"
         id="stop13140" />
      <stop
         style="stop-color:#99aebc;stop-opacity:1"
         offset="0.75"
         id="stop13464" />
      <stop
         style="stop-color:#536e78;stop-opacity:1"
         offset="1"
         id="stop12302" />
    </linearGradient>
    <linearGradient
       xlink:href="#linearGradient12304"
       id="linearGradient12306"
       x1="88.633"
       y1="32.576"
       x2="340.76"
       y2="289.22"
       gradientUnits="userSpaceOnUse"
       gradientTransform="matrix(3.1768,0,0,3.1768,-159.67,-44.075)"/>
  <path
     d="m 20.898,665.13 c 13.262,48.09 41.66,49.52 41.66,49.52 l 30.5,-184.82 57.892,-21.38 14.14,-98.87 84.88,-19.34 L 354.31,106.18 575.29,2.2506 c 16.86,-6.938 42.79,1.8903 50.22,30.3114 l 62.14,255.688 c 0,0 50.32,21.92 94.7,49.86 L 898.68,632.5 c 45.34,53.66 53.18,65.98 84.89,125.58 15.09,-14.49 25.03,-38.44 33.63,-55.91 19.5,18.96 17.5,254.62 -298.23,260.62 C 387.03,949.77 390.36,744.99 121.72,804.27 17.604,820.6 -30.88,729.36 20.898,665.13 Z M 570.77,604.58 c -81.26,-13.76 -134.56,80.4 -68.33,167.48 41.97,-46.19 115.67,-95.02 201.22,-47.37 -55.02,9.82 -94.45,109.47 17.6,144.67 83.71,16.9 145.27,-6.42 201.69,-55.66 L 813.01,638.38 735.68,403.83 l -73.16,-28.78 -7.97,201.89 -63.73,-222.95 4.54,-86.17 -54,-208.414 -146.07,72.264 -132.32,345.77 -13.03,-33.93 -47.9,8.07 -10.55,95.37 -51.89,17.92 -17.71,145.52 c 44.82,-22.26 77.22,-62.1 103.69,-86.37 166.34,-158.37 327.06,-80.47 345.19,-19.44 z"/>
  <path
     d="m 570.77,604.58 c -81.26,-13.76 -134.56,80.4 -68.33,167.48 41.97,-46.19 115.67,-95.02 201.22,-47.37 -55.02,9.82 -94.45,109.47 17.6,144.67 83.71,16.9 145.27,-6.42 201.69,-55.66 L 813.01,638.38 735.68,403.83 l -73.16,-28.78 -7.97,201.89 -63.73,-222.95 4.54,-86.17 -54,-208.414 -146.07,72.264 -132.32,345.77 -13.03,-33.93 -47.9,8.07 -10.55,95.37 -51.89,17.92 -17.71,145.52 c 44.82,-22.26 77.23,-62.1 103.69,-86.37 166.34,-158.37 327.06,-80.47 345.19,-19.44 z"
     style="fill:url(#linearGradient12306)"/>
</svg>
