<?xml version="1.0" encoding="UTF-8" standalone="no"?>
<svg xmlns="http://www.w3.org/2000/svg" version="1.1" width="600" height="581.32867">
  <path d="M 7.2086314,142.32687 C 5.9151472,156.17732 1.9910938,197.74322 1.9910938,197.74322 1.8166914,199.44365 0,221.98515 0,255.36867 c 0,29.40134 1.4242861,67.10132 6.6418237,106.38545 15.9578173,120.0179 58.6573313,192.62742 126.8341263,215.6776 23.05018,7.71731 74.03381,8.61839 103.159,-42.29257 l 3.06658,-5.46461 c 11.17628,-19.4604 23.77686,-41.6095 36.21756,-59.32587 13.05111,-18.55932 20.82655,-24.91048 24.06753,-26.9597 3.24097,2.04922 11.01641,8.40038 24.06752,26.9597 12.49884,17.71637 25.09941,39.86547 36.2757,59.32587 l 3.06657,5.46461 c 29.06706,50.91096 80.10883,49.95174 102.9846,42.35071 68.3512,-23.10832 110.99258,-95.71784 126.9504,-215.73574 5.84248,-43.9494 6.85983,-86.06757 6.64182,-113.65221 l -4.49086,-119.00056 c 0,0 -0.90108,1.01735 -0.95921,1.07549 -1.24989,-1.87483 -7.4993,-11.35069 -7.4993,-11.35069 C 583.84101,114.00102 506.23196,0 302.13758,0 l -6.52556,0 C 91.517646,0 13.908589,114.00102 10.74028,118.82615 l -3.5316486,23.50072 z" style="fill:#808080"/>
  <path d="m 465.98861,383.32188 c 40.41775,0 56.94237,-15.55088 57.45105,-33.20912 0.79992,-23.61699 -26.9161,-50.30055 -64.03474,-50.30055 -58.6428,0 -101.34231,69.32495 -101.34231,69.32495 22.59964,8.61838 66.3601,14.18472 78.85894,14.18472 l 29.06706,0 z m -295.72829,0 c 12.55697,0 56.31743,-5.56634 78.85894,-14.18472 0,0 -42.69952,-69.32495 -101.34232,-69.32495 -37.0605,0 -64.775944,26.68356 -64.034734,50.30055 0.566227,17.65824 17.033294,33.20912 57.451054,33.20912 l 29.06706,0 z M 299.18727,27.65731 c -191.5374,0 -261.763427,106.44358 -261.763427,106.44358 0,0 21.277089,48.9344 100.019757,53.19272 0,0 63.87487,-63.87487 163.90917,-63.87487 l 2.26723,0 c 100.03429,0 163.89463,63.87487 163.89463,63.87487 78.68454,-4.25832 99.97616,-53.19272 99.97616,-53.19272 0,0 -70.22602,-106.44358 -261.76343,-106.44358 l -6.54009,0 z m 6.69996,225.604 c 225.61854,0 268.18725,-53.19272 268.18725,-53.19272 0,0 25.49181,304.34667 -112.79474,351.18824 0,0 -44.6906,14.86781 -70.22602,-29.80827 C 365.50377,476.77249 331.43718,415.00498 303.7944,415.00498 l -0.3488,0 c -27.64278,0 -61.70938,61.76751 -87.25932,106.44358 -25.53542,44.67608 -70.22603,29.80827 -70.22603,29.80827 C 7.6155703,504.41526 33.165518,200.06859 33.165518,200.06859 c 0,0 42.568713,53.19272 268.187252,53.19272 l 4.53446,0 z"/>
</svg>
