<?xml version="1.0" encoding="UTF-8" standalone="no"?>
<svg xmlns="http://www.w3.org/2000/svg" version="1.1" width="600" height="581.32867">
  <radialGradient cx="0" cy="0" r="1" fx="0" fy="0" id="radialGradient872" gradientUnits="userSpaceOnUse" gradientTransform="matrix(17.866348,0,0,-17.866348,219.49805,34.885742)" spreadMethod="pad">
    <stop style="stop-color:#f6b91d" offset="0"/>
    <stop style="stop-color:#d3641c" offset="0.7"/>
    <stop style="stop-color:#bf331c" offset="1"/>
  </radialGradient>
  <path d="M 7.2086314,142.32687 C 5.9151472,156.17732 1.9910938,197.74322 1.9910938,197.74322 1.8166914,199.44365 0,221.98515 0,255.36867 c 0,29.40134 1.4242861,67.10132 6.6418237,106.38545 15.9578173,120.0179 58.6573313,192.62742 126.8341263,215.6776 23.05018,7.71731 74.03381,8.61839 103.159,-42.29257 l 3.06658,-5.46461 c 11.17628,-19.4604 23.77686,-41.6095 36.21756,-59.32587 13.05111,-18.55932 20.82655,-24.91048 24.06753,-26.9597 3.24097,2.04922 11.01641,8.40038 24.06752,26.9597 12.49884,17.71637 25.09941,39.86547 36.2757,59.32587 l 3.06657,5.46461 c 29.06706,50.91096 80.10883,49.95174 102.9846,42.35071 68.3512,-23.10832 110.99258,-95.71784 126.9504,-215.73574 5.84248,-43.9494 6.85983,-86.06757 6.64182,-113.65221 l -4.49086,-119.00056 c 0,0 -0.90108,1.01735 -0.95921,1.07549 -1.24989,-1.87483 -7.4993,-11.35069 -7.4993,-11.35069 C 583.84101,114.00102 506.23196,0 302.13758,0 l -6.52556,0 C 91.517646,0 13.908589,114.00102 10.74028,118.82615 l -3.5316486,23.50072 z" style="fill:#ffffff"/>
  <path d="m 465.98861,383.32188 c 40.41775,0 56.94237,-15.55088 57.45105,-33.20912 0.79992,-23.61699 -26.9161,-50.30055 -64.03474,-50.30055 -58.6428,0 -101.34231,69.32495 -101.34231,69.32495 22.59964,8.61838 66.3601,14.18472 78.85894,14.18472 l 29.06706,0 z m -295.72829,0 c 12.55697,0 56.31743,-5.56634 78.85894,-14.18472 0,0 -42.69952,-69.32495 -101.34232,-69.32495 -37.0605,0 -64.775944,26.68356 -64.034734,50.30055 0.566227,17.65824 17.033294,33.20912 57.451054,33.20912 l 29.06706,0 z M 299.18727,27.65731 c -191.5374,0 -261.763427,106.44358 -261.763427,106.44358 0,0 21.277089,48.9344 100.019757,53.19272 0,0 63.87487,-63.87487 163.90917,-63.87487 l 2.26723,0 c 100.03429,0 163.89463,63.87487 163.89463,63.87487 78.68454,-4.25832 99.97616,-53.19272 99.97616,-53.19272 0,0 -70.22602,-106.44358 -261.76343,-106.44358 l -6.54009,0 z m 6.69996,225.604 c 225.61854,0 268.18725,-53.19272 268.18725,-53.19272 0,0 25.49181,304.34667 -112.79474,351.18824 0,0 -44.6906,14.86781 -70.22602,-29.80827 C 365.50377,476.77249 331.43718,415.00498 303.7944,415.00498 l -0.3488,0 c -27.64278,0 -61.70938,61.76751 -87.25932,106.44358 -25.53542,44.67608 -70.22603,29.80827 -70.22603,29.80827 C 7.6155703,504.41526 33.165518,200.06859 33.165518,200.06859 c 0,0 42.568713,53.19272 268.187252,53.19272 l 4.53446,0 z" style="fill:#bf331c"/>
  <g transform="matrix(14.533531,0,0,-14.533531,-2886.4901,797.64379)">
    <path d="m 219.195,52.43 c -11.297,0 -16.355,-5.551 -17.363,-6.821 l 0,0 c 0.457,-0.742 2.051,-2.757 6.031,-3.047 l 0,0 c 0.926,0.844 5.16,4.376 11.481,4.376 l 0,0 0.156,0 c 6.32,0 10.555,-3.532 11.48,-4.376 l 0,0 c 3.981,0.29 5.571,2.305 6.028,3.047 l 0,0 c -1.008,1.27 -6.063,6.821 -17.363,6.821 l 0,0 -0.45,0 z m 0.461,-15.524 -0.312,0 c -11.465,0 -16.211,2.004 -17.969,3.129 l 0,0 c -0.191,-4.211 -0.367,-19.914 7.449,-22.558 l 0,0 c 0.004,0 0.43,-0.137 1.024,-0.137 l 0,0 c 0.937,0 2.242,0.336 3.16,1.937 l 0,0 0.215,0.379 c 2.336,4.09 4.277,7.223 6.289,7.223 l 0,0 c 1.992,0 3.937,-3.141 6.273,-7.246 l 0,0 0.207,-0.356 c 0.914,-1.601 2.223,-1.937 3.16,-1.937 l 0,0 c 0.594,0 1.02,0.137 1.02,0.137 l 0,0 c 7.82,2.644 7.64,18.347 7.449,22.558 l 0,0 c -1.762,-1.125 -6.504,-3.129 -17.965,-3.129 m 3.395,-7.937 -0.621,0.234 0.347,0.567 c 0.129,0.207 3.145,5.035 7.442,5.035 l 0,0 c 1.5,0 2.918,-0.578 3.894,-1.582 l 0,0 c 0.711,-0.739 1.09,-1.606 1.063,-2.446 l 0,0 c -0.02,-0.664 -0.406,-2.82 -4.504,-2.82 l 0,0 -2,0 c -0.906,0 -3.973,0.383 -5.621,1.012 m -19.231,1.808 c -0.027,0.84 0.352,1.707 1.067,2.446 l 0,0 c 0.972,1.004 2.39,1.582 3.89,1.582 l 0,0 c 4.293,0 7.317,-4.828 7.446,-5.035 l 0,0 0.343,-0.567 -0.621,-0.234 c -1.644,-0.629 -4.715,-1.012 -5.621,-1.012 l 0,0 -2,0 c -4.097,0 -4.48,2.156 -4.504,2.82" style="fill:url(#radialGradient872)"/>
  </g>
</svg>
