<?xml version="1.0" encoding="UTF-8" standalone="no"?>
<svg xmlns="http://www.w3.org/2000/svg" version="1.1" width="600" height="581.33911">
  <radialGradient cx="0" cy="0" r="1" fx="0" fy="0" id="radialGradient856" gradientUnits="userSpaceOnUse" gradientTransform="matrix(17.866348,0,0,-17.866348,135.37207,34.885742)" spreadMethod="pad">
    <stop style="stop-color:#bf99c3" offset="0"/>
    <stop style="stop-color:#7b5190" offset="0.66291797"/>
    <stop style="stop-color:#612c75" offset="1"/>
  </radialGradient>
  <path d="M 7.2087613,142.32944 C 5.9152537,156.18014 1.9911296,197.74679 1.9911296,197.74679 1.8167241,199.44725 0,221.98916 0,255.37328 0,284.77514 1.4243117,322.4758 6.6419434,361.76065 22.600048,481.78071 65.300332,554.39154 133.47835,577.44213 c 23.0506,7.71745 74.03515,8.61854 103.16087,-42.29333 l 3.06663,-5.46471 c 11.11835,-19.46075 23.77728,-41.61025 36.21821,-59.32694 13.05135,-18.55966 20.82693,-24.91092 24.06796,-26.96019 3.24104,2.04927 11.01662,8.40053 24.06796,26.96019 12.49906,17.71669 25.09986,39.86619 36.21821,59.32694 l 3.12477,5.46471 c 29.06759,50.91187 80.05213,49.95264 102.98646,42.35147 68.29429,-23.10873 110.99457,-95.71956 126.95268,-215.73962 5.84258,-43.95019 6.80181,-86.06913 6.64194,-113.65427 L 595.4931,129.10369 c 0,0 -0.9011,1.01736 -0.95923,1.0755 C 593.28396,128.30433 586.9763,118.8283 586.9763,118.8283 583.7934,114.00308 506.24108,0 302.14302,0 l -6.52567,0 C 91.461159,0 13.90884,114.00308 10.740473,118.8283 l -3.5317117,23.50114 z" style="fill:#ffffff"/>
  <path d="m 465.997,383.32879 c 40.41848,0 56.94341,-15.55115 57.45209,-33.20971 0.7418,-23.61742 -26.91659,-50.30146 -64.03589,-50.30146 -58.64386,0 -101.34414,69.32619 -101.34414,69.32619 22.60005,8.61854 66.37583,14.18498 78.86036,14.18498 l 29.06758,0 z m -295.73362,0 c 12.49907,0 56.31845,-5.56644 78.86037,-14.18498 0,0 -42.68575,-69.32619 -101.34414,-69.32619 -37.11931,0 -64.777118,26.68404 -64.035895,50.30146 0.567399,17.65856 17.033605,33.20971 57.452085,33.20971 l 29.06758,0 z M 299.19266,27.65781 c -191.54086,0 -261.768143,106.4455 -261.768143,106.4455 0,0 21.277473,48.93528 100.021563,53.19368 0,0 63.87602,-63.87602 163.91212,-63.87602 l 2.26727,0 c 100.0361,0 163.89758,63.87602 163.89758,63.87602 78.68596,-4.2584 99.97796,-53.19368 99.97796,-53.19368 0,0 -70.22728,-106.4455 -261.76814,-106.4455 l -6.54021,0 z m 6.70008,225.60807 c 225.6226,0 268.13395,-53.19368 268.13395,-53.19368 0,0 25.55041,304.35216 -112.79677,351.19457 0,0 -44.67688,14.86807 -70.22729,-29.80881 -25.49227,-44.67688 -59.55948,-106.4455 -87.20276,-106.4455 l -0.34881,0 c -27.64327,0 -61.71048,61.76862 -87.26089,106.4455 -25.53587,44.67688 -70.22729,29.80881 -70.22729,29.80881 C 7.6157075,504.42436 33.166116,200.0722 33.166116,200.0722 c 0,0 42.569479,53.19368 268.192084,53.19368 l 4.53454,0 z" style="fill:#612c75"/>
  <g transform="matrix(14.533793,0,0,-14.533793,-1663.8868,797.65816)">
    <path d="m 135.07,52.43 c -11.297,0 -16.355,-5.551 -17.363,-6.821 l 0,0 c 0.457,-0.742 2.051,-2.757 6.027,-3.047 l 0,0 c 0.93,0.844 5.161,4.376 11.485,4.376 l 0,0 0.156,0 c 6.32,0 10.555,-3.532 11.48,-4.376 l 0,0 c 3.981,0.29 5.571,2.305 6.028,3.047 l 0,0 c -1.008,1.27 -6.063,6.821 -17.363,6.821 l 0,0 -0.45,0 z m 0.461,-15.524 -0.312,0 c -11.465,0 -16.207,2.004 -17.969,3.129 l 0,0 c -0.191,-4.211 -0.367,-19.914 7.449,-22.558 l 0,0 c 0.004,0 0.426,-0.137 1.024,-0.137 l 0,0 c 0.937,0 2.242,0.336 3.16,1.937 l 0,0 0.215,0.379 c 2.336,4.09 4.277,7.223 6.289,7.223 l 0,0 c 1.992,0 3.937,-3.141 6.273,-7.246 l 0,0 0.207,-0.356 c 0.914,-1.601 2.223,-1.937 3.156,-1.937 l 0,0 c 0.598,0 1.02,0.137 1.02,0.137 l 0,0 c 7.82,2.644 7.645,18.347 7.453,22.558 l 0,0 c -1.762,-1.125 -6.504,-3.129 -17.965,-3.129 m 3.395,-7.937 -0.621,0.234 0.347,0.567 c 0.129,0.207 3.149,5.035 7.442,5.035 l 0,0 c 1.496,0 2.918,-0.578 3.89,-1.582 l 0,0 c 0.715,-0.739 1.094,-1.606 1.067,-2.446 l 0,0 c -0.02,-0.664 -0.406,-2.82 -4.504,-2.82 l 0,0 -2,0 c -0.906,0 -3.973,0.383 -5.621,1.012 m -19.231,1.808 c -0.027,0.84 0.352,1.707 1.067,2.446 l 0,0 c 0.972,1.004 2.39,1.582 3.89,1.582 l 0,0 c 4.293,0 7.317,-4.828 7.442,-5.035 l 0,0 0.347,-0.567 -0.621,-0.234 c -1.648,-0.629 -4.715,-1.012 -5.621,-1.012 l 0,0 -2,0 c -4.097,0 -4.48,2.156 -4.504,2.82" style="fill:url(#radialGradient856)"/>
  </g>
</svg>
