<?xml version="1.0" encoding="UTF-8" standalone="no"?>
<svg xmlns="http://www.w3.org/2000/svg" version="1.1" width="600" height="581.32867">
  <path d="m 465.98861,383.32188 c 40.41775,0 56.94237,-15.55088 57.45105,-33.20912 0.79992,-23.61699 -26.9161,-50.30055 -64.03474,-50.30055 -58.6428,0 -101.34231,69.32495 -101.34231,69.32495 22.59964,8.61838 66.3601,14.18472 78.85894,14.18472 l 29.06706,0 z m -295.72829,0 c 12.55697,0 56.31743,-5.56634 78.85894,-14.18472 0,0 -42.69952,-69.32495 -101.34232,-69.32495 -37.0605,0 -64.775944,26.68356 -64.034734,50.30055 0.566227,17.65824 17.033294,33.20912 57.451054,33.20912 l 29.06706,0 z M 299.18727,27.65731 c -191.5374,0 -261.763427,106.44358 -261.763427,106.44358 0,0 21.277089,48.9344 100.019757,53.19272 0,0 63.87487,-63.87487 163.90917,-63.87487 l 2.26723,0 c 100.03429,0 163.89463,63.87487 163.89463,63.87487 78.68454,-4.25832 99.97616,-53.19272 99.97616,-53.19272 0,0 -70.22602,-106.44358 -261.76343,-106.44358 l -6.54009,0 z m 6.69996,225.604 c 225.61854,0 268.18725,-53.19272 268.18725,-53.19272 0,0 25.49181,304.34667 -112.79474,351.18824 0,0 -44.6906,14.86781 -70.22602,-29.80827 C 365.50377,476.77249 331.43718,415.00498 303.7944,415.00498 l -0.3488,0 c -27.64278,0 -61.70938,61.76751 -87.25932,106.44358 -25.53542,44.67608 -70.22603,29.80827 -70.22603,29.80827 C 7.6155703,504.41526 33.165518,200.06859 33.165518,200.06859 c 0,0 42.568713,53.19272 268.187252,53.19272 l 4.53446,0 z"/>
</svg>
