<?xml version="1.0" encoding="UTF-8" standalone="no"?>
<svg xmlns:svg="http://www.w3.org/2000/svg" xmlns="http://www.w3.org/2000/svg" x="0px" y="0px" width="130px" height="130px" viewBox="0 0 130 130">
  <path fill="#808080" d="m 39.33,0 h 3.14 c 3.98,0.82 7.97,1.59 11.96,2.359 -3.58,5.42 -6.91,11.041 -10.91,16.17 -3.52,2.381 -8.05,3.98 -9.95,8.111 -1.89,5.31 -3.35,11.389 -1.06,16.819 2.56,6.21 7.24,11.181 11.44,16.3 7.28,-10.38 14.27,-20.97 21.3,-31.529 6.439,9.899 12.85,19.83 19.48,29.609 4.02,-5.119 8.72,-10.1 10.47,-16.54 C 96.4,36.65 95.13,31.82 93.73,27.369 92.109,22.778 87.2,21.018 83.49,18.518 79.51,13.329 76.06,7.758 72.24,2.458 c 3.829,-0.8 7.699,-1.41 11.48,-2.46 h 3.93 c 7.97,1.859 15.02,6.88 20.199,13.12 8.631,10.909 10.33,26.43 5.54,39.34 -2.64,8.59 -8.14,15.8 -13.79,22.62 2.44,2.04 4.95,4 7.48,5.93 6.989,-5.14 13.92,-10.359 20.939,-15.449 0.78,9.62 1.12,19.29 1.98,28.909 v 2.35 c -4.931,6.091 -10.04,12.051 -15.48,17.69 -3.119,3.23 -6.209,6.6 -10.09,8.93 -6.89,4.241 -15,5.871 -22.97,6.561 h -6.34 c -3.36,-4.09 -6.74,-8.16 -10.16,-12.2 -3.399,4.03 -6.75,8.091 -10.06,12.2 h -8.16 c -6.61,-1.05 -13.36,-2.229 -19.301,-5.49 -5.129,-2.59 -9.02,-6.93 -12.93,-11.02 C 9.42,108.16 4.64,102.54 0,96.819 v -3.25 c 0.96,-9.31 1.18,-18.68 1.98,-28.009 6.99,5.06 13.87,10.27 20.831,15.36 1.8,-1.48 3.609,-2.95 5.43,-4.4 C 22.05,68.74 15.86,60.63 13.1,50.91 8.8,37.93 11.03,22.519 20.07,12.029 25.18,6.37 31.819,1.73 39.33,0 Z M 17.05,28.109 C 13.88,39.07 16.9,50.82 22.52,60.439 27.55,68.55 34.05,75.58 40,83 c 3.95,4.52 7.21,9.601 11.36,13.96 3.09,-3.01 6.06,-6.141 9.13,-9.17 C 52.89,77.7 44.689,68.101 36.54,58.46 32.15,53.02 27.61,47.13 26.63,40 26.061,34.91 27.401,29.83 28.99,25.04 30.99,19.91 36.16,17.359 40.48,14.5 42.669,11.76 44.54,8.77 46.29,5.721 43.61,5.38 40.83,4.36 38.16,5.33 28.069,8.99 19.5,17.48 17.05,28.109 Z M 80.63,5.74 c 1.79,3.02 3.72,5.99 5.899,8.75 4.271,2.869 9.41,5.38 11.451,10.46 1.979,5.89 3.629,12.42 1.619,18.54 -2.22,7.15 -7.47,12.73 -11.99,18.5 2.431,3.56 5.121,6.94 8.33,9.829 4.781,-5.779 9.65,-11.71 12.16,-18.88 4.051,-9.51 4.25,-20.6 0.061,-30.1 -3.471,-8 -10.591,-13.99 -18.551,-17.26 C 86.71,4.27 83.58,5.3 80.63,5.74 Z M 47.22,63.641 c 3.13,3.439 5.94,7.159 9.11,10.56 2.989,-3.21 5.91,-6.5 9.04,-9.57 10.8,13.439 24.86,23.83 35.69,37.221 -3.711,3.869 -8.291,8.1 -14.061,7.699 -3.08,-1.81 -5.54,-4.53 -8.689,-6.23 -3.4,3.561 -6.75,7.161 -10.141,10.721 3.061,3.59 5.93,7.359 9.12,10.84 11.2,0.62 23.63,-2.55 31.33,-11.27 5.699,-5.98 11.64,-11.91 16.36,-18.7 -0.181,-6.729 -0.73,-13.46 -1.15,-20.18 -5.641,4.01 -11.109,8.239 -16.721,12.279 C 98.92,80.99 90.52,74.78 84.7,66.3 77.971,56.721 71.67,46.84 65.2,37.09 59.23,45.96 53.29,54.85 47.22,63.641 Z M 59.14,78.2 c 1.511,1.98 3.03,3.96 4.61,5.9 1.96,-2.42 3.95,-4.811 5.96,-7.181 -1.521,-1.689 -3.04,-3.37 -4.57,-5.05 -1.99,2.121 -3.99,4.232 -6,6.331 z M 6.17,74.73 C 5.71,80.49 5.51,86.26 5.061,92.02 5.01,93.47 4.59,95.13 5.8,96.25 c 5.04,6.23 10.431,12.181 16.08,17.86 7.689,8.369 19.86,11.35 30.82,10.78 5.18,-5.9 9.829,-12.261 15.36,-17.841 5.299,-5.439 10.42,-11.06 15.1,-17.05 -3.53,-2.99 -6.721,-6.34 -10.061,-9.54 -8.8,10.851 -18.38,21.32 -30.1,29.08 -5.88,0.47 -10.34,-4.021 -14.23,-7.79 3.32,-4.05 7.061,-7.72 10.67,-11.5 -2.729,-3.33 -5.479,-6.64 -8.239,-9.95 -2.74,2.28 -5.49,4.53 -8.3,6.72 C 17.29,82.97 11.811,78.74 6.17,74.73 Z M 42.4,94.11 c -2.17,2.359 -4.511,4.55 -6.601,6.99 0.63,1.979 3.3,2.859 5.181,3.46 2.58,-0.82 4.449,-3.03 6.64,-4.551 C 45.88,98.05 44.12,96.09 42.4,94.11 Z m 39.289,5.41 c 2.461,1.63 4.521,4.091 7.34,5.05 2.061,-0.43 3.711,-1.81 5.431,-2.909 -2.44,-2.75 -4.979,-5.42 -7.63,-7.971 -2.051,1.621 -3.5,3.83 -5.141,5.83 z"/>
  <path d="M 17.05,28.109 C 19.5,17.48 28.069,8.99 38.16,5.33 40.83,4.359 43.61,5.38 46.29,5.721 44.54,8.77 42.67,11.76 40.48,14.5 36.16,17.359 30.99,19.91 28.99,25.04 27.4,29.83 26.06,34.91 26.63,40 c 0.98,7.13 5.521,13.02 9.91,18.46 8.149,9.641 16.35,19.24 23.95,29.33 -3.07,3.029 -6.04,6.16 -9.13,9.17 C 47.21,92.601 43.95,87.52 40,83 34.05,75.58 27.55,68.55 22.52,60.439 16.9,50.82 13.88,39.07 17.05,28.109 Z"/>
  <path d="m 80.63,5.74 c 2.95,-0.44 6.08,-1.471 8.979,-0.16 7.96,3.27 15.08,9.26 18.551,17.26 4.189,9.5 3.99,20.59 -0.061,30.1 -2.51,7.17 -7.379,13.101 -12.16,18.88 -3.209,-2.889 -5.899,-6.27 -8.33,-9.829 4.521,-5.77 9.771,-11.35 11.99,-18.5 2.01,-6.12 0.36,-12.65 -1.619,-18.54 C 95.939,19.871 90.799,17.36 86.529,14.491 84.35,11.73 82.42,8.76 80.63,5.74 Z"/>
  <path d="M 47.22,63.641 C 53.29,54.85 59.23,45.96 65.2,37.09 c 6.47,9.75 12.771,19.631 19.5,29.21 5.819,8.48 14.22,14.69 22.409,20.71 5.611,-4.04 11.08,-8.27 16.721,-12.279 0.42,6.72 0.97,13.45 1.15,20.18 -4.721,6.79 -10.661,12.72 -16.36,18.7 -7.7,8.72 -20.13,11.89 -31.33,11.27 -3.19,-3.48 -6.06,-7.25 -9.12,-10.84 3.391,-3.56 6.74,-7.16 10.141,-10.721 3.149,1.7 5.609,4.421 8.689,6.23 5.77,0.4 10.35,-3.83 14.061,-7.699 C 90.23,88.46 76.17,78.069 65.37,64.63 62.24,67.7 59.319,70.99 56.33,74.2 53.16,70.8 50.35,67.08 47.22,63.641 Z"/>
  <path d="m 6.17,74.73 c 5.641,4.01 11.12,8.239 16.73,12.289 2.81,-2.189 5.56,-4.439 8.3,-6.72 2.76,3.311 5.51,6.62 8.239,9.95 -3.609,3.78 -7.35,7.45 -10.67,11.5 3.891,3.77 8.351,8.26 14.23,7.79 11.72,-7.76 21.3,-18.229 30.1,-29.08 3.34,3.2 6.53,6.55 10.061,9.54 -4.68,5.99 -9.801,11.61 -15.1,17.05 -5.531,5.58 -10.181,11.94 -15.36,17.841 C 41.74,125.459 29.569,122.479 21.88,114.11 16.231,108.43 10.84,102.48 5.8,96.25 4.59,95.13 5.01,93.47 5.061,92.02 5.51,86.26 5.71,80.49 6.17,74.73 Z"/>
</svg>
