<?xml version="1.0" encoding="UTF-8" standalone="no"?>
<svg xmlns:svg="http://www.w3.org/2000/svg" xmlns="http://www.w3.org/2000/svg" x="0px" y="0px" width="130px" height="130px" viewBox="0 0 130 130">
  <path d="M 17.05,28.109 C 19.5,17.48 28.069,8.99 38.16,5.33 40.83,4.359 43.61,5.38 46.29,5.721 44.54,8.77 42.67,11.76 40.48,14.5 36.16,17.359 30.99,19.91 28.99,25.04 27.4,29.83 26.06,34.91 26.63,40 c 0.98,7.13 5.521,13.02 9.91,18.46 8.149,9.641 16.35,19.24 23.95,29.33 -3.07,3.029 -6.04,6.16 -9.13,9.17 C 47.21,92.601 43.95,87.52 40,83 34.05,75.58 27.55,68.55 22.52,60.439 16.9,50.82 13.88,39.07 17.05,28.109 Z"/>
  <path d="m 80.63,5.74 c 2.95,-0.44 6.08,-1.471 8.979,-0.16 7.96,3.27 15.08,9.26 18.551,17.26 4.189,9.5 3.99,20.59 -0.061,30.1 -2.51,7.17 -7.379,13.101 -12.16,18.88 -3.209,-2.889 -5.899,-6.27 -8.33,-9.829 4.521,-5.77 9.771,-11.35 11.99,-18.5 2.01,-6.12 0.36,-12.65 -1.619,-18.54 C 95.939,19.871 90.799,17.36 86.529,14.491 84.35,11.73 82.42,8.76 80.63,5.74 Z"/>
  <path d="M 47.22,63.641 C 53.29,54.85 59.23,45.96 65.2,37.09 c 6.47,9.75 12.771,19.631 19.5,29.21 5.819,8.48 14.22,14.69 22.409,20.71 5.611,-4.04 11.08,-8.27 16.721,-12.279 0.42,6.72 0.97,13.45 1.15,20.18 -4.721,6.79 -10.661,12.72 -16.36,18.7 -7.7,8.72 -20.13,11.89 -31.33,11.27 -3.19,-3.48 -6.06,-7.25 -9.12,-10.84 3.391,-3.56 6.74,-7.16 10.141,-10.721 3.149,1.7 5.609,4.421 8.689,6.23 5.77,0.4 10.35,-3.83 14.061,-7.699 C 90.23,88.46 76.17,78.069 65.37,64.63 62.24,67.7 59.319,70.99 56.33,74.2 53.16,70.8 50.35,67.08 47.22,63.641 Z"/>
  <path d="m 6.17,74.73 c 5.641,4.01 11.12,8.239 16.73,12.289 2.81,-2.189 5.56,-4.439 8.3,-6.72 2.76,3.311 5.51,6.62 8.239,9.95 -3.609,3.78 -7.35,7.45 -10.67,11.5 3.891,3.77 8.351,8.26 14.23,7.79 11.72,-7.76 21.3,-18.229 30.1,-29.08 3.34,3.2 6.53,6.55 10.061,9.54 -4.68,5.99 -9.801,11.61 -15.1,17.05 -5.531,5.58 -10.181,11.94 -15.36,17.841 C 41.74,125.459 29.569,122.479 21.88,114.11 16.231,108.43 10.84,102.48 5.8,96.25 4.59,95.13 5.01,93.47 5.061,92.02 5.51,86.26 5.71,80.49 6.17,74.73 Z"/>
</svg>
