<svg xmlns="http://www.w3.org/2000/svg" width="300pt" height="213pt" viewBox="0 0 300 213" version="1.1">
  <path fill="#ffffff" d=" M 77.53 33.52 C 102.91 12.39 136.19 2.12 168.96 1.99 C 200.45 1.88 232.44 11.07 257.60 30.33 C 274.74 43.26 288.45 61.23 294.64 81.93 C 301.07 103.24 298.93 126.97 288.76 146.77 C 277.62 169.20 257.80 186.44 235.48 197.27 C 204.45 212.29 168.27 215.68 134.74 208.12 C 108.49 202.16 83.44 188.98 65.39 168.77 C 53.60 155.60 45.11 139.29 42.12 121.79 C 30.72 122.69 19.20 126.84 11.06 135.10 C 8.32 138.10 5.53 141.06 2.78 144.05 C 2.71 119.49 2.77 94.94 2.75 70.38 C 7.57 74.86 11.63 80.22 17.25 83.77 C 24.65 88.60 33.31 91.52 42.13 92.10 C 46.09 69.01 59.61 48.29 77.53 33.52 M 151.54 11.85 C 125.17 15.03 99.33 25.55 79.55 43.49 C 63.16 58.20 51.56 78.76 49.77 100.92 C 36.34 101.70 22.59 98.19 11.47 90.54 C 11.53 101.44 11.50 112.34 11.48 123.24 C 22.55 115.44 36.40 112.34 49.80 113.04 C 51.33 132.34 60.31 150.56 73.51 164.55 C 93.17 185.46 120.73 197.91 148.94 201.81 C 181.39 206.35 215.73 200.20 243.61 182.65 C 262.11 171.03 277.73 153.91 285.02 133.09 C 291.12 116.14 291.01 97.07 284.76 80.18 C 277.35 59.71 261.93 42.86 243.67 31.38 C 216.52 14.27 183.23 7.99 151.54 11.85 Z"/>
  <path fill="#ffffff" d=" M 157.80 17.89 C 177.18 16.00 197.68 18.32 214.75 28.26 C 228.37 36.08 238.70 48.92 244.56 63.38 C 251.59 80.64 253.30 99.67 251.80 118.12 C 249.92 138.96 241.95 159.88 226.75 174.64 C 214.75 186.37 198.62 193.40 182.04 195.37 C 164.12 197.38 145.29 195.35 129.19 186.82 C 113.57 178.67 101.44 164.57 94.74 148.36 C 89.99 137.18 87.63 125.10 86.94 113.00 C 108.57 112.99 130.21 113.00 151.84 113.00 C 153.67 118.34 156.76 123.60 161.97 126.23 C 168.55 130.18 177.42 127.95 182.23 122.26 C 190.25 113.42 189.67 98.25 180.74 90.25 C 175.81 85.61 167.87 84.23 161.95 87.78 C 156.75 90.41 153.67 95.67 151.84 101.00 C 130.19 101.00 108.55 101.00 86.90 101.00 C 87.78 79.20 93.92 56.46 109.29 40.32 C 121.71 26.79 139.76 19.61 157.80 17.89 M 118.00 44.11 C 104.78 56.53 98.37 74.55 96.41 92.24 C 112.91 92.26 129.41 92.25 145.91 92.25 C 149.85 84.63 157.16 78.50 165.81 77.31 C 175.36 75.68 185.31 80.41 190.76 88.28 C 199.94 100.81 198.26 120.12 186.50 130.45 C 179.72 136.64 169.45 138.76 160.86 135.40 C 154.30 133.04 149.13 127.84 145.91 121.75 C 129.48 121.73 113.04 121.78 96.61 121.73 C 98.46 135.29 103.12 148.64 111.21 159.77 C 121.41 174.05 137.62 183.52 154.90 186.16 C 171.58 188.71 189.38 187.33 204.59 179.59 C 217.34 173.36 227.62 162.60 233.91 149.94 C 243.44 131.34 245.13 109.63 242.37 89.18 C 239.88 71.13 232.36 52.91 217.92 41.19 C 202.99 28.89 182.81 25.16 163.93 26.21 C 147.28 26.96 130.13 32.24 118.00 44.11 Z"/>
  <path fill="#000000" d=" M 151.54 11.85 C 183.23 7.99 216.52 14.27 243.67 31.38 C 261.93 42.86 277.35 59.71 284.76 80.18 C 291.01 97.07 291.12 116.14 285.02 133.09 C 277.73 153.91 262.11 171.03 243.61 182.65 C 215.73 200.20 181.39 206.35 148.94 201.81 C 120.73 197.91 93.17 185.46 73.51 164.55 C 60.31 150.56 51.33 132.34 49.80 113.04 C 36.40 112.34 22.55 115.44 11.48 123.24 C 11.50 112.34 11.53 101.44 11.47 90.54 C 22.59 98.19 36.34 101.70 49.77 100.92 C 51.56 78.76 63.16 58.20 79.55 43.49 C 99.33 25.55 125.17 15.03 151.54 11.85 M 157.80 17.89 C 139.76 19.61 121.71 26.79 109.29 40.32 C 93.92 56.46 87.78 79.20 86.90 101.00 C 108.55 101.00 130.19 101.00 151.84 101.00 C 153.67 95.67 156.75 90.41 161.95 87.78 C 167.87 84.23 175.81 85.61 180.74 90.25 C 189.67 98.25 190.25 113.42 182.23 122.26 C 177.42 127.95 168.55 130.18 161.97 126.23 C 156.76 123.60 153.67 118.34 151.84 113.00 C 130.21 113.00 108.57 112.99 86.94 113.00 C 87.63 125.10 89.99 137.18 94.74 148.36 C 101.44 164.57 113.57 178.67 129.19 186.82 C 145.29 195.35 164.12 197.38 182.04 195.37 C 198.62 193.40 214.75 186.37 226.75 174.64 C 241.95 159.88 249.92 138.96 251.80 118.12 C 253.30 99.67 251.59 80.64 244.56 63.38 C 238.70 48.92 228.37 36.08 214.75 28.26 C 197.68 18.32 177.18 16.00 157.80 17.89 Z"/>
</svg>
