<svg xmlns="http://www.w3.org/2000/svg" width="295.54251pt" height="210.01793pt" viewBox="0 0 295.54251 210.01793" version="1.1">
  <linearGradient x1="0" y1="210.01793pt" x2="325" y2="210.01793pt" id="linearGradient400" gradientUnits="userSpaceOnUse" spreadMethod="pad">
    <stop style="stop-color:#8b723c" offset="0" id="stop2"/>
	<stop style="stop-color:#d2bb7b" offset="0.2" />
    <stop style="stop-color:#ebd491" offset="0.5" id="stop6"/>
	<stop style="stop-color:#d2bb7b" offset="0.8" />
    <stop style="stop-color:#8b723c" offset="1" id="stop10"/>
  </linearGradient>
  <path d="m 148.79503,9.8602531 c 31.69,-3.86 64.98,2.4199999 92.13,19.5299999 18.26,11.48 33.68,28.33 41.09,48.8 6.25,16.89 6.36,35.959997 0.26,52.909997 -7.29,20.82 -22.91,37.94 -41.41,49.56 -27.88,17.55 -62.22,23.7 -94.67,19.16 -28.21,-3.9 -55.769995,-16.35 -75.429995,-37.26 -13.2,-13.99 -22.18,-32.21 -23.71,-51.51 -13.4,-0.7 -27.25,2.4 -38.3200003,10.2 0.02,-10.9 0.05,-21.799997 -0.01,-32.699997 11.1200003,7.65 24.8700003,11.16 38.3000003,10.38 1.79,-22.16 13.39,-42.72 29.78,-57.43 19.78,-17.94 45.619995,-28.46 71.989995,-31.6399999 m 6.26,6.0399999 c -18.04,1.72 -36.09,8.9 -48.51,22.43 -15.369995,16.14 -21.509995,38.88 -22.389995,60.68 21.649995,0 43.289995,0 64.939995,0 1.83,-5.33 4.91,-10.59 10.11,-13.22 5.92,-3.55 13.86,-2.17 18.79,2.47 8.93,8 9.51,23.169997 1.49,32.009997 -4.81,5.69 -13.68,7.92 -20.26,3.97 -5.21,-2.63 -8.3,-7.89 -10.13,-13.23 -21.63,0 -43.27,-0.01 -64.899995,0 0.69,12.1 3.05,24.18 7.8,35.36 6.7,16.21 18.829995,30.31 34.449995,38.46 16.1,8.53 34.93,10.56 52.85,8.55 16.58,-1.97 32.71,-9 44.71,-20.73 15.2,-14.76 23.17,-35.68 25.05,-56.52 1.5,-18.449997 -0.21,-37.479997 -7.24,-54.739997 -5.86,-14.46 -16.19,-27.3 -29.81,-35.12 -17.07,-9.94 -37.57,-12.26 -56.95,-10.37 z" style="fill:url(#linearGradient400)"/>
  <path d="M 166.21451,9.7576604e-4 C 133.4445,0.13097574 100.16482,10.400273 74.784822,31.530272 56.86482,46.300273 43.345406,67.020839 39.385406,90.110838 c -8.82,-0.579997 -17.480371,-3.500565 -24.880371,-8.330565 -5.62,-3.549997 -9.6804888,-8.910137 -14.50048858,-13.390137 0.02000025,24.56 -0.0392385,49.109924 0.030762,73.669924 2.74999998,-2.99 5.53929658,-5.9502 8.27929708,-8.9502 8.1399995,-8.26 19.6605465,-12.40957 31.0605465,-13.30957 2.99,17.5 11.480508,33.81047 23.270508,46.98047 18.050003,20.21 43.1001,33.3901 69.3501,39.3501 33.53,7.56 69.70877,4.1699 100.73877,-10.8501 22.32,-10.83 42.14076,-28.07048 53.28076,-50.50049 10.17,-19.8 12.30988,-43.52984 5.87989,-64.839844 C 285.70517,59.240429 271.99513,41.269843 254.85513,28.339843 229.69513,9.0798428 197.7045,-0.10902426 166.21451,9.7576604e-4 Z M 166.73892,8.7636713 c 26.01453,-0.027007 52.12617,6.7245897 74.18555,20.6264647 18.25999,11.48 33.68033,28.329805 41.09033,48.799805 6.25,16.89 6.36074,35.960159 0.26074,52.910149 -7.29,20.82001 -22.91113,37.94007 -41.41113,49.56006 -27.88,17.55 -62.21993,23.70016 -94.66992,19.16016 -28.21001,-3.9 -55.769198,-16.34976 -75.429201,-37.25976 -13.2,-13.99 -22.179961,-32.20977 -23.709961,-51.50977 -13.4,-0.7 -27.250313,2.39971 -38.3203125,10.19971 0.020003,-10.9 0.049748,-21.799707 -0.010252,-32.699712 11.1199995,7.65 24.8698045,11.159888 38.2998045,10.379888 1.790001,-22.160003 13.390274,-42.720667 29.780277,-57.430667 19.779997,-17.94 45.619735,-28.45916 71.989735,-31.6391602 5.94188,-0.72375 11.94099,-1.090935 17.94435,-1.0971675 z m -0.69434,6.5405277 c -3.68251,0.03588 -7.3555,0.241816 -10.98925,0.596191 -18.04,1.72 -36.08977,8.899688 -48.50977,22.429688 -15.369998,16.14 -21.510135,38.879688 -22.390133,60.67969 h 64.939443 c 1.83001,-5.330002 4.91036,-10.590217 10.11036,-13.22022 5.92,-3.549997 13.85955,-2.168805 18.78955,2.47119 8.93,8.000003 9.50975,23.169772 1.48975,32.009772 -4.81001,5.69 -13.67879,7.91973 -20.25879,3.96972 -5.21,-2.63 -8.30087,-7.89046 -10.13087,-13.23046 -21.62999,0 -43.2699,-0.01 -64.899895,0 0.69,12.1 3.050295,24.17986 7.800292,35.35986 6.700005,16.21 18.830193,30.31093 34.450203,38.46094 16.09999,8.52999 34.93009,10.56029 52.85009,8.55029 16.58,-1.97 32.70996,-9.00047 44.70996,-20.73047 15.2,-14.76 23.16883,-35.67953 25.04883,-56.51953 1.5,-18.450002 -0.20926,-37.481214 -7.23926,-54.741213 -5.86,-14.46 -16.18957,-27.299628 -29.80957,-35.119628 -13.86938,-8.07625 -30.00341,-11.121307 -45.96094,-10.96582 z m 2.26904,8.753906 c 16.71483,0.178691 33.79807,4.37959 46.86183,15.14209 14.43999,11.72 21.9597,29.939745 24.4497,47.989746 2.76,20.449999 1.07053,42.160249 -8.45947,60.760249 -6.29,12.66 -16.57031,23.41991 -29.32031,29.6499 -15.21,7.74001 -33.01044,9.11983 -49.69044,6.56983 -17.28,-2.64 -33.49042,-12.10916 -43.69042,-26.38916 -8.09,-11.13 -12.750098,-24.48053 -14.6001,-38.04053 16.43,0.05 32.87078,5.1e-4 49.30078,0.0205 3.22,6.09 8.39019,11.28942 14.9502,13.64941 8.58999,3.36 18.85916,1.2403 25.63916,-4.9497 11.76,-10.33 13.43976,-29.639922 4.25976,-42.169924 -5.45,-7.869998 -15.39922,-12.600218 -24.94922,-10.970213 -8.65,1.189995 -15.9599,7.31994 -19.8999,14.93994 -16.5,0 -33,0.0097 -49.499995,-0.01027 1.959997,-17.690002 8.370325,-35.710372 21.590325,-48.130372 12.13,-11.870001 29.28018,-17.148926 45.93018,-17.898926 2.36,-0.13125 4.7401,-0.188125 7.12792,-0.162598 z"/>
</svg>
