<?xml version="1.0" encoding="UTF-8" standalone="no"?>
<svg xmlns="http://www.w3.org/2000/svg" xmlns:xlink="http://www.w3.org/1999/xlink" version="1.1" width="600" height="246.70186">
  <radialGradient cx="0" cy="0" r="1" fx="0" fy="0" id="radialGradient318" gradientUnits="userSpaceOnUse" gradientTransform="matrix(60.148789,0,0,-60.148773,660.11719,384.76465)" spreadMethod="pad">
    <stop style="stop-color:#000000" offset="0"/>
    <stop style="stop-color:#404040" offset="0.66291797"/>
    <stop style="stop-color:#808285" offset="1"/>
  </radialGradient>
  <radialGradient cx="0" cy="0" r="1" fx="0" fy="0" id="radialGradient2995" xlink:href="#radialGradient318" gradientUnits="userSpaceOnUse" gradientTransform="matrix(60.148789,0,0,-60.148773,660.11719,384.76465)" spreadMethod="pad"/>
  <radialGradient cx="0" cy="0" r="1" fx="0" fy="0" id="radialGradient2998" xlink:href="#radialGradient318" gradientUnits="userSpaceOnUse" gradientTransform="matrix(211.98299,0,0,211.98293,299.97939,123.35562)" spreadMethod="pad"/>
  <path d="M 299.33376,0 C 211.96964,0.42645 149.63164,34.49948 120.73582,54.24266 114.51189,43.69793 104.07641,37.74889 90.874339,37.74889 c -14.428526,0 -22.936211,5.79749 -27.560106,10.61522 -8.426626,8.86717 -9.265411,19.6868 -9.265411,23.69394 0,0.493404 0.04229,1.208839 0.04229,1.222936 0,0.704862 0.246702,1.198265 0.274896,1.874933 l -10.876021,0 0.370053,14.713995 c 0.05639,2.45292 0.08458,5.011569 0.08458,7.601937 0,11.080429 -0.592084,22.629599 -1.624707,30.724939 l -42.319913,0 0,72.19549 16.010941,-1.3921 c 0.207794,-0.0282 5.328757,-0.41234 9.635464,3.52431 5.385147,4.95518 8.35614,15.54221 8.35614,29.81919 l 0,14.35804 137.063945,0 -0.20779,-14.63294 c -0.0254,-0.38415 -0.2326,-38.47842 28.03236,-67.16983 22.0939,-22.45338 55.87794,-33.8087 100.40055,-33.8087 l 1.34981,0 c 44.54729,0 78.34542,11.35532 100.44285,33.8087 28.27554,28.67732 28.02883,66.78568 28.02883,67.16983 l -0.20779,14.56598 137.09214,0.0671 0,-14.35804 c 0,-14.27698 2.94633,-24.86401 8.34205,-29.81919 4.28203,-3.93666 9.40286,-3.55251 9.62136,-3.52431 l 15.5986,1.33571 0.44054,-15.61269 0,-56.52641 -42.34811,0 c -1.05729,-8.09534 -1.63528,-19.6586 -1.63528,-30.753132 0,-2.576271 0.0141,-5.120823 0.0812,-7.573743 l 0.35948,-14.713995 -10.94651,0 c 0.0564,-0.937467 0.41234,-1.652902 0.41234,-2.643233 l 0,-0.870504 c 0,-3.411533 -0.78239,-14.358043 -9.26541,-23.278073 -4.60979,-4.81773 -13.14567,-10.61522 -27.54601,-10.61522 -13.23026,0 -23.66574,5.94904 -29.88615,16.49377 C 450.31183,34.48904 387.8822,0.37372 300.32424,1.4e-4 l -0.0705,0 -0.91984,0 z" style="fill:#ffffff"/>
  <path d="m 462.70316,141.88168 -9.70595,0 c 0,0 -4.62389,-8.92003 -18.44624,-19.70089 l 0.0141,-49.449596 c 12.45844,6.692665 21.94236,12.997656 28.16629,17.4982 l -0.0282,51.652286 z M 393.45752,100.41817 C 382.63436,96.245391 371.16626,92.527244 356.65667,89.746563 l 0,-45.072403 c 13.31484,2.69962 25.59354,6.19574 36.80085,10.0901 l 0,45.65392 z m -74.6308,-15.158054 c -6.04419,-0.331285 -12.30689,-0.496927 -18.84801,-0.496927 -6.37195,0 -12.98003,0.151404 -18.84448,0.48283 l 0,-45.720879 c 6.0019,-0.42644 12.14125,-0.63085 18.40394,-0.67314 l 0.62028,0 c 6.36138,0.0282 12.59589,0.2467 18.68237,0.67314 l -0.0141,45.734976 z m -113.57794,15.623264 0.0282,-45.70325 c 11.08396,-3.88379 23.22521,-7.4081 36.35679,-10.18878 l 0.14097,45.195752 c -13.90693,2.808875 -26.19972,6.54112 -36.52595,10.696278 m -40.03264,23.58469 c -11.9897,10.24164 -16.21888,18.44624 -16.21888,18.44624 l -11.76767,0 0,-52.684916 c 6.16754,-4.461777 15.60917,-10.752671 27.98655,-17.388947 l 0,51.627623 z m 380.94269,18.09028 c -5.42391,-12.9025 -4.39129,-53.044391 -4.39129,-53.044391 l -19.07004,0 c 0,0 8.85306,-4.102297 8.85306,-17.001273 0,0 1.00443,-20.402236 -22.43928,-20.402236 -23.4719,0 -21.44895,26.51339 -21.44895,26.51339 0,0 -70.87035,-63.78297 -187.40872,-64.2517 l -0.83879,0 c -116.35862,0.58151 -187.11972,64.2517 -187.11972,64.2517 0,0 2.02647,-26.51339 -21.420761,-26.51339 -23.471906,0 -22.45338,20.402236 -22.45338,20.402236 0,12.898976 8.867164,17.001273 8.867164,17.001273 l -19.055945,0 c 0,0 1.007953,40.141891 -4.430058,53.044391 l -39.458177,0 0,42.16485 c 0,0 34.020166,-4.74725 34.020166,47.62048 l 108.136411,0 c 0,0 -2.72429,-115.615 142.79095,-115.62557 l 1.34981,0 c 145.54344,0 142.82972,115.62557 142.82972,115.62557 l 108.15404,0 c 0,-52.36773 34.00254,-47.62048 34.00254,-47.62048 l 0,-42.16485 -39.46875,0 z"/>
  <path d="m 115.35067,82.067091 -8.54645,7.69357 0.86698,-11.482203 c 0.0282,-0.123351 0.68724,-10.928886 -5.01157,-17.110526 l 0,0 C 99.864854,58.17932 96.023356,56.72025 90.874339,56.72025 l 0,0 c -6.125251,0 -10.738573,1.58242 -13.737761,4.666189 l 0,0 c -4.282037,4.433582 -4.102297,10.876021 -4.102297,11.126247 l 0,0 c 0,9.60727 5.987803,12.719236 6.220407,12.856684 l 0,0 -1.966565,8.768484 -14.372137,0 c 0.123351,11.439906 -0.165642,39.042306 -4.845926,50.221416 l 0,0 -1.212363,2.82298 -3.04148,0 -34.858952,0 0,32.91705 c 10.061905,0.78593 32.353168,7.12968 33.935583,47.63458 l 0,0 99.107132,0 c 0.68724,-12.55712 5.23007,-47.37378 33.02631,-75.81496 l 0,0 c 25.79795,-26.41823 64.24817,-39.81413 114.26518,-39.81413 l 0,0 1.36391,0 c 50.01349,0 88.46371,13.3959 114.26166,39.80003 l 0,0 c 27.79624,28.45528 32.33907,63.27194 33.02984,75.82906 l 0,0 99.1318,0 c 1.58594,-40.5049 23.84548,-46.84865 33.93558,-47.63458 l 0,0 0,-32.91705 -34.85543,0 -3.06967,0 -1.18417,-2.82298 c -4.69438,-11.17911 -4.94461,-38.7815 -4.83183,-50.221416 l 0,0 -14.38624,0 -2.01238,-8.768484 c 0.2749,-0.137448 6.28032,-3.249414 6.28032,-13.050521 l 0,0 c 0,-0.05639 0.16212,-6.498828 -4.11639,-10.93241 l 0,0 C 519.84985,58.30267 515.23653,56.72025 509.11128,56.72025 l 0,0 c -5.14902,0 -8.97642,1.43087 -11.77119,4.419487 l 0,0 c -5.7693,6.209835 -5.07854,17.043564 -5.06444,17.152818 l 0,0 0.81059,11.387046 -8.47949,-7.61251 C 483.89132,81.432715 413.51437,19.4542 299.44302,18.97137 l 0,0 C 186.33381,19.57755 116.06963,81.432715 115.35067,82.067091 m 161.19843,3.193025 0,-45.749066 0,-4.30671 4.28204,-0.30309 c 6.06886,-0.40177 12.32098,-0.60618 19.34141,-0.66257 l 0,0 c 6.48473,0.0282 12.81792,0.2608 18.98546,0.66257 l 0,0 4.30671,0.30309 -0.0141,4.30671 -0.0254,45.763164 0,4.870596 -4.86002,-0.274896 c -5.96313,-0.327761 -12.13068,-0.493403 -18.58721,-0.493403 l 0,0 c -6.2627,0 -12.80382,0.151545 -18.58369,0.479306 l 0,0 -4.84593,0.27842 0,-4.874121 z m 115.22732,19.464764 c -8.52178,-3.27408 -20.34584,-7.460963 -35.98673,-10.435481 l 0,0 -3.72872,-0.701338 0,-3.8274 0,-45.114691 0,-5.64243 5.51907,1.11369 c 12.58179,2.60094 25.1671,6.05829 37.37531,10.26984 l 0,0 3.08377,1.07491 0,3.29171 0,45.66448 0,6.73144 -6.2627,-2.42473 z m -191.12334,-3.8415 0.0141,-45.70325 0,-3.27761 3.08024,-1.08901 c 12.18707,-4.25384 24.61731,-7.72177 36.9524,-10.30861 l 0,0 5.54726,-1.18417 0,5.65652 0.13745,45.209852 0.0141,3.799206 -3.71814,0.729533 c -12.99413,2.604465 -24.99793,6.142869 -35.69774,10.449579 l 0,0 -6.35786,2.56217 0.0282,-6.84421 z m 249.56345,45.58343 -1.29342,-2.4353 c -0.0564,-0.0846 -4.50054,-8.30327 -17.2233,-18.19953 l 0,0 -1.79035,-1.39211 0,-2.25908 0.0423,-49.449596 0,-7.69357 6.77372,3.619467 c 10.365,5.533167 20.01809,11.535067 28.71608,17.825961 l 0,0 1.9278,1.378005 -0.0141,2.368337 -0.0254,51.652286 0,4.61333 -4.61332,0 -9.72005,0 -2.78068,-0.0282 z m -317.58616,-3.5525 0,-52.684916 0,-2.368337 1.8996,-1.378005 c 8.63104,-6.262699 18.24183,-12.208211 28.49757,-17.716707 l 0,0 6.80192,-3.633564 0,7.707666 0,51.613523 0,2.11811 -1.61413,1.3921 c -11.03814,9.44515 -15.08758,17.00128 -15.14044,17.08586 l 0,0 -1.31104,2.46349 -2.78068,0 -11.75358,0 -4.59922,0 0,-4.59922 z" style="fill:url(#radialGradient2998)"/>
</svg>
