<?xml version="1.0" encoding="UTF-8" standalone="no"?>
<svg xmlns="http://www.w3.org/2000/svg" version="1.1" width="600" height="246.70354">
  <path d="M 299.3544,0 C 211.94819,0.43348 149.60354,34.46772 120.72044,54.23081 114.51736,43.66157 104.09582,37.75387 90.86812,37.75387 c -14.390778,0 -22.938475,5.76924 -27.553863,10.59693 -8.400005,8.87078 -9.267698,19.68925 -9.267698,23.6954 0,0.49846 0.03692,1.21846 0.03692,1.21846 0,0.69194 0.258462,1.19077 0.295385,1.88308 l -10.892314,0 0.359631,14.70463 c 0.07385,2.45538 0.110769,5.01231 0.110769,7.61539 0,11.06769 -0.581908,22.64309 -1.624616,30.72001 l -42.332334,0 0,72.18466 16.006164,-1.36615 c 0.221538,-0.0369 5.335388,-0.43422 9.627698,3.48923 5.409234,4.97539 8.372313,15.58155 8.372313,29.82464 l 0,14.38154 137.086235,0 -0.24886,-14.63077 c 0,-0.3973 -0.22154,-38.47387 28.05233,-67.18158 22.09847,-22.42156 55.89234,-33.82156 100.4216,-33.82156 l 1.32923,0 c 44.56618,0 78.36005,11.4 100.4216,33.82156 28.31079,28.67078 28.05232,66.78465 28.05232,67.18158 l -0.21267,14.56616 137.08623,0.0665 0,-14.38155 c 0,-14.24309 2.96308,-24.84925 8.33539,-29.82463 4.32924,-3.92271 9.44309,-3.52579 9.66463,-3.48887 l 15.57231,1.32923 0.43348,-15.60924 0,-56.53849 -42.33233,0 c -1.08,-8.07693 -1.62462,-19.65232 -1.62462,-30.75694 0,-2.60308 0,-5.12308 0.0738,-7.57847 L 556.47648,75.15 c 0,0 -6.81231,0 -10.95693,0 0.0665,-0.94154 0.43421,-1.66154 0.43421,-2.6677 l 0,-0.86769 c 0,-3.38769 -0.79384,-14.35385 -9.2677,-23.26155 -4.61538,-4.8277 -13.16308,-10.59693 -27.55386,-10.59693 -13.2277,0 -23.68617,5.90769 -29.88925,16.47693 C 450.32293,34.46993 387.90443,0.3253 300.32284,0.00222 l -0.0738,0 -0.89539,0 z" style="fill:#ffffff"/>
  <path d="m 462.72988,141.88625 -9.73846,0 c 0,0 -4.61539,-8.94463 -18.46155,-19.72617 l 0.0369,-49.4308 c 12.48001,6.67385 21.96001,13.01539 28.20002,17.48309 l -0.0369,51.67388 z M 393.46215,100.4216 C 382.64368,96.24006 371.17906,92.48314 356.68674,89.75083 l 0,-45.1108 c 13.26463,2.74154 25.56002,6.24 36.77541,10.13539 l 0,45.64618 z M 318.8221,85.23698 c -6.01846,-0.32271 -12.29539,-0.49846 -18.85847,-0.49846 -6.34154,0 -12.94155,0.17575 -18.82155,0.46154 l 0.0369,-45.68311 c 5.94462,-0.43421 12.11078,-0.64615 18.35078,-0.68308 l 0.65576,0 c 6.34154,0.0369 12.58154,0.24887 18.63693,0.68308 l 0,45.72003 z m -113.58468,15.65539 0.0369,-45.72926 c 11.07693,-3.88615 23.22463,-7.38462 36.38772,-10.16308 l 0.1019,45.17541 c -13.87385,2.81539 -26.17847,6.52616 -36.52617,10.71693 m -40.02464,23.53848 c -12.00001,10.28308 -16.21847,18.46155 -16.21847,18.46155 l -11.76001,0 0,-52.68003 c 6.16616,-4.4677 15.61847,-10.74463 27.97848,-17.37232 l 0,51.5908 z m 380.95408,18.10155 c -5.44616,-12.90462 -4.40308,-53.04003 -4.40308,-53.04003 l -19.03386,0 c 0,0 8.83385,-4.07078 8.83385,-17.01232 0,0 1.00616,-20.38155 -22.4677,-20.38155 -23.47386,0 -21.4154,26.51078 -21.4154,26.51078 0,0 -70.89235,-63.79388 -187.43089,-64.25542 l -0.82153,0 c -116.36315,0.57231 -187.14474,64.25542 -187.14474,64.25542 0,0 2.05847,-26.51078 -21.378467,-26.51078 -23.473861,0 -22.467706,20.38155 -22.467706,20.38155 0,12.94154 8.833851,17.01232 8.833851,17.01232 l -19.033858,0 c 0,0 1.006155,40.13541 -4.440002,53.04003 l -39.443102,0 0,42.19387 c 0,0 33.996944,-4.76308 33.996944,47.59388 l 108.13853,0 c 0,0 -2.70462,-115.60623 142.82778,-115.63392 l 1.32923,0 c 145.56932,0 142.82778,115.63392 142.82778,115.63392 l 108.17545,0 c 0,-52.35696 33.96002,-47.59388 33.96002,-47.59388 l 0,-42.19387 -39.4431,0 z"/>
</svg>
