<?xml version="1.0" encoding="UTF-8" standalone="no"?>
<svg xmlns="http://www.w3.org/2000/svg" xmlns:xlink="http://www.w3.org/1999/xlink" version="1.1" width="600" height="246.70354">
  <radialGradient cx="0" cy="0" r="1" fx="0" fy="0" id="radialGradient588" gradientUnits="userSpaceOnUse" gradientTransform="matrix(22.964554,0,0,-22.964554,665.49902,259.30273)" spreadMethod="pad">
    <stop style="stop-color:#bf99c3" offset="0"/>
    <stop style="stop-color:#7b5190" offset="0.66291797"/>
    <stop style="stop-color:#612c75" offset="1"/>
  </radialGradient>
  <radialGradient cx="0" cy="0" r="1" fx="0" fy="0" id="radialGradient2995" xlink:href="#radialGradient588" gradientUnits="userSpaceOnUse" gradientTransform="matrix(22.964554,0,0,-22.964554,665.49902,259.30273)" spreadMethod="pad"/>
  <radialGradient cx="0" cy="0" r="1" fx="0" fy="0" id="radialGradient2998" xlink:href="#radialGradient588" gradientUnits="userSpaceOnUse" gradientTransform="matrix(211.98063,0,0,211.98063,299.99151,123.33488)" spreadMethod="pad"/>
  <path d="M 299.3544,0 C 211.94819,0.43422 149.60354,34.46772 120.72044,54.23081 114.51736,43.66157 104.09582,37.75387 90.86812,37.75387 c -14.390778,0 -22.938475,5.76924 -27.553863,10.59693 -8.400005,8.87078 -9.267698,19.68925 -9.267698,23.6954 0,0.49846 0.03692,1.21846 0.03692,1.21846 0,0.69194 0.258462,1.19077 0.295385,1.88308 l -10.892314,0 0.359631,14.70463 c 0.07385,2.45538 0.110769,5.01231 0.110769,7.61539 0,11.06769 -0.581908,22.64309 -1.624616,30.72001 l -42.332334,0 0,72.18466 16.006164,-1.36615 c 0.221538,-0.0369 5.335388,-0.43348 9.627698,3.48923 5.409234,4.97539 8.372313,15.58155 8.372313,29.82464 l 0,14.38154 137.086235,0 -0.24886,-14.63077 c 0,-0.3973 -0.22154,-38.47387 28.05233,-67.18158 22.09847,-22.42156 55.89234,-33.82156 100.4216,-33.82156 l 1.32923,0 c 44.56618,0 78.36005,11.4 100.4216,33.82156 28.31079,28.67078 28.05232,66.78465 28.05232,67.18158 l -0.21267,14.56616 137.08623,0.0665 0,-14.38155 c 0,-14.24309 2.96308,-24.84925 8.33539,-29.82463 4.32924,-3.92271 9.44309,-3.52579 9.66463,-3.48887 l 15.57231,1.32923 0.43348,-15.60924 0,-56.53849 -42.33233,0 c -1.08,-8.07693 -1.62462,-19.65232 -1.62462,-30.75694 0,-2.60308 0,-5.12308 0.0738,-7.57847 L 556.47648,75.15 c 0,0 -6.81231,0 -10.95693,0 0.0665,-0.94154 0.43347,-1.66154 0.43347,-2.6677 l 0,-0.86769 c 0,-3.38769 -0.79384,-14.35385 -9.26769,-23.26155 -4.61539,-4.8277 -13.16309,-10.59693 -27.55387,-10.59693 -13.2277,0 -23.68617,5.90769 -29.88925,16.47693 C 450.3222,34.46993 387.9037,0.3253 300.3221,0.00222 l -0.0738,0 -0.89539,0 z" style="fill:#ffffff"/>
  <path d="m 462.72988,141.88625 -9.73846,0 c 0,0 -4.61539,-8.94463 -18.46155,-19.72617 l 0.0369,-49.4308 c 12.48001,6.67385 21.96001,13.01539 28.20002,17.48309 l -0.0369,51.67388 z M 393.46215,100.4216 C 382.64368,96.24006 371.17906,92.48314 356.68674,89.75083 l 0,-45.1108 c 13.26463,2.74154 25.56002,6.24 36.77541,10.13539 l 0,45.64618 z M 318.8221,85.23698 c -6.01846,-0.32271 -12.29539,-0.49846 -18.85847,-0.49846 -6.34154,0 -12.94155,0.17575 -18.82155,0.46154 l 0.0369,-45.68311 c 5.94462,-0.43421 12.11078,-0.64615 18.35078,-0.68308 l 0.65576,0 c 6.34154,0.0369 12.58154,0.24887 18.63693,0.68308 l 0,45.72003 z m -113.58468,15.65539 0.0369,-45.72926 c 11.07693,-3.88615 23.22463,-7.38462 36.38772,-10.16308 l 0.10117,45.17541 c -13.87386,2.81539 -26.17848,6.52616 -36.52618,10.71693 m -40.02464,23.53848 c -12.00001,10.28308 -16.21847,18.46155 -16.21847,18.46155 l -11.76001,0 0,-52.68003 c 6.16616,-4.4677 15.61847,-10.74463 27.97848,-17.37232 l 0,51.5908 z m 380.95408,18.10155 c -5.44616,-12.90462 -4.40308,-53.04003 -4.40308,-53.04003 l -19.03386,0 c 0,0 8.83385,-4.07078 8.83385,-17.01232 0,0 1.00616,-20.38155 -22.4677,-20.38155 -23.47386,0 -21.4154,26.51078 -21.4154,26.51078 0,0 -70.89235,-63.79388 -187.43088,-64.25542 l -0.82154,0 c -116.36315,0.57231 -187.14473,64.25542 -187.14473,64.25542 0,0 2.05846,-26.51078 -21.378476,-26.51078 -23.47386,0 -22.467706,20.38155 -22.467706,20.38155 0,12.94154 8.833852,17.01232 8.833852,17.01232 l -19.033858,0 c 0,0 1.006154,40.13541 -4.440003,53.04003 l -39.443101,0 0,42.19387 c 0,0 33.996944,-4.76308 33.996944,47.59388 l 108.138528,0 c 0,0 -2.70462,-115.60623 142.82778,-115.63392 l 1.32923,0 c 145.56932,0 142.82778,115.63392 142.82778,115.63392 l 108.17545,0 c 0,-52.35696 33.96002,-47.59388 33.96002,-47.59388 l 0,-42.19387 -39.4431,0 z" style="fill:#612c75"/>
  <path d="m 115.38506,82.0339 -8.51078,7.64308 0.79385,-11.40001 c 0.0369,-0.13846 0.72,-10.95693 -5.04924,-17.12308 l 0,0 C 99.877357,58.16312 96.018893,56.71388 90.905044,56.71388 l 0,0 c -6.166158,0 -10.781546,1.55077 -13.781547,4.65232 l 0,0 c -4.246157,4.44 -4.070772,10.85539 -4.070772,11.14154 l 0,0 c 0,9.59078 5.981542,12.69232 6.240004,12.84001 l 0,0 17.418472,8.76 -19.440012,0 -14.353855,0 c 0.110769,11.46463 -0.175385,39.09234 -4.864618,50.23388 l 0,0 -1.19077,2.84308 -3.064618,0 -34.827713,0 0,32.88925 c 10.089237,0.83077 32.372327,7.17231 33.923097,47.66772 l 0,0 99.129288,0 c 0.72,-12.55385 5.1877,-47.38157 33.02771,-75.86774 l 0,0 c 25.78156,-26.39078 64.25543,-39.77541 114.26777,-39.77541 l 0,0 1.32923,0 c 50.04926,0 88.48621,13.38463 114.26776,39.77541 l 0,0 c 27.84002,28.5231 32.34464,63.31389 33.06464,75.86774 l 0,0 99.12929,0 c 1.55077,-40.49541 23.83386,-46.83695 33.88617,-47.66772 l 0,0 0,-32.88925 -34.82771,0 -3.06462,0 -1.19077,-2.84308 c -4.68923,-11.14154 -4.93846,-38.76925 -4.82769,-50.23388 l 0,0 -14.35386,0 -19.40309,-0.0369 17.34463,-8.72308 c 0.25846,-0.14769 6.31385,-3.24923 6.31385,-13.05232 l 0,0 c 0,-0.0738 0.13846,-6.45231 -4.1077,-10.92923 l 0,0 c -3.03692,-3.10155 -7.61539,-4.65232 -13.78154,-4.65232 l 0,0 c -5.11385,0 -8.97232,1.44924 -11.75078,4.44001 l 0,0 c -5.76923,6.16615 -5.08616,16.98462 -5.04923,17.12308 l 0,0 0.75692,11.40001 -8.47385,-7.64308 C 483.89605,81.41546 413.54832,19.46773 299.45594,18.96927 l 0,0 C 186.35125,19.50465 116.06813,81.41546 115.38506,82.03392 m 161.17856,3.20308 0,-45.72003 0,-4.32923 4.29231,-0.28616 c 6.09231,-0.39692 12.33231,-0.64615 19.32924,-0.68307 l 0,0 c 6.45231,0.0369 12.75693,0.28615 18.92309,0.68307 l 0,0 4.32923,0.28616 0,4.32923 0,45.72003 0,4.91077 -4.86462,-0.29538 c -5.95385,-0.32308 -12.15693,-0.49847 -18.60924,-0.49847 l 0,0 c -6.27693,0 -12.76616,0.17539 -18.57232,0.49847 l 0,0 -4.82769,0.25846 0,-4.87385 z m 115.23699,19.47693 c -8.47385,-3.28615 -20.22463,-7.46769 -35.98156,-10.42154 l 0,0 -3.74769,-0.72 0,-3.82154 0,-45.1108 0,-5.63077 5.51077,1.08923 c 12.65539,2.63077 25.24617,6.05539 37.39387,10.31078 l 0,0 3.10154,1.04307 0,3.32308 0,45.64618 0,6.73847 -6.27693,-2.44616 z m -191.14166,-3.82154 0,-45.69233 0,-3.27693 3.06462,-1.08 c 12.15693,-4.29231 24.59079,-7.75385 36.96002,-10.3477 l 0,0 5.55693,-1.15384 0,5.65846 0.17539,45.14772 0,3.78462 -3.67385,0.79385 c -13.08924,2.63077 -25.1354,6.16615 -35.73233,10.42154 l 0,0 -6.35078,2.59385 0,-6.84924 z m 249.59093,45.57234 -1.29231,-2.44616 c -0.0369,-0.0739 -4.54154,-8.29846 -17.23386,-18.21232 l 0,0 -1.77231,-1.4123 0,-2.23385 0,-49.4308 0,-7.71693 6.77539,3.63693 c 10.32001,5.48308 19.94771,11.51077 28.74463,17.81539 l 0,0 1.91078,1.40308 0,2.34462 -0.0738,51.63695 0,4.61539 -4.57847,0 -9.70154,0 -2.77846,0 z m -317.63097,-3.57231 0,-52.68003 0,-2.34462 1.91077,-1.40308 c 5.95385,-4.29231 15.68309,-10.81847 28.48617,-17.70462 l 0,0 6.81232,-3.60001 0,7.68001 0,51.5908 0,2.13231 -1.57847,1.40308 c -11.07693,9.41539 -15.11077,16.98462 -15.1477,17.05847 l 0,0 -1.33846,2.48308 -2.76923,0 -11.76001,0 -4.61539,0 0,-4.61539 z" style="fill:url(#radialGradient2998)"/>
</svg>
