<?xml version="1.0" encoding="UTF-8" standalone="no"?>
<svg xmlns="http://www.w3.org/2000/svg" version="1.1" width="600" height="246.70354">
  <path d="m 462.72988,141.88625 -9.73846,0 c 0,0 -4.61539,-8.94463 -18.46155,-19.72617 l 0.0369,-49.4308 c 12.48001,6.67385 21.96001,13.01539 28.20002,17.48309 l -0.0369,51.67388 z M 393.46215,100.4216 C 382.64368,96.24006 371.17906,92.48314 356.68674,89.75083 l 0,-45.1108 c 13.26463,2.74154 25.56002,6.24 36.77541,10.13539 l 0,45.64618 z M 318.8221,85.23698 c -6.01846,-0.32271 -12.29539,-0.49846 -18.85847,-0.49846 -6.34154,0 -12.94155,0.17575 -18.82155,0.46154 l 0.0369,-45.68311 c 5.94462,-0.43421 12.11078,-0.64615 18.35078,-0.68308 l 0.65576,0 c 6.34154,0.0369 12.58154,0.24887 18.63693,0.68308 l 0,45.72003 z m -113.58468,15.65539 0.0369,-45.72926 c 11.07693,-3.88615 23.22463,-7.38462 36.38772,-10.16308 l 0.1019,45.17541 c -13.87385,2.81539 -26.17847,6.52616 -36.52617,10.71693 m -40.02464,23.53848 c -12.00001,10.28308 -16.21847,18.46155 -16.21847,18.46155 l -11.76001,0 0,-52.68003 c 6.16616,-4.4677 15.61847,-10.74463 27.97848,-17.37232 l 0,51.5908 z m 380.95408,18.10155 c -5.44616,-12.90462 -4.40308,-53.04003 -4.40308,-53.04003 l -19.03386,0 c 0,0 8.83385,-4.07078 8.83385,-17.01232 0,0 1.00616,-20.38155 -22.4677,-20.38155 -23.47386,0 -21.4154,26.51078 -21.4154,26.51078 0,0 -70.89235,-63.79388 -187.43089,-64.25542 l -0.82153,0 c -116.36315,0.57231 -187.14474,64.25542 -187.14474,64.25542 0,0 2.05847,-26.51078 -21.378467,-26.51078 -23.473861,0 -22.467706,20.38155 -22.467706,20.38155 0,12.94154 8.833851,17.01232 8.833851,17.01232 l -19.033858,0 c 0,0 1.006155,40.13541 -4.440002,53.04003 l -39.443102,0 0,42.19387 c 0,0 33.996944,-4.76308 33.996944,47.59388 l 108.13853,0 c 0,0 -2.70462,-115.60623 142.82778,-115.63392 l 1.32923,0 c 145.56932,0 142.82778,115.63392 142.82778,115.63392 l 108.17545,0 c 0,-52.35696 33.96002,-47.59388 33.96002,-47.59388 l 0,-42.19387 -39.4431,0 z"/>
</svg>
