<?xml version="1.0" encoding="UTF-8" standalone="no"?>
<svg xmlns="http://www.w3.org/2000/svg" version="1.1" x="0px" y="0px" width="305.05707" height="302.07361" viewBox="0 0 285.991 283.19401">
  <g transform="rotate(-90,141.597,141.597)">
    <g transform="rotate(90,141.597,141.597)">
      <g transform="rotate(90,142.9955,142.9955)">
        <g transform="rotate(90,141.597,141.597)">
          <g transform="rotate(90,142.9955,142.9955)">
            <g>
              <g>
                <g transform="rotate(90,148.9345,142.4705)">
                  <path d="M 52.959,149.208 C 52.898,149.21 6.464,203.551 6.464,203.551 l 144.305,87.854 141.686,-87.361 c 0,0 -40.476,-51.803 -44.112,-56.016 -4.764,2.795 -94.594,56.523 -98.3,58.712 -1.902,-1.031 -94.754,-56.246 -97.084,-57.532 z" style="fill:#808080"/>
                  <path d="m 149.889,8.211 c 0,0 -94.751,109.447 -95.889,110.978 3.422,2.246 96.57,60.378 96.57,60.378 0,0 90.535,-55.646 96.454,-59.431 C 245.939,118.922 149.889,8.211 149.889,8.211 Z" style="fill:#808080"/>
                  <path d="m 149.945,16 c 0,0 -86.138,99.497 -87.172,100.889 3.111,2.042 87.791,54.889 87.791,54.889 0,0 82.305,-50.587 87.686,-54.027 C 237.264,116.646 149.945,16 149.945,16 Z"/>
                  <path d="m 143,42.562 c 0,1.501 0,9.148 0,55.215 0,30.372 0,54.41 0,55.723 -1.728,-1.036 -57.749,-36.48 -58.701,-37.107 0.833,-1.086 58.488,-73.847 58.701,-73.831 z" style="fill:#808080"/>
                  <path d="m 54.459,156.572 c -0.056,0.002 -0.097,0.014 -0.127,0.033 -0.742,0.492 -39.414,44.824 -39.414,44.824 L 149.74,284.933 284,202.787 c 0,0 -34.069,-43.457 -37.375,-47.287 -4.331,2.541 -93.268,55.931 -96.637,57.92 -1.728,-0.938 -93.411,-55.679 -95.529,-56.848 z"/>
                  <path d="m 57.186,175 85.811,51.5 0.002,19.75 C 143,257.112 143,264.938 143,266.063 141.997,265.463 34.967,199.668 34.967,199.668 Z" style="fill:#808080"/>
                </g>
              </g>
            </g>
          </g>
        </g>
      </g>
    </g>
  </g>
</svg>
