<?xml version="1.0" encoding="UTF-8" standalone="no"?>
<svg xmlns="http://www.w3.org/2000/svg" version="1.1" width="305.05707" height="302.07361" viewBox="0 0 285.991 283.19401">
  <path style="fill:#ffffff" d="m 143.42468,0 c 0,0 -94.750669,109.4474 -95.888669,110.97839 3.421999,2.24601 96.569819,60.3772 96.569819,60.3772 0,0 90.53548,-55.64554 96.45448,-59.43054 C 239.4753,110.71105 143.42468,0 143.42468,0 Z m 98.45399,139.8175 c -4.764,2.79501 -94.59418,56.52194 -98.30018,58.71094 -1.902,-1.031 -94.75435,-56.24573 -97.084349,-57.53174 C 46.433141,140.9987 0,195.34057 0,195.34057 l 144.30542,87.85401 141.68518,-87.36145 c 0,0 -40.47593,-51.80262 -44.11193,-56.01563 z"/>
  <path d="m 143.48145,7.7893067 c 0,0 -86.138857,99.4972833 -87.172856,100.8892833 3.111,2.042 87.791746,54.88769 87.791746,54.88769 0,0 82.30455,-50.5871 87.68555,-54.02709 C 230.79989,108.43418 143.48145,7.7893067 143.48145,7.7893067 Z M 240.16114,147.28821 c -4.33101,2.541 -93.26858,55.93092 -96.63758,57.91992 -1.728,-0.938 -93.409955,-55.67792 -95.527955,-56.84693 -0.056,0.002 -0.09817,0.014 -0.128173,0.033 -0.742,0.492 -39.4134525,44.82421 -39.4134525,44.82421 L 143.27636,276.7218 277.53662,194.5752 c 0,0 -34.06949,-43.45699 -37.37548,-47.28699 z"/>
  <path style="fill:#ffffff" d="m 136.53625,34.350586 c -0.213,-0.016 -57.868777,72.745784 -58.701777,73.831784 0.952,0.627 56.973777,36.07032 58.701777,37.10633 V 89.56604 Z M 50.722046,166.78894 28.502198,191.45691 c 0,0 107.031062,65.79587 108.034052,66.39587 0,-1.125 -8.2e-4,-8.95184 -0.002,-19.81384 l -0.002,-19.74975 z"/>
</svg>
