<?xml version="1.0" encoding="UTF-8" standalone="no"?>
<svg xmlns="http://www.w3.org/2000/svg" version="1.1" x="0px" y="0px" width="305.05707" height="302.07361" viewBox="0 0 285.991 283.19401">
  <linearGradient id="SVGID_1_" gradientUnits="userSpaceOnUse" x1="225.3154" y1="137.5195" x2="94.080399" y2="61.750999">
    <stop offset="0.2" style="stop-color:#612c75"/>
    <stop offset="0.5" style="stop-color:#bf99c3"/>
    <stop offset="0.8" style="stop-color:#612c75"/>
  </linearGradient>
  <linearGradient id="SVGID_2_" gradientUnits="userSpaceOnUse" x1="254.9277" y1="253.6582" x2="53.703701" y2="137.48151">
    <stop offset="0.2" style="stop-color:#612c75"/>
    <stop offset="0.5" style="stop-color:#bf99c3"/>
    <stop offset="0.8" style="stop-color:#612c75"/>
  </linearGradient>
  <g transform="rotate(-90,141.597,141.597)">
    <g transform="rotate(90,149.4755,141.9295)">
      <path d="m 149.958,206.74 c -3.706,-2.188 -93.536,-55.917 -98.3,-58.712 -3.637,4.213 -44.112,56.016 -44.112,56.016 l 141.686,87.361 144.305,-87.854 c 0,0 -46.435,-54.341 -46.495,-54.343 -2.331,1.286 -95.183,56.501 -97.084,57.532 z" fill="#ffffff"/>
      <path d="m 52.976,120.136 c 5.919,3.785 96.454,59.431 96.454,59.431 0,0 93.148,-58.132 96.57,-60.378 -1.138,-1.53 -95.889,-110.978 -95.889,-110.978 0,0 -96.05,110.711 -97.135,111.925 z" fill="#ffffff"/>
      <path d="m 61.75,117.75 c 5.381,3.44 87.686,54.027 87.686,54.027 0,0 84.68,-52.847 87.791,-54.889 C 236.192,115.497 150.055,16 150.055,16 c 0,0 -87.319,100.646 -88.305,101.75 z" style="fill:url(#SVGID_1_)"/>
      <path d="M 150.012,213.42 C 146.643,211.431 57.706,158.041 53.375,155.5 50.069,159.33 16,202.787 16,202.787 l 134.26,82.146 134.822,-83.504 c 0,0 -38.672,-44.332 -39.414,-44.824 -0.029,-0.02 -0.071,-0.031 -0.127,-0.033 -2.118,1.169 -93.801,55.91 -95.529,56.848 z" style="fill:url(#SVGID_2_)"/>
      <path d="m 265.033,199.668 c 0,0 -107.03,65.795 -108.033,66.395 0,-1.124 0,-8.95 0.002,-19.813 l 0.002,-19.75 85.811,-51.5 z" fill="#ffffff"/>
      <path d="m 215.701,116.393 c -0.953,0.627 -56.973,36.071 -58.701,37.107 0,-1.313 0,-25.351 0,-55.723 0,-46.067 0,-53.714 0,-55.215 0.213,-0.016 57.867,72.745 58.701,73.831 z" fill="#ffffff"/>
    </g>
  </g>
</svg>
