<?xml version="1.0" encoding="UTF-8" standalone="no"?>
<svg xmlns="http://www.w3.org/2000/svg" version="1.1" width="305.05707" height="302.07361" viewBox="0 0 285.991 283.19401">
  <path d="m 143.48145,7.7893067 c 0,0 -86.138857,99.4972833 -87.172856,100.8892833 3.111,2.042 87.791746,54.88769 87.791746,54.88769 0,0 82.30455,-50.58711 87.68555,-54.02709 -0.986,-1.10501 -88.30445,-101.7498834 -88.30444,-101.7498833 z m -6.9452,26.5612793 V 89.56604 145.2887 c -1.728,-1.03602 -57.749777,-36.47933 -58.701777,-37.10633 0.833,-1.086 58.488777,-73.847784 58.701777,-73.831784 z M 240.16114,147.28821 c -4.33102,2.541 -93.26858,55.93092 -96.63758,57.91992 -1.728,-0.938 -93.409955,-55.67791 -95.527955,-56.84693 -0.056,0.002 -0.09817,0.014 -0.128173,0.033 -0.742,0.492 -39.4134525,44.82421 -39.4134525,44.82421 L 143.27636,276.7218 277.53662,194.5752 c 0,0 -34.0695,-43.45699 -37.37548,-47.28699 z m -189.439094,19.50073 85.810554,51.50025 0.002,19.74975 c 10e-4,10.862 0.002,18.68884 0.002,19.81384 -1.00298,-0.6 -108.034052,-66.39587 -108.034052,-66.39587 z"/>
</svg>
