<svg xmlns="http://www.w3.org/2000/svg" version="1.1" x="0px" y="0px" width="287.02148" height="286.86133" viewBox="0 0 269.08264 268.9325">
  <path d="m 135.02747,0 c 0,0 -86.138856,99.497284 -87.172856,100.88928 3.111,2.042 87.791746,54.88769 87.791746,54.88769 0,0 82.30455,-50.58709 87.68555,-54.02709 C 222.34591,100.64488 135.02747,-9.3750026e-8 135.02747,0 Z m -6.9452,26.561279 v 55.215454 55.722657 c -1.728,-1.036 -57.749778,-36.47932 -58.701776,-37.10632 0.832998,-1.086005 58.488776,-73.847791 58.701776,-73.831791 z M 231.70716,139.4989 c -4.33101,2.541 -93.26858,55.93092 -96.63758,57.91992 -1.728,-0.938 -93.409954,-55.67792 -95.527954,-56.84692 -0.056,0.002 -0.09817,0.014 -0.128174,0.033 C 38.671452,141.0969 0,185.42912 0,185.42912 l 134.82238,83.50337 134.26026,-82.1466 c 0,0 -34.0695,-43.45698 -37.37548,-47.28699 z"/>
</svg>
