<?xml version="1.0" encoding="UTF-8" standalone="no"?>
<svg
   viewBox="0 0 943.92 947.54"
   version="1.1"
   id="svg4"
   sodipodi:docname="M.svg"
   inkscape:version="1.1.1 (3bf5ae0d25, 2021-09-20)"
   width="943.92"
   height="947.54"
   xmlns:inkscape="http://www.inkscape.org/namespaces/inkscape"
   xmlns:sodipodi="http://sodipodi.sourceforge.net/DTD/sodipodi-0.dtd"
   xmlns:xlink="http://www.w3.org/1999/xlink"
   xmlns="http://www.w3.org/2000/svg"
   xmlns:svg="http://www.w3.org/2000/svg">
  <sodipodi:namedview
     id="namedview6"
     pagecolor="#ffffff"
     bordercolor="#666666"
     borderopacity="1.0"
     inkscape:pageshadow="2"
     inkscape:pageopacity="0.0"
     inkscape:pagecheckerboard="0"
     showgrid="false"
     inkscape:zoom="1"
     inkscape:cx="680"
     inkscape:cy="329"
     inkscape:window-width="1920"
     inkscape:window-height="986"
     inkscape:window-x="-11"
     inkscape:window-y="-11"
     inkscape:window-maximized="1"
     inkscape:current-layer="svg4" />
  <path
     d="m 53.136,19.193 c 0,251.517 0.102,511.037 -0.06,762.557 67.034,3.17 144.234,11.57 204.854,24.98 C 75.894,679.16 89.23,395.81 128.6,197.62 206.04,322.93 253.9,112.12 275.25,84.209 193.58,26.238 123.59,10.492 53.136,19.193 Z M 668.64,83.309 c 23.16,27.001 64.83,236.961 145.3,115.641 75.14,378.81 -26.39,529.43 -128.18,607.93 36.91,-8.79 129.23,-22.77 204.34,-24.53 V 19.308 C 809.1,7.9811 730.6,45.95 668.64,83.309 Z M 160.93,282.05 c -12.09,90.24 -28.17,311.2 63.75,424.43 C 196.43,395.7 343.35,244.75 417.28,176.35 308.67,304.82 231.24,501.28 310.59,740.39 371.28,495.97 502.37,351.52 636.72,255.53 516.96,362.41 401.44,526.58 374.67,758.62 464.54,618.89 594.24,502.94 737.8,443.19 604.85,531.99 492.4,653.79 436.33,789.31 523.35,694.95 636.84,644.76 697.17,641.34 574.89,698.44 498.06,794.63 452.75,901.3 c 11.72,0 24.59,-0.1 36.32,-0.17 C 540.52,758.05 846.06,850.09 782.12,281.93 661.88,292.06 655.93,129.05 606.3,73.745 599.08,147.88 357.13,156.02 335.83,74.991 285.45,131.9 284,291.62 160.93,282.05 Z"
     id="path2"
     style="display:inline;opacity:1;fill:#000000;fill-opacity:1"
     sodipodi:nodetypes="ccccccccccccccccccccccccccc" />
</svg>
