<?xml version="1.0" encoding="utf-8"?>
<!-- Generator: Adobe Illustrator 15.1.0, SVG Export Plug-In . SVG Version: 6.00 Build 0)  -->
<!DOCTYPE svg PUBLIC "-//W3C//DTD SVG 1.1//EN" "http://www.w3.org/Graphics/SVG/1.1/DTD/svg11.dtd">
<svg version="1.1" id="Layer_1" xmlns="http://www.w3.org/2000/svg" xmlns:xlink="http://www.w3.org/1999/xlink" x="0px" y="0px"
	 width="160px" height="132px" viewBox="0 0 160 132" enable-background="new 0 0 160 132" xml:space="preserve">
<g id="Layer_1_1_">
</g>
<g id="Layer_3" display="none">
</g>
<g>
	<path d="M81.578,63.599l-12.07-9.805c4.341-5.671,11.175-9.331,18.868-9.331c13.118,0,23.753,10.633,23.753,23.752
		c0,5.931-2.179,11.351-5.773,15.512L94.284,73.92c1.429-1.479,2.311-3.485,2.311-5.704c0-4.541-3.68-8.218-8.219-8.218
		C85.548,59.998,83.056,61.424,81.578,63.599z M72.095,71.727c-4.539,0-8.22-3.679-8.22-8.219c0-2.218,0.883-4.227,2.311-5.705
		l-12.072-9.807c-3.593,4.162-5.772,9.582-5.772,15.512c0,13.118,10.634,23.753,23.753,23.753c7.691,0,14.525-3.661,18.868-9.331
		l-12.07-9.805C77.413,70.298,74.921,71.727,72.095,71.727z M134.218,88.021c1.376-3.178,2.43-6.524,3.123-10.005l17.894-4.57
		l-2.59-23.353l-17.94-0.521c-1.364-3.385-3.088-6.586-5.125-9.557l9.188-15.489L120.421,9.844l-12.957,12.225
		c-3.322-1.375-6.826-2.404-10.465-3.037L92.55,1.605L69.196,4.197l-0.528,18.133c-3.223,1.386-6.273,3.101-9.105,5.105
		l-15.935-9.452l-7.169,8.96l26.322,21.385c5.932-7.623,15.187-12.531,25.594-12.531c17.904,0,32.418,14.513,32.418,32.417
		c0,8.002-2.904,15.323-7.71,20.977l35.529,28.865L134.218,88.021z M11.856,13.667L47.387,42.53
		c-4.806,5.655-7.71,12.974-7.71,20.978c0,17.904,14.513,32.418,32.418,32.418c10.405,0,19.66-4.909,25.593-12.532l26.323,21.384
		l-7.17,8.96l-15.934-9.45c-2.832,2.004-5.882,3.719-9.106,5.106l-0.527,18.133l-23.353,2.591l-4.451-17.425
		c-3.639-0.635-7.143-1.662-10.465-3.04l-12.957,12.226l-18.345-14.68l9.188-15.49c-2.037-2.97-3.761-6.17-5.125-9.556L7.826,81.63
		L5.235,58.278l17.895-4.571c0.692-3.479,1.748-6.826,3.121-10.004L11.856,13.667z"/>
</g>
</svg>
