<?xml version="1.0" encoding="UTF-8"?>
<svg id="Ebene_4" data-name="Ebene 4" xmlns="http://www.w3.org/2000/svg" viewBox="0 0 1000 1000">
  <defs>
    <style>
      .cls-1 {
        fill: #fff;
      }

      .cls-1, .cls-2 {
        stroke-width: 0px;
      }

      .cls-2 {
        fill: #1d1d1b;
      }
    </style>
  </defs>
  <path class="cls-2" d="m733.35,583.63l265.53-83.69-265.64-83.5c-4.42-12.28-9.78-24.11-16-35.4l40.36-40.65c-27.56-41.33-59.87-74.95-99.91-100.34l-41.39,41.6c-9.12-4.84-18.57-9.13-28.33-12.82v-15.33l-87.94-115.81-88.03,115.81v15.71c-10.07,3.86-19.83,8.34-29.21,13.43l-42.32-42.51c-41.33,27.56-74.95,61.14-100.34,101.19l42.21,42.32c-5.57,10.4-10.42,21.24-14.47,32.46L1.11,499.94l266.66,84.05c4.12,11.45,9.06,22.5,14.76,33.09l-42.2,42.41c28.14,42.41,60.97,77.11,100.34,100.84l42.24-42.54c9.35,5.06,19.08,9.53,29.11,13.38v15.67l87.99,115.79,87.98-115.79v-15.29c9.81-3.71,19.32-8.02,28.48-12.9l41.52,41.63c42.41-28.14,76.27-61.42,100-100.79l-40.47-40.65c6.15-11.23,11.46-23,15.83-35.2Z"/>
  <path class="cls-1" d="m500.13,354.69L36.76,500.12l463.24,145.94,463.24-145.87-463.11-145.5ZM109.18,500.12l390.98-123.03,390.76,123.1-390.87,122.16-390.87-122.23Z"/>
  <ellipse class="cls-1" cx="500" cy="500.07" rx="236.19" ry="237.51"/>
  <path class="cls-1" d="m500.04,155.47l-77.09,102.86v484.58l77.06,101.32,77.05-101.32v-485.1l-77.02-102.35Zm0,652.49l-54.6-72.31v-4.35c6.17,2.12,53.97,13.29,109.2.14v4.22s-54.6,72.3-54.6,72.3Zm54.6-538.94c-6.17-2.12-53.97-13.31-109.2-.17v-4.22l54.61-72.28,54.59,72.32v4.35Z"/>
  <path class="cls-2" d="m500,284.88c-118.89,0-215.28,96.38-215.28,215.28s96.38,215.28,215.28,215.28,215.28-96.38,215.28-215.28-96.38-215.28-215.28-215.28Zm0,394.65c-99.08,0-179.4-80.32-179.4-179.4s80.32-179.4,179.4-179.4,179.4,80.32,179.4,179.4-80.32,179.4-179.4,179.4Z"/>
  <path class="cls-1" d="m255.22,338.98c28.43-41.01,50.92-60.36,84.86-84.35l404.69,406.6c-26.12,38.97-46.14,57.48-84.79,84.72.09-.09-404.68-407.06-404.77-406.97Z"/>
  <path class="cls-1" d="m339.69,746.16c-41.01-28.43-60.36-50.92-84.35-84.86l404.63-406.67c38.97,26.12,57.45,46.11,84.69,84.76-.09-.09-405.06,406.68-404.97,406.77Z"/>
  <path class="cls-2" d="m338.03,722.63c-28.43-19.71-41.54-36.11-58.98-59.55l382.87-384.98c26.39,18.07,38.63,33.01,59.02,59.8-.06-.06-382.97,384.68-382.91,384.74Z"/>
  <path class="cls-2" d="m721.18,662.9c-17.61,25.39-32.44,38.93-59.57,59.8l-382.79-385.41c17.63-24.58,31.68-37.89,59.12-60.01l383.24,385.62Z"/>
  <ellipse class="cls-1" cx="500" cy="500.15" rx="179.4" ry="180.4"/>
  <path class="cls-2" d="m361.55,479.58c94.83-95.17,187.58-94.17,276.89,1.09-15.59-79.37-77.44-121.03-138.73-121.39-77.16,4.25-125.94,51.95-138.16,120.3Z"/>
  <path class="cls-2" d="m638.51,521.25c-94.85,95.15-187.71,94.01-277.01-1.26,15.57,79.37,76.87,120.5,138.15,120.86,77.16-4.24,126.62-51.25,138.86-119.61Z"/>
  <circle class="cls-2" cx="500" cy="500.07" r="69.04"/>
  <circle class="cls-1" cx="500" cy="500.07" r="45.24"/>
  <circle class="cls-2" cx="500" cy="500.07" r="33.07"/>
</svg>