<?xml version="1.0" encoding="UTF-8"?>
<svg id="Ebene_5" data-name="Ebene 5" xmlns="http://www.w3.org/2000/svg" viewBox="0 0 1000 1000">
  <defs>
    <style>
      .cls-1 {
        fill: #1e1e1c;
        stroke-width: 0px;
      }
    </style>
  </defs>
  <g>
    <path class="cls-1" d="m730.12,550.44l160.02-50.01-160.06-50.42c3.48,16.22,5.33,33.04,5.33,50.3s-1.83,33.97-5.29,50.13Z"/>
    <path class="cls-1" d="m108.4,500.36h0l159.9,50c-3.44-16.14-5.27-32.88-5.27-50.05s1.85-34.07,5.32-50.28l-159.95,50.33Z"/>
  </g>
  <g>
    <path class="cls-1" d="m488.96,263.03c.43-.02.85-.03,1.28-.05,1.15-.04,2.29-.08,3.42-.1.43-.01.86-.02,1.29-.03,1.35-.02,2.69-.04,4.01-.04.08,0,.17,0,.25,0,.04,0,.08,0,.12,0,27.83-.02,48.35,4.58,53.77,6.22.25.06.5.12.75.18v-4.29l-54.59-72.32-54.61,72.28v4.22c13.95-3.32,27.42-5.08,39.87-5.84.14,0,.27-.02.41-.02,1.36-.08,2.7-.15,4.03-.21Z"/>
    <path class="cls-1" d="m444.65,731.54v4.35l54.6,72.31,54.6-72.3v-4.22c-55.23,13.15-103.03,1.98-109.2-.14Z"/>
  </g>
  <path class="cls-1" d="m733.57,583.42h0s265.53-83.7,265.53-83.7l-265.64-83.5c-4.42-12.28-9.78-24.11-16-35.4l40.36-40.65c-27.56-41.33-59.87-74.95-99.91-100.34l-41.39,41.6c-9.12-4.84-18.57-9.13-28.33-12.82v-15.33l-87.94-115.81-88.03,115.81v15.71c-10.07,3.86-19.83,8.34-29.21,13.43l-42.32-42.51c-41.33,27.56-74.95,61.14-100.34,101.19l42.21,42.32c-5.57,10.4-10.42,21.24-14.47,32.46L1.33,499.72l266.66,84.05c4.12,11.45,9.06,22.5,14.76,33.09l-42.2,42.41c28.14,42.41,60.97,77.11,100.34,100.84l42.24-42.54c9.35,5.06,19.08,9.53,29.11,13.38v15.67l87.99,115.79,87.98-115.79v-15.29c9.81-3.71,19.32-8.02,28.48-12.9l41.52,41.63c42.41-28.14,76.27-61.42,100-100.79l-40.47-40.65c6.15-11.23,11.46-23,15.83-35.2Zm11.43,77.59c-26.12,38.97-46.14,57.48-84.79,84.72.02-.02-15.56-15.71-40.62-40.92-13.33,7.87-27.49,14.47-42.32,19.61v18.27l-77.05,101.32-77.06-101.32v-18.27c-14.85-5.15-29.02-11.76-42.36-19.64-25.21,25.35-40.91,41.14-40.89,41.16-41.01-28.43-60.36-50.92-84.35-84.86l40.89-41.1c-8.21-14.05-15.03-29.01-20.26-44.72l-239.21-75.36,239.08-75.03c5.23-15.81,12.08-30.88,20.33-45.02-25.22-25.33-40.93-41.1-40.95-41.08h0c28.43-41.01,50.92-60.36,84.86-84.35l40.38,40.57c13.37-7.91,27.58-14.54,42.47-19.7v-17.17l77.09-102.86h0s77.02,102.34,77.02,102.34v17.69c14.91,5.17,29.13,11.81,42.52,19.73l40.4-40.6c38.97,26.12,57.45,46.11,84.69,84.76-.02-.02-15.64,15.65-40.73,40.83,8.21,14.09,15.03,29.1,20.24,44.86l239.08,75.11-239.23,75.33c-5.21,15.65-12.01,30.56-20.18,44.57l40.95,41.14Z"/>
  <path class="cls-1" d="m421.7,337.66c23.46-11.32,49.75-17.67,77.51-17.67s54.1,6.35,77.57,17.69l25.95-26.08c-30.72-16.88-65.99-26.49-103.52-26.49s-72.76,9.6-103.47,26.46l10.37,10.42,15.58,15.65Z"/>
  <path class="cls-1" d="m320.51,516.24c-.02-.2-.04-.4-.05-.6-.12-1.38-.21-2.77-.3-4.16-.02-.34-.05-.68-.06-1.02-.07-1.32-.13-2.64-.17-3.96-.01-.37-.03-.74-.04-1.11-.04-1.66-.07-3.32-.07-5,0,0,0,0,0-.01,0,0,0,0,0,0,0-.05,0-.1,0-.15,0-1.6.03-3.2.07-4.8.01-.49.04-.98.06-1.47.04-1.18.09-2.36.15-3.53.03-.48.06-.97.09-1.45.08-1.22.16-2.44.26-3.65.03-.37.07-.74.1-1.11.12-1.39.26-2.78.42-4.17.02-.17.04-.33.06-.5,2.32-20.22,7.95-39.43,16.35-57.05-.2-.2-.4-.4-.6-.6-.23-.23-.46-.46-.69-.69-2.21-2.22-4.39-4.42-6.54-6.58-4.99-5.02-9.81-9.86-14.43-14.5-.58-.59-1.16-1.17-1.74-1.75-.81-.81-1.62-1.63-2.42-2.43-17.2,30.94-27.01,66.55-27.01,104.46s9.81,73.52,27.01,104.46l26.42-26.55c-9.1-19.07-14.95-40-16.86-62.07Z"/>
  <g>
    <path class="cls-1" d="m398.09,661.68c.66-.66,1.33-1.34,2-2.01,1.95-1.96,3.93-3.95,5.95-5.98-24.17-14.72-44.58-35-59.46-59.05l-12.4,12.47-28.77,28.93h0l-27.12,27.27c17.44,23.44,30.55,39.84,58.98,59.55h0s.03-.02.07-.06c0-.01.02-.02.03-.03.05-.05.12-.12.21-.22,0,0,.02-.02.02-.02.1-.1.22-.22.36-.36,0,0,.02-.02.02-.02.13-.13.29-.29.45-.46.05-.05.1-.1.16-.16.83-.83,2.03-2.04,3.58-3.61.11-.11.22-.22.33-.34,2.37-2.39,5.49-5.53,9.3-9.36.11-.11.22-.22.33-.33,7.17-7.21,16.68-16.78,27.99-28.14h0c2.56-2.58,5.23-5.26,7.97-8.01,1.64-1.65,3.31-3.33,5.01-5.04,1.63-1.64,3.3-3.32,4.99-5.01Z"/>
    <path class="cls-1" d="m664.03,394.48c1.79-1.79,3.54-3.55,5.26-5.28.76-.76,1.51-1.52,2.25-2.26.2-.2.39-.39.59-.59,2.01-2.02,3.97-3.99,5.88-5.9h0c6.34-6.36,12.1-12.15,17.18-17.25,1.06-1.06,2.09-2.1,3.09-3.1.49-.49.97-.98,1.45-1.46.89-.89,1.76-1.76,2.6-2.61.88-.88,1.72-1.73,2.54-2.55.68-.69,1.35-1.35,1.99-2,.09-.09.18-.18.27-.27.19-.19.38-.38.56-.57.4-.41.79-.8,1.18-1.18,1.5-1.51,2.87-2.88,4.09-4.1.2-.2.4-.41.6-.6.19-.19.37-.37.55-.55.33-.33.64-.64.94-.94.1-.1.21-.21.31-.31.07-.07.13-.13.2-.2.4-.4.77-.77,1.12-1.12.18-.18.35-.35.52-.52.51-.51.96-.96,1.34-1.35.1-.1.2-.2.29-.29.08-.08.15-.15.22-.22.14-.14.27-.27.38-.38.02-.02.03-.03.05-.05.14-.14.27-.27.37-.36,0,0,.01-.01.02-.02.1-.1.17-.17.22-.22,0,0,.02-.02.02-.02.04-.04.07-.07.07-.07-20.39-26.79-32.63-41.73-59.02-59.8l-26.94,27.09h0l-37.71,37.92-3.83,3.85c24.18,14.78,44.58,35.13,59.44,59.26.91-.91,1.8-1.81,2.69-2.7.53-.53,1.06-1.06,1.58-1.59,2.61-2.63,5.17-5.19,7.66-7.69Z"/>
  </g>
  <path class="cls-1" d="m499.22,680.79c-27.76,0-54.05-6.34-77.51-17.67-9.21,9.26-17.92,18.01-25.96,26.09,30.71,16.86,65.97,26.46,103.48,26.46s72.74-9.59,103.44-26.44c-8.04-8.09-16.74-16.84-25.95-26.1-23.46,11.32-49.74,17.66-77.49,17.66Z"/>
  <path class="cls-1" d="m687.57,396.09c-8.18,8.21-17.04,17.11-26.43,26.54,8.37,17.6,13.98,36.78,16.29,56.97.02.15.04.31.05.46.16,1.39.29,2.79.42,4.19.03.36.07.72.1,1.08.1,1.22.18,2.44.26,3.67.03.48.06.95.09,1.43.06,1.17.11,2.35.15,3.53.02.49.04.98.06,1.47.04,1.59.07,3.19.07,4.79,0,.05,0,.1,0,.16,0,0,0,0,0,0,0,0,0,0,0,.01,0,1.67-.03,3.33-.07,4.99-.01.37-.03.74-.04,1.1-.04,1.32-.1,2.64-.17,3.96-.02.34-.04.67-.06,1.01-.08,1.39-.18,2.79-.3,4.17-.02.19-.03.39-.05.58-1.9,22.04-7.74,42.94-16.81,61.99l26.43,26.56c17.16-30.91,26.95-66.49,26.95-104.35s-9.78-73.41-26.93-104.31Z"/>
  <g>
    <path class="cls-1" d="m380.3,320.93l-43.14-43.41c-27.44,22.12-41.49,35.43-59.12,60.01l42.49,42.78h0l25.88,26.06c14.93-24.22,35.45-44.62,59.76-59.4l-25.86-26.03h0Z"/>
    <path class="cls-1" d="m720.4,663.14l-27.18-27.35h0l-40.97-41.22h0l-.21-.21c-14.95,24.25-35.5,44.68-59.85,59.47l24.68,24.85,16.78,16.89h0l27.18,27.36c27.13-20.87,41.96-34.41,59.57-59.8h0Z"/>
  </g>
  <path class="cls-1" d="m360.77,479.82c94.83-95.17,187.58-94.17,276.89,1.09-15.59-79.37-77.44-121.03-138.73-121.39-77.16,4.25-125.94,51.95-138.16,120.3h0Z"/>
  <path class="cls-1" d="m637.72,521.49c-94.85,95.15-187.71,94.01-277.01-1.26,15.57,79.37,76.87,120.5,138.15,120.86,77.16-4.24,126.62-51.25,138.86-119.61h0Z"/>
  <path class="cls-1" d="m499.22,431.27c-38.13,0-69.04,30.91-69.04,69.04s30.91,69.04,69.04,69.04,69.04-30.91,69.04-69.04-30.91-69.04-69.04-69.04Zm0,114.28c-24.99,0-45.24-20.25-45.24-45.24s20.25-45.24,45.24-45.24,45.24,20.25,45.24,45.24-20.25,45.24-45.24,45.24Z"/>
  <circle class="cls-1" cx="499.22" cy="500.31" r="33.07"/>
</svg>