<?xml version="1.0" encoding="UTF-8" standalone="no"?>
<svg
   xmlns:dc="http://purl.org/dc/elements/1.1/"
   xmlns:cc="http://creativecommons.org/ns#"
   xmlns:rdf="http://www.w3.org/1999/02/22-rdf-syntax-ns#"
   xmlns:svg="http://www.w3.org/2000/svg"
   xmlns="http://www.w3.org/2000/svg"
   xmlns:xlink="http://www.w3.org/1999/xlink"
   height="512.96106"
   width="467.88297"
   version="1.1">
  <defs>
    <linearGradient id="g1">
      <stop offset="0"    style="stop-color:#7f6e41" />
      <stop offset="0.25" style="stop-color:#ae975f" />
      <stop offset="0.5"  style="stop-color:#e3cd99" />
      <stop offset="0.75" style="stop-color:#ae975f" />
      <stop offset="1"    style="stop-color:#7f6e41" />
    </linearGradient>
    <linearGradient
       gradientTransform="translate(-699.05851,-114.95508)"
       gradientUnits="userSpaceOnUse"
       y2="317.64001"
       x2="1152.7178"
       y1="317.64001"
       x1="713.28217"
       id="g2"
       xlink:href="#g1" />
  </defs>
  <path
     d="M 155.3536,0 C 78.139867,21.94494 29.941487,77.43554 8.941487,111.68554 c -11.5,58.5 -12.25,118.25 -0.25,189.25 58.5,35 68.5,107.5 61.75,144.5 35.415983,-15.31406 72.135733,-49.66633 94.250003,-100 -22.44689,3.11379 -37.58646,-12.83584 -29.75,-39.75 2.97337,-10.21196 38.44336,-42.33984 38.44336,-42.33984 h 24.18555 v 109.33984 c 0,0 -4.37891,41.5 -42.87891,73.75 4.75,5.75 18.375,12.5 18.375,12.5 0,0 -14.48236,12.89139 -22.1875,17 43.0625,49.36737 123.0625,49.36737 166.125,0 -7.7051,-4.10861 -22.1875,-17 -22.1875,-17 0,0 13.625,-6.75 18.375,-12.5 -38.5,-32.25 -42.87891,-73.75 -42.87891,-73.75 V 263.3457 h 24.18555 c 0,0 35.46996,32.12788 38.44336,42.33984 7.8365,26.91416 -7.3031,42.86379 -29.75,39.75 22.1143,50.33367 58.834,84.68594 94.25,100 -6.75,-37 3.25,-109.5 61.75,-144.5 12,-71 11.25,-130.75 -0.25,-189.25 -21,-34.25 -69.1984,-89.7406 -146.4121,-111.68554 2.7119,2.87297 8.0039,17.51367 8.0039,17.51367 l 13.6582,79.54687 -40.625,42.625 h -17.625 l -42,-100.52539 -42,100.52539 h -17.625 l -40.625,-42.625 13.6582,-79.54687 c 0,0 5.29206,-14.6407 8.00391,-17.51367 z"
     style="fill:#000000" />
  <path
     d="m 132.4786,23.1875 c -77.004083,33.89476 -98.889593,79.83313 -109.394533,92.38672 -9.3418,47.70898 -13.50825,103.44973 -1.31055,176.16797 46.43201,33.65911 66.32924,89.97582 64.57813,127.53125 26.287413,-17.96971 36.944623,-28.32681 55.712893,-60.75586 -22.40026,-17.24608 -83.253353,-84.20176 -54.394533,-191.9043 2.13924,-7.98375 5.72984,-10.90643 3.83984,0.78711 -11.41588,70.6307 6.344,110.59188 27.580083,143.01758 1.16592,-5.55066 4.46482,-12.56853 10.6875,-22.8711 5.49891,-9.10424 39.36523,-38.85351 39.36523,-38.85351 h 43.25977 v 109.91797 c 0,0 -9e-4,53.31451 -33.66992,86.05664 4.75,5.75 19.43554,7.90429 19.43554,7.90429 0,0 -15.68158,21.65311 -23.38672,25.76172 28.32022,23.43034 52.14892,21.8125 59.16016,21.8125 7.01124,0 30.83994,1.61784 59.16016,-21.8125 -7.70514,-4.10861 -23.38672,-25.76172 -23.38672,-25.76172 0,0 14.68554,-2.15429 19.43554,-7.90429 -33.66902,-32.74213 -33.66992,-86.05664 -33.66992,-86.05664 V 248.69336 h 43.25977 c 0,0 33.86637,29.74927 39.36527,38.85351 6.2226,10.30257 9.5215,17.32044 10.6875,22.8711 21.236,-32.4257 38.9959,-72.38688 27.58,-143.01758 -1.89,-11.69354 1.7006,-8.77086 3.8399,-0.78711 28.8588,107.70254 -31.9943,174.65822 -54.3945,191.9043 18.7682,32.42905 29.4254,42.78615 55.7128,60.75586 -1.7511,-37.55543 18.1462,-93.87214 64.5782,-127.53125 12.1977,-72.71824 8.0312,-128.45899 -1.3106,-176.16797 -10.5049,-12.55359 -32.3904,-58.49196 -109.3945,-92.38672 l 12.3652,80.11328 -47.61326,50.64062 h -39.37304 v -13.90234 l -26.8418,-64.1543 -26.8418,64.1543 v 13.90234 h -39.37304 l -47.61328,-50.64062 z"
     style="fill:url(#g2)" />
</svg>
