<?xml version="1.0" encoding="UTF-8" standalone="no"?>
<svg xmlns="http://www.w3.org/2000/svg" xmlns:xlink="http://www.w3.org/1999/xlink" width="342.79303" height="258.64999" viewBox="0 0 90.697321 68.43448" version="1.1">
      <linearGradient id="linearGradient862">
      <stop style="stop-color:#8b723c" offset="0"/>
      <stop style="stop-color:#d2bb7b" offset="0.2"/>
	  <stop style="stop-color:#ebd491" offset="0.5"/>
      <stop style="stop-color:#d2bb7b" offset="0.8"/>
      <stop style="stop-color:#8b723c" offset="1"/>
    </linearGradient>
    <linearGradient xlink:href="#linearGradient862" id="linearGradient855" x1="4.91369" y1="34.19712" x2="87.576176" y2="34.19712" gradientUnits="userSpaceOnUse"/>
  <path d="m 0,51.028433 c 16.600593,0.23623 20.587424,-12.38614 21.381541,-17.19389 1.567235,-9.48839 7.171996,-22.2926 21.140442,-22.96428 -5.451674,8.717171 -1.379751,12.091269 1.835107,7.546322 13.0731,-18.48185416 29.357245,-22.2947142 46.340233,-14.1612418 -21.68086,9.2151898 -10.94281,25.3260198 -1.60345,15.2820698 4.4484,20.00863 -5.54801,33.52907 -15.61587,41.09224 -7.31043,-2.62676 -12.91061,1.2251 -21.24396,4.3476 -10.30563,3.86151 -25.202651,6.31017 -40.771687,-2.86735 C 4.367962,57.242343 3.227617,55.319813 0,51.028433 Z"/>
  <path d="m 4.91369,53.012803 c 13.526993,-1.16694 17.780822,-13.69983 18.885555,-18.23332 0.770647,-5.73621 3.952483,-17.22397 14.513243,-20.7688 -2.992862,6.83204 2.95967,13.91153 9.99493,3.2366 9.97522,-13.4812698 24.471475,-17.55067985 36.643615,-12.8917098 -16.46911,10.1506298 -8.40375,24.8582898 2.40559,19.6920098 1.26327,13.78349 -2.84961,24.36773 -14.29574,33.8971 -9.98313,-1.82495 -14.53082,1.97683 -22.81121,5.23718 -11.011816,3.70665 -30.330644,6.10202 -45.335983,-10.16906 z" style="fill:url(#linearGradient855)"/>
  <path d="m 68.987153,24.200763 c -4.28966,2.26102 -4.48319,6.06337 -5.83194,13.6498 -1.779,5.31527 -4.07689,8.30479 -7.75359,11.42438 -8.64874,-8.03485 -3.68236,-13.17329 -7.89353,-15.68028 -2.01833,-0.8114 -3.83848,-0.59348 -5.93659,0.18916 6.2594,-5.92434 16.27042,-10.46709 27.41565,-9.58306 z"/>
  <path d="m 36.181698,41.091163 c 3.612227,4.82849 10.259005,8.43632 15.936825,10.21271 -8.10333,3.77741 -16.12465,6.01472 -25.843205,3.00478 4.430298,-2.1086 7.952126,-8.28647 9.90638,-13.21751 z"/>
</svg>
