<?xml version="1.0" encoding="UTF-8" standalone="no"?>
<svg xmlns:svg="http://www.w3.org/2000/svg" xmlns="http://www.w3.org/2000/svg" version="1.1" id="Layer_1" x="0px" y="0px" width="630.04px" height="864.983px">
  <g id="g3">
    <g id="g5">
      <path d="M312.17,3.006c0.221-1.34,1.181-3.189,2.791-2.99c2.039-0.24,2.879,2.21,3.069,3.84    c19.75,121.42,39.56,242.83,59.33,364.25c10.92,1.2,21.81,2.69,32.64,4.52c20.971-88.06,39.15-176.87,51.44-266.58    c0.29-1.83,1.61-3.78,3.69-3.65c2.899,1.07,2.529,4.61,3.17,7.07c18.26,99.88,36.619,199.74,54.89,299.62    c6.95,3.74,13.77,7.73,20.399,12.03c16.45-62.37,32.94-124.74,49.361-187.11c1.409-3.08,5.119-0.65,4.949,2.021    c10.801,96.13,21.439,192.28,32.14,288.42c-39.089,21.11-76.419,45.56-110.93,73.56c23.271,19.19,41.091,45.16,49.521,74.2    c11.06,37.75,7.56,80.08-11.74,114.59c-14.28,25.9-37.221,46.58-63.79,59.34c-31.59,15.291-67.36,20.2-102.16,18.541    c-44.771-2.45-89.8-18.95-122.18-50.611c-80.56-0.02-161.11,0-241.67-0.009c-7.49-14.841-14.97-29.681-22.46-44.511    c43.97-48.16,87.659-96.939,124.42-150.96C90.58,581.516,47,549.807,0,524.446c10.631-95.85,21.33-191.7,32-287.54    c-0.449-2.79,3.19-6.35,5.061-2.95c16.439,62.34,32.91,124.7,49.359,187.06c6.67-4.34,13.541-8.35,20.561-12.09    c18.54-101.21,37.02-202.44,55.55-303.65c0.2-1.351,1.12-2.47,2.431-2.9c2.05-0.03,3.319,1.9,3.629,3.72    c13.5,89.48,31.801,178.18,51.521,266.48c10.81-1.82,21.67-3.3,32.57-4.48C272.511,246.396,292.311,124.696,312.17,3.006z     M161.61,418.206c-31.09,4.59-60.38,18.31-85.5,36.94c-15.76,11.989-30.53,26.18-39.66,43.979    c29.761,15.97,57.421,35.5,84.21,55.99c2.32-2.26,4.63-4.53,6.91-6.83c-4.75-17.221-6.9-35.88-1.65-53.25    c3.15-10.71,9.951-20.84,20.17-25.87c12.9-6.3,28.75-5.239,41.271,1.48c10.92,5.739,18.74,16.5,21.61,28.41    c3.66,14.979,1.569,30.72-2.36,45.43c-5.84,20.89-16.11,40.21-27.5,58.56c-18.159,28.9-39.42,55.71-61.2,81.94    c-26.34,31.59-53.87,62.18-81.47,92.67c1.35,2.7,2.71,5.39,4.08,8.09c75.94,0,151.89,0.02,227.84-0.01    c19.47-31.23,38.979-62.44,58.45-93.671c-3.41,0.19-6.93-0.5-10.271,0.32c-15.22,6.061-30.279,12.53-45.55,18.43    c-40.15,0.271-80.31,0.051-120.47,0.101c31.53-34,66.86-64.16,101.979-94.33c12.971-11.33,25.9-22.93,36.32-36.72    c9.2-12.03,15.92-26.07,18.61-41.03c3.26-18.21,2.13-37.43-4.591-54.76c-5.979-15.52-16.43-29.21-29.569-39.359    c-15.7-12.261-34.64-19.811-54.04-23.821C200.32,417.196,180.771,415.686,161.61,418.206z M501.04,463.186    c-56.229-0.009-112.45-0.009-168.669,0c-7.261,66.211-14.531,132.41-21.791,198.621c32.121-0.2,64.83,2.329,95.26,13.279    c17.74,6.51,34.94,16.271,46.94,31.18c9.23,11.341,14.63,26,13.7,40.7c-0.47,13.23-5.5,26.841-15.92,35.42    c-11.98,10.041-28.439,12.601-43.609,11.43c-15.73-1.119-31.431-7.919-41.551-20.279c-11.01-13.101-14.86-30.771-14.26-47.55    c-3-1-6-1.99-9-2.98c-15.49,23.45-30.95,46.93-46.43,70.4c27.59,27.75,66.81,41.45,105.39,43.109c22.3,0.82,44.899-1.43,66.2-8.31    c25.64-8.12,49.32-24.12,64.01-46.95c21.12-32.14,23.33-74.8,8.49-109.93c-11.43-27.52-33.9-49.41-60.051-63.141    c-34.66-18.319-74.299-24.62-113.1-25.719c1.53-14.801,3.07-29.601,4.6-44.401c56.84-0.009,113.67,0,170.5-0.009    c-4.569-33.48-9.129-66.961-13.72-100.431c-3.149-0.01-6.29-0.01-9.43-0.01C512.73,446.126,506.9,454.666,501.04,463.186z"/>
    </g>
  </g>
  <g id="g9">
    <linearGradient id="SVGID_1_" gradientUnits="userSpaceOnUse" x1="476.5215" y1="314.8496" x2="8.2644" y2="783.1067">
      <stop offset="0.1" style="stop-color:#BF331C" id="stop12"/>
      <stop offset="0.1767" style="stop-color:#D2551C" id="stop14"/>
      <stop offset="0.2591" style="stop-color:#E1721D" id="stop16"/>
      <stop offset="0.3412" style="stop-color:#ED861D" id="stop18"/>
      <stop offset="0.422" style="stop-color:#F4931D" id="stop20"/>
      <stop offset="0.5" style="stop-color:#F6971D" id="stop22"/>
      <stop offset="0.578" style="stop-color:#F4931D" id="stop24"/>
      <stop offset="0.6588" style="stop-color:#ED861D" id="stop26"/>
      <stop offset="0.7409" style="stop-color:#E1721D" id="stop28"/>
      <stop offset="0.8233" style="stop-color:#D2551C" id="stop30"/>
      <stop offset="0.9" style="stop-color:#BF331C" id="stop32"/>
    </linearGradient>
    <path fill="url(#SVGID_1_)" d="M316.54,692.386c-15.22,6.061-30.279,12.53-45.55,18.43c-40.15,0.271-80.31,0.051-120.47,0.101   c31.53-34,66.86-64.16,101.979-94.33c12.971-11.33,25.9-22.93,36.32-36.72c9.2-12.03,15.92-26.07,18.61-41.03   c3.26-18.21,2.13-37.43-4.591-54.76c-5.979-15.52-16.43-29.21-29.569-39.359c-15.7-12.261-34.64-19.811-54.04-23.821   c-18.91-3.7-38.46-5.21-57.62-2.69c-31.09,4.59-60.38,18.31-85.5,36.94c-15.76,11.989-30.53,26.18-39.66,43.979   c29.761,15.97,57.421,35.5,84.21,55.99c2.32-2.26,4.63-4.53,6.91-6.83c-4.75-17.221-6.9-35.88-1.65-53.25   c3.15-10.71,9.951-20.84,20.17-25.87c12.9-6.3,28.75-5.239,41.271,1.48c10.92,5.739,18.74,16.5,21.61,28.41   c3.66,14.979,1.569,30.72-2.36,45.43c-5.84,20.89-16.11,40.21-27.5,58.56c-18.159,28.9-39.42,55.71-61.2,81.94   c-26.34,31.59-53.87,62.18-81.47,92.67c1.35,2.7,2.71,5.39,4.08,8.09c75.94,0,151.89,0.02,227.84-0.01   c19.47-31.23,38.979-62.44,58.45-93.671C323.4,692.256,319.881,691.565,316.54,692.386z"/>
    <path fill="url(#SVGID_1_)" d="M539.801,671.326c-11.43-27.52-33.9-49.41-60.051-63.141c-34.66-18.319-74.299-24.62-113.1-25.719   c1.53-14.801,3.07-29.601,4.6-44.401c56.84-0.009,113.67,0,170.5-0.009c-4.569-33.48-9.129-66.961-13.72-100.431   c-3.149-0.01-6.29-0.01-9.43-0.01c-5.87,8.51-11.7,17.05-17.561,25.569c-56.229-0.009-112.45-0.009-168.669,0   c-7.261,66.211-14.531,132.41-21.791,198.621c32.121-0.2,64.83,2.329,95.26,13.279c17.74,6.51,34.94,16.271,46.94,31.18   c9.23,11.341,14.63,26,13.7,40.7c-0.47,13.23-5.5,26.841-15.92,35.42c-11.98,10.041-28.439,12.601-43.609,11.43   c-15.73-1.119-31.431-7.919-41.551-20.279c-11.01-13.101-14.86-30.771-14.26-47.55c-3-1-6-1.99-9-2.98   c-15.49,23.45-30.95,46.93-46.43,70.4c27.59,27.75,66.81,41.45,105.39,43.109c22.3,0.82,44.899-1.43,66.2-8.31   c25.64-8.12,49.32-24.12,64.01-46.95C552.431,749.116,554.641,706.456,539.801,671.326z"/>
  </g>
</svg>
