<?xml version="1.0" encoding="UTF-8" standalone="no"?>
<svg xmlns:svg="http://www.w3.org/2000/svg" xmlns="http://www.w3.org/2000/svg" version="1.1" id="Layer_1" x="0px" y="0px" width="630.04px" height="864.983px">
  <g id="g3">
    <g id="g5">
      <path d="M312.17,3.006c0.22-1.34,1.18-3.189,2.789-2.99c2.04-0.24,2.881,2.21,3.07,3.84c19.75,121.42,39.561,242.83,59.33,364.25    c10.92,1.2,21.811,2.69,32.64,4.52c20.971-88.06,39.15-176.87,51.44-266.58c0.29-1.83,1.61-3.78,3.689-3.65    c2.9,1.07,2.53,4.61,3.171,7.07c18.26,99.88,36.62,199.74,54.89,299.62c6.95,3.74,13.77,7.73,20.4,12.03    c16.449-62.37,32.939-124.74,49.36-187.11c1.409-3.08,5.119-0.65,4.949,2.021c10.801,96.13,21.44,192.28,32.14,288.42    c-39.089,21.11-76.42,45.56-110.93,73.56c23.27,19.19,41.091,45.16,49.52,74.2c11.061,37.75,7.561,80.08-11.739,114.59    c-14.28,25.9-37.22,46.58-63.79,59.34c-31.59,15.291-67.36,20.2-102.16,18.541c-44.77-2.45-89.8-18.95-122.18-50.611    c-80.561-0.02-161.11,0-241.67-0.009c-7.49-14.841-14.971-29.681-22.46-44.511c43.97-48.16,87.659-96.939,124.419-150.96    C90.579,581.516,47,549.807,0,524.446c10.63-95.85,21.329-191.7,32-287.54c-0.45-2.79,3.189-6.35,5.06-2.95    c16.44,62.34,32.91,124.7,49.36,187.06c6.67-4.34,13.539-8.35,20.56-12.09c18.54-101.21,37.021-202.44,55.55-303.65    c0.2-1.351,1.12-2.47,2.43-2.9c2.051-0.03,3.32,1.9,3.631,3.72c13.5,89.48,31.8,178.18,51.52,266.48    c10.811-1.82,21.67-3.3,32.57-4.48C272.51,246.396,292.31,124.696,312.17,3.006z M161.609,418.206    c-31.09,4.59-60.38,18.31-85.5,36.94c-15.76,11.989-30.53,26.18-39.66,43.979c29.76,15.97,57.42,35.5,84.211,55.99    c2.319-2.26,4.629-4.53,6.909-6.83c-4.75-17.221-6.899-35.88-1.649-53.25c3.149-10.71,9.949-20.84,20.17-25.87    c12.9-6.3,28.75-5.239,41.27,1.48c10.92,5.739,18.74,16.5,21.61,28.41c3.659,14.979,1.569,30.72-2.36,45.43    c-5.84,20.89-16.109,40.21-27.5,58.56c-18.16,28.9-39.42,55.71-61.199,81.94c-26.341,31.59-53.871,62.18-81.471,92.67    c1.35,2.7,2.71,5.39,4.08,8.09c75.939,0,151.891,0.02,227.84-0.01c19.47-31.23,38.98-62.44,58.45-93.671    c-3.41,0.19-6.931-0.5-10.271,0.32c-15.22,6.061-30.279,12.53-45.549,18.43c-40.15,0.271-80.311,0.051-120.471,0.101    c31.529-34,66.859-64.16,101.979-94.33c12.971-11.33,25.9-22.93,36.32-36.72c9.2-12.03,15.921-26.07,18.61-41.03    c3.26-18.21,2.13-37.43-4.59-54.76c-5.98-15.52-16.43-29.21-29.57-39.359c-15.7-12.261-34.641-19.811-54.04-23.821    C200.319,417.196,180.77,415.686,161.609,418.206z M501.039,463.186c-56.229-0.009-112.449-0.009-168.67,0    c-7.26,66.211-14.529,132.41-21.79,198.621c32.121-0.2,64.831,2.329,95.261,13.279c17.739,6.51,34.939,16.271,46.939,31.18    c9.23,11.341,14.63,26,13.7,40.7c-0.47,13.23-5.5,26.841-15.92,35.42c-11.98,10.041-28.44,12.601-43.609,11.43    c-15.73-1.119-31.431-7.919-41.551-20.279c-11.01-13.101-14.86-30.771-14.26-47.55c-3-1-6-1.99-9-2.98    c-15.49,23.45-30.95,46.93-46.431,70.4c27.591,27.75,66.811,41.45,105.391,43.109c22.3,0.82,44.899-1.43,66.2-8.31    c25.64-8.12,49.319-24.12,64.01-46.95c21.12-32.14,23.33-74.8,8.49-109.93c-11.431-27.52-33.9-49.41-60.051-63.141    c-34.659-18.319-74.299-24.62-113.1-25.719c1.53-14.801,3.07-29.601,4.6-44.401c56.841-0.009,113.671,0,170.5-0.009    c-4.569-33.48-9.13-66.961-13.72-100.431c-3.15-0.01-6.29-0.01-9.43-0.01C512.729,446.126,506.899,454.666,501.039,463.186z"/>
    </g>
  </g>
  <g id="g9">
    <linearGradient id="SVGID_1_" gradientUnits="userSpaceOnUse" x1="438.04" y1="353.3286" x2="-2.6499" y2="794.0186">
      <stop offset="0.1" style="stop-color:#8F743F" id="stop12"/>
      <stop offset="0.1698" style="stop-color:#AC9259" id="stop14"/>
      <stop offset="0.254" style="stop-color:#C7AF71" id="stop16"/>
      <stop offset="0.3379" style="stop-color:#DBC383" id="stop18"/>
      <stop offset="0.4204" style="stop-color:#E7D08D" id="stop20"/>
      <stop offset="0.5" style="stop-color:#EBD491" id="stop22"/>
      <stop offset="0.5796" style="stop-color:#E7D08D" id="stop24"/>
      <stop offset="0.6621" style="stop-color:#DBC383" id="stop26"/>
      <stop offset="0.746" style="stop-color:#C7AF71" id="stop28"/>
      <stop offset="0.8302" style="stop-color:#AC9259" id="stop30"/>
      <stop offset="0.9" style="stop-color:#8F743F" id="stop32"/>
    </linearGradient>
    <path fill="url(#SVGID_1_)" d="M316.539,692.386c-15.22,6.061-30.279,12.53-45.549,18.43c-40.15,0.271-80.311,0.051-120.471,0.101   c31.529-34,66.859-64.16,101.979-94.33c12.971-11.33,25.9-22.93,36.32-36.72c9.2-12.03,15.921-26.07,18.61-41.03   c3.26-18.21,2.13-37.43-4.59-54.76c-5.98-15.52-16.43-29.21-29.57-39.359c-15.7-12.261-34.641-19.811-54.04-23.821   c-18.91-3.7-38.46-5.21-57.62-2.69c-31.09,4.59-60.38,18.31-85.5,36.94c-15.76,11.989-30.53,26.18-39.66,43.979   c29.76,15.97,57.42,35.5,84.211,55.99c2.319-2.26,4.629-4.53,6.909-6.83c-4.75-17.221-6.899-35.88-1.649-53.25   c3.149-10.71,9.949-20.84,20.17-25.87c12.9-6.3,28.75-5.239,41.27,1.48c10.92,5.739,18.74,16.5,21.61,28.41   c3.659,14.979,1.569,30.72-2.36,45.43c-5.84,20.89-16.109,40.21-27.5,58.56c-18.16,28.9-39.42,55.71-61.199,81.94   c-26.341,31.59-53.871,62.18-81.471,92.67c1.35,2.7,2.71,5.39,4.08,8.09c75.939,0,151.891,0.02,227.84-0.01   c19.47-31.23,38.98-62.44,58.45-93.671C323.399,692.256,319.879,691.565,316.539,692.386z"/>
    <path fill="url(#SVGID_1_)" d="M539.8,671.326c-11.431-27.52-33.9-49.41-60.051-63.141c-34.659-18.319-74.299-24.62-113.1-25.719   c1.53-14.801,3.07-29.601,4.6-44.401c56.841-0.009,113.671,0,170.5-0.009c-4.569-33.48-9.13-66.961-13.72-100.431   c-3.15-0.01-6.29-0.01-9.43-0.01c-5.87,8.51-11.7,17.05-17.561,25.569c-56.229-0.009-112.449-0.009-168.67,0   c-7.26,66.211-14.529,132.41-21.79,198.621c32.121-0.2,64.831,2.329,95.261,13.279c17.739,6.51,34.939,16.271,46.939,31.18   c9.23,11.341,14.63,26,13.7,40.7c-0.47,13.23-5.5,26.841-15.92,35.42c-11.98,10.041-28.44,12.601-43.609,11.43   c-15.73-1.119-31.431-7.919-41.551-20.279c-11.01-13.101-14.86-30.771-14.26-47.55c-3-1-6-1.99-9-2.98   c-15.49,23.45-30.95,46.93-46.431,70.4c27.591,27.75,66.811,41.45,105.391,43.109c22.3,0.82,44.899-1.43,66.2-8.31   c25.64-8.12,49.319-24.12,64.01-46.95C552.43,749.116,554.64,706.456,539.8,671.326z"/>
  </g>
</svg>
