<?xml version="1.0" encoding="UTF-8" standalone="no"?>
<svg
   version="1.1"
   id="Layer_1"
   x="0px"
   y="0px"
   width="630.04px"
   height="864.983px"
   sodipodi:docname="T.svg"
   inkscape:version="1.1.1 (3bf5ae0d25, 2021-09-20)"
   xmlns:inkscape="http://www.inkscape.org/namespaces/inkscape"
   xmlns:sodipodi="http://sodipodi.sourceforge.net/DTD/sodipodi-0.dtd"
   xmlns="http://www.w3.org/2000/svg"
   xmlns:svg="http://www.w3.org/2000/svg">
  <defs
     id="defs27" />
  <sodipodi:namedview
     id="namedview25"
     pagecolor="#ffffff"
     bordercolor="#666666"
     borderopacity="1.0"
     inkscape:pageshadow="2"
     inkscape:pageopacity="0.0"
     inkscape:pagecheckerboard="0"
     showgrid="false"
     inkscape:zoom="0.83123"
     inkscape:cx="315.2"
     inkscape:cy="433.09"
     inkscape:window-width="1920"
     inkscape:window-height="986"
     inkscape:window-x="-11"
     inkscape:window-y="-11"
     inkscape:window-maximized="1"
     inkscape:current-layer="g5" />
  <g
     id="g3">
    <g
       id="g5">
      <path
         d="m 312.17,3.006 c 0.22,-1.34 1.18,-3.189 2.79,-2.99 2.04,-0.24 2.88,2.21 3.07,3.84 19.75,121.424 39.56,242.834 59.33,364.254 10.92,1.2 21.81,2.69 32.64,4.52 20.97,-88.06 39.15,-176.87 51.44,-266.58 0.29,-1.83 1.61,-3.78 3.69,-3.65 2.9,1.07 2.53,4.61 3.17,7.07 18.26,99.88 36.62,199.74 54.89,299.62 6.95,3.74 13.77,7.73 20.4,12.03 16.45,-62.37 32.94,-124.74 49.36,-187.11 1.41,-3.08 5.12,-0.65 4.95,2.02 10.8,96.13 21.44,192.28 32.14,288.42 -39.09,21.11 -76.42,45.56 -110.93,73.56 23.27,19.19 41.09,45.16 49.52,74.2 11.06,37.75 7.56,80.08 -11.74,114.59 -14.28,25.9 -37.22,46.58 -63.79,59.34 -31.59,15.29 -67.36,20.2 -102.16,18.54 -44.77,-2.45 -89.8,-18.95 -122.18,-50.61 -80.56,0 -161.11,0 -241.67,0 C 19.6,799.22 12.119,784.38 4.63,769.55 48.6,721.39 92.29,672.61 129.05,618.59 90.58,581.52 47,549.81 0,524.45 10.631,428.6 21.33,332.75 32,236.91 c -0.449,-2.79 3.19,-6.35 5.061,-2.95 16.439,62.34 32.91,124.7 49.359,187.06 6.67,-4.34 13.541,-8.35 20.56,-12.09 18.54,-101.21 37.02,-202.44 55.55,-303.65 0.2,-1.35 1.12,-2.47 2.43,-2.9 2.05,0 3.32,1.9 3.63,3.72 13.5,89.48 31.8,178.18 51.52,266.48 10.81,-1.82 21.67,-3.3 32.57,-4.48 C 272.51,246.4 292.31,124.7 312.17,3.006 Z M 161.61,418.21 c -31.09,4.59 -60.38,18.31 -85.5,36.94 -15.76,11.98 -30.53,26.18 -39.66,43.97 29.761,15.98 57.42,35.5 84.21,56 2.32,-2.26 4.63,-4.53 6.91,-6.84 -4.75,-17.22 -6.9,-35.88 -1.65,-53.25 3.15,-10.71 9.95,-20.84 20.17,-25.87 12.9,-6.3 28.75,-5.23 41.27,1.48 10.92,5.74 18.74,16.5 21.61,28.42 3.66,14.97 1.57,30.71 -2.36,45.43 -5.84,20.88 -16.11,40.21 -27.5,58.56 -18.16,28.9 -39.42,55.71 -61.2,81.94 -26.339,31.59 -53.868,62.18 -81.469,92.67 1.351,2.7 2.71,5.39 4.08,8.09 75.939,0 151.889,0 227.839,0 19.47,-31.23 38.98,-62.44 58.45,-93.68 -3.41,0.19 -6.93,-0.5 -10.27,0.32 -15.22,6.07 -30.28,12.53 -45.55,18.43 -40.15,0.28 -80.31,0.1 -120.47,0.11 31.53,-34 66.86,-64.16 101.98,-94.33 12.97,-11.34 25.9,-22.93 36.32,-36.72 9.2,-12.03 15.92,-26.08 18.61,-41.03 3.26,-18.22 2.13,-37.43 -4.59,-54.76 -5.98,-15.52 -16.43,-29.21 -29.57,-39.36 -15.7,-12.26 -34.64,-19.81 -54.04,-23.82 -18.91,-3.7 -38.46,-5.21 -57.62,-2.69 z m 339.43,44.98 c -56.23,0 -112.45,0 -168.67,0 -7.26,66.21 -14.53,132.41 -21.79,198.62 32.12,-0.2 64.83,2.33 95.26,13.28 17.74,6.51 34.94,16.27 46.94,31.18 9.23,11.34 14.63,26 13.7,40.7 -0.47,13.23 -5.5,26.84 -15.92,35.42 -11.98,10.04 -28.44,12.6 -43.61,11.43 -15.73,-1.12 -31.43,-7.92 -41.55,-20.28 -11.01,-13.1 -14.86,-30.77 -14.26,-47.55 -3,-1 -6,-1.99 -9,-2.98 -15.49,23.45 -30.95,46.93 -46.43,70.4 27.59,27.75 66.81,41.45 105.39,43.11 22.3,0.82 44.9,-1.43 66.2,-8.31 25.64,-8.12 49.32,-24.12 64.01,-46.95 21.12,-32.14 23.33,-74.8 8.49,-109.93 -11.43,-27.52 -33.9,-49.41 -60.05,-63.14 -34.66,-18.32 -74.3,-24.62 -113.1,-25.72 1.53,-14.81 3.07,-29.6 4.6,-44.4 56.84,0 113.67,0 170.5,0 -4.57,-33.48 -9.13,-66.96 -13.72,-100.43 -3.15,0 -6.29,0 -9.43,0 -5.87,8.51 -11.7,17.05 -17.56,25.57 z"
         id="path2"
         style="fill:#ffffff;fill-opacity:1" />
    </g>
  </g>
  <g
     id="g9">
    <g
       id="g21">
      <linearGradient
         id="SVGID_1_"
         gradientUnits="userSpaceOnUse"
         x1="486.8477"
         y1="304.5234"
         x2="-6.9414"
         y2="798.3125">
        <stop
           style="stop-color:#612c75"
           offset="0"
           id="stop6" />
        <stop
           style="stop-color:#7b5190"
           offset="0.3"
           id="stop8" />
        <stop
           style="stop-color:#bf99c3"
           offset="0.5"
           id="stop10" />
        <stop
           style="stop-color:#7b5190"
           offset="0.7"
           id="stop12" />
        <stop
           style="stop-color:#612c75"
           offset="1"
           id="stop14" />
      </linearGradient>
      <path
         fill="url(#SVGID_1_)"
         d="M316.541,692.386c-15.221,6.061-30.28,12.53-45.551,18.43c-40.15,0.271-80.31,0.051-120.47,0.101    c31.529-34,66.86-64.16,101.979-94.33c12.971-11.33,25.9-22.93,36.32-36.72c9.2-12.03,15.92-26.07,18.61-41.03    c3.26-18.21,2.13-37.43-4.591-54.76c-5.979-15.52-16.43-29.21-29.569-39.359c-15.7-12.261-34.64-19.811-54.04-23.821    c-18.91-3.7-38.46-5.21-57.62-2.69c-31.09,4.59-60.38,18.31-85.5,36.94c-15.76,11.989-30.53,26.18-39.66,43.979    c29.761,15.97,57.42,35.5,84.21,55.99c2.32-2.26,4.631-4.53,6.91-6.83c-4.75-17.221-6.9-35.88-1.65-53.25    c3.15-10.71,9.95-20.84,20.17-25.87c12.9-6.3,28.75-5.239,41.271,1.48c10.92,5.739,18.74,16.5,21.61,28.41    c3.66,14.979,1.57,30.72-2.36,45.43c-5.84,20.89-16.11,40.21-27.5,58.56c-18.16,28.9-39.42,55.71-61.2,81.94    c-26.34,31.59-53.869,62.18-81.47,92.67c1.351,2.7,2.71,5.39,4.08,8.09c75.94,0,151.89,0.02,227.84-0.01    c19.47-31.23,38.979-62.44,58.45-93.671C323.4,692.256,319.881,691.565,316.541,692.386z"
         id="path17" />
      <path
         fill="url(#SVGID_1_)"
         d="M539.801,671.326c-11.431-27.52-33.9-49.41-60.051-63.141c-34.66-18.319-74.299-24.62-113.1-25.719    c1.53-14.801,3.07-29.601,4.6-44.401c56.84-0.009,113.67,0,170.5-0.009c-4.569-33.48-9.13-66.961-13.72-100.431    c-3.149-0.01-6.29-0.01-9.43-0.01c-5.87,8.51-11.7,17.05-17.56,25.569c-56.23-0.009-112.451-0.009-168.671,0    c-7.26,66.211-14.53,132.41-21.79,198.621c32.121-0.2,64.83,2.329,95.26,13.279c17.74,6.51,34.94,16.271,46.94,31.18    c9.23,11.341,14.63,26,13.7,40.7c-0.47,13.23-5.5,26.841-15.92,35.42c-11.98,10.041-28.44,12.601-43.609,11.43    c-15.73-1.119-31.431-7.919-41.551-20.279c-11.01-13.101-14.859-30.771-14.26-47.55c-3-1-6-1.99-9-2.98    c-15.49,23.45-30.95,46.93-46.43,70.4c27.59,27.75,66.81,41.45,105.39,43.109c22.3,0.82,44.899-1.43,66.2-8.31    c25.64-8.12,49.319-24.12,64.01-46.95C552.431,749.116,554.641,706.456,539.801,671.326z"
         id="path19" />
    </g>
  </g>
</svg>
