<?xml version="1.0" encoding="UTF-8" standalone="no"?>
<svg xmlns="http://www.w3.org/2000/svg" version="1.1" width="600" height="488.69885">
  <radialGradient cx="0" cy="0" r="1" fx="0" fy="0" id="radialGradient352" gradientUnits="userSpaceOnUse" gradientTransform="matrix(19.935165,0,0,-19.935165,219.25,371.47363)" spreadMethod="pad">
      <stop style="stop-color:#d9eaf3" offset="0"/>
      <stop style="stop-color:#99aebc" offset="0.7"/>
      <stop style="stop-color:#536e78" offset="1"/>
  </radialGradient>
  <path d="m 561.47831,17.75199 c -0.57373,0.29322 -58.03298,25.72999 -243.62858,25.72999 l -35.65059,0 C 96.554673,43.48198 39.095907,18.04521 38.521686,17.75199 L 0.39095907,0.19548 0,42.05254 0,67.96579 c 0,19.42578 13.646915,31.82651 27.831399,36.65241 0.904093,3.53085 2.101405,6.73183 3.762981,9.68846 l 0,88.33231 76.02932,0 c -4.15394,44.76482 -19.572387,212.13195 -20.855221,225.79109 -5.778864,8.68662 -8.161271,18.3262 -8.161271,27.09835 0,5.02138 0.67245,9.68845 1.857056,13.69578 l 5.583384,19.47465 96.737932,0 16.09041,-58.88821 c 0,0 -5.92547,-2.95663 -11.50885,-5.77886 2.43127,-28.34454 15.79718,-183.2132 18.99816,-220.57423 l 22.13806,0 c -0.0391,1.85706 -0.80635,26.76848 -0.80635,26.76848 l 144.60598,0 c 0,0 -0.76921,-24.96029 -0.80635,-26.76848 l 22.13806,0 c 3.20098,37.36103 16.56689,192.22969 18.99816,220.57423 -5.58338,2.82223 -11.45998,5.77886 -11.45998,5.77886 l 16.04154,58.88821 96.59132,0 5.68113,-19.27917 c 1.0507,-3.57972 1.80818,-8.30788 1.80818,-13.59804 0,-8.45449 -2.05253,-18.37508 -8.06353,-27.39157 -1.23396,-13.65914 -16.70128,-181.02627 -20.85522,-225.79109 l 76.02932,0 0,-88.28344 c 1.66158,-3.0055 2.90776,-6.20648 3.81185,-9.73733 C 586.35308,99.7923 600,87.39157 600,67.96579 L 600,0 561.47831,17.75199 z"/>
  <g transform="matrix(12.217471,0,0,-12.217471,-2378.6805,4790.397)">
    <path d="m 220.711,386.332 -2.922,0 c -16.25,0 -20.891,2.32 -20.891,2.32 l 0,0 0,-2.121 c 0,-0.797 0.926,-0.996 0.926,-0.996 l 0,0 1.196,0 0,-1.195 c 0,-0.926 0.996,-1.192 0.996,-1.192 l 0,0 6.433,0 -0.265,-2.586 -6.7,0 0,-2.851 6.434,0 -1.988,-21.559 c -0.864,-0.73 -0.532,-1.859 -0.532,-1.859 l 0,0 4.579,0 0.394,1.461 -0.664,0.332 1.859,21.559 6.102,0 -0.066,-2.192 7.296,0 -0.066,2.192 6.102,0 1.855,-21.559 -0.66,-0.332 0.394,-1.461 4.579,0 c 0,0 0.332,1.129 -0.532,1.859 l 0,0 -1.988,21.559 6.434,0 0,2.851 -6.7,0 -0.265,2.586 6.433,0 c 0,0 0.996,0.266 0.996,1.192 l 0,0 0,1.195 1.192,0 c 0,0 0.93,0.199 0.93,0.996 l 0,0 0,2.121 c 0,0 -4.641,-2.32 -20.891,-2.32 m 1.855,-3.117 6.102,0 0.199,-2.586 -6.101,0 -0.2,2.586 z m -12.734,0 6.102,0 -0.2,-2.586 -6.101,0 0.199,2.586 z" style="fill:url(#radialGradient352)"/>
  </g>
</svg>
