<?xml version="1.0" encoding="UTF-8" standalone="no"?>
<svg xmlns="http://www.w3.org/2000/svg" version="1.1" width="600" height="488.69885">
  <g transform="matrix(12.217471,0,0,-12.217471,-2378.6805,4790.397)">
    <path d="m 220.711,386.332 -2.922,0 c -16.25,0 -20.891,2.32 -20.891,2.32 l 0,0 0,-2.121 c 0,-0.797 0.926,-0.996 0.926,-0.996 l 0,0 1.196,0 0,-1.195 c 0,-0.926 0.996,-1.192 0.996,-1.192 l 0,0 6.433,0 -0.265,-2.586 -6.7,0 0,-2.851 6.434,0 -1.988,-21.559 c -0.864,-0.73 -0.532,-1.859 -0.532,-1.859 l 0,0 4.579,0 0.394,1.461 -0.664,0.332 1.859,21.559 6.102,0 -0.066,-2.192 7.296,0 -0.066,2.192 6.102,0 1.855,-21.559 -0.66,-0.332 0.394,-1.461 4.579,0 c 0,0 0.332,1.129 -0.532,1.859 l 0,0 -1.988,21.559 6.434,0 0,2.851 -6.7,0 -0.265,2.586 6.433,0 c 0,0 0.996,0.266 0.996,1.192 l 0,0 0,1.195 1.192,0 c 0,0 0.93,0.199 0.93,0.996 l 0,0 0,2.121 c 0,0 -4.641,-2.32 -20.891,-2.32 m 1.855,-3.117 6.102,0 0.199,-2.586 -6.101,0 -0.2,2.586 z m -12.734,0 6.102,0 -0.2,-2.586 -6.101,0 0.199,2.586 z"/>
  </g>
</svg>
