<?xml version="1.0" encoding="UTF-8" standalone="no"?>
<svg xmlns="http://www.w3.org/2000/svg" version="1.1" id="svg2" width="82.190056" height="65.052734" viewBox="0 0 82.190055 65.052735">
  <path d="m 0.18584801,0 c -0.082355,3.3363 -0.49485613,6.7555455 0.26367187,10.041016 0.385767,1.88532 1.70334872,3.534679 3.48046872,4.042969 V 26.236328 H 14.992489 l -2.683594,32.267579 c -0.325083,0.72088 -0.76171,1.383171 -1.078125,2.113281 -0.10838,1.46945 -0.0011,2.947805 -0.04883,4.421875 l 14.96289,0.01367 c -0.013,-1.39552 0.02208,-2.79199 -0.0039,-4.1875 0.117029,-0.88258 -0.911471,-1.376452 -0.759766,-2.263672 l 2.419922,-32.47461 3.544922,-0.0059 v 3.927734 h 19.498043 v -3.927734 l 3.544922,0.0059 2.419922,32.47461 c 0.151705,0.88722 -0.876795,1.381092 -0.759766,2.263672 -0.02599,1.39551 0.0091,2.79198 -0.0039,4.1875 l 14.96289,-0.01367 c -0.04773,-1.47407 0.05955,-2.952425 -0.04883,-4.421875 -0.316415,-0.73011 -0.753042,-1.392401 -1.078125,-2.113281 L 67.197567,26.236328 h 11.0625 V 14.083985 c 1.77712,-0.50829 3.094701,-2.157649 3.480468,-4.042969 C 82.499063,6.7555455 82.086557,3.3363 82.004207,0 80.591176,0.42048005 79.22064,0.99741995 77.820613,1.4687499 68.961001,4.42614 59.664503,5.5869818 50.410457,5.7949218 c -6.404909,0.00295 -12.490947,-0.0097 -18.630859,0 C 22.525536,5.5869818 13.229054,4.42614 4.3694417,1.4687499 2.9694147,0.99742005 1.598879,0.42048005 0.18584801,0 Z"/>
</svg>
