<?xml version="1.0" encoding="UTF-8" standalone="no"?>
<svg xmlns="http://www.w3.org/2000/svg" xmlns:xlink="http://www.w3.org/1999/xlink" version="1.1" width="600" height="684.18951">
  <linearGradient x1="0" y1="0" x2="1" y2="0" id="linearGradient896" gradientUnits="userSpaceOnUse" gradientTransform="matrix(0,36.226563,36.226563,0,625.38965,16.770508)" spreadMethod="pad">
    <stop style="stop-color:#612c75" offset="0"/>
    <stop style="stop-color:#7b5190" offset="0.3"/>
    <stop style="stop-color:#bf99c3" offset="0.5"/>
    <stop style="stop-color:#7b5190" offset="0.7"/>
    <stop style="stop-color:#612c75" offset="1"/>
  </linearGradient>
  <linearGradient x1="0" y1="0" x2="1" y2="0" id="linearGradient2995" xlink:href="#linearGradient896" gradientUnits="userSpaceOnUse" gradientTransform="matrix(0,36.226563,36.226563,0,625.38965,16.770508)" spreadMethod="pad"/>
  <linearGradient x1="0" y1="0" x2="1" y2="0" id="linearGradient2998" xlink:href="#linearGradient896" gradientUnits="userSpaceOnUse" gradientTransform="matrix(0,-619.64587,619.64587,0,299.9769,651.90419)" spreadMethod="pad"/>
  <path d="M 300,684.18952 76.492388,583.63076 98.814071,517.16175 0,586.91488 0,97.22333 98.814071,167.04487 76.492388,100.55875 300,0 523.42209,100.55875 501.1004,167.04487 600,97.22333 600,586.91488 501.1004,517.16175 523.42209,583.63076 300,684.18952 z" fill="#ffffff"/>
  <path d="m 236.18222,60.94418 35.40681,250.01996 -43.36051,0 -45.89201,-225.76544 -69.42813,31.26746 65.28878,194.49798 -54.1365,0 -48.628765,-124.47118 -46.045955,-32.4819 0,188.0837 0,188.01528 46.045955,-32.46479 48.628765,-124.47118 54.1365,0 -65.28878,194.56639 69.42813,31.19905 45.89201,-225.76544 43.36051,0 -35.40681,250.01995 63.74936,28.71886 63.80067,-28.71886 -35.33838,-250.01995 43.29209,0 45.97753,225.76544 69.34261,-31.19905 -65.27168,-194.56639 54.11939,0 48.7143,124.47118 46.02885,32.46479 0,-188.01528 0,-188.0837 -46.02885,32.4819 -48.7143,124.47118 -54.11939,0 65.27168,-194.49798 -69.34261,-31.26746 -45.97753,225.76544 -43.29209,0 35.33838,-250.01996 -63.80067,-28.66754 -63.74936,28.66754 z" style="fill:url(#linearGradient2998)"/>
</svg>
