<?xml version="1.0" encoding="UTF-8"?>
<svg xmlns="http://www.w3.org/2000/svg" width="300pt" height="300pt" viewBox="0 0 300 300" version="1.1">
  <g>
    <path fill="#808080" d="m 137.13,21.23 c 0.46,-4.55 4.14,-8.57 8.73,-9.1 2.74,-0.23 5.52,-0.28 8.25,0.08 4.32,0.74 7.73,4.56 8.21,8.88 1.97,13.6 3.89,27.2 5.84,40.8 10.03,2.15 19.69,5.97 28.46,11.3 8.16,-2.39 16.37,-4.63 24.46,-7.21 6.82,-1.79 13.85,5.11 12.19,11.96 -2.27,8.29 -4.82,16.5 -7.18,24.76 5.33,8.78 9.15,18.45 11.28,28.5 13.49,2 26.98,3.94 40.47,5.95 4.51,0.47 8.48,4.13 9.02,8.68 0.24,2.74 0.29,5.52 -0.07,8.26 -0.73,4.34 -4.56,7.75 -8.9,8.24 -13.55,1.96 -27.11,3.87 -40.66,5.81 -2.2,10.03 -6.09,19.65 -11.46,28.4 2.41,8.18 4.76,16.39 7.26,24.55 1.74,6.81 -5.08,13.88 -11.95,12.35 -8.52,-2.23 -16.91,-4.93 -25.38,-7.36 -8.6,5.09 -18.03,8.73 -27.8,10.79 -2.03,13.74 -3.94,27.49 -6.01,41.22 -0.54,4.85 -4.93,8.86 -9.82,8.89 -3.52,0.03 -7.38,0.48 -10.49,-1.51 -2.74,-1.6 -4.42,-4.57 -4.83,-7.67 -2,-13.71 -3.89,-27.44 -5.89,-41.15 -9.59,-2.14 -18.84,-5.8 -27.26,-10.87 -8.56,2.42 -17.05,5.1 -25.64,7.41 -6.92,1.83 -14.01,-5.25 -12.24,-12.17 2.29,-8.65 5.04,-17.17 7.48,-25.77 -5,-8.45 -8.62,-17.7 -10.7,-27.29 -13.88,-2.06 -27.77,-3.98 -41.64,-6.07 -4.82,-0.56 -8.81,-4.94 -8.84,-9.81 -0.04,-3.54 -0.49,-7.43 1.54,-10.55 1.65,-2.8 4.73,-4.44 7.9,-4.82 13.67,-1.97 27.35,-3.88 41.03,-5.86 2.05,-9.63 5.7,-18.9 10.7,-27.38 -2.4,-8.52 -5.06,-16.97 -7.3,-25.53 -1.75,-6.89 5.18,-13.98 12.1,-12.24 8.32,2.7 16.76,5.02 25.14,7.5 8.65,-5.24 18.14,-9.04 28.02,-11.21 2,-13.58 3.96,-27.18 5.98,-40.76"/>
  </g>
  <g>
    <path d=" M 147.39 22.31 C 148.95 22.31 150.52 22.31 152.08 22.31 C 154.40 38.49 156.71 54.68 159.02 70.86 C 171.87 72.38 184.29 77.07 194.94 84.42 C 204.32 81.70 213.71 79.02 223.09 76.25 C 220.31 85.61 217.60 94.98 214.85 104.34 C 222.19 115.01 226.89 127.45 228.40 140.32 C 244.49 142.68 260.59 145.04 276.69 147.40 C 276.69 148.96 276.68 150.52 276.69 152.08 C 260.56 154.40 244.43 156.68 228.31 159.00 C 226.72 171.84 221.94 184.23 214.52 194.82 C 217.30 204.33 220.07 213.85 222.89 223.35 C 213.30 220.50 203.71 217.69 194.12 214.86 C 183.59 221.93 171.38 226.43 158.78 227.87 C 156.41 244.14 154.06 260.42 151.70 276.69 C 150.14 276.69 148.57 276.69 147.02 276.70 C 144.67 260.38 142.36 244.07 140.03 227.76 C 127.59 226.16 115.57 221.61 105.20 214.55 C 95.38 217.41 85.57 220.30 75.75 223.16 C 78.63 213.32 81.55 203.50 84.43 193.67 C 77.43 183.28 72.96 171.25 71.43 158.82 C 55.06 156.44 38.68 154.07 22.31 151.70 C 22.31 150.14 22.31 148.57 22.31 147.01 C 38.68 144.65 55.06 142.37 71.43 139.98 C 72.92 127.54 77.40 115.50 84.39 105.10 C 81.60 95.39 78.78 85.69 75.97 76.00 C 85.57 78.83 95.18 81.63 104.80 84.44 C 115.33 77.14 127.61 72.55 140.30 70.87 C 142.62 54.68 145.04 38.50 147.39 22.31 M 135.53 89.56 C 126.95 91.63 118.81 95.56 111.89 101.04 C 109.81 102.38 109.75 105.71 111.87 107.05 C 118.15 111.83 124.52 116.51 130.87 121.21 C 132.89 123.18 136.65 121.86 136.94 119.06 C 138.29 110.72 139.44 102.35 140.65 93.99 C 141.53 91.04 138.29 88.37 135.53 89.56 M 160.45 89.56 C 158.83 90.31 158.16 92.22 158.54 93.90 C 159.72 102.27 160.84 110.66 162.16 119.00 C 162.39 121.85 166.20 123.20 168.23 121.21 C 174.60 116.56 180.93 111.87 187.26 107.17 C 189.44 105.96 190.01 102.64 187.89 101.09 C 180.42 95.13 171.45 90.85 162.02 89.18 C 161.63 89.27 160.85 89.46 160.45 89.56 M 102.49 110.67 C 96.17 117.30 92.40 126.16 90.10 134.96 C 88.84 137.53 90.88 141.10 93.90 140.53 C 102.27 139.41 110.64 138.24 118.99 136.95 C 121.55 136.77 123.17 133.47 121.60 131.40 C 117.05 124.96 112.26 118.70 107.60 112.34 C 106.56 110.67 104.32 109.57 102.49 110.67 M 193.36 110.39 C 188.45 115.85 184.52 122.16 179.94 127.92 C 178.61 129.97 175.99 132.09 177.14 134.81 C 177.95 136.84 180.31 137.07 182.18 137.35 C 190.14 138.41 198.06 139.78 206.03 140.76 C 208.50 141.20 210.70 138.51 209.93 136.16 C 208.01 127.22 203.98 118.72 198.33 111.54 C 197.27 109.98 194.99 109.33 193.36 110.39 M 91.32 158.97 C 90.04 159.86 89.48 161.58 89.96 163.06 C 91.87 171.69 95.76 179.88 101.19 186.85 C 102.64 189.19 106.23 188.90 107.53 186.55 C 112.22 180.22 117.03 173.96 121.60 167.54 C 123.33 165.23 121.27 161.90 118.54 161.88 C 110.03 160.70 101.55 159.21 93.01 158.31 C 92.59 158.47 91.75 158.80 91.32 158.97 M 196.56 159.74 C 191.02 160.59 185.44 161.21 179.91 162.17 C 177.05 162.40 175.71 166.23 177.71 168.27 C 182.37 174.65 187.09 181.00 191.82 187.32 C 193.03 189.43 196.30 189.86 197.79 187.82 C 203.58 180.78 207.61 172.32 209.74 163.46 C 210.49 161.40 209.23 158.86 207.00 158.49 C 203.49 158.47 200.04 159.33 196.56 159.74 M 131.36 177.33 C 124.95 181.85 118.71 186.64 112.39 191.30 C 110.24 192.46 109.51 195.68 111.52 197.32 C 118.58 203.12 127.09 207.18 135.99 209.23 C 138.47 210.05 141.13 207.55 140.54 205.02 C 139.37 196.67 138.25 188.30 136.95 179.97 C 136.79 177.40 133.45 175.65 131.36 177.33 M 163.36 177.56 C 161.89 178.62 161.91 180.58 161.59 182.18 C 160.57 189.82 159.33 197.43 158.33 205.07 C 157.62 207.69 160.34 210.34 162.93 209.44 C 171.73 207.55 180.11 203.66 187.24 198.17 C 189.52 196.79 189.41 193.24 187.13 191.92 C 180.83 187.17 174.50 182.47 168.16 177.79 C 166.84 176.66 164.73 176.35 163.36 177.56 Z"/>
  </g>
</svg>
