<?xml version="1.0" encoding="utf-8"?>
<!-- Generator: Adobe Illustrator 15.1.0, SVG Export Plug-In . SVG Version: 6.00 Build 0)  -->
<!DOCTYPE svg PUBLIC "-//W3C//DTD SVG 1.1//EN" "http://www.w3.org/Graphics/SVG/1.1/DTD/svg11.dtd">
<svg version="1.1" id="Layer_1" xmlns="http://www.w3.org/2000/svg" xmlns:xlink="http://www.w3.org/1999/xlink" x="0px" y="0px"
	 width="155px" height="100px" viewBox="0 0 155 100" enable-background="new 0 0 155 100" xml:space="preserve">
<g id="Layer_1_1_">
</g>
<g id="Layer_3" display="none">
</g>
<g>
	<path fill="#FFFFFF" d="M77,63.487c-8.402,0-15.238-6.837-15.238-15.239S68.598,33.01,77,33.01s15.238,6.836,15.238,15.238
		S85.402,63.487,77,63.487z M54.447,48.248c0-11.188,8.197-20.474,18.896-22.229V2.896C57.344,4.231,48.352,13.91,48.352,13.91
		C45.1,11.472,40.63,8.83,40.63,8.83c-2.438,3.049-11.175,11.582-19.506,11.582S6.292,14.723,6.292,14.723
		s-4.673,9.346-4.267,21.943C2.432,49.265,3.65,52.109,6.901,54.547c3.251,2.438,14.223,8.94,22.147,11.582
		c0,0-4.471,3.86-8.737,9.753c0,0,4.268,2.642,8.331,6.095c4.063,3.454,12.395,10.361,16.457,14.426
		c0,0,13.969-14.813,28.243-10.316V70.478C62.645,68.722,54.447,59.437,54.447,48.248z M151.975,36.666
		c-0.406,12.599-1.625,15.443-4.876,17.881c-3.251,2.438-14.223,8.94-22.147,11.582c0,0,4.471,3.86,8.737,9.753
		c0,0-4.268,2.642-8.331,6.095c-4.063,3.454-12.395,10.361-16.457,14.426c0,0-13.969-14.813-28.243-10.316V70.478
		c10.698-1.756,18.896-11.041,18.896-22.229c0-11.188-8.197-20.474-18.896-22.229V2.896c15.999,1.335,24.991,11.014,24.991,11.014
		c3.252-2.438,7.722-5.08,7.722-5.08c2.438,3.049,11.175,11.582,19.506,11.582s14.832-5.689,14.832-5.689
		S152.381,24.068,151.975,36.666z"/>
	<linearGradient id="SVGID_1_" gradientUnits="userSpaceOnUse" x1="5.6577" y1="49.2344" x2="148.3428" y2="49.2344">
		<stop  offset="0" style="stop-color:#622D76"/>
		<stop  offset="0.0531" style="stop-color:#653179"/>
		<stop  offset="0.1225" style="stop-color:#6D3E81"/>
		<stop  offset="0.2" style="stop-color:#7B5290"/>
		<stop  offset="0.2115" style="stop-color:#805894"/>
		<stop  offset="0.2604" style="stop-color:#956EA3"/>
		<stop  offset="0.3118" style="stop-color:#A680B0"/>
		<stop  offset="0.3663" style="stop-color:#B48DBA"/>
		<stop  offset="0.4259" style="stop-color:#BC96C0"/>
		<stop  offset="0.5" style="stop-color:#BF99C2"/>
		<stop  offset="0.5741" style="stop-color:#BC96C0"/>
		<stop  offset="0.6337" style="stop-color:#B48DBA"/>
		<stop  offset="0.6882" style="stop-color:#A680B0"/>
		<stop  offset="0.7396" style="stop-color:#956EA3"/>
		<stop  offset="0.7885" style="stop-color:#805894"/>
		<stop  offset="0.8" style="stop-color:#7B5290"/>
		<stop  offset="0.826" style="stop-color:#754989"/>
		<stop  offset="0.8852" style="stop-color:#6A397E"/>
		<stop  offset="0.9436" style="stop-color:#643078"/>
		<stop  offset="1" style="stop-color:#622D76"/>
	</linearGradient>
	<path fill="url(#SVGID_1_)" d="M88.582,48.248c0,6.396-5.186,11.581-11.582,11.581s-11.582-5.186-11.582-11.581
		c0-6.396,5.186-11.582,11.582-11.582S88.582,41.852,88.582,48.248z M50.789,48.248c0-11.912,7.996-21.976,18.896-25.152V7.094
		c-11.833,2.244-18.582,9.229-18.652,9.303l-2.24,2.416l-2.637-1.977c-1.535-1.151-3.387-2.369-4.853-3.297
		c-4.186,4.25-12.113,10.53-20.18,10.53c-5.341,0-9.982-1.96-13.102-3.744c-1.177,3.604-2.562,9.394-2.342,16.224
		C6.074,48.75,7.234,50.226,9.096,51.621c2.871,2.153,16.154,9.544,23.609,12.171c7.455,2.626,16.256,4.774,16.256,4.774
		c-10.465-0.406-15.747-1.422-15.747-1.422c-0.033,0.028-4.507,4.137-7.608,7.88c1.565,1.104,3.5,2.547,5.405,4.166l2.29,1.937
		c3.618,3.054,8.29,6.997,11.824,10.248c4.196-3.614,12.822-9.813,22.627-9.813c0.651,0,1.294,0.037,1.934,0.092v-8.255
		C58.785,70.224,50.789,60.16,50.789,48.248z M145.978,20.325c-3.119,1.784-7.761,3.744-13.102,3.744
		c-8.066,0-15.994-6.28-20.18-10.53c-1.466,0.928-3.317,2.146-4.853,3.297l-2.637,1.977l-2.24-2.416
		c-0.07-0.074-6.819-7.059-18.652-9.303v16.002c10.9,3.177,18.896,13.24,18.896,25.152s-7.996,21.976-18.896,25.151v8.255
		c0.64-0.055,1.282-0.092,1.934-0.092c9.805,0,18.431,6.198,22.627,9.813c3.534-3.251,8.206-7.194,11.824-10.248l2.29-1.937
		c1.905-1.619,3.84-3.062,5.406-4.166c-3.103-3.743-7.576-7.852-7.609-7.88c0,0-5.282,1.016-15.747,1.422
		c0,0,8.801-2.148,16.256-4.774c7.455-2.627,20.738-10.018,23.609-12.171c1.861-1.396,3.021-2.871,3.415-15.072
		C148.539,29.719,147.154,23.93,145.978,20.325z"/>
</g>
</svg>
