<?xml version="1.0" encoding="utf-8"?>
<!-- Generator: Adobe Illustrator 15.1.0, SVG Export Plug-In . SVG Version: 6.00 Build 0)  -->
<!DOCTYPE svg PUBLIC "-//W3C//DTD SVG 1.1//EN" "http://www.w3.org/Graphics/SVG/1.1/DTD/svg11.dtd">
<svg version="1.1" id="Layer_1" xmlns="http://www.w3.org/2000/svg" xmlns:xlink="http://www.w3.org/1999/xlink" x="0px" y="0px"
	 width="155px" height="100px" viewBox="0 0 155 100" enable-background="new 0 0 155 100" xml:space="preserve">
<g id="Layer_1_1_">
</g>
<g id="Layer_3" display="none">
</g>
<g>
	<path fill="#010101" d="M89.676,49.197c0,6.724-5.451,12.175-12.176,12.175s-12.176-5.451-12.176-12.175
		c0-6.724,5.451-12.176,12.176-12.176S89.676,42.473,89.676,49.197z M49.945,49.197c0-12.522,8.406-23.102,19.865-26.441V5.934
		c-12.439,2.359-19.535,9.701-19.608,9.779l-2.355,2.54l-2.771-2.078c-1.614-1.21-3.561-2.49-5.102-3.466
		c-4.4,4.468-12.734,11.07-21.214,11.07c-5.614,0-10.494-2.061-13.773-3.936c-1.237,3.789-2.693,9.875-2.462,17.055
		c0.414,12.827,1.633,14.378,3.59,15.845c3.019,2.264,16.983,10.033,24.82,12.795c7.837,2.761,17.089,5.02,17.089,5.02
		c-11.001-0.427-16.554-1.495-16.554-1.495c-0.035,0.03-4.738,4.349-7.999,8.284c1.646,1.161,3.679,2.678,5.682,4.38l2.408,2.035
		c3.804,3.211,8.715,7.356,12.43,10.773c4.412-3.799,13.48-10.315,23.787-10.315c0.685,0,1.36,0.039,2.033,0.097v-8.678
		C58.352,72.3,49.945,61.721,49.945,49.197z M150.014,19.843c-3.279,1.875-8.158,3.936-13.773,3.936
		c-8.479,0-16.814-6.603-21.214-11.07c-1.541,0.976-3.487,2.256-5.102,3.466l-2.771,2.078l-2.355-2.54
		c-0.073-0.078-7.169-7.42-19.608-9.779v16.822c11.459,3.339,19.865,13.919,19.865,26.441c0,12.523-8.406,23.103-19.865,26.441
		v8.678c0.672-0.058,1.348-0.097,2.033-0.097c10.307,0,19.375,6.517,23.787,10.315c3.715-3.417,8.626-7.563,12.43-10.773
		l2.408-2.035c2.002-1.702,4.036-3.219,5.683-4.38c-3.262-3.936-7.964-8.254-7.999-8.284c0,0-5.553,1.068-16.555,1.495
		c0,0,9.252-2.259,17.09-5.02c7.836-2.762,21.801-10.531,24.819-12.795c1.956-1.467,3.177-3.018,3.59-15.845
		C152.707,29.718,151.251,23.632,150.014,19.843z"/>
</g>
</svg>
