<?xml version="1.0" encoding="UTF-8" standalone="no"?>
<svg xmlns="http://www.w3.org/2000/svg" xmlns:xlink="http://www.w3.org/1999/xlink" width="1048pt" height="749pt" viewBox="0 0 1048 749" version="1.1">
  <path style="stroke:#808080;stroke-width:50;stroke-miterlimit:100" d="m 1022.34,25 h 0.66 v 20.74 c -2.11,6.1 -1.76,12.77 -2.78,19.12 -3.91,28.3 -13.03,55.57 -23.24,82.16 -9.07,23.9 -20.1,46.99 -32.24,69.46 -10.66,20.17 -23.28,39.2 -36.24,57.94 -3.26,1.91 -7.37,0.67 -10.97,1.36 -7.07,0.07 -13.94,1.74 -20.87,2.86 -17.84,3.77 -34.59,11.23 -50.89,19.22 -6.01,2.95 -12.25,5.43 -18.12,8.65 28.24,9.88 58.22,12.39 87.65,16.55 -26.37,38.15 -54.6,75.22 -87.09,108.38 -5.72,4.8 -10.45,10.64 -16.21,15.38 -13.17,12.07 -27.39,22.94 -42.16,32.96 -19.06,12.83 -38.68,25.03 -59.74,34.29 -15.78,7.31 -32.52,12.4 -49.56,15.78 -10.7,2.23 -21.62,3.56 -32.56,3.68 -15.7,0.22 -30.46,-5.75 -45.52,-9.28 6.11,25.92 21.53,49.43 42.57,65.68 11.26,9.1 22.92,17.72 34.08,26.92 -8.62,12.12 -19.71,22.59 -31.68,31.46 -11.87,8.96 -25.58,15.42 -40.05,18.89 -23.81,5.46 -48.64,7.02 -72.84,3.31 -13.37,-2.13 -26.54,-5.37 -39.46,-9.37 -22.03,-7 -42.6,-17.86 -62.29,-29.82 -6.24,-3.66 -11.36,-9.47 -18.73,-10.92 -15.3,-3.24 -30.62,1.89 -44.89,7.03 -15.05,5.8 -30.52,10.59 -45.05,17.68 -13.18,6.23 -26.07,13.36 -37.39,22.62 -7.1,6.18 -14.23,12.43 -19.98,19.93 -4.07,5.19 -7.95,10.8 -9.42,17.33 -1.62,6.21 -1.07,12.68 -1.64,19.01 h -0.37 c -2.77,-6.85 -5.92,-13.73 -11,-19.2 -8.91,-10.06 -22.13,-15.28 -35.25,-16.8 -17.88,-2.01 -35.82,1.77 -52.79,7.21 -16.47,6.01 -33.79,10.94 -51.49,10.14 -9,-0.48 -17.97,-2.15 -26.31,-5.64 C 47.19,694.93 36.22,689.47 25,684.54 v -0.35 c 24,-4.08 48.15,-7.75 71.57,-14.54 23.59,-6.41 46.74,-14.29 69.89,-22.09 66.04,-23.31 129.67,-52.85 192.43,-83.75 72.39,-36.83 142.16,-78.61 210.4,-122.6 66.72,-43.68 132.04,-89.68 193.79,-140.2 29.01,-23.85 57.12,-48.79 84.74,-74.21 29.79,-27.49 58.91,-55.76 86.17,-85.78 21.12,-23.31 41.91,-47.03 60.31,-72.58 9.9,-14.12 18.62,-29.01 28.04,-43.44 z M 776.59,228.46 c 7.66,-3.72 14.91,-8.25 22.73,-11.63 -8.12,5.52 -15.42,12.14 -23.26,18.03 -60.27,48.44 -122.45,94.45 -185.5,139.19 -29.42,20.85 -59.21,41.16 -89.1,61.31 -48.13,32.35 -97.37,63.16 -148.44,90.67 -0.07,-11.55 0.36,-23.12 1.37,-34.61 0.37,-7.02 1.1,-14.02 1.98,-21 0.18,-2.68 0.49,-5.36 1,-8 2.48,-18.67 4.77,-37.41 8.51,-55.88 0.06,-0.52 0.18,-1.57 0.24,-2.09 2.46,-11.77 4.81,-23.56 7.58,-35.27 2.8,-11.03 4.56,-22.55 10.03,-32.68 2.69,-5.63 6.28,-10.85 10.68,-15.28 7.34,-8.26 17.47,-13.11 26.62,-19 4.01,-2.15 7.48,-5.58 12.1,-6.38 4.42,-0.96 8.89,-1.72 13.31,-2.71 10.63,-1.27 21.38,-0.62 31.99,0.5 1.7,0.29 3.43,0.44 5.14,0.74 3.65,0.55 7.38,0.35 11.01,1.05 13.94,0.14 27.9,0.13 41.84,0 4.08,-1 8.33,0.01 12.47,-0.6 3.48,-0.54 7.02,-0.21 10.53,-0.39 5.61,-0.68 11.33,-0.83 17,-1 4.94,-0.69 10,-0.8 15,-1.01 5.01,-0.87 10.18,-0.7 15.17,-1.83 0.93,-0.07 1.87,-0.12 2.83,-0.17 40.77,-6.64 79.77,-21.17 117.39,-37.9 16.88,-7.41 33.29,-15.82 49.78,-24.06 z"/>
  <path d="m 1022.34,25 h 0.66 v 20.74 c -2.11,6.1 -1.76,12.77 -2.78,19.12 -3.91,28.3 -13.03,55.57 -23.24,82.16 -9.07,23.9 -20.1,46.99 -32.24,69.46 -10.66,20.17 -23.28,39.2 -36.24,57.94 -3.26,1.91 -7.37,0.67 -10.97,1.36 -7.07,0.07 -13.94,1.74 -20.87,2.86 -17.84,3.77 -34.59,11.23 -50.89,19.22 -6.01,2.95 -12.25,5.43 -18.12,8.65 28.24,9.88 58.22,12.39 87.65,16.55 -26.37,38.15 -54.6,75.22 -87.09,108.38 -5.72,4.8 -10.45,10.64 -16.21,15.38 -13.17,12.07 -27.39,22.94 -42.16,32.96 -19.06,12.83 -38.68,25.03 -59.74,34.29 -15.78,7.31 -32.52,12.4 -49.56,15.78 -10.7,2.23 -21.62,3.56 -32.56,3.68 -15.7,0.22 -30.46,-5.75 -45.52,-9.28 6.11,25.92 21.53,49.43 42.57,65.68 11.26,9.1 22.92,17.72 34.08,26.92 -8.62,12.12 -19.71,22.59 -31.68,31.46 -11.87,8.96 -25.58,15.42 -40.05,18.89 -23.81,5.46 -48.64,7.02 -72.84,3.31 -13.37,-2.13 -26.54,-5.37 -39.46,-9.37 -22.03,-7 -42.6,-17.86 -62.29,-29.82 -6.24,-3.66 -11.36,-9.47 -18.73,-10.92 -15.3,-3.24 -30.62,1.89 -44.89,7.03 -15.05,5.8 -30.52,10.59 -45.05,17.68 -13.18,6.23 -26.07,13.36 -37.39,22.62 -7.1,6.18 -14.23,12.43 -19.98,19.93 -4.07,5.19 -7.95,10.8 -9.42,17.33 -1.62,6.21 -1.07,12.68 -1.64,19.01 h -0.37 c -2.77,-6.85 -5.92,-13.73 -11,-19.2 -8.91,-10.06 -22.13,-15.28 -35.25,-16.8 -17.88,-2.01 -35.82,1.77 -52.79,7.21 -16.47,6.01 -33.79,10.94 -51.49,10.14 -9,-0.48 -17.97,-2.15 -26.31,-5.64 C 47.19,694.93 36.22,689.47 25,684.54 v -0.35 c 24,-4.08 48.15,-7.75 71.57,-14.54 23.59,-6.41 46.74,-14.29 69.89,-22.09 66.04,-23.31 129.67,-52.85 192.43,-83.75 72.39,-36.83 142.16,-78.61 210.4,-122.6 66.72,-43.68 132.04,-89.68 193.79,-140.2 29.01,-23.85 57.12,-48.79 84.74,-74.21 29.79,-27.49 58.91,-55.76 86.17,-85.78 21.12,-23.31 41.91,-47.03 60.31,-72.58 9.9,-14.12 18.62,-29.01 28.04,-43.44 z M 776.59,228.46 c 7.66,-3.72 14.91,-8.25 22.73,-11.63 -8.12,5.52 -15.42,12.14 -23.26,18.03 -60.27,48.44 -122.45,94.45 -185.5,139.19 -29.42,20.85 -59.21,41.16 -89.1,61.31 -48.13,32.35 -97.37,63.16 -148.44,90.67 -0.07,-11.55 0.36,-23.12 1.37,-34.61 0.37,-7.02 1.1,-14.02 1.98,-21 0.18,-2.68 0.49,-5.36 1,-8 2.48,-18.67 4.77,-37.41 8.51,-55.88 0.06,-0.52 0.18,-1.57 0.24,-2.09 2.46,-11.77 4.81,-23.56 7.58,-35.27 2.8,-11.03 4.56,-22.55 10.03,-32.68 2.69,-5.63 6.28,-10.85 10.68,-15.28 7.34,-8.26 17.47,-13.11 26.62,-19 4.01,-2.15 7.48,-5.58 12.1,-6.38 4.42,-0.96 8.89,-1.72 13.31,-2.71 10.63,-1.27 21.38,-0.62 31.99,0.5 1.7,0.29 3.43,0.44 5.14,0.74 3.65,0.55 7.38,0.35 11.01,1.05 13.94,0.14 27.9,0.13 41.84,0 4.08,-1 8.33,0.01 12.47,-0.6 3.48,-0.54 7.02,-0.21 10.53,-0.39 5.61,-0.68 11.33,-0.83 17,-1 4.94,-0.69 10,-0.8 15,-1.01 5.01,-0.87 10.18,-0.7 15.17,-1.83 0.93,-0.07 1.87,-0.12 2.83,-0.17 40.77,-6.64 79.77,-21.17 117.39,-37.9 16.88,-7.41 33.29,-15.82 49.78,-24.06 z"/>
</svg>
