<?xml version="1.0" encoding="UTF-8" standalone="no"?>
<svg xmlns="http://www.w3.org/2000/svg" version="1.1" width="600" height="470.98535">
  <path d="m 442.05507,470.98534 -284.14546,0 L 129.52097,376.78827 0,99.16596 192.1267,159.97017 299.98234,0 407.83798,159.97017 600,99.16596 470.44371,376.78827 442.05507,470.98534 z" style="fill:#808080"/>
  <path d="m 333.13971,261.8914 c 0,35.70069 -14.84782,64.67806 -33.15737,64.67806 -18.30956,0 -33.11027,-28.97737 -33.11027,-64.67806 0,-35.68892 14.80071,-64.61919 33.11027,-64.61919 18.30955,0 33.15737,28.93027 33.15737,64.61919 m -180.7053,116.05079 295.09586,0 -20.87642,72.67303 -253.34302,0 -20.87642,-72.67303 z M 200.49846,184.02575 38.090939,132.60592 142.49661,356.37106 l 314.97145,0 L 561.87374,132.60592 399.46622,184.02575 300.02944,36.47781 200.49846,184.02575 z"/>
</svg>
