<?xml version="1.0" encoding="UTF-8" standalone="no"?>
<svg xmlns="http://www.w3.org/2000/svg" version="1.1" width="600" height="471.01306">
  <radialGradient cx="0" cy="0" r="1" fx="0" fy="0" id="radialGradient484" gradientUnits="userSpaceOnUse" gradientTransform="matrix(19.14151,0,0,-19.14151,401,371.19336)" spreadMethod="pad">
    <stop style="stop-color:#bf99c3" offset="0"/>
    <stop style="stop-color:#7b5190" offset="0.66291797"/>
    <stop style="stop-color:#612c75" offset="1"/>
  </radialGradient>
  <path d="m 442.08109,471.01307 -284.16218,0 L 129.52859,376.81046 0,99.1718 192.13801,159.97959 300,0 407.86199,159.97959 600,99.1718 470.47141,376.81046 442.08109,471.01307 z" style="fill:#ffffff"/>
  <path d="m 333.15932,261.90682 c 0,35.70279 -14.84869,64.68187 -33.15932,64.68187 -18.31063,0 -33.15932,-28.97908 -33.15932,-64.68187 0,-35.69102 14.84869,-64.623 33.15932,-64.623 18.31063,0 33.15932,28.93198 33.15932,64.623 m -180.71594,116.05762 295.11324,0 -20.87765,72.67732 -253.35794,0 -20.87765,-72.67732 z M 200.51026,184.03658 38.093182,132.61373 142.505,356.39204 l 314.99,0 L 561.90682,132.61373 399.48974,184.03658 300,36.47996 200.51026,184.03658 z" style="fill:#612c75"/>
  <g transform="matrix(11.775327,0,0,-11.775327,-4421.906,4617.035)">
    <path d="m 393.008,376.16 -0.231,-0.344 -0.39,0.125 -12.602,3.989 8.192,-17.551 26.046,0 8.188,17.551 -12.598,-3.989 -0.39,-0.125 -0.231,0.344 -7.988,11.852 -7.996,-11.852 z m 4.625,-6.308 c 0,3.386 1.48,6.039 3.367,6.039 l 0,0 c 1.887,0 3.367,-2.653 3.367,-6.039 l 0,0 c 0,-3.387 -1.48,-6.04 -3.367,-6.04 l 0,0 c -1.887,0 -3.367,2.653 -3.367,6.04 m -8.434,-10.407 1.453,-5.066 20.692,0 1.457,5.066 -23.602,0 z" style="fill:url(#radialGradient484)"/>
  </g>
</svg>
