<?xml version="1.0" encoding="UTF-8" standalone="no"?>
<svg xmlns="http://www.w3.org/2000/svg" xmlns:xlink="http://www.w3.org/1999/xlink" version="1.1" width="600" height="703.79169">
  <linearGradient x1="0" y1="0" x2="1" y2="0" id="linearGradient498" gradientUnits="userSpaceOnUse" gradientTransform="matrix(20.854263,20.854263,20.854263,-20.854248,681.96484,361.66504)" spreadMethod="pad">
    <stop style="stop-color:#8b723c" offset="0"/>
    <stop style="stop-color:#d2bb7b" offset="0.3"/>
    <stop style="stop-color:#ebd491" offset="0.5"/>
    <stop style="stop-color:#d2bb7b" offset="0.7"/>
    <stop style="stop-color:#8b723c" offset="1"/>
  </linearGradient>
  <linearGradient x1="0" y1="0" x2="1" y2="0" id="linearGradient2995" xlink:href="#linearGradient498" gradientUnits="userSpaceOnUse" gradientTransform="matrix(20.854263,20.854263,20.854263,-20.854248,681.96484,361.66504)" spreadMethod="pad"/>
  <linearGradient x1="0" y1="0" x2="1" y2="0" id="linearGradient2998" xlink:href="#linearGradient498" gradientUnits="userSpaceOnUse" gradientTransform="matrix(366.92642,-366.92642,366.92642,366.92615,116.56268,535.39122)" spreadMethod="pad"/>
  <path d="M 600,703.79168 487.63966,588.80972 197.44876,656.65523 0,457.60535 0,0 113.87349,116.70626 402.41049,47.01329 600,246.18633 l 0,457.60535 z"/>
  <path d="m 28.521158,445.92241 177.936132,179.3789 290.38444,-67.8983 74.63711,76.50216 0,-375.96552 L 393.47233,78.49037 104.88255,148.11296 28.521158,69.97449 l 0,375.94792 z m 98.689192,-274.84825 172.30579,0 133.33334,134.30105 -130.92285,44.6028 -174.71628,-178.90385 z m 40.83751,225.91713 131.82018,-41.38295 173.39667,177.67221 -169.96569,0.40468 -135.25116,-136.69394 z" style="fill:url(#linearGradient2998)"/>
</svg>
