<?xml version="1.0" encoding="UTF-8" standalone="no"?>
<svg xmlns="http://www.w3.org/2000/svg" version="1.1" width="600" height="826.59247">
  <path d="m 21.245551,69.9979 0,0 c -3.720038,12.42079 -5.745392,25.42026 -5.745392,37.53105 0,27.36295 10.746777,51.99786 31.000318,71.28006 l 3.472036,3.32737 12.916799,62.1453 -4.670714,5.66273 C 20.191541,296.67222 0,351.74945 0,409.22405 0,537.81337 97.278999,645.75647 226.21966,660.20262 l 7.02673,0.80684 31.641,46.19047 0.22651,2.08736 3.47203,23.0229 c 0.248,3.38937 0.41334,6.8614 0.41334,10.33344 0,29.6983 -9.19676,61.50463 -17.36018,83.94886 21.47289,-6.3654 50.05518,-16.55417 69.58538,-30.35965 20.52221,-14.44614 41.10642,-36.47704 54.99457,-58.92127 l 2.64536,-4.36071 4.69138,-1.86002 C 427.30756,713.33799 465.89262,687.89707 498.36029,655.53273 563.83296,589.97739 600,502.94917 600,410.50622 600,219.33759 444.41974,63.77799 253.25111,63.77799 c -44.08246,0 -88.06157,8.88676 -130.61468,26.39161 L 113.109,94.13764 106.97094,87.83424 93.806136,74.83477 C 71.775244,48.75317 57.969768,21.22489 49.661683,0 40.299587,19.05487 29.077472,44.33046 21.244725,69.99872" style="fill:#808080"/>
  <path d="m 334.8861,658.0326 -19.4682,-32.30233 c 93.49696,-26.94961 161.863,-113.08916 161.863,-215.22488 0,-123.75327 -100.25503,-224.02897 -224.02897,-224.02897 -41.08575,0 -79.67081,11.16012 -112.77915,30.44232 l -7.41941,-37.69639 c 36.0017,-18.72419 76.94279,-29.3883 120.19856,-29.3883 143.77948,0 260.69201,116.89187 260.69201,260.67134 0,115.21785 -75.16544,213.22019 -179.05784,247.52721 M 108.66645,467.83531 C 82.274845,401.6393 91.161603,303.8643 202.88675,259.38917 c 22.60957,-9.05209 67.25002,-18.33152 107.52977,-16.38883 l 29.22297,73.14008 -9.3621,3.72004 c -31.41365,-55.7179 -83.88686,-59.91328 -126.9153,-42.71844 -47.78183,19.05486 -77.00479,80.41483 -45.44647,159.69298 30.58698,76.77745 97.279,131.17268 159.44497,106.39309 26.88761,-10.72611 61.75264,-45.44647 70.55673,-113.33717 l 22.44423,46.89315 C 385.00329,522.89188 351.1096,549.69682 312.66921,564.94898 188.35793,614.50815 126.43996,512.31044 108.66645,467.83531 M 253.25193,94.86015 c -49.55917,0 -97.44433,11.38745 -140.61744,32.94301 0,0 -37.634387,-14.21882 -58.301266,-57.7226 0,0 -28.582293,63.03398 24.056247,96.22499 l 17.773516,85.33354 c -40.279747,40.36242 -65.080001,96.05966 -65.080001,157.58496 0,122.30658 98.333014,221.67294 220.308924,223.36762 l 42.38777,61.85597 c 12.6068,40.11441 1.13751,80.22882 1.13751,80.22882 34.38968,-12.66879 62.39331,-66.11334 62.39331,-66.11334 44.24778,-15.41749 84.8582,-40.75509 119.08255,-75.00011 59.66528,-59.64461 92.52562,-138.84009 92.52562,-223.05762 0,-174.05645 -141.60946,-315.64524 -315.66591,-315.64524"/>
</svg>
