<?xml version="1.0" encoding="UTF-8" standalone="no"?>
<svg xmlns="http://www.w3.org/2000/svg" xmlns:xlink="http://www.w3.org/1999/xlink" version="1.1" width="600" height="826.70526">
  <radialGradient cx="0" cy="0" r="1" fx="0" fy="0" id="radialGradient256" gradientUnits="userSpaceOnUse" gradientTransform="matrix(14.498245,0,0,-14.498245,218.16504,481.74023)" spreadMethod="pad">
    <stop style="stop-color:#ebd491" offset="0"/>
    <stop style="stop-color:#d2bb7b" offset="0.7"/>
    <stop style="stop-color:#8b723c" offset="1"/>
  </radialGradient>
  <radialGradient cx="0" cy="0" r="1" fx="0" fy="0" id="radialGradient2998" xlink:href="#radialGradient256" gradientUnits="userSpaceOnUse" gradientTransform="matrix(299.67434,0,0,299.67434,299.98016,424.81824)" spreadMethod="pad"/>
  <path d="m 21.24845,70.00744 0,0 c -3.803225,12.42249 -5.828855,25.42373 -5.828855,37.53617 0,27.36668 10.748243,52.00496 31.004547,71.28979 l 3.555188,3.32782 12.835883,62.15379 -4.588673,5.66349 C 20.111616,296.71269 0,351.79744 0,409.27987 0,537.88673 97.209591,645.84456 226.25052,660.29268 l 7.02769,0.80695 31.64531,46.19677 0.22654,2.08764 3.4105,23.02605 c 0.2282,3.38983 0.39355,6.86234 0.39355,10.33485 0,29.70235 -9.19801,61.51302 -17.36254,83.96031 21.47581,-6.36627 50.06201,-16.55643 69.59487,-30.36379 20.52501,-14.44812 41.11203,-36.48201 55.00207,-58.92931 l 2.64572,-4.3613 4.7747,-1.86028 C 427.36668,713.4353 465.95701,687.9909 498.34642,655.62216 563.91071,590.05788 600,503.01778 600,410.56222 600,219.36751 444.48119,63.78669 253.28648,63.78669 c -44.15047,0 -88.07358,8.88797 -130.63249,26.3952 l -9.52873,3.96859 -6.22158,-6.30426 L 93.81976,74.84498 C 71.703183,48.75982 57.895825,21.22778 49.586606,0 40.223233,19.05746 29.082265,44.3365 21.24845,70.00827" style="fill:#ffffff"/>
  <path d="m 334.91112,658.12236 -19.45019,-32.30673 c 93.50972,-26.95329 161.8024,-113.10459 161.8024,-215.25424 0,-123.77015 -100.2687,-224.05953 -223.97685,-224.05953 -41.17404,0 -79.68168,11.16164 -112.79454,30.44647 l -7.42042,-37.70153 c 36.00661,-18.72675 76.8706,-29.39231 120.21496,-29.39231 143.71641,0 260.6449,116.90781 260.6449,260.7069 0,115.23357 -75.1757,213.24928 -179.02026,247.56097 M 108.59859,467.89913 C 82.286069,401.69409 91.153369,303.90575 202.91443,259.42456 c 22.59198,-9.05333 67.2592,-18.33403 107.54444,-16.39108 l 29.14427,73.15007 -9.36337,3.72054 c -31.33526,-55.7255 -83.81563,-59.92145 -126.93262,-42.72426 -47.78834,19.05746 -77.01529,80.42579 -45.45266,159.71475 30.67383,76.78793 97.29226,131.19058 159.46672,106.40761 26.97395,-10.72757 61.84373,-45.45267 70.56635,-113.35262 l 22.44729,46.89954 c -25.36172,46.1141 -59.17735,72.9227 -97.62299,88.17693 C 188.38363,614.59198 126.37453,512.38032 108.59859,467.89913 M 253.28648,94.87309 c -49.64861,0 -97.45763,11.389 -140.63662,32.9475 0,0 -37.722204,-14.22076 -58.309223,-57.73047 0,0 -28.648202,63.04258 24.059528,96.23811 l 17.693262,85.34519 c -40.223233,40.36792 -65.08888,96.07276 -65.08888,157.60645 0,122.32327 98.429103,221.70318 220.421663,223.3981 l 42.39355,61.8644 c 12.60852,40.11989 1.13601,80.23977 1.13601,80.23977 34.39437,-12.67052 62.33981,-66.12236 62.33981,-66.12236 44.31583,-15.4196 84.93179,-40.76065 119.07813,-75.01034 59.7561,-59.65275 92.62092,-138.85903 92.62092,-223.08805 0,-174.0802 -141.62878,-315.6883 -315.70897,-315.6883" style="fill:#8b723c"/>
  <path d="m 82.761472,159.30004 2.997106,1.94295 0.723439,3.38983 17.672593,85.34519 0.8888,4.3613 -3.05912,3.1418 C 61.533692,298.09706 39.334436,351.94163 39.334436,409.27937 l 0,0 c 0,117.07317 95.101284,213.55932 212.174454,215.08888 l 0,0 4.27863,0.0827 2.43902,3.55519 42.37288,61.92641 0.72344,0.97148 0.33072,1.19884 c 7.99917,25.4444 6.94501,50.64076 4.7747,66.86648 l 0,0 c 24.36957,-18.08599 43.34435,-53.69988 43.59239,-54.0926 l 0,0 1.44688,-2.91443 3.07978,-1.05416 c 43.75775,-15.25423 82.82348,-39.87184 116.01902,-73.06738 l 0,0 c 58.12319,-58.12319 90.09921,-135.32451 90.09921,-217.27987 l 0,0 c 0,-169.55353 -137.90822,-307.46176 -307.37908,-307.46176 l 0,0 c -48.28441,0 -94.29516,10.83092 -137.01943,32.14138 l 0,0 -3.22447,1.61224 -3.30715,-1.28152 C 108.28855,134.9925 78.648202,123.54148 56.614303,90.67666 l 0,0 c -4.05126,19.05746 -4.195948,49.48326 26.147169,68.6234 m 49.586608,59.26003 -7.44109,-37.70153 -1.11617,-6.05623 5.39479,-2.83174 c 38.11493,-19.86358 81.06656,-30.4258 124.10087,-30.4258 l 0,0 c 148.24308,0 268.95412,120.71104 268.95412,269.01612 l 0,0 c 0,116.26706 -74.2869,218.89211 -184.74577,255.39479 l 0,0 -6.28359,2.08764 -3.38983,-5.7255 -19.47085,-32.28607 -5.47747,-9.21869 10.33485,-2.97643 C 404.91939,591.33809 468.95411,506.15827 468.95411,410.56091 l 0,0 c 0,-118.93344 -96.73418,-215.72964 -215.66763,-215.72964 l 0,0 c -38.25961,0 -75.89913,10.08682 -108.68127,29.22696 l 0,0 -10.00414,5.89086 -2.25299,-11.389 z m -31.41794,252.315 C 70.173625,393.69444 88.817693,295.9061 199.75196,251.75562 l 0,0 c 20.83506,-8.32989 60.81026,-17.27987 99.64862,-17.27987 l 0,0 c 3.78255,0 7.66846,0.0827 11.389,0.31005 l 0,0 5.31211,0.16536 1.94296,5.00206 29.22695,73.08806 3.07978,7.75113 -7.68912,3.05912 -9.36338,3.72054 -6.69698,2.6664 -3.55519,-6.30426 c -22.11657,-39.16908 -53.28648,-47.39562 -75.48573,-47.39562 l 0,0 c -13.41464,0 -27.222,2.83175 -41.17404,8.30922 l 0,0 c -22.36462,8.97065 -39.33444,27.53204 -47.72634,52.253 l 0,0 c -9.44605,28.17279 -7.11037,61.5957 6.86234,96.71351 l 0,0 c 25.67177,64.11741 74.03886,107.31708 120.54568,107.31708 l 0,0 c 9.61141,0 19.14014,-1.86028 28.1728,-5.49814 l 0,0 c 26.3332,-10.50021 57.33774,-44.08847 65.48161,-106.73832 l 0,0 3.55518,-27.78008 12.11245,25.27904 22.36461,46.89955 1.86027,3.80322 -2.02563,3.72055 c -24.28689,44.23315 -57.64779,74.26622 -101.79826,91.87681 l 0,0 c -23.10872,9.19801 -45.53535,13.89003 -66.61844,13.89003 l 0,0 c -97.20959,0 -140.49194,-96.32079 -148.24307,-115.70897" style="fill:url(#radialGradient2998)"/>
</svg>
