<?xml version="1.0" encoding="UTF-8"?>
<svg xmlns="http://www.w3.org/2000/svg" width="782pt" height="1077pt" viewBox="0 0 782 1077">
  <g>
    <path fill="#ffffff" stroke="#ffffff" stroke-width="0.09375" d=" M 64.24 0.00 L 64.63 0.00 C 67.79 7.78 71.19 15.45 74.65 23.10 C 77.65 29.10 80.55 35.14 83.86 40.97 C 94.25 60.25 106.59 78.49 120.51 95.39 C 128.37 103.89 137.01 111.65 144.93 120.10 C 145.90 120.87 146.58 122.27 147.94 122.37 C 151.64 120.83 155.33 119.28 158.99 117.67 C 161.30 116.70 163.65 115.83 165.99 114.94 C 170.96 112.80 176.10 111.12 181.14 109.17 C 185.08 107.77 189.12 106.62 193.00 105.05 C 207.32 100.59 221.73 96.42 236.40 93.27 C 238.51 92.75 240.66 92.41 242.80 92.03 C 247.55 90.88 252.38 90.12 257.18 89.27 C 259.81 88.72 262.49 88.46 265.11 87.89 C 273.03 86.65 281.04 86.10 288.95 84.84 C 293.65 84.64 298.35 84.38 303.02 83.68 C 320.69 83.10 338.38 83.19 356.06 83.61 C 370.01 84.92 384.04 85.87 397.87 88.24 C 400.13 88.49 402.39 88.77 404.61 89.28 C 409.75 90.09 414.89 90.93 419.96 92.14 C 427.38 93.49 434.77 95.12 442.03 97.19 C 455.96 100.59 469.60 105.06 483.14 109.75 C 487.08 111.28 491.06 112.69 494.97 114.30 C 498.72 115.76 502.46 117.26 506.17 118.83 C 509.46 120.25 512.73 121.70 515.97 123.21 C 518.63 124.34 521.25 125.56 523.86 126.80 C 542.34 135.81 560.36 145.80 577.51 157.15 C 641.32 199.11 694.34 257.38 729.82 325.04 C 731.61 328.30 733.22 331.65 734.92 334.96 C 736.25 337.65 737.54 340.36 738.81 343.09 C 740.32 346.34 741.75 349.63 743.30 352.86 C 746.42 360.14 749.44 367.46 752.32 374.83 C 753.63 378.51 754.92 382.19 756.33 385.83 C 761.69 401.30 766.19 417.04 769.99 432.97 C 770.56 435.67 771.12 438.38 771.71 441.09 C 772.11 442.82 772.44 444.57 772.77 446.34 C 774.01 451.61 774.79 456.97 775.67 462.31 C 776.10 464.60 776.42 466.91 776.67 469.24 C 777.41 472.12 777.61 475.09 777.81 478.05 C 779.33 488.08 780.27 498.25 780.48 508.40 C 780.86 508.81 781.62 509.64 782.00 510.05 L 782.00 552.71 C 781.74 554.54 781.52 556.37 781.32 558.22 C 780.17 561.01 780.50 564.09 780.32 567.05 C 779.67 577.11 778.44 587.12 777.28 597.13 C 776.61 599.69 776.36 602.34 776.08 604.97 C 775.32 608.70 774.87 612.49 774.05 616.22 C 773.74 617.86 773.51 619.52 773.29 621.19 C 771.78 627.11 770.79 633.15 769.34 639.08 C 768.89 640.72 768.50 642.37 768.15 644.04 C 766.70 649.01 765.63 654.08 764.09 659.02 C 762.75 663.36 761.57 667.74 760.16 672.06 C 758.66 676.34 757.47 680.72 755.70 684.90 C 755.57 685.43 755.30 686.47 755.17 686.99 C 752.62 693.82 749.83 700.56 747.39 707.44 C 747.24 707.52 746.93 707.70 746.78 707.79 C 745.46 711.63 743.89 715.39 742.10 719.05 C 741.15 721.11 740.24 723.19 739.33 725.28 C 734.98 734.20 730.66 743.15 725.74 751.79 C 683.97 827.81 619.78 891.40 542.96 931.78 C 536.83 935.22 530.43 938.18 524.12 941.26 C 520.13 943.24 515.99 944.90 512.00 946.88 C 509.64 947.86 507.26 948.79 504.90 949.77 C 501.01 951.90 496.20 952.55 492.85 955.50 C 481.76 973.95 468.52 991.12 453.47 1006.51 C 437.19 1023.32 418.84 1038.33 398.04 1049.20 C 395.31 1050.46 392.58 1051.73 389.93 1053.17 C 383.36 1056.29 376.69 1059.21 369.91 1061.82 C 361.78 1065.24 353.43 1068.10 345.10 1070.97 C 339.43 1072.73 333.84 1074.81 328.03 1076.05 C 331.01 1066.68 334.48 1057.46 337.02 1047.95 C 337.40 1046.65 337.80 1045.36 338.22 1044.09 C 339.92 1038.08 341.32 1031.99 342.91 1025.95 C 343.70 1022.64 344.32 1019.28 344.93 1015.95 C 345.32 1014.23 345.68 1012.53 346.16 1010.86 C 346.35 1009.16 346.53 1007.49 346.72 1005.82 C 348.19 998.91 348.96 991.87 349.55 984.84 C 349.99 982.60 350.37 980.34 350.31 978.06 C 350.30 970.10 350.66 962.11 350.03 954.17 C 348.61 947.53 348.19 940.71 346.77 934.08 C 346.12 929.51 345.82 924.80 344.57 920.37 C 331.20 900.43 317.26 880.84 303.97 860.84 C 302.22 860.66 300.47 860.52 298.73 860.38 C 295.84 859.70 292.88 859.45 289.93 859.24 C 283.91 858.01 277.73 857.71 271.75 856.26 C 269.49 855.76 267.19 855.48 264.90 855.25 C 258.98 853.58 252.96 852.39 247.00 850.91 C 242.66 849.53 238.26 848.32 233.82 847.32 C 229.58 845.72 225.25 844.41 221.02 842.81 C 220.49 842.70 219.42 842.47 218.89 842.35 C 212.06 839.26 204.82 837.16 198.08 833.84 C 191.85 831.33 185.90 828.21 179.84 825.33 C 121.55 795.62 72.52 748.26 40.79 691.04 C 36.34 682.79 32.09 674.43 28.29 665.86 C 26.65 662.30 25.29 658.62 23.69 655.05 C 22.31 651.77 21.14 648.40 19.91 645.06 C 17.88 640.18 16.47 635.08 14.78 630.08 C 13.25 625.46 12.09 620.74 10.77 616.07 C 8.67 608.89 7.55 601.49 5.70 594.26 C 3.86 582.20 1.63 570.16 1.17 557.95 C 0.13 552.85 0.45 547.61 0.00 542.45 L 0.00 517.15 C 0.80 511.40 1.39 505.63 1.63 499.84 C 2.53 496.61 2.57 493.25 2.77 489.94 C 4.11 484.34 4.46 478.57 5.73 472.96 C 6.22 471.01 6.56 469.03 6.91 467.07 C 8.18 461.71 9.41 456.34 10.73 451.00 C 14.28 438.52 18.27 426.15 23.15 414.12 C 24.81 410.11 26.42 406.08 28.29 402.16 C 41.84 371.61 60.45 343.49 81.98 317.98 C 81.22 314.67 80.57 311.34 79.75 308.05 C 79.54 306.73 79.32 305.42 79.08 304.11 C 77.73 299.14 77.15 294.01 75.81 289.04 C 75.58 287.71 75.36 286.39 75.12 285.07 C 73.82 280.13 73.13 275.07 71.90 270.12 C 71.58 268.40 71.27 266.68 70.79 265.01 C 70.56 263.67 70.35 262.33 70.12 261.00 C 69.00 256.59 68.24 252.09 67.30 247.64 C 66.84 245.79 66.48 243.92 66.12 242.06 C 65.76 240.55 65.47 239.03 65.22 237.50 C 59.92 231.90 54.13 226.74 49.30 220.70 C 44.07 214.66 39.79 207.88 35.73 201.01 C 34.37 198.36 33.04 195.70 31.67 193.06 C 30.50 190.34 29.38 187.60 28.29 184.86 C 25.80 178.59 24.18 172.03 22.62 165.48 C 18.92 145.81 19.92 125.48 23.79 105.92 C 26.25 95.45 29.41 85.16 32.97 75.01 C 34.37 71.03 35.64 67.00 37.29 63.10 C 38.73 59.02 40.25 54.97 41.92 50.97 C 42.86 48.64 43.79 46.31 44.72 43.97 C 46.49 39.99 48.07 35.92 49.87 31.95 C 51.18 28.95 52.48 25.94 53.85 22.97 C 56.76 16.54 59.81 10.18 62.92 3.85 C 63.38 2.58 63.82 1.29 64.24 0.00 M 69.84 92.89 C 69.40 94.45 68.94 96.00 68.50 97.56 L 67.68 97.61 C 67.69 98.36 67.70 99.85 67.71 100.60 L 66.73 100.65 C 66.63 101.89 66.54 103.13 66.44 104.37 C 65.58 104.77 64.72 105.19 63.86 105.60 L 65.97 105.14 C 65.69 106.03 65.11 107.82 64.82 108.72 C 64.18 111.20 63.94 113.84 62.86 116.19 C 62.61 118.35 62.51 120.52 62.47 122.69 L 61.49 122.23 C 61.58 123.06 61.75 124.72 61.84 125.55 C 61.37 125.71 60.43 126.02 59.96 126.18 L 61.62 126.24 C 61.37 129.68 60.90 133.11 60.69 136.57 C 60.22 136.55 59.26 136.52 58.78 136.51 L 60.59 136.76 C 58.47 153.17 62.71 169.99 70.24 184.60 C 77.56 197.89 88.64 208.77 101.26 217.05 C 103.46 227.03 105.49 237.06 107.51 247.10 C 109.16 253.28 109.67 259.74 111.99 265.74 C 116.32 286.21 120.20 306.78 124.67 327.21 C 117.07 336.05 108.89 344.43 101.88 353.80 C 93.37 364.78 85.60 376.37 78.75 388.46 C 78.42 388.55 77.75 388.72 77.42 388.80 C 77.65 388.98 78.12 389.34 78.35 389.53 C 75.80 393.08 74.07 397.11 71.97 400.93 C 68.22 408.22 64.82 415.70 61.83 423.33 C 61.36 423.43 60.43 423.63 59.96 423.73 C 60.36 423.75 61.17 423.80 61.57 423.82 C 60.07 427.39 58.60 430.97 57.45 434.68 L 56.59 434.32 C 56.72 434.94 57.00 436.18 57.13 436.79 C 56.61 436.65 55.57 436.37 55.05 436.23 C 57.97 437.47 54.78 440.80 54.42 442.92 C 48.54 461.96 43.99 481.51 42.24 501.40 L 41.60 501.33 C 41.92 506.89 41.24 512.44 40.67 517.96 C 40.40 527.98 40.41 538.00 40.67 548.02 C 41.14 553.61 42.20 559.28 41.38 564.89 L 42.25 564.54 C 43.27 576.58 45.43 588.50 48.19 600.26 C 48.03 600.67 47.71 601.50 47.55 601.92 L 48.51 601.44 C 48.93 603.57 49.45 605.68 49.90 607.81 C 50.53 610.56 52.43 613.42 51.71 616.24 C 53.78 618.37 53.85 621.68 54.88 624.36 C 56.37 628.17 57.63 632.06 58.98 635.91 C 60.71 640.29 63.22 644.57 63.76 649.30 C 64.02 649.40 64.53 649.62 64.78 649.72 C 68.02 657.44 72.11 664.75 75.72 672.29 C 77.21 674.49 78.52 676.81 79.73 679.18 C 80.01 679.68 80.58 680.68 80.86 681.18 C 84.41 686.94 88.09 692.62 91.82 698.26 C 117.81 735.83 152.47 767.47 192.76 789.09 C 216.89 802.09 242.81 811.84 269.63 817.55 C 269.60 817.89 269.54 818.59 269.52 818.94 C 269.77 818.60 270.29 817.91 270.55 817.56 C 274.19 818.35 277.81 819.31 281.53 819.62 L 281.58 820.25 C 285.99 820.16 290.28 821.24 294.65 821.67 L 294.34 822.93 C 294.61 822.63 295.13 822.05 295.40 821.75 C 304.25 822.92 313.19 823.58 322.12 823.77 C 324.01 824.81 326.99 823.60 328.15 825.76 C 346.02 851.98 364.13 878.05 381.92 904.33 C 383.88 908.65 384.81 913.40 386.00 917.98 C 386.31 919.32 386.61 920.64 386.94 922.01 C 387.31 923.76 387.58 925.50 387.86 927.29 C 389.77 940.37 391.47 953.78 389.86 966.96 C 389.87 976.09 387.60 984.96 386.46 993.98 C 385.60 999.08 384.00 1004.11 383.80 1009.30 C 393.77 1005.61 403.16 1000.23 411.18 993.23 C 421.59 984.65 430.76 974.63 439.02 964.00 C 446.32 953.58 453.27 942.92 460.21 932.27 C 462.09 929.19 463.58 925.71 466.23 923.22 C 470.35 921.32 474.71 919.99 478.89 918.21 C 505.94 907.66 531.67 893.92 556.02 878.15 C 574.75 865.50 592.69 851.62 609.17 836.15 C 617.26 828.93 624.70 821.00 632.21 813.18 C 642.07 802.42 651.25 791.05 660.24 779.56 C 662.05 776.64 664.04 773.85 666.22 771.20 C 667.45 769.13 668.81 767.15 670.28 765.24 C 671.57 763.22 672.87 761.21 674.25 759.25 C 675.74 756.57 677.80 754.23 679.04 751.41 C 681.16 752.52 680.41 750.98 679.98 749.85 C 682.78 746.21 684.73 742.03 687.20 738.18 C 688.55 735.85 689.80 733.47 691.13 731.13 C 695.81 722.66 700.03 713.94 704.19 705.20 C 708.52 695.68 712.41 685.97 716.14 676.20 C 717.54 672.56 718.66 668.82 720.03 665.18 C 723.66 654.18 726.97 643.08 729.63 631.81 C 730.15 630.15 730.02 627.92 731.82 627.04 L 730.60 627.19 C 731.59 623.82 731.95 620.28 733.16 616.97 C 736.10 599.73 739.02 582.46 739.94 564.98 C 743.15 522.76 739.74 480.05 730.04 438.84 C 729.69 437.48 729.36 436.09 729.06 434.73 C 728.36 431.94 727.59 429.16 726.66 426.44 C 726.95 426.18 727.52 425.66 727.81 425.40 L 726.49 425.50 C 725.26 421.12 724.22 416.67 722.63 412.41 C 722.95 412.22 723.58 411.83 723.90 411.63 C 723.52 411.64 722.74 411.67 722.36 411.68 C 721.27 407.91 720.13 404.14 718.62 400.52 C 718.93 400.27 719.55 399.77 719.86 399.52 C 719.49 399.61 718.75 399.77 718.38 399.85 C 717.77 397.43 716.85 395.11 716.06 392.75 C 713.20 385.25 709.92 377.90 707.21 370.36 L 706.67 370.24 C 704.22 364.30 701.62 358.35 698.43 352.78 L 698.44 351.88 C 696.67 349.38 695.51 346.54 694.14 343.83 C 692.14 340.18 690.13 336.54 688.15 332.88 C 684.63 326.74 680.87 320.74 677.28 314.64 C 676.62 313.78 675.96 312.92 675.32 312.07 L 677.07 311.53 C 676.58 311.57 675.61 311.64 675.12 311.68 C 665.80 296.72 654.97 282.77 643.78 269.19 C 639.53 264.44 635.42 259.59 631.07 254.94 C 626.62 250.74 622.67 246.07 618.41 241.69 C 617.19 240.91 616.11 239.94 615.23 238.80 C 613.43 237.26 611.68 235.66 610.08 233.91 C 607.06 231.26 604.26 228.38 601.18 225.82 C 595.27 220.71 589.19 215.82 583.22 210.80 C 579.13 207.91 575.26 204.75 571.22 201.81 C 562.32 195.64 553.46 189.40 544.16 183.83 C 543.15 183.15 542.14 182.48 541.13 181.82 C 538.14 180.26 535.20 178.59 532.41 176.70 C 522.33 171.39 512.34 165.86 501.93 161.21 C 485.02 153.15 467.41 146.75 449.66 140.87 C 433.68 136.66 417.73 131.94 401.32 129.72 C 401.36 129.26 401.45 128.32 401.49 127.85 L 401.10 129.44 C 398.14 129.03 395.15 128.71 392.29 127.81 C 382.06 126.93 371.91 125.16 361.63 124.67 C 361.56 124.23 361.41 123.34 361.33 122.90 L 361.44 124.72 C 359.60 124.48 357.75 124.31 355.91 124.10 C 350.36 123.11 344.62 124.08 339.00 123.62 C 327.79 122.71 316.52 124.51 305.33 123.33 L 305.48 124.27 C 294.32 124.77 283.15 125.75 272.12 127.48 C 270.44 127.71 268.76 127.71 267.09 127.50 L 267.57 128.29 C 252.89 129.77 238.54 133.58 224.18 136.81 C 220.75 138.21 217.09 138.87 213.54 139.86 C 212.24 140.26 210.93 140.60 209.62 140.94 C 207.24 141.79 204.82 142.98 202.22 142.72 L 202.53 143.42 C 198.42 144.23 194.67 146.74 190.45 146.76 C 190.49 146.90 190.58 147.19 190.62 147.33 C 186.79 148.02 183.15 151.74 179.24 150.43 C 179.07 150.84 178.72 151.67 178.55 152.08 C 176.97 152.67 175.41 153.30 173.87 153.97 C 172.42 154.71 170.83 154.85 169.25 154.60 C 166.99 156.79 163.83 159.12 160.54 158.61 C 160.57 158.91 160.63 159.51 160.66 159.81 C 156.18 161.40 151.97 163.62 147.75 165.79 C 146.44 165.61 145.03 165.68 143.87 164.96 C 133.04 158.99 122.12 153.04 112.50 145.21 L 112.62 144.74 C 107.57 141.47 103.62 136.72 99.32 132.54 C 97.34 130.19 94.69 128.36 93.21 125.62 L 92.43 125.59 L 92.43 124.77 C 90.84 122.95 89.26 121.12 87.74 119.25 C 86.24 117.08 84.76 114.90 83.27 112.72 C 78.52 106.01 74.62 98.74 71.12 91.31 C 70.70 91.84 70.27 92.37 69.84 92.89 Z"/>
    <path fill="#ffffff" stroke="#ffffff" stroke-width="0.09375" d=" M 173.49 234.03 C 220.68 209.30 273.71 195.29 327.05 195.00 C 357.86 194.69 388.78 198.42 418.50 206.64 C 443.06 213.20 466.62 223.13 488.97 235.16 C 539.61 262.35 583.22 302.43 614.55 350.60 C 634.85 381.86 650.51 416.28 659.65 452.46 C 667.63 484.59 670.74 517.89 669.21 550.93 C 667.60 587.64 660.02 624.19 645.84 658.14 C 642.75 666.90 638.57 675.21 634.49 683.55 C 630.66 692.64 625.16 700.90 620.36 709.49 C 617.58 714.80 613.82 719.49 610.64 724.55 C 606.74 730.02 603.25 735.79 598.88 740.90 C 593.93 746.91 589.38 753.26 584.16 759.04 C 580.33 762.94 576.70 767.03 572.93 770.99 C 569.30 775.68 564.42 779.11 560.34 783.35 C 556.12 786.98 552.35 791.11 547.94 794.52 C 541.49 799.42 535.37 804.73 528.87 809.56 C 520.86 814.86 513.13 820.60 504.87 825.52 C 497.94 829.33 491.15 833.38 484.19 837.12 C 478.50 839.72 472.82 842.36 467.13 844.97 C 457.19 849.86 446.45 852.80 436.24 857.07 C 427.87 842.98 419.20 829.07 410.92 814.93 C 415.91 813.38 420.90 811.81 425.85 810.15 C 434.92 807.72 443.29 803.38 452.02 800.01 C 456.75 798.27 460.92 795.40 465.46 793.26 C 476.20 788.12 486.01 781.31 496.04 774.96 C 502.07 770.23 508.30 765.75 514.34 761.04 C 524.23 752.39 534.28 743.84 542.97 733.95 C 555.54 720.67 566.53 705.97 576.41 690.60 C 581.29 681.94 586.95 673.67 590.80 664.47 C 608.01 630.47 618.68 593.04 621.02 554.95 C 623.44 517.56 619.38 479.53 607.47 443.89 C 589.18 389.01 554.80 339.35 508.85 304.09 C 463.10 268.74 406.86 246.59 348.99 243.43 C 342.69 242.48 336.29 243.53 330.00 242.63 C 324.40 243.49 318.70 242.54 313.10 243.38 C 267.08 245.67 222.50 260.92 182.22 282.77 C 179.47 266.49 176.47 250.26 173.49 234.03 Z"/>
    <path fill="#ffffff" stroke="#ffffff" stroke-width="0.09375" d=" M 287.07 375.44 C 303.00 368.20 320.61 364.14 338.15 365.06 C 346.94 366.34 355.41 369.11 363.58 372.55 C 373.50 377.30 382.03 384.48 389.24 392.72 C 406.88 414.58 408.36 447.03 395.79 471.70 C 391.52 478.58 388.07 486.27 381.87 491.68 C 378.74 497.59 373.46 501.89 368.38 506.05 C 365.85 508.43 363.28 510.77 360.42 512.75 C 364.78 513.81 368.99 515.43 373.24 516.86 C 381.48 520.61 390.16 523.30 398.91 525.59 C 406.30 527.30 413.31 530.29 420.49 532.68 C 437.08 538.36 453.53 544.48 470.23 549.85 C 476.80 552.38 483.81 553.44 490.49 555.64 C 498.85 558.41 507.65 559.38 516.08 561.90 C 527.32 564.49 540.00 565.68 550.49 560.02 C 553.43 564.94 556.26 569.93 559.41 574.72 C 550.30 579.75 541.25 584.88 532.20 590.02 C 519.87 597.23 506.47 603.41 492.04 604.49 C 482.42 605.02 473.08 602.07 463.96 599.39 C 447.11 594.61 431.14 587.31 414.79 581.12 C 394.91 573.32 375.07 565.41 355.15 557.69 C 344.04 553.56 332.88 548.99 321.04 547.50 C 313.17 546.12 306.06 550.69 299.47 554.31 C 295.62 556.56 291.65 558.63 287.95 561.13 C 297.18 577.38 306.88 593.37 316.28 609.54 C 323.93 622.08 330.55 635.37 340.06 646.67 C 344.67 651.61 349.62 656.73 356.09 659.12 C 369.71 663.31 384.54 657.77 395.15 649.05 C 398.22 654.18 401.16 659.41 403.92 664.73 C 362.52 688.28 321.35 712.24 279.96 735.81 C 276.91 730.68 274.24 725.32 271.03 720.28 C 279.22 715.31 288.23 710.62 293.38 702.15 C 295.38 699.21 296.54 695.83 297.48 692.44 C 298.76 678.68 292.45 665.73 286.01 654.01 C 256.75 602.97 227.35 552.01 198.04 501.00 C 191.67 490.23 183.98 479.04 172.14 473.84 C 161.52 469.04 149.27 471.83 139.50 477.36 C 137.36 478.77 134.90 479.54 132.39 479.97 C 129.55 475.07 126.51 470.29 123.73 465.35 C 162.83 442.90 201.89 420.41 240.99 397.97 C 256.05 389.88 271.17 381.80 287.07 375.44 M 279.50 404.19 C 271.48 406.03 263.20 407.70 256.10 412.11 C 242.37 419.49 228.62 426.89 215.49 435.32 C 236.64 471.14 256.95 507.49 278.07 543.32 C 292.60 535.79 306.92 527.76 320.81 519.07 C 327.06 515.02 333.35 510.93 338.84 505.87 C 342.58 502.59 345.19 498.31 348.72 494.83 C 360.36 478.92 361.10 456.21 351.53 439.13 C 346.63 430.52 340.96 422.13 333.20 415.84 C 329.58 412.94 325.93 409.81 321.44 408.39 C 312.90 405.21 304.06 401.49 294.77 402.13 C 289.78 403.75 284.37 402.08 279.50 404.19 Z"/>
  </g>
  <g>
    <path stroke="#000000" stroke-width="0.09375" d=" M 69.84 92.89 C 70.27 92.37 70.70 91.84 71.12 91.31 C 74.62 98.74 78.52 106.01 83.27 112.72 C 84.76 114.90 86.24 117.08 87.74 119.25 C 89.26 121.12 90.84 122.95 92.43 124.77 L 92.43 125.59 L 93.21 125.62 C 94.69 128.36 97.34 130.19 99.32 132.54 C 103.62 136.72 107.57 141.47 112.62 144.74 L 112.50 145.21 C 122.12 153.04 133.04 158.99 143.87 164.96 C 145.03 165.68 146.44 165.61 147.75 165.79 C 151.97 163.62 156.18 161.40 160.66 159.81 C 160.63 159.51 160.57 158.91 160.54 158.61 C 163.83 159.12 166.99 156.79 169.25 154.60 C 170.83 154.85 172.42 154.71 173.87 153.97 C 175.41 153.30 176.97 152.67 178.55 152.08 C 178.72 151.67 179.07 150.84 179.24 150.43 C 183.15 151.74 186.79 148.02 190.62 147.33 C 190.58 147.19 190.49 146.90 190.45 146.76 C 194.67 146.74 198.42 144.23 202.53 143.42 L 202.22 142.72 C 204.82 142.98 207.24 141.79 209.62 140.94 C 210.93 140.60 212.24 140.26 213.54 139.86 C 217.09 138.87 220.75 138.21 224.18 136.81 C 238.54 133.58 252.89 129.77 267.57 128.29 L 267.09 127.50 C 268.76 127.71 270.44 127.71 272.12 127.48 C 283.15 125.75 294.32 124.77 305.48 124.27 L 305.33 123.33 C 316.52 124.51 327.79 122.71 339.00 123.62 C 344.62 124.08 350.36 123.11 355.91 124.10 C 357.75 124.31 359.60 124.48 361.44 124.72 L 361.33 122.90 C 361.41 123.34 361.56 124.23 361.63 124.67 C 371.91 125.16 382.06 126.93 392.29 127.81 C 395.15 128.71 398.14 129.03 401.10 129.44 L 401.49 127.85 C 401.45 128.32 401.36 129.26 401.32 129.72 C 417.73 131.94 433.68 136.66 449.66 140.87 C 467.41 146.75 485.02 153.15 501.93 161.21 C 512.34 165.86 522.33 171.39 532.41 176.70 C 535.20 178.59 538.14 180.26 541.13 181.82 C 542.14 182.48 543.15 183.15 544.16 183.83 C 553.46 189.40 562.32 195.64 571.22 201.81 C 575.26 204.75 579.13 207.91 583.22 210.80 C 589.19 215.82 595.27 220.71 601.18 225.82 C 604.26 228.38 607.06 231.26 610.08 233.91 C 611.68 235.66 613.43 237.26 615.23 238.80 C 616.11 239.94 617.19 240.91 618.41 241.69 C 622.67 246.07 626.62 250.74 631.07 254.94 C 635.42 259.59 639.53 264.44 643.78 269.19 C 654.97 282.77 665.80 296.72 675.12 311.68 C 675.61 311.64 676.58 311.57 677.07 311.53 L 675.32 312.07 C 675.96 312.92 676.62 313.78 677.28 314.64 C 680.87 320.74 684.63 326.74 688.15 332.88 C 690.13 336.54 692.14 340.18 694.14 343.83 C 695.51 346.54 696.67 349.38 698.44 351.88 L 698.43 352.78 C 701.62 358.35 704.22 364.30 706.67 370.24 L 707.21 370.36 C 709.92 377.90 713.20 385.25 716.06 392.75 C 716.85 395.11 717.77 397.43 718.38 399.85 C 718.75 399.77 719.49 399.61 719.86 399.52 C 719.55 399.77 718.93 400.27 718.62 400.52 C 720.13 404.14 721.27 407.91 722.36 411.68 C 722.74 411.67 723.52 411.64 723.90 411.63 C 723.58 411.83 722.95 412.22 722.63 412.41 C 724.22 416.67 725.26 421.12 726.49 425.50 L 727.81 425.40 C 727.52 425.66 726.95 426.18 726.66 426.44 C 727.59 429.16 728.36 431.94 729.06 434.73 C 729.36 436.09 729.69 437.48 730.04 438.84 C 739.74 480.05 743.15 522.76 739.94 564.98 C 739.02 582.46 736.10 599.73 733.16 616.97 C 731.95 620.28 731.59 623.82 730.60 627.19 L 731.82 627.04 C 730.02 627.92 730.15 630.15 729.63 631.81 C 726.97 643.08 723.66 654.18 720.03 665.18 C 718.66 668.82 717.54 672.56 716.14 676.20 C 712.41 685.97 708.52 695.68 704.19 705.20 C 700.03 713.94 695.81 722.66 691.13 731.13 C 689.80 733.47 688.55 735.85 687.20 738.18 C 684.73 742.03 682.78 746.21 679.98 749.85 C 680.41 750.98 681.16 752.52 679.04 751.41 C 677.80 754.23 675.74 756.57 674.25 759.25 C 672.87 761.21 671.57 763.22 670.28 765.24 C 668.81 767.15 667.45 769.13 666.22 771.20 C 664.04 773.85 662.05 776.64 660.24 779.56 C 651.25 791.05 642.07 802.42 632.21 813.18 C 624.70 821.00 617.26 828.93 609.17 836.15 C 592.69 851.62 574.75 865.50 556.02 878.15 C 531.67 893.92 505.94 907.66 478.89 918.21 C 474.71 919.99 470.35 921.32 466.23 923.22 C 463.58 925.71 462.09 929.19 460.21 932.27 C 453.27 942.92 446.32 953.58 439.02 964.00 C 430.76 974.63 421.59 984.65 411.18 993.23 C 403.16 1000.23 393.77 1005.61 383.80 1009.30 C 384.00 1004.11 385.60 999.08 386.46 993.98 C 387.60 984.96 389.87 976.09 389.86 966.96 C 391.47 953.78 389.77 940.37 387.86 927.29 C 387.58 925.50 387.31 923.76 386.94 922.01 C 386.61 920.64 386.31 919.32 386.00 917.98 C 384.81 913.40 383.88 908.65 381.92 904.33 C 364.13 878.05 346.02 851.98 328.15 825.76 C 326.99 823.60 324.01 824.81 322.12 823.77 C 313.19 823.58 304.25 822.92 295.40 821.75 C 295.13 822.05 294.61 822.63 294.34 822.93 L 294.65 821.67 C 290.28 821.24 285.99 820.16 281.58 820.25 L 281.53 819.62 C 277.81 819.31 274.19 818.35 270.55 817.56 C 270.29 817.91 269.77 818.60 269.52 818.94 C 269.54 818.59 269.60 817.89 269.63 817.55 C 242.81 811.84 216.89 802.09 192.76 789.09 C 152.47 767.47 117.81 735.83 91.82 698.26 C 88.09 692.62 84.41 686.94 80.86 681.18 C 80.58 680.68 80.01 679.68 79.73 679.18 C 78.52 676.81 77.21 674.49 75.72 672.29 C 72.11 664.75 68.02 657.44 64.78 649.72 C 64.53 649.62 64.02 649.40 63.76 649.30 C 63.22 644.57 60.71 640.29 58.98 635.91 C 57.63 632.06 56.37 628.17 54.88 624.36 C 53.85 621.68 53.78 618.37 51.71 616.24 C 52.43 613.42 50.53 610.56 49.90 607.81 C 49.45 605.68 48.93 603.57 48.51 601.44 L 47.55 601.92 C 47.71 601.50 48.03 600.67 48.19 600.26 C 45.43 588.50 43.27 576.58 42.25 564.54 L 41.38 564.89 C 42.20 559.28 41.14 553.61 40.67 548.02 C 40.41 538.00 40.40 527.98 40.67 517.96 C 41.24 512.44 41.92 506.89 41.60 501.33 L 42.24 501.40 C 43.99 481.51 48.54 461.96 54.42 442.92 C 54.78 440.80 57.97 437.47 55.05 436.23 C 55.57 436.37 56.61 436.65 57.13 436.79 C 57.00 436.18 56.72 434.94 56.59 434.32 L 57.45 434.68 C 58.60 430.97 60.07 427.39 61.57 423.82 C 61.17 423.80 60.36 423.75 59.96 423.73 C 60.43 423.63 61.36 423.43 61.83 423.33 C 64.82 415.70 68.22 408.22 71.97 400.93 C 74.07 397.11 75.80 393.08 78.35 389.53 C 78.12 389.34 77.65 388.98 77.42 388.80 C 77.75 388.72 78.42 388.55 78.75 388.46 C 85.60 376.37 93.37 364.78 101.88 353.80 C 108.89 344.43 117.07 336.05 124.67 327.21 C 120.20 306.78 116.32 286.21 111.99 265.74 C 109.67 259.74 109.16 253.28 107.51 247.10 C 105.49 237.06 103.46 227.03 101.26 217.05 C 88.64 208.77 77.56 197.89 70.24 184.60 C 62.71 169.99 58.47 153.17 60.59 136.76 L 58.78 136.51 C 59.26 136.52 60.22 136.55 60.69 136.57 C 60.90 133.11 61.37 129.68 61.62 126.24 L 59.96 126.18 C 60.43 126.02 61.37 125.71 61.84 125.55 C 61.75 124.72 61.58 123.06 61.49 122.23 L 62.47 122.69 C 62.51 120.52 62.61 118.35 62.86 116.19 C 63.94 113.84 64.18 111.20 64.82 108.72 C 65.11 107.82 65.69 106.03 65.97 105.14 L 63.86 105.60 C 64.72 105.19 65.58 104.77 66.44 104.37 C 66.54 103.13 66.63 101.89 66.73 100.65 L 67.71 100.60 C 67.70 99.85 67.69 98.36 67.68 97.61 L 68.50 97.56 C 68.94 96.00 69.40 94.45 69.84 92.89 M 173.49 234.03 C 176.47 250.26 179.47 266.49 182.22 282.77 C 222.50 260.92 267.08 245.67 313.10 243.38 C 318.70 242.54 324.40 243.49 330.00 242.63 C 336.29 243.53 342.69 242.48 348.99 243.43 C 406.86 246.59 463.10 268.74 508.85 304.09 C 554.80 339.35 589.18 389.01 607.47 443.89 C 619.38 479.53 623.44 517.56 621.02 554.95 C 618.68 593.04 608.01 630.47 590.80 664.47 C 586.95 673.67 581.29 681.94 576.41 690.60 C 566.53 705.97 555.54 720.67 542.97 733.95 C 534.28 743.84 524.23 752.39 514.34 761.04 C 508.30 765.75 502.07 770.23 496.04 774.96 C 486.01 781.31 476.20 788.12 465.46 793.26 C 460.92 795.40 456.75 798.27 452.02 800.01 C 443.29 803.38 434.92 807.72 425.85 810.15 C 420.90 811.81 415.91 813.38 410.92 814.93 C 419.20 829.07 427.87 842.98 436.24 857.07 C 446.45 852.80 457.19 849.86 467.13 844.97 C 472.82 842.36 478.50 839.72 484.19 837.12 C 491.15 833.38 497.94 829.33 504.87 825.52 C 513.13 820.60 520.86 814.86 528.87 809.56 C 535.37 804.73 541.49 799.42 547.94 794.52 C 552.35 791.11 556.12 786.98 560.34 783.35 C 564.42 779.11 569.30 775.68 572.93 770.99 C 576.70 767.03 580.33 762.94 584.16 759.04 C 589.38 753.26 593.93 746.91 598.88 740.90 C 603.25 735.79 606.74 730.02 610.64 724.55 C 613.82 719.49 617.58 714.80 620.36 709.49 C 625.16 700.90 630.66 692.64 634.49 683.55 C 638.57 675.21 642.75 666.90 645.84 658.14 C 660.02 624.19 667.60 587.64 669.21 550.93 C 670.74 517.89 667.63 484.59 659.65 452.46 C 650.51 416.28 634.85 381.86 614.55 350.60 C 583.22 302.43 539.61 262.35 488.97 235.16 C 466.62 223.13 443.06 213.20 418.50 206.64 C 388.78 198.42 357.86 194.69 327.05 195.00 C 273.71 195.29 220.68 209.30 173.49 234.03 M 287.07 375.44 C 271.17 381.80 256.05 389.88 240.99 397.97 C 201.89 420.41 162.83 442.90 123.73 465.35 C 126.51 470.29 129.55 475.07 132.39 479.97 C 134.90 479.54 137.36 478.77 139.50 477.36 C 149.27 471.83 161.52 469.04 172.14 473.84 C 183.98 479.04 191.67 490.23 198.04 501.00 C 227.35 552.01 256.75 602.97 286.01 654.01 C 292.45 665.73 298.76 678.68 297.48 692.44 C 296.54 695.83 295.38 699.21 293.38 702.15 C 288.23 710.62 279.22 715.31 271.03 720.28 C 274.24 725.32 276.91 730.68 279.96 735.81 C 321.35 712.24 362.52 688.28 403.92 664.73 C 401.16 659.41 398.22 654.18 395.15 649.05 C 384.54 657.77 369.71 663.31 356.09 659.12 C 349.62 656.73 344.67 651.61 340.06 646.67 C 330.55 635.37 323.93 622.08 316.28 609.54 C 306.88 593.37 297.18 577.38 287.95 561.13 C 291.65 558.63 295.62 556.56 299.47 554.31 C 306.06 550.69 313.17 546.12 321.04 547.50 C 332.88 548.99 344.04 553.56 355.15 557.69 C 375.07 565.41 394.91 573.32 414.79 581.12 C 431.14 587.31 447.11 594.61 463.96 599.39 C 473.08 602.07 482.42 605.02 492.04 604.49 C 506.47 603.41 519.87 597.23 532.20 590.02 C 541.25 584.88 550.30 579.75 559.41 574.72 C 556.26 569.93 553.43 564.94 550.49 560.02 C 540.00 565.68 527.32 564.49 516.08 561.90 C 507.65 559.38 498.85 558.41 490.49 555.64 C 483.81 553.44 476.80 552.38 470.23 549.85 C 453.53 544.48 437.08 538.36 420.49 532.68 C 413.31 530.29 406.30 527.30 398.91 525.59 C 390.16 523.30 381.48 520.61 373.24 516.86 C 368.99 515.43 364.78 513.81 360.42 512.75 C 363.28 510.77 365.85 508.43 368.38 506.05 C 373.46 501.89 378.74 497.59 381.87 491.68 C 388.07 486.27 391.52 478.58 395.79 471.70 C 408.36 447.03 406.88 414.58 389.24 392.72 C 382.03 384.48 373.50 377.30 363.58 372.55 C 355.41 369.11 346.94 366.34 338.15 365.06 C 320.61 364.14 303.00 368.20 287.07 375.44 Z"/>
    <path stroke="#000000" stroke-width="0.09375" d=" M 279.50 404.19 C 284.37 402.08 289.78 403.75 294.77 402.13 C 304.06 401.49 312.90 405.21 321.44 408.39 C 325.93 409.81 329.58 412.94 333.20 415.84 C 340.96 422.13 346.63 430.52 351.53 439.13 C 361.10 456.21 360.36 478.92 348.72 494.83 C 345.19 498.31 342.58 502.59 338.84 505.87 C 333.35 510.93 327.06 515.02 320.81 519.07 C 306.92 527.76 292.60 535.79 278.07 543.32 C 256.95 507.49 236.64 471.14 215.49 435.32 C 228.62 426.89 242.37 419.49 256.10 412.11 C 263.20 407.70 271.48 406.03 279.50 404.19 Z"/>
  </g>
</svg>
