<?xml version="1.0" encoding="UTF-8"?>
<svg xmlns="http://www.w3.org/2000/svg" width="782pt" height="1077pt" viewBox="0 0 782 1077">
  <g>
    <path fill="#ffffff" stroke="#ffffff" stroke-width="0.09375" d=" M 62.18 5.17 C 62.97 3.58 63.86 2.05 64.85 0.59 C 66.69 4.69 68.31 8.89 70.09 13.02 C 71.88 16.64 73.35 20.41 75.13 24.03 C 76.48 26.69 77.77 29.38 79.08 32.06 C 90.75 54.78 104.67 76.39 121.04 96.01 C 128.81 104.22 137.16 111.85 144.91 120.08 C 145.88 120.88 146.58 122.21 147.92 122.40 C 151.61 120.82 155.33 119.29 159.00 117.67 C 161.31 116.69 163.67 115.81 166.03 114.94 C 167.00 114.52 167.97 114.10 168.95 113.67 C 173.00 112.16 177.09 110.74 181.13 109.17 C 185.07 107.77 189.10 106.63 192.98 105.06 C 200.98 102.66 208.93 100.10 217.02 97.98 C 223.94 95.99 231.02 94.64 237.99 92.85 C 244.39 91.71 250.74 90.30 257.16 89.27 C 259.38 88.76 261.64 88.48 263.91 88.24 C 272.18 86.53 280.66 86.24 288.97 84.83 C 292.05 84.63 295.14 84.53 298.23 84.37 C 302.39 83.39 306.70 83.56 310.95 83.45 C 325.97 83.19 341.00 83.23 356.02 83.60 C 357.98 83.62 359.92 83.95 361.85 84.34 C 365.22 84.49 368.60 84.61 371.97 84.86 C 380.53 86.19 389.25 86.59 397.77 88.22 C 405.20 89.32 412.66 90.41 419.97 92.20 C 421.37 92.39 422.79 92.57 424.21 92.76 C 433.79 95.12 443.41 97.31 452.89 100.08 C 463.11 102.89 473.14 106.31 483.16 109.78 C 484.17 110.16 485.20 110.53 486.24 110.89 C 493.18 113.62 500.17 116.22 506.99 119.23 C 531.55 129.74 555.15 142.47 577.49 157.13 C 641.32 199.09 694.30 257.38 729.83 325.02 C 730.71 326.71 731.57 328.42 732.41 330.14 C 732.60 330.39 732.98 330.88 733.17 331.12 C 733.70 332.41 734.27 333.69 734.86 334.97 C 736.25 337.64 737.56 340.34 738.81 343.08 C 741.54 349.01 744.26 354.95 746.73 361.00 C 748.18 364.30 749.51 367.66 750.79 371.04 C 752.83 375.88 754.39 380.89 756.31 385.78 C 760.57 398.38 764.63 411.06 767.70 424.02 C 769.49 429.99 770.52 436.14 772.05 442.18 C 772.27 443.52 772.49 444.88 772.72 446.24 C 774.47 454.10 775.76 462.07 776.75 470.07 C 777.48 472.70 777.61 475.44 777.83 478.16 C 779.32 488.15 780.31 498.27 780.45 508.37 C 780.84 508.73 781.61 509.43 782.00 509.78 L 782.00 552.19 C 781.67 554.37 781.55 556.59 781.50 558.81 L 780.54 558.27 C 780.53 562.52 780.38 566.78 780.11 571.03 C 779.17 577.67 779.17 584.44 777.87 591.04 C 777.64 593.06 777.47 595.10 777.29 597.14 C 775.91 603.71 775.42 610.44 773.91 616.99 C 773.68 618.36 773.48 619.74 773.29 621.13 C 772.81 622.93 772.43 624.76 772.08 626.59 C 771.10 630.81 770.29 635.07 769.32 639.30 C 765.33 655.41 760.74 671.39 755.08 687.01 C 752.80 693.39 750.32 699.70 747.79 705.99 C 745.89 710.32 744.16 714.73 742.13 719.01 C 720.64 767.04 690.44 811.07 653.83 848.83 C 616.63 887.10 572.39 918.45 524.14 941.25 C 517.78 944.20 511.46 947.27 504.89 949.76 C 501.57 951.33 498.08 952.53 494.73 954.06 C 492.31 955.07 491.60 957.87 490.18 959.85 C 471.31 989.84 446.85 1016.44 418.04 1037.12 C 411.71 1041.69 404.76 1045.27 398.03 1049.20 C 395.32 1050.45 392.62 1051.71 389.99 1053.14 C 384.08 1056.03 377.97 1058.51 371.92 1061.10 C 370.94 1061.43 369.98 1061.79 369.02 1062.17 C 362.40 1064.99 355.58 1067.27 348.82 1069.70 C 341.92 1071.91 335.12 1074.53 328.02 1076.00 C 331.58 1065.42 335.16 1054.84 338.22 1044.11 C 339.71 1039.11 340.70 1033.98 342.21 1029.00 C 342.37 1028.25 342.68 1026.74 342.84 1025.99 C 345.98 1012.05 348.60 997.94 349.60 983.67 C 350.69 978.51 350.26 973.22 350.38 968.00 C 350.27 963.05 350.71 958.05 349.70 953.17 C 348.92 947.15 347.91 941.16 347.08 935.15 C 346.56 932.47 346.33 929.75 345.73 927.10 C 345.34 924.65 345.56 921.99 344.26 919.81 C 330.88 900.13 317.18 880.65 303.99 860.85 C 302.24 860.67 300.49 860.52 298.75 860.37 C 295.85 859.68 292.87 859.45 289.91 859.24 C 283.32 857.90 276.53 857.66 270.03 855.82 C 268.37 855.62 266.72 855.44 265.07 855.27 C 263.46 854.81 261.82 854.41 260.20 854.03 C 255.81 852.93 251.39 851.97 246.99 850.92 C 245.77 850.53 244.55 850.14 243.34 849.75 C 227.82 845.82 212.74 840.23 198.07 833.84 C 192.30 831.45 186.68 828.73 181.12 825.89 C 177.78 824.33 174.54 822.57 171.34 820.73 C 116.69 791.06 70.99 745.37 40.79 691.04 C 34.20 679.00 28.34 666.57 23.20 653.84 C 21.99 650.94 20.98 647.96 19.92 645.01 C 19.54 644.02 19.14 643.03 18.74 642.06 C 13.13 626.47 9.15 610.38 5.64 594.21 C 5.45 592.47 5.28 590.73 5.12 589.00 L 4.68 588.35 C 3.61 581.55 2.82 574.70 1.81 567.91 C 1.38 564.61 1.34 561.27 1.16 557.95 C 0.12 552.86 0.46 547.63 0.00 542.48 L 0.00 516.83 C 0.44 514.19 0.58 511.53 1.10 508.91 C 1.32 505.59 1.40 502.26 1.72 498.94 C 2.59 495.97 2.56 492.86 2.80 489.81 C 4.10 484.28 4.49 478.59 5.68 473.03 C 7.13 466.68 8.35 460.28 10.02 453.98 C 11.22 449.24 12.70 444.58 13.97 439.86 C 16.77 431.20 19.72 422.59 23.15 414.16 C 36.86 380.00 56.45 348.31 80.22 320.25 C 80.92 319.34 81.92 318.39 81.65 317.13 C 81.08 312.72 79.73 308.47 79.03 304.09 C 77.59 297.77 76.42 291.40 75.08 285.06 C 73.44 278.42 72.51 271.63 70.78 265.01 C 70.56 263.68 70.35 262.34 70.12 261.01 C 68.95 256.37 68.14 251.65 67.19 246.97 C 66.43 243.83 65.72 240.68 65.24 237.49 C 54.19 226.80 43.63 215.37 36.20 201.79 C 34.77 199.23 33.45 196.60 32.13 193.97 C 30.72 190.96 29.48 187.87 28.27 184.78 C 26.41 180.26 25.24 175.52 23.82 170.86 C 23.58 169.60 23.33 168.34 23.07 167.08 C 19.08 148.96 19.77 130.06 22.69 111.83 C 23.24 109.56 23.56 107.24 24.13 104.97 C 26.27 94.79 29.60 84.91 32.94 75.07 C 34.37 71.08 35.62 67.03 37.28 63.12 C 41.06 52.58 45.41 42.23 49.86 31.95 C 51.17 28.95 52.47 25.95 53.85 22.98 C 56.48 16.97 59.49 11.15 62.18 5.17 M 69.90 92.94 C 69.03 95.35 68.31 97.81 67.35 100.19 C 66.55 101.82 66.46 103.65 66.17 105.42 C 63.92 105.05 63.69 105.29 65.47 106.13 C 64.93 109.21 63.77 112.15 63.42 115.27 C 62.04 117.49 63.11 120.39 61.74 122.63 C 61.75 123.38 61.75 124.88 61.76 125.63 C 61.29 125.74 60.37 125.95 59.91 126.06 C 60.34 126.14 61.21 126.28 61.64 126.36 C 61.36 129.74 60.89 133.12 60.70 136.52 C 60.22 136.56 59.26 136.64 58.78 136.68 L 60.61 136.71 C 60.35 140.99 59.25 145.30 60.26 149.57 C 60.81 159.30 63.23 168.95 67.07 177.91 C 73.18 192.35 83.81 204.59 96.49 213.67 C 98.48 215.23 101.43 216.28 101.86 219.10 C 103.28 227.25 105.17 235.30 106.81 243.41 C 107.55 249.37 110.65 254.71 110.88 260.81 C 112.92 268.47 113.95 276.36 115.76 284.08 C 116.16 286.57 117.32 289.11 116.58 291.65 C 116.77 291.58 117.15 291.46 117.35 291.39 C 119.22 301.81 121.69 312.11 123.47 322.54 C 123.88 324.09 124.28 325.65 124.69 327.22 C 122.92 329.57 120.92 331.73 118.84 333.80 C 106.58 347.10 95.40 361.43 85.79 376.77 C 83.22 380.56 80.95 384.54 78.76 388.55 C 78.34 388.57 77.51 388.59 77.10 388.61 C 77.44 388.75 78.12 389.04 78.46 389.18 C 71.98 400.13 66.37 411.64 61.82 423.52 C 61.39 423.50 60.54 423.46 60.12 423.44 C 60.41 423.64 61.01 424.03 61.31 424.23 C 60.09 427.73 58.48 431.10 57.45 434.67 L 56.39 434.30 C 58.24 435.72 56.51 436.74 54.94 436.82 L 56.71 436.70 C 56.02 438.79 55.20 440.86 54.43 442.94 C 50.50 455.73 47.02 468.70 44.89 481.92 C 44.59 482.98 44.74 484.51 43.35 484.78 C 43.57 485.04 44.02 485.55 44.24 485.80 C 43.28 490.93 42.67 496.13 42.23 501.33 L 41.60 501.40 C 41.93 506.94 41.23 512.48 40.67 517.99 C 40.54 525.66 40.31 533.33 40.56 541.00 C 40.30 548.45 41.82 555.80 41.74 563.26 C 43.46 574.52 44.73 585.92 47.48 597.02 C 47.72 598.49 48.64 600.10 47.66 601.50 C 47.88 601.52 48.32 601.56 48.54 601.58 C 48.95 603.65 49.46 605.70 49.90 607.78 C 50.83 610.48 51.80 613.22 51.97 616.11 C 54.73 622.51 56.46 629.33 58.96 635.85 C 63.83 648.32 69.61 660.38 75.71 672.29 C 77.64 675.11 79.20 678.17 80.84 681.17 C 84.41 686.93 88.10 692.62 91.82 698.28 C 97.77 706.56 103.80 714.81 110.54 722.48 C 151.15 770.55 208.10 804.38 269.61 817.53 L 269.46 818.82 C 269.74 818.51 270.29 817.89 270.57 817.58 C 278.48 819.46 286.53 820.69 294.60 821.65 L 294.42 822.88 C 294.67 822.60 295.18 822.03 295.43 821.74 C 304.28 822.93 313.21 823.58 322.14 823.77 C 324.02 824.81 327.00 823.62 328.16 825.76 C 345.36 850.97 362.70 876.08 379.90 901.29 C 383.69 906.04 384.41 912.30 385.99 918.00 C 386.31 919.34 386.61 920.66 386.94 922.03 C 387.67 925.72 388.18 929.46 388.76 933.20 C 389.78 936.73 389.24 940.47 389.83 944.08 C 390.59 947.91 390.27 951.83 390.57 955.71 L 389.33 955.38 C 389.35 956.16 389.39 957.71 389.41 958.49 L 390.60 958.49 C 390.59 959.29 390.56 960.88 390.55 961.68 L 389.52 961.28 C 390.80 972.32 387.86 983.18 386.45 994.06 C 385.59 999.13 383.98 1004.14 383.82 1009.30 C 405.89 1001.40 422.74 984.02 437.27 966.27 C 445.41 955.28 452.68 943.67 460.22 932.26 C 461.87 929.31 463.53 926.33 465.64 923.67 C 467.28 922.44 469.34 921.97 471.21 921.18 C 522.14 902.18 569.43 873.28 609.17 836.16 C 617.25 828.94 624.69 821.01 632.20 813.20 C 642.06 802.42 651.26 791.04 660.27 779.53 C 662.06 776.62 664.04 773.84 666.22 771.21 C 667.45 769.13 668.82 767.14 670.30 765.23 C 671.58 763.20 672.89 761.18 674.28 759.21 C 675.87 756.60 677.57 754.05 679.24 751.49 C 679.70 751.45 680.63 751.39 681.10 751.36 C 680.67 751.26 679.83 751.07 679.40 750.98 C 684.95 742.40 689.93 733.47 694.73 724.47 C 697.75 718.28 701.03 712.22 703.80 705.91 C 708.39 696.21 712.28 686.20 716.15 676.19 C 717.54 672.53 718.68 668.78 720.04 665.12 C 724.09 652.76 727.88 640.29 730.56 627.56 C 730.89 627.53 731.56 627.47 731.89 627.44 L 730.66 626.98 C 731.63 623.67 731.96 620.20 733.15 616.97 C 740.63 577.58 743.08 537.20 739.48 497.24 L 741.19 497.14 C 740.72 497.00 739.78 496.73 739.31 496.60 C 737.40 472.89 733.06 449.37 726.80 426.43 L 727.70 425.69 C 727.42 425.57 726.85 425.33 726.56 425.21 C 724.95 420.79 724.15 416.11 722.44 411.71 L 724.09 411.62 C 723.65 411.57 722.77 411.46 722.33 411.41 C 721.68 407.34 718.39 403.33 719.57 399.24 C 719.15 399.03 718.32 398.62 717.90 398.41 C 717.31 396.52 716.67 394.66 716.11 392.77 C 713.18 385.30 709.93 377.91 707.23 370.37 L 706.66 370.23 C 705.26 365.93 702.84 362.07 701.17 357.89 C 700.41 356.17 699.57 354.50 698.68 352.85 C 697.58 350.48 696.14 348.28 695.26 345.82 C 694.97 345.32 694.39 344.33 694.10 343.84 C 688.93 333.83 683.02 324.24 677.27 314.57 C 676.62 313.80 675.98 313.03 675.35 312.26 C 675.78 312.10 676.63 311.77 677.06 311.60 C 676.59 311.60 675.65 311.60 675.18 311.59 C 671.97 306.59 668.58 301.71 665.22 296.81 C 656.56 284.92 647.57 273.24 637.70 262.33 C 632.45 255.92 626.16 250.47 620.84 244.13 C 619.14 242.16 616.85 240.82 615.22 238.79 C 613.43 237.25 611.67 235.67 610.08 233.92 C 607.07 231.26 604.25 228.39 601.18 225.81 C 595.36 220.88 589.56 215.93 583.57 211.22 L 583.45 210.83 C 579.15 208.11 575.34 204.71 571.19 201.79 C 562.31 195.64 553.48 189.41 544.20 183.85 C 543.18 183.17 542.16 182.49 541.14 181.82 C 528.34 174.46 515.38 167.30 501.91 161.21 C 485.00 153.14 467.37 146.74 449.61 140.85 C 442.57 139.36 435.82 136.79 428.78 135.29 C 419.59 133.35 410.53 130.65 401.16 129.75 C 401.29 129.33 401.56 128.49 401.70 128.07 C 401.32 128.37 400.55 128.98 400.16 129.28 C 387.45 127.12 374.59 125.61 361.70 124.66 C 361.61 124.23 361.43 123.35 361.33 122.92 L 361.52 124.74 C 359.65 124.49 357.78 124.32 355.91 124.10 C 350.70 123.09 345.29 124.08 340.01 123.64 C 328.62 122.82 317.21 124.23 305.82 123.53 C 304.93 123.89 304.02 124.13 303.09 124.26 C 293.06 125.14 282.97 125.65 273.03 127.36 C 271.12 127.68 269.17 127.76 267.25 127.49 L 267.42 128.27 C 252.79 129.83 238.49 133.58 224.17 136.81 C 220.74 138.24 217.05 138.90 213.47 139.84 C 209.74 140.77 206.16 142.82 202.25 142.71 L 202.51 143.44 C 198.42 144.22 194.72 146.69 190.53 146.80 C 190.54 146.94 190.55 147.22 190.55 147.36 C 186.99 148.15 183.83 150.93 180.12 150.69 C 178.95 150.05 178.46 151.48 177.97 152.25 C 175.72 153.13 173.49 154.05 171.32 155.11 C 170.70 154.87 170.07 154.64 169.45 154.40 C 167.75 157.05 163.67 158.88 160.50 158.60 C 160.55 158.90 160.64 159.50 160.69 159.80 C 156.20 161.38 151.99 163.62 147.76 165.78 C 146.42 165.62 144.99 165.68 143.80 164.92 C 133.01 158.97 122.12 153.04 112.54 145.23 L 112.60 144.73 C 107.56 141.49 103.67 136.71 99.38 132.57 C 97.40 130.21 94.69 128.43 93.25 125.66 L 92.73 125.50 C 89.52 121.28 86.07 117.24 83.28 112.71 C 78.50 106.01 74.63 98.71 71.09 91.30 C 70.79 91.71 70.20 92.53 69.90 92.94 Z"/>
    <path fill="#ffffff" stroke="#ffffff" stroke-width="0.09375" d=" M 302.82 196.11 C 362.82 191.12 424.41 202.23 478.20 229.60 C 512.00 246.21 542.89 268.58 569.61 295.07 C 612.37 338.10 643.98 392.37 659.34 451.14 C 674.38 511.63 673.17 576.38 654.13 635.85 C 648.56 651.88 642.57 667.83 634.78 682.93 C 630.27 693.53 623.78 703.12 618.25 713.20 C 612.73 721.35 607.35 729.61 601.56 737.57 C 594.31 746.28 587.85 755.68 579.74 763.65 C 574.67 768.88 570.20 774.73 564.52 779.34 C 559.01 784.43 553.74 789.77 547.94 794.53 C 539.56 800.84 531.82 808.02 522.89 813.58 C 514.01 819.93 504.83 825.86 495.17 830.97 C 485.00 837.28 473.87 841.73 463.09 846.85 C 454.30 850.64 445.09 853.39 436.25 857.07 C 427.88 842.98 419.17 829.09 410.94 814.92 C 418.47 812.58 425.98 810.15 433.47 807.72 C 443.52 803.31 454.01 799.84 463.49 794.25 C 474.98 788.89 485.46 781.71 496.11 774.91 C 501.89 770.39 507.81 766.06 513.64 761.61 C 524.34 752.37 535.10 743.11 544.37 732.39 C 549.46 727.41 553.62 721.59 558.26 716.19 C 562.66 711.13 566.19 705.40 570.12 699.98 C 576.71 690.98 581.92 681.08 587.53 671.46 C 591.70 662.23 596.74 653.39 600.17 643.83 C 612.45 614.73 619.50 583.47 621.21 551.95 C 621.86 546.31 621.14 540.63 621.84 535.00 C 621.36 530.68 621.48 526.34 621.52 522.00 C 620.27 492.34 614.65 462.82 604.39 434.94 C 591.94 401.86 574.06 370.68 550.87 343.94 C 519.38 307.17 478.26 278.92 433.12 261.54 C 405.99 251.06 377.17 245.04 348.14 243.36 C 342.12 242.46 336.00 243.57 330.00 242.61 C 324.40 243.51 318.71 242.52 313.10 243.38 C 267.07 245.64 222.53 260.98 182.20 282.73 C 179.49 266.46 176.46 250.25 173.49 234.03 C 213.55 213.10 257.72 199.71 302.82 196.11 Z"/>
    <path fill="#ffffff" stroke="#ffffff" stroke-width="0.09375" d=" M 382.31 325.03 C 387.26 320.32 394.50 318.65 401.16 319.08 C 406.21 320.37 411.63 321.83 415.21 325.91 C 419.71 331.16 422.69 338.13 421.96 345.14 C 420.46 360.08 402.14 371.06 388.47 364.25 C 380.32 360.49 374.98 351.81 374.47 342.97 C 375.01 336.33 377.78 329.92 382.31 325.03 Z"/>
    <path fill="#ffffff" stroke="#ffffff" stroke-width="0.09375" d=" M 443.06 407.26 C 445.69 403.19 450.82 402.29 454.71 399.86 C 475.36 435.72 495.98 471.59 516.57 507.49 C 523.36 518.87 529.24 530.96 538.15 540.89 C 543.60 546.28 550.29 551.04 558.22 551.40 C 562.60 550.95 567.10 549.89 570.51 546.94 C 572.67 551.46 575.45 555.65 577.78 560.08 C 545.37 579.22 513.06 598.50 480.53 617.41 C 472.17 622.17 463.99 627.34 455.04 630.95 C 447.12 633.89 439.01 636.88 430.43 636.71 C 424.23 636.70 418.16 635.36 412.25 633.59 C 388.66 626.51 365.96 616.87 343.15 607.67 C 325.74 600.52 308.38 593.16 290.32 587.79 C 282.97 585.65 275.72 583.13 268.23 581.52 C 257.53 583.72 248.50 590.26 239.05 595.37 C 249.95 614.61 260.94 633.79 271.83 653.04 C 278.21 664.19 284.60 675.95 295.01 683.90 C 301.92 689.36 311.44 690.56 319.83 688.42 C 327.14 686.53 334.16 683.37 340.43 679.17 C 343.07 683.78 345.74 688.37 348.46 692.93 C 309.30 715.58 270.32 738.54 231.18 761.23 C 228.09 756.49 225.42 751.50 222.32 746.77 C 231.05 741.01 241.02 735.69 245.77 725.83 C 248.21 721.61 247.44 716.66 247.48 712.02 C 246.73 704.98 244.04 698.37 241.20 691.95 C 232.40 675.07 222.39 658.87 213.09 642.26 C 193.01 607.53 173.12 572.70 153.03 537.98 C 146.96 528.09 139.82 518.12 129.39 512.48 C 120.61 507.85 109.98 508.99 101.24 513.09 C 97.52 514.54 94.33 517.19 90.37 518.02 C 87.86 513.46 85.31 508.93 82.78 504.39 C 119.57 482.95 156.31 461.43 193.10 440.00 C 215.34 428.46 237.65 416.14 262.25 410.44 C 282.78 404.52 305.33 410.47 322.38 422.78 C 339.20 434.91 349.38 455.53 349.18 476.23 C 349.58 487.92 346.30 499.64 340.77 509.92 C 336.71 516.47 332.82 523.13 327.91 529.11 C 325.65 533.85 321.58 537.30 317.58 540.54 C 314.02 543.33 310.78 546.48 307.24 549.29 C 312.25 550.72 317.41 551.53 322.10 553.93 C 330.89 556.32 339.31 559.81 347.88 562.88 C 370.88 570.57 393.91 578.22 416.92 585.84 C 427.66 588.60 438.15 592.37 449.13 594.16 C 454.17 594.76 458.80 597.53 463.97 597.02 C 469.31 596.91 474.65 597.13 479.98 596.94 C 488.81 594.53 497.92 589.88 502.26 581.40 C 505.68 575.11 504.78 567.57 502.84 560.97 C 499.78 551.25 494.74 542.31 489.66 533.52 C 475.31 508.96 461.38 484.15 446.90 459.67 C 434.58 460.09 422.14 460.73 409.79 461.59 C 408.57 459.17 407.20 456.83 405.91 454.45 C 418.49 438.88 430.69 423.00 443.06 407.26 M 220.49 448.34 C 202.69 455.61 186.24 465.68 169.59 475.21 C 189.59 509.65 209.28 544.27 229.28 578.70 C 241.48 571.46 253.98 564.76 266.09 557.38 C 273.78 551.95 282.27 547.57 289.13 541.07 C 295.19 533.93 301.04 526.21 303.63 517.08 C 306.39 507.76 305.52 497.69 302.61 488.51 C 297.22 473.19 287.19 459.09 273.02 450.79 C 257.08 441.91 237.34 442.31 220.49 448.34 Z"/>
  </g>
  <g>
    <path stroke="#000000" stroke-width="0.09375" d=" M 69.90 92.94 C 70.20 92.53 70.79 91.71 71.09 91.30 C 74.63 98.71 78.50 106.01 83.28 112.71 C 86.07 117.24 89.52 121.28 92.73 125.50 L 93.25 125.66 C 94.69 128.43 97.40 130.21 99.38 132.57 C 103.67 136.71 107.56 141.49 112.60 144.73 L 112.54 145.23 C 122.12 153.04 133.01 158.97 143.80 164.92 C 144.99 165.68 146.42 165.62 147.76 165.78 C 151.99 163.62 156.20 161.38 160.69 159.80 C 160.64 159.50 160.55 158.90 160.50 158.60 C 163.67 158.88 167.75 157.05 169.45 154.40 C 170.07 154.64 170.70 154.87 171.32 155.11 C 173.49 154.05 175.72 153.13 177.97 152.25 C 178.46 151.48 178.95 150.05 180.12 150.69 C 183.83 150.93 186.99 148.15 190.55 147.36 C 190.55 147.22 190.54 146.94 190.53 146.80 C 194.72 146.69 198.42 144.22 202.51 143.44 L 202.25 142.71 C 206.16 142.82 209.74 140.77 213.47 139.84 C 217.05 138.90 220.74 138.24 224.17 136.81 C 238.49 133.58 252.79 129.83 267.42 128.27 L 267.25 127.49 C 269.17 127.76 271.12 127.68 273.03 127.36 C 282.97 125.65 293.06 125.14 303.09 124.26 C 304.02 124.13 304.93 123.89 305.82 123.53 C 317.21 124.23 328.62 122.82 340.01 123.64 C 345.29 124.08 350.70 123.09 355.91 124.10 C 357.78 124.32 359.65 124.49 361.52 124.74 L 361.33 122.92 C 361.43 123.35 361.61 124.23 361.70 124.66 C 374.59 125.61 387.45 127.12 400.16 129.28 C 400.55 128.98 401.32 128.37 401.70 128.07 C 401.56 128.49 401.29 129.33 401.16 129.75 C 410.53 130.65 419.59 133.35 428.78 135.29 C 435.82 136.79 442.57 139.36 449.61 140.85 C 467.37 146.74 485.00 153.14 501.91 161.21 C 515.38 167.30 528.34 174.46 541.14 181.82 C 542.16 182.49 543.18 183.17 544.20 183.85 C 553.48 189.41 562.31 195.64 571.19 201.79 C 575.34 204.71 579.15 208.11 583.45 210.83 L 583.57 211.22 C 589.56 215.93 595.36 220.88 601.18 225.81 C 604.25 228.39 607.07 231.26 610.08 233.92 C 611.67 235.67 613.43 237.25 615.22 238.79 C 616.85 240.82 619.14 242.16 620.84 244.13 C 626.16 250.47 632.45 255.92 637.70 262.33 C 647.57 273.24 656.56 284.92 665.22 296.81 C 668.58 301.71 671.97 306.59 675.18 311.59 C 675.65 311.60 676.59 311.60 677.06 311.60 C 676.63 311.77 675.78 312.10 675.35 312.26 C 675.98 313.03 676.62 313.80 677.27 314.57 C 683.02 324.24 688.93 333.83 694.10 343.84 C 694.39 344.33 694.97 345.32 695.26 345.82 C 696.14 348.28 697.58 350.48 698.68 352.85 C 699.57 354.50 700.41 356.17 701.17 357.89 C 702.84 362.07 705.26 365.93 706.66 370.23 L 707.23 370.37 C 709.93 377.91 713.18 385.30 716.11 392.77 C 716.67 394.66 717.31 396.52 717.90 398.41 C 718.32 398.62 719.15 399.03 719.57 399.24 C 718.39 403.33 721.68 407.34 722.33 411.41 C 722.77 411.46 723.65 411.57 724.09 411.62 L 722.44 411.71 C 724.15 416.11 724.95 420.79 726.56 425.21 C 726.85 425.33 727.42 425.57 727.70 425.69 L 726.80 426.43 C 733.06 449.37 737.40 472.89 739.31 496.60 C 739.78 496.73 740.72 497.00 741.19 497.14 L 739.48 497.24 C 743.08 537.20 740.63 577.58 733.15 616.97 C 731.96 620.20 731.63 623.67 730.66 626.98 L 731.89 627.44 C 731.56 627.47 730.89 627.53 730.56 627.56 C 727.88 640.29 724.09 652.76 720.04 665.12 C 718.68 668.78 717.54 672.53 716.15 676.19 C 712.28 686.20 708.39 696.21 703.80 705.91 C 701.03 712.22 697.75 718.28 694.73 724.47 C 689.93 733.47 684.95 742.40 679.40 750.98 C 679.83 751.07 680.67 751.26 681.10 751.36 C 680.63 751.39 679.70 751.45 679.24 751.49 C 677.57 754.05 675.87 756.60 674.28 759.21 C 672.89 761.18 671.58 763.20 670.30 765.23 C 668.82 767.14 667.45 769.13 666.22 771.21 C 664.04 773.84 662.06 776.62 660.27 779.53 C 651.26 791.04 642.06 802.42 632.20 813.20 C 624.69 821.01 617.25 828.94 609.17 836.16 C 569.43 873.28 522.14 902.18 471.21 921.18 C 469.34 921.97 467.28 922.44 465.64 923.67 C 463.53 926.33 461.87 929.31 460.22 932.26 C 452.68 943.67 445.41 955.28 437.27 966.27 C 422.74 984.02 405.89 1001.40 383.82 1009.30 C 383.98 1004.14 385.59 999.13 386.45 994.06 C 387.86 983.18 390.80 972.32 389.52 961.28 L 390.55 961.68 C 390.56 960.88 390.59 959.29 390.60 958.49 L 389.41 958.49 C 389.39 957.71 389.35 956.16 389.33 955.38 L 390.57 955.71 C 390.27 951.83 390.59 947.91 389.83 944.08 C 389.24 940.47 389.78 936.73 388.76 933.20 C 388.18 929.46 387.67 925.72 386.94 922.03 C 386.61 920.66 386.31 919.34 385.99 918.00 C 384.41 912.30 383.69 906.04 379.90 901.29 C 362.70 876.08 345.36 850.97 328.16 825.76 C 327.00 823.62 324.02 824.81 322.14 823.77 C 313.21 823.58 304.28 822.93 295.43 821.74 C 295.18 822.03 294.67 822.60 294.42 822.88 L 294.60 821.65 C 286.53 820.69 278.48 819.46 270.57 817.58 C 270.29 817.89 269.74 818.51 269.46 818.82 L 269.61 817.53 C 208.10 804.38 151.15 770.55 110.54 722.48 C 103.80 714.81 97.77 706.56 91.82 698.28 C 88.10 692.62 84.41 686.93 80.84 681.17 C 79.20 678.17 77.64 675.11 75.71 672.29 C 69.61 660.38 63.83 648.32 58.96 635.85 C 56.46 629.33 54.73 622.51 51.97 616.11 C 51.80 613.22 50.83 610.48 49.90 607.78 C 49.46 605.70 48.95 603.65 48.54 601.58 C 48.32 601.56 47.88 601.52 47.66 601.50 C 48.64 600.10 47.72 598.49 47.48 597.02 C 44.73 585.92 43.46 574.52 41.74 563.26 C 41.82 555.80 40.30 548.45 40.56 541.00 C 40.31 533.33 40.54 525.66 40.67 517.99 C 41.23 512.48 41.93 506.94 41.60 501.40 L 42.23 501.33 C 42.67 496.13 43.28 490.93 44.24 485.80 C 44.02 485.55 43.57 485.04 43.35 484.78 C 44.74 484.51 44.59 482.98 44.89 481.92 C 47.02 468.70 50.50 455.73 54.43 442.94 C 55.20 440.86 56.02 438.79 56.71 436.70 L 54.94 436.82 C 56.51 436.74 58.24 435.72 56.39 434.30 L 57.45 434.67 C 58.48 431.10 60.09 427.73 61.31 424.23 C 61.01 424.03 60.41 423.64 60.12 423.44 C 60.54 423.46 61.39 423.50 61.82 423.52 C 66.37 411.64 71.98 400.13 78.46 389.18 C 78.12 389.04 77.44 388.75 77.10 388.61 C 77.51 388.59 78.34 388.57 78.76 388.55 C 80.95 384.54 83.22 380.56 85.79 376.77 C 95.40 361.43 106.58 347.10 118.84 333.80 C 120.92 331.73 122.92 329.57 124.69 327.22 C 124.28 325.65 123.88 324.09 123.47 322.54 C 121.69 312.11 119.22 301.81 117.35 291.39 C 117.15 291.46 116.77 291.58 116.58 291.65 C 117.32 289.11 116.16 286.57 115.76 284.08 C 113.95 276.36 112.92 268.47 110.88 260.81 C 110.65 254.71 107.55 249.37 106.81 243.41 C 105.17 235.30 103.28 227.25 101.86 219.10 C 101.43 216.28 98.48 215.23 96.49 213.67 C 83.81 204.59 73.18 192.35 67.07 177.91 C 63.23 168.95 60.81 159.30 60.26 149.57 C 59.25 145.30 60.35 140.99 60.61 136.71 L 58.78 136.68 C 59.26 136.64 60.22 136.56 60.70 136.52 C 60.89 133.12 61.36 129.74 61.64 126.36 C 61.21 126.28 60.34 126.14 59.91 126.06 C 60.37 125.95 61.29 125.74 61.76 125.63 C 61.75 124.88 61.75 123.38 61.74 122.63 C 63.11 120.39 62.04 117.49 63.42 115.27 C 63.77 112.15 64.93 109.21 65.47 106.13 C 63.69 105.29 63.92 105.05 66.17 105.42 C 66.46 103.65 66.55 101.82 67.35 100.19 C 68.31 97.81 69.03 95.35 69.90 92.94 M 302.82 196.11 C 257.72 199.71 213.55 213.10 173.49 234.03 C 176.46 250.25 179.49 266.46 182.20 282.73 C 222.53 260.98 267.07 245.64 313.10 243.38 C 318.71 242.52 324.40 243.51 330.00 242.61 C 336.00 243.57 342.12 242.46 348.14 243.36 C 377.17 245.04 405.99 251.06 433.12 261.54 C 478.26 278.92 519.38 307.17 550.87 343.94 C 574.06 370.68 591.94 401.86 604.39 434.94 C 614.65 462.82 620.27 492.34 621.52 522.00 C 621.48 526.34 621.36 530.68 621.84 535.00 C 621.14 540.63 621.86 546.31 621.21 551.95 C 619.50 583.47 612.45 614.73 600.17 643.83 C 596.74 653.39 591.70 662.23 587.53 671.46 C 581.92 681.08 576.71 690.98 570.12 699.98 C 566.19 705.40 562.66 711.13 558.26 716.19 C 553.62 721.59 549.46 727.41 544.37 732.39 C 535.10 743.11 524.34 752.37 513.64 761.61 C 507.81 766.06 501.89 770.39 496.11 774.91 C 485.46 781.71 474.98 788.89 463.49 794.25 C 454.01 799.84 443.52 803.31 433.47 807.72 C 425.98 810.15 418.47 812.58 410.94 814.92 C 419.17 829.09 427.88 842.98 436.25 857.07 C 445.09 853.39 454.30 850.64 463.09 846.85 C 473.87 841.73 485.00 837.28 495.17 830.97 C 504.83 825.86 514.01 819.93 522.89 813.58 C 531.82 808.02 539.56 800.84 547.94 794.53 C 553.74 789.77 559.01 784.43 564.52 779.34 C 570.20 774.73 574.67 768.88 579.74 763.65 C 587.85 755.68 594.31 746.28 601.56 737.57 C 607.35 729.61 612.73 721.35 618.25 713.20 C 623.78 703.12 630.27 693.53 634.78 682.93 C 642.57 667.83 648.56 651.88 654.13 635.85 C 673.17 576.38 674.38 511.63 659.34 451.14 C 643.98 392.37 612.37 338.10 569.61 295.07 C 542.89 268.58 512.00 246.21 478.20 229.60 C 424.41 202.23 362.82 191.12 302.82 196.11 M 382.31 325.03 C 377.78 329.92 375.01 336.33 374.47 342.97 C 374.98 351.81 380.32 360.49 388.47 364.25 C 402.14 371.06 420.46 360.08 421.96 345.14 C 422.69 338.13 419.71 331.16 415.21 325.91 C 411.63 321.83 406.21 320.37 401.16 319.08 C 394.50 318.65 387.26 320.32 382.31 325.03 M 443.06 407.26 C 430.69 423.00 418.49 438.88 405.91 454.45 C 407.20 456.83 408.57 459.17 409.79 461.59 C 422.14 460.73 434.58 460.09 446.90 459.67 C 461.38 484.15 475.31 508.96 489.66 533.52 C 494.74 542.31 499.78 551.25 502.84 560.97 C 504.78 567.57 505.68 575.11 502.26 581.40 C 497.92 589.88 488.81 594.53 479.98 596.94 C 474.65 597.13 469.31 596.91 463.97 597.02 C 458.80 597.53 454.17 594.76 449.13 594.16 C 438.15 592.37 427.66 588.60 416.92 585.84 C 393.91 578.22 370.88 570.57 347.88 562.88 C 339.31 559.81 330.89 556.32 322.10 553.93 C 317.41 551.53 312.25 550.72 307.24 549.29 C 310.78 546.48 314.02 543.33 317.58 540.54 C 321.58 537.30 325.65 533.85 327.91 529.11 C 332.82 523.13 336.71 516.47 340.77 509.92 C 346.30 499.64 349.58 487.92 349.18 476.23 C 349.38 455.53 339.20 434.91 322.38 422.78 C 305.33 410.47 282.78 404.52 262.25 410.44 C 237.65 416.14 215.34 428.46 193.10 440.00 C 156.31 461.43 119.57 482.95 82.78 504.39 C 85.31 508.93 87.86 513.46 90.37 518.02 C 94.33 517.19 97.52 514.54 101.24 513.09 C 109.98 508.99 120.61 507.85 129.39 512.48 C 139.82 518.12 146.96 528.09 153.03 537.98 C 173.12 572.70 193.01 607.53 213.09 642.26 C 222.39 658.87 232.40 675.07 241.20 691.95 C 244.04 698.37 246.73 704.98 247.48 712.02 C 247.44 716.66 248.21 721.61 245.77 725.83 C 241.02 735.69 231.05 741.01 222.32 746.77 C 225.42 751.50 228.09 756.49 231.18 761.23 C 270.32 738.54 309.30 715.58 348.46 692.93 C 345.74 688.37 343.07 683.78 340.43 679.17 C 334.16 683.37 327.14 686.53 319.83 688.42 C 311.44 690.56 301.92 689.36 295.01 683.90 C 284.60 675.95 278.21 664.19 271.83 653.04 C 260.94 633.79 249.95 614.61 239.05 595.37 C 248.50 590.26 257.53 583.72 268.23 581.52 C 275.72 583.13 282.97 585.65 290.32 587.79 C 308.38 593.16 325.74 600.52 343.15 607.67 C 365.96 616.87 388.66 626.51 412.25 633.59 C 418.16 635.36 424.23 636.70 430.43 636.71 C 439.01 636.88 447.12 633.89 455.04 630.95 C 463.99 627.34 472.17 622.17 480.53 617.41 C 513.06 598.50 545.37 579.22 577.78 560.08 C 575.45 555.65 572.67 551.46 570.51 546.94 C 567.10 549.89 562.60 550.95 558.22 551.40 C 550.29 551.04 543.60 546.28 538.15 540.89 C 529.24 530.96 523.36 518.87 516.57 507.49 C 495.98 471.59 475.36 435.72 454.71 399.86 C 450.82 402.29 445.69 403.19 443.06 407.26 Z"/>
    <path stroke="#000000" stroke-width="0.09375" d=" M 220.49 448.34 C 237.34 442.31 257.08 441.91 273.02 450.79 C 287.19 459.09 297.22 473.19 302.61 488.51 C 305.52 497.69 306.39 507.76 303.63 517.08 C 301.04 526.21 295.19 533.93 289.13 541.07 C 282.27 547.57 273.78 551.95 266.09 557.38 C 253.98 564.76 241.48 571.46 229.28 578.70 C 209.28 544.27 189.59 509.65 169.59 475.21 C 186.24 465.68 202.69 455.61 220.49 448.34 Z"/>
  </g>
</svg>
