<?xml version="1.0" encoding="UTF-8" standalone="no"?>
<svg xmlns="http://www.w3.org/2000/svg" xmlns:xlink="http://www.w3.org/1999/xlink" version="1.1" width="600" height="826.61981">
  <radialGradient cx="0" cy="0" r="1" fx="0" fy="0" id="radialGradient240" gradientUnits="userSpaceOnUse" gradientTransform="matrix(14.49852,0,0,-14.49852,135.6416,481.73877)" spreadMethod="pad">
    <stop style="stop-color:#d9eaf3" offset="0"/>
    <stop style="stop-color:#99aebc" offset="0.66291797"/>
    <stop style="stop-color:#536e78" offset="1"/>
  </radialGradient>  <radialGradient cx="0" cy="0" r="1" fx="0" fy="0" id="radialGradient2995" xlink:href="#radialGradient240" gradientUnits="userSpaceOnUse" gradientTransform="matrix(14.49852,0,0,-14.49852,135.6416,481.73877)" spreadMethod="pad"/>
  <radialGradient cx="0" cy="0" r="1" fx="0" fy="0" id="radialGradient2998" xlink:href="#radialGradient240" gradientUnits="userSpaceOnUse" gradientTransform="matrix(299.64906,0,0,299.64906,300.02273,424.8045)" spreadMethod="pad"/>
  <path d="m 21.308257,70.00021 0,0 c -3.782164,12.4212 -5.807585,25.4211 -5.807585,37.53229 0,27.36385 10.747132,51.99959 31.001343,71.28242 l 3.554821,3.32748 12.834556,62.14736 -4.691537,5.66291 C 20.192208,296.68203 0,351.76108 0,409.23757 0,537.83115 97.282216,645.77782 226.20647,660.22445 l 7.10964,0.80686 31.55937,46.192 0.24801,2.08743 3.47215,23.02366 c 0.33068,3.38948 0.41335,6.86163 0.41335,10.33378 0,29.69929 -9.21773,61.50667 -17.36075,83.95164 21.4736,-6.36561 50.05683,-16.55472 69.58768,-30.36065 20.50222,-14.44662 41.08711,-36.47825 54.97572,-58.92322 l 2.66611,-4.36085 4.69154,-1.86008 C 427.32252,713.36158 465.99153,687.91981 498.35693,655.55441 563.91444,589.9969 600,502.96579 600,410.51979 600,219.34484 444.43526,63.7801 253.34298,63.7801 c -44.16658,0 -88.08515,8.88705 -130.70167,26.39247 l -9.52774,3.96818 -6.13827,-6.30361 -13.082565,-12.9999 C 71.778444,48.75478 57.972512,21.22559 49.643485,0 40.281079,19.05549 29.058593,44.33192 21.308257,70.00103" style="fill:#ffffff"/>
  <path d="m 334.87651,658.05436 -19.3655,-32.3034 c 93.39671,-26.95051 161.78567,-113.09291 161.78567,-215.232 0,-123.75736 -100.27901,-224.03637 -223.9537,-224.03637 -41.16979,0 -79.69412,11.16048 -112.86556,30.44332 l -7.35765,-37.69764 c 35.94089,-18.72481 76.86266,-29.38927 120.22321,-29.38927 143.70156,0 260.59729,116.89573 260.59729,260.67996 0,115.22166 -75.16792,213.22724 -179.06376,247.5354 M 108.67004,467.85078 c -26.413142,-66.1982 -17.44342,-163.97644 94.20275,-208.45303 22.69298,-9.0524 67.25225,-18.33213 107.616,-16.38938 l 29.16193,73.1425 -9.38308,3.72016 c -31.31135,-55.71974 -83.78629,-59.91526 -126.89883,-42.71985 -47.80407,19.0555 -77.028,80.41749 -45.44797,159.69826 30.588,76.77999 97.28222,131.17701 159.42958,106.39661 26.97117,-10.72647 61.85801,-45.44797 70.57972,-113.34091 l 22.42431,46.89469 c -25.33843,46.10934 -59.2539,72.91516 -97.59223,88.16783 C 188.42617,614.52847 126.42348,512.32737 108.67004,467.85078 M 253.34298,94.86328 c -49.66415,0 -97.53023,11.38783 -140.72543,32.9441 0,0 -37.614967,-14.21928 -58.282529,-57.7245 0,0 -28.583238,63.03606 24.057043,96.22817 L 96.1455,251.64741 c -40.198409,40.36375 -65.061486,96.06283 -65.061486,157.59016 0,122.31064 98.336256,221.68028 220.316216,223.37502 l 42.38917,61.85801 c 12.66921,40.11574 1.19872,80.23148 1.19872,80.23148 34.32882,-12.66922 62.33336,-66.11553 62.33336,-66.11553 44.33192,-15.41801 84.92302,-40.75644 119.0865,-75.00259 59.64658,-59.64658 92.50801,-138.84468 92.50801,-223.065 0,-174.06221 -141.59347,-315.65568 -315.57301,-315.65568" style="fill:#536e78"/>
  <path d="m 82.83559,159.28358 2.976129,1.94275 0.723364,3.38948 17.691437,85.33637 0.8887,4.36085 -3.14147,3.14147 C 61.589336,298.06626 39.392374,351.90526 39.392374,409.23708 l 0,0 c 0,117.06107 95.112126,213.53725 212.173196,215.06665 l 0,0 4.27818,0.0827 2.33544,3.55482 42.47184,61.92002 0.72336,0.97137 0.33068,1.19872 c 7.97768,25.44177 6.9443,50.63553 4.67087,66.85957 l 0,0 c 24.4704,-18.00145 43.44322,-53.69433 43.67056,-54.08701 l 0,0 1.4674,-2.91413 3.0588,-1.05405 c 43.75323,-15.25266 82.75292,-39.86772 116.02769,-73.05983 l 0,0 C 528.71758,569.65873 560.6903,492.46538 560.6903,410.5185 l 0,0 c 0,-169.53602 -137.89398,-307.42999 -307.42999,-307.42999 l 0,0 c -48.03142,0 -94.14075,10.8298 -136.9226,32.13806 l 0,0 -3.22414,1.5294 -3.38948,-1.19872 C 108.25669,134.97856 78.722745,123.52873 56.587785,90.6673 l 0,0 c -3.864834,19.0555 -4.112844,49.47815 26.247805,68.61631 m 49.47814,59.2539 -7.33698,-37.69763 -1.21939,-6.0556 5.49757,-2.83145 c 38.58634,-20.17155 80.33482,-30.42266 124.00538,-30.42266 l 0,0 c 148.31042,0 269.00899,120.69857 269.00899,268.98833 l 0,0 c 0,116.25503 -74.27922,218.86948 -184.80934,255.3684 l 0,0 -6.22094,2.08742 -3.38948,-5.64225 -19.44818,-32.3654 -5.58024,-9.21773 10.41645,-2.97613 C 404.96021,591.277 468.96766,506.10597 468.96766,410.5185 l 0,0 c 0,-119.00383 -96.70353,-215.70735 -215.70735,-215.70735 l 0,0 c -38.19366,0 -75.80862,10.08577 -108.58737,29.3066 l 0,0 -10.08577,5.80759 -2.27344,-11.38783 z m -31.31135,252.3716 C 85.667046,432.40541 83.889635,389.37555 96.1455,352.79396 l 0,0 c 15.27333,-45.19995 51.02821,-80.16947 103.66849,-101.06437 l 0,0 c 20.8329,-8.4117 60.94864,-17.27809 99.78299,-17.27809 l 0,0 c 3.80283,0 7.50233,0.0827 11.22249,0.22735 l 0,0 5.4149,0.24801 1.94275,5.00155 29.14126,73.1425 3.0588,7.68833 -7.75033,3.0588 -9.27974,3.72016 -6.69629,2.66612 -3.55482,-6.30361 c -22.11429,-39.16503 -53.1983,-47.39072 -75.4986,-47.39072 l 0,0 c -13.39258,0 -27.19852,2.83146 -41.16979,8.30836 l 0,0 c -22.3623,8.96972 -39.3097,27.5292 -47.70073,52.2476 l 0,0 c -9.52775,28.16989 -7.10964,61.58934 6.86163,96.70352 l 0,0 c 25.58644,64.19345 74.03121,107.30599 120.53322,107.30599 l 0,0 c 9.61042,0 19.13816,-1.86008 28.16989,-5.49757 l 0,0 c 26.30981,-10.49913 57.39382,-44.08391 65.39217,-106.7273 l 0,0 3.63749,-27.7772 12.02852,25.27643 22.44497,46.8327 1.86008,3.86483 -2.10809,3.72016 c -24.30505,44.22858 -57.55916,74.25855 -101.72574,91.86731 l 0,0 c -23.08567,9.19707 -45.53064,13.88861 -66.59089,13.88861 l 0,0 c -97.22021,0 -140.47742,-96.31084 -148.22775,-115.61435" style="fill:url(#radialGradient2998)"/>
</svg>
