<?xml version="1.0" encoding="UTF-8" standalone="no"?>
<svg xmlns="http://www.w3.org/2000/svg" version="1.1" width="600" height="826.59247">
  <path d="m 334.8861,658.0326 -19.4682,-32.30233 c 93.49696,-26.94961 161.863,-113.08916 161.863,-215.22488 0,-123.75327 -100.25503,-224.02897 -224.02897,-224.02897 -41.08575,0 -79.67081,11.16012 -112.77915,30.44232 l -7.41941,-37.69639 c 36.0017,-18.72419 76.94279,-29.3883 120.19856,-29.3883 143.77948,0 260.69201,116.89187 260.69201,260.67134 0,115.21785 -75.16544,213.22019 -179.05784,247.52721 M 108.66645,467.83531 C 82.274845,401.6393 91.161603,303.8643 202.88675,259.38917 c 22.60957,-9.05209 67.25002,-18.33152 107.52977,-16.38883 l 29.22297,73.14008 -9.3621,3.72004 c -31.41365,-55.7179 -83.88686,-59.91328 -126.9153,-42.71844 -47.78183,19.05486 -77.00479,80.41483 -45.44647,159.69298 30.58698,76.77745 97.279,131.17268 159.44497,106.39309 26.88761,-10.72611 61.75264,-45.44647 70.55673,-113.33717 l 22.44423,46.89315 C 385.00329,522.89188 351.1096,549.69682 312.66921,564.94898 188.35793,614.50815 126.43996,512.31044 108.66645,467.83531 M 253.25193,94.86015 c -49.55917,0 -97.44433,11.38745 -140.61744,32.94301 0,0 -37.634387,-14.21882 -58.301266,-57.7226 0,0 -28.582293,63.03398 24.056247,96.22499 l 17.773516,85.33354 c -40.279747,40.36242 -65.080001,96.05966 -65.080001,157.58496 0,122.30658 98.333014,221.67294 220.308924,223.36762 l 42.38777,61.85597 c 12.6068,40.11441 1.13751,80.22882 1.13751,80.22882 34.38968,-12.66879 62.39331,-66.11334 62.39331,-66.11334 44.24778,-15.41749 84.8582,-40.75509 119.08255,-75.00011 59.66528,-59.64461 92.52562,-138.84009 92.52562,-223.05762 0,-174.05645 -141.60946,-315.64524 -315.66591,-315.64524"/>
</svg>
