<?xml version="1.0" encoding="UTF-8" standalone="no"?>
<svg xmlns="http://www.w3.org/2000/svg" version="1.1" width="600" height="646.46533">
  <path d="m 359.98552,646.46534 c -10.55355,0 -19.83033,-6.88486 -22.9172,-16.98588 -3.10303,-10.03637 0.74344,-20.94547 9.47072,-26.89296 0.87273,-0.5663 84.15363,-57.82632 102.33546,-133.83448 0.24307,-0.88825 0.50037,-1.82627 0.80809,-2.71516 -2.65051,-6.62627 -2.26263,-14.38385 1.58384,-21.02628 2.52121,-4.21819 13.88284,-24.48488 20.39598,-49.48692 -2.08485,-1.5192 -3.91112,-3.28082 -5.43031,-5.36567 -3.84647,-5.17172 -5.43031,-11.68486 -4.36364,-18.05254 0.32323,-2.27879 0.82359,-5.36566 1.19596,-9.03435 -38.1253,27.52326 -94.30313,138.45671 -123.92741,213.38204 -3.71717,9.34143 -12.62223,15.22426 -22.33538,15.22426 l -33.64852,0 c -9.66465,0 -18.63436,-5.88283 -22.28689,-15.15961 -29.67276,-74.98998 -85.86676,-185.92343 -123.92741,-213.44669 0.37237,3.66869 0.82489,6.75556 1.19597,9.03435 1.01753,6.36768 -0.56631,12.88082 -4.36365,18.05254 -1.56767,2.08485 -3.34545,3.84647 -5.41414,5.36567 6.49697,25.06669 17.8586,45.26873 20.31517,49.48692 3.92728,6.64243 4.23435,14.40001 1.58384,21.02628 0.37236,0.88825 0.62966,1.82627 0.8236,2.71516 18.24648,76.00816 101.51122,133.26883 102.33546,133.83448 8.77577,5.94749 12.62224,16.85659 9.47072,26.89296 -3.03839,10.10102 -12.37981,16.98588 -22.9172,16.98588 -22.22224,0 -119.25669,-37.93135 -182.270902,-126.19003 -1.696971,-2.40809 -2.957579,-5.0586 -3.652529,-7.8384 -2.27879,-1.69697 -4.298994,-3.84647 -5.866673,-6.36768 C 30.368356,478.02879 17.293594,447.28937 9.3420707,414.77216 8.5818274,411.556 8.4693425,408.27518 8.9697066,405.18831 7.2565735,402.52164 5.9959661,399.49942 5.4303089,396.28325 1.8262646,376.45293 0,355.62058 0,334.48117 0,313.63266 1.7131332,293.18819 5.0585913,273.6811 c 0.7589503,-4.42829 2.7151544,-8.3394 5.3656627,-11.49092 -1.2114764,-4.04041 -1.2606078,-8.4687 -0.19394,-12.62224 4.298995,-17.11517 10.101021,-33.84246 17.163655,-49.81015 2.343437,-5.36566 6.448492,-9.40607 11.313143,-11.8788 -0.954182,-5.30102 -0.129293,-10.97375 2.715155,-16.09699 8.517181,-15.03032 18.553555,-29.80205 29.850537,-43.94348 1.77778,-2.26263 3.975762,-4.15354 6.448492,-5.60809 1.002021,-2.65051 2.456568,-5.18788 4.412126,-7.38586 4.993945,-5.75355 10.359607,-11.55557 15.854562,-17.17982 4.347476,-4.41213 8.775766,-9.21213 13.123246,-13.8182 13.83436,-14.83638 26.95761,-28.91316 40.33944,-37.12327 30.86872,-18.81214 57.64855,-27.58791 58.77986,-27.97579 2.39192,-0.74343 4.86465,-1.13131 7.38587,-1.13131 6.82021,0 13.51112,2.97374 18.18183,8.3394 1.13132,1.3899 2.08485,2.7798 2.9091,4.28283 C 253.91543,12.75153 275.31343,0 299.87911,0 c 24.67882,0 46.20611,12.75153 61.36572,30.23841 0.80809,-1.50303 1.82627,-2.89293 2.95758,-4.28283 4.60607,-5.36566 11.29698,-8.3394 18.18184,-8.3394 2.47273,0 4.9293,0.38788 7.38587,1.13131 1.14812,0.38788 27.91114,9.16365 58.77986,27.97579 13.38183,8.21011 26.52124,22.28689 40.33944,37.12327 4.29899,4.60607 8.77576,9.40607 13.07476,13.8182 5.54344,5.62425 10.86061,11.42627 15.90304,17.17982 1.95556,2.19798 3.41011,4.73535 4.42829,7.38586 2.39192,1.45455 4.60607,3.34546 6.43233,5.60809 11.23234,14.14143 21.26871,28.91316 29.80205,43.94348 2.89294,5.12324 3.71718,10.79597 2.77981,16.09699 4.84849,2.47273 8.95354,6.51314 11.29698,11.8788 7.06263,15.96769 12.88082,32.69498 17.16365,49.81015 1.08348,4.15354 0.95419,8.58183 -0.24307,12.62224 2.71516,3.15152 4.60607,7.06263 5.36566,11.49092 3.41011,19.50709 5.10708,39.95156 5.10708,60.80007 0,21.13941 -1.82626,41.97176 -5.43031,61.80208 -0.5663,3.21617 -1.82626,6.23839 -3.5394,8.90506 0.45253,3.08687 0.38788,6.36769 -0.37236,9.58385 -7.95152,32.51721 -21.02629,63.25663 -38.82024,91.29707 -1.58384,2.52121 -3.60405,4.67071 -5.88284,6.36768 -0.6943,2.7798 -1.95556,5.43031 -3.65253,7.8384 -63.01421,88.25868 -160.09714,126.19003 -182.31939,126.19003" style="fill:#ffffff"/>
  <path d="m 299.8804,163.13553 0,0.0646 c -0.25858,0 -0.50036,0 -0.76024,0 -0.32323,0 -0.56501,0 -0.8236,0 l 0,-0.0646 c -12.75153,-0.76025 -21.59194,-11.16769 -21.59194,-31.88691 0,-21.64042 22.41619,-51.20005 22.41619,-51.20005 0,0 22.41618,29.55963 22.41618,51.20005 0,20.71922 -8.90506,31.12731 -21.65659,31.88691 m 68.23442,-35.92732 C 366.4825,111.24052 365.7229,95.20818 358.53097,72.85664 351.32288,50.44046 328.53498,24.00002 299.8804,24.00002 c -28.78387,0 -51.20005,26.44044 -58.39198,48.85662 -7.20809,22.35154 -8.03233,38.38388 -9.60001,54.35157 -1.58384,16.04851 -11.1192,87.25666 68.12129,87.25666 79.15968,0 69.68896,-71.20815 68.10512,-87.25666 m 163.45876,366.04484 c 15.27275,-24.11315 27.89498,-52.02429 35.73337,-84.15362 0,0 -21.59194,-8.4687 -34.47276,-11.42628 -12.88082,-3.03838 -35.16771,-8.46869 -35.16771,-8.46869 -6.25456,33.47074 -21.96366,61.62431 -25.697,67.92734 l 59.6041,36.12125 z M 472.22806,474.37627 C 451.52501,560.67939 360.034,622.48148 360.034,622.48148 c 12.12123,0 102.78799,-32.25862 162.69917,-116.16983 l -50.50511,-31.93538 z m 98.73142,-82.39201 c 3.28082,-17.92325 5.0586,-37.12327 5.0586,-57.50309 0,-20.26669 -1.71314,-39.07883 -4.73536,-56.69502 l -62.44856,9.47072 0,-17.61618 57.64855,-14.20607 c -4.1697,-16.48487 -9.53536,-31.82226 -15.78991,-46.02834 l -21.07477,8.21011 -10.42426,-9.60001 -0.75895,-12.75153 19.26467,-11.60405 c -8.53334,-14.96567 -17.93941,-28.4768 -27.78185,-40.85661 l -29.1071,24.43639 -8.84042,-11.99193 27.78185,-24.63033 c -4.9293,-5.67273 -9.90708,-11.0384 -14.96567,-16.22628 C 467.62265,96.84051 450.37818,76.00816 435.99433,67.23239 407.25894,49.63237 382.38619,41.60004 382.38619,41.60004 c 11.99193,24.00003 10.03637,41.22833 14.83638,64.01623 4.8,22.80407 10.79597,45.59197 -6.06061,88.8405 -16.79194,43.16773 -74.35968,40.7758 -74.35968,40.7758 l 0,32.38792 c 127.20822,4.41212 171.20019,69.2526 171.20019,69.2526 0.58181,17.29295 -1.32526,32.12932 -2.45657,39.01418 0,0 26.52124,3.78182 40.84044,6.56162 14.33537,2.7798 44.57379,9.53537 44.57379,9.53537 M 316.80228,296.469 l 0,271.20838 c 0,0 79.22433,-200.43658 142.80419,-230.43258 0,0 -38.38387,-40.7758 -142.80419,-40.7758 M 127.96975,457.1318 c -3.65253,-6.30303 -19.37779,-34.4566 -25.63235,-67.92734 0,0 -22.28689,5.43031 -35.167711,8.46869 -12.864661,2.95758 -34.456603,11.42628 -34.456603,11.42628 7.82223,32.12933 20.444466,60.04047 35.71721,84.15362 L 127.96975,457.1318 z M 77.206063,506.31165 C 137.18189,590.22286 227.784,622.48148 239.96987,622.48148 c 0,0 -91.47484,-61.80209 -112.19406,-148.10521 L 77.206063,506.31165 z M 73.553534,382.44889 c 14.400015,-2.7798 40.905096,-6.56162 40.905096,-6.56162 -1.13132,-6.88486 -3.02223,-21.72123 -2.45657,-39.01418 0,0 43.99197,-64.84048 171.21635,-69.2526 l 0,-32.38792 c 0,0 -57.64855,2.39193 -74.44049,-40.7758 -16.79194,-43.24853 -10.79597,-66.03643 -5.99596,-88.8405 4.8,-22.7879 2.7798,-40.0162 14.83638,-64.01623 0,0 -24.87276,8.03233 -53.59198,25.63235 -14.46466,8.77577 -31.62832,29.60812 -48.87278,47.15965 -4.97778,5.18788 -9.97173,10.55355 -14.96567,16.22628 l 27.78184,24.63033 -8.77576,11.99193 -29.171752,-24.43639 C 80.179804,155.184 70.773733,168.69513 62.321198,183.6608 l 19.248506,11.60405 -0.82489,12.75153 -10.343445,9.60001 -21.090932,-8.21011 c -6.254552,14.20608 -11.684861,29.54347 -15.854563,46.02834 l 57.713194,14.20607 0,17.61618 -62.448552,-9.47072 c -3.086872,17.61619 -4.735359,36.42833 -4.735359,56.69502 0,20.37982 1.77778,39.57984 5.058591,57.50309 0,0 30.17377,-6.75557 44.509139,-9.53537 M 283.21776,296.469 l 0,271.20838 c 0,0 -79.24049,-200.43658 -142.80419,-230.43258 0,0 38.38388,-40.7758 142.80419,-40.7758"/>
</svg>
