<?xml version="1.0" encoding="UTF-8" standalone="no"?>
<svg xmlns="http://www.w3.org/2000/svg" xmlns:xlink="http://www.w3.org/1999/xlink" version="1.1" width="600" height="646.39569">
  <radialGradient cx="0" cy="0" r="1" fx="0" fy="0" id="radialGradient458" gradientUnits="userSpaceOnUse" gradientTransform="matrix(17.810883,0,0,-17.810867,496.06445,372.09375)" spreadMethod="pad">
    <stop style="stop-color:#bf331c" offset="0"/>
    <stop style="stop-color:#d3641c" offset="0.3"/>
    <stop style="stop-color:#f6b91d" offset="0.5"/>
    <stop style="stop-color:#d3641c" offset="0.7"/>
    <stop style="stop-color:#bf331c" offset="1"/>
  </radialGradient>
  <radialGradient cx="0" cy="0" r="1" fx="0" fy="0" id="radialGradient2997" xlink:href="#radialGradient458" gradientUnits="userSpaceOnUse" gradientTransform="matrix(17.810883,0,0,-17.810867,496.06445,372.09375)" spreadMethod="pad"/>
  <radialGradient cx="0" cy="0" r="1" fx="0" fy="0" id="radialGradient3000" xlink:href="#radialGradient458" gradientUnits="userSpaceOnUse" gradientTransform="matrix(287.82196,0,0,287.8217,300.00017,323.2019)" spreadMethod="pad"/>
  <path d="m 359.99457,646.3957 c -10.53625,0 -19.87667,-6.88411 -22.97937,-16.98405 -3.0219,-10.03529 0.82351,-20.94322 9.4697,-26.89006 0.88815,-0.56624 84.14456,-57.82009 102.38908,-133.82007 0.25856,-0.88814 0.51712,-1.82607 0.8248,-2.71486 -2.65022,-6.62556 -2.32702,-14.3823 1.58367,-21.02402 2.4563,-4.21773 13.88135,-24.48224 20.32914,-49.48159 -2.01998,-1.51903 -3.92685,-3.28046 -5.42972,-5.36508 -3.79757,-5.17117 -5.36508,-11.68361 -4.29853,-18.0506 0.3232,-2.27855 0.75887,-5.36509 1.19583,-9.03338 -38.12119,27.52029 -94.37377,138.44179 -123.97869,213.35906 -3.65214,9.34041 -12.55624,15.22261 -22.2845,15.22261 l -33.64489,0 c -9.7121,0 -18.6162,-5.8822 -22.26833,-15.15797 -29.66957,-74.98191 -85.85751,-185.90341 -123.9787,-213.4237 0.43567,3.66829 0.87264,6.75483 1.19583,9.03338 1.06656,6.36699 -0.50031,12.87943 -4.29853,18.0506 -1.56751,2.08462 -3.40974,3.84605 -5.49436,5.36508 6.57707,25.06399 17.93748,45.26386 20.39378,49.48159 3.9107,6.64172 4.23389,14.39846 1.58367,21.02402 0.30769,0.88815 0.62959,1.82607 0.82351,2.71486 18.22836,75.99998 101.50028,133.25448 102.32444,133.82007 8.71018,5.94684 12.55624,16.85477 9.4697,26.89006 -3.1027,10.09994 -12.37848,16.98405 -22.91473,16.98405 -22.21985,0 -119.30849,-37.92727 -182.251268,-126.17644 -1.761428,-2.40782 -2.95726,-5.05805 -3.716775,-7.83755 -2.213906,-1.69679 -4.233892,-3.84605 -5.882201,-6.367 C 30.365084,477.9773 17.356371,447.24119 9.4057038,414.72748 8.5809029,411.51166 8.5162633,408.23121 9.0333799,405.14467 7.2557917,402.47828 6.0599597,399.45638 5.4943634,396.24057 1.8907074,376.41238 0,355.58228 0,334.44514 c 0,-20.84626 1.6967887,-41.28853 5.106526,-60.79352 0.7588686,-4.42781 2.6502224,-8.3385 5.365084,-11.48968 -1.1958317,-4.03998 -1.3251109,-8.46779 -0.243044,-12.62088 4.282371,-17.11332 10.099932,-33.83881 17.226445,-49.80479 2.278545,-5.36508 6.383157,-9.40505 11.247285,-11.87752 -0.95408,-5.30044 -0.129279,-10.97256 2.763342,-16.09525 8.532423,-15.0287 18.567716,-29.79884 29.863481,-43.93875 1.761428,-2.26238 3.975333,-4.15309 6.383157,-5.60748 1.066553,-2.65022 2.520944,-5.18733 4.476291,-7.38507 4.993406,-5.75292 10.293851,-11.55433 15.836694,-17.17797 4.298529,-4.41165 8.774819,-9.21114 13.137989,-13.81671 13.75207,-14.83478 26.89006,-28.91004 40.3351,-37.11927 30.86539,-18.81011 57.57769,-27.58493 58.70888,-27.97277 2.45631,-0.74336 4.91261,-1.13119 7.38508,-1.13119 6.88411,0 13.5743,2.97342 18.17987,8.3385 1.19584,1.38975 2.14927,2.7795 2.95726,4.28237 C 253.95206,12.75016 275.34776,0 299.9108,0 c 24.67615,0 46.13649,12.75016 61.34295,30.23516 0.82351,-1.50287 1.77759,-2.89262 2.97342,-4.28237 4.60557,-5.36508 11.29576,-8.3385 18.17988,-8.3385 2.4563,0 4.92877,0.38783 7.38507,1.13119 1.08336,0.38784 27.84349,9.16266 58.70889,27.97277 13.44503,8.20923 26.51838,22.28449 40.39973,37.11927 4.29853,4.60557 8.77482,9.40506 13.05719,13.81671 5.55901,5.62364 10.85945,11.42505 15.9175,17.17797 1.95534,2.19774 3.40973,4.73485 4.34701,7.38507 2.47246,1.45439 4.67021,3.3451 6.44779,5.60748 11.29577,14.13991 21.33106,28.91005 29.84733,43.93875 2.90878,5.12269 3.73293,10.79481 2.71486,16.09525 4.92877,2.47247 9.03338,6.51244 11.31192,11.87752 7.12652,15.96598 12.87944,32.69147 17.22645,49.80479 1.01872,4.15309 0.95408,8.5809 -0.25856,12.62088 2.71486,3.15118 4.62173,7.06187 5.36508,11.48968 3.36126,19.50499 5.12269,39.94726 5.12269,60.79352 0,21.13714 -1.82607,41.96724 -5.42972,61.79543 -0.63089,3.21581 -1.82607,6.23771 -3.60366,8.9041 0.51712,3.08654 0.45248,6.36699 -0.37232,9.58281 -7.95067,32.51371 -20.95938,63.24982 -38.81607,91.28723 -1.58366,2.52095 -3.60365,4.67021 -5.81756,6.367 -0.75887,2.7795 -1.95534,5.42973 -3.71677,7.83755 C 479.30112,608.46843 382.21248,646.3957 359.99263,646.3957" style="fill:#ffffff"/>
  <path d="m 359.99457,636.6836 c -6.30236,0 -11.79672,-4.03997 -13.62279,-10.09993 -1.90687,-6.05996 0.37232,-12.50776 5.60748,-15.98213 9.27578,-6.56092 88.24918,-64.05782 106.29978,-139.62147 l 1.27598,-3.40974 -0.88944,-5.12269 c -1.58367,-4.15309 -1.26047,-8.71018 1.00191,-12.62087 2.34319,-3.97534 14.46311,-25.43567 21.34722,-51.95406 l 1.69679,-6.43163 -5.42972,-3.9107 c -1.19584,-0.8248 -2.39167,-1.95534 -3.28046,-3.21582 -2.27855,-3.03806 -3.21582,-6.88411 -2.58558,-10.68168 0.37232,-2.52095 0.88814,-5.73677 1.26047,-9.64746 l 2.27854,-21.52498 -17.61428,12.68552 c -41.91876,30.2998 -100.30445,149.60828 -127.25915,217.65759 -2.14927,5.54284 -7.38507,9.08186 -13.31575,9.08186 l -33.59642,0 c -5.8014,0 -11.16649,-3.60366 -13.25111,-8.96874 C 243.02798,504.81888 184.64228,385.5104 142.65888,355.14596 l -17.54964,-12.68552 2.21391,21.52498 c 0.37232,3.91069 0.88944,7.12651 1.26047,9.58282 0.62959,3.86221 -0.37233,7.70826 -2.58559,10.85944 -0.88944,1.148 -2.01998,2.27855 -3.21581,3.1027 l -5.49437,3.84606 1.63215,6.49627 c 6.94876,26.51839 19.13331,47.91409 21.4765,51.95406 2.19774,3.84605 2.52094,8.40314 0.87263,12.62087 l -1.38975,3.60366 1.38975,3.60366 c 18.50308,76.88876 97.46031,134.38566 106.42905,140.70418 5.55901,3.78141 7.82139,10.16457 5.93069,16.22453 -1.82607,6.05996 -7.32044,10.09993 -13.68743,10.09993 -20.26451,0 -114.33124,-38.0727 -174.349083,-122.15262 -0.95408,-1.32511 -1.712949,-2.90878 -2.213905,-4.60557 l -0.760162,-3.28046 -2.714862,-2.01999 c -1.325111,-0.95408 -2.585582,-2.27854 -3.603656,-3.84605 -17.161805,-27.08398 -29.782681,-56.75354 -37.42631,-88.31381 -0.566243,-1.95535 -0.566243,-3.86222 -0.323198,-5.68829 l 0.646395,-3.71677 -2.036146,-3.16734 c -1.066553,-1.63215 -1.826068,-3.45822 -2.197745,-5.49436 -3.474377,-19.24643 -5.2358055,-39.51094 -5.2358055,-59.9532 0,-20.32915 1.6967885,-40.22198 4.9126075,-59.16137 0.452477,-2.52094 1.583669,-4.84797 3.215818,-6.80331 l 3.409738,-3.9915 -1.50287,-5.10652 c -0.694229,-2.34319 -0.758869,-4.99341 -0.129279,-7.51435 4.169252,-16.40229 9.712095,-32.62683 16.660849,-48.22112 1.38975,-3.1027 3.732935,-5.62365 6.819474,-7.14268 l 6.431637,-3.21581 -1.325111,-7.19116 c -0.56495,-3.28045 0,-6.56091 1.712949,-9.59897 8.144586,-14.33383 17.921321,-28.71613 28.974687,-42.61364 1.066553,-1.38975 2.262385,-2.4563 3.716775,-3.28046 l 2.97342,-1.76143 1.195833,-3.21581 c 0.694228,-1.64831 1.519029,-3.16734 2.650222,-4.42781 4.928767,-5.60749 10.099933,-11.29577 15.529658,-16.79013 4.36317,-4.47629 8.9041,-9.27578 13.25111,-13.94599 13.44503,-14.4631 26.01743,-27.97277 38.33127,-35.42248 28.58684,-17.48501 53.84476,-26.13055 56.6081,-27.06782 1.45439,-0.45248 2.90878,-0.63089 4.42781,-0.63089 4.23389,0 8.14458,1.76143 10.79481,4.91261 0.76016,0.88815 1.32511,1.64831 1.76143,2.47246 l 6.56091,12.62088 9.29194,-10.73017 c 15.14182,-17.35572 34.21049,-26.89006 53.9094,-26.89006 19.81203,0 38.94534,9.53434 54.02252,26.89006 l 9.16266,10.53625 6.6902,-12.2492 c 0.50031,-0.93727 1.06655,-1.76142 1.82606,-2.65022 2.65023,-3.15118 6.56092,-4.91261 10.79481,-4.91261 1.51903,0 2.97342,0.17841 4.29853,0.63089 2.89262,0.93727 28.15054,9.58281 56.73739,27.06782 12.31383,7.51435 24.93471,21.08866 38.3151,35.42248 4.36317,4.67021 8.96874,9.4697 13.26727,13.94599 5.36509,5.49436 10.60089,11.18264 15.52966,16.79013 1.13119,1.26047 2.01999,2.7795 2.65022,4.42781 l 1.19583,3.21581 2.97342,1.76143 c 1.38975,0.75887 2.65023,1.89071 3.71678,3.28046 10.92409,13.63895 20.63618,27.97278 29.03933,42.67828 1.6483,2.90878 2.14926,6.31852 1.58366,9.66361 l -1.27727,7.06188 6.51243,3.21581 c 3.08654,1.51903 5.36509,4.03998 6.75484,7.14268 6.88411,15.59429 12.4916,31.81883 16.66085,48.22112 0.63088,2.52094 0.56624,5.17116 -0.12928,7.51435 l -1.56751,5.10652 3.52286,4.03998 c 1.58367,1.84222 2.65022,4.16925 3.1027,6.75483 3.34509,19.06867 4.97724,38.9615 4.97724,59.16137 0,20.5069 -1.76143,40.7714 -5.2358,60.08248 -0.37233,1.90686 -1.1312,3.73293 -2.21391,5.36508 l -2.01999,3.1027 0.58176,3.65214 c 0.37233,2.01998 0.24305,3.91069 -0.19392,5.75292 -7.64363,31.43099 -20.2645,61.16519 -37.55559,88.42693 -0.95408,1.51903 -2.14926,2.7795 -3.53901,3.79757 l -2.65023,2.01999 -0.8235,3.28046 c -0.50031,1.63215 -1.19584,3.21582 -2.21391,4.60557 C 474.32387,598.6109 380.32178,636.6836 359.99263,636.6836"/>
  <path d="m 241.4456,72.8488 c -7.12651,22.34913 -7.95067,38.37974 -9.51818,54.34572 l 0,0 c -1.58367,16.04677 -11.118,87.24726 68.09779,87.24726 l 0,0 c 79.16731,0 69.69762,-71.20049 68.04931,-87.24726 l 0,0 C 366.50701,111.22854 365.74749,95.19793 358.4917,72.8488 l 0,0 C 351.28439,50.43503 328.56358,23.99744 299.91209,23.99744 l 0,0 c -28.79693,0 -51.19454,26.43759 -58.46649,48.85136 m 56.88282,90.26916 c -12.75015,-0.75952 -21.65426,-11.16649 -21.65426,-31.88347 l 0,0 c 0,-21.6381 22.47842,-51.19454 22.47842,-51.19454 l 0,0 c 0,0 22.34913,29.55644 22.34913,51.19454 l 0,0 c 0,20.71698 -8.83946,31.12395 -21.58962,31.88347 l 0,0 0,0.0646 c -0.3232,0 -0.58176,0 -0.75951,0 l 0,0 c -0.3232,0 -0.5656,0 -0.82416,0 l 0,0 0,-0.0646 z m 98.85006,-57.51306 c 4.86413,22.80161 10.79481,45.58706 -5.99532,88.83093 l 0,0 c -16.79013,43.16307 -74.4163,40.77141 -74.4163,40.77141 l 0,0 0,32.38442 c 127.25915,4.41165 171.18174,69.24514 171.18174,69.24514 l 0,0 c 0.63023,17.29109 -1.32511,32.12587 -2.39167,39.00998 l 0,0 c 0,0 26.51839,3.78142 40.83605,6.56092 l 0,0 c 14.33383,2.7795 44.50435,9.53433 44.50435,9.53433 l 0,0 c 3.28045,-17.92132 5.05804,-37.11927 5.05804,-57.49689 l 0,0 c 0,-20.26451 -1.64831,-39.07462 -4.67021,-56.68891 l 0,0 -62.50646,9.4697 0,-17.61428 57.70698,-14.20455 c -4.16926,-16.48309 -9.53434,-31.81883 -15.85286,-46.02337 l 0,0 -21.0725,8.20922 -10.35849,-9.59897 -0.82415,-12.75016 19.31107,-11.6028 c -8.51627,-14.96406 -17.92132,-28.47373 -27.7627,-40.85221 l 0,0 -29.10396,24.43376 -8.83947,-11.99064 27.77886,-24.62768 c -4.99341,-5.67212 -9.92217,-11.0372 -14.96406,-16.22453 l 0,0 C 467.63561,96.83008 450.39301,75.99998 435.99454,67.22515 l 0,0 C 407.21378,49.62703 382.40834,41.59557 382.40834,41.59557 l 0,0 c 11.99064,23.99744 9.97065,41.22388 14.77014,64.00933 M 163.99123,67.22515 c -14.3823,8.77483 -31.6249,29.60493 -48.78671,47.15457 l 0,0 c -5.05805,5.18733 -9.97065,10.55241 -14.96406,16.22453 l 0,0 27.77885,24.62768 -8.77482,11.99064 -29.168603,-24.43376 c -9.841375,12.37848 -19.246432,25.88815 -27.714216,40.85221 l 0,0 19.262592,11.6028 -0.824154,12.75016 -10.423131,9.59897 -21.00786,-8.20922 C 43.0506,223.58827 37.685516,238.92401 33.516263,255.4071 l 0,0 57.706976,14.20455 0,17.61428 -62.441824,-9.4697 c -3.08654,17.61429 -4.799488,36.4244 -4.799488,56.68891 l 0,0 c 0,20.37762 1.842228,39.57557 5.122686,57.49689 l 0,0 c 0,0 30.170519,-6.75483 44.504343,-9.53433 l 0,0 c 14.317665,-2.7795 40.900684,-6.56092 40.900684,-6.56092 l 0,0 c -1.13119,-6.88411 -3.08654,-21.71889 -2.52094,-39.00998 l 0,0 c 0,0 44.05187,-64.83349 171.18174,-69.24514 l 0,0 0,-32.38442 c 0,0 -57.56154,2.39166 -74.35166,-40.77141 l 0,0 c -16.85477,-43.24387 -10.79481,-66.02932 -5.99532,-88.83093 l 0,0 c 4.79948,-22.78545 2.7795,-40.01189 14.83478,-64.00933 l 0,0 c 0,0 -24.87008,8.03146 -53.66701,25.62958 m 152.77563,500.39107 c 0,0 79.28043,-200.41498 142.83729,-230.40774 l 0,0 c 0,0 -38.44439,-40.77141 -142.83729,-40.77141 l 0,0 0,271.17915 z M 140.39779,337.20848 c 63.6215,29.99276 142.77265,230.40774 142.77265,230.40774 l 0,0 0,-271.17915 c -104.40906,0 -142.77265,40.77141 -142.77265,40.77141 m 331.58483,119.87408 59.59769,36.11736 c 15.2711,-24.11056 27.82733,-52.01869 35.71336,-84.14456 l 0,0 c 0,0 -21.6381,-8.46778 -34.45289,-11.42504 l 0,0 c -12.87943,-3.03806 -35.16393,-8.46779 -35.16393,-8.46779 l 0,0 c -6.31851,33.46714 -21.96129,61.61767 -25.69423,67.92003 M 67.161159,397.63032 c -12.814794,2.95726 -34.46905,11.42504 -34.46905,11.42504 l 0,0 c 7.902187,32.12587 20.458424,60.034 35.794162,84.14456 l 0,0 59.533039,-36.11736 c -3.66829,-6.30236 -19.37571,-34.45289 -25.62959,-67.92003 l 0,0 c 0,0 -22.349126,5.42973 -35.228561,8.46779 m 292.833411,224.7841 c 12.18456,0 102.77692,-32.25515 162.74628,-116.15731 l 0,0 -50.49967,-31.93194 C 451.47572,560.61899 359.99457,622.41442 359.99457,622.41442 M 77.261092,506.25711 C 137.16581,590.15927 227.82281,622.41442 240.00737,622.41442 l 0,0 c 0,0 -91.52963,-61.79543 -112.24661,-148.08925 l 0,0 -50.499668,31.93194 z" style="fill:url(#radialGradient3000)"/>
</svg>
