<?xml version="1.0" encoding="UTF-8" standalone="no"?>
<svg xmlns="http://www.w3.org/2000/svg" xmlns:xlink="http://www.w3.org/1999/xlink" version="1.1" width="600" height="646.39569">
  <radialGradient cx="0" cy="0" r="1" fx="0" fy="0" id="radialGradient438" gradientUnits="userSpaceOnUse" gradientTransform="matrix(17.810883,0,0,-17.810867,429.88965,372.09375)" spreadMethod="pad">
    <stop style="stop-color:#8b723c" offset="0"/>
    <stop style="stop-color:#d2bb7b" offset="0.3"/>
    <stop style="stop-color:#ebd491" offset="0.5"/>
    <stop style="stop-color:#d2bb7b" offset="0.7"/>
    <stop style="stop-color:#8b723c" offset="1"/>
  </radialGradient>
  <radialGradient cx="0" cy="0" r="1" fx="0" fy="0" id="radialGradient2995" xlink:href="#radialGradient438" gradientUnits="userSpaceOnUse" gradientTransform="matrix(17.810883,0,0,-17.810867,429.88965,372.09375)" spreadMethod="pad"/>
  <radialGradient cx="0" cy="0" r="1" fx="0" fy="0" id="radialGradient2998" xlink:href="#radialGradient438" gradientUnits="userSpaceOnUse" gradientTransform="matrix(287.82196,0,0,287.8217,300.02019,323.2019)" spreadMethod="pad"/>
  <path d="m 360.01138,646.3957 c -10.55241,0 -19.82819,-6.88411 -22.91473,-16.98405 -3.1027,-10.03529 0.74335,-20.94322 9.4697,-26.89006 0.80799,-0.56624 84.14456,-57.82009 102.32443,-133.82007 0.24305,-0.88814 0.50032,-1.82607 0.808,-2.71486 -2.65022,-6.62556 -2.26239,-14.3823 1.58367,-21.02402 2.4563,-4.21773 13.88135,-24.48224 20.39378,-49.48159 -2.08462,-1.51903 -3.91069,-3.28046 -5.42972,-5.36508 -3.84605,-5.17117 -5.42972,-11.68361 -4.36317,-18.0506 0.3232,-2.27855 0.75887,-5.36509 1.19583,-9.03338 -38.12119,27.52029 -94.29297,138.44179 -123.91405,213.35906 -3.71678,9.34041 -12.62088,15.22261 -22.33298,15.22261 l -33.64489,0 c -9.66362,0 -18.63236,-5.8822 -22.28449,-15.15797 -29.66957,-74.98191 -85.85751,-185.90341 -123.91406,-213.4237 0.37232,3.66829 0.8248,6.75483 1.19583,9.03338 1.01743,6.36699 -0.56495,12.87943 -4.36317,18.0506 -1.56751,2.08462 -3.39358,3.84605 -5.41356,5.36508 6.49627,25.06399 17.85668,45.26386 20.31298,49.48159 3.92686,6.64172 4.23389,14.39846 1.58367,21.02402 0.3232,0.88815 0.62959,1.82607 0.82351,2.71486 18.24452,75.99998 101.50028,133.25448 102.32444,133.82007 8.77482,5.94684 12.55624,16.85477 9.4697,26.89006 -3.1027,10.09994 -12.37848,16.98405 -22.91473,16.98405 -22.21985,0 -119.24385,-37.92727 -182.251268,-126.17644 -1.696789,-2.40782 -2.95726,-5.05805 -3.652136,-7.83755 -2.278545,-1.69679 -4.298531,-3.84605 -5.866041,-6.367 C 30.365084,477.9773 17.356371,447.24119 9.4057038,414.72748 8.5809029,411.51166 8.5330696,408.23121 9.0333799,405.14467 7.2557917,402.47828 6.0599597,399.45638 5.4943634,396.24057 1.8907074,376.41238 0,355.58228 0,334.44514 c 0,-20.84626 1.7775882,-41.28853 5.1226859,-60.79352 0.7588686,-4.42781 2.7148619,-8.3385 5.3650841,-11.48968 -1.2113453,-4.03998 -1.2604714,-8.46779 -0.193919,-12.62088 4.298532,-17.11332 10.099933,-33.83881 17.161806,-49.80479 2.343185,-5.36508 6.447797,-9.40505 11.311925,-11.87752 -1.01872,-5.30044 -0.129279,-10.97256 2.714862,-16.09525 8.516263,-15.0287 18.551556,-29.79884 29.847321,-43.93875 1.777588,-2.26238 3.975334,-4.15309 6.447797,-5.60748 1.001914,-2.65022 2.456304,-5.18733 4.411651,-7.38507 4.993407,-5.75292 10.358491,-11.55433 15.852854,-17.17797 4.282373,-4.41165 8.774823,-9.21114 13.121833,-13.81671 13.83287,-14.83478 26.89006,-28.91004 40.33509,-37.11927 30.8654,-18.81011 57.64234,-27.58493 58.77353,-27.97277 2.39166,-0.74336 4.86413,-1.13119 7.38507,-1.13119 6.81948,0 13.50967,2.97342 18.17988,8.3385 1.13119,1.38975 2.08463,2.7795 2.90878,4.28237 C 253.95271,12.75016 275.34841,0 299.91144,0 c 24.67616,0 46.1365,12.75016 61.35912,30.23516 0.80799,-1.50287 1.82606,-2.89262 2.95726,-4.28237 4.60557,-5.36508 11.29576,-8.3385 18.17987,-8.3385 2.47247,0 4.92877,0.38783 7.38508,1.13119 1.14799,0.38784 27.90813,9.16266 58.70888,27.97277 13.44504,8.20923 26.58303,22.28449 40.39974,37.11927 4.29853,4.60557 8.77482,9.40506 13.07335,13.81671 5.54284,5.62364 10.85945,11.42505 15.90133,17.17797 1.95535,2.19774 3.40974,4.73485 4.42781,7.38507 2.39167,1.45439 4.60557,3.3451 6.43164,5.60748 11.23113,14.13991 21.26642,28.91005 29.79884,43.93875 2.89262,5.12269 3.71678,10.79481 2.7795,16.09525 4.84797,2.47247 8.95258,6.51244 11.29577,11.87752 7.06187,15.96598 12.87943,32.69147 17.1618,49.80479 1.08336,4.15309 0.95408,8.5809 -0.24304,12.62088 2.71486,3.15118 4.60557,7.06187 5.36508,11.48968 3.40974,19.50499 5.10653,39.94726 5.10653,60.79352 0,21.13714 -1.82607,41.96724 -5.42972,61.79543 -0.63089,3.21581 -1.82607,6.23771 -3.5875,8.9041 0.50031,3.08654 0.43567,6.36699 -0.3232,9.58281 -7.95066,32.51371 -21.02402,63.24982 -38.81606,91.28723 -1.58367,2.52095 -3.60366,4.67021 -5.8822,6.367 -0.75887,2.7795 -1.95535,5.42973 -3.65214,7.83755 C 479.30176,608.46843 382.22929,646.3957 360.00944,646.3957"/>
  <path d="m 241.52705,72.8488 c -7.20732,22.34913 -8.03147,38.37974 -9.59898,54.34572 l 0,0 c -1.58367,16.04677 -11.11801,87.24726 68.11395,87.24726 l 0,0 c 79.15115,0 69.68145,-71.20049 68.09778,-87.24726 l 0,0 c -1.63215,-15.96598 -2.39166,-31.99659 -9.64745,-54.34572 l 0,0 C 351.28503,50.43503 328.56423,23.99744 299.91274,23.99744 l 0,0 c -28.78077,0 -51.19454,26.43759 -58.38569,48.85136 m 56.80202,90.26916 c -12.75016,-0.75952 -21.58962,-11.16649 -21.58962,-31.88347 l 0,0 c 0,-21.6381 22.41377,-51.19454 22.41377,-51.19454 l 0,0 c 0,0 22.34913,29.55644 22.34913,51.19454 l 0,0 c 0,20.71698 -8.83946,31.12395 -21.58961,31.88347 l 0,0 0,0.0646 c -0.25856,0 -0.50096,0 -0.75952,0 l 0,0 c -0.3232,0 -0.56559,0 -0.82415,0 l 0,0 0,-0.0646 z m 98.9147,-57.51306 c 4.79949,22.80161 10.79481,45.58706 -6.05996,88.83093 l 0,0 c -16.79013,43.16307 -74.35167,40.77141 -74.35167,40.77141 l 0,0 0,32.38442 c 127.19452,4.41165 171.18174,69.24514 171.18174,69.24514 l 0,0 c 0.58176,17.29109 -1.32511,32.12587 -2.4563,39.00998 l 0,0 c 0,0 26.51838,3.78142 40.83605,6.56092 l 0,0 c 14.33382,2.7795 44.56898,9.53433 44.56898,9.53433 l 0,0 c 3.28046,-17.92132 5.05805,-37.11927 5.05805,-57.49689 l 0,0 c 0,-20.26451 -1.71295,-39.07462 -4.73485,-56.68891 l 0,0 -62.4903,9.4697 0,-17.61428 57.69081,-14.20455 c -4.16925,-16.48309 -9.53433,-31.81883 -15.85285,-46.02337 l 0,0 -21.00786,8.20922 -10.42313,-9.59897 -0.75952,-12.75016 19.26259,-11.6028 c -8.53242,-14.96406 -17.93748,-28.47373 -27.77885,-40.85221 l 0,0 -29.10397,24.43376 -8.83946,-11.99064 27.77886,-24.62768 c -4.92877,-5.67212 -9.90602,-11.0372 -14.96406,-16.22453 l 0,0 C 467.63626,96.83008 450.39365,75.99998 436.01135,67.22515 l 0,0 C 407.21442,49.62703 382.40899,41.59557 382.40899,41.59557 l 0,0 c 11.99064,23.99744 9.97065,41.22388 14.83478,64.00933 M 164.00804,67.22515 c -14.39846,8.77483 -31.62491,29.60493 -48.80287,47.15457 l 0,0 c -4.97725,5.18733 -9.97066,10.55241 -14.96406,16.22453 l 0,0 27.77885,24.62768 -8.77482,11.99064 -29.168607,-24.43376 c -9.841374,12.37848 -19.246432,25.88815 -27.698055,40.85221 l 0,0 19.246432,11.6028 -0.824155,12.75016 -10.342331,9.59897 -21.08866,-8.20922 C 43.115886,223.58827 37.686162,238.92401 33.51691,255.4071 l 0,0 57.706976,14.20455 0,17.61428 -62.441825,-9.4697 c -3.086539,17.61429 -4.734848,36.4244 -4.734848,56.68891 l 0,0 c 0,20.37762 1.777588,39.57557 5.058046,57.49689 l 0,0 c 0,0 30.170519,-6.75483 44.504344,-9.53433 l 0,0 c 14.333824,-2.7795 40.900687,-6.56092 40.900687,-6.56092 l 0,0 c -1.13119,-6.88411 -3.08654,-21.71889 -2.4563,-39.00998 l 0,0 c 0,0 43.98722,-64.83349 171.1979,-69.24514 l 0,0 0,-32.38442 c 0,0 -57.64234,2.39166 -74.43247,-40.77141 l 0,0 C 192.02929,151.19196 198.02461,128.40651 202.8241,105.6049 l 0,0 c 4.79949,-22.78545 2.7795,-40.01189 14.83478,-64.00933 l 0,0 c 0,0 -24.87007,8.03146 -53.65084,25.62958 m 152.8241,500.39107 c 0,0 79.2158,-200.41498 142.78881,-230.40774 l 0,0 c 0,0 -38.37974,-40.77141 -142.78881,-40.77141 l 0,0 0,271.17915 z M 140.39844,337.20848 c 63.62149,29.99276 142.85345,230.40774 142.85345,230.40774 l 0,0 0,-271.17915 c -104.40907,0 -142.85345,40.77141 -142.85345,40.77141 m 331.58483,119.87408 59.59768,36.11736 c 15.2711,-24.11056 27.89198,-52.01869 35.72953,-84.14456 l 0,0 c 0,0 -21.65426,-8.46778 -34.46905,-11.42504 l 0,0 c -12.87944,-3.03806 -35.16393,-8.46779 -35.16393,-8.46779 l 0,0 c -6.31852,33.46714 -21.96129,61.61767 -25.69423,67.92003 M 67.226445,397.63032 c -12.863274,2.95726 -34.51753,11.42504 -34.51753,11.42504 l 0,0 c 7.886028,32.12587 20.506904,60.034 35.778002,84.14456 l 0,0 59.533043,-36.11736 c -3.65213,-6.30236 -19.37571,-34.45289 -25.62959,-67.92003 l 0,0 c 0,0 -22.28449,5.42973 -35.163925,8.46779 m 292.784935,224.7841 c 12.1684,0 102.82539,-32.25515 162.73011,-116.15731 l 0,0 -50.49966,-31.93194 C 451.54101,560.61899 360.01138,622.41442 360.01138,622.41442 M 77.261739,506.25711 C 137.16646,590.15927 227.82346,622.41442 240.00802,622.41442 l 0,0 c 0,0 -91.465,-61.79543 -112.18198,-148.08925 l 0,0 -50.564301,31.93194 z" style="fill:url(#radialGradient2998)"/>
</svg>
