<?xml version="1.0" encoding="UTF-8" standalone="no"?>
<svg xmlns="http://www.w3.org/2000/svg" version="1.1" width="600" height="646.46533">
  <path d="m 299.8804,163.13553 0,0.0646 c -0.25858,0 -0.50036,0 -0.76024,0 -0.32323,0 -0.56501,0 -0.8236,0 l 0,-0.0646 c -12.75153,-0.76025 -21.59194,-11.16769 -21.59194,-31.88691 0,-21.64042 22.41619,-51.20005 22.41619,-51.20005 0,0 22.41618,29.55963 22.41618,51.20005 0,20.71922 -8.90506,31.12731 -21.65659,31.88691 m 68.23442,-35.92732 C 366.4825,111.24052 365.7229,95.20818 358.53097,72.85664 351.32288,50.44046 328.53498,24.00002 299.8804,24.00002 c -28.78387,0 -51.20005,26.44044 -58.39198,48.85662 -7.20809,22.35154 -8.03233,38.38388 -9.60001,54.35157 -1.58384,16.04851 -11.1192,87.25666 68.12129,87.25666 79.15968,0 69.68896,-71.20815 68.10512,-87.25666 m 163.45876,366.04484 c 15.27275,-24.11315 27.89498,-52.02429 35.73337,-84.15362 0,0 -21.59194,-8.4687 -34.47276,-11.42628 -12.88082,-3.03838 -35.16771,-8.46869 -35.16771,-8.46869 -6.25456,33.47074 -21.96366,61.62431 -25.697,67.92734 l 59.6041,36.12125 z M 472.22806,474.37627 C 451.52501,560.67939 360.034,622.48148 360.034,622.48148 c 12.12123,0 102.78799,-32.25862 162.69917,-116.16983 l -50.50511,-31.93538 z m 98.73142,-82.39201 c 3.28082,-17.92325 5.0586,-37.12327 5.0586,-57.50309 0,-20.26669 -1.71314,-39.07883 -4.73536,-56.69502 l -62.44856,9.47072 0,-17.61618 57.64855,-14.20607 c -4.1697,-16.48487 -9.53536,-31.82226 -15.78991,-46.02834 l -21.07477,8.21011 -10.42426,-9.60001 -0.75895,-12.75153 19.26467,-11.60405 c -8.53334,-14.96567 -17.93941,-28.4768 -27.78185,-40.85661 l -29.1071,24.43639 -8.84042,-11.99193 27.78185,-24.63033 c -4.9293,-5.67273 -9.90708,-11.0384 -14.96567,-16.22628 C 467.62265,96.84051 450.37818,76.00816 435.99433,67.23239 407.25894,49.63237 382.38619,41.60004 382.38619,41.60004 c 11.99193,24.00003 10.03637,41.22833 14.83638,64.01623 4.8,22.80407 10.79597,45.59197 -6.06061,88.8405 -16.79194,43.16773 -74.35968,40.7758 -74.35968,40.7758 l 0,32.38792 c 127.20822,4.41212 171.20019,69.2526 171.20019,69.2526 0.58181,17.29295 -1.32526,32.12932 -2.45657,39.01418 0,0 26.52124,3.78182 40.84044,6.56162 14.33537,2.7798 44.57379,9.53537 44.57379,9.53537 M 316.80228,296.469 l 0,271.20838 c 0,0 79.22433,-200.43658 142.80419,-230.43258 0,0 -38.38387,-40.7758 -142.80419,-40.7758 M 127.96975,457.1318 c -3.65253,-6.30303 -19.37779,-34.4566 -25.63235,-67.92734 0,0 -22.28689,5.43031 -35.167711,8.46869 -12.864661,2.95758 -34.456603,11.42628 -34.456603,11.42628 7.82223,32.12933 20.444466,60.04047 35.71721,84.15362 L 127.96975,457.1318 z M 77.206063,506.31165 C 137.18189,590.22286 227.784,622.48148 239.96987,622.48148 c 0,0 -91.47484,-61.80209 -112.19406,-148.10521 L 77.206063,506.31165 z M 73.553534,382.44889 c 14.400015,-2.7798 40.905096,-6.56162 40.905096,-6.56162 -1.13132,-6.88486 -3.02223,-21.72123 -2.45657,-39.01418 0,0 43.99197,-64.84048 171.21635,-69.2526 l 0,-32.38792 c 0,0 -57.64855,2.39193 -74.44049,-40.7758 -16.79194,-43.24853 -10.79597,-66.03643 -5.99596,-88.8405 4.8,-22.7879 2.7798,-40.0162 14.83638,-64.01623 0,0 -24.87276,8.03233 -53.59198,25.63235 -14.46466,8.77577 -31.62832,29.60812 -48.87278,47.15965 -4.97778,5.18788 -9.97173,10.55355 -14.96567,16.22628 l 27.78184,24.63033 -8.77576,11.99193 -29.171752,-24.43639 C 80.179804,155.184 70.773733,168.69513 62.321198,183.6608 l 19.248506,11.60405 -0.82489,12.75153 -10.343445,9.60001 -21.090932,-8.21011 c -6.254552,14.20608 -11.684861,29.54347 -15.854563,46.02834 l 57.713194,14.20607 0,17.61618 -62.448552,-9.47072 c -3.086872,17.61619 -4.735359,36.42833 -4.735359,56.69502 0,20.37982 1.77778,39.57984 5.058591,57.50309 0,0 30.17377,-6.75557 44.509139,-9.53537 M 283.21776,296.469 l 0,271.20838 c 0,0 -79.24049,-200.43658 -142.80419,-230.43258 0,0 38.38388,-40.7758 142.80419,-40.7758"/>
</svg>
