<?xml version="1.0" encoding="UTF-8" standalone="no"?>
<svg xmlns="http://www.w3.org/2000/svg" xmlns:xlink="http://www.w3.org/1999/xlink" version="1.1" width="600" height="631.30194">
  <path d="M 308.16016 27.664062 C 162.18668 27.664063 44.027102 146.58261 44.076172 293.60938 L 44.076172 293.61328 L 44.076172 293.61719 C 44.027102 440.64415 162.18668 559.5625 308.16016 559.5625 C 454.13363 559.5625 572.29321 440.64396 572.24414 293.61719 L 572.24414 293.61328 L 572.24414 293.60938 C 572.29321 146.58242 454.13363 27.664062 308.16016 27.664062 z M 423.33594 144.01953 C 486.29306 145.16402 527.05797 205.02969 526.59375 292.16602 C 526.31028 345.41843 495.67597 439.48617 426.45898 439.41797 C 352.40403 439.34577 328.48269 357.16228 325.43164 296.18164 C 322.51564 237.90572 353.51944 142.75009 423.33594 144.01953 z M 211.32031 145.66211 C 231.98008 145.26089 252.65819 152.5586 270.50195 169.20898 C 283.68723 181.5126 292.23105 202.00164 293.90625 223.93164 C 295.58145 245.86164 290.35418 269.28753 275.66797 287.35742 C 247.02002 322.60591 202.81175 345.40653 164.84961 390.08594 L 250.81641 391 C 264.0915 386.68038 275.86527 379.36603 282.62695 356.25586 L 282.89258 355.34766 L 310.10742 355.34766 L 287.63867 436.75586 L 104.00586 436.4375 L 103.66406 413.86133 L 104.01367 413.48828 C 127.74882 388.17931 158.34955 357.48882 184.58594 329.66992 C 210.82232 301.85102 232.73572 276.70859 238.83203 263.32031 C 247.32302 244.67322 245.58529 228.65593 239.42383 216.33008 C 233.26236 204.00422 222.56766 195.40231 213.25 191.97461 C 199.68188 186.98327 183.72952 190.31167 168.9668 200.87695 C 154.20407 211.44223 140.71414 229.23454 132.3125 252.90625 L 131.87305 254.14453 L 105.41211 243.55859 L 104.35938 243.13867 L 104.66406 242.04688 C 116.33588 200.33484 143.38912 168.81477 174.76758 154.3418 C 186.5345 148.91443 198.92445 145.90284 211.32031 145.66211 z M 423.78125 172.24609 C 376.55344 172.51543 375.10043 255.63376 375.52148 294.8418 C 376.01775 341.02836 387.83483 410.48814 426.9043 413.42383 C 471.29208 416.75936 478.50593 338.56823 476.94922 293.94922 C 475.30115 246.71333 463.13444 172.02143 423.78125 172.24609 z "/>
</svg>
