<?xml version="1.0" encoding="utf-8"?>
<!-- Generator: Adobe Illustrator 15.1.0, SVG Export Plug-In . SVG Version: 6.00 Build 0)  -->
<!DOCTYPE svg PUBLIC "-//W3C//DTD SVG 1.1//EN" "http://www.w3.org/Graphics/SVG/1.1/DTD/svg11.dtd">
<svg version="1.1" id="Layer_1" xmlns="http://www.w3.org/2000/svg" xmlns:xlink="http://www.w3.org/1999/xlink" x="0px" y="0px"
	 width="150px" height="130px" viewBox="0 0 150 130" enable-background="new 0 0 150 130" xml:space="preserve">
<g id="Layer_1_1_">
</g>
<g id="Layer_3" display="none">
</g>
<g>
	<path fill="#FFFFFF" d="M89.293,123.823c-26.165-0.001-51.614-10.779-69.822-29.57c-1.063-1.097-1.647-2.57-1.606-4.044
		c0.038-1.382,0.606-2.65,1.6-3.569l6.497-6.059c0.964-0.891,2.21-1.377,3.519-1.377c1.138,0,2.255,0.376,3.17,1.051
		c1.677-2.681,4.191-5.565,7.923-7.776L3.402,62.875l57.007,0.001l2.813-7.73c1.428-3.924,0.836-4.53-2.013-7.436
		c-1.731-1.768-3.886-3.967-5.813-7.421c-3.067-5.5-3.366-10.769-2.793-14.855c-2.514-0.152-4.597-2.051-4.912-4.536l-1.086-8.845
		c-0.167-1.331,0.212-2.667,1.073-3.751c0.917-1.155,2.312-1.906,3.828-2.063c3.313-0.343,6.678-0.516,10.005-0.516
		c26.164,0,51.614,10.778,69.823,29.57c1.06,1.093,1.646,2.566,1.605,4.04c-0.036,1.384-0.604,2.652-1.598,3.573l-6.498,6.06
		c-0.964,0.892-2.209,1.377-3.518,1.377c-1.14,0-2.256-0.375-3.172-1.052c-1.676,2.682-4.191,5.566-7.923,7.777l37.172,9.604
		l-57.009-0.002l-2.813,7.729c-1.429,3.925-0.835,4.529,2.014,7.437c1.731,1.768,3.888,3.967,5.813,7.422
		c3.068,5.5,3.366,10.769,2.792,14.855c2.517,0.153,4.6,2.052,4.915,4.537l1.085,8.845c0.168,1.33-0.212,2.668-1.074,3.751
		c-0.917,1.154-2.312,1.906-3.828,2.063c-3.31,0.343-6.675,0.516-9.999,0.516C89.295,123.823,89.294,123.823,89.293,123.823z"/>
	<path d="M100.518,117.945c-0.36-2.942-0.722-5.888-1.083-8.831c-0.104-0.813-0.882-1.384-1.738-1.296
		c-1.442,0.149-2.882,0.255-4.322,0.327c1.354-3.617,2.68-10.117-1.205-17.084c-4.818-8.642-11.496-8.524-8.072-17.931l2.383-6.547
		l-53.905-0.001l22.214,5.739c-2.496,0.263-5.485,0.424-9.129,1.813c-7.455,2.838-10.616,8.67-11.905,12.311
		c-1.056-0.98-2.092-1.987-3.1-3.028c-0.599-0.619-1.563-0.68-2.164-0.124c-2.169,2.022-4.338,4.045-6.508,6.068
		c-0.601,0.556-0.539,1.599,0.152,2.312c19.954,20.594,48.26,30.896,76.783,27.946C99.905,119.518,100.621,118.759,100.518,117.945z
		 M56.935,92.839c-7.974,6.369-15.567-0.108-15.567-0.108c1.765-6.92,7.123-10.871,15.077-11.54c9.627-0.809,12.8-7.177,12.8-7.177
		C66.208,83.259,64.112,87.104,56.935,92.839z M83.502,108.066c0,0-9.98,0.08-11.994-9.924c-1.813-9.006-0.946-13.298,2.671-22.333
		c0,0-1.664,6.918,5.191,13.726C85.034,95.159,86.598,101.63,83.502,108.066z M117.05,43.099c1.056,0.981,2.091,1.989,3.101,3.029
		c0.599,0.618,1.562,0.681,2.163,0.124c2.17-2.022,4.339-4.045,6.508-6.068c0.601-0.556,0.54-1.598-0.151-2.312
		C108.718,17.28,80.409,6.977,51.888,9.926c-0.988,0.102-1.706,0.861-1.603,1.674c0.361,2.943,0.723,5.887,1.084,8.831
		c0.103,0.813,0.881,1.386,1.737,1.296c1.441-0.15,2.883-0.255,4.322-0.328c-1.353,3.618-2.679,10.118,1.206,17.084
		c4.819,8.642,11.496,8.525,8.072,17.931l-2.383,6.548l53.906,0l-22.214-5.739c2.495-0.262,5.484-0.424,9.129-1.812
		C112.599,52.572,115.76,46.741,117.05,43.099z M102.19,44.703c-2.133,0.915-12.33-1.765-15.829-3.039l-5.613-2.044
		c-3.499-1.272-11.92-5.37-12.966-7.442c-2.421-4.801-0.773-7.105-0.031-9.142c0.117-0.322,0.358-0.823,0.683-1.44
		c14.405,1.228,28.236,6.262,40.06,14.58c-0.149,0.682-0.287,1.221-0.403,1.543C107.35,39.755,107.131,42.581,102.19,44.703z"/>
</g>
</svg>
