<?xml version="1.0" encoding="utf-8"?>
<!-- Generator: Adobe Illustrator 15.1.0, SVG Export Plug-In . SVG Version: 6.00 Build 0)  -->
<!DOCTYPE svg PUBLIC "-//W3C//DTD SVG 1.1//EN" "http://www.w3.org/Graphics/SVG/1.1/DTD/svg11.dtd">
<svg version="1.1" id="Layer_1" xmlns="http://www.w3.org/2000/svg" xmlns:xlink="http://www.w3.org/1999/xlink" x="0px" y="0px"
	 width="150px" height="130px" viewBox="0 0 150 130" enable-background="new 0 0 150 130" xml:space="preserve">
<g id="Layer_1_1_">
</g>
<g id="Layer_3" display="none">
</g>
<g>
	<path d="M89.229,124.297c-26.165-0.001-51.614-10.779-69.822-29.57c-1.063-1.097-1.647-2.57-1.606-4.044
		c0.038-1.382,0.605-2.651,1.599-3.57l6.497-6.058c0.964-0.891,2.21-1.377,3.52-1.377c1.138,0,2.254,0.375,3.169,1.05
		c1.677-2.681,4.191-5.564,7.923-7.775L3.338,63.349h57.007l2.814-7.729c1.428-3.924,0.835-4.53-2.014-7.436
		c-1.731-1.768-3.887-3.967-5.813-7.421c-3.067-5.501-3.366-10.77-2.794-14.855c-2.513-0.152-4.596-2.051-4.912-4.536l-1.086-8.846
		c-0.167-1.332,0.212-2.667,1.073-3.75c0.917-1.155,2.312-1.907,3.828-2.064c3.312-0.343,6.678-0.516,10.005-0.516
		c26.164,0,51.613,10.777,69.823,29.571c1.059,1.093,1.646,2.565,1.604,4.039c-0.035,1.384-0.604,2.653-1.598,3.574l-6.498,6.06
		c-0.964,0.891-2.209,1.376-3.518,1.376c-1.139,0-2.256-0.375-3.171-1.052c-1.677,2.683-4.192,5.567-7.924,7.778l37.172,9.604
		L90.33,67.142l-2.813,7.73c-1.429,3.925-0.835,4.528,2.014,7.437c1.731,1.767,3.888,3.966,5.813,7.421
		c3.067,5.5,3.365,10.769,2.791,14.856c2.517,0.153,4.6,2.051,4.915,4.537l1.085,8.845c0.169,1.329-0.212,2.668-1.074,3.751
		c-0.917,1.153-2.312,1.905-3.828,2.062c-3.309,0.343-6.674,0.517-9.998,0.517C89.231,124.297,89.23,124.297,89.229,124.297z"/>
	<linearGradient id="SVGID_1_" gradientUnits="userSpaceOnUse" x1="35.9404" y1="50.9063" x2="114.7351" y2="79.5852">
		<stop  offset="0" style="stop-color:#BB2C26"/>
		<stop  offset="0.0414" style="stop-color:#BF3526"/>
		<stop  offset="0.1088" style="stop-color:#CB4D25"/>
		<stop  offset="0.1935" style="stop-color:#DE7523"/>
		<stop  offset="0.2" style="stop-color:#E07823"/>
		<stop  offset="0.208" style="stop-color:#E17A23"/>
		<stop  offset="0.2924" style="stop-color:#EE8B1F"/>
		<stop  offset="0.3848" style="stop-color:#F5951E"/>
		<stop  offset="0.5" style="stop-color:#F7981D"/>
		<stop  offset="0.6152" style="stop-color:#F5951E"/>
		<stop  offset="0.7076" style="stop-color:#EE8B1F"/>
		<stop  offset="0.792" style="stop-color:#E17A23"/>
		<stop  offset="0.8" style="stop-color:#E07823"/>
		<stop  offset="0.8476" style="stop-color:#D35D24"/>
		<stop  offset="0.9069" style="stop-color:#C64225"/>
		<stop  offset="0.9597" style="stop-color:#BE3226"/>
		<stop  offset="1" style="stop-color:#BB2C26"/>
	</linearGradient>
	<path fill="url(#SVGID_1_)" d="M100.453,118.419c-0.359-2.943-0.722-5.888-1.083-8.831c-0.104-0.813-0.882-1.384-1.738-1.296
		c-1.441,0.148-2.881,0.255-4.321,0.326c1.354-3.616,2.68-10.117-1.205-17.083c-4.818-8.642-11.496-8.525-8.072-17.931l2.383-6.547
		l-53.905-0.002l22.213,5.739c-2.496,0.263-5.484,0.424-9.128,1.813c-7.454,2.838-10.615,8.67-11.905,12.311
		c-1.056-0.98-2.092-1.987-3.101-3.029c-0.599-0.619-1.563-0.679-2.164-0.124c-2.169,2.023-4.338,4.046-6.507,6.069
		c-0.602,0.555-0.54,1.598,0.151,2.312c19.954,20.594,48.26,30.895,76.782,27.945C99.841,119.99,100.557,119.231,100.453,118.419z
		 M56.871,93.312c-7.975,6.369-15.567-0.107-15.567-0.107c1.766-6.921,7.122-10.871,15.076-11.54c9.627-0.809,12.8-7.178,12.8-7.178
		C66.144,83.731,64.048,87.577,56.871,93.312z M83.438,108.54c0,0-9.98,0.08-11.994-9.925c-1.813-9.006-0.946-13.297,2.671-22.333
		c0,0-1.664,6.919,5.191,13.727C84.971,95.633,86.534,102.103,83.438,108.54z M116.985,43.573c1.056,0.981,2.091,1.988,3.102,3.028
		c0.598,0.619,1.562,0.681,2.163,0.124c2.17-2.021,4.339-4.044,6.507-6.067c0.602-0.557,0.54-1.599-0.15-2.312
		C108.653,17.752,80.346,7.449,51.824,10.398c-0.987,0.102-1.705,0.861-1.602,1.674c0.361,2.942,0.722,5.888,1.084,8.832
		c0.103,0.812,0.881,1.386,1.738,1.295c1.441-0.15,2.882-0.255,4.321-0.328c-1.353,3.619-2.679,10.118,1.207,17.085
		c4.819,8.642,11.496,8.524,8.072,17.931l-2.383,6.548h53.905l-22.213-5.74c2.495-0.262,5.483-0.424,9.129-1.811
		C112.534,53.045,115.695,47.214,116.985,43.573z M102.126,45.176c-2.132,0.915-12.329-1.765-15.828-3.04l-5.613-2.044
		c-3.499-1.271-11.92-5.37-12.966-7.442c-2.421-4.8-0.772-7.104-0.032-9.142c0.117-0.321,0.358-0.823,0.684-1.44
		c14.405,1.229,28.236,6.263,40.059,14.58c-0.148,0.683-0.287,1.221-0.403,1.543C107.286,40.228,107.066,43.054,102.126,45.176z"/>
</g>
</svg>
