<?xml version="1.0" encoding="utf-8"?>
<!-- Generator: Adobe Illustrator 15.1.0, SVG Export Plug-In . SVG Version: 6.00 Build 0)  -->
<!DOCTYPE svg PUBLIC "-//W3C//DTD SVG 1.1//EN" "http://www.w3.org/Graphics/SVG/1.1/DTD/svg11.dtd">
<svg version="1.1" id="Layer_1" xmlns="http://www.w3.org/2000/svg" xmlns:xlink="http://www.w3.org/1999/xlink" x="0px" y="0px"
	 width="150px" height="130px" viewBox="0 0 150 130" enable-background="new 0 0 150 130" xml:space="preserve">
<g id="Layer_1_1_">
</g>
<g id="Layer_3" display="none">
</g>
<g>
	<path d="M88.621,123.824c-26.165-0.002-51.614-10.779-69.822-29.571c-1.062-1.097-1.647-2.57-1.607-4.044
		c0.039-1.382,0.606-2.65,1.6-3.569l6.497-6.059c0.964-0.891,2.21-1.377,3.519-1.377c1.138,0,2.256,0.376,3.17,1.052
		c1.676-2.682,4.191-5.566,7.923-7.777L2.729,62.875l57.008,0.001l2.813-7.73c1.429-3.924,0.836-4.53-2.013-7.436
		c-1.731-1.768-3.887-3.967-5.813-7.421c-3.067-5.5-3.366-10.769-2.793-14.856c-2.513-0.152-4.597-2.051-4.913-4.536l-1.085-8.845
		c-0.168-1.331,0.212-2.667,1.072-3.751c0.916-1.154,2.312-1.906,3.828-2.063c3.312-0.343,6.678-0.516,10.005-0.516
		c26.164,0,51.612,10.778,69.822,29.57c1.06,1.093,1.646,2.566,1.605,4.04c-0.036,1.384-0.604,2.652-1.598,3.573l-6.499,6.06
		c-0.964,0.892-2.209,1.377-3.518,1.377c-1.138,0-2.256-0.376-3.171-1.052c-1.676,2.682-4.192,5.566-7.924,7.777l37.172,9.604
		l-57.007-0.002l-2.813,7.729c-1.429,3.925-0.835,4.529,2.015,7.437c1.73,1.768,3.887,3.967,5.813,7.423
		c3.066,5.499,3.364,10.768,2.79,14.854c2.517,0.153,4.6,2.052,4.915,4.537l1.085,8.845c0.168,1.33-0.212,2.668-1.074,3.752
		c-0.917,1.154-2.312,1.906-3.828,2.062c-3.309,0.343-6.674,0.517-9.998,0.517C88.623,123.824,88.622,123.824,88.621,123.824z"/>
	<linearGradient id="SVGID_1_" gradientUnits="userSpaceOnUse" x1="35.3315" y1="50.4331" x2="114.1272" y2="79.1124">
		<stop  offset="0" style="stop-color:#8D742F"/>
		<stop  offset="0.0689" style="stop-color:#967D38"/>
		<stop  offset="0.1809" style="stop-color:#AE954F"/>
		<stop  offset="0.2" style="stop-color:#B39A54"/>
		<stop  offset="0.2218" style="stop-color:#B9A059"/>
		<stop  offset="0.3022" style="stop-color:#CAB068"/>
		<stop  offset="0.3903" style="stop-color:#D4BA71"/>
		<stop  offset="0.5" style="stop-color:#D7BD74"/>
		<stop  offset="0.6097" style="stop-color:#D4BA71"/>
		<stop  offset="0.6978" style="stop-color:#CAB068"/>
		<stop  offset="0.7782" style="stop-color:#B9A059"/>
		<stop  offset="0.8" style="stop-color:#B39A54"/>
		<stop  offset="0.8571" style="stop-color:#A38A45"/>
		<stop  offset="0.938" style="stop-color:#937A35"/>
		<stop  offset="1" style="stop-color:#8D742F"/>
	</linearGradient>
	<path fill="url(#SVGID_1_)" d="M99.846,117.946c-0.36-2.943-0.723-5.888-1.084-8.832c-0.104-0.813-0.882-1.384-1.738-1.295
		c-1.441,0.148-2.881,0.255-4.321,0.327c1.354-3.618,2.68-10.118-1.205-17.084c-4.818-8.643-11.496-8.525-8.072-17.932l2.383-6.547
		l-53.906-0.001l22.214,5.739c-2.496,0.263-5.485,0.424-9.128,1.813c-7.455,2.839-10.617,8.67-11.906,12.311
		c-1.057-0.98-2.091-1.987-3.1-3.028c-0.599-0.619-1.563-0.68-2.164-0.124c-2.169,2.022-4.338,4.045-6.508,6.068
		c-0.601,0.556-0.539,1.599,0.152,2.312c19.954,20.594,48.261,30.896,76.783,27.946C99.232,119.519,99.948,118.759,99.846,117.946z
		 M56.263,92.839c-7.975,6.369-15.567-0.108-15.567-0.108c1.764-6.919,7.122-10.871,15.076-11.539
		c9.627-0.81,12.801-7.178,12.801-7.178C65.535,83.259,63.44,87.104,56.263,92.839z M82.83,108.066c0,0-9.98,0.081-11.994-9.924
		c-1.813-9.005-0.946-13.298,2.671-22.333c0,0-1.664,6.918,5.191,13.727C84.362,95.16,85.926,101.631,82.83,108.066z
		 M116.376,43.099c1.056,0.981,2.091,1.989,3.102,3.029c0.599,0.618,1.562,0.681,2.164,0.124c2.169-2.022,4.339-4.045,6.506-6.068
		c0.603-0.556,0.54-1.599-0.149-2.312C108.044,17.279,79.737,6.976,51.215,9.926c-0.987,0.101-1.705,0.86-1.602,1.674
		c0.362,2.942,0.723,5.886,1.084,8.83c0.104,0.813,0.88,1.386,1.737,1.297c1.442-0.15,2.883-0.255,4.322-0.328
		c-1.353,3.618-2.679,10.117,1.206,17.084c4.818,8.642,11.497,8.525,8.073,17.931l-2.383,6.548l53.904,0l-22.211-5.739
		c2.494-0.262,5.483-0.424,9.127-1.812C111.925,52.572,115.086,46.741,116.376,43.099z M101.518,44.702
		c-2.132,0.915-12.329-1.764-15.828-3.038l-5.613-2.044c-3.499-1.272-11.92-5.37-12.966-7.442c-2.421-4.801-0.772-7.105-0.032-9.143
		c0.117-0.322,0.358-0.823,0.683-1.44c14.405,1.227,28.236,6.262,40.059,14.58c-0.147,0.682-0.286,1.221-0.402,1.543
		C106.677,39.755,106.457,42.581,101.518,44.702z"/>
</g>
</svg>
