<?xml version="1.0" encoding="utf-8"?>
<!-- Generator: Adobe Illustrator 15.1.0, SVG Export Plug-In . SVG Version: 6.00 Build 0)  -->
<!DOCTYPE svg PUBLIC "-//W3C//DTD SVG 1.1//EN" "http://www.w3.org/Graphics/SVG/1.1/DTD/svg11.dtd">
<svg version="1.1" id="Layer_1" xmlns="http://www.w3.org/2000/svg" xmlns:xlink="http://www.w3.org/1999/xlink" x="0px" y="0px"
	 width="150px" height="130px" viewBox="0 0 150 130" enable-background="new 0 0 150 130" xml:space="preserve">
<g id="Layer_1_1_">
</g>
<g id="Layer_3" display="none">
</g>
<g>
	<path fill="#FFFFFF" d="M88.948,123.824c-26.165-0.002-51.614-10.78-69.822-29.571c-1.063-1.097-1.647-2.57-1.606-4.044
		c0.038-1.382,0.605-2.65,1.599-3.569l6.497-6.059c0.964-0.891,2.21-1.377,3.52-1.377c1.138,0,2.254,0.376,3.169,1.051
		c1.677-2.681,4.191-5.565,7.923-7.776L3.057,62.875l57.007,0.001l2.814-7.73c1.428-3.924,0.835-4.53-2.014-7.436
		c-1.731-1.768-3.887-3.966-5.813-7.421c-3.067-5.5-3.366-10.769-2.794-14.855c-2.513-0.152-4.596-2.051-4.912-4.536l-1.086-8.845
		c-0.167-1.332,0.212-2.667,1.073-3.751c0.917-1.154,2.312-1.906,3.828-2.063c3.312-0.343,6.678-0.516,10.005-0.516
		c26.164,0,51.613,10.777,69.823,29.57c1.059,1.093,1.646,2.566,1.604,4.04c-0.035,1.384-0.604,2.652-1.598,3.573l-6.498,6.06
		c-0.964,0.892-2.209,1.377-3.518,1.377c-1.139,0-2.256-0.375-3.171-1.052c-1.677,2.682-4.192,5.566-7.924,7.777l37.172,9.604
		l-57.008-0.002l-2.813,7.729c-1.429,3.925-0.835,4.529,2.014,7.437c1.731,1.768,3.888,3.967,5.813,7.422
		c3.067,5.5,3.365,10.769,2.791,14.855c2.517,0.153,4.6,2.052,4.915,4.537l1.085,8.845c0.169,1.33-0.212,2.668-1.074,3.752
		c-0.917,1.153-2.312,1.905-3.828,2.062c-3.309,0.343-6.674,0.517-9.998,0.517C88.95,123.824,88.949,123.824,88.948,123.824z"/>
	<linearGradient id="SVGID_1_" gradientUnits="userSpaceOnUse" x1="35.6597" y1="50.4331" x2="114.4534" y2="79.1117">
		<stop  offset="0" style="stop-color:#612C75"/>
		<stop  offset="0.0703" style="stop-color:#67357C"/>
		<stop  offset="0.1845" style="stop-color:#784D8D"/>
		<stop  offset="0.2" style="stop-color:#7B5190"/>
		<stop  offset="0.2344" style="stop-color:#8C639D"/>
		<stop  offset="0.2911" style="stop-color:#A37BAE"/>
		<stop  offset="0.3516" style="stop-color:#B38CBA"/>
		<stop  offset="0.4177" style="stop-color:#BC96C1"/>
		<stop  offset="0.5" style="stop-color:#BF99C3"/>
		<stop  offset="0.5823" style="stop-color:#BC96C1"/>
		<stop  offset="0.6484" style="stop-color:#B38CBA"/>
		<stop  offset="0.7089" style="stop-color:#A37BAE"/>
		<stop  offset="0.7656" style="stop-color:#8C639D"/>
		<stop  offset="0.8" style="stop-color:#7B5190"/>
		<stop  offset="0.8547" style="stop-color:#714285"/>
		<stop  offset="0.937" style="stop-color:#653279"/>
		<stop  offset="1" style="stop-color:#612C75"/>
	</linearGradient>
	<path fill="url(#SVGID_1_)" d="M100.172,117.945c-0.359-2.942-0.722-5.887-1.083-8.831c-0.104-0.813-0.882-1.384-1.738-1.296
		c-1.441,0.149-2.881,0.256-4.321,0.327c1.354-3.617,2.68-10.117-1.205-17.084c-4.818-8.642-11.496-8.524-8.072-17.931l2.383-6.547
		L32.23,66.583l22.213,5.739c-2.496,0.263-5.484,0.424-9.128,1.813c-7.454,2.838-10.615,8.67-11.905,12.311
		c-1.056-0.98-2.092-1.987-3.101-3.028c-0.599-0.619-1.563-0.68-2.164-0.124c-2.169,2.022-4.338,4.045-6.507,6.068
		c-0.602,0.556-0.54,1.599,0.151,2.312c19.954,20.594,48.26,30.896,76.782,27.946C99.56,119.518,100.275,118.759,100.172,117.945z
		 M56.59,92.839c-7.975,6.369-15.567-0.108-15.567-0.108c1.766-6.92,7.122-10.871,15.076-11.539c9.627-0.81,12.8-7.178,12.8-7.178
		C65.863,83.259,63.767,87.104,56.59,92.839z M83.157,108.066c0,0-9.98,0.08-11.994-9.924c-1.813-9.006-0.946-13.298,2.671-22.333
		c0,0-1.664,6.918,5.191,13.726C84.689,95.16,86.253,101.63,83.157,108.066z M116.704,43.099c1.056,0.981,2.091,1.989,3.102,3.029
		c0.598,0.618,1.562,0.681,2.163,0.124c2.17-2.022,4.339-4.045,6.507-6.068c0.602-0.556,0.54-1.598-0.15-2.312
		C108.372,17.28,80.064,6.977,51.542,9.926c-0.987,0.102-1.705,0.861-1.602,1.674c0.361,2.942,0.722,5.887,1.084,8.831
		c0.103,0.813,0.881,1.386,1.738,1.296c1.441-0.15,2.882-0.255,4.321-0.328c-1.353,3.618-2.679,10.118,1.207,17.084
		c4.819,8.642,11.496,8.525,8.072,17.931l-2.383,6.548l53.905,0.001l-22.213-5.74c2.495-0.262,5.483-0.424,9.129-1.812
		C112.253,52.572,115.414,46.741,116.704,43.099z M101.845,44.703c-2.132,0.915-12.329-1.765-15.828-3.039l-5.613-2.044
		c-3.499-1.272-11.92-5.37-12.966-7.442c-2.421-4.801-0.772-7.105-0.032-9.142c0.117-0.322,0.358-0.823,0.684-1.44
		c14.405,1.228,28.236,6.262,40.059,14.58c-0.148,0.682-0.287,1.221-0.403,1.543C107.005,39.755,106.785,42.581,101.845,44.703z"/>
</g>
</svg>
