<?xml version="1.0" encoding="utf-8"?>
<!-- Generator: Adobe Illustrator 15.1.0, SVG Export Plug-In . SVG Version: 6.00 Build 0)  -->
<!DOCTYPE svg PUBLIC "-//W3C//DTD SVG 1.1//EN" "http://www.w3.org/Graphics/SVG/1.1/DTD/svg11.dtd">
<svg version="1.1" id="Layer_1" xmlns="http://www.w3.org/2000/svg" xmlns:xlink="http://www.w3.org/1999/xlink" x="0px" y="0px"
	 width="150px" height="130px" viewBox="0 0 150 130" enable-background="new 0 0 150 130" xml:space="preserve">
<g id="Layer_1_1_">
</g>
<g id="Layer_3" display="none">
</g>
<g>
	<path d="M88.903,124.297c-26.165-0.001-51.614-10.779-69.822-29.57c-1.063-1.097-1.647-2.57-1.606-4.044
		c0.038-1.382,0.605-2.651,1.599-3.57l6.497-6.058c0.964-0.891,2.21-1.377,3.52-1.377c1.138,0,2.254,0.375,3.169,1.05
		c1.677-2.681,4.191-5.564,7.923-7.775L3.011,63.349h57.007l2.814-7.729c1.428-3.924,0.835-4.53-2.014-7.436
		c-1.731-1.768-3.887-3.967-5.813-7.421c-3.067-5.501-3.366-10.77-2.794-14.855c-2.513-0.152-4.596-2.051-4.912-4.536l-1.086-8.846
		c-0.167-1.332,0.212-2.667,1.073-3.75C48.205,7.62,49.6,6.868,51.115,6.71c3.313-0.343,6.678-0.516,10.005-0.516
		c26.165,0,51.614,10.777,69.823,29.571c1.059,1.093,1.646,2.565,1.606,4.039c-0.037,1.384-0.605,2.653-1.6,3.574l-6.498,6.06
		c-0.962,0.891-2.209,1.376-3.518,1.376c-1.139,0-2.256-0.375-3.171-1.052c-1.677,2.683-4.19,5.567-7.924,7.778l37.172,9.604
		l-57.008-0.002l-2.814,7.73c-1.427,3.925-0.834,4.528,2.014,7.437c1.733,1.767,3.888,3.966,5.813,7.421
		c3.068,5.5,3.366,10.769,2.794,14.856c2.515,0.153,4.598,2.051,4.913,4.537l1.085,8.845c0.169,1.329-0.212,2.668-1.072,3.751
		c-0.917,1.153-2.313,1.905-3.83,2.062c-3.31,0.343-6.674,0.517-9.998,0.517C88.905,124.297,88.903,124.297,88.903,124.297z"/>
	<linearGradient id="SVGID_1_" gradientUnits="userSpaceOnUse" x1="35.6143" y1="50.9058" x2="114.4099" y2="79.585">
		<stop  offset="0" style="stop-color:#626E77"/>
		<stop  offset="0.0418" style="stop-color:#697780"/>
		<stop  offset="0.1099" style="stop-color:#7D8E98"/>
		<stop  offset="0.1954" style="stop-color:#9EB4C0"/>
		<stop  offset="0.2" style="stop-color:#A0B6C2"/>
		<stop  offset="0.2041" style="stop-color:#A1B7C3"/>
		<stop  offset="0.2896" style="stop-color:#ADC6D4"/>
		<stop  offset="0.3832" style="stop-color:#B5CEDE"/>
		<stop  offset="0.5" style="stop-color:#B7D1E1"/>
		<stop  offset="0.6168" style="stop-color:#B5CEDE"/>
		<stop  offset="0.7104" style="stop-color:#ADC6D4"/>
		<stop  offset="0.7959" style="stop-color:#A1B7C3"/>
		<stop  offset="0.8" style="stop-color:#A0B6C2"/>
		<stop  offset="0.8463" style="stop-color:#8B9DA8"/>
		<stop  offset="0.9062" style="stop-color:#74838D"/>
		<stop  offset="0.9594" style="stop-color:#67747D"/>
		<stop  offset="1" style="stop-color:#626E77"/>
	</linearGradient>
	<path fill="url(#SVGID_1_)" d="M100.129,118.419c-0.361-2.943-0.724-5.888-1.085-8.831c-0.102-0.813-0.882-1.384-1.738-1.296
		c-1.44,0.148-2.882,0.255-4.32,0.326c1.352-3.616,2.678-10.117-1.207-17.083c-4.817-8.642-11.496-8.525-8.072-17.931l2.383-6.547
		l-53.904-0.002l22.213,5.739c-2.496,0.263-5.484,0.424-9.128,1.813c-7.454,2.838-10.615,8.67-11.905,12.311
		c-1.056-0.98-2.092-1.987-3.1-3.029c-0.599-0.619-1.563-0.679-2.164-0.124c-2.169,2.023-4.338,4.046-6.507,6.069
		c-0.602,0.555-0.54,1.598,0.151,2.312c19.954,20.594,48.26,30.895,76.783,27.945C99.515,119.99,100.23,119.231,100.129,118.419z
		 M56.544,93.312c-7.975,6.369-15.567-0.107-15.567-0.107c1.766-6.921,7.123-10.871,15.076-11.54c9.628-0.809,12.8-7.178,12.8-7.178
		C65.818,83.731,63.722,87.577,56.544,93.312z M83.111,108.54c0,0-9.98,0.08-11.994-9.925c-1.813-9.006-0.946-13.297,2.671-22.333
		c0,0-1.663,6.919,5.193,13.727C84.644,95.633,86.209,102.103,83.111,108.54z M116.659,43.573c1.058,0.981,2.091,1.988,3.102,3.028
		c0.6,0.619,1.562,0.681,2.163,0.124c2.17-2.021,4.339-4.044,6.509-6.067c0.6-0.557,0.54-1.599-0.152-2.312
		C108.327,17.752,80.02,7.449,51.497,10.398c-0.987,0.102-1.705,0.861-1.602,1.674c0.361,2.942,0.722,5.888,1.084,8.832
		c0.103,0.812,0.881,1.386,1.738,1.295c1.441-0.15,2.882-0.255,4.321-0.328c-1.353,3.619-2.679,10.118,1.207,17.085
		c4.819,8.642,11.496,8.524,8.072,17.931l-2.383,6.548h53.907l-22.216-5.74c2.496-0.262,5.486-0.424,9.13-1.811
		C112.21,53.045,115.371,47.214,116.659,43.573z M101.802,45.176c-2.134,0.915-12.332-1.765-15.831-3.04l-5.613-2.044
		c-3.499-1.271-11.92-5.37-12.965-7.442c-2.421-4.8-0.773-7.104-0.031-9.142c0.116-0.321,0.358-0.823,0.683-1.44
		c14.404,1.229,28.236,6.263,40.06,14.58c-0.148,0.683-0.285,1.221-0.403,1.543C106.96,40.228,106.74,43.054,101.802,45.176z"/>
</g>
</svg>
