<?xml version="1.0" encoding="utf-8"?>
<!-- Generator: Adobe Illustrator 15.1.0, SVG Export Plug-In . SVG Version: 6.00 Build 0)  -->
<!DOCTYPE svg PUBLIC "-//W3C//DTD SVG 1.1//EN" "http://www.w3.org/Graphics/SVG/1.1/DTD/svg11.dtd">
<svg version="1.1" id="Layer_1" xmlns="http://www.w3.org/2000/svg" xmlns:xlink="http://www.w3.org/1999/xlink" x="0px" y="0px"
	 width="150px" height="130px" viewBox="0 0 150 130" enable-background="new 0 0 150 130" xml:space="preserve">
<g id="Layer_1_1_">
</g>
<g id="Layer_3" display="none">
</g>
<path d="M102.632,122.42c-0.392-3.19-0.783-6.383-1.176-9.574c-0.111-0.881-0.955-1.5-1.884-1.404
	c-1.563,0.161-3.125,0.276-4.686,0.354c1.468-3.923,2.904-10.969-1.308-18.521c-5.223-9.369-12.463-9.242-8.751-19.439l2.584-7.099
	L28.97,66.735l24.083,6.222c-2.706,0.285-5.947,0.46-9.897,1.965C35.075,78,31.647,84.321,30.25,88.27
	c-1.145-1.063-2.268-2.155-3.361-3.284c-0.649-0.671-1.694-0.737-2.346-0.134c-2.352,2.192-4.704,4.386-7.056,6.579
	c-0.651,0.603-0.584,1.732,0.165,2.506c21.633,22.326,52.321,33.495,83.244,30.298C101.967,124.124,102.743,123.301,102.632,122.42z
	 M55.38,95.2c-8.645,6.905-16.877-0.117-16.877-0.117c1.914-7.502,7.722-11.786,16.345-12.511
	c10.437-0.877,13.877-7.781,13.877-7.781C65.434,84.814,63.162,88.983,55.38,95.2z M84.184,111.709c0,0-10.82,0.088-13.003-10.758
	c-1.966-9.764-1.025-14.418,2.896-24.213c0,0-1.804,7.5,5.628,14.881C85.845,97.717,87.54,104.731,84.184,111.709z M120.555,41.275
	c1.145,1.063,2.267,2.156,3.361,3.284c0.649,0.67,1.693,0.738,2.346,0.134c2.352-2.192,4.703-4.386,7.055-6.579
	c0.651-0.603,0.585-1.733-0.164-2.506C111.521,13.283,80.831,2.113,49.909,5.311c-1.071,0.11-1.849,0.933-1.737,1.815
	c0.392,3.191,0.784,6.382,1.175,9.574c0.112,0.881,0.955,1.502,1.884,1.406c1.563-0.163,3.125-0.276,4.685-0.356
	c-1.466,3.922-2.904,10.969,1.308,18.522c5.224,9.369,12.463,9.242,8.752,19.439l-2.584,7.098l58.441,0.001l-24.082-6.222
	c2.704-0.285,5.945-0.459,9.896-1.964C115.729,51.545,119.156,45.223,120.555,41.275z M104.444,43.014
	c-2.312,0.992-13.367-1.913-17.16-3.294l-6.086-2.216c-3.794-1.379-12.924-5.822-14.057-8.068c-2.625-5.205-0.838-7.703-0.034-9.912
	c0.127-0.349,0.389-0.893,0.741-1.561c15.616,1.33,30.611,6.788,43.432,15.807c-0.162,0.739-0.312,1.323-0.438,1.673
	C110.038,37.65,109.801,40.713,104.444,43.014z"/>
</svg>
