<?xml version="1.0" encoding="UTF-8" standalone="no"?>
<!-- Generator: Adobe Illustrator 15.1.0, SVG Export Plug-In . SVG Version: 6.00 Build 0)  -->

<svg
   version="1.1"
   x="0px"
   y="0px"
   width="400px"
   height="350px"
   viewBox="0 0 400 350"
   enable-background="new 0 0 400 350"
   xml:space="preserve"
   id="svg15"
   sodipodi:docname="T.svg"
   inkscape:version="1.1.1 (3bf5ae0d25, 2021-09-20)"
   xmlns:inkscape="http://www.inkscape.org/namespaces/inkscape"
   xmlns:sodipodi="http://sodipodi.sourceforge.net/DTD/sodipodi-0.dtd"
   xmlns="http://www.w3.org/2000/svg"
   xmlns:svg="http://www.w3.org/2000/svg"><defs
   id="defs19" /><sodipodi:namedview
   id="namedview17"
   pagecolor="#ffffff"
   bordercolor="#666666"
   borderopacity="1.0"
   inkscape:pageshadow="2"
   inkscape:pageopacity="0.0"
   inkscape:pagecheckerboard="0"
   showgrid="false"
   inkscape:zoom="2.0543"
   inkscape:cx="200.07"
   inkscape:cy="174.76"
   inkscape:window-width="1920"
   inkscape:window-height="986"
   inkscape:window-x="-11"
   inkscape:window-y="-11"
   inkscape:window-maximized="1"
   inkscape:current-layer="Layer_2" />
<g
   id="Layer_1">
</g>
<g
   id="Layer_2">
	<path
   d="m 200,342.11 c -30.37,0 -58,-13.96 -85.99,-29.5 -15.329,-8.52 -25.841,-18.09 -34.289,-25.78 -4.966,-4.52 -11.767,-10.71 -14.178,-10.71 -5.981,0 -10.621,5.47 -10.621,17.84 0,4.64 0.619,10.21 0.619,10.21 0,0 -46.502,-16.4 -46.502,-65.58 0,-32.84 34.006,-51.49 35.454,-52.26 l 1.581,-0.85 C 44.326,175.1 43.272,163.3 43.272,149.91 43.272,87.801 70.731,53.458 93.768,35.586 121.38,14.161 152.28,8.444 166.18,8.444 c 15.29,0 26.65,3.487 33.82,6.661 7.17,-3.174 18.53,-6.661 33.82,-6.661 13.9,0 44.8,5.717 72.41,27.142 23.04,17.873 50.5,52.215 50.5,114.324 0,13.39 -1.06,25.19 -2.8,35.57 l 1.58,0.85 c 1.44,0.77 35.45,19.42 35.45,52.26 0,49.18 -46.5,65.58 -46.5,65.58 0,0 0.62,-5.57 0.62,-10.21 0,-12.38 -4.65,-17.84 -10.62,-17.84 -2.42,0 -9.22,6.19 -14.18,10.71 -8.45,7.69 -18.96,17.26 -34.29,25.78 -27.99,15.54 -55.62,29.5 -85.99,29.5 z"
   id="path3"
   style="fill:#ffffff;fill-opacity:1" />
	<radialGradient
   id="SVGID_1_"
   cx="200"
   cy="175.28"
   r="164.49"
   gradientUnits="userSpaceOnUse">
<stop
   style="stop-color:#bf99c3"
   offset="0"
   id="stop5" />
<stop
   style="stop-color:#7b5190"
   offset="0.7"
   id="stop7" />
<stop
   style="stop-color:#612c75"
   offset="1"
   id="stop9" />
	</radialGradient>
	<path
   fill="url(#SVGID_1_)"
   d="m 128.65,55.463 c -40.422,0 -59.395,40.832 -59.395,71.357 0,30.52 15.26,46.6 15.26,46.6 0,0 -10.724,9.49 -10.724,28.46 0,18.97 14.023,38.36 14.023,38.36 0,0 -29.694,-21.86 -29.694,-90.33 0,-104.757 83.31,-126.617 108.06,-126.617 22.27,0 33.82,8.661 33.82,8.661 0,0 11.55,-8.661 33.82,-8.661 24.75,0 108.06,21.86 108.06,126.617 0,68.47 -29.7,90.33 -29.7,90.33 0,0 14.03,-19.39 14.03,-38.36 0,-18.97 -10.73,-28.46 -10.73,-28.46 0,0 15.27,-16.08 15.27,-46.6 0,-30.523 -18.98,-71.356 -59.4,-71.356 -40.42,0 -63.51,20.623 -71.35,32.583 C 192.16,76.085 169.07,55.463 128.65,55.463 Z M 348.48,199.41 c 0,0 -22.69,62.69 -101.46,88.26 0,0 69.7,-38.36 69.7,-81.67 0,-15.67 -8.66,-24.74 -8.66,-24.74 0,0 -9.07,9.07 -18.97,13.61 0,0 30.52,-26.4 30.52,-65.58 0,-39.182 -23.51,-61.454 -47.43,-61.454 -23.93,0 -53.21,9.074 -72.18,40.834 -18.97,-31.76 -48.25,-40.834 -72.18,-40.834 -23.92,0 -47.428,22.272 -47.428,61.454 0,39.18 30.518,65.58 30.518,65.58 -9.9,-4.54 -18.969,-13.61 -18.969,-13.61 0,0 -8.662,9.07 -8.662,24.74 0,43.31 69.701,81.67 69.701,81.67 C 74.205,262.1 51.521,199.41 51.521,199.41 c 0,0 -27.633,14.84 -27.633,39.18 0,24.33 18.56,40.42 18.56,40.42 0,0 7.836,-17.74 23.097,-17.74 15.26,0 25.984,21.86 55.675,38.36 29.7,16.5 53.21,27.63 78.78,27.63 25.57,0 49.08,-11.13 78.78,-27.63 29.69,-16.5 40.41,-38.36 55.68,-38.36 15.26,0 23.09,17.74 23.09,17.74 0,0 18.56,-16.09 18.56,-40.42 0,-24.34 -27.63,-39.18 -27.63,-39.18 z M 168.14,170.22 c -1.39,-3.24 -4.18,-5.56 -8.35,-5.56 -4.18,0 -4.02,1.08 -10.98,1.08 -25.52,0 -27.22,-22.74 -27.22,-25.21 0,-2.47 1.39,-4.79 0.15,-7.27 -1.24,-2.48 -3.71,-3.87 -3.71,-3.87 0,0 8.97,-2.16 17.94,-2.16 29.07,0 35.88,8.04 35.88,21.65 0,13.61 -3.71,21.34 -3.71,21.34 z M 200,293.86 c 0,0 -23.92,-29.08 -23.72,-63.93 0,0 3.92,3.5 7.02,3.5 5.77,0 7.21,-15.88 16.7,-15.88 9.49,0 10.93,15.88 16.7,15.88 3.1,0 7.01,-3.5 7.01,-3.5 0.21,34.85 -23.71,63.93 -23.71,63.93 z m 31.86,-123.64 c 0,0 -3.71,-7.73 -3.71,-21.34 0,-13.61 6.8,-21.65 35.88,-21.65 8.97,0 17.94,2.16 17.94,2.16 0,0 -2.47,1.4 -3.71,3.87 -1.24,2.48 0.15,4.8 0.15,7.27 0,2.48 -1.7,25.21 -27.22,25.21 -6.96,0 -6.8,-1.08 -10.98,-1.08 -4.17,0 -6.96,2.32 -8.35,5.56 z"
   id="path12" />
</g>
</svg>
