<?xml version="1.0" encoding="utf-8"?>
<!-- Generator: Adobe Illustrator 15.1.0, SVG Export Plug-In . SVG Version: 6.00 Build 0)  -->
<!DOCTYPE svg PUBLIC "-//W3C//DTD SVG 1.1//EN" "http://www.w3.org/Graphics/SVG/1.1/DTD/svg11.dtd">
<svg version="1.1" xmlns="http://www.w3.org/2000/svg" xmlns:xlink="http://www.w3.org/1999/xlink" x="0px" y="0px" width="400px"
	 height="350px" viewBox="0 0 400 350" enable-background="new 0 0 400 350" xml:space="preserve">
<g id="Layer_1">
</g>
<g id="Layer_2">
	<path d="M200,342.111c-30.37,0-58.003-13.956-85.988-29.503c-15.331-8.519-25.843-18.088-34.291-25.777
		c-4.966-4.521-11.767-10.712-14.178-10.712c-5.981,0-10.621,5.466-10.621,17.839c0,4.641,0.619,10.208,0.619,10.208
		S9.039,287.771,9.039,238.588c0-32.835,34.006-51.484,35.454-52.262l1.581-0.85c-1.748-10.374-2.802-22.179-2.802-35.564
		c0-62.111,27.459-96.454,50.496-114.326c27.615-21.425,58.51-27.142,72.412-27.142c15.291,0,26.649,3.487,33.82,6.661
		c7.17-3.174,18.528-6.661,33.82-6.661c13.901,0,44.796,5.717,72.411,27.142c23.037,17.873,50.496,52.215,50.496,114.326
		c0,13.385-1.054,25.19-2.801,35.564l1.58,0.85c1.448,0.777,35.454,19.427,35.454,52.262c0,49.184-46.503,65.578-46.503,65.578
		s0.619-5.567,0.619-10.208c0-12.373-4.641-17.839-10.621-17.839c-2.411,0-9.213,6.19-14.178,10.712
		c-8.447,7.689-18.96,17.259-34.291,25.777C258.004,328.155,230.37,342.111,200,342.111z"/>
	<radialGradient id="SVGID_1_" cx="199.999" cy="175.2783" r="164.4918" gradientUnits="userSpaceOnUse">
<stop style="stop-color:#d9eaf3" offset="0" />
<stop style="stop-color:#99aebc" offset="0.7" />
<stop style="stop-color:#536e78" offset="1" />
	</radialGradient>
	<path fill="url(#SVGID_1_)" d="M128.647,55.463c-40.419,0-59.392,40.832-59.392,71.353s15.26,46.606,15.26,46.606
		s-10.724,9.486-10.724,28.459c0,18.972,14.023,38.356,14.023,38.356S58.12,218.378,58.12,149.913
		c0-104.76,83.314-126.62,108.061-126.62c22.272,0,33.82,8.661,33.82,8.661s11.547-8.661,33.818-8.661
		c24.747,0,108.062,21.86,108.062,126.62c0,68.465-29.696,90.325-29.696,90.325s14.022-19.385,14.022-38.356
		c0-18.973-10.724-28.459-10.724-28.459s15.262-16.086,15.262-46.606s-18.974-71.353-59.393-71.353
		c-40.42,0-63.516,20.623-71.352,32.583C192.164,76.085,169.067,55.463,128.647,55.463z M348.479,199.406
		c0,0-22.685,62.692-101.461,88.263c0,0,69.702-38.358,69.702-81.665c0-15.672-8.661-24.747-8.661-24.747
		s-9.073,9.075-18.972,13.611c0,0,30.521-26.396,30.521-65.578c0-39.182-23.51-61.454-47.432-61.454
		c-23.921,0-53.204,9.074-72.176,40.831c-18.973-31.757-48.255-40.831-72.177-40.831S80.392,90.108,80.392,129.29
		c0,39.182,30.521,65.578,30.521,65.578c-9.898-4.536-18.972-13.611-18.972-13.611s-8.662,9.075-8.662,24.747
		c0,43.307,69.703,81.665,69.703,81.665c-78.777-25.57-101.461-88.263-101.461-88.263s-27.633,14.847-27.633,39.182
		c0,24.334,18.56,40.42,18.56,40.42s7.836-17.736,23.097-17.736c15.26,0,25.984,21.858,55.68,38.357
		c29.696,16.498,53.205,27.635,78.776,27.635c25.572,0,49.08-11.137,78.775-27.635c29.696-16.499,40.419-38.357,55.681-38.357
		c15.26,0,23.096,17.736,23.096,17.736s18.56-16.086,18.56-40.42C376.111,214.253,348.479,199.406,348.479,199.406z
		 M168.139,170.225c-1.392-3.248-4.176-5.568-8.352-5.568c-4.176,0-4.021,1.083-10.981,1.083c-25.52,0-27.221-22.736-27.221-25.21
		s1.392-4.794,0.154-7.27c-1.237-2.475-3.712-3.866-3.712-3.866s8.971-2.166,17.941-2.166c29.077,0,35.882,8.042,35.882,21.653
		C171.851,162.492,168.139,170.225,168.139,170.225z M200,293.855c0,0-23.921-29.078-23.715-63.929c0,0,3.918,3.505,7.011,3.505
		c5.775,0,7.218-15.879,16.704-15.879c9.485,0,10.93,15.879,16.704,15.879c3.093,0,7.011-3.505,7.011-3.505
		C223.921,264.777,200,293.855,200,293.855z M231.86,170.225c0,0-3.712-7.733-3.712-21.344c0-13.611,6.805-21.653,35.882-21.653
		c8.971,0,17.941,2.166,17.941,2.166s-2.475,1.392-3.712,3.866c-1.237,2.475,0.155,4.795,0.155,7.27s-1.702,25.21-27.222,25.21
		c-6.96,0-6.806-1.083-10.981-1.083S233.252,166.977,231.86,170.225z"/>
</g>
</svg>
