<?xml version="1.0" encoding="UTF-8" standalone="no"?>
<svg xmlns="http://www.w3.org/2000/svg" version="1.1" width="600" height="510.36029">
  <path d="m 419.33772,0 -239.7729,0 -1.14827,0.15311 C 162.22585,1.90104 139.84721,13.56243 132.37066,38.03347 111.98237,43.71106 35.37957,65.09452 35.37957,65.09452 L 34.43543,65.4385 C 21.23035,70.52919 0,87.57472 0,118.76956 c 0,5.57552 0.65017,11.61035 2.19438,18.14277 l 91.50498,341.43364 2.48793,3.3938 c 10.32173,13.80484 35.53268,34.93312 64.29073,26.7676 0,0 128.92593,-35.4945 139.59215,-38.42899 10.61507,2.93449 139.75801,38.48003 139.75801,38.48003 28.55381,8.11448 53.71382,-13.0138 64.08659,-26.81864 l 2.48783,-3.3938 91.3136,-340.83398 c 1.59483,-6.68552 2.28379,-12.8607 2.28379,-18.58933 0,-31.39898 -21.17932,-48.39347 -34.33346,-53.48416 l -0.94414,-0.34398 c 0,0 -76.6028,-21.38346 -96.99109,-27.06105 C 460.25474,13.56243 437.82497,1.90104 421.68531,0.15311 L 420.53713,0 419.33782,0 z" style="fill:#ffffff"/>
  <path d="m 180.7131,21.72795 c 0,0 -29.3576,3.18965 -29.3576,33.59346 L 42.21819,85.72523 c 0,0 -27.26529,10.5131 -18.89553,46.19899 L 113.5772,468.6882 c 0,0 18.89553,25.21105 40.91692,18.88277 l 145.57594,-40.02381 145.53757,40.02381 c 22.0215,6.32828 40.91703,-18.88277 40.91703,-18.88277 l 90.2035,-336.76398 c 8.42069,-35.68589 -18.8446,-46.19899 -18.8446,-46.19899 L 448.74626,55.32141 c 0,-30.40381 -29.40854,-33.59346 -29.40854,-33.59346 l -238.62462,0 z"/>
  <path d="m 181.70827,34.34623 c -1.39069,0.24292 -5.57552,1.18655 -9.56897,3.82759 -5.57552,3.73828 -8.21655,9.17345 -8.21655,17.14759 l 0,9.56898 c 0,0 -115.78455,32.29208 -117.46879,32.75139 -2.99818,1.39069 -12.1207,6.8769 -12.1207,21.37071 0,2.94724 0.40827,6.23896 1.25045,9.92621 0.20413,0.59914 88.00901,328.53467 89.4635,333.81674 3.82758,4.33794 15.24656,15.79518 25.9638,12.7076 l 149.05905,-41.01899 148.96964,41.01899 c 10.76839,3.08758 22.13633,-8.36966 26.01495,-12.7076 1.45448,-5.28207 89.31039,-333.21709 89.4635,-333.81674 0.84207,-3.68725 1.25034,-6.97897 1.25034,-9.92621 0,-14.49381 -9.12242,-19.98002 -12.12069,-21.37071 C 551.96366,97.18247 436.17911,64.89039 436.17911,64.89039 l 0,-9.56898 c 0,-7.97414 -2.64104,-13.40931 -8.21666,-17.14759 -3.94231,-2.64104 -8.17818,-3.58518 -9.56897,-3.82759 l -236.68521,0 z" style="fill:#ffffff"/>
  <path d="m 438.6798,81.5404 0,323.85225 c 0,0 -2.79414,20.97518 -19.58449,20.97518 l -90.90523,0 121.70455,33.59347 c 0,0 6.97897,3.48311 10.46208,-4.23586 l 89.55271,-332.22192 c 0,0 3.49596,-10.46207 -4.92473,-13.25621 L 438.6798,81.5404 z M 55.06603,110.94903 c -8.36956,2.78138 -4.88645,13.25622 -4.88645,13.25622 l 89.51443,332.27295 c 3.53414,7.66793 10.51321,4.18483 10.51321,4.18483 l 121.70455,-33.59347 -90.90522,0 c -16.84139,0 -19.5845,-20.98794 -19.5845,-20.98794 l 0,-323.8395 -106.35602,28.70691 z m 128.03283,-60.85865 234.29955,0 c 4.88655,0 5.57552,6.27724 5.57552,6.27724 l 0,348.32331 c 0,5.57552 -5.57552,6.97897 -5.57552,6.97897 l -234.29955,0 c -4.92473,0 -4.92473,-6.97897 -4.92473,-6.97897 l 0,-348.32331 c 0,-4.18483 4.92473,-6.27724 4.92473,-6.27724"/>
  <g transform="scale(10.206902,10.206902)" style="fill:#ffffff">
    <path d="m 30.795852,13.472779 c 1.604215,1.8e-5 2.944027,0.475987 4.019441,1.427906 1.075388,0.951954 1.613088,2.185921 1.613103,3.701905 -1.5e-5,1.375063 -0.220448,2.291763 -0.661299,2.750102 -0.440881,0.458361 -1.454549,1.225236 -3.04101,2.300629 0.528813,0.952214 1.185539,1.979197 1.970181,3.080953 0.784615,1.101766 1.599773,2.225584 2.445476,3.371457 0.38786,0.5993 0.894762,0.920871 1.520707,0.964715 0.62591,0.04385 0.938873,0.189231 0.938891,0.436159 -1.8e-5,0.07047 -0.02651,0.145386 -0.07949,0.224737 -0.05301,0.07935 -0.08838,0.136779 -0.106114,0.172285 l -3.939554,0 c -0.105994,-0.01775 -0.308808,-0.119161 -0.608443,-0.304222 -0.299663,-0.185062 -0.929759,-1.026849 -1.890292,-2.525366 -0.960556,-1.49851 -1.863941,-2.776591 -2.710158,-3.834245 -0.846234,-1.057641 -2.000986,-1.586465 -3.464257,-1.586473 -0.105447,8e-6 -0.167045,0.753568 -0.184792,2.260683 -0.01776,1.507128 -0.02663,2.472379 -0.02663,2.895758 -5e-6,0.4406 -5e-6,0.696135 0,0.766607 -5e-6,0.07048 -5e-6,0.132343 0,0.185599 -5e-6,0.652021 0.141077,1.070562 0.423248,1.255622 0.282159,0.185062 0.793365,0.277593 1.533617,0.277593 l 2.035947,0 c 0.264134,0 0.396206,0.114588 0.396215,0.343762 -9e-6,0.370123 -0.158441,0.555185 -0.475296,0.555185 l -0.264681,0 -2.300628,-0.211422 -3.966183,0 -3.120495,0.291311 c -0.316863,-1e-6 -0.475295,-0.167578 -0.475296,-0.502733 10e-7,-0.264681 0.462655,-0.418944 1.387962,-0.462789 0.925307,-0.04384 1.502548,-0.109879 1.731725,-0.198107 0.229173,-0.08823 0.343761,-1.20774 0.343763,-3.358546 l 0,-6.954336 c -2e-6,-0.846215 -0.07492,-1.780533 -0.224737,-2.802958 -0.149826,-1.022397 -0.312831,-1.626133 -0.489014,-1.81121 -0.176187,-0.185046 -0.846093,-0.330432 -2.009721,-0.436159 -1.163628,-0.105695 -1.745442,-0.290891 -1.745444,-0.555589 2e-6,-0.316847 0.132343,-0.475279 0.397022,-0.475296 0.546579,0.105459 1.295835,0.237531 2.247773,0.396215 0.951936,0.158718 1.76279,0.238068 2.432565,0.238052 l 1.533214,0 c 0.582078,-0.49384 1.256423,-0.930267 2.023036,-1.309285 0.7666,-0.378981 1.69648,-0.568481 2.789643,-0.568499 z m -4.283317,4.363204 0,2.062577 c -5e-6,0.916712 0.255531,1.643912 0.766608,2.181602 0.511065,0.53771 1.365898,0.80656 2.564502,0.806552 0.987165,8e-6 1.815773,-0.308517 2.485824,-0.925578 0.67003,-0.617041 1.005051,-1.45439 1.005062,-2.51205 -1.1e-5,-1.251304 -0.343774,-2.286895 -1.031288,-3.106776 -0.687535,-0.81985 -1.70107,-1.229782 -3.040606,-1.229799 -0.846233,1.7e-5 -1.516139,0.198393 -2.00972,0.595129 -0.493593,0.396769 -0.740387,1.106216 -0.740382,2.128343 z"/>
  </g>
</svg>
