<?xml version="1.0" encoding="UTF-8" standalone="no"?>
<svg xmlns="http://www.w3.org/2000/svg" xmlns:xlink="http://www.w3.org/1999/xlink" version="1.1" width="600.00012" height="510.31702">
  <radialGradient cx="0" cy="0" r="1" fx="0" fy="0" id="radialGradient3010" gradientUnits="userSpaceOnUse" gradientTransform="matrix(224.15892,0,0,224.15892,300.06513,255.73968)" spreadMethod="pad">
    <stop style="stop-color:#f6b91d" offset="0"/>
    <stop style="stop-color:#d3641c" offset="0.7"/>
    <stop style="stop-color:#bf331c" offset="1"/>
  </radialGradient>
  <path d="M 419.35328,0 179.5497,0 178.40152,0.15309 C 162.26322,1.90088 139.83546,13.56127 132.35954,38.03025 112.02401,43.70735 35.42771,65.089 35.42771,65.089 l -0.99509,0.34394 C 21.27959,70.52321 0,87.56729 0,118.75948 c 0,5.57505 0.70116,11.60937 2.1943,18.14124 l 91.49712,341.40467 2.48772,3.39351 c 10.37188,13.80366 35.52976,34.93016 64.28527,26.76533 0,0 128.97879,-35.49149 139.59306,-38.42573 10.66531,2.93424 139.78443,38.47676 139.78443,38.47676 28.50036,8.1138 53.72202,-13.0127 64.03012,-26.81636 l 2.53875,-3.39351 91.30576,-340.80507 c 1.54366,-6.68495 2.2836,-12.85961 2.2836,-18.58774 0,-31.39632 -21.17753,-48.38937 -34.33056,-53.47964 L 564.67448,65.089 c 0,0 -76.5963,-21.38165 -96.93183,-27.05875 C 460.26673,13.56127 437.83897,1.90088 421.64964,0.15309 L 420.50146,0 419.35328,0 z"/>
  <path d="m 180.74891,21.7261 c 0,0 -29.40614,3.18939 -29.40614,33.59062 L 42.26575,85.71795 c 0,0 -27.3139,10.51222 -18.89392,46.19508 l 90.24687,336.73541 c 0,0 18.8429,25.20891 40.86242,18.88117 l 145.57635,-40.02042 145.51257,40.02042 c 22.01952,6.32774 40.91345,-18.88117 40.91345,-18.88117 L 576.73036,131.91303 C 585.09931,96.23017 557.8492,85.71795 557.8492,85.71795 L 448.75942,55.31672 c 0,-30.40123 -29.40614,-33.59062 -29.40614,-33.59062 l -238.60437,0 z" style="fill:#bf331c"/>
  <path d="m 181.69297,34.34332 c -1.39058,0.2429 -5.57505,1.18645 -9.56816,3.82726 -5.57505,3.73796 -8.16483,9.17268 -8.16483,17.14614 l 0,9.56816 c 0,0 -115.813,32.28935 -117.45872,32.74862 -3.04906,1.39057 -12.11967,6.87632 -12.11967,21.36889 0,2.94699 0.35721,6.23844 1.25024,9.92537 0.15309,0.60011 87.96327,328.5068 89.40488,333.78842 3.89105,4.33757 15.24526,15.79384 26.01263,12.70652 l 149.00813,-41.01551 148.99538,41.01551 c 10.71634,3.08732 22.13434,-8.36895 26.01263,-12.70652 1.40333,-5.28162 89.25179,-333.18882 89.40488,-333.78842 0.9063,-3.68693 1.25024,-6.97838 1.25024,-9.92537 0,-14.49257 -9.07061,-19.97832 -12.10691,-21.36889 C 551.96797,97.17423 436.15497,64.88488 436.15497,64.88488 l 0,-9.56816 c 0,-7.97346 -2.64081,-13.40818 -8.17759,-17.14614 -3.99311,-2.64081 -8.22861,-3.58487 -9.56816,-3.82726 l -236.71625,0 z"/>
  <path d="m 438.69372,81.53348 0,323.82478 c 0,0 -2.7939,20.9734 -19.58283,20.9734 l -90.89751,0 121.64319,33.59062 c 0,0 7.02941,3.48281 10.51222,-4.23551 l 89.50694,-332.19373 c 0,0 3.48281,-10.46118 -4.88614,-13.25509 L 438.69372,81.53348 z M 55.07433,110.93962 c -8.38171,2.78114 -4.88614,13.25509 -4.88614,13.25509 l 89.54521,332.24476 c 3.49557,7.66728 10.47394,4.18447 10.47394,4.18447 l 121.69423,-33.59061 -90.89751,0 c -16.80169,0 -19.59559,-20.98617 -19.59559,-20.98617 l 0,-323.81202 -106.33414,28.70448 z m 128.02197,-60.85349 234.26681,0 c 4.93717,0 5.57504,6.27671 5.57504,6.27671 l 0,348.29375 c 0,5.57505 -5.57504,6.97838 -5.57504,6.97838 l -234.26681,0 c -4.88614,0 -4.88614,-6.97838 -4.88614,-6.97838 l 0,-348.29375 c 0,-4.18448 4.88614,-6.27671 4.88614,-6.27671" style="fill:#bf331c"/>
  <path d="m 184.38481,55.16363 c -0.59961,0.45927 -1.14818,0.95682 -1.14818,1.19921 l 0,0 0,348.24272 c 0.051,0.80373 0.35721,1.93915 -0.14033,1.93915 l 0,0 233.42481,0 c 0.63787,-0.2424 1.33954,-0.842 1.33954,-1.88812 l 0,0 0.051,-347.69415 c -0.10206,-0.70166 -0.49754,-1.64572 -0.54857,-1.79881 l 0,0 -232.9783,0 z m 259.33538,350.8325 c -1.14817,8.82822 -7.82037,25.42579 -24.6093,25.42579 l 0,0 -53.37757,0 86.31755,23.86937 c 0.14033,0.10206 0.79097,0.29342 1.39057,0.29342 l 0,0 c 0.49755,0 1.39058,0 1.99018,-1.19921 l 0,0 89.609,-332.43612 c 0.19136,-0.5996 1.69675,-5.77917 -1.40333,-6.77426 l 0,0 -99.86607,-26.96945 -0.051,317.79046 z M 56.70729,115.76197 c -3.32972,1.09715 -1.78605,6.28947 -1.59469,7.13147 l 0,0 89.26455,331.40276 c 0.89302,1.99018 1.73502,1.99018 2.23257,1.99018 l 0,0 c 0.5996,0 1.25024,-0.20412 2.24532,-0.59961 l 0,0 85.41177,-23.57594 -53.26275,0 c -16.85272,0 -23.47388,-16.58481 -24.67309,-26.06367 l 0,0 0,-317.13982 -99.62368,26.85463 z" style="fill:url(#radialGradient3010)"/>
  <g transform="translate(270.60569,230.15776)" style="stroke:#bf331c;stroke-width:12.75754547;stroke-opacity:0">
    <path d="m 43.799865,-92.654088 c 16.37268,1.88e-4 30.046856,4.857939 41.022572,14.573267 10.975442,9.715674 16.463233,22.309588 16.463383,37.78178 -1.5e-4,14.033942 -2.249898,23.389813 -6.749245,28.067641 -4.499639,4.6780432 -14.845179,12.50480045 -31.036651,23.480295 5.39708,9.718331 12.099651,20.199762 20.10773,31.444324 8.00781,11.244668 16.327343,22.714395 24.958626,34.409216 3.95851,6.116474 9.13197,9.398441 15.52038,9.845911 6.38806,0.447487 9.58218,1.931304 9.58237,4.451456 -1.9e-4,0.719263 -0.2706,1.48382 -0.81123,2.293673 -0.541,0.809855 -0.902,1.39597 -1.08301,1.758345 l -40.207225,0 C 90.485787,95.270632 88.415855,94.235666 85.357764,92.34692 82.2994,90.458179 75.868611,81.866864 66.065378,66.572951 56.261911,51.279095 47.041931,38.234958 38.40541,27.440499 29.768709,16.646175 17.983276,11.248979 3.0490758,11.248895 1.9728765,11.248979 1.3442102,18.939846 1.1630752,34.321518 0.98183495,49.703312 0.89124113,59.554704 0.89129349,63.875723 c -5.236e-5,4.49678 -5.236e-5,7.104784 0,7.82402 -5.236e-5,0.719284 -5.236e-5,1.350695 0,1.894237 -5.236e-5,6.654549 1.43984041,10.926185 4.31968251,12.81492 2.8797288,1.888753 8.097109,2.833125 15.652158,2.833119 l 20.778949,0 c 2.695759,6e-6 4.043686,1.16949 4.043783,3.508455 -9.7e-5,3.777491 -1.61706,5.666235 -4.850892,5.666238 l -2.701346,0 -23.480295,-2.157782 -40.479008,0 -31.847879,2.973127 c -3.233918,-4e-6 -4.850881,-1.710305 -4.850892,-5.13091 1.1e-5,-2.701342 4.721871,-4.275753 14.165594,-4.723237 9.443716,-0.447473 15.33506,-1.121436 17.674049,-2.021891 2.338947,-0.90044 3.508431,-12.326243 3.508455,-34.277443 l 0,-70.976213 c -2.4e-5,-8.636498 -0.764581,-18.172185 -2.293673,-28.607087 -1.529136,-10.43462 -3.192768,-16.596373 -4.990901,-18.485277 -1.798167,-1.888584 -8.635256,-3.372401 -20.511286,-4.451455 -11.876023,-1.078726 -17.814036,-2.968842 -17.814058,-5.670356 2.2e-5,-3.233754 1.350693,-4.850717 4.052019,-4.850892 5.578401,1.07632 13.225343,2.424246 22.94085,4.043783 9.715495,1.619879 17.991104,2.429733 24.82685,2.429564 l 15.6480395,0 c 5.94071243,-5.040142 12.8230977,-9.494338 20.6471765,-13.362602 7.823945,-3.8679 17.314334,-5.801941 28.471196,-5.802129 z m -43.71568093,44.531027 0,21.050731 c -5.154e-5,9.355993 2.60795243,16.777824 7.82401983,22.2655132 5.2159491,5.48788945 13.9404081,8.2317842 26.1734051,8.2316924 10.075046,9.18e-5 18.531842,-3.14872988 25.370414,-9.4464744 6.83835,-6.2975422 10.25758,-14.8435592 10.257702,-25.6380772 -1.22e-4,-12.770857 -3.508573,-23.340137 -10.525366,-31.70787 -7.017014,-8.367416 -17.361181,-12.551204 -31.032533,-12.551375 -8.636691,1.71e-4 -15.473779,2.024806 -20.511286,6.07391 -5.0376247,4.049434 -7.55640747,11.290077 -7.55635593,21.72195 z"/>
  </g>
</svg>
