<?xml version="1.0" encoding="UTF-8" standalone="no"?>
<svg xmlns="http://www.w3.org/2000/svg" version="1.1" width="600" height="510.36029">
  <path d="M 180.71289 21.728516 C 180.71289 21.728516 151.35547 24.918456 151.35547 55.322266 L 42.21875 85.724609 C 42.21875 85.724609 14.952506 96.237938 23.322266 131.92383 L 113.57812 468.6875 C 113.57812 468.6875 132.47275 493.89859 154.49414 487.57031 L 300.07031 447.54688 L 445.60742 487.57031 C 467.62892 493.89859 486.52539 468.6875 486.52539 468.6875 L 576.72852 131.92383 C 585.14921 96.237938 557.88281 85.724609 557.88281 85.724609 L 448.74609 55.322266 C 448.74609 24.918456 419.33789 21.728516 419.33789 21.728516 L 180.71289 21.728516 z M 181.70898 34.345703 L 418.39258 34.345703 C 419.78337 34.588113 424.02058 35.532788 427.96289 38.173828 C 433.53851 41.912108 436.17969 47.348126 436.17969 55.322266 L 436.17969 64.890625 C 436.17969 64.890625 551.9643 97.183268 553.64844 97.642578 C 556.64671 99.033268 565.76758 104.51791 565.76758 119.01172 C 565.76758 121.95896 565.35965 125.2522 564.51758 128.93945 C 564.36447 129.5391 476.50917 457.47379 475.05469 462.75586 C 471.17607 467.0938 459.80745 478.55047 449.03906 475.46289 L 300.07031 434.44336 L 151.01172 475.46289 C 140.29448 478.55047 128.87446 467.0938 125.04688 462.75586 C 123.59238 457.47379 35.788114 129.53859 35.583984 128.93945 C 34.741804 125.2522 34.333984 121.95896 34.333984 119.01172 C 34.333984 104.51791 43.454945 99.033268 46.453125 97.642578 C 48.137365 97.183268 163.92188 64.890625 163.92188 64.890625 L 163.92188 55.322266 C 163.92186 47.348126 166.56315 41.912108 172.13867 38.173828 C 176.13212 35.532788 180.31829 34.588623 181.70898 34.345703 z M 183.09961 50.089844 C 183.09961 50.089844 178.17383 52.182358 178.17383 56.367188 L 178.17383 404.69141 C 178.17383 404.69141 178.17488 411.66992 183.09961 411.66992 L 417.39844 411.66992 C 417.39844 411.66992 422.97461 410.26693 422.97461 404.69141 L 422.97461 56.367188 C 422.97461 56.367188 422.28499 50.089844 417.39844 50.089844 L 183.09961 50.089844 z M 438.67969 81.541016 L 438.67969 405.39258 C 438.67969 405.39258 435.88605 426.36719 419.0957 426.36719 L 328.18945 426.36719 L 449.89453 459.96094 C 449.89453 459.96094 456.87431 463.44358 460.35742 455.72461 L 549.91016 123.50391 C 549.91016 123.50391 553.40506 113.04219 544.98438 110.24805 L 438.67969 81.541016 z M 161.42188 82.242188 L 55.066406 110.94922 C 46.696846 113.7306 50.179687 124.20508 50.179688 124.20508 L 139.69336 456.47852 C 143.2275 464.14645 150.20703 460.66211 150.20703 460.66211 L 271.91211 427.07031 L 181.00586 427.07031 C 164.16447 427.07031 161.42186 406.08203 161.42188 406.08203 L 161.42188 82.242188 z M 314.33008 137.51562 C 330.70415 137.51583 344.37883 142.3737 355.35547 152.08984 C 366.33185 161.80634 371.82015 174.4015 371.82031 189.875 C 371.82015 203.91014 369.57004 213.26709 365.07031 217.94531 C 360.57028 222.62376 350.2241 230.4513 334.03125 241.42773 C 339.4288 251.14688 346.13187 261.62949 354.14062 272.875 C 362.14912 284.12062 370.46955 295.59129 379.10156 307.28711 C 383.06041 313.4041 388.23409 316.6853 394.62305 317.13281 C 401.01165 317.58038 404.20684 319.06361 404.20703 321.58398 C 404.20684 322.30326 403.93724 323.06898 403.39648 323.87891 C 402.85541 324.68883 402.4935 325.27432 402.3125 325.63672 L 362.10156 325.63672 C 361.01969 325.45555 358.95092 324.42015 355.89258 322.53125 C 352.83394 320.64234 346.40173 312.05107 336.59766 296.75586 C 326.79336 281.46071 317.57281 268.41451 308.93555 257.61914 C 300.29813 246.82391 288.51164 241.42781 273.57617 241.42773 C 272.49988 241.42781 271.87059 249.11897 271.68945 264.50195 C 271.50817 279.88506 271.41797 289.7372 271.41797 294.05859 C 271.41792 298.55575 271.41792 301.16351 271.41797 301.88281 C 271.41792 302.60219 271.41792 303.23376 271.41797 303.77734 C 271.41792 310.43246 272.85819 314.70486 275.73828 316.59375 C 278.61825 318.48266 283.83495 319.42773 291.39062 319.42773 L 312.17188 319.42773 C 314.86786 319.42773 316.2167 320.59639 316.2168 322.93555 C 316.2167 326.71336 314.59933 328.60156 311.36523 328.60156 L 308.66406 328.60156 L 285.18164 326.44531 L 244.69922 326.44531 L 212.84766 329.41797 C 209.61347 329.41796 207.9961 327.70801 207.99609 324.28711 C 207.9961 321.58554 212.71955 320.01002 222.16406 319.5625 C 231.60858 319.11503 237.50065 318.44156 239.83984 317.54102 C 242.17899 316.64047 243.34764 305.21284 243.34766 283.25977 L 243.34766 212.27734 C 243.34764 203.6401 242.58386 194.10376 241.05469 183.66797 C 239.52543 173.23246 237.86078 167.0707 236.0625 165.18164 C 234.26418 163.29289 227.42587 161.80962 215.54883 160.73047 C 203.6718 159.65165 197.7344 157.76034 197.73438 155.05859 C 197.7344 151.82456 199.08556 150.2072 201.78711 150.20703 C 207.36599 151.28344 215.01218 152.63228 224.72852 154.25195 C 234.44484 155.87197 242.72227 156.68181 249.55859 156.68164 L 265.20703 156.68164 C 271.14824 151.64107 278.03268 147.18696 285.85742 143.31836 C 293.68203 139.45014 303.17227 137.51583 314.33008 137.51562 z M 298.68164 154.25195 C 290.04422 154.25212 283.20591 156.27673 278.16797 160.32617 C 273.12992 164.37595 270.61128 171.61803 270.61133 182.05078 L 270.61133 203.10352 C 270.61128 212.46031 273.21904 219.88099 278.43555 225.36914 C 283.65194 230.85749 292.3773 233.60164 304.61133 233.60156 C 314.68723 233.60164 323.14523 230.45258 329.98438 224.1543 C 336.82331 217.85623 340.24208 209.31107 340.24219 198.51562 C 340.24208 185.7437 336.73418 175.17313 329.7168 166.80469 C 322.69919 158.43656 312.35415 154.25212 298.68164 154.25195 z "/>
</svg>
