<?xml version="1.0" encoding="UTF-8" standalone="no"?>
<svg xmlns="http://www.w3.org/2000/svg" version="1.1" width="600" height="784.67273">
  <path d="m 106.51932,302.45211 c 0.52887,37.62505 17.16472,75.85823 45.98182,105.06767 23.36363,23.75597 65.28478,52.10227 131.78579,52.10227 111.73739,0 147.81272,-98.55489 147.81272,-146.28261 0,-45.90335 -37.38965,-83.21454 -83.29301,-83.21454 -45.88373,0 -83.29301,37.31119 -83.29301,83.21454 0,28.73864 16.16426,59.61551 36.01648,68.97273 15.87001,7.41516 24.75643,24.73681 21.14693,40.97954 -2.82482,12.73131 -14.63414,27.44392 -38.68436,27.44392 -7.27784,0 -15.63461,-1.31511 -25.44302,-3.82527 C 203.99529,432.33506 166.13483,411.2666 123.13477,341.99961 116.09233,330.66109 110.58,317.40012 106.51932,302.45211 M 300,600 C 134.63022,600 0,465.36978 0,300 0,134.57138 134.63022,0 300,0 465.44824,0 600,134.57138 600,300 600,465.36978 465.44824,600 300,600 m 6.82665,184.67273 c -154.71784,0 -228.28091,-74.77931 -231.341134,-77.99647 l -9.729942,-9.88687 -4.904204,-5.13961 3.432943,-6.12045 64.068527,-117.09279 4.6688,-8.43523 8.43524,4.6688 16.55659,9.27876 c 0.6858,0.39234 76.30942,41.45034 150.95142,41.45034 71.18943,0 126.37154,-39.76329 128.74517,-41.45034 l 16.3212,-12.33898 8.33714,-6.35585 5.61041,8.88642 72.64108,115.9354 3.66835,5.82619 -4.29609,5.29654 -8.57255,10.495 c -2.6875,3.37409 -69.26698,82.97914 -224.59295,82.97914" style="fill:#ffffff"/>
  <path d="m 306.82665,756.16949 c 143.75205,0 202.52403,-72.40567 202.52403,-72.40567 l -54.55437,-87.05944 c 0,0 -61.85183,47.19806 -145.83142,47.19806 -83.9796,0 -164.74204,-45.11868 -164.74204,-45.11868 l -48.276992,88.11875 c 0,0 67.128752,69.26698 210.880792,69.26698 m -40.92068,-336.86 c -49.72863,-13.1825 -80.76244,-31.40652 -118.6229,-92.33636 -34.6433,-55.84908 -14.10449,-158.46466 -14.10449,-158.46466 0,0 -55.084027,44.13784 -55.084027,132.25659 0,88.11875 75.544367,187.28176 206.192377,187.28176 130.64801,0 176.25711,-113.32636 176.25711,-174.70738 0,-61.69489 -49.96404,-111.71778 -111.7374,-111.71778 -61.75374,0 -111.79624,50.02289 -111.79624,111.71778 0,39.92023 22.14738,80.44857 52.41614,94.71 7.80749,3.68796 12.94709,20.98999 -23.52057,11.26005 M 571.49676,300 C 571.49676,449.97058 449.97057,571.49677 300,571.49677 150.04904,571.49677 28.503237,449.97058 28.503237,300 28.503237,150.04905 150.04904,28.42477 300,28.42477 449.97057,28.42477 571.49676,150.04905 571.49676,300"/>
</svg>
