<?xml version="1.0" encoding="UTF-8" standalone="no"?>
<svg xmlns="http://www.w3.org/2000/svg" xmlns:xlink="http://www.w3.org/1999/xlink" version="1.1" width="600" height="784.67273">
  <linearGradient x1="0" y1="0" x2="1" y2="0" id="linearGradient402" gradientUnits="userSpaceOnUse" gradientTransform="matrix(21.077148,0,0,-21.077148,749.63574,419.86133)" spreadMethod="pad">
    <stop style="stop-color:#bf331c" offset="0"/>
    <stop style="stop-color:#d3641c" offset="0.3"/>
    <stop style="stop-color:#f6b91d" offset="0.5"/>
    <stop style="stop-color:#d3641c" offset="0.7"/>
    <stop style="stop-color:#bf331c" offset="1"/>
  </linearGradient>
  <radialGradient cx="0" cy="0" r="1" fx="0" fy="0" id="radialGradient390" gradientUnits="userSpaceOnUse" gradientTransform="matrix(13.841309,0,0,-13.841309,760.04004,439.05225)" spreadMethod="pad">
    <stop style="stop-color:#f6b91d" offset="0"/>
    <stop style="stop-color:#d3641c" offset="0.85"/>
    <stop style="stop-color:#bf331c" offset="1"/>
  </radialGradient>
  <linearGradient x1="0" y1="0" x2="1" y2="0" id="linearGradient3005" xlink:href="#linearGradient402" gradientUnits="userSpaceOnUse" gradientTransform="matrix(21.077148,0,0,-21.077148,749.63574,419.86133)" spreadMethod="pad"/>
  <linearGradient x1="0" y1="0" x2="1" y2="0" id="linearGradient3008" xlink:href="#linearGradient402" gradientUnits="userSpaceOnUse" gradientTransform="matrix(413.46658,0,0,413.46658,95.92114,676.44059)" spreadMethod="pad"/>
  <radialGradient cx="0" cy="0" r="1" fx="0" fy="0" id="radialGradient3010" xlink:href="#radialGradient390" gradientUnits="userSpaceOnUse" gradientTransform="matrix(13.841309,0,0,-13.841309,760.04004,439.05225)" spreadMethod="pad"/>
  <radialGradient cx="0" cy="0" r="1" fx="0" fy="0" id="radialGradient3013" xlink:href="#radialGradient390" gradientUnits="userSpaceOnUse" gradientTransform="matrix(271.52244,0,0,271.52244,300.0204,299.9758)" spreadMethod="pad"/>
  <path d="m 106.51932,302.45211 c 0.52887,37.62505 17.16472,75.85823 45.98182,105.06767 23.36363,23.75597 65.28478,52.10227 131.78579,52.10227 111.73739,0 147.81272,-98.55489 147.81272,-146.28261 0,-45.90335 -37.38965,-83.21454 -83.29301,-83.21454 -45.88373,0 -83.29301,37.31119 -83.29301,83.21454 0,28.73864 16.16426,59.61551 36.01648,68.97273 15.87001,7.41516 24.75643,24.73681 21.14693,40.97954 -2.82482,12.73131 -14.63414,27.44392 -38.68436,27.44392 -7.27784,0 -15.63461,-1.31511 -25.44302,-3.82527 C 203.99529,432.33506 166.13483,411.2666 123.13477,341.99961 116.09233,330.66109 110.58,317.40012 106.51932,302.45211 M 300,600 C 134.63022,600 0,465.36978 0,300 0,134.57138 134.63022,0 300,0 465.44824,0 600,134.57138 600,300 600,465.36978 465.44824,600 300,600 m 6.82665,184.67273 c -154.71784,0 -228.28091,-74.77931 -231.341134,-77.99647 l -9.729942,-9.88687 -4.904204,-5.13961 3.432943,-6.12045 64.068527,-117.09279 4.6688,-8.43523 8.43524,4.6688 16.55659,9.27876 c 0.6858,0.39234 76.30942,41.45034 150.95142,41.45034 71.18943,0 126.37154,-39.76329 128.74517,-41.45034 l 16.3212,-12.33898 8.33714,-6.35585 5.61041,8.88642 72.64108,115.9354 3.66835,5.82619 -4.29609,5.29654 -8.57255,10.495 c -2.6875,3.37409 -69.26698,82.97914 -224.59295,82.97914" style="fill:#ffffff"/>
  <path d="m 306.82665,775.09972 c 151.02989,0 214.54914,-76.1721 217.15818,-79.38926 l 8.59217,-10.495 -72.71955,-116.01386 -16.47813,12.41745 c -0.54927,0.4504 -58.3208,43.37278 -134.4929,43.37278 -77.78069,0 -154.71785,-42.31348 -155.4829,-42.6862 l -16.69391,-9.27875 -64.068532,117.09279 9.729941,9.96534 c 2.922906,3.06022 74.406591,75.01471 224.455631,75.01471 M 108.28484,238.08933 c -6.51279,16.92931 -11.279674,37.78199 -11.279674,62.67573 0,40.62643 17.713984,81.9983 48.669324,113.48329 24.59949,25.0703 68.73733,54.94671 138.61244,54.94671 118.93677,0 157.40535,-104.96959 157.40535,-155.85562 0,-51.18028 -41.60727,-92.86602 -92.88564,-92.86602 -51.18027,0 -92.86601,41.68574 -92.86601,92.86602 0,32.56392 18.24364,66.65795 41.5288,77.62375 11.73086,5.51233 18.53789,18.53789 15.87001,30.34722 -2.07939,9.573 -10.96581,19.85222 -29.34676,19.85222 -6.43432,0 -13.94756,-1.15818 -22.91245,-3.53103 C 208.74256,423.68404 172.56915,403.53757 131.27575,336.93847 113.71869,308.67064 108.57909,271.04558 108.28484,238.08933 M 300,590.34853 C 139.8483,590.34853 9.5730073,460.07324 9.5730073,300 9.5730073,139.8483 139.8483,9.59263 300,9.59263 460.1517,9.59263 590.42699,139.8483 590.42699,300 590.42699,460.07324 460.1517,590.34853 300,590.34853"/>
  <path d="m 28.503237,300.00032 c 0,149.97057 121.545803,271.49676 271.496763,271.49676 l 0,0 c 149.97057,0 271.57523,-121.52619 271.57523,-271.49676 l 0,0 C 571.57523,150.04936 449.97057,28.42509 300,28.42509 l 0,0 c -149.95096,0 -271.496763,121.62427 -271.496763,271.57523 m 49.591316,0.76505 c 0,-88.19721 55.084027,-132.25658 55.084027,-132.25658 l 0,0 c 0,0 -20.53881,102.61557 14.18296,158.46465 l 0,0 c 37.78199,60.92984 68.8158,79.15386 118.54443,92.33637 l 0,0 c 36.46766,9.72994 31.32806,-7.5721 23.52057,-11.26006 l 0,0 c -30.26876,-14.26142 -52.41614,-54.78977 -52.41614,-94.71 l 0,0 c 0,-61.69489 50.0425,-111.71778 111.79624,-111.71778 l 0,0 c 61.77336,0 111.7374,50.02289 111.7374,111.71778 l 0,0 c 0,61.38103 -45.6091,174.70739 -176.25711,174.70739 l 0,0 c -130.64801,0 -206.192377,-99.16302 -206.192377,-187.28177" style="fill:url(#radialGradient3013)"/>
  <path d="m 308.96489,643.90276 c -83.9796,0 -164.74204,-45.11868 -164.74204,-45.11868 l 0,0 -48.276992,88.19721 c 0,0 67.128752,69.18852 210.880792,69.18852 l 0,0 c 143.83051,0 202.6025,-72.32721 202.6025,-72.32721 l 0,0 -54.63284,-87.13791 c 0,0 -61.93029,47.19807 -145.83142,47.19807" style="fill:url(#linearGradient3008)"/>
</svg>
