<?xml version="1.0" encoding="UTF-8" standalone="no"?>
<svg xmlns="http://www.w3.org/2000/svg" xmlns:xlink="http://www.w3.org/1999/xlink" version="1.1" width="600" height="784.67273">
  <linearGradient x1="0" y1="0" x2="1" y2="0" id="linearGradient432" gradientUnits="userSpaceOnUse" gradientTransform="matrix(21.077148,0,0,-21.077148,683.13574,419.86133)" spreadMethod="pad">
    <stop style="stop-color:#8b723c" offset="0"/>
    <stop style="stop-color:#d2bb7b" offset="0.3"/>
    <stop style="stop-color:#ebd491" offset="0.5"/>
    <stop style="stop-color:#d2bb7b" offset="0.7"/>
    <stop style="stop-color:#8b723c" offset="1"/>
  </linearGradient>
  <radialGradient cx="0" cy="0" r="1" fx="0" fy="0" id="radialGradient420" gradientUnits="userSpaceOnUse" gradientTransform="matrix(13.841309,0,0,-13.841309,693.54004,439.05225)" spreadMethod="pad">
    <stop style="stop-color:#ebd491" offset="0"/>
    <stop style="stop-color:#d2bb7b" offset="0.85"/>
    <stop style="stop-color:#8b723c" offset="1"/>
  </radialGradient>
  <linearGradient x1="0" y1="0" x2="1" y2="0" id="linearGradient3003" xlink:href="#linearGradient432" gradientUnits="userSpaceOnUse" gradientTransform="matrix(21.077148,0,0,-21.077148,683.13574,419.86133)" spreadMethod="pad"/>
  <linearGradient x1="0" y1="0" x2="1" y2="0" id="linearGradient3006" xlink:href="#linearGradient432" gradientUnits="userSpaceOnUse" gradientTransform="matrix(413.46658,0,0,413.46658,95.92114,676.44059)" spreadMethod="pad"/>
  <radialGradient cx="0" cy="0" r="1" fx="0" fy="0" id="radialGradient3008" xlink:href="#radialGradient420" gradientUnits="userSpaceOnUse" gradientTransform="matrix(13.841309,0,0,-13.841309,693.54004,439.05225)" spreadMethod="pad"/>
  <radialGradient cx="0" cy="0" r="1" fx="0" fy="0" id="radialGradient3011" xlink:href="#radialGradient420" gradientUnits="userSpaceOnUse" gradientTransform="matrix(271.52244,0,0,271.52244,300.0204,299.9758)" spreadMethod="pad"/>
  <path d="m 106.51932,302.45211 c 0.52887,37.62505 17.16472,75.85823 45.98182,105.06767 23.36363,23.75597 65.28478,52.10227 131.78579,52.10227 111.73739,0 147.81272,-98.55489 147.81272,-146.28261 0,-45.90335 -37.38965,-83.21454 -83.29301,-83.21454 -45.88373,0 -83.29301,37.31119 -83.29301,83.21454 0,28.73864 16.16426,59.61551 36.01648,68.97273 15.87001,7.41516 24.75643,24.73681 21.14693,40.97954 -2.82482,12.73131 -14.63414,27.44392 -38.68436,27.44392 -7.27784,0 -15.63461,-1.31511 -25.44302,-3.82527 C 203.99529,432.33506 166.13483,411.2666 123.13477,341.99961 116.09233,330.66109 110.58,317.40012 106.51932,302.45211 M 300,600 C 134.63022,600 0,465.36978 0,300 0,134.57138 134.63022,0 300,0 465.44824,0 600,134.57138 600,300 600,465.36978 465.44824,600 300,600 m 6.82665,184.67273 c -154.71784,0 -228.28091,-74.77931 -231.341134,-77.99647 l -9.729942,-9.88687 -4.904204,-5.13961 3.432943,-6.12045 64.068527,-117.09279 4.6688,-8.43523 8.43524,4.6688 16.55659,9.27876 c 0.6858,0.39234 76.30942,41.45034 150.95142,41.45034 71.18943,0 126.37154,-39.76329 128.74517,-41.45034 l 16.3212,-12.33898 8.33714,-6.35585 5.61041,8.88642 72.64108,115.9354 3.66835,5.82619 -4.29609,5.29654 -8.57255,10.495 c -2.6875,3.37409 -69.26698,82.97914 -224.59295,82.97914"/>
  <path d="m 28.503237,300.00032 c 0,149.97057 121.545803,271.49676 271.496763,271.49676 l 0,0 c 149.97057,0 271.57523,-121.52619 271.57523,-271.49676 l 0,0 C 571.57523,150.04936 449.97057,28.42509 300,28.42509 l 0,0 c -149.95096,0 -271.496763,121.62427 -271.496763,271.57523 m 49.591316,0.76505 c 0,-88.19721 55.084027,-132.25658 55.084027,-132.25658 l 0,0 c 0,0 -20.53881,102.61557 14.18296,158.46465 l 0,0 c 37.78199,60.92984 68.8158,79.15386 118.54443,92.33637 l 0,0 c 36.46766,9.72994 31.32806,-7.5721 23.52057,-11.26006 l 0,0 c -30.26876,-14.26142 -52.41614,-54.78977 -52.41614,-94.71 l 0,0 c 0,-61.69489 50.12097,-111.71778 111.79624,-111.71778 l 0,0 c 61.77336,0 111.7374,50.02289 111.7374,111.71778 l 0,0 c 0,61.38103 -45.6091,174.70739 -176.25711,174.70739 l 0,0 c -130.64801,0 -206.192377,-99.16302 -206.192377,-187.28177" style="fill:url(#radialGradient3011)"/>
  <path d="m 308.96489,643.90276 c -83.9796,0 -164.74204,-45.11868 -164.74204,-45.11868 l 0,0 -48.276992,88.19721 c 0,0 67.128752,69.18852 210.880792,69.18852 l 0,0 c 143.83051,0 202.6025,-72.32721 202.6025,-72.32721 l 0,0 -54.63284,-87.13791 c 0,0 -61.85183,47.19807 -145.83142,47.19807" style="fill:url(#linearGradient3006)"/>
</svg>
