<?xml version="1.0" encoding="UTF-8" standalone="no"?>
<svg xmlns="http://www.w3.org/2000/svg" version="1.1" width="600" height="784.67273">
  <path d="m 306.82665,756.16949 c 143.75205,0 202.52403,-72.40567 202.52403,-72.40567 l -54.55437,-87.05944 c 0,0 -61.85183,47.19806 -145.83142,47.19806 -83.9796,0 -164.74204,-45.11868 -164.74204,-45.11868 l -48.276992,88.11875 c 0,0 67.128752,69.26698 210.880792,69.26698 m -40.92068,-336.86 c -49.72863,-13.1825 -80.76244,-31.40652 -118.6229,-92.33636 -34.6433,-55.84908 -14.10449,-158.46466 -14.10449,-158.46466 0,0 -55.084027,44.13784 -55.084027,132.25659 0,88.11875 75.544367,187.28176 206.192377,187.28176 130.64801,0 176.25711,-113.32636 176.25711,-174.70738 0,-61.69489 -49.96404,-111.71778 -111.7374,-111.71778 -61.75374,0 -111.79624,50.02289 -111.79624,111.71778 0,39.92023 22.14738,80.44857 52.41614,94.71 7.80749,3.68796 12.94709,20.98999 -23.52057,11.26005 M 571.49676,300 C 571.49676,449.97058 449.97057,571.49677 300,571.49677 150.04904,571.49677 28.503237,449.97058 28.503237,300 28.503237,150.04905 150.04904,28.42477 300,28.42477 449.97057,28.42477 571.49676,150.04905 571.49676,300"/>
</svg>
