<?xml version="1.0" encoding="utf-8"?>
<!-- Generator: Adobe Illustrator 15.1.0, SVG Export Plug-In . SVG Version: 6.00 Build 0)  -->
<!DOCTYPE svg PUBLIC "-//W3C//DTD SVG 1.1//EN" "http://www.w3.org/Graphics/SVG/1.1/DTD/svg11.dtd">
<svg version="1.1"
	 id="svg8" sodipodi:docname="80.svg" inkscape:version="1.0 (4035a4fb49, 2020-05-01)" xmlns:sodipodi="http://sodipodi.sourceforge.net/DTD/sodipodi-0.dtd" xmlns:inkscape="http://www.inkscape.org/namespaces/inkscape" xmlns:dc="http://purl.org/dc/elements/1.1/" xmlns:rdf="http://www.w3.org/1999/02/22-rdf-syntax-ns#" xmlns:svg="http://www.w3.org/2000/svg" xmlns:cc="http://creativecommons.org/ns#"
	 xmlns="http://www.w3.org/2000/svg" xmlns:xlink="http://www.w3.org/1999/xlink" x="0px" y="0px" width="250px" height="180px"
	 viewBox="17.138 -0.294 250 180" enable-background="new 17.138 -0.294 250 180" xml:space="preserve">
<sodipodi:namedview  id="base" inkscape:window-y="-6" inkscape:guide-bbox="true" inkscape:window-height="1018" inkscape:window-width="1920" inkscape:document-units="mm" inkscape:pageopacity="0.0" inkscape:window-x="-6" inkscape:current-layer="svg8" inkscape:pageshadow="2" inkscape:cy="148.27568" borderopacity="1.0" showguides="true" bordercolor="#666666" showgrid="false" inkscape:zoom="1.9262114" pagecolor="#ffffff" inkscape:cx="162.61389" inkscape:document-rotation="0" inkscape:pagecheckerboard="true" inkscape:window-maximized="1">
	</sodipodi:namedview>
<g>
	<path fill="#808080" d="M82.46,175.309c-2.727-0.112-4.873-2.358-4.868-5.079c-0.021,0-0.043-0.002-0.065-0.002
		c-31.438-1.285-53.496-20.781-52.45-46.353c1.396-34.139,40.732-71.285,97.881-92.438c0.638-0.235,1.308-0.338,1.969-0.311
		l0.938-22.936c0.115-2.8,2.478-4.978,5.28-4.863l73.572,3.009c2.726,0.111,4.872,2.359,4.867,5.078
		c0.021,0.001,0.044,0.002,0.064,0.003c31.438,1.286,53.498,20.78,52.452,46.353c-1.397,34.139-40.733,71.285-97.884,92.436
		c-0.636,0.237-1.308,0.34-1.969,0.311l-0.939,22.937c-0.113,2.803-2.475,4.979-5.274,4.865L82.46,175.309z M164.667,95.176
		c12.847,0.408,23.866-13.669,24.593-31.48c0.698-17.033-8.738-31.694-20.963-33.306c-13.761-1.814-25.195,14.649-25.883,31.389
		l18.354,0.751c2.803,0.114,4.979,2.479,4.864,5.278l-1.121,27.352C164.567,95.165,164.618,95.169,164.667,95.176z M122.509,86.47
		c-12.85-0.409-23.867,13.666-24.595,31.476c-0.697,17.036,8.741,31.696,20.964,33.31c13.762,1.813,25.199-14.651,25.883-31.39
		l-18.354-0.75c-2.801-0.116-4.979-2.479-4.864-5.28l1.119-27.349C122.609,86.48,122.559,86.476,122.509,86.47z"/>
	<path d="M128.775,61.222l2.16-52.822l73.572,3.009c-41.595,0.206-56.932,23.075-56.932,23.075l0.014-0.004
		c-5.886,6.624-9.855,17.573-10.245,27.094L128.775,61.222z M200.744,117.076l3.449-84.354c3.792-1.425,8.007-2.14,12.426-1.958
		c15.654,0.64,27.893,12.275,27.332,25.987c-0.334,8.206-5.166,15.317-12.37,19.528c-0.748,0.438-2.004,0.209-2.334-0.664
		c-0.36-0.94,0.447-2.318,1.24-2.957c2.188-1.762,8.038-7.437,8.394-16.115c0.436-10.653-9.637-20.184-22.47-20.708
		c-2.534-0.104-4.982,0.141-7.291,0.685l-3.305,80.767c-0.115,2.798-2.479,4.977-5.277,4.863l-37.066-1.518l-1.014,24.816
		c53.288-19.723,93.207-54.604,94.57-87.883c0.88-21.536-17.766-39.855-47.585-41.075c-24.828-1.015-40.596,8.856-40.596,8.856
		c14.983,1.628,26.304,18.53,25.486,38.559c-0.846,20.68-14.317,36.979-30.028,36.336c0,0-3.416-0.354-5.045-0.813l1.302-31.826
		l-74.128-3.033l-3.452,84.358c-3.791,1.424-8.007,2.137-12.423,1.957c-15.656-0.641-27.893-12.275-27.333-25.987
		c0.335-8.203,5.167-15.318,12.37-19.529c0.748-0.437,2.003-0.209,2.335,0.664c0.358,0.94-0.448,2.317-1.241,2.958
		c-2.191,1.761-8.039,7.438-8.394,16.114c-0.436,10.652,9.634,20.182,22.469,20.705c2.532,0.105,4.984-0.138,7.294-0.684
		l3.303-80.764c0.113-2.802,2.477-4.978,5.277-4.864l37.065,1.516l1.015-24.816C71.433,55.92,31.51,90.801,30.148,124.081
		c-0.881,21.538,17.766,39.858,47.586,41.077c24.827,1.017,40.595-8.857,40.595-8.857c-14.987-1.627-26.306-18.53-25.487-38.557
		c0.845-20.681,14.315-36.981,30.028-36.338c0,0,3.413,0.355,5.044,0.814l-1.303,31.826L200.744,117.076z M149.832,120.075
		c-0.391,9.521-4.359,20.47-10.245,27.093l0.014-0.005c0,0-15.336,22.869-56.932,23.074l73.573,3.012l2.16-52.823L149.832,120.075z"
		/>
</g>
</svg>
