<?xml version="1.0" encoding="UTF-8" standalone="no"?>
<!-- Generator: Adobe Illustrator 15.1.0, SVG Export Plug-In . SVG Version: 6.00 Build 0)  -->

<svg
   version="1.1"
   id="svg8"
   sodipodi:docname="T.svg"
   inkscape:version="1.1.1 (3bf5ae0d25, 2021-09-20)"
   x="0px"
   y="0px"
   width="250px"
   height="180px"
   viewBox="17.138 -0.294 250 180"
   enable-background="new 17.138 -0.294 250 180"
   xml:space="preserve"
   xmlns:inkscape="http://www.inkscape.org/namespaces/inkscape"
   xmlns:sodipodi="http://sodipodi.sourceforge.net/DTD/sodipodi-0.dtd"
   xmlns="http://www.w3.org/2000/svg"
   xmlns:svg="http://www.w3.org/2000/svg"><defs
   id="defs21" />
<sodipodi:namedview
   id="base"
   inkscape:window-y="-11"
   inkscape:guide-bbox="true"
   inkscape:window-height="986"
   inkscape:window-width="1920"
   inkscape:document-units="mm"
   inkscape:pageopacity="0.0"
   inkscape:window-x="-11"
   inkscape:current-layer="g18"
   inkscape:pageshadow="2"
   inkscape:cy="148.48"
   borderopacity="1.0"
   showguides="true"
   bordercolor="#666666"
   showgrid="false"
   inkscape:zoom="1.9262"
   pagecolor="#ffffff"
   inkscape:cx="162.5"
   inkscape:document-rotation="0"
   inkscape:pagecheckerboard="true"
   inkscape:window-maximized="1">
	</sodipodi:namedview>
<g
   id="g18">
	<path
   d="m 81.96,175.31 c -2.728,-0.11 -4.873,-2.36 -4.868,-5.08 -0.02,0 -0.04,0 -0.06,0 -31.438,-1.29 -53.496,-20.78 -52.45,-46.36 1.396,-34.134 40.732,-71.28 97.883,-92.433 0.64,-0.236 1.31,-0.338 1.97,-0.311 L 125.36,8.19 c 0.12,-2.801 2.48,-4.978 5.28,-4.863 l 73.58,3.009 c 2.72,0.112 4.87,2.36 4.86,5.078 0,10e-4 0,0 0.1,0 31.44,1.286 53.5,20.78 52.45,46.354 -1.4,34.139 -40.73,71.289 -97.88,92.439 -0.64,0.23 -1.31,0.34 -1.97,0.31 l -0.94,22.94 c -0.12,2.8 -2.48,4.97 -5.28,4.86 z m 82.21,-80.134 c 12.84,0.407 23.86,-13.669 24.59,-31.48 0.7,-17.033 -8.74,-31.694 -20.96,-33.306 -13.76,-1.814 -25.2,14.649 -25.89,31.39 l 18.36,0.75 c 2.8,0.114 4.98,2.478 4.86,5.279 l -1.12,27.35 c 0.1,0 0.11,0.01 0.16,0.02 z M 122.01,86.47 c -12.85,-0.409 -23.868,13.67 -24.596,31.48 -0.697,17.03 8.736,31.69 20.966,33.31 13.76,1.81 25.2,-14.65 25.88,-31.39 l -18.35,-0.75 c -2.8,-0.12 -4.98,-2.48 -4.87,-5.28 l 1.12,-27.353 c -0,-0 -0.1,-0.01 -0.15,-0.02 z"
   id="path3"
   style="fill:#ffffff;fill-opacity:1" />
	<linearGradient
   id="SVGID_1_"
   gradientUnits="userSpaceOnUse"
   x1="59.282"
   y1="51.745"
   x2="226.89"
   y2="129.9">
<stop
   style="stop-color:#612c75"
   offset="0"
   id="stop5" />
<stop
   style="stop-color:#7b5190"
   offset="0.3"
   id="stop7" />
<stop
   style="stop-color:#bf99c3"
   offset="0.5"
   id="stop9" />
<stop
   style="stop-color:#7b5190"
   offset="0.7"
   id="stop11" />
<stop
   style="stop-color:#612c75"
   offset="1"
   id="stop13" />
	</linearGradient>
	<path
   fill="url(#SVGID_1_)"
   d="m 128.28,61.222 2.15,-52.822 73.58,3.009 c -41.6,0.206 -56.94,23.075 -56.94,23.075 l 0,-0 c -5.89,6.624 -9.86,17.573 -10.25,27.094 z m 71.96,55.858 3.45,-84.358 c 3.79,-1.425 8.01,-2.14 12.43,-1.958 15.65,0.64 27.89,12.275 27.33,25.987 -0.33,8.206 -5.16,15.317 -12.37,19.528 -0.75,0.439 -2,0.21 -2.33,-0.663 -0.36,-0.94 0.44,-2.318 1.24,-2.957 2.19,-1.762 8.04,-7.438 8.39,-16.116 0.44,-10.653 -9.64,-20.183 -22.47,-20.708 -2.53,-0.104 -4.98,0.142 -7.29,0.685 l -3.3,80.77 c -0.12,2.8 -2.48,4.97 -5.28,4.86 l -37.07,-1.52 -1.01,24.82 c 53.29,-19.72 93.21,-54.606 94.57,-87.885 0.88,-21.536 -17.77,-39.854 -47.59,-41.075 -24.83,-1.015 -40.59,8.856 -40.59,8.856 14.98,1.628 26.3,18.53 25.48,38.559 -0.84,20.68 -14.31,36.975 -30.03,36.335 0,0 -3.41,-0.353 -5.04,-0.811 l 1.3,-31.826 -74.126,-3.033 -3.452,84.36 c -3.791,1.42 -8.007,2.14 -12.423,1.95 -15.656,-0.63 -27.893,-12.27 -27.333,-25.98 0.335,-8.21 5.167,-15.32 12.37,-19.53 0.749,-0.44 2.003,-0.21 2.335,0.66 0.358,0.94 -0.448,2.32 -1.241,2.96 -2.191,1.76 -8.039,7.44 -8.393,16.11 -0.437,10.66 9.634,20.19 22.469,20.71 2.531,0.1 4.984,-0.14 7.294,-0.68 l 3.303,-80.768 c 0.114,-2.802 2.477,-4.978 5.277,-4.864 l 37.06,1.517 1.02,-24.817 C 70.933,55.92 31.01,90.801 29.648,124.08 c -0.882,21.54 17.766,39.86 47.586,41.08 24.826,1.02 40.596,-8.86 40.596,-8.86 -14.99,-1.62 -26.307,-18.53 -25.488,-38.56 0.845,-20.677 14.318,-36.977 30.028,-36.335 0,0 3.41,0.355 5.05,0.815 l -1.31,31.83 z m -50.91,2.99 c -0.39,9.53 -4.36,20.47 -10.24,27.1 l 0,-0 c 0,0 -15.34,22.87 -56.931,23.08 l 73.571,3.01 2.16,-52.82 z"
   id="path16" />
</g>
</svg>
