<?xml version="1.0" encoding="UTF-8" standalone="no"?>
<!-- Generator: Adobe Illustrator 15.1.0, SVG Export Plug-In . SVG Version: 6.00 Build 0)  -->

<svg
   version="1.1"
   id="svg8"
   sodipodi:docname="WM.svg"
   inkscape:version="1.1.1 (3bf5ae0d25, 2021-09-20)"
   x="0px"
   y="0px"
   width="250px"
   height="180px"
   viewBox="17.138 -0.294 250 180"
   enable-background="new 17.138 -0.294 250 180"
   xml:space="preserve"
   xmlns:inkscape="http://www.inkscape.org/namespaces/inkscape"
   xmlns:sodipodi="http://sodipodi.sourceforge.net/DTD/sodipodi-0.dtd"
   xmlns="http://www.w3.org/2000/svg"
   xmlns:svg="http://www.w3.org/2000/svg"><defs
   id="defs10">
	
	
</defs>
<sodipodi:namedview
   id="base"
   inkscape:window-y="-11"
   inkscape:guide-bbox="true"
   inkscape:window-height="986"
   inkscape:window-width="1920"
   inkscape:document-units="mm"
   inkscape:pageopacity="0.0"
   inkscape:window-x="-11"
   inkscape:current-layer="svg8"
   inkscape:pageshadow="2"
   inkscape:cy="148.48"
   borderopacity="1.0"
   showguides="true"
   bordercolor="#666666"
   showgrid="false"
   inkscape:zoom="1.9262"
   pagecolor="#ffffff"
   inkscape:cx="162.5"
   inkscape:document-rotation="0"
   inkscape:pagecheckerboard="true"
   inkscape:window-maximized="1">
	</sodipodi:namedview>
<path
   id="path3"
   d="M 113.29 8.6934 L 111.14 61.516 L 119.68 61.871 C 120.07 52.35 124.04 41.401 129.93 34.777 C 129.93 34.777 145.27 11.909 186.87 11.703 L 113.29 8.6934 z M 187.25 16.717 C 165.06 16.965 151.21 25.641 151.21 25.641 C 166.19 27.269 177.51 44.17 176.69 64.199 C 175.85 84.879 162.38 101.17 146.66 100.53 C 146.66 100.53 143.25 100.18 141.62 99.723 L 142.92 67.896 L 68.797 64.863 L 65.344 149.22 C 61.553 150.64 57.338 151.36 52.922 151.17 C 37.266 150.54 25.028 138.9 25.588 125.19 C 25.923 116.98 30.754 109.87 37.957 105.66 C 38.706 105.22 39.961 105.45 40.293 106.32 C 40.651 107.26 39.846 108.64 39.053 109.28 C 36.862 111.04 31.012 116.72 30.658 125.39 C 30.221 136.05 40.294 145.58 53.129 146.1 C 55.66 146.2 58.112 145.96 60.422 145.42 L 63.725 64.656 C 63.839 61.854 66.202 59.679 69.002 59.793 L 106.06 61.309 L 107.08 36.492 C 53.795 56.214 13.872 91.094 12.51 124.37 C 11.628 145.91 30.276 164.23 60.096 165.45 C 84.922 166.47 100.69 156.59 100.69 156.59 C 85.701 154.97 74.384 138.06 75.203 118.03 C 76.048 97.356 89.522 81.057 105.23 81.699 C 105.23 81.699 108.64 82.054 110.28 82.514 L 108.97 114.34 L 183.1 117.37 L 186.55 33.016 C 190.34 31.591 194.56 30.877 198.98 31.059 C 214.63 31.699 226.87 43.333 226.31 57.045 C 225.98 65.251 221.15 72.361 213.94 76.572 C 213.19 77.011 211.94 76.783 211.61 75.91 C 211.25 74.97 212.05 73.592 212.85 72.953 C 215.04 71.191 220.89 65.516 221.24 56.838 C 221.68 46.185 211.6 36.654 198.77 36.129 C 196.24 36.025 193.79 36.271 191.48 36.814 L 188.18 117.58 C 188.06 120.38 185.7 122.55 182.9 122.44 L 145.83 120.92 L 144.82 145.74 C 198.11 126.02 238.03 91.138 239.39 57.859 C 240.27 36.323 221.62 18.004 191.8 16.783 C 190.25 16.72 188.73 16.7 187.25 16.717 z M 132.19 120.36 C 131.8 129.89 127.83 140.83 121.95 147.46 C 121.95 147.46 106.61 170.33 65.021 170.54 L 138.59 173.55 L 140.75 120.73 L 132.19 120.36 z "
   transform="translate(17.138,-0.294)" />
</svg>
