<?xml version="1.0" encoding="UTF-8"?>
<svg xmlns="http://www.w3.org/2000/svg" width="162.86557" height="203.47" viewBox="0 0 162.86557 203.47" version="1.1">
  <g>
    <path fill="#808080" d=" M 53.08 46.96 C 58.58 31.55 63.72 16.01 69.12 0.56 C 70.82 22.33 74.50 44.20 72.02 66.06 C 71.30 73.18 68.96 80.13 65.13 86.18 C 57.76 98.37 45.50 107.03 39.29 119.96 C 41.26 121.58 43.29 123.13 45.52 124.36 C 57.63 131.52 70.98 137.00 81.31 146.81 C 93.56 135.12 110.28 130.10 123.59 119.98 C 117.77 107.70 106.36 99.34 98.99 88.08 C 94.48 81.54 91.63 73.89 90.86 65.97 C 88.41 44.14 92.06 22.31 93.77 0.56 C 99.29 16.31 104.49 32.16 110.14 47.85 C 112.56 54.68 115.43 61.44 119.67 67.36 C 127.00 77.38 137.69 84.02 146.91 92.09 C 154.89 99.39 162.31 108.79 162.81 120.05 C 163.42 129.04 158.94 137.55 152.74 143.77 C 136.11 160.63 110.94 166.20 95.84 184.88 C 90.88 190.22 88.76 197.29 86.46 204.02 C 83.10 204.03 79.74 204.03 76.39 204.03 C 74.47 198.69 73.06 193.04 69.72 188.36 C 66.55 183.89 62.76 179.87 58.56 176.36 C 44.40 164.64 26.40 158.58 12.70 146.24 C 6.05 140.31 0.67 132.33 0.00 123.23 L 0.00 119.76 C 0.55 111.82 4.53 104.56 9.64 98.61 C 18.03 88.53 29.93 82.30 38.75 72.66 C 45.78 65.58 49.82 56.24 53.08 46.96 M 66.01 26.54 C 61.70 38.38 58.28 50.59 52.84 61.98 C 47.63 73.31 38.11 81.79 28.42 89.27 C 21.98 94.13 15.62 99.35 10.96 106.02 C 6.88 111.69 4.35 118.94 5.95 125.94 C 7.70 133.67 13.41 139.72 19.42 144.52 C 32.79 154.95 49.05 160.99 62.08 171.90 C 70.38 178.86 77.48 187.71 80.25 198.37 C 80.85 198.37 82.05 198.37 82.64 198.37 C 84.71 191.03 88.46 184.23 93.75 178.71 C 106.69 164.08 125.66 157.48 141.19 146.26 C 147.86 141.32 154.39 135.17 156.70 126.93 C 158.85 119.43 156.04 111.51 151.53 105.46 C 143.17 93.80 129.82 87.32 120.30 76.78 C 107.08 63.10 103.46 43.71 96.88 26.53 C 95.91 35.99 95.21 45.50 95.59 55.01 C 95.88 63.12 96.36 71.55 100.09 78.93 C 106.96 93.01 120.91 102.10 127.81 116.12 C 129.14 118.87 129.30 122.60 126.67 124.65 C 120.80 129.82 113.48 132.89 106.75 136.75 C 97.55 141.85 87.67 146.84 81.27 155.49 C 73.59 145.06 61.28 139.82 50.33 133.62 C 44.98 130.52 38.93 128.00 34.92 123.12 C 32.64 118.73 35.98 114.06 38.31 110.43 C 47.26 97.57 61.22 87.65 65.42 71.90 C 68.53 57.00 67.47 41.59 66.01 26.54 Z"/>
    <path d=" M 66.01 26.54 C 67.47 41.59 68.53 57.00 65.42 71.90 C 61.22 87.65 47.26 97.57 38.31 110.43 C 35.98 114.06 32.64 118.73 34.92 123.12 C 38.93 128.00 44.98 130.52 50.33 133.62 C 61.28 139.82 73.59 145.06 81.27 155.49 C 87.67 146.84 97.55 141.85 106.75 136.75 C 113.48 132.89 120.80 129.82 126.67 124.65 C 129.30 122.60 129.14 118.87 127.81 116.12 C 120.91 102.10 106.96 93.01 100.09 78.93 C 96.36 71.55 95.88 63.12 95.59 55.01 C 95.21 45.50 95.91 35.99 96.88 26.53 C 103.46 43.71 107.08 63.10 120.30 76.78 C 129.82 87.32 143.17 93.80 151.53 105.46 C 156.04 111.51 158.85 119.43 156.70 126.93 C 154.39 135.17 147.86 141.32 141.19 146.26 C 125.66 157.48 106.69 164.08 93.75 178.71 C 88.46 184.23 84.71 191.03 82.64 198.37 C 82.05 198.37 80.85 198.37 80.25 198.37 C 77.48 187.71 70.38 178.86 62.08 171.90 C 49.05 160.99 32.79 154.95 19.42 144.52 C 13.41 139.72 7.70 133.67 5.95 125.94 C 4.35 118.94 6.88 111.69 10.96 106.02 C 15.62 99.35 21.98 94.13 28.42 89.27 C 38.11 81.79 47.63 73.31 52.84 61.98 C 58.28 50.59 61.70 38.38 66.01 26.54 Z"/>
  </g>
</svg>
