<?xml version="1.0" encoding="UTF-8"?>
<svg xmlns="http://www.w3.org/2000/svg" width="162.86557" height="203.47" viewBox="0 0 162.86557 203.47" version="1.1">
    <path d=" M 66.01 26.54 C 67.47 41.59 68.53 57.00 65.42 71.90 C 61.22 87.65 47.26 97.57 38.31 110.43 C 35.98 114.06 32.64 118.73 34.92 123.12 C 38.93 128.00 44.98 130.52 50.33 133.62 C 61.28 139.82 73.59 145.06 81.27 155.49 C 87.67 146.84 97.55 141.85 106.75 136.75 C 113.48 132.89 120.80 129.82 126.67 124.65 C 129.30 122.60 129.14 118.87 127.81 116.12 C 120.91 102.10 106.96 93.01 100.09 78.93 C 96.36 71.55 95.88 63.12 95.59 55.01 C 95.21 45.50 95.91 35.99 96.88 26.53 C 103.46 43.71 107.08 63.10 120.30 76.78 C 129.82 87.32 143.17 93.80 151.53 105.46 C 156.04 111.51 158.85 119.43 156.70 126.93 C 154.39 135.17 147.86 141.32 141.19 146.26 C 125.66 157.48 106.69 164.08 93.75 178.71 C 88.46 184.23 84.71 191.03 82.64 198.37 C 82.05 198.37 80.85 198.37 80.25 198.37 C 77.48 187.71 70.38 178.86 62.08 171.90 C 49.05 160.99 32.79 154.95 19.42 144.52 C 13.41 139.72 7.70 133.67 5.95 125.94 C 4.35 118.94 6.88 111.69 10.96 106.02 C 15.62 99.35 21.98 94.13 28.42 89.27 C 38.11 81.79 47.63 73.31 52.84 61.98 C 58.28 50.59 61.70 38.38 66.01 26.54 Z"/>
</svg>
