<?xml version="1.0"?>
<svg xmlns="http://www.w3.org/2000/svg" width="491.98343pt" height="465.56036pt" viewBox="0 0 491.98343 465.56036" version="1.1">
  <linearGradient x1="0" y1="465.56036" x2="491.98343" y2="0" id="linearGradient400" gradientUnits="userSpaceOnUse" spreadMethod="pad">
    <stop offset="0.1" style="stop-color:#bf331c"/>
    <stop offset="0.5" style="stop-color:#f6b91d"/>
    <stop offset="0.9" style="stop-color:#bf331c"/>
  </linearGradient>
  <path d="M 141.02733,0.01935797 C 120.64574,-0.30409354 100.11842,3.417237 81.376939,11.831858 l -0.1875,0.08399 -0.181641,0.09375 C 74.955271,15.148212 67.850199,18.152625 61.179674,23.234202 53.1587,28.236611 46.812727,34.328726 40.591783,39.513499 l -0.214844,0.179687 -0.201172,0.195313 C 20.756845,58.778883 8.8017277,83.44028 2.7206886,108.68538 l -0.03125,0.13086 -0.025391,0.13086 c -4.3739406,21.61633 -2.89422943,43.57518 1.0625,64.46679 l 0.03125,0.16406 0.037109,0.16211 c 5.104401,21.52226 13.8190434,41.94924 24.5546874,61.04883 l 0.03516,0.0645 0.03711,0.0644 c 14.776324,25.08711 32.146195,48.3398 49.699216,71.08204 l 0.07227,0.0937 0.07617,0.0918 c 6.777586,8.21235 13.588942,16.35137 20.351563,24.50976 l 0.0957,0.11328 0.09766,0.10938 c 33.694127,37.44387 69.878977,73.09395 109.751957,104.72851 0.008,0.007 0.017,0.0128 0.0254,0.0195 0.001,0.001 0.002,0.003 0.004,0.004 10.882,8.72276 21.83807,17.09178 32.11133,25.91016 l 4.63867,3.98047 4.72071,-3.88086 c 13.9933,-11.50102 29.35822,-22.04271 44.04882,-34.01953 l 0.0215,-0.0176 c 17.36789,-13.56622 33.5935,-28.25157 49.38086,-43.18164 l 0.0371,-0.0352 c 16.92306,-15.62532 32.40428,-32.36891 47.81445,-48.84375 l 0.10938,-0.11523 0.10156,-0.11914 c 18.81945,-21.96071 36.96804,-44.64519 53.2539,-68.72071 22.23364,-30.97023 39.45786,-66.35148 45.16591,-104.57417 l 0.0117,-0.0781 0.01,-0.0762 c 2.5082,-19.66221 3.43472,-40.56758 -2.3125,-60.90039 -5.75165,-22.229546 -17.9895,-42.209023 -33.47678,-58.77734 l -0.0273,-0.0293 -0.0254,-0.02734 C 436.79486,23.956178 413.94137,11.598676 389.87108,4.9236548 372.98382,0.00141831 355.46027,-0.69270339 338.56054,0.59357672 l -0.0684,0.005859 -0.0684,0.005859 C 312.25711,3.0933898 287.22929,13.473411 266.92577,29.503733 258.89882,35.488943 252.08805,42.50958 245.95702,49.806468 224.75956,24.732826 194.67336,6.6654475 161.30858,1.6697486 l -0.01,-0.00195 h -0.01 C 154.59943,0.6850691 147.8212,0.12717514 141.02733,0.01935797 Z" id="path832"/>
  <path style="fill:url(#linearGradient400)" d="m 140.81249,14.575999 c 6.14638,0.0944 12.28908,0.59662 18.35938,1.488281 6.3e-4,9.4e-5 10e-4,-9.4e-5 0.002,0 32.34216,4.848487 61.9177,23.787901 80.95703,49.607422 l 5.70312,7.734375 5.89844,-7.587891 c 7.23897,-9.315302 14.93098,-17.985932 23.94922,-24.697265 l 0.0859,-0.06445 0.084,-0.06641 c 18.12378,-14.336499 40.64187,-23.667233 63.88477,-25.890625 15.72318,-1.190838 31.47622,-0.464568 46.09179,3.800782 l 0.0488,0.01367 0.0488,0.01367 c 21.89532,6.062314 42.44538,17.291886 57.70117,33.257813 14.11188,15.104843 25.00079,33.093372 30.01367,52.523439 l 0.0215,0.084 0.0234,0.084 c 4.93322,17.39069 4.3008,36.29539 1.9082,55.09375 -5.2868,35.30496 -21.39243,68.69227 -42.66602,98.29492 l -0.0605,0.084 -0.0586,0.0859 c -15.82923,23.40488 -33.60036,45.64034 -52.17968,67.32617 -15.4193,16.4854 -30.64297,32.92666 -46.98047,48.00781 l -0.0332,0.0293 -0.0312,0.0293 c -15.65832,14.80981 -31.57848,29.20731 -48.42578,42.36524 l -0.0605,0.0469 -0.0606,0.0488 c -12.59692,10.27937 -26.2137,19.94276 -39.45703,30.46875 -9.27232,-7.72758 -18.71793,-15.09437 -27.91211,-22.46484 l -0.0156,-0.0117 -0.0137,-0.0117 C 178.59744,393.29804 142.99732,358.25498 109.71093,321.27131 102.98906,313.16296 96.255468,305.11646 89.58983,297.04085 72.163215,274.46083 55.209626,251.7116 40.99022,227.57795 30.825319,209.47984 22.714954,190.3557 17.994127,170.52327 14.296688,150.91692 13.083286,130.94845 16.910142,111.93928 22.476253,88.934518 33.305946,66.932475 50.210924,50.435374 56.795776,44.928154 62.61694,39.482745 68.890611,35.572093 l 0.333984,-0.208985 0.310547,-0.242187 c 4.769186,-3.746 11.08477,-6.535696 17.876953,-10.042969 16.551055,-7.41679 34.986295,-10.784753 53.400395,-10.501953 z"/>
</svg>
