<svg xmlns="http://www.w3.org/2000/svg" width="491.98343pt" height="465.56036pt" viewBox="0 0 491.98343 465.56036" version="1.1">
  <path d="m 140.81249,14.575999 c 6.14638,0.0944 12.28908,0.59662 18.35938,1.488281 6.3e-4,9.4e-5 10e-4,-9.4e-5 0.002,0 32.34216,4.848487 61.9177,23.787901 80.95703,49.607422 l 5.70312,7.734375 5.89844,-7.587891 c 7.23897,-9.315302 14.93098,-17.985932 23.94922,-24.697265 l 0.0859,-0.06445 0.084,-0.06641 c 18.12378,-14.336499 40.64187,-23.667233 63.88477,-25.890625 15.72318,-1.190838 31.47622,-0.464568 46.09179,3.800782 l 0.0488,0.01367 0.0488,0.01367 c 21.89532,6.062314 42.44538,17.291886 57.70117,33.257813 14.11188,15.104843 25.00079,33.093372 30.01367,52.523439 l 0.0215,0.084 0.0234,0.084 c 4.93322,17.39069 4.3008,36.29539 1.9082,55.09375 -5.2868,35.30496 -21.39243,68.69227 -42.66602,98.29492 l -0.0605,0.084 -0.0586,0.0859 c -15.82923,23.40488 -33.60036,45.64034 -52.17968,67.32617 -15.4193,16.4854 -30.64297,32.92666 -46.98047,48.00781 l -0.0332,0.0293 -0.0312,0.0293 c -15.65832,14.80981 -31.57848,29.20731 -48.42578,42.36524 l -0.0605,0.0469 -0.0606,0.0488 c -12.59692,10.27937 -26.2137,19.94276 -39.45703,30.46875 -9.27232,-7.72758 -18.71793,-15.09437 -27.91211,-22.46484 l -0.0156,-0.0117 -0.0137,-0.0117 C 178.59744,393.29804 142.99732,358.25498 109.71093,321.27131 102.98906,313.16296 96.255468,305.11646 89.58983,297.04085 72.163215,274.46083 55.209626,251.7116 40.99022,227.57795 30.825319,209.47984 22.714954,190.3557 17.994127,170.52327 14.296688,150.91692 13.083286,130.94845 16.910142,111.93928 22.476253,88.934518 33.305946,66.932475 50.210924,50.435374 56.795776,44.928154 62.61694,39.482745 68.890611,35.572093 l 0.333984,-0.208985 0.310547,-0.242187 c 4.769186,-3.746 11.08477,-6.535696 17.876953,-10.042969 16.551055,-7.41679 34.986295,-10.784753 53.400395,-10.501953 z"/>
</svg>
