<?xml version="1.0" encoding="UTF-8" standalone="no"?>
<svg xmlns="http://www.w3.org/2000/svg" version="1.1" width="600" height="320.00342">
  <path d="M 39.865234 0 C 14.508164 47.098103 -4.7369516e-015 101.73573 0 160.00195 C 0 218.26817 14.508164 272.90581 39.865234 320.00391 L 560.13477 320.00391 C 585.49184 272.90581 600 218.26817 600 160.00195 C 600 101.73573 585.48544 47.098103 560.13477 0 L 39.865234 0 z M 51.794922 19.001953 L 64.052734 19.001953 L 535.95508 19.001953 L 548.21094 19.001953 L 553.25977 30.164062 C 571.66637 70.849297 580.99805 114.53586 580.99805 160.00195 C 580.99805 206.27444 571.33339 250.678 552.26758 291.96484 L 547.17383 303.00391 L 535.01953 303.00391 L 64.980469 303.00391 L 52.826172 303.00391 L 47.732422 291.96484 C 28.673019 250.678 19.001953 206.27444 19.001953 160.00195 C 19.001953 114.53586 28.333637 70.848756 46.740234 30.169922 L 51.794922 19.001953 z M 64.052734 37.998047 C 47.367755 74.888041 38.003906 116.27668 38.003906 160.00195 C 38.003906 187.19536 41.633274 213.47629 48.386719 238.33594 C 57.505258 229.19697 64.187658 217.41016 69.953125 201.4043 C 76.487594 183.29211 80.921857 165.82008 89.152344 149.1543 C 91.232367 144.94306 96.28184 141.62152 101.75391 144.25195 C 105.61315 146.10797 109.44782 148.23124 113.67188 150.16406 C 118.11352 152.19928 119.03468 156.05193 117.00586 160.80078 C 111.1434 174.49052 103.86703 187.59227 99.175781 201.66602 C 94.510132 215.66937 93.838513 232.00256 110.33789 236.3418 L 110.33789 249.33984 C 83.292181 246.06737 65.778188 249.07658 54.001953 256.62109 C 57.219023 265.99176 60.884714 275.13205 64.980469 284.00391 L 535.01953 284.00391 C 552.28051 246.61471 562.00195 204.52722 562.00195 160.00195 C 562.00195 116.27028 552.64006 74.888041 535.95508 37.998047 L 64.052734 37.998047 z M 499.53125 48.78125 L 527.55078 64.25 C 521.25951 83.539805 525.52197 106.27368 524.98438 143.33008 L 540.28125 143.32422 L 545.55469 138.6582 L 551.10352 145.82617 C 551.10352 145.82617 544.45415 159.14454 540.0957 165.94141 C 531.49401 163.70139 530.36147 164.14283 524.44141 164.64844 C 523.09099 175.88056 526.46875 209.17383 526.46875 209.17383 C 526.46875 209.17383 512.1211 207.55551 494.41211 217.23242 C 495.74332 205.7955 497.88607 176.42542 496.41406 164.24609 C 486.40435 164.7133 462.18102 166.1392 439.30078 169.11523 L 427.25 160.41211 C 427.92841 161.26972 495.87681 98.253778 499.53125 48.78125 z M 237.12305 54.369141 C 252.99522 62.158024 283.49678 61.991623 291.16406 54.369141 C 294.45369 57.754777 298.91485 60.705024 304.66211 63.15625 C 300.70047 71.732341 298.96674 87.143128 306.66602 102.99609 C 323.83101 138.33087 334.16713 159.15654 345.18164 186.96484 C 348.54168 195.44493 349.91149 208.75667 352.66992 215.33594 C 357.87958 227.77767 372.74705 230.87672 387 243.66406 C 384.36317 248.17611 382.24434 252.84037 380.66992 257.66602 C 339.99749 244.64828 306.55658 243.67543 284.50195 261.66602 C 279.67629 257.58918 275.13288 253.30904 270.83203 248.8418 C 275.94568 243.61934 282.27587 239.19029 288.83594 233.83984 C 298.23124 226.17895 300.4072 214.755 292.00391 198.16602 C 282.391 179.19622 274.45365 158.6261 263.83594 138.33789 C 260.9559 132.82743 255.97676 134.5291 251.00391 139.50195 C 244.98784 136.39792 239.02916 131.80248 235.16992 124.5 C 233.4099 121.15916 232.96871 116.97488 235.83594 114.49805 C 241.3336 109.7492 246.17288 103.38746 251.17773 95.425781 C 253.75056 91.342538 253.66738 87.661027 249.74414 84.275391 C 243.86887 79.200137 235.93291 74.323986 226 70.119141 C 229.72484 65.600693 233.43661 60.692409 237.12305 54.369141 z M 415.25586 56.160156 L 415.25586 165.75586 L 387.83789 193.16602 L 387.83789 93.837891 L 360.00391 93.837891 L 360.00391 82.335938 C 380.68253 74.758257 399.61409 66.297864 415.25586 56.160156 z M 97 60.5 L 163.66211 63.001953 C 170.49738 82.33656 188.99343 109.83767 210.66406 135.50195 C 212.80808 133.96593 214.37009 131.94968 216.16211 130.16406 C 219.19574 127.14963 222.86333 127.64228 225.66016 130.00391 C 229.6346 133.35114 233.4741 137.76755 236.99414 143.31641 C 238.83096 146.21564 238.79256 149.22992 236.99414 151.50195 C 230.41487 159.82844 226.45967 170.80477 232.99414 191.8418 C 239.48381 206.77956 244.45609 222.0305 248.32812 237.50586 C 229.44153 246.71556 215.51538 258.60026 207.49609 273.66602 C 200.69282 271.9636 194.511 269.10439 188.99414 265.00195 C 192.82778 258.67228 192.9558 248.41207 189.82617 235.83594 C 178.52365 190.40825 160.44317 152.39245 141.32617 125.16016 C 138.31814 120.88491 134.08133 119.84731 131.66211 124.66016 C 130.37569 127.22659 127.80327 132.35926 126.66406 134.99609 C 125.11525 138.58013 122.08127 140.57822 117.16602 138.6582 C 113.49878 137.23098 106.43255 133.67852 103.16211 131.49609 C 98.285257 128.25126 97.844104 123.55999 99.828125 119.33594 C 103.31616 111.90546 106.7024 104.29464 109.83203 96.160156 C 115.57929 81.247997 103.75134 79.341113 87.667969 77.337891 C 88.999183 71.001824 92.500752 65.24885 97 60.5 z M 497.09961 103.9375 C 497.09961 103.9375 479.63304 131.54778 466.8457 144.13672 C 470.90335 145.55753 497.09961 143.93164 497.09961 143.93164 C 497.09961 143.93164 498.11083 121.60169 497.09961 103.9375 z "/>
</svg>
