<?xml version="1.0" encoding="UTF-8" standalone="no"?>
<!-- Generator: Adobe Illustrator 15.1.0, SVG Export Plug-In . SVG Version: 6.00 Build 0)  -->

<svg
   version="1.1"
   id="Layer_1"
   x="0px"
   y="0px"
   width="367.25"
   height="450"
   viewBox="0 0 367.25 450"
   enable-background="new 0 0 375 460"
   xml:space="preserve"
   sodipodi:docname="80.svg"
   inkscape:version="1.1.1 (3bf5ae0d25, 2021-09-20)"
   xmlns:inkscape="http://www.inkscape.org/namespaces/inkscape"
   xmlns:sodipodi="http://sodipodi.sourceforge.net/DTD/sodipodi-0.dtd"
   xmlns="http://www.w3.org/2000/svg"
   xmlns:svg="http://www.w3.org/2000/svg"><defs
   id="defs13" /><sodipodi:namedview
   id="namedview11"
   pagecolor="#ffffff"
   bordercolor="#666666"
   borderopacity="1.0"
   inkscape:pageshadow="2"
   inkscape:pageopacity="0.0"
   inkscape:pagecheckerboard="0"
   showgrid="false"
   inkscape:zoom="1.563"
   inkscape:cx="183.62"
   inkscape:cy="224.56"
   inkscape:window-width="1920"
   inkscape:window-height="986"
   inkscape:window-x="-11"
   inkscape:window-y="-11"
   inkscape:window-maximized="1"
   inkscape:current-layer="Layer_1" />
<g
   id="g8"
   transform="translate(-3.891,-5.193)">
	<path
   fill="#808080"
   d="m 229.03,438.27 v -3.9 c 11.41,-2.55 22.23,-14.25 22.23,-14.25 v -1.6 c 12.57,-3.13 23.92,-19.25 23.92,-19.25 v -4.74 l 4.78,-4.12 c 34.96,-30.22 60.32,-66.71 75.09,-126.68 0,0 -14.47,2.3 -23.03,-7.2 3.3,-6.85 6.34,-16.07 6.32,-29.11 16.48,-12.8 23.18,-34.29 19.66,-63.71 l -0.63,-5.3 c 3.99,-4.98 6.83,-9.86 8.6,-14.69 3.35,-9.2 5.17,-18.48 5.17,-27.76 0,-26.287 -9.73,-43.72 -9.73,-43.72 -3.34,3.678 -8.23,7.229 -8.23,7.229 V 62.594 C 326.27,40.52 274.66,24.304 225.36,18.926 c 0,0 -12.98,-13.733 -37.84,-13.733 -24.87,0 -37.85,13.733 -37.85,13.733 -49.3,5.378 -100.9,21.594 -127.816,43.668 v 16.875 c 0,0 -4.891,-3.551 -8.218,-7.229 0,0 -9.745,17.433 -9.745,43.72 0,9.28 1.824,18.55 5.177,27.76 1.765,4.83 4.608,9.71 8.603,14.69 l -0.633,5.3 c -3.522,29.42 3.171,50.91 19.657,63.7 -0.02,13.05 3.021,22.27 6.333,29.12 -8.569,9.5 -23.038,7.2 -23.038,7.2 14.763,59.97 40.12,96.46 75.089,126.68 l 4.772,4.12 v 4.74 c 0,0 11.349,16.12 23.919,19.25 v 1.59 c 0,0 10.82,11.71 22.23,14.26 v 3.9 c 0,0 15.45,16.92 41.51,16.92 26.07,0 41.52,-16.92 41.52,-16.92 z"
   id="path2" />
	<path
   d="m 151.72,289.68 c -5.64,-6.25 -9.75,-10.48 -12.34,-12.69 l -0.3,-0.27 -0.62,-0.54 c -5.29,-4.53 -11.81,-8.42 -26.67,-8.42 -13.973,0 -32.148,-0.67 -38.589,-2.63 -13.398,-4.42 -20.621,-16.42 -21.671,-36.01 13.909,6.9 29.338,11.42 46.288,13.56 6.062,0.56 5.612,-4.67 0.701,-5.88 -27.02,-7.67 -44.337,-14.45 -51.955,-20.37 -12.861,-9.57 -17.833,-26.56 -14.913,-50.97 19.591,15.39 35.989,25.85 49.19,31.36 9.883,4.68 11.347,-3.14 0,-9.03 C 47.196,168.71 27.883,152.34 22.897,138.67 17.911,125 17.267,111.34 20.97,97.693 c 33.739,27.317 65.421,48.667 95.04,64.057 5.44,2.86 8.84,5.36 10.17,7.49 1.81,3.31 1.91,8.02 1.91,12.54 0,21.26 27.12,44.45 59.42,44.45 h 0.97 c 31.87,-0.46 58.45,-23.41 58.45,-44.45 0,-4.52 0.1,-9.23 1.91,-12.54 1.33,-2.13 4.72,-4.63 10.17,-7.49 29.62,-15.39 61.3,-36.74 95.04,-64.056 3.71,13.646 3.07,27.306 -1.92,40.976 -4.98,13.67 -24.31,30.04 -57.95,49.13 -11.34,5.88 -9.88,13.7 0,9.03 13.2,-5.52 29.6,-15.98 49.19,-31.37 2.92,24.41 -2.05,41.4 -14.92,50.97 -7.61,5.92 -24.93,12.71 -51.95,20.37 -4.91,1.21 -5.36,6.44 0.71,5.88 16.95,-2.14 32.37,-6.66 46.29,-13.56 -1.06,19.59 -8.28,31.59 -21.68,36.01 -4.25,1.3 -13.61,2.03 -23.51,2.38 l -1.8,0.1 c -4.52,0.15 -9.09,0.2 -13.28,0.2 -15.74,0 -22.12,4.35 -27.59,9.23 -2.59,2.21 -6.7,6.44 -12.33,12.69 -2,-19.74 -13.93,-30.32 -35.8,-31.75 -21.87,1.43 -33.8,12.01 -35.79,31.75 z"
   id="path4" />
	<path
   d="m 161.31,432.08 -0.59,-0.52 V 295.78 c 0,-17.86 8.93,-27.48 26.79,-28.84 l 0.73,0.1 c 17.38,1.57 26.07,11.16 26.07,28.78 V 431.6 l -0.6,0.52 c -6.61,5.59 -15.34,8.39 -26.2,8.39 -10.85,0 -19.59,-2.8 -26.2,-8.39 z M 138.49,291.49 c 4.41,4.68 8.82,9.97 13.22,15.86 v 113.09 c -4.83,-0.55 -9.24,-2.73 -13.22,-6.57 z m 98.04,0 v 122.38 c -3.98,3.84 -8.38,6.02 -13.22,6.57 V 307.35 c 4.4,-5.89 8.82,-11.18 13.22,-15.86 z M 114.57,278.87 c 4.5,0 9.01,1.41 13.52,4.22 V 404.4 c -5.28,-2.09 -9.78,-5.5 -13.52,-10.24 V 278.87 Z m 145.88,0 v 115.29 c -3.74,4.74 -8.24,8.15 -13.52,10.24 V 283.09 c 4.51,-2.81 9.01,-4.22 13.52,-4.22 z M 54.393,265.95 c 3.826,5.98 8.321,9.41 13.489,10.27 5.168,0.86 17.442,1.75 36.818,2.65 v 100.4 C 71.824,350.85 49.741,316.15 38.456,275.14 c 6.46,-0.28 11.773,-3.35 15.939,-9.19 v 0 z m 266.227,0 c 4.18,5.85 9.49,8.91 15.95,9.19 -11.29,41.01 -33.37,75.71 -66.25,104.13 v -100.4 c 19.37,-0.9 31.65,-1.79 36.82,-2.65 5.17,-0.86 9.67,-4.29 13.48,-10.27 z m -159.34,-55.94 -0.57,-0.4 V 28.769 c 6.22,-5.713 14.51,-8.662 24.89,-8.859 h 0.95 0.96 0.96 0.95 c 10.39,0.198 18.68,3.146 24.89,8.859 V 209.61 l -0.57,0.4 c -6.19,4.28 -14.93,6.42 -26.23,6.42 -11.29,0 -20.03,-2.14 -26.22,-6.42 v 0 z M 151.72,53.124 V 203.03 c -6.35,-4.61 -10.75,-12.66 -13.23,-24.16 V 74.574 c 1.95,-10.248 6.36,-17.398 13.22,-21.445 z m 71.59,0 c 6.86,4.052 11.27,11.202 13.22,21.45 V 178.87 c -2.47,11.5 -6.88,19.55 -13.22,24.17 V 53.128 Z m -95.22,35.525 v 68.661 c -4.48,-3.05 -8.98,-6.05 -13.52,-9.01 v -37.48 c 0,-10.46 4.5,-17.838 13.52,-22.171 z m 118.84,0 c 9.02,4.333 13.52,11.711 13.52,22.161 v 37.49 c -4.54,2.96 -9.04,5.96 -13.52,9.01 z M 151.72,33.511 v 9.013 c -13.89,6.196 -21.77,17.416 -23.63,33.645 -15.48,8.169 -23.2,18.813 -23.16,31.921 v 0.69 35.01 C 80.888,130.48 58.834,115.99 38.792,100.31 L 36.573,98.563 V 70.486 C 65.97,50.957 104.35,38.626 151.72,33.511 Z m 71.59,0 c 47.37,5.12 85.75,17.446 115.15,36.976 v 28.077 l -2.23,1.746 c -20.04,15.68 -42.09,30.18 -66.15,43.48 v -35.01 -0.69 c 0,-13.107 -7.68,-23.751 -23.15,-31.92 -1.87,-16.229 -9.74,-27.439 -23.63,-33.645 v -9.014 z"
   id="path6" />
</g>
</svg>
