<?xml version="1.0" encoding="UTF-8" standalone="no"?>
<!-- Generator: Adobe Illustrator 15.1.0, SVG Export Plug-In . SVG Version: 6.00 Build 0)  -->

<svg
   version="1.1"
   id="Layer_1"
   x="0px"
   y="0px"
   width="367.25"
   height="450"
   viewBox="0 0 367.25 450"
   enable-background="new 0 0 375 460"
   xml:space="preserve"
   sodipodi:docname="M.svg"
   inkscape:version="1.1.1 (3bf5ae0d25, 2021-09-20)"
   xmlns:inkscape="http://www.inkscape.org/namespaces/inkscape"
   xmlns:sodipodi="http://sodipodi.sourceforge.net/DTD/sodipodi-0.dtd"
   xmlns="http://www.w3.org/2000/svg"
   xmlns:svg="http://www.w3.org/2000/svg"><defs
   id="defs50" /><sodipodi:namedview
   id="namedview48"
   pagecolor="#ffffff"
   bordercolor="#666666"
   borderopacity="1.0"
   inkscape:pageshadow="2"
   inkscape:pageopacity="0.0"
   inkscape:pagecheckerboard="0"
   showgrid="false"
   inkscape:zoom="1.563"
   inkscape:cx="182.98"
   inkscape:cy="224.56"
   inkscape:window-width="1920"
   inkscape:window-height="986"
   inkscape:window-x="-11"
   inkscape:window-y="-11"
   inkscape:window-maximized="1"
   inkscape:current-layer="Layer_1" />
<g
   id="g45"
   transform="translate(-4.337,-5.057)">
	<path
   d="m 229.48,438.14 v -3.9 c 11.41,-2.55 22.23,-14.26 22.23,-14.26 v -1.59 c 12.57,-3.13 23.92,-19.26 23.92,-19.26 v -4.74 l 4.77,-4.12 c 34.97,-30.22 60.33,-66.7 75.09,-126.68 0,0 -14.46,2.3 -23.03,-7.19 3.31,-6.86 6.34,-16.07 6.32,-29.12 16.49,-12.8 23.18,-34.28 19.67,-63.71 l -0.64,-5.29 c 4,-4.99 6.84,-9.87 8.61,-14.7 3.35,-9.2 5.17,-18.48 5.17,-27.76 0,-26.282 -9.74,-43.719 -9.74,-43.719 -3.34,3.68 -8.22,7.233 -8.22,7.233 V 62.458 C 326.71,40.384 275.11,24.169 225.8,18.789 c 0,0 -12.97,-13.732 -37.84,-13.732 -24.86,0 -37.84,13.732 -37.84,13.732 C 100.82,24.17 49.215,40.385 22.299,62.458 v 16.876 c 0,0 -4.89,-3.553 -8.218,-7.233 0,0 -9.744,17.437 -9.744,43.719 0,9.28 1.824,18.56 5.177,27.76 1.764,4.83 4.608,9.71 8.601,14.7 l -0.633,5.29 c -3.52,29.42 3.173,50.91 19.659,63.71 -0.02,13.05 3.021,22.26 6.332,29.12 -8.57,9.49 -23.039,7.19 -23.039,7.19 14.765,59.98 40.121,96.46 75.09,126.68 l 4.776,4.12 v 4.74 c 0,0 11.34,16.13 23.91,19.26 v 1.59 c 0,0 10.83,11.71 22.23,14.26 v 3.9 c 0,0 15.45,16.92 41.52,16.92 26.07,0 41.52,-16.92 41.52,-16.92 z"
   id="path2" />
	<path
   fill="#ffffff"
   d="m 152.16,289.54 c -5.63,-6.24 -9.75,-10.47 -12.34,-12.69 l -0.3,-0.26 -0.62,-0.54 c -5.28,-4.54 -11.8,-8.42 -26.66,-8.42 -13.979,0 -32.152,-0.68 -38.594,-2.63 -13.397,-4.42 -20.622,-16.42 -21.671,-36.01 13.909,6.9 29.337,11.41 46.287,13.56 6.068,0.56 5.608,-4.68 0.703,-5.88 C 71.944,229 54.629,222.21 47.01,216.3 34.149,206.73 29.177,189.73 32.097,165.32 c 19.591,15.39 35.989,25.85 49.191,31.37 9.884,4.67 11.346,-3.14 0,-9.03 C 47.642,168.58 28.329,152.21 23.343,138.54 18.357,124.86 17.714,111.2 21.417,97.559 c 33.74,27.321 65.42,48.671 95.033,64.051 5.45,2.87 8.84,5.37 10.18,7.5 1.81,3.3 1.9,8.01 1.9,12.53 0,21.26 27.13,44.45 59.42,44.45 h 0.97 c 31.88,-0.46 58.46,-23.4 58.46,-44.45 0,-4.52 0.1,-9.23 1.91,-12.53 1.33,-2.13 4.72,-4.63 10.17,-7.5 29.62,-15.38 61.3,-36.73 95.04,-64.051 3.7,13.651 3.06,27.301 -1.93,40.971 -4.98,13.68 -24.3,30.05 -57.95,49.13 -11.34,5.89 -9.88,13.7 0,9.03 13.2,-5.52 29.61,-15.97 49.2,-31.37 2.91,24.41 -2.06,41.4 -14.92,50.97 -7.61,5.92 -24.93,12.71 -51.95,20.38 -4.91,1.2 -5.37,6.43 0.7,5.88 16.95,-2.15 32.38,-6.66 46.29,-13.57 -1.05,19.6 -8.27,31.6 -21.67,36.02 -4.25,1.29 -13.62,2.02 -23.51,2.37 l -1.81,0.1 c -4.51,0.14 -9.08,0.19 -13.28,0.19 -15.73,0 -22.11,4.36 -27.58,9.23 -2.59,2.22 -6.7,6.45 -12.34,12.69 -1.99,-19.74 -13.92,-30.32 -35.8,-31.75 -21.86,1.43 -33.79,12.01 -35.79,31.75 z"
   id="path4" />
	<linearGradient
   id="SVGID_1_"
   gradientUnits="userSpaceOnUse"
   x1="37.019"
   y1="230.05"
   x2="338.9"
   y2="230.05">
		<stop
   offset="0"
   style="stop-color:#BB2C26"
   id="stop6" />
		<stop
   offset="0.0504"
   style="stop-color:#BE3226"
   id="stop8" />
		<stop
   offset="0.1163"
   style="stop-color:#C64225"
   id="stop10" />
		<stop
   offset="0.1905"
   style="stop-color:#D35D24"
   id="stop12" />
		<stop
   offset="0.25"
   style="stop-color:#E07823"
   id="stop14" />
		<stop
   offset="0.2566"
   style="stop-color:#E17A23"
   id="stop16" />
		<stop
   offset="0.327"
   style="stop-color:#EE8B1F"
   id="stop18" />
		<stop
   offset="0.404"
   style="stop-color:#F5951E"
   id="stop20" />
		<stop
   offset="0.5"
   style="stop-color:#F7981D"
   id="stop22" />
		<stop
   offset="0.596"
   style="stop-color:#F5951E"
   id="stop24" />
		<stop
   offset="0.673"
   style="stop-color:#EE8B1F"
   id="stop26" />
		<stop
   offset="0.7434"
   style="stop-color:#E17A23"
   id="stop28" />
		<stop
   offset="0.75"
   style="stop-color:#E07823"
   id="stop30" />
		<stop
   offset="0.7672"
   style="stop-color:#DB6E23"
   id="stop32" />
		<stop
   offset="0.8266"
   style="stop-color:#CD5125"
   id="stop34" />
		<stop
   offset="0.8857"
   style="stop-color:#C33D25"
   id="stop36" />
		<stop
   offset="0.9439"
   style="stop-color:#BD3026"
   id="stop38" />
		<stop
   offset="1"
   style="stop-color:#BB2C26"
   id="stop40" />
	</linearGradient>
	<path
   fill="url(#SVGID_1_)"
   d="m 161.76,431.94 -0.6,-0.51 V 295.64 c 0,-17.85 8.94,-27.47 26.8,-28.84 l 0.73,0.1 c 17.38,1.57 26.07,11.15 26.07,28.77 v 135.78 l -0.6,0.52 c -6.61,5.6 -15.35,8.4 -26.2,8.4 -10.86,0 -19.59,-2.8 -26.2,-8.4 z M 138.93,291.36 c 4.41,4.68 8.82,9.97 13.23,15.86 v 113.09 c -4.84,-0.55 -9.25,-2.73 -13.23,-6.58 z m 98.05,0 v 122.37 c -3.98,3.85 -8.39,6.03 -13.23,6.58 V 307.22 c 4.41,-5.89 8.82,-11.18 13.23,-15.86 z M 115.01,278.74 c 4.51,0 9.02,1.4 13.53,4.21 v 121.32 c -5.28,-2.1 -9.79,-5.5 -13.53,-10.24 V 278.74 Z m 145.89,0 v 115.29 c -3.74,4.73 -8.25,8.14 -13.53,10.24 V 282.95 c 4.51,-2.81 9.02,-4.21 13.53,-4.21 z M 54.837,265.81 c 3.826,5.99 8.321,9.41 13.49,10.28 5.169,0.86 17.443,1.75 36.823,2.65 V 379.13 C 72.268,350.72 50.186,316.02 38.901,275.01 c 6.458,-0.29 11.773,-3.35 15.938,-9.2 z m 266.233,0 c 4.17,5.85 9.48,8.91 15.94,9.2 -11.29,41.01 -33.37,75.71 -66.25,104.12 V 278.74 c 19.38,-0.9 31.66,-1.79 36.82,-2.65 5.17,-0.87 9.67,-4.29 13.49,-10.28 z m -159.34,-55.93 -0.57,-0.4 V 28.635 c 6.21,-5.713 14.5,-8.664 24.89,-8.859 h 0.95 0.96 0.96 0.95 c 10.38,0.195 18.68,3.146 24.89,8.859 V 209.48 l -0.58,0.4 c -6.18,4.28 -14.92,6.41 -26.22,6.41 -11.29,0 -20.03,-2.13 -26.23,-6.41 z M 152.16,52.988 V 202.9 c -6.34,-4.61 -10.75,-12.67 -13.23,-24.16 V 74.437 C 140.89,64.19 145.3,57.04 152.16,52.99 Z m 71.59,0 c 6.87,4.052 11.27,11.202 13.23,21.449 V 178.74 c -2.48,11.49 -6.89,19.55 -13.23,24.16 V 52.99 Z m -95.22,35.526 v 68.666 c -4.47,-3.05 -8.98,-6.06 -13.51,-9.01 v -37.49 c 0,-10.45 4.5,-17.833 13.51,-22.166 z m 118.84,0 c 9.02,4.333 13.53,11.716 13.53,22.166 v 37.49 c -4.54,2.95 -9.05,5.96 -13.53,9.01 z M 152.16,33.376 v 9.011 c -13.88,6.202 -21.76,17.418 -23.62,33.647 -15.48,8.171 -23.2,18.811 -23.16,31.916 v 0.69 35.02 C 81.333,130.35 59.28,115.86 39.237,100.18 L 37.019,98.428 V 70.351 C 66.416,50.82 104.8,38.492 152.16,33.374 Z m 71.59,0 c 47.37,5.118 85.75,17.445 115.15,36.977 v 28.076 l -2.22,1.741 c -20.04,15.69 -42.1,30.18 -66.15,43.48 v -35.01 -0.69 c 0,-13.104 -7.68,-23.743 -23.16,-31.915 -1.86,-16.229 -9.74,-27.444 -23.63,-33.646 v -9.015 0 z"
   id="path43"
   style="fill:url(#SVGID_1_)" />
</g>
</svg>
