<?xml version="1.0" encoding="UTF-8" standalone="no"?>
<!-- Generator: Adobe Illustrator 15.1.0, SVG Export Plug-In . SVG Version: 6.00 Build 0)  -->

<svg
   version="1.1"
   id="Layer_1"
   x="0px"
   y="0px"
   width="367.26"
   height="450"
   viewBox="0 0 367.25 450"
   enable-background="new 0 0 375 460"
   xml:space="preserve"
   sodipodi:docname="WM.svg"
   inkscape:version="1.1.1 (3bf5ae0d25, 2021-09-20)"
   xmlns:inkscape="http://www.inkscape.org/namespaces/inkscape"
   xmlns:sodipodi="http://sodipodi.sourceforge.net/DTD/sodipodi-0.dtd"
   xmlns="http://www.w3.org/2000/svg"
   xmlns:svg="http://www.w3.org/2000/svg"><defs
   id="defs13">
	
	
	
</defs><sodipodi:namedview
   id="namedview11"
   pagecolor="#ffffff"
   bordercolor="#666666"
   borderopacity="1.0"
   inkscape:pageshadow="2"
   inkscape:pageopacity="0.0"
   inkscape:pagecheckerboard="0"
   showgrid="false"
   inkscape:zoom="1.563"
   inkscape:cx="182.98"
   inkscape:cy="224.57"
   inkscape:window-width="1920"
   inkscape:window-height="986"
   inkscape:window-x="-11"
   inkscape:window-y="-11"
   inkscape:window-maximized="1"
   inkscape:current-layer="Layer_1" />
<path
   id="path2"
   style="stroke-width:1"
   d="M 181.72 14.717 C 171.33 14.912 163.04 17.863 156.83 23.576 L 156.83 204.42 L 157.4 204.82 C 163.6 209.1 172.34 211.23 183.63 211.23 C 194.92 211.23 203.66 209.1 209.85 204.82 L 210.42 204.42 L 210.42 23.576 C 204.21 17.863 195.92 14.912 185.53 14.717 L 184.59 14.717 L 183.63 14.717 L 182.67 14.717 L 181.72 14.717 z M 147.82 28.316 C 100.45 33.433 62.082 45.762 32.686 65.293 L 32.686 93.371 L 34.902 95.123 C 54.944 110.8 76.999 125.29 101.04 138.6 L 101.04 103.58 L 101.04 102.89 C 101.01 89.788 108.73 79.148 124.2 70.977 C 126.07 54.747 133.93 43.532 147.82 37.33 L 147.82 28.318 L 147.82 28.316 z M 219.4 28.316 L 219.4 37.332 C 233.29 43.535 241.17 54.747 243.03 70.977 C 258.51 79.149 266.19 89.789 266.19 102.89 L 266.19 103.58 L 266.19 138.59 C 290.24 125.29 312.3 110.8 332.34 95.113 L 334.56 93.371 L 334.56 65.295 C 305.16 45.763 266.78 33.436 219.41 28.318 L 219.4 28.316 z M 219.41 47.93 L 219.41 47.932 L 219.41 197.84 C 225.75 193.23 230.16 185.17 232.63 173.68 L 232.63 69.379 C 230.68 59.132 226.28 51.982 219.41 47.93 z M 147.82 47.932 C 140.96 51.982 136.55 59.132 134.59 69.379 L 134.59 173.67 C 137.07 185.17 141.48 193.23 147.82 197.84 L 147.82 47.932 z M 124.2 83.457 C 115.18 87.79 110.68 95.173 110.68 105.62 L 110.68 143.11 C 115.21 146.06 119.73 149.07 124.2 152.12 L 124.2 83.457 z M 243.03 83.457 L 243.03 152.12 C 247.52 149.07 252.03 146.06 256.56 143.1 L 256.56 105.62 C 256.56 95.173 252.06 87.79 243.03 83.457 z M 16.369 90.303 L 15.863 92.172 C 12.109 106.01 12.768 120.05 17.822 133.91 C 22.962 148 42.1 164.29 76.371 183.69 C 82.452 186.85 83.889 190.04 83.633 191.09 C 83.489 191.66 82.606 191.76 82.09 191.76 C 81.252 191.76 79.773 191.54 77.439 190.43 C 64.411 184.99 47.96 174.5 28.541 159.24 L 26.775 157.85 L 26.51 160.08 C 23.547 184.86 28.731 202.4 41.9 212.2 C 49.72 218.27 66.856 225 94.328 232.8 C 96.377 233.31 97.227 234.55 97.127 235.23 C 97.057 235.84 96.137 236.24 94.797 236.24 L 94.088 236.24 C 77.357 234.12 61.919 229.6 48.201 222.8 L 46.266 221.84 L 46.381 224 C 47.456 244.06 55.037 256.56 68.945 261.14 C 75.463 263.12 93.344 263.83 107.9 263.83 C 123.01 263.83 129.16 268.02 133.73 271.93 L 134.66 272.75 C 137.2 274.92 141.31 279.15 146.88 285.33 L 148.79 287.52 L 149.08 284.69 C 151.02 265.48 162.35 255.47 183.53 254.07 C 204.89 255.47 216.22 265.48 218.16 284.69 L 218.45 287.52 L 220.35 285.41 C 225.93 279.23 230.04 275 232.59 272.81 C 237.86 268.12 243.87 263.91 259.33 263.91 C 263.54 263.91 268.12 263.85 272.66 263.71 L 274.46 263.61 C 282.64 263.33 293.42 262.68 298.33 261.18 C 312.2 256.6 319.78 244.1 320.86 224.03 L 320.97 221.88 L 319.04 222.84 C 305.31 229.64 289.88 234.16 273.2 236.27 L 272.44 236.27 C 271.1 236.27 270.21 235.87 270.11 235.26 C 270.03 234.58 270.86 233.34 272.95 232.82 C 300.38 225.03 317.52 218.3 325.32 212.25 C 338.51 202.43 343.69 184.89 340.73 160.11 L 340.46 157.88 L 338.7 159.27 C 319.29 174.52 302.84 185.01 289.74 190.49 C 287.46 191.57 285.99 191.79 285.15 191.79 C 284.63 191.79 283.75 191.7 283.6 191.12 C 283.35 190.07 284.79 186.88 290.91 183.7 C 325.14 164.28 344.28 148 349.42 133.91 C 354.47 120.05 355.13 106.01 351.38 92.172 L 350.87 90.303 L 349.36 91.52 C 315.85 118.65 283.95 140.15 254.53 155.44 C 248.82 158.44 245.34 161.03 243.84 163.44 C 241.93 166.92 241.78 171.65 241.78 176.58 C 241.78 196.18 216.78 219.31 184.57 219.77 L 183.61 219.77 C 150.86 219.77 125.45 196.56 125.45 176.58 C 125.45 171.64 125.3 166.92 123.36 163.38 C 121.89 161.03 118.4 158.44 112.69 155.43 C 83.29 140.16 51.389 118.65 17.875 91.521 L 16.369 90.303 z M 20.68 102.37 C 51.979 127.15 81.881 147 109.58 161.39 C 116.24 164.89 117.51 166.74 117.61 166.87 C 118.72 168.92 118.72 173.53 118.72 176.58 C 118.72 202.23 150.26 226.49 183.62 226.49 L 184.62 226.49 C 218.05 226.01 248.5 202.22 248.5 176.58 C 248.5 173.35 248.5 168.92 249.69 166.75 C 249.7 166.73 251.04 164.87 257.66 161.39 C 285.37 147 315.26 127.15 346.56 102.38 C 347.8 112.09 346.63 121.91 343.11 131.59 C 338.6 143.94 319.92 159.5 287.64 177.81 C 279.87 181.84 275.82 187.55 277.07 192.7 C 277.76 195.51 280.24 198.51 285.16 198.51 C 287.38 198.51 289.89 197.85 292.58 196.58 C 304.17 191.74 318.37 183.06 334.79 170.75 C 335.22 187.73 330.68 199.87 321.29 206.86 C 314.22 212.34 297.34 218.9 271.17 226.32 C 266.14 227.56 262.91 231.66 263.43 236.06 C 263.86 239.51 266.81 242.99 272.44 242.99 C 272.87 242.99 273.34 242.89 273.87 242.89 C 287.84 241.12 301 237.74 313.05 232.84 C 310.75 244.57 305.24 251.73 296.25 254.7 C 293.12 255.65 284.9 256.43 274.24 256.81 L 272.44 256.91 C 267.98 257 263.47 257.1 259.33 257.1 C 241.52 257.1 234.14 262.34 228.13 267.69 C 226.69 268.92 224.87 270.69 222.56 273.06 C 217.27 257.49 203.98 248.59 183.97 247.28 L 183.69 247.25 L 183.26 247.25 C 163.26 248.56 149.96 257.46 144.67 273.03 C 142.38 270.67 140.53 268.89 139.05 267.62 L 138.16 266.84 C 132.24 261.76 124.48 257.07 107.9 257.07 C 90.479 257.07 75.61 256.11 70.93 254.68 C 61.968 251.73 56.479 244.57 54.193 232.85 C 66.216 237.75 79.339 241.13 93.275 242.89 C 93.91 242.99 94.368 242.99 94.797 242.99 C 100.43 242.99 103.38 239.51 103.8 236.06 C 104.34 231.65 101.02 227.54 95.986 226.3 C 69.856 218.88 53.05 212.36 46.008 206.89 C 36.589 199.88 32.034 187.73 32.455 170.75 C 48.895 183.06 63.146 191.78 74.789 196.64 C 77.371 197.86 79.895 198.51 82.088 198.51 C 87.001 198.51 89.484 195.51 90.172 192.7 C 91.429 187.55 87.33 181.82 79.514 177.76 C 47.279 159.48 28.651 143.94 24.143 131.59 C 20.609 121.91 19.448 112.09 20.68 102.37 z M 50.504 260.75 C 50.504 260.75 50.506 260.75 50.506 260.75 C 50.506 260.75 50.508 260.75 50.508 260.75 L 50.504 260.75 z M 50.506 260.75 C 46.34 266.6 41.026 269.66 34.568 269.95 C 45.852 310.96 67.934 345.66 100.82 374.07 L 100.82 273.68 C 81.437 272.78 69.162 271.89 63.994 271.03 C 58.826 270.16 54.332 266.74 50.506 260.75 z M 316.74 260.75 C 312.92 266.74 308.42 270.17 303.25 271.03 C 298.09 271.89 285.81 272.78 266.43 273.68 L 266.43 374.07 C 299.31 345.66 321.38 310.96 332.68 269.95 C 326.22 269.66 320.91 266.6 316.74 260.75 z M 183.62 261.75 C 165.75 263.11 156.82 272.73 156.82 290.58 L 156.82 426.36 L 157.42 426.88 L 157.43 426.92 C 164.03 432.52 172.76 435.32 183.62 435.32 C 194.47 435.32 203.21 432.52 209.82 426.92 L 210.42 426.4 L 210.42 290.62 C 210.42 273 201.73 263.42 184.35 261.85 L 183.62 261.75 z M 110.68 273.68 L 110.68 388.97 C 114.42 393.7 118.93 397.11 124.2 399.21 L 124.2 277.89 C 119.7 275.08 115.19 273.68 110.68 273.68 z M 256.56 273.68 C 252.06 273.68 247.54 275.08 243.03 277.89 L 243.03 399.21 C 248.31 397.11 252.82 393.7 256.56 388.97 L 256.56 273.68 z M 134.59 286.3 L 134.59 408.67 C 138.57 412.52 142.98 414.7 147.82 415.25 L 147.82 302.16 C 143.41 296.27 139 290.98 134.59 286.3 z M 232.63 286.3 C 228.23 290.98 223.82 296.27 219.41 302.16 L 219.41 415.25 C 224.25 414.7 228.66 412.52 232.63 408.67 L 232.63 286.3 z "
   transform="matrix(1,0,0,1,0,0)" />
</svg>
