<?xml version="1.0" encoding="UTF-8" standalone="no"?>
<svg xmlns="http://www.w3.org/2000/svg" width="396.66599pt" height="320pt" viewBox="0 0 396.66598 320" version="1.1">
  <radialGradient id="radialGradient3762" cx="191.002" cy="184.5" fx="191.002" fy="184.5" r="191.002" gradientTransform="matrix(1,0,0,0.71988775,-1,50.680711)" gradientUnits="userSpaceOnUse">
    <stop style="stop-color:#d9eaf3" offset="0"/>
    <stop style="stop-color:#99aebc" offset="0.7"/>
    <stop style="stop-color:#536e78" offset="1"/>
  </radialGradient>
  <radialGradient id="radialGradient3770" cx="322.53" cy="75.504997" fx="322.53" fy="75.504997" r="62.470001" gradientTransform="matrix(1,0,0,1.0485833,-1,-4.6682836)" gradientUnits="userSpaceOnUse">
    <stop style="stop-color:#d9eaf3" offset="0"/>
    <stop style="stop-color:#99aebc" offset="0.7"/>
    <stop style="stop-color:#536e78" offset="1"/>
  </radialGradient>
  <path style="stroke:#000000;stroke-width:18" d="m 257.75,56.25 30.375,19.5 -43.125,16.125 8.38,15 h -46.63 l 31.5,85.5 25.875,-67.5 5.625,8.625 35.25,-28.5 -7.5,45 h 27.75 l -46.5,111 H 371 v 50 H 9 V 261 H 66.875 V 106.875 H 9 V 56.25 Z M 126.875,106.875 V 261 h 83.25 L 149,106.875 Z"/>
  <path style="fill:url(#radialGradient3762)" d="m 9,56 c 73.751281,0.0063 225.63446,0.164151 248.918,0.201357 L 288.19,75.55 l -43.05,16.41 8.24,14.89 -46.32,0.14 31.3,85.15 25.71,-67.28 5.6,8.52 35.44,-28.46 -7.28,45 27.51,0.25 -46.5,110.76 92.14,0.08 L 371,311 H 9 v -50 l 57.99,-0.01 V 107 L 9,106.59 Z m 118.01,50.98 v 154.01 l 83.22,-0.08 -61.42,-153.84 z"/>
  <path style="stroke:#000000;stroke-width:18" d="m 310.95,9 h 24.27 c -4.3,53.24 0,0 -4.3,53.24 41.46,-29.68 0,0 41.46,-29.68 L 384,53.9 c -46.49,19.53 0,0 -46.49,19.53 46.49,21.66 0,0 46.49,21.66 l -10.57,22.08 c -42.36,-30.22 0,0 -42.36,-30.22 6.85,53.06 0,0 6.85,53.06 -24.88,-0.04 0,0 -24.88,-0.04 3.01,-53.04 0,0 3.01,-53.04 -45.01,30.62 0,0 -45.01,30.62 -11.98,-20.25 0,0 -11.98,-20.25 50.23,-22.87 0,0 50.23,-22.87 -48.43,-23.81 0,0 -48.43,-23.81 13.22,-19.99 0,0 13.22,-19.99 41.87,32.41 0,0 41.87,32.41 -5,-54.04 0,0 -5,-54.04 z"/>
  <path d="m 310.95,9 h 24.27 c -4.3,53.24 0,0 -4.3,53.24 41.46,-29.68 0,0 41.46,-29.68 L 384,53.9 c -46.49,19.53 0,0 -46.49,19.53 46.49,21.66 0,0 46.49,21.66 l -10.57,22.08 c -42.36,-30.22 0,0 -42.36,-30.22 6.85,53.06 0,0 6.85,53.06 -24.88,-0.04 0,0 -24.88,-0.04 3.01,-53.04 0,0 3.01,-53.04 -45.01,30.62 0,0 -45.01,30.62 -11.98,-20.25 0,0 -11.98,-20.25 50.23,-22.87 0,0 50.23,-22.87 -48.43,-23.81 0,0 -48.43,-23.81 13.22,-19.99 0,0 13.22,-19.99 41.87,32.41 0,0 41.87,32.41 -5,-54.04 0,0 -5,-54.04 z" style="fill:url(#radialGradient3770)"/>
</svg>
