<?xml version="1.0" encoding="UTF-8" standalone="no"?>
<svg xmlns="http://www.w3.org/2000/svg" width="396.66599pt" height="320pt" viewBox="0 0 396.66598 320" version="1.1">
  <path d="m 9,56 c 73.751281,0.0063 225.63446,0.164151 248.918,0.201357 L 288.19,75.55 l -43.05,16.41 8.24,14.89 -46.32,0.14 31.3,85.15 25.71,-67.28 5.6,8.52 35.44,-28.46 -7.28,45 27.51,0.25 -46.5,110.76 92.14,0.08 L 371,311 H 9 v -50 l 57.99,-0.01 V 107 L 9,106.59 Z m 118.01,50.98 v 154.01 l 83.22,-0.08 -61.42,-153.84 z"/>
  <path d="m 310.95,9 h 24.27 c -4.3,53.24 0,0 -4.3,53.24 41.46,-29.68 0,0 41.46,-29.68 L 384,53.9 c -46.49,19.53 0,0 -46.49,19.53 46.49,21.66 0,0 46.49,21.66 l -10.57,22.08 c -42.36,-30.22 0,0 -42.36,-30.22 6.85,53.06 0,0 6.85,53.06 -24.88,-0.04 0,0 -24.88,-0.04 3.01,-53.04 0,0 3.01,-53.04 -45.01,30.62 0,0 -45.01,30.62 -11.98,-20.25 0,0 -11.98,-20.25 50.23,-22.87 0,0 50.23,-22.87 -48.43,-23.81 0,0 -48.43,-23.81 13.22,-19.99 0,0 13.22,-19.99 41.87,32.41 0,0 41.87,32.41 -5,-54.04 0,0 -5,-54.04 z"/>
</svg>
