<?xml version="1.0" encoding="UTF-8" standalone="no"?>
<svg xmlns="http://www.w3.org/2000/svg" version="1.1" width="600" height="713.81079">
  <path d="m 283.85212,630.54296 c -15.89604,6.38663 -27.05752,21.87973 -27.05752,40.07253 0,23.83399 19.28075,43.19533 43.19533,43.19533 23.85413,0 43.13488,-19.36134 43.13488,-43.19533 0,-18.11221 -11.18162,-33.6859 -26.99708,-40.07253 l 0,-38.94429 12.59192,0 L 600,0 513.972,0 0,0 l 267.73446,591.59867 16.11766,0 0,38.94429 z"/>
  <path d="m 300.1511,359.58497 c 0,0 104.12008,-235.45885 104.20067,-235.62002 5.19794,-12.7531 15.35207,-26.67473 13.76045,-41.16048 C 416.62134,68.8627 402.29677,65.55858 390.40999,65.17578 l 0,-9.83177 123.56201,0 -201.85354,442.75209 -24.15634,0 -202.034851,-442.75209 123.723181,0 0,9.83177 c -8.50207,0.24177 -22.0409,1.4103 -26.13076,10.23472 -5.74191,12.10839 6.44707,36.82885 11.26222,48.55445 0,0.0806 105.36919,235.62002 105.36919,235.62002" style="fill:#ffffff"/>
</svg>
