<?xml version="1.0" encoding="UTF-8" standalone="no"?>
<svg xmlns="http://www.w3.org/2000/svg" version="1.1" width="600" height="650.58282">
  <path d="M 542.0656,0 0,0 c 0,0 241.48008,533.49417 242.43969,535.5923 -9.0919,12.19843 -14.67065,26.93413 -14.67065,42.95473 0,19.24098 7.49797,37.34345 21.14394,50.94063 13.59719,13.59718 31.71592,21.09515 50.9569,21.09515 19.25725,0 37.35972,-7.49797 50.89184,-21.09515 13.66224,-13.59718 21.16021,-31.69965 21.16021,-50.94063 0,-16.96395 -6.35945,-32.41529 -16.5248,-44.9878 C 355.78748,532.66402 600,0 600,0 l -57.9344,0 z" style="fill:#ffffff"/>
  <path d="m 286.84196,546.1968 c -12.83274,5.15587 -21.84332,17.66332 -21.84332,32.35023 0,19.24098 15.5652,34.87124 34.87124,34.87124 19.25725,0 34.82245,-15.63026 34.82245,-34.87124 0,-14.62185 -9.02684,-27.19436 -21.79453,-32.35023 l 0,-31.43942 10.16536,0 219.00244,-477.59284 -69.44971,0 -414.925459,0 216.139879,477.59284 13.01165,0 0,31.43942 z"/>
  <path d="m 300,327.45459 c 0,0 84.0553,-190.08403 84.12036,-190.21415 4.19626,-10.29547 12.3936,-21.53429 11.1087,-33.22852 -1.20358,-11.25508 -12.76769,-13.92247 -22.36378,-14.2315 l 0,-7.93711 99.75061,0 -162.95474,357.4302 -19.50122,0 -163.10111,-357.4302 99.88073,0 0,7.93711 c -6.86365,0.19518 -17.79344,1.13852 -21.09515,8.26241 -4.6354,9.775 5.20466,29.73163 9.0919,39.19761 0,0.0651 85.0637,190.21415 85.0637,190.21415" style="fill:#ffffff"/>
</svg>
