<?xml version="1.0" encoding="UTF-8" standalone="no"?>
<svg xmlns="http://www.w3.org/2000/svg" version="1.1" width="600" height="650.58282">
  <radialGradient cx="0" cy="0" r="1" fx="0" fy="0" id="radialGradient426" gradientUnits="userSpaceOnUse" gradientTransform="matrix(15.864502,0,0,-15.864502,400.99023,372.09326)" spreadMethod="pad">
    <stop style="stop-color:#bf99c3" offset="0"/>
    <stop style="stop-color:#7b5190" offset="0.66291797"/>
    <stop style="stop-color:#612c75" offset="1"/>
  </radialGradient>
  <path d="M 542.0656,0 0,0 c 0,0 241.48008,533.49417 242.43969,535.5923 -9.0919,12.19843 -14.62185,26.93413 -14.62185,42.95473 0,19.24098 7.49796,37.34345 21.09514,50.94063 13.59719,13.59718 31.71592,21.09515 50.9569,21.09515 19.25725,0 37.35972,-7.49797 50.89184,-21.09515 13.66224,-13.59718 21.16021,-31.69965 21.16021,-50.94063 0,-16.96395 -6.35945,-32.41529 -16.5248,-44.9878 C 355.78748,532.66402 600,0 600,0 l -57.9344,0 z" style="fill:#ffffff"/>
  <path d="m 286.84196,546.1968 c -12.76769,5.15587 -21.84332,17.66332 -21.84332,32.35023 0,19.24098 15.5652,34.87124 34.87124,34.87124 19.25725,0 34.82245,-15.63026 34.82245,-34.87124 0,-14.62185 -8.96178,-27.19436 -21.79453,-32.35023 l 0,-31.43942 10.23042,0 218.93738,-477.59284 -69.38466,0 -414.990509,0 216.139879,477.59284 13.01165,0 0,31.43942 z" style="fill:#612c75"/>
  <g transform="matrix(16.26457,0,0,-16.26457,-6222.0927,6377.2404)">
    <path d="m 411.613,389.406 -24.89,0 12.925,-28.558 0.543,0 0.403,0 0,-0.403 0,-1.933 0,-0.27 -0.254,-0.101 c -0.664,-0.266 -1.094,-0.903 -1.094,-1.618 l 0,0 c 0,-0.961 0.785,-1.746 1.746,-1.746 l 0,0 c 0.961,0 1.742,0.785 1.742,1.746 l 0,0 c 0,0.715 -0.429,1.348 -1.089,1.618 l 0,0 -0.254,0.101 0,0.27 0,1.933 0,0.403 0.402,0 0.371,0 13.094,28.558 -3.645,0 z" style="fill:url(#radialGradient426)"/>
  </g>
  <path d="m 313.85741,445.81187 -4.19626,0 -19.50122,0 -4.26131,0 -1.65899,-3.80591 -163.08485,-357.44646 -4.26131,-9.20575 10.16535,0 99.88073,0 6.4733,0 0,6.48956 0,7.93711 0,6.22933 -6.22933,0.24332 c -11.17376,0.39035 -14.60559,2.66739 -15.43508,4.57035 -2.7975,5.85524 4.06614,21.85958 7.36785,29.55272 l 1.91922,4.44023 c 0.70003,1.59393 59.70724,133.74356 78.96449,176.63323 18.99702,-43.01979 77.45188,-175.23448 78.15126,-176.81214 1.13852,-2.73245 2.60233,-5.72513 4.1312,-8.83166 3.54568,-7.12388 7.23774,-14.42668 6.4733,-21.09515 -0.19517,-1.96801 -0.83014,-7.88832 -16.13445,-8.45758 l -6.29439,-0.24332 0,-6.22933 0,-7.93711 0,-6.48956 6.53836,0 99.81566,0 10.1003,0 -4.24505,9.15695 -162.971,357.4302 -1.70778,3.87097 z" style="fill:#612c75"/>
  <path d="m 300,327.45459 c 0,0 84.12036,-190.08403 84.18542,-190.21415 4.1312,-10.29547 12.32854,-21.53429 11.04364,-33.22852 -1.20358,-11.25508 -12.76769,-13.92247 -22.36378,-14.2315 l 0,-7.93711 99.75061,0 -162.95474,357.4302 -19.50122,0 -163.10111,-357.4302 99.88073,0 0,7.93711 c -6.86365,0.19518 -17.79344,1.13852 -21.09515,8.26241 -4.6354,9.775 5.20466,29.73163 9.0919,39.19761 0.052,0.0651 85.0637,190.21415 85.0637,190.21415" style="fill:#ffffff"/>
</svg>
