<?xml version="1.0" encoding="UTF-8" standalone="no"?>
<svg xmlns="http://www.w3.org/2000/svg" version="1.1" width="600" height="650.58282">
   <path
     d="M 57.691406 37.164062 L 273.83008 514.75781 L 286.8418 514.75781 L 286.8418 546.19727 C 274.00906 551.35314 264.99805 563.85997 264.99805 578.54688 C 264.99805 597.78786 280.5631 613.41797 299.86914 613.41797 C 319.12639 613.41797 334.69141 597.78785 334.69141 578.54688 C 334.69141 563.92503 325.66613 551.35314 312.89844 546.19727 L 312.89844 514.75781 L 323.0625 514.75781 L 542.06641 37.164062 L 472.61523 37.164062 L 57.691406 37.164062 z M 127.05859 81.84375 L 226.93945 81.84375 L 226.93945 89.78125 C 220.0758 89.97643 209.14546 90.919079 205.84375 98.042969 C 201.20835 107.81797 211.04831 127.77425 214.93555 137.24023 C 214.93555 137.30533 300 327.45508 300 327.45508 C 300 327.45508 384.05603 137.37035 384.12109 137.24023 C 388.31735 126.94476 396.51342 115.70595 395.22852 104.01172 C 394.02494 92.756639 382.46132 90.09028 372.86523 89.78125 L 372.86523 81.84375 L 472.61523 81.84375 L 309.66211 439.27344 L 290.16016 439.27344 L 127.05859 81.84375 z "
   />
</svg>
