<?xml version="1.0" encoding="UTF-8" standalone="no"?>
<svg
   xmlns:dc="http://purl.org/dc/elements/1.1/"
   xmlns:cc="http://creativecommons.org/ns#"
   xmlns:rdf="http://www.w3.org/1999/02/22-rdf-syntax-ns#"
   xmlns:svg="http://www.w3.org/2000/svg"
   xmlns="http://www.w3.org/2000/svg"
   xmlns:sodipodi="http://sodipodi.sourceforge.net/DTD/sodipodi-0.dtd"
   xmlns:inkscape="http://www.inkscape.org/namespaces/inkscape"
   sodipodi:docname="C.svg"
   inkscape:version="1.0 (4035a4fb49, 2020-05-01)"
   id="svg8"
   version="1.1"
   viewBox="0 0 137.67779 115.28272"
   height="115.28272mm"
   width="137.6778mm">
  <defs
     id="defs2" />
  <sodipodi:namedview
     inkscape:window-maximized="1"
     inkscape:window-y="-6"
     inkscape:window-x="-6"
     inkscape:window-height="1018"
     inkscape:window-width="1920"
     showgrid="false"
     inkscape:document-rotation="0"
     inkscape:current-layer="layer2"
     inkscape:document-units="mm"
     inkscape:cy="199.63069"
     inkscape:cx="224.06212"
     inkscape:zoom="1.4"
     inkscape:pageshadow="2"
     inkscape:pageopacity="0.0"
     borderopacity="1.0"
     bordercolor="#666666"
     pagecolor="#ffffff"
     id="base" />
  <metadata
     id="metadata5">
    <rdf:RDF>
      <cc:Work
         rdf:about="">
        <dc:format>image/svg+xml</dc:format>
        <dc:type
           rdf:resource="http://purl.org/dc/dcmitype/StillImage" />
        <dc:title></dc:title>
      </cc:Work>
    </rdf:RDF>
  </metadata>
  <g
     transform="translate(-178.24074,-37.939736)"
     style="opacity:1"
     inkscape:label="Layer 2"
     id="layer2"
     inkscape:groupmode="layer">
    <path
       sodipodi:nodetypes="ccccccccccccccccccccccccccccccccc"
       id="path847"
       d="m 300.42152,66.098966 7.9375,56.885404 7.55952,7.13431 c -2.36653,8.13816 -5.37843,10.82334 -13.60713,12.70944 l -4.205,10.3471 -6.80356,-8.7407 c -8.2371,-1.18814 -13.00132,-1.82516 -16.58372,-8.59896 l 2.88208,-5.00819 c -18.42004,1.83548 -26.29391,0.82325 -28.10415,-6.69847 -0.30919,-1.62473 -0.63015,-4.06238 -0.63015,-4.06238 -9.56763,-1.01171 -17.80716,0.17829 -26.87545,2.44538 l -0.0236,1.41741 7.39416,6.14211 c -2.08624,8.43822 -6.30841,10.59624 -13.98512,13.13468 l -3.77976,10.01636 -6.61458,-8.88243 c -8.81686,0.0955 -12.13757,-1.29611 -16.96168,-8.50447 l 5.38615,-8.26823 -8.03198,-57.452369 -7.13431,-6.094867 c 1.17272,-9.585255 4.75946,-12.555707 12.43408,-13.306465 l 4.48036,-12.773893 8.09307,11.051055 c 8.11688,-0.321074 11.58303,0.45348 15.31853,8.993146 7.23749,-2.134396 21.66826,-3.869263 30.73348,-0.342191 3.33594,1.025244 4.16276,7.30673 4.9137,11.433778 5.32762,-0.04998 10.13735,-0.168909 15.21353,-1.039431 l -4.95282,-4.350084 c 1.59794,-9.065538 4.55466,-11.786324 12.42597,-12.992932 l 4.55529,-12.586296 8.29352,11.051055 c 7.78231,-0.897485 11.05864,-0.118618 15.52373,8.964486 z"
       style="display:inline;opacity:1;fill:#ffffff;fill-opacity:1;stroke:none;stroke-width:0.264583px;stroke-linecap:butt;stroke-linejoin:miter;stroke-opacity:1" />
    <path
       sodipodi:nodetypes="ccccccccccacccccccccccccccccccccccccccccccsccccccccccccccc"
       id="path881"
       d="m 181.54283,62.674703 c 2.05723,-7.012146 4.24517,-8.454545 11.62622,-8.886711 l 3.14042,-8.485807 4.87766,6.949006 c 7.60775,-0.246997 10.59559,-1.412142 13.63077,5.813113 -0.17621,0.476344 -0.52072,1.159772 -1.00226,1.536801 -3.26022,0.94064 -15.43209,7.980028 -14.33401,9.601436 0.38033,0.380142 0.76405,0.464007 1.24117,0.244342 7.25388,-5.316039 16.65322,-7.9936 24.65225,-9.57851 3.69567,-0.437404 16.21325,-1.825152 22.65109,1.002261 1.47325,1.369732 1.6004,3.058614 2.11048,4.697772 1.68663,5.420045 2.70764,13.927358 3.06784,16.750609 0.16189,0.136704 0.47299,0.170225 0.63477,0.03341 0.67783,-2.058499 -0.40726,-6.048556 0.77273,-8.715905 0.26518,-0.599442 0.73586,-1.174795 1.33257,-1.446069 11.21763,0.131376 18.72193,-0.764574 26.72638,-5.256139 0.45987,-0.276833 1.07859,-0.473871 1.28623,-0.968849 0.0826,-0.196799 0.0484,-0.466978 -0.0835,-0.634766 -0.11437,-0.145518 -0.33398,-0.178921 -0.51781,-0.200454 -3.94616,0.913148 -6.10307,1.288173 -9.73864,1.95441 l -5.61266,-4.476766 c 2.39605,-7.836602 3.91867,-7.888179 11.55941,-8.819893 l 3.20723,-8.485807 4.87767,7.14946 c 7.61787,-0.21031 9.97368,-1.71507 13.69756,5.545841 l -4.81084,7.483546 8.68624,60.336096 6.68174,5.54584 c -1.82422,5.99737 -6.6877,7.13483 -12.49484,8.8199 l -2.40544,6.14719 -3.8754,-5.07812 c -7.56654,-0.20238 -10.04167,0.51869 -14.63299,-5.4122 l 3.74176,-5.94675 c 2.75145,-1.63369 7.93438,-4.32105 8.69568,-5.67221 0.0939,-0.24452 0.11113,-0.56664 -0.0334,-0.7851 -0.88736,-0.79743 -2.16125,0.36925 -2.93961,0.88414 -5.56069,2.98758 -9.7331,3.57197 -17.81662,4.23682 -4.08153,0.29183 -14.76543,1.06975 -16.9048,-3.40767 -0.7475,-1.34029 2.01601,-3.81892 2.73951,-3.90881 0.35914,-5.18201 -0.15564,-13.44457 -0.77708,-20.08249 -0.0717,-0.54204 -0.0159,-1.03504 -0.59606,-1.03324 -0.63538,0.002 -0.54512,0.35573 -0.64299,1.17036 -0.13228,1.44704 -0.96642,9.48991 -1.74321,12.9765 -0.77679,3.4866 -2.34405,3.02577 -2.34405,3.02577 -11.61775,-2.00105 -22.54027,-0.27294 -32.57523,3.44568 -1.76264,0.67809 -8.98507,3.16004 -9.37806,4.34984 -0.0806,0.28742 0.13197,0.64546 0.38063,0.81061 0.29485,0.19582 0.71119,0.0974 1.06097,0.0432 3.18427,-1.15262 5.97974,-1.89003 9.24443,-2.58226 v 1.69337 l 7.03541,6.23833 c -2.29265,6.69501 -6.12089,6.90427 -12.89576,9.15398 l -2.00452,5.94675 -4.00904,-5.21175 c -6.09024,-0.16202 -11.87951,0.16868 -14.63301,-5.47903 l 4.94449,-7.21628 -8.75308,-60.469725 z"
       style="display:inline;opacity:1;fill:#000000;fill-opacity:1;stroke:none;stroke-width:0.264583px;stroke-linecap:butt;stroke-linejoin:miter;stroke-opacity:1" />
  </g>
</svg>
