<?xml version="1.0" encoding="UTF-8" standalone="no"?>
<svg
   version="1.1"
   id="Layer_1"
   x="0px"
   y="0px"
   width="1024"
   height="948.92"
   viewBox="0 0 1024 948.92"
   sodipodi:docname="80.svg"
   inkscape:version="1.1.1 (3bf5ae0d25, 2021-09-20)"
   xmlns:inkscape="http://www.inkscape.org/namespaces/inkscape"
   xmlns:sodipodi="http://sodipodi.sourceforge.net/DTD/sodipodi-0.dtd"
   xmlns="http://www.w3.org/2000/svg"
   xmlns:svg="http://www.w3.org/2000/svg">
  <defs
     id="defs33" />
  <sodipodi:namedview
     id="namedview31"
     pagecolor="#ffffff"
     bordercolor="#666666"
     borderopacity="1.0"
     inkscape:pageshadow="2"
     inkscape:pageopacity="0.0"
     inkscape:pagecheckerboard="0"
     showgrid="false"
     inkscape:zoom="14.38"
     inkscape:cx="26.982"
     inkscape:cy="24.965"
     inkscape:window-width="1920"
     inkscape:window-height="986"
     inkscape:window-x="-11"
     inkscape:window-y="-11"
     inkscape:window-maximized="1"
     inkscape:current-layer="Layer_1" />
  <g
     transform="matrix(0,-18.978,18.978,0,0.01468,948.9)"
     id="g28">
    <g
       transform="rotate(90,25,25)"
       id="g26">
      <g
         transform="rotate(90,26.978,26.978)"
         id="g24">
        <g
           transform="rotate(90,25,25)"
           id="g22">
          <g
             transform="rotate(90,26.978,26.978)"
             id="g20">
            <g
               id="g18">
              <g
                 id="g16">
                <g
                   transform="rotate(90,25.001,24.999)"
                   id="g14">
                  <g
                     id="g12">
                    <path
                       d="m 42.999,37.535 c -0.121,0 -0.244,-0.03 -0.361,-0.08 L 14.661,24.341 C 14.365,24.202 14.174,23.906 14.17,23.58 14.097,18.139 15.559,13.035 18.285,9.211 21.512,4.686 26.37,2.133 32.335,1.83 c 0.295,-0.015 0.6,-0.022 0.905,-0.022 1.146,0 4.724,0.13 7.139,1.64 0.191,-0.516 0.336,-1.152 0.41,-1.833 0.04,-0.339 0.271,-0.622 0.596,-0.723 0.08,-0.026 0.169,-0.038 0.253,-0.038 0.245,0 0.482,0.105 0.647,0.297 0.969,1.126 1.983,3.461 2.126,6.202 1.499,2.106 3.07,4.669 3.328,8.368 0.239,3.43 2.654,6.986 4.418,9.583 0.287,0.423 0.559,0.821 0.803,1.193 0.08,0.122 0.127,0.263 0.138,0.408 0.05,0.704 -0.205,1.378 -0.736,1.947 -0.739,0.793 -1.934,1.286 -3.116,1.286 -0.336,0 -0.66,-0.04 -0.963,-0.121 -0.142,-0.04 -0.271,-0.11 -0.376,-0.212 -0.158,-0.153 -0.33,-0.325 -0.518,-0.511 -0.895,-0.891 -2.134,-2.123 -3.771,-3.258 2.515,3.413 2.451,6.662 0.138,11.043 -0.154,0.289 -0.449,0.456 -0.757,0.456 z"
                       id="path2" />
                    <path
                       style="fill:#808080"
                       d="m 41.638,1.707 c 0.925,1.074 1.851,3.354 1.931,5.936 1.437,1.996 3.067,4.511 3.319,8.137 0.295,4.23 3.564,8.452 5.358,11.186 0.09,1.326 -1.523,2.32 -3.001,2.32 -0.256,0 -0.507,-0.03 -0.745,-0.09 -1.518,-1.47 -4.36,-4.652 -8.991,-6.168 5.489,4.658 6.463,8.031 3.491,13.656 L 15.023,23.568 C 14.893,13.819 19.919,3.314 32.377,2.682 32.656,2.667 32.944,2.66 33.239,2.66 c 2.639,0 5.815,0.584 7.436,2.076 0.571,-0.805 0.855,-2.038 0.963,-3.029 m 0,-1.707 c -0.169,0 -0.339,0.025 -0.506,0.076 -0.649,0.202 -1.117,0.77 -1.191,1.445 -0.03,0.232 -0.06,0.461 -0.102,0.677 -2.5,-1.135 -5.537,-1.243 -6.599,-1.243 -0.32,0 -0.64,0.008 -0.948,0.023 -6.234,0.317 -11.318,2.993 -14.702,7.739 -2.831,3.97 -4.349,9.252 -4.273,14.875 0,0.652 0.39,1.244 0.982,1.521 l 27.977,13.113 c 0.233,0.109 0.48,0.161 0.724,0.161 0.614,0 1.205,-0.332 1.51,-0.909 1.702,-3.221 2.205,-5.771 1.617,-8.23 0.238,0.231 0.459,0.451 0.661,0.651 0.189,0.188 0.364,0.363 0.525,0.519 0.21,0.203 0.469,0.35 0.751,0.424 0.375,0.1 0.772,0.15 1.182,0.15 1.411,0 2.845,-0.598 3.741,-1.559 0.687,-0.735 1.028,-1.654 0.963,-2.588 -0.02,-0.291 -0.115,-0.572 -0.275,-0.816 -0.25,-0.38 -0.521,-0.78 -0.811,-1.205 C 51.155,22.308 48.815,18.862 48.592,15.661 48.339,12.026 46.867,9.367 45.248,7.058 45.069,4.54 44.185,2.048 42.933,0.593 42.603,0.211 42.127,0 41.638,0 Z"
                       id="path4" />
                    <path
                       d="m 31.335,49.146 c -0.328,0 -0.633,-0.189 -0.774,-0.494 -0.161,-0.348 -0.07,-0.76 0.221,-1.008 1.916,-1.633 2.562,-2.896 2.155,-4.221 C 32.083,40.629 27.967,39.237 19.59,38.907 10.872,38.564 5.672,35.53 4.515,30.124 2.472,28.963 0.993,26.405 0.863,23.728 0.752,21.455 1.683,19.326 3.173,18.318 3.238,13.724 7.9,9.203 13.287,8.658 c 0.03,0 0.06,0 0.09,0 0.26,0 0.508,0.119 0.671,0.326 0.18,0.23 0.23,0.537 0.133,0.813 -0.92,2.592 0.07,6.068 2.351,8.269 3.628,3.496 9.47,6.518 17.362,8.979 8.784,2.741 10.628,8.018 10.628,11.963 0,5.081 -4.755,8.774 -13.045,10.132 -0.05,0 -0.09,0.01 -0.138,0.01 z"
                       id="path6" />
                    <path
                       style="fill:#808080"
                       d="m 13.372,9.508 c -1.099,3.096 0.197,6.888 2.563,9.168 4.24,4.086 10.763,7.016 17.701,9.181 7.12,2.222 10.027,6.266 10.027,11.147 0,4.818 -4.899,8.073 -12.328,9.29 1.929,-1.644 2.989,-3.253 2.418,-5.119 C 32.71,39.762 28.064,38.388 19.623,38.056 11.894,37.752 6.251,35.26 5.274,29.557 3.39,28.688 1.841,26.286 1.714,23.688 1.608,21.509 2.599,19.479 4.036,18.803 3.757,14.529 8.188,10.031 13.372,9.508 m 10e-4,-1.707 c -0.06,0 -0.115,0 -0.172,0.01 -2.846,0.288 -5.672,1.649 -7.753,3.734 -1.855,1.858 -2.955,4.119 -3.11,6.337 -1.518,1.25 -2.443,3.508 -2.327,5.891 0.137,2.811 1.639,5.515 3.753,6.893 0.713,2.869 2.503,5.107 5.331,6.662 2.63,1.446 6.15,2.266 10.461,2.435 7.851,0.309 11.844,1.552 12.565,3.912 0.205,0.671 0.14,1.59 -1.894,3.322 -0.583,0.497 -0.764,1.321 -0.441,2.016 0.283,0.609 0.893,0.988 1.548,0.988 0.09,0 0.185,0 0.277,-0.02 4.055,-0.664 7.312,-1.875 9.679,-3.599 2.67,-1.944 4.08,-4.494 4.08,-7.375 0,-4.23 -1.947,-9.882 -11.226,-12.776 C 26.379,23.805 20.651,20.851 17.119,17.448 15.066,15.469 14.167,12.37 14.98,10.079 15.176,9.528 15.075,8.915 14.714,8.455 14.39,8.039 13.893,7.801 13.373,7.801 Z"
                       id="path8" />
                    <path
                       style="fill:#808080"
                       d="m 45.213,28.896 c -0.292,0 -0.574,-0.159 -0.718,-0.436 -1.185,-2.275 -3.789,-3.801 -6.309,-5.275 -3.128,-1.83 -6.362,-3.725 -6.49,-7.107 -0.113,-2.982 2.556,-4.168 2.669,-4.217 0.41,-0.178 0.887,0.01 1.063,0.422 0.177,0.409 -0.01,0.884 -0.418,1.063 -0.08,0.04 -1.768,0.814 -1.697,2.672 0.09,2.496 2.688,4.014 5.69,5.771 2.718,1.59 5.527,3.235 6.927,5.924 0.206,0.396 0.05,0.885 -0.345,1.092 -0.118,0.06 -0.246,0.09 -0.372,0.09 z"
                       id="path10" />
                  </g>
                </g>
              </g>
            </g>
          </g>
        </g>
      </g>
    </g>
  </g>
</svg>
