<?xml version="1.0" encoding="UTF-8" standalone="no"?>
<svg
   version="1.1"
   id="Layer_1"
   x="0px"
   y="0px"
   width="1024"
   height="948.77"
   sodipodi:docname="R.svg"
   inkscape:version="1.1.1 (3bf5ae0d25, 2021-09-20)"
   xmlns:inkscape="http://www.inkscape.org/namespaces/inkscape"
   xmlns:sodipodi="http://sodipodi.sourceforge.net/DTD/sodipodi-0.dtd"
   xmlns="http://www.w3.org/2000/svg"
   xmlns:svg="http://www.w3.org/2000/svg">
  <defs
     id="defs27" />
  <sodipodi:namedview
     id="namedview25"
     pagecolor="#ffffff"
     bordercolor="#666666"
     borderopacity="1.0"
     inkscape:pageshadow="2"
     inkscape:pageopacity="0.0"
     inkscape:pagecheckerboard="0"
     showgrid="false"
     inkscape:zoom="14.38"
     inkscape:cx="26.982"
     inkscape:cy="24.965"
     inkscape:window-width="1920"
     inkscape:window-height="986"
     inkscape:window-x="-11"
     inkscape:window-y="-11"
     inkscape:window-maximized="1"
     inkscape:current-layer="Layer_1" />
  <g
     id="g22"
     transform="matrix(18.975,0,0,18.975,0.15374,0)">
    <radialGradient
       id="SVGID_1_"
       cx="-648.13"
       cy="697.32"
       r="32.262"
       gradientTransform="matrix(-0.891,-0.454,-0.3553,0.6973,-290.22,-771.2)"
       gradientUnits="userSpaceOnUse">
      <stop
         offset="0"
         style="stop-color:#ebd491"
         id="stop2" />
      <stop
         offset="1"
         style="stop-color:#735D33"
         id="stop4" />
    </radialGradient>
    <path
       fill="url(#SVGID_1_)"
       d="m 42.999,37.535 c -0.121,0 -0.244,-0.03 -0.36,-0.08 L 14.661,24.341 C 14.365,24.202 14.175,23.906 14.17,23.58 14.098,18.139 15.559,13.035 18.285,9.211 21.513,4.686 26.371,2.133 32.335,1.83 32.63,1.815 32.936,1.808 33.24,1.808 c 1.146,0 4.724,0.13 7.14,1.64 0.19,-0.516 0.336,-1.152 0.409,-1.833 0.04,-0.339 0.271,-0.622 0.596,-0.723 0.08,-0.026 0.17,-0.038 0.254,-0.038 0.244,0 0.481,0.105 0.646,0.297 0.969,1.126 1.982,3.461 2.126,6.202 1.5,2.106 3.071,4.669 3.327,8.368 0.24,3.43 2.656,6.986 4.42,9.583 0.287,0.422 0.558,0.821 0.802,1.193 0.08,0.122 0.128,0.263 0.138,0.408 0.05,0.704 -0.205,1.378 -0.734,1.946 -0.74,0.793 -1.936,1.287 -3.117,1.287 -0.336,0 -0.659,-0.04 -0.963,-0.121 -0.143,-0.04 -0.271,-0.11 -0.376,-0.213 -0.158,-0.152 -0.33,-0.324 -0.519,-0.511 -0.895,-0.892 -2.133,-2.123 -3.771,-3.258 2.515,3.413 2.45,6.662 0.138,11.043 -0.152,0.29 -0.449,0.457 -0.757,0.457 z"
       id="path7"
       style="fill:url(#SVGID_1_)" />
    <path
       d="m 41.639,1.707 c 0.924,1.074 1.85,3.354 1.93,5.936 1.438,1.996 3.068,4.511 3.32,8.137 0.295,4.229 3.563,8.452 5.357,11.186 0.09,1.326 -1.523,2.32 -3.001,2.32 -0.257,0 -0.507,-0.03 -0.745,-0.09 -1.518,-1.469 -4.359,-4.651 -8.991,-6.167 5.489,4.658 6.464,8.031 3.491,13.656 L 15.023,23.568 C 14.893,13.819 19.919,3.314 32.378,2.682 32.656,2.667 32.943,2.66 33.238,2.66 c 2.64,0 5.816,0.584 7.438,2.076 0.57,-0.805 0.853,-2.038 0.963,-3.029 m 0,-1.707 c -0.17,0 -0.34,0.025 -0.507,0.076 -0.649,0.202 -1.116,0.77 -1.19,1.445 -0.02,0.232 -0.06,0.461 -0.103,0.677 C 37.34,1.063 34.303,0.955 33.24,0.955 c -0.32,0 -0.641,0.008 -0.948,0.023 -6.234,0.317 -11.318,2.993 -14.702,7.739 -2.831,3.97 -4.349,9.252 -4.273,14.875 0,0.652 0.391,1.244 0.982,1.521 l 27.977,13.114 c 0.233,0.108 0.48,0.16 0.725,0.16 0.613,0 1.205,-0.332 1.512,-0.908 1.7,-3.222 2.203,-5.771 1.615,-8.23 0.238,0.23 0.459,0.451 0.661,0.65 0.188,0.188 0.364,0.363 0.524,0.52 0.211,0.203 0.47,0.35 0.752,0.424 0.375,0.1 0.771,0.15 1.182,0.15 1.412,0 2.846,-0.598 3.74,-1.559 0.688,-0.735 1.029,-1.654 0.964,-2.589 -0.02,-0.29 -0.115,-0.571 -0.275,-0.815 -0.249,-0.381 -0.521,-0.78 -0.81,-1.205 C 51.157,22.309 48.815,18.863 48.593,15.662 48.34,12.027 46.868,9.368 45.25,7.059 45.069,4.541 44.187,2.049 42.935,0.594 42.604,0.211 42.127,0 41.639,0 Z"
       id="path9" />
    <radialGradient
       id="SVGID_2_"
       cx="-582.54"
       cy="840.62"
       r="29.203"
       gradientTransform="matrix(-0.9823,-0.1872,-0.1398,0.7336,-423.23,-702.17)"
       gradientUnits="userSpaceOnUse">
      <stop
         offset="0"
         style="stop-color:#ebd491"
         id="stop11" />
      <stop
         offset="1"
         style="stop-color:#8b723c"
         id="stop13" />
    </radialGradient>
    <path
       fill="url(#SVGID_2_)"
       d="m 31.335,49.146 c -0.328,0 -0.633,-0.189 -0.774,-0.494 -0.16,-0.348 -0.07,-0.76 0.222,-1.008 C 32.7,46.01 33.345,44.748 32.938,43.422 32.084,40.628 27.967,39.235 19.59,38.906 10.871,38.563 5.672,35.529 4.515,30.123 2.472,28.962 0.994,26.404 0.863,23.727 c -0.11,-2.273 0.82,-4.402 2.31,-5.41 0.065,-4.594 4.727,-9.115 10.114,-9.66 0.03,0 0.06,0 0.09,0 0.26,0 0.508,0.119 0.671,0.326 0.181,0.23 0.23,0.537 0.133,0.813 -0.92,2.592 0.07,6.068 2.351,8.269 3.628,3.496 9.47,6.518 17.362,8.979 8.784,2.741 10.629,8.018 10.629,11.963 0,5.081 -4.756,8.773 -13.045,10.132 -0.05,0 -0.09,0.01 -0.14,0.01 z"
       id="path16"
       style="fill:url(#SVGID_2_)" />
    <path
       d="m 13.373,9.508 c -1.1,3.096 0.196,6.888 2.562,9.168 4.24,4.086 10.764,7.016 17.702,9.182 7.119,2.222 10.027,6.266 10.027,11.146 0,4.818 -4.9,8.073 -12.329,9.29 1.929,-1.644 2.989,-3.253 2.419,-5.119 C 32.71,39.762 28.065,38.389 19.623,38.057 11.894,37.752 6.251,35.26 5.274,29.557 3.39,28.688 1.841,26.286 1.714,23.688 1.609,21.509 2.6,19.479 4.036,18.803 3.757,14.529 8.188,10.031 13.373,9.508 m 0,-1.707 c -0.06,0 -0.115,0 -0.173,0.01 -2.846,0.288 -5.672,1.649 -7.753,3.734 -1.854,1.858 -2.954,4.119 -3.11,6.337 -1.519,1.25 -2.442,3.508 -2.337,5.891 0.147,2.811 1.65,5.515 3.764,6.893 0.713,2.869 2.503,5.106 5.331,6.662 2.63,1.446 6.149,2.266 10.462,2.435 7.851,0.309 11.843,1.553 12.564,3.912 0.205,0.671 0.141,1.59 -1.895,3.322 -0.582,0.497 -0.764,1.32 -0.44,2.016 0.282,0.609 0.894,0.988 1.548,0.988 0.09,0 0.186,0 0.277,-0.02 4.055,-0.664 7.312,-1.875 9.679,-3.6 2.67,-1.943 4.081,-4.494 4.081,-7.375 0,-4.23 -1.948,-9.882 -11.227,-12.775 C 26.378,23.806 20.65,20.852 17.12,17.449 15.067,15.47 14.168,12.371 14.981,10.08 15.176,9.529 15.076,8.916 14.714,8.456 14.39,8.039 13.894,7.801 13.373,7.801 Z"
       id="path18" />
    <path
       d="m 45.214,28.896 c -0.293,0 -0.573,-0.16 -0.719,-0.437 -1.185,-2.274 -3.789,-3.801 -6.31,-5.275 -3.127,-1.83 -6.361,-3.725 -6.49,-7.107 -0.112,-2.982 2.557,-4.168 2.67,-4.217 0.41,-0.178 0.887,0.01 1.064,0.422 0.176,0.409 -0.01,0.884 -0.42,1.063 -0.08,0.04 -1.768,0.814 -1.697,2.672 0.1,2.496 2.688,4.014 5.69,5.771 2.718,1.59 5.528,3.235 6.927,5.924 0.207,0.396 0.05,0.885 -0.344,1.092 -0.118,0.06 -0.246,0.09 -0.371,0.09 z"
       id="path20" />
  </g>
</svg>
