<?xml version="1.0" encoding="UTF-8" standalone="no"?>
<svg
   version="1.1"
   id="Layer_1"
   x="0px"
   y="0px"
   width="1024"
   height="948.92"
   viewBox="0 0 1024 948.92"
   sodipodi:docname="WM.svg"
   inkscape:version="1.1.1 (3bf5ae0d25, 2021-09-20)"
   xmlns:inkscape="http://www.inkscape.org/namespaces/inkscape"
   xmlns:sodipodi="http://sodipodi.sourceforge.net/DTD/sodipodi-0.dtd"
   xmlns="http://www.w3.org/2000/svg"
   xmlns:svg="http://www.w3.org/2000/svg">
  <defs
     id="defs33" />
  <sodipodi:namedview
     id="namedview31"
     pagecolor="#ffffff"
     bordercolor="#666666"
     borderopacity="1.0"
     inkscape:pageshadow="2"
     inkscape:pageopacity="0.0"
     inkscape:pagecheckerboard="0"
     showgrid="false"
     inkscape:zoom="0.44938"
     inkscape:cx="-95.688"
     inkscape:cy="146.87"
     inkscape:window-width="1920"
     inkscape:window-height="986"
     inkscape:window-x="-11"
     inkscape:window-y="-11"
     inkscape:window-maximized="1"
     inkscape:current-layer="g12" />
  <g
     transform="matrix(0,-18.978,18.978,0,0.01468,948.9)"
     id="g28">
    <g
       transform="rotate(90,25,25)"
       id="g26">
      <g
         transform="rotate(90,26.978,26.978)"
         id="g24">
        <g
           transform="rotate(90,25,25)"
           id="g22">
          <g
             transform="rotate(90,26.978,26.978)"
             id="g20">
            <g
               id="g18">
              <g
                 id="g16">
                <g
                   transform="rotate(90,25.001,24.999)"
                   id="g14">
                  <g
                     id="g12">
                    <path
                       id="path950"
                       style="display:inline;fill:#000000;fill-opacity:1;stroke-width:18.9771"
                       d="m 790.06,32.391 c -2.05,18.805 -7.44,42.205 -18.27,57.48 -30.77,-28.313 -91.04,-39.394 -141.1,-39.394 -5.6,0 -11.07,0.132 -16.36,0.416 -175.58,8.907 -273.3,121.177 -311,254.127 6.15,9.41 13.36,18.23 21.53,26.11 67.03,64.58 175.74,120.64 323.1,166.68 109.05,34.01 164.72,88.09 191.32,143.41 16.34,-53.46 7.49,-96.97 -28.67,-143.09 -24.4,-22.07 -55.55,-40.32 -86.06,-58.16 -59.36,-34.73 -120.72,-70.7 -123.15,-134.86 -2.14,-56.59 48.5,-79.1 50.65,-80.03 7.78,-3.38 16.82,0.19 20.16,8.01 3.36,7.76 -0.19,16.77 -7.93,20.17 -1.52,0.76 -33.55,15.45 -32.2,50.7 1.71,47.36 51,76.17 107.98,109.51 34.68,20.29 70.15,41.06 97.73,68 38.12,26.59 64.95,55.58 82.48,72.55 4.52,1.14 9.28,1.71 14.14,1.71 28.05,0 58.66,-18.86 56.95,-44.02 C 957.32,459.84 895.27,379.71 889.68,299.45 884.89,230.64 853.97,182.91 826.71,145.03 825.19,96.039 807.62,52.771 790.06,32.391 Z"
                       transform="scale(0.05269)"
                       sodipodi:nodetypes="ccsccssccsssssssccscscc" />
                    <path
                       id="path941"
                       style="display:inline;fill:#000000;fill-opacity:1;stroke-width:18.978"
                       d="m 253.75,180.44 c -98.38,9.93 -182.473,95.29 -177.178,176.4 -27.271,12.83 -46.078,51.36 -44.066,92.71 2.41,49.31 31.806,94.89 67.564,111.38 18.54,108.24 125.63,155.53 272.31,161.3 160.2,6.3 248.37,32.37 268.16,97.15 10.84,35.41 -9.28,65.94 -45.89,97.14 140.99,-23.09 233.96,-84.87 233.96,-176.3 0,-92.63 -55.17,-169.38 -190.29,-211.55 C 506.65,487.58 382.86,431.98 302.39,354.43 257.49,311.16 232.89,239.2 253.75,180.44 Z"
                       transform="scale(0.05269)" />
                  </g>
                </g>
              </g>
            </g>
          </g>
        </g>
      </g>
    </g>
  </g>
</svg>
