<?xml version="1.0" encoding="UTF-8" standalone="no"?>
<svg xmlns="http://www.w3.org/2000/svg" version="1.1" width="600" height="309.77844">
  <g transform="matrix(7.3846885,0,0,7.3846885,-2469.2583,-3776.4393)">
    <path d="m 415.59555,532.52531 -0.17625,-1.5425 -1.53875,0.22 c -0.004,0 -0.9125,0.12625 -2.31875,0.12625 -3.33,0 -9.35,-0.69375 -13.4325,-5.16125 l 3.725,-2.35375 0.7425,0.025 1.465,0.0487 0.0875,-1.465 0.18625,-3.16375 0.0775,-1.25 -1.22,-0.3025 -3.19875,-0.79125 -1.46,-0.36125 -0.36625,1.46 -0.16125,0.64875 -3.4375,2.35875 c -2.51375,-4.6975 -2.05,-7.6125 -2.045,-7.64125 l 0.34625,-1.9925 -1.9925,0.22 c -0.3125,0.0338 -7.64125,0.9175 -10.835,7.465 l -0.74625,1.54875 1.63,0.54625 c 0.0437,0.015 3.82875,1.29875 6.75375,4.58 l -19.33625,13.2625 c -0.28875,-2.58875 0.14125,-4.73625 1.28375,-6.41625 2.11,-3.09625 6.055,-3.6775 6.09875,-3.68125 l 1.51875,-0.21 -0.235,-1.51375 c -0.625,-4.0625 -3.6375,-8.80875 -10.0775,-8.80875 -4.2575,0 -8.545,2.85125 -12.695,5.61 -3.20875,2.12875 -6.52375,4.33625 -8.8525,4.33625 -3.63875,0 -5.57625,-3.06625 -5.57625,-5.27875 0,-1.31375 0.375,-2.55375 1.23,-3.56 0.625,-0.74125 1.60125,-1.27375 2.51,-1.59125 0.825,-0.2875 1.72375,-0.415 2.5925,-0.425 0.65,0 1.22125,-0.42 1.42625,-1.03 0.2,-0.615 -0.005,-1.28875 -0.5275,-1.68 -1.63625,-1.23 -3.83375,-1.62125 -5.79125,-1.025 -0.5275,0.15625 -1.07375,0.38125 -1.5475,0.65375 -0.5175,0.29375 -1.02125,0.65 -1.47,1.03125 -3.74,3.17875 -3.8475,8.26625 -3.8475,8.8325 l 0,0.18125 c -0.0387,1.27375 -0.14625,4.6625 4.49625,9.4575 4.61,4.765 9.3175,7.52375 9.5175,7.63625 l 2.42125,1.40625 -0.16125,-2.7975 c -0.12125,-2.04125 0.61625,-4.0625 2.0175,-5.55125 1.225,-1.29875 2.7975,-2.04125 4.31125,-2.04125 3.06625,0 6.63125,2.8275 6.63125,6.47375 0,1.45625 -0.36625,2.79375 -1.09375,3.985 l -4.41,3.0225 c -0.405,-0.14625 -0.84,-0.225 -1.27375,-0.225 -2.08,0 -3.77,1.69 -3.77,3.77 0,2.075 1.69,3.765 3.77,3.765 1.9725,0 3.59375,-1.52375 3.75,-3.4575 l 2.89,-1.82125 c 0.61,0.3325 1.3725,0.7125 2.53875,1.23 1.23125,0.5525 5.60125,2.335 10.09875,2.335 1.5175,0 2.905,-0.21 4.11625,-0.63 1.3525,-0.465 2.61625,-1.22125 3.49,-2.37375 0.91375,-1.21125 1.43625,-2.83125 1.10375,-4.34125 -0.1075,-0.5125 -0.47875,-0.9325 -0.97125,-1.1025 -0.16125,-0.0587 -0.3325,-0.0838 -0.4975,-0.0838 -0.3425,0 -0.68375,0.1125 -0.9575,0.3375 -1.20625,0.98625 -2.6325,1.72875 -4.175,2.00125 -0.45375,0.0838 -0.9125,0.1225 -1.3775,0.1225 -2.5725,0 -4.81875,-1.21625 -6.0975,-2.09 l 19.82375,-12.52375 c 2.055,6.40625 1.40625,10.585 -2.44125,16.28375 l -1.01125,1.49875 1.665,0.7225 c 0.14625,0.0637 3.6675,1.5675 8.2175,1.5675 4.3125,0 8.0575,-1.31375 11.13375,-3.90625 8.2025,-6.91875 7.49,-14.2675 7.45625,-14.58" style="fill:#808080"/>
    <path d="m 391.3418,547.46156 c 0,0 7.905,2.745 14.21875,-2.06 6.32875,-4.82375 6.88,-8.6375 7.1775,-11.50375 0,0 -2.12375,5.175 -8.38375,9.29125 -3.66625,2.4125 -4.52125,2.86625 -13.0125,4.2725 m 15.825,-1.50875 c -7.685,6.48 -17.7825,2.11 -17.7825,2.11 4.0725,-6.025 4.975,-10.69875 2.4125,-18.2325 -0.1375,-0.4 -0.28875,-0.78625 -0.455,-1.1575 l -23.07625,14.575 0.3225,0.445 c 0,0 7.3875,6.93375 14.77125,0.9025 0,0 0.75125,3.4675 -3.61875,4.97625 -4.37,1.50375 -10.395,-0.45375 -13.11,-1.66 -1.71375,-0.7625 -2.525,-1.22625 -3.19375,-1.61125 l -4.395,2.7725 c 0.035,0.16125 0.0537,0.3275 0.0537,0.49875 0,1.245 -1.01,2.25625 -2.26,2.25625 -1.245,0 -2.25625,-1.01125 -2.25625,-2.25625 0,-1.25 1.01125,-2.26125 2.25625,-2.26125 0.5225,0 0.99625,0.18125 1.37625,0.47875 l 5.415,-3.71625 c 0.7375,-1.1075 1.5,-2.7975 1.5,-5.05375 0,-4.365 -4.0675,-7.9825 -8.14,-7.9825 -4.0675,0 -8.135,4.0675 -7.8325,9.18875 0,0 -4.6725,-2.71 -9.19375,-7.3825 -4.52125,-4.6675 -4.0675,-7.685 -4.0675,-8.58875 0,-0.90375 0.3025,-5.1225 3.315,-7.685 3.0125,-2.55875 5.7275,-1.505 6.93375,-0.60125 0,0 -7.83625,0 -7.83625,7.08 0,2.86625 2.41125,6.7825 7.08,6.7825 5.87875,0 14.31625,-9.94625 21.5475,-9.94625 6.63125,0 8.28625,5.57625 8.58875,7.53375 0,0 -11.31375,1.48 -8.2475,14.15125 L 389.868,526.07531 c -3.31625,-4.65375 -8.4675,-6.3425 -8.4675,-6.3425 2.86125,-5.87375 9.64375,-6.62625 9.64375,-6.62625 0,0 -0.77625,3.90125 3.0375,10.07875 l 5.24875,-3.59875 0.3025,-1.20625 3.19875,0.79125 -0.18625,3.16375 -1.20625,-0.0388 -5.55625,3.51 c 0.14125,0.18625 0.28375,0.37125 0.435,0.55625 6.3275,7.98875 17.7775,6.32875 17.7775,6.32875 0,0 0.7525,6.7825 -6.92875,13.26125"/>
  </g>
</svg>
