<?xml version="1.0" encoding="UTF-8" standalone="no"?>
<svg xmlns="http://www.w3.org/2000/svg" width="600" height="626.16388" version="1.1">
  <g transform="translate(286.11794,-152.68603)">
    <path style="fill:#ffffff" d="m -64.767364,152.78191 c -71.973136,2.5312 -161.894846,55.29826 -206.824016,189.49552 -34.13491,101.95598 4.2009,204.35959 -7.60839,284.49171 l -3.0123,20.52712 19.316,-7.57733 56.33314,-22.14197 c 24.7162,48.06109 60.10547,96.83872 96.79737,124.83972 l 25.806419,19.7197 -6.738861,-31.76891 c -9.848718,-46.30468 -4.197105,-108.80517 10.310146,-148.31704 l 2.111717,-5.80722 -3.447067,-5.09296 c -32.364744,-47.75418 -33.213554,-88.01962 -19.471274,-119.80887 11.440577,-26.46483 34.045971,-47.14172 59.345453,-59.06596 l 3.105465,352.74985 c 0.111575,12.66348 9.431866,22.08805 19.160724,26.89333 9.7288573,4.80528 21.0091523,6.80154 32.327897,6.92519 11.318745,0.12365 22.600516,-1.60722 32.390007,-6.27304 9.789491,-4.66582 19.172722,-14.27095 19.191778,-26.95544 l 0.527929,-355.04789 c 27.976059,10.66888 52.238057,35.49792 63.910487,65.86692 13.62565,35.45085 10.91397,77.07481 -21.36561,113.47372 l -4.6582,5.24824 2.26699,6.64569 c 15.10671,43.93781 21.67587,109.06038 8.47793,154.12426 l -10.46542,35.71286 29.3777,-22.85623 c 41.54891,-32.3082 78.43778,-85.38212 100.15127,-132.57233 l 61.364,24.28474 19.96814,7.88789 -3.6955,-21.14822 C 295.54604,543.43664 329.56535,445.86772 293.97603,335.29013 277.70792,284.74456 245.79963,238.84242 207.11615,205.66799 168.43268,172.49356 122.67701,151.69074 77.990893,153.99304 l -23.104665,1.21114 14.254087,18.19802 c 21.190383,27.1357 26.721494,51.46956 22.452517,71.022 -3.357441,15.37749 -12.972364,28.67557 -28.570284,38.78727 C 56.204433,247.61005 42.964825,213.4226 22.030401,181.32114 L 11.005998,164.39635 1.3790548,182.12856 c -16.8215138,31.00499 -35.1439238,63.26455 -41.7685128,101.33135 -11.540003,-9.61372 -20.862831,-22.68089 -24.781616,-37.48297 -5.518097,-20.84302 -1.716091,-45.51076 22.825172,-73.04056 l 16.552132,-18.57068 -24.843725,-1.42851 c -4.620096,-0.26864 -9.33166,-0.32403 -14.129869,-0.15528 z"/>
    <path d="m -30.76219,304.16872 c 2.386031,-43.70337 22.9407259,-79.83621 42.71978,-116.29246 23.251262,35.65417 36.573093,73.79089 41.928496,113.91912 53.445714,-23.34741 70.205324,-77.53069 24.716466,-135.7822 80.935748,-4.16995 172.900568,76.60691 203.913188,172.96418 34.23684,106.37538 0.41399,202.14462 15.82197,290.33569 l -71.99045,-28.47973 c -19.95627,47.6631 -59.1871,105.69937 -101.31781,138.45998 14.32144,-48.90003 7.25285,-115.16056 -8.64592,-161.4021 70.31314,-79.28608 13.77094,-188.30726 -63.520161,-203.35389 l -0.55951,371.06838 c -0.04343,28.90694 -78.762917,27.87884 -79.014673,-0.69514 l -3.260262,-370.33343 c -68.829303,21.67878 -129.983594,102.57074 -61.706159,203.31408 -15.519025,42.26754 -21.259735,105.74092 -10.787485,154.97722 -36.57535,-27.91206 -74.30294,-80.7247 -98.38512,-130.45287 l -66.45282,26.10639 c 12.51853,-84.94472 -25.32608,-185.51281 7.12001,-282.42455 46.62648,-139.26693 140.96041,-185.11082 208.851684,-181.16325 -53.255324,59.74054 -21.489077,118.18644 20.568776,139.23458 z"/>
  </g>
</svg>
