<?xml version="1.0" encoding="UTF-8" standalone="no"?>
<svg xmlns="http://www.w3.org/2000/svg" xmlns:xlink="http://www.w3.org/1999/xlink" width="600" height="633.82666" version="1.1">
  <linearGradient spreadMethod="pad" gradientTransform="matrix(286.38379,0,0,-286.38379,6.8085937,143.83398)" gradientUnits="userSpaceOnUse" id="linearGradient4128" y2="0" x2="1" y1="0" x1="0">
    <stop offset="0" style="stop-color:#bf331c"/>
    <stop offset="0.51718265" style="stop-color:#f6b91d"/>
    <stop offset="1" style="stop-color:#bf331c"/>
  </linearGradient>
  <linearGradient y2="336.76474" x2="545.12708" y1="609.81268" x1="169.55132" gradientTransform="matrix(0.94953238,0,0,0.94953238,-352.51034,-0.56901609)" gradientUnits="userSpaceOnUse" id="linearGradient3025" xlink:href="#linearGradient4128"/>
  <g transform="translate(298.60878,-170.32963)">
    <path style="fill:#ffffff;stroke-width:24.20088768" d="m -75.662109,170.4324 c -74.040181,2.6039 -163.988511,57.15471 -208.095961,188.8976 -34.17363,102.07166 2.81044,202.1999 -7.74462,273.8214 l -2.87827,19.61378 -2.87827,19.58411 18.42686,-7.24019 18.45654,-7.24018 0.0296,0 44.33129,-17.41799 c 23.82333,44.00941 55.87829,87.35388 90.79903,114.00324 l 24.65817,18.84228 24.658171,18.84228 -6.439017,-30.35536 -6.439016,-30.35536 0,-0.0296 C -97.564336,690.08675 -92.244328,631.0108 -79.40097,596.0307 l 0.02967,0 0,-0.0296 2.017756,-5.54883 1.988084,-5.48949 -3.264018,-4.86635 -3.29369,-4.86636 C -111.21739,532.00646 -111.1794,498.73362 -99.51919,471.76072 c 7.154325,-16.5497 19.819953,-30.79017 34.865642,-41.24532 l 2.789251,317.3812 c 0.155833,17.68677 12.685679,29.96143 24.717515,35.9042 11.324892,5.5936 23.762408,7.67197 35.8448478,7.80397 12.0696512,0.13185 24.5702942,-1.63334 36.0228852,-7.09182 12.308335,-5.86635 24.839171,-18.33425 24.865879,-36.11191 l 0.474766,-320.49685 c 16.819368,10.95786 31.200723,28.24301 38.901155,48.27779 11.755699,30.58564 9.861969,64.90921 -18.308171,96.67426 l -4.450933,5.01472 -4.42126,5.01472 2.16612,6.32032 2.166121,6.35 0,0.0296 c 13.63255,39.65022 19.405109,101.08702 7.922661,140.29341 l -9.999763,34.12382 -9.999763,34.15349 28.100224,-21.83924 28.070553,-21.83925 c 39.01538,-30.33815 72.50636,-77.24492 94.27076,-121.18407 l 48.78223,19.31705 19.07967,7.53691 19.04999,7.53692 -3.53107,-20.20724 -3.53108,-20.20724 C 281.11959,557.66234 313.74769,462.33876 278.4838,352.7723 262.21867,302.23597 230.58487,256.8002 192.01701,223.72491 153.45792,190.65716 107.21818,169.18605 60.566116,171.58965 l -22.076628,1.15724 -22.076628,1.15724 13.619855,17.41799 13.619855,17.35864 c 0.0052,0.007 -0.0052,0.023 0,0.0296 18.780094,24.05736 22.500556,43.59047 19.287377,58.30722 -1.459641,6.68539 -4.475796,12.82087 -9.168922,18.42691 -7.48749,-28.62535 -19.388109,-56.32447 -36.467979,-82.52029 l 0,-0.0296 -10.5338744,-16.1421 -10.504202,-16.17172 -9.1985946,16.94322 -9.198595,16.94322 c -12.837576,23.66189 -27.118469,49.02988 -35.785502,78.15838 -2.905391,-4.61641 -5.268247,-9.50433 -6.617054,-14.59906 -4.364394,-16.48524 -2.285572,-34.99739 19.287377,-59.19741 l 15.815648,-17.74439 15.815649,-17.77406 -23.738309,-1.36495 -23.73831,-1.36495 c -4.775083,-0.27765 -9.632392,-0.322 -14.569388,-0.14837 z"/>
    <path style="stroke-width:24.20088768" d="m -75.246688,181.91581 c -68.770712,2.41858 -154.691382,52.83778 -197.621432,181.06396 -32.61608,97.41948 4.01398,195.26666 -7.26985,271.83332 l -2.87827,19.61377 18.45653,-7.24018 53.82662,-21.15677 c 23.61646,45.92263 57.43109,92.52991 92.49039,119.28501 l 24.658168,18.84228 -6.439018,-30.35536 c -9.4105,-44.24437 -4.01035,-103.96391 9.8514,-141.71771 l 2.017756,-5.54883 -3.29369,-4.86635 c -30.924686,-45.62937 -31.735726,-84.10321 -18.604896,-114.478 10.931523,-25.28728 32.531096,-45.04417 56.704882,-56.43783 l 2.967289,337.05432 c 0.10661,12.10002 9.012197,21.10525 18.308171,25.69672 9.295975,4.59147 20.074356,6.4989 30.8894758,6.61705 10.8151198,0.11815 21.5949112,-1.5357 30.9488212,-5.99392 9.35391,-4.45822 18.319636,-13.63597 18.337844,-25.75607 l 0.504439,-339.25011 c 26.731271,10.19417 49.913737,33.91845 61.066798,62.93619 13.01938,33.87347 10.42837,73.64538 -20.414943,108.42473 l -4.450933,5.01472 2.166121,6.35 c 14.434535,41.9828 20.711395,104.20776 8.100698,147.26653 l -9.999763,34.12382 28.07055,-21.83924 c 39.7002,-30.87066 74.94771,-81.58306 95.69506,-126.67356 l 58.63363,23.2042 19.07966,7.53692 -3.53107,-20.20724 C 269.03466,555.18845 301.54029,461.96084 267.5345,356.30337 251.99024,308.00681 221.5017,264.14708 184.53944,232.44874 147.57717,200.75039 103.8574,180.87319 61.159573,183.07305 l -22.076627,1.15725 13.619855,17.38831 c 20.247521,25.9283 25.532527,49.17943 21.453497,67.86189 -3.208053,14.69327 -12.395162,27.39965 -27.299056,37.06144 C 40.342497,272.5246 27.691983,239.85831 7.6890311,209.1852 l -10.5338749,-16.17173 -9.1985952,16.94322 c -16.073044,29.62543 -33.580203,60.44961 -39.910033,96.82263 -11.026533,-9.18596 -19.934543,-21.67171 -23.678964,-35.81517 -5.27257,-19.91562 -1.639733,-43.48577 21.809572,-69.79063 l 15.815649,-17.74439 -23.73831,-1.36495 c -4.414526,-0.25669 -8.916449,-0.30961 -13.501163,-0.14837 z"/>
    <path style="fill:url(#linearGradient3025)" d="m -42.754566,326.5667 c 2.279865,-41.7588 21.919983,-76.28392 40.8189725,-111.11806 22.2167025,34.06775 34.9457825,70.50759 40.0628985,108.85032 51.067658,-22.30857 67.081555,-74.08098 23.616712,-129.7406 77.334533,-3.98441 165.207393,73.1983 194.840113,165.26818 32.71348,101.64223 0.39558,193.15024 15.11798,277.41727 L 202.91485,610.03128 C 183.84654,655.57362 146.36128,711.02758 106.10516,742.33052 119.78937,695.60628 113.0353,632.294 97.84394,588.10997 165.02851,512.3517 111.00214,408.18139 37.150094,393.80426 l -0.534616,354.55777 c -0.04149,27.62074 -75.258379,26.63838 -75.498934,-0.6642 L -41.998653,393.8423 c -65.766757,20.71418 -124.199997,98.00687 -58.960557,194.26767 -14.82851,40.38685 -20.31379,101.036 -10.3075,148.08154 -34.94793,-26.67012 -70.99685,-77.13287 -94.0075,-124.6484 l -63.49602,24.94479 c 11.96153,-81.16513 -24.1992,-177.25846 6.80321,-269.85814 44.55185,-133.07028 134.68842,-176.87435 199.55888,-173.10243 -50.88574,57.0824 -20.532925,112.92776 19.653574,133.03937 z"/>
  </g>
</svg>
