<?xml version="1.0" encoding="UTF-8" standalone="no"?>
<svg xmlns="http://www.w3.org/2000/svg" width="600" height="626.16388" version="1.1">
  <g transform="translate(286.11794,-152.68603)">
    <path d="m -30.76219,304.16872 c 2.386031,-43.70337 22.9407259,-79.83621 42.71978,-116.29246 23.251262,35.65417 36.573093,73.79089 41.928496,113.91912 53.445714,-23.34741 70.205324,-77.53069 24.716466,-135.7822 80.935748,-4.16995 172.900568,76.60691 203.913188,172.96418 34.23684,106.37538 0.41399,202.14462 15.82197,290.33569 l -71.99045,-28.47973 c -19.95627,47.6631 -59.1871,105.69937 -101.31781,138.45998 14.32144,-48.90003 7.25285,-115.16056 -8.64592,-161.4021 70.31314,-79.28608 13.77094,-188.30726 -63.520161,-203.35389 l -0.55951,371.06838 c -0.04343,28.90694 -78.762917,27.87884 -79.014673,-0.69514 l -3.260262,-370.33343 c -68.829303,21.67878 -129.983594,102.57074 -61.706159,203.31408 -15.519025,42.26754 -21.259735,105.74092 -10.787485,154.97722 -36.57535,-27.91206 -74.30294,-80.7247 -98.38512,-130.45287 l -66.45282,26.10639 c 12.51853,-84.94472 -25.32608,-185.51281 7.12001,-282.42455 46.62648,-139.26693 140.96041,-185.11082 208.851684,-181.16325 -53.255324,59.74054 -21.489077,118.18644 20.568776,139.23458 z"/>
  </g>
</svg>
