<?xml version="1.0" encoding="UTF-8" standalone="no"?>
<svg xmlns="http://www.w3.org/2000/svg" version="1.1" width="600" height="607.4729">
  <path d="m 263.68803,590.63499 c -0.75934,0.1215 -1.53387,0.18224 -2.36915,0.18224 0.65243,-0.0607 1.89836,-0.0607 2.36915,-0.18224 M 90.588732,497.20572 c 0,-2.14134 0.349904,-4.40418 1.366813,-6.83407 -0.896629,2.20209 -1.123824,4.51049 -1.366813,6.87963 0,0 0,-0.0486 0,-0.0486 M 343.96552,272.05818 c 1.77686,-0.53214 12.74174,-4.79903 25.49866,-14.65527 2.49064,1.9591 4.92053,3.9182 7.59341,5.46725 3.38665,1.9591 7.47191,2.83994 11.63309,2.83994 5.57356,20.41107 16.78143,43.72283 38.08853,63.42013 2.71844,2.55138 3.90301,6.75813 3.90301,11.98239 0,20.00103 -17.13072,55.88747 -33.6236,78.84994 -0.89542,1.06307 -33.63879,41.17144 -112.00275,41.17144 -55.94822,0 -112.18499,-26.04538 -136.51426,-82.58588 6.83407,5.10277 14.53378,9.9018 23.43325,14.41228 7.77565,3.97895 17.02442,3.62965 24.45077,-0.88083 7.06187,-4.32825 11.26862,-11.92165 11.73941,-20.12253 6.87962,0 13.40995,-4.38899 18.51272,-9.37026 2.73363,-2.61214 4.44974,-6.34809 5.63431,-10.3726 19.63655,17.31297 44.13288,22.94728 63.95167,12.98473 6.1051,-3.02218 10.73708,-8.47424 12.75692,-15.00457 0.77392,-2.42989 1.12383,-4.92053 1.12383,-7.41117 0,-4.28268 -1.06308,-8.48943 -3.14367,-12.22538 -2.49064,-4.63198 -6.05954,-13.06066 -8.1857,-21.77789 2.42989,-0.53215 4.79904,-0.34991 7.28968,-1.41238 3.50815,-1.54905 6.59107,-3.7967 9.08171,-6.65182 0.59168,-0.65364 10.32703,-12.22539 20.35033,-27.94374 2.83993,0.18225 5.63431,0.1215 8.42868,-0.71438 M 27.639392,294.367 l -2.42989,2.42989 c 0.591678,-0.65364 1.245319,-1.24531 2.42989,-2.42989 M 383.22343,234.74358 c 0,-1.89836 1.01691,-3.61447 1.42756,-5.45207 -0.34869,2.49064 -0.65242,5.10277 -0.65242,8.12495 -0.1215,-0.89663 -0.77392,-1.71611 -0.77392,-2.67288 M 340.33709,0.42623646 C 320.70054,4.0406965 283.62953,23.677246 269.27799,73.975966 l 0,0 c -5.58875,19.51506 -16.32583,24.86082 -34.76262,32.636474 -11.10156,4.67753 -28.59677,13.40995 -39.63758,22.24868 -8.18569,6.51514 -3.55371,13.22771 -5.9836,19.92509 -0.36449,-1.59461 -0.36449,-3.32591 -1.07887,-4.79903 -4.73829,-9.91699 -15.24756,-15.67279 -26.09095,-14.12373 -2.85512,0.40943 -70.011206,10.85857 -131.289997,98.18274 -1.776857,2.3084 -12.939164,18.26974 -12.939164,39.5009 0,12.16464 0.303736,21.12486 5.755802,31.2089 -5.452066,5.46726 -16.4928792,16.49288 -16.4928792,16.49288 -1.1238242,1.12383 -2.1869011,2.42989 -3.0829231,3.79671 C 1.3060659,322.55312 0,329.90354 0,340.16982 0,374.6287 15.429802,441.1925 60.868746,496.59399 c 0.835883,1.07888 1.837605,2.0806 2.839934,3.03737 2.445077,2.0654 13.652945,10.79782 29.371297,14.23004 3.492967,10.32703 11.147123,27.35145 27.822243,39.80464 19.51505,14.65527 58.37811,17.85969 75.69107,18.69496 3.56891,4.38899 7.24411,7.41117 9.02097,8.59574 13.53145,9.02097 33.04651,10.44853 46.33497,10.20554 9.30951,7.77565 24.14703,16.31064 47.04874,16.31064 22.59798,0 36.94952,-7.94271 46.03123,-15.30831 l 15.24756,0 c 10.0233,0 19.15058,-5.98361 23.06877,-15.23237 -2.1869,5.14833 -4.79903,6.51514 -4.92052,6.51514 0,0 2.24764,-1.06308 8.30718,-1.06308 9.08172,0 17.49521,-5.04202 21.94495,-12.93916 2.14134,-3.73596 6.59107,-8.96022 9.20321,-10.14479 3.96375,-1.53387 18.49753,-2.55139 30.37362,-1.9591 5.33057,0.18224 10.67633,-1.24532 15.12607,-4.20675 2.77918,-1.89835 25.62015,-18.39123 43.19129,-45.56044 23.19027,-11.02563 72.42592,-39.1516 72.42592,-79.85226 0,-3.73595 -0.59168,-7.41116 -1.18458,-11.02562 3.85745,-4.28269 6.46959,-9.61326 6.75814,-15.71836 0.53093,-11.2838 1.77685,-42.35602 1.77685,-62.94934 0,-5.51281 -0.10934,-9.9018 -0.3499,-13.3492 0.65242,-1.12383 1.89835,-3.26517 1.89835,-3.26517 4.26749,-7.06187 10.79782,-17.79894 11.9824,-33.98809 C 600,285.87697 600,284.40385 600,282.91554 c 0,-20.10734 -9.674,-34.76262 -15.59686,-43.78358 0,0 -3.03736,-4.92053 -3.14367,-5.10277 0,0 0,-0.10935 0,-0.28916 0,-1.18457 -0.54672,-5.69505 -0.54672,-5.69505 -0.82009,-9.37027 -2.12616,-23.494 -10.49409,-35.1271 0.83588,-1.53387 2.3084,-2.55139 2.83993,-4.32824 1.07887,-3.26517 1.48831,-6.51515 1.48831,-9.78031 0,-12.16464 -6.04435,-23.43325 -11.14712,-30.02433 -0.30374,-0.88084 -2.55138,-7.82121 -2.55138,-7.82121 l -7.7149,-20.12253 c -7.53266,-12.63542 -38.27077,-32.499784 -66.50306,-39.333844 -5.93804,-1.41238 -11.57235,-1.83761 -17.20666,-2.12616 1.54906,-4.32824 2.85512,-8.48942 5.8773,-13.71369 2.24765,-3.90301 3.44741,-8.292 3.44741,-12.68099 0,-4.34342 -1.13841,-8.61092 -3.32592,-12.52912 -4.51048,-7.76046 -12.81767,-12.57468 -21.83863,-12.57468 -5.16352,0 -49.58495,0.77392 -80.38381,20.47183 -2.36914,-3.56891 -4.55604,-9.26396 -4.55604,-13.47071 0,-0.83588 0.0486,-1.59461 0.28916,-2.24765 0.77513,-2.42989 1.12382,-4.98127 1.12382,-7.48709 0,-6.1051 -2.1869,-12.02796 -6.28734,-16.6599395 -5.8773,-6.65182 -14.76158,-9.674 -23.43325,-8.06420004" style="fill:#ffffff"/>
  <path d="m 317.92014,170.6285 c 6.63663,-13.28846 16.49287,-22.30943 17.43446,-43.0698 0,0 -73.38268,3.02217 -69.76822,65.85002 0,0 36.78246,8.30718 52.33376,-22.78022 m 56.64681,387.85601 c 0,0 -2.90068,4.20675 -5.39132,5.92286 -4.28268,2.79437 -8.89947,2.61213 -8.89947,2.61213 l -25.1038,0 c 0,0 -9.71957,15.36905 -36.17499,15.36905 -26.47062,0 -37.61774,-16.73586 -37.61774,-16.73586 0,0 -29.2498,2.79437 -41.82448,-5.57356 -4.20675,-2.77919 -7.94271,-10.85858 -7.94271,-10.85858 0,0 1.65537,-5.39131 2.00466,-6.22659 1.36682,-3.55371 1.54906,-7.12261 2.26284,-10.91932 0.47018,-2.36914 0.3499,-4.67754 1.36681,-6.87962 0.88084,-1.89836 3.32591,-4.38899 5.10277,-5.86211 1.59462,-1.24532 4.08525,-3.38666 5.86211,-4.57123 4.03969,-2.61214 8.14013,-4.10044 11.87609,-7.12262 3.90301,-3.14367 11.32936,-10.38778 11.32936,-10.38778 l -2.32358,-3.08292 c 0,0 -5.74062,3.85745 -6.57589,4.44973 -3.85745,2.97662 -7.24411,5.81655 -11.69385,7.89715 -4.38899,2.08059 -13.75925,7.35041 -13.75925,7.35041 0,0 -1.8376,-2.08059 -2.96143,-3.7967 -1.9591,-2.90068 -4.38899,-5.16352 -6.05954,-8.30719 -0.88083,-1.77685 -5.69505,-7.10742 -5.69505,-7.10742 l -1.83761,2.30839 c 0,0 5.10277,10.73708 5.40651,12.87842 0.3499,2.1869 2.77919,6.94037 2.36914,9.00578 -1.65536,8.24644 -3.20441,13.40995 -4.03969,21.77789 -0.3499,3.7967 -1.41237,6.87962 -1.41237,6.87962 0,0 -50.13167,-1.36681 -66.86754,-13.88074 -16.65993,-12.57468 -20.88187,-33.45655 -20.88187,-33.45655 0,0 4.22194,-9.73475 -9.71956,-9.73475 -13.941493,0 -25.103801,-9.71956 -25.103801,-9.71956 C 23.144096,411.00537 24.556469,332.99071 24.556469,332.99071 l 20.881868,-20.88186 c 0,0 8.367934,-13.9415 2.794374,-20.88187 -5.573561,-7.00112 -5.573561,-9.73475 -5.573561,-23.67624 0,-13.9415 8.352747,-25.08862 8.352747,-25.08862 55.705233,-79.36628 114.204833,-87.73422 114.204833,-87.73422 0,0 -54.27767,48.70411 -54.27767,158.74776 0,110.04365 80.79385,172.74999 174.11681,172.74999 93.30778,0 132.33789,-51.49848 132.33789,-51.49848 0,0 64.07316,-89.16177 26.47062,-123.98514 -37.61774,-34.82336 -34.82337,-78.01465 -34.82337,-78.01465 -5.58874,0 -19.51505,8.36793 -19.51505,8.36793 -9.73475,-5.63431 -19.53024,-19.51506 -19.53024,-19.51506 -15.29312,20.88187 -33.3958,26.45543 -33.3958,26.45543 l -11.14713,-8.35274 c -11.1623,23.66105 -29.2498,44.54292 -29.2498,44.54292 -9.79549,4.20675 -22.30943,-2.73363 -22.30943,-2.73363 -8.36793,26.47062 11.16231,61.29398 11.16231,61.29398 -11.16231,5.51281 -26.47061,1.41237 -39.04529,-11.16231 -12.51394,-12.57468 -22.24868,-19.51505 -32.02899,-9.71956 -9.73475,9.71956 -4.16119,25.02787 -4.16119,25.02787 -8.35275,-1.36681 -20.86668,-8.30719 -20.86668,-8.30719 -5.58875,11.10156 -5.58875,32.02899 -5.58875,32.02899 -79.42703,-40.39692 -23.7218,-86.42815 -23.7218,-86.42815 1.42756,-34.82336 4.20675,-54.27767 27.88299,-66.85235 23.66105,-12.51394 32.02899,-22.24868 27.88299,-33.3958 -4.22194,-11.16231 -9.32471,-27.1844 0.94158,-38.02778 16.31064,-17.32816 63.1164,-16.32583 77.05789,-65.090684 13.94149,-48.74967 51.55923,-55.70523 51.55923,-55.70523 -7.00112,22.30942 13.88075,64.07316 38.96936,45.98566 25.1038,-18.14824 69.64673,-18.14824 69.64673,-18.14824 C 434.12963,86.447986 441.07,110.10905 441.07,110.10905 c 33.3958,-20.881874 86.38259,16.73586 90.52859,23.67624 4.20675,7.00112 7.00113,25.08861 11.14713,29.31055 4.16118,4.146 11.1623,19.4543 2.79437,20.88187 -8.36794,1.41237 -12.51394,11.14712 0,19.4543 12.57468,8.4135 8.36793,30.66218 12.57468,40.39693 4.16119,9.7803 18.10268,22.30942 16.67512,41.82448 -1.36681,19.51505 -15.30831,26.45543 -13.94149,39.03011 1.42756,12.51393 -1.36682,75.22028 -1.36682,75.22028 -9.79549,-20.88187 -41.82448,-37.66329 -41.82448,-37.66329 0,0 36.25092,33.45655 36.25092,65.48553 0,32.10492 -64.07316,59.92716 -64.07316,59.92716 -15.36906,27.88299 -40.39692,44.60367 -40.39692,44.60367 0,0 -29.24981,-1.42756 -41.82449,4.16119 -11.14712,4.98128 -19.04426,17.67745 -20.59332,20.39589 0,0 -7.41116,-11.92165 -3.14367,-36.60022 0,0 -15.77909,18.14824 -9.30951,38.27077"/>
</svg>
