<?xml version="1.0" encoding="UTF-8" standalone="no"?>
<svg xmlns="http://www.w3.org/2000/svg" version="1.1" width="600" height="607.4729">
  <radialGradient cx="0" cy="0" r="1" fx="0" fy="0" id="radialGradient516" gradientUnits="userSpaceOnUse" gradientTransform="matrix(17.669266,0,0,-17.669266,482.98437,371.97021)" spreadMethod="pad">
    <stop style="stop-color:#f6b91d" offset="0"/>
    <stop style="stop-color:#d3641c" offset="0.7"/>
    <stop style="stop-color:#bf331c" offset="1"/>
  </radialGradient>
  <path d="m 263.74877,590.63013 c -0.82008,0.1215 -1.59461,0.18225 -2.42989,0.18225 0.65243,-0.0607 1.89836,-0.0607 2.42989,-0.18225 M 90.588732,497.20086 c 0,-2.14134 0.349904,-4.40418 1.366813,-6.83407 -0.896629,2.20209 -1.123824,4.51049 -1.366813,6.87963 l 0,-0.0486 z M 343.96552,272.05636 c 1.77686,-0.53215 12.74174,-4.79903 25.49866,-14.65527 2.49064,1.9591 4.92053,3.91819 7.59341,5.46725 3.38665,1.9591 7.47191,2.83993 11.63309,2.83993 5.57356,20.41108 16.78143,43.72284 38.08853,63.42013 2.71844,2.55139 3.90301,6.75814 3.90301,11.9824 0,20.00103 -17.13072,55.88747 -33.6236,78.84993 -0.89542,1.06308 -33.63879,41.17145 -112.00275,41.17145 -55.94822,0 -112.18499,-26.04538 -136.51426,-82.58589 6.83407,5.10277 14.53378,9.90181 23.43325,14.41229 7.77565,3.97894 17.02442,3.62965 24.45077,-0.88084 7.06187,-4.32824 11.26862,-11.92164 11.73941,-20.12252 6.87962,0 13.40995,-4.38899 18.51272,-9.37027 2.73363,-2.61213 4.44974,-6.34808 5.63431,-10.37259 19.63655,17.31297 44.13288,22.94727 63.95167,12.98472 6.1051,-3.02217 10.73708,-8.47424 12.75692,-15.00457 0.77392,-2.42989 1.12383,-4.92052 1.12383,-7.41116 0,-4.28268 -1.06308,-8.48943 -3.14367,-12.22539 -2.49064,-4.63197 -6.05954,-13.06065 -8.1857,-21.77789 2.42989,-0.53093 4.79904,-0.34868 7.28968,-1.41237 3.50815,-1.54905 6.59107,-3.7967 9.08171,-6.65182 0.59168,-0.65364 10.32703,-12.22539 20.35033,-27.94374 2.83993,0.18224 5.63431,0.1215 8.42868,-0.71317 M 27.700139,294.3664 c 0,0 -1.959098,1.89835 -2.490637,2.42989 0.591678,-0.65364 1.245319,-1.24532 2.490637,-2.42989 M 383.22343,234.74297 c 0,-1.89835 1.01691,-3.61446 1.42756,-5.45207 -0.34869,2.49064 -0.65242,5.10277 -0.65242,8.12495 -0.1215,-0.89663 -0.77392,-1.71611 -0.77392,-2.67288 M 340.33709,0.42562647 C 320.70054,4.0400865 283.62953,23.676636 269.27799,73.975366 l 0,0 c -5.58875,19.51505 -16.32583,24.86081 -34.76262,32.636464 -11.10156,4.67754 -28.59677,13.40995 -39.63758,22.24868 -8.18569,6.51514 -3.49297,13.22771 -5.9836,19.9251 -0.36449,-1.59462 -0.36449,-3.32591 -1.07887,-4.79904 -4.73829,-9.91698 -15.24756,-15.67279 -26.09095,-14.12373 -2.85512,0.40943 -70.011206,10.85857 -131.289997,98.18274 -1.776857,2.3084 -12.878417,18.26974 -12.878417,39.5009 0,12.16464 0.242989,21.12486 5.695055,31.20891 -5.452066,5.46725 -16.4928792,16.49287 -16.4928792,16.49287 -1.1238242,1.12383 -2.1869011,2.42989 -3.0829231,3.79671 C 1.3060659,322.55312 0,329.90354 0,340.16982 0,374.6287 15.429802,441.1925 60.868746,496.59399 c 0.835883,1.07888 1.837605,2.0806 2.839934,3.03737 2.445077,2.0654 13.652945,10.79782 29.371297,14.23004 3.492967,10.32703 11.147123,27.35145 27.822243,39.80464 19.51505,14.65527 58.37811,17.85969 75.69107,18.69496 3.56891,4.38899 7.24411,7.41117 9.02097,8.59574 13.53145,9.02097 33.04651,10.44853 46.33497,10.20554 9.30951,7.77565 24.14703,16.31064 47.04874,16.31064 22.59798,0 36.94952,-7.94271 46.03123,-15.30831 l 15.24756,0 c 10.0233,0 19.15058,-5.98361 23.06877,-15.23237 -2.1869,5.14833 -4.79903,6.51514 -4.92052,6.51514 0,0 2.24764,-1.06308 8.30718,-1.06308 9.08172,0 17.49521,-5.04202 21.94495,-12.93916 2.14134,-3.73596 6.59107,-8.96022 9.20321,-10.14479 3.96375,-1.53387 18.49753,-2.55139 30.37362,-1.9591 5.33057,0.18224 10.67633,-1.24532 15.12607,-4.20675 2.77918,-1.89835 25.62015,-18.39123 43.19129,-45.56044 23.19027,-11.02563 72.42592,-39.1516 72.42592,-79.85226 0,-3.73595 -0.59168,-7.41116 -1.18458,-11.02562 3.85745,-4.28269 6.46959,-9.61326 6.75814,-15.71836 0.53093,-11.2838 1.77685,-42.35602 1.77685,-62.94934 0,-5.51281 -0.10934,-9.9018 -0.3499,-13.3492 0.65242,-1.12383 1.89835,-3.26517 1.89835,-3.26517 4.26749,-7.06187 10.79782,-17.79894 11.9824,-33.98809 C 600,285.87697 600,284.40385 600,282.91554 c 0,-20.10734 -9.674,-34.76262 -15.59686,-43.78358 0,0 -3.03736,-4.92053 -3.14367,-5.10277 0,0 0,-0.10935 0,-0.28916 0,-1.18457 -0.54672,-5.69505 -0.54672,-5.69505 -0.82009,-9.37027 -2.12616,-23.494 -10.49409,-35.1271 0.83588,-1.53387 2.3084,-2.55139 2.83993,-4.32824 1.07887,-3.26517 1.48831,-6.51515 1.48831,-9.78031 0,-12.16464 -6.04435,-23.43325 -11.14712,-30.02433 -0.30374,-0.88084 -2.55138,-7.82121 -2.55138,-7.82121 l -7.7149,-20.12253 c -7.53266,-12.63542 -38.27077,-32.499784 -66.50306,-39.333844 -5.93804,-1.41238 -11.57235,-1.83761 -17.20666,-2.12616 1.54906,-4.32824 2.85512,-8.48942 5.8773,-13.71369 2.24765,-3.90301 3.44741,-8.292 3.44741,-12.68099 0,-4.34342 -1.13841,-8.61092 -3.32592,-12.52912 -4.51048,-7.76046 -12.81767,-12.57468 -21.83863,-12.57468 -5.16352,0 -49.58495,0.77392 -80.38381,20.47183 -2.36914,-3.56891 -4.55604,-9.26396 -4.55604,-13.47071 0,-0.83588 0.0486,-1.59461 0.28916,-2.24765 0.77513,-2.42989 1.12382,-4.98127 1.12382,-7.48709 0,-6.1051 -2.1869,-12.02796 -6.28734,-16.6599395 -5.8773,-6.65182 -14.76158,-9.674 -23.43325,-8.06420003" style="fill:#ffffff"/>
  <path d="m 317.92014,170.62364 c 6.63663,-13.28846 16.49287,-22.30943 17.43446,-43.0698 0,0 -73.38268,3.02217 -69.76822,65.85002 0,0 36.78246,8.30718 52.33376,-22.78022 m 56.64681,387.85601 c 0,0 -2.90068,4.20675 -5.39132,5.92286 -4.28268,2.79437 -8.89947,2.61213 -8.89947,2.61213 l -25.1038,0 c 0,0 -9.71957,15.36905 -36.17499,15.36905 -26.47062,0 -37.61774,-16.73586 -37.61774,-16.73586 0,0 -29.2498,2.79437 -41.82448,-5.57356 -4.20675,-2.77919 -7.94271,-10.85858 -7.94271,-10.85858 0,0 1.65537,-5.39131 2.00466,-6.22659 1.36682,-3.55371 1.54906,-7.12261 2.26284,-10.91932 0.47018,-2.36914 0.3499,-4.67754 1.36681,-6.87962 0.88084,-1.89836 3.32591,-4.38899 5.10277,-5.86211 1.59462,-1.24532 4.08525,-3.38666 5.86211,-4.57123 4.03969,-2.61214 8.14013,-4.10044 11.87609,-7.12262 3.90301,-3.14367 11.32936,-10.38778 11.32936,-10.38778 l -2.32358,-3.08292 c 0,0 -5.74062,3.85745 -6.51514,4.44973 -3.9182,2.97662 -7.30486,5.81655 -11.7546,7.89715 -4.38899,2.08059 -13.75925,7.35041 -13.75925,7.35041 0,0 -1.8376,-2.08059 -2.96143,-3.7967 -1.9591,-2.90068 -4.38899,-5.16352 -6.05954,-8.30719 -0.88083,-1.77685 -5.69505,-7.10742 -5.69505,-7.10742 l -1.83761,2.30839 c 0,0 5.10277,10.73708 5.40651,12.87842 0.3499,2.1869 2.77919,6.94037 2.36914,9.00578 -1.65536,8.24644 -3.20441,13.40995 -4.03969,21.77789 -0.3499,3.7967 -1.41237,6.87962 -1.41237,6.87962 0,0 -50.13167,-1.36681 -66.86754,-13.88074 -16.65993,-12.57468 -20.88187,-33.45655 -20.88187,-33.45655 0,0 4.22194,-9.73475 -9.71956,-9.73475 -13.941493,0 -25.103801,-9.71956 -25.103801,-9.71956 C 23.144096,411.00051 24.556469,332.98585 24.556469,332.98585 l 20.881868,-20.88186 c 0,0 8.367934,-13.9415 2.794374,-20.88187 -5.573561,-7.00112 -5.573561,-9.73475 -5.573561,-23.67624 0,-13.9415 8.352747,-25.08862 8.352747,-25.08862 55.705233,-79.36628 114.204833,-87.73422 114.204833,-87.73422 0,0 -54.27767,48.70411 -54.27767,158.74776 0,110.04365 80.79385,172.74999 174.11681,172.74999 93.30778,0 132.33789,-51.49848 132.33789,-51.49848 0,0 64.07316,-89.16177 26.47062,-123.98514 -37.61774,-34.82336 -34.82337,-78.01465 -34.82337,-78.01465 -5.58874,0 -19.51505,8.36793 -19.51505,8.36793 -9.73475,-5.63431 -19.53024,-19.51506 -19.53024,-19.51506 -15.29312,20.88187 -33.3958,26.45543 -33.3958,26.45543 l -11.14713,-8.35274 c -11.1623,23.66105 -29.2498,44.54292 -29.2498,44.54292 -9.79549,4.20675 -22.30943,-2.73363 -22.30943,-2.73363 -8.36793,26.47062 11.16231,61.29398 11.16231,61.29398 -11.16231,5.51281 -26.47061,1.41237 -39.04529,-11.16231 -12.51394,-12.57468 -22.24868,-19.51505 -32.02899,-9.71956 -9.73475,9.71956 -4.16119,25.02787 -4.16119,25.02787 -8.35275,-1.36681 -20.86668,-8.30719 -20.86668,-8.30719 -5.58875,11.10156 -5.58875,32.02899 -5.58875,32.02899 -79.42703,-40.39692 -23.66105,-86.42815 -23.66105,-86.42815 1.36681,-34.82336 4.146,-54.27767 27.82224,-66.85235 23.66105,-12.51394 32.02899,-22.24868 27.88299,-33.3958 -4.22194,-11.16231 -9.32471,-27.1844 0.94158,-38.02778 16.31064,-17.32816 63.1164,-16.32583 77.05789,-65.090684 13.94149,-48.74967 51.55923,-55.70523 51.55923,-55.70523 -7.00112,22.30942 13.88075,64.07316 38.96936,45.98567 25.1038,-18.14825 69.64673,-18.14825 69.64673,-18.14825 C 434.12963,86.443126 441.07,110.10419 441.07,110.10419 c 33.3958,-20.881874 86.38259,16.73587 90.52859,23.67624 4.20675,7.00112 7.00113,25.08861 11.14713,29.31055 4.16118,4.146 11.1623,19.45431 2.79437,20.88187 -8.36794,1.41237 -12.51394,11.14712 0,19.4543 12.57468,8.4135 8.36793,30.66218 12.57468,40.39693 4.16119,9.7803 18.10268,22.30942 16.67512,41.82448 -1.36681,19.51505 -15.30831,26.45543 -13.94149,39.03011 1.42756,12.51393 -1.36682,75.22028 -1.36682,75.22028 -9.79549,-20.88187 -41.82448,-37.66329 -41.82448,-37.66329 0,0 36.25092,33.45655 36.25092,65.48553 0,32.10492 -64.07316,59.92716 -64.07316,59.92716 -15.36906,27.88299 -40.39692,44.60367 -40.39692,44.60367 0,0 -29.24981,-1.42756 -41.82449,4.16119 -11.14712,4.98128 -19.04426,17.67745 -20.59332,20.39589 0,0 -7.41116,-11.92165 -3.14367,-36.60022 0,0 -15.77909,18.14824 -9.30951,38.27077" style="fill:#bf331c"/>
  <g transform="matrix(15.186813,0,0,-15.186813,-7035.231,5954.6581)">
    <path d="m 483.047,386.633 c -0.68,-2.387 -2.485,-3.153 -3.797,-3.715 l 0,0 c -0.598,-0.254 -1.113,-0.477 -1.395,-0.773 l 0,0 c -0.441,-0.469 -0.242,-1.235 0.043,-1.989 l 0,0 c 0.473,-1.265 -0.781,-2.133 -2.07,-2.816 l 0,0 c -1.308,-0.695 -1.48,-1.746 -1.566,-3.981 l 0,0 -0.012,-0.222 -0.172,-0.145 c -0.012,-0.008 -1.195,-1.015 -1.058,-2.238 l 0,0 c 0.089,-0.793 0.71,-1.543 1.847,-2.238 l 0,0 c 0.047,0.476 0.156,1.074 0.375,1.507 l 0,0 0.231,0.465 0.461,-0.25 c 0.097,-0.058 0.3,-0.164 0.527,-0.261 l 0,0 c 0.012,0.406 0.129,0.882 0.519,1.277 l 0,0 c 0.301,0.297 0.633,0.449 0.997,0.449 l 0,0 c 0.609,0 1.148,-0.418 1.824,-1.09 l 0,0 c 0.469,-0.468 1.015,-0.742 1.496,-0.75 l 0,0 c -0.371,0.852 -0.926,2.473 -0.496,3.848 l 0,0 0.187,0.578 0.535,-0.289 c 0.106,-0.059 0.45,-0.211 0.762,-0.211 l 0,0 c 0.063,0 0.121,0.008 0.172,0.02 l 0,0 c 0.277,0.336 1.184,1.472 1.766,2.714 l 0,0 0.261,0.559 0.493,-0.371 0.503,-0.379 c 0.36,0.168 1.086,0.594 1.727,1.469 l 0,0 0.41,0.558 0.403,-0.566 c 0.136,-0.195 0.515,-0.68 0.894,-0.984 l 0,0 c 0.371,0.207 0.914,0.464 1.266,0.464 l 0,0 0.527,-0.003 -0.031,-0.532 c 0,-0.023 -0.125,-2.644 2.136,-4.738 l 0,0 c 2.77,-2.562 -1.496,-8.566 -1.683,-8.832 l 0,0 c -0.109,-0.148 -2.793,-3.594 -9.113,-3.594 l 0,0 c -0.629,0 -1.246,0.039 -1.84,0.117 l 0,0 0.027,-0.039 0.262,-0.347 -0.313,-0.309 c 0,0 -0.511,-0.5 -0.785,-0.719 l 0,0 c -0.172,-0.136 -0.347,-0.238 -0.531,-0.336 l 0,0 c -0.094,-0.05 -0.191,-0.101 -0.297,-0.168 l 0,0 c -0.07,-0.046 -0.16,-0.121 -0.238,-0.183 l 0,0 -0.098,-0.078 c -0.094,-0.074 -0.18,-0.176 -0.199,-0.211 l 0,0 c -0.008,-0.024 -0.02,-0.09 -0.024,-0.149 l 0,0 c -0.007,-0.058 -0.015,-0.125 -0.027,-0.183 l 0,0 -0.035,-0.207 c -0.027,-0.18 -0.059,-0.383 -0.141,-0.602 l 0,0 c -0.007,-0.027 -0.035,-0.105 -0.054,-0.18 l 0,0 c 0.086,-0.156 0.195,-0.304 0.257,-0.347 l 0,0 c 0.297,-0.199 0.934,-0.313 1.743,-0.313 l 0,0 c 0.39,0 0.675,0.024 0.683,0.028 l 0,0 0.297,0.023 0.164,-0.242 c 0.028,-0.035 0.633,-0.883 2.067,-0.883 l 0,0 c 1.418,0 1.945,0.75 1.964,0.785 l 0,0 0.153,0.227 0.265,0 1.664,0 c 0.004,0 0.165,0 0.293,0.086 l 0,0 c 0.02,0.015 0.055,0.047 0.09,0.09 l 0,0 c -0.308,1.464 0.735,2.679 0.782,2.734 l 0,0 1.179,1.344 -0.308,-1.758 c -0.086,-0.492 -0.09,-0.895 -0.067,-1.207 l 0,0 c 0.254,0.262 0.567,0.523 0.934,0.683 l 0,0 c 0.613,0.274 1.656,0.329 2.426,0.329 l 0,0 c 0.156,0 0.285,0 0.379,-0.004 l 0,0 c 0.39,0.293 1.597,1.257 2.374,2.672 l 0,0 0.079,0.148 0.16,0.07 c 1.015,0.442 3.914,2.035 3.914,3.485 l 0,0 c 0,1.863 -2.199,3.922 -2.223,3.941 l 0,0 -2.75,2.543 3.32,-1.73 c 0.067,-0.036 1.184,-0.625 2.079,-1.504 l 0,0 c 0.047,1.347 0.089,3.023 0.039,3.48 l 0,0 c -0.067,0.567 0.191,0.985 0.433,1.387 l 0,0 c 0.219,0.359 0.442,0.726 0.481,1.273 l 0,0 c 0.054,0.75 -0.324,1.328 -0.664,1.84 l 0,0 c -0.153,0.235 -0.301,0.453 -0.395,0.68 l 0,0 c -0.125,0.297 -0.16,0.66 -0.195,1.047 l 0,0 c -0.051,0.547 -0.11,1.168 -0.449,1.39 l 0,0 c -0.801,0.539 -0.77,1.137 -0.719,1.375 l 0,0 c 0.078,0.368 0.359,0.66 0.742,0.782 l 0,0 c -0.043,0.175 -0.176,0.461 -0.281,0.57 l 0,0 c -0.238,0.238 -0.371,0.684 -0.52,1.203 l 0,0 c -0.093,0.313 -0.199,0.664 -0.281,0.809 l 0,0 c -0.223,0.293 -2.211,1.738 -4.004,1.738 l 0,0 c -0.488,0 -0.918,-0.109 -1.273,-0.332 l 0,0 -0.559,-0.352 -0.187,0.633 c -0.016,0.067 -0.399,1.41 0.461,3.352 l 0,0 c -0.942,-0.09 -2.469,-0.34 -3.45,-1.051 l 0,0 c -0.355,-0.254 -0.726,-0.387 -1.105,-0.387 l 0,0 c -0.598,0 -1.168,0.332 -1.61,0.938 l 0,0 c -0.445,0.601 -0.707,1.406 -0.734,2.136 l 0,0 c -0.711,-0.359 -1.793,-1.195 -2.324,-3.058 m -2.426,-7.758 -0.363,0.082 -0.024,0.375 c -0.074,1.25 0.27,2.301 1.016,3.121 l 0,0 c 1.465,1.617 3.953,1.735 4.059,1.742 l 0,0 0.543,0.024 -0.024,-0.547 c -0.055,-1.133 -0.473,-1.817 -0.844,-2.414 l 0,0 c -0.125,-0.203 -0.246,-0.403 -0.355,-0.617 l 0,0 c -0.801,-1.606 -2.332,-1.844 -3.176,-1.844 l 0,0 c -0.469,0 -0.793,0.066 -0.832,0.078 m -13.617,-3.047 c -0.004,-0.004 -0.449,-0.617 -0.449,-1.351 l 0,0 c 0,-0.907 0.004,-0.93 0.254,-1.247 l 0,0 c 0.558,-0.695 -0.02,-1.742 -0.141,-1.945 l 0,0 -0.031,-0.055 -0.043,-0.042 -1.227,-1.227 c 0.031,-0.969 0.36,-5.309 3.492,-9.141 l 0,0 c 0.008,-0.008 0.614,-0.519 1.325,-0.519 l 0,0 c 0.492,0 0.839,-0.153 1.039,-0.449 l 0,0 c 0.144,-0.227 0.16,-0.489 0.121,-0.7 l 0,0 c 0.086,-0.308 0.39,-1.222 1.156,-1.793 l 0,0 c 0.691,-0.519 2.633,-0.738 3.699,-0.8 l 0,0 c 0.039,0.414 0.113,0.722 0.184,1.05 l 0,0 0.082,0.332 c -0.008,0.051 -0.035,0.121 -0.063,0.192 l 0,0 c -0.043,0.117 -0.078,0.238 -0.086,0.293 l 0,0 c -0.027,0.09 -0.183,0.449 -0.32,0.73 l 0,0 -0.137,0.282 0.2,0.25 0.125,0.152 0.367,0.453 0.39,-0.434 c 0.243,-0.269 0.391,-0.457 0.454,-0.574 l 0,0 c 0.039,-0.082 0.101,-0.156 0.171,-0.25 l 0,0 c 0.039,-0.043 0.075,-0.086 0.106,-0.129 l 0,0 c 0.195,0.106 0.418,0.223 0.562,0.289 l 0,0 c 0.192,0.09 0.356,0.215 0.547,0.36 l 0,0 0.114,0.09 c 0.035,0.027 0.179,0.125 0.3,0.207 l 0,0 c -5.504,1.128 -9.148,5.582 -9.148,11.601 l 0,0 c 0,4.731 1.476,7.785 2.574,9.406 l 0,0 c -1.398,-0.656 -3.535,-2.07 -5.617,-5.031" style="fill:url(#radialGradient516)"/>
  </g>
</svg>
