<?xml version="1.0" encoding="UTF-8" standalone="no"?>
<svg xmlns="http://www.w3.org/2000/svg" version="1.1" width="600" height="607.4729">
  <radialGradient cx="0" cy="0" r="1" fx="0" fy="0" id="radialGradient500" gradientUnits="userSpaceOnUse" gradientTransform="matrix(17.670486,0,0,-17.670486,400.9834,371.96973)" spreadMethod="pad">
    <stop style="stop-color:#bf99c3" offset="0"/>
    <stop style="stop-color:#7b5190" offset="0.66291797"/>
    <stop style="stop-color:#612c75" offset="1"/>
  </radialGradient>
  <path d="m 263.68924,590.63074 c -0.75934,0.1215 -1.53387,0.18224 -2.36914,0.18224 0.65242,-0.0607 1.89835,-0.0607 2.36914,-0.18224 M 90.589947,497.20147 c 0,-2.14134 0.349904,-4.40418 1.366813,-6.83407 -0.896629,2.20209 -1.123824,4.51049 -1.366813,6.87963 0,0 0,-0.0486 0,-0.0486 M 343.96673,272.05393 c 1.71611,-0.53214 12.74174,-4.79903 25.49866,-14.65527 2.42989,1.9591 4.87497,3.91819 7.59341,5.46725 3.38666,1.9591 7.47191,2.83993 11.6331,2.83993 5.57356,20.41108 16.72068,43.72284 38.08853,63.42013 2.71844,2.55139 3.90301,6.75814 3.90301,11.9824 0,20.00103 -17.13073,55.88747 -33.62361,78.84993 -0.89541,1.06308 -33.63879,41.17145 -112.00274,41.17145 -55.94822,0 -112.18499,-26.04538 -136.51426,-82.58589 6.83406,5.10277 14.53378,9.90181 23.43325,14.41229 7.77565,3.97894 17.02442,3.62965 24.45077,-0.88084 7.06186,-4.32824 11.26861,-11.92164 11.7394,-20.12252 6.87963,0 13.40996,-4.38899 18.51273,-9.37027 2.73362,-2.61213 4.44973,-6.34808 5.63431,-10.37259 19.63654,17.31297 44.13287,22.94727 63.95167,12.98473 6.10509,-3.02218 10.73707,-8.47425 12.69617,-15.00458 0.77392,-2.42989 1.18457,-4.92052 1.18457,-7.41116 0,-4.28268 -1.06307,-8.48943 -3.14367,-12.22539 -2.49064,-4.63197 -6.05954,-13.06065 -8.18569,-21.77789 2.42989,-0.53214 4.79903,-0.3499 7.22892,-1.41237 3.5689,-1.54905 6.65183,-3.7967 9.14246,-6.65182 0.59168,-0.65364 10.26629,-12.22539 20.35033,-27.94374 2.77919,0.18224 5.63431,0.1215 8.42868,-0.71439 m -316.326123,22.30943 -2.42989,2.42989 c 0.591678,-0.65364 1.245319,-1.24532 2.42989,-2.42989 M 383.17909,234.73932 c 0,-1.89835 1.06307,-3.61446 1.47312,-5.45206 -0.34869,2.49064 -0.65243,5.10277 -0.65243,8.12494 -0.12149,-0.89663 -0.82009,-1.71611 -0.82009,-2.67288 M 340.33709,0.42562647 C 320.70054,4.0400865 283.62953,23.676636 269.21724,73.975366 l 0,0 c -5.58875,19.51505 -16.26508,24.86081 -34.70187,32.636464 -11.10156,4.67754 -28.59677,13.40995 -39.63758,22.24868 -8.18569,6.51514 -3.55371,13.22771 -5.9836,19.9251 -0.36449,-1.59462 -0.36449,-3.32591 -1.07887,-4.79904 -4.73829,-9.91698 -15.24756,-15.67279 -26.09095,-14.12373 -2.85512,0.40943 -70.011206,10.85857 -131.289997,98.18274 -1.776857,2.3084 -12.939164,18.26974 -12.939164,39.5009 0,12.16464 0.303736,21.12486 5.755802,31.20891 -5.452066,5.46725 -16.4928792,16.49287 -16.4928792,16.49287 -1.1238242,1.12383 -2.1869011,2.42989 -3.0829231,3.79671 C 1.3060659,322.55312 0,329.90354 0,340.16982 0,374.6287 15.429802,441.1925 60.868746,496.59399 c 0.835883,1.07888 1.837605,2.0806 2.839934,3.03737 2.445077,2.0654 13.652945,10.79782 29.371297,14.23004 3.492967,10.32703 11.147123,27.35145 27.822243,39.80464 19.51505,14.65527 58.37811,17.85969 75.69107,18.69496 3.56891,4.38899 7.24411,7.41117 9.02097,8.59574 13.53145,9.02097 33.04651,10.44853 46.33497,10.20554 9.30951,7.77565 24.14703,16.31064 46.988,16.31064 22.65872,0 37.01026,-7.94271 46.09197,-15.30831 l 15.18682,0 c 10.08404,0 19.16576,-5.98361 23.12951,-15.23237 -2.24764,5.14833 -4.79903,6.51514 -4.92052,6.51514 0,0 2.24764,-1.06308 8.30718,-1.06308 9.02097,0 17.49521,-5.04202 21.94495,-12.93916 2.14134,-3.73596 6.59107,-8.96022 9.14246,-10.14479 3.97894,-1.53387 18.55828,-2.55139 30.37362,-1.9591 5.39132,0.18224 10.73708,-1.24532 15.18682,-4.20675 2.77918,-1.89835 25.62015,-18.39123 43.13055,-45.56044 23.25101,-11.02563 72.48666,-39.1516 72.48666,-79.85226 0,-3.73595 -0.59168,-7.41116 -1.18458,-11.02562 3.85745,-4.28269 6.46959,-9.61326 6.69739,-15.71836 0.54672,-11.2838 1.8376,-42.35602 1.8376,-62.94934 0,-5.51281 -0.16766,-9.9018 -0.3499,-13.3492 0.65242,-1.12383 1.89835,-3.26517 1.89835,-3.26517 4.26749,-7.06187 10.79782,-17.79894 11.9824,-33.98809 C 600,285.87697 600,284.40385 600,282.91554 c 0,-20.10734 -9.674,-34.76262 -15.59686,-43.78358 0,0 -3.09811,-4.92053 -3.20441,-5.10277 0,0 0.0607,-0.10935 0.0607,-0.28916 0,-1.18457 -0.54672,-5.69505 -0.54672,-5.69505 -0.88084,-9.37027 -2.1869,-23.494 -10.49409,-35.1271 0.83588,-1.53387 2.24765,-2.55139 2.83993,-4.32824 1.07887,-3.26517 1.48831,-6.51515 1.48831,-9.78031 0,-12.16464 -6.1051,-23.43325 -11.20787,-30.02433 -0.24299,-0.88084 -2.49063,-7.82121 -2.49063,-7.82121 l -7.7149,-20.12253 C 545.6008,108.20584 514.81713,88.341476 486.6304,81.507416 c -5.9836,-1.41238 -11.6331,-1.83761 -17.20666,-2.12616 1.54906,-4.32824 2.79438,-8.48942 5.8773,-13.71369 2.24765,-3.90301 3.38666,-8.292 3.38666,-12.68099 0,-4.34342 -1.13841,-8.61092 -3.26517,-12.52912 -4.51048,-7.76046 -12.81767,-12.57468 -21.83863,-12.57468 -5.16352,0 -49.58495,0.77392 -80.38381,20.47183 -2.36914,-3.56891 -4.55604,-9.26396 -4.55604,-13.47071 0,-0.83588 0.0486,-1.59461 0.28916,-2.24765 0.77513,-2.42989 1.12382,-4.98127 1.12382,-7.48709 0,-6.1051 -2.24765,-12.02796 -6.28734,-16.6599395 -5.92286,-6.65182 -14.76158,-9.674 -23.43325,-8.06420003" style="fill:#ffffff"/>
  <path d="m 317.92135,170.62424 c 6.63664,-13.28846 16.49288,-22.30942 17.37371,-43.0698 0,0 -73.32193,3.02218 -69.70747,65.85002 0,0 36.78246,8.30719 52.33376,-22.78022 m 56.64681,387.85602 c 0,0 -2.96143,4.20674 -5.39132,5.92285 -4.28268,2.79438 -8.96022,2.61214 -8.96022,2.61214 l -25.04305,0 c 0,0 -9.78031,15.36905 -36.17499,15.36905 -26.47061,0 -37.67848,-16.73587 -37.67848,-16.73587 0,0 -29.18906,2.79438 -41.76374,-5.57356 -4.20674,-2.77918 -7.9427,-10.85857 -7.9427,-10.85857 0,0 1.65536,-5.39132 2.00466,-6.22659 1.36681,-3.55372 1.54905,-7.12262 2.26283,-10.91932 0.47019,-2.36914 0.34991,-4.67754 1.36682,-6.87963 0.88083,-1.89835 3.32591,-4.38899 5.10277,-5.86211 1.59461,-1.24531 4.08525,-3.38666 5.86211,-4.57123 4.03969,-2.61213 8.14013,-4.10044 11.87608,-7.12261 3.90301,-3.14367 11.32937,-10.38778 11.32937,-10.38778 l -2.32359,-3.08293 c 0,0 -5.74061,3.85746 -6.57589,4.44974 -3.85745,2.97662 -7.24411,5.81655 -11.69384,7.89714 -4.38899,2.0806 -13.75925,7.35042 -13.75925,7.35042 0,0 -1.83761,-2.08059 -2.96143,-3.7967 -1.9591,-2.90068 -4.38899,-5.16352 -6.05954,-8.30719 -0.88084,-1.77686 -5.69506,-7.10743 -5.69506,-7.10743 l -1.8376,2.3084 c 0,0 5.10277,10.73708 5.4065,12.87842 0.34991,2.1869 2.77919,6.94037 2.36915,9.00578 -1.65537,8.24644 -3.20442,13.40995 -4.03969,21.77789 -0.34991,3.7967 -1.41238,6.87962 -1.41238,6.87962 0,0 -50.13167,-1.36681 -66.86754,-13.88075 -16.65993,-12.57468 -20.88186,-33.45654 -20.88186,-33.45654 0,0 4.22193,-9.73475 -9.71956,-9.73475 -13.941498,0 -25.103806,-9.71956 -25.103806,-9.71956 C 23.14531,411.00112 24.557684,332.98646 24.557684,332.98646 l 20.881868,-20.88187 c 0,0 8.367934,-13.94149 2.794374,-20.88186 -5.573561,-7.00112 -5.573561,-9.73475 -5.573561,-23.67625 0,-13.94149 8.352747,-25.08861 8.352747,-25.08861 55.705228,-79.36628 114.204838,-87.73422 114.204838,-87.73422 0,0 -54.27767,48.70411 -54.27767,158.74776 0,110.04364 80.79384,172.74999 174.11681,172.74999 93.30778,0 132.33789,-51.49848 132.33789,-51.49848 0,0 64.07316,-89.16178 26.40986,-123.98514 -37.61773,-34.82336 -34.82336,-78.01466 -34.82336,-78.01466 -5.528,0 -19.45431,8.36794 -19.45431,8.36794 -9.79549,-5.63431 -19.53024,-19.51506 -19.53024,-19.51506 -15.29312,20.88187 -33.3958,26.45543 -33.3958,26.45543 l -11.20787,-8.35275 c -11.10156,23.66106 -29.2498,44.54293 -29.2498,44.54293 -9.73475,4.20674 -22.24868,-2.73363 -22.24868,-2.73363 -8.36793,26.47061 11.16231,61.29398 11.16231,61.29398 -11.16231,5.51281 -26.47062,1.41237 -39.0453,-11.16231 -12.51393,-12.57468 -22.24868,-19.51506 -32.02899,-9.71956 -9.73474,9.71956 -4.16118,25.02787 -4.16118,25.02787 -8.35275,-1.36682 -20.86669,-8.30719 -20.86669,-8.30719 -5.58874,11.10156 -5.58874,32.02899 -5.58874,32.02899 -79.42703,-40.39692 -23.7218,-86.42815 -23.7218,-86.42815 1.42756,-34.82337 4.20674,-54.27767 27.88298,-66.85236 23.66106,-12.51393 32.02899,-22.24868 27.88299,-33.3958 -4.22193,-11.1623 -9.3247,-27.18439 0.94159,-38.02778 16.31063,-17.32815 63.11639,-16.32582 77.05788,-65.090684 13.9415,-48.74967 51.49849,-55.70523 51.49849,-55.70523 -6.94038,22.30943 13.94149,64.07317 39.03011,45.98567 25.04305,-18.14824 69.64672,-18.14824 69.64672,-18.14824 -19.51505,33.45655 -12.51393,57.117604 -12.51393,57.117604 33.3958,-20.881864 86.38259,16.73587 90.52859,23.67625 4.20675,7.00112 6.94037,25.08861 11.14712,29.31055 4.16119,4.146 11.10156,19.4543 2.79437,20.88186 -8.36793,1.41238 -12.57468,11.14712 0,19.45431 12.51394,8.41349 8.30719,30.66218 12.51394,40.39692 4.22193,9.78031 18.16343,22.30943 16.73587,41.82449 -1.42757,19.51505 -15.36906,26.45542 -13.9415,39.03011 1.42756,12.51393 -1.42756,75.22028 -1.42756,75.22028 -9.73475,-20.88187 -41.76374,-37.6633 -41.76374,-37.6633 0,0 36.19018,33.45655 36.19018,65.48554 0,32.10492 -64.07316,59.92716 -64.07316,59.92716 -15.30831,27.88299 -40.39693,44.60367 -40.39693,44.60367 0,0 -29.2498,-1.42756 -41.76373,4.16119 -11.14712,4.98127 -19.04427,17.67745 -20.59332,20.39589 0,0 -7.41117,-11.92165 -3.14367,-36.60022 0,0 -15.7791,18.14824 -9.30952,38.27077" style="fill:#612c75"/>
  <g transform="matrix(15.186813,0,0,-15.186813,-5789.9111,5954.6587)">
    <path d="m 401.043,386.633 c -0.68,-2.383 -2.477,-3.153 -3.789,-3.711 l 0,0 c -0.602,-0.258 -1.117,-0.481 -1.399,-0.777 l 0,0 c -0.445,-0.473 -0.242,-1.235 0.043,-1.989 l 0,0 c 0.473,-1.265 -0.781,-2.133 -2.07,-2.816 l 0,0 c -1.305,-0.692 -1.48,-1.742 -1.566,-3.985 l 0,0 -0.012,-0.218 -0.168,-0.145 c -0.016,-0.012 -1.199,-1.015 -1.062,-2.238 l 0,0 c 0.089,-0.793 0.71,-1.543 1.847,-2.238 l 0,0 c 0.051,0.48 0.156,1.074 0.375,1.507 l 0,0 0.231,0.465 0.457,-0.25 c 0.101,-0.058 0.304,-0.164 0.531,-0.261 l 0,0 c 0.012,0.406 0.129,0.882 0.519,1.277 l 0,0 c 0.301,0.297 0.633,0.449 0.997,0.449 l 0,0 c 0.613,0 1.152,-0.418 1.824,-1.094 l 0,0 c 0.469,-0.464 1.011,-0.738 1.496,-0.742 l 0,0 c -0.371,0.848 -0.93,2.469 -0.492,3.844 l 0,0 0.179,0.578 0.539,-0.293 c 0.106,-0.058 0.45,-0.207 0.762,-0.207 l 0,0 c 0.063,0 0.117,0.008 0.168,0.02 l 0,0 c 0.281,0.336 1.184,1.476 1.77,2.718 l 0,0 0.261,0.551 0.493,-0.363 0.507,-0.383 c 0.356,0.168 1.082,0.594 1.723,1.469 l 0,0 0.41,0.562 0.403,-0.57 c 0.136,-0.191 0.515,-0.68 0.898,-0.984 l 0,0 c 0.371,0.207 0.914,0.461 1.262,0.461 l 0,0 0.531,0 -0.035,-0.532 c 0,-0.023 -0.125,-2.644 2.133,-4.738 l 0,0 c 2.769,-2.562 -1.493,-8.566 -1.68,-8.832 l 0,0 c -0.109,-0.145 -2.793,-3.594 -9.113,-3.594 l 0,0 c -0.633,0 -1.25,0.039 -1.844,0.117 l 0,0 0.031,-0.039 0.262,-0.351 -0.317,-0.305 c 0,0 -0.507,-0.5 -0.781,-0.719 l 0,0 c -0.172,-0.136 -0.347,-0.238 -0.535,-0.336 l 0,0 c -0.094,-0.05 -0.191,-0.101 -0.289,-0.168 l 0,0 c -0.078,-0.046 -0.18,-0.132 -0.262,-0.199 l 0,0 -0.078,-0.062 0,0 c -0.094,-0.074 -0.18,-0.18 -0.199,-0.211 l 0,0 c -0.012,-0.024 -0.02,-0.086 -0.024,-0.149 l 0,0 c -0.007,-0.058 -0.011,-0.121 -0.027,-0.183 l 0,0 -0.031,-0.199 c -0.031,-0.184 -0.063,-0.391 -0.145,-0.618 l 0,0 c -0.011,-0.031 -0.035,-0.101 -0.058,-0.172 l 0,0 c 0.09,-0.156 0.199,-0.304 0.261,-0.351 l 0,0 c 0.297,-0.195 0.934,-0.313 1.743,-0.313 l 0,0 c 0.39,0 0.675,0.032 0.683,0.032 l 0,0 0.297,0.023 0.164,-0.242 c 0.028,-0.035 0.637,-0.883 2.067,-0.883 l 0,0 c 1.414,0 1.945,0.75 1.964,0.781 l 0,0 0.153,0.227 0.265,0 1.661,0 c 0,0 0.164,0.004 0.296,0.094 l 0,0 c 0.024,0.015 0.055,0.047 0.09,0.086 l 0,0 c -0.308,1.457 0.739,2.679 0.785,2.73 l 0,0 1.176,1.348 -0.304,-1.762 c -0.09,-0.488 -0.094,-0.887 -0.071,-1.203 l 0,0 c 0.254,0.262 0.567,0.523 0.934,0.683 l 0,0 c 0.609,0.274 1.652,0.329 2.418,0.329 l 0,0 c 0.152,0 0.289,-0.004 0.383,-0.004 l 0,0 c 0.39,0.289 1.597,1.254 2.378,2.672 l 0,0 0.083,0.148 0.156,0.07 c 1.015,0.442 3.918,2.032 3.918,3.485 l 0,0 c 0,1.863 -2.203,3.922 -2.223,3.941 l 0,0 -2.742,2.539 3.308,-1.726 c 0.071,-0.036 1.184,-0.625 2.079,-1.508 l 0,0 c 0.047,1.351 0.089,3.027 0.035,3.488 l 0,0 c -0.059,0.566 0.191,0.981 0.437,1.383 l 0,0 c 0.215,0.359 0.446,0.726 0.481,1.273 l 0,0 c 0.054,0.75 -0.324,1.328 -0.664,1.84 l 0,0 c -0.157,0.235 -0.297,0.457 -0.395,0.68 l 0,0 c -0.129,0.297 -0.16,0.656 -0.195,1.047 l 0,0 c -0.055,0.547 -0.106,1.168 -0.449,1.394 l 0,0 c -0.801,0.531 -0.77,1.133 -0.723,1.364 l 0,0 c 0.078,0.375 0.367,0.667 0.742,0.789 l 0,0 c -0.043,0.179 -0.176,0.468 -0.277,0.574 l 0,0 c -0.231,0.226 -0.348,0.601 -0.524,1.195 l 0,0 c -0.089,0.313 -0.195,0.664 -0.281,0.813 l 0,0 c -0.219,0.293 -2.207,1.738 -4,1.738 l 0,0 c -0.488,0 -0.918,-0.113 -1.273,-0.332 l 0,0 -0.559,-0.352 -0.187,0.633 c -0.02,0.067 -0.395,1.41 0.461,3.356 l 0,0 c -0.942,-0.09 -2.465,-0.344 -3.45,-1.051 l 0,0 c -0.355,-0.258 -0.726,-0.391 -1.105,-0.391 l 0,0 c -0.598,0 -1.168,0.332 -1.61,0.938 l 0,0 c -0.445,0.601 -0.71,1.406 -0.734,2.14 l 0,0 c -0.711,-0.363 -1.793,-1.199 -2.328,-3.062 m -2.422,-7.758 -0.367,0.082 -0.024,0.375 c -0.066,1.25 0.274,2.301 1.02,3.121 l 0,0 c 1.465,1.617 3.949,1.738 4.055,1.742 l 0,0 0.547,0.024 -0.028,-0.547 c -0.051,-1.133 -0.469,-1.817 -0.84,-2.414 l 0,0 c -0.125,-0.203 -0.246,-0.403 -0.355,-0.621 l 0,0 c -0.801,-1.606 -2.332,-1.844 -3.176,-1.844 l 0,0 c -0.469,0 -0.793,0.074 -0.832,0.082 m -13.617,-3.043 c -0.004,-0.008 -0.449,-0.625 -0.449,-1.355 l 0,0 c 0,-0.911 0.004,-0.93 0.257,-1.247 l 0,0 c 0.555,-0.695 -0.023,-1.742 -0.144,-1.945 l 0,0 -0.031,-0.051 -0.043,-0.043 -1.227,-1.226 c 0.031,-0.961 0.356,-5.309 3.492,-9.145 l 0,0 c 0.004,-0.008 0.61,-0.519 1.325,-0.519 l 0,0 c 0.492,0 0.839,-0.153 1.039,-0.449 l 0,0 c 0.148,-0.227 0.16,-0.493 0.121,-0.704 l 0,0 c 0.086,-0.308 0.394,-1.218 1.156,-1.789 l 0,0 c 0.691,-0.519 2.633,-0.738 3.699,-0.8 l 0,0 c 0.043,0.414 0.113,0.726 0.184,1.054 l 0,0 0.086,0.325 c -0.008,0.054 -0.039,0.121 -0.063,0.183 l 0,0 c -0.039,0.117 -0.078,0.227 -0.09,0.301 l 0,0 c -0.023,0.09 -0.183,0.449 -0.32,0.734 l 0,0 -0.133,0.282 0.196,0.242 0.121,0.156 0.363,0.465 0.398,-0.442 c 0.243,-0.265 0.395,-0.461 0.45,-0.574 l 0,0 c 0.039,-0.078 0.105,-0.156 0.175,-0.246 l 0,0 c 0.036,-0.047 0.071,-0.086 0.106,-0.133 l 0,0 c 0.191,0.102 0.418,0.223 0.558,0.289 l 0,0 c 0.196,0.09 0.364,0.215 0.555,0.367 l 0,0 0.113,0.083 c 0.032,0.027 0.172,0.128 0.297,0.21 l 0,0 c -5.504,1.129 -9.144,5.579 -9.144,11.594 l 0,0 c 0,4.735 1.472,7.789 2.57,9.414 l 0,0 c -1.398,-0.66 -3.539,-2.07 -5.617,-5.031" style="fill:url(#radialGradient500)"/>
  </g>
</svg>
