<?xml version="1.0" encoding="UTF-8" standalone="no"?>
<svg xmlns="http://www.w3.org/2000/svg" version="1.1" width="600" height="607.4729">
  <path d="m 317.92014,170.6285 c 6.63663,-13.28846 16.49287,-22.30943 17.43446,-43.0698 0,0 -73.38268,3.02217 -69.76822,65.85002 0,0 36.78246,8.30718 52.33376,-22.78022 m 56.64681,387.85601 c 0,0 -2.90068,4.20675 -5.39132,5.92286 -4.28268,2.79437 -8.89947,2.61213 -8.89947,2.61213 l -25.1038,0 c 0,0 -9.71957,15.36905 -36.17499,15.36905 -26.47062,0 -37.61774,-16.73586 -37.61774,-16.73586 0,0 -29.2498,2.79437 -41.82448,-5.57356 -4.20675,-2.77919 -7.94271,-10.85858 -7.94271,-10.85858 0,0 1.65537,-5.39131 2.00466,-6.22659 1.36682,-3.55371 1.54906,-7.12261 2.26284,-10.91932 0.47018,-2.36914 0.3499,-4.67754 1.36681,-6.87962 0.88084,-1.89836 3.32591,-4.38899 5.10277,-5.86211 1.59462,-1.24532 4.08525,-3.38666 5.86211,-4.57123 4.03969,-2.61214 8.14013,-4.10044 11.87609,-7.12262 3.90301,-3.14367 11.32936,-10.38778 11.32936,-10.38778 l -2.32358,-3.08292 c 0,0 -5.74062,3.85745 -6.57589,4.44973 -3.85745,2.97662 -7.24411,5.81655 -11.69385,7.89715 -4.38899,2.08059 -13.75925,7.35041 -13.75925,7.35041 0,0 -1.8376,-2.08059 -2.96143,-3.7967 -1.9591,-2.90068 -4.38899,-5.16352 -6.05954,-8.30719 -0.88083,-1.77685 -5.69505,-7.10742 -5.69505,-7.10742 l -1.83761,2.30839 c 0,0 5.10277,10.73708 5.40651,12.87842 0.3499,2.1869 2.77919,6.94037 2.36914,9.00578 -1.65536,8.24644 -3.20441,13.40995 -4.03969,21.77789 -0.3499,3.7967 -1.41237,6.87962 -1.41237,6.87962 0,0 -50.13167,-1.36681 -66.86754,-13.88074 -16.65993,-12.57468 -20.88187,-33.45655 -20.88187,-33.45655 0,0 4.22194,-9.73475 -9.71956,-9.73475 -13.941493,0 -25.103801,-9.71956 -25.103801,-9.71956 C 23.144096,411.00537 24.556469,332.99071 24.556469,332.99071 l 20.881868,-20.88186 c 0,0 8.367934,-13.9415 2.794374,-20.88187 -5.573561,-7.00112 -5.573561,-9.73475 -5.573561,-23.67624 0,-13.9415 8.352747,-25.08862 8.352747,-25.08862 55.705233,-79.36628 114.204833,-87.73422 114.204833,-87.73422 0,0 -54.27767,48.70411 -54.27767,158.74776 0,110.04365 80.79385,172.74999 174.11681,172.74999 93.30778,0 132.33789,-51.49848 132.33789,-51.49848 0,0 64.07316,-89.16177 26.47062,-123.98514 -37.61774,-34.82336 -34.82337,-78.01465 -34.82337,-78.01465 -5.58874,0 -19.51505,8.36793 -19.51505,8.36793 -9.73475,-5.63431 -19.53024,-19.51506 -19.53024,-19.51506 -15.29312,20.88187 -33.3958,26.45543 -33.3958,26.45543 l -11.14713,-8.35274 c -11.1623,23.66105 -29.2498,44.54292 -29.2498,44.54292 -9.79549,4.20675 -22.30943,-2.73363 -22.30943,-2.73363 -8.36793,26.47062 11.16231,61.29398 11.16231,61.29398 -11.16231,5.51281 -26.47061,1.41237 -39.04529,-11.16231 -12.51394,-12.57468 -22.24868,-19.51505 -32.02899,-9.71956 -9.73475,9.71956 -4.16119,25.02787 -4.16119,25.02787 -8.35275,-1.36681 -20.86668,-8.30719 -20.86668,-8.30719 -5.58875,11.10156 -5.58875,32.02899 -5.58875,32.02899 -79.42703,-40.39692 -23.7218,-86.42815 -23.7218,-86.42815 1.42756,-34.82336 4.20675,-54.27767 27.88299,-66.85235 23.66105,-12.51394 32.02899,-22.24868 27.88299,-33.3958 -4.22194,-11.16231 -9.32471,-27.1844 0.94158,-38.02778 16.31064,-17.32816 63.1164,-16.32583 77.05789,-65.090684 13.94149,-48.74967 51.55923,-55.70523 51.55923,-55.70523 -7.00112,22.30942 13.88075,64.07316 38.96936,45.98566 25.1038,-18.14824 69.64673,-18.14824 69.64673,-18.14824 C 434.12963,86.447986 441.07,110.10905 441.07,110.10905 c 33.3958,-20.881874 86.38259,16.73586 90.52859,23.67624 4.20675,7.00112 7.00113,25.08861 11.14713,29.31055 4.16118,4.146 11.1623,19.4543 2.79437,20.88187 -8.36794,1.41237 -12.51394,11.14712 0,19.4543 12.57468,8.4135 8.36793,30.66218 12.57468,40.39693 4.16119,9.7803 18.10268,22.30942 16.67512,41.82448 -1.36681,19.51505 -15.30831,26.45543 -13.94149,39.03011 1.42756,12.51393 -1.36682,75.22028 -1.36682,75.22028 -9.79549,-20.88187 -41.82448,-37.66329 -41.82448,-37.66329 0,0 36.25092,33.45655 36.25092,65.48553 0,32.10492 -64.07316,59.92716 -64.07316,59.92716 -15.36906,27.88299 -40.39692,44.60367 -40.39692,44.60367 0,0 -29.24981,-1.42756 -41.82449,4.16119 -11.14712,4.98128 -19.04426,17.67745 -20.59332,20.39589 0,0 -7.41116,-11.92165 -3.14367,-36.60022 0,0 -15.77909,18.14824 -9.30951,38.27077"/>
</svg>
