<?xml version="1.0" encoding="UTF-8" standalone="no"?>
<svg xmlns="http://www.w3.org/2000/svg" xmlns:xlink="http://www.w3.org/1999/xlink" version="1.1" width="600" height="552.08386">
  <linearGradient x1="0" y1="0" x2="1" y2="0" id="linearGradient274" gradientUnits="userSpaceOnUse" gradientTransform="matrix(37.62207,0,0,-37.62207,475.89062,434.34326)" spreadMethod="pad">
    <stop style="stop-color:#f6b91d" offset="0"/>
    <stop style="stop-color:#d3641c" offset="0.19999699"/>
    <stop style="stop-color:#bf331c" offset="0.5"/>
    <stop style="stop-color:#d3641c" offset="0.80000299"/>
    <stop style="stop-color:#f6b91d" offset="1"/>
  </linearGradient>
  <linearGradient x1="0" y1="0" x2="1" y2="0" id="linearGradient2999" xlink:href="#linearGradient274" gradientUnits="userSpaceOnUse" gradientTransform="matrix(37.62207,0,0,-37.62207,475.89062,434.34326)" spreadMethod="pad"/>
  <linearGradient x1="0" y1="0" x2="1" y2="0" id="linearGradient3002" xlink:href="#linearGradient274" gradientUnits="userSpaceOnUse" gradientTransform="matrix(519.26241,0,0,519.26241,37.035334,276.05236)" spreadMethod="pad"/>
  <path d="m 282.82782,552.08331 c -109.65744,0 -184.174805,-67.82337 -218.8318,-108.30484 l -4.099215,-5.07916 c -0.276041,-0.26279 -1.076561,-1.28359 -1.297394,-1.61484 C 27.876005,392.98686 -19.202852,303.8669 8.3046716,197.65998 22.534605,142.49311 50.45619,92.25358 86.852246,56.13356 l 1.504426,-1.51823 C 121.67486,20.64844 155.86259,7.38465 178.66361,2.26409 c 1.0346,-0.20759 2.0013,-0.318 2.91223,-0.318 4.37526,0 8.57109,2.20833 11.05546,5.97629 2.96745,4.58229 2.74661,10.57239 -0.48252,15.04426 -0.33125,0.38646 -31.59294,42.48277 -45.28459,74.66919 -12.55988,29.3294 -14.78201,50.84682 -6.52838,64.0554 7.60494,12.29765 23.72576,19.03306 45.45022,19.03306 14.65779,0 30.7372,-3.07786 47.87937,-9.27499 49.54943,-17.90129 82.37075,-42.80022 101.73505,-61.40541 -23.56013,-8.79192 -46.58198,-10.35155 -59.68014,-10.35155 l -1.78047,0 c -43.18667,0.53773 -92.62568,18.75701 -93.10876,18.92264 -1.46302,0.53773 -3.02265,0.85573 -4.58228,0.85573 -3.50573,0 -7.01145,-1.44922 -9.49583,-4.08542 -3.67135,-3.78176 -4.6927,-9.3854 -2.63619,-14.18852 15.84477,-37.51403 41.88928,-54.61479 57.41661,-64.80072 1.78046,-1.18698 3.3953,-2.20833 4.84452,-3.22968 C 249.02711,17.47342 300.67445,0 338.51972,0 c 37.80387,0 65.46322,11.33149 80.12101,19.14347 l 138.02069,1.29739 30.29554,0.26279 c 4.04401,0.0552 7.82578,1.94609 10.29635,5.12057 2.48437,3.18828 3.3539,7.3427 2.31875,11.27629 l -7.43932,29.3846 -33.69085,133.16237 c 7.66015,31.59293 15.09946,104.81291 -52.62729,173.00893 -37.84527,38.12131 -83.35069,55.80177 -85.22778,56.56088 -1.57343,0.53773 -3.13306,0.85573 -4.6927,0.85573 -3.87838,0 -7.54973,-1.72526 -10.14452,-4.73411 -3.60234,-4.32005 -4.04401,-10.46197 -1.07656,-15.26509 0.22083,-0.37321 24.09841,-39.79136 35.09866,-73.48222 8.95754,-27.54893 12.29764,-55.09785 9.75806,-79.30668 -22.85622,14.11951 -55.15306,39.68094 -84.85512,83.07465 -22.0557,32.29684 -29.55023,65.94628 -19.03305,85.77986 8.30885,15.80337 26.6932,18.86743 43.50412,19.79216 2.48437,0.16563 4.96875,0.20759 7.39791,0.20759 53.57963,0 103.66734,-31.05466 104.15041,-31.3169 2.16693,-1.40781 4.58229,-2.09791 7.01145,-2.09791 3.34011,0 6.6388,1.3388 9.16458,3.76796 4.37525,4.26484 5.23098,10.94504 2.15312,16.12082 -1.3388,2.26354 -33.58043,55.91218 -69.86607,76.22883 l -2.26354,1.29739 c -33.15257,18.6604 -74.35175,41.94449 -164.0652,41.94449" style="fill:#ffffff"/>
  <path d="m 496.49765,363.38142 c 68.0304,-68.51347 54.55958,-140.43605 48.41766,-163.67874 L 579.42048,63.29684 586.8598,33.85702 556.55045,33.59423 415.13446,32.24163 c -12.13202,-6.95624 -38.86663,-19.08826 -76.61529,-19.08826 -34.7122,0 -83.61293,16.23123 -104.64729,30.84762 -13.47082,9.27499 -41.50282,24.15362 -57.62363,62.31634 0,0 51.4265,-19.18487 97.52541,-19.72315 19.51613,-0.22084 53.37261,2.74661 83.94419,19.12966 -18.12212,20.70311 -55.58093,54.94604 -119.58113,78.07831 -18.49477,6.6802 -36.12001,10.07551 -52.35125,10.07551 -26.41716,0 -46.52677,-8.94374 -56.67129,-25.23018 -11.48332,-18.54998 -7.81197,-44.74631 5.61744,-76.13222 14.54738,-34.0635 46.84422,-77.4158 46.84422,-77.4158 -47.65854,10.72421 -78.0645,42.91063 -84.482459,49.3838 -6.362753,6.47317 -54.021298,51.05386 -76.077004,136.46106 -26.1411185,101.08635 18.936439,186.32793 48.100211,228.21721 l 0.48252,0.70335 0.537729,0.59404 3.395308,4.25104 0.220834,0.27604 0.207583,0.22084 c 33.221578,38.7562 104.495458,103.72254 208.866708,103.72254 88.26423,0 126.33034,-22.64919 159.91077,-41.57183 33.59424,-18.81222 64.96634,-71.48091 64.96634,-71.48091 0,0 -57.84447,36.54788 -119.20847,33.20777 -18.38436,-1.07656 -42.85542,-4.63749 -54.50437,-26.78981 -12.93254,-24.42966 -5.28619,-62.55098 19.79217,-99.31969 38.43876,-56.17442 80.97674,-83.88897 105.55822,-96.22802 10.83462,44.52547 -2.20833,88.78871 -7.05286,103.88817 -11.64894,35.69215 -36.39605,76.28403 -36.39605,76.28403 0,0 44.31844,-16.97654 80.60408,-53.53822"/>
  <path d="m 245.94869,64.48404 c 0,0 84.81372,-13.74687 146.0535,35.31949 l 0,0 c 0,0 -38.43876,67.65774 -145.72225,106.42775 l 0,0 C 138.92745,244.98749 64.258259,181.37376 113.37982,81.95745 l 0,0 c 0,0 -48.679895,45.28459 -69.286384,124.96394 l 0,0 c -20.592686,79.63794 6.80442,154.47275 44.594485,208.60447 l 0,0 3.395309,4.19583 c 42.91063,50.0877 108.52567,95.3861 190.74459,95.3861 l 0,0 c 82.27414,0 138.35194,-35.74736 138.35194,-35.74736 l 0,0 C 312.64029,501.99582 269.72966,413.74539 334.10251,319.50486 l 0,0 C 398.47536,225.30574 473.62762,205.04431 473.62762,205.04431 l 0,0 c 32.18643,71.53612 -2.36015,150.24932 -2.36015,150.24932 l 0,0 c 78.7132,-78.7132 48.84552,-154.99724 48.84552,-154.99724 l 0,0 36.17523,-142.87901 -148.0548,-1.39401 c 0,0 -26.30674,-19.03306 -69.71425,-19.03306 l 0,0 c -25.54763,0 -57.03015,6.56979 -92.57048,27.49373" style="fill:url(#linearGradient3002)"/>
  <path d="M 426.41075,96.46321 397.93708,75.7601 529.05673,76.61583 499.72734,198.25347 485.06954,173.23032 190.05031,332.82364 426.41075,96.46321 z" style="fill:#ffffff"/>
</svg>
