<?xml version="1.0" encoding="UTF-8" standalone="no"?>
<svg xmlns="http://www.w3.org/2000/svg" xmlns:xlink="http://www.w3.org/1999/xlink" version="1.1" width="600" height="549.88184">
  <linearGradient x1="0" y1="0" x2="1" y2="0" id="linearGradient294" gradientUnits="userSpaceOnUse" gradientTransform="matrix(37.62207,0,0,-37.62207,409.39062,434.34326)" spreadMethod="pad">
    <stop style="stop-color:#ebd491" offset="0"/>
    <stop style="stop-color:#d2bb7b" offset="0.19999699"/>
    <stop style="stop-color:#8b723c" offset="0.5"/>
    <stop style="stop-color:#d2bb7b" offset="0.80000299"/>
    <stop style="stop-color:#ebd491" offset="1"/>
  </linearGradient>
  <linearGradient x1="0" y1="0" x2="1" y2="0" id="linearGradient2997" xlink:href="#linearGradient294" gradientUnits="userSpaceOnUse" gradientTransform="matrix(37.62207,0,0,-37.62207,409.39062,434.34326)" spreadMethod="pad"/>
  <linearGradient x1="0" y1="0" x2="1" y2="0" id="linearGradient3000" xlink:href="#linearGradient294" gradientUnits="userSpaceOnUse" gradientTransform="matrix(543.06958,0,0,543.06958,24.967268,274.9524)" spreadMethod="pad"/>
  <path d="m 505.49493,366.28532 c 71.14946,-71.65468 57.06103,-146.87477 50.63751,-171.18308 L 592.21961,52.44245 600,21.65287 568.30103,21.37803 420.40139,19.96342 C 407.71314,12.68824 379.7528,0 340.27344,0 303.96975,0 252.82702,16.9754 230.82828,32.26192 c -14.08843,9.70023 -43.40565,25.26102 -60.26557,65.17343 0,0 53.78431,-20.06447 101.99677,-20.62743 20.4109,-0.23095 55.81963,2.87254 87.79286,20.00673 -18.95298,21.6523 -58.12921,57.4652 -125.06369,81.65804 -19.34272,6.98648 -37.77604,10.53745 -54.75145,10.53745 -27.62833,0 -48.65993,-9.35379 -59.26956,-26.38693 -12.00981,-19.40046 -8.17014,-46.79784 5.87499,-79.62273 C 142.35698,47.37523 176.13457,2.03531 176.13457,2.03531 126.29097,13.2512 94.490957,46.91331 87.778744,53.68327 81.124271,60.45322 31.280675,107.07784 8.2137568,196.4008 -19.125881,302.12176 28.018395,391.2715 58.519269,435.08132 l 0.505798,0.7356 0.562382,0.62128 3.550977,4.44594 0.230958,0.2887 0.217101,0.23095 c 34.744724,40.53311 109.286375,108.47803 218.442845,108.47803 92.31097,0 132.12234,-23.68762 167.24237,-43.47782 35.13446,-19.67472 67.94492,-74.75818 67.94492,-74.75818 0,0 -60.49653,38.22353 -124.67395,34.73029 -19.22724,-1.12592 -44.82026,-4.85011 -57.00329,-28.01807 -13.52547,-25.54972 -5.52855,-65.41882 20.6996,-103.87331 40.20111,-58.7499 84.68937,-87.73512 110.39786,-100.63989 11.33137,46.56688 -2.30958,92.8595 -7.37621,108.65125 -12.18303,37.32856 -38.06475,79.78151 -38.06475,79.78151 0,0 46.35036,-17.75489 84.29963,-55.99285"/>
  <path d="m 243.4589,53.68407 c 0,0 88.70226,-14.37712 152.74977,36.93883 l 0,0 c 0,0 -40.20111,70.75972 -152.40333,111.30726 l 0,0 C 131.53094,242.46327 53.438311,175.93296 104.812,71.95862 l 0,0 c 0,0 -50.911773,47.36079 -72.46303,130.69328 l 0,0 c -21.536821,83.28918 7.11639,161.55503 46.639056,218.16858 l 0,0 3.550977,4.3882 c 44.878007,52.38413 113.501357,99.75937 199.489867,99.75937 l 0,0 c 86.04624,0 144.6951,-37.38631 144.6951,-37.38631 l 0,0 C 313.20818,511.25492 268.33018,418.95838 335.6544,320.39711 l 0,0 C 402.97862,221.87915 481.57647,200.68876 481.57647,200.68876 l 0,0 c 33.66211,74.81592 -2.46836,157.13796 -2.46836,157.13796 l 0,0 c 82.32204,-82.32204 51.14273,-162.10355 51.14273,-162.10355 l 0,0 L 568.02689,46.29342 413.18407,44.8355 c 0,0 -27.51286,-19.90568 -72.91051,-19.90568 l 0,0 c -26.71894,0 -59.64487,6.871 -96.81466,28.75425" style="fill:url(#linearGradient3000)"/>
  <path d="M 432.19467,87.12943 402.41554,65.47713 539.54678,66.37209 508.87269,193.58657 493.54286,167.41616 184.99758,334.32653 432.19467,87.12943 z" style="fill:#ffffff"/>
</svg>
