<?xml version="1.0" encoding="UTF-8" standalone="no"?>
<svg xmlns="http://www.w3.org/2000/svg" version="1.1" width="600" height="549.88184">
  <path d="M 341.26562 24.939453 C 314.36011 24.765219 281.07985 31.544119 243.45898 53.683594 C 243.45898 53.683594 332.16147 39.307097 396.20898 90.623047 C 396.20898 90.623047 356.00802 161.38215 243.74805 201.92969 C 131.5314 242.46279 53.437952 175.87558 104.75391 71.958984 C 104.75391 71.958984 53.900865 119.31985 32.349609 202.65234 C 10.812787 285.94152 39.50892 364.20591 78.988281 420.76172 L 82.539062 425.20898 C 127.41706 477.59311 196.0408 524.96875 282.0293 524.96875 C 368.07554 524.96875 426.66602 487.52344 426.66602 487.52344 C 313.20796 511.25436 268.33008 418.95775 335.6543 320.39648 C 402.97852 221.87851 481.57617 200.68945 481.57617 200.68945 C 515.23828 275.50537 479.05078 357.82617 479.05078 357.82617 C 561.37283 275.50413 530.25 195.72266 530.25 195.72266 L 568.02734 46.292969 L 413.24219 44.835938 C 413.24219 44.835937 386.10816 25.229843 341.26562 24.939453 z M 402.41602 65.476562 L 539.54688 66.373047 L 508.87305 193.58594 L 493.54297 167.41602 L 184.99805 334.32617 L 432.19531 87.128906 L 402.41602 65.476562 z "/>
</svg>
