<?xml version="1.0" encoding="UTF-8" standalone="no"?>
<svg
   width="655.27698"
   height="325.90103"
   version="1.1"
   id="svg20"
   sodipodi:docname="T.svg"
   inkscape:version="1.1.1 (3bf5ae0d25, 2021-09-20)"
   xmlns:inkscape="http://www.inkscape.org/namespaces/inkscape"
   xmlns:sodipodi="http://sodipodi.sourceforge.net/DTD/sodipodi-0.dtd"
   xmlns:xlink="http://www.w3.org/1999/xlink"
   xmlns="http://www.w3.org/2000/svg"
   xmlns:svg="http://www.w3.org/2000/svg">
  <sodipodi:namedview
     id="namedview22"
     pagecolor="#ffffff"
     bordercolor="#666666"
     borderopacity="1.0"
     inkscape:pageshadow="2"
     inkscape:pageopacity="0.0"
     inkscape:pagecheckerboard="0"
     showgrid="false"
     inkscape:zoom="2.2062"
     inkscape:cx="327.71"
     inkscape:cy="162.72"
     inkscape:window-width="1920"
     inkscape:window-height="986"
     inkscape:window-x="-11"
     inkscape:window-y="-11"
     inkscape:window-maximized="1"
     inkscape:current-layer="svg20" />
  <defs
     id="defs14">
    <linearGradient
       id="g">
      <stop
         offset="0"
         style="stop-color:#612c75"
         id="stop2" />
      <stop
         offset="0.25"
         style="stop-color:#7b5190"
         id="stop4" />
      <stop
         offset="0.5"
         style="stop-color:#bf99c3"
         id="stop6" />
      <stop
         offset="0.85"
         style="stop-color:#7b5190"
         id="stop8" />
      <stop
         offset="1"
         style="stop-color:#612c75"
         id="stop10" />
    </linearGradient>
    <linearGradient
       id="g1"
       xlink:href="#g"
       gradientTransform="translate(-124.87339,-62.403855)"
       gradientUnits="userSpaceOnUse"
       x1="136.80669"
       y1="224.53679"
       x2="768.16132"
       y2="224.53679" />
  </defs>
  <path
     style="fill:#ffffff;fill-opacity:1"
     d="M 344.32778,0.01020653 C 318.9001,-0.52775047 295.35792,20.235831 275.76528,53.785595 a 116.388,116.388 0 0 0 -38.38672,17.50586 C 161.19459,32.307118 117.58556,17.721439 99.140279,36.896926 82.395119,54.304995 116.90803,100.39664 185.7477,143.11762 a 47.973499,47.973499 0 0 0 -12.12304,-1.61914 47.973499,47.973499 0 0 0 -47.03907,38.60547 C 38.578169,212.89536 -16.047611,240.55585 4.2242689,269.09028 24.780349,298.02477 121.29027,283.63179 221.77895,248.92036 a 116.388,116.388 0 0 0 3.98047,3.70703 c 2.16521,39.86781 15.95465,66.88383 42.94141,72.29102 35.45563,7.10404 52.34697,-26.0233 58.13867,-44.32618 a 116.388,116.388 0 0 0 24.10156,-7.67578 67.247002,67.247002 0 0 0 50.73243,23.23242 67.247002,67.247002 0 0 0 51.02734,-23.48828 c 52.94911,16.11758 92.53754,26.4618 118.06836,16.06836 27.02359,-11.00114 43.02645,-46.01053 -127.01953,-114.99219 166.58999,-50.12428 255.48667,-123.869285 189.77929,-142.634756 -8.58685,-2.45233 -18.76852,-3.596737 -30.31054,-3.595703 -52.33874,0.0047 -132.6344,23.547394 -218.78711,55.203124 a 116.388,116.388 0 0 0 -6.02735,-5.52539 c 10.74423,-34.76319 11.40392,-74.0777705 -31.8789,-77.07617147 -0.7339,-0.05084 -1.46643,-0.08219 -2.19727,-0.09766 z"
     id="path16" />
  <path
     style="fill:url(#g1)"
     d="M 342.90005,9.4691915 C 301.92601,10.30462 270.7489,82.892295 253.00747,135.08052 c -0.74248,2.18407 -1.47343,4.48813 -2.19727,6.8457 -37.24256,-22.54961 -87.90347,-56.886625 -85.83593,-68.187495 2.31853,-12.67281 38.03309,-1.86052 60.33203,7.06445 1.22495,-1.0624 2.47196,-2.09908 3.74023,-3.10937 -19.97591,-9.29663 -80.66126,-38.89305 -108.88867,-38.79297 -6.92873,0.0246 -11.8931,1.84197 -13.80664,6.19531 -9.874161,22.46392 55.07334,72.658635 116.45117,109.783195 -4.02342,1.43168 -8.06212,2.86807 -12.02539,4.28711 a 47.973499,47.973499 0 0 1 10.52344,25.44141 c 6.32775,-2.39963 14.33045,-5.43402 20.96289,-7.94922 -11.48536,59.17636 -11.72735,134.2783 30.1875,138.00977 18.2148,1.62156 32.61221,-11.43009 43.15039,-32.40039 a 116.388,116.388 0 0 1 -4.43164,0.37304 c -13.25378,14.64941 -27.98076,23.07858 -38.46875,16.27735 -19.31391,-12.52466 -13.99237,-63.23669 -2.17774,-116.92774 22.03565,11.80012 43.8994,22.57026 65.50977,32.50977 a 67.247002,67.247002 0 0 1 9.125,-21.91602 c -21.83125,-10.65106 -43.55502,-22.0057 -61.29687,-31.69922 23.80353,-9.02658 46.2585,-17.54287 70.68359,-26.80273 65.25527,-24.73912 176.4751,-63.900925 193.39453,-57.806635 16.74961,6.03312 21.02781,33.052405 -126.03906,83.781245 a 118.138,118.138 0 0 1 0.0273,4.78711 67.247002,67.247002 0 0 1 5.85938,2.09179 C 621.98075,106.917 687.21746,42.039375 614.1793,38.820755 c -3.45155,-0.1521 -6.97891,-0.21445 -10.58398,-0.18555 -68.2138,0.5468 -164.79682,33.40195 -320.29883,93.601555 16.47128,-54.003175 42.22834,-106.851133 64.97852,-105.128896 15.24402,1.154002 17.71617,18.484731 15.97656,40.099611 a 116.388,116.388 0 0 1 5.38867,3.42773 c 8.37682,-28.8698 9.12352,-52.676449 -16.11523,-59.777341 -3.6109,-1.0159205 -7.15263,-1.4594715 -10.625,-1.3886725 z M 320.76723,66.594195 c -6.48329,11.89382 -13.70804,28.88248 -20.62695,48.693355 22.92186,-9.23048 45.92923,-18.245875 68.62695,-26.767575 a 101.51301,101.51301 0 0 0 -48,-21.92578 z m -55,6.10351 a 101.51301,101.51301 0 0 0 -45.75976,37.150385 c 8.72445,5.53226 17.17089,10.78657 25.37305,15.80274 5.93551,-19.21837 12.77652,-37.086665 20.38671,-52.953125 z m 132.60938,56.708985 -88.85352,33.40039 c 15.13773,8.24751 28.97676,15.38253 41.72852,21.6875 a 67.247002,67.247002 0 0 1 50.42188,-22.83985 67.247002,67.247002 0 0 1 3.54101,0.17774 101.51301,101.51301 0 0 0 -6.83789,-32.42578 z m -224.75195,24.84179 a 35.223427,35.223427 0 0 0 -35.22266,35.22461 35.223427,35.223427 0 0 0 35.22266,35.22266 35.223427,35.223427 0 0 0 35.22461,-35.22266 35.223427,35.223427 0 0 0 -35.22461,-35.22461 z m 228.04883,20.15625 a 54.497093,54.497093 0 0 0 -54.4961,54.49805 54.497093,54.497093 0 0 0 54.4961,54.49609 54.497093,54.497093 0 0 0 54.49804,-54.49609 54.497093,54.497093 0 0 0 -54.49804,-54.49805 z m -275.96876,16.54883 c -79.529831,31.50135 -125.36602112,56.663 -111.226561,72.12696 19.56049,21.39276 105.564251,11.7725 198.765631,-23.56641 -1.49171,-1.92276 -2.92276,-3.89182 -4.29102,-5.9043 -33.21363,10.45988 -100.72841,31.4499 -114.648441,18.64258 -12.13954,-11.16915 -1.87056,-20.16757 39.865241,-35.58398 a 47.973499,47.973499 0 0 1 -8.46485,-25.71485 z m 331.41211,0.0176 a 67.247002,67.247002 0 0 1 4.84766,8.23047 c 20.71623,8.57288 65.8022,33.56647 58.60742,45.58984 -5.86711,9.80468 -31.62955,2.89862 -52.73047,-4.26367 a 67.247002,67.247002 0 0 1 -8.9707,23.58008 c 48.0878,16.19244 96.36618,26.7487 114.65625,10.84961 23.51293,-20.43917 -79.78547,-67.73288 -116.41016,-83.98633 z m -227.51171,1.87695 -8.51563,3.20117 a 47.973499,47.973499 0 0 1 -6.46094,18.21485 101.51301,101.51301 0 0 0 11.05664,16.66601 c 0.48435,-11.92055 1.80237,-24.67196 3.91993,-38.08203 z m 48.2832,4.56055 c -4.36175,22.41231 -7.19546,44.72529 -7.53711,64.84961 a 101.51301,101.51301 0 0 0 33.5918,5.85156 101.51301,101.51301 0 0 0 38.39257,-7.67187 67.247002,67.247002 0 0 1 -7.9082,-31.53516 67.247002,67.247002 0 0 1 0.17774,-3.54297 c -18.13802,-8.54899 -36.83688,-17.66028 -56.7168,-27.95117 z"
     id="path18" />
</svg>
