<?xml version="1.0" encoding="utf-8"?>
<svg xmlns="http://www.w3.org/2000/svg" xmlns:xlink="http://www.w3.org/1999/xlink" version="1.1" id="Layer_1" x="0px" y="0px" width="44.902px" height="50px">
  <g>
    <path d="M20.806,49.971c-1.593-0.252-3.6-1.063-5.01-2.026c-1.396-0.953-3.051-2.828-3.812-4.315   c-0.301-0.59-0.303-0.59-1.472-0.359c-0.456,0.09-1.448,0.286-2.205,0.436c-0.757,0.148-2.194,0.425-3.193,0.612   c-1,0.188-2.034,0.39-2.298,0.45s-0.509,0.083-0.542,0.05c-0.033-0.033,0.042-0.296,0.167-0.583s0.386-0.895,0.581-1.349   c0.194-0.454,0.417-0.975,0.497-1.156c0.327-0.748,1.41-3.341,1.875-4.487c0.313-0.771,0.36-0.649-0.5-1.294   c-1.569-1.176-3.233-3.551-4.055-5.79C0.194,28.404-0.007,27.178,0,25.047c0.006-1.698,0.042-2.077,0.305-3.189   c0.8-3.385,2.484-6.08,4.945-7.918c0.575-0.429,0.599-0.498,0.364-1.029c-0.088-0.198-0.317-0.732-0.508-1.187   c-0.19-0.454-0.412-0.975-0.492-1.156c-0.079-0.182-0.299-0.702-0.488-1.156C3.723,8.439,3.393,7.667,2.923,6.594   C2.558,5.762,2.514,5.557,2.697,5.557c0.063,0,0.67,0.095,1.349,0.211c0.679,0.115,2.076,0.341,3.106,0.501   c1.029,0.159,2.444,0.387,3.144,0.505c0.699,0.118,1.327,0.215,1.394,0.215c0.067,0,0.301-0.325,0.52-0.723   c1.592-2.897,4.316-5.063,7.496-5.956C20.696,0.031,20.976,0,22.512,0c1.525,0,1.819,0.032,2.765,0.301   c2.3,0.651,4.172,1.778,5.806,3.494c0.566,0.595,1.517,1.927,1.945,2.726c0.367,0.686,0.326,0.68,2.118,0.313   c0.712-0.146,1.989-0.397,2.836-0.56s2.136-0.411,2.863-0.553c1.948-0.38,2.037-0.392,2.037-0.266c0,0.111-0.623,1.681-0.946,2.384   c-0.09,0.195-0.232,0.542-0.316,0.771s-0.334,0.836-0.556,1.351c-0.222,0.516-0.444,1.061-0.495,1.212s-0.273,0.696-0.495,1.211   c-0.67,1.558-0.673,1.567-0.431,1.7c0.496,0.272,2.365,2.278,2.931,3.146c1.088,1.666,1.569,2.807,2.046,4.844   c0.26,1.113,0.296,1.495,0.297,3.139c0,1.567-0.043,2.069-0.264,3.084c-0.7,3.211-2.31,5.925-4.616,7.783   c-0.464,0.375-0.861,0.693-0.882,0.708c-0.049,0.035,0.662,1.811,1.143,2.851c0.16,0.347,0.693,1.596,1.197,2.808   c0.164,0.394,0.344,0.802,0.401,0.906c0.058,0.105,0.198,0.438,0.313,0.739l0.208,0.549l-0.511-0.063   c-0.281-0.036-0.908-0.134-1.393-0.219c-0.484-0.084-1.401-0.228-2.037-0.319c-0.636-0.092-1.553-0.239-2.037-0.328   c-0.796-0.146-3.169-0.494-3.367-0.494c-0.044,0-0.241,0.284-0.437,0.631c-1.594,2.825-4.342,4.976-7.428,5.813   c-0.891,0.242-1.384,0.305-2.588,0.331C21.805,50.009,20.987,50,20.806,49.971L20.806,49.971z"/>
    <linearGradient id="path4164_4_" gradientUnits="userSpaceOnUse" x1="2.543" y1="36.6025" x2="42.7685" y2="13.3783">
      <stop offset="0.1" style="stop-color:#bf331c"/>
      <stop offset="0.5" style="stop-color:#f6b91d"/>
      <stop offset="0.9" style="stop-color:#bf331c"/>
    </linearGradient>
    <path fill="url(#path4164_4_)" d="M20.391,47.712   c-2.998-0.656-5.701-2.938-7.128-6.018c-0.261-0.563-0.516-0.93-0.646-0.931c-0.118-0.001-1.72,0.286-3.56,0.638   s-3.377,0.606-3.417,0.567c-0.039-0.039,0.436-1.28,1.055-2.759l1.125-2.688l1.74,1.136c0.957,0.624,3.227,2.116,5.045,3.314   c1.818,1.197,4.371,2.876,5.672,3.729l2.368,1.552l7.061-4.81c3.883-2.646,7.106-4.764,7.162-4.707   c0.107,0.108,2.304,5.179,2.265,5.227c-0.013,0.016-1.539-0.216-3.392-0.514c-1.853-0.298-3.493-0.542-3.645-0.543   c-0.202,0-0.361,0.197-0.592,0.733c-0.814,1.882-2.632,3.973-4.302,4.947C25.232,47.738,22.543,48.183,20.391,47.712z    M15.674,39.199l-6.921-4.56v-9.308v-9.308l6.741-4.644l6.741-4.644l6.998,4.533l6.998,4.533v9.343v9.342l-6.611,4.52   c-3.636,2.485-6.704,4.571-6.817,4.635C22.652,43.728,20.692,42.506,15.674,39.199z M25.281,37.38   c3.573-0.914,6.732-3.785,8.127-7.388c0.565-1.459,0.825-2.919,0.825-4.632c0-3.573-1.157-6.506-3.512-8.902   c-2.479-2.522-5.252-3.628-8.738-3.483c-2.549,0.106-4.735,0.963-6.81,2.67c-2.006,1.65-3.589,4.325-4.146,7.009   c-0.299,1.44-0.299,3.932,0,5.372c1.033,4.976,4.94,8.807,9.774,9.583C21.805,37.77,24.243,37.645,25.281,37.38z M20.805,34.203   c-2.427-0.513-4.729-2.326-5.833-4.594c-0.775-1.593-1.026-2.665-1.015-4.339c0.035-5.32,4.013-9.266,9.052-8.978   c2.998,0.171,5.714,2.013,7.078,4.798c0.76,1.553,0.979,2.502,0.979,4.249c0,1.749-0.218,2.692-0.986,4.27   c-0.45,0.923-0.806,1.406-1.686,2.285c-1.302,1.301-2.554,1.986-4.243,2.323C22.862,34.475,22.072,34.472,20.805,34.203z    M6.723,34.705c-0.041,0-0.7-0.512-1.33-1.137c-1.363-1.352-2.258-2.801-2.828-4.579c-1.466-4.571-0.349-9.439,2.9-12.637   c0.52-0.511,1.228-0.93,1.304-0.93L6.723,34.705z M38.309,15.593c0.008-0.02,0.327,0.213,0.709,0.517   c1.557,1.24,3.054,3.77,3.638,6.148c0.411,1.673,0.411,4.331,0,5.869c-0.617,2.309-1.376,3.729-2.829,5.292   c-0.656,0.706-1.383,1.145-1.383,1.145 M7.992,13.396c-0.12-0.286-0.657-1.56-1.195-2.83c-0.538-1.27-0.943-2.344-0.9-2.387   c0.066-0.065,5.944,0.797,6.793,0.998c0.236,0.055,0.329-0.04,0.515-0.527c0.468-1.225,1.516-2.792,2.558-3.825   c1.212-1.202,2.383-1.929,3.939-2.445c0.957-0.317,1.328-0.366,2.823-0.366c1.496,0,1.866,0.049,2.824,0.366   c1.395,0.464,2.617,1.187,3.734,2.209c0.986,0.903,2.24,2.694,2.73,3.902c0.18,0.442,0.41,0.82,0.512,0.841   s1.792-0.273,3.755-0.653c1.963-0.381,3.581-0.676,3.594-0.657c0.037,0.052-2.336,5.72-2.437,5.82   c-0.048,0.048-3.443-2.088-7.544-4.747c-4.385-2.842-7.526-4.794-7.623-4.736c-0.264,0.155-12.927,8.867-13.417,9.23l-0.444,0.329   L7.992,13.396z"/>
  </g>
</svg>
