<?xml version="1.0" encoding="utf-8"?>
<svg xmlns="http://www.w3.org/2000/svg" xmlns:xlink="http://www.w3.org/1999/xlink" version="1.1" id="Layer_1" x="0px" y="0px" width="44.918px" height="50px">
  <g>
    <path d="M20.806,49.971c-1.593-0.252-3.6-1.064-5.01-2.027c-1.396-0.953-3.051-2.827-3.812-4.314   c-0.301-0.59-0.303-0.591-1.472-0.359c-0.456,0.089-1.448,0.285-2.205,0.435c-0.757,0.149-2.194,0.425-3.193,0.612   c-1,0.188-2.034,0.391-2.298,0.451s-0.509,0.082-0.542,0.049c-0.033-0.032,0.042-0.295,0.167-0.583   c0.125-0.287,0.386-0.894,0.581-1.349c0.194-0.454,0.417-0.974,0.497-1.156c0.327-0.748,1.41-3.341,1.875-4.486   c0.313-0.772,0.36-0.65-0.5-1.294c-1.569-1.176-3.233-3.552-4.055-5.79C0.194,28.404-0.007,27.177,0,25.047   c0.006-1.698,0.042-2.077,0.305-3.19c0.8-3.384,2.484-6.079,4.945-7.917c0.575-0.43,0.6-0.498,0.364-1.029   c-0.088-0.199-0.317-0.733-0.508-1.188c-0.19-0.454-0.412-0.975-0.492-1.156C4.536,10.385,4.316,9.864,4.127,9.41   C3.723,8.439,3.393,7.666,2.923,6.594C2.558,5.761,2.514,5.557,2.697,5.557c0.063,0,0.67,0.095,1.349,0.21   c0.679,0.116,2.076,0.342,3.106,0.501c1.029,0.16,2.444,0.387,3.144,0.505c0.699,0.118,1.327,0.216,1.394,0.216   c0.067,0,0.301-0.326,0.52-0.724c1.592-2.897,4.316-5.062,7.496-5.955C20.696,0.031,20.976,0,22.512,0   c1.525,0,1.819,0.032,2.765,0.3c2.301,0.652,4.172,1.778,5.806,3.495c0.566,0.594,1.517,1.927,1.945,2.725   c0.367,0.687,0.326,0.68,2.118,0.313c0.712-0.146,1.989-0.397,2.836-0.56s2.136-0.41,2.863-0.552   c1.948-0.381,2.037-0.393,2.037-0.267c0,0.111-0.623,1.682-0.946,2.384c-0.09,0.195-0.232,0.542-0.316,0.771   s-0.334,0.837-0.556,1.352c-0.222,0.515-0.444,1.06-0.495,1.211s-0.273,0.697-0.495,1.212c-0.67,1.557-0.673,1.567-0.431,1.7   c0.496,0.272,2.365,2.277,2.931,3.145c1.088,1.666,1.569,2.807,2.046,4.844c0.26,1.113,0.296,1.496,0.297,3.14   c0,1.567-0.043,2.069-0.264,3.083c-0.7,3.211-2.31,5.926-4.616,7.784c-0.464,0.374-0.861,0.692-0.882,0.707   c-0.049,0.035,0.662,1.812,1.143,2.851c0.16,0.347,0.693,1.596,1.197,2.808c0.164,0.395,0.344,0.802,0.401,0.907   c0.058,0.104,0.198,0.438,0.313,0.739l0.208,0.549l-0.511-0.064c-0.281-0.035-0.908-0.133-1.393-0.218   c-0.484-0.084-1.401-0.229-2.037-0.319c-0.636-0.092-1.553-0.24-2.037-0.328c-0.796-0.146-3.169-0.494-3.367-0.494   c-0.044,0-0.241,0.283-0.437,0.631c-1.594,2.824-4.342,4.975-7.428,5.813c-0.891,0.241-1.384,0.305-2.588,0.331   C21.805,50.009,20.987,49.999,20.806,49.971L20.806,49.971z"/>
    <linearGradient id="path4164_4_" gradientUnits="userSpaceOnUse" x1="2.543" y1="36.4697" x2="42.7685" y2="13.2455">
      <stop style="stop-color:#8b723c" offset="0"/>
      <stop style="stop-color:#d2bb7b" offset="0.3"/>
      <stop style="stop-color:#ebd491" offset="0.5"/>
      <stop style="stop-color:#d2bb7b" offset="0.7"/>
      <stop style="stop-color:#8b723c" offset="1"/>
    </linearGradient>
    <path fill="url(#path4164_4_)" d="M20.391,47.578   c-2.998-0.655-5.701-2.937-7.128-6.017c-0.261-0.563-0.516-0.931-0.646-0.932c-0.118-0.001-1.72,0.286-3.56,0.638   s-3.377,0.607-3.417,0.568c-0.039-0.039,0.436-1.281,1.055-2.759l1.125-2.688l1.74,1.135c0.957,0.625,3.227,2.116,5.045,3.314   c1.818,1.198,4.371,2.877,5.672,3.73l2.368,1.552l7.061-4.81c3.883-2.646,7.106-4.765,7.162-4.708   c0.107,0.109,2.304,5.179,2.265,5.228c-0.013,0.016-1.539-0.216-3.392-0.515c-1.853-0.298-3.493-0.542-3.645-0.542   c-0.202,0-0.361,0.197-0.592,0.732c-0.814,1.882-2.632,3.974-4.302,4.947C25.232,47.605,22.543,48.049,20.391,47.578z    M15.674,39.066l-6.921-4.56v-9.308v-9.308l6.741-4.644l6.741-4.645l6.998,4.534l6.998,4.533v9.342v9.342l-6.611,4.52   c-3.636,2.485-6.704,4.572-6.817,4.636C22.652,43.594,20.692,42.373,15.674,39.066z M25.281,37.246   c3.573-0.914,6.732-3.784,8.127-7.387c0.565-1.459,0.825-2.919,0.825-4.632c0-3.573-1.157-6.507-3.512-8.902   c-2.479-2.523-5.252-3.629-8.738-3.484c-2.549,0.106-4.735,0.964-6.81,2.671c-2.006,1.649-3.589,4.325-4.146,7.009   c-0.299,1.44-0.299,3.931,0,5.371c1.033,4.977,4.94,8.807,9.774,9.584C21.805,37.637,24.243,37.512,25.281,37.246z M20.805,34.07   c-2.427-0.514-4.729-2.326-5.833-4.595c-0.775-1.593-1.026-2.664-1.015-4.338c0.035-5.321,4.013-9.266,9.052-8.979   c2.998,0.172,5.714,2.013,7.078,4.798c0.76,1.554,0.979,2.502,0.979,4.249c0,1.75-0.218,2.692-0.986,4.27   c-0.45,0.924-0.806,1.406-1.686,2.285c-1.302,1.302-2.554,1.987-4.243,2.323C22.862,34.342,22.072,34.338,20.805,34.07z    M6.723,34.571c-0.041,0-0.7-0.511-1.33-1.136c-1.363-1.352-2.258-2.801-2.828-4.579c-1.466-4.572-0.349-9.44,2.9-12.637   c0.52-0.512,1.228-0.93,1.304-0.93L6.723,34.571z M38.309,15.46c0.008-0.021,0.327,0.212,0.709,0.517   c1.557,1.239,3.054,3.77,3.638,6.147c0.411,1.673,0.411,4.332,0,5.87c-0.617,2.309-1.376,3.729-2.829,5.292   c-0.656,0.706-1.383,1.145-1.383,1.145 M7.992,13.263c-0.12-0.286-0.657-1.56-1.195-2.83s-0.943-2.344-0.9-2.387   c0.066-0.066,5.944,0.797,6.793,0.997c0.236,0.056,0.329-0.039,0.515-0.526c0.468-1.226,1.516-2.792,2.558-3.825   c1.212-1.202,2.383-1.929,3.939-2.445c0.957-0.318,1.328-0.366,2.823-0.366c1.496,0,1.866,0.048,2.824,0.366   c1.395,0.463,2.617,1.187,3.734,2.208c0.986,0.903,2.24,2.695,2.73,3.902c0.18,0.442,0.41,0.821,0.512,0.842   s1.792-0.274,3.755-0.654s3.581-0.676,3.594-0.656c0.037,0.051-2.336,5.72-2.437,5.82c-0.048,0.048-3.443-2.089-7.544-4.747   c-4.385-2.843-7.526-4.794-7.623-4.737C21.808,4.38,9.145,13.092,8.654,13.455l-0.444,0.328L7.992,13.263z"/>
  </g>
</svg>
