<?xml version="1.0" encoding="UTF-8" standalone="no"?>
<svg xmlns="http://www.w3.org/2000/svg" version="1.1" width="211.99998" height="224.85367" viewBox="0 0 211.99998 224.85367">
  <path d="m 95.378786,223.94542 c -15.49387,-3.21476 -29.45333,-14.39782 -36.8257,-29.49152 -1.34843,-2.75901 -2.66585,-4.55752 -3.33747,-4.56242 -0.60963,-0.005 -8.88611,1.40156 -18.39219,3.12656 -9.50607,1.72499 -17.44674,2.96973 -17.6534,2.77861 -0.20665,-0.19112 2.24736,-6.27271 5.44533,-13.52062 l 5.8173,-13.17269 8.98944,5.56703 c 4.9442,3.05794 16.6718,10.36957 26.06421,16.24043 9.39242,5.86596 22.5821,14.09398 29.30868,18.27416 l 12.228744,7.60565 36.47956,-23.57165 c 20.06092,-12.96686 36.71205,-23.34623 37.00137,-23.0669 0.5528,0.52926 11.90326,25.37996 11.70177,25.61518 -0.0619,0.0784 -7.95101,-1.05851 -17.52424,-2.51888 -9.57324,-1.46036 -18.04605,-2.6561 -18.83133,-2.661 -1.03844,0 -1.85989,0.96541 -3.05848,3.59211 -4.2054,9.22283 -13.59782,19.46989 -22.22045,24.24303 -10.18286,5.65033 -24.07516,7.83108 -35.193144,5.52292 z M 71.009136,182.22702 35.252856,159.8805 V 114.26617 68.65183 l 34.82634,-22.75816 34.826334,-22.75816 36.15408,22.2142 36.15408,22.2142 v 45.78585 45.78096 l -34.1547,22.15049 c -18.78484,12.17787 -34.63518,22.40043 -35.21898,22.71406 -0.78528,0.42635 -10.906154,-5.56213 -36.830874,-21.76825 z m 49.627914,-8.9141 c 18.45935,-4.47911 34.77984,-18.54859 41.98689,-36.20528 2.91898,-7.14991 4.26223,-14.30471 4.26223,-22.69936 0,-17.50967 -5.97746,-31.88299 -18.1442,-43.62471 -12.80737,-12.35919 -27.13365,-17.7792 -45.14353,-17.06862 -13.169014,0.51946 -24.462644,4.71923 -35.187974,13.08447 -10.3637,8.08591 -18.54202,21.19489 -21.41967,34.34797 -1.54474,7.0568 -1.54474,19.26897 0,26.32576 5.33683,24.38515 25.52175,43.15916 50.49586,46.96199 5.197344,0.78899 17.787724,0.17642 23.150394,-1.12222 z M 97.512486,157.74386 c -12.53872,-2.51398 -24.43165,-11.39868 -30.13529,-22.51313 -4.00392,-7.80658 -5.30067,-13.05997 -5.24385,-21.2635 0.18603,-26.07093 20.73255,-45.40851 46.765764,-43.99715 15.48871,0.83799 29.52567,9.86481 36.56739,23.51285 3.92643,7.61055 5.05786,12.26118 5.05786,20.82244 0,8.57107 -1.12626,13.19229 -5.09402,20.92536 -2.32485,4.52321 -4.16924,6.89017 -8.71046,11.19776 -6.72658,6.37562 -13.18968,9.73249 -21.9208,11.38398 -6.65425,1.26434 -10.73566,1.24964 -17.286594,-0.0686 z m -72.74731,2.46008 c -0.21182,0 -3.6216,-2.50908 -6.8764,-5.57193 -7.03656,-6.62554 -11.6604399,-13.72644 -14.6104299,-22.43962 -7.57386,-22.40043 -1.79788,-46.25631 14.9823999,-61.92828 2.6865,-2.50418 6.34428,-4.55751 6.73692,-4.55751 z M 187.94936,66.54459 c 0.0412,-0.098 1.6894,1.04382 3.66294,2.53359 8.044,6.07668 15.77285,18.47508 18.79516,30.12859 2.12337,8.19863 2.12337,21.22429 0,28.76134 -3.18763,11.31537 -7.10889,18.27416 -14.61559,25.93372 -3.38912,3.45979 -7.14505,5.61113 -7.14505,5.61113 M 31.321276,55.77808 c -0.61997,-1.40156 -3.39429,-7.64486 -6.17379,-13.86856 -2.77949,-6.2237 -4.86669,-11.48689 -4.64971,-11.69762 0.34098,-0.31853 30.70876,3.90574 35.09498,4.89075 1.21926,0.26953 1.69973,-0.19602 2.66068,-2.58259 2.41784,-6.00317 7.83217,-13.68234 13.22067,-18.74461 C 77.735716,7.88499 83.785506,4.32229 91.819176,1.7936 96.768536,0.24013 98.680076,0 106.40894,0 c 7.72368,0 9.6404,0.24013 14.58458,1.7936 7.20706,2.27386 13.52033,5.81696 19.29114,10.82532 5.09402,4.4252 11.57262,13.20209 14.10929,19.12196 0.92994,2.16604 2.1182,4.01845 2.64517,4.12136 0.52697,0.10291 9.25809,-1.33785 19.39963,-3.20006 10.14153,-1.86711 18.50068,-3.31277 18.573,-3.21966 0.19117,0.25483 -12.06858,28.03115 -12.59555,28.52121 C 182.17339,58.19895 164.62848,47.73138 143.4413,34.70081 120.78687,20.77344 104.56455,11.20756 104.05825,11.4918 102.6995,12.25138 37.272896,54.94499 34.741396,56.72389 l -2.29386,1.61228 z"/>
</svg>
