<?xml version="1.0" encoding="UTF-8" standalone="no"?>
<svg xmlns="http://www.w3.org/2000/svg" version="1.1" id="Layer_1" x="0px" y="0px" width="44.917175" height="50.000851" viewBox="0 0 44.917175 50.00085">
  <g transform="rotate(-90,25.000426,25.000426)">
    <g transform="rotate(90,25.000338,25.000514)">
      <g>
        <path d="m 20.391,47.712 c -2.999,-0.656 -5.701,-2.938 -7.128,-6.018 -0.261,-0.563 -0.516,-0.93 -0.646,-0.931 -0.118,-10e-4 -1.72,0.286 -3.56,0.638 -1.84,0.352 -3.377,0.606 -3.417,0.567 -0.04,-0.039 0.435,-1.28 1.054,-2.759 l 1.126,-2.688 1.74,1.136 c 0.957,0.624 3.227,2.116 5.045,3.314 1.818,1.197 4.371,2.876 5.673,3.729 l 2.367,1.552 7.061,-4.81 c 3.883,-2.646 7.106,-4.764 7.162,-4.707 0.107,0.108 2.304,5.179 2.265,5.227 -0.012,0.016 -1.539,-0.216 -3.392,-0.514 -1.853,-0.298 -3.493,-0.542 -3.645,-0.543 -0.201,0 -0.36,0.197 -0.592,0.733 -0.814,1.882 -2.632,3.973 -4.301,4.947 -1.971,1.153 -4.66,1.598 -6.812,1.127 z m -4.717,-8.513 -6.921,-4.56 v -9.308 -9.308 l 6.741,-4.644 6.741,-4.644 6.998,4.533 6.998,4.533 v 9.343 9.342 l -6.611,4.52 c -3.636,2.485 -6.704,4.571 -6.817,4.635 -0.152,0.087 -2.111,-1.135 -7.129,-4.442 z M 25.28,37.38 c 3.573,-0.914 6.732,-3.785 8.127,-7.388 0.565,-1.459 0.825,-2.919 0.825,-4.632 0,-3.573 -1.157,-6.506 -3.512,-8.902 -2.479,-2.522 -5.252,-3.628 -8.738,-3.483 -2.549,0.106 -4.735,0.963 -6.811,2.67 -2.006,1.65 -3.589,4.325 -4.146,7.009 -0.299,1.44 -0.299,3.932 0,5.372 1.033,4.976 4.94,8.807 9.774,9.583 1.006,0.161 3.443,0.036 4.481,-0.229 z m -4.476,-3.177 c -2.427,-0.513 -4.729,-2.326 -5.833,-4.594 -0.775,-1.593 -1.026,-2.665 -1.015,-4.339 0.036,-5.32 4.013,-9.266 9.052,-8.978 2.998,0.171 5.715,2.013 7.078,4.798 0.76,1.553 0.979,2.502 0.979,4.249 0,1.749 -0.218,2.692 -0.986,4.27 -0.45,0.923 -0.807,1.406 -1.686,2.285 -1.302,1.301 -2.553,1.986 -4.243,2.323 -1.288,0.258 -2.078,0.255 -3.346,-0.014 z M 6.723,34.705 C 6.682,34.705 6.022,34.193 5.392,33.568 4.03,32.216 3.135,30.767 2.564,28.989 1.098,24.418 2.216,19.55 5.464,16.352 c 0.52,-0.511 1.228,-0.93 1.304,-0.93 z M 38.309,15.593 c 0.008,-0.02 0.327,0.213 0.709,0.517 1.557,1.24 3.053,3.77 3.638,6.148 0.411,1.673 0.411,4.331 0,5.869 -0.617,2.309 -1.376,3.729 -2.829,5.292 -0.656,0.706 -1.383,1.145 -1.383,1.145 M 7.992,13.396 C 7.872,13.11 7.335,11.836 6.797,10.566 6.259,9.296 5.855,8.222 5.897,8.179 5.963,8.114 11.841,8.976 12.69,9.177 12.926,9.232 13.019,9.137 13.205,8.65 13.673,7.425 14.721,5.858 15.764,4.825 16.976,3.623 18.147,2.896 19.702,2.38 20.66,2.063 21.03,2.014 22.526,2.014 c 1.495,0 1.866,0.049 2.823,0.366 1.395,0.464 2.617,1.187 3.734,2.209 0.986,0.903 2.24,2.694 2.731,3.902 0.18,0.442 0.41,0.82 0.512,0.841 0.102,0.021 1.792,-0.273 3.755,-0.653 1.963,-0.381 3.581,-0.676 3.595,-0.657 0.037,0.052 -2.336,5.72 -2.438,5.82 C 37.191,13.89 33.795,11.754 29.694,9.095 25.309,6.253 22.169,4.301 22.071,4.359 21.808,4.514 9.144,13.226 8.654,13.589 L 8.21,13.918 Z"/>
      </g>
    </g>
  </g>
</svg>
