<?xml version="1.0" encoding="UTF-8" standalone="no"?>
<svg xmlns="http://www.w3.org/2000/svg" version="1.1" width="600" height="435.31888">
  <path d="m 407.55641,297.07248 c 10.19734,41.66002 14.96409,61.12965 20.91707,85.36603 -6.29036,-4.76674 -9.14169,-6.93245 -12.66778,-9.60966 -0.8924,-8.4996 -4.25524,-38.93928 -8.24929,-75.75637 m -215.11282,-0.0435 c -4.03758,36.86063 -7.35689,67.3003 -8.29282,75.7999 -3.48256,2.67721 -6.33389,4.84292 -12.62425,9.60966 5.90945,-24.23638 10.71973,-43.70601 20.91707,-85.40956 M 236.86788,62.92534 c 0,0 -9.94704,35.23906 -18.0222,63.67627 -23.25691,-22.39716 -83.96213,-80.89313 -83.96213,-80.89313 0,0 -35.794092,310.50207 -37.916271,328.74193 C 85.953711,381.20873 0,433.91497 0,433.91497 l 103.68207,0 c -0.13059,0.0871 -1.87187,1.4039 -1.87187,1.4039 l 139.91149,0 c 0,0 22.86512,-86.50874 30.89675,-116.90488 7.2263,2.046 15.35588,3.74374 25.21585,3.74374 l 4.28789,0 c 9.9035,0 17.98955,-1.69774 25.21585,-3.74374 8.03163,30.39614 30.94028,116.90488 30.94028,116.90488 l 139.91149,0 c 0,0 -1.74128,-1.31684 -1.9154,-1.4039 l 103.7256,0 c 0,0 -85.99724,-52.70624 -97.01081,-59.46456 -2.07865,-18.23986 -37.91627,-328.74193 -37.91627,-328.74193 0,0 -60.70522,58.49597 -83.96213,80.89313 C 373.07916,98.1644 345.22963,0.04353 345.22963,0.04353 c 0,0 -35.92469,107.80672 -45.22963,135.74331 C 290.69506,107.85025 254.72684,0 254.72684,0 l -17.85896,62.92534 z" style="fill:#ffffff"/>
  <path d="m 302.12218,302.00247 c 24.36697,0 38.68896,-11.47066 38.68896,-11.47066 l 32.98629,124.64268 64.44896,0 -41.52942,-31.5062 -15.76943,-144.75441 24.35609,-35.7941 51.56353,210.60727 71.63172,0 -44.38076,-27.20743 -34.39019,-298.00841 -78.81449,75.93049 -27.20743,-95.99869 -32.95363,98.83915 -21.50476,0 -32.95363,-98.83915 -27.20743,95.99869 -78.81449,-75.93049 -34.39019,298.00841 -44.424287,27.20743 71.631717,0 51.56352,-210.60727 24.39963,35.7941 -15.76943,144.75441 -41.57295,31.5062 64.49249,0 32.94275,-124.64268 c 0,0 14.32199,11.47066 38.68897,11.47066 l 4.28789,0 z"/>
</svg>
