<?xml version="1.0" encoding="UTF-8" standalone="no"?>
<svg xmlns="http://www.w3.org/2000/svg" version="1.1" width="600" height="435.31888">
  <path d="m 302.12218,302.00247 c 24.36697,0 38.68896,-11.47066 38.68896,-11.47066 l 32.98629,124.64268 64.44896,0 -41.52942,-31.5062 -15.76943,-144.75441 24.35609,-35.7941 51.56353,210.60727 71.63172,0 -44.38076,-27.20743 -34.39019,-298.00841 -78.81449,75.93049 -27.20743,-95.99869 -32.95363,98.83915 -21.50476,0 -32.95363,-98.83915 -27.20743,95.99869 -78.81449,-75.93049 -34.39019,298.00841 -44.424287,27.20743 71.631717,0 51.56352,-210.60727 24.39963,35.7941 -15.76943,144.75441 -41.57295,31.5062 64.49249,0 32.94275,-124.64268 c 0,0 14.32199,11.47066 38.68897,11.47066 l 4.28789,0 z"/>
</svg>
