<?xml version="1.0" encoding="UTF-8" standalone="no"?>
<svg xmlns="http://www.w3.org/2000/svg" version="1.1" width="600" height="454.46844">
  <path d="m 147.30489,196.6483 59.91024,43.98114 c 15.08834,-5.77175 30.71068,-10.11192 46.69659,-12.95234 l 30.57433,-75.00994 0.35176,-0.84077 c -49.57109,2.30643 -95.10879,16.4631 -132.43197,41.3225 -1.72698,1.14753 -3.46532,2.30643 -5.1014,3.49941 m 201.31795,32.26722 c 14.69068,3.02222 29.06323,7.23741 42.95859,12.60013 L 452.2979,196.95506 C 414.96336,170.55047 368.90303,154.88269 317.19593,151.95137 l 0.30631,0.71533 31.1197,76.24837 z m 148.40653,225.55247 c -12.60013,0 -20.63285,-9.68017 -31.77868,-23.08698 -23.42782,-28.22246 -67.14764,-80.90666 -168.1986,-80.90666 -100.83509,0 -141.80538,51.88888 -163.81299,79.75913 -10.70272,13.48634 -18.38323,23.2574 -31.24467,23.2574 -18.292338,0 -27.836166,-17.45157 -30.449357,-32.31268 l -0.272681,-1.55655 0,-1.55655 c 0,-46.94654 19.667102,-91.55258 55.570078,-126.66023 l -11.00949,-67.86343 c -21.348635,22.06442 -37.936717,48.33267 -48.946204,77.85037 -2.579106,6.82838 -3.419871,11.94114 -4.169744,16.41765 -1.465659,8.70306 -4.533318,26.76817 -29.074589,26.76817 C 11.543487,344.57763 0.79531898,322.46776 0,300.63057 l 0,-0.30722 0,-0.30631 C 0,217.06527 27.699824,141.8849 77.929898,88.26904 132.12521,30.52888 208.90757,0 299.9716,0 391.09243,0 467.87479,30.52888 522.05874,88.26904 572.30018,141.8849 600,217.06527 600,300.01704 l 0,0.61353 -0.0454,0.6708 c -1.46566,20.1102 -11.23672,43.62892 -33.91467,43.62892 -25.47293,0 -28.57468,-21.70084 -29.77902,-29.91535 -0.56808,-4.26064 -1.23842,-8.70306 -3.01085,-13.31591 -11.54348,-29.86991 -28.23382,-55.92229 -49.17343,-77.53224 l -11.19128,68.96551 c 36.08476,35.244 55.8314,79.48645 55.8314,125.69449 l 0,2.21553 -0.53446,2.136 c -3.85166,15.13378 -14.06583,31.29012 -31.15383,31.29012" style="fill:#ffffff"/>
  <path d="M 453.76402,299.69891 468.80691,206.942 394.0242,261.84173 c -18.41731,-8.07817 -38.08442,-13.884 -58.22871,-17.16753 l -34.80089,-85.25819 -34.39186,84.32653 c -21.48498,2.91996 -42.3905,8.78259 -61.9099,17.16753 L 131.194,206.942 l 14.73613,90.98449 c -34.57366,30.75612 -56.808503,72.33994 -56.808503,120.13861 0,0 3.056297,17.57655 12.872803,17.57655 16.81532,0 48.5031,-103.00517 195.01222,-103.00517 146.58865,0 183.2074,103.98228 200.02272,103.98228 9.31659,0 13.84991,-17.83787 13.84991,-17.83787 0,-47.09425 -22.46208,-88.28041 -57.11526,-119.08198 m 128.43265,0.27268 c 0,0 -1.99966,27.12038 -16.15634,27.12038 -15.3951,0 -9.00982,-13.31591 -16.19042,-31.82412 C 512.39039,198.2503 421.05368,133.67039 299.26762,133.67039 c -121.78605,0 -213.213652,65.23888 -249.071176,161.46112 -8.703062,23.34829 -1.681532,31.59689 -16.553997,31.59689 -14.827018,0 -15.849571,-26.75681 -15.849571,-26.75681 0,-155.82571 101.016874,-282.17917 282.224624,-282.17917 181.17366,0 282.17917,126.35346 282.17917,282.17917"/>
</svg>
