<?xml version="1.0" encoding="UTF-8" standalone="no"?>
<svg xmlns="http://www.w3.org/2000/svg" xmlns:xlink="http://www.w3.org/1999/xlink" version="1.1" width="600" height="454.46844">
  <linearGradient x1="0" y1="0" x2="1" y2="0" id="linearGradient520" gradientUnits="userSpaceOnUse" gradientTransform="matrix(47.875977,0,0,-47.875977,458.50684,257.61621)" spreadMethod="pad">
    <stop style="stop-color:#8b723c" offset="0"/>
    <stop style="stop-color:#d2bb7b" offset="0.3"/>
    <stop style="stop-color:#ebd491" offset="0.5"/>
    <stop style="stop-color:#d2bb7b" offset="0.7"/>
    <stop style="stop-color:#8b723c" offset="1"/>
  </linearGradient>
  <linearGradient x1="0" y1="0" x2="1" y2="0" id="linearGradient2997" xlink:href="#linearGradient520" gradientUnits="userSpaceOnUse" gradientTransform="matrix(47.875977,0,0,-47.875977,458.50684,257.61621)" spreadMethod="pad"/>
  <linearGradient x1="0" y1="0" x2="1" y2="0" id="linearGradient3000" xlink:href="#linearGradient520" gradientUnits="userSpaceOnUse" gradientTransform="matrix(543.95247,0,0,543.95247,28.039311,226.61807)" spreadMethod="pad"/>
  <path d="m 147.30489,196.6483 59.91024,43.98114 c 15.08834,-5.77175 30.71068,-10.11192 46.69659,-12.95234 l 30.57433,-75.00994 0.35176,-0.84077 c -49.57109,2.30643 -95.10879,16.4631 -132.43197,41.3225 -1.72698,1.14753 -3.46532,2.30643 -5.1014,3.49941 m 201.31795,32.26722 c 14.69068,3.02222 29.06323,7.23741 42.95859,12.60013 L 452.2979,196.95506 C 414.96336,170.55047 368.90303,154.88269 317.24138,151.95137 l 0.26177,0.71533 31.1197,76.24837 z m 148.40653,225.55247 c -12.60013,0 -20.63285,-9.68017 -31.73323,-23.08698 -23.47327,-28.22246 -67.14765,-80.90666 -168.24405,-80.90666 -100.83509,0 -141.80538,51.88888 -163.81299,79.75913 -10.70272,13.48634 -18.38323,23.2574 -31.24467,23.2574 -18.292338,0 -27.836166,-17.45157 -30.449357,-32.31268 l -0.272681,-1.55655 0,-1.55655 c 0,-46.94654 19.667102,-91.55258 55.570078,-126.66023 l -11.00949,-67.86343 c -21.348635,22.06442 -37.936717,48.33267 -48.946204,77.85037 -2.533659,6.82838 -3.419871,11.94114 -4.169744,16.41765 -1.465659,8.70306 -4.533318,26.76817 -29.074589,26.76817 C 11.543487,344.57763 0.79531898,322.46776 0,300.63057 l 0,-0.30722 0,-0.30631 C 0,217.06527 27.699824,141.8849 77.929898,88.26904 132.12521,30.52888 208.90757,0 300.01704,0 391.09243,0 467.87479,30.52888 522.05874,88.26904 572.34562,141.8849 600,217.06527 600,300.01704 l 0,0.61353 -0.0454,0.6708 c -1.46566,20.1102 -11.23672,43.62892 -33.91467,43.62892 -25.42748,0 -28.57468,-21.70084 -29.73357,-29.91535 -0.61353,-4.26064 -1.28387,-8.70306 -3.0563,-13.31591 -11.54348,-29.86991 -28.23382,-55.92229 -49.17343,-77.53224 l -11.19128,68.96551 c 36.08476,35.244 55.8314,79.48645 55.8314,125.69449 l 0,2.21553 -0.53446,2.136 c -3.85166,15.13378 -14.02039,31.29012 -31.15383,31.29012" style="fill:#ffffff"/>
  <path d="m 453.76402,299.69891 15.08833,-92.75691 -74.7827,54.89973 c -18.46276,-8.07817 -38.12987,-13.884 -58.27416,-17.16753 l -34.80089,-85.25819 -34.39186,84.32653 c -21.48498,2.91996 -42.3905,8.78259 -61.9099,17.16753 L 131.194,206.942 l 14.73613,90.98449 c -34.57366,30.75612 -56.808503,72.33994 -56.808503,120.13861 0,0 3.101744,17.57655 12.872803,17.57655 16.81532,0 48.5031,-103.00517 195.05766,-103.00517 146.54321,0 183.16196,103.98228 199.97728,103.98228 9.31659,0 13.89536,-17.83787 13.89536,-17.83787 0,-47.09425 -22.50753,-88.28041 -57.16071,-119.08198 m 128.43265,0.27268 c 0,0 -1.99966,27.12038 -16.15634,27.12038 -15.3951,0 -9.00982,-13.31591 -16.14497,-31.82412 C 512.39039,198.2503 421.05368,133.67039 299.26762,133.67039 c -121.78605,0 -213.213652,65.23888 -249.071176,161.46112 -8.703062,23.34829 -1.681532,31.59689 -16.553997,31.59689 -14.827018,0 -15.804124,-26.75681 -15.804124,-26.75681 0,-155.82571 100.971427,-282.17917 282.179177,-282.17917 181.17366,0 282.17917,126.35346 282.17917,282.17917"/>
  <path d="m 28.052491,299.57393 c 0.352213,8.38494 3.54485,16.95166 5.635403,16.95166 l 0,0 0.749872,0 c 0.227234,-1.02255 0.443107,-2.26098 0.624894,-3.37443 l 0,0 c 0.886212,-5.14684 2.090553,-12.24791 5.589956,-21.5645 l 0,0 C 79.271033,187.8657 178.36778,123.42214 299.26762,123.42214 l 0,0 c 122.22917,0 219.4626,62.88701 260.11476,168.1986 l 0,0 c 2.97676,7.55553 3.95387,14.38392 4.66966,19.39443 l 0,0 c 0.30676,1.95421 0.65898,4.39697 1.01119,5.86263 l 0,0 c 0.27268,0 0.57944,0 0.9771,0 l 0,0 c 2.09056,-0.93166 5.32864,-9.45293 5.95353,-16.90621 l 0,0 c 0,-162.66545 -109.31091,-271.93092 -271.97636,-271.93092 l 0,0 c -162.6541,0 -271.965009,109.26547 -271.965009,271.53326 m 248.048629,-51.97977 -2.26098,5.46497 -5.86264,0.79532 c -20.46242,2.79498 -40.43629,8.30541 -59.20581,16.42902 l 0,0 -5.40817,2.30643 -4.71511,-3.46532 -53.38862,-39.1865 10.78225,66.35232 0.89757,5.49906 -4.22655,3.72664 c -34.11918,30.40391 -53.036414,69.94263 -53.388627,111.49236 l 0,0 c 0.534,2.5223 1.601997,5.27183 2.579107,7.05562 l 0,0 c 2.48821,-2.57911 6.1694,-7.28285 9.27115,-11.19128 l 0,0 c 23.21195,-29.38135 71.45373,-90.45049 185.8774,-90.45049 l 0,0 c 114.27598,0 165.26729,61.51224 189.81992,91.02994 l 0,0 c 3.45396,4.21519 7.58962,9.19161 10.24825,11.75936 l 0,0 c 1.23843,-1.86332 2.65864,-4.96506 3.54485,-7.85094 l 0,0 c -0.4431,-40.56126 -19.4285,-79.62279 -53.69539,-110.0267 l 0,0 -4.16974,-3.72663 0.88621,-5.54451 11.04357,-68.07931 -54.62705,40.07272 -4.74919,3.51076 -5.41953,-2.39732 c -17.70153,-7.72595 -36.48242,-13.22501 -55.78595,-16.38357 l 0,0 -5.6354,-0.93166 -2.17008,-5.32863 -25.34796,-62.03488 -24.89348,61.10322 z" style="fill:url(#linearGradient3000)"/>
</svg>
