<?xml version="1.0" encoding="UTF-8" standalone="no"?>
<svg xmlns="http://www.w3.org/2000/svg" version="1.1" width="600" height="454.46844">
  <path d="M 453.76402,299.69891 468.80691,206.942 394.0242,261.84173 c -18.41731,-8.07817 -38.08442,-13.884 -58.22871,-17.16753 l -34.80089,-85.25819 -34.39186,84.32653 c -21.48498,2.91996 -42.3905,8.78259 -61.9099,17.16753 L 131.194,206.942 l 14.73613,90.98449 c -34.57366,30.75612 -56.808503,72.33994 -56.808503,120.13861 0,0 3.056297,17.57655 12.872803,17.57655 16.81532,0 48.5031,-103.00517 195.01222,-103.00517 146.58865,0 183.2074,103.98228 200.02272,103.98228 9.31659,0 13.84991,-17.83787 13.84991,-17.83787 0,-47.09425 -22.46208,-88.28041 -57.11526,-119.08198 m 128.43265,0.27268 c 0,0 -1.99966,27.12038 -16.15634,27.12038 -15.3951,0 -9.00982,-13.31591 -16.19042,-31.82412 C 512.39039,198.2503 421.05368,133.67039 299.26762,133.67039 c -121.78605,0 -213.213652,65.23888 -249.071176,161.46112 -8.703062,23.34829 -1.681532,31.59689 -16.553997,31.59689 -14.827018,0 -15.849571,-26.75681 -15.849571,-26.75681 0,-155.82571 101.016874,-282.17917 282.224624,-282.17917 181.17366,0 282.17917,126.35346 282.17917,282.17917"/>
</svg>
