<?xml version="1.0" encoding="UTF-8" standalone="no"?>
<svg xmlns="http://www.w3.org/2000/svg" version="1.1" width="600" height="320.57999">
  <path d="M 38.712,0 561.42,0 c 12.096,30.144 25.968,59.999995 31.548,92.243995 C 596.064,104.58 597.228,117.228 600,129.612 l 0,54.648 c -2.484,15.048 -3.564,30.336 -7.176,45.144 -2.196,13.92 -7.404,27.048 -11.244,40.5 -6.096,17.25599 -12.984,34.26 -21.144,50.676 l -520.776,0 C 28.776,299.71199 20.904,277.45199 13.596,255.18 10.356,241.968 5.952,229.08 4.176,215.58 3.096,207.744 1.872,199.92 0,192.276 L 0,135.144 C 1.452,126 2.76,116.856 3.792,107.664 5.292,93.047995 9.984,79.031995 13.872,64.919995 20.196,42.564 29.808,21.372 38.712,0"/>
  <path d="m 507.792,153.276 c -1.968,3.852 -6.792,4.32 -10.596,4.452 -11.664,-0.32352 -22.632,-5.436 -32.1,-12 -8.064,-5.436 -14.304,-13.584 -17.064,-22.92 -3.24,-12.516 -0.336,-26.904005 8.628,-36.372005 2.952,-2.016 6.888,-1.176 10.26,-1.032 15.276,2.388 30,10.308 39.564,22.644005 10.176,12.696 9.468,31.68 1.308,45.228 M 494.436,63.179995 c -4.356,-2.568 -9.42,-6.468 -14.724,-4.212 -5.34,2.34 -9.936,5.952 -14.808,9.048 -11.676,7.308 -22.824,15.324 -34.548,22.548 -2.952,2.1 -6.696,4.5 -6.792,8.532 -0.85248,7.116005 -0.56448,14.340005 -1.176,21.468005 -0.61248,6.6 -1.176,13.212 -0.744,19.872 0.0864,3.564 2.436,6.46799 4.68,9.048 9.288,10.07999 19.596,19.596 31.92,25.87199 6.9,3.096 13.548,6.756 20.82,8.772 4.404,-0.432 8.292,-2.868 12,-5.064 5.436,-3.51599 11.016,-6.9 16.5,-10.416 8.148,-5.244 14.664,-12.59999 22.164,-18.744 3.9,-3.61199 9,-7.30799 8.868,-13.22399 0.56448,-12.744 2.388,-25.824 -0.56352,-38.388005 -11.58,-14.904 -28.128,-24.744 -43.596,-35.112 M 233.53248,191.34 c 5.904,15.24 12.048,30.66 14.34,46.96799 -5.016,2.72401 -10.548,4.356 -15.372,7.5 -10.92,7.08 -19.452,17.256 -25.74,28.596 -5.664,-2.484 -11.34,-5.112 -16.164,-9 -0.936,-2.064 -0.288,-4.5 -0.288,-6.708 1.32,-14.436 -1.68,-28.87199 -5.904,-42.59999 -4.176,-13.224 -7.872,-26.676 -13.692,-39.33601 -7.452,-17.48399 -15.516,-35.148 -27.888,-49.82399 -2.484,-2.16 -5.58,-7.128 -9.228,-4.272 -4.596,4.224 -4.692,11.724 -9.66,15.66 -6.324,1.788 -11.952,-2.484 -17.388,-5.064 -3.756,-2.01601 -9.24,-4.632 -8.064,-9.84 2.628,-10.452 8.244,-19.92 10.872,-30.420005 0.24,-3.288 1.74,-8.532 -2.34,-9.984 -5.58,-2.772 -12,-2.856 -17.532,-5.532 -2.292,-1.176 -2.532,-4.128 -1.032,-6.048 2.76,-4.032 5.628,-8.292 9.612,-11.208 8.436,-1.164 16.824,0.80448 25.26,0.70848 13.644,0.37152 27.288,-0.048 40.872,0.888 1.128,9.288 6.048,17.484 11.772,24.708 10.224,13.776005 16.968,29.952005 28.776,42.564005 1.644,1.452 3.336,3.37199 5.676,3.516 3.792,-1.32 6.936,-4.176 10.968,-4.836 4.788,0.336 7.692,4.69199 10.74,7.788 3.048,3.744 7.68,7.776 6.132,13.116 -1.872,5.352 -7.068,9.048 -7.824,14.868 -1.128,9.32399 -0.41952,18.984 3.096,27.792 m 134.904,-120.144005 c 11.34,-4.68 22.224,-10.452 33.84,-14.34 -0.56352,16.92 0.144,33.888 -0.984,50.808005 -0.13248,16.5 0.144,33.04799 -0.096,49.596 0.288,2.90399 -2.196,4.74 -4.02,6.46799 -6.708,5.82001 -13.176,11.916 -18.852,18.70801 -1.356,1.77599 -3.18,3.048 -5.196,3.98399 1.5,-30.56399 1.584,-61.17599 -0.24,-91.739995 -0.048,-1.632 -1.176,-3.372 -3,-3.276 -7.26,-0.61152 -14.58,0.42048 -21.888,-0.27648 -0.288,-3.384 -0.288,-6.756 -0.096,-10.128 6.192,-4.5 13.644,-6.612 20.532,-9.804 m 17.676,172.032005 c -0.432,4.644 -2.868,8.724 -5.016,12.708 -10.692,-1.176 -20.82,-5.436 -31.596,-6.09601 -16.692,-2.244 -33.984,-2.388 -50.208,2.58001 -5.904,1.824 -10.872,5.532 -16.116,8.58 -4.368,-4.404 -8.82,-8.856 -12.384,-13.92 8.16,-8.016 19.404,-13.74 23.952,-24.804 3.384,-9.46801 -1.92,-18.888 -5.244,-27.516 -6.468,-17.90401 -16.404,-34.212 -24.048,-51.564 -1.5,-2.712 -2.676,-6.132 -5.676,-7.548 -4.08,0.56352 -7.968,4.272 -12.18,2.532 -4.368,-2.808 -7.596,-7.02 -10.836,-10.968 -2.664,-3.048 -3.984,-7.584 -2.196,-11.388 2.484,-3.792 6.276,-6.612 8.808,-10.404 3.24,-4.74 6.372,-9.564005 8.532,-14.904005 1.128,-2.388 -0.37152,-4.872 -2.16,-6.372 -7.116,-5.82 -16.068,-8.772 -23.616,-13.932 3,-5.196 6.324,-10.164 9.42,-15.276 5.904,0.41952 11.436,2.76 17.34,3.276 8.436,0.80448 16.92,0.80448 25.356,0.336 4.884,-0.24 9.384,-2.436 14.112,-3.144 4.224,1.968 7.92,4.872 11.856,7.26 -0.51648,6.24 -3.18,12.144 -2.34,18.48 1.08,9.42 3.096,18.84 7.224,27.420005 6.372,12.744 14.064,24.936 19.356,38.196 6.984,16.92 15.228,33.384 20.628,50.868 2.616,8.244 3.096,17.904 9.696,24.18 6.144,5.352 13.128,9.564 19.92,14.064 2.82,1.968 5.868,4.07999 7.416,7.356 m 175.872,-69 c 0.096,6.936 -0.984,13.788 -1.92,20.62799 -1.032,6.79201 -1.272,13.78801 -2.724,20.53201 -1.548,7.224 -3.66,14.292 -5.532,21.46799 -3.372,15.048 -9.372,29.34 -15,43.692 -0.37152,2.148 -2.808,1.968 -4.5,2.1 -151.212,-0.0384 -302.436,0 -453.696,0 -4.884,-0.18048 -9.936,0.70752 -14.676,-0.64799 -3.708,-8.30401 -7.128,-16.872 -9.744,-25.64401 7.728,-4.72799 16.872,-6.324 25.68,-7.54799 10.272,-0.792 20.628,-0.744 30.804,1.032 0.27648,-4.824 0.32352,-9.696 -0.096,-14.53201 -4.692,-3.18 -11.388,-5.29199 -12.612,-11.53199 -1.92,-9.228 1.692,-18.228 4.032,-26.952 2.064,-8.712 6.696,-16.404 9.888,-24.696 2.256,-6.048 7.308,-11.532 6.192,-18.336 -0.24,-3.372 -3.612,-5.112 -6.24,-6.516 -4.776,-2.292 -9.744,-4.632 -15.096,-5.244 -3.468,-0.41952 -6.18,2.388 -7.548,5.244 -9,18.852 -13.968,39.288 -22.26,58.452 -4.356,11.304 -9.708,22.74 -18.612,31.272 -3,-6.51601 -3.564,-13.78801 -5.34,-20.628 -2.16,-10.776 -3.468,-21.70801 -4.644,-32.532 -0.61248,-14.904 -0.51648,-29.808 -0.096,-44.76 1.224,-17.112 4.884,-33.936 8.112,-50.724005 5.016,-16.92 10.788,-33.66 17.436,-50.015995 1.692,-0.144 3.384,-0.37152 5.064,-0.41952 155.532,0.144 311.112,-0.096 466.692,0.144 3,4.584 4.644,9.887995 6.468,15.047995 3.984,12.048 8.388,23.952 11.808,36.228 2.112,11.724005 5.016,23.340005 6.096,35.256005 2.904,16.404 2.016,33.084 2.064,49.632 m 16.452,-54.936 c -2.016,-10.596 -3.324,-21.324005 -6.276,-31.728005 -1.968,-12.468 -7.128,-24.096 -10.644,-36.144 -3.888,-10.967995 -8.856,-21.515995 -13.32,-32.255995 -1.68,-0.0864 -3.324,-0.22848 -4.968,-0.27648 -157.728,0.048 -315.372,0 -473.052,0.048 -6.432,0.048 -12.852,-0.32352 -19.272,0.22848 -3.096,11.532 -9.276,21.852 -12.744,33.239995 -5.064,16.224 -10.836,32.388 -13.884,49.176005 -3.468,16.308 -4.308,33.048 -4.5,49.632 -0.096,16.836 -0.096,33.708 1.644,50.436 1.452,11.352 4.26,22.416 6.756,33.516 2.904,15.432 9.468,29.724 14.34,44.484 3.18,7.27199 6.096,14.62799 9,21.94799 165.66,0.0864 331.308,0.0864 496.92,0 12.192,-29.952 24.048,-60.46799 28.644,-92.67599 3.516,-16.596 2.712,-33.612 3.648,-50.436 -0.84,-13.032 -0.51552,-26.208 -2.292,-39.192" style="fill:#808080"/>
</svg>
