<?xml version="1.0" encoding="UTF-8" standalone="no"?>
<svg xmlns="http://www.w3.org/2000/svg" version="1.1" width="600" height="320.33014">
  <linearGradient x1="0" y1="0" x2="1" y2="0" id="linearGradient930" gradientUnits="userSpaceOnUse" gradientTransform="matrix(-33.878906,-33.878906,-33.878906,33.878921,249.98535,51.84375)" spreadMethod="pad">
    <stop offset="0" style="stop-color:#bf331c"/>
    <stop offset="0.5" style="stop-color:#f6b91d"/>
    <stop offset="1" style="stop-color:#bf331c"/>
  </linearGradient>
  <path d="m 560.33493,320.33015 c 10.86353,-20.85174 18.72939,-43.09439 26.04369,-65.34903 C 589.6041,241.77942 600,204.11679 600,162.14953 600,120.18226 590.02378,78.970407 586.04288,64.869406 579.77177,42.53083 570.16726,21.35535 561.2702,0 L 38.69381,0 C 29.84472,21.35535 20.19225,42.53083 13.92114,64.869406 9.97621,78.970407 0,120.18226 0,162.14953 c 0,41.96726 10.40788,79.62989 13.5854,92.83159 7.35027,22.25464 15.22812,44.49729 26.04368,65.34903 l 520.70585,0 z" style="fill:#ffffff"/>
  <g transform="matrix(11.990647,0,0,-11.990647,-2494.3784,578.45281)">
    <path d="m 211.754,47.492 -0.18,-0.433 c -0.609,-1.438 -1.238,-2.922 -1.664,-4.43 l 0,0 c -0.191,-0.676 -1.133,-4.238 -1.133,-7.906 l 0,0 c 0,-3.129 0.727,-6.024 1.035,-7.258 l 0,0 0.063,-0.254 c 0.617,-1.879 1.187,-3.457 1.922,-4.934 l 0,0 42.5,0 c 0.785,1.59 1.387,3.301 1.902,4.879 l 0,0 0.074,0.285 c 0.313,1.239 1.043,4.137 1.043,7.282 l 0,0 c 0,3.668 -0.945,7.23 -1.136,7.906 l 0,0 c -0.418,1.492 -1.043,2.969 -1.645,4.394 l 0,0 -0.195,0.469 -42.586,0 z" style="fill:url(#linearGradient930)"/>
  </g>
  <path d="m 507.40822,153.15654 c -1.91851,3.849 -6.75074,4.31663 -10.58774,4.44853 -11.6669,-0.32423 -22.62636,-5.43176 -32.08698,-11.99065 -8.05771,-5.43176 -14.28086,-13.57341 -17.0507,-22.90213 -3.22548,-12.50625 -0.32422,-26.883033 8.62128,-36.343654 2.9497,-2.014429 6.88263,-1.175083 10.29996,-1.031195 15.22813,2.386138 29.97662,10.299966 39.53317,22.626349 10.1201,12.68611 9.46062,31.65531 1.27101,45.19275 M 494.0986,63.130762 c -4.40057,-2.565999 -9.46062,-6.462959 -14.7485,-4.208717 -5.33584,2.338176 -9.92825,5.947361 -14.79646,9.040948 -11.6669,7.302304 -22.8182,15.312056 -34.52107,22.530426 -2.9497,2.098363 -6.70277,4.496493 -6.75073,8.52535 -0.88731,7.110451 -0.56309,14.328821 -1.17509,21.451271 -0.64749,6.59485 -1.21105,13.2017 -0.79138,19.85651 0.0959,3.56122 2.4341,6.46296 4.7363,9.04095 9.22081,10.07214 19.56874,19.58072 31.89513,25.85183 6.83467,3.09359 13.53744,6.75074 20.74382,8.76517 4.40056,-0.43167 8.29752,-2.86577 11.99064,-5.06006 5.47973,-3.51326 11.00742,-6.89462 16.48714,-10.40788 8.15364,-5.23991 14.71253,-12.59018 22.20668,-18.72939 3.83701,-3.60919 8.94503,-7.3023 8.80114,-13.21369 0.56308,-12.73407 2.4341,-25.80388 -0.56404,-38.358084 C 526.08917,83.323012 509.55406,73.490681 494.09812,63.130762 M 233.3495,191.19087 c 5.94736,15.22813 12.03861,30.63611 14.38878,46.9314 -5.01209,2.72187 -10.58774,4.3526 -15.37201,7.49415 -10.91149,7.07448 -19.4848,17.24255 -25.75591,28.57372 -5.62362,-2.48207 -11.34315,-5.10802 -16.16339,-8.99299 -0.93527,-2.06239 -0.22831,-4.49649 -0.27627,-6.70277 1.30698,-14.42475 -1.69068,-28.8495 -5.8994,-42.5668 -4.17274,-13.21369 -7.87785,-26.65521 -13.68133,-39.30534 -7.39822,-17.47038 -15.5039,-35.12061 -27.8183,-49.78517 -2.48206,-2.15832 -5.57565,-7.12244 -9.28076,-4.26867 -4.59242,4.22071 -4.64038,11.71486 -9.60451,15.6478 -6.36703,1.7866 -11.99064,-2.48207 -17.42241,-5.06006 -3.74108,-2.01443 -9.17284,-4.62839 -8.00975,-9.83233 2.57799,-10.44385 8.2016,-19.90447 10.87552,-30.39629 0.2283,-3.285437 1.67869,-8.52535 -2.39813,-9.976218 -5.52769,-2.76984 -11.99065,-2.853774 -17.51834,-5.527689 -2.24225,-1.175083 -2.48206,-4.124782 -1.03119,-6.043286 2.76984,-4.028857 5.62361,-8.285537 9.65247,-11.199264 8.38146,-1.163093 16.81089,0.803853 25.2523,0.707927 13.57341,0.371231 27.20678,-0.04796 40.79218,0.887308 1.17509,9.280761 6.04329,17.470373 11.75084,24.688743 10.21603,13.765259 16.95477,29.928659 28.81352,42.530829 1.59476,1.45086 3.32141,3.36937 5.65959,3.51326 3.75307,-1.31898 6.94258,-4.17275 10.95945,-4.83223 4.73631,0.33573 7.63804,4.68834 10.73163,7.78193 2.99766,3.74108 7.686,7.76994 6.09125,13.10577 -1.87054,5.34783 -7.07448,9.04095 -7.82989,14.85641 -1.06717,9.31674 -0.42016,18.96921 3.09358,27.77034 M 368.19584,71.140994 c 11.29519,-4.676353 22.15872,-10.443854 33.77766,-14.328824 -0.56404,16.906813 0.17938,33.861588 -0.93527,50.7684 -0.19186,16.48714 0.13237,33.02224 -0.14389,49.55735 0.32422,2.90173 -2.15832,4.7363 -4.02886,6.46295 -6.70277,5.81547 -13.16573,11.90672 -18.77735,18.69342 -1.36694,1.77462 -3.23748,3.04563 -5.25191,3.9809 1.49883,-30.54018 1.59476,-61.12832 -0.2283,-91.668499 -0.048,-1.630728 -1.12712,-3.369372 -2.96169,-3.273447 -7.3023,-0.611044 -14.60461,0.420152 -21.9189,-0.275305 -0.27531,-3.381363 -0.27531,-6.750735 -0.0863,-10.120107 6.17518,-4.496492 13.66934,-6.606846 20.55197,-9.796359 m 17.61426,171.897917 c -0.4192,4.64038 -2.80582,8.7172 -4.96413,12.6981 -10.71964,-1.17508 -20.79178,-5.43176 -31.57137,-6.09125 -16.667,-2.24225 -34.00548,-2.38614 -50.20484,2.57799 -5.86343,1.82258 -10.82756,5.52769 -16.11543,8.57331 -4.30465,-4.40057 -8.75318,-8.8491 -12.3144,-13.90915 8.14165,-8.00975 19.34091,-13.72929 23.93333,-24.78467 3.32141,-9.46062 -1.9185,-18.87328 -5.29987,-27.49455 -6.46296,-17.89005 -16.39121,-34.18534 -23.98129,-51.52381 -1.49883,-2.70989 -2.66192,-6.12722 -5.65959,-7.54212 -4.12478,0.56308 -8.00975,4.26867 -12.23046,2.53003 -4.3526,-2.80581 -7.54211,-7.01453 -10.81556,-10.95946 -2.67392,-3.04562 -3.93293,-7.57808 -2.20628,-11.37912 2.48206,-3.78904 6.2831,-6.60685 8.8491,-10.39589 3.18951,-4.73631 6.37902,-9.556546 8.52535,-14.892384 1.07916,-2.386139 -0.41919,-4.868203 -2.14633,-6.367034 -7.1704,-5.815464 -16.06747,-8.765163 -23.65754,-13.921142 2.99766,-5.19195 6.31907,-10.156078 9.46062,-15.264094 5.89939,0.419193 11.42708,2.757849 17.32648,3.273447 8.39345,0.803853 16.87084,0.803853 25.34823,0.335738 4.82024,-0.239813 9.31673,-2.434101 14.101,-3.141549 4.16076,1.966466 7.86587,4.868202 11.7988,7.254341 -0.51608,6.235137 -3.14155,12.134535 -2.29022,18.465597 1.06717,9.412658 3.0816,18.825316 7.15842,27.39863 6.415,12.73407 14.05304,24.91656 19.34091,38.16623 7.02652,16.90681 15.22813,33.35798 20.61193,50.82835 2.62595,8.23758 3.09358,17.89005 9.74839,24.16116 6.12722,5.34783 13.10578,9.55654 19.85652,14.05304 2.85377,1.96646 5.89939,4.07682 7.39823,7.35026 m 175.73492,-68.94622 c 0.0959,6.93059 -0.98323,13.77725 -1.9185,20.61192 -1.0312,6.78671 -1.25902,13.77726 -2.70989,20.516 -1.49883,7.21837 -3.65715,14.28086 -5.47972,21.45127 -3.38137,15.03627 -9.42465,29.31713 -15.03628,43.65795 -0.3837,2.14632 -2.8178,1.96646 -4.44853,2.09836 -151.1541,-0.0384 -302.24824,0 -453.40234,0 -4.8682,-0.18034 -9.92826,0.70697 -14.66456,-0.6475 -3.69312,-8.29752 -7.06249,-16.85885 -9.73641,-25.62401 7.76994,-4.72431 16.85885,-6.31907 25.71994,-7.54212 10.20404,-0.79138 20.59993,-0.74342 30.72004,1.0312 0.32327,-4.82024 0.37219,-9.68844 -0.0959,-14.52067 -4.64038,-3.17753 -11.37912,-5.28788 -12.60217,-11.52302 -1.9185,-9.2208 1.69068,-18.21379 4.07682,-26.93099 2.01443,-8.70521 6.65481,-16.39122 9.84432,-24.67675 2.29022,-6.04329 7.30231,-11.52301 6.17519,-18.32171 -0.18034,-3.36937 -3.60919,-5.10802 -6.17519,-6.51092 -4.83223,-2.29022 -9.79635,-4.62839 -15.13219,-5.23992 -3.41734,-0.42015 -6.18718,2.38614 -7.54212,5.23992 -8.99299,18.8373 -13.95711,39.25738 -22.25464,58.40644 -4.35261,11.29519 -9.68844,22.72228 -18.53754,31.24763 -2.99766,-6.51092 -3.56122,-13.77726 -5.39579,-20.61193 -2.14633,-10.7676 -3.41734,-21.69108 -4.62839,-32.50664 -0.61105,-14.89238 -0.46716,-29.78477 -0.0959,-44.72511 1.21106,-17.09867 4.8682,-33.90956 8.15364,-50.684471 4.96413,-16.906813 10.71964,-33.633766 17.42241,-49.977019 1.67869,-0.14389 3.32141,-0.37219 5.01209,-0.42015 155.44675,0.14389 310.9055,-0.0959 466.31628,0.14389 3.04562,4.58042 4.68834,9.88029 6.46296,15.036268 4.02885,12.03861 8.42942,23.933332 11.85875,36.199764 2.09836,11.714858 5.01209,23.321808 6.07925,35.228518 2.91373,16.39122 2.01443,33.05822 2.01443,49.59332 m 16.48714,-54.89318 c -2.01443,-10.58774 -3.36937,-21.307382 -6.27111,-31.703273 -2.01443,-12.458283 -7.1704,-24.07722 -10.6357,-36.11583 -3.88497,-10.959447 -8.8491,-21.499227 -13.29763,-32.230857 -1.69068,-0.0863 -3.32141,-0.22735 -5.01209,-0.27531 -157.5691,0.048 -315.1262,0 -472.6953,0.048 -6.36703,0.048 -12.78203,-0.32422 -19.20901,0.22735 -3.0816,11.52301 -9.31674,21.83497 -12.78203,33.21409 -5.06006,16.211355 -10.7676,32.362757 -13.81323,49.13767 -3.4653,16.29529 -4.36459,33.02225 -4.49649,49.59332 -0.14389,16.82288 -0.0959,33.68173 1.63073,50.39669 1.46285,11.34315 4.2207,22.39853 6.75073,33.48988 2.85377,15.41997 9.41266,29.70083 14.32882,44.44933 3.14155,7.26633 6.04329,14.6166 8.94503,21.93089 165.53088,0.0863 331.06177,0.0863 496.58066,0 12.13454,-29.92865 24.02926,-60.42087 28.57372,-92.60377 3.51326,-16.58306 2.72187,-33.5858 3.70511,-50.39669 -0.88731,-13.02184 -0.56404,-26.18757 -2.30221,-39.16145"/>
</svg>
