<?xml version="1.0" encoding="UTF-8" standalone="no"?>
<svg
   version="1.1"
   id="Layer_1"
   x="0px"
   y="0px"
   width="633.78"
   height="500"
   viewBox="0 0 633.78 500"
   sodipodi:docname="C.svg"
   inkscape:version="1.1.1 (3bf5ae0d25, 2021-09-20)"
   xmlns:inkscape="http://www.inkscape.org/namespaces/inkscape"
   xmlns:sodipodi="http://sodipodi.sourceforge.net/DTD/sodipodi-0.dtd"
   xmlns="http://www.w3.org/2000/svg"
   xmlns:svg="http://www.w3.org/2000/svg">
  <defs
     id="defs31" />
  <sodipodi:namedview
     id="namedview29"
     pagecolor="#ffffff"
     bordercolor="#666666"
     borderopacity="1.0"
     inkscape:pageshadow="2"
     inkscape:pageopacity="0.0"
     inkscape:pagecheckerboard="0"
     showgrid="false"
     inkscape:zoom="15.64"
     inkscape:cx="31.681"
     inkscape:cy="25"
     inkscape:window-width="1920"
     inkscape:window-height="986"
     inkscape:window-x="-11"
     inkscape:window-y="-11"
     inkscape:window-maximized="1"
     inkscape:current-layer="Layer_1" />
  <path
     style="fill:#ffffff;stroke-width:10"
     d="m 361.31,0 c 59.29,107.27 50.14,178.17 30.11,206.68 L 351.05,105.73 C 332.1,60.95 330.12,63.49 319.34,63.49 h -17.97 c 23.54,126.27 18.17,213.01 1.07,314.33 l 121.1,-78.65 c -11.14,46.25 -49.81,86.08 -117.52,81.66 v 118.28 c 157.61,10.02 292.72,-162.01 216.39,-339.89 14.7,-28.09 52.83,-18.54 111.37,1.72 C 600.25,62.45 489.5,12.78 361.31,0 Z"
     id="path2" />
  <path
     style="fill:#ffffff;stroke-width:10"
     d="M 7.54,14.52 0,232.06 100.74,127.37 C 2.54,229.33 41.14,502.59 284.51,499.98 V 380.88 C 164.64,387.99 136.47,255.83 191.64,197.06 v 0.3 l 52.75,41.21 V 82.39 L 166.31,14.52 Z"
     id="path4" />
  <path
     d="m 391.78,21.91 c 40.14,86.64 49.1,170.54 -5.3,215.88 L 322,83.63 c 16.86,88.31 15.04,180.91 4.67,255.75 l 126.59,-82.8 c -11.59,74.53 -48.19,139.55 -130.5,141.85 v 82.8 C 488.62,481.91 570.57,287.85 504.05,161.29 513.19,122.4 554.15,119 597.54,130 563.53,70.41 474.13,34.08 391.78,21.91 Z"
     id="path6"
     style="stroke-width:10" />
  <path
     d="m 23.18,31.36 -4.77,156.26 75.74,-80.09 h 7.82 l 22.23,17.08 C 17.66,238.62 62.43,468.85 267.49,481.51 V 398.72 C 158.32,397.52 101.65,253.96 189.55,174.78 l 37.87,29.09 V 89.02 L 160.22,31.35 H 23.18 Z"
     id="path8"
     style="stroke-width:10" />
</svg>
