<?xml version="1.0" encoding="UTF-8" standalone="no"?>
<svg
   version="1.1"
   id="Layer_1"
   x="0px"
   y="0px"
   width="633.78"
   height="500"
   sodipodi:docname="M.svg"
   inkscape:version="1.1.1 (3bf5ae0d25, 2021-09-20)"
   xmlns:inkscape="http://www.inkscape.org/namespaces/inkscape"
   xmlns:sodipodi="http://sodipodi.sourceforge.net/DTD/sodipodi-0.dtd"
   xmlns="http://www.w3.org/2000/svg"
   xmlns:svg="http://www.w3.org/2000/svg">
  <defs
     id="defs37">
    <linearGradient
       id="SVGID_1_"
       gradientUnits="userSpaceOnUse"
       x1="45.977"
       y1="2.5068"
       x2="45.977"
       y2="48.438"
       gradientTransform="matrix(10,0,0,10,0,-3.15)">
      <stop
         style="stop-color:#bf331c"
         offset="0"
         id="stop6" />
      <stop
         style="stop-color:#d3641c"
         offset="0.3"
         id="stop8" />
      <stop
         style="stop-color:#f6b91d"
         offset="0.5"
         id="stop10" />
      <stop
         style="stop-color:#d3641c"
         offset="0.7"
         id="stop12" />
      <stop
         style="stop-color:#bf331c"
         offset="1"
         id="stop14" />
    </linearGradient>
    <linearGradient
       id="SVGID_2_"
       gradientUnits="userSpaceOnUse"
       x1="22.654"
       y1="466.59"
       x2="22.654"
       y2="511.6"
       gradientTransform="matrix(10,0,0,-10,-83.599,5147.4)">
      <stop
         style="stop-color:#bf331c"
         offset="0"
         id="stop19" />
      <stop
         style="stop-color:#d3641c"
         offset="0.3"
         id="stop21" />
      <stop
         style="stop-color:#f6b91d"
         offset="0.5"
         id="stop23" />
      <stop
         style="stop-color:#d3641c"
         offset="0.7"
         id="stop25" />
      <stop
         style="stop-color:#bf331c"
         offset="1"
         id="stop27" />
    </linearGradient>
  </defs>
  <sodipodi:namedview
     id="namedview35"
     pagecolor="#ffffff"
     bordercolor="#666666"
     borderopacity="1.0"
     inkscape:pageshadow="2"
     inkscape:pageopacity="0.0"
     inkscape:pagecheckerboard="0"
     showgrid="false"
     inkscape:zoom="15.64"
     inkscape:cx="31.682"
     inkscape:cy="24.68"
     inkscape:window-width="1920"
     inkscape:window-height="986"
     inkscape:window-x="-11"
     inkscape:window-y="-11"
     inkscape:window-maximized="1"
     inkscape:current-layer="Layer_1" />
  <path
     d="m 361.31,0 c 59.29,107.28 50.14,178.18 30.11,206.68 L 351.05,105.73 C 332.1,60.95 330.12,63.49 319.34,63.49 h -17.97 c 23.54,126.28 18.17,213.01 1.07,314.33 l 121.1,-78.64 c -11.14,46.25 -49.81,86.07 -117.52,81.65 v 118.28 c 157.61,10.02 292.72,-162.01 216.39,-339.9 14.7,-28.08 52.83,-18.54 111.37,1.73 C 600.25,62.45 489.5,12.79 361.31,0 Z"
     id="path2"
     style="stroke-width:10" />
  <path
     d="M 7.54,14.53 0,232.06 100.74,127.37 C 2.54,229.34 41.14,502.6 284.51,499.99 V 380.88 C 164.64,388 136.47,255.83 191.64,197.06 v 0.31 l 52.75,41.21 V 82.4 L 166.31,14.53 Z"
     id="path4"
     style="stroke-width:10" />
  <path
     fill="url(#SVGID_1_)"
     d="m 391.78,21.92 c 40.14,86.64 49.1,170.54 -5.3,215.89 L 322,83.64 c 16.86,88.31 15.04,180.92 4.67,255.75 l 126.59,-82.8 c -11.59,74.53 -48.19,139.55 -130.5,141.85 v 82.81 c 165.86,0.69 247.81,-193.38 181.29,-319.95 9.13,-38.88 50.09,-42.28 93.49,-31.28 C 563.53,70.41 474.13,34.08 391.78,21.92 Z"
     id="path17"
     style="fill:url(#SVGID_1_);stroke-width:10" />
  <path
     fill="url(#SVGID_2_)"
     d="m 23.18,31.36 -4.77,156.26 75.74,-80.09 h 7.82 l 22.23,17.08 C 17.66,238.63 62.43,468.86 267.49,481.52 v -82.8 C 158.32,397.54 101.65,253.97 189.55,174.8 l 37.87,29.09 V 89.03 l -67.2,-57.67 z"
     id="path30"
     style="fill:url(#SVGID_2_);stroke-width:10" />
</svg>
