<?xml version="1.0" encoding="UTF-8" standalone="no"?>
<svg
   version="1.1"
   id="Layer_1"
   x="0px"
   y="0px"
   width="633.77"
   height="500"
   sodipodi:docname="T.svg"
   inkscape:version="1.1.1 (3bf5ae0d25, 2021-09-20)"
   xmlns:inkscape="http://www.inkscape.org/namespaces/inkscape"
   xmlns:sodipodi="http://sodipodi.sourceforge.net/DTD/sodipodi-0.dtd"
   xmlns="http://www.w3.org/2000/svg"
   xmlns:svg="http://www.w3.org/2000/svg">
  <defs
     id="defs37">
    <linearGradient
       id="SVGID_1_"
       gradientUnits="userSpaceOnUse"
       x1="45.977"
       y1="2.168"
       x2="45.977"
       y2="48.1"
       gradientTransform="matrix(9.9998,0,0,9.9998,0,0.24)">
      <stop
         style="stop-color:#612c75"
         offset="0"
         id="stop6" />
      <stop
         style="stop-color:#7b5190"
         offset="0.3"
         id="stop8" />
      <stop
         style="stop-color:#bf99c3"
         offset="0.5"
         id="stop10" />
      <stop
         style="stop-color:#7b5190"
         offset="0.7"
         id="stop12" />
      <stop
         style="stop-color:#612c75"
         offset="1"
         id="stop14" />
    </linearGradient>
    <linearGradient
       id="SVGID_2_"
       gradientUnits="userSpaceOnUse"
       x1="22.654"
       y1="466.93"
       x2="22.654"
       y2="511.94"
       gradientTransform="matrix(9.9998,0,0,-9.9998,-83.597,5150.6)">
      <stop
         style="stop-color:#612c75"
         offset="0"
         id="stop19" />
      <stop
         style="stop-color:#7b5190"
         offset="0.3"
         id="stop21" />
      <stop
         style="stop-color:#bf99c3"
         offset="0.5"
         id="stop23" />
      <stop
         style="stop-color:#7b5190"
         offset="0.7"
         id="stop25" />
      <stop
         style="stop-color:#612c75"
         offset="1"
         id="stop27" />
    </linearGradient>
  </defs>
  <sodipodi:namedview
     id="namedview35"
     pagecolor="#ffffff"
     bordercolor="#666666"
     borderopacity="1.0"
     inkscape:pageshadow="2"
     inkscape:pageopacity="0.0"
     inkscape:pagecheckerboard="0"
     showgrid="false"
     inkscape:zoom="15.64"
     inkscape:cx="31.682"
     inkscape:cy="25"
     inkscape:window-width="1920"
     inkscape:window-height="986"
     inkscape:window-x="-11"
     inkscape:window-y="-11"
     inkscape:window-maximized="1"
     inkscape:current-layer="Layer_1" />
  <path
     fill="#ffffff"
     d="m 361.3,0 c 59.29,107.26 50.14,178.16 30.11,206.67 L 351.04,105.73 C 332.09,60.959 330.11,63.499 319.33,63.499 H 301.36 C 324.9,189.76 319.53,276.5 302.43,377.82 l 121.1,-78.65 c -11.14,46.25 -49.81,86.08 -117.52,81.66 V 499.11 C 463.62,509.13 598.73,337.1 522.4,159.21 537.1,131.13 575.23,140.67 633.77,160.94 600.24,62.449 489.49,12.79 361.3,0 Z"
     id="path2"
     style="stroke-width:9.99983" />
  <path
     fill="#ffffff"
     d="M 7.5399,14.53 0,232.06 100.74,127.37 C 2.54,229.32 41.139,502.58 284.51,499.98 V 380.88 C 164.64,387.99 136.47,255.83 191.64,197.06 v 0.3 l 52.75,41.21 V 82.399 L 166.31,14.53 Z"
     id="path4"
     style="stroke-width:9.99983" />
  <path
     fill="url(#SVGID_1_)"
     d="m 391.77,21.92 c 40.14,86.63 49.1,170.53 -5.3,215.87 L 321.99,83.639 c 16.86,88.301 15.04,180.901 4.67,255.741 l 126.59,-82.8 c -11.59,74.53 -48.19,139.55 -130.5,141.85 v 82.8 C 488.61,481.93 570.56,287.85 504.04,161.28 513.17,122.4 554.13,119 597.53,130 563.52,70.419 474.12,34.079 391.77,21.92 Z"
     id="path17"
     style="fill:url(#SVGID_1_);stroke-width:9.99983" />
  <path
     fill="url(#SVGID_2_)"
     d="M 23.18,31.359 18.41,187.61 94.148,107.52 h 7.822 L 124.2,124.6 C 17.66,238.62 62.429,468.84 267.49,481.51 v -82.8 C 158.32,397.52 101.65,253.96 189.55,174.78 l 37.87,29.09 V 89.028 l -67.2,-57.669 z"
     id="path30"
     style="fill:url(#SVGID_2_);stroke-width:9.99983" />
</svg>
