<?xml version="1.0" encoding="utf-8"?>
<!-- Generator: Adobe Illustrator 15.1.0, SVG Export Plug-In . SVG Version: 6.00 Build 0)  -->
<!DOCTYPE svg PUBLIC "-//W3C//DTD SVG 1.1//EN" "http://www.w3.org/Graphics/SVG/1.1/DTD/svg11.dtd">
<svg version="1.1" id="Layer_1" xmlns="http://www.w3.org/2000/svg" xmlns:xlink="http://www.w3.org/1999/xlink" x="0px" y="0px"
	 width="150px" height="149px" viewBox="0 0 150 149" enable-background="new 0 0 150 149" xml:space="preserve">
<g>
	<g>
		<path fill="#010101" d="M147.42,74.509c-1.458-9.059-3.324-18.075-3.605-19.083c-0.282-1.006-0.751-1.441-1.383-1.646
			c-0.63-0.207-1.554-0.047-1.942,0.611c-0.387,0.658-6.469,10.928-6.469,10.928l-15.343-9.334l6.869-16.431
			c0,0,10.957,4.733,11.657,5.039c0.701,0.305,1.539-0.111,1.931-0.647c0.39-0.536,0.513-1.165,0.149-2.146
			c-0.365-0.98-4.156-9.371-8.3-17.556c-4.145-8.186-9.612-17.795-9.612-17.795s-10.83-2.229-19.895-3.643
			C92.41,1.391,83.259,0.379,82.215,0.336c-1.046-0.042-1.604,0.268-1.995,0.804c-0.39,0.538-0.524,1.465-0.018,2.036
			c0.505,0.573,8.394,9.53,8.394,9.53L75.102,24.306L61.609,12.707c0,0,7.888-8.958,8.394-9.53c0.507-0.571,0.371-1.499-0.019-2.036
			c-0.39-0.536-0.949-0.847-1.992-0.804c-1.046,0.042-10.198,1.055-19.264,2.468c-9.067,1.414-19.895,3.643-19.895,3.643
			s-5.468,9.609-9.612,17.795c-4.145,8.186-7.937,16.576-8.3,17.556c-0.363,0.981-0.24,1.61,0.15,2.146
			c0.391,0.536,1.23,0.952,1.931,0.647c0.7-0.306,11.657-5.039,11.657-5.039l6.867,16.431l-15.341,9.334
			c0,0-6.082-10.27-6.469-10.928c-0.388-0.658-1.311-0.817-1.942-0.611c-0.631,0.205-1.1,0.64-1.381,1.646
			C6.108,56.434,4.243,65.45,2.785,74.509c-1.458,9.059-2.683,20.047-2.683,20.047s7.45,8.169,13.955,14.641
			c6.504,6.472,13.313,12.671,14.133,13.32c0.82,0.648,1.455,0.725,2.086,0.52c0.63-0.205,1.285-0.874,1.212-1.636
			c-0.073-0.761-1.188-12.644-1.188-12.644l18.154-1.486l4.144,17.506c0,0-11.646,2.61-12.392,2.776
			c-0.746,0.165-1.181,0.994-1.181,1.658c0,0.663,0.269,1.243,1.14,1.823c0.87,0.58,8.87,5.141,17.036,9.325
			c8.164,4.188,18.236,8.747,18.234,8.747c0,0,10.072-4.56,18.237-8.747c8.165-4.185,16.163-8.745,17.035-9.325
			c0.87-0.58,1.138-1.16,1.138-1.823c0-0.664-0.434-1.493-1.181-1.658c-0.745-0.166-12.393-2.776-12.393-2.776l4.133-17.453
			l17.503,1.434c0,0-1.114,11.883-1.188,12.644c-0.073,0.762,0.581,1.431,1.211,1.636c0.632,0.205,1.266,0.129,2.086-0.52
			c0.82-0.649,7.629-6.849,14.133-13.32c6.506-6.472,13.954-14.641,13.954-14.641S148.877,83.567,147.42,74.509z"/>
	</g>
	<radialGradient id="SVGID_1_" cx="75.1025" cy="74.917" r="68.9943" gradientUnits="userSpaceOnUse">
		<stop  offset="0" style="stop-color:#F79820"/>
		<stop  offset="0.65" style="stop-color:#E07826"/>
		<stop  offset="0.7257" style="stop-color:#DE7526"/>
		<stop  offset="0.8042" style="stop-color:#D76A27"/>
		<stop  offset="0.8839" style="stop-color:#CD5827"/>
		<stop  offset="0.964" style="stop-color:#C13E27"/>
		<stop  offset="1" style="stop-color:#BB2F27"/>
	</radialGradient>
	<path fill="url(#SVGID_1_)" d="M142.264,75.339c-0.608-3.782-1.273-7.471-1.859-10.553c-0.894,1.51-3.524,5.95-4.339,7.327
		l-18.439,4.765L95.604,63.483l9.884-23.644l17.718-6.986l7.817,3.378c-1.339-2.837-2.968-6.212-4.699-9.63
		c-2.924-5.776-6.498-12.236-8.329-15.507c-3.677-0.731-10.926-2.133-17.323-3.13c-3.785-0.589-7.497-1.097-10.608-1.493
		c1.158,1.317,4.568,5.19,5.628,6.393l-1.168,19.009L75.102,48.568L55.681,31.873l-1.167-19.009
		c1.059-1.203,4.469-5.076,5.629-6.393c-3.111,0.396-6.826,0.904-10.612,1.493c-6.396,0.998-13.645,2.399-17.322,3.13
		c-1.833,3.271-5.405,9.731-8.33,15.507c-1.73,3.417-3.361,6.792-4.699,9.63l7.818-3.378l17.718,6.986l9.883,23.644l-22.02,13.396
		L14.14,72.114c-0.816-1.377-3.445-5.817-4.34-7.327c-0.586,3.082-1.25,6.771-1.859,10.553C6.913,81.73,6.006,89.058,5.564,92.78
		c2.545,2.754,7.585,8.148,12.175,12.715c2.716,2.701,5.421,5.295,7.707,7.444l-0.797-8.479l12.118-14.692l25.945-2.126
		l5.946,25.113l-10.229,16.065l-8.311,1.861c2.75,1.511,6.052,3.283,9.462,5.03c5.76,2.953,12.448,6.079,15.854,7.65
		c3.404-1.571,10.091-4.697,15.854-7.65c3.407-1.747,6.71-3.52,9.46-5.03c-1.711-0.382-6.747-1.512-8.309-1.861l-10.23-16.065
		l5.933-25.061l25.295,2.073l12.119,14.692l-0.797,8.479c2.286-2.149,4.99-4.743,7.706-7.444c4.59-4.566,9.63-9.961,12.176-12.715
		C144.198,89.058,143.292,81.73,142.264,75.339z M58.666,93.214l4.402,18.598l-5.958,9.358l-4.61-19.472l-20.167,1.652l7.059-8.56
		L58.666,93.214z M117.871,103.351l-19.517-1.6l-4.597,19.419l-5.959-9.358l4.392-18.545l18.621,1.524L117.871,103.351z
		 M129.195,68.496l-10.74,2.774l-16.301-9.917l7.301-17.465l10.32-4.069l-7.646,18.294L129.195,68.496z M31.749,71.27l-10.74-2.774
		l17.065-10.383l-7.646-18.294l10.321,4.069l7.299,17.467L31.749,71.27z M60.078,18.278l15.023,12.916l15.023-12.916l-0.68,11.073
		L75.102,41.682L60.758,29.351L60.078,18.278z"/>
</g>
</svg>
