<?xml version="1.0" encoding="utf-8"?>
<!-- Generator: Adobe Illustrator 15.1.0, SVG Export Plug-In . SVG Version: 6.00 Build 0)  -->
<!DOCTYPE svg PUBLIC "-//W3C//DTD SVG 1.1//EN" "http://www.w3.org/Graphics/SVG/1.1/DTD/svg11.dtd">
<svg version="1.1" id="Layer_1" xmlns="http://www.w3.org/2000/svg" xmlns:xlink="http://www.w3.org/1999/xlink" x="0px" y="0px"
	 width="150px" height="149px" viewBox="0 0 150 149" enable-background="new 0 0 150 149" xml:space="preserve">
<g>
	<g>
		<path fill="#010101" d="M148.086,74.509c-1.459-9.059-3.323-18.075-3.605-19.083c-0.281-1.006-0.75-1.441-1.382-1.646
			c-0.632-0.207-1.554-0.047-1.942,0.611s-6.471,10.928-6.471,10.928l-15.341-9.334l6.868-16.431c0,0,10.957,4.733,11.658,5.039
			c0.699,0.305,1.537-0.111,1.93-0.647c0.391-0.536,0.514-1.165,0.15-2.146c-0.365-0.98-4.156-9.371-8.301-17.556
			s-9.611-17.795-9.611-17.795s-10.83-2.229-19.896-3.643c-9.065-1.414-18.217-2.426-19.262-2.468s-1.604,0.268-1.994,0.804
			c-0.391,0.538-0.525,1.465-0.02,2.036c0.508,0.573,8.395,9.53,8.395,9.53L75.769,24.306L62.275,12.707c0,0,7.887-8.958,8.394-9.53
			c0.507-0.571,0.371-1.499-0.02-2.036c-0.39-0.536-0.949-0.847-1.993-0.804c-1.046,0.042-10.198,1.055-19.263,2.468
			c-9.067,1.414-19.895,3.643-19.895,3.643s-5.468,9.609-9.612,17.795s-7.937,16.576-8.3,17.556c-0.363,0.981-0.24,1.61,0.15,2.146
			c0.391,0.536,1.23,0.952,1.931,0.647c0.7-0.306,11.657-5.039,11.657-5.039l6.867,16.431l-15.341,9.334
			c0,0-6.082-10.27-6.47-10.928S9.07,53.573,8.438,53.78c-0.631,0.205-1.1,0.64-1.381,1.646C6.774,56.434,4.91,65.45,3.451,74.509
			c-1.457,9.059-2.683,20.047-2.683,20.047s7.449,8.169,13.954,14.641c6.504,6.472,13.313,12.671,14.133,13.32
			c0.82,0.648,1.455,0.725,2.086,0.52s1.285-0.874,1.212-1.636c-0.073-0.761-1.188-12.644-1.188-12.644l18.154-1.486l4.144,17.506
			c0,0-11.646,2.61-12.392,2.776c-0.747,0.165-1.182,0.994-1.182,1.658c0,0.663,0.269,1.243,1.14,1.823
			c0.87,0.58,8.87,5.141,17.035,9.325c8.165,4.187,18.238,8.747,18.236,8.747c0,0,10.07-4.561,18.236-8.747
			c8.164-4.185,16.164-8.745,17.035-9.325s1.139-1.16,1.139-1.823c0-0.664-0.436-1.493-1.181-1.658
			c-0.745-0.166-12.393-2.776-12.393-2.776l4.132-17.453l17.504,1.434c0,0-1.115,11.883-1.188,12.644
			c-0.074,0.762,0.58,1.431,1.211,1.636s1.266,0.129,2.086-0.52c0.82-0.649,7.629-6.849,14.133-13.32
			c6.506-6.472,13.954-14.641,13.954-14.641S149.543,83.567,148.086,74.509z"/>
	</g>
	<radialGradient id="SVGID_1_" cx="75.7686" cy="74.917" r="68.9939" gradientUnits="userSpaceOnUse">
		<stop  offset="0" style="stop-color:#B7D1E1"/>
		<stop  offset="0.65" style="stop-color:#A0B7C2"/>
		<stop  offset="0.7293" style="stop-color:#9BB1BD"/>
		<stop  offset="0.8114" style="stop-color:#90A3AE"/>
		<stop  offset="0.8949" style="stop-color:#7E8E99"/>
		<stop  offset="0.9787" style="stop-color:#69767F"/>
		<stop  offset="1" style="stop-color:#626F78"/>
	</radialGradient>
	<path fill="url(#SVGID_1_)" d="M142.93,75.34c-0.609-3.783-1.273-7.471-1.859-10.553c-0.895,1.51-3.523,5.95-4.34,7.327
		l-18.439,4.765l-22.02-13.396l9.883-23.644l17.719-6.986l7.817,3.378c-1.339-2.837-2.97-6.212-4.699-9.63
		c-2.925-5.776-6.498-12.236-8.331-15.507c-3.676-0.731-10.924-2.133-17.321-3.13c-3.785-0.589-7.499-1.097-10.61-1.493
		c1.16,1.317,4.57,5.19,5.629,6.393l-1.166,19.009L75.769,48.568L56.347,31.873L55.18,12.864c1.058-1.203,4.468-5.076,5.628-6.393
		c-3.111,0.396-6.825,0.904-10.611,1.493c-6.396,0.998-13.645,2.399-17.321,3.13c-1.833,3.271-5.405,9.731-8.33,15.507
		c-1.73,3.417-3.361,6.792-4.699,9.63l7.818-3.378l17.718,6.986l9.882,23.644l-22.02,13.396l-18.439-4.765
		c-0.816-1.377-3.445-5.817-4.339-7.327c-0.586,3.082-1.25,6.771-1.859,10.553C7.579,81.73,6.673,89.058,6.231,92.78
		c2.545,2.754,7.585,8.148,12.175,12.715c2.716,2.701,5.42,5.295,7.706,7.444l-0.797-8.479l12.118-14.692l25.945-2.126l5.945,25.113
		l-10.23,16.065l-8.31,1.861c2.75,1.511,6.053,3.283,9.461,5.03c5.761,2.953,12.45,6.079,15.856,7.649
		c3.404-1.57,10.091-4.696,15.852-7.649c3.409-1.747,6.713-3.52,9.462-5.03c-1.712-0.382-6.749-1.512-8.31-1.861l-10.229-16.065
		l5.931-25.061l25.297,2.073l12.119,14.692l-0.797,8.479c2.285-2.149,4.988-4.743,7.705-7.444c4.59-4.566,9.629-9.961,12.176-12.715
		C144.863,89.058,143.959,81.73,142.93,75.34z M59.332,93.214l4.403,18.598l-5.958,9.358l-4.609-19.472L33,103.351l7.059-8.56
		L59.332,93.214z M118.537,103.351l-19.518-1.6l-4.596,19.419l-5.958-9.358l4.39-18.545l18.623,1.524L118.537,103.351z
		 M129.861,68.496l-10.74,2.774l-16.301-9.917l7.301-17.465l10.32-4.069l-7.646,18.294L129.861,68.496z M32.416,71.27l-10.74-2.774
		l17.065-10.383l-7.646-18.294l10.321,4.069l7.299,17.467L32.416,71.27z M60.744,18.278l15.024,12.916l15.023-12.916l-0.681,11.073
		L75.769,41.682L61.425,29.351L60.744,18.278z"/>
</g>
</svg>
