<?xml version="1.0" encoding="utf-8"?>
<!-- Generator: Adobe Illustrator 15.1.0, SVG Export Plug-In . SVG Version: 6.00 Build 0)  -->
<!DOCTYPE svg PUBLIC "-//W3C//DTD SVG 1.1//EN" "http://www.w3.org/Graphics/SVG/1.1/DTD/svg11.dtd">
<svg version="1.1" id="Layer_1" xmlns="http://www.w3.org/2000/svg" xmlns:xlink="http://www.w3.org/1999/xlink" x="0px" y="0px"
	 width="150px" height="149px" viewBox="0 0 150 149" enable-background="new 0 0 150 149" xml:space="preserve">
<g>
	<path fill="#010101" d="M148.039,75.307c-0.656-4.079-1.373-8.057-2.005-11.381c-0.964,1.629-3.802,6.417-4.68,7.903l-19.889,5.14
		L97.715,62.519l10.66-25.501l19.109-7.535l8.432,3.644c-1.444-3.061-3.201-6.701-5.068-10.386
		c-3.153-6.23-7.009-13.197-8.983-16.725c-3.966-0.789-11.784-2.3-18.684-3.376c-4.083-0.635-8.087-1.183-11.442-1.61
		c1.25,1.42,4.928,5.598,6.07,6.895l-1.26,20.502L75.602,46.433L54.655,28.426L53.396,7.924c1.141-1.297,4.819-5.475,6.07-6.895
		c-3.355,0.427-7.361,0.975-11.444,1.61C41.124,3.715,33.306,5.227,29.34,6.015c-1.977,3.528-5.83,10.495-8.984,16.725
		c-1.866,3.686-3.625,7.326-5.068,10.386l8.432-3.644l19.11,7.535l10.659,25.501L29.739,76.968l-19.888-5.14
		c-0.88-1.485-3.716-6.274-4.681-7.903c-0.632,3.324-1.349,7.302-2.005,11.381C2.056,82.2,1.079,90.103,0.602,94.117
		c2.745,2.971,8.182,8.789,13.131,13.714c2.929,2.913,5.847,5.711,8.312,8.029l-0.859-9.145l13.07-15.847l27.983-2.293l6.412,27.086
		l-11.034,17.327l-8.962,2.008c2.966,1.629,6.528,3.541,10.205,5.426c6.214,3.186,13.428,6.557,17.1,8.25
		c3.672-1.693,10.884-5.064,17.1-8.25c3.675-1.885,7.237-3.797,10.203-5.426c-1.846-0.412-7.277-1.63-8.962-2.008l-11.034-17.327
		l6.399-27.028l27.281,2.235l13.071,15.847l-0.86,9.145c2.467-2.318,5.383-5.116,8.313-8.029
		c4.95-4.925,10.387-10.743,13.132-13.714C150.126,90.103,149.147,82.2,148.039,75.307z M57.874,94.585l4.748,20.059l-6.426,10.094
		l-4.971-21.002l-21.75,1.782l7.613-9.231L57.874,94.585z M121.729,105.518l-21.049-1.725l-4.958,20.944l-6.427-10.094l4.736-20.002
		l20.084,1.645L121.729,105.518z M133.944,67.925l-11.584,2.993l-17.581-10.696l7.874-18.837l11.131-4.389l-8.246,19.731
		L133.944,67.925z M28.844,70.918L17.26,67.925l18.406-11.198l-8.247-19.731l11.132,4.389l7.873,18.839L28.844,70.918z
		 M59.397,13.763l16.205,13.93l16.203-13.93l-0.733,11.942l-15.469,13.3l-15.471-13.3L59.397,13.763z"/>
</g>
</svg>
