<?xml version="1.0" encoding="UTF-8" standalone="no"?>
<svg xmlns="http://www.w3.org/2000/svg" version="1.1" id="Layer_1" x="0px" y="0px" width="58.786999" height="50.000313" viewBox="0 0 58.787 50.000313">
  <g transform="rotate(-90,25.000157,25.000157)">
    <g transform="rotate(90,25.000157,25.000157)">
      <path style="fill:#808080" d="M 41.088,0 H 17.596 l -0.114,0.015 c -1.586,0.168 -3.78,1.313 -4.513,3.712 -1.993,0.558 -9.5,2.649 -9.5,2.649 L 3.375,6.411 C 2.083,6.907 0,8.577 0,11.634 c 0,0.548 0.066,1.141 0.217,1.777 l 8.963,33.456 0.247,0.329 c 1.012,1.351 3.48,3.426 6.296,2.621 0,0 12.636,-3.476 13.679,-3.761 1.04,0.285 13.691,3.766 13.691,3.766 2.798,0.8 5.264,-1.273 6.278,-2.626 l 0.247,-0.329 8.946,-33.395 c 0.153,-0.653 0.223,-1.261 0.223,-1.821 0,-3.08 -2.075,-4.745 -3.364,-5.24 L 55.328,6.376 c 0,0 -7.507,-2.092 -9.5,-2.649 C 45.096,1.328 42.899,0.183 41.313,0.011 L 41.202,0 Z"/>
      <path d="m 17.708,2.13 c 0,0 -2.879,0.309 -2.879,3.289 L 4.14,8.4 c 0,0 -2.673,1.027 -1.85,4.521 l 8.84,32.997 c 0,0 1.85,2.468 4.009,1.853 L 29.4,43.847 43.66,47.771 c 2.157,0.615 4.009,-1.853 4.009,-1.853 L 56.51,12.921 C 57.331,9.428 54.66,8.4 54.66,8.4 L 43.968,5.419 c 0,-2.98 -2.88,-3.289 -2.88,-3.289 z"/>
      <path style="fill:#808080" d="m 17.803,3.363 c -0.136,0.024 -0.548,0.114 -0.935,0.374 -0.551,0.369 -0.807,0.902 -0.807,1.682 v 0.938 c 0,0 -11.345,3.164 -11.507,3.208 -0.296,0.139 -1.188,0.674 -1.188,2.095 0,0.288 0.035,0.61 0.122,0.975 0.016,0.059 8.622,32.185 8.762,32.702 0.38,0.428 1.496,1.547 2.549,1.248 l 14.602,-4.019 14.597,4.019 c 1.054,0.299 2.168,-0.82 2.549,-1.248 0.14,-0.518 8.747,-32.644 8.763,-32.702 0.084,-0.364 0.121,-0.687 0.121,-0.975 0,-1.421 -0.892,-1.956 -1.187,-2.095 C 54.081,9.521 42.733,6.357 42.733,6.357 V 5.419 C 42.733,4.64 42.477,4.106 41.931,3.737 41.542,3.477 41.13,3.387 40.993,3.363 Z"/>
      <path d="m 17.939,4.906 h 22.957 c 0.48,0 0.547,0.614 0.547,0.614 v 34.129 c 0,0.549 -0.547,0.685 -0.547,0.685 H 17.939 c -0.479,0 -0.479,-0.685 -0.479,-0.685 V 5.521 C 17.459,5.111 17.939,4.906 17.939,4.906 M 5.398,10.868 C 4.576,11.142 4.92,12.17 4.92,12.17 l 8.769,32.551 c 0.345,0.751 1.029,0.41 1.029,0.41 l 11.924,-3.288 h -8.907 c -1.646,0 -1.919,-2.058 -1.919,-2.058 V 8.056 Z M 42.983,7.987 v 31.729 c 0,0 -0.274,2.056 -1.919,2.056 h -8.907 l 11.922,3.29 c 0,0 0.686,0.345 1.028,-0.41 l 8.772,-32.554 c 0,0 0.343,-1.027 -0.481,-1.299 z"/>
      <path style="fill:#808080" d="M 36.855,34.682 H 20.363 v -0.39 c 5.058,-5.131 8.127,-8.584 9.208,-10.357 1.081,-1.773 1.62,-3.505 1.62,-5.197 0,-1.233 -0.445,-2.258 -1.344,-3.074 -0.894,-0.815 -1.99,-1.224 -3.284,-1.224 -2.121,0 -3.767,0.903 -4.94,2.714 l -0.764,-0.23 c 0.743,-2.256 1.874,-3.923 3.39,-5.004 1.514,-1.08 3.265,-1.619 5.247,-1.619 1.422,0 2.717,0.28 3.888,0.844 1.172,0.564 2.088,1.336 2.747,2.316 0.661,0.983 0.993,1.9 0.993,2.757 0,1.563 -0.509,3.149 -1.53,4.759 -1.39,2.172 -4.429,5.202 -9.113,9.091 h 6.057 c 1.486,0 2.456,-0.053 2.902,-0.159 0.448,-0.106 0.815,-0.284 1.106,-0.536 0.288,-0.254 0.667,-0.786 1.135,-1.595 h 0.745 z"/>
    </g>
  </g>
</svg>
