<?xml version="1.0" encoding="utf-8"?>
<svg xmlns="http://www.w3.org/2000/svg" xmlns:xlink="http://www.w3.org/1999/xlink" version="1.1" id="Layer_1" x="0px" y="0px" width="58.788px" height="50.001px">
  <path fill="#FFFFFF" d="M41.089,0H17.595l-0.112,0.015c-1.584,0.168-3.78,1.313-4.513,3.712c-1.993,0.558-9.499,2.649-9.499,2.649  L3.376,6.411C2.084,6.907,0,8.577,0,11.634c0,0.548,0.068,1.141,0.217,1.777L9.18,46.867l0.246,0.329  c1.014,1.351,3.481,3.426,6.298,2.621c0,0,12.636-3.476,13.679-3.761c1.041,0.285,13.691,3.766,13.691,3.766  c2.798,0.8,5.264-1.273,6.278-2.626l0.247-0.329l8.946-33.395c0.153-0.653,0.223-1.261,0.223-1.821c0-3.08-2.075-4.745-3.364-5.24  l-0.095-0.035c0,0-7.507-2.092-9.5-2.649c-0.732-2.399-2.929-3.544-4.514-3.716L41.203,0H41.089z"/>
  <path fill="url(#SVGID_8_)" d="M17.71,2.13c0,0-2.879,0.309-2.879,3.289L4.141,8.4c0,0-2.674,1.027-1.852,4.521l8.841,32.997  c0,0,1.851,2.468,4.009,1.853l14.264-3.924l14.258,3.924c2.157,0.615,4.009-1.853,4.009-1.853l8.841-32.997  C57.331,9.428,54.661,8.4,54.661,8.4L43.969,5.419c0-2.98-2.88-3.289-2.88-3.289H17.71z"/>
  <path fill="#FFFFFF" d="M17.804,3.363c-0.136,0.024-0.548,0.114-0.937,0.374c-0.549,0.369-0.803,0.902-0.803,1.682v0.938  c0,0-11.346,3.164-11.51,3.208c-0.296,0.139-1.188,0.674-1.188,2.095c0,0.288,0.038,0.61,0.123,0.975  c0.016,0.059,8.621,32.185,8.761,32.702c0.381,0.428,1.496,1.547,2.549,1.248l14.603-4.019l14.597,4.019  c1.054,0.299,2.168-0.82,2.549-1.248c0.14-0.518,8.747-32.644,8.763-32.702c0.084-0.364,0.122-0.687,0.122-0.975  c0-1.421-0.893-1.956-1.188-2.095c-0.162-0.044-11.511-3.208-11.511-3.208V5.419c0-0.779-0.256-1.313-0.802-1.682  c-0.388-0.26-0.801-0.35-0.938-0.374H17.804z"/>
  <path fill="url(#SVGID_8_)" d="M17.939,4.906h22.957c0.48,0,0.547,0.614,0.547,0.614v34.129c0,0.549-0.547,0.685-0.547,0.685H17.939  c-0.479,0-0.479-0.685-0.479-0.685V5.521C17.461,5.111,17.939,4.906,17.939,4.906 M5.397,10.868  c-0.821,0.273-0.479,1.302-0.479,1.302l8.77,32.551c0.345,0.751,1.03,0.41,1.03,0.41l11.925-3.288h-8.909  c-1.646,0-1.919-2.058-1.919-2.058V8.056L5.397,10.868z M42.983,7.987v31.729c0,0-0.274,2.056-1.919,2.056h-8.907l11.922,3.29  c0,0,0.686,0.345,1.028-0.41l8.772-32.554c0,0,0.343-1.027-0.48-1.299L42.983,7.987z"/>
  <radialGradient id="SVGID_8_" cx="-50.3105" cy="117.9463" r="1.2497" gradientTransform="matrix(17.5713 0 0 -17.5713 913.412 2097.533)" gradientUnits="userSpaceOnUse">
    <stop style="stop-color:#bf99c3" offset="0"/>
    <stop style="stop-color:#7b5190" offset="0.7"/>
    <stop style="stop-color:#612c75" offset="1"/>
  </radialGradient>
  <path fill="#612c75" d="M36.855,34.682H20.363v-0.39c5.057-5.131,8.126-8.584,9.208-10.357c1.081-1.773,1.62-3.505,1.62-5.197  c0-1.233-0.445-2.258-1.344-3.074c-0.893-0.815-1.988-1.224-3.285-1.224c-2.121,0-3.768,0.903-4.939,2.714l-0.764-0.23  c0.744-2.256,1.875-3.923,3.389-5.004c1.517-1.08,3.265-1.619,5.249-1.619c1.421,0,2.716,0.28,3.887,0.844  c1.172,0.564,2.088,1.336,2.747,2.316c0.661,0.983,0.993,1.9,0.993,2.757c0,1.563-0.509,3.149-1.53,4.759  c-1.39,2.172-4.429,5.202-9.114,9.091h6.058c1.486,0,2.456-0.053,2.902-0.159c0.448-0.106,0.815-0.284,1.106-0.536  c0.288-0.254,0.668-0.786,1.135-1.595h0.745L36.855,34.682z"/>
  <path fill="#ffffff" d="M36.455,34.181H21.177c4.856-4.948,7.743-8.216,8.823-9.984c1.121-1.846,1.689-3.683,1.689-5.46  c0-1.378-0.508-2.534-1.506-3.442c-0.984-0.898-2.202-1.354-3.62-1.354c-2.052,0-3.717,0.793-4.95,2.364  c0.702-1.755,1.684-3.09,2.927-3.979c1.42-1.013,3.085-1.527,4.957-1.527c1.336,0,2.571,0.267,3.668,0.795  c1.088,0.524,1.945,1.245,2.551,2.146c0.603,0.893,0.908,1.727,0.908,2.479c0,1.459-0.488,2.973-1.452,4.491  c-1.355,2.115-4.388,5.136-9.01,8.97l-1.065,0.886h1.386h6.055c1.545,0,2.534-0.056,3.018-0.17c0.521-0.125,0.964-0.341,1.318-0.643  c0.244-0.215,0.515-0.559,0.831-1.05L36.455,34.181z"/>
</svg>
