<?xml version="1.0" encoding="UTF-8" standalone="no"?>
<svg xmlns="http://www.w3.org/2000/svg" version="1.1" id="Layer_1" x="0px" y="0px" width="58.786999" height="50.000313" viewBox="0 0 58.787 50.000313">
  <path d="M 17.707031 2.1308594 C 17.707031 2.1308594 14.828125 2.4399219 14.828125 5.4199219 L 4.140625 8.4003906 C 4.140625 8.4003906 1.4660625 9.427875 2.2890625 12.921875 L 11.130859 45.917969 C 11.130859 45.917969 12.979672 48.386484 15.138672 47.771484 L 29.400391 43.847656 L 43.660156 47.771484 C 45.817156 48.386484 47.669922 45.917969 47.669922 45.917969 L 56.509766 12.921875 C 57.330766 9.428875 54.660156 8.4003906 54.660156 8.4003906 L 43.96875 5.4199219 C 43.96875 2.4399219 41.087891 2.1308594 41.087891 2.1308594 L 17.707031 2.1308594 z M 17.802734 3.3632812 L 40.992188 3.3632812 C 41.129187 3.3872812 41.542641 3.4763281 41.931641 3.7363281 C 42.477641 4.1053281 42.732422 4.6409219 42.732422 5.4199219 L 42.732422 6.3574219 C 42.732422 6.3574219 54.081141 9.5204531 54.244141 9.5644531 C 54.539141 9.7034531 55.431641 10.239156 55.431641 11.660156 C 55.431641 11.948156 55.394547 12.270766 55.310547 12.634766 C 55.294547 12.692766 46.686875 44.819891 46.546875 45.337891 C 46.165875 45.765891 45.052047 46.884937 43.998047 46.585938 L 29.400391 42.566406 L 14.798828 46.585938 C 13.745828 46.884937 12.63 45.765891 12.25 45.337891 C 12.11 44.820891 3.5042814 12.693766 3.4882812 12.634766 C 3.4012813 12.269766 3.3652344 11.948156 3.3652344 11.660156 C 3.3652344 10.239156 4.2586875 9.7034531 4.5546875 9.5644531 C 4.7166875 9.5204531 16.060547 6.3574219 16.060547 6.3574219 L 16.060547 5.4199219 C 16.060547 4.6399219 16.316188 4.1053281 16.867188 3.7363281 C 17.254188 3.4763281 17.666734 3.3872814 17.802734 3.3632812 z M 17.939453 4.90625 C 17.939453 4.90625 17.459937 5.1114844 17.460938 5.5214844 L 17.460938 39.648438 C 17.460938 39.648438 17.460453 40.333984 17.939453 40.333984 L 40.896484 40.333984 C 40.896484 40.333984 41.443359 40.197437 41.443359 39.648438 L 41.443359 5.5195312 C 41.443359 5.5195314 41.376484 4.90625 40.896484 4.90625 L 17.939453 4.90625 z M 42.982422 7.9863281 L 42.982422 39.716797 C 42.982422 39.716797 42.709453 41.771484 41.064453 41.771484 L 32.15625 41.771484 L 44.078125 45.0625 C 44.078125 45.0625 44.765422 45.407344 45.107422 44.652344 L 53.878906 12.097656 C 53.878906 12.097656 54.222437 11.070828 53.398438 10.798828 L 42.982422 7.9863281 z M 15.816406 8.0566406 L 5.3984375 10.867188 C 4.5764375 11.141185 4.9199219 12.169922 4.9199219 12.169922 L 13.689453 44.720703 C 14.034453 45.471703 14.71875 45.130859 14.71875 45.130859 L 26.642578 41.84375 L 17.734375 41.84375 C 16.088375 41.84375 15.816406 39.785156 15.816406 39.785156 L 15.816406 8.0566406 z M 29.496094 10.300781 C 30.918094 10.300781 32.213766 10.580531 33.384766 11.144531 C 34.556766 11.708531 35.471859 12.480935 36.130859 13.460938 C 36.791859 14.443936 37.123047 15.36175 37.123047 16.21875 C 37.123047 17.78175 36.61475 19.366563 35.59375 20.976562 C 34.20375 23.148564 31.164469 26.179359 26.480469 30.068359 L 32.537109 30.068359 C 34.023109 30.068359 34.993453 30.014203 35.439453 29.908203 C 35.887453 29.802203 36.255875 29.625047 36.546875 29.373047 C 36.834875 29.119047 37.213641 28.586344 37.681641 27.777344 L 38.425781 27.777344 L 36.855469 34.681641 L 20.363281 34.681641 L 20.363281 34.292969 C 25.421281 29.161969 28.489313 25.708547 29.570312 23.935547 C 30.651312 22.162547 31.191406 20.430281 31.191406 18.738281 C 31.191406 17.505281 30.746656 16.480063 29.847656 15.664062 C 28.953656 14.849064 27.8565 14.439453 26.5625 14.439453 C 24.4415 14.439453 22.796047 15.343297 21.623047 17.154297 L 20.859375 16.923828 C 21.602375 14.667828 22.732047 13.000922 24.248047 11.919922 C 25.762047 10.839922 27.514094 10.300781 29.496094 10.300781 z "/>
</svg>
