<?xml version="1.0" encoding="UTF-8" standalone="no"?>
<svg xmlns="http://www.w3.org/2000/svg" version="1.1" width="600" height="625.39087">
  <path d="m 222.37336,56.67605 c 0,0 -16.05691,134.78737 -18.99625,159.77173 C 180.36273,227.07943 0,310.44403 0,310.44403 c 0,0 180.90994,90.50969 203.14259,101.62601 2.68918,24.29644 23.45216,213.32083 23.45216,213.32083 0,0 136.97623,-143.8868 154.26829,-162.02314 24.48405,5.00313 213.93058,43.85553 213.93058,43.85553 0,0 -91.60413,-171.85741 -103.14259,-193.48029 C 503.56473,292.18261 600,117.63602 600,117.63602 c 0,0 -192.57348,39.02439 -216.995,43.90244 C 365.71295,143.46467 229.15885,0 229.15885,0 l -6.78549,56.67605 z" style="fill:#ffffff"/>
  <path d="M 249.06191,59.91245 373.78049,190.85366 548.38962,155.50344 461.05378,313.49281 544.23077,469.41839 371.70106,434.05253 246.98249,565.05629 228.2364,394.54347 61.929331,311.41338 228.2364,234.52158 249.06191,59.91245 z"/>
</svg>
