<?xml version="1.0" encoding="UTF-8" standalone="no"?>
<svg xmlns="http://www.w3.org/2000/svg" xmlns:xlink="http://www.w3.org/1999/xlink" version="1.1" width="600" height="625.39087">
  <radialGradient cx="0" cy="0" r="1" fx="0" fy="0" id="radialGradient644" gradientUnits="userSpaceOnUse" gradientTransform="matrix(14.769043,0,0,-14.769043,219.67773,146.53125)" spreadMethod="pad">
    <stop style="stop-color:#f6b91d" offset="0"/>
    <stop style="stop-color:#d3641c" offset="0.7"/>
    <stop style="stop-color:#bf331c" offset="1"/>
  </radialGradient>
  <radialGradient cx="0" cy="0" r="1" fx="0" fy="0" id="radialGradient2995" xlink:href="#radialGradient644" gradientUnits="userSpaceOnUse" gradientTransform="matrix(14.769043,0,0,-14.769043,219.67773,146.53125)" spreadMethod="pad"/>
  <radialGradient cx="0" cy="0" r="1" fx="0" fy="0" id="radialGradient2998" xlink:href="#radialGradient644" gradientUnits="userSpaceOnUse" gradientTransform="matrix(230.91062,0,0,230.91062,306.68745,312.39446)" spreadMethod="pad"/>
  <path d="m 222.37336,56.67605 c 0,0 -16.05691,134.78737 -19.05879,159.77173 C 180.36273,227.07943 0,310.44403 0,310.44403 c 0,0 180.97248,90.50969 203.14259,101.62601 2.68918,24.29644 23.45216,213.32083 23.45216,213.32083 0,0 136.97623,-143.8868 154.33083,-162.02314 24.35897,5.00313 213.86804,43.85553 213.86804,43.85553 0,0 -91.60413,-171.85741 -103.14259,-193.48029 C 503.56473,292.18261 600,117.63602 600,117.63602 c 0,0 -192.57348,39.02439 -216.995,43.90244 C 365.77548,143.46467 229.15885,0 229.15885,0 l -6.78549,56.67605 z" style="fill:#ffffff"/>
  <path d="M 249.06191,59.91245 373.78049,190.85366 548.38962,155.50344 461.11632,313.49281 544.23077,469.41839 371.70106,434.05253 246.98249,565.05629 228.29894,394.54347 61.929331,311.41338 228.29894,234.52158 249.06191,59.91245 z" style="fill:#bf331c"/>
  <path d="m 235.99124,235.44403 -0.48467,4.33083 -3.97124,1.82927 -151.516568,70.05941 151.766728,75.84428 3.78362,1.95434 0.42213,4.28393 16.91683,153.72108 113.18011,-118.85554 2.9237,-3.11132 4.28393,0.92245 156.22264,32.00438 -75.37524,-141.27579 -1.95434,-3.78362 2.01688,-3.65854 79.15885,-143.15197 -158.06754,32.00438 -4.20575,0.78174 -2.93934,-3.11132 -113.3521,-118.90244 -18.80863,158.11445 z" style="fill:url(#radialGradient2998)"/>
</svg>
