<?xml version="1.0" encoding="UTF-8" standalone="no"?>
<svg xmlns="http://www.w3.org/2000/svg" xmlns:xlink="http://www.w3.org/1999/xlink" version="1.1" width="600" height="625.42346">
  <radialGradient cx="0" cy="0" r="1" fx="0" fy="0" id="radialGradient628" gradientUnits="userSpaceOnUse" gradientTransform="matrix(14.768326,0,0,-14.768326,135.55322,146.53125)" spreadMethod="pad">
    <stop style="stop-color:#bf99c3" offset="0"/>
    <stop style="stop-color:#7b5190" offset="0.66291797"/>
    <stop style="stop-color:#612c75" offset="1"/>
  </radialGradient>
  <radialGradient cx="0" cy="0" r="1" fx="0" fy="0" id="radialGradient6050" xlink:href="#radialGradient628" gradientUnits="userSpaceOnUse" gradientTransform="matrix(14.768326,0,0,-14.768326,135.55322,146.53125)" spreadMethod="pad"/>
  <radialGradient cx="0" cy="0" r="1" fx="0" fy="0" id="radialGradient2996" xlink:href="#radialGradient628" gradientUnits="userSpaceOnUse" gradientTransform="matrix(14.768326,0,0,-14.768326,135.55322,146.53125)" spreadMethod="pad"/>
  <radialGradient cx="0" cy="0" r="1" fx="0" fy="0" id="radialGradient2999" xlink:href="#radialGradient628" gradientUnits="userSpaceOnUse" gradientTransform="matrix(230.91143,0,0,230.91143,306.69547,312.41074)" spreadMethod="pad"/>
  <path d="m 222.36931,56.679 c 0,0 -16.05774,134.79439 -18.99724,159.78006 C 180.35649,227.09126 0,310.4602 0,310.4602 c 0,0 180.96628,90.51441 203.13754,101.63132 2.68932,24.2977 23.45338,213.33194 23.45338,213.33194 0,0 136.98338,-143.8943 154.33888,-162.03158 24.36024,5.00338 213.87919,43.85782 213.87919,43.85782 0,0 -91.60891,-171.86637 -103.14797,-193.49039 C 503.57534,292.19784 600,117.64215 600,117.64215 c 0,0 -192.56788,39.02642 -216.99067,43.90473 C 365.77891,143.47214 229.15516,0 229.15516,0 l -6.78585,56.679 z" style="fill:#ffffff"/>
  <path d="M 249.05926,59.91556 373.78433,190.8636 548.40256,155.51154 461.12472,313.50914 544.2435,469.44285 371.7048,434.07515 246.97973,565.08573 228.2952,394.56402 61.916923,311.42961 228.2952,234.5338 249.05926,59.91556 z" style="fill:#612c75"/>
  <path d="m 236.05045,235.45629 -0.54724,4.33106 -3.97144,1.82937 -151.524473,70.06306 151.774643,75.84823 3.78381,1.95445 0.4847,4.28415 16.79262,153.72909 113.18601,-118.86173 2.9864,-3.11148 4.26851,0.92249 156.18388,32.00605 -75.31662,-141.28316 -1.95445,-3.78381 2.01699,-3.65873 79.16298,-143.15943 -158.07578,32.00605 -4.20598,0.78178 -3.00203,-3.11149 L 254.86006,77.33361 236.05045,235.45629 z" style="fill:url(#radialGradient2999)"/>
</svg>
