<?xml version="1.0" encoding="UTF-8" standalone="no"?>
<svg xmlns="http://www.w3.org/2000/svg" xmlns:xlink="http://www.w3.org/1999/xlink" viewBox="0 0 138.38248 206.14454" height="206.14453" width="138.38248" version="1.1" id="c16">
  <linearGradient id="linearGradient4136">
    <stop offset="0" style="stop-color:#612c75"/>
    <stop offset="0.5" style="stop-color:#bf99c3"/>
    <stop offset="1" style="stop-color:#612c75"/>
  </linearGradient>
  <linearGradient xlink:href="#linearGradient4136" id="linearGradient4142" x1="72.518425" y1="77.896126" x2="271.06964" y2="209.85271" gradientUnits="userSpaceOnUse" gradientTransform="translate(-80.808763,-47.558594)"/>
  <g transform="rotate(-90,103.07226,103.07227)">
    <g transform="rotate(90,103.07226,103.07227)">
      <path style="fill:url(#linearGradient4142)" d="m 69.191237,22.980468 -65.6562505,19.023438 5.050781,80.808594 21.0429695,34.17383 39.5625,34.34375 39.562503,-34.34375 21.04297,-34.17383 5.05078,-80.808594 z"/>
      <path style="fill:#ffffff" d="m 69.191237,0 c -3.73784,6.630214 -10.66975,13.015198 -18.60352,14.5625 0,0 3.77688,3.861632 7.45899,9.201172 -24.28504,13.447379 -57.71093946,11.33789 -57.71093946,11.33789 0.307232,29.496924 -3.19355404,71.542528 7.07031296,92.591798 11.4338605,23.4487 30.0723665,47.18004 58.5859365,64.31055 l 3.19922,14.14062 3.19922,-14.14062 c 28.513573,-17.13051 47.152083,-40.86185 58.585943,-64.31055 10.26387,-21.04927 6.76308,-63.094874 7.07031,-92.591798 0,0 -33.4259,2.109489 -57.710943,-11.33789 3.68211,-5.33954 7.45899,-9.201172 7.45899,-9.201172 C 79.860987,13.015198 72.929077,6.630214 69.191237,0 Z m -7.05859,30.685547 c 1.67177,3.433135 2.85133,7.030879 2.82812,10.392578 -0.10691,15.483741 -21.95868,18.897171 -41.28711,17.339841 -3.15276,38.4625 -1.69908,55.736084 8.2207,69.814464 9.27755,13.16687 17.53504,22.07708 31.94336,33.91601 l 1.50782,20.89258 C 45.617297,167.3119 33.491007,156.12208 19.697097,135.60547 6.3202825,115.70924 8.1549295,84.581456 7.9119395,43.18164 c 0,0 31.2727175,4.008205 54.2207075,-12.496093 z m 14.11718,0 c 22.94799,16.504298 54.220713,12.496093 54.220713,12.496093 -0.24299,41.399816 1.59166,72.5276 -11.78516,92.42383 -13.79391,20.51661 -25.920203,31.70643 -45.648443,47.43555 l 1.50782,-20.89258 c 14.40832,-11.83893 22.66582,-20.74914 31.943363,-33.91601 9.91979,-14.07838 11.37346,-31.351964 8.2207,-69.814464 -19.328433,1.55733 -41.180203,-1.8561 -41.287113,-17.339841 -0.0232,-3.361699 1.15635,-6.959443 2.82812,-10.392578 z m -46.62109,33.876949 c 0,0 11.35456,6.24214 27.27344,1.51563 l 6.22265,86.203124 c -11.323,-8.14015 -17.36391,-13.66663 -27.39257,-30.54687 -7.35771,-12.3845 -5.87354,-42.604704 -6.10352,-57.171884 z m 79.125003,0 c -0.22998,14.56718 1.25419,44.787384 -6.10352,57.171884 -10.028663,16.88024 -16.069573,22.40672 -27.392573,30.54687 l 6.22265,-86.203124 c 15.91888,4.72651 27.273443,-1.51563 27.273443,-1.51563 z"/>
    </g>
  </g>
</svg>
