<svg xmlns="http://www.w3.org/2000/svg" viewBox="0 0 122.5586 152.35548" height="152.35547" width="122.55859" version="1.1">
  <path d="M 54.220703,0 C 31.272713,16.504298 0,12.496094 0,12.496094 0.24299,53.89591 -1.5916583,85.023693 11.785157,104.91992 c 13.79391,20.51661 25.920197,31.70643 45.648437,47.43555 L 55.925782,131.46289 C 41.517462,119.62396 33.259972,110.71374 23.982422,97.546873 14.062642,83.468493 12.608959,66.194922 15.761719,27.732422 c 19.32843,1.55733 41.1802,-1.856103 41.28711,-17.339844 C 57.072039,7.030879 55.892474,3.433135 54.220703,0 Z m 14.117188,0 c -1.67177,3.433135 -2.851325,7.030879 -2.828125,10.392578 0.10691,15.483741 21.958676,18.897174 41.287104,17.339844 3.15276,38.4625 1.69909,55.736071 -8.220699,69.814451 C 89.298629,110.71374 81.041133,119.62396 66.632813,131.46289 L 65.125,152.35547 c 19.72824,-15.72912 31.854531,-26.91894 45.64844,-47.43555 13.37682,-19.896227 11.54216,-51.02401 11.78515,-92.423826 0,0 -31.272709,4.008204 -54.220699,-12.496094 z M 21.716797,33.876953 c 0.22998,14.56718 -1.254194,44.78737 6.103516,57.17188 10.02866,16.880237 16.069578,22.406717 27.392578,30.546867 L 48.990235,35.392578 c -15.91888,4.72651 -27.273438,-1.515625 -27.273438,-1.515625 z m 79.125003,0 c 0,0 -11.35456,6.242135 -27.27344,1.515625 L 67.345703,121.5957 c 11.323001,-8.14015 17.363916,-13.66664 27.392578,-30.546867 7.357709,-12.38451 5.873539,-42.6047 6.103519,-57.17188 z"/>
</svg>
