<?xml version="1.0" encoding="utf-8"?>
<svg xmlns="http://www.w3.org/2000/svg" xmlns:xlink="http://www.w3.org/1999/xlink" version="1.1" baseProfile="basic" id="Layer_1" x="0px" y="0px" width="181px" height="300px">
  <polygon points="10.52,170.741 90.724,10.438 174.02,170.072 89.474,217.973   "/>
  <path fill="#808080" d="M90.813,20.876l76.873,147.325l-78.146,44.275l-72.801-43.55L90.813,20.876 M90.635,0L4.3,172.556l85.109,50.913    l90.944-51.526L90.635,0L90.635,0z"/>
  <polygon points="40.81,295.25 8.892,203.718 89.635,250.653 171.598,203.01 136.421,295.25   "/>
  <path fill="#808080" d="M162.374,213.866L133.148,290.5H44.184l-26.58-76.223l67.257,39.096l4.774,2.775l4.774-2.775L162.374,213.866     M180.821,192.154l-91.187,53.005l-89.456-52L37.436,300h102.258L180.821,192.154L180.821,192.154z"/>
</svg>
