<?xml version="1.0" encoding="utf-8"?>
<!-- Generator: Adobe Illustrator 27.6.1, SVG Export Plug-In . SVG Version: 6.00 Build 0)  -->
<svg version="1.1" id="Layer_1" xmlns="http://www.w3.org/2000/svg" xmlns:xlink="http://www.w3.org/1999/xlink" x="0px" y="0px"
	 viewBox="0 0 300 160" style="enable-background:new 0 0 300 160;" xml:space="preserve">
<style type="text/css">
	.st0{fill:#FFFFFF;}
</style>
<g>
	<path class="st0" d="M280,160H19.3c0,0-19.4-39.6-19.3-80C0,39.6,19.3,0,19.3,0h260.7c0,0,20,39.8,19.9,80
		C300,120.2,280,160,280,160"/>
	<path d="M189.3,117.7l-3.8-2.6c-2.6-1.7-5-3.3-6.6-5c-2.7-3-3-5.7-3.9-9.5c-2.1-9-13.9-34.7-18.1-41.8c-5.1-8.9-7.6-19.4-5.1-25.9
		l0.3-1.6l-6.2-3.6c-6.8,3-20.9,2.3-28-0.6l-5.2,8.1c2.7,1.3,15.2,6.5,13.5,9.9c-4,7.6-6.7,10.3-7.8,11.3c-2.1,1.9-2.2,4.5-0.1,7.1
		l3.5,3.9c2.3,2.3,4.2,2,6.5,0.4c0.9-0.4,2.1-1,3.3,1.6c5.2,10.8,13,25,16,36.3c2,7.5-8,13.6-12.6,17.6l6.5,7
		c12.8-10.2,35.4-6.6,48.8-2.2l2.7-6.5C192,120.1,190.9,118.8,189.3,117.7z"/>
	<path d="M274.2,9.6l-248.3,0C15.3,34.1,9.7,53,9.7,80c0,27,5.6,45.8,16.2,70.4l248.3,0c10.6-24.5,16.2-43.4,16.2-70.4
		C290.4,53,284.8,34.1,274.2,9.6z M268.1,141.1l-236.1,0c-1.9-4.5-3.6-8.9-5.1-13.3c8.6-4.5,19.1-4.8,28.5-3.4l0-7l-2.2-0.9
		c-0.6-0.3-1.5-0.9-2.6-1.9c-6.4-5.8,4.8-27.5,7.8-34.2c1.5-3.9-0.1-5.6-2.5-6.7l-5-2.2c-2.2-1.3-5-1.3-6.2,2
		c-3.9,7.4-6.1,15.5-8.9,23.4c-3.2,8.5-5.8,15.6-11.9,21.5c-3.3-12.1-5-24.2-5-38.5c0-22.9,4.3-40.4,13-61.1l236.1,0
		c8.7,20.7,13,38.1,13.1,61.1C281.1,103,276.8,120.4,268.1,141.1z"/>
	<path d="M117.6,76.7c1.6-2,2.6-4.5,0.1-7l-3.9-4.4c-2-1.9-4.7-1.8-6.8,0.2l-1.7,1.4C98.6,62,95.2,54.1,90.8,47.2
		c-3.4-5.1-8.2-10.1-8.4-16.4l-33.5-0.9l-2.7,3.5l-1.9,2.5c-0.8,1.1,0.3,3.2,2.3,3.6l2.6,0.5c2.2,0.5,4.2,1.1,5.2,1.8
		c2.3,1.5-3.2,14.7-4.1,17.1c-2.2,3.9-0.7,5.7,2.2,7.2l5.1,2.4c3.2,1.4,5.4,0.5,6.6-2.6l1.1-2.5c0.5-0.9,1-1.7,1.4-2.2l1.6-0.5
		c11.2,6.3,29.5,53,27,68.9l-0.7,2.6l8.8,4.9c3.5-7.6,12.5-16.3,20.8-17.8c-1.1-5.4-2.5-10.5-4.4-15.6
		C117,95.7,111.6,84.4,117.6,76.7z"/>
	<path d="M210,91.9c-0.2-1.3-0.4-2.9-0.4-4.6l0-58.9l-1.1,0l-1.5,0l-0.3,0.3c-6.4,5.8-17.6,11.8-24.2,13.4l-0.8,0.2l0,0.9l0,2.2
		l1.1,0l9.9,0l0,52.8l-11,4l0,0.8l0,1l0,1.1h1.1l37.8,0l0-1.1l0-1.9l-0.9-0.2C214.1,100.5,211.1,97.8,210,91.9z"/>
	<path d="M268.9,77.1c-2.1-12-12.9-22.6-34-23.2l1.1-11.3l29.3,0l0-1.1l0-17.3l-1.1,0l-1,0l-0.3,0.5l-3.3,4.8l-31,0l-0.1,1
		l-4.2,38.2l1.2,0c21.3,0,29.1,8.6,30.4,15.5l0.2,2c-0.1,6.3-3.1,10.1-8.8,11.2c-0.9,0.2-1.8,0.2-2.8,0.2
		c-6.3-0.1-10.7-3.7-11.7-9.5c-0.1-0.8-0.2-1.7-0.2-2.5l0-0.8l-0.8-0.2l-1.1-0.3l-0.5,0.7l-7.9,11.8l-0.5,0.8l0.6,0.6
		c5,5,12.2,8.1,20.2,8.1c2.3,0,4.4-0.2,6.4-0.5c13.5-2.3,20.3-12.5,20.2-23.8C269.3,80.1,269.2,78.6,268.9,77.1z"/>
</g>
</svg>
