<?xml version="1.0" encoding="utf-8"?>
<!-- Generator: Adobe Illustrator 27.6.1, SVG Export Plug-In . SVG Version: 6.00 Build 0)  -->
<svg version="1.1" id="Layer_1" xmlns="http://www.w3.org/2000/svg" xmlns:xlink="http://www.w3.org/1999/xlink" x="0px" y="0px"
	 viewBox="0 0 300 160" style="enable-background:new 0 0 300 160;" xml:space="preserve">
<style type="text/css">
	.st0{fill:url(#SVGID_1_);}
</style>
<linearGradient id="SVGID_1_" gradientUnits="userSpaceOnUse" x1="2.3277" y1="105.6437" x2="297.5994" y2="54.2885">
	<stop  offset="0" style="stop-color:#BF331C"/>
	<stop  offset="0.5" style="stop-color:#F6B91D"/>
	<stop  offset="1" style="stop-color:#BF331C"/>
</linearGradient>
<path class="st0" d="M149.8,0L19.4,0C19.4,0,0,39.6,0,80c0,40.4,19.4,80,19.4,80l260.7,0c0,0,20-39.8,19.9-80
	c0-40.3-19.9-80-19.9-80L149.8,0"/>
<path d="M185.8,114c-2.5-1.7-4.8-3.2-6.3-4.8c-2.7-2.9-2.9-5.5-3.7-9.2c-2.1-8.8-13.5-33.6-17.4-40.4c-4.9-8.6-7.4-18.7-4.9-25
	l0.4-1.6l-6.1-3.5c-6.5,2.9-20.3,2.3-27-0.5l-5.1,7.8c2.6,1.3,14.7,6.3,13,9.6c-3.8,7.3-6.4,9.9-7.5,10.9c-2,1.8-2.2,4.3-0.1,6.8
	l3.5,3.8c2.1,2.2,4,1.9,6.3,0.4c0.9-0.4,2-0.9,3.2,1.5c5,10.5,12.6,24.1,15.4,35.1c2,7.2-7.8,13.2-12.1,16.9l6.3,6.8
	c12.3-9.9,34.2-6.4,47.2-2.2l2.6-6.3c-1.2-1.5-2.3-2.6-3.8-3.8L185.8,114z"/>
<path d="M120.2,76.9c1.6-1.9,2.5-4.4,0.2-6.8l-3.8-4.2c-1.9-1.8-4.5-1.7-6.6,0.2l-1.7,1.3c-6.5-4.7-9.8-12.3-14.1-19
	c-3.2-4.9-7.8-9.8-8.1-15.9l-32.4-0.9L51,35l-1.8,2.5c-0.7,1,0.3,3.1,2.3,3.4l2.5,0.5c2.1,0.5,4.1,1.1,5.1,1.7
	c2.3,1.5-3.1,14.2-3.9,16.5c-2.2,3.8-0.7,5.6,2.1,7l4.9,2.3c3.1,1.3,5.3,0.5,6.4-2.5l1.1-2.5c0.5-0.9,0.9-1.6,1.3-2.1l1.5-0.5
	c10.8,6.1,28.5,51.2,26.1,66.6l-0.6,2.5l8.5,4.8c3.4-7.3,12.1-15.7,20.2-17.2c-1-5.2-2.5-10.1-4.3-15.1
	C119.5,95.3,114.4,84.4,120.2,76.9z"/>
<path d="M290.4,80c0-27-5.6-45.9-16.2-70.3L26,9.7C15.4,34.2,9.8,53,9.8,80c0,27,5.6,45.8,16.2,70.4l248.2,0
	C284.8,125.8,290.4,106.9,290.4,80z M268.1,141.1l-236.1,0c-1.9-4.6-3.6-9-5.1-13.3c8.6-4.5,19.1-4.8,28.5-3.4l0-7l-2.1-0.9
	c-0.6-0.3-1.4-0.9-2.6-1.9c-6.5-5.8,4.9-27.5,7.9-34.2c1.4-3.8-0.1-5.6-2.5-6.7l-4.9-2.3c-2.2-1.2-5.1-1.3-6.2,2.1
	C41,81,38.8,89,35.9,96.9c-3.2,8.6-5.7,15.6-11.9,21.6c-3.3-12.1-5-24.2-5-38.5c0-22.9,4.3-40.4,13-61.1l236.1,0
	c8.7,20.7,13,38.1,13.1,61.1C281.1,103,276.8,120.4,268.1,141.1z"/>
<path d="M220.7,102l-0.9-0.2c-3.5-0.8-5.9-2.1-7.6-4.3c-1.6-2.2-2.6-5.5-2.6-10.1l0-59l-1.1,0l-1.5,0l-0.3,0.3
	c-6.4,5.8-17.6,11.8-24.2,13.4l-0.8,0.2l0,0.9l0,2.1h1.1l9.9,0l0,52.8l-11.1,4l0,0.8l0,1.1l0,1.1l1.1,0l37.8,0l0-1.1L220.7,102z"/>
<path d="M243.1,54.7c-2.5-0.4-5.3-0.7-8.2-0.8l1.1-11.2l29.3,0v-1.1l0-17.4l-1.1,0l-1,0l-0.3,0.5l-3.3,4.7l-31.1,0l-0.1,1l-4.2,38.2
	l1.2,0c4,0,7.6,0.3,10.7,0.9c15,2.7,19.8,10.6,19.8,16.7c0,0.9-0.1,1.8-0.2,2.6c-1,5.5-4.8,8.6-11.5,8.7c-0.9,0-1.7-0.1-2.5-0.2
	c-5.7-1-9.4-5.4-9.4-11.7l0-0.8l-0.8-0.2l-1.1-0.3l-0.5,0.7l-7.9,11.7l-0.5,0.8l0.6,0.6c3.8,3.9,9,6.6,14.8,7.6
	c1.8,0.3,3.6,0.5,5.4,0.5c15.4,0.1,24.4-8.6,26.3-19.6c0.3-1.6,0.4-3.2,0.4-4.8C269.4,69.7,261.2,57.8,243.1,54.7z"/>
</svg>
