<?xml version="1.0" encoding="utf-8"?>
<!-- Generator: Adobe Illustrator 27.6.1, SVG Export Plug-In . SVG Version: 6.00 Build 0)  -->
<svg version="1.1" id="Layer_1" xmlns="http://www.w3.org/2000/svg" xmlns:xlink="http://www.w3.org/1999/xlink" x="0px" y="0px"
	 viewBox="0 0 300 160" style="enable-background:new 0 0 300 160;" xml:space="preserve">
<style type="text/css">
	.st0{fill:url(#SVGID_1_);}
</style>
<linearGradient id="SVGID_1_" gradientUnits="userSpaceOnUse" x1="8.3186" y1="131.8513" x2="291.327" y2="28.0892">
	<stop  offset="0" style="stop-color:#8B723C"/>
	<stop  offset="0.5" style="stop-color:#EBD491"/>
	<stop  offset="1" style="stop-color:#8B723C"/>
</linearGradient>
<path class="st0" d="M149.8,0L19.4,0C19.4,0,0,39.6,0,80c0,40.4,19.4,80,19.4,80l260.7,0c0,0,20-39.8,19.9-80
	c0-40.3-19.9-80-19.9-80L149.8,0"/>
<path d="M185.5,115.1c-2.6-1.7-5-3.3-6.6-5c-2.7-3-3-5.7-3.9-9.5c-2.2-9.1-13.9-34.7-18-41.8c-5.1-8.9-7.7-19.4-5.1-25.9l0.4-1.6
	l-6.3-3.6c-6.8,3-21,2.4-27.9-0.6l-5.2,8.1c2.7,1.4,15.2,6.6,13.4,9.9c-3.9,7.6-6.6,10.2-7.8,11.3c-2.1,1.9-2.2,4.5-0.1,7.1l3.6,3.9
	c2.2,2.3,4.2,2,6.5,0.5c0.9-0.4,2.1-1,3.3,1.6c5.2,10.8,13,25,16,36.3c2,7.5-8,13.6-12.6,17.5l6.5,7.1c12.8-10.2,35.4-6.6,48.8-2.3
	l2.7-6.5c-1.2-1.5-2.4-2.7-4-3.9L185.5,115.1z"/>
<path d="M117.7,76.7c1.6-2,2.6-4.5,0.2-7.1l-3.9-4.4c-2-1.9-4.7-1.8-6.8,0.2l-1.7,1.4C98.6,62,95.2,54.1,90.8,47.2
	c-3.3-5.1-8.1-10.1-8.4-16.4l-33.5-0.9l-2.7,3.5l-1.9,2.5c-0.8,1.1,0.3,3.2,2.4,3.6l2.6,0.5c2.1,0.5,4.2,1.1,5.2,1.8
	c2.4,1.5-3.2,14.7-4.1,17.1c-2.2,4-0.8,5.8,2.2,7.2l5.1,2.4c3.2,1.4,5.5,0.5,6.6-2.6l1.1-2.5c0.5-0.9,0.9-1.7,1.3-2.1l1.6-0.5
	c11.2,6.3,29.5,53,27,68.9l-0.7,2.6l8.8,4.9c3.5-7.5,12.5-16.3,20.8-17.8c-1.1-5.4-2.6-10.5-4.4-15.6
	C117,95.7,111.7,84.4,117.7,76.7z"/>
<path d="M290.4,80c0-27-5.6-45.9-16.2-70.3L26,9.7C15.4,34.2,9.8,53,9.8,80c0,27,5.6,45.8,16.2,70.4l248.2,0
	C284.8,125.8,290.4,106.9,290.4,80z M268.1,141.1l-236.1,0c-1.9-4.6-3.6-9-5.1-13.3c8.6-4.5,19.1-4.8,28.5-3.4l0-7l-2.1-0.9
	c-0.6-0.3-1.4-0.9-2.6-1.9c-6.5-5.8,4.9-27.5,7.9-34.2c1.4-3.8-0.1-5.6-2.5-6.7l-4.9-2.3c-2.2-1.2-5.1-1.3-6.2,2.1
	C41,81,38.8,89,35.9,96.9c-3.2,8.6-5.7,15.6-11.9,21.6c-3.3-12.1-5-24.2-5-38.5c0-22.9,4.3-40.4,13-61.1l236.1,0
	c8.7,20.7,13,38.1,13.1,61.1C281.1,103,276.8,120.4,268.1,141.1z"/>
<path d="M220.7,102l-0.9-0.2c-3.5-0.8-5.9-2.1-7.6-4.3c-1.6-2.2-2.6-5.5-2.6-10.1l0-59l-1.1,0l-1.5,0l-0.3,0.3
	c-6.4,5.8-17.6,11.8-24.2,13.4l-0.8,0.2l0,0.9l0,2.1h1.1l9.9,0l0,52.8l-11.1,4l0,0.8l0,1.1l0,1.1l1.1,0l37.8,0l0-1.1L220.7,102z"/>
<path d="M243.1,54.7c-2.5-0.4-5.3-0.7-8.2-0.8l1.1-11.2l29.3,0v-1.1l0-17.4l-1.1,0l-1,0l-0.3,0.5l-3.3,4.7l-31.1,0l-0.1,1l-4.2,38.2
	l1.2,0c4,0,7.6,0.3,10.7,0.9c15,2.7,19.8,10.6,19.8,16.7c0,0.9-0.1,1.8-0.2,2.6c-1,5.5-4.8,8.6-11.5,8.7c-0.9,0-1.7-0.1-2.5-0.2
	c-5.7-1-9.4-5.4-9.4-11.7l0-0.8l-0.8-0.2l-1.1-0.3l-0.5,0.7l-7.9,11.7l-0.5,0.8l0.6,0.6c3.8,3.9,9,6.6,14.8,7.6
	c1.8,0.3,3.6,0.5,5.4,0.5c15.4,0.1,24.4-8.6,26.3-19.6c0.3-1.6,0.4-3.2,0.4-4.8C269.4,69.7,261.2,57.8,243.1,54.7z"/>
</svg>
