<?xml version="1.0" encoding="utf-8"?>
<svg xmlns="http://www.w3.org/2000/svg" xmlns:xlink="http://www.w3.org/1999/xlink" version="1.1" id="Layer_1" x="0px" y="0px" width="300px" height="160px">
  <g>
    <path fill="#FFFFFF" d="M280.047,159.99l-130.326,0.009L19.366,160c0,0-19.361-39.588-19.366-79.978   C-0.006,39.633,19.357,0.01,19.357,0.01l130.358-0.003L280.038,0c0,0,19.963,39.755,19.962,80.006   C300.002,120.241,280.047,159.99,280.047,159.99"/>
    <path d="M299.306,92.998l-9.913,5.444c0.668-5.796,1.008-11.894,0.999-18.469c0-6.449-0.345-12.423-0.981-18.14l-9.071,2.673   c0.484,4.924,0.768,10.025,0.778,15.463c-0.002,8.724-0.831,16.549-2.078,24.129l-13.679,7.513l13.372-5.508   c-2.109,11.683-5.539,22.828-10.668,34.978l-31.828,0.004l4.515,9.271l33.414-0.001c4.029-9.319,7.094-17.795,9.659-26.219   l-8.78-2.02l11.4-6.979c1.019-4.289,1.69-8.701,2.328-13.182l10.004-4.121C298.966,96.225,299.142,94.629,299.306,92.998"/>
    <polyline points="163.154,27.149 174.504,18.889 198.07,18.89 185.976,10.543 200.451,0.005 192.93,0.002 182.335,9.655  79.144,9.661 62.964,18.885 172.229,18.887 163.154,27.149  "/>
    <polyline points="222.415,119.452 213.12,141.082 142.295,141.088 158.166,150.345 209.129,150.347 204.966,159.996  213.595,159.995 215.683,150.348 220.468,150.346 227.686,141.081 217.719,141.077 222.415,119.452  "/>
    <polygon points="78.4,0.011 43.325,0.012 67.243,6.91  "/>
    <polygon points="61.779,132.857 69.495,141.079 47.067,141.079 45.045,150.352 78.181,150.348 87.198,159.997 96.09,159.996  83.886,150.354 119.854,150.341 142.287,141.082 72.17,141.089  "/>
    <path d="M135.253,123.302l6.464,7.034c12.788-10.219,35.377-6.597,48.805-2.238l2.745-6.489c-1.206-1.533-2.408-2.741-3.983-3.925   l-3.789-2.586c-2.578-1.698-4.99-3.274-6.555-4.963c-2.719-2.982-2.979-5.685-3.866-9.466c-0.755-3.127-2.628-8.201-4.926-13.828   c-0.335-0.81-0.671-1.608-1.019-2.42L134.21,60.293l26.113,4.826c-1.278-2.606-2.474-4.89-3.283-6.323   c-5.123-8.886-7.685-19.38-5.096-25.85l0.367-1.642l-6.228-3.584c-6.762,3.004-20.981,2.344-27.99-0.563l-5.205,8.128   c2.642,1.326,15.232,6.52,13.481,9.899c-3.904,7.558-6.664,10.206-7.816,11.248c-2.059,1.894-2.258,4.516-0.069,7.098l3.54,3.909   c2.264,2.335,4.188,1.981,6.46,0.431c0.924-0.437,2.125-0.962,3.341,1.554c5.221,10.854,13.012,25.004,16.016,36.314   C149.867,113.281,139.834,119.394,135.253,123.302"/>
    <path d="M279.061,56.005l8.599-4.353c-2.612-13.959-6.987-26.984-13.49-41.996l-57.207-0.008l-18.892,9.237l69.993,0.001   C273.494,31.776,277.022,43.515,279.061,56.005"/>
    <path d="M26.909,127.813c8.551-4.438,19.066-4.83,28.485-3.372l0.005-7.002l-2.151-0.885c-0.6-0.351-1.491-0.877-2.591-1.884   c-6.451-5.804,4.873-27.507,7.867-34.182c1.448-3.846-0.066-5.633-2.528-6.68l-4.97-2.257c-2.208-1.264-5.052-1.273-6.219,2.023   c-3.85,7.431-6.06,15.504-8.92,23.339c-3.186,8.546-5.757,15.619-11.886,21.574c-3.344-12.076-4.984-24.22-4.985-38.502   c-0.007-4.056,0.285-7.797,0.565-11.557l11.163-3.456l-11.058,1.464c1.422-16.674,5.422-31.142,12.333-47.541l30.937-0.007   l-3.555-9.225l-33.49,0.003c-5.359,12.402-9.277,23.445-11.959,34.798l6.841,11.785l-10.051,5.265   c-0.217,1.928-0.178,4.146-0.346,6.143l-9.89,1.3c-0.139,1.834-0.261,3.656-0.338,5.485l10.039-3.102   c-0.139,2.878-0.476,5.568-0.482,8.653c0.004,26.983,5.599,45.828,16.206,70.347l5.215-0.004l8.849-9.254l-7.983-0.007   C30.105,136.546,28.407,132.131,26.909,127.813"/>
    <path d="M94.644,132.193l8.8,4.958c3.518-7.551,12.508-16.304,20.855-17.83c-1.081-5.381-2.556-10.447-4.427-15.614   c-2.902-7.959-8.231-19.247-2.245-27.009c1.672-1.979,2.63-4.528,0.168-7.05l-3.934-4.378c-2.047-1.912-4.703-1.765-6.806,0.215   l-1.737,1.384c-6.726-4.855-10.075-12.723-14.561-19.64c-3.304-5.066-8.149-10.126-8.406-16.422l-33.538-0.941l-2.715,3.53   l-1.877,2.526c-0.795,1.104,0.294,3.215,2.32,3.587l2.651,0.497c2.139,0.515,4.245,1.131,5.25,1.8   c2.337,1.486-3.19,14.75-4.13,17.118c-2.219,3.94-0.721,5.739,2.222,7.194L57.6,68.53c3.187,1.374,5.389,0.488,6.565-2.592   l1.147-2.577c0.496-0.896,0.939-1.662,1.357-2.111l1.574-0.552c6.02,3.363,14.035,18.35,19.824,34.003l30.068,4.386l-26.171,7.434   c2.677,9.317,4.136,17.866,3.353,23.088L94.644,132.193z"/>
    <path d="M207.049,28.395l-0.329,0.295c-6.753,6.09-17.982,11.84-24.222,13.368l-0.818,0.193l0.003,3.026l10.999,0.001l0.014,12.472   l16.914,27.748l0.007-57.098L207.049,28.395"/>
    <path d="M220.614,101.955l-0.873-0.2c-7.084-1.523-10.119-5.851-10.111-14.433l-0.015-1.83l-16.925-7.817L192.682,98.1   l-10.993,3.977l-0.008,2.916l38.934,0.002L220.614,101.955"/>
    <path d="M222.413,97.966c5.031,5.141,12.373,8.076,20.219,8.075c16.215-0.003,26.67-9.557,26.669-24.362   c0.003-2.365-0.351-4.808-1.082-7.193l-20.011-0.543c5.787,3.721,7.905,8.639,7.9,12.233c-0.009,7.108-4.379,11.377-11.7,11.377   c-7.121-0.009-11.915-4.829-11.925-12.004l-0.003-0.767l-1.853-0.65l-8.851,13.186L222.413,97.966"/>
    <path d="M265.359,42.655l-0.006-18.444l-2.139,0.009l-3.571,5.238l-31.025-0.008l-4.18,37.949l-0.141,1.234l1.246,0.003   c9.278-0.01,15.908,1.649,20.596,4.025l16.315-8.247c-5.374-5.8-14.118-10.118-27.537-10.528l1.15-11.223L265.359,42.655"/>
  </g>
</svg>
