<?xml version="1.0" encoding="utf-8"?>
<svg xmlns="http://www.w3.org/2000/svg" xmlns:xlink="http://www.w3.org/1999/xlink" version="1.1" id="Layer_1" x="0px" y="0px" width="300px" height="160px">
  <path d="M149.755,0L19.378,0.018c0,0-19.36,39.578-19.378,79.969c0.021,40.41,19.392,79.98,19.392,79.98      L280.056,160c0,0,19.958-39.756,19.944-79.997c-0.001-40.28-19.91-79.985-19.91-79.985L149.755,0"/>
  <linearGradient id="SVGID_3_" gradientUnits="userSpaceOnUse" x1="-1058" y1="468" x2="-1051.5001" y2="469.1305" gradientTransform="matrix(31.8873 -18.4112 18.4112 31.8873 25174.5547 -34315.043)">
    <stop offset="0" style="stop-color:#536e78"/>
    <stop offset="0.5" style="stop-color:#d9eaf3"/>
    <stop offset="1" style="stop-color:#536e78"/>
  </linearGradient>
  <path fill="url(#SVGID_3_)" d="M185.534,115.121c-2.601-1.749-4.996-3.301-6.557-4.989c-2.748-2.986-2.996-5.693-3.865-9.479   c-2.16-9.058-13.917-34.738-18.04-41.84c-5.1-8.889-7.692-19.396-5.092-25.879l0.369-1.63l-6.276-3.608   c-6.757,3.009-20.954,2.366-27.918-0.555l-5.233,8.121c2.671,1.357,15.216,6.552,13.449,9.915   c-3.926,7.582-6.615,10.216-7.77,11.264c-2.066,1.857-2.248,4.488-0.119,7.082l3.596,3.903c2.217,2.327,4.177,1.986,6.469,0.453   c0.888-0.45,2.111-0.961,3.324,1.553c5.161,10.837,13.014,24.973,15.984,36.312c2.031,7.501-8.029,13.641-12.556,17.526   l6.473,7.073c12.761-10.225,35.368-6.61,48.791-2.27l2.725-6.502c-1.19-1.501-2.39-2.721-3.963-3.886L185.534,115.121z"/>
  <path fill="url(#SVGID_3_)" d="M117.652,76.696c1.642-1.972,2.621-4.544,0.158-7.075l-3.919-4.363c-2.012-1.888-4.703-1.756-6.79,0.217   l-1.741,1.389c-6.742-4.86-10.124-12.72-14.602-19.642c-3.271-5.056-8.12-10.107-8.381-16.409l-33.55-0.94l-2.723,3.515   l-1.862,2.538c-0.757,1.078,0.284,3.199,2.362,3.564l2.613,0.54c2.136,0.497,4.212,1.105,5.226,1.768   c2.362,1.505-3.168,14.738-4.074,17.122c-2.237,3.965-0.774,5.756,2.164,7.202l5.076,2.387c3.234,1.376,5.454,0.475,6.603-2.592   l1.137-2.545c0.486-0.923,0.906-1.697,1.348-2.143l1.589-0.527c11.219,6.293,29.456,52.971,27.048,68.893l-0.659,2.588l8.79,4.937   c3.514-7.533,12.497-16.285,20.85-17.801c-1.068-5.395-2.559-10.46-4.442-15.594C116.956,95.744,111.675,84.442,117.652,76.696z"/>
  <path fill="url(#SVGID_3_)" d="M290.421,79.983c-0.009-26.962-5.605-45.868-16.24-70.342L25.957,9.663   C15.366,34.154,9.769,53.026,9.778,79.988c0.002,27.001,5.573,45.821,16.195,70.373l248.223-0.02   C284.794,125.811,290.43,106.946,290.421,79.983z M268.111,141.077l-236.094,0.016c-1.863-4.565-3.588-8.986-5.093-13.286   c8.59-4.462,19.086-4.835,28.491-3.381l-0.02-6.985l-2.144-0.903c-0.586-0.345-1.426-0.856-2.581-1.867   c-6.452-5.817,4.859-27.518,7.9-34.207c1.443-3.823-0.059-5.621-2.543-6.663l-4.933-2.281c-2.246-1.243-5.114-1.264-6.224,2.052   c-3.86,7.433-6.089,15.477-8.97,23.324c-3.17,8.563-5.749,15.616-11.9,21.597c-3.283-12.081-4.976-24.245-4.96-38.53   c-0.034-22.931,4.267-40.417,13.009-61.076l236.055-0.022c8.714,20.704,13.034,38.133,13.061,61.103   C281.147,102.971,276.813,120.411,268.111,141.077z"/>
  <path fill="url(#SVGID_3_)" d="M220.665,101.951l-0.899-0.193c-3.459-0.752-5.902-2.114-7.552-4.339c-1.65-2.228-2.565-5.465-2.569-10.112   L209.63,28.34l-1.13,0.017l-1.476,0.022l-0.311,0.282c-6.393,5.827-17.633,11.789-24.17,13.407l-0.83,0.209l-0.012,0.854   l-0.033,2.135h1.132l9.903,0.003l0.014,52.834l-11.059,3.954l0.013,0.796l0.016,1.052l0.016,1.095l1.098,0.001l37.796,0.004   l0.025-1.089L220.665,101.951z"/>
  <path fill="url(#SVGID_3_)" d="M243.128,54.691c-2.536-0.446-5.278-0.714-8.208-0.805l1.134-11.215l29.299-0.029V41.53l-0.004-17.366   l-1.141,0.028l-0.978,0.023l-0.322,0.469l-3.258,4.737l-31.059,0.016l-0.108,0.99l-4.201,38.214l1.247-0.001   c4.035-0.004,7.595,0.305,10.72,0.855c14.966,2.676,19.827,10.649,19.84,16.681c-0.003,0.937-0.079,1.821-0.225,2.648   c-1.027,5.464-4.803,8.622-11.454,8.684c-0.871,0.003-1.703-0.068-2.495-0.208c-5.669-1.033-9.358-5.399-9.4-11.747l-0.001-0.821   l-0.785-0.242l-1.099-0.338l-0.462,0.687l-7.892,11.727l-0.506,0.752l0.633,0.646c3.81,3.895,8.987,6.584,14.837,7.614   c1.751,0.308,3.561,0.468,5.413,0.465c15.439,0.057,24.399-8.616,26.277-19.563c0.276-1.566,0.413-3.178,0.413-4.816   C269.39,69.704,261.191,57.817,243.128,54.691z"/>
</svg>
