<?xml version="1.0" encoding="utf-8"?>
<svg xmlns="http://www.w3.org/2000/svg" xmlns:xlink="http://www.w3.org/1999/xlink" version="1.1" id="Layer_1" x="0px" y="0px" width="300px" height="160px">
  <path d="M 19.34375 0 C 19.34375 9.4739031e-015 -0.019 39.615625 0 80.015625 C -0.027 120.38263 19.339844 160 19.339844 160 L 280.04688 160 C 280.04688 160 299.992 120.24305 300 79.998047 C 300.009 39.755047 280.05273 0 280.05273 0 L 19.34375 0 z M 25.919922 9.6328125 L 274.17773 9.6425781 C 284.80773 34.129578 290.40648 53.002797 290.39648 79.966797 C 290.39548 106.9698 284.79011 125.83756 274.16211 150.35156 L 25.904297 150.33984 C 15.306297 125.80684 9.71675 106.9747 9.71875 79.970703 C 9.72775 53.006703 15.284922 34.107813 25.919922 9.6328125 z M 31.994141 18.855469 C 23.280141 39.562469 19.006719 57.023219 19.011719 79.949219 C 18.987719 94.241219 20.647141 106.3818 23.994141 118.4668 C 30.097141 112.5088 32.688 105.43192 35.875 96.919922 C 38.734 89.070922 40.940688 80.973734 44.804688 73.552734 C 45.964688 70.281734 48.793047 70.267203 50.998047 71.533203 L 55.960938 73.767578 C 58.412937 74.829578 59.941516 76.618703 58.478516 80.470703 C 55.497516 87.169703 44.207391 108.85411 50.650391 114.66211 C 51.713391 115.64511 52.622031 116.21173 53.207031 116.55273 L 55.382812 117.42188 L 55.369141 124.44727 C 45.976141 122.99227 35.448484 123.35269 26.896484 127.80469 C 28.391484 132.14269 30.094344 136.52436 32.027344 141.06836 L 268.08008 141.08984 C 276.79308 120.38384 281.11462 102.95242 281.14062 79.982422 C 281.12862 57.017422 276.79089 39.537141 268.08789 18.869141 L 31.994141 18.855469 z M 263.23438 24.183594 L 264.27148 24.185547 L 265.38086 24.189453 L 265.37695 41.525391 L 265.37695 42.638672 L 236.04492 42.65625 L 234.91797 53.914062 C 256.01997 54.507064 266.83011 65.088703 268.91211 77.095703 C 269.18011 78.613703 269.31055 80.147781 269.31055 81.675781 C 269.36155 93.027781 262.54331 103.16033 249.07031 105.48633 C 247.06531 105.83933 244.916 106.02553 242.625 106.01953 C 234.59 106.05553 227.35244 103.01475 222.39844 97.96875 L 221.76367 97.322266 L 222.26758 96.570312 L 230.13477 84.8125 L 230.5918 84.128906 L 231.7207 84.464844 L 232.51953 84.703125 L 232.51758 85.533203 C 232.51758 86.418203 232.58847 87.267314 232.73047 88.070312 C 233.78247 93.817312 238.1535 97.491922 244.4375 97.544922 C 245.4465 97.544922 246.39434 97.463594 247.27734 97.308594 C 252.96734 96.245594 256.02438 92.407391 256.10938 86.150391 L 255.92773 84.146484 C 254.69773 77.189484 246.87869 68.659 225.55469 68.625 L 224.3125 68.626953 L 228.50977 30.429688 L 228.61914 29.4375 L 259.62891 29.419922 L 262.90234 24.664062 L 263.23438 24.183594 z M 118.11133 27.146484 C 125.12833 30.028484 139.31045 30.679844 146.06445 27.714844 L 152.27734 31.302734 L 151.95898 32.933594 C 149.38198 39.402594 151.92272 49.892688 157.01172 58.804688 C 161.13772 65.908686 172.94931 91.600817 175.07031 100.63281 C 175.94331 104.43381 176.22369 107.16905 178.92969 110.12305 C 180.52169 111.82005 182.89981 113.37861 185.50781 115.09961 L 189.27734 117.66602 C 190.85834 118.84002 192.04709 120.08437 193.24609 121.60938 L 190.51172 128.10352 C 177.08572 123.72652 154.49708 120.11536 141.70508 130.31836 L 135.25195 123.30078 C 139.81595 119.38978 149.85289 113.26309 147.83789 105.74609 C 144.82489 94.410102 137.02684 80.242156 131.83984 69.410156 C 130.58484 66.887156 129.38519 67.422328 128.49219 67.861328 C 126.21619 69.393328 124.29623 69.730641 121.99023 67.431641 L 118.4707 63.529297 C 116.31272 60.922297 116.46078 58.314109 118.55078 56.412109 C 119.70578 55.402109 122.42881 52.742531 126.38281 45.144531 C 128.09181 41.777531 115.53409 36.599953 112.87109 35.251953 L 118.11133 27.146484 z M 207.01953 28.361328 L 208.51758 28.380859 L 209.61328 28.398438 L 209.63867 87.332031 C 209.63667 89.031031 209.75714 90.545672 209.99414 91.888672 C 211.11114 97.826672 214.13486 100.48116 219.75586 101.78516 L 220.65234 101.98242 L 220.60547 103.91211 L 220.57617 105 L 182.78516 105.00195 L 181.65625 105.00195 L 181.67188 103.87305 L 181.6875 102.82422 L 181.69531 102.05859 L 192.70312 98.060547 L 192.6875 45.261719 L 182.78906 45.265625 L 181.65625 45.267578 L 181.68945 43.083984 L 181.70117 42.222656 L 182.54297 42.019531 C 189.08197 40.464531 200.31636 34.501203 206.69336 28.658203 L 207.01953 28.361328 z M 48.814453 29.857422 L 82.328125 30.78125 C 82.596125 37.11125 87.403531 42.117797 90.769531 47.216797 C 95.225531 54.141797 98.5915 61.984469 105.3125 66.855469 L 107.04883 65.460938 C 109.16583 63.474937 111.8138 63.369422 113.8418 65.232422 L 117.77148 69.628906 C 120.23448 72.141906 119.26967 74.692828 117.63867 76.673828 C 111.61167 84.436828 116.96019 95.724508 119.86719 103.72852 C 121.74219 108.84652 123.20125 113.91689 124.28125 119.33789 C 115.93725 120.84589 106.92917 129.57586 103.45117 137.13086 L 94.615234 132.18945 L 95.289062 129.60742 C 97.693064 113.68542 79.459234 66.964063 68.240234 60.664062 L 66.634766 61.189453 C 66.233766 61.663453 65.802297 62.425234 65.279297 63.365234 L 64.152344 65.904297 C 62.996344 68.975297 60.773266 69.891565 57.572266 68.476562 L 52.505859 66.099609 C 49.578859 64.638609 48.088734 62.839438 50.302734 58.898438 C 51.215734 56.517437 56.7615 43.271203 54.4375 41.783203 C 53.4295 41.113203 51.340453 40.512906 49.189453 40.003906 L 46.548828 39.458984 C 44.502828 39.092984 43.402797 36.986047 44.216797 35.873047 L 46.078125 33.367188 L 48.814453 29.857422 z "/>
</svg>
