<?xml version="1.0" encoding="UTF-8" standalone="no"?>
<svg xmlns="http://www.w3.org/2000/svg" version="1.1" width="600" height="589.30414">
  <path d="M 376.94839,0 187.08933,0 c 0,0 -0.97235,44.25674 -1.26701,56.74999 -15.13038,11.56509 -58.12012,44.31567 -73.89873,56.33747 C 100.29956,109.69896 58.237981,97.38251 58.237981,97.38251 L 0,307.20424 c 0,0 37.347149,14.32009 48.337671,18.53362 4.022001,14.83573 9.207877,34.23857 12.832098,47.7631 -7.940873,12.0218 -35.048863,53.11103 -35.048863,53.11103 L 222.5949,589.30413 c 0,0 26.13564,-40.79458 33.20729,-51.84403 l 72.16029,0 c 8.53018,11.04945 38.09851,49.48681 38.09851,49.48681 l 198.94908,-156.7107 c 0,0 -27.15219,-37.52394 -35.44665,-48.85331 5.4658,-15.99961 14.04017,-41.0303 18.81354,-55.01154 C 559.89785,321.30334 600,303.68315 600,303.68315 L 533.06978,92.59441 c 0,0 -41.72273,14.27589 -53.28782,18.2537 -16.1764,-11.74189 -57.54555,-41.78167 -73.48623,-53.34676 l 0,-57.50135 -29.34734,0 z" style="fill:#808080"/>
  <path d="m 220.57654,287.46255 c 0,43.62324 35.5203,79.06989 79.12881,79.06989 21.18548,0 41.04503,-8.2208 55.99862,-23.13019 14.9094,-14.96833 23.14492,-34.81314 23.14492,-55.9397 0,-43.68216 -35.5203,-79.12881 -79.14354,-79.12881 -43.60851,0 -79.12881,35.44665 -79.12881,79.12881 m 98.81157,-200.55492 0,14.95359 145.83804,105.78009 c 0,0 8.69223,-2.99072 11.85974,-4.08093 1.78265,5.62785 10.63694,33.42828 16.45632,51.96189 -0.75077,0.33826 -15.14512,6.61494 -15.14512,6.61494 l -45.62687,133.74257 c 0,0 11.56509,15.94068 12.89103,17.72332 -20.55198,16.1764 -42.98974,33.84079 -64.33728,50.70962 -0.29465,-0.45612 -10.53381,-13.76025 -10.53381,-13.76025 l -162.53008,0 c 0,0 -3.32957,5.30374 -5.86358,9.14895 -17.4876,-14.43795 -48.63232,-40.22001 -60.77198,-50.29711 2.81392,-4.31665 13.64239,-20.77297 13.64239,-20.77297 l -34.4743,-128.09998 c 0,0 -15.60182,-5.98144 -15.94067,-6.0993 5.40686,-19.46177 12.83209,-46.33404 13.52453,-48.86805 3.56529,1.04661 11.28517,3.28537 11.28517,3.28537 l 142.08123,-108.3141 c 0,0 0.29465,-13.2888 0.29465,-13.62765 l 47.35059,0 z m -75.5046,-28.77278 c -0.10607,6.20243 -0.63291,27.90355 -0.63291,27.90355 l -119.46668,91.10642 c 0,0 -20.65511,-6.0551 -25.325343,-7.42523 -8.397584,30.26077 -20.65511,74.41438 -28.360261,102.14114 5.922506,2.31302 26.695477,10.31282 26.695477,10.31282 l 27.328977,101.44871 c 0,0 -13.92231,21.18548 -20.77297,31.48357 24.23513,20.02161 76.43275,63.306 105.72116,87.5264 2.53401,-3.90414 14.96833,-23.30698 14.96833,-23.30698 l 132.5345,0 c 0,0 14.49688,18.82826 19.68275,25.61999 27.68257,-21.81898 82.45838,-64.98551 108.93287,-85.81741 -5.62785,-7.76408 -20.31626,-28.08034 -20.31626,-28.08034 l 36.72838,-107.60694 c 0,0 19.72696,-8.6333 27.21112,-11.9776 -8.73643,-27.68256 -23.46904,-73.95767 -33.14836,-104.67515 -4.77336,1.66479 -25.60526,8.73644 -25.60526,8.73644 L 348.1762,87.18755 l 0,-29.0527 -104.2921,0 z m -28.13927,-28.8317 161.20415,0 0,43.15179 97.94234,71.02588 39.30659,-13.4214 49.89933,157.40313 -39.36552,17.26662 -27.80042,81.54495 27.80042,38.37844 -153.48426,120.91047 -28.83171,-37.45028 -102.67151,0 -23.99941,37.45028 -150.655599,-124.75568 27.84462,-42.19418 -20.139468,-74.87109 -37.40608,-14.37902 43.166528,-155.4437 39.365519,11.50617 96.91106,-73.88401 0.91342,-42.23837 z"/>
</svg>
