<?xml version="1.0" encoding="UTF-8" standalone="no"?>
<svg xmlns="http://www.w3.org/2000/svg" xmlns:xlink="http://www.w3.org/1999/xlink" version="1.1" width="600" height="589.24628">
  <radialGradient cx="0" cy="0" r="1" fx="0" fy="0" id="radialGradient556" gradientUnits="userSpaceOnUse" gradientTransform="matrix(17.25032,0,0,-17.250305,400.97754,259.87402)" spreadMethod="pad">
    <stop style="stop-color:#bf99c3" offset="0"/>
    <stop style="stop-color:#7b5190" offset="0.66291797"/>
    <stop style="stop-color:#612c75" offset="1"/>
  </radialGradient>
  <radialGradient cx="0" cy="0" r="1" fx="0" fy="0" id="radialGradient3000" xlink:href="#radialGradient556" gradientUnits="userSpaceOnUse" gradientTransform="matrix(17.25032,0,0,-17.250305,400.97754,259.87402)" spreadMethod="pad"/>
  <radialGradient cx="0" cy="0" r="1" fx="0" fy="0" id="radialGradient3006" xlink:href="#radialGradient556" gradientUnits="userSpaceOnUse" gradientTransform="matrix(17.25032,0,0,-17.250305,400.97754,259.87402)" spreadMethod="pad"/>
  <radialGradient cx="0" cy="0" r="1" fx="0" fy="0" id="radialGradient3009" xlink:href="#radialGradient556" gradientUnits="userSpaceOnUse" gradientTransform="matrix(254.11716,0,0,254.11694,299.63968,286.18188)" spreadMethod="pad"/>
  <path d="M 376.91137,0 187.07096,0 c 0,0 -0.97226,44.2524 -1.26688,56.74442 -15.1289,11.56396 -58.11442,44.31132 -73.89148,56.33194 C 100.28971,109.68819 58.232261,97.37295 58.232261,97.37295 L 0,307.17408 c 0,0 37.343481,14.31868 48.332924,18.53179 4.021606,14.83428 9.206973,34.23521 12.830837,47.75841 C 53.223668,385.4849 26.11834,426.5701 26.11834,426.5701 l 196.4547,162.67616 c 0,0 26.13307,-40.79057 33.20403,-51.83894 l 72.21213,0 c 8.47041,11.04837 38.03584,49.48195 38.03584,49.48195 L 565.0135,430.19396 c 0,0 -27.20844,-37.52025 -35.50208,-48.84851 5.46526,-15.99804 14.03879,-41.02627 18.81168,-55.00614 C 559.90179,321.27179 600,303.65333 600,303.65333 L 533.07636,92.58532 c 0,0 -41.77756,14.27449 -53.34152,18.2519 -16.17481,-11.74073 -57.5399,-41.77755 -73.47901,-53.34151 l 0,-57.49571 -29.34446,0 z" style="fill:#ffffff"/>
  <path d="m 220.55487,287.43433 c 0,43.61895 35.51682,79.06211 79.12104,79.06211 21.12448,0 41.04101,-8.21998 55.93421,-23.12791 14.96685,-14.96686 23.24576,-34.80972 23.24576,-55.9342 0,-43.67788 -35.50209,-79.12104 -79.17997,-79.12104 -43.60422,0 -79.12104,35.44316 -79.12104,79.12104 m 98.80187,-200.53523 0,14.95212 145.82372,105.7697 c 0,0 8.7503,-2.99042 11.90277,-4.08053 1.7972,5.6273 10.5917,33.425 16.46943,51.95679 -0.86855,0.33823 -15.20255,6.61429 -15.20255,6.61429 l -45.56347,133.72944 c 0,0 11.50504,15.93911 12.88977,17.72158 -20.60889,16.17481 -42.98552,33.83746 -64.3457,50.70464 -0.3394,-0.45608 -10.57697,-13.7589 -10.57697,-13.7589 l -162.51411,0 c 0,0 -3.38817,5.30322 -5.863,9.14805 -17.48589,-14.43654 -48.62755,-40.21606 -60.76602,-50.29217 2.81365,-4.31623 13.64105,-20.77093 13.64105,-20.77093 L 120.78075,260.50577 c 0,0 -15.60029,-5.98085 -15.93911,-6.09869 5.34741,-19.45986 12.83084,-46.32949 13.5232,-48.86325 3.56494,1.0465 11.28407,3.28505 11.28407,3.28505 L 271.71618,100.52542 c 0,0 0.29462,-13.28751 0.29462,-13.62632 l 47.34594,0 z M 243.85956,58.12915 c -0.10606,6.20181 -0.63285,27.90081 -0.63285,27.90081 l -119.45494,91.09747 c 0,0 -20.65309,-6.05451 -25.322863,-7.4245 -8.396759,30.25779 -20.653081,74.40707 -28.357476,102.1311 5.921925,2.31279 26.692856,10.31181 26.692856,10.31181 l 27.326293,101.43875 c 0,0 -13.97987,21.1834 -20.77093,31.48048 24.23275,20.01964 76.42524,63.29978 105.71078,87.5178 2.53376,-3.90376 14.96685,-23.30469 14.96685,-23.30469 l 132.58041,0 c 0,0 14.43654,18.82641 19.68083,25.61748 27.62092,-21.81684 82.39135,-64.97913 108.86324,-85.80899 -5.58311,-7.76332 -20.31426,-28.07758 -20.31426,-28.07758 l 36.72477,-107.59637 c 0,0 19.72502,-8.63246 27.20845,-11.97643 -8.73558,-27.67984 -23.42254,-73.9504 -33.20403,-104.66486 -4.71397,1.66462 -25.60275,8.73557 -25.60275,8.73557 L 348.1862,87.17899 l 0,-29.04984 -104.32605,0 z m -28.13651,-28.82888 161.24724,0 0,43.14756 97.81488,71.01891 39.36165,-13.42009 49.89443,157.38768 -39.36165,17.26491 -27.79769,81.53695 27.79769,38.37467 -153.52811,120.8986 -28.76995,-37.4466 -102.66143,0 -23.99706,37.4466 L 65.141174,420.76602 92.924135,378.57599 72.786644,303.71226 35.384238,289.33465 78.546526,133.90622 117.90818,145.41125 214.80972,71.5345 215.72305,29.30027 z" style="fill:#612c75"/>
  <path d="m 221.54186,35.2222 -0.86914,36.41542 -0.0589,2.8873 -2.23914,1.66463 -96.90154,73.89148 -2.35699,1.84139 -2.88731,-0.86914 -33.601764,-9.84041 -40.157132,144.55684 32.452737,12.47729 2.754727,1.04591 0.810213,2.9315 20.137491,74.80481 0.692364,2.53376 -1.502578,2.23914 -24.85146,37.81487 141.433832,117.09797 20.31426,-31.8193 1.78247,-2.71053 3.22613,0 102.66143,0 2.9315,0 1.72354,2.29806 25.14609,32.68843 144.43898,-113.70979 -24.45371,-33.77855 -1.8414,-2.47483 0.97226,-2.87258 27.79769,-81.53695 0.86914,-2.41591 2.35698,-1.0901 34.52983,-15.20255 -46.50626,-146.56028 -33.66069,11.50503 -2.81365,1.04592 -2.47484,-1.8414 -97.94745,-70.95998 -2.41591,-1.78247 0,-2.99042 0,-37.28456 -149.49178,0 z m 15.88019,47.81733 0.57451,-25.08716 0.11785,-5.75988 5.74515,0 104.32605,0 5.87773,0 0,5.87773 0,26.05942 116.92119,84.88092 c 5.93666,-2.07709 18.98846,-6.51117 22.67125,-7.76332 l 0,0 5.70096,-2.01817 1.84139,5.80408 26.07415,82.06727 7.12988,22.5534 1.6057,5.06752 -4.83182,2.12129 -24.91039,10.93051 -34.86865,102.26369 18.5318,25.54383 3.32924,4.66977 -4.43408,3.44709 -108.92217,85.79426 -4.66977,3.74171 -3.68279,-4.77289 -17.88363,-23.24577 -126.43751,0 -13.16966,20.59416 -3.62386,5.58311 -5.12644,-4.19838 -53.68034,-44.48809 -52.030442,-43.08864 -4.08053,-3.40289 2.9315,-4.43408 19.283082,-29.16769 -25.897371,-96.10607 -23.82028,-9.14804 -5.067518,-1.90032 1.502578,-5.17064 21.919961,-79.06211 6.452246,-23.08373 1.605696,-5.74515 5.700958,1.66462 22.43555,6.55537 114.85883,-87.57673 z m 40.3339,9.72257 c -0.0589,3.74171 -0.17677,7.88116 -0.17677,7.88116 l 0,0 -0.0448,2.82839 -2.25387,1.72354 -142.06727,108.28873 -2.35699,1.8414 -2.8873,-0.79549 -5.52419,-1.62042 -4.43408,15.99803 -6.09869,21.87577 c 4.78762,1.8414 10.98944,4.2573 10.98944,4.2573 l 0,0 2.76946,1.03119 0.81021,2.87257 34.45617,128.16106 0.75129,2.51903 -1.48784,2.25387 -10.76848,16.33685 51.55905,42.6467 2.31279,-3.52075 1.72355,-2.6958 3.21139,0 162.51411,0 2.87258,0 1.78247,2.29806 c 0,0 3.91849,5.00859 6.96784,8.97127 l 0,0 c 18.35502,-14.49545 37.4024,-29.40338 55.18291,-43.5011 l 0,0 c -3.9179,-5.28849 -9.55993,-13.11073 -9.55993,-13.11073 l 0,0 -1.8414,-2.47483 1.04592,-2.88731 45.62239,-133.72944 0.81021,-2.47483 2.41591,-0.97226 10.29708,-4.55193 -8.73558,-27.50307 -4.37515,-13.64105 -6.15762,2.13602 -2.88731,0.97226 -2.47484,-1.78247 -145.86791,-105.8139 -2.35698,-1.73828 0,-3.04935 0,-9.03019 -35.73779,0 z m -63.06408,194.67223 c 0,-46.904 38.1537,-84.99877 84.98404,-84.99877 l 0,0 c 46.90401,0 85.0577,38.09477 85.0577,84.99877 l 0,0 c 0,22.73017 -8.86815,44.01669 -24.96931,60.07365 l 0,0 c -15.99803,16.05696 -37.35821,24.91039 -60.08839,24.91039 l 0,0 c -46.83034,0 -84.98404,-38.13896 -84.98404,-84.98404" style="fill:url(#radialGradient3009)"/>
</svg>
