<svg xmlns="http://www.w3.org/2000/svg" version="1.1" width="600" height="451.93484">
  <path d="m 599.99999,451.93484 -31.55635,0 -172.07419,0 -19.51229,0 0,-19.50099 c 0,-5.87515 0,-9.76179 -3.61547,-18.09999 -3.93184,-9.12908 -12.71067,-24.14462 -73.25864,-101.64014 -60.46888,77.49552 -69.29291,92.51106 -73.22475,101.64014 -3.61547,8.3382 -3.61547,12.22484 -3.61547,18.09999 l 0,19.50099 -19.4671,0 -172.07419,0 -31.55635,0 14.07777,-28.24592 c 9.79569,-19.50099 31.25129,-23.25205 45.45335,-25.6812 3.00536,-0.53148 5.96554,-1.06205 8.60935,-1.72865 7.6829,-1.88683 38.43706,-40.47077 138.40505,-170.31165 C 106.62272,96.12654 75.86856,57.5539 68.18566,55.65577 65.49665,54.95527 62.58167,54.46944 59.49722,53.93842 45.32906,51.46408 23.91865,47.71302 14.16815,28.24592 L 0,0 l 31.60154,0 172.07419,0 19.4671,0 0,19.51228 c 0,5.86386 0,9.7505 3.61547,18.0887 3.88664,9.14038 12.75587,24.14462 73.22475,101.64014 60.54797,-77.49552 69.372,-92.49976 73.25864,-101.64014 3.61547,-8.3382 3.61547,-12.22484 3.61547,-18.0887 l 0,-19.51228 19.51229,0 172.07419,0 31.55635,0 -14.16815,28.24592 c -9.7053,19.4671 -31.14961,23.21816 -45.31777,25.6925 -3.05056,0.53148 -5.99943,1.01685 -8.65455,1.71735 -7.71679,1.89813 -38.48225,40.47077 -138.40505,170.31165 99.9228,129.84088 130.68826,168.42482 138.40505,170.31165 2.60992,0.66705 5.5588,1.19762 8.56416,1.72865 14.21335,2.42915 35.70286,6.18021 45.45335,25.6812 l 14.12296,28.24592 z" style="fill:#808080"/>
  <path d="M 568.40975,432.43385 C 561.51774,418.66114 540.86432,418.66114 527.1368,415.21514 513.36409,411.78043 506.48338,404.88843 368.82402,225.96742 506.48338,47.04641 513.36409,40.16571 527.1368,36.7197 540.86432,33.285 561.51774,33.285 568.40975,19.51228 l -172.0403,0 c 0,6.88071 0,13.77272 -5.20855,25.77159 -5.11816,12.04406 -15.44487,29.26278 -91.17785,125.60399 C 224.32915,74.54665 214.00244,57.32793 208.83909,45.28387 203.67573,33.285 203.67573,26.39299 203.67573,19.51228 l -172.07419,0 C 38.48225,33.285 59.13567,33.285 72.90838,36.7197 86.6359,40.16571 93.56181,47.04641 231.17597,225.96742 93.56181,404.88843 86.6359,411.78043 72.90838,415.21514 c -13.77271,3.446 -34.42613,3.446 -41.30684,17.21871 l 172.07419,0 c 0,-6.892 0,-13.77271 5.16336,-25.81677 5.16335,-12.05537 15.49006,-29.21759 91.14396,-125.61529 75.73298,96.3977 86.05969,113.55992 91.17785,125.61529 5.20855,12.04406 5.20855,18.92477 5.20855,25.81677 l 172.0403,0 z"/>
</svg>
