<?xml version="1.0" encoding="UTF-8" standalone="no"?>
<svg xmlns="http://www.w3.org/2000/svg" version="1.1" width="600" height="451.93484">
  <linearGradient x1="0" y1="0" x2="1" y2="0" id="linearGradient762" gradientUnits="userSpaceOnUse" gradientTransform="matrix(47.512695,0,0,-47.512695,723.60059,146.51172)" spreadMethod="pad">
    <stop style="stop-color:#8b723c" offset="0"/>
    <stop style="stop-color:#d2bb7b" offset="0.3"/>
    <stop style="stop-color:#ebd491" offset="0.5"/>
    <stop style="stop-color:#d2bb7b" offset="0.7"/>
    <stop style="stop-color:#8b723c" offset="1"/>
  </linearGradient>
  <path d="m 599.9548,451.93484 -31.55635,0 -172.029,0 -19.51229,0 0,-19.50099 c 0,-5.87515 0,-9.76179 -3.61547,-18.09999 -3.93184,-9.12908 -12.75587,-24.14462 -73.26994,-101.64014 -60.45759,77.49552 -69.32681,92.51106 -73.21345,101.64014 -3.61548,8.3382 -3.61548,12.22484 -3.61548,18.09999 l 0,19.50099 -19.51228,0 -172.07419,0 -31.55635,0 14.12296,-28.24592 c 9.75049,-19.50099 31.24,-23.25205 45.45335,-25.6812 3.00536,-0.53148 5.95424,-1.06205 8.60935,-1.72865 7.6377,-1.88683 38.39187,-40.47077 138.35986,-170.31165 C 106.62272,96.12654 75.86856,57.5539 68.14047,55.65577 65.49665,54.95527 62.53648,54.46944 59.48592,53.93842 45.31776,51.46408 23.87345,47.71302 14.12296,28.24592 L 0,0 l 31.55635,0 172.07419,0 19.51229,0 0,19.51228 c 0,5.86386 0,9.7505 3.61547,18.0887 3.88664,9.14038 12.75587,24.14462 73.21345,101.64014 60.51408,-77.49552 69.3833,-92.49976 73.26994,-101.64014 3.61547,-8.3382 3.61547,-12.22484 3.61547,-18.0887 l 0,-19.51228 19.51229,0 172.029,0 31.60154,0 -14.16815,28.24592 c -9.7505,19.4671 -31.16091,23.21816 -45.31777,25.6925 -3.05056,0.53148 -6.01073,1.01685 -8.65455,1.71735 -7.77328,1.89813 -38.52745,40.47077 -138.40505,170.31165 99.9228,129.84088 130.67696,168.42482 138.40505,170.31165 2.59862,0.66705 5.5588,1.19762 8.56416,1.72865 14.16816,2.42915 35.65766,6.18021 45.45335,25.6812 l 14.07777,28.24592 z"/>
  <g transform="matrix(11.298371,0,0,-11.298371,-8143.9224,1881.3144)">
    <path d="m 755.883,164.785 c 0,-0.609 0,-1.219 -0.457,-2.281 l 0,0 c -0.457,-1.066 -1.367,-2.59 -8.071,-11.117 l 0,0 c -6.699,8.527 -7.613,10.051 -8.07,11.117 l 0,0 c -0.457,1.062 -0.457,1.672 -0.457,2.281 l 0,0 -15.226,0 c 0.609,-1.219 2.433,-1.219 3.656,-1.523 l 0,0 c 1.215,-0.305 1.824,-0.914 14.008,-16.75 l 0,0 c -12.184,-15.836 -12.793,-16.446 -14.008,-16.75 l 0,0 c -1.223,-0.305 -3.047,-0.305 -3.656,-1.524 l 0,0 15.226,0 c 0,0.61 0,1.219 0.457,2.285 l 0,0 c 0.457,1.067 1.371,2.586 8.07,11.118 l 0,0 c 6.704,-8.532 7.614,-10.051 8.071,-11.118 l 0,0 c 0.457,-1.066 0.457,-1.675 0.457,-2.285 l 0,0 15.23,0 c -0.609,1.219 -2.437,1.219 -3.656,1.524 l 0,0 c -1.219,0.304 -1.828,0.914 -14.008,16.75 l 0,0 c 12.18,15.836 12.789,16.445 14.008,16.75 l 0,0 c 1.219,0.304 3.047,0.304 3.656,1.523 l 0,0 -15.23,0 z" style="fill:url(#linearGradient762)"/>
  </g>
</svg>
