<?xml version="1.0" encoding="UTF-8" standalone="no"?>
<svg xmlns="http://www.w3.org/2000/svg" version="1.1" width="600" height="451.96039">
  <linearGradient x1="0" y1="0" x2="1" y2="0" id="linearGradient744" gradientUnits="userSpaceOnUse" gradientTransform="matrix(47.512695,0,0,-47.512695,640.19727,146.51172)" spreadMethod="pad">
    <stop style="stop-color:#612c75" offset="0"/>
    <stop style="stop-color:#7b5190" offset="0.3"/>
    <stop style="stop-color:#bf99c3" offset="0.5"/>
    <stop style="stop-color:#7b5190" offset="0.7"/>
    <stop style="stop-color:#612c75" offset="1"/>
  </linearGradient>
  <path d="m 600,451.96038 -31.55813,0 -172.09522,0 -19.50209,0 0,-19.50209 c 0,-5.87549 0,-9.76235 -3.57048,-18.10101 -3.93206,-9.1296 -12.75659,-24.14599 -73.27408,-101.64589 -60.5062,77.4999 -69.34202,92.51629 -73.26278,101.64589 -3.58178,8.33866 -3.58178,12.22552 -3.58178,18.10101 l 0,19.50209 -19.50209,0 -172.09522,0 -31.55813,0 14.12376,-28.24752 c 9.76235,-19.50209 31.25306,-23.25337 45.42202,-25.68265 3.03943,-0.53151 5.95458,-1.06211 8.60985,-1.72875 7.67202,-1.88694 38.43923,-40.47305 138.41286,-170.32127 C 106.64005,96.13197 75.87285,57.55716 68.15563,55.65892 65.45516,54.95838 62.55132,54.47253 59.45539,53.94147 45.28643,51.46699 23.88611,47.71572 14.12376,28.24752 L 0,0 l 31.55813,0 172.09522,0 19.50209,0 0,19.51339 c 0,5.86419 0,9.75105 3.58178,18.08971 C 230.65798,46.744 239.4938,61.74909 300,139.24899 360.51749,61.74909 369.34202,46.744 373.27408,37.6031 c 3.57048,-8.33866 3.57048,-12.22552 3.57048,-18.08971 L 376.84456,0 396.34665,0 568.44187,0 600,0 585.87624,28.24752 c -9.75105,19.4682 -31.20787,23.21947 -45.37682,25.69395 -3.03944,0.5306 -5.99978,1.01691 -8.64375,1.71745 -7.72852,1.89824 -38.49572,40.47305 -138.41286,170.32127 99.96233,129.84822 130.72954,168.43433 138.41286,170.32127 2.59878,0.66619 5.55912,1.19769 8.59855,1.72875 14.16896,2.42928 35.67097,6.18056 45.42202,25.68265 L 600,451.96038 z" fill="#ffffff"/>
  <g transform="matrix(11.299009,0,0,-11.299009,-7202.0113,1881.4207)">
    <path d="m 672.48,164.785 c 0,-0.609 0,-1.219 -0.457,-2.281 l 0,0 c -0.457,-1.066 -1.371,-2.59 -8.07,-11.117 l 0,0 c -6.699,8.527 -7.613,10.051 -8.07,11.117 l 0,0 c -0.457,1.062 -0.457,1.672 -0.457,2.281 l 0,0 -15.231,0 c 0.61,-1.219 2.438,-1.219 3.657,-1.523 l 0,0 c 1.218,-0.305 1.828,-0.914 14.011,-16.75 l 0,0 C 645.68,130.676 645.07,130.066 643.852,129.762 l 0,0 c -1.219,-0.305 -3.047,-0.305 -3.657,-1.524 l 0,0 15.231,0 c 0,0.61 0,1.219 0.457,2.285 l 0,0 c 0.457,1.067 1.371,2.586 8.07,11.118 l 0,0 c 6.699,-8.532 7.613,-10.051 8.07,-11.118 l 0,0 c 0.457,-1.066 0.457,-1.675 0.457,-2.285 l 0,0 15.231,0 c -0.613,1.219 -2.438,1.219 -3.656,1.524 l 0,0 c -1.219,0.304 -1.828,0.914 -14.012,16.75 l 0,0 c 12.184,15.836 12.793,16.445 14.012,16.75 l 0,0 c 1.218,0.304 3.043,0.304 3.656,1.523 l 0,0 -15.231,0 z" style="fill:url(#linearGradient744)"/>
  </g>
</svg>
