<?xml version="1.0" encoding="UTF-8" standalone="no"?>
<svg xmlns="http://www.w3.org/2000/svg" version="1.1" width="600" height="451.93484">
  <path d="M 568.40975,432.43385 C 561.51774,418.66114 540.86432,418.66114 527.1368,415.21514 513.36409,411.78043 506.48338,404.88843 368.82402,225.96742 506.48338,47.04641 513.36409,40.16571 527.1368,36.7197 540.86432,33.285 561.51774,33.285 568.40975,19.51228 l -172.0403,0 c 0,6.88071 0,13.77272 -5.20855,25.77159 -5.11816,12.04406 -15.44487,29.26278 -91.17785,125.60399 C 224.32915,74.54665 214.00244,57.32793 208.83909,45.28387 203.67573,33.285 203.67573,26.39299 203.67573,19.51228 l -172.07419,0 C 38.48225,33.285 59.13567,33.285 72.90838,36.7197 86.6359,40.16571 93.56181,47.04641 231.17597,225.96742 93.56181,404.88843 86.6359,411.78043 72.90838,415.21514 c -13.77271,3.446 -34.42613,3.446 -41.30684,17.21871 l 172.07419,0 c 0,-6.892 0,-13.77271 5.16336,-25.81677 5.16335,-12.05537 15.49006,-29.21759 91.14396,-125.61529 75.73298,96.3977 86.05969,113.55992 91.17785,125.61529 5.20855,12.04406 5.20855,18.92477 5.20855,25.81677 l 172.0403,0 z"/>
</svg>
