<?xml version="1.0" encoding="utf-8"?>
<svg xmlns="http://www.w3.org/2000/svg" xmlns:xlink="http://www.w3.org/1999/xlink" version="1.1" id="Layer_3" x="0px" y="0px" width="300px" height="197px">
  <path d="M292.996,15.908l-15.91-2.288C235.463,7.634,192.705,4.599,150,4.599S64.537,7.634,22.914,13.62  l-15.91,2.288l9.915,13.825c14.92,20.803,27.71,48.381,9.449,95.192l-3.622,9.286l8.505,3.889l115.231,52.692l3.519,1.609  l3.519-1.609L268.75,138.1l8.505-3.889l-3.623-9.286c-18.262-46.811-5.471-74.389,9.449-95.192L292.996,15.908z"/>
  <path fill="#ffffff" d="M300,11.862l-16.689-2.4C239.649,3.184,194.797,0,150,0S60.351,3.184,16.689,9.462L0,11.862l10.401,14.502  c15.651,21.822,29.067,50.751,9.911,99.855l-3.8,9.741l8.922,4.08l120.875,55.273L150,197l3.691-1.688l120.875-55.273l8.922-4.08  l-3.8-9.741c-19.156-49.104-5.739-78.032,9.911-99.855L300,11.862z M207.381,159.381V12.286c25.305,1.548,50.233,4.073,74.682,7.589  c-20.89,29.127-30.124,61.935-11.189,110.472L207.381,159.381z M150,185.62l-36.739-16.8V11.239  c12.167-0.474,24.411-0.737,36.739-0.737s24.572,0.262,36.739,0.737v157.582L150,185.62z M29.125,130.348  C48.06,81.81,38.826,49.002,17.936,19.875c24.449-3.516,49.377-6.041,74.682-7.589v147.095L29.125,130.348z"/>
</svg>
