<?xml version="1.0" encoding="UTF-8" standalone="no"?>
<svg xmlns="http://www.w3.org/2000/svg" version="1.1" width="600" height="674.65002">
  <path d="m 562.50632,674.65003 -525.029511,0 C 16.798786,674.65003 0,657.85124 0,637.24069 l 0,-57.53078 c 0,-20.74549 16.798786,-37.61174 37.476809,-37.61174 l 11.46905,0 C 53.094957,476.60652 95.00759,419.88531 167.93726,381.53146 c 19.36245,-10.13662 25.4343,-18.56974 25.4343,-51.57699 0,-33.34458 -5.21167,-40.7826 -24.32113,-50.80115 C 101.33243,243.51493 60.347445,192.12347 51.526396,132.50127 l -14.049587,0 C 16.798786,132.50127 0,115.76995 0,95.14252 L 0,37.62861 C 0,16.86626 16.798786,0 37.476809,0 L 562.50632,0 C 583.20121,0 600,16.86626 600,37.62861 l 0,57.51391 c 0,20.62743 -16.79879,37.35875 -37.42621,37.35875 l -12.97015,0 c -8.95598,59.75713 -49.8735,111.08113 -117.47343,146.65205 -21.60567,11.33412 -26.54748,20.81295 -26.54748,50.80115 0,33.00725 5.98752,41.44037 25.36684,51.57699 72.99713,38.35385 114.8929,95.07506 119.042,160.56671 l 12.51475,0 c 20.69489,0 37.49368,16.86625 37.49368,37.61174 l 0,57.53078 c 0,20.61055 -16.79879,37.40934 -37.49368,37.40934" style="fill:#808080"/>
  <path d="m 445.30275,167.21201 c -54.81532,19.31186 -88.86828,24.97892 -146.98938,24.57413 -57.17658,-0.31978 -90.58863,-6.18991 -144.4763,-25.4849 -10.33901,-20.42503 -16.73132,-43.88599 -16.73132,-64.17609 l 325.85596,0 c 0,21.87553 -17.65896,65.08686 -17.65896,65.08686 m -65.15433,273.75612 c 51.71193,27.20526 85.3095,66.94215 85.3095,115.29769 0,7.11756 -0.65711,6.8477 -2.04082,16.141 l -67.465,0 C 349.56991,537.81414 317.4903,480.89054 317.4903,404.60449 l -0.45471,-8.18013 c 0,0 28.72322,26.42941 63.11351,44.54377 M 282.71277,406.8983 c 0,76.30292 -32.16394,133.29398 -78.6136,165.50852 l -67.39753,0 c -1.4505,-6.91516 -2.17575,-6.66217 -2.17575,-13.89779 0,-48.30494 33.7325,-88.09243 85.32636,-115.17963 34.59268,-18.11435 63.18098,-46.97251 63.18098,-46.97251 l -0.32114,10.54141 z m 286.97925,-311.75578 0,-57.51391 c 0,-4.03103 -3.15399,-7.31995 -7.18502,-7.31995 l -525.029516,0 c -3.946703,0 -7.168157,3.28892 -7.168157,7.31995 l 0,57.51391 c 0,3.81178 3.221454,7.0501 7.168157,7.0501 l 42.637881,0 -0.06746,5.53213 c 0,65.87957 46.044865,114.57244 103.035925,144.61123 33.07471,17.27104 40.59706,38.28639 40.59706,77.61849 0,38.80924 -8.2476,60.93776 -41.64277,78.46179 -57.12599,29.97133 -103.120254,78.73166 -103.120254,144.54377 0,6.72964 0.472255,13.05448 1.33176,19.44679 l -42.772812,0 c -3.946703,0 -7.168157,3.28892 -7.168157,7.23562 l 0,57.59825 c 0,3.87923 3.221454,7.10069 7.168157,7.10069 l 525.029506,0 c 4.03104,0 7.18503,-3.22146 7.18503,-7.10069 l 0,-57.59825 c 0,-3.9467 -3.15399,-7.23562 -7.18503,-7.23562 l -43.80165,0 c 0.72458,-6.39231 1.31557,-12.71715 1.31557,-19.44679 0,-65.81211 -46.1292,-114.57244 -103.17086,-144.54377 -33.34457,-17.52403 -41.5753,-39.65255 -41.5753,-78.46179 0,-37.8816 8.75358,-59.75713 42.75594,-77.61849 57.05853,-29.97133 103.10339,-78.73166 103.10339,-144.61123 l -0.0675,-5.53213 41.50784,0 c 3.96357,0 7.11756,-3.23832 7.11756,-7.0501"/>
</svg>
