<?xml version="1.0" encoding="UTF-8" standalone="no"?>
<svg xmlns="http://www.w3.org/2000/svg" xmlns:xlink="http://www.w3.org/1999/xlink" version="1.1" width="600" height="674.65002">
  <linearGradient x1="0" y1="0" x2="1" y2="0" id="linearGradient620" gradientUnits="userSpaceOnUse" gradientTransform="matrix(39.479431,-22.793457,-22.793457,-39.479416,146.93262,157.90723)" spreadMethod="pad">
    <stop style="stop-color:#bf331c" offset="0"/>
    <stop style="stop-color:#d3641c" offset="0.3"/>
    <stop style="stop-color:#f6b91d" offset="0.5"/>
    <stop style="stop-color:#d3641c" offset="0.7"/>
    <stop style="stop-color:#bf331c" offset="1"/>
  </linearGradient>
  <linearGradient x1="0" y1="0" x2="1" y2="0" id="linearGradient2991" xlink:href="#linearGradient620" gradientUnits="userSpaceOnUse" gradientTransform="matrix(665.86998,384.44016,-384.44016,665.86973,-32.895598,145.13021)" spreadMethod="pad"/>
  <path d="m 562.50632,674.65003 -525.029511,0 C 16.798786,674.65003 0,657.85124 0,637.24069 l 0,-57.53078 c 0,-20.74549 16.798786,-37.61174 37.476809,-37.61174 l 11.46905,0 C 53.094957,476.60652 95.00759,419.88531 167.93726,381.53146 c 19.36245,-10.13662 25.4343,-18.56974 25.4343,-51.57699 0,-33.34458 -5.21167,-40.7826 -24.32113,-50.80115 C 101.33243,243.51493 60.347445,192.12347 51.526396,132.50127 l -14.049587,0 C 16.798786,132.50127 0,115.76995 0,95.14252 L 0,37.62861 C 0,16.86626 16.798786,0 37.476809,0 L 562.50632,0 C 583.20121,0 600,16.86626 600,37.62861 l 0,57.51391 c 0,20.62743 -16.79879,37.35875 -37.42621,37.35875 l -12.97015,0 c -8.95598,59.75713 -49.8735,111.08113 -117.47343,146.65205 -21.60567,11.33412 -26.54748,20.81295 -26.54748,50.80115 0,33.00725 5.98752,41.44037 25.36684,51.57699 72.99713,38.35385 114.8929,95.07506 119.042,160.56671 l 12.51475,0 c 20.69489,0 37.49368,16.86625 37.49368,37.61174 l 0,57.53078 c 0,20.61055 -16.79879,37.40934 -37.49368,37.40934"/>
  <path d="m 37.476809,30.30866 c -3.946703,0 -7.168157,3.28892 -7.168157,7.31995 l 0,0 0,57.51391 c 0,3.81178 3.221454,7.0501 7.168157,7.0501 l 0,0 42.637882,0 -0.06746,5.53213 c 0,65.81211 46.044869,114.57244 103.035919,144.54377 l 0,0 c 33.07472,17.3385 40.59707,38.35385 40.59707,77.68595 l 0,0 c 0,38.80924 -8.2476,60.93776 -41.64278,78.46179 l 0,0 C 124.91145,438.38759 78.917192,487.08046 78.917192,552.96003 l 0,0 c 0,6.72964 0.472255,13.05448 1.332434,19.44679 l 0,0 -42.772812,0 c -3.946703,0 -7.168157,3.28892 -7.168157,7.23562 l 0,0 0,57.59825 c 0,3.87923 3.221454,7.10069 7.168157,7.10069 l 0,0 525.029506,0 c 4.03104,0 7.18503,-3.22146 7.18503,-7.10069 l 0,0 0,-57.59825 c 0,-3.9467 -3.15399,-7.23562 -7.18503,-7.23562 l 0,0 -43.80165,0 c 0.72525,-6.39231 1.31557,-12.71715 1.31557,-19.44679 l 0,0 c 0,-65.87957 -46.1292,-114.57244 -103.17086,-144.54377 l 0,0 c -33.34457,-17.52403 -41.5753,-39.65255 -41.5753,-78.46179 l 0,0 c 0,-37.81414 8.75358,-59.75713 42.75594,-77.68595 l 0,0 c 57.05853,-29.90387 103.10339,-78.6642 103.10339,-144.54377 l 0,0 -0.0675,-5.53213 41.44037,0 c 4.03104,0 7.18503,-3.23832 7.18503,-7.0501 l 0,0 0,-57.51391 c 0,-4.03103 -3.15399,-7.31995 -7.18503,-7.31995 l 0,0 -525.029506,0 z M 298.31337,191.78614 c -57.17658,-0.32046 -90.58863,-6.18991 -144.4763,-25.4849 l 0,0 c -10.33901,-20.42503 -16.73132,-43.88599 -16.73132,-64.17609 l 0,0 325.85596,0 c 0,21.87553 -17.65896,65.08686 -17.65896,65.08686 l 0,0 c -52.90943,18.65408 -86.43954,24.57413 -140.98499,24.57413 l 0,0 c -1.97335,0 -3.96357,0 -6.00439,0 M 134.52522,558.50903 c 0,-48.30494 33.66503,-88.09243 85.39382,-115.17963 l 0,0 c 34.52522,-18.11435 63.11351,-46.97251 63.11351,-46.97251 l 0,0 -0.32046,10.54141 c 0,76.30292 -32.16394,133.29398 -78.61359,165.50852 l 0,0 -67.39754,0 c -1.4505,-6.91516 -2.17574,-6.66217 -2.17574,-13.89779 m 182.96508,-153.85394 -0.45539,-8.23073 c 0,0 28.72323,26.48001 63.11351,44.61123 l 0,0 c 51.71193,27.07033 85.3095,66.87469 85.3095,115.23023 l 0,0 c 0,7.11755 -0.65779,6.84769 -2.04082,16.141 l 0,0 -67.465,0 C 349.56991,537.81414 317.4903,480.89054 317.4903,404.65509" style="fill:url(#linearGradient2991)"/>
</svg>
