<?xml version="1.0" encoding="UTF-8" standalone="no"?>
<svg xmlns="http://www.w3.org/2000/svg" version="1.1" width="600" height="674.65002">
  <path d="m 445.30275,167.21201 c -54.81532,19.31186 -88.86828,24.97892 -146.98938,24.57413 -57.17658,-0.31978 -90.58863,-6.18991 -144.4763,-25.4849 -10.33901,-20.42503 -16.73132,-43.88599 -16.73132,-64.17609 l 325.85596,0 c 0,21.87553 -17.65896,65.08686 -17.65896,65.08686 m -65.15433,273.75612 c 51.71193,27.20526 85.3095,66.94215 85.3095,115.29769 0,7.11756 -0.65711,6.8477 -2.04082,16.141 l -67.465,0 C 349.56991,537.81414 317.4903,480.89054 317.4903,404.60449 l -0.45471,-8.18013 c 0,0 28.72322,26.42941 63.11351,44.54377 M 282.71277,406.8983 c 0,76.30292 -32.16394,133.29398 -78.6136,165.50852 l -67.39753,0 c -1.4505,-6.91516 -2.17575,-6.66217 -2.17575,-13.89779 0,-48.30494 33.7325,-88.09243 85.32636,-115.17963 34.59268,-18.11435 63.18098,-46.97251 63.18098,-46.97251 l -0.32114,10.54141 z m 286.97925,-311.75578 0,-57.51391 c 0,-4.03103 -3.15399,-7.31995 -7.18502,-7.31995 l -525.029516,0 c -3.946703,0 -7.168157,3.28892 -7.168157,7.31995 l 0,57.51391 c 0,3.81178 3.221454,7.0501 7.168157,7.0501 l 42.637881,0 -0.06746,5.53213 c 0,65.87957 46.044865,114.57244 103.035925,144.61123 33.07471,17.27104 40.59706,38.28639 40.59706,77.61849 0,38.80924 -8.2476,60.93776 -41.64277,78.46179 -57.12599,29.97133 -103.120254,78.73166 -103.120254,144.54377 0,6.72964 0.472255,13.05448 1.33176,19.44679 l -42.772812,0 c -3.946703,0 -7.168157,3.28892 -7.168157,7.23562 l 0,57.59825 c 0,3.87923 3.221454,7.10069 7.168157,7.10069 l 525.029506,0 c 4.03104,0 7.18503,-3.22146 7.18503,-7.10069 l 0,-57.59825 c 0,-3.9467 -3.15399,-7.23562 -7.18503,-7.23562 l -43.80165,0 c 0.72458,-6.39231 1.31557,-12.71715 1.31557,-19.44679 0,-65.81211 -46.1292,-114.57244 -103.17086,-144.54377 -33.34457,-17.52403 -41.5753,-39.65255 -41.5753,-78.46179 0,-37.8816 8.75358,-59.75713 42.75594,-77.61849 57.05853,-29.97133 103.10339,-78.73166 103.10339,-144.61123 l -0.0675,-5.53213 41.50784,0 c 3.96357,0 7.11756,-3.23832 7.11756,-7.0501"/>
</svg>
