<?xml version="1.0" encoding="UTF-8" standalone="no"?>
<svg
   xmlns:dc="http://purl.org/dc/elements/1.1/"
   xmlns:cc="http://creativecommons.org/ns#"
   xmlns:rdf="http://www.w3.org/1999/02/22-rdf-syntax-ns#"
   xmlns:svg="http://www.w3.org/2000/svg"
   xmlns="http://www.w3.org/2000/svg"
   xmlns:xlink="http://www.w3.org/1999/xlink"
   height="480"
   width="737"
   version="1.1">
  <path
     d="M 368.5,0 C 268.01533,82.89305 159.71413,163.67546 0,240 159.71413,316.32457 268.01533,397.10695 368.5,480 468.9847,397.10695 577.2859,316.32457 737,240 577.2859,163.67544 468.9847,82.89305 368.5,0 Z m 0,191.5 A 48.5,48.5 0 0 1 417,240 48.5,48.5 0 0 1 368.5,288.5 48.5,48.5 0 0 1 320,240 48.5,48.5 0 0 1 368.5,191.5 Z"
     style="fill:#808080" />
  <path
     d="m 368.5,31.4668 c -46.58543,38.02863 -95.25219,75.59036 -150.23633,112.45313 0.0806,21.4435 5.32793,42.61726 15.40625,61.90429 3.41163,6.52004 7.33594,12.72847 11.70117,18.63477 C 283.39932,190.03153 335.09077,169.50003 368.5,169.5 c 38.93607,0 70.5325,31.56393 70.5,70.5 -0.01,11.07349 -2.6915,21.98128 -7.73438,31.83985 31.08438,-13.44664 56.68028,-36.61257 72.06448,-66.01367 10.0786,-19.28762 15.326,-40.46209 15.4062,-61.90625 C 463.7522,107.05716 415.08543,69.49543 368.5,31.4668 Z M 196.34766,158.34376 C 153.57141,186.00894 106.89587,213.26136 54.47852,240 c 52.41735,26.73868 99.09289,53.99105 141.86914,81.65626 -7.4e-4,-30.94887 13.54857,-58.64741 33.6875,-81.65626 -20.13896,-23.0088 -33.68824,-50.70861 -33.6875,-81.65624 z m 344.30464,0 c 8e-4,30.94886 -13.5485,58.6474 -33.6875,81.65624 20.139,23.00881 33.6883,50.70863 33.6875,81.65626 C 583.4286,293.99107 630.1041,266.73865 682.5215,240 630.1041,213.26133 583.4286,186.00896 540.6523,158.34376 Z m -234.91792,49.8164 c -31.0844,13.44664 -56.68024,36.61257 -72.06446,66.01367 -10.07862,19.28762 -15.326,40.46209 -15.40625,61.90625 54.98414,36.86277 103.6509,74.4245 150.23633,112.45313 46.58543,-38.02863 95.2522,-75.59036 150.2363,-112.45313 -0.081,-21.4435 -5.3279,-42.61726 -15.4062,-61.90429 -3.4116,-6.52004 -7.336,-12.72847 -11.7012,-18.63477 C 453.6007,289.96848 401.90923,310.49998 368.5,310.5 c -38.93607,10e-6 -70.53254,-31.56393 -70.5,-70.5 0.009,-11.07348 2.69146,-21.98127 7.73438,-31.83984 z"
     style="fill:#000000" />
</svg>
