<?xml version="1.0" encoding="UTF-8"?>
<svg xmlns="http://www.w3.org/2000/svg" width="150pt" height="103pt" viewBox="0 0 150 103">
  <g>
    <linearGradient id="SVGID_1_" gradientUnits="userSpaceOnUse" x1="177" y1="184" x2="-80" y2="-28">
      <stop style="stop-color:#612c75" offset="0"/>
      <stop style="stop-color:#7b5190" offset="0.3"/>
      <stop style="stop-color:#bf99c3" offset="0.5"/>
      <stop style="stop-color:#7b5190" offset="0.7"/>
      <stop style="stop-color:#612c75" offset="1"/>
    </linearGradient>
    <path fill="#ffffff" d=" M 49.74 6.51 C 66.01 6.50 82.27 6.49 98.54 6.52 C 93.72 16.41 89.09 26.39 84.28 36.28 C 88.91 48.13 93.67 59.92 98.33 71.76 C 94.79 71.83 91.26 71.91 87.72 72.07 C 90.40 82.35 92.70 92.72 95.34 103.00 L 93.80 103.00 C 80.24 84.95 66.86 66.76 53.32 48.69 C 58.94 48.78 64.55 48.95 70.17 49.03 C 63.42 34.83 56.51 20.70 49.74 6.51 M 54.44 9.70 C 61.33 23.90 68.15 38.12 74.95 52.36 C 69.80 52.30 64.65 52.08 59.49 52.06 C 69.69 65.50 79.62 79.15 89.77 92.63 C 88.07 84.67 85.90 76.82 84.11 68.89 C 87.39 68.80 90.68 68.74 93.97 68.63 C 89.75 57.80 85.39 47.03 81.14 36.22 C 85.32 27.36 89.60 18.56 93.78 9.70 C 80.67 9.69 67.55 9.68 54.44 9.70 Z"/>
    <path fill="#ffffff" d=" M 108.31 10.88 C 117.95 15.06 126.34 21.91 132.81 30.16 C 142.54 42.61 147.84 58.03 150.00 73.56 L 150.00 74.23 C 146.85 74.87 143.29 75.56 141.33 78.40 C 137.88 83.19 138.90 89.47 139.78 94.91 C 131.72 94.91 123.66 94.91 115.61 94.91 C 115.32 84.88 114.49 74.76 111.55 65.11 C 108.57 55.08 102.66 45.18 92.98 40.42 C 97.88 30.47 103.23 20.74 108.31 10.88 M 109.43 14.95 C 105.32 23.00 100.99 30.94 96.91 39.00 C 100.35 41.17 103.33 44.01 105.83 47.21 C 115.43 59.86 117.62 76.29 118.31 91.71 C 124.34 91.72 130.38 91.72 136.41 91.71 C 135.86 86.49 135.89 80.65 139.20 76.26 C 141.00 73.71 143.93 72.37 146.84 71.56 C 145.23 61.18 142.02 51.01 136.95 41.79 C 130.71 30.41 121.25 20.53 109.43 14.95 Z"/>
    <path fill="#ffffff" d=" M 11.82 38.76 C 18.72 27.05 29.05 17.03 41.70 11.77 C 46.75 21.65 51.99 31.44 56.99 41.35 C 51.42 44.13 46.75 48.52 43.64 53.91 C 36.25 66.45 34.80 81.37 34.39 95.62 C 26.33 95.63 18.28 95.63 10.22 95.62 C 11.04 90.23 12.09 84.03 8.77 79.23 C 6.82 76.31 3.20 75.58 0.00 74.90 L 0.00 74.45 C 1.65 61.96 5.41 49.65 11.82 38.76 M 29.58 22.64 C 14.40 34.68 6.06 53.46 3.16 72.26 C 6.12 73.09 9.10 74.48 10.88 77.09 C 14.09 81.48 14.12 87.23 13.59 92.41 C 19.62 92.39 25.66 92.42 31.69 92.39 C 32.04 84.12 32.84 75.84 34.93 67.81 C 37.70 56.97 43.15 45.96 53.03 39.98 C 49.02 31.91 44.61 24.05 40.66 15.95 C 36.51 17.27 33.03 20.08 29.58 22.64 Z"/>
  </g>
  <g>
    <path fill="url(#SVGID_1_)" d=" M 54.44 9.70 C 67.55 9.68 80.67 9.69 93.78 9.70 C 89.60 18.56 85.32 27.36 81.14 36.22 C 85.39 47.03 89.75 57.80 93.97 68.63 C 90.68 68.74 87.39 68.80 84.11 68.89 C 85.90 76.82 88.07 84.67 89.77 92.63 C 79.62 79.15 69.69 65.50 59.49 52.06 C 64.65 52.08 69.80 52.30 74.95 52.36 C 68.15 38.12 61.33 23.90 54.44 9.70 Z"/>
    <path fill="url(#SVGID_1_)" d=" M 109.43 14.95 C 121.25 20.53 130.71 30.41 136.95 41.79 C 142.02 51.01 145.23 61.18 146.84 71.56 C 143.93 72.37 141.00 73.71 139.20 76.26 C 135.89 80.65 135.86 86.49 136.41 91.71 C 130.38 91.72 124.34 91.72 118.31 91.71 C 117.62 76.29 115.43 59.86 105.83 47.21 C 103.33 44.01 100.35 41.17 96.91 39.00 C 100.99 30.94 105.32 23.00 109.43 14.95 Z"/>
    <path fill="url(#SVGID_1_)" d=" M 29.58 22.64 C 33.03 20.08 36.51 17.27 40.66 15.95 C 44.61 24.05 49.02 31.91 53.03 39.98 C 43.15 45.96 37.70 56.97 34.93 67.81 C 32.84 75.84 32.04 84.12 31.69 92.39 C 25.66 92.42 19.62 92.39 13.59 92.41 C 14.12 87.23 14.09 81.48 10.88 77.09 C 9.10 74.48 6.12 73.09 3.16 72.26 C 6.06 53.46 14.40 34.68 29.58 22.64 Z"/>
  </g>
</svg>
