<?xml version="1.0" encoding="UTF-8"?>
<svg xmlns="http://www.w3.org/2000/svg" width="150pt" height="103pt" viewBox="0 0 150 103">
  <g>
    <path d=" M 54.44 9.70 C 67.55 9.68 80.67 9.69 93.78 9.70 C 89.60 18.56 85.32 27.36 81.14 36.22 C 85.39 47.03 89.75 57.80 93.97 68.63 C 90.68 68.74 87.39 68.80 84.11 68.89 C 85.90 76.82 88.07 84.67 89.77 92.63 C 79.62 79.15 69.69 65.50 59.49 52.06 C 64.65 52.08 69.80 52.30 74.95 52.36 C 68.15 38.12 61.33 23.90 54.44 9.70 Z"/>
    <path d=" M 109.43 14.95 C 121.25 20.53 130.71 30.41 136.95 41.79 C 142.02 51.01 145.23 61.18 146.84 71.56 C 143.93 72.37 141.00 73.71 139.20 76.26 C 135.89 80.65 135.86 86.49 136.41 91.71 C 130.38 91.72 124.34 91.72 118.31 91.71 C 117.62 76.29 115.43 59.86 105.83 47.21 C 103.33 44.01 100.35 41.17 96.91 39.00 C 100.99 30.94 105.32 23.00 109.43 14.95 Z"/>
    <path d=" M 29.58 22.64 C 33.03 20.08 36.51 17.27 40.66 15.95 C 44.61 24.05 49.02 31.91 53.03 39.98 C 43.15 45.96 37.70 56.97 34.93 67.81 C 32.84 75.84 32.04 84.12 31.69 92.39 C 25.66 92.42 19.62 92.39 13.59 92.41 C 14.12 87.23 14.09 81.48 10.88 77.09 C 9.10 74.48 6.12 73.09 3.16 72.26 C 6.06 53.46 14.40 34.68 29.58 22.64 Z"/>
  </g>
</svg>
