<?xml version="1.0" encoding="UTF-8" standalone="no"?>
<svg xmlns="http://www.w3.org/2000/svg" width="54.164257" height="52.799" version="1.1">
  <path style="stroke:#808080;stroke-width:2.79999995" d="m 46.523,40.499 c 0.354,0.053 0.729,0.12 1.108,0.197 -4.521,6.462 -12.02,10.703 -20.488,10.703 -8.244,0 -15.569,-4.017 -20.128,-10.192 1.9260991,-0.474121 3.468291,-0.14801 5.149,-0.25 3.804,3.911 9.107,6.351 14.979,6.351 6.034,0 11.463,-2.584 15.283,-6.686 1.505,-0.211 2.858,-0.198 4.097,-0.123 M 5.037,33.615 C 5.6951875,32.432094 6.1416073,31.04135 6.558,29.936 6.359,28.783 6.236,27.605 6.236,26.398 c 0,-4.132 1.218,-7.976 3.293,-11.22 -0.597,-0.386 -0.996,-1.055 -0.996,-1.803 0.4612011,-1.659578 1.722652,-3.374597 3.209,-3.604 0.863594,-0.00714 1.781804,0.1122785 2.542,0.176 3.551,-2.784 8.01,-4.459 12.86,-4.459 4.446,0 8.564,1.404 11.956,3.783 0.865,-0.042 1.497,0.248 1.904,0.562 0.439,0.336 0.945,0.946 1.103,1.993 3.671,3.772 5.946,8.908 5.946,14.574 0,0.677 -0.04,1.345 -0.104,2.006 0.535,1.553 1.018,3.127 1.415,4.678 0.199,0.591 0.652,1.015 1.38,1.558 0.902,-2.583 1.403,-5.357 1.403,-8.242 0,-13.785 -11.217,-25 -25.003,-25 -13.785,0 -25.002,11.215 -25.002,25 0,3.183 0.604,6.226 1.693,9.03 0.419,-0.55 0.908375,-1.31825 1.311375,-1.97125 M 52.493,37.713 c -0.647,-0.68 -1.34,-1.175 -2.009,-1.657 -1.052,-0.759 -1.961,-1.412 -2.35,-2.565 -1.571,-6.228 -4.601,-12.891 -6.923,-17.07 -0.194,-0.831 -0.253,-1.716 -0.304,-2.576 0.0388,-1.095247 -0.214113,-2.075649 -0.687,-2.986 -0.729,-0.56 -1.651,-0.221 -1.953,-0.109 -0.474,0.17 -1.018,0.09 -1.651,0 l -3.181,-0.365 -1.889,-0.16 c -0.794,0 -1.374,0.685 -1.576,1.321 -0.06148,0.184662 -0.06057,0.394391 -0.088,0.573 0.008,0.493 0.231,0.927 0.623,1.188 0.718863,0.474285 1.4292,0.961233 2.141,1.446 0.2175,0.3245 0.589,0.951 0.589,1.46 -0.730724,1.022348 -1.420967,2.148077 -2.198,2.989 -0.178,0.184 -0.471,0.488 -0.557,1.021 0.71695,1.590135 0.7427,1.627486 -0.776,0.658 -0.577,-0.136 -1.126,0.042 -1.468,0.474 -0.233584,0.4168 -0.415125,0.881243 -0.617,1.305 -0.011,-0.005 -0.021,-0.005 -0.035,-0.013 -0.352,-0.613 -1.662,-2.893 -1.662,-2.893 -3.401,-6.018 -5.063,-8.654 -6.662,-8.601 -2.707687,0.249164 -5.219783,0.08738 -7.371,-0.096 -0.956,0.109 -2.067,1.42 -2.067,2.192 0.060676,0.619495 0.51856,0.779239 0.874,1 1.993,0.271 2.155,0.956 2.155,1.758 -0.267298,1.468597 -0.896649,3.016434 -1.61,4.214 -0.082,0.133 -0.146,0.362 -0.146,0.52 0,0.647 1.164,1.537 1.164,1.537 v 0 c 0.463,0.093 -1.734,0.392 -1.857,0.621 C 9.0470823,26.88276 7.6638795,30.7678 6.134,34.3 5.089,35.991 4.107,37.587 2.156,38.474 1.5862754,38.78555 1.5189992,39.405177 1.4,39.902 c 0,0.408 0.131,0.802 0.362,1.111 0.416,0.543 1.09,0.746 1.721,0.514 2.5968335,-1.329789 5.6979302,-2.038032 8.267,-1.8 0.897114,-0.457831 1.287535,-0.730467 1.366,-1.67 -0.268857,-1.265628 -0.836298,-1.66709 -1.863,-2.049 -0.016,-0.181 -0.106,-1.223 -0.106,-1.223 0,-2.571 1.116,-5.732 3.41,-9.662 0.223347,-0.324682 0.116387,-0.79079 0.095,-1.21 -0.173,-0.413 -1.079,-1.095 -1.079,-1.095 0,0 1.503,-0.051 1.929,-0.56 0.463527,-0.60379 0.80839,-1.334224 1.11,-1.953 0.136,0.053 0.264,0.104 0.264,0.104 4.134,1.963 7.951,15.922 8.343,20.312 0.445139,1.228381 0.73615,1.715772 1.963,1.799 0.680173,-0.269255 1.172717,-0.834297 1.788,-1.375 l 3.303,-3.037 c 0.808767,-0.618843 1.141903,-1.792153 1.103,-2.357 -0.61844,-1.446725 -1.215205,-2.958453 -1.875,-4.222 -0.376,-0.746 -0.56,-1.462 -0.56,-2.176 0,-0.826 0.234,-1.59 0.506,-2.477 0.379162,-1.263853 0.604251,-2.302699 0.659,-3.41 -0.877982,-1.603856 -0.740137,-1.48172 0.448,-0.52 0,0 0.669,0.187 1.119,0.059 0.271923,-0.09372 0.386132,-0.246058 0.623,-0.397 0.203,0.029 0.464,0.128 0.746,0.607 1.79,2.877 3.266,6.19 4.393,9.859 0.182,0.884 0.27,1.54 0.27,2.048 0.05998,0.694845 -0.237681,0.920074 -0.6,1.362 -0.592,0.527 -1.198,1.068 -1.71,1.364 -0.2,0.117 -0.397,0.335 -0.456,0.559 -0.204018,0.678898 -0.223871,1.144174 0.224,1.815 0.807861,0.663358 1.254331,0.510745 2.081,0.322 0.572,-0.458 1.343,-0.821 2.354,-1.114 1.905,-0.341 3.564,-0.309 5.062,-0.218 1.1,0.168 2.464,0.405 3.777,0.999 0.034,0.013 0.072,0.026 0.109,0.04 0.802,0.234 1.574,0.029 2.017,-0.533 0.36373,-0.704674 0.278012,-1.092279 0.077,-1.811 -0.041,-0.136 -0.047,-0.091 -0.147,-0.194"/>
  <path d="m 46.523,40.499 c 0.354,0.053 0.729,0.12 1.108,0.197 -4.521,6.462 -12.02,10.703 -20.488,10.703 -8.244,0 -15.569,-4.017 -20.128,-10.192 1.9260991,-0.474121 3.468291,-0.14801 5.149,-0.25 3.804,3.911 9.107,6.351 14.979,6.351 6.034,0 11.463,-2.584 15.283,-6.686 1.505,-0.211 2.858,-0.198 4.097,-0.123 M 5.037,33.615 C 5.6951875,32.432094 6.1416073,31.04135 6.558,29.936 6.359,28.783 6.236,27.605 6.236,26.398 c 0,-4.132 1.218,-7.976 3.293,-11.22 -0.597,-0.386 -0.996,-1.055 -0.996,-1.803 0.4612011,-1.659578 1.722652,-3.374597 3.209,-3.604 0.863594,-0.00714 1.781804,0.1122785 2.542,0.176 3.551,-2.784 8.01,-4.459 12.86,-4.459 4.446,0 8.564,1.404 11.956,3.783 0.865,-0.042 1.497,0.248 1.904,0.562 0.439,0.336 0.945,0.946 1.103,1.993 3.671,3.772 5.946,8.908 5.946,14.574 0,0.677 -0.04,1.345 -0.104,2.006 0.535,1.553 1.018,3.127 1.415,4.678 0.199,0.591 0.652,1.015 1.38,1.558 0.902,-2.583 1.403,-5.357 1.403,-8.242 0,-13.785 -11.217,-25 -25.003,-25 -13.785,0 -25.002,11.215 -25.002,25 0,3.183 0.604,6.226 1.693,9.03 0.419,-0.55 0.908375,-1.31825 1.311375,-1.97125 M 52.493,37.713 c -0.647,-0.68 -1.34,-1.175 -2.009,-1.657 -1.052,-0.759 -1.961,-1.412 -2.35,-2.565 -1.571,-6.228 -4.601,-12.891 -6.923,-17.07 -0.194,-0.831 -0.253,-1.716 -0.304,-2.576 0.0388,-1.095247 -0.214113,-2.075649 -0.687,-2.986 -0.729,-0.56 -1.651,-0.221 -1.953,-0.109 -0.474,0.17 -1.018,0.09 -1.651,0 l -3.181,-0.365 -1.889,-0.16 c -0.794,0 -1.374,0.685 -1.576,1.321 -0.06148,0.184662 -0.06057,0.394391 -0.088,0.573 0.008,0.493 0.231,0.927 0.623,1.188 0.718863,0.474285 1.4292,0.961233 2.141,1.446 0.2175,0.3245 0.589,0.951 0.589,1.46 -0.730724,1.022348 -1.420967,2.148077 -2.198,2.989 -0.178,0.184 -0.471,0.488 -0.557,1.021 0.71695,1.590135 0.7427,1.627486 -0.776,0.658 -0.577,-0.136 -1.126,0.042 -1.468,0.474 -0.233584,0.4168 -0.415125,0.881243 -0.617,1.305 -0.011,-0.005 -0.021,-0.005 -0.035,-0.013 -0.352,-0.613 -1.662,-2.893 -1.662,-2.893 -3.401,-6.018 -5.063,-8.654 -6.662,-8.601 -2.707687,0.249164 -5.219783,0.08738 -7.371,-0.096 -0.956,0.109 -2.067,1.42 -2.067,2.192 0.060676,0.619495 0.51856,0.779239 0.874,1 1.993,0.271 2.155,0.956 2.155,1.758 -0.267298,1.468597 -0.896649,3.016434 -1.61,4.214 -0.082,0.133 -0.146,0.362 -0.146,0.52 0,0.647 1.164,1.537 1.164,1.537 v 0 c 0.463,0.093 -1.734,0.392 -1.857,0.621 C 9.0470823,26.88276 7.6638795,30.7678 6.134,34.3 5.089,35.991 4.107,37.587 2.156,38.474 1.5862754,38.78555 1.5189992,39.405177 1.4,39.902 c 0,0.408 0.131,0.802 0.362,1.111 0.416,0.543 1.09,0.746 1.721,0.514 2.5968335,-1.329789 5.6979302,-2.038032 8.267,-1.8 0.897114,-0.457831 1.287535,-0.730467 1.366,-1.67 -0.268857,-1.265628 -0.836298,-1.66709 -1.863,-2.049 -0.016,-0.181 -0.106,-1.223 -0.106,-1.223 0,-2.571 1.116,-5.732 3.41,-9.662 0.223347,-0.324682 0.116387,-0.79079 0.095,-1.21 -0.173,-0.413 -1.079,-1.095 -1.079,-1.095 0,0 1.503,-0.051 1.929,-0.56 0.463527,-0.60379 0.80839,-1.334224 1.11,-1.953 0.136,0.053 0.264,0.104 0.264,0.104 4.134,1.963 7.951,15.922 8.343,20.312 0.445139,1.228381 0.73615,1.715772 1.963,1.799 0.680173,-0.269255 1.172717,-0.834297 1.788,-1.375 l 3.303,-3.037 c 0.808767,-0.618843 1.141903,-1.792153 1.103,-2.357 -0.61844,-1.446725 -1.215205,-2.958453 -1.875,-4.222 -0.376,-0.746 -0.56,-1.462 -0.56,-2.176 0,-0.826 0.234,-1.59 0.506,-2.477 0.379162,-1.263853 0.604251,-2.302699 0.659,-3.41 -0.877982,-1.603856 -0.740137,-1.48172 0.448,-0.52 0,0 0.669,0.187 1.119,0.059 0.271923,-0.09372 0.386132,-0.246058 0.623,-0.397 0.203,0.029 0.464,0.128 0.746,0.607 1.79,2.877 3.266,6.19 4.393,9.859 0.341959,1.319112 0.365307,2.440339 -0.33,3.41 -0.592,0.527 -1.198,1.068 -1.71,1.364 -0.2,0.117 -0.397,0.335 -0.456,0.559 -0.204018,0.678898 -0.223871,1.144174 0.224,1.815 0.807861,0.663358 1.254331,0.510745 2.081,0.322 0.572,-0.458 1.343,-0.821 2.354,-1.114 1.905,-0.341 3.564,-0.309 5.062,-0.218 1.1,0.168 2.464,0.405 3.777,0.999 0.034,0.013 0.072,0.026 0.109,0.04 0.802,0.234 1.574,0.029 2.017,-0.533 0.36373,-0.704674 0.278012,-1.092279 0.077,-1.811 -0.041,-0.136 -0.047,-0.091 -0.147,-0.194"/>
</svg>
