<?xml version="1.0" encoding="utf-8"?>
<svg xmlns="http://www.w3.org/2000/svg" xmlns:xlink="http://www.w3.org/1999/xlink" version="1.1" id="Layer_1" x="0px" y="0px" width="51.484px" height="50px">
  <g>
    <path fill="#612c75" d="M45.123,39.099c0.354,0.053,0.729,0.12,1.108,0.197c-4.521,6.462-12.02,10.703-20.488,10.703   c-8.244,0-15.569-4.017-20.128-10.192c1.244-0.333,2.686-0.405,4.358-0.202c-0.008,0,0.498,0.008,0.498,0.008   c0.102-0.011,0.197-0.037,0.293-0.056c3.804,3.911,9.107,6.351,14.979,6.351c6.034,0,11.463-2.584,15.283-6.686   C42.531,39.011,43.884,39.024,45.123,39.099 M3.637,32.215c0,0,0.178-0.28,0.258-0.416c0.45-1.132,0.866-2.208,1.263-3.263   c-0.199-1.153-0.322-2.331-0.322-3.538c0-4.132,1.218-7.976,3.293-11.22c-0.597-0.386-0.996-1.055-0.996-1.803v-0.128   c0-1.484,1.683-3.3,3.209-3.476c0,0,0.478-0.003,0.482-0.003c0.746,0.069,1.417,0.131,2.06,0.179   c3.551-2.784,8.01-4.459,12.86-4.459c4.446,0,8.564,1.404,11.956,3.783c0.865-0.042,1.497,0.248,1.904,0.562   c0.439,0.336,0.945,0.946,1.103,1.993c3.671,3.772,5.946,8.908,5.946,14.574c0,0.677-0.04,1.345-0.104,2.006   c0.535,1.553,1.018,3.127,1.415,4.678c0.199,0.591,0.652,1.015,1.38,1.558c0.902-2.583,1.403-5.357,1.403-8.242   c0-13.785-11.217-25-25.003-25c-13.785,0-25.002,11.215-25.002,25c0,3.183,0.604,6.226,1.693,9.03   C2.854,33.48,3.234,32.868,3.637,32.215 M51.093,36.313c-0.647-0.68-1.34-1.175-2.009-1.657c-1.052-0.759-1.961-1.412-2.35-2.565   c-1.571-6.228-4.601-12.891-6.923-17.07c-0.194-0.831-0.253-1.716-0.304-2.576c0-0.021-0.057-0.839-0.059-0.927   c0.002-0.078,0.021-0.418,0.021-0.421c0-0.775-0.218-1.308-0.649-1.638c-0.729-0.56-1.651-0.221-1.953-0.109   c-0.474,0.17-1.018,0.09-1.651,0c0.027,0.002-3.181-0.365-3.181-0.365c0.003,0-1.889-0.16-1.889-0.16   c-0.794,0-1.374,0.685-1.576,1.321c-0.014,0.04-0.024,0.085-0.029,0.128l-0.051,0.304c-0.006,0.048-0.008,0.093-0.008,0.141   c0.008,0.493,0.231,0.927,0.623,1.188l0.783,0.522c-0.006-0.005,1.058,0.719,1.358,0.924c0.405,0.512,0.589,0.951,0.589,1.46v0.019   c-0.091,0.141-0.245,0.378-0.245,0.378c-0.563,0.874-1.09,1.697-1.721,2.336c-0.032,0.032-0.232,0.256-0.232,0.256   c-0.178,0.184-0.471,0.488-0.557,1.021c-0.008,0.045-0.011,0.09-0.011,0.136c0,0.498,0.259,0.967,0.647,1.433   c-0.434-0.448-0.94-0.802-1.412-0.911c-0.577-0.136-1.126,0.042-1.468,0.474c-0.056,0.072-0.125,0.195-0.156,0.283   c-0.185,0.514-0.339,0.817-0.461,1.022c-0.011-0.005-0.021-0.005-0.035-0.013c-0.352-0.613-1.662-2.893-1.662-2.893   c-3.401-6.018-5.063-8.654-6.662-8.601c-2.589,0.301-4.428,0.162-7.16-0.096c-0.059-0.008-0.152-0.008-0.211,0   c-0.956,0.109-2.067,1.42-2.067,2.192v0.128c0,0.429,0.314,0.794,0.741,0.853l0.133,0.019c1.993,0.271,2.155,0.956,2.155,1.758   c0,0-0.011,0.181-0.016,0.29c-0.52,1.979-1.074,3.058-1.594,3.924c-0.082,0.133-0.146,0.362-0.146,0.52   c0,0.647,0.552,1.167,1.164,1.537c-0.159-0.032-0.319-0.085-0.463-0.093c-0.89-0.04-1.271,0.485-1.394,0.714   c-0.026,0.045-0.063,0.139-0.082,0.189c-1.068,3.351-2.299,6.753-3.868,10.698C4.989,32.487,4.734,32.9,4.734,32.9   c-1.045,1.691-2.027,3.287-3.978,4.174c-0.139,0.061-0.314,0.208-0.405,0.33C0.123,37.727,0,38.105,0,38.502   c0,0.408,0.131,0.802,0.362,1.111c0.416,0.543,1.09,0.746,1.721,0.514c0.083-0.032,0.197-0.093,0.267-0.149   c1.953-1.507,4.497-2.048,7.776-1.654c0.063,0.005,0.159,0.008,0.224,0.003c0.743-0.069,1.292-0.679,1.358-1.521   c0-0.011,0.008-0.149,0.008-0.149c0-0.881-0.49-1.574-1.22-1.761c-0.043-0.011-0.086-0.016-0.131-0.024   c-0.338-0.029-0.432-0.128-0.512-0.264c-0.016-0.181-0.106-1.223-0.106-1.223c0-2.571,1.116-5.732,3.41-9.662   c0.051-0.085,0.053-0.059,0.071-0.155l0.112-0.599c0.005-0.035,0.008-0.051,0.008-0.059c0-0.019-0.011-0.016-0.021-0.083   l-0.019-0.12c-0.011-0.066-0.032-0.13-0.056-0.194c-0.173-0.413-0.594-0.791-1.079-1.095c0.799,0.146,1.503-0.051,1.929-0.56   l0.325-0.472l0.231-0.381l0.146-0.231l0.211-0.386c0.016-0.029,0.04-0.08,0.051-0.112c0,0,0.136-0.352,0.146-0.371   c0.136,0.053,0.264,0.104,0.264,0.104c4.134,1.963,7.951,15.922,8.343,20.312v0.011c0,0.749,0.429,1.457,1.092,1.729   c0.003,0,0.871,0.059,0.871,0.059c0.184,0.013,0.115-0.014,0.27-0.115l0.33-0.216l1.188-1.044l3.303-3.037   c0.815-0.578,1.002-1.425,1.101-1.88c0.013-0.067,0.021-0.157,0.021-0.248c0-0.083-0.008-0.167-0.019-0.229l-0.011-0.029   c-0.008-0.04-0.019-0.072-0.034-0.109c-0.501-1.279-1.073-2.659-1.83-4.084c-0.376-0.746-0.56-1.462-0.56-2.176   c0-0.826,0.234-1.59,0.506-2.477c0.288-0.943,0.584-1.913,0.677-3.114c0.003-0.016,0.003-0.04,0.003-0.061   c0-0.078-0.005-0.168-0.021-0.235c-0.106-0.484-0.41-0.991-0.786-1.436c0.08,0.08,0.115,0.163,0.208,0.242   c0.008,0.008,0.136,0.12,0.136,0.12c0.009,0.005,0.89,0.554,0.89,0.554c0.131,0.042,0.669,0.187,1.119,0.059   c0.006-0.003,0.008-0.003,0.011-0.005c-0.003,0-0.005,0.002-0.008,0.005c0.109-0.032,0.21-0.085,0.301-0.155   c0.109-0.075,0.213-0.16,0.319-0.242c0.203,0.029,0.464,0.128,0.746,0.607c1.79,2.877,3.266,6.19,4.393,9.859   c0.182,0.884,0.27,1.54,0.27,2.048c0,0.695-0.171,0.961-0.302,1.103l-0.298,0.259c-0.592,0.527-1.198,1.068-1.71,1.364   c-0.2,0.117-0.397,0.335-0.456,0.559l-0.013,0.064c0.002-0.01-0.109,0.728-0.109,0.728l0.346,1.023   c0.336,0.405,0.851,0.586,1.524,0.538c0.173-0.011,0.421-0.109,0.557-0.216c0.572-0.458,1.343-0.821,2.354-1.114   c1.905-0.341,3.564-0.309,5.062-0.218c1.1,0.168,2.464,0.405,3.777,0.999c0.034,0.013,0.072,0.026,0.109,0.04   c0.802,0.234,1.574,0.029,2.017-0.533c0.002-0.003,0.322-0.935,0.322-0.935l-0.245-0.876   C51.199,36.371,51.193,36.416,51.093,36.313"/>
    <path fill="url(#SVGID_3_)" id="SVGID_118_" d="M41.354,39.866c-4.075,4.278-9.747,6.724-15.61,6.724c-5.74,0-11.129-2.232-15.213-6.3     c-0.021,0.002-0.048,0.002-0.069,0.005c-0.208-0.003-0.41-0.005-0.586-0.035l0.019,0.021c-0.591-0.072-1.156-0.106-1.686-0.106     c-0.482,0-0.943,0.032-1.38,0.088c4.608,5.69,11.598,9.054,18.915,9.054c7.558,0,14.688-3.545,19.292-9.539     c-0.467-0.024-0.946-0.045-1.444-0.045C42.808,39.732,42.075,39.778,41.354,39.866 M9.571,21.89     c-1.079,3.386-2.317,6.798-3.935,10.845l-0.325,0.527c-1.049,1.7-2.136,3.46-4.275,4.433c-0.034,0.019-0.108,0.08-0.128,0.106     c-0.148,0.205-0.226,0.448-0.226,0.703c0,0.256,0.077,0.506,0.224,0.695c0.168,0.219,0.399,0.341,0.649,0.341     c0.102,0,0.197-0.019,0.379-0.102c1.673-1.292,3.708-1.926,6.225-1.926c0.646,0,1.335,0.045,2.129,0.133     c0.407-0.038,0.698-0.389,0.746-0.994c0-0.557-0.277-0.986-0.73-1.1c-0.511-0.045-0.831-0.232-1.041-0.607L9.19,34.818     l-0.016-0.149l-0.106-1.284c0-2.672,1.126-5.914,3.5-10l0.085-0.458v-0.005l-0.029-0.144c-0.096-0.234-0.395-0.52-0.813-0.783     l-0.532-0.335l-0.563-0.117l-0.165-0.038c-0.069-0.019-0.131-0.037-0.245-0.042C9.886,21.461,9.688,21.656,9.571,21.89      M9.105,11.978c0,0.091,0.062,0.163,0.282,0.192c1.95,0.267,2.746,0.975,2.746,2.467l-0.04,0.432     c-0.54,2.067-1.118,3.194-1.667,4.102c-0.019,0.038-0.046,0.128-0.048,0.168c0,0.389,0.521,0.765,0.836,0.951l0.597,0.365     l0.49,0.091c0.131,0.026,0.259,0.037,0.378,0.037c0.272,0,0.65-0.062,0.863-0.314l0.301-0.429l0.24-0.392l0.122-0.2l0.227-0.424     l0.155-0.386l0.264-0.618l0.62,0.253l0.299,0.123c4.544,2.158,8.354,16.657,8.731,20.938c0,0.45,0.24,0.874,0.592,1.06     c0.173,0.011,0.432,0.027,0.594,0.038l0.245-0.155l1.18-1.031l3.365-3.093c0.609-0.432,0.745-1.082,0.831-1.465l-0.011-0.224     c-0.49-1.249-1.05-2.597-1.807-4.025c-0.426-0.847-0.631-1.66-0.631-2.485c0-0.921,0.258-1.766,0.532-2.677     c0.277-0.906,0.565-1.838,0.65-3.061c-0.069-0.291-0.245-0.629-0.512-0.98l-0.069-0.096c-0.034-0.037-0.066-0.077-0.093-0.12     l-0.125-0.167l-0.017,0.013c-0.367-0.381-0.77-0.65-1.073-0.722c-0.074-0.016-0.149-0.027-0.221-0.027     c-0.232,0-0.424,0.091-0.61,0.346c-0.162,0.461-0.33,0.834-0.517,1.143l-0.637,1.004l-0.578-1.025     c-0.349-0.615-1.657-2.89-1.66-2.896c-2.82-4.987-4.76-8.252-5.99-8.255c-1.028,0.117-1.958,0.173-2.931,0.173     c-1.417,0-2.818-0.125-4.44-0.272C9.941,10.404,9.105,11.424,9.105,11.978 M29.215,10.385l-0.051,0.328     c0.003,0.267,0.117,0.49,0.322,0.626l0.78,0.522l-0.059-0.016c0.202,0.114,0.564,0.365,1.346,0.892l0.162,0.109l0.063,0.083     c0.512,0.645,0.741,1.228,0.741,1.883v0.221l-0.109,0.17l-0.248,0.375c-0.549,0.858-1.118,1.745-1.809,2.443l-0.231,0.256     c-0.149,0.154-0.314,0.33-0.37,0.682c0,0.272,0.157,0.6,0.487,0.991l-0.054,0.05l0.059,0.054c0.128,0.059,0.234,0.16,0.304,0.277     l0.046,0.042l0.034,0.043l0.799,0.498c0.099,0.026,0.264,0.056,0.435,0.056c0.088,0,0.162-0.008,0.322-0.074     c0.072-0.054,0.146-0.115,0.224-0.173l0.299-0.234L33,20.535c0.503,0.074,0.902,0.381,1.22,0.921     c1.822,2.928,3.324,6.297,4.483,10.085c0.194,0.961,0.282,1.635,0.282,2.182c0,0.716-0.154,1.217-0.541,1.617l-0.287,0.253     c-0.672,0.602-1.276,1.129-1.817,1.441c-0.066,0.042-0.13,0.12-0.144,0.152l-0.005-0.021c-0.017,0.133-0.038,0.317-0.08,0.573     l0.247,0.728c0.104,0.096,0.31,0.221,0.715,0.221l0.167-0.008c0.043-0.002,0.145-0.042,0.176-0.066     c0.646-0.514,1.489-0.917,2.661-1.25c1.09-0.197,2.203-0.293,3.396-0.293c0.637,0,1.241,0.024,1.887,0.069     c1.271,0.192,2.632,0.456,3.979,1.058c0.151,0.045,0.307,0.069,0.45,0.069c0.314,0,0.583-0.106,0.775-0.301     c0.05-0.149,0.141-0.418,0.202-0.602L50.615,36.8l-0.019-0.016c-0.583-0.615-1.23-1.079-1.915-1.574     c-1.095-0.791-2.134-1.537-2.613-2.954c-1.556-6.18-4.561-12.784-6.854-16.905l-0.048-0.08l-0.021-0.096     c-0.2-0.855-0.262-1.724-0.32-2.701l-0.019-0.314c-0.021-0.255-0.037-0.564-0.04-0.666l0.019-0.397     c0-0.805-0.287-1.026-0.381-1.098c-0.151-0.117-0.333-0.173-0.554-0.173c-0.309,0-0.604,0.109-0.751,0.166     c-0.262,0.096-0.555,0.141-0.882,0.141c-0.341,0-0.703-0.051-1.002-0.102c-0.059,0-0.061,0-3.241-0.367l-1.83-0.16     C29.662,9.503,29.326,10.01,29.215,10.385 M1.423,24.997c0,2.573,0.405,5.104,1.207,7.546c0.133-0.216,0.279-0.448,0.429-0.692     l0.202-0.301c0.424-1.065,0.818-2.081,1.19-3.077c-0.196-1.228-0.298-2.366-0.298-3.476c0-3.9,1.065-7.72,3.085-11.076     c-0.504-0.528-0.789-1.244-0.789-2.073c0-1.843,1.929-3.937,3.887-4.155l0.552-0.003c0.642,0.062,1.225,0.115,1.782,0.16     c3.804-2.906,8.318-4.44,13.073-4.44c4.354,0,8.551,1.303,12.163,3.775c0.991,0.01,1.697,0.391,2.112,0.706     c0.482,0.373,1.093,1.05,1.321,2.214c3.865,4.043,5.994,9.323,5.994,14.894c0,0.612-0.029,1.244-0.094,1.926     c0.552,1.601,1.016,3.143,1.367,4.542c0.069,0.202,0.187,0.389,0.402,0.607c0.697-2.299,1.055-4.669,1.055-7.075     c0-13.41-10.908-24.318-24.321-24.318C12.331,0.678,1.423,11.586,1.423,24.997"/>
    <radialGradient id="SVGID_3_" cx="-694.0918" cy="670.5586" r="1.3639" gradientTransform="matrix(18.0986 0 0 -18.0986 12587.8242 12161.1719)" gradientUnits="userSpaceOnUse">
      <stop style="stop-color:#bf99c3" offset="0"/>
      <stop style="stop-color:#7b5190" offset="0.7"/>
      <stop style="stop-color:#612c75" offset="1"/>
    </radialGradient>
  </g>
</svg>
