<?xml version="1.0" encoding="UTF-8" standalone="no"?>
<svg xmlns:svg="http://www.w3.org/2000/svg" xmlns="http://www.w3.org/2000/svg" viewBox="0 0 1121.4025 795.5716" version="1.1" width="1121.4026" height="795.57159">
  <path d="M 170.25324,40.001438 41.409228,232.37544 l 59.776002,523.082 915.99657,-2.92492 c 20.96,-168.69324 41.2943,-338.34852 62.6562,-506.99161 L 942.14324,40.053438 Z" style="fill:#ffffff;stroke:#ffffff;stroke-width:80"/>
  <path d="m 753.90124,460.24544 c 0,106.838 -86.61,193.446 -193.448,193.446 -106.836,0 -193.446,-86.608 -193.446,-193.446 0,-106.836 86.61,-193.446 193.446,-193.446 106.838,0 193.448,86.61 193.448,193.446 z m 67.506,112.306 -12.186,182.906 h 210.50596 l 38.556,-336.084 c -108.64996,26.016 -168.06796,89.688 -236.87196,153.174 z m -527.846,-89.146 c -72.052,-54.23 -157.626,-110.21 -240.376012,-146.37 l -3.976,-34.66 286.700012,-3.964 c -20.53941,27.70721 -31.9748,54.02756 -37.87206,82.9092 -6.09336,29.84204 -6.27415,62.41856 -4.47594,102.0848 z m 5.936,89.146 12.184,182.906 H 101.18523 l -38.556002,-336.084 c 108.650012,26.016 168.068012,89.688 236.872012,153.174 z m 129.262,103.376 h -50.906 v 80.046 h 364.658 v -80.046 h -50.904 c -35.666,27.776 -81.47,44.47 -131.424,44.47 -49.954,0 -95.758,-16.694 -131.424,-44.47 z m 399.406,-192.944 c 72.052,-54.232 157.626,-110.212 240.37596,-146.37 l 3.976,-34.662 -286.69996,-3.964 c 19.63976,26.49359 30.95556,52.07316 37.06496,79.69105 6.88168,31.10897 7.15751,64.80415 5.28304,105.30495 z m -7.61,-442.938002 c 21.74,56.472 35.072,116.880002 35.008,177.532002 l 205.59196,0.012 L 942.14324,40.053438 Z m -236.866,-0.016 c 3.284,36.892 4.214,73.968002 4.37,110.988002 -0.092,22.188 -0.37,44.384 -1.53,66.546 l 199.288,0.01 c -0.318,-37.182 -5.398,-71.438 -15.664,-107.246 -7.102,-23.922002 -14.818,-47.752002 -25.662,-70.288002 z m -222.258,-0.016 c -10.868,22.496 -18.71,46.376 -25.676,70.314002 -9.4,34.966 -16.268,70.866 -15.666,107.222 l 189.004,0.01 c -1.13,-22.16 -1.486,-44.356 -1.53,-66.542 0.152,-37.032 1.154,-74.088002 4.37,-110.994002 z m -191.178,-0.012 -119.012012,177.534002 199.104012,0.01 c 0.176,-60.712 13.214,-120.978002 35.022,-177.536002 z"/>
</svg>
