<?xml version="1.0" encoding="utf-8"?>
<svg xmlns:svg="http://www.w3.org/2000/svg" xmlns="http://www.w3.org/2000/svg" xmlns:xlink="http://www.w3.org/1999/xlink" version="1.1" id="svg4136" x="0px" y="0px" width="257.133px" height="304.869px" viewBox="21.934 -5.174 257.133 304.869" enable-background="new 21.934 -5.174 257.133 304.869">
  <g>
    <path d="M148.729,293.389c-0.224-0.044-5.524-1.079-9.432-2.234c-30.347-8.98-60.902-26.244-86.036-48.611l-8.261-7.351   l-0.007-106.025L32.55,108.5h235.901l-12.445,20.667L256,235.351l-8.482,7.493c-23.223,20.516-51.057,36.78-78.376,45.797   c-10.343,3.415-17.947,4.721-18.266,4.774l-1.076,0.182L148.729,293.389z"/>
    <path fill="#FFFFFF" d="M257.834,114.5l-3.914,6.5l-3.914,6.5l-0.003,52.572L250,232.645l-6.455,5.702   c-22.586,19.954-49.768,35.845-76.284,44.597c-10.03,3.312-17.386,4.556-17.386,4.556s-5.198-1.011-8.875-2.099   c-29.658-8.776-59.145-25.444-83.75-47.34l-6.25-5.561L50.998,180l-0.003-52.5L47.08,121l-3.914-6.5H257.834 M279.067,102.5   h-21.233H43.167H21.934l10.952,18.19l3.914,6.5l2.194,3.645l0.003,49.167l0.003,52.5l0,5.385l4.023,3.579l6.25,5.561   c25.779,22.941,57.146,40.656,88.321,49.882c4.11,1.216,9.4,2.257,9.99,2.371l2.141,0.416l2.15-0.363   c0.337-0.057,8.377-1.437,19.146-4.992c28.073-9.266,56.65-25.957,80.468-46.999l6.454-5.702l4.056-3.582v-5.41l0.003-52.572   l0.003-49.239l2.194-3.644l3.914-6.5L279.067,102.5L279.067,102.5z"/>
  </g>
  <g>
    <path d="M150.05,257.163c-3.223-1.02-14.766-4.753-21.102-7.883c-12.605-6.229-28.982-18.162-37.282-27.168l-3.167-3.435v-47.057   l-6.857-16.553c-2.045-4.938-3.946-9.93-5.246-13.415h148.744c-1.379,3.348-3.329,8.076-5.374,13.006l-7.267,17.52v47.098   l-7.402,7.007c-13.656,12.926-28.995,22.448-45.592,28.302C156.003,255.82,151.819,256.781,150.05,257.163z"/>
    <path fill="#FFFFFF" d="M219.912,145.153c-1.034,2.504-2.192,5.306-3.378,8.165l-7,16.876L209,171.481v1.395v23.953v20.94   l-6.308,5.972c-13.298,12.587-28.22,21.854-44.352,27.543c-2.827,0.998-6.158,1.813-8.126,2.259   c-4.014-1.286-14.076-4.614-19.715-7.4c-12.279-6.067-28.206-17.665-36.26-26.403L92,217.311v-21.129v-23.864v-1.393l-0.533-1.286   l-6.591-15.909c-1.222-2.949-2.393-5.922-3.413-8.576H219.912 M230.364,138.153c0,0-146.998,0-159,0   c0.284,0.688,3.42,9.506,7.044,18.255L85,172.317v23.864v23.863l4.093,4.439c8.606,9.337,25.286,21.5,38.306,27.934   c7.72,3.814,22.477,8.358,22.477,8.358s5.939-1.178,10.795-2.891c16.986-5.991,32.882-15.854,46.834-29.061l8.496-8.043v-23.953   v-23.953L223,156C226.85,146.718,230.364,138.153,230.364,138.153L230.364,138.153z"/>
  </g>
  <g>
    <path d="M149.083,251.305c-0.196-0.035-4.851-0.878-8.821-2.539c-14.52-6.076-27.498-14.29-38.573-24.413l-7.189-6.57v-45.677   L84.319,146.84h132.41L206.5,172.688v44.941l-7.154,6.782c-10.46,9.914-24.616,18.943-37.869,24.153   c-4.46,1.753-10.656,2.717-10.918,2.758l-0.739,0.113L149.083,251.305z"/>
    <path fill="#FFFFFF" d="M210.109,151.34L202,171.83v43.865l-5.75,5.451c-10.104,9.577-23.621,18.199-36.42,23.23   c-4.044,1.59-9.955,2.498-9.955,2.498s-4.317-0.771-7.875-2.261c-14.123-5.91-26.52-13.753-37.275-23.583L99,215.799v-44.566   l-8.016-19.893H210.109 M223.351,142.34h-13.241H90.984h-13.33l4.982,12.363L90,172.978v42.821v3.967l2.928,2.677l5.725,5.232   c11.458,10.473,24.874,18.965,39.873,25.242c4.347,1.819,9.224,2.721,9.766,2.817l1.472,0.264l1.479-0.228   c0.706-0.108,7.042-1.115,11.881-3.018c13.968-5.491,28.299-14.63,39.318-25.074l5.751-5.452l2.808-2.662v-3.869v-42.149   l7.478-18.895L223.351,142.34L223.351,142.34z"/>
  </g>
  <g>
    <path d="M63.277,108l-3.02-7.226c-2.774-6.641-6.658-22.425-7.42-30.161l-1.727-17.52l14.521,7.071   c5.749,2.8,19.529,6.707,30.091,8.531c3.15,0.544,5.984,0.809,8.666,0.809c5.262,0,9.991-1.043,14.883-3.283   c8.288-3.794,14.104-11.53,14.104-14.277c-0.036-0.691-1.328-3.152-4.308-5.085l-9.348-6.06L149.875,3.3l30.155,37.499   l-9.348,6.061c-2.979,1.933-4.271,4.394-4.308,5.095c0,2.737,5.816,10.473,14.104,14.267c4.892,2.24,9.621,3.283,14.884,3.283   c2.681,0,5.516-0.265,8.665-0.809c10.562-1.824,24.341-5.731,30.091-8.531l14.521-7.071l-1.727,17.52   c-0.762,7.734-4.646,23.519-7.42,30.16L236.472,108H63.277z"/>
    <path fill="#FFFFFF" d="M149.875,12.875l21.314,26.505l-3.771,2.445c-4.165,2.701-7.043,6.835-7.043,10.119   c0,6.165,8.307,15.476,17.606,19.733c5.629,2.577,11.184,3.827,17.381,3.827c3.045,0,6.245-0.302,9.687-0.896   c11.217-1.938,25.42-5.993,31.696-9.049l4.87-2.372l-0.674,6.838c-0.703,7.133-4.439,22.341-6.985,28.436L232.477,102h-82.602   H67.273l-1.479-3.539c-2.546-6.095-6.282-21.303-6.985-28.436l-0.674-6.838l4.87,2.372c6.276,3.057,20.479,7.112,31.696,9.049   c3.44,0.594,6.642,0.896,9.687,0.896c6.197,0,11.751-1.25,17.38-3.827c9.299-4.257,17.606-13.568,17.606-19.733   c0-3.284-2.878-7.418-7.043-10.119l-3.772-2.445L149.875,12.875 M149.875-6.274l-9.352,11.629L119.208,31.86l-8.33,10.358   l11.154,7.231l3.772,2.445c0.334,0.216,0.627,0.445,0.876,0.665c-1.63,2.413-5.424,6.154-9.907,8.207   c-4.136,1.893-7.956,2.738-12.385,2.738c-2.335,0-4.835-0.236-7.644-0.721c-10.988-1.898-23.831-5.747-28.485-8.013l-4.871-2.372   l-19.301-9.399l2.105,21.365l0.674,6.838c0.821,8.323,4.858,24.712,7.855,31.885l1.479,3.54L59.282,114h7.991h82.602h82.602h7.99   l3.081-7.372l1.479-3.539c2.998-7.178,7.036-23.567,7.856-31.887l0.674-6.838l2.105-21.365l-19.302,9.399l-4.87,2.371   c-4.655,2.268-17.498,6.116-28.485,8.014c-2.809,0.485-5.309,0.721-7.644,0.721c-4.43,0-8.25-0.845-12.386-2.738   c-4.483-2.053-8.277-5.794-9.907-8.207c0.25-0.221,0.543-0.449,0.878-0.667l3.771-2.444l11.152-7.231l-8.329-10.358L159.227,5.354   L149.875-6.274L149.875-6.274z"/>
  </g>
</svg>
