<?xml version="1.0" encoding="UTF-8" standalone="no"?>
<svg xmlns="http://www.w3.org/2000/svg" version="1.1" x="0px" y="0px" width="257.134px" height="304.869px" viewBox="299.067 -5.174 257.134 304.869">
  <g id="g5">
    <linearGradient id="SVGID_1_" gradientUnits="userSpaceOnUse" x1="311.5205" y1="105.3193" x2="534.0349" y2="233.7881">
      <stop offset="0.1" style="stop-color:#536e78" id="stop8"/>
      <stop offset="0.5" style="stop-color:#d9eaf3" id="stop10"/>
      <stop offset="0.9" style="stop-color:#536e78" id="stop12"/>
    </linearGradient>
    <path fill="url(#SVGID_1_)" d="M425.862,293.389c-0.224-0.044-5.523-1.079-9.432-2.234c-30.347-8.98-60.901-26.244-86.035-48.611   l-8.261-7.351l-0.008-106.025L309.685,108.5h235.899l-12.445,20.667l-0.006,106.184l-8.482,7.493   c-23.222,20.516-51.057,36.78-78.375,45.797c-10.344,3.415-17.948,4.721-18.267,4.774l-1.076,0.182L425.862,293.389z"/>
    <path d="M534.967,114.5l-3.914,6.5l-3.914,6.5l-0.002,52.572l-0.004,52.572l-6.455,5.702   c-22.586,19.954-49.768,35.845-76.283,44.597c-10.031,3.312-17.387,4.556-17.387,4.556s-5.197-1.011-8.875-2.099   c-29.657-8.776-59.145-25.444-83.749-47.34l-6.249-5.561l-0.004-52.5l-0.004-52.5l-3.914-6.5l-3.913-6.5H534.967 M556.2,102.5   h-21.233H320.3h-21.23l10.95,18.189l3.912,6.5l2.195,3.646l0.004,49.167l0.004,52.5v5.385l4.023,3.579l6.248,5.561   c25.78,22.941,57.146,40.656,88.321,49.882c4.11,1.216,9.399,2.257,9.989,2.371l2.142,0.416l2.15-0.363   c0.337-0.057,8.376-1.437,19.147-4.992c28.072-9.267,56.649-25.957,80.467-46.999l6.454-5.702l4.056-3.582v-5.41l0.004-52.572   l0.002-49.239l2.194-3.644l3.914-6.5L556.2,102.5L556.2,102.5z"/>
  </g>
  <g>
    <linearGradient id="SVGID_2_" gradientUnits="userSpaceOnUse" x1="353.5303" y1="199.4082" x2="502.2744" y2="199.4082">
      <stop offset="0.2" style="stop-color:#536e78" id="stop21"/>
      <stop offset="0.5" style="stop-color:#d9eaf3" id="stop23"/>
      <stop offset="0.8" style="stop-color:#536e78" id="stop25"/>
    </linearGradient>
    <path fill="url(#SVGID_2_)" d="M427.184,257.163c-3.224-1.02-14.766-4.753-21.102-7.883c-12.606-6.229-28.982-18.163-37.282-27.168   l-3.167-3.435v-47.057l-6.856-16.553c-2.046-4.938-3.946-9.93-5.246-13.415h148.744c-1.379,3.348-3.33,8.075-5.375,13.006   l-7.267,17.52v47.098l-7.402,7.007c-13.654,12.926-28.994,22.447-45.592,28.302C433.136,255.82,428.952,256.781,427.184,257.163z"/>
    <path d="M497.045,145.153c-1.034,2.504-2.192,5.306-3.378,8.165l-7,16.876l-0.534,1.287v1.395v23.953v20.94l-6.309,5.972   c-13.296,12.586-28.218,21.854-44.351,27.543c-2.827,0.998-6.158,1.813-8.126,2.259c-4.014-1.286-14.075-4.614-19.715-7.4   c-12.279-6.068-28.206-17.665-36.26-26.403l-2.24-2.429v-21.129v-23.864v-1.393l-0.533-1.286l-6.59-15.91   c-1.222-2.949-2.393-5.921-3.413-8.575H497.045 M507.498,138.153c0,0-146.998,0-159,0c0.284,0.688,3.42,9.506,7.045,18.255   l6.59,15.909v23.864v23.863l4.094,4.439c8.605,9.337,25.285,21.5,38.305,27.934c7.721,3.814,22.477,8.358,22.477,8.358   s5.939-1.178,10.795-2.891c16.986-5.991,32.883-15.854,46.834-29.061l8.496-8.043v-23.953v-23.953l7-16.876   C503.982,146.718,507.498,138.153,507.498,138.153L507.498,138.153z"/>
  </g>
  <g>
    <linearGradient id="SVGID_3_" gradientUnits="userSpaceOnUse" x1="362.6426" y1="144.7769" x2="484.9315" y2="215.3804">
      <stop offset="0.1" style="stop-color:#536e78" id="stop34"/>
      <stop offset="0.5" style="stop-color:#d9eaf3" id="stop36"/>
      <stop offset="0.9" style="stop-color:#536e78" id="stop38"/>
    </linearGradient>
    <path fill="url(#SVGID_3_)" d="M426.216,251.305c-0.196-0.035-4.85-0.878-8.82-2.539c-14.521-6.076-27.498-14.29-38.573-24.413   l-7.189-6.57v-45.677l-10.181-25.266h132.41l-10.229,25.849v44.941l-7.154,6.782c-10.458,9.913-24.614,18.942-37.869,24.153   c-4.459,1.753-10.656,2.717-10.918,2.758l-0.739,0.113L426.216,251.305z"/>
    <path d="M487.242,151.34l-8.109,20.49v43.865l-5.75,5.451c-10.104,9.577-23.621,18.199-36.42,23.23   c-4.043,1.59-9.955,2.498-9.955,2.498s-4.316-0.771-7.875-2.261c-14.123-5.91-26.52-13.753-37.274-23.583l-5.726-5.232v-44.566   l-8.016-19.893H487.242 M500.483,142.34h-13.241H368.117h-13.33l4.982,12.363l7.363,18.274v42.821v3.968l2.929,2.676l5.726,5.232   c11.457,10.473,24.872,18.965,39.871,25.242c4.348,1.819,9.225,2.721,9.766,2.817l1.473,0.264l1.478-0.228   c0.707-0.108,7.045-1.115,11.883-3.018c13.969-5.491,28.3-14.631,39.317-25.074l5.751-5.452l2.808-2.662v-3.869v-42.149   l7.478-18.895L500.483,142.34L500.483,142.34z"/>
  </g>
  <g>
    <linearGradient id="SVGID_4_" gradientUnits="userSpaceOnUse" x1="328.2441" y1="55.6504" x2="525.7715" y2="55.6504">
      <stop offset="0.1" style="stop-color:#536e78" id="stop47"/>
      <stop offset="0.5" style="stop-color:#d9eaf3" id="stop49"/>
      <stop offset="0.9" style="stop-color:#536e78" id="stop51"/>
    </linearGradient>
    <path fill="url(#SVGID_4_)" d="M340.41,108l-3.019-7.226c-2.774-6.64-6.659-22.425-7.421-30.161l-1.727-17.519l14.521,7.07   c5.75,2.8,19.529,6.707,30.091,8.531c3.15,0.544,5.984,0.809,8.666,0.809c5.262,0,9.991-1.043,14.884-3.283   c8.287-3.794,14.103-11.53,14.103-14.277c-0.036-0.691-1.327-3.152-4.308-5.085l-9.348-6.061L427.008,3.3l30.155,37.499   l-9.348,6.061c-2.979,1.933-4.271,4.395-4.308,5.095c0,2.737,5.816,10.473,14.104,14.267c4.892,2.24,9.62,3.283,14.883,3.283   c2.682,0,5.516-0.265,8.665-0.809c10.561-1.824,24.341-5.731,30.092-8.531l14.52-7.072l-1.727,17.521   c-0.762,7.732-4.645,23.517-7.418,30.16L513.604,108H340.41z"/>
    <path d="M427.008,12.875l21.314,26.505l-3.771,2.445c-4.164,2.701-7.043,6.835-7.043,10.119c0,6.165,8.307,15.476,17.607,19.733   c5.628,2.577,11.184,3.827,17.38,3.827c3.046,0,6.246-0.302,9.687-0.896c11.217-1.938,25.42-5.993,31.697-9.049l4.869-2.372   l-0.674,6.838c-0.703,7.133-4.439,22.341-6.984,28.436l-1.48,3.539h-82.602h-82.602l-1.479-3.539   c-2.547-6.095-6.283-21.303-6.986-28.436l-0.674-6.838l4.871,2.372c6.275,3.057,20.479,7.112,31.695,9.049   c3.44,0.594,6.643,0.896,9.688,0.896c6.197,0,11.751-1.25,17.381-3.827c9.299-4.257,17.605-13.568,17.605-19.733   c0-3.284-2.877-7.418-7.043-10.119l-3.771-2.445L427.008,12.875 M427.008-6.274l-9.352,11.629L396.342,31.86l-8.329,10.358   l11.152,7.231l3.771,2.445c0.334,0.217,0.628,0.445,0.877,0.666c-1.63,2.413-5.423,6.154-9.906,8.207   c-4.136,1.893-7.956,2.738-12.386,2.738c-2.335,0-4.836-0.236-7.645-0.721c-10.988-1.898-23.83-5.746-28.483-8.013l-4.873-2.373   l-19.301-9.397l2.105,21.363l0.674,6.838c0.82,8.323,4.859,24.713,7.856,31.886l1.479,3.538l3.08,7.374h7.992h82.602h82.602h7.988   l3.082-7.369l1.48-3.539c3-7.183,7.036-23.571,7.856-31.89l0.674-6.838l2.105-21.367l-19.303,9.401l-4.869,2.372   c-4.654,2.267-17.498,6.115-28.485,8.013c-2.809,0.485-5.309,0.721-7.644,0.721c-4.43,0-8.249-0.844-12.384-2.738   c-4.484-2.053-8.279-5.794-9.909-8.207c0.25-0.221,0.544-0.45,0.879-0.667l3.77-2.444l11.152-7.231l-8.329-10.358L436.359,5.354   L427.008-6.274L427.008-6.274z"/>
  </g>
</svg>
