<?xml version="1.0" encoding="utf-8"?>
<svg xmlns:svg="http://www.w3.org/2000/svg" xmlns="http://www.w3.org/2000/svg" xmlns:xlink="http://www.w3.org/1999/xlink" version="1.1" id="svg4136" x="0px" y="0px" width="257.133px" height="304.869px">
  <path d="M 127.94141 19.148438 L 106.625 45.654297 L 110.39648 48.099609 C 114.56148 50.800609 117.43945 54.93475 117.43945 58.21875 C 117.43945 64.38375 109.13298 73.694172 99.833984 77.951172 C 94.204984 80.528172 88.650125 81.777344 82.453125 81.777344 C 79.408125 81.777344 76.207578 81.476812 72.767578 80.882812 C 61.550578 78.945813 47.346312 74.889031 41.070312 71.832031 L 36.201172 69.460938 L 36.875 76.298828 C 37.578 83.431828 41.313375 98.63937 43.859375 104.73438 L 45.339844 108.27344 L 127.94141 108.27344 L 210.54297 108.27344 L 212.02148 104.73438 C 214.56748 98.63937 218.30481 83.431828 219.00781 76.298828 L 219.68164 69.460938 L 214.81055 71.832031 C 208.53455 74.888031 194.33223 78.944812 183.11523 80.882812 C 179.67323 81.476812 176.47273 81.777344 173.42773 81.777344 C 167.23073 81.777344 161.67587 80.528172 156.04688 77.951172 C 146.74788 73.694172 138.44141 64.38375 138.44141 58.21875 C 138.44141 54.93475 141.31937 50.800609 145.48438 48.099609 L 149.25586 45.654297 L 127.94141 19.148438 z M 21.232422 120.77344 L 25.146484 127.27344 L 29.060547 133.77344 L 29.064453 186.27344 L 29.066406 238.77344 L 35.316406 244.33594 C 59.921406 266.23194 89.408402 282.89978 119.06641 291.67578 C 122.74341 292.76378 127.94141 293.77344 127.94141 293.77344 C 127.94141 293.77344 135.29617 292.53075 145.32617 289.21875 C 171.84217 280.46675 199.02533 264.57509 221.61133 244.62109 L 228.06641 238.91992 L 228.06836 186.3457 L 228.07227 133.77344 L 231.98633 127.27344 L 235.90039 120.77344 L 21.232422 120.77344 z M 49.429688 144.42578 L 208.42969 144.42578 C 208.42969 144.42578 204.91641 152.99144 201.06641 162.27344 L 194.06641 179.14844 L 194.06641 203.10156 L 194.06641 227.05273 L 185.57031 235.0957 C 171.61831 248.3027 155.72233 258.1672 138.73633 264.1582 C 133.88033 265.8712 127.94141 267.04883 127.94141 267.04883 C 127.94141 267.04883 113.18484 262.50541 105.46484 258.69141 C 92.444858 252.25741 75.764203 240.09286 67.158203 230.75586 L 63.066406 226.31836 L 63.066406 202.45508 L 63.066406 178.58984 L 56.474609 162.68164 C 52.850609 153.93264 49.713686 145.11378 49.429688 144.42578 z M 69.050781 157.61328 L 77.066406 177.50586 L 77.066406 222.07227 L 82.791016 227.30273 C 93.546016 237.13274 105.94341 244.97672 120.06641 250.88672 C 123.62441 252.37672 127.94141 253.14844 127.94141 253.14844 C 127.94141 253.14844 133.85248 252.24039 137.89648 250.65039 C 150.69548 245.61939 164.21241 236.99692 174.31641 227.41992 L 180.06641 221.96875 L 180.06641 178.10352 L 188.17578 157.61328 L 69.050781 157.61328 z "/>
</svg>
