<?xml version="1.0" encoding="UTF-8" standalone="no"?>
<svg xmlns="http://www.w3.org/2000/svg" version="1.1" width="1355.4628" height="612.85718">
  <linearGradient x1="-230.81985" y1="415.21933" x2="981.07141" y2="1028.0765" id="linearGradient1" gradientUnits="userSpaceOnUse">
    <stop style="stop-color:#536e78" offset="0"/>
    <stop style="stop-color:#829ba5" offset="0.15"/>
    <stop style="stop-color:#d9eaf3" offset="0.5"/>
    <stop style="stop-color:#829ba5" offset="0.85"/>
    <stop style="stop-color:#536e78" offset="1"/>
  </linearGradient>
  <g transform="translate(300.81986,-415.21932)">
    <path d="m -230.81986,415.21932 1211.89129,0 c 0,0 73.57147,160.35086 73.57147,306.42786 0,146.077 -73.57147,306.42932 -73.57147,306.42932 l -1211.89129,0 c 0,0 -70,-160.35232 -70,-306.42932 0,-146.077 70,-306.42786 70,-306.42786 z"/>
    <path d="m -206.5625,450.9375 c 0,0 -58.78125,124.64175 -58.78125,270.71875 0,146.077 58.78125,270 58.78125,270 l 1165.84375,0 c 0,0 60.71875,-123.923 60.71875,-270 0,-146.077 -60.71875,-270.71875 -60.71875,-270.71875 l -1165.84375,0 z m 847.75,51.53125 13.40625,0 0,247.59375 c 0,32.98966 21.30252,54.5625 44.4375,54.5625 l 0,16.15625 -161.125,0 0,-16.15625 44.9375,-16.03125 0,-213.03125 -44.9375,0 0,-16.03125 c 44.95179,-13.07608 69.03101,-28.66754 103.28125,-57.0625 z m 169.46875,0 c 79.04677,0 114.65625,63.00807 114.65625,133.71875 0,70.71068 -29.26852,187.96875 -197,187.96875 l 0,-29.65625 c 58.70197,0 103.07508,-21.71415 114.96875,-99.25 l -28.75,11.625 c -87.76426,7.50291 -109.1875,-61.6058 -109.1875,-97.71875 0,-36.11295 26.26573,-106.6875 105.3125,-106.6875 z m -876.8125,5.96875 165.1875,0 c 5.03381,10e-6 9.51012,2.45745 11.3125,6.90625 0.005,0.0129 0.0261,0.0183 0.0312,0.0312 l 69.9375,174.59375 c 2.89749,7.23305 5.10538,7.30417 8.21875,0.25 l 0.125,-0.25 48.90625,-112.8125 c 0.53114,-1.22511 1.05551,-2.43227 1.5625,-3.65625 6.37142,-15.38212 9.15764,-31.11983 -33.75,-58.4375 0.0614,-0.004 0.12606,0.004 0.1875,0 -3.81566,-2.82178 -7.13975,-6.625 4.15625,-6.625 l 190.8125,0 c 7.41778,0 7.91852,2.82931 0.6875,7.34375 0.007,0.012 0.0241,0.0193 0.0312,0.0312 l -2.21875,1.375 c -25.95395,16.20344 -28.94155,34.19486 -13.6875,71.9375 L 486.1875,838.65625 c 0.0855,0.21146 0.16416,0.41483 0.25,0.625 9.74528,23.86009 22.00916,39.5434 50.5,70.53125 0.7831,0.85168 1.48826,1.60109 2.125,2.3125 4.45721,4.9799 4.99493,6.6475 -2.8125,6.65625 l -205.9375,0 -1.4375,0 c -7.01362,-0.20644 -9.78889,-2.09317 1.0625,-9.28125 31.42943,-23.6768 28.59755,-46.92285 12.125,-87.96875 l -0.125,-0.28125 -58.46875,-145.4375 -0.78125,-1.90625 c -3.89963,-8.75552 -6.92214,-8.2812 -11.25,1.375 -0.0823,0.18362 -0.16674,0.34097 -0.25,0.53125 L 156.96875,937.09375 c -0.15118,0.10037 -0.21251,0.21119 -0.15625,0.3125 -5.94732,13.60325 -7.7966,13.78903 -13.15625,0.625 -0.088,-0.21601 -0.16013,-0.40178 -0.25,-0.625 0.0833,-0.13038 0.0119,-0.2778 -0.15625,-0.40625 L 38.09375,675.8125 l -0.3125,-0.71875 c -4.185245,-10.03096 -7.293585,-9.88469 -11.875,0.46875 -0.03939,0.089 -0.08539,0.15946 -0.125,0.25 L -37.25,819.84375 c -0.04189,0.0957 -0.08362,0.18564 -0.125,0.28125 -13.732029,31.72751 0.66941,56.28003 46.125,90.84375 -0.021315,0.0294 -0.041582,0.0644 -0.0625,0.0937 5.732956,4.11562 7.983782,7.71875 -2.46875,7.71875 l -183.1875,0 c -6.73778,0 -7.14587,-0.95646 -1.40625,-6.96875 26.14219,-27.40999 46.20534,-50.61806 59,-79.5 L -20.15625,608.2812 c -0.0081,-0.004 -0.02319,0.004 -0.03125,0 1.12493,-2.5402 2.228079,-4.96418 3.25,-7.3125 C -1.6086858,565.74398 0.59261225,550.94575 -55.84375,522 l -10.96875,-5.625 c -0.04334,-0.0222 -0.08212,-0.0402 -0.125,-0.0625 -6.965645,-3.61933 -7.78404,-7.875 0.78125,-7.875 z m 875.53125,28.25 c -22.77904,0 -29.53125,32.53346 -29.53125,55.3125 0,26.00449 5.72087,56.93412 15.28125,68.375 9.56038,11.44088 21.16238,12.6815 51.125,12.6875 0,-54.11658 5.27007,-136.375 -36.875,-136.375 z" style="fill:url(#linearGradient1)"/>
  </g>
</svg>
