<?xml version="1.0" encoding="UTF-8" standalone="no"?>
<svg xmlns="http://www.w3.org/2000/svg" width="1021.1755" height="856.51123" version="1.1">
  <path d="m 729.46282,0 c 0,0 53.955,5.852 53.955,61.631 l 200.224,55.779 c 0,0 50.02098,19.287 34.57198,84.756 L 852.72482,819.998 c 0,0 -34.666,46.252 -75.066,34.644 l -267.006,-73.429 -267.075,73.428 c -40.4,11.61 -75.066,-34.642 -75.066,-34.642 L 2.9288246,202.167 C -12.426175,136.698 37.594825,117.411 37.594825,117.411 L 237.81882,61.632 c 0,-55.779 53.859,-61.631 53.859,-61.631 h 437.784 z m -167.22,742.358 c -374.82855,76.10215 -187.41427,38.05108 0,0 z" style="fill:#ffffff"/>
  <path d="m 729.46282,0 c 0,0 53.955,5.852 53.955,61.631 l 200.224,55.779 c 0,0 50.02098,19.287 34.57198,84.756 L 852.72482,819.998 c 0,0 -34.666,46.252 -75.066,34.644 l -267.006,-73.429 -267.075,73.428 c -40.4,11.61 -75.066,-34.642 -75.066,-34.642 L 2.9288246,202.167 C -12.426175,136.698 37.594825,117.411 37.594825,117.411 L 237.81882,61.632 c 0,-55.779 53.859,-61.631 53.859,-61.631 h 437.784 z m -1.732,23.15 h -434.319 c -2.458,0.445 -10.228,2.178 -17.461,7.045 -10.322,6.835 -15.075,16.807 -15.075,31.437 v 17.555 c 0,0 -212.418995,59.267 -215.508995,60.087 -5.594,2.551 -22.236,12.616 -22.236,39.207 0,5.407 0.749,11.445 2.294,18.304 0.282,1.007 161.462995,602.641 164.129995,612.332 7.023,8.052 27.972,28.977 47.729,23.407 l 273.37,-75.255 273.302,75.255 c 19.756,5.571 40.612,-15.355 47.727,-23.407 2.669,-9.69 163.85,-611.325 164.132,-612.332 1.545,-6.859 2.294,-12.897 2.294,-18.304 0,-26.592 -16.736,-36.656 -22.236,-39.207 -3.091,-0.821 -215.603,-60.087 -215.603,-60.087 l -0.002,-17.555 c 0.002,-14.63 -4.751,-24.602 -14.979,-31.437 -7.233,-4.867 -15.005,-6.6 -17.555,-7.045 h -0.002 z m -471.443,87.871 v 594.12 c 0,0 5.033,38.598 35.93,38.598 h 166.775 l -223.28,61.537 c 0,0 -12.805,6.391 -19.289,-7.677 L 52.199825,188.007 c 0,0 -6.484,-19.217 8.965,-24.32 L 256.28582,111.021 Z m 508.754,-1.289 194.935,52.666 c 15.449,5.127 9.035,24.322 9.035,24.322 l -164.296,609.591 c -6.32,14.092 -19.193,7.678 -19.193,7.678 l -223.28,-61.631 h 166.845 c 30.734,0 35.953,-38.482 35.953,-38.482 V 109.732 Z m -39.136,-57.697 c 8.965,0 10.228,11.517 10.228,11.517 v 639.037 c 0,10.252 -10.228,12.803 -10.228,12.803 h -429.85 c -9.035,0 -9.035,-12.803 -9.035,-12.803 V 63.55 c 0,-7.677 9.035,-11.515 9.035,-11.515 z m -241.029,83.371 c -5.774,0.667 -11.575,1.06 -17.372,1.457 q -13.677,0.911 -33.007,0.911 -29.541,0 -45.406,-1.277 -15.865,-1.277 -18.784,-1.277 -2.188,0 -4.011,1.277 -1.823,1.277 -1.824,4.924 0,3.282 1.824,3.83 1.823,0.546 4.376,0.911 3.282,0.365 10.576,0 7.294,-0.365 12.766,0.365 7.66,0.729 10.576,4.559 2.918,3.83 3.282,15.5 0,2.188 0.183,7.112 0.183,4.924 0.365,14.041 0.183,9.119 0.365,23.159 0.183,14.042 0.183,34.831 0,18.964 -1.096,41.213 -1.094,22.246 -2.917,42.487 -1.824,20.243 -4.195,35.377 -2.371,15.136 -4.559,19.512 -1.823,2.918 -10.941,4.741 -9.117,1.824 -24.436,1.824 -2.553,0 -4.011,1.64 -1.459,1.642 -1.459,3.101 0,1.823 1.277,3.83 1.277,2.005 3.099,2.005 l 5.835,-0.73 q 3.647,-0.364 10.395,-0.911 6.746,-0.546 14.406,-0.729 7.66,-0.183 15.683,-0.365 8.023,-0.182 14.589,-0.183 h 2.188 q 17.142,0 28.812,0.365 11.672,0.365 19.33,0.911 7.66,0.548 12.035,0.911 c 1.853,0.145 3.709,0.309 5.567,0.346 -7.839,8.525 -13.054,19.299 -18.043,29.606 q -11.706,26.428 -11.706,62.966 0,26.25 8.515,48.067 8.513,21.816 24.83,37.425 16.319,15.607 40.086,24.475 23.767,8.87 54.629,8.87 7.805,0 18.092,-0.532 10.286,-0.532 20.574,-1.418 10.288,-0.886 19.333,-1.42 9.045,-0.534 14.367,-0.532 6.386,0 8.337,5.499 1.951,5.499 2.661,10.465 0.708,3.191 3.369,3.369 2.661,0.178 6.209,-1.241 -1.775,-6.031 -2.483,-14.899 -0.71,-8.868 -0.71,-18.092 0,-11.351 1.773,-20.219 1.065,-4.611 2.128,-8.515 0,-1.773 -1.951,-2.836 -1.951,-1.065 -3.369,-1.065 -0.355,0 -1.42,1.065 -2.128,4.966 -7.627,11.351 -5.497,6.385 -14.367,12.239 -8.868,5.852 -21.639,9.933 -12.771,4.079 -29.443,4.079 -17.381,0 -30.684,-5.321 -13.303,-5.321 -22.881,-14.367 -9.576,-9.045 -15.962,-20.574 -6.386,-11.529 -10.288,-23.945 -3.901,-12.416 -5.497,-24.832 -1.596,-12.416 -1.597,-23.057 6.031,-0.355 20.753,-0.71 14.722,-0.355 38.844,-0.355 12.769,0 23.767,0.355 10.996,0.355 19.688,1.951 8.69,1.596 14.189,4.789 5.499,3.193 6.917,8.868 0.71,2.483 4.079,3.903 3.371,1.418 4.079,-2.128 0.002,-8.87 1.42,-17.027 1.418,-8.16 3.548,-14.899 2.128,-6.74 3.901,-11.884 1.773,-5.144 2.483,-8.337 -1.065,-1.418 -3.726,-1.773 -2.659,-0.355 -4.079,1.773 -2.838,2.838 -9.578,5.321 -6.74,2.483 -15.962,4.434 -9.222,1.951 -20.221,3.016 -10.996,1.063 -22.349,1.063 -4.966,0.355 -14.899,0.177 -9.931,-0.177 -20.574,-0.531 -10.643,-0.355 -19.688,-1.065 -9.045,-0.71 -11.884,-1.418 1.065,-18.802 6.74,-36.361 5.676,-17.56 15.254,-31.217 9.578,-13.658 22.702,-21.994 13.126,-8.337 29.088,-8.337 14.191,0 25.542,3.726 11.351,3.724 19.511,9.4 8.16,5.676 13.124,11.884 4.966,6.207 6.741,11.174 1.418,4.966 5.142,5.144 3.726,0.177 4.436,-2.661 1.418,-10.641 3.369,-19.156 1.951,-8.513 3.726,-13.126 4.256,-15.252 9.755,-26.073 5.497,-10.819 13.657,-17.205 4.966,-3.546 2.483,-5.675 -2.483,-2.129 -8.515,-3.903 -4.965,0 -8.513,6.564 -3.546,6.562 -6.207,14.189 -2.661,7.627 -4.436,14.012 -1.773,6.385 -3.546,6.03 -2.838,-0.708 -9.578,-1.596 -6.74,-0.886 -15.609,-1.773 -8.869,-0.887 -18.801,-1.42 -9.933,-0.531 -18.446,-0.531 -28.378,0 -54.275,7.98 -25.895,7.982 -45.761,25.009 l -4.838,4.403 -0.017,0.017 -0.381,-0.399 q -1.094,-0.729 -5.106,-0.729 -4.741,0 -10.394,-0.365 -5.654,-0.364 -11.124,-1.277 -5.472,-0.911 -9.482,-1.823 -4.012,-0.911 -5.472,-2.005 -2.188,-1.824 -3.282,-14.225 -1.094,-12.399 -1.642,-29.36 -0.546,-16.957 -0.364,-35.376 0.181,-18.418 0.546,-32.278 0.365,-18.234 1.459,-39.753 1.094,-21.518 2.371,-40.119 1.277,-18.599 2.917,-31.183 1.642,-12.582 3.466,-13.312 l 4.376,-1.094 q 2.918,-0.729 6.383,-1.094 3.465,-0.365 7.112,-0.729 3.647,-0.364 6.566,-0.365 8.388,-0.729 8.388,-6.929 0,-2.918 -2.372,-3.466 c -3.241,-0.55 -1.599,-0.365 -4.922,-0.546 l -1.411,0.184 z"/>
</svg>
