<?xml version="1.0" encoding="UTF-8" standalone="no"?><!DOCTYPE svg PUBLIC "-//W3C//DTD SVG 1.1//EN" "http://www.w3.org/Graphics/SVG/1.1/DTD/svg11.dtd"><svg width="100%" height="100%" viewBox="0 0 91 90" version="1.1" xmlns="http://www.w3.org/2000/svg" xmlns:xlink="http://www.w3.org/1999/xlink" xml:space="preserve" xmlns:serif="http://www.serif.com/" style="fill-rule:evenodd;clip-rule:evenodd;stroke-linejoin:round;stroke-miterlimit:2;"><rect id="Common" x="0.008" y="0" width="90" height="90" style="fill:none;"/><path d="M36.856,13.194l0,-5.631l8.152,-6.217l8.152,6.217l-0,5.631l29.983,9.765l-1.166,12.366l-2.605,-0.828l-3.705,36.041l2.595,-0.552l-0.847,11.161l-32.407,7.519l-32.407,-7.519l-0.847,-11.161l2.595,0.552l-3.705,-36.041l-2.605,0.828l-1.166,-12.366l29.983,-9.765Z" style="fill:#fff;"/><path d="M45.008,19.871l-33.86,10.756l-0.489,-5.182l34.349,-11.188l34.349,11.188l-0.489,5.182l-33.86,-10.756Zm-0,-8.651l-4.616,1.565l0,-3.472l4.616,-3.52l4.616,3.52l-0,3.472l-4.616,-1.565Zm-0,73.816l-29.078,-6.747l-0.293,-3.862l29.371,6.246l29.371,-6.246l-0.293,3.862l-29.078,6.747Zm-1.347,-61.649l0,54.227l-25.638,-5.906l-4.018,-39.095l29.656,-9.226Zm-14.09,20.394l10.821,-1.645l0,-12.947l-11.187,3.175l0.366,11.417Zm-3.207,-10.61l-8.435,2.394l0.861,9.856l7.856,-1.195l-0.282,-11.055Zm19.991,-9.784l29.656,9.226l-4.018,39.095l-25.638,5.906l-0,-54.227Zm17.297,9.784l-0.282,11.055l7.856,1.195l0.861,-9.856l-8.435,-2.394Zm-12.023,12.631l0.121,8.911l6.688,-0.16l0.16,-8.21l-6.969,-0.541Zm8.816,-2.021l0.366,-11.417l-11.187,-3.175l-0,12.947l10.821,1.645Z"/></svg>