<?xml version="1.0" encoding="UTF-8" standalone="no"?><!DOCTYPE svg PUBLIC "-//W3C//DTD SVG 1.1//EN" "http://www.w3.org/Graphics/SVG/1.1/DTD/svg11.dtd"><svg width="100%" height="100%" viewBox="0 0 90 90" version="1.1" xmlns="http://www.w3.org/2000/svg" xmlns:xlink="http://www.w3.org/1999/xlink" xml:space="preserve" xmlns:serif="http://www.serif.com/" style="fill-rule:evenodd;clip-rule:evenodd;stroke-linejoin:round;stroke-miterlimit:2;"><rect id="Mythic" x="0" y="0" width="90" height="90" style="fill:none;"/><g id="Mythic1" serif:id="Mythic"><path d="M36.848,13.194l0,-5.631l8.152,-6.217l8.152,6.217l-0,5.631l29.983,9.765l-1.166,12.366l-2.605,-0.828l-3.705,36.041l2.595,-0.552l-0.847,11.161l-32.407,7.519l-32.407,-7.519l-0.847,-11.161l2.595,0.552l-3.705,-36.041l-2.605,0.828l-1.166,-12.366l29.983,-9.765Z"/><path d="M45,19.871l-33.86,10.756l-0.489,-5.182l34.349,-11.188l34.349,11.188l-0.489,5.182l-33.86,-10.756Zm0,-8.651l-4.616,1.565l0,-3.472l4.616,-3.52l4.616,3.52l-0,3.472l-4.616,-1.565Zm0,73.816l-29.078,-6.747l-0.293,-3.862l29.371,6.246l29.371,-6.246l-0.293,3.862l-29.078,6.747Zm-1.347,-61.649l0,54.227l-25.638,-5.906l-4.018,-39.095l29.656,-9.226Zm-14.09,20.394l10.821,-1.645l0,-12.947l-11.187,3.175l0.366,11.417Zm-3.207,-10.61l-8.435,2.394l0.861,9.856l7.856,-1.195l-0.282,-11.055Zm19.991,-9.784l29.656,9.226l-4.018,39.095l-25.638,5.906l-0,-54.227Zm14.09,20.394l0.366,-11.417l-11.187,-3.175l-0,12.947l10.821,1.645Zm-8.816,2.021l0.121,8.911l6.688,-0.16l0.16,-8.21l-6.969,-0.541Zm12.023,-12.631l-0.282,11.055l7.856,1.195l0.861,-9.856l-8.435,-2.394Z" style="fill:url(#_Linear1);"/></g><defs><linearGradient id="_Linear1" x1="0" y1="0" x2="1" y2="0" gradientUnits="userSpaceOnUse" gradientTransform="matrix(63.7203,48.9819,-48.9819,63.7203,10.6509,25.445)"><stop offset="0" style="stop-color:#bb2c26;stop-opacity:1"/><stop offset="0.04" style="stop-color:#bf3526;stop-opacity:1"/><stop offset="0.11" style="stop-color:#cb4d25;stop-opacity:1"/><stop offset="0.19" style="stop-color:#de7523;stop-opacity:1"/><stop offset="0.21" style="stop-color:#e17a23;stop-opacity:1"/><stop offset="0.29" style="stop-color:#ee8b1f;stop-opacity:1"/><stop offset="0.38" style="stop-color:#f5951e;stop-opacity:1"/><stop offset="0.5" style="stop-color:#ff9915;stop-opacity:1"/><stop offset="0.62" style="stop-color:#f5951e;stop-opacity:1"/><stop offset="0.71" style="stop-color:#ee8b1f;stop-opacity:1"/><stop offset="0.79" style="stop-color:#e17a23;stop-opacity:1"/><stop offset="0.8" style="stop-color:#e07823;stop-opacity:1"/><stop offset="0.85" style="stop-color:#d35d24;stop-opacity:1"/><stop offset="0.91" style="stop-color:#c64225;stop-opacity:1"/><stop offset="0.96" style="stop-color:#be3226;stop-opacity:1"/><stop offset="1" style="stop-color:#bb2c26;stop-opacity:1"/></linearGradient></defs></svg>