<?xml version="1.0" encoding="UTF-8" standalone="no"?><!DOCTYPE svg PUBLIC "-//W3C//DTD SVG 1.1//EN" "http://www.w3.org/Graphics/SVG/1.1/DTD/svg11.dtd"><svg width="100%" height="100%" viewBox="0 0 91 90" version="1.1" xmlns="http://www.w3.org/2000/svg" xmlns:xlink="http://www.w3.org/1999/xlink" xml:space="preserve" xmlns:serif="http://www.serif.com/" style="fill-rule:evenodd;clip-rule:evenodd;stroke-linejoin:round;stroke-miterlimit:2;"><rect id="Rare" x="0.033" y="0" width="90" height="90" style="fill:none;"/><path d="M36.881,13.194l-0,-5.631l8.152,-6.217l8.151,6.217l0,5.631l29.984,9.765l-1.167,12.366l-2.605,-0.828l-3.704,36.041l2.595,-0.552l-0.848,11.161l-32.406,7.519l-32.407,-7.519l-0.848,-11.161l2.595,0.552l-3.704,-36.041l-2.605,0.828l-1.166,-12.366l29.983,-9.765Z"/><path d="M45.033,19.871l-33.861,10.756l-0.488,-5.182l34.349,-11.188l34.349,11.188l-0.489,5.182l-33.86,-10.756Zm-0,-8.651l-4.616,1.565l-0,-3.472l4.616,-3.52l4.616,3.52l-0,3.472l-4.616,-1.565Zm-0,73.816l-29.078,-6.747l-0.293,-3.862l29.371,6.246l29.371,-6.246l-0.294,3.862l-29.077,6.747Zm-1.347,-61.649l-0,54.227l-25.638,-5.906l-4.018,-39.095l29.656,-9.226Zm-14.09,20.394l10.821,-1.645l-0,-12.947l-11.188,3.175l0.367,11.417Zm-3.207,-10.61l-8.435,2.394l0.86,9.856l7.857,-1.195l-0.282,-11.055Zm19.99,-9.784l29.657,9.226l-4.019,39.095l-25.638,5.906l0,-54.227Zm5.275,22.415l0.12,8.911l6.689,-0.16l0.16,-8.21l-6.969,-0.541Zm8.815,-2.021l0.367,-11.417l-11.187,-3.175l-0,12.947l10.82,1.645Zm3.208,-10.61l-0.282,11.055l7.856,1.195l0.861,-9.856l-8.435,-2.394Z" style="fill:url(#_Linear1);"/><defs><linearGradient id="_Linear1" x1="0" y1="0" x2="1" y2="0" gradientUnits="userSpaceOnUse" gradientTransform="matrix(63.7203,48.9819,-48.9819,63.7203,10.6835,25.445)"><stop offset="0" style="stop-color:#8d742f;stop-opacity:1"/><stop offset="0.07" style="stop-color:#967d38;stop-opacity:1"/><stop offset="0.18" style="stop-color:#ae954f;stop-opacity:1"/><stop offset="0.2" style="stop-color:#b39a54;stop-opacity:1"/><stop offset="0.22" style="stop-color:#b9a059;stop-opacity:1"/><stop offset="0.3" style="stop-color:#cab068;stop-opacity:1"/><stop offset="0.39" style="stop-color:#d4ba71;stop-opacity:1"/><stop offset="0.5" style="stop-color:#d7bd74;stop-opacity:1"/><stop offset="0.61" style="stop-color:#d4ba71;stop-opacity:1"/><stop offset="0.7" style="stop-color:#cab068;stop-opacity:1"/><stop offset="0.78" style="stop-color:#b9a059;stop-opacity:1"/><stop offset="0.8" style="stop-color:#b39a54;stop-opacity:1"/><stop offset="0.86" style="stop-color:#a38a45;stop-opacity:1"/><stop offset="0.94" style="stop-color:#937a35;stop-opacity:1"/><stop offset="1" style="stop-color:#8d742f;stop-opacity:1"/></linearGradient></defs></svg>