<?xml version="1.0" encoding="UTF-8" standalone="no"?><!DOCTYPE svg PUBLIC "-//W3C//DTD SVG 1.1//EN" "http://www.w3.org/Graphics/SVG/1.1/DTD/svg11.dtd"><svg width="100%" height="100%" viewBox="0 0 91 90" version="1.1" xmlns="http://www.w3.org/2000/svg" xmlns:xlink="http://www.w3.org/1999/xlink" xml:space="preserve" xmlns:serif="http://www.serif.com/" style="fill-rule:evenodd;clip-rule:evenodd;stroke-linejoin:round;stroke-miterlimit:2;"><rect id="Uncommon" x="0.065" y="0" width="90" height="90" style="fill:none;"/><path d="M36.914,13.194l-0,-5.631l8.151,-6.217l8.152,6.217l0,5.631l29.983,9.765l-1.166,12.366l-2.605,-0.828l-3.704,36.041l2.595,-0.552l-0.848,11.161l-32.407,7.519l-32.406,-7.519l-0.848,-11.161l2.595,0.552l-3.704,-36.041l-2.605,0.828l-1.167,-12.366l29.984,-9.765Z"/><path d="M45.065,19.871l-33.86,10.756l-0.489,-5.182l34.349,-11.188l34.349,11.188l-0.488,5.182l-33.861,-10.756Zm0,-8.651l-4.616,1.565l0,-3.472l4.616,-3.52l4.616,3.52l0,3.472l-4.616,-1.565Zm0,73.816l-29.077,-6.747l-0.294,-3.862l29.371,6.246l29.371,-6.246l-0.293,3.862l-29.078,6.747Zm-1.346,-61.649l-0,54.227l-25.638,-5.906l-4.019,-39.095l29.657,-9.226Zm-14.09,20.394l10.82,-1.645l0,-12.947l-11.187,3.175l0.367,11.417Zm-3.208,-10.61l-8.435,2.394l0.861,9.856l7.856,-1.195l-0.282,-11.055Zm19.991,-9.784l29.656,9.226l-4.018,39.095l-25.638,5.906l0,-54.227Zm14.09,20.394l0.367,-11.417l-11.188,-3.175l0,12.947l10.821,1.645Zm-8.815,2.021l0.12,8.911l6.689,-0.16l0.16,-8.21l-6.969,-0.541Zm12.022,-12.631l-0.282,11.055l7.857,1.195l0.86,-9.856l-8.435,-2.394Z" style="fill:url(#_Linear1);"/><defs><linearGradient id="_Linear1" x1="0" y1="0" x2="1" y2="0" gradientUnits="userSpaceOnUse" gradientTransform="matrix(63.7203,48.9819,-48.9819,63.7203,10.7162,25.445)"><stop offset="0" style="stop-color:#626e77;stop-opacity:1"/><stop offset="0.04" style="stop-color:#697780;stop-opacity:1"/><stop offset="0.11" style="stop-color:#7d8e98;stop-opacity:1"/><stop offset="0.2" style="stop-color:#9eb4c0;stop-opacity:1"/><stop offset="0.2" style="stop-color:#a0b6c2;stop-opacity:1"/><stop offset="0.2" style="stop-color:#a1b7c3;stop-opacity:1"/><stop offset="0.29" style="stop-color:#adc6d4;stop-opacity:1"/><stop offset="0.38" style="stop-color:#b5cede;stop-opacity:1"/><stop offset="0.5" style="stop-color:#b7d1e1;stop-opacity:1"/><stop offset="0.62" style="stop-color:#b5cede;stop-opacity:1"/><stop offset="0.71" style="stop-color:#adc6d4;stop-opacity:1"/><stop offset="0.8" style="stop-color:#a1b7c3;stop-opacity:1"/><stop offset="0.8" style="stop-color:#a0b6c2;stop-opacity:1"/><stop offset="0.85" style="stop-color:#8b9da8;stop-opacity:1"/><stop offset="0.91" style="stop-color:#74838d;stop-opacity:1"/><stop offset="0.96" style="stop-color:#67747d;stop-opacity:1"/><stop offset="1" style="stop-color:#626e77;stop-opacity:1"/></linearGradient></defs></svg>