<?xml version="1.0" encoding="UTF-8" standalone="no"?><!DOCTYPE svg PUBLIC "-//W3C//DTD SVG 1.1//EN" "http://www.w3.org/Graphics/SVG/1.1/DTD/svg11.dtd"><svg width="100%" height="100%" viewBox="0 0 91 90" version="1.1" xmlns="http://www.w3.org/2000/svg" xmlns:xlink="http://www.w3.org/1999/xlink" xml:space="preserve" xmlns:serif="http://www.serif.com/" style="fill-rule:evenodd;clip-rule:evenodd;stroke-linejoin:round;stroke-miterlimit:2;"><rect id="WM" x="0.079" y="0" width="90" height="90" style="fill:none;"/><path d="M45.079,19.871l-33.861,10.756l-0.488,-5.182l34.349,-11.188l34.349,11.188l-0.489,5.182l-33.86,-10.756Zm-0,-8.651l-4.616,1.565l-0,-3.472l4.616,-3.52l4.616,3.52l-0,3.472l-4.616,-1.565Zm-0,73.816l-29.078,-6.747l-0.293,-3.862l29.371,6.246l29.371,-6.246l-0.294,3.862l-29.077,6.747Zm-1.347,-61.649l-0,54.227l-25.638,-5.906l-4.018,-39.095l29.656,-9.226Zm-17.297,9.784l-8.435,2.394l0.86,9.856l7.857,-1.195l-0.282,-11.055Zm3.207,10.61l10.821,-1.645l-0,-12.947l-11.188,3.175l0.367,11.417Zm16.783,-20.394l29.657,9.226l-4.019,39.095l-25.638,5.906l0,-54.227Zm17.298,9.784l-0.282,11.055l7.856,1.195l0.861,-9.856l-8.435,-2.394Zm-12.023,12.631l0.12,8.911l6.689,-0.16l0.16,-8.21l-6.969,-0.541Zm8.815,-2.021l0.367,-11.417l-11.187,-3.175l-0,12.947l10.82,1.645Z"/></svg>