<?xml version="1.0" encoding="UTF-8" standalone="no"?>
<svg xmlns:svg="http://www.w3.org/2000/svg" xmlns="http://www.w3.org/2000/svg" xmlns:xlink="http://www.w3.org/1999/xlink" version="1.1" width="374" height="254.125">
  <path d="m 187,32.25 -13.71875,26.1875 c -7.27186,0.28725 -25.36113,12.92939 -26.8125,29.6875 -6.45906,0.27805 -17.8125,11.05688 -17.8125,25.53125 l 0,31.875 c -7.02835,-2.95545 -13.77896,-4.70363 -20.21875,-5.4375 l -16.90625,-39.25 -16.5625,39.25 0,6.3125 C 64.62196,151.93243 55.73544,160.58298 48.5,171.25 l -16.40625,-41.84375 -17.0625,42.4375 0,67.71875 33.59375,0 0,-22.0625 c 0,-23.6261 12.10263,-38.02549 26.34375,-41.59375 l 16.5625,22.25 16.90625,-22.25 0,-17.125 c 29.83352,3.10994 45.65328,22.16784 51.5625,45.875 -23.80058,8.57441 -25.9375,34.90625 -25.9375,34.90625 l 105.875,0 c 0,0 -2.13692,-26.33184 -25.9375,-34.90625 5.90922,-23.70716 21.72898,-42.76506 51.5625,-45.875 l 0,17.125 16.90625,22.25 16.5625,-22.25 C 313.27237,179.47451 325.375,193.8739 325.375,217.5 l 0,22.0625 33.59375,0 0,-67.71875 -17.0625,-42.4375 L 325.5,171.25 c -7.23544,-10.66702 -16.12196,-19.31757 -26.46875,-24.84375 l 0,-6.3125 -16.5625,-39.25 -16.90625,39.25 c -6.43979,0.73387 -13.1904,2.48205 -20.21875,5.4375 l 0,-31.875 c 0,-14.47437 -11.35344,-25.2532 -17.8125,-25.53125 -1.45137,-16.75811 -19.54064,-29.40025 -26.8125,-29.6875 L 187,32.25 z m 0,70.875 c 17.05842,0 30.875,13.81658 30.875,30.875 0,17.05842 -13.81658,30.875 -30.875,30.875 -17.05842,0 -30.875,-13.81658 -30.875,-30.875 0,-17.05842 13.81658,-30.875 30.875,-30.875 z"/>
</svg>
