<?xml version="1.0" encoding="UTF-8" standalone="no"?>
<!-- Created with Inkscape (http://www.inkscape.org/) -->

<svg
   xmlns:dc="http://purl.org/dc/elements/1.1/"
   xmlns:cc="http://creativecommons.org/ns#"
   xmlns:rdf="http://www.w3.org/1999/02/22-rdf-syntax-ns#"
   xmlns:svg="http://www.w3.org/2000/svg"
   xmlns="http://www.w3.org/2000/svg"
   xmlns:xlink="http://www.w3.org/1999/xlink"
   version="1.1"
   width="469"
   height="232"
   id="svg2">
  <defs
     id="d1">
    <linearGradient
       id="g1">
      <stop
         id="s1"
         style="stop-color:#487686;stop-opacity:1"
         offset="0" />
      <stop
         id="s2"
         style="stop-color:#d9eaf3;stop-opacity:1"
         offset="0.2" />
      <stop
         id="s3"
         style="stop-color:#d2f4ff;stop-opacity:1"
         offset="0.4" />
      <stop
         id="s4"
         style="stop-color:#d2f4ff;stop-opacity:1"
         offset="0.6" />
      <stop
         id="s5"
         style="stop-color:#d9eaf3;stop-opacity:1"
         offset="0.8" />
      <stop
         id="s6"
         style="stop-color:#487686;stop-opacity:1"
         offset="1" />
    </linearGradient>
    <linearGradient
       x1="-131"
       y1="286"
       x2="131"
       y2="548"
       id="g2"
       xlink:href="#g1"
       gradientUnits="userSpaceOnUse"
       gradientTransform="translate(234.5,-301)" />
  </defs>
  <path
     d="M 116,0 C 51.93497,0 0,51.93497 0,116 c 0,64.06503 51.93497,116 116,116 51.5,0 118.5,-67 118.5,-67 0,0 67,67 118.5,67 64.06503,0 116,-51.93497 116,-116 C 469,51.93497 417.06503,0 353,0 301.5,0 234.5,67 234.5,67 234.5,67 167.5,0 116,0 z"
     id="p1"
     style="fill:#000000;fill-opacity:1;stroke:none" />
  <path
     d="M 353,12 C 300.5,12 234.5,86 234.5,86 l -61.15625,61 c -9.45366,9.42951 -4.84375,24.59375 -4.84375,24.59375 -5.59432,1.93778 -15.87504,4.85406 -24.1875,12.90625 -8.31246,8.0522 -28.40684,17.88811 -47.5,21.09375 -19.09317,3.20563 -41.96875,-6 -41.96875,-6 C 72.21471,212.8462 92.50726,221 116,221 c 52.5,0 118.5,-74 118.5,-74 L 295.65625,86 C 305.10991,76.57049 300.5,61.40625 300.5,61.40625 306.09432,59.46847 316.37504,56.55219 324.6875,48.5 c 8.31246,-8.0522 28.40684,-17.88811 47.5,-21.09375 19.09317,-3.20563 41.96875,6 41.96875,6 C 396.78529,20.1538 376.49274,12 353,12 z m -247.21875,4.8125 c -19.45931,0.58928 -42.62338,6.40463 -63.09375,26.875 -20.47037,20.47037 -21.31389,51.90839 -11.8125,70 9.50139,18.09161 28.46875,24.03125 28.46875,24.03125 0,0 -14.37385,-38.12615 14.71875,-67.21875 29.72852,-29.72852 79.78125,-22.53125 79.78125,-22.53125 0,0 -14.39644,-32.17575 -48.0625,-31.15625 z m 303.875,78.46875 c 0,0 14.37385,38.12615 -14.71875,67.21875 -29.72852,29.72852 -79.78125,22.53125 -79.78125,22.53125 0,0 14.39644,32.17575 48.0625,31.15625 19.45931,-0.58928 42.62338,-6.40463 63.09375,-26.875 20.47037,-20.47037 21.31389,-51.90839 11.8125,-70 -9.50139,-18.09161 -28.46875,-24.03125 -28.46875,-24.03125 z"
     id="p2"
     style="fill:#487686;fill-opacity:1;stroke:none" />
  <path
     d="m 172.90625,31.875 c 1.28136,6.77861 -0.27689,18.99299 -10.875,23.15625 -5.26821,2.06952 -10.56751,-0.3538 -18.65625,0.59375 5.13852,3.51946 14.33639,8.51103 20.125,26.375 -18.63081,-14.44105 -37.26244,-27.945 -79.90625,-9.6875 25.18929,0.14829 48.16208,26.63752 24,57.75 -24.16208,31.11248 -62.80714,12.32982 -76.1875,-1.75 C 18.02589,114.23263 18.25,92.125 18.25,92.125 c 0,0 -11.27854,25.89223 -2.875,51.53125 8.14093,24.8378 34.76913,49.44862 66,50.0625 1.00745,0.0198 2.01465,-4.2e-4 3.03125,-0.0312 32.53124,-0.98962 45.2837,-15.60167 54.8125,-22.9375 9.5288,-7.33579 15.84375,-7.40625 15.84375,-7.40625 -0.9643,-6.84937 0.44426,-13.68188 3.125,-20.53125 -7.99151,4.18405 -13.88056,1.0376 -20.53125,-5.15625 -6.65069,-6.19385 -2.35663,-19.78043 7.53125,-21.53125 9.88789,-1.75081 14.88944,-1.41654 19.875,17.9375 L 180.25,126.25 c -0.97703,0.34161 -4.87762,1.21754 -4.5625,-6.25 0.36015,-8.53433 7.65431,-23.01765 11.28125,-22.96875 3.62694,0.0489 6.51981,8.99827 5.40625,14.8125 4.35554,-8.17309 9.19504,-16.0748 17.15625,-22.1875 l 9.875,-13.6875 c 2.63782,-3.65657 2.96776,-5.86131 0.125,-8.46875 -2.84466,-2.60919 -6.04815,-5.4102 -9.53125,-8.375 -2.80495,4.39898 -7.89656,11.88141 -9.3125,10.65625 -1.67895,-1.45274 3.78903,-7.67641 3.71875,-15.3125 -3.68007,-3.00718 -7.60055,-6.08903 -11.71875,-9.15625 -1.34132,5.07222 -3.95958,13.82213 -5.65625,12.59375 -1.8577,-1.34497 0.59442,-9.66419 -0.0625,-16.75 -4.52053,-3.20116 -9.23095,-6.32544 -14.0625,-9.28125 z M 387.625,38.28125 c -1.00745,-0.0198 -2.01465,3.7e-4 -3.03125,0.0312 -32.53124,0.98962 -45.2837,15.60167 -54.8125,22.9375 -9.5288,7.33579 -15.84375,7.40625 -15.84375,7.40625 0.96431,6.84937 -0.44426,13.68188 -3.125,20.53125 7.99151,-4.18405 13.88057,-1.0376 20.53125,5.15625 6.65069,6.19385 2.35664,19.78043 -7.53125,21.53125 -9.88789,1.75081 -14.88944,1.41654 -19.875,-17.9375 L 288.75,105.75 c 0.97704,-0.34161 4.87762,-1.21754 4.5625,6.25 -0.36014,8.53433 -7.65431,23.01765 -11.28125,22.96875 -3.62694,-0.0489 -6.51981,-8.99827 -5.40625,-14.8125 -4.35554,8.17309 -9.19504,16.0748 -17.15625,22.1875 l -9.875,13.6875 c -2.63782,3.65657 -2.96776,5.86131 -0.125,8.46875 2.84467,2.60919 6.04816,5.4102 9.53125,8.375 2.80495,-4.39898 7.89657,-11.88141 9.3125,-10.65625 1.67896,1.45274 -3.78903,7.67641 -3.71875,15.3125 3.68008,3.00718 7.60056,6.08903 11.71875,9.15625 1.34132,-5.07222 3.95958,-13.82213 5.65625,-12.59375 1.8577,1.34497 -0.59442,9.66419 0.0625,16.75 4.52053,3.20116 9.23095,6.32544 14.0625,9.28125 -1.28136,-6.77861 0.2769,-18.99299 10.875,-23.15625 5.26822,-2.06952 10.56751,0.3538 18.65625,-0.59375 -5.13851,-3.51946 -14.33638,-8.51103 -20.125,-26.375 18.63081,14.44105 37.26244,27.945 79.90625,9.6875 -25.18929,-0.14829 -48.16208,-26.63752 -24,-57.75 24.16208,-31.11248 62.80714,-12.32982 76.1875,1.75 13.38036,14.07982 13.15625,36.1875 13.15625,36.1875 0,0 11.27854,-25.89223 2.875,-51.53125 -8.14093,-24.8378 -34.76913,-49.44862 -66,-50.0625 z"
     id="p3"
     style="fill:url(#g2);fill-opacity:1;stroke:none" />
</svg>
