<?xml version="1.0" encoding="UTF-8" standalone="no"?>
<svg xmlns="http://www.w3.org/2000/svg" xmlns:xlink="http://www.w3.org/1999/xlink" width="469.15039" height="231.07031" viewBox="0 0 124.12938 61.137354" version="1.1">
  <g transform="translate(-66.447108,-18.011821)">
    <path d="m 134.71848,63.641226 c -1.10498,-0.937621 -1.88977,-1.515169 -2.62912,-2.48885 -0.27813,-0.366277 -0.36707,-0.993957 -0.11002,-1.375323 0.95392,-1.415259 1.79363,-3.087541 2.9633,-4.242013 1.79388,-1.77057 3.37719,-3.876764 4.35342,-5.641836 -0.0673,2.008519 0.2494,2.633118 1.35337,3.898526 1.05211,-0.71884 1.78451,-1.926404 2.31962,-3.101175 0.27979,-0.614232 0.49999,-1.226375 0.63322,-1.871253 0.15127,-0.732202 0.27601,-1.733889 0.18184,-2.235609 -0.10472,-0.557964 -0.46101,-0.572621 -0.96721,-0.614898 0.0116,-0.108358 0.0202,-0.17042 0.0397,-0.235931 1.56825,-0.737551 2.19912,-1.103518 3.8376,-2.064737 0.24552,1.055508 0.24864,1.815429 0.67879,2.601742 0.54211,0.990982 1.22446,2.142958 2.29976,2.488864 1.03974,0.334467 2.27352,-0.09621 3.20975,-0.658708 0.82119,-0.493384 1.50226,-1.314974 1.83202,-2.214443 0.2281,-0.62217 0.27386,-1.374472 0.0231,-1.98786 -0.24158,-0.590946 -0.85504,-0.957235 -1.3575,-1.351074 -0.72836,-0.570898 -1.47033,-1.233959 -2.37184,-1.442996 -0.84684,-0.196358 -1.66601,0.02517 -2.59715,0.236656 0.34576,-0.919586 0.59374,-1.682462 0.71457,-2.560203 0.12852,-0.933654 0.14662,-1.143332 0.004,-2.827373 0.81019,-0.139798 1.67811,-0.482052 2.43652,-0.899626 1.98704,-1.094048 3.5763,-2.327243 5.18579,-3.610053 1.05626,-0.841881 2.28819,-1.278598 3.50372,-1.758101 1.38347,-0.545749 2.80992,-1.034751 4.27992,-1.260445 2.07028,-0.317858 4.20643,-0.391892 6.28257,-0.114878 1.63999,0.218819 3.25884,0.704676 4.76533,1.388734 1.57316,0.714331 3.05212,1.67125 4.36682,2.792252 1.72743,1.472912 3.36887,3.134728 4.52956,5.085694 1.05255,1.769208 1.70673,3.788359 2.09297,5.810431 0.3838,2.009273 0.35529,4.094419 0.19476,6.133711 -0.14313,1.818204 -0.45215,3.01663 -1.0272,5.374201 -0.38964,-2.99178 -0.6696,-3.65533 -1.30656,-5.391273 -0.36582,-0.997015 -0.79589,-1.995244 -1.43034,-2.846919 -0.91833,-1.232769 -2.08865,-2.292956 -3.35579,-3.163249 -1.59725,-1.09702 -3.37033,-2.007877 -5.23998,-2.516844 -1.69127,-0.460404 -3.4976,-0.630918 -5.23999,-0.440102 -1.16464,0.127544 -2.30805,0.520941 -3.35579,1.045246 -1.40643,0.703799 -2.78143,1.586413 -3.8234,2.764401 -1.01958,1.152668 -1.79464,2.566853 -2.22803,4.043456 -0.44126,1.503419 -0.57734,3.144912 -0.31632,4.689854 0.24979,1.478544 0.83816,2.957381 1.76041,4.139728 0.62596,0.802492 1.5335,1.369307 2.43433,1.842934 0.77375,0.406815 1.6324,0.6524 2.48933,0.825195 0.63558,0.128159 1.14758,0.120297 1.93921,0.151289 -1.27378,0.615553 -1.69134,0.785179 -2.57186,1.086506 -1.28356,0.439258 -2.59074,0.851124 -3.93343,1.045245 -1.48877,0.215242 -3.01533,0.28372 -4.51106,0.12378 -1.72251,-0.184191 -3.45601,-0.553442 -5.04743,-1.237793 -1.22196,-0.525472 -2.29945,-1.35091 -3.3558,-2.159257 -0.60834,-0.465519 -0.82191,-0.667154 -1.7054,-1.540365 0.31037,1.944344 0.5833,2.232388 1.15527,3.21826 0.5385,0.928168 1.29242,1.730759 2.0905,2.448078 0.61566,0.553365 0.9165,0.855067 2.04923,1.402831 -2.2441,0.200204 -2.75457,0.153958 -4.40105,0.08252 -0.66828,-0.029 -1.4485,0.885708 -2.03599,1.486508 -0.40481,0.41398 -0.7796,0.887077 -0.9926,1.425483 -0.38224,0.96621 -0.41966,1.112268 -0.45097,3.084424 -1.48012,-0.921112 -3.22141,-1.800112 -3.30078,-1.980467 -0.1451,-0.329699 -0.12037,-0.796155 -0.12896,-1.197557 -0.0109,-0.51082 0.06,-1.020163 0.0988,-1.529627 0.0255,-0.33446 0.0832,-0.702272 0.0879,-1.002436 0.004,-0.275491 -0.0637,-0.682915 -0.31199,-0.706432 -0.40039,-0.03792 -0.55661,0.284087 -0.6664,0.551514 -0.27912,0.679905 -0.42183,1.030966 -0.63055,1.605382 -0.11881,0.326954 -0.21834,0.604083 -0.32292,0.955148 -1.11942,-0.872294 -2.95474,-2.244425 -2.99267,-2.471888 -0.0777,-0.465729 0.25662,-1.265343 0.45975,-1.876453 0.15459,-0.465082 0.43125,-1.02949 0.57463,-1.353363 0.13441,-0.303617 0.15292,-0.683115 -0.0984,-0.75061 -0.3298,-0.08857 -0.64811,0.277038 -0.87575,0.531582 -0.63373,0.805068 -1.08869,1.62225 -1.53144,2.361845 z M 122.30536,33.519868 c 1.10498,0.937621 1.88977,1.515169 2.62912,2.48885 0.27813,0.366277 0.36707,0.993957 0.11002,1.375323 -0.95392,1.415259 -1.79363,3.087541 -2.9633,4.242013 -1.79388,1.77057 -3.37719,3.876764 -4.35342,5.641836 0.0673,-2.008519 -0.2494,-2.633118 -1.35337,-3.898526 -1.05211,0.71884 -1.78451,1.926404 -2.31962,3.101175 -0.27979,0.614232 -0.49999,1.226375 -0.63322,1.871253 -0.15127,0.732202 -0.27601,1.733889 -0.18184,2.235609 0.10472,0.557964 0.46101,0.572621 0.96721,0.614898 -0.0116,0.108358 -0.0202,0.17042 -0.0397,0.235931 -1.56825,0.737551 -2.19912,1.103518 -3.8376,2.064737 -0.24552,-1.055508 -0.24864,-1.815429 -0.67879,-2.601742 -0.54211,-0.990982 -1.22446,-2.142958 -2.29976,-2.488864 -1.03974,-0.334467 -2.27352,0.09621 -3.20975,0.658708 -0.82119,0.493384 -1.50226,1.314974 -1.83202,2.214443 -0.2281,0.62217 -0.27386,1.374472 -0.0231,1.98786 0.24158,0.590946 0.85504,0.957235 1.3575,1.351074 0.72836,0.570898 1.47033,1.233959 2.37184,1.442996 0.84684,0.196358 1.66601,-0.02517 2.59715,-0.236656 -0.34576,0.919586 -0.59374,1.682462 -0.71457,2.560203 -0.12852,0.933654 -0.14662,1.143332 -0.004,2.827373 -0.81019,0.139798 -1.67811,0.482052 -2.43652,0.899626 -1.98704,1.094048 -3.5763,2.327243 -5.18579,3.610053 -1.056262,0.841881 -2.288186,1.278598 -3.50372,1.758101 -1.383468,0.545749 -2.809924,1.034751 -4.27992,1.260445 -2.070283,0.317858 -4.206431,0.391892 -6.282573,0.114878 -1.639985,-0.218819 -3.25884,-0.704676 -4.765325,-1.388734 -1.573158,-0.714331 -3.052122,-1.67125 -4.366827,-2.792252 -1.727423,-1.472912 -3.368867,-3.134728 -4.529552,-5.085694 -1.052552,-1.769208 -1.706729,-3.788359 -2.092975,-5.810431 -0.383801,-2.009273 -0.35529,-4.094419 -0.194757,-6.133711 0.143129,-1.818204 0.452151,-3.01663 1.0272,-5.374201 0.389635,2.99178 0.669599,3.65533 1.306556,5.391273 0.365828,0.997015 0.795896,1.995244 1.430339,2.846919 0.918333,1.232769 2.088651,2.292956 3.35579,3.163249 1.597251,1.09702 3.37033,2.007877 5.239987,2.516844 1.691265,0.460404 3.497592,0.630918 5.239987,0.440102 1.164639,-0.127544 2.308052,-0.520941 3.355791,-1.045246 1.406427,-0.703799 2.781427,-1.586413 3.823402,-2.764401 1.019578,-1.152668 1.794639,-2.566853 2.228027,-4.043456 0.441259,-1.503419 0.577338,-3.144912 0.316323,-4.689854 -0.249797,-1.478544 -0.838165,-2.957381 -1.760414,-4.139728 -0.625957,-0.802492 -1.533496,-1.369307 -2.434326,-1.842934 -0.773754,-0.406815 -1.632402,-0.6524 -2.489336,-0.825195 -0.635575,-0.128159 -1.147574,-0.120297 -1.939209,-0.151289 1.273778,-0.615553 1.691342,-0.785179 2.571858,-1.086506 1.283566,-0.439258 2.590743,-0.851124 3.933429,-1.045245 1.488775,-0.215242 3.015337,-0.28372 4.511063,-0.12378 1.722512,0.184191 3.456012,0.553442 5.047432,1.237793 1.22196,0.525472 2.29945,1.35091 3.3558,2.159257 0.60834,0.465519 0.82191,0.667154 1.7054,1.540365 -0.31037,-1.944344 -0.5833,-2.232388 -1.15527,-3.21826 -0.5385,-0.928168 -1.29242,-1.730759 -2.0905,-2.448078 -0.61566,-0.553365 -0.9165,-0.855067 -2.04923,-1.402831 2.2441,-0.200204 2.75457,-0.153958 4.40105,-0.08252 0.66828,0.029 1.4485,-0.885708 2.03599,-1.486508 0.40481,-0.41398 0.7796,-0.887077 0.9926,-1.425483 0.38224,-0.96621 0.41966,-1.112268 0.45097,-3.084424 1.48012,0.921112 3.22141,1.800112 3.30078,1.980467 0.1451,0.329699 0.12037,0.796155 0.12896,1.197557 0.0109,0.51082 -0.06,1.020163 -0.0988,1.529627 -0.0255,0.33446 -0.0832,0.702272 -0.0879,1.002436 -0.004,0.275491 0.0637,0.682915 0.31199,0.706432 0.40039,0.03792 0.55661,-0.284087 0.6664,-0.551514 0.27912,-0.679905 0.42183,-1.030966 0.63055,-1.605382 0.11881,-0.326954 0.21834,-0.604083 0.32292,-0.955148 1.11942,0.872294 2.95474,2.244425 2.99267,2.471888 0.0777,0.465729 -0.25662,1.265343 -0.45975,1.876453 -0.15459,0.465082 -0.43125,1.02949 -0.57463,1.353363 -0.13441,0.303617 -0.15292,0.683115 0.0984,0.75061 0.3298,0.08857 0.64811,-0.277038 0.87575,-0.531582 0.63373,-0.805068 1.08869,-1.62225 1.53144,-2.361845 z"/>
    <path d="m 143.36764,41.64353 c 0.63812,-0.648716 1.18845,-1.305793 1.69709,-1.895287 0.55295,-0.640839 0.7267,-1.276985 0.89822,-1.98165 0.13572,-0.557604 0.11775,-1.146146 0.0894,-1.719331 -0.0335,-0.677582 -0.30569,-2.012143 -0.30569,-2.012143 0,0 0.9644,-0.383069 1.43965,-0.591013 0.87787,-0.384109 1.76687,-0.750615 2.60652,-1.212337 0.68881,-0.378777 1.35135,-0.808014 1.9852,-1.27295 0.64198,-0.4709 1.19248,-1.120881 1.83365,-1.530572 1.41618,-0.904904 2.7323,-1.656903 4.18255,-2.318592 1.03224,-0.470961 2.11136,-0.83897 3.19754,-1.16687 1.23859,-0.37391 2.49199,-0.730547 3.77339,-0.909249 1.29184,-0.18016 2.6069,-0.220768 3.90978,-0.15912 1.17885,0.05578 2.364,0.188174 3.50819,0.477356 1.3003,0.328636 3.76581,1.416915 3.76581,1.416915 0,0 -1.81203,-1.472068 -2.81867,-2.053392 -1.61818,-0.934482 -3.3421,-1.710854 -5.12364,-2.274649 -2.00969,-0.635998 -4.09729,-1.146702 -6.20371,-1.226413 -2.8974,-0.109643 -5.85739,0.209987 -8.63635,1.037209 -2.60654,0.775896 -4.97737,2.223815 -7.31383,3.615571 -2.46599,1.468909 -4.79492,3.1716 -7.03154,4.970574 l -25.16502,24.679977 c -0.63812,0.648717 -1.18845,1.305793 -1.69709,1.895288 -0.55295,0.640839 -0.7267,1.276985 -0.89822,1.98165 -0.13572,0.557603 -0.11775,1.146145 -0.0894,1.719331 0.0335,0.677582 0.30569,2.012143 0.30569,2.012143 0,0 -0.9644,0.38307 -1.43965,0.591013 -0.87787,0.384109 -1.76687,0.750616 -2.60652,1.212337 -0.68881,0.378778 -1.35135,0.808013 -1.9852,1.272951 -0.64198,0.470898 -1.19248,1.120879 -1.83365,1.530571 -1.41618,0.904905 -2.7323,1.656904 -4.182558,2.318591 -1.032234,0.470962 -2.111351,0.838971 -3.197534,1.166872 -1.238589,0.37391 -2.491993,0.730546 -3.77339,0.909249 -1.291837,0.180158 -2.606899,0.220767 -3.90978,0.159119 -1.178854,-0.05578 -2.363997,-0.188173 -3.508192,-0.477356 -1.300298,-0.328637 -3.765814,-1.416915 -3.765814,-1.416915 0,0 1.812037,1.472067 2.818676,2.053392 1.618175,0.934481 3.3421,1.710854 5.123638,2.274649 2.009689,0.635997 4.097292,1.146702 6.203707,1.226413 2.897399,0.109644 5.857397,-0.209987 8.636357,-1.037209 2.60654,-0.775895 4.97737,-2.223816 7.31383,-3.615571 2.46599,-1.468909 4.79492,-3.171601 7.03154,-4.970574 z m 6.3384,24.947681 c 0,0 0.92003,2.483313 2.05261,3.57498 1.1223,1.081764 2.37239,2.36166 3.83156,3.130244 1.7608,0.927458 3.74718,1.508558 5.73022,1.676306 2.31078,0.195471 4.6663,-0.219569 6.91049,-0.803942 1.87009,-0.486957 3.6722,-1.271736 5.35392,-2.223671 1.70297,-0.963971 3.30334,-2.140549 4.72102,-3.489452 1.17997,-1.122725 2.24817,-2.389569 3.09603,-3.780242 0.79896,-1.310442 1.40592,-2.750011 1.83025,-4.224976 0.30299,-1.053156 0.47348,-2.15434 0.49605,-3.24998 0.0331,-1.605896 -0.11507,-3.237795 -0.53026,-4.789445 -0.37485,-1.400938 -0.95677,-2.768014 -1.74472,-3.985502 -0.75666,-1.169143 -1.72543,-2.216597 -2.80524,-3.096035 -0.74913,-0.610108 -1.63485,-1.035724 -2.49736,-1.471043 -0.55876,-0.282012 -1.72762,-0.735524 -1.72762,-0.735524 0,0 0.97668,2.671485 1.14605,4.071028 0.20425,1.687755 0.16806,3.431436 -0.17106,5.097339 -0.44249,2.17374 -1.18917,4.347028 -2.39472,6.209175 -0.99475,1.536528 -2.43281,2.76109 -3.86577,3.899977 -1.07027,0.850627 -2.26039,1.556529 -3.48945,2.155251 -1.54066,0.750518 -3.15665,1.381407 -4.82365,1.778937 -1.7419,0.41539 -3.5467,0.568493 -5.33681,0.615786 -1.93022,0.051 -5.78154,-0.359211 -5.78154,-0.359211 z M 107.31778,30.569884 c 0,0 -0.92003,-2.483313 -2.05261,-3.57498 -1.1223,-1.081764 -2.37239,-2.36166 -3.83156,-3.130244 -1.760807,-0.927458 -3.747183,-1.508558 -5.730228,-1.676306 -2.310779,-0.195471 -4.666292,0.219569 -6.910487,0.803942 -1.870085,0.486957 -3.672199,1.271736 -5.353914,2.223671 -1.702978,0.963971 -3.303341,2.140549 -4.721027,3.489452 -1.179975,1.122725 -2.248166,2.389569 -3.096034,3.780242 -0.798952,1.310442 -1.405914,2.750011 -1.830251,4.224976 -0.302986,1.053156 -0.473478,2.15434 -0.49605,3.24998 -0.03308,1.605896 0.115077,3.237795 0.53026,4.789445 0.374856,1.400938 0.956777,2.768014 1.744727,3.985503 0.756659,1.169141 1.725424,2.216595 2.805245,3.096033 0.749123,0.610108 1.634849,1.035726 2.497354,1.471044 0.558758,0.282012 1.727621,0.735523 1.727621,0.735523 0,0 -0.976675,-2.671483 -1.146046,-4.071027 -0.20425,-1.687755 -0.168066,-3.431436 0.171053,-5.097339 0.442496,-2.17374 1.18917,-4.347028 2.394723,-6.209175 0.994747,-1.536528 2.432806,-2.76109 3.865767,-3.899977 1.070269,-0.850627 2.260398,-1.556529 3.489452,-2.155251 1.540663,-0.750518 3.156656,-1.381407 4.823656,-1.778937 1.741895,-0.41539 3.546694,-0.568493 5.336809,-0.615786 1.93022,-0.051 5.78154,0.359211 5.78154,0.359211 z"/>
  </g>
</svg>
