<?xml version="1.0" encoding="UTF-8" standalone="no"?>
<svg
   version="1.1"
   id="Layer_1"
   x="0px"
   y="0px"
   width="363.05"
   height="425"
   viewBox="0 0 363.05 425"
   enable-background="new 0 0 375 460"
   xml:space="preserve"
   sodipodi:docname="M.svg"
   inkscape:version="1.1.1 (3bf5ae0d25, 2021-09-20)"
   xmlns:inkscape="http://www.inkscape.org/namespaces/inkscape"
   xmlns:sodipodi="http://sodipodi.sourceforge.net/DTD/sodipodi-0.dtd"
   xmlns:xlink="http://www.w3.org/1999/xlink"
   xmlns="http://www.w3.org/2000/svg"
   xmlns:svg="http://www.w3.org/2000/svg"><defs
   id="defs17"><linearGradient
     inkscape:collect="always"
     xlink:href="#SVGID_1_"
     id="linearGradient876"
     x1="12.132"
     y1="213.3"
     x2="350.91"
     y2="213.3"
     gradientUnits="userSpaceOnUse" /></defs><sodipodi:namedview
   id="namedview15"
   pagecolor="#ffffff"
   bordercolor="#666666"
   borderopacity="1.0"
   inkscape:pageshadow="2"
   inkscape:pageopacity="0.0"
   inkscape:pagecheckerboard="0"
   showgrid="false"
   inkscape:zoom="1.6918"
   inkscape:cx="181.47"
   inkscape:cy="212.2"
   inkscape:window-width="1920"
   inkscape:window-height="986"
   inkscape:window-x="-11"
   inkscape:window-y="-11"
   inkscape:window-maximized="1"
   inkscape:current-layer="Layer_1" />

<path
   d="M 177.36,423.44 C 93.48,392.17 55.507,321.44 11.006,224.93 l -3.521,-7.64 6.015,-5.88 c 3.738,-3.67 7.321,-6.87 10.795,-9.96 13.399,-11.96 21.481,-19.17 21.481,-36.9 0,-18.9 -11.424,-30.3 -37.266,-54.29 L 1.018,103.29 0,77.975 3.583,74.295 C 19.562,57.895 52.996,26.922 97.388,3.758 L 104.59,0 155.84,44.395 h 51.37 L 258.46,0 l 7.2,3.758 c 44.38,23.164 77.82,54.137 93.8,70.537 l 3.59,3.68 -1.03,25.315 -7.49,6.97 c -25.84,23.99 -37.27,35.39 -37.27,54.29 0,17.73 8.1,24.94 21.49,36.9 3.47,3.09 7.06,6.29 10.8,9.96 l 6.01,5.88 -3.53,7.64 c -44.49,96.51 -82.47,167.24 -166.34,198.51 l -4.17,1.56 z"
   id="path2" />
<path
   fill="#ffffff"
   d="m 75.62,292.88 c 0,0 66.98,-45.78 117.88,-98.98 55.22,-57.7 54.89,-98.319 62.18,-112.908 7.3,-14.591 49.74,-25.367 49.74,-25.367 0,0 14.76,22.715 9.45,62.175 0,0 -77.59,137.28 -239.25,175.08 z"
   id="path4" />
<path
   d="M 57.963,292.91 C 45.613,270.64 33.948,246.18 21.847,219.94 40.305,201.86 57.714,193.1 57.714,164.55 c 0,-26.15 -17.409,-41 -44.96,-66.649 L 12.132,82.631 C 25.951,68.445 59.067,37.221 102.91,14.341 l 48.48,41.991 h 6.95 C 147,125.26 53.735,214.04 53.735,214.04 c 0,0 130.325,-36.55 194.735,-189.502 l 12.37,-9.813 c 17.59,9.241 33.4,19.794 46.95,30.036 l -4.82,1.222 c -10.99,2.792 -47.53,13.243 -56.19,30.563 -2.07,4.156 -3.44,9.155 -5.17,15.495 C 236.29,111.51 227.1,143.83 186.32,187.02 133.65,242.81 57.963,292.91 57.963,292.91 Z m 266.767,-173.79 -0.25,1.9 -0.94,1.67 c -0.25,0.44 -0.98,1.69 -2.09,3.51 7.46,-8.62 17.24,-17.5 28.84,-28.299 l 0.62,-15.27 c -7.5,-7.707 -20.74,-20.445 -38.25,-34.135 l 1.11,1.709 c 0.68,1.054 16.69,26.297 10.96,68.915 z m -114.8,182.71 c 0,0 30.5,-23.2 63.33,-71.62 15.56,-22.95 29.61,-58.83 32.08,-65.32 0,-0.12 0,-0.22 0,-0.34 0,-7.68 1.53,-14.37 4.36,-20.66 -29.2,40.93 -104.81,128.98 -231.801,158.68 l -12.707,2.97 c 29.336,49.65 63.478,87.01 116.338,106.72 80.03,-29.85 117.18,-100.15 159.67,-192.32 -0.69,-0.68 -1.37,-1.32 -2.06,-1.98 l -3.93,6.89 c -45.69,71.02 -125.27,76.98 -125.27,76.98 z"
   id="path17"
   />
<path
   fill="#ffffff"
   d="M 227.83,43.19 211.65,56.333 H 167.49 C 159.32,112.01 86.564,192.91 86.564,192.91 193.01,134.21 227.83,43.19 227.83,43.19 Z"
   id="path19" />
<path
   fill="#ffffff"
   d="m 240.76,285.42 c 41.48,-13.83 72.42,-42.52 92.44,-72.91 -10.46,-9.39 -19.71,-17.07 -24.46,-28.87 -26.5,63.83 -67.98,101.78 -67.98,101.78 z"
   id="path21" />
</svg>
