<?xml version="1.0" encoding="UTF-8" standalone="no"?>
<svg xmlns="http://www.w3.org/2000/svg" xmlns:xlink="http://www.w3.org/1999/xlink" version="1.1" width="600" height="508.70862">
  <linearGradient x1="0" y1="0" x2="1" y2="0" id="linearGradient222" gradientUnits="userSpaceOnUse" gradientTransform="matrix(24.592255,24.592255,24.592255,-24.592255,350.59473,471.4248)" spreadMethod="pad">
    <stop style="stop-color:#612c75" offset="0"/>
    <stop style="stop-color:#bf99c3" offset="0.15"/>
    <stop style="stop-color:#7b5190" offset="0.3"/>
    <stop style="stop-color:#612c75" offset="0.5"/>
    <stop style="stop-color:#7b5190" offset="0.7"/>
    <stop style="stop-color:#bf99c3" offset="0.85"/>
    <stop style="stop-color:#612c75" offset="1"/>
  </linearGradient>
  <linearGradient x1="0" y1="0" x2="1" y2="0" id="linearGradient2997" xlink:href="#linearGradient222" gradientUnits="userSpaceOnUse" gradientTransform="matrix(24.592255,24.592255,24.592255,-24.592255,350.59473,471.4248)" spreadMethod="pad"/>
  <linearGradient x1="0" y1="0" x2="1" y2="0" id="linearGradient3000" xlink:href="#linearGradient222" gradientUnits="userSpaceOnUse" gradientTransform="matrix(357.43691,-357.43691,357.43691,357.43691,121.28675,433.0444)" spreadMethod="pad"/>
  <path d="m 278.30721,508.70861 c -80.39049,0 -153.57186,-33.44396 -206.085122,-94.02389 C 27.019694,362.46215 0,292.44931 0,227.39275 0,112.64262 57.57128,68.98089 60.013081,67.16407 c 3.967927,-2.89237 8.633512,-4.36036 13.284562,-4.36036 4.65105,0 9.374773,1.46799 13.284562,4.36036 7.950389,5.79928 11.133451,16.0752 7.950389,25.3773 -0.116277,0.40696 -13.735133,40.37692 -13.735133,72.00407 0,101.21847 67.440229,153.74627 107.700879,176.05678 l 0,-53.3708 c 0,-35.82762 -65.52167,-67.78906 -88.45716,-76.13188 -7.209127,-2.67435 -12.601438,-8.86606 -14.258374,-16.35135 -1.584264,-7.55795 0.740679,-15.39207 6.249848,-20.78438 L 262.58085,6.42427 C 266.83947,2.22379 272.52247,0 278.30721,0 c 2.90691,0 5.85742,0.50813 8.69165,1.70054 6.46787,2.7325 11.24973,8.35736 12.95027,14.9415 C 302.55081,7.04925 311.3006,0 321.69279,0 402.08328,0 475.26465,33.32768 527.73431,93.90761 572.98031,146.14472 600,216.20116 600,281.27226 c 0,114.73559 -57.57128,158.39733 -60.01308,160.21414 -3.96793,2.89237 -8.61898,4.31676 -13.28456,4.3749 -4.70919,0 -9.36024,-1.48253 -13.3427,-4.43304 -7.89225,-5.78474 -11.11892,-16.06065 -7.89225,-25.37729 0.11627,-0.33371 13.69153,-40.36239 13.69153,-71.98953 0,-102.13416 -67.33849,-154.25499 -107.70088,-176.28934 l 0,53.60335 c 0,33.32769 59.60611,65.73969 88.45716,76.19002 7.26726,2.61621 12.60143,8.79339 14.24384,16.35135 1.70054,7.49982 -0.68371,15.33393 -6.19171,20.72624 l -170.5482,167.59768 c -4.31675,4.20048 -9.94162,6.46787 -15.72636,6.46787 -2.95051,0 -5.90102,-0.6244 -8.69165,-1.75868 -6.52601,-2.77609 -11.23519,-8.34282 -12.99387,-14.92696 -2.55808,9.59279 -11.30787,16.68564 -21.70006,16.68564" fill="#ffffff"/>
  <path d="M 321.69279,486.22334 492.24098,318.62566 c 0,0 -103.20971,-37.35375 -103.20971,-97.25055 l 0,0 0,-88.23915 c 0,0 152.61259,49.40288 152.61259,210.92513 l 0,0 c 0,35.94389 -14.99964,79.31494 -14.99964,79.31494 l 0,0 c 0,0 50.87086,-37.35375 50.87086,-142.10412 l 0,0 c 0,-115.25884 -92.75938,-258.84547 -255.82229,-258.84547 l 0,0 0,463.7969 z M 107.70088,189.98052 c 0,0 103.28238,37.41188 103.28238,97.25055 l 0,0 0,88.28274 c 0,0 -152.612581,-49.38834 -152.612581,-210.96872 l 0,0 c 0,-35.88576 14.926964,-79.31494 14.926964,-79.31494 l 0,0 c 0,0 -50.870861,37.41188 -50.870861,142.16225 l 0,0 c 0,115.2007 92.773918,258.83094 255.880428,258.83094 l 0,0 0,-463.7969 -170.60633,167.55408 z" style="fill:url(#linearGradient3000)"/>
</svg>
