<?xml version="1.0" encoding="UTF-8" standalone="no"?>
<svg xmlns="http://www.w3.org/2000/svg" version="1.1" width="600" height="508.70862">
  <path d="m 321.69279,22.42679 0,463.7969 170.54819,-167.59768 c 0,0 -103.20971,-37.35375 -103.20971,-97.25056 l 0,-88.23914 c 0,0 152.61259,49.34474 152.61259,210.92513 0,35.94389 -14.99964,79.31493 -14.99964,79.31493 0,0 50.87086,-37.35374 50.87086,-142.10411 0,-115.2007 -92.71578,-258.84547 -255.82229,-258.84547 M 22.426782,227.39275 c 0,-104.75037 50.870861,-142.16225 50.870861,-142.16225 0,0 -14.926964,43.42918 -14.926964,79.31494 0,161.58038 152.612581,210.96872 152.612581,210.96872 l 0,-88.28274 c 0,-59.83867 -103.28238,-97.25055 -103.28238,-97.25055 l 170.60633,-167.55408 0,463.7969 c -163.10651,0 -255.880428,-143.63024 -255.880428,-258.83094"/>
</svg>
