<?xml version="1.0" encoding="utf-8"?>
<svg xmlns="http://www.w3.org/2000/svg" xmlns:xlink="http://www.w3.org/1999/xlink" version="1.1" id="Layer_1" x="0px" y="0px" width="89.579px" height="50px">
  <path fill="#ffffff" d="M70.786,42.5L67.45,28.493L64.15,42.5H50.903l-2.101-13.248C47.404,37.835,41.514,42.5,31.868,42.5H0v-35h31.868  c3.651,0,10.71,0.847,14.572,6.855L45.354,7.5h13.091l0.845,10.709L61.483,7.5H73.45l2.193,10.708L76.488,7.5h13.091l-5.549,35  H70.786z M31.868,33.402c1.403,0,5.041-1.506,5.041-8.386c0-6.906-3.638-8.418-5.04-8.418h-5.36v16.804H31.868z"/>
  <g>
    <path style="fill:url(#SVGID_5_)" id="SVGID_2_" d="M14.245,41.023H1.476V8.977h12.77L14.245,41.023L14.245,41.023z M16.294,8.977v32.048     c0,0,4.283,0,15.574,0c9.263,0,15.783-4.549,15.783-16.008c0-14.074-10.304-16.04-15.783-16.04     C20.598,8.977,16.294,8.977,16.294,8.977z M25.033,34.877V15.123c0,0,0,0,6.835,0c1.681,0,6.516,1.599,6.516,9.894     c0,8.303-4.835,9.86-6.517,9.86C25.033,34.877,25.033,34.877,25.033,34.877z M52.163,41.023h10.819l4.46-18.934l4.508,18.934     h10.82l5.082-32.047h-10l-1.557,19.752L72.247,8.977h-9.559L58.639,28.73L57.081,8.977h-9.998L52.163,41.023z"/>
    <linearGradient id="SVGID_5_" gradientUnits="userSpaceOnUse" x1="-3.2583" y1="-66.6533" x2="63.4192" y2="-66.6533" gradientTransform="matrix(0.3911 -1.0089 -1.1206 -0.4344 -44.3259 26.3985)">
      <stop style="stop-color:#612c75" offset="0"/>
      <stop style="stop-color:#7b5190" offset="0.3"/>
      <stop style="stop-color:#bf99c3" offset="0.5"/>
      <stop style="stop-color:#7b5190" offset="0.7"/>
      <stop style="stop-color:#612c75" offset="1"/>
    </linearGradient>
  </g>
</svg>
