<?xml version="1.0" encoding="utf-8"?>
<svg xmlns="http://www.w3.org/2000/svg" xmlns:xlink="http://www.w3.org/1999/xlink" version="1.1" id="Layer_1" x="0px" y="0px" width="89.579px" height="50px">
  <path id="SVGID_2_" d="M14.245,41.023H1.476V8.977h12.77L14.245,41.023L14.245,41.023z M16.294,8.977v32.048     c0,0,4.283,0,15.574,0c9.263,0,15.783-4.549,15.783-16.008c0-14.074-10.304-16.04-15.783-16.04     C20.598,8.977,16.294,8.977,16.294,8.977z M25.033,34.877V15.123c0,0,0,0,6.835,0c1.681,0,6.516,1.599,6.516,9.894     c0,8.303-4.835,9.86-6.517,9.86C25.033,34.877,25.033,34.877,25.033,34.877z M52.163,41.023h10.819l4.46-18.934l4.508,18.934     h10.82l5.082-32.047h-10l-1.557,19.752L72.247,8.977h-9.559L58.639,28.73L57.081,8.977h-9.998L52.163,41.023z"/>
</svg>
