<?xml version="1.0" encoding="UTF-8" standalone="no"?>
<svg
   version="1.1"
   id="Layer_1"
   x="0px"
   y="0px"
   width="530.69208"
   height="500"
   sodipodi:docname="M.svg"
   inkscape:version="1.1.1 (3bf5ae0d25, 2021-09-20)"
   xmlns:inkscape="http://www.inkscape.org/namespaces/inkscape"
   xmlns:sodipodi="http://sodipodi.sourceforge.net/DTD/sodipodi-0.dtd"
   xmlns="http://www.w3.org/2000/svg"
   xmlns:svg="http://www.w3.org/2000/svg">
  <defs
     id="defs21">
    <linearGradient
       id="path8-1-7_4_"
       gradientUnits="userSpaceOnUse"
       x1="-756.87158"
       y1="1239.7378"
       x2="-721.17627"
       y2="1204.0425"
       gradientTransform="matrix(9.9996761,0,0,9.9996761,7655.37,-11986.852)">
      <stop
         offset="0"
         style="stop-color:#bf331c"
         id="stop4" />
      <stop
         offset="0.4"
         style="stop-color:#d3641c"
         id="stop6" />
      <stop
         offset="0.5"
         style="stop-color:#f6b91d"
         id="stop8" />
      <stop
         offset="0.6"
         style="stop-color:#d3641c"
         id="stop10" />
      <stop
         offset="1"
         style="stop-color:#bf331c"
         id="stop12" />
    </linearGradient>
  </defs>
  <sodipodi:namedview
     id="namedview19"
     pagecolor="#ffffff"
     bordercolor="#666666"
     borderopacity="1.0"
     inkscape:pageshadow="2"
     inkscape:pageopacity="0.0"
     inkscape:pagecheckerboard="0"
     showgrid="false"
     inkscape:zoom="15.64"
     inkscape:cx="26.502558"
     inkscape:cy="25"
     inkscape:window-width="1920"
     inkscape:window-height="986"
     inkscape:window-x="-11"
     inkscape:window-y="-11"
     inkscape:window-maximized="1"
     inkscape:current-layer="Layer_1" />
  <path
     d="m 95.574842,0 -2.499919,36.268825 -0.02,0.529983 -0.04,0.209993 C 89.715032,78.077471 82.815256,112.74635 72.975574,137.35555 L 46.296438,99.686771 v 0 l -0.569981,-0.779974 -26.24915,-36.998802 -8.439727,44.548555 -0.159995,0.87997 -0.02,0.1 c -28.239085,146.23526 0.899971,250.55189 60.858029,314.59981 50.878346,54.34824 122.226036,78.40746 193.493726,77.95748 0.1,0 0.18,0 0.26999,0 71.2677,0.44998 142.63538,-23.59924 193.51374,-77.95748 59.95805,-64.04792 89.07711,-168.36455 60.83803,-314.59981 v -0.1 l -0.16,-0.87997 -8.43973,-44.548555 -26.24915,36.998802 -0.56998,0.779974 v 0 L 457.73311,137.35555 C 447.89343,112.74635 440.99365,78.077471 437.69376,37.008801 l -0.04,-0.209993 -0.02,-0.529983 L 435.13384,0 l -28.62907,22.419274 -0.28999,0.239992 -0.28999,0.209993 v 0 c -38.76875,29.209054 -56.79817,61.058023 -61.06803,91.697031 -4.29986,30.68901 3.84988,58.08812 9.72969,81.35736 5.85981,23.26925 9.1197,41.62866 3.97987,56.44818 -3.74988,10.81965 -12.3996,22.49927 -32.74894,34.95886 V 90.117081 l 36.9888,-59.958058 0.08,-0.109996 0.06,-0.109997 0.36999,-0.639979 17.53943,-29.19905424 h -34.0589 -0.04 -162.78473 -0.02 -34.07889 l 17.51943,29.19905424 0.38999,0.639979 0.06,0.109997 0.06,0.109996 37.02881,60.008057 v 197.16361 c -20.36934,-12.45959 -29.01906,-24.14921 -32.76894,-34.95886 -5.13984,-14.80952 -1.87994,-33.17893 3.97987,-56.44818 5.87981,-23.26924 14.01954,-50.65835 9.72968,-81.35736 -4.27987,-30.639008 -22.29929,-62.487977 -61.06803,-91.697031 v 0 l -0.28999,-0.209993 -0.28999,-0.239992 z"
     id="path2"
     style="stroke-width:9.99968" />
  <path
     fill="url(#path8-1-7_4_)"
     d="m 183.93198,19.419371 0.38998,0.639979 39.87871,64.627907 V 318.87967 c -43.2786,-18.85939 -62.92796,-38.94874 -70.28772,-60.16805 -7.37976,-21.30931 -2.41992,-43.85858 3.53988,-67.48781 5.95981,-23.62924 12.90958,-48.33844 9.3197,-73.95761 -3.56988,-25.619168 -17.74942,-52.088311 -53.86825,-79.207433 l -0.58998,-0.459985 -0.04,0.739976 C 107.50445,97.456843 96.724805,145.61528 75.085506,173.72437 l -44.508559,-62.88796 -0.569981,-0.79997 -0.199994,0.94997 c -27.4591106,142.24539 0.959969,239.08225 55.978187,297.85035 46.738481,49.91838 112.596351,72.33766 179.564181,71.85767 66.96783,0.48998 132.8457,-21.92929 179.58418,-71.85767 55.01822,-58.7581 83.4373,-155.60496 55.95819,-297.85035 l -0.17999,-0.94997 -0.56999,0.79997 -44.50855,62.88796 C 433.97388,145.61528 423.21423,97.466843 418.44438,38.338758 l -0.04,-0.739976 -0.60998,0.459985 c -36.08883,27.119122 -50.26837,53.588265 -53.84826,79.207433 -3.58988,25.61917 3.3599,50.32837 9.3197,73.95761 5.95981,23.62923 10.91965,46.1685 3.51989,67.48781 -7.33976,21.21931 -26.98913,41.29866 -70.26773,60.16805 V 84.687257 l 39.87871,-64.627907 0.38999,-0.639979 h -0.04 -162.78473 z"
     id="path15"
     style="fill:url(#path8-1-7_4_);stroke-width:9.99968" />
</svg>
