<?xml version="1.0" encoding="UTF-8" standalone="no"?>
<svg
   version="1.1"
   id="Layer_1"
   x="0px"
   y="0px"
   width="533.62598"
   height="500"
   viewBox="0 0 533.62598 500.00001"
   sodipodi:docname="WM.svg"
   inkscape:version="1.1.1 (3bf5ae0d25, 2021-09-20)"
   xmlns:inkscape="http://www.inkscape.org/namespaces/inkscape"
   xmlns:sodipodi="http://sodipodi.sourceforge.net/DTD/sodipodi-0.dtd"
   xmlns="http://www.w3.org/2000/svg"
   xmlns:svg="http://www.w3.org/2000/svg">
  <defs
     id="defs13" />
  <sodipodi:namedview
     id="namedview11"
     pagecolor="#ffffff"
     bordercolor="#666666"
     borderopacity="1.0"
     inkscape:pageshadow="2"
     inkscape:pageopacity="0.0"
     inkscape:pagecheckerboard="0"
     showgrid="false"
     inkscape:zoom="0.97746831"
     inkscape:cx="396.43229"
     inkscape:cy="-138.11189"
     inkscape:window-width="1920"
     inkscape:window-height="986"
     inkscape:window-x="-11"
     inkscape:window-y="-11"
     inkscape:window-maximized="1"
     inkscape:current-layer="Layer_1" />
  <path
     d="m 178.55873,0 0.42272,0.693695 43.22587,70.052353 V 324.59505 c -46.91113,-20.44232 -68.20973,-42.21784 -76.18722,-65.21817 -8.01001,-23.09787 -2.63388,-47.53978 3.82616,-73.1523 6.46003,-25.61252 13.99313,-52.39565 10.11277,-80.16512 C 156.07867,78.28998 140.709,49.59919 101.56943,20.203866 l -0.6395,-0.498593 -0.0542,0.802084 C 95.716376,84.58743 84.031951,136.78798 60.565551,167.25636 L 12.321234,99.08999 11.703412,98.22287 11.497471,99.25258 c -29.774688,154.18454 1.040543,259.14926 60.676632,322.84997 50.650567,54.10821 122.046957,78.40921 194.624797,77.88894 72.58867,0.53111 143.9959,-23.7699 194.65731,-77.88894 C 521.0923,358.41268 551.90753,253.43712 522.122,99.25258 l -0.1951,-1.02971 -0.61782,0.86712 -48.24432,68.16637 C 449.58752,136.78798 437.91393,84.598269 432.75458,20.507357 l -0.0542,-0.802084 -0.65034,0.498593 c -39.11789,29.395324 -54.48757,58.086114 -58.37876,85.855594 -3.8912,27.76947 3.65273,54.5526 10.11277,80.16512 6.46003,25.61252 11.83617,50.04359 3.81532,73.1523 -7.96665,23.00033 -29.26526,44.76501 -76.17638,65.21817 V 70.746048 L 354.64886,0.693695 355.07158,0 h -0.0325 -176.45865 z"
     id="path2"
     style="stroke-width:10.839" />
</svg>
