<?xml version="1.0" encoding="UTF-8" standalone="no"?>
<svg xmlns="http://www.w3.org/2000/svg" version="1.1" width="600" height="547.44525">
  <path d="M 377.23084,351.13139 C 337.07573,393.68157 313.65876,429.66241 299.97263,456.50092 286.2865,429.66241 262.86953,393.68157 222.71442,351.13139 158.34854,282.96077 62.285584,251.20895 38.389599,251.20895 l 0,257.79197 523.166061,0 0,-257.79197 c -23.89599,0 -119.95894,31.75182 -184.32482,99.92244 M 114.03285,233.03376 c -0.10949,-2.83303 -0.16424,-5.61131 -0.16424,-8.44434 0,-102.81022 83.2938,-186.15876 186.10402,-186.15876 102.81022,0 186.15876,83.34854 186.15876,186.15876 0,2.83303 -0.10949,5.61131 -0.21898,8.44434 -44.16515,18.39416 -96.44617,49.18796 -136.64234,91.73814 -18.66788,19.77646 -35.1323,39.51186 -49.29744,59.0146 -14.16515,-19.50274 -30.62956,-39.23814 -49.29745,-59.0146 -40.14142,-42.55018 -92.47719,-73.34398 -136.64233,-91.73814"/>
</svg>
