<?xml version="1.0" encoding="UTF-8" standalone="no"?>
<svg xmlns="http://www.w3.org/2000/svg" version="1.1" id="Layer_1" x="0px" y="0px" width="116.66087" height="50" viewBox="0 0 116.66087 49.999999">
  <g transform="rotate(-90,25,25)">
    <g transform="rotate(90,24.999639,25.000361)">
      <path style="fill:#808080" d="M 16.972,50 C 16.613,50 16.253,49.934 15.907,49.79 14.596,49.247 13.91,47.801 14.305,46.447 L 18.841,30.94 3.404,34.502 c -0.209,0.043 -0.419,0.07 -0.625,0.07 -1.152,0 -2.216,-0.718 -2.618,-1.845 -0.475,-1.328 0.128,-2.8 1.394,-3.426 L 16.629,21.887 7.74,14.131 C 6.71,13.237 6.489,11.726 7.213,10.565 7.735,9.732 8.633,9.264 9.569,9.264 c 0.365,0 0.729,0.07 1.085,0.223 L 20.588,13.716 19.476,6.28 C 19.273,4.931 20.082,3.634 21.387,3.222 21.663,3.13 21.946,3.09 22.221,3.09 c 1.03,0 2.006,0.574 2.489,1.538 L 28.187,11.582 33.665,1.46 C 34.167,0.539 35.117,0 36.106,0 c 0.337,0 0.676,0.062 1.003,0.188 1.303,0.5 2.032,1.897 1.7,3.251 l -1.763,7.212 C 42.717,8.478 52.4,5.56 63.574,5.56 c 22.972,0 48.562,12.439 53.038,36.215 0.265,1.407 -0.588,2.782 -1.963,3.177 -0.254,0.075 -0.511,0.109 -0.772,0.109 -1.114,0 -2.156,-0.674 -2.582,-1.761 -0.467,-1.188 -11.875,-29.099 -46.484,-29.099 -5.396,0 -10.015,0.797 -13.741,1.827 l 1.148,0.026 c 1.397,0.035 2.558,1.095 2.704,2.484 0.146,1.389 -0.763,2.673 -2.125,2.993 l -13.515,3.212 7.794,8.225 c 0.944,0.999 1.019,2.542 0.175,3.624 -0.545,0.692 -1.359,1.065 -2.19,1.065 -0.466,0 -0.938,-0.119 -1.366,-0.359 l -8.846,-4.995 2.124,10.03 c 0.285,1.35 -0.464,2.699 -1.755,3.177 -0.315,0.118 -0.643,0.175 -0.964,0.175 -0.989,0 -1.939,-0.535 -2.438,-1.451 L 26.835,35.103 19.402,48.568 C 18.899,49.479 17.957,50 16.972,50"/>
      <path d="m 33.024,15.437 c 0,0 13.577,-7.099 30.554,-7.099 22.835,0 46.293,12.654 50.305,33.95 0,0 -12.037,-30.865 -49.071,-30.865 -16.665,0 -26.232,7.098 -26.232,7.098 L 52.157,18.832 33.952,23.153 45.06,34.878 30.865,26.855 34.261,42.901 26.854,29.327 16.979,47.226 22.841,27.166 2.78,31.794 21.605,22.535 9.568,12.041 24.074,18.215 22.224,5.867 28.085,17.597 36.108,2.782 Z"/>
    </g>
  </g>
</svg>
