<?xml version="1.0" encoding="UTF-8" standalone="no"?>
<svg
   xmlns:dc="http://purl.org/dc/elements/1.1/"
   xmlns:cc="http://creativecommons.org/ns#"
   xmlns:rdf="http://www.w3.org/1999/02/22-rdf-syntax-ns#"
   xmlns:svg="http://www.w3.org/2000/svg"
   xmlns="http://www.w3.org/2000/svg"
   xmlns:xlink="http://www.w3.org/1999/xlink"
   width="779.29688"
   height="557.03125"
   version="1.1">
  <defs>
    <linearGradient id="g">
      <stop offset="0"   style="stop-color:#536e78" />
      <stop offset="0.5" style="stop-color:#829ba5" />
      <stop offset="1"   style="stop-color:#d9eaf3" />
    </linearGradient>
    <linearGradient id="g1" xlink:href="#g" gradientUnits="userSpaceOnUse" x1="846.09375" y1="51.5625"   x2="627.92969" y2="52.814257" />
    <linearGradient id="g2" xlink:href="#g" gradientUnits="userSpaceOnUse" x1="440.02128" y1="47.699988" x2="605.50675" y2="185.55244" />
    <linearGradient id="g3" xlink:href="#g" gradientUnits="userSpaceOnUse" x1="601.35341" y1="198.02947" x2="491.40625" y2="528.32031" />
    <linearGradient id="g4" xlink:href="#g" gradientUnits="userSpaceOnUse" x1="754.29688" y1="172.07031" x2="505.27344" y2="527.53906" />
    <linearGradient id="g5" xlink:href="#g" gradientUnits="userSpaceOnUse" x1="605.71818" y1="406.6884"  x2="717.96875" y2="246.48438" />
    <linearGradient id="g6" xlink:href="#g" gradientUnits="userSpaceOnUse" x1="617.38281" y1="390.03906" x2="504.49219" y2="551.17188" />
  </defs>
  <g id="rt" transform="translate(-95.3125,-30.664062)">
    <path style="fill:#000000" d="M 663.67188,51.5625 627.92969,159.17969 H 811.52344 L 846.09375,51.5625 Z" />
    <path style="fill:#000000" d="M 495.11719,97.65625 576.75781,272.07031 634.76562,97.65625 Z" />
    <path style="fill:#000000" d="M 491.40625,120.3125 V 528.32031 L 570.70312,289.84375 Z" />
    <path style="fill:#000000" d="M 623.63281,172.07031 505.27344,527.53906 754.29688,172.07031 Z" />
    <path style="fill:#000000" d="m 717.96875,246.48438 -91.99219,131.25 32.42188,69.33593 z" />
    <path style="fill:#000000" d="M 617.38281,390.03906 504.49219,551.17188 651.17188,461.71875 Z" />
  </g>
  <use xlink:href="#rt" transform="matrix(-1,0,0,1,779.36719,0)" />
</svg>
