<?xml version="1.0" encoding="UTF-8" standalone="no"?>
<svg xmlns="http://www.w3.org/2000/svg" version="1.1" width="600" height="510.33478">
  <path d="M 419.40422,0 179.60068,0 178.4525,0.15309 C 162.26318,1.90087 139.88645,13.56126 132.41053,38.08126 L 35.42769,65.08898 34.4326,65.48497 C 21.27958,70.5242 0,87.61931 0,118.76047 c 0,5.62608 0.70217,11.6604 2.24532,18.14123 l 91.44607,341.45563 2.53875,3.34248 c 10.32085,13.80366 35.52976,34.98118 64.28526,26.71429 0,0 128.92773,-35.42769 139.542,-38.37468 10.66531,2.94699 139.7844,38.47675 139.7844,38.47675 28.55138,8.16482 53.72201,-13.0127 64.08114,-26.81636 l 2.48772,-3.34248 91.30573,-340.805 C 599.31109,130.86738 600,124.69273 600,118.96459 600,87.51725 578.82247,70.5242 565.66945,65.48497 L 564.72539,65.08898 467.74255,38.08126 C 460.26663,13.56126 437.83887,1.90087 421.70058,0.15309 L 420.5524,0 419.40422,0 z" style="fill:#ffffff"/>
  <path d="m 180.74886,21.77712 c 0,0 -29.3551,3.13836 -29.3551,33.53958 L 42.26573,85.76896 c 0,0 -27.26286,10.46118 -18.89392,46.14403 l 90.24686,336.78637 c 0,0 18.89392,25.10685 40.91344,18.83014 l 145.57632,-40.02042 145.51254,40.02042 c 22.01952,6.27671 40.91344,-18.83014 40.91344,-18.83014 L 576.73024,131.91299 C 585.09918,96.23014 557.84907,85.76896 557.84907,85.76896 L 448.75932,55.3167 c 0,-30.40122 -29.40613,-33.53958 -29.40613,-33.53958 l -238.60433,0 z"/>
  <path d="m 181.69292,34.3433 c -1.33954,0.24188 -5.57505,1.18645 -9.51713,3.84002 -5.62607,3.7252 -8.21585,9.15992 -8.21585,17.13338 l 0,9.56816 c 0,0 -115.77471,32.3021 -117.4587,32.74861 -3.04905,1.4416 -12.11967,6.87632 -12.11967,21.36889 0,2.94699 0.40824,6.23843 1.25024,9.97639 0.15309,0.60012 88.01429,328.4557 89.40486,333.73733 3.89105,4.38859 15.2963,15.79383 26.06366,12.75754 l 148.95707,-41.0155 149.04638,41.0155 c 10.71633,3.03629 22.0833,-8.36895 25.9616,-12.75754 1.45436,-5.28163 89.26453,-333.13772 89.45589,-333.73733 0.85526,-3.73796 1.25024,-7.0294 1.25024,-9.97639 0,-14.49257 -9.12165,-19.92729 -12.10691,-21.36889 C 551.96785,97.18645 436.15487,64.88486 436.15487,64.88486 l 0,-9.56816 c 0,-7.97346 -2.58978,-13.40818 -8.17758,-17.13338 -3.98036,-2.65357 -8.17759,-3.59763 -9.56816,-3.84002 l -236.71621,0 z" style="fill:#ffffff"/>
  <path d="m 438.69362,81.53345 0,323.82471 c 0,0 -2.7939,21.02443 -19.58283,21.02443 l -90.89749,0 121.6942,33.53958 c 0,0 6.97838,3.49557 10.46119,-4.18447 l 89.55795,-332.24469 c 0,0 3.48281,-10.46118 -4.93717,-13.25509 L 438.69362,81.53345 z M 55.11258,110.93959 c -8.36895,2.78114 -4.87338,13.30612 -4.87338,13.30612 l 89.49416,332.14262 c 3.49557,7.71832 10.51222,4.23551 10.51222,4.23551 l 121.70696,-33.53958 -90.94853,0 c -16.80168,0 -19.54455,-21.03719 -19.54455,-21.03719 l 0,-323.76092 -106.34688,28.65344 z m 128.0347,-60.85348 234.26676,0 c 4.88614,0 5.57505,6.27671 5.57505,6.27671 l 0,348.34471 c 0,5.53677 -5.57505,6.92734 -5.57505,6.92734 l -234.26676,0 c -4.93717,0 -4.93717,-6.92734 -4.93717,-6.92734 l 0,-348.34471 c 0,-4.18447 4.93717,-6.27671 4.93717,-6.27671"/>
  <g transform="scale(10.206034,10.206034)" id="text5166" style="fill:#ffffff">
    <path d="m 31.126238,12.139253 c 0.338489,-0.07959 0.746876,-0.119395 1.225162,-0.119416 1.234264,2.1e-5 2.354289,0.338672 3.360078,1.015954 1.005759,0.677322 1.578382,1.448972 1.71787,2.314953 0.139454,0.866017 0.20919,1.438488 0.209207,1.717414 -1.7e-5,1.274402 -0.488015,2.359787 -1.463995,3.256159 -1.155288,0.796732 -1.872092,1.294453 -2.150413,1.493166 1.473703,0.278954 2.683518,1.005937 3.629449,2.180951 0.945897,1.175033 1.418854,2.349904 1.418872,3.524619 -1.8e-5,1.095114 -0.194184,2.095722 -0.582498,3.001828 -0.38835,0.90611 -1.040584,1.538441 -1.956704,1.896995 -0.916151,0.358554 -1.712718,0.597539 -2.389703,0.716956 -0.677012,0.119417 -1.35401,0.179125 -2.030997,0.179125 -0.856287,0 -1.632951,-0.06472 -2.329994,-0.194166 -0.697063,-0.129444 -1.558352,-0.328624 -2.58387,-0.59754 -1.025531,-0.268914 -1.966431,-0.403372 -2.822703,-0.403373 l -1.04558,0.06016 -2.718327,0.477667 c -0.07961,-0.05956 -0.149348,-0.134153 -0.209208,-0.223792 -0.05986,-0.08964 -0.08979,-0.194318 -0.08979,-0.314039 0,-0.07961 0.05986,-0.169249 0.179581,-0.268916 l 3.494992,-0.985416 c 0.07961,-0.05955 0.139316,-0.353234 0.179125,-0.881041 0.0398,-0.5278 0.0597,-1.229867 0.05971,-2.106202 -3e-6,-1.871768 -0.06974,-4.002428 -0.209207,-6.391989 -0.139475,-2.389537 -0.293835,-4.007587 -0.463082,-4.854155 -0.169253,-0.846536 -0.906111,-1.359298 -2.210578,-1.538289 -1.304468,-0.178955 -1.956702,-0.378135 -1.956703,-0.59754 10e-7,-0.139149 0.06472,-0.293357 0.194166,-0.462626 0.129445,-0.169231 0.293833,-0.253855 0.493164,-0.253875 0.617442,0.139187 1.24476,0.278507 1.881954,0.417959 0.637191,0.13949 1.23473,0.209226 1.792619,0.209207 1.293829,1.9e-5 2.433757,-0.283785 3.419787,-0.851414 0.986016,-0.567589 2.305221,-1.040698 3.957618,-1.419328 z m -4.061994,9.67823 c -6e-6,1.453673 -0.01003,2.653461 -0.03008,3.599367 -0.02006,0.945922 -0.04012,1.847016 -0.06016,2.703287 -6e-6,0.876334 0.03995,1.533582 0.119873,1.971744 0.07991,0.438168 0.259185,0.831514 0.537831,1.180038 0.278632,0.348529 0.716645,0.602403 1.314041,0.761624 0.597378,0.159223 1.264653,0.238835 2.001826,0.238834 1.29443,1e-6 2.305065,-0.179276 3.03191,-0.537832 0.726818,-0.358552 1.254469,-0.950926 1.582956,-1.777122 0.328457,-0.82619 0.492693,-1.93634 0.492709,-3.330452 -1.6e-5,-1.254932 -0.597403,-2.250679 -1.792164,-2.987243 -1.473731,-0.636879 -2.937421,-1.274072 -4.391074,-1.91158 1.015488,-0.179266 1.961402,-0.562584 2.837744,-1.149956 0.876318,-0.587348 1.314483,-1.458664 1.314497,-2.613952 l 0,-0.507749 c -1.4e-5,-1.035537 -0.353554,-1.906701 -1.060622,-2.613496 -0.707093,-0.706758 -1.618215,-1.060146 -2.733368,-1.060166 l -0.686419,0.05925 c -1.035561,0.139794 -1.717725,0.612903 -2.046494,1.419328 -0.328783,0.80646 -0.49317,1.926485 -0.493164,3.360078 -6e-6,0.358569 0.01002,0.896247 0.03008,1.613038 0.02005,0.716817 0.03008,1.244469 0.03008,1.582957 z" style="fill:#ffffff"/>
  </g>
</svg>
