<?xml version="1.0" encoding="UTF-8" standalone="no"?>
<svg xmlns="http://www.w3.org/2000/svg" xmlns:xlink="http://www.w3.org/1999/xlink" version="1.1" width="600" height="510.37817">
  <radialGradient cx="0" cy="0" r="1" fx="0" fy="0" id="radialGradient416" gradientUnits="userSpaceOnUse" gradientTransform="matrix(17.570526,0,0,-17.570526,481.19141,483.6748)" spreadMethod="pad">
    <stop style="stop-color:#f6b91d" offset="0"/>
    <stop style="stop-color:#d3641c" offset="0.7"/>
    <stop style="stop-color:#bf331c" offset="1"/>
  </radialGradient>
  <radialGradient cx="0" cy="0" r="1" fx="0" fy="0" id="radialGradient3007" xlink:href="#radialGradient416" gradientUnits="userSpaceOnUse" gradientTransform="matrix(17.570526,0,0,-17.570526,481.19141,483.6748)" spreadMethod="pad"/>
  <radialGradient cx="0" cy="0" r="1" fx="0" fy="0" id="radialGradient3010" xlink:href="#radialGradient416" gradientUnits="userSpaceOnUse" gradientTransform="matrix(224.1758,0,0,224.1758,300.07539,255.78742)" spreadMethod="pad"/>
  <path d="M 419.38886,0 179.56493,0 178.41665,0.1531 C 162.27698,1.90104 139.84732,13.56242 132.37076,38.08451 112.03351,43.7621 35.37967,65.09452 35.37967,65.09452 l -0.94414,0.39603 C 21.23035,70.53021 0,87.62677 0,118.77058 c 0,5.62655 0.65017,11.66139 2.19448,18.14277 l 91.50488,341.48468 2.48793,3.34276 c 10.36001,13.80483 35.53278,34.98416 64.29073,26.71657 0,0 128.92593,-35.43071 139.59215,-38.37796 10.61518,2.94725 139.75801,38.48002 139.75801,38.48002 28.55381,8.16553 53.71382,-13.0138 64.08659,-26.81863 l 2.48793,-3.34276 91.35178,-340.83399 C 599.31103,130.87852 600,124.70334 600,118.97472 600,87.5247 578.82067,70.53021 565.66653,65.49055 l -0.94414,-0.39603 c 0,0 -76.6028,-21.33242 -96.94006,-27.01001 C 460.25474,13.56242 437.87611,1.90104 421.68541,0.1531 L 420.53713,0 419.38886,0 z"/>
  <path d="m 180.76424,21.77898 c 0,0 -29.40864,3.13862 -29.40864,33.54243 L 42.25657,85.77626 c 0,0 -27.30346,10.46207 -18.9338,46.14795 l 90.25453,336.81503 c 0,0 18.89553,25.10898 40.91692,18.83173 l 145.57595,-40.02382 145.53767,40.02382 c 22.02139,6.27725 40.91692,-18.83173 40.91692,-18.83173 l 90.2035,-336.81503 c 8.42069,-35.68588 -18.8445,-46.14795 -18.8445,-46.14795 L 448.74646,55.32141 c 0,-30.40381 -29.3576,-33.54243 -29.3576,-33.54243 l -238.62462,0 z" style="fill:#bf331c"/>
  <path d="m 181.65734,34.34623 c -1.33966,0.2419 -5.52449,1.18655 -9.51794,3.84034 -5.57552,3.72552 -8.21655,9.1607 -8.21655,17.13484 l 0,9.56897 c 0,0 -115.78455,32.30485 -117.48145,32.7514 -2.98552,1.44173 -12.10794,6.8769 -12.10794,21.3707 0,2.94725 0.40828,6.23897 1.30138,9.97725 0.15311,0.60017 87.95798,328.48364 89.41247,333.76571 3.82759,4.38897 15.24656,15.79518 26.01484,12.75863 l 149.00802,-41.01899 149.02077,41.01899 c 10.71725,3.03655 22.12346,-8.36966 25.96381,-12.75863 1.45448,-5.28207 89.3104,-333.16605 89.4635,-333.76571 0.84207,-3.73828 1.25035,-7.03 1.25035,-9.97725 0,-14.4938 -9.07139,-19.92897 -12.1207,-21.3707 -1.68414,-0.44706 -117.46869,-32.7514 -117.46869,-32.7514 l 0,-9.56897 c 0,-7.97414 -2.64103,-13.40932 -8.16552,-17.13484 -3.99345,-2.65379 -8.22932,-3.59793 -9.56897,-3.84034 l -236.78738,0 z"/>
  <path d="m 438.6799,81.54039 0,323.85226 c 0,0 -2.79414,21.02622 -19.54622,21.02622 l -90.9435,0 121.70456,33.54243 c 0,0 6.96621,3.49586 10.46207,-4.18483 l 89.55281,-332.27295 c 0,0 3.49587,-10.46207 -4.87379,-13.25621 L 438.6799,81.54039 z M 55.06623,110.94903 c -8.36966,2.78138 -4.88655,13.30725 -4.88655,13.30725 l 89.51453,332.17088 c 3.53414,7.71897 10.51311,4.23586 10.51311,4.23586 l 121.70456,-33.54243 -90.90523,0 c -16.84139,0 -19.58449,-21.03898 -19.58449,-21.03898 l 0,-323.78846 -106.35593,28.65588 z m 128.03284,-60.85866 234.29944,0 c 4.88656,0 5.62656,6.27725 5.62656,6.27725 l 0,348.37434 c 0,5.53724 -5.62656,6.92793 -5.62656,6.92793 l -234.29944,0 c -4.92484,0 -4.92484,-6.92793 -4.92484,-6.92793 l 0,-348.37434 c 0,-4.18483 4.92484,-6.27725 4.92484,-6.27725" style="fill:#bf331c"/>
  <path d="m 184.40045,55.21924 c -0.59966,0.40828 -1.09725,0.9569 -1.09725,1.19931 l 0,0 0,348.22124 c 0,0.85482 0.25518,1.95207 -0.1531,1.95207 l 0,0 233.44462,0 c 0.59965,-0.30621 1.30138,-0.85483 1.30138,-1.90104 l 0,0 0.051,-347.67261 c -0.10207,-0.70173 -0.49758,-1.64587 -0.54862,-1.79897 l 0,0 -232.99806,0 z m 259.35739,350.86227 c -1.14828,8.82897 -7.82104,25.42795 -24.62416,25.42795 l 0,0 -53.26727,0 86.21005,23.87139 c 0.15311,0.10207 0.8038,0.29345 1.45449,0.29345 l 0,0 c 0.44655,0 1.28862,0 1.93931,-1.23759 l 0,0 89.6166,-332.52812 c 0.14034,-0.54862 1.68414,-5.67759 -1.40345,-6.7238 l 0,0 -99.8235,-26.9207 -0.10207,317.81742 z M 56.7121,115.78445 c -3.38104,1.13552 -1.83725,6.27724 -1.59483,7.11931 l 0,0 89.20833,331.43088 c 0.95689,2.04138 1.85,2.04138 2.29655,2.04138 l 0,0 c 0.65069,0 1.25034,-0.20413 2.24552,-0.65069 l 0,0 85.26591,-23.52691 -53.12693,0 c -16.84139,0 -23.46312,-16.58621 -24.71346,-26.06587 l 0,0 0,-317.16674 -99.58109,26.81864 z" style="fill:url(#radialGradient3010)"/>
  <g transform="scale(10.206902,10.206902)" id="text5657" style="fill:#ffffff;stroke:#bf331c;stroke-width:1.25;stroke-opacity:0.39215686">
    <path d="m 31.164914,12.139246 c 0.338488,-0.07959 0.746875,-0.119396 1.225161,-0.119417 1.234264,2.1e-5 2.354289,0.338672 3.360079,1.015954 1.005758,0.677322 1.578381,1.448973 1.717869,2.314954 0.139455,0.866016 0.20919,1.438487 0.209208,1.717414 -1.8e-5,1.274401 -0.488015,2.359786 -1.463995,3.256158 -1.155289,0.796732 -1.872093,1.294453 -2.150414,1.493166 1.473703,0.278954 2.683519,1.005937 3.62945,2.180952 0.945896,1.175032 1.418853,2.349904 1.418872,3.524618 -1.9e-5,1.095114 -0.194185,2.095723 -0.582499,3.001828 -0.38835,0.906111 -1.040584,1.538442 -1.956703,1.896995 -0.916152,0.358555 -1.712719,0.59754 -2.389703,0.716957 -0.677012,0.119416 -1.354011,0.179125 -2.030997,0.179125 -0.856287,0 -1.632951,-0.06472 -2.329995,-0.194166 -0.697063,-0.129445 -1.558351,-0.328624 -2.583869,-0.59754 -1.025532,-0.268915 -1.966432,-0.403373 -2.822703,-0.403374 l -1.045581,0.06016 -2.718327,0.477667 c -0.07961,-0.05956 -0.149347,-0.134154 -0.209207,-0.223793 -0.05986,-0.08964 -0.08979,-0.194317 -0.08979,-0.314039 0,-0.07961 0.05986,-0.169248 0.179581,-0.268915 l 3.494992,-0.985417 c 0.07961,-0.05955 0.139316,-0.353234 0.179125,-0.88104 0.0398,-0.527801 0.05971,-1.229867 0.05971,-2.106203 -4e-6,-1.871767 -0.06974,-4.002428 -0.209208,-6.391988 -0.139475,-2.389538 -0.293835,-4.007588 -0.463081,-4.854156 -0.169253,-0.846535 -0.906112,-1.359298 -2.210578,-1.538289 -1.304469,-0.178955 -1.956703,-0.378135 -1.956704,-0.59754 1e-6,-0.139148 0.06472,-0.293357 0.194167,-0.462626 0.129444,-0.16923 0.293832,-0.253855 0.493164,-0.253874 0.617442,0.139187 1.244759,0.278506 1.881953,0.417959 0.637192,0.13949 1.234731,0.209225 1.79262,0.209207 1.293829,1.8e-5 2.433757,-0.283786 3.419786,-0.851415 0.986017,-0.567589 2.305222,-1.040698 3.957619,-1.419327 z m -4.061994,9.678229 c -7e-6,1.453674 -0.01003,2.653462 -0.03008,3.599368 -0.02006,0.945921 -0.04012,1.847016 -0.06017,2.703286 -6e-6,0.876335 0.03995,1.533582 0.119873,1.971744 0.07991,0.438168 0.259185,0.831514 0.537831,1.180039 0.278632,0.348528 0.716645,0.602402 1.314041,0.761624 0.597378,0.159223 1.264653,0.238834 2.001826,0.238833 1.29443,1e-6 2.305066,-0.179276 3.031911,-0.537831 0.726817,-0.358553 1.254469,-0.950926 1.582956,-1.777122 0.328456,-0.826191 0.492692,-1.93634 0.492708,-3.330453 -1.6e-5,-1.254932 -0.597403,-2.250678 -1.792164,-2.987243 -1.473731,-0.636879 -2.93742,-1.274072 -4.391073,-1.91158 1.015488,-0.179265 1.961401,-0.562584 2.837744,-1.149956 0.876317,-0.587347 1.314482,-1.458664 1.314496,-2.613951 l 0,-0.50775 c -1.4e-5,-1.035536 -0.353554,-1.906701 -1.060622,-2.613495 -0.707093,-0.706759 -1.618215,-1.060147 -2.733368,-1.060166 l -0.686419,0.05925 c -1.035561,0.139795 -1.717725,0.612904 -2.046493,1.419328 -0.328783,0.80646 -0.493171,1.926485 -0.493164,3.360079 -7e-6,0.358568 0.01002,0.896247 0.03008,1.613038 0.02005,0.716817 0.03008,1.244468 0.03008,1.582956 z"/>
  </g>
  <g transform="scale(10.206902,10.206902)" id="text5661" style="stroke:#bf331c;stroke-width:1.25;stroke-opacity:0">
    <path d="m 31.164914,12.139246 c 0.338488,-0.07959 0.746875,-0.119396 1.225161,-0.119417 1.234264,2.1e-5 2.354289,0.338672 3.360079,1.015954 1.005758,0.677322 1.578381,1.448973 1.717869,2.314954 0.139455,0.866016 0.20919,1.438487 0.209208,1.717414 -1.8e-5,1.274401 -0.488015,2.359786 -1.463995,3.256158 -1.155289,0.796732 -1.872093,1.294453 -2.150414,1.493166 1.473703,0.278954 2.683519,1.005937 3.62945,2.180952 0.945896,1.175032 1.418853,2.349904 1.418872,3.524618 -1.9e-5,1.095114 -0.194185,2.095723 -0.582499,3.001828 -0.38835,0.906111 -1.040584,1.538442 -1.956703,1.896995 -0.916152,0.358555 -1.712719,0.59754 -2.389703,0.716957 -0.677012,0.119416 -1.354011,0.179125 -2.030997,0.179125 -0.856287,0 -1.632951,-0.06472 -2.329995,-0.194166 -0.697063,-0.129445 -1.558351,-0.328624 -2.583869,-0.59754 -1.025532,-0.268915 -1.966432,-0.403373 -2.822703,-0.403374 l -1.045581,0.06016 -2.718327,0.477667 c -0.07961,-0.05956 -0.149347,-0.134154 -0.209207,-0.223793 -0.05986,-0.08964 -0.08979,-0.194317 -0.08979,-0.314039 0,-0.07961 0.05986,-0.169248 0.179581,-0.268915 l 3.494992,-0.985417 c 0.07961,-0.05955 0.139316,-0.353234 0.179125,-0.88104 0.0398,-0.527801 0.05971,-1.229867 0.05971,-2.106203 -4e-6,-1.871767 -0.06974,-4.002428 -0.209208,-6.391988 -0.139475,-2.389538 -0.293835,-4.007588 -0.463081,-4.854156 -0.169253,-0.846535 -0.906112,-1.359298 -2.210578,-1.538289 -1.304469,-0.178955 -1.956703,-0.378135 -1.956704,-0.59754 1e-6,-0.139148 0.06472,-0.293357 0.194167,-0.462626 0.129444,-0.16923 0.293832,-0.253855 0.493164,-0.253874 0.617442,0.139187 1.244759,0.278506 1.881953,0.417959 0.637192,0.13949 1.234731,0.209225 1.79262,0.209207 1.293829,1.8e-5 2.433757,-0.283786 3.419786,-0.851415 0.986017,-0.567589 2.305222,-1.040698 3.957619,-1.419327 z m -4.061994,9.678229 c -7e-6,1.453674 -0.01003,2.653462 -0.03008,3.599368 -0.02006,0.945921 -0.04012,1.847016 -0.06017,2.703286 -6e-6,0.876335 0.03995,1.533582 0.119873,1.971744 0.07991,0.438168 0.259185,0.831514 0.537831,1.180039 0.278632,0.348528 0.716645,0.602402 1.314041,0.761624 0.597378,0.159223 1.264653,0.238834 2.001826,0.238833 1.29443,1e-6 2.305066,-0.179276 3.031911,-0.537831 0.726817,-0.358553 1.254469,-0.950926 1.582956,-1.777122 0.328456,-0.826191 0.492692,-1.93634 0.492708,-3.330453 -1.6e-5,-1.254932 -0.597403,-2.250678 -1.792164,-2.987243 -1.473731,-0.636879 -2.93742,-1.274072 -4.391073,-1.91158 1.015488,-0.179265 1.961401,-0.562584 2.837744,-1.149956 0.876317,-0.587347 1.314482,-1.458664 1.314496,-2.613951 l 0,-0.50775 c -1.4e-5,-1.035536 -0.353554,-1.906701 -1.060622,-2.613495 -0.707093,-0.706759 -1.618215,-1.060147 -2.733368,-1.060166 l -0.686419,0.05925 c -1.035561,0.139795 -1.717725,0.612904 -2.046493,1.419328 -0.328783,0.80646 -0.493171,1.926485 -0.493164,3.360079 -7e-6,0.358568 0.01002,0.896247 0.03008,1.613038 0.02005,0.716817 0.03008,1.244468 0.03008,1.582956 z"/>
  </g>
</svg>
