<?xml version="1.0" encoding="UTF-8" standalone="no"?>
<svg xmlns="http://www.w3.org/2000/svg" version="1.1" width="600" height="510.33374">
  <radialGradient cx="0" cy="0" r="1" fx="0" fy="0" id="radialGradient392" gradientUnits="userSpaceOnUse" gradientTransform="matrix(17.570526,0,0,-17.570526,397.94434,483.6748)" spreadMethod="pad">
    <stop style="stop-color:#bf99c3" offset="0"/>
    <stop style="stop-color:#7b5190" offset="0.7"/>
    <stop style="stop-color:#612c75" offset="1"/>
  </radialGradient>
  <path d="M 419.35319,0 179.60068,0 178.4525,0.15309 C 162.26318,1.90087 139.83542,13.56126 132.3595,38.08126 112.02398,43.75837 35.42769,65.08898 35.42769,65.08898 L 34.4326,65.48395 C 21.27958,70.52318 0,87.61829 0,118.75945 c 0,5.62608 0.70217,11.6604 2.24532,18.14123 l 91.44607,341.45563 2.53875,3.34248 c 10.3081,13.80366 35.52976,34.98118 64.28526,26.71429 0,0 128.91497,-35.42769 139.52925,-38.37468 10.6653,2.94699 139.78439,38.47674 139.78439,38.47674 28.56414,8.16483 53.72202,-13.01269 64.0939,-26.81635 l 2.48772,-3.34248 91.29298,-340.805 C 599.29833,130.86636 600,124.69171 600,118.96357 600,87.51623 578.82247,70.52318 565.66945,65.48395 L 564.72539,65.08898 467.74255,38.08126 C 460.26663,13.56126 437.83887,1.90087 421.70058,0.15309 L 420.5524,0 419.35319,0 z" style="fill:#ffffff"/>
  <path d="m 180.74886,21.77712 c 0,0 -29.3551,3.13836 -29.3551,33.53958 L 42.25298,85.76896 c 0,0 -27.25011,10.46118 -18.88117,46.14403 l 90.24686,336.78637 c 0,0 18.89392,25.10685 40.91344,18.83014 l 145.51254,-40.02041 145.57632,40.02041 c 22.01952,6.27671 40.91344,-18.83014 40.91344,-18.83014 L 576.73024,131.91299 C 585.15022,96.23014 557.83632,85.76896 557.83632,85.76896 L 448.75932,55.3167 c 0,-30.40122 -29.3551,-33.53958 -29.3551,-33.53958 l -238.65536,0 z" style="fill:#612c75"/>
  <path d="m 181.69292,34.3433 c -1.33954,0.2429 -5.57505,1.18645 -9.51713,3.84002 -5.62607,3.7252 -8.22861,9.15992 -8.22861,17.13338 l 0,9.56816 c 0,0 -115.76195,32.3021 -117.4587,32.74861 -3.03629,1.4416 -12.10691,6.87632 -12.10691,21.36889 0,2.94699 0.396,6.23843 1.25024,9.97639 0.15309,0.60012 88.00153,328.4557 89.40486,333.73733 3.8783,4.38859 15.2963,15.79383 26.01263,12.75754 l 149.04638,-41.0155 148.95707,41.0155 c 10.76736,3.03629 22.17261,-8.36895 26.01263,-12.75754 1.4416,-5.28163 89.3028,-333.13772 89.40486,-333.73733 0.89303,-3.73796 1.30127,-7.0294 1.30127,-9.97639 0,-14.49257 -9.12165,-19.92729 -12.11967,-21.36889 -1.68399,-0.44702 -117.4587,-32.74861 -117.4587,-32.74861 l 0,-9.56816 c 0,-7.97346 -2.64081,-13.40818 -8.21585,-17.13338 -3.94208,-2.65357 -8.17759,-3.59763 -9.56816,-3.84002 l -236.71621,0 z" style="fill:#ffffff"/>
  <path d="m 438.69362,81.53345 0,323.82471 c 0,0 -2.7939,21.02443 -19.54455,21.02443 l -90.94853,0 121.70696,33.53958 c 0,0 6.96562,3.49557 10.46119,-4.18447 l 89.54519,-332.24469 c 0,0 3.49557,-10.46118 -4.87338,-13.25509 L 438.69362,81.53345 z M 55.11258,110.93959 c -8.36895,2.78114 -4.88614,13.30612 -4.88614,13.30612 l 89.50692,332.14262 c 3.48281,7.71832 10.51222,4.23551 10.51222,4.23551 l 121.64317,-33.53958 -90.89749,0 c -16.78893,0 -19.58283,-21.03719 -19.58283,-21.03719 l 0,-323.76092 -106.29585,28.65344 z m 127.97091,-60.85348 234.33055,0 c 4.87338,0 5.57505,6.27671 5.57505,6.27671 l 0,348.34471 c 0,5.53677 -5.57505,6.92734 -5.57505,6.92734 l -234.33055,0 c -4.87338,0 -4.87338,-6.92734 -4.87338,-6.92734 l 0,-348.34471 c 0,-4.18447 4.87338,-6.27671 4.87338,-6.27671" style="fill:#612c75"/>
  <g transform="matrix(12.757543,0,0,-12.757543,-4776.7048,6426.268)">
    <path d="m 388.875,499.395 c -0.047,-0.032 -0.082,-0.075 -0.082,-0.094 l 0,0 0,-27.293 c 0,-0.067 0.019,-0.153 -0.016,-0.153 l 0,0 18.297,0 c 0.047,0.024 0.106,0.067 0.106,0.149 l 0,0 0.004,27.25 c -0.008,0.055 -0.039,0.129 -0.043,0.141 l 0,0 -18.266,0 z m 20.332,-27.5 c -0.094,-0.692 -0.613,-1.993 -1.934,-1.993 l 0,0 -4.175,0 6.761,-1.871 c 0.012,-0.008 0.063,-0.023 0.114,-0.023 l 0,0 c 0.035,0 0.101,0 0.148,0.097 l 0,0 7.024,26.063 c 0.015,0.043 0.136,0.445 -0.106,0.527 l 0,0 -7.828,2.11 -0.004,-24.91 z m -30.34,22.753 c -0.262,-0.089 -0.14,-0.492 -0.121,-0.558 l 0,0 6.992,-25.977 c 0.071,-0.16 0.141,-0.16 0.176,-0.16 l 0,0 c 0.051,0 0.098,0.016 0.176,0.051 l 0,0 6.683,1.844 -4.164,0 c -1.316,0 -1.839,1.3 -1.933,2.043 l 0,0 0,24.859 -7.809,-2.102 z" style="fill:url(#radialGradient392)"/>
  </g>
  <g transform="scale(10.206034,10.206034)" id="text5649" style="fill:#ffffff;stroke:#612c75;stroke-width:1.25;stroke-opacity:0.4627451">
    <path d="m 31.227469,12.139265 c 0.338488,-0.07959 0.746875,-0.119396 1.225162,-0.119417 1.234264,2.1e-5 2.354289,0.338672 3.360078,1.015954 1.005759,0.677322 1.578381,1.448973 1.71787,2.314954 0.139454,0.866016 0.20919,1.438487 0.209207,1.717414 -1.7e-5,1.274401 -0.488015,2.359786 -1.463995,3.256158 -1.155289,0.796732 -1.872092,1.294453 -2.150414,1.493166 1.473704,0.278954 2.683519,1.005937 3.62945,2.180952 0.945897,1.175032 1.418853,2.349904 1.418872,3.524618 -1.9e-5,1.095114 -0.194185,2.095723 -0.582499,3.001828 -0.38835,0.906111 -1.040584,1.538442 -1.956703,1.896995 -0.916152,0.358555 -1.712719,0.59754 -2.389703,0.716957 -0.677012,0.119416 -1.35401,0.179125 -2.030997,0.179125 -0.856287,0 -1.632951,-0.06472 -2.329995,-0.194166 -0.697062,-0.129444 -1.558351,-0.328624 -2.583869,-0.59754 -1.025532,-0.268915 -1.966432,-0.403373 -2.822703,-0.403374 l -1.045581,0.06016 -2.718327,0.477667 c -0.07961,-0.05956 -0.149347,-0.134154 -0.209207,-0.223793 -0.05986,-0.08964 -0.08979,-0.194317 -0.08979,-0.314039 0,-0.07961 0.05986,-0.169248 0.179581,-0.268915 l 3.494992,-0.985417 c 0.07961,-0.05955 0.139316,-0.353234 0.179126,-0.88104 0.0398,-0.527801 0.0597,-1.229867 0.05971,-2.106203 -4e-6,-1.871767 -0.06974,-4.002428 -0.209207,-6.391988 -0.139475,-2.389537 -0.293836,-4.007588 -0.463082,-4.854156 -0.169253,-0.846535 -0.906111,-1.359298 -2.210578,-1.538289 -1.304469,-0.178955 -1.956702,-0.378135 -1.956703,-0.597539 10e-7,-0.139149 0.06472,-0.293358 0.194166,-0.462627 0.129445,-0.16923 0.293832,-0.253855 0.493164,-0.253874 0.617442,0.139187 1.244759,0.278506 1.881954,0.417959 0.637191,0.13949 1.23473,0.209226 1.792619,0.209207 1.293829,1.9e-5 2.433757,-0.283786 3.419787,-0.851414 0.986016,-0.56759 2.305221,-1.040699 3.957618,-1.419328 z m -4.061994,9.678229 c -7e-6,1.453674 -0.01003,2.653462 -0.03008,3.599368 -0.02006,0.945921 -0.04012,1.847016 -0.06016,2.703286 -7e-6,0.876335 0.03995,1.533582 0.119872,1.971744 0.07991,0.438168 0.259186,0.831514 0.537832,1.180039 0.278631,0.348528 0.716644,0.602402 1.31404,0.761624 0.597379,0.159223 1.264654,0.238834 2.001827,0.238833 1.294429,10e-7 2.305065,-0.179276 3.03191,-0.537831 0.726817,-0.358553 1.254469,-0.950926 1.582956,-1.777122 0.328457,-0.826191 0.492692,-1.93634 0.492708,-3.330453 -1.6e-5,-1.254932 -0.597403,-2.250678 -1.792163,-2.987242 -1.473731,-0.63688 -2.937421,-1.274073 -4.391074,-1.911581 1.015488,-0.179265 1.961402,-0.562584 2.837744,-1.149956 0.876318,-0.587347 1.314482,-1.458664 1.314496,-2.613951 l 0,-0.50775 c -1.4e-5,-1.035536 -0.353554,-1.906701 -1.060621,-2.613495 -0.707093,-0.706759 -1.618215,-1.060147 -2.733369,-1.060166 l -0.686418,0.05925 c -1.035562,0.139795 -1.717726,0.612904 -2.046494,1.419328 -0.328783,0.80646 -0.493171,1.926485 -0.493164,3.360079 -7e-6,0.358568 0.01002,0.896247 0.03008,1.613038 0.02005,0.716817 0.03008,1.244468 0.03008,1.582956 z"/>
  </g>
  <g transform="scale(10.206034,10.206034)" id="text5653" style="fill:#ffffff;stroke:#612c75;stroke-width:1.25;stroke-opacity:0">
    <path d="m 31.227469,12.139265 c 0.338488,-0.07959 0.746875,-0.119396 1.225162,-0.119417 1.234264,2.1e-5 2.354289,0.338672 3.360078,1.015954 1.005759,0.677322 1.578381,1.448973 1.71787,2.314954 0.139454,0.866016 0.20919,1.438487 0.209207,1.717414 -1.7e-5,1.274401 -0.488015,2.359786 -1.463995,3.256158 -1.155289,0.796732 -1.872092,1.294453 -2.150414,1.493166 1.473704,0.278954 2.683519,1.005937 3.62945,2.180952 0.945897,1.175032 1.418853,2.349904 1.418872,3.524618 -1.9e-5,1.095114 -0.194185,2.095723 -0.582499,3.001828 -0.38835,0.906111 -1.040584,1.538442 -1.956703,1.896995 -0.916152,0.358555 -1.712719,0.59754 -2.389703,0.716957 -0.677012,0.119416 -1.35401,0.179125 -2.030997,0.179125 -0.856287,0 -1.632951,-0.06472 -2.329995,-0.194166 -0.697062,-0.129444 -1.558351,-0.328624 -2.583869,-0.59754 -1.025532,-0.268915 -1.966432,-0.403373 -2.822703,-0.403374 l -1.045581,0.06016 -2.718327,0.477667 c -0.07961,-0.05956 -0.149347,-0.134154 -0.209207,-0.223793 -0.05986,-0.08964 -0.08979,-0.194317 -0.08979,-0.314039 0,-0.07961 0.05986,-0.169248 0.179581,-0.268915 l 3.494992,-0.985417 c 0.07961,-0.05955 0.139316,-0.353234 0.179126,-0.88104 0.0398,-0.527801 0.0597,-1.229867 0.05971,-2.106203 -4e-6,-1.871767 -0.06974,-4.002428 -0.209207,-6.391988 -0.139475,-2.389537 -0.293836,-4.007588 -0.463082,-4.854156 -0.169253,-0.846535 -0.906111,-1.359298 -2.210578,-1.538289 -1.304469,-0.178955 -1.956702,-0.378135 -1.956703,-0.597539 10e-7,-0.139149 0.06472,-0.293358 0.194166,-0.462627 0.129445,-0.16923 0.293832,-0.253855 0.493164,-0.253874 0.617442,0.139187 1.244759,0.278506 1.881954,0.417959 0.637191,0.13949 1.23473,0.209226 1.792619,0.209207 1.293829,1.9e-5 2.433757,-0.283786 3.419787,-0.851414 0.986016,-0.56759 2.305221,-1.040699 3.957618,-1.419328 z m -4.061994,9.678229 c -7e-6,1.453674 -0.01003,2.653462 -0.03008,3.599368 -0.02006,0.945921 -0.04012,1.847016 -0.06016,2.703286 -7e-6,0.876335 0.03995,1.533582 0.119872,1.971744 0.07991,0.438168 0.259186,0.831514 0.537832,1.180039 0.278631,0.348528 0.716644,0.602402 1.31404,0.761624 0.597379,0.159223 1.264654,0.238834 2.001827,0.238833 1.294429,10e-7 2.305065,-0.179276 3.03191,-0.537831 0.726817,-0.358553 1.254469,-0.950926 1.582956,-1.777122 0.328457,-0.826191 0.492692,-1.93634 0.492708,-3.330453 -1.6e-5,-1.254932 -0.597403,-2.250678 -1.792163,-2.987242 -1.473731,-0.63688 -2.937421,-1.274073 -4.391074,-1.911581 1.015488,-0.179265 1.961402,-0.562584 2.837744,-1.149956 0.876318,-0.587347 1.314482,-1.458664 1.314496,-2.613951 l 0,-0.50775 c -1.4e-5,-1.035536 -0.353554,-1.906701 -1.060621,-2.613495 -0.707093,-0.706759 -1.618215,-1.060147 -2.733369,-1.060166 l -0.686418,0.05925 c -1.035562,0.139795 -1.717726,0.612904 -2.046494,1.419328 -0.328783,0.80646 -0.493171,1.926485 -0.493164,3.360079 -7e-6,0.358568 0.01002,0.896247 0.03008,1.613038 0.02005,0.716817 0.03008,1.244468 0.03008,1.582956 z"/>
  </g>
</svg>
