<?xml version="1.0" encoding="UTF-8" standalone="no"?>
<svg xmlns="http://www.w3.org/2000/svg" version="1.1" width="600" height="510.33478">
  <path d="M 180.74805 21.777344 C 180.74805 21.777344 151.39453 24.915186 151.39453 55.316406 L 42.265625 85.769531 C 42.265625 85.769531 15.002154 96.229259 23.371094 131.91211 L 113.61914 468.69922 C 113.61914 468.69922 132.51173 493.80601 154.53125 487.5293 L 300.10938 447.50977 L 445.62109 487.5293 C 467.64061 493.80601 486.53516 468.69922 486.53516 468.69922 L 576.73047 131.91211 C 585.09941 96.229259 557.84961 85.769531 557.84961 85.769531 L 448.75977 55.316406 C 448.75977 24.915186 419.35352 21.777344 419.35352 21.777344 L 180.74805 21.777344 z M 181.69336 34.34375 L 418.4082 34.34375 C 419.79877 34.58614 423.9962 35.530024 427.97656 38.183594 C 433.56436 41.908794 436.1543 47.342946 436.1543 55.316406 L 436.1543 64.884766 C 436.1543 64.884766 551.96731 97.185794 553.66406 97.632812 C 556.64932 99.074414 565.77148 104.50938 565.77148 119.00195 C 565.77148 121.94894 565.37674 125.24056 564.52148 128.97852 C 564.33012 129.57813 476.51881 457.43517 475.06445 462.7168 C 471.18615 467.10539 459.81985 478.50895 449.10352 475.47266 L 300.05664 434.45898 L 151.09961 475.47266 C 140.33225 478.50895 128.92816 467.10539 125.03711 462.7168 C 123.64654 457.43517 35.783949 129.57864 35.630859 128.97852 C 34.788859 125.24056 34.380859 121.94894 34.380859 119.00195 C 34.380859 104.50938 43.452903 99.074412 46.501953 97.632812 C 48.185943 97.186303 163.95898 64.884766 163.95898 64.884766 L 163.95898 55.316406 C 163.95898 47.342946 166.54971 41.908794 172.17578 38.183594 C 176.11786 35.530024 180.35382 34.58563 181.69336 34.34375 z M 183.14648 50.085938 C 183.14648 50.085938 178.21094 52.178811 178.21094 56.363281 L 178.21094 404.70703 C 178.21094 404.70703 178.20931 411.63477 183.14648 411.63477 L 417.41406 411.63477 C 417.41406 411.63477 422.98828 410.2438 422.98828 404.70703 L 422.98828 56.363281 C 422.98828 56.363281 422.3002 50.085938 417.41406 50.085938 L 183.14648 50.085938 z M 438.69336 81.533203 L 438.69336 405.35742 C 438.69336 405.35742 435.90026 426.38281 419.11133 426.38281 L 328.21289 426.38281 L 449.9082 459.92188 C 449.9082 459.92187 456.88633 463.41832 460.36914 455.73828 L 549.92578 123.49219 C 549.92578 123.49219 553.41021 113.03219 544.99023 110.23828 L 438.69336 81.533203 z M 161.45898 82.287109 L 55.113281 110.93945 C 46.744331 113.72059 50.238281 124.24609 50.238281 124.24609 L 139.73242 456.38867 C 143.22799 464.10699 150.24609 460.62305 150.24609 460.62305 L 271.95312 427.08398 L 181.00391 427.08398 C 164.20223 427.08398 161.45898 406.04688 161.45898 406.04688 L 161.45898 82.287109 z M 330.17969 122.67578 C 342.77663 122.67599 354.20754 126.1306 364.47266 133.04297 C 374.73747 139.95574 380.58224 147.83168 382.00586 156.66992 C 383.42913 165.50851 384.14047 171.35054 384.14062 174.19727 C 384.14046 187.20386 379.1601 198.28324 369.19922 207.43164 C 357.40831 215.56311 350.0925 220.64185 347.25195 222.66992 C 362.29261 225.51694 374.63877 232.93746 384.29297 244.92969 C 393.94683 256.92212 398.7752 268.91121 398.77539 280.90039 C 398.7752 292.07717 396.79323 302.28936 392.83008 311.53711 C 388.86657 320.7849 382.20934 327.23902 372.85938 330.89844 C 363.50911 334.55785 355.38004 336.99802 348.4707 338.2168 C 341.5611 339.43557 334.65154 340.04492 327.74219 340.04492 C 319.0029 340.04492 311.07694 339.38363 303.96289 338.0625 C 296.84864 336.74139 288.05827 334.70941 277.5918 331.96484 C 267.12519 329.2203 257.52235 327.84767 248.7832 327.84766 L 238.11133 328.46094 L 210.36719 333.33594 C 209.55469 332.72806 208.84335 331.96759 208.23242 331.05273 C 207.62148 330.13786 207.31641 329.06954 207.31641 327.84766 C 207.31641 327.03516 207.92656 326.12072 209.14844 325.10352 L 244.81836 315.04492 C 245.63087 314.43715 246.24019 311.43955 246.64648 306.05273 C 247.05268 300.66599 247.25576 293.50054 247.25586 284.55664 C 247.25583 265.45331 246.54449 243.70825 245.12109 219.32031 C 243.6976 194.93261 242.12187 178.4194 240.39453 169.7793 C 238.66713 161.13952 231.14742 155.90687 217.83398 154.08008 C 204.52054 152.25366 197.86329 150.21973 197.86328 147.98047 C 197.86329 146.56031 198.52457 144.98733 199.8457 143.25977 C 201.16682 141.53259 202.84453 140.66817 204.87891 140.66797 C 211.18054 142.08852 217.58271 143.51034 224.08594 144.93359 C 230.58913 146.35723 236.68702 147.06855 242.38086 147.06836 C 255.58572 147.06855 267.21974 144.17215 277.2832 138.37891 C 287.34651 132.58608 300.81136 127.75884 317.67578 123.89453 C 321.13041 123.08223 325.29829 122.67599 330.17969 122.67578 z M 308.5293 140.66797 L 301.52539 141.27344 C 290.95641 142.70018 283.9941 147.52741 280.63867 155.75781 C 277.2831 163.98857 275.60541 175.41948 275.60547 190.05078 C 275.60541 193.71035 275.70737 199.19808 275.91211 206.51367 C 276.11674 213.82953 276.21875 219.2153 276.21875 222.66992 C 276.21869 237.50616 276.11674 249.75035 275.91211 259.4043 C 275.70737 269.05841 275.50141 278.25501 275.29688 286.99414 C 275.29681 295.93804 275.70578 302.64724 276.52148 307.11914 C 277.33704 311.5911 279.1659 315.60506 282.00977 319.16211 C 284.8535 322.71921 289.32482 325.31053 295.42188 326.93555 C 301.51872 328.56058 308.32795 329.37306 315.85156 329.37305 C 329.06256 329.37306 339.37671 327.5442 346.79492 323.88477 C 354.21285 320.22537 359.59862 314.17827 362.95117 305.74609 C 366.30342 297.31396 367.9803 285.98422 367.98047 271.75586 C 367.9803 258.94798 361.88322 248.78497 349.68945 241.26758 C 334.6485 234.76757 319.70908 228.26424 304.87305 221.75781 C 315.23715 219.92821 324.89197 216.01622 333.83594 210.02148 C 342.77967 204.02698 347.25181 195.13466 347.25195 183.34375 L 347.25195 178.16211 C 347.25181 167.59338 343.64409 158.70186 336.42773 151.48828 C 329.21111 144.27509 319.91059 140.66818 308.5293 140.66797 z "/>
</svg>
