<?xml version="1.0" encoding="UTF-8" standalone="no"?>
<svg xmlns="http://www.w3.org/2000/svg" xmlns:xlink="http://www.w3.org/1999/xlink" width="849" height="515.10352">
  <linearGradient id="g1">
    <stop offset="0" style="stop-color:#536e78"/>
    <stop offset="0.3" style="stop-color:#829ba5"/>
    <stop offset="0.5" style="stop-color:#d9eaf3"/>
    <stop offset="0.7" style="stop-color:#829ba5"/>
    <stop offset="1" style="stop-color:#536e78"/>
  </linearGradient>
  <linearGradient id="g2">
    <stop offset="0" style="stop-color:#536e78"/>
    <stop offset="0.1" style="stop-color:#829ba5"/>
    <stop offset="0.5" style="stop-color:#d9eaf3"/>
    <stop offset="0.9" style="stop-color:#829ba5"/>
    <stop offset="1" style="stop-color:#536e78"/>
  </linearGradient>
  <linearGradient gradientTransform="translate(-508.5,-118.61328)" y2="324.67969" x2="1144.6953" y1="324.67969" x1="721.30469" gradientUnits="userSpaceOnUse" id="g3" xlink:href="#g1"/>
  <linearGradient gradientTransform="translate(-508.5,-118.61328)" gradientUnits="userSpaceOnUse" y2="355.64001" x2="1291.5" y1="355.64001" x1="574.5" id="g4" xlink:href="#g2"/>
  <path d="M 378.39062,0 A 242.5,242.5 0 0 0 215.8418,115.3125 C 149.95763,157.31897 79.01409,197.75103 0,237.52734 168.5,317.59167 324.79518,426.54081 424.5,515.10352 524.2048,426.54081 680.5,317.59167 849,237.52734 769.9859,197.75103 699.0424,157.31897 633.1582,115.3125 A 242.5,242.5 0 0 0 470.60938,0 c -3.84722,0.33416 -4.03792,4.95523 -0.55665,7.6582 -0.008,0.0258 -0.0183,0.0449 -0.0273,0.0703 A 71,71 0 0 1 495.5,62.02734 a 71,71 0 0 1 -71,71 71,71 0 0 1 -71,-71 71,71 0 0 1 25.47461,-54.29882 c -0.009,-0.0254 -0.0189,-0.0445 -0.0273,-0.0703 3.48127,-2.70297 3.29056,-7.32404 -0.55665,-7.6582 z" style="fill:#000000"/>
  <path d="m 327.94336,49.16992 c -54.67152,28.13135 -94.41152,78.64213 -108.88672,138.39844 7.44046,4.52031 44.17277,26.83725 65.69727,39.91406 C 289.17488,230.1683 296,239.60434 296,245.99219 v 32.51758 L 424.5,362.96289 553,278.50977 v -32.51758 c 0,-6.38785 6.8251,-15.82389 11.2461,-18.50977 21.5245,-13.07681 58.2568,-35.39375 65.6973,-39.91406 C 615.4682,127.81205 575.7282,77.30127 521.0566,49.16992 c 0.603,4.25996 0.923,8.55517 0.959,12.85742 -5e-4,53.85619 -43.6594,97.51563 -97.5156,97.51563 -53.85619,0 -97.51514,-43.65944 -97.51562,-97.51563 0.0357,-4.30226 0.35604,-8.59746 0.95898,-12.85742 z M 213.19531,229.52149 c -0.18072,2.66591 -0.31095,5.33501 -0.39062,8.00585 0.077,4.76255 0.31482,9.52109 0.71289,14.26758 z m 422.60939,0 -0.3223,22.27343 c 0.3981,-4.74649 0.6359,-9.50503 0.7129,-14.26758 -0.08,-2.67084 -0.2099,-5.33994 -0.3906,-8.00585 z" style="fill:url(#g3)"/>
  <path d="M 193.92578,164.19922 C 151.52882,191.55946 108.60096,216.76684 66,237.52734 c 123.7511,59.16053 285.44293,171.35691 358.5,236.5 73.0571,-65.14309 234.7489,-177.33947 358.5,-236.5 -42.601,-20.7605 -85.5288,-45.96788 -127.9258,-73.32812 3.5252,10.73165 6.2963,21.6965 8.293,32.81445 0.01,3.08717 -1.5025,5.25204 -4.1192,6.8418 l -75.998,46.17187 v 44 L 424.5,398.36328 265.75,294.02734 v -44 l -75.99805,-46.17187 c -2.61673,-1.58976 -4.12642,-3.75463 -4.11914,-6.8418 1.99669,-11.11795 4.76776,-22.0828 8.29297,-32.81445 z" style="fill:url(#g4)"/>
</svg>
