<?xml version="1.0" encoding="UTF-8" standalone="no"?>
<svg xmlns="http://www.w3.org/2000/svg" version="1.1" width="600" height="264.97293">
  <path d="m 384.25516,150.89604 c -0.22153,0.47038 -0.47038,0.90458 -0.65573,1.37533 0.18461,-0.50804 0.39728,-0.9415 0.65573,-1.37533" style="fill:#808080"/>
  <path d="m 548.66747,153.10211 c -12.90414,17.66703 -34.18026,28.62355 -53.32416,37.02323 -0.4342,0.18461 -0.90458,0.35962 -1.33841,0.54423 l 18.79314,-83.94148 c 0.93227,-4.07062 -0.0738,-8.325837 -2.66759,-11.574947 -0.25845,-0.3227 -0.54423,-0.53537 -0.79382,-0.79382 24.19294,9.018127 42.97685,20.482307 46.3275,39.700057 0.14769,0.90458 0.22153,1.80916 0.22153,2.66759 0,5.87978 -3.43372,11.1042 -7.21819,16.37477 m -203.82622,71.24041 c -0.89535,0.0369 -13.94717,0.58189 -13.94717,0.58189 -0.54423,0 -1.12611,0.0738 -1.66148,0.17575 -9.23042,1.48609 -27.3682,2.05838 -36.88477,0.58188 -0.71997,-0.11076 -1.41226,-0.18461 -2.13223,-0.18461 l -9.23042,0 c -1.00612,-0.0665 -36.26634,-2.76912 -37.42014,-2.87989 -1.41226,-0.22153 -16.8086,-2.81528 -16.8086,-2.81528 -15.35943,-2.44606 -29.92504,-4.82751 -43.18916,-8.97197 -1.94762,-0.61881 -4.11676,-1.41225 -6.42437,-2.27991 l 53.83183,0 5.15981,0 c 16.0794,0.0738 32.74031,0.11076 46.1152,-5.07674 9.98731,-3.89524 18.06393,-9.62733 24.62677,-17.34396 13.44872,22.06071 43.73374,22.13455 66.99441,22.13455 l 1.43995,0 c 14.20562,0 28.88199,0 41.25076,-3.89524 3.99678,-1.21841 7.79048,-2.99065 11.35342,-5.15057 0.50731,1.3661 1.15381,2.70451 2.09531,3.85831 2.55683,3.16604 6.3413,5.04905 10.38423,5.11366 -16.22709,4.11677 -33.28491,7.67971 -51.23809,11.25189 -1.19072,0.14768 -43.59529,4.83674 -44.31526,4.90135 M 168.09709,133.98664 c 0,0 -5.76901,-4.65213 -8.72275,-7.02435 0.38768,-0.14769 2.3353,-0.7569 2.3353,-0.7569 l 16.33785,-5.19673 c -0.75689,3.42449 -3.02758,13.67026 -3.96908,17.81472 -1.98454,-1.62455 -3.95985,-3.17526 -5.98132,-4.83674 m -2.59375,70.09584 c -6.78436,-2.51991 -13.84563,-4.7629 -20.59307,-5.80594 -0.7569,-4.86443 -1.62456,-10.52268 -1.66148,-10.67037 -0.0295,-0.39727 -1.97531,-16.264 -1.97531,-16.264 0,0 -1.55071,-12.79337 -1.883,-15.64557 8.94428,4.54137 17.92548,9.51657 27.33128,14.96252 -2.01223,8.90735 -4.57829,20.22385 -4.57829,20.22385 -0.21267,0.97843 -0.3227,1.98455 -0.3227,2.99989 l 0,0.89535 c 0,3.6091 1.41226,6.84898 3.68294,9.30427 m 203.53085,-47.87821 c -0.0369,-0.33229 -0.0665,-0.65573 -0.0665,-1.01534 0,-7.02436 6.52591,-12.90414 10.67037,-13.94718 4.54137,-1.1538 8.68583,-1.05226 10.95651,-0.58188 0.25845,2.66759 1.22765,5.26134 2.88913,7.35665 -2.09531,1.55071 -3.8214,3.67371 -4.79982,6.20284 0.29537,-0.75689 0.65572,-1.11688 0.65572,-1.11688 -3.0645,3.2768 -15.97786,5.07673 -20.30693,3.10142 M 481.93036,85.388093 c 5.01212,1.51379 9.95039,3.02758 14.7779,4.57829 l -35.6202,0 c -6.45207,0 -12.0457,4.46752 -13.44873,10.781127 l -0.4342,1.9107 c -7.89201,-6.562827 -17.99009,-9.516567 -27.46974,-11.288807 -0.58189,-0.11076 -1.1538,-0.17574 -1.73532,-0.24885 -4.03369,-0.18461 -39.66313,-2.13223 -53.11186,0.0738 -19.68849,3.23988 -34.18026,10.024237 -44.63833,20.906907 -4.14446,-7.42126 -10.45807,-13.337957 -18.71007,-16.910127 -12.18416,-5.22442 -27.5805,-5.08597 -42.51533,-4.9752 l -6.52591,0.0369 -21.73765,0 c 67.82516,-18.96852 179.55944,-26.14056 251.16907,-4.86443 M 599.65481,146.35535 C 592.51046,93.501943 541.24469,73.527303 507.31365,60.253953 482.9361,50.737393 456.58324,45.900643 428.67044,40.786993 l -11.60301,-2.13223 c -0.39728,-0.0738 -0.86766,-0.13808 -1.30149,-0.21267 l -35.62021,-3.21218 c -0.22153,-0.0369 -0.4342,-0.0369 -0.6188,-0.0369 l -25.34675,-1.19072 c -0.21267,0 -0.39654,0 -0.64613,0 l -31.1896,0 -15.61788,0.29537 c -0.28651,0 -0.57228,0 -0.89535,0.0369 l -38.58317,3.23988 c -0.32343,0.0369 -0.9415,0.11077 -1.26457,0.18461 l -19.3562,3.0645 c -11.8334,1.72609 -24.05448,3.56295 -35.84173,6.56283 -16.37477,4.18139 -32.16803,9.36888 -47.70283,15.49789 0.11076,-0.17501 0.5073,-1.04304 0.53536,-1.07996 0.39654,-0.71998 12.15647,-21.37767 12.15647,-21.37767 1.19073,-2.13222 1.79993,-4.47675 1.79993,-6.78436 0,-3.71063 -1.47686,-7.35664 -4.32906,-10.02424 -4.61522,-4.35676 -11.56573,-5.01212 -16.91014,-1.55071 -5.94439,3.8214 -9.59041,10.02424 -12.54415,14.99944 l -2.38145,3.85832 c 0,0 -19.50388,27.3682 -19.86387,27.87588 -3.32295,-11.06728 -8.87044,-29.92504 -9.01812,-30.32195 -0.10117,-0.47112 -7.28281,-28.08817 -7.28281,-28.08817 C 103.37111,3.2834228 96.235989,-1.2210272 89.05472,0.29276282 82.602653,1.6957928 78.135128,7.2894228 78.135128,13.667653 c 0,0.75689 0.03692,1.47686 0.175748,2.23376 l 3.646017,22.50377 c 2.307606,13.69795 4.57829,27.72819 6.09208,41.74921 -9.055046,-4.57829 -17.703953,-9.04582 -25.992874,-13.91025 L 40.595364,53.580003 c -0.85843,-0.49844 -1.615324,-0.85843 -2.556828,-1.1538 l -1.190724,-0.39654 c -6.415145,-2.123 -13.337963,0.79381 -16.439385,6.74744 -1.043038,1.98454 -1.513789,4.14446 -1.513789,6.27668 0,4.28292 1.984541,8.43661 5.584406,11.1042 0,0 18.137783,13.5595 18.387004,13.73487 0.258452,0.21267 21.922257,17.233207 24.589849,19.328507 -14.630222,4.50445 -57.07171,17.59319 -57.07171,17.59319 -0.6830516,0.21267 -1.476868,0.54496 -2.0953064,0.83074 l -0.609208,0.28577 C 2.8798922,130.31256 0,135.14008 0,140.26296 c 0,1.26457 0.17500884,2.59375 0.53536458,3.85832 1.88300642,6.41514 8.15046422,10.56883 14.82406042,9.83963 11.141122,-1.25534 22.2084,-3.38757 32.87877,-5.43672 9.230424,-1.80916 18.682378,-3.53525 28.30971,-4.83674 -0.322696,0.68305 -1.439947,3.02758 -1.439947,3.02758 -7.938164,17.0209 -15.47019,33.1003 -24.303705,48.57049 -1.190725,2.0953 -1.836855,4.46752 -1.836855,6.84897 l 0,0.28578 c 0,7.6151 6.165923,13.78102 13.771793,13.78102 l 0.323434,0 c 4.504446,0 8.759672,-2.24299 11.316499,-5.99055 0,0 26.795916,-39.00777 27.008216,-39.30314 0.0369,-0.0665 2.77836,-3.8214 4.36599,-6.01824 1.6984,6.09208 3.27681,12.33185 4.82752,18.49777 l 4.5506,17.55627 c 0,-0.0369 -0.0369,-0.24885 -0.0369,-0.24885 0,0.0738 0.0665,0.35961 0.10191,0.43346 l -0.0665,-0.18461 c 0.35962,1.41225 5.29826,21.59919 5.62133,23.03914 0.90458,6.74744 6.59975,11.97186 13.59641,11.97186 l 0.28577,0 c 3.99678,0 7.8274,-1.76302 10.42115,-4.82752 0.43346,-0.5073 0.79382,-1.01534 1.15381,-1.58763 0.21193,0.14769 4.18138,1.72609 4.18138,1.72609 15.14712,6.56283 30.60808,11.32573 47.77667,16.48554 92.87653,27.71896 236.85268,21.30381 321.04337,-14.39023 25.19906,-10.67037 50.91502,-23.9068 68.00053,-48.0259 4.07062,-5.73209 14.85176,-20.95306 12.44262,-38.98008" style="fill:#808080"/>
  <path d="m 229.85786,127.24769 c 12.36877,-0.18461 29.60197,-1.79993 36.84785,3.53526 5.04904,3.71063 5.87978,12.00878 3.8214,19.43004 -1.04304,3.85832 -2.6676,8.26123 -5.07674,11.46418 -4.36599,5.76902 -12.61799,8.62122 -19.51311,9.70118 -2.15992,0.32343 -25.74365,0.14769 -25.78058,0.36036 3.24911,-14.81483 6.49822,-29.67582 9.70118,-44.49065 m 356.12821,20.98076 c -5.87055,-43.73375 -47.70283,-61.114637 -83.6461,-75.135657 -26.46362,-10.31038 -56.2502,-14.99943 -87.79979,-20.91614 -11.89802,-1.07996 -23.75911,-2.15992 -35.65713,-3.23987 -8.43661,-0.39728 -16.87321,-0.79382 -25.34674,-1.19073 l -30.94038,0 c -5.1875,0.10117 -10.38423,0.17501 -15.60865,0.3227 l -38.58317,3.20295 c -18.57161,3.35988 -36.9217,5.01212 -54.22874,9.45196 -29.81427,7.60587 -55.55792,17.77779 -79.82471,30.07272 5.69518,-11.83341 11.39035,-23.62066 17.08552,-35.37099 4.10754,-7.2828 8.26123,-14.53791 12.36877,-21.82072 -4.65214,3.03681 -7.92894,10.78114 -11.17805,15.33174 -12.00878,16.79937 -23.98064,33.59874 -35.94327,50.37042 -0.11076,0.17575 -0.18461,0.39728 -0.33229,0.57228 -5.69517,-19.21774 -11.39034,-38.4724 -17.048595,-57.72707 -2.455292,-9.4058 -4.938276,-18.85775 -7.393569,-28.26355 4.218304,28.15279 10.928824,58.48396 11.501104,88.944357 -5.409024,-2.55683 -10.818053,-5.076727 -16.227081,-7.642787 -10.993435,-5.58441 -21.737648,-10.99344 -32.084953,-17.08551 -7.18127,-4.21831 -14.353309,-8.43661 -21.488427,-12.65492 -0.332295,-0.11076 -0.618807,-0.22153 -0.904581,-0.33229 6.165923,4.61521 12.368768,9.23042 18.534691,13.84563 8.759672,6.89513 17.519344,13.78103 26.242094,20.63 6.165924,5.049037 12.368768,10.024237 18.534691,15.036357 -6.452066,2.04916 -12.941054,4.14446 -19.430042,6.20285 -20.69461,6.37822 -41.435372,12.75645 -62.166904,19.1439 -0.175747,0.11076 -0.397277,0.17575 -0.572286,0.28651 27.405128,-3.02758 54.339505,-11.82417 85.132199,-12.08263 l 0,0.3323 c -12.230312,24.94984 -22.752995,50.07505 -36.238644,73.62186 l 0,0.28578 0.323434,0 c 9.008893,-13.11644 18.063939,-26.31594 27.082063,-39.47853 6.267458,-8.61198 12.581066,-17.27012 18.848526,-25.92826 0.39728,-0.28651 0.79382,-0.57228 1.19072,-0.85843 8.43661,18.35009 12.5903,40.88155 18.28547,61.29002 1.94762,8.0397 3.93216,16.08863 5.87978,24.16525 l 0,0.53536 0.28578,0 c -1.66148,-10.85498 -3.32295,-21.77457 -5.01212,-32.70339 -1.37534,-11.25189 -2.74144,-22.56839 -4.10754,-33.85719 -0.79382,-7.56895 -1.58763,-15.10098 -2.34453,-22.67916 21.41458,8.94428 40.1985,19.79926 59.20394,30.94038 -2.27068,10.02424 -4.54137,20.04848 -6.78436,30.0358 l 0,0.89535 55.38254,0 c 16.84552,0 34.11565,0.61881 46.26288,-4.14446 15.11021,-5.87978 23.54682,-16.07939 29.45429,-31.22652 3.28603,-8.252 7.14435,-21.84841 4.43983,-33.56182 -2.05838,-8.76891 -7.53202,-14.78714 -15.03636,-17.99933 -11.06728,-4.71675 -27.83896,-3.82139 -43.59529,-3.82139 l -56.57327,0 c -4.31984,19.47619 -8.64891,38.90623 -12.97797,58.34551 l -0.28578,0 c -12.14724,-7.90125 -22.90068,-17.74088 -34.18026,-26.50055 -5.63056,-4.40291 -12.69183,-8.84275 -17.09474,-14.46408 19.43927,-6.20284 38.90623,-12.36876 58.34551,-18.57161 4.93827,-1.55071 20.18693,-4.319837 22.96529,-7.356647 -9.05504,3.21219 -19.32851,3.6091 -29.46351,5.593637 -9.23043,1.30149 -18.46085,2.55683 -27.69127,3.82139 l 0,-0.24885 c 6.56283,-3.28603 13.16258,-6.488987 19.76233,-9.775017 13.63334,-5.87978 28.19895,-10.67037 43.01378,-15.28558 70.52967,-21.9961 191.09746,-30.10964 267.50691,-7.39357 33.38644,9.9504 77.12019,23.54681 83.39688,59.527007 2.23376,12.91336 -4.65213,22.9376 -9.45195,29.46351 -13.9841,19.25467 -35.79559,31.4019 -58.90857,41.53691 -32.81415,14.34408 -69.2651,22.31916 -109.61128,30.35886 -15.1102,1.65225 -30.25733,3.31372 -45.3583,5.01212 -4.79982,0.17501 -9.62734,0.39654 -14.42716,0.57229 -10.67037,1.77224 -30.10964,2.34453 -41.25076,0.61881 l -9.72887,0 c -12.87644,-1.01535 -25.74365,-1.98454 -38.58317,-2.96297 -21.9961,-3.92293 -43.08762,-6.26746 -62.48997,-12.36877 -11.14112,-3.4891 -26.639,-11.16881 -38.2878,-12.35954 4.0337,3.16604 9.7381,4.86444 14.75022,7.02436 14.52869,6.31361 29.63889,11.00266 46.21673,15.94094 92.30424,27.58051 233.32666,19.39312 311.74834,-13.84564 24.76522,-10.53191 47.51822,-22.64223 62.15767,-43.29991 4.57829,-6.49822 11.61187,-17.31628 9.98732,-29.17737 M 461.08958,103.73854 c -6.77514,30.2481 -13.5595,60.50543 -20.33463,90.71661 l 38.2878,0 c 6.78436,-30.21118 13.55949,-60.46851 20.33462,-90.71661 l -38.28779,0 z m -59.52701,55.38255 c -4.83674,12.76567 -42.76455,17.91625 -45.97674,0.6092 -2.84297,-15.60864 9.70118,-29.05737 20.63,-31.83573 12.43338,-3.13834 29.41736,-1.29226 28.01433,11.79648 l 43.29992,0 c 0.50731,-23.80526 -10.31038,-31.08807 -30.32194,-34.7987 0,0 -37.75243,-2.15992 -50.08428,-0.14768 -27.14668,4.51367 -42.35841,15.43327 -49.82583,39.9585 -1.73532,5.7321 -4.2183,13.91025 -2.92604,22.06072 4.25522,26.759 28.55893,27.69127 59.49931,27.69127 13.91948,0 27.82973,0.14768 38.61086,-3.20296 15.25789,-4.79982 24.81138,-17.81472 30.65424,-32.1311 l -41.57383,0 z"/>
</svg>
