<?xml version="1.0" encoding="UTF-8" standalone="no"?>
<svg xmlns="http://www.w3.org/2000/svg" xmlns:xlink="http://www.w3.org/1999/xlink" version="1.1" width="600.00006" height="264.97119">
  <linearGradient x1="0" y1="0" x2="1" y2="0" id="linearGradient440" gradientUnits="userSpaceOnUse" gradientTransform="matrix(44.293304,-25.572754,-25.572754,-44.293304,197.77441,271.24512)" spreadMethod="pad">
    <stop style="stop-color:#8b723c" offset="0"/>
    <stop style="stop-color:#d2bb7b" offset="0.3"/>
    <stop style="stop-color:#ebd491" offset="0.5"/>
    <stop style="stop-color:#d2bb7b" offset="0.7"/>
    <stop style="stop-color:#8b723c" offset="1"/>
  </linearGradient>
  <linearGradient x1="0" y1="0" x2="1" y2="0" id="linearGradient2999" xlink:href="#linearGradient440" gradientUnits="userSpaceOnUse" gradientTransform="matrix(44.293304,-25.572754,-25.572754,-44.293304,197.77441,271.24512)" spreadMethod="pad"/>
  <linearGradient x1="0" y1="0" x2="1" y2="0" id="linearGradient3002" xlink:href="#linearGradient440" gradientUnits="userSpaceOnUse" gradientTransform="matrix(408.84327,236.0458,-236.0458,408.84327,120.0081,16.491361)" spreadMethod="pad"/>
  <path d="m 384.25115,150.89579 c -0.21267,0.47112 -0.46152,0.90457 -0.68305,1.37532 0.22153,-0.50804 0.4342,-0.94149 0.68305,-1.37532"/>
  <path d="m 548.67161,153.10185 c -12.91328,17.66691 -34.18004,28.62335 -53.32381,37.02298 -0.43346,0.18461 -0.90458,0.36035 -1.3384,0.54496 l 18.78379,-83.94092 c 0.94149,-4.07059 -0.0738,-8.325789 -2.66758,-11.574879 -0.24885,-0.32269 -0.54496,-0.53536 -0.79381,-0.79381 24.19278,9.018069 42.97657,20.482179 46.33642,39.699799 0.13883,0.90457 0.21267,1.80915 0.21267,2.66757 0,5.87974 -3.42447,11.10413 -7.20891,16.37466 M 344.8471,224.34216 c -0.90458,0.0369 -13.95631,0.58188 -13.95631,0.58188 -0.57228,0 -1.11687,0.0738 -1.66146,0.17574 -9.23037,1.48609 -27.3588,2.05838 -36.88453,0.58115 -0.71997,-0.11077 -1.40302,-0.18461 -2.12299,-0.18461 l -9.23036,0 c -1.01534,-0.0665 -36.27533,-2.76911 -37.42912,-2.87987 -1.40302,-0.22153 -16.79926,-2.81526 -16.79926,-2.81526 -15.39625,-2.44605 -29.92484,-4.82748 -43.1981,-8.97192 -1.94761,-0.6188 -4.10751,-1.41224 -6.4151,-2.2799 l 53.83147,0 5.15054,0 c 16.08853,0.0738 32.7401,0.11077 46.08721,-5.0767 10.02417,-3.89521 18.06382,-9.62726 24.66353,-17.34385 13.41171,22.06057 43.73346,22.13441 66.98474,22.13441 l 1.44917,0 c 14.20553,0 28.87257,0 41.24126,-3.89521 4.00598,-1.21841 7.79043,-2.99064 11.36258,-5.15054 0.5073,1.36609 1.15379,2.70449 2.08606,3.85829 2.52912,3.16601 6.35049,5.04901 10.38416,5.11362 -16.25467,4.11674 -33.27546,7.67966 -51.22852,11.25181 -1.19071,0.14769 -43.595,4.83671 -44.31497,4.90133 M 168.05759,133.98576 c 0,0 -5.73206,-4.6521 -8.68577,-7.0243 0.39653,-0.14769 2.34451,-0.75689 2.34451,-0.75689 l 16.32851,-5.1967 c -0.75689,3.42447 -3.02756,13.67017 -3.95982,17.8146 -1.98453,-1.62454 -3.96906,-3.17524 -6.02743,-4.83671 m -2.55681,70.09538 c -6.77509,-2.51989 -13.84555,-4.76287 -20.58371,-5.8059 -0.75689,-4.8644 -1.62455,-10.52261 -1.66147,-10.6703 -0.0369,-0.39653 -1.98453,-16.2639 -1.98453,-16.2639 0,0 -1.5507,-12.79328 -1.87376,-15.64546 8.94422,4.54134 17.91614,9.5165 27.33111,14.96242 -2.02145,8.9073 -4.57826,20.22372 -4.57826,20.22372 -0.22153,0.97842 -0.3227,1.98453 -0.3227,2.99987 l 0,0.89534 c 0,3.60908 1.40302,6.84893 3.67369,9.30421 m 203.53873,-47.87789 c -0.0369,-0.3323 -0.0738,-0.65573 -0.0738,-1.01534 0,-7.02431 6.52587,-12.90405 10.6703,-13.94708 4.55057,-1.1538 8.695,-1.05226 10.96567,-0.58188 0.24885,2.66757 1.22764,5.2613 2.87987,7.3566 -2.08606,1.5507 -3.82137,3.67368 -4.79056,6.2028 0.28578,-0.75689 0.64613,-1.11687 0.64613,-1.11687 -3.06448,3.27677 -16.00545,5.0767 -20.29757,3.1014 M 481.8903,85.387531 c 5.04901,1.51378 9.98725,3.02756 14.82396,4.57826 l -35.61997,0 c -6.46125,0 -12.04562,4.4675 -13.44864,10.781069 l -0.43419,1.91068 c -7.90119,-6.562789 -17.99921,-9.516499 -27.47879,-11.288729 -0.57229,-0.11077 -1.1538,-0.17575 -1.72608,-0.24959 -4.0429,-0.18461 -39.66287,-2.13222 -53.11151,0.0738 -19.68836,3.23986 -34.18003,10.024169 -44.63804,20.906769 -4.14443,-7.42121 -10.458,-13.337869 -18.71917,-16.910019 -12.18408,-5.22439 -27.58033,-5.08593 -42.50582,-4.97517 l -6.52587,0.0369 -21.77443,0 c 67.8524,-18.96839 179.59518,-26.14038 251.15818,-4.8644 M 599.6509,146.35365 c -7.13507,-52.853059 -58.40974,-72.827559 -92.34055,-86.100829 -24.36816,-9.5165 -50.73007,-14.35321 -78.63346,-19.46683 l -11.6118,-2.13222 c -0.39654,-0.0738 -0.86765,-0.13808 -1.30148,-0.21192 l -35.61997,-3.21217 c -0.21267,-0.0369 -0.43346,-0.0369 -0.6092,-0.0369 l -25.34658,-1.19072 c -0.22153,0 -0.4342,0 -0.65573,0 l -31.18939,0 -15.60855,0.29537 c -0.28651,0 -0.58188,0 -0.90457,0.0369 l -38.57369,3.23986 c -0.33229,0.0369 -0.9415,0.11077 -1.26456,0.18461 l -19.3653,3.06448 c -11.8241,1.72608 -24.0451,3.56292 -35.8415,6.56279 -16.36543,4.18135 -32.15859,9.36882 -47.70252,15.49778 0.11077,-0.17501 0.5073,-1.04303 0.54496,-1.07996 0.39654,-0.71996 12.14716,-21.37752 12.14716,-21.37752 1.19072,-2.13221 1.80915,-4.47672 1.80915,-6.78431 0,-3.71061 -1.51378,-7.3566 -4.32904,-10.02418 -4.61518,-4.35673 -11.57487,-5.01208 -16.91002,-1.5507 -5.95359,3.82137 -9.59035,10.02418 -12.54407,14.99934 l -2.38143,3.85829 c 0,0 -19.54068,27.36803 -19.90066,27.8757 -3.28601,-11.06721 -8.84269,-29.92484 -8.98115,-30.32174 -0.11076,-0.47112 -7.28275,-28.088 -7.28275,-28.088 C 103.38043,3.2833914 96.236134,-1.2210186 89.064142,0.29276137 82.612118,1.6957714 78.135392,7.2893714 78.135392,13.667551 c 0,0.75689 0.03692,1.47686 0.184607,2.23375 l 3.636763,22.50362 c 2.307591,13.69786 4.57826,27.72801 6.09204,41.74894 -9.045756,-4.57826 -17.694606,-9.04576 -25.992702,-13.91016 l -21.451364,-12.664 c -0.867654,-0.49844 -1.624544,-0.85842 -2.55681,-1.15379 l -1.190717,-0.39654 c -6.424333,-2.12298 -13.347105,0.79381 -16.448507,6.74739 -1.043031,1.98453 -1.51378,4.14444 -1.51378,6.27665 0,4.28289 1.984528,8.43655 5.5936,11.10413 0,0 18.137664,13.5594 18.386883,13.73478 0.248851,0.21267 21.922112,17.233089 24.589687,19.328379 -14.639355,4.50442 -57.080564,17.59307 -57.080564,17.59307 -0.6830473,0.21267 -1.4768585,0.54496 -2.0860624,0.83073 L 7.679662,127.93027 C 2.8891036,130.31171 0,135.13919 0,140.26204 c 0,1.26456 0.18460726,2.59373 0.54496063,3.85829 1.87376367,6.41511 8.15041057,10.56877 14.82396337,9.83957 11.141048,-1.25533 22.208253,-3.38754 32.878553,-5.43668 9.230363,-1.80916 18.673024,-3.53523 28.300293,-4.83671 -0.322694,0.68304 -1.439937,3.02755 -1.439937,3.02755 -7.928882,17.02079 -15.470088,33.10009 -24.303546,48.57018 -1.190717,2.09529 -1.836842,4.46749 -1.836842,6.84892 l 0,0.28578 c 0,7.61505 6.165882,13.78093 13.771702,13.78093 l 0.295371,0 c 4.541339,0 8.796536,-2.24298 11.353347,-5.99051 0,0 26.786515,-39.00751 27.008045,-39.30288 0.0369,-0.0665 2.77834,-3.82137 4.35673,-6.0182 1.69838,6.09204 3.28601,12.33177 4.83671,18.49765 l 4.54134,17.55615 c 0,-0.0369 -0.0369,-0.24959 -0.0369,-0.24959 0,0.0738 0.0738,0.36035 0.11076,0.4342 l -0.0738,-0.18461 c 0.36035,1.41224 5.29823,21.59905 5.62129,23.03898 0.90457,6.7474 6.59971,11.97179 13.59632,11.97179 l 0.28577,0 c 4.00598,0 7.82735,-1.763 10.42108,-4.82748 0.4342,-0.50804 0.79382,-1.01534 1.1538,-1.58763 0.22153,0.14769 4.18135,1.72608 4.18135,1.72608 15.14703,6.56279 30.61712,11.32566 47.77636,16.48543 92.84822,27.71878 236.85112,21.30368 321.04126,-14.39014 25.20812,-10.6703 50.91468,-23.90664 68.00931,-48.02558 4.07059,-5.73205 14.85166,-20.95292 12.4333,-38.97982"/>
  <path d="m 229.8641,127.2476 c 12.33176,-0.18461 29.60177,-1.79992 36.84761,3.53523 5.04901,3.7106 5.87974,12.0087 3.82137,19.42991 -1.04303,3.85829 -2.66758,8.26118 -5.08593,11.46411 -4.35673,5.76898 -12.61791,8.62116 -19.50376,9.70111 -2.1599,0.32344 -25.74348,0.14769 -25.7804,0.36036 3.24909,-14.81474 6.48894,-29.67562 9.70111,-44.49035 m 356.12586,20.98061 c -5.87974,-43.73346 -47.70251,-61.114229 -83.65478,-75.135149 -26.46345,-10.31032 -56.2406,-14.99934 -87.78998,-20.91601 -11.89794,-1.07995 -23.76818,-2.1599 -35.66612,-3.23985 -8.43655,-0.39728 -16.8731,-0.79381 -25.34658,-1.19072 l -30.93094,0 c -5.1967,0.10116 -10.38416,0.17501 -15.61778,0.32343 l -38.57369,3.20294 c -18.57149,3.35985 -36.92145,5.01208 -54.22838,9.45189 -29.8233,7.60582 -55.56678,17.77768 -79.83341,30.07252 5.69514,-11.83332 11.39027,-23.6205 17.09464,-35.37075 4.10751,-7.28276 8.25194,-14.53782 12.36868,-21.82058 -4.6521,3.03679 -7.93811,10.78107 -11.17797,15.33164 -12.0087,16.79926 -23.98048,33.59852 -35.95226,50.37009 -0.11077,0.17574 -0.21267,0.39727 -0.3227,0.57228 -5.69513,-19.21762 -11.39026,-38.47215 -17.057706,-57.72669 -2.446047,-9.40574 -4.938245,-18.85763 -7.393521,-28.26337 4.227506,28.1526 10.928747,58.48358 11.510267,88.943779 -5.408997,-2.55682 -10.81799,-5.076699 -16.226983,-7.642749 -11.002592,-5.58436 -21.783656,-10.99336 -32.093972,-17.0854 -7.171992,-4.21827 -14.343984,-8.43655 -21.488285,-12.65482 -0.322693,-0.11077 -0.609204,-0.22153 -0.904575,-0.3323 6.165882,4.61518 12.368686,9.23037 18.534568,13.84555 8.759615,6.89508 17.52846,13.78093 26.251153,20.62986 6.165882,5.049009 12.368686,10.024169 18.534569,15.036259 -6.452024,2.04914 -12.9502,4.14443 -19.439145,6.2028 -20.694474,6.37818 -41.425869,12.75637 -62.157264,19.14378 -0.184607,0.11076 -0.396537,0.17501 -0.581882,0.28577 27.404947,-3.02756 54.339147,-11.8241 85.131638,-12.08255 l 0,0.3323 C 86.756551,153.4622 76.224707,178.58725 62.739147,202.1339 l 0,0.28577 0.295371,0 c 9.045756,-13.11634 18.063821,-26.31576 27.109576,-39.47826 6.276647,-8.61193 12.580986,-17.27001 18.857636,-25.92809 0.39727,-0.28651 0.79381,-0.57228 1.19071,-0.85842 8.43655,18.34996 12.58099,40.88128 18.27612,61.28961 1.94761,8.03965 3.93214,16.08852 5.87974,24.16509 l 0,0.53536 0.28577,0 c -1.65223,-10.85491 -3.3137,-21.77443 -5.01208,-32.70318 -1.3661,-11.25181 -2.73219,-22.56823 -4.10751,-33.85697 -0.79382,-7.56889 -1.58763,-15.10087 -2.34452,-22.679 21.42368,8.94422 40.20747,19.79913 59.20355,30.94018 -2.27067,10.02417 -4.54134,20.04835 -6.77508,30.0356 l 0,0.89534 55.38217,0 c 16.83619,0 34.1062,0.61881 46.26258,-4.14443 15.06396,-5.87974 23.53743,-16.07929 29.45409,-31.22632 3.24909,-8.25194 7.13507,-21.84827 4.43058,-33.5616 -2.04914,-8.76884 -7.53198,-14.78704 -15.02704,-17.99921 -11.07643,-4.71671 -27.83877,-3.82137 -43.595,-3.82137 l -56.57289,0 c -4.32904,19.47607 -8.65809,38.90599 -12.97789,58.34513 l -0.29538,0 c -12.14715,-7.90119 -22.8913,-17.74076 -34.18003,-26.50037 -5.62129,-4.40289 -12.69175,-8.84269 -17.0854,-14.46398 19.42991,-6.20281 38.90598,-12.36869 58.33589,-18.57149 4.93825,-1.5507 20.19604,-4.319809 22.96514,-7.356599 -9.04575,3.21216 -19.31915,3.60907 -29.45408,5.593599 -9.23037,1.30148 -18.46073,2.55681 -27.69109,3.82137 l 0,-0.24885 c 6.56279,-3.28601 13.16249,-6.488949 19.7622,-9.774959 13.62402,-5.87974 28.18953,-10.6703 43.0135,-15.28548 70.51997,-21.99595 191.0962,-30.10944 267.49592,-7.39352 33.38622,9.95033 77.12891,23.54666 83.39633,59.526609 2.24297,12.91328 -4.6798,22.93746 -9.44267,29.46332 -13.99323,19.25454 -35.80457,31.4017 -58.9174,41.53664 -32.81394,14.34398 -69.26465,22.31901 -109.61056,30.35866 -15.11011,1.65223 -30.2479,3.3137 -45.35801,5.01209 -4.82748,0.175 -9.62727,0.39727 -14.41782,0.57228 -10.67953,1.77223 -30.10945,2.34451 -41.2505,0.6188 l -9.73803,0 c -12.86713,-1.01534 -25.74348,-1.98453 -38.58292,-2.96294 -21.98672,-3.92291 -43.08733,-6.26742 -62.48032,-12.36869 -11.14105,-3.48908 -26.64806,-11.16874 -38.29678,-12.35946 4.0429,3.16602 9.73803,4.86441 14.75012,7.02431 14.49167,6.31357 29.6387,11.00259 46.22566,15.94084 92.30363,27.58032 233.31588,19.39299 311.73705,-13.84555 24.77429,-10.53184 47.52714,-22.64208 62.16649,-43.29963 4.57826,-6.49818 11.6118,-17.31616 9.98726,-29.17718 M 461.09355,103.7386 c -6.78431,30.2479 -13.5594,60.50503 -20.34372,90.71601 l 38.29678,0 c 6.77509,-30.21098 13.5594,-60.46811 20.33449,-90.71601 l -38.28755,0 z m -59.53584,55.38218 c -4.82748,12.76559 -42.75504,17.91613 -45.96721,0.6092 -2.85218,-15.60854 9.70112,-29.05718 20.62064,-31.83552 12.44252,-3.13832 29.42639,-1.29225 28.01415,11.79641 l 43.30886,0 c 0.49844,-23.80511 -10.31032,-31.08787 -30.32174,-34.79847 0,0 -37.75219,-2.15991 -50.08395,-0.14769 -27.15573,4.51365 -42.36737,15.43317 -49.83473,39.95824 -1.72608,5.73206 -4.24597,13.91016 -2.9168,22.06057 4.2552,26.75882 28.55875,27.69109 59.48969,27.69109 13.91939,0 27.83878,0.14769 38.61984,-3.20294 15.24856,-4.79978 24.80199,-17.8146 30.64481,-32.13089 l -41.57356,0 z" style="fill:#8b723c"/>
  <path d="m 322.38003,51.420161 -15.11011,0.28615 -38.2137,3.21216 c -6.74739,1.22764 -13.3748,2.19683 -20.01143,3.17525 l 0,0 c -11.86101,1.763 -23.03898,3.42446 -33.96773,6.2028 l 0,0 c -27.50648,7.02431 -53.39765,16.79926 -79.03037,29.77715 l 0,0 -9.73803,4.93825 4.72594,-9.83957 5.47361,-11.28873 -16.83618,23.583569 -4.68903,6.73817 -2.1599,-7.24584 -7.75351,-26.177309 c 1.07995,9.23037 1.83684,18.60842 2.02145,27.986459 l 0,0 0.11077,5.94436 -5.37208,-2.51989 -6.562784,-3.1014 -9.774955,-4.615179 -2.344512,-1.19072 c -2.519889,-1.30148 -5.049008,-2.56604 -7.531976,-3.85829 l 0,0 4.181354,3.3137 18.571491,15.036259 5.335152,4.29212 -6.562791,2.09529 -9.701111,3.06448 -9.765724,3.1014 -9.128829,2.80603 c 9.811876,-1.47686 19.872971,-2.51989 30.395585,-2.63065 l 0,0 5.99051,0.24922 -2.63989,5.37207 c -3.959824,8.04888 -7.707351,16.11622 -11.50103,24.20201 l 0,0 c -0.609204,1.29225 -1.218408,2.63066 -1.836843,3.95983 l 0,0 7.642741,-10.458 9.414972,-12.97789 1.00611,-0.93227 0.3969,-0.33229 4.21828,-3.1014 1.91068,4.11674 c 3.42447,7.49505 6.16589,15.64546 8.58424,24.00817 l 0,0 -0.32306,-2.66757 -1.1538,-11.31643 -1.15379,-11.36257 -0.61844,-6.16589 5.70437,2.38144 c 8.39963,3.53523 16.43928,7.31967 24.29431,11.36257 l 0,0 c -0.85842,-0.69227 -1.763,-1.41224 -2.66757,-2.05837 l 0,0 c -1.32917,-1.07995 -2.77834,-2.13221 -4.2552,-3.21216 l 0,0 c -4.82748,-3.56292 -9.83957,-7.24584 -13.48556,-11.89794 l 0,0 -3.23986,-4.18136 5.04901,-1.62454 31.94629,-10.12571 -6.16588,0.8215 -22.2821,2.7045 20.37141,-10.08879 19.67914,-9.701109 c 14.03015,-6.05512 29.14025,-10.99336 43.3827,-15.43317 l 0,0 c 42.43198,-13.19942 101.13709,-21.09138 157.05463,-21.09138 l 0,0 c 15.61777,0 30.61711,0.60921 44.82264,1.79992 l 0,0 -4.87363,-0.89534 -23.79588,-2.16914 -11.71333,-1.07995 -25.1712,-1.19072 -31.15247,0 z m 141.66761,56.028309 -18.68226,83.33172 30.72788,0 8.21503,-36.74608 10.458,-46.58564 -30.71865,0 z m -96.30961,0.9415 c -26.9342,4.46749 -40.08747,14.92549 -46.94562,37.46604 l 0,0 c -1.65224,5.51053 -3.95983,13.08866 -2.76911,20.33449 l 0,0 c 3.63676,22.96514 23.53742,24.58969 55.84369,24.58969 l 0,0 1.37533,0 1.32917,0 c 11.68564,0 24.94967,0 34.83539,-3.06448 l 0,0 c 10.8826,-3.42447 19.61452,-11.79641 26.02962,-24.92198 l 0,0 -33.63544,0 c -4.91055,7.61505 -17.92537,11.68564 -28.81719,11.68564 l 0,0 c -12.75637,0 -21.41445,-5.26131 -23.03899,-14.09477 l 0,0 c -3.1014,-16.98387 9.8488,-32.66625 23.37128,-36.0538 l 0,0 c 3.74753,-0.94149 7.71658,-1.48609 11.50103,-1.48609 l 0,0 c 7.92888,0 14.24245,2.20606 17.80537,6.16589 l 0,0 c 1.73531,1.9476 2.81526,4.29212 3.17525,6.95969 l 0,0 35.98918,0 c -0.58151,-18.93147 -9.81187,-24.2297 -26.79574,-27.40495 l 0,0 c -0.17538,0 -17.55615,-1.00611 -32.34319,-1.00611 l 0,0 c -7.89196,0 -13.62402,0.28614 -16.91003,0.83074 m -108.53061,-0.68305 -6.70124,0.0369 -53.61918,0 -12.33176,55.44679 -1.21841,4.32904 -5.34438,23.54666 50.98852,0 5.22439,0.0369 5.23361,0 c 12.36869,0 25.23582,-0.28614 34.46618,-3.89521 l 0,0 c 13.19942,-5.15978 21.37752,-13.88247 27.36803,-29.13103 l 0,0 c 2.70449,-6.88585 6.84893,-20.15911 4.25519,-31.41093 l 0,0 c -1.69838,-7.17199 -6.12896,-12.50714 -12.87635,-15.42393 l 0,0 c -7.3566,-3.13833 -18.20228,-3.57215 -28.80797,-3.57215 l 0,0 -6.63663,0.0369 z m -42.69043,63.23722 8.2981,-37.71527 1.43994,-6.77508 0.64612,-2.85219 2.92603,-0.0369 c 1.98453,-0.0281 4.10751,-0.10153 6.34126,-0.13845 l 0,0 c 3.21216,-0.11077 6.56279,-0.22153 9.84879,-0.22153 l 0,0 c 11.64872,0 18.49765,1.37532 22.8913,4.61518 l 0,0 c 5.91667,4.29212 7.93812,13.52248 5.1967,23.4082 l 0,0 c -1.47686,5.33515 -3.42447,9.62727 -5.73206,12.69175 l 0,0 c -5.70436,7.60582 -16.15313,10.19955 -21.8575,11.10413 l 0,0 c -1.29225,0.2123 -6.01819,0.24922 -15.75623,0.24922 l 0,0 c -4.82748,0.0369 -9.23036,0.0369 -10.1257,0.11076 l 0,0 -5.15978,0.47075 1.04303,-4.91055 z m 356.31048,-39.83825 c 2.59373,14.88858 -5.65822,26.17731 -10.0611,32.23243 l 0,0 c -15.35932,21.09138 -39.1552,33.46006 -60.43119,42.80119 l 0,0 c -33.23853,14.52859 -69.66155,22.42055 -110.65359,30.60788 l 0,0 -45.64414,5.01209 -7.21815,0.28614 -6.77508,0.25845 c -6.4151,1.04303 -15.93161,1.68916 -24.87583,1.68916 l 0,0 c -4.83671,0 -11.7964,-0.17538 -16.98387,-1.04303 l 0,0 -10.02417,0 -13.48556,-1.04303 -25.13428,-1.91069 c 27.69109,4.93825 58.59434,7.45814 91.2606,7.45814 l 0,0 c 67.89855,0 134.99406,-11.24259 179.59517,-30.13714 l 0,0 c 22.86361,-9.70111 46.04105,-21.52521 60.61579,-42.08122 l 0,0 c 3.20294,-4.57826 10.84568,-15.35933 9.29498,-26.50038 l 0,0 c -1.83684,-13.80862 -7.28276,-24.77429 -15.3224,-33.93081 l 0,0 c 2.81526,4.91055 4.83671,10.31031 5.84282,16.30082" style="fill:url(#linearGradient3002)"/>
</svg>
