<?xml version="1.0" encoding="UTF-8" standalone="no"?>
<svg xmlns="http://www.w3.org/2000/svg" xmlns:xlink="http://www.w3.org/1999/xlink" version="1.1" width="600.00006" height="264.97195">
  <linearGradient x1="0" y1="0" x2="1" y2="0" id="linearGradient418" gradientUnits="userSpaceOnUse" gradientTransform="matrix(44.295853,-25.574219,-25.574219,-44.295837,115.00049,271.2168)" spreadMethod="pad">
    <stop style="stop-color:#536e78" offset="0"/>
    <stop style="stop-color:#99aebc" offset="0.3"/>
    <stop style="stop-color:#d9eaf3" offset="0.5"/>
    <stop style="stop-color:#99aebc" offset="0.7"/>
    <stop style="stop-color:#536e78" offset="1"/>
  </linearGradient>
  <linearGradient x1="0" y1="0" x2="1" y2="0" id="linearGradient2999" xlink:href="#linearGradient418" gradientUnits="userSpaceOnUse" gradientTransform="matrix(44.295853,-25.574219,-25.574219,-44.295837,115.00049,271.2168)" spreadMethod="pad"/>
  <linearGradient x1="0" y1="0" x2="1" y2="0" id="linearGradient3002" xlink:href="#linearGradient418" gradientUnits="userSpaceOnUse" gradientTransform="matrix(408.8668,236.05933,-236.05933,408.86665,119.78842,16.752041)" spreadMethod="pad"/>
  <path d="m 384.25226,150.89506 c -0.21267,0.47038 -0.46152,0.90458 -0.68305,1.37533 0.22153,-0.5073 0.4342,-0.9415 0.68305,-1.37533"/>
  <path d="m 548.67271,153.10112 c -12.91327,17.66691 -34.18003,28.62335 -53.3238,37.02298 -0.4342,0.18461 -0.90458,0.35962 -1.33841,0.54497 l 18.78379,-83.94093 c 0.9415,-4.07059 -0.0738,-8.325779 -2.66757,-11.574869 -0.24885,-0.32343 -0.54422,-0.53536 -0.79381,-0.79381 24.19278,9.018059 42.97657,20.482169 46.33642,39.699789 0.13882,0.90457 0.21267,1.80915 0.21267,2.66757 0,5.87974 -3.42447,11.10413 -7.20892,16.37467 m -203.82487,71.23994 c -0.90458,0.0369 -13.95631,0.58114 -13.95631,0.58114 -0.57228,0 -1.11687,0.0738 -1.66147,0.17575 -9.23036,1.48609 -27.35879,2.05837 -36.88453,0.58188 -0.71997,-0.11076 -1.40301,-0.18461 -2.12298,-0.18461 l -9.23036,0 c -1.01534,-0.0665 -36.27533,-2.76911 -37.42913,-2.87987 -1.40301,-0.22153 -16.79926,-2.81526 -16.79926,-2.81526 -15.39624,-2.44605 -29.92483,-4.82748 -43.19809,-8.97191 -1.94761,-0.61881 -4.10752,-1.41225 -6.41511,-2.2799 l 53.83148,0 5.15054,0 c 16.08853,0.0738 32.7401,0.11076 46.0872,-5.0767 10.02418,-3.89522 18.06383,-9.62727 24.66353,-17.34385 13.41172,22.06056 43.73346,22.13441 66.98475,22.13441 l 1.44917,0 c 14.20552,0 28.87257,0 41.24126,-3.89522 4.00598,-1.2184 7.79042,-2.99063 11.36257,-5.15054 0.50804,1.36609 1.1538,2.7045 2.08607,3.85829 2.52912,3.16602 6.35049,5.04901 10.38416,5.11362 -16.25467,4.11675 -33.27546,7.67967 -51.22852,11.25182 -1.19072,0.14768 -43.595,4.83671 -44.31497,4.90132 M 168.05907,133.98578 c 0,0 -5.73206,-4.65211 -8.68578,-7.02431 0.39654,-0.14769 2.34452,-0.75689 2.34452,-0.75689 l 16.32851,-5.1967 c -0.75689,3.42447 -3.02756,13.67017 -3.95983,17.81461 -1.98453,-1.62455 -3.96905,-3.17525 -6.02742,-4.83671 m -2.55682,70.09537 c -6.77508,-2.51989 -13.84554,-4.76287 -20.5837,-5.8059 -0.75689,-4.8644 -1.62455,-10.52261 -1.66147,-10.6703 -0.0369,-0.39653 -1.98453,-16.2639 -1.98453,-16.2639 0,0 -1.5507,-12.79328 -1.87376,-15.64546 8.94422,4.54134 17.91613,9.5165 27.3311,14.96242 -2.02145,8.9073 -4.57826,20.22372 -4.57826,20.22372 -0.22153,0.97842 -0.32343,1.98453 -0.32343,2.99987 l 0,0.89535 c 0,3.60907 1.40302,6.84893 3.67369,9.3042 m 203.53873,-47.87789 c -0.0369,-0.33229 -0.0738,-0.65573 -0.0738,-1.01534 0,-7.02431 6.52586,-12.90405 10.6703,-13.94708 4.55057,-1.15379 8.695,-1.05226 10.96567,-0.58188 0.24885,2.66757 1.22764,5.26131 2.87987,7.3566 -2.08606,1.5507 -3.82137,3.67368 -4.79056,6.2028 0.28651,-0.75689 0.64613,-1.11687 0.64613,-1.11687 -3.06448,3.27678 -16.00545,5.0767 -20.29757,3.1014 M 481.89108,85.387541 c 5.04901,1.51378 9.98725,3.02756 14.82396,4.57826 l -35.61997,0 c -6.46125,0 -12.04562,4.4675 -13.44864,10.781069 l -0.43419,1.91068 c -7.9012,-6.562789 -17.99921,-9.516499 -27.4788,-11.288729 -0.57228,-0.11077 -1.15379,-0.17501 -1.72607,-0.24885 -4.0429,-0.18461 -39.66287,-2.13222 -53.11151,0.0738 -19.68837,3.23986 -34.18004,10.024169 -44.63804,20.906769 -4.14443,-7.42121 -10.458,-13.337869 -18.71917,-16.910019 -12.18408,-5.22439 -27.58033,-5.08593 -42.50583,-4.97517 l -6.52586,0.0369 -21.77443,0 c 67.8524,-18.96839 179.59517,-26.14038 251.15818,-4.8644 M 599.65168,146.3544 c -7.13507,-52.853059 -58.40974,-72.827559 -92.34055,-86.100829 -24.36816,-9.5165 -50.73008,-14.35321 -78.63346,-19.46683 l -11.6118,-2.13222 c -0.39654,-0.0738 -0.86765,-0.13882 -1.30148,-0.21266 l -35.61997,-3.21217 c -0.21193,-0.0369 -0.43346,-0.0369 -0.60921,-0.0369 l -25.34657,-1.19072 c -0.22153,0 -0.4342,0 -0.65573,0 l -31.18939,0 -15.60855,0.29537 c -0.28577,0 -0.58114,0 -0.90457,0.0369 l -38.57369,3.23985 c -0.33229,0.0369 -0.9415,0.11077 -1.26456,0.18461 l -19.3653,3.06448 c -11.8241,1.72608 -24.0451,3.56292 -35.8415,6.56279 -16.36544,4.18135 -32.15859,9.36882 -47.70252,15.49778 0.11077,-0.17575 0.5073,-1.04303 0.54422,-1.07995 0.39728,-0.71997 12.14716,-21.37753 12.14716,-21.37753 1.19072,-2.13221 1.80915,-4.47672 1.80915,-6.78431 0,-3.71061 -1.51378,-7.3566 -4.32904,-10.02418 -4.61518,-4.35673 -11.57487,-5.01208 -16.91002,-1.5507 -5.95359,3.82137 -9.59035,10.02418 -12.54407,14.99934 l -2.38143,3.85829 c 0,0 -19.54068,27.36803 -19.90066,27.8757 -3.28601,-11.0672 -8.84269,-29.92484 -8.98115,-30.32174 -0.11076,-0.47112 -7.28275,-28.088 -7.28275,-28.088 C 103.38047,3.2833914 96.236174,-1.2210186 89.064182,0.29276137 82.612158,1.6957714 78.135432,7.2893714 78.135432,13.667551 c 0,0.75689 0.03692,1.47686 0.184607,2.23375 l 3.636763,22.50363 c 2.307591,13.69785 4.57826,27.72801 6.09204,41.74893 -9.045756,-4.57826 -17.694606,-9.04576 -25.992702,-13.91016 L 40.604776,53.579641 c -0.867654,-0.49844 -1.624544,-0.85842 -2.55681,-1.15379 l -1.190717,-0.39728 c -6.424333,-2.12298 -13.347105,0.79381 -16.448507,6.7474 -1.043031,1.98453 -1.51378,4.14443 -1.51378,6.27664 0,4.28289 1.984528,8.43656 5.5936,11.10413 0,0 18.137664,13.5594 18.386883,13.73478 0.248851,0.21267 21.922112,17.233089 24.589687,19.328379 -14.639355,4.50442 -57.080564,17.59307 -57.080564,17.59307 -0.6830473,0.21267 -1.4768585,0.54496 -2.0860624,0.83074 L 7.679662,127.92955 C 2.8891036,130.31098 0,135.13846 0,140.26131 c 0,1.26456 0.18460726,2.59374 0.5442222,3.8583 1.8737637,6.4151 8.1504105,10.56876 14.8239628,9.83956 11.141048,-1.25533 22.208254,-3.38754 32.878553,-5.43668 9.230363,-1.80915 18.673025,-3.53523 28.300293,-4.83671 -0.323432,0.68305 -1.439936,3.02756 -1.439936,3.02756 -7.928882,17.02079 -15.470089,33.10008 -24.303546,48.57017 -1.190717,2.09529 -1.836842,4.46749 -1.836842,6.84893 l 0,0.28651 c 0,7.61505 6.165882,13.78093 13.771701,13.78093 l 0.295372,0 c 4.541338,0 8.796536,-2.24298 11.353346,-5.99051 0,0 26.786514,-39.00751 27.008044,-39.30288 0.0369,-0.0665 2.77834,-3.82137 4.35673,-6.0182 1.69839,6.09204 3.28601,12.33177 4.83671,18.49765 l 4.54134,17.55615 c 0,-0.0369 -0.0369,-0.24885 -0.0369,-0.24885 0,0.0738 0.0738,0.36035 0.11076,0.4342 l -0.0738,-0.18461 c 0.36035,1.41224 5.29823,21.59905 5.62129,23.03898 0.90458,6.7474 6.59971,11.97179 13.59632,11.97179 l 0.28651,0 c 4.00598,0 7.82735,-1.763 10.42108,-4.82748 0.4342,-0.50804 0.79382,-1.01534 1.1538,-1.58763 0.22153,0.14769 4.18135,1.72608 4.18135,1.72608 15.14703,6.56279 30.61712,11.32566 47.77636,16.48543 92.84822,27.71878 236.85112,21.30368 321.04126,-14.39014 25.20812,-10.6703 50.91468,-23.90664 68.00931,-48.02558 4.07059,-5.73205 14.85166,-20.95292 12.4333,-38.97982"/>
  <path d="m 229.86521,127.24687 c 12.33176,-0.18461 29.60177,-1.79992 36.84761,3.53523 5.049,3.71061 5.87974,12.0087 3.82137,19.42991 -1.04303,3.8583 -2.66758,8.26118 -5.08593,11.46412 -4.35674,5.76897 -12.61791,8.62115 -19.50376,9.70111 -2.15991,0.32269 -25.74348,0.14768 -25.7804,0.35961 3.24908,-14.81473 6.48894,-29.67561 9.70111,-44.49035 m 356.12586,20.98062 c -5.87974,-43.73346 -47.70251,-61.114239 -83.65478,-75.135159 -26.46345,-10.31031 -56.2406,-14.99934 -87.78998,-20.916 -11.89794,-1.07995 -23.76819,-2.15991 -35.66612,-3.23986 -8.43655,-0.39654 -16.87311,-0.79381 -25.34658,-1.19072 l -30.93095,0 c -5.19669,0.10191 -10.38415,0.17575 -15.61777,0.3227 l -38.57369,3.20293 c -18.57149,3.35986 -36.92145,5.01209 -54.22838,9.4519 -29.8233,7.60581 -55.56679,17.77767 -79.83341,30.07252 5.69513,-11.83333 11.39027,-23.6205 17.09463,-35.37075 4.10751,-7.28276 8.25195,-14.53782 12.36869,-21.82058 -4.6521,3.03679 -7.93811,10.78106 -11.17797,15.33163 -12.0087,16.79926 -23.98048,33.59852 -35.95226,50.37009 -0.11077,0.17501 -0.21267,0.39654 -0.32344,0.57229 -5.69513,-19.21762 -11.39026,-38.47216 -17.057707,-57.72669 -2.446046,-9.40574 -4.938244,-18.85764 -7.393521,-28.26338 4.227506,28.15261 10.928748,58.48358 11.510258,88.943779 -5.408988,-2.55681 -10.817981,-5.076699 -16.226973,-7.642739 -11.002593,-5.58437 -21.783657,-10.99336 -32.093973,-17.0854 -7.171992,-4.21828 -14.343984,-8.43655 -21.488285,-12.65483 -0.323432,-0.11076 -0.609204,-0.22153 -0.904575,-0.33229 6.165882,4.61518 12.368686,9.23036 18.534569,13.84554 8.759614,6.89508 17.528459,13.78093 26.251152,20.62986 6.165883,5.049009 12.368686,10.024179 18.534569,15.036269 -6.452024,2.04914 -12.950199,4.14443 -19.439145,6.2028 -20.694473,6.37818 -41.425869,12.75636 -62.157264,19.14377 -0.184607,0.11077 -0.397275,0.17575 -0.581882,0.28578 27.404948,-3.02756 54.339147,-11.8241 85.131638,-12.08255 l 0,0.33229 C 86.75692,153.45999 76.225076,178.58504 62.739516,202.1317 l 0,0.28651 0.295371,0 c 9.045756,-13.11635 18.063821,-26.31577 27.109577,-39.47826 6.276646,-8.61193 12.580986,-17.27001 18.857636,-25.92809 0.39727,-0.28577 0.79381,-0.57229 1.19071,-0.85843 8.43655,18.34997 12.58099,40.88128 18.27612,61.28961 1.94761,8.03965 3.93214,16.08853 5.87974,24.16509 l 0,0.53537 0.28651,0 c -1.65223,-10.85491 -3.3137,-21.77443 -5.01208,-32.70318 -1.3661,-11.25181 -2.73219,-22.56824 -4.10752,-33.85697 -0.79381,-7.5689 -1.58762,-15.10088 -2.34451,-22.679 21.42367,8.94422 40.20746,19.79912 59.20355,30.94017 -2.27067,10.02418 -4.54134,20.04835 -6.77509,30.0356 l 0,0.89535 55.38218,0 c 16.83618,0 34.10619,0.6188 46.26258,-4.14443 15.06395,-5.87975 23.53743,-16.0793 29.45409,-31.22632 3.24909,-8.25195 7.13507,-21.84827 4.43057,-33.5616 -2.04914,-8.76885 -7.53197,-14.78704 -15.02703,-17.99921 -11.07643,-4.71672 -27.83877,-3.82137 -43.595,-3.82137 l -56.5729,0 c -4.32904,19.47606 -8.65808,38.90598 -12.97789,58.34512 l -0.29537,0 c -12.14716,-7.90119 -22.8913,-17.74075 -34.18003,-26.50037 -5.62129,-4.40288 -12.69175,-8.84269 -17.08541,-14.46398 19.42992,-6.2028 38.90599,-12.36868 58.3359,-18.57149 4.93824,-1.5507 20.19603,-4.319809 22.96514,-7.356599 -9.04575,3.21217 -19.31915,3.60907 -29.45409,5.593599 -9.23036,1.30148 -18.46072,2.55681 -27.69109,3.82137 l 0,-0.24885 c 6.56279,-3.28601 13.1625,-6.488939 19.76221,-9.774949 13.62402,-5.87974 28.18953,-10.6703 43.01349,-15.28548 70.51998,-21.99596 191.09621,-30.10945 267.49592,-7.39352 33.38623,9.95033 77.12892,23.54665 83.39633,59.526609 2.24298,12.91328 -4.67979,22.93745 -9.44266,29.46332 -13.99323,19.25453 -35.80458,31.40169 -58.91741,41.53663 -32.81394,14.34398 -69.26464,22.31902 -109.61056,30.35866 -15.1101,1.65224 -30.2479,3.3137 -45.358,5.01209 -4.82748,0.17575 -9.62727,0.39654 -14.41783,0.57228 -10.67953,1.77223 -30.10944,2.34452 -41.25049,0.61881 l -9.73803,0 c -12.86713,-1.01534 -25.74348,-1.98453 -38.58292,-2.96295 -21.98672,-3.9229 -43.08733,-6.26742 -62.48033,-12.36869 -11.14104,-3.48907 -26.64805,-11.16873 -38.29677,-12.35945 4.0429,3.16601 9.73803,4.8644 14.75012,7.0243 14.49167,6.31357 29.63869,11.0026 46.22566,15.94084 92.30363,27.58033 233.31588,19.39299 311.73705,-13.84554 24.77429,-10.53185 47.52713,-22.64208 62.16649,-43.29964 4.57826,-6.49817 11.6118,-17.31616 9.98725,-29.17717 M 461.09466,103.73714 c -6.78432,30.2479 -13.5594,60.50503 -20.34372,90.716 l 38.29678,0 c 6.77508,-30.21097 13.5594,-60.4681 20.33449,-90.716 l -38.28755,0 z m -59.53584,55.38218 c -4.82748,12.76559 -42.75504,17.91613 -45.96721,0.6092 -2.85218,-15.60854 9.70111,-29.05718 20.62063,-31.83552 12.44253,-3.13833 29.4264,-1.29226 28.01415,11.7964 l 43.30887,0 c 0.49844,-23.80511 -10.31032,-31.08786 -30.32174,-34.79847 0,0 -37.75219,-2.1599 -50.08395,-0.14768 -27.15573,4.51364 -42.36737,15.43316 -49.83473,39.95824 -1.72608,5.73205 -4.24597,13.91016 -2.9168,22.06057 4.2552,26.75882 28.55874,27.69108 59.48969,27.69108 13.91939,0 27.83878,0.14769 38.61984,-3.20293 15.24856,-4.79979 24.80198,-17.8146 30.6448,-32.13089 l -41.57355,0 z" style="fill:#536e78"/>
  <path d="m 322.66728,51.419441 -15.35933,0.28614 -38.25062,3.21217 c -6.67355,1.19071 -13.27326,2.1599 -19.83605,3.13832 l 0,0 c -11.93486,1.79992 -23.17744,3.46139 -34.14311,6.2028 l 0,0 c -27.50649,7.06123 -53.36073,16.83619 -79.06729,29.81408 l 0,0 -9.73804,4.90132 4.76287,-9.80265 5.40899,-11.25181 -16.77157,23.546659 -4.71671,6.73816 -2.16914,-7.24583 -7.67966,-26.066549 c 1.04303,9.19344 1.79992,18.49765 1.94761,27.875699 l 0,0 0.14768,5.94435 -5.37207,-2.51989 -16.30082,-7.716579 -1.006109,-0.54459 c -3.027559,-1.51378 -6.027427,-3.06448 -8.981143,-4.54134 l 0,0 c 1.439936,1.11687 2.852182,2.23375 4.255197,3.35062 l 0,0 5.122851,4.144429 13.411718,10.85491 5.372076,4.29212 -6.525871,2.09529 -14.030152,4.50442 -5.473605,1.72608 -8.981144,2.77834 c 9.701112,-1.47686 19.752977,-2.55681 30.2479,-2.63066 l 0,0 5.990502,0.24922 -2.63988,5.37207 c -3.922905,8.04888 -7.679662,16.05161 -11.42719,24.09125 l 0,0 c -0.646125,1.32917 -1.292251,2.74142 -1.947606,4.14444 l 0,0 17.094636,-23.50974 0.35998,-0.50767 0.50767,-0.32306 1.07995,-0.83073 3.63677,-2.76911 1.9476,4.18135 c 3.46139,7.49506 6.20281,15.68239 8.62116,24.08202 l 0,0 -0.32306,-2.74142 -1.19072,-11.31642 -1.15379,-11.36258 -0.65536,-6.16589 5.74129,2.38144 c 8.39963,3.49831 16.40235,7.28276 24.25739,11.36258 l 0,0 c -0.85842,-0.7292 -1.72608,-1.41225 -2.63065,-2.0953 l 0,0 c -1.29225,-1.00611 -2.7045,-2.05837 -4.14444,-3.1014 l 0,0 c -4.90132,-3.60907 -9.95033,-7.31968 -13.59632,-11.97178 l 0,0 -3.23986,-4.18135 5.04901,-1.58763 29.16795,-9.3042 2.81526,-0.89535 -6.20281,0.85843 -22.57746,2.81526 20.40833,-10.0611 19.93758,-9.802649 c 14.17784,-6.12896 29.24179,-11.0672 43.38271,-15.47008 l 0,0 c 42.43198,-13.19942 101.13709,-21.09138 157.09155,-21.09138 l 0,0 c 15.58085,0 30.58019,0.6092 44.78572,1.79992 l 0,0 -4.87363,-0.89535 -35.50921,-3.24909 -12.11947,-0.58151 -13.05173,-0.6092 -30.86633,0 z m 141.38147,55.991379 -18.68226,83.40556 30.72788,0 18.6361,-83.40556 -30.68172,0 z m -96.30961,0.97842 c -26.9342,4.46749 -40.08747,14.9255 -46.90871,37.3922 l 0,0 c -1.68915,5.51053 -3.99674,13.08866 -2.80603,20.44525 l 0,0 c 3.63677,22.92823 23.53743,24.58969 55.8437,24.58969 l 0,0 1.51378,0 1.5507,0 c 13.95631,0 25.34658,-0.25845 34.43848,-3.1014 l 0,0 c 10.91952,-3.42446 19.65145,-11.7964 26.06655,-24.92198 l 0,0 -33.63544,0 c -4.87363,7.61505 -17.92537,11.68564 -28.78027,11.68564 l 0,0 c -12.83021,0 -21.45137,-5.26131 -23.07591,-14.09477 l 0,0 c -3.06448,-16.94694 9.8488,-32.62933 23.37128,-36.09072 l 0,0 c 3.7106,-0.94149 7.71658,-1.44916 11.50103,-1.44916 l 0,0 c 7.89196,0 14.24245,2.20605 17.80537,6.2028 l 0,0 c 1.73531,1.91069 2.81526,4.29212 3.21217,6.92277 l 0,0 35.97995,0 c -0.6092,-18.95916 -9.83957,-24.2297 -26.82343,-27.40494 l 0,0 c -0.17538,0 -17.55615,-1.00611 -32.3432,-1.00611 l 0,0 c -7.92888,0 -13.62401,0.28614 -16.91002,0.83073 m -108.49369,-0.68305 -6.73816,0 -53.6561,0 -12.29485,55.45602 -1.19071,4.21828 c -1.79992,7.92888 -3.56292,15.82084 -5.37207,23.72203 l 0,0 50.98852,0 5.08593,0 5.01209,0.0369 c 12.50714,0 25.55887,-0.32306 34.82616,-3.93213 l 0,0 c 13.19942,-5.15978 21.37752,-13.84555 27.36802,-29.13103 l 0,0 c 2.7045,-6.88585 6.84893,-20.12219 4.21828,-31.41092 l 0,0 c -1.66147,-7.17199 -6.09204,-12.50714 -12.87636,-15.42394 l 0,0 c -7.34737,-3.17524 -18.12843,-3.57215 -28.66027,-3.57215 l 0,0 -6.71048,0.0369 z m -42.72735,63.23722 9.73803,-44.49035 0.61844,-2.85218 2.95372,-0.0369 c 2.02144,-0.0277 4.14443,-0.0646 6.34125,-0.17538 l 0,0 c 3.21217,-0.0738 6.52587,-0.18461 9.8488,-0.18461 l 0,0 c 11.64872,0 18.49765,1.3384 22.8913,4.57826 l 0,0 c 5.87974,4.32904 7.90119,13.55941 5.1967,23.44512 l 0,0 c -1.44917,5.29823 -3.35986,9.55343 -5.73206,12.69175 l 0,0 c -5.66744,7.5689 -16.11621,10.23648 -21.88519,11.10413 l 0,0 c -1.30148,0.2123 -6.02743,0.2123 -15.72854,0.24922 l 0,0 c -4.82748,0.0369 -9.23036,0.0369 -10.12571,0.11076 l 0,0 -5.15977,0.43383 1.04303,-4.87363 z m 356.3474,-39.83825 c 2.55681,14.81474 -5.65822,26.17731 -10.09802,32.23243 l 0,0 c -15.35933,21.09138 -39.1552,33.46007 -60.43119,42.76427 l 0,0 c -33.42314,14.63936 -69.76308,22.4944 -110.69051,30.60789 l 0,0 -23.86972,2.66757 -21.7375,2.38144 -7.21815,0.28614 -6.77508,0.29537 c -6.37819,1.04303 -15.90392,1.65223 -24.83891,1.65223 l 0,0 c -4.83671,0 -11.83333,-0.17537 -16.98387,-1.04303 l 0,0 -10.0611,0 -18.53456,-1.43993 -20.37142,-1.58763 c -0.35998,-0.0738 -0.71996,-0.11076 -1.04303,-0.1846 l 0,0 c 27.97723,5.12285 59.35124,7.71658 92.55285,7.71658 l 0,0 c 67.89855,0 135.03098,-11.24258 179.6321,-30.13714 l 0,0 c 22.86361,-9.70111 46.01336,-21.48828 60.57887,-42.08122 l 0,0 c 5.04901,-7.13507 10.70722,-16.58696 9.3319,-26.53729 l 0,0 c -1.763,-13.1625 -7.13507,-23.90665 -14.70397,-32.81395 l 0,0 c 2.48297,4.58749 4.28289,9.66419 5.26131,15.22087 M 240.21244,239.73731 c -0.47074,-0.0646 -0.90457,-0.13846 -1.3384,-0.24922 l 0,0 c 0.43383,0.11076 0.86766,0.1846 1.3384,0.24922" style="fill:url(#linearGradient3002)"/>
</svg>
