<?xml version="1.0" encoding="UTF-8" standalone="no"?>
<svg xmlns="http://www.w3.org/2000/svg" version="1.1" width="600" height="264.97293">
  <path d="m 229.85786,127.24769 c 12.36877,-0.18461 29.60197,-1.79993 36.84785,3.53526 5.04904,3.71063 5.87978,12.00878 3.8214,19.43004 -1.04304,3.85832 -2.6676,8.26123 -5.07674,11.46418 -4.36599,5.76902 -12.61799,8.62122 -19.51311,9.70118 -2.15992,0.32343 -25.74365,0.14769 -25.78058,0.36036 3.24911,-14.81483 6.49822,-29.67582 9.70118,-44.49065 m 356.12821,20.98076 c -5.87055,-43.73375 -47.70283,-61.114637 -83.6461,-75.135657 -26.46362,-10.31038 -56.2502,-14.99943 -87.79979,-20.91614 -11.89802,-1.07996 -23.75911,-2.15992 -35.65713,-3.23987 -8.43661,-0.39728 -16.87321,-0.79382 -25.34674,-1.19073 l -30.94038,0 c -5.1875,0.10117 -10.38423,0.17501 -15.60865,0.3227 l -38.58317,3.20295 c -18.57161,3.35988 -36.9217,5.01212 -54.22874,9.45196 -29.81427,7.60587 -55.55792,17.77779 -79.82471,30.07272 5.69518,-11.83341 11.39035,-23.62066 17.08552,-35.37099 4.10754,-7.2828 8.26123,-14.53791 12.36877,-21.82072 -4.65214,3.03681 -7.92894,10.78114 -11.17805,15.33174 -12.00878,16.79937 -23.98064,33.59874 -35.94327,50.37042 -0.11076,0.17575 -0.18461,0.39728 -0.33229,0.57228 -5.69517,-19.21774 -11.39034,-38.4724 -17.048595,-57.72707 -2.455292,-9.4058 -4.938276,-18.85775 -7.393569,-28.26355 4.218304,28.15279 10.928824,58.48396 11.501104,88.944357 -5.409024,-2.55683 -10.818053,-5.076727 -16.227081,-7.642787 -10.993435,-5.58441 -21.737648,-10.99344 -32.084953,-17.08551 -7.18127,-4.21831 -14.353309,-8.43661 -21.488427,-12.65492 -0.332295,-0.11076 -0.618807,-0.22153 -0.904581,-0.33229 6.165923,4.61521 12.368768,9.23042 18.534691,13.84563 8.759672,6.89513 17.519344,13.78103 26.242094,20.63 6.165924,5.049037 12.368768,10.024237 18.534691,15.036357 -6.452066,2.04916 -12.941054,4.14446 -19.430042,6.20285 -20.69461,6.37822 -41.435372,12.75645 -62.166904,19.1439 -0.175747,0.11076 -0.397277,0.17575 -0.572286,0.28651 27.405128,-3.02758 54.339505,-11.82417 85.132199,-12.08263 l 0,0.3323 c -12.230312,24.94984 -22.752995,50.07505 -36.238644,73.62186 l 0,0.28578 0.323434,0 c 9.008893,-13.11644 18.063939,-26.31594 27.082063,-39.47853 6.267458,-8.61198 12.581066,-17.27012 18.848526,-25.92826 0.39728,-0.28651 0.79382,-0.57228 1.19072,-0.85843 8.43661,18.35009 12.5903,40.88155 18.28547,61.29002 1.94762,8.0397 3.93216,16.08863 5.87978,24.16525 l 0,0.53536 0.28578,0 c -1.66148,-10.85498 -3.32295,-21.77457 -5.01212,-32.70339 -1.37534,-11.25189 -2.74144,-22.56839 -4.10754,-33.85719 -0.79382,-7.56895 -1.58763,-15.10098 -2.34453,-22.67916 21.41458,8.94428 40.1985,19.79926 59.20394,30.94038 -2.27068,10.02424 -4.54137,20.04848 -6.78436,30.0358 l 0,0.89535 55.38254,0 c 16.84552,0 34.11565,0.61881 46.26288,-4.14446 15.11021,-5.87978 23.54682,-16.07939 29.45429,-31.22652 3.28603,-8.252 7.14435,-21.84841 4.43983,-33.56182 -2.05838,-8.76891 -7.53202,-14.78714 -15.03636,-17.99933 -11.06728,-4.71675 -27.83896,-3.82139 -43.59529,-3.82139 l -56.57327,0 c -4.31984,19.47619 -8.64891,38.90623 -12.97797,58.34551 l -0.28578,0 c -12.14724,-7.90125 -22.90068,-17.74088 -34.18026,-26.50055 -5.63056,-4.40291 -12.69183,-8.84275 -17.09474,-14.46408 19.43927,-6.20284 38.90623,-12.36876 58.34551,-18.57161 4.93827,-1.55071 20.18693,-4.319837 22.96529,-7.356647 -9.05504,3.21219 -19.32851,3.6091 -29.46351,5.593637 -9.23043,1.30149 -18.46085,2.55683 -27.69127,3.82139 l 0,-0.24885 c 6.56283,-3.28603 13.16258,-6.488987 19.76233,-9.775017 13.63334,-5.87978 28.19895,-10.67037 43.01378,-15.28558 70.52967,-21.9961 191.09746,-30.10964 267.50691,-7.39357 33.38644,9.9504 77.12019,23.54681 83.39688,59.527007 2.23376,12.91336 -4.65213,22.9376 -9.45195,29.46351 -13.9841,19.25467 -35.79559,31.4019 -58.90857,41.53691 -32.81415,14.34408 -69.2651,22.31916 -109.61128,30.35886 -15.1102,1.65225 -30.25733,3.31372 -45.3583,5.01212 -4.79982,0.17501 -9.62734,0.39654 -14.42716,0.57229 -10.67037,1.77224 -30.10964,2.34453 -41.25076,0.61881 l -9.72887,0 c -12.87644,-1.01535 -25.74365,-1.98454 -38.58317,-2.96297 -21.9961,-3.92293 -43.08762,-6.26746 -62.48997,-12.36877 -11.14112,-3.4891 -26.639,-11.16881 -38.2878,-12.35954 4.0337,3.16604 9.7381,4.86444 14.75022,7.02436 14.52869,6.31361 29.63889,11.00266 46.21673,15.94094 92.30424,27.58051 233.32666,19.39312 311.74834,-13.84564 24.76522,-10.53191 47.51822,-22.64223 62.15767,-43.29991 4.57829,-6.49822 11.61187,-17.31628 9.98732,-29.17737 M 461.08958,103.73854 c -6.77514,30.2481 -13.5595,60.50543 -20.33463,90.71661 l 38.2878,0 c 6.78436,-30.21118 13.55949,-60.46851 20.33462,-90.71661 l -38.28779,0 z m -59.52701,55.38255 c -4.83674,12.76567 -42.76455,17.91625 -45.97674,0.6092 -2.84297,-15.60864 9.70118,-29.05737 20.63,-31.83573 12.43338,-3.13834 29.41736,-1.29226 28.01433,11.79648 l 43.29992,0 c 0.50731,-23.80526 -10.31038,-31.08807 -30.32194,-34.7987 0,0 -37.75243,-2.15992 -50.08428,-0.14768 -27.14668,4.51367 -42.35841,15.43327 -49.82583,39.9585 -1.73532,5.7321 -4.2183,13.91025 -2.92604,22.06072 4.25522,26.759 28.55893,27.69127 59.49931,27.69127 13.91948,0 27.82973,0.14768 38.61086,-3.20296 15.25789,-4.79982 24.81138,-17.81472 30.65424,-32.1311 l -41.57383,0 z"/>
</svg>
