<?xml version="1.0" encoding="UTF-8" standalone="no"?>
<svg xmlns="http://www.w3.org/2000/svg" xmlns:xlink="http://www.w3.org/1999/xlink" version="1.1" width="600" height="309.77844">
  <linearGradient x1="0" y1="0" x2="1" y2="0" id="linearGradient182" gradientUnits="userSpaceOnUse" gradientTransform="matrix(31.836609,31.836609,31.836609,-31.836609,118.55273,469.44092)" spreadMethod="pad">
    <stop style="stop-color:#612c75" offset="0"/>
    <stop style="stop-color:#7b5190" offset="0.3"/>
    <stop style="stop-color:#bf99c3" offset="0.5"/>
    <stop style="stop-color:#7b5190" offset="0.7"/>
    <stop style="stop-color:#612c75" offset="1"/>
  </linearGradient>
  <linearGradient x1="0" y1="0" x2="1" y2="0" id="linearGradient2995" xlink:href="#linearGradient182" gradientUnits="userSpaceOnUse" gradientTransform="matrix(31.836609,31.836609,31.836609,-31.836609,118.55273,469.44092)" spreadMethod="pad"/>
  <linearGradient x1="0" y1="0" x2="1" y2="0" id="linearGradient2998" xlink:href="#linearGradient182" gradientUnits="userSpaceOnUse" gradientTransform="matrix(293.8793,-293.8793,293.8793,293.8793,147.01845,286.70233)" spreadMethod="pad"/>
  <path d="m 599.78543,156.09422 -1.30156,-11.39088 -11.36319,1.62463 c -0.0295,0 -6.73852,0.93232 -17.12324,0.93232 -24.59101,0 -69.04684,-5.12313 -99.19483,-38.11423 l 27.50797,-17.38171 5.48313,0.18462 10.81856,0.35964 0.64617,-10.81857 1.37539,-23.36331 0.57232,-9.23086 -9.00932,-2.23387 -23.62178,-5.84313 -10.78164,-2.66772 -2.70464,10.78164 -1.19078,4.79082 -25.38487,17.41863 C 425.94986,36.45267 429.37451,14.9263 429.41143,14.71399 L 431.96838,0 417.25439,1.62463 c -2.30772,0.2496 -56.42825,6.77545 -80.0131,55.1267 l -5.52006,11.43704 12.04628,4.03388 c 0.32345,0.11077 28.27412,9.59087 49.87434,33.82188 l -142.79218,97.93943 c -2.13233,-19.11711 1.04308,-34.97573 9.48009,-47.38201 15.58169,-22.86484 44.71429,-27.15719 45.03737,-27.18488 l 11.21549,-1.55079 -1.7354,-11.17857 c -4.61543,-30.0003 -26.8618,-65.04988 -74.4192,-65.04988 -31.44031,0 -63.10216,21.0556 -93.74862,41.42811 -23.69562,15.72015 -48.175859,32.02185 -65.372952,32.02185 -26.871035,0 -41.178869,-22.6433 -41.178869,-38.98192 0,-9.70164 2.769258,-18.85865 9.083167,-26.28949 4.61543,-5.4739 11.824732,-9.40625 18.535568,-11.75089 6.092368,-2.1231 12.729356,-3.06464 19.144805,-3.13849 4.800047,0 9.01855,-3.10157 10.532411,-7.60623 C 98.900468,32.77879 97.38661,27.80335 93.528107,24.91409 81.444911,15.83093 65.217058,12.94167 50.76153,17.34479 46.866107,18.49864 42.832221,20.1602 39.333725,22.17253 35.512149,24.34178 31.792112,26.97257 28.478233,29.78799 0.85949825,53.26207 0.06564424,90.83167 0.06564424,95.01325 l 0,1.33847 c -0.28578744,9.40625 -1.08001074,34.43111 33.20340476,69.84069 34.043414,35.18804 68.806841,55.56055 70.283771,56.39133 l 17.88018,10.38472 -1.19078,-20.65867 c -0.89539,-15.07399 4.55081,-30.00029 14.89861,-40.99425 9.04624,-9.59086 20.65866,-15.07399 31.83724,-15.07399 22.6433,0 48.96971,20.8802 48.96971,47.80662 0,10.75396 -2.70464,20.63098 -8.077,29.42799 l -32.56648,22.32022 c -2.9908,-1.08001 -6.20314,-1.66156 -9.40624,-1.66156 -15.36016,0 -27.84028,12.48013 -27.84028,27.84028 0,15.32323 12.48012,27.80335 27.84028,27.80335 14.56629,0 26.53872,-11.25242 27.69258,-25.53256 l 21.34175,-13.44936 c 4.50466,2.4554 10.13548,5.26159 18.74787,9.08316 9.0924,4.08004 41.36349,17.24325 74.57613,17.24325 11.20626,0 21.45252,-1.55078 30.38799,-4.65235 9.99702,-3.43388 19.32942,-9.01855 25.78179,-17.52941 6.74776,-8.9447 10.60626,-20.9079 8.15085,-32.05878 -0.79385,-3.78465 -3.53542,-6.88622 -7.17238,-8.14162 -1.19078,-0.43348 -2.4554,-0.61883 -3.68311,-0.61883 -2.52002,0 -5.04005,0.83077 -7.06161,2.49233 -8.90778,7.28315 -19.44019,12.76628 -30.83107,14.77861 -3.3508,0.61884 -6.73853,0.90462 -10.17241,0.90462 -18.99711,0 -35.58497,-8.98163 -45.02814,-15.434 l 146.39222,-92.48399 c 15.17554,47.30816 10.38472,78.16693 -18.02787,120.25042 l -7.46777,11.0678 12.29551,5.33544 c 1.08001,0.47041 27.08334,11.5755 60.68368,11.5755 31.84647,0 59.50212,-9.70163 82.21927,-28.84644 60.57291,-51.09281 55.31132,-105.36104 55.06209,-107.66876" fill="#ffffff"/>
  <path d="m 347.22908,61.62552 c 0,0 38.0773,12.47089 62.56677,46.83739 l 0,0 -166.8478,114.41651 c -22.6433,-93.57323 60.90522,-104.50257 60.90522,-104.50257 l 0,0 c -2.23387,-14.45553 -14.45553,-55.6344 -63.42525,-55.6344 l 0,0 c -53.40052,0 -115.70883,73.44996 -159.121572,73.44996 l 0,0 c -34.477264,0 -52.283594,-28.92028 -52.283594,-50.08665 l 0,0 c 0,-52.28359 57.831341,-52.28359 57.831341,-52.28359 l 0,0 C 77.983338,27.14826 57.933909,19.36664 35.687535,38.26221 l 0,0 C 13.441161,57.18548 11.207293,88.33963 11.207293,95.01354 l 0,0 c 0,6.67392 -3.3508025,28.95721 30.074143,63.42525 l 0,0 c 33.3511,34.50495 67.856054,54.51746 67.856054,54.51746 l 0,0 c -2.23386,-37.81884 27.80336,-67.85606 57.84058,-67.85606 l 0,0 c 30.07414,0 60.11136,26.71411 60.11136,58.94828 l 0,0 c 0,16.6617 -5.63083,29.14183 -11.07703,37.32037 l 0,0 -39.98809,27.44335 c -2.80618,-2.19695 -6.30468,-3.53542 -10.12625,-3.53542 l 0,0 c -9.23087,0 -16.73556,7.46776 -16.73556,16.69862 l 0,0 c 0,9.19394 7.50469,16.66171 16.73556,16.66171 l 0,0 c 9.19393,0 16.65247,-7.46777 16.65247,-16.66171 l 0,0 c 0,-1.30155 -0.13847,-2.49233 -0.39693,-3.68311 l 0,0 32.41878,-20.47405 c 4.97544,2.84311 10.96627,6.26776 23.62178,11.89858 l 0,0 c 20.04942,8.90778 64.54217,23.36331 96.81326,12.25858 l 0,0 c 32.27109,-11.14165 26.71411,-36.74805 26.71411,-36.74805 l 0,0 c -54.55438,44.5389 -109.07185,-6.66468 -109.07185,-6.66468 l 0,0 -2.38156,-3.28619 170.41092,-107.63183 c 1.2277,2.74156 2.34464,5.5939 3.3508,8.54777 l 0,0 c 18.89557,55.6344 12.23089,90.14859 -17.80633,134.64133 l 0,0 c 0,0 74.56689,32.27109 131.31822,-15.58169 l 0,0 c 56.76056,-47.84355 51.16666,-97.9302 51.16666,-97.9302 l 0,0 c 0,0 -84.55468,12.25858 -131.2813,-46.73584 l 0,0 c -1.11693,-1.36617 -2.16925,-2.73234 -3.17541,-4.10774 l 0,0 40.99425,-25.92025 8.90778,0.28615 1.3754,-23.36331 -23.62177,-5.84313 -2.23387,8.90778 -38.79731,26.57565 C 412.74973,41.50224 418.48209,12.69273 418.48209,12.69273 l 0,0 c 0,0 -50.08665,5.55698 -71.25301,48.93279 m 73.44996,204.76818 c 62.70523,-10.38472 69.01914,-13.73552 96.09326,-31.55108 l 0,0 c 46.22815,-30.39723 61.91138,-68.61299 61.91138,-68.61299 l 0,0 c -2.19695,21.16637 -6.26776,49.32972 -53.0036,84.95161 l 0,0 c -21.73868,16.55094 -46.04354,20.98175 -65.80681,20.98175 l 0,0 c -22.56945,0 -39.19423,-5.76929 -39.19423,-5.76929" style="fill:url(#linearGradient2998)"/>
</svg>
