<?xml version="1.0" encoding="UTF-8" standalone="no"?>
<svg xmlns="http://www.w3.org/2000/svg" version="1.1" width="600" height="309.77844">
  <g transform="matrix(7.3846885,0,0,7.3846885,-2469.2583,-3776.4393)">
    <path d="m 391.3418,547.46156 c 0,0 7.905,2.745 14.21875,-2.06 6.32875,-4.82375 6.88,-8.6375 7.1775,-11.50375 0,0 -2.12375,5.175 -8.38375,9.29125 -3.66625,2.4125 -4.52125,2.86625 -13.0125,4.2725 m 15.825,-1.50875 c -7.685,6.48 -17.7825,2.11 -17.7825,2.11 4.0725,-6.025 4.975,-10.69875 2.4125,-18.2325 -0.1375,-0.4 -0.28875,-0.78625 -0.455,-1.1575 l -23.07625,14.575 0.3225,0.445 c 0,0 7.3875,6.93375 14.77125,0.9025 0,0 0.75125,3.4675 -3.61875,4.97625 -4.37,1.50375 -10.395,-0.45375 -13.11,-1.66 -1.71375,-0.7625 -2.525,-1.22625 -3.19375,-1.61125 l -4.395,2.7725 c 0.035,0.16125 0.0537,0.3275 0.0537,0.49875 0,1.245 -1.01,2.25625 -2.26,2.25625 -1.245,0 -2.25625,-1.01125 -2.25625,-2.25625 0,-1.25 1.01125,-2.26125 2.25625,-2.26125 0.5225,0 0.99625,0.18125 1.37625,0.47875 l 5.415,-3.71625 c 0.7375,-1.1075 1.5,-2.7975 1.5,-5.05375 0,-4.365 -4.0675,-7.9825 -8.14,-7.9825 -4.0675,0 -8.135,4.0675 -7.8325,9.18875 0,0 -4.6725,-2.71 -9.19375,-7.3825 -4.52125,-4.6675 -4.0675,-7.685 -4.0675,-8.58875 0,-0.90375 0.3025,-5.1225 3.315,-7.685 3.0125,-2.55875 5.7275,-1.505 6.93375,-0.60125 0,0 -7.83625,0 -7.83625,7.08 0,2.86625 2.41125,6.7825 7.08,6.7825 5.87875,0 14.31625,-9.94625 21.5475,-9.94625 6.63125,0 8.28625,5.57625 8.58875,7.53375 0,0 -11.31375,1.48 -8.2475,14.15125 L 389.868,526.07531 c -3.31625,-4.65375 -8.4675,-6.3425 -8.4675,-6.3425 2.86125,-5.87375 9.64375,-6.62625 9.64375,-6.62625 0,0 -0.77625,3.90125 3.0375,10.07875 l 5.24875,-3.59875 0.3025,-1.20625 3.19875,0.79125 -0.18625,3.16375 -1.20625,-0.0388 -5.55625,3.51 c 0.14125,0.18625 0.28375,0.37125 0.435,0.55625 6.3275,7.98875 17.7775,6.32875 17.7775,6.32875 0,0 0.7525,6.7825 -6.92875,13.26125"/>
  </g>
</svg>
