<?xml version="1.0" encoding="UTF-8" standalone="no"?>
<svg xmlns="http://www.w3.org/2000/svg" version="1.1" width="600" height="600">
  <path d="M 485.54896,224.13 C 475.49259,98.85 370.61905,0 243.17853,0 109.07867,0 0,109.335 0,243.75 0,347.34 64.887514,436.065 156.02335,471.27 96.283733,547.74 84.356762,600 84.356762,600 L 600,600 600,199.395 c 0,0 -43.14361,-1.695 -114.45104,24.735" style="fill:#ffffff"/>
  <path d="M 187.3597,434.13 C 105.2327,409.98 45.253654,333.87 45.253654,243.75 c 0,-109.62 88.621736,-198.45 197.924876,-198.45 109.01881,0 197.41607,88.35 197.93984,197.52 -40.39008,19.035 -87.05043,46.35 -138.02065,85.605 -48.27655,37.14 -86.16751,72.945 -115.73802,105.705 M 322.38739,366.51 C 188.52696,471.15 147.658,554.715 147.658,554.715 l 407.20806,0 0,-307.035 c 0,0 -98.60328,14.115 -232.47867,118.83"/>
</svg>
