<?xml version="1.0" encoding="UTF-8" standalone="no"?>
<svg xmlns="http://www.w3.org/2000/svg" xmlns:xlink="http://www.w3.org/1999/xlink" version="1.1" width="600" height="600">
  <linearGradient x1="0" y1="0" x2="1" y2="0" id="linearGradient418" gradientUnits="userSpaceOnUse" gradientTransform="matrix(37.514725,-12.18927,-12.18927,-37.514725,645.55469,373.95068)" spreadMethod="pad">
    <stop style="stop-color:#536e78" offset="0"/>
    <stop style="stop-color:#99aebc" offset="0.3"/>
    <stop style="stop-color:#d9eaf3" offset="0.5"/>
    <stop style="stop-color:#99aebc" offset="0.7"/>
    <stop style="stop-color:#536e78" offset="1"/>
  </linearGradient>
  <linearGradient x1="0" y1="0" x2="1" y2="0" id="linearGradient2995" xlink:href="#linearGradient418" gradientUnits="userSpaceOnUse" gradientTransform="matrix(37.514725,-12.18927,-12.18927,-37.514725,645.55469,373.95068)" spreadMethod="pad"/>
  <linearGradient x1="0" y1="0" x2="1" y2="0" id="linearGradient2998" xlink:href="#linearGradient418" gradientUnits="userSpaceOnUse" gradientTransform="matrix(561.40158,182.83906,-182.41039,562.72087,35.312366,242.7348)" spreadMethod="pad"/>
  <path d="M 485.54896,224.13 C 475.49259,98.85 370.61905,0 243.17853,0 109.07867,0 0,109.335 0,243.75 0,347.34 64.887514,436.065 156.02335,471.27 96.283733,547.74 84.356762,600 84.356762,600 L 600,600 600,199.395 c 0,0 -43.14361,-1.695 -114.45104,24.735"/>
  <path d="m 45.253654,243.69 c 0,90.18 59.979046,166.29 142.106046,190.44 l 0,0 c 29.57051,-32.76 67.46147,-68.565 115.73802,-105.705 l 0,0 c 50.97022,-39.315 97.63057,-66.57 138.02065,-85.605 l 0,0 C 440.5946,133.65 352.19734,45.3 243.17853,45.3 l 0,0 C 133.87539,45.3 45.253654,134.13 45.253654,243.69 M 322.38739,366.51 C 188.52696,471.15 147.658,554.715 147.658,554.715 l 0,0 407.16317,0 0,-307.035 c 0,0 -98.55839,14.115 -232.43378,118.83" style="fill:url(#linearGradient2998)"/>
</svg>
