<?xml version="1.0" encoding="UTF-8" standalone="no"?>
<svg xmlns="http://www.w3.org/2000/svg" version="1.1" width="600" height="522.55054">
  <path d="m 124.04603,522.55054 -24.261271,0 0,-283.22986 22.133751,-58.32411 21.05132,-22.27558 16.16174,-35.63048 -74.508242,0 L 68.670607,102.30046 33.502955,77.44945 0,0 l 600,0 -33.50295,77.53903 -35.1378,24.76143 -16.47527,20.79005 -73.97823,0 16.15428,35.6902 21.11104,22.27558 22.04417,58.29425 0,87.45257 -35.92908,18.72224 -11.63048,0 -51.55335,32.8311 -47.85816,24.93313 -23.05941,0 -52.0535,39.10171 -47.58942,24.76143 -23.20871,0 -52.14308,39.19129 -31.14402,16.20653 z"/>
  <path d="m 439.12162,261.24541 -32.48025,0 -10.73468,14.34774 0,94.62644 53.97947,-34.3465 -0.0299,-60.27994 -10.73468,-14.34774 z" style="fill:#ffffff"/>
  <path d="m 193.24666,261.24541 -32.45786,0 -10.72721,14.34774 0,222.55428 54.03172,-40.67683 -0.0896,-181.87745 -10.75707,-14.34774 z" style="fill:#ffffff"/>
  <path d="m 316.18787,261.24541 -32.48771,0 -10.72722,14.34774 0,158.60156 54.00187,-40.55739 -0.0597,-118.04417 -10.72722,-14.34774 z" style="fill:#ffffff"/>
  <path d="m 129.67465,186.80435 340.68056,0 -21.43204,-22.60404 -297.81648,0 -21.43204,22.60404 z" style="fill:#ffffff"/>
  <path d="m 521.73686,97.28398 -25.5154,-26.07528 -392.41306,0 -25.485538,26.07528 12.832348,16.18413 72.37325,0 c 2.42613,-5.36734 4.34463,-9.62239 4.34463,-9.62239 l 264.25382,0 c 0,0 1.83639,4.0535 4.37449,9.62239 l 72.37325,0 12.86221,-16.18413 z" style="fill:#ffffff"/>
</svg>
