<?xml version="1.0" encoding="UTF-8" standalone="no"?>
<svg xmlns="http://www.w3.org/2000/svg" version="1.1" width="600" height="509.12177">
  <radialGradient cx="0" cy="0" r="1" fx="0" fy="0" id="radialGradient418" gradientUnits="userSpaceOnUse" gradientTransform="matrix(18.950867,0,0,-18.950867,748.00098,483.7207)" spreadMethod="pad">
    <stop style="stop-color:#ebd491" offset="0"/>
    <stop style="stop-color:#d2bb7b" offset="0.7"/>
    <stop style="stop-color:#8b723c" offset="1"/>
  </radialGradient>
  <path d="m 147.55622,509.12176 -47.47561,0 0,-274.20025 22.61774,-63.38566 18.85023,-19.89394 -44.548156,0 L 78.404752,127.33135 44.789987,103.619 0,0 l 600,0 -44.8409,103.72083 -33.80568,23.86508 -19.04116,24.056 -43.91175,0 18.95206,19.94485 22.56682,59.60543 0,94.62028 -47.83199,24.85787 -9.44421,0 -41.81162,26.65252 -48.12474,25.06152 -18.79932,0 -42.40984,31.87102 -48.62113,25.30336 -18.95206,0 -42.44803,31.92193 -33.92023,17.64107 z" style="fill:#ffffff"/>
  <path d="m 486.94951,122.3165 -64.78574,0 c -2.29105,-4.97667 -3.93297,-8.60416 -3.93297,-8.60416 l -236.4616,0 c 0,0 -1.74374,3.78023 -3.93297,8.60416 l -64.78574,0 -11.4807,-14.47179 22.82139,-23.36869 351.21764,0 22.82139,23.36869 -11.4807,14.47179 z m -53.69962,45.3882 19.19389,20.23759 -304.88756,0 19.14297,-20.23759 266.5507,0 z m -47.43742,184.40391 0,-84.71786 9.59695,-12.82987 29.08358,0 9.59694,12.82987 0.0509,53.99236 -48.32839,30.7255 z m -110.02121,57.23801 0,-141.95587 9.59695,-12.82987 29.08358,0 9.59694,12.82987 0.0509,105.65549 -48.32838,36.30038 z m -109.98303,57.22529 0,-199.18116 9.59695,-12.82987 29.03266,0 9.64786,12.82987 0.0509,162.82986 -48.32838,36.3513 z M 31.514637,20.73398 l 29.987272,69.31693 31.463725,22.27407 14.268136,18.58295 66.68222,0 -14.47178,31.92193 -18.83751,19.94485 -19.79211,52.1468 0,253.51718 21.67586,0 27.88715,-14.50997 46.63555,-35.05304 20.83581,0 42.56258,-22.17225 46.58464,-35.00212 20.63216,0 42.80441,-22.32499 46.19008,-29.38905 10.39881,0 32.16377,-16.75011 0,-78.26474 -19.7412,-52.1468 -18.88842,-19.94484 -14.47178,-31.97285 66.22401,0 14.72635,-18.58295 31.46372,-22.18498 29.98727,-69.40602 -536.970723,0 z" style="fill:#8b723c"/>
  <g transform="matrix(12.728044,0,0,-12.728044,-9220.577,6411.4083)">
    <path d="m 727.895,501.441 1.886,-4.367 2.071,-1.461 0.093,0.094 1.793,1.832 0.192,0.195 0.273,0 27.594,0 0.273,0 0.192,-0.195 1.793,-1.832 0.093,-0.098 2.067,1.453 1.89,4.379 -40.21,0 z m 11.23,-7.3 -0.133,-0.297 -0.172,-0.379 0,0 -0.136,-0.297 -0.895,-1.973 20.418,0 -0.895,1.973 -0.179,0.398 -0.129,0.278 -0.133,0.297 -17.746,0 z m 20.852,-5.832 -23.954,0 -0.253,0 -1.2,-3.168 0,-19.141 0.895,0 1.34,0.699 0,0.363 0,15.653 0,0.215 0.129,0.172 0.754,1.007 0.199,0.262 0.324,0 2.281,0 0.328,0 0.196,-0.262 0.754,-1.007 0.128,-0.172 0,-0.215 0.004,-12.793 0,-0.027 1.055,0 2.492,1.296 0,0.371 0,11.153 0,0.215 0.129,0.172 0.754,1.007 0.195,0.262 0.325,0 2.285,0 0.324,0 0.195,-0.262 0.754,-1.007 0.129,-0.172 0,-0.215 0.004,-8.301 0,-0.027 1.039,0 2.512,1.304 0,0.368 0,6.656 0,0.215 0.129,0.172 0.754,1.007 0.195,0.262 0.324,0 2.285,0 0.324,0 0.196,-0.262 0.758,-1.007 0.129,-0.172 0,-0.215 0,-4.242 0,-0.028 0.203,0 2.035,1.063 0,5.637 -1.196,3.164 -0.253,0 z" style="fill:url(#radialGradient418)"/>
  </g>
  <path d="m 424.493,254.56088 -29.08358,0 -9.59695,12.82987 0,84.71786 48.32839,-30.7255 -0.0509,-53.99236 -9.59694,-12.82987 z" style="fill:#ffffff"/>
  <path d="m 204.43784,254.56088 -29.03266,0 -9.59695,12.82987 0,199.18116 48.32838,-36.3513 -0.0509,-162.82986 -9.64786,-12.82987 z" style="fill:#ffffff"/>
  <path d="m 314.47179,254.56088 -29.08358,0 -9.59695,12.82987 0,141.95587 48.32838,-36.30038 -0.0509,-105.65549 -9.59694,-12.82987 z" style="fill:#ffffff"/>
  <path d="m 147.55622,187.94229 304.88756,0 -19.19389,-20.23759 -266.5507,0 -19.14297,20.23759 z" style="fill:#ffffff"/>
  <path d="m 124.39118,84.47602 -22.82139,23.36869 11.4807,14.47179 64.78574,0 c 2.18923,-4.82393 3.93297,-8.60416 3.93297,-8.60416 l 236.4616,0 c 0,0 1.64192,3.62749 3.93297,8.60416 l 64.78574,0 11.4807,-14.47179 -22.82139,-23.36869 -351.21764,0 z" style="fill:#ffffff"/>
</svg>
