<?xml version="1.0" encoding="UTF-8" standalone="no"?>
<svg xmlns="http://www.w3.org/2000/svg" version="1.1" width="600" height="509.12177">
  <path d="m 486.94951,122.3165 -64.78574,0 c -2.29105,-4.97667 -3.93297,-8.60416 -3.93297,-8.60416 l -236.4616,0 c 0,0 -1.74374,3.78023 -3.93297,8.60416 l -64.73483,0 -11.53161,-14.47179 22.82139,-23.36869 351.21764,0 22.82139,23.36869 -11.4807,14.47179 z m -53.69962,45.3882 19.19389,20.23759 -304.88756,0 19.14297,-20.23759 266.5507,0 z m -47.43742,184.40391 0,-84.71786 9.59695,-12.82987 29.08358,0 9.59694,12.82987 0.0509,53.99236 -48.32839,30.7255 z m -110.02121,57.23801 0,-141.95587 9.59695,-12.82987 29.08358,0 9.59694,12.82987 0.0509,105.65549 -48.32838,36.30038 z m -109.98303,57.22529 0,-199.18116 9.59695,-12.82987 29.03266,0 9.64786,12.82987 0.0509,162.82986 -48.32838,36.3513 z M 31.514637,20.73398 l 29.987272,69.31693 31.463725,22.27407 14.268136,18.58295 66.68222,0 -14.47178,31.92193 -18.83751,19.94485 -19.79211,52.1468 0,253.51718 21.67586,0 27.88715,-14.50997 46.63555,-35.05304 20.83581,0 42.56258,-22.17225 46.58464,-35.00212 20.63216,0 42.80441,-22.32499 46.19008,-29.38905 10.39881,0 32.16377,-16.75011 0,-78.26474 -19.7412,-52.1468 -18.88842,-19.94484 -14.47178,-31.97285 66.22401,0 14.72635,-18.58295 31.46372,-22.18498 29.98727,-69.40602 -536.970723,0 z"/>
</svg>
