<?xml version="1.0" encoding="UTF-8" standalone="no"?>
<svg xmlns="http://www.w3.org/2000/svg" version="1.1" width="600" height="627.58221">
  <path d="M 500.71649,73.36436 C 413.38842,-6.19737 326.90759,2.99671 326.90759,2.99671 c 0,0 18.63919,36.52528 65.70786,71.59144 7.27995,5.50703 60.67151,55.27431 60.67151,121.89216 0,71.40317 -55.46258,90.82684 -65.9432,90.82684 0,0 -25.55829,-15.68956 -25.55829,-57.00016 0,-29.5905 29.16689,-43.99351 29.16689,-43.99351 0,0 9.86873,-51.24209 -11.51614,-89.11668 C 359.636,62.02082 331.37911,30.32791 322.92244,22.37331 314.46577,14.40301 300,0 300,0 c 0,0 -14.46577,14.40301 -22.85968,22.37331 -8.51943,7.9546 -36.71356,39.64751 -56.49809,74.82349 -21.40056,37.87459 -11.59459,89.11668 -11.59459,89.11668 0,0 29.24534,14.40301 29.24534,43.99351 0,41.3106 -25.62105,57.00016 -25.62105,57.00016 -10.41786,0 -65.88044,-19.42367 -65.88044,-90.82684 0,-66.61785 53.37587,-116.38513 60.67151,-121.89216 47.00591,-35.06616 65.69217,-71.59144 65.69217,-71.59144 0,0 -86.46514,-9.19408 -173.808901,70.36765 C 35.050468,131.88641 0,207.40024 0,293.9909 c 0,167.92532 128.8897,247.11051 152.23576,260.41525 23.34606,13.41457 94.74923,51.54019 94.74923,51.54019 0,0 -58.16118,-88.80288 -62.38167,-110.14068 0,0 59.44772,-4.03222 90.2777,72.45437 L 300,627.58224 325.19743,568.26003 c 30.81428,-76.48659 90.21494,-72.45437 90.21494,-72.45437 -4.17342,21.33779 -62.39736,110.14068 -62.39736,110.14068 0,0 71.46593,-38.12562 94.81199,-51.54019 C 471.1103,541.10141 600,461.91622 600,293.9909 600,207.40024 565.01229,131.88641 500.71649,73.36436" style="fill:#808080"/>
  <path d="m 392.55269,37.2627 c 0,0 87.5791,63.73097 87.5791,159.21761 0,95.48664 -72.68971,117.43633 -91.56425,117.43633 -18.87453,0 -53.75242,-27.89603 -53.75242,-83.60965 0,-39.77302 30.89274,-59.68307 30.89274,-59.68307 0,0 3.92239,-34.81512 -9.99425,-60.67151 -13.91663,-25.93484 -55.65085,-73.67816 -55.65085,-73.67816 0,0 -41.85974,47.74332 -55.77637,73.67816 -13.96371,25.85639 -9.97856,60.67151 -9.97856,60.67151 0,0 30.87705,19.91005 30.87705,59.68307 0,55.71362 -34.8622,83.60965 -53.73673,83.60965 -18.87454,0 -91.56425,-21.94969 -91.56425,-117.43633 0,-95.48664 87.5791,-159.21761 87.5791,-159.21761 0,0 -180.61817,64.23304 -180.61817,256.7282 0,166.1524 140.34308,237.30453 140.34308,237.30453 0,0 -9.49218,-22.3733 -9.49218,-36.27425 0,-13.97939 11.95544,-26.90759 30.89273,-26.90759 18.87454,0 82.54276,14.95215 111.41154,90.51305 l 0,0 c 28.86878,-75.5609 92.55269,-90.51305 111.42723,-90.51305 18.93729,0 30.87704,12.9282 30.87704,26.90759 0,13.90095 -9.49218,36.27425 -9.49218,36.27425 0,0 140.34308,-71.15213 140.34308,-237.30453 0,-192.49516 -180.60248,-256.7282 -180.60248,-256.7282"/>
</svg>
