<?xml version="1.0" encoding="UTF-8" standalone="no"?>
<svg xmlns="http://www.w3.org/2000/svg" version="1.1" width="600" height="627.58221">
  <path d="m 392.55269,37.2627 c 0,0 87.5791,63.73097 87.5791,159.21761 0,95.48664 -72.68971,117.43633 -91.56425,117.43633 -18.87453,0 -53.75242,-27.89603 -53.75242,-83.60965 0,-39.77302 30.89274,-59.68307 30.89274,-59.68307 0,0 3.92239,-34.81512 -9.99425,-60.67151 -13.91663,-25.93484 -55.65085,-73.67816 -55.65085,-73.67816 0,0 -41.85974,47.74332 -55.77637,73.67816 -13.96371,25.85639 -9.97856,60.67151 -9.97856,60.67151 0,0 30.87705,19.91005 30.87705,59.68307 0,55.71362 -34.8622,83.60965 -53.73673,83.60965 -18.87454,0 -91.56425,-21.94969 -91.56425,-117.43633 0,-95.48664 87.5791,-159.21761 87.5791,-159.21761 0,0 -180.61817,64.23304 -180.61817,256.7282 0,166.1524 140.34308,237.30453 140.34308,237.30453 0,0 -9.49218,-22.3733 -9.49218,-36.27425 0,-13.97939 11.95544,-26.90759 30.89273,-26.90759 18.87454,0 82.54276,14.95215 111.41154,90.51305 l 0,0 c 28.86878,-75.5609 92.55269,-90.51305 111.42723,-90.51305 18.93729,0 30.87704,12.9282 30.87704,26.90759 0,13.90095 -9.49218,36.27425 -9.49218,36.27425 0,0 140.34308,-71.15213 140.34308,-237.30453 0,-192.49516 -180.60248,-256.7282 -180.60248,-256.7282"/>
</svg>
