<?xml version="1.0" encoding="UTF-8" standalone="no"?>
<svg xmlns="http://www.w3.org/2000/svg" xmlns:xlink="http://www.w3.org/1999/xlink" version="1.1" width="600" height="483.92902">
  <radialGradient cx="0" cy="0" r="1" fx="0" fy="0" id="radialGradient378" gradientUnits="userSpaceOnUse" gradientTransform="matrix(20.597137,0,0,-20.597137,166.6709,371.88525)" spreadMethod="pad">
    <stop style="stop-color:#8b723c" offset="0"/>
    <stop style="stop-color:#d2bb7b" offset="0.3"/>
    <stop style="stop-color:#ebd491" offset="0.5"/>
    <stop style="stop-color:#d2bb7b" offset="0.7"/>
    <stop style="stop-color:#8b723c" offset="1"/>
  </radialGradient>
  <radialGradient cx="0" cy="0" r="1" fx="0" fy="0" id="radialGradient2995" xlink:href="#radialGradient378" gradientUnits="userSpaceOnUse" gradientTransform="matrix(20.597137,0,0,-20.597137,166.6709,371.88525)" spreadMethod="pad"/>
  <radialGradient cx="0" cy="0" r="1" fx="0" fy="0" id="radialGradient2998" xlink:href="#radialGradient378" gradientUnits="userSpaceOnUse" gradientTransform="matrix(249.18906,0,0,249.18906,299.98669,244.49026)" spreadMethod="pad"/>
  <path d="M 163.74965,48.11469 C 38.000565,109.45275 6.1942977,256.14388 4.8634916,262.38658 L 0,286.2443 l 24.390047,0 c 11.106182,0 15.207485,0 36.899625,29.64068 5.250635,7.08957 9.835867,13.65891 14.699359,20.65169 15.643021,22.39384 31.854659,45.59826 69.141429,86.85325 46.08219,50.94568 127.40654,59.0273 151.27636,60.35811 l 0.61653,0.18099 0.5691,0 c 0,0 0.84688,0 2.40755,-0.0484 1.56067,0.0484 2.35916,0.0484 2.35916,0.0484 l 0.66588,-0.18099 0.56814,0 c 23.82143,-1.33081 105.19417,-9.41243 151.22797,-60.35811 37.33516,-41.25499 53.4984,-64.45941 69.14143,-86.85325 4.86349,-6.99278 9.49711,-13.56212 14.68726,-20.65169 21.69214,-29.64068 25.85393,-29.64068 36.96011,-29.64068 l 24.39005,0 -4.92398,-23.85772 C 593.8057,256.14388 562.09622,108.93253 435.9116,47.96951 401.46792,31.33443 350.94568,28.16469 350.94568,28.16469 340.68637,20.22825 328.8301,12.76364 315.17119,6.71452 L 300,0 284.82881,6.71452 c -13.46534,5.95233 -25.23692,13.32016 -35.39944,21.07513 0,0 -59.12409,7.36783 -85.67972,20.32504"/>
  <path d="m 307.13796,382.55837 c 0,0 147.73158,-27.49929 147.73158,-185.49018 l 0,0 c 0,0 -35.6898,65.26999 -106.99681,97.82635 l 0,0 0,-40.73477 c 0,0 56.05113,-27.49929 89.64794,-86.57499 l 0,0 c 0,0 -7.13796,-43.85611 -25.4184,-66.26204 l 0,0 c 0,0 -19.38138,49.90523 -64.22954,79.49752 l 0,0 0,-38.76276 c 0,0 22.39383,-22.39383 35.6777,-45.84022 l 0,0 c 0,0 -23.43429,-47.87273 -76.41247,-71.30701 l 0,0 0,357.6481 z M 216.44957,96.21728 c 13.22337,23.44639 35.62931,45.84022 35.62931,45.84022 l 0,0 0,38.76276 c -44.79977,-29.59229 -64.18115,-79.49752 -64.18115,-79.49752 l 0,0 c -18.32883,22.40593 -25.46679,66.26204 -25.46679,66.26204 l 0,0 c 33.59681,59.0757 89.64794,86.57499 89.64794,86.57499 l 0,0 0,40.73477 C 180.75977,262.33818 145.08207,197.06819 145.08207,197.06819 l 0,0 c 0,157.99089 147.77997,185.49018 147.77997,185.49018 l 0,0 0,-357.6481 c -53.02658,23.43428 -76.41247,71.30701 -76.41247,71.30701 m 266.43949,117.20773 c 0,96.0721 -70.27866,201.1332 -182.88906,202.69387 l 0,0 C 187.32911,414.55821 117.11094,309.49711 117.11094,213.42501 l 0,0 c 0,-91.68045 56.00274,-147.77998 56.00274,-147.77998 l 0,0 C 53.873452,122.73662 24.341654,266.40319 24.341654,266.40319 l 0,0 c 21.401783,0 30.572247,7.13796 53.026576,37.71021 l 0,0 c 22.393838,30.52385 34.63725,52.97818 82.50998,105.95636 l 0,0 c 41.30338,45.69505 117.34081,52.73622 137.56906,53.82506 l 0,0 0,0.19357 c 0,0 0.89527,0 2.55273,-0.0968 l 0,0 c 1.65746,0.0968 2.55273,0.0968 2.55273,0.0968 l 0,0 0,-0.19357 c 20.22825,-1.08884 96.26568,-8.13001 137.52067,-53.82506 l 0,0 c 47.92112,-52.97818 60.16453,-75.43251 82.55837,-105.95636 l 0,0 c 22.40594,-30.57225 31.5764,-37.71021 52.97818,-37.71021 l 0,0 c 0,0 -29.5318,-143.66657 -148.77203,-200.75816 l 0,0 c 0,0 56.05114,56.09953 56.05114,147.77998" style="fill:url(#radialGradient2998)"/>
</svg>
