<?xml version="1.0" encoding="UTF-8" standalone="no"?>
<svg xmlns="http://www.w3.org/2000/svg" version="1.1" width="600" height="483.92902">
  <path d="m 426.83792,65.64503 c 0,0 56.05114,56.09953 56.05114,147.77998 0,96.02371 -70.27866,201.1332 -182.88906,202.69387 -112.67089,-1.56067 -182.88906,-106.67016 -182.88906,-202.69387 0,-91.68045 56.00274,-147.77998 56.00274,-147.77998 C 53.921845,122.73662 24.341654,266.40319 24.341654,266.40319 c 21.401783,0 30.572247,7.13796 52.978183,37.71021 22.442231,30.52385 34.685643,52.97818 82.558373,105.95636 41.30338,45.69505 117.34081,52.73622 137.56906,53.82506 l 0,0.19357 c 0,0 0.89527,0 2.55273,-0.0968 1.60907,0.0968 2.55273,0.0968 2.55273,0.0968 l 0,-0.19357 c 20.22825,-1.08884 96.26568,-8.13001 137.52067,-53.82506 47.92112,-52.97818 60.11614,-75.43251 82.55837,-105.95636 22.40594,-30.57225 31.5764,-37.71021 52.97818,-37.71021 0,0 -29.5318,-143.66657 -148.77203,-200.75816 M 216.44957,96.21728 c 13.22337,23.44639 35.62931,45.84022 35.62931,45.84022 l 0,38.76276 c -44.79977,-29.59229 -64.18115,-79.49752 -64.18115,-79.49752 -18.32883,22.40593 -25.46679,66.26204 -25.46679,66.26204 33.59681,59.0757 89.64794,86.57499 89.64794,86.57499 l 0,40.73477 c -71.31911,-32.55636 -106.99681,-97.82635 -106.99681,-97.82635 0,157.99089 147.77997,185.49018 147.77997,185.49018 l 0,-357.6481 c -52.97818,23.43428 -76.41247,71.30701 -76.41247,71.30701 m 167.10086,0 c -13.28387,23.44639 -35.6777,45.84022 -35.6777,45.84022 l 0,38.76276 c 44.84816,-29.59229 64.18115,-79.49752 64.18115,-79.49752 18.37722,22.40593 25.51518,66.26204 25.51518,66.26204 -33.6452,59.0757 -89.69633,86.57499 -89.69633,86.57499 l 0,40.73477 c 71.30701,-32.55636 106.99681,-97.82635 106.99681,-97.82635 0,157.99089 -147.73158,185.49018 -147.73158,185.49018 l 0,-357.6481 c 52.97818,23.43428 76.41247,71.30701 76.41247,71.30701"/>
</svg>
