<?xml version="1.0" encoding="UTF-8" standalone="no"?>
<svg xmlns="http://www.w3.org/2000/svg" version="1.1" width="600" height="278.83408">
  <path d="m 583.80924,110.90764 4.61538,-8.76 L 250.81864,0 14.677233,75.60919 l -0.895384,1.08 C 13.523388,77.08648 0.07416394,93.71072 3.1781856e-4,117.43379 -0.03660524,128.57532 3.1387777,141.26762 12.083388,153.88607 l 0.830769,1.15385 317.409063,123.10147 0.22154,0.0369 c 0.28578,0.0738 2.45538,0.65576 5.65845,0.65576 3.57231,0 8.58461,-0.72887 13.23692,-4.11692 L 600,176.53874 594.62769,167.27105 560.44617,155.5849 c -1.00615,-3.24923 -1.44,-6.77538 -1.44,-10.34768 0,-6.09231 1.30154,-12.40615 3.21231,-17.55692 1.8,-5.15999 4.28307,-9.56307 5.98153,-11.07691 l 15.60923,-5.69538 z" style="fill:#808080"/>
  <path d="M 335.63091,182.8799 547.68002,106.68918 250.96634,16.94769 53.584905,80.11381 335.63091,182.8799 z m -19.11692,72.5815 c -2.0123,-6.95999 -3.49846,-15.0646 -3.52615,-23.87075 0,-10.44923 2.04923,-20.54768 6.19384,-30.13845 L 22.394152,93.35072 c -0.322707,0.57231 -0.646153,1.22769 -0.96923,1.91077 -2.41846,5.08615 -5.270767,13.0523 -5.270767,22.13537 0.03692,8.58461 2.418461,16.58769 7.283073,24.37845 L 316.51399,255.4614 z m 26.36307,4.47693 c -3.13846,-6.6 -6.81231,-16.7723 -6.78462,-28.37537 0,-9.6 2.38154,-18.43384 7.25539,-26.93537 l 200.76912,-72.08304 c -0.83077,4.21846 -1.26462,8.51076 -1.26462,12.6923 0,8.11384 1.62462,15.43384 4.79077,21.81229 1.80923,3.64616 4.19077,6.96 7.03384,9.84923 l -211.79988,83.03996 z"/>
</svg>
