<?xml version="1.0" encoding="UTF-8" standalone="no"?>
<svg xmlns="http://www.w3.org/2000/svg" xmlns:xlink="http://www.w3.org/1999/xlink" version="1.1" width="600" height="278.83408">
  <radialGradient cx="0" cy="0" r="1" fx="0" fy="0" id="radialGradient292" gradientUnits="userSpaceOnUse" gradientTransform="matrix(21.916229,0,0,-21.916229,480.67383,482.47217)" spreadMethod="pad">
    <stop style="stop-color:#ebd491" offset="0"/>
    <stop style="stop-color:#d2bb7b" offset="0.7"/>
    <stop style="stop-color:#8b723c" offset="1"/>
  </radialGradient>
  <radialGradient cx="0" cy="0" r="1" fx="0" fy="0" id="radialGradient2995" xlink:href="#radialGradient292" gradientUnits="userSpaceOnUse" gradientTransform="matrix(21.916229,0,0,-21.916229,480.67383,482.47217)" spreadMethod="pad"/>
  <radialGradient cx="0" cy="0" r="1" fx="0" fy="0" id="radialGradient2998" xlink:href="#radialGradient292" gradientUnits="userSpaceOnUse" gradientTransform="matrix(202.30354,0,0,202.30354,283.65091,137.77674)" spreadMethod="pad"/>
  <path d="m 583.80924,110.90764 4.61538,-8.76 L 250.81864,0 14.677233,75.60919 l -0.895384,1.08 C 13.523388,77.08648 0.07416394,93.71072 3.1781856e-4,117.43379 -0.03660524,128.57532 3.1387777,141.26762 12.083388,153.88607 l 0.830769,1.15385 317.409063,123.10147 0.22154,0.0369 c 0.28578,0.0738 2.45538,0.65576 5.65845,0.65576 3.57231,0 8.58461,-0.72887 13.23692,-4.11692 L 600,176.53874 594.62769,167.27105 560.44617,155.5849 c -1.00615,-3.24923 -1.44,-6.77538 -1.44,-10.34768 0,-6.09231 1.30154,-12.40615 3.21231,-17.55692 1.8,-5.15999 4.28307,-9.56307 5.98153,-11.07691 l 15.60923,-5.69538 z" style="fill:#ffffff"/>
  <path d="M 335.63091,182.8799 547.68002,106.68918 250.96634,16.94769 53.584905,80.11381 335.63091,182.8799 z m -19.11692,72.5815 c -2.0123,-6.95999 -3.49846,-15.0646 -3.52615,-23.87075 0,-10.44923 2.04923,-20.54768 6.19384,-30.13845 L 22.394152,93.35072 c -0.322707,0.57231 -0.646153,1.22769 -0.96923,1.91077 -2.41846,5.08615 -5.270767,13.0523 -5.270767,22.13537 0.03692,8.58461 2.418461,16.58769 7.283073,24.37845 L 316.51399,255.4614 z m 26.36307,4.47693 c -3.13846,-6.6 -6.81231,-16.7723 -6.78462,-28.37537 0,-9.6 2.38154,-18.43384 7.25539,-26.93537 l 200.76912,-72.08304 c -0.83077,4.21846 -1.26462,8.51076 -1.26462,12.6923 0,8.11384 1.62462,15.43384 4.79077,21.81229 1.80923,3.64616 4.19077,6.96 7.03384,9.84923 l -211.79988,83.03996 z" style="fill:#8b723c"/>
  <path d="M 70.68028,80.43681 335.63091,176.99983 530.04926,107.15987 251.04018,22.74453 70.68028,80.43681 z m -48.969204,36.95998 c 0,6.96 1.799999,13.52307 5.519997,19.93845 l 0,0 281.538307,109.19071 c -0.86769,-5.0123 -1.30154,-9.98769 -1.30154,-14.89845 l 0,0 c -0.0369,-9.26769 1.47693,-18.27692 4.50462,-26.93537 l 0,0 L 25.283381,100.27372 c -1.846153,4.43077 -3.572305,10.45846 -3.572305,17.12307 m 325.458284,91.73533 c -3.72,7.09846 -5.55692,14.45538 -5.55692,22.45845 l 0,0 c 0,8.07692 1.98462,15.47077 4.21846,21.23999 l 0,0 199.76297,-78.3138 c -1.04307,-1.58769 -2.05846,-3.28615 -2.88923,-5.01231 l 0,0 c -3.56307,-7.10768 -5.40923,-15.28614 -5.40923,-24.26767 l 0,0 c 0,-1.44 0.0739,-2.91693 0.1477,-4.40308 l 0,0 -190.27375,68.29842 z" style="fill:url(#radialGradient2998)"/>
</svg>
