<?xml version="1.0" encoding="UTF-8" standalone="no"?>
<svg xmlns="http://www.w3.org/2000/svg" version="1.1" width="600" height="278.83408">
  <path d="M 335.63091,182.8799 547.68002,106.68918 250.96634,16.94769 53.584905,80.11381 335.63091,182.8799 z m -19.11692,72.5815 c -2.0123,-6.95999 -3.49846,-15.0646 -3.52615,-23.87075 0,-10.44923 2.04923,-20.54768 6.19384,-30.13845 L 22.394152,93.35072 c -0.322707,0.57231 -0.646153,1.22769 -0.96923,1.91077 -2.41846,5.08615 -5.270767,13.0523 -5.270767,22.13537 0.03692,8.58461 2.418461,16.58769 7.283073,24.37845 L 316.51399,255.4614 z m 26.36307,4.47693 c -3.13846,-6.6 -6.81231,-16.7723 -6.78462,-28.37537 0,-9.6 2.38154,-18.43384 7.25539,-26.93537 l 200.76912,-72.08304 c -0.83077,4.21846 -1.26462,8.51076 -1.26462,12.6923 0,8.11384 1.62462,15.43384 4.79077,21.81229 1.80923,3.64616 4.19077,6.96 7.03384,9.84923 l -211.79988,83.03996 z"/>
</svg>
