<?xml version="1.0" encoding="UTF-8" standalone="no"?>
<svg
   version="1.1"
   width="1024"
   height="1008.7"
   id="svg18"
   sodipodi:docname="U.svg"
   inkscape:version="1.1.1 (3bf5ae0d25, 2021-09-20)"
   xmlns:inkscape="http://www.inkscape.org/namespaces/inkscape"
   xmlns:sodipodi="http://sodipodi.sourceforge.net/DTD/sodipodi-0.dtd"
   xmlns:xlink="http://www.w3.org/1999/xlink"
   xmlns="http://www.w3.org/2000/svg"
   xmlns:svg="http://www.w3.org/2000/svg">
  <defs
     id="defs22" />
  <sodipodi:namedview
     id="namedview20"
     pagecolor="#ffffff"
     bordercolor="#666666"
     borderopacity="1.0"
     inkscape:pageshadow="2"
     inkscape:pageopacity="0.0"
     inkscape:pagecheckerboard="0"
     showgrid="false"
     inkscape:zoom="23.697"
     inkscape:cx="16.753"
     inkscape:cy="16.5"
     inkscape:window-width="1920"
     inkscape:window-height="986"
     inkscape:window-x="-11"
     inkscape:window-y="-11"
     inkscape:window-maximized="1"
     inkscape:current-layer="svg18" />
  <linearGradient
     id="linearGradient3848">
    <stop
       style="stop-color:#536e78"
       offset="0"
       id="stop2" />
    <stop
       style="stop-color:#99aebc"
       offset="0.3"
       id="stop4" />
    <stop
       style="stop-color:#d9eaf3"
       offset="0.5"
       id="stop6" />
    <stop
       style="stop-color:#99aebc"
       offset="0.7"
       id="stop8" />
    <stop
       style="stop-color:#536e78"
       offset="1"
       id="stop10" />
  </linearGradient>
  <linearGradient
     x1="0.86276"
     y1="14.451"
     x2="32.75"
     y2="14.438"
     id="linearGradient3854"
     xlink:href="#linearGradient3848"
     gradientUnits="userSpaceOnUse"
     gradientTransform="matrix(30.567,0,0,30.567,0,0)" />
  <path
     d="M 289.43,0 283.7,64.955 C 274.25,174.8 211.12,227 144.24,273.19 110.8,296.29 77.256,316.68 49.677,341.97 22.098,367.26 0.33169,400.08 0,441.31 c -0.31575,40.55 28.853,73.25 66.871,108.9 38.019,35.64 87.769,73.65 141.369,115.58 107.2,83.86 226.69,183.75 282.75,299.94 l 21.01,42.97 21.01,-42.97 c 56.06,-116.19 175.55,-216.08 282.75,-299.94 53.6,-41.93 103.35,-79.94 141.37,-115.58 38.02,-35.65 67.17,-68.35 66.87,-108.9 -0.3,-41.23 -22.1,-74.05 -49.67,-99.34 C 946.75,316.68 913.2,296.29 879.76,273.19 812.88,227 749.75,174.8 740.3,64.955 L 734.57,0 698.27,54.447 C 663.68,105.74 655.49,155.3 664.84,199.64 c 9.34,44.34 34.87,82.61 63.04,114.63 28.17,32.02 59.6,59.04 83.1,81.19 11.76,11.07 21.7,20.94 27.7,28.66 6.01,7.71 6.7,12.24 6.69,11.46 0,-2.23 -1.33,4.45 -8.6,13.37 -7.27,8.92 -18.78,20.13 -33.43,32.48 -29.29,24.71 -70.61,53.5 -112.71,82.15 -42.11,28.65 -84.76,57.26 -120.36,82.15 -26.72,18.67 -42.96,32.58 -58.27,47.76 -15.31,-15.18 -31.55,-29.09 -58.27,-47.76 -35.6,-24.89 -78.25,-53.5 -120.36,-82.15 -42.1,-28.65 -83.42,-57.44 -112.71,-82.15 -14.65,-12.35 -26.16,-23.56 -33.43,-32.48 -7.27,-8.92 -8.57,-15.6 -8.6,-13.37 0,0.78 0.68,-3.75 6.69,-11.46 6,-7.72 15.94,-17.59 27.7,-28.66 23.5,-22.15 54.93,-49.17 83.1,-81.19 28.17,-32.02 53.7,-70.29 63.04,-114.63 9.35,-44.34 1.16,-93.9 -33.43,-145.193 z M 512,4.7761 490.99,58.268 349.61,414.57 343.88,428.89 354.39,439.4 495.76,578.86 512,595.1 528.24,578.86 669.61,439.4 680.12,428.89 674.39,414.57 533.01,58.268 Z M 512,128 626.63,417.43 512,530.15 397.37,417.43 Z"
     id="path14"
     style="stroke-width:30.567" />
  <path
     d="M 306.63,66.865 C 286.28,303.31 24.002,305.99 22.931,441.31 22.054,552.13 393.43,710.39 512,956.17 630.57,710.39 1001.9,552.13 1001.1,441.31 1000,305.99 737.72,303.31 717.37,66.865 590.13,255.54 867.56,373.69 868.3,435.58 869.03,497.47 548.13,670.81 512,723.1 475.87,670.81 154.97,497.47 155.7,435.58 156.44,373.69 433.87,255.54 306.63,66.865 Z M 512,66.865 370.63,423.16 512,562.62 653.37,423.16 Z"
     style="fill:url(#linearGradient3854);stroke-width:30.567"
     id="path16" />
</svg>
