<?xml version="1.0" encoding="utf-8"?>
<svg xmlns="http://www.w3.org/2000/svg" xmlns:xlink="http://www.w3.org/1999/xlink" version="1.2" baseProfile="tiny" id="Layer_1" x="0px" y="0px" width="375px" height="300px">
    <path d="M361.112,176.513c-12.334,62.36-67.323,109.383-133.302,109.383c-0.604,0-1.204-0.015-1.806-0.023   c0.008-0.402,0.015-0.804,0.015-1.208c0-21.965-11.24-41.303-28.279-52.584V67.919c17.039-11.281,28.279-30.618,28.279-52.584   c0-0.404-0.008-0.806-0.015-1.208c0.602-0.008,1.202-0.023,1.806-0.023c65.979,0,120.969,47.023,133.302,109.383   c-8.468-12.377-22.696-20.502-38.825-20.502c-25.966,0-47.015,21.049-47.015,47.015c0,25.966,21.049,47.015,47.015,47.015   C338.416,197.015,352.643,188.89,361.112,176.513z M149.199,15.336c0-0.404,0.008-0.806,0.015-1.208   c-0.602-0.008-1.202-0.023-1.806-0.023c-65.979,0-120.969,47.023-133.302,109.383c8.468-12.377,22.696-20.502,38.825-20.502   c25.966,0,47.015,21.049,47.015,47.015c0,25.966-21.049,47.015-47.015,47.015c-16.129,0-30.356-8.125-38.825-20.502   c12.334,62.36,67.323,109.383,133.302,109.383c0.604,0,1.204-0.015,1.806-0.023c-0.008-0.402-0.015-0.804-0.015-1.208   c0-21.965,11.24-41.303,28.279-52.584V67.919C160.439,56.638,149.199,37.301,149.199,15.336z"/>
</svg>
