<?xml version="1.0" encoding="UTF-8"?>
<svg xmlns="http://www.w3.org/2000/svg" width="143pt" height="200pt" viewBox="0 0 143 200" version="1.1">
  <g>
    <polygon fill="#808080" points="10,9 134,9 134,190 10,190"/>
    <path d=" M 0.00 0.00 L 143.00 0.00 L 143.00 200.00 L 0.00 200.00 L 0.00 0.00 M 10.00 9.00 C 10.00 69.33 10.00 129.67 10.00 190.00 C 51.33 190.00 92.67 190.00 134.00 190.00 C 134.00 129.67 134.00 69.33 134.00 9.00 C 92.67 9.00 51.33 9.00 10.00 9.00 Z"/>
    <path d="m 83.446419,33.673072 c 2.132165,-0.50134 4.704622,-0.75208 7.717379,-0.75221 7.77471,1.3e-4 14.829822,2.13332 21.165352,6.399564 6.33535,4.266497 9.94234,9.127171 10.82098,14.582043 0.87843,5.455099 1.3177,9.061132 1.31781,10.818105 -1.1e-4,8.027543 -3.07404,14.864455 -9.2218,20.510762 -7.27724,5.018668 -11.79243,8.153846 -13.5456,9.405551 9.28296,1.75715 16.90366,6.336473 22.86214,13.737963 5.95827,7.40161 8.93746,14.8022 8.93757,22.20181 -1.1e-4,6.89819 -1.22318,13.20109 -3.66919,18.90871 -2.44624,5.70765 -6.55471,9.69074 -12.32541,11.9493 -5.7709,2.25856 -10.78852,3.76394 -15.0529,4.51615 -4.264542,0.75222 -8.529002,1.12832 -12.793385,1.12832 -5.393809,0 -10.286067,-0.40767 -14.676787,-1.22306 -4.390846,-0.81538 -9.816163,-2.07003 -16.275969,-3.76395 -6.459888,-1.6939 -12.38668,-2.54086 -17.780394,-2.54087 l -6.586178,0.37895 -17.122923,3.00886 c -0.501468,-0.37517 -0.940753,-0.84504 -1.317815,-1.40968 -0.377062,-0.56465 -0.565593,-1.22402 -0.565593,-1.97815 0,-0.50147 0.377062,-1.06611 1.131193,-1.69392 l 22.015187,-6.2072 c 0.501468,-0.37511 0.877561,-2.22505 1.12832,-5.54974 0.250703,-3.32465 0.376054,-7.74701 0.376117,-13.26711 -1.9e-5,-11.79039 -0.439297,-25.21156 -1.317808,-40.263566 C 37.788152,77.517852 36.815828,67.325648 35.74973,61.993059 34.683594,56.660673 30.042077,53.430751 21.825152,52.303275 13.608222,51.176025 9.4997561,49.921377 9.49975,48.539331 c 6.1e-6,-0.876509 0.4076759,-1.847876 1.223065,-2.914112 0.815382,-1.065998 1.850873,-1.59905 3.106472,-1.599176 3.889309,0.876748 7.840826,1.754334 11.854554,2.632752 4.013708,0.878656 7.777646,1.317928 11.291826,1.317808 8.149915,1.2e-4 15.330397,-1.78758 21.541466,-5.363113 6.21098,-3.575281 14.52074,-6.555426 24.929299,-8.940438 z m -25.58677,60.963815 c -3.8e-5,9.156793 -0.06318,16.714333 -0.189476,22.672653 -0.126359,5.95843 -0.252719,11.63448 -0.378952,17.02819 -3.8e-5,5.52009 0.251648,9.66013 0.755088,12.42015 0.503359,2.76005 1.632624,5.23776 3.387833,7.43313 1.755122,2.19541 4.514195,3.79458 8.277232,4.79752 3.762924,1.00296 7.966133,1.50444 12.609635,1.50444 8.153699,0 14.519759,-1.12928 19.098201,-3.38784 4.57828,-2.25855 7.90199,-5.98995 9.97115,-11.19421 2.06897,-5.20423 3.10351,-12.19714 3.10361,-20.97874 -1e-4,-7.9049 -3.76309,-14.17718 -11.28896,-18.81684 -9.283132,-4.01175 -18.503017,-8.025475 -27.659674,-12.04118 6.396627,-1.129208 12.355002,-3.543754 17.875142,-7.243649 5.51998,-3.699744 8.280012,-9.188222 8.280102,-16.465458 v -3.198344 c -9e-5,-6.522917 -2.227058,-12.010437 -6.680932,-16.462586 -4.45402,-4.451915 -10.193242,-6.67793 -17.217665,-6.678056 l -4.323799,0.37322 c -6.523067,0.880572 -10.820064,3.860717 -12.891001,8.940441 -2.071026,5.079946 -3.106511,12.135058 -3.106473,21.165355 -3.8e-5,2.25865 0.06312,5.64552 0.189476,10.160634 0.126296,4.515278 0.189476,7.838993 0.189476,9.971151 z"/>
  </g>
</svg>
