<?xml version="1.0" encoding="utf-8"?>
<!-- Generator: Adobe Illustrator 26.0.2, SVG Export Plug-In . SVG Version: 6.00 Build 0)  -->
<svg version="1.2" baseProfile="tiny" id="Layer_1" xmlns="http://www.w3.org/2000/svg" xmlns:xlink="http://www.w3.org/1999/xlink"
	 x="0px" y="0px" viewBox="0 0 100 100" overflow="visible" xml:space="preserve">
<path id="Azorius" fill="#231F20" d="M29.13536,43.25821L50,7.15443l20.86655,36.10378
	c-5.32779-5.36784-12.70884-8.692-20.86845-8.692C41.84039,34.56621,34.46125,37.89036,29.13536,43.25821 M58.30273,92.17391
	h40.83433L78.36782,56.23803c0.66978,2.46356,1.03426,5.05303,1.03426,7.73025
	C79.40208,77.32214,70.49635,88.59026,58.30273,92.17391 M20.59791,63.96828c0-2.67722,0.36448-5.26669,1.03427-7.73025
	L0.86294,92.17391h40.83242C29.50365,88.59026,20.59791,77.32214,20.59791,63.96828 M46.66249,51.00372l-0.22326-0.8663
	c0,0-0.46561,0.09731-0.90832,0.26905c-0.44653,0.15648-0.89306,0.31295-0.89306,0.31295l0.50378,1.24418l1.08197-0.37596
	l0.91786,2.99594c0,0,0.09923-0.04577,0.25953-0.07629c0.15838-0.0382,0.3702-0.08782,0.5801-0.13551
	c0.20991-0.06109,0.42553-0.08397,0.58773-0.10494c0.1622-0.02102,0.26906-0.03436,0.26906-0.03436l-0.3721-3.11043
	c0,0,0.28051-0.04962,0.56675-0.0668l0.57247-0.01904l-0.04007-1.34342c0,0-0.12022,0.00379-0.29578,0.01141
	c-0.17746,0.01147-0.41599,0.00385-0.65071,0.04199l-0.94267,0.12404l0.14693,0.88546
	C47.81507,50.72133,46.66249,51.00372,46.66249,51.00372 M50.17365,51.46365l-1.10677,0.03814l0.20036,2.67915
	c0,0,0.32631-0.01141,0.6488-0.02097c0.16411-0.01339,0.32822-0.00576,0.44844,0.00378
	c0.12212,0.00955,0.20417,0.01526,0.20417,0.01526l0.10304-1.78798l0.51332,0.03436l0.27669-2.67158l-1.26134-0.07821
	L50.17365,51.46365z M52.7116,49.94274l-0.08396,0.44083l-0.60491-0.09923l-0.06487,0.4427l-0.33013,2.21164
	c0,0-0.48469-0.08397-0.4866-0.06866l-0.1412,1.33573c0,0,0.03434,0.00192,0.09349,0.00385
	c0.05915,0.01141,0.14311,0.02481,0.24234,0.04198c0.20228,0.0343,0.46943,0.07821,0.73658,0.12404
	c0.26334,0.06866,0.52667,0.1393,0.72322,0.19078c0.09923,0.02295,0.18128,0.04391,0.23662,0.07064
	c0.05534,0.02097,0.08779,0.03436,0.08779,0.03436l0.28432-0.8511l0.14313-0.4236l0.71176-2.12196l0.14313-0.42366
	c0,0-0.14313-0.05532-0.29005-0.09923l-0.29577-0.08013l0.12402-0.43129C53.94049,50.24043,52.71923,49.9103,52.7116,49.94274
	 M55.25909,55.69225c0.10495,0.06109,0.24808,0.13935,0.37401,0.24622l0.52286,0.38732l0.84153-1.04758
	c0.00954-0.00955,0.3721,0.32437,0.3721,0.32437l0.59346-0.67168c0,0-0.395-0.35873-0.40645-0.34924l1.40255-1.74407
	c0,0-0.37975-0.28436-0.76139-0.5668c-0.1851-0.14879-0.39119-0.2652-0.54193-0.35873
	c-0.15076-0.09352-0.2538-0.15456-0.2538-0.15456l-0.54193-0.32635l-0.64309,1.17931l0.49043,0.29385l-1.622,2.68299
	C55.08545,55.58731,55.15414,55.6293,55.25909,55.69225 M59.44004,53.24971l-1.18311,1.34726l0.41028,0.3702l-1.24226,1.28996
	l-0.35111-0.31866l-0.59156,0.67168c0,0,0.10114,0.0916,0.2519,0.22898c0.15838,0.12783,0.34158,0.32821,0.52095,0.53052
	c0.17936,0.20225,0.3721,0.39687,0.48087,0.57052c0.12212,0.16032,0.20036,0.27097,0.20036,0.27097l0.72705-0.52475
	c0,0-0.14313-0.18892-0.28242-0.38167c-0.06487-0.09731-0.14502-0.18507-0.20609-0.24994
	c-0.05915-0.0668-0.10114-0.10878-0.10114-0.10878l1.35294-1.17547l1.35103-1.17355c0,0-0.31868-0.35494-0.63926-0.70417
	L59.44004,53.24971z M61.81961,55.93847c-0.0687-0.09545-0.1622-0.22141-0.25762-0.35115
	c-0.187-0.25379-0.37783-0.50949-0.37783-0.50949l-2.45209,1.95022c0,0,0.14503,0.19654,0.29387,0.395
	c0.07252,0.10115,0.14694,0.20039,0.20037,0.27481c0.05915,0.0725,0.08968,0.1259,0.08968,0.1259l-1.12395,0.73853l0.44462,0.7461
	l1.9693-1.05906l-0.54385-0.9179l0.37593-0.24616l0.56293,0.9522l1.5781-0.84726l-0.64688-1.08957
	C61.93219,56.10065,61.89211,56.03386,61.81961,55.93847 M61.52574,60.46284c0.07441,0.18705,0.10305,0.38551,0.14311,0.53052
	c0.03434,0.145,0.05725,0.24232,0.05725,0.24232l2.1792-0.50758c0,0-0.02671-0.11827-0.06869-0.29007
	c-0.04771-0.16981-0.08396-0.40642-0.16984-0.62969c-0.15456-0.44654-0.30912-0.89495-0.30912-0.89495
	s-0.09351-0.30154-0.23662-0.58392l-0.26524-0.57251l-4.0321,1.94452c0,0,0.37401,0.78617,0.3473,0.79764l0.14311,0.41026
	l0.84916-0.27859l-0.15648-0.44841l1.25753-0.4752L61.52574,60.46284z M64.26215,63.22788l-3.12759,0.16411l0.01718,0.49231
	l0.89495-0.00763l0.00955,0.2691c-0.00955,0.13167-0.01718,0.26521-0.01718,0.26521l-2.23645-0.08392
	c0,0-0.01336,0.21559-0.02862,0.43315c-0.00573,0.10879-0.01146,0.21757-0.01527,0.2977
	c-0.01527,0.08013-0.0229,0.13545-0.0229,0.13545l4.44047,0.56296c0.03243,0.00192,0.10112-1.26137,0.10112-1.26137
	l-0.89686-0.03243c0,0,0.00954-0.14885,0.01717-0.2977c-0.00191-0.14693-0.00763-0.29577-0.00763-0.29577l0.89497-0.00571
	L64.26215,63.22788z M59.6633,65.62273c0,0-0.05915,0.42936-0.0725,0.42552l-0.21946,0.84155l0.85299,0.26718l-0.16221,0.44649
	l0.41982,0.15077l0.17175-0.46372l1.28042,0.40077l0.28242-1.07053c0.00954,0.00192,0.0935-0.54385,0.0935-0.54385l-0.4408-0.07635
	c0,0-0.08014,0.5286-0.0916,0.52668l-0.43698-0.09539c0.01335,0.00192,0.08777-0.50763,0.08777-0.50763l-0.4389-0.07437
	c0,0-0.07441,0.48655-0.08587,0.48469l-0.87588-0.18891c0.01146,0.00186,0.07824-0.44846,0.07824-0.44846L59.6633,65.62273z
	 M62.67259,70.55742l0.27859-0.56866c0.06489-0.14308,0.13358-0.28622,0.1851-0.39308
	c0.04961-0.10494,0.07251-0.18128,0.07251-0.18128l0.22135-0.59348l-0.42171-0.15263l-0.21181,0.57437l-1.24226-0.51141
	l0.19273-0.51905l-0.84344-0.30532l-0.17747,0.48282l-1.24225-0.51334l0.15648-0.42552l-0.41982-0.15269
	c0,0-0.03817,0.10307-0.09351,0.25571c-0.04961,0.15839-0.13548,0.35494-0.23853,0.5477
	c-0.09159,0.19654-0.187,0.39308-0.25569,0.54001c-0.08588,0.1393-0.14313,0.23282-0.14313,0.23282l0.38737,0.22327
	c0,0,0.05915-0.09737,0.12021-0.19276c0.05915-0.09924,0.10114-0.20417,0.10114-0.20417l2.78221,1.44451
	c0.02671,0.01526-0.59536,1.02476-0.59536,1.02476l0.37783,0.24039l0.37592,0.24045
	C62.03905,71.65083,62.70312,70.57268,62.67259,70.55742 M61.69176,72.17751l-1.09915-0.77283
	c0.02671,0.02102,0.61063-0.96554,0.61063-0.96554l-1.93686-1.11828c0,0-0.48278,0.81674-0.50759,0.79956l-0.36638-0.25571
	c0,0,0.07061-0.08776,0.1355-0.18314c0.05724-0.09924,0.11449-0.19468,0.11449-0.19468l-0.37592-0.24039
	c0,0-0.05724,0.09347-0.11259,0.18699c-0.06106,0.08968-0.12784,0.17366-0.12784,0.17366s-0.12976,0.17551-0.25952,0.34917
	c-0.06489,0.08589-0.12976,0.17365-0.17556,0.24045c-0.05153,0.06295-0.09349,0.10302-0.09349,0.10302l-0.29196,0.3168
	l1.6449,1.51707l0.36256-0.39314l1.70979,1.44073C60.94373,73.20034,61.69176,72.17751,61.69176,72.17751 M57.00513,73.20797
	l0.27097,0.35873l0.54004,0.71181l0.27097,0.35873l0.54003,0.71366c0,0,0.12595-0.09539,0.31868-0.2366
	c0.19274-0.13738,0.416-0.36449,0.65453-0.57437c0.48278-0.40834,0.89687-0.89117,0.89687-0.89117l-0.65644-0.60296
	l-0.33012-0.30533l-0.32822-0.30154c0,0-0.18892,0.2023-0.37592,0.40456c-0.20609,0.18699-0.41027,0.37212-0.41027,0.37212
	l-0.30151-0.33013l0.39692-0.35873l-0.31677-0.3168l-0.94457-0.95219l-0.33776,0.30148l-0.30151-0.33199
	c0,0-0.16029,0.14693-0.32058,0.29385c-0.16601,0.13737-0.34539,0.26141-0.34539,0.26141l0.26906,0.35494L57.00513,73.20797z
	 M55.41557,74.23651c0.08396-0.05154,0.19464-0.11641,0.30342-0.18128c0.22326-0.12975,0.4408-0.26141,0.4408-0.26141
	l0.71368,1.13726c0,0-0.97893,0.59731-0.99418,0.56866l0.60873,1.19649c0.01526,0.03244,1.09914-0.6259,1.09914-0.6259
	s0.13548-0.08205,0.27097-0.16411c0.13358-0.08205,0.25953-0.18128,0.25953-0.18128l-2.53986-3.68481
	c0,0-0.08396,0.06872-0.17746,0.12596c-0.09542,0.05533-0.18702,0.10873-0.18702,0.10873s-0.187,0.11263-0.37401,0.22327
	c-0.09349,0.05346-0.187,0.1107-0.2557,0.15269c-0.07442,0.03244-0.12404,0.05533-0.12404,0.05533l0.811,1.59528
	C55.27055,74.30138,55.32779,74.27466,55.41557,74.23651 M52.92341,77.94991l0.61636-0.14693c0,0,0.61254-0.14884,0.60873-0.16218
	l0.59729-0.20609l-1.48842-4.22103c0,0-0.20609,0.07064-0.41409,0.14507c-0.10114,0.04193-0.20609,0.06295-0.28624,0.08013
	c-0.08015,0.01718-0.13167,0.03052-0.13167,0.03052l0.6679,2.60094l-0.54004,0.12782L52.92341,77.94991z M52.46353,75.76115
	l-0.45989-2.19061c0,0-0.10686,0.02481-0.21181,0.05154c-0.10686,0.01526-0.21563,0.02667-0.21563,0.02667l-0.42935,0.05917
	c0,0-0.42935,0.0668-0.42935,0.04961l0.1641,2.23267l-1.06861,0.03429l-0.01145,0.89501l1.14494-0.03628l0.03434,0.44654
	l-1.18692,0.03815l-0.01527,0.89495l1.26516-0.04199c0.00191,0.0191,0.62972-0.06866,0.62972-0.06866l0.62782-0.08397
	l-0.36257-2.20786l0.26524-0.04007C52.33186,75.79173,52.46353,75.76115,52.46353,75.76115 M46.00797,75.80698
	c-0.00954,0.03052,1.06289,0.30533,1.06289,0.30533l0.62972-2.61049c0,0-0.84344-0.21372-0.8339-0.23853l-0.28624,0.84725
	c0,0-0.22136-0.08205-0.44462-0.1641c-0.11259-0.04007-0.22136-0.08013-0.30723-0.11257
	c-0.08015-0.03628-0.13358-0.06301-0.13358-0.06301l-1.44071,3.27838c-0.00954,0.02859,1.1812,0.45418,1.1812,0.45418
	L46.00797,75.80698z M48.51539,78.18273c0.31677,0.02102,0.63163,0.04198,0.63163,0.04198l0.26906-4.46911
	c0,0-0.21563-0.01141-0.43317-0.0248c-0.21563-0.01718-0.42935-0.06295-0.42935-0.06295l-0.06679,0.4427l-0.44844-0.0725
	l-0.51522,2.63716c-0.00763,0.02865-1.1125-0.27475-1.1125-0.27475l-0.12403,0.43315l-0.12403,0.42936l-0.12595,0.42937
	c0,0,1.22127,0.33013,1.22891,0.29769l0.08587-0.43699l0.08588-0.43892l0.58583,0.09353l-0.13358,0.8854
	C47.88949,78.09305,48.20053,78.15414,48.51539,78.18273 M41.29272,75.28986c0.14121,0.10686,0.23471,0.17744,0.23471,0.17744
	l1.85671-2.52651l0.39691,0.29578l0.74802-1.1163c0,0-1.04953-0.77283-1.02281-0.80334l-0.88924,1.00565l-0.36448-0.33013
	l-2.1773,2.25549c0,0,0.35303,0.3168,0.70414,0.63738C40.95115,75.05133,41.15343,75.17724,41.29272,75.28986 M39.63256,73.7976
	l2.59901-2.46542l0.15839,0.17558c0.08014,0.08584,0.17174,0.16219,0.17174,0.16219l0.62208-0.64309
	c-0.02099,0.02103-0.59537-0.63354-0.59537-0.63354l-0.67361,0.58777c0,0-0.08014-0.0859-0.1622-0.17558
	c-0.08014-0.08589-0.14503-0.18699-0.14503-0.18699l0.70414-0.55341c0,0-0.19464-0.26334-0.38928-0.52475
	c-0.10495-0.12596-0.17747-0.27289-0.23853-0.37591c-0.06297-0.10686-0.10495-0.17558-0.10495-0.17558l-0.77093,0.45603
	c0,0,0.12022,0.20423,0.24235,0.41032c0.12976,0.19654,0.2767,0.38354,0.2767,0.38354l-2.90434,2.09522
	c0,0,0.27669,0.38546,0.57247,0.75758C39.31388,73.44266,39.63256,73.7976,39.63256,73.7976 M36.81028,69.46593
	c0.12403,0.26526,0.29196,0.62591,0.45797,0.98271c0.1622,0.35878,0.39119,0.68699,0.53431,0.94649
	c0.15266,0.25378,0.2538,0.42365,0.2538,0.42365l0.74802-0.49231l-0.6049-1.019l3.15622-1.69265
	c0,0.00192-0.56866-1.17738-0.53431-1.1888l-0.14693-0.41219l-1.27661,0.41789l0.16602,0.46751l-2.09333,0.78815l-0.83772,0.31674
	c0,0,0.01717,0.04769,0.0458,0.12596C36.70914,69.21214,36.7454,69.33234,36.81028,69.46593 M36.32558,68.13013
	c0.05725,0.16795,0.09542,0.27859,0.09542,0.27859l2.55131-0.83578c0,0-0.04771-0.11833-0.08396-0.24423l-0.06298-0.24809
	l1.72314-0.4809c0,0-0.08778-0.31482-0.15838-0.63354c-0.05916-0.31866-0.11259-0.63924-0.11259-0.63924
	c-0.01144,0.00192-0.04389-0.43123-0.04389-0.43123l-2.22882,0.2118c0,0,0.0458,0.53239,0.05725,0.53046l0.09159,0.52667
	l-2.2002,0.4084c0,0,0.07252,0.46943,0.20609,0.92738C36.21872,67.7275,36.27979,67.95648,36.32558,68.13013 M35.77792,65.31932
	c0.01336,0.1584,0.02671,0.31674,0.03817,0.43507c0.01336,0.11641,0.02862,0.19462,0.02862,0.19462l1.77466-0.24802
	c0,0-0.01527-0.06871-0.02672-0.17179c-0.00954-0.10493-0.02099-0.24231-0.03435-0.37968
	c-0.02289-0.27481-0.0477-0.54962-0.0477-0.54962l1.78992-0.09155c0,0-0.00573-0.11833-0.00573-0.23666v-0.23853l0.89497-0.00378
	l-0.00191-0.43507l0.03434-0.42936l-2.67534-0.22519l-0.0439,0.55341l-0.89305-0.03628l-0.89687-0.03244v0.63167l0.89687-0.00576
	c0,0,0,0.14885,0.00191,0.29577c0,0.15077,0.00572,0.2977,0.00572,0.2977l-0.89305,0.04391
	C35.72449,64.68771,35.75121,65.00259,35.77792,65.31932 M36.80455,61.68984l-0.88351-0.15263c0,0-0.04962,0.31295-0.09732,0.62591
	c-0.0458,0.31295-0.06297,0.62969-0.06297,0.62969l1.33958,0.11257c0,0,0.04007-0.57437,0.05534-0.57245l3.10661,0.39885
	c0,0,0.03435-0.21564,0.0687-0.42744c0.01908-0.10878,0.03435-0.21564,0.04771-0.29578l0.03435-0.13359l0.10304-0.42174
	l-4.32406-1.15066l-0.15265,0.61444l0.87588,0.19083c0,0-0.04007,0.14314-0.06488,0.29007
	C36.82745,61.54484,36.80455,61.68984,36.80455,61.68984 M37.19765,57.62914c-0.08778,0.15456-0.18319,0.3702-0.27479,0.58963
	c-0.09159,0.21949-0.18319,0.43507-0.2538,0.6011c-0.0687,0.16032-0.10113,0.27481-0.10113,0.27481l0.41981,0.15456
	l-0.19273,0.58008l3.84319,1.20796c0,0,0.0687-0.20609,0.13548-0.41411c0.03053-0.10308,0.07442-0.20417,0.10877-0.27667
	c0.03244-0.07827,0.05343-0.12788,0.05343-0.12788l-2.06853-0.85489c0,0,0.10495-0.24424,0.20991-0.49039
	c0.11258-0.24237,0.24234-0.4752,0.24234-0.4752l-1.98647-1.03425C37.33313,57.36388,37.2797,57.47074,37.19765,57.62914
	 M38.20139,55.90411c-0.06488,0.1011-0.14884,0.23469-0.23472,0.36636c-0.16792,0.26718-0.33775,0.53622-0.33775,0.53622
	l2.32804,1.34528c0,0-0.12213,0.22712-0.24044,0.45417c-0.06107,0.11257-0.12022,0.22519-0.16602,0.31103
	c-0.0458,0.08397-0.06679,0.14506-0.06679,0.14506l1.622,0.75758c0,0,0.23662-0.49237,0.51713-0.95604
	c0.27288-0.47135,0.61445-0.89495,0.61445-0.89495l-1.41591-1.09341l-0.31104,0.41026l-2.19638-1.5438
	C38.31396,55.74187,38.26245,55.80103,38.20139,55.90411 M39.73369,54.01876c-0.11831,0.13546-0.27669,0.30911-0.43507,0.48661
	c-0.32631,0.34731-0.60492,0.73085-0.60492,0.73085l1.77275,1.36823c0,0,0.08014-0.10878,0.15838-0.21564
	s0.17174-0.2023,0.17174-0.2023l1.71169,1.44265c0,0,0.57247-0.65263,0.58964-0.63546l-1.5743-1.58958l-1.57429-1.58952
	C39.94933,53.81459,39.86155,53.89472,39.73369,54.01876 M40.64011,53.16387c-0.12213,0.10115-0.23472,0.2118-0.23472,0.2118
	l3.00547,3.31845c0,0,0.07442-0.08019,0.16029-0.14693l0.16983-0.13551l0.33775-0.27097l-0.80909-1.07245
	c-0.01145-0.01334,0.40646-0.27667,0.40646-0.27667l0.76138,1.10675l0.72513-0.47514l-0.65643-1.16976l-0.22136-0.38738
	l-0.86061,0.55725c-0.10877,0.07058-0.21754,0.13929-0.31868,0.20225c-0.09351,0.07634-0.18129,0.14693-0.2557,0.20609
	c-0.15075,0.12212-0.25188,0.20225-0.25188,0.20225l-1.7117-2.0685C40.88626,52.96541,40.76605,53.06464,40.64011,53.16387
	 M42.96624,51.52276l-0.5324,0.34161l-0.53239,0.34731c0,0-0.53049,0.34347-0.52095,0.3568l1.08006,1.42925l0.26906,0.35686
	c0,0,0.04961-0.04391,0.13167-0.10115c0.08397-0.0534,0.19655-0.1259,0.30914-0.20033
	c0.22326-0.14314,0.44652-0.29007,0.44652-0.29007l0.44844-0.28815l-0.21944-0.39116l-0.4637,0.29956l-0.23853-0.37975
	l0.48087-0.31103L42.96624,51.52276z M34.90968,51.73077c0.00763-0.01147,0.01145-0.01525,0.01145-0.01525l-0.63162-0.51521
	c0,0-0.28815,0.38161-0.5782,0.76521c-0.14312,0.19462-0.28624,0.38546-0.3931,0.52854
	c-0.11258,0.14122-0.16792,0.24808-0.16792,0.24808l0.67933,0.45225c0,0,0.05152-0.10494,0.16029-0.23853
	c0.05725-0.07635,0.12403-0.16411,0.19464-0.26142l2.66389,1.8949l0.61063-0.81674l-2.53796-2.05708L34.90968,51.73077z
	 M36.49923,48.89707l2.45018,2.73639l0.27479,0.3034c0,0-0.09732,0.08398-0.24044,0.2118
	c-0.14312,0.12596-0.33967,0.29007-0.50568,0.48661c-0.34348,0.37404-0.68887,0.74802-0.68887,0.74802l-0.31105-0.26712
	l0.70987-0.76713c0.01336-0.01718,0,0,0,0l-0.29196-0.28622l-0.72513,0.78425l-1.8529-1.59907l0.41409-0.45417l-0.59728-0.5534
	l0.43317-0.46751c0,0,0.05343-0.05917,0.13548-0.145c0.07633-0.09352,0.19846-0.2023,0.31868-0.30725
	C36.2588,49.11079,36.49923,48.89707,36.49923,48.89707 M37.12705,48.33982c-0.09159,0.07827-0.14884,0.13167-0.14884,0.13167
	l2.62382,3.12569c0,0,0.04771-0.04007,0.12022-0.10494c0.0687-0.0668,0.16411-0.14885,0.27097-0.21943
	c0.20609-0.14885,0.41409-0.29962,0.41409-0.29962l0.41218-0.29956l-0.9274-1.34534c0,0,0.05725-0.04198,0.14121-0.10302
	c0.08587-0.06109,0.19655-0.14885,0.32058-0.21564c0.24234-0.14122,0.4866-0.28436,0.4866-0.28436l-1.26134-2.10093
	c0,0-0.27478,0.16218-0.55148,0.32437c-0.1393,0.07634-0.26525,0.17558-0.36447,0.24622
	c-0.09732,0.07058-0.1622,0.11635-0.1622,0.11635l0.6965,1.00758l-0.4866,0.35302l-0.72512-0.98655l-0.51522,0.37975
	C37.33505,48.15475,37.21482,48.25777,37.12705,48.33982 M42.83267,47.69296l-0.5114,0.23661l-0.17747-0.36827l0.52286-0.24424
	l-0.33013-0.74802l-1.08769,0.50565v0.00192l-0.56103-1.08771c-0.00763-0.01333-0.55721,0.31295-0.55721,0.31295l1.39111,2.496
	c-0.47324,0.27668-0.94648,0.55335-0.94648,0.55335l0.66407,1.03238l0.8797-0.51712c0.21754-0.13551,0.4389-0.25955,0.61636-0.33013
	c0.17555-0.08205,0.29005-0.13551,0.29005-0.13551l0.4618-0.21372L42.83267,47.69296z M43.95471,48.9772l0.47897-0.16987v0.00192
	c0,0,0.24234-0.08583,0.48279-0.17173c0.12022-0.04198,0.24044-0.08584,0.33012-0.11827
	c0.08969-0.03436,0.15266-0.04775,0.15266-0.04775l-0.46561-1.56663l0.54385-0.13551l-0.20609-0.79001l-0.57056,0.14314
	l-0.4637-1.56477c0,0-0.07824,0.01718-0.19082,0.05917c-0.11449,0.04007-0.26334,0.09161-0.41409,0.145l-0.603,0.21186
	l0.42172,1.15066l-0.56484,0.20033L43.95471,48.9772z M47.6815,46.3362l0.21372,1.61817l-0.50568,0.07442
	c0,0-0.24998,0.0382-0.50568,0.07442c-0.24617,0.06109-0.49423,0.12212-0.49423,0.12212l-0.63926-2.78601
	c-0.32249,0.08013-0.58392,0.145-0.58392,0.145l-0.31104-1.18309c0,0,0.4637-0.11641,0.93122-0.2309
	c0.2309-0.0668,0.46751-0.09731,0.64499-0.1259c0.17937-0.02673,0.29577-0.04199,0.29577-0.04199L47.359,43.907l0.26906,2.02272
	l-0.56865,0.08398l0.06488,0.40648L47.6815,46.3362z M50.19655,46.58236c-0.20418-0.01526-0.41218-0.00571-0.56865,0.00571
	c-0.0687,0.00385-0.16793,0.00955-0.2557,0.01526l-0.10495-2.85659l-1.2747,0.0668l0.40645,4.0645l1.019-0.05148
	c0,0,0.09732-0.00577,0.23853-0.0134c0.14312-0.01141,0.33585-0.02288,0.52668-0.00571l0.76329,0.03628l0.07059-1.22322
	C51.01708,46.6205,50.60682,46.60332,50.19655,46.58236 M50.53621,44.14745l0.00763-0.41026L49.9065,43.7143l0.00381,0.40834
	l0.00954,2.0399l1.12013,0.04962l0.12022-2.03991L50.53621,44.14745z M51.95976,47.93341l0.50759,0.0725l0.06106-0.40456
	l0.51905,0.07251l0.60109-3.21153l-0.62208-0.08782l0.06297-0.4045c0,0-0.31677-0.04391-0.63353-0.08968
	c-0.15839-0.02102-0.31675-0.04583-0.43507-0.06301c-0.12021-0.0191-0.19845-0.02097-0.19845-0.02097l-0.36638,4.06641
	c0,0,0.06487,0,0.15838,0.0191C51.70977,47.8952,51.83572,47.9143,51.95976,47.93341 M54.34505,44.20091l-0.87778,3.9882
	l0.49422,0.12212l0.49614,0.12019c0,0,0.12595,0.02289,0.24425,0.06872l0.24044,0.08776l0.75185-2.33376l-0.2748-0.09539
	c-0.13739-0.05538-0.2805-0.08019-0.2805-0.08019l0.33775-1.17925l-0.61064-0.15077l0.10114-0.39308L54.34505,44.20091z
	 M57.70163,45.23894c-0.45034-0.1641-0.9026-0.32629-0.9026-0.32629l-1.37584,3.84512l0.72132,0.25379
	c0.34539,0.16597,0.69269,0.332,0.69269,0.332l0.51903-1.1106c0.21563,0.10115,0.47897,0.22519,0.74421,0.35302
	c0.30723,0.15077,0.59156,0.34539,0.81482,0.47327c0.22137,0.13359,0.36829,0.22135,0.36829,0.22135l0.65262-1.03425
	c0,0-0.15839-0.09544-0.39119-0.23666c-0.24044-0.1393-0.54385-0.34726-0.87397-0.50949
	c-0.28242-0.13546-0.56292-0.26712-0.79382-0.37783l0.69078-1.47887L57.70163,45.23894 M59.14426,45.91831l-0.55339,1.0915
	c0,0,0.416,0.17744,0.79192,0.42552l0.77283,0.46564l0.65262-1.03617c0,0-0.41028-0.24808-0.82054-0.49424
	C59.58506,46.10722,59.14426,45.91831,59.14426,45.91831 M59.06793,50.58012l0.81482,0.61636c0,0,0.20226,0.15077,0.40645,0.30148
	c0.10686,0.07064,0.19082,0.16987,0.26334,0.2309c0.07061,0.06488,0.1183,0.10878,0.1183,0.10878l0.53814-0.61251
	c0,0-0.04771-0.04775-0.12214-0.11455c-0.07633-0.06488-0.16601-0.16789-0.27669-0.24232
	c-0.21372-0.16032-0.42744-0.31866-0.42936-0.31866l1.99603-2.5876l-1.02282-0.76521L59.06793,50.58012z M64.65144,51.83764
	l-1.5724,1.29951c0.02481-0.01718,0.6469,0.85681,0.6469,0.85681l1.65253-1.20028
	C65.37846,52.79367,64.67815,51.81667,64.65144,51.83764 M64.40144,56.63874l0.43126,0.92745l1.12587-0.48661
	c0,0,0.05534,0.12404,0.11449,0.24994c0.05724,0.12404,0.09542,0.25385,0.09542,0.25385l1.52085-0.59731
	c0,0-0.0458-0.14308-0.10686-0.28052c-0.06106-0.13545-0.12595-0.27289-0.12595-0.27289l-0.01907,0.00955l1.14494-0.49424
	l-0.54002-1.15829L64.40144,56.63874z M69.83228,59.89994c-0.03625-0.15648-0.07442-0.31103-0.07442-0.31103l-0.79573,0.17744
	c-0.07633-0.2977-0.15074-0.59533-0.15074-0.59533l-1.58193,0.40263c0,0,0.06678,0.27475,0.13739,0.54572l-1.19646,0.26718
	c0,0,0.03053,0.1259,0.06487,0.25187c0.03626,0.12596,0.04771,0.25763,0.04771,0.25763l1.20218-0.22712l1.60674-0.3034
	l0.79955-0.15263C69.89143,60.21289,69.87809,60.05257,69.83228,59.89994 M70.23873,63.58474l-0.00954-0.20039l-1.63155,0.0477
	c0,0,0.00192,0.07442,0.00764,0.18513c0.00191,0.10878,0.02481,0.25763,0.01144,0.40263
	c-0.00763,0.17174-0.01909,0.41411-0.02672,0.58776l-0.81482-0.02673c0.00764-0.16603,0.01527-0.39693,0.0229-0.56296
	c0.01527-0.14122-0.00763-0.27859-0.00954-0.38353c-0.00381-0.10686-0.00763-0.1775-0.00763-0.1775l-0.81673,0.02481
	c0,0,0.00381,0.06872,0.00954,0.16603c0.00191,0.10115,0.0229,0.23475,0.00955,0.3702l-0.02481,0.5343l0.00191,0.00192
	l-0.41028-0.01525l0.02481-0.52097l-0.40836-0.00192l-0.02481,0.51142l-0.0229,0.50763l4.07409,0.26521l0.03053-0.63732
	c0,0,0.01144-0.31866,0.02672-0.63924C70.26163,63.86526,70.24256,63.70494,70.23873,63.58474 M70.15668,65.93952l-2.43873-0.23666
	l-0.16029,1.1106l2.41965,0.39122L70.15668,65.93952z M69.17204,70.43723c0.09541-0.28244,0.24806-0.65456,0.33013-1.04765
	c0.19082-0.77662,0.37973-1.55138,0.37973-1.55138l-0.39882-0.07826l-0.37401,1.52086
	c-0.08015,0.38551-0.2309,0.74802-0.32632,1.02667c-0.09731,0.27667-0.1622,0.45988-0.1622,0.45988l0.38356,0.1393
	C69.00411,70.90665,69.07089,70.7196,69.17204,70.43723 M68.78848,71.50775l-0.75758-0.30341
	c0.00763-0.01717,0.01337-0.03436,0.01909-0.05346c0.13548-0.37975,0.31487-0.8854,0.49615-1.39111
	c0.17364-0.50565,0.27097-1.03809,0.37592-1.42548c0.09541-0.39116,0.15839-0.65257,0.15839-0.65257l-1.20219-0.23475
	c0,0-0.05534,0.22135-0.13739,0.55725l-1.99029-0.45225l-0.24044,0.98841l1.95023,0.58014
	c-0.02672,0.08968-0.05344,0.1832-0.08588,0.27289c-0.16602,0.47514-0.33584,0.94835-0.46178,1.30137
	c-0.00572,0.02103-0.01337,0.03436-0.01909,0.05154l-0.37782-0.15263l0.37592-1.05719l-1.55138-0.51328l-0.33967,0.96175
	c0.01525,0.00571-0.20609,0.46751-0.20609,0.46751l1.87007,0.82053l1.12204,0.49231l0.74612,0.32822
	C68.53278,72.09354,68.80374,71.51538,68.78848,71.50775 M67.52523,72.31873l0.73467,0.35494c0,0-0.20609,0.42937-0.41219,0.86252
	l-0.49041,0.82053l-0.70033-0.41789l-0.31867,0.52475l-2.74977-1.76317c0,0,0.19846-0.32822,0.39692-0.65649
	c0.09732-0.16596,0.20037-0.32436,0.27098-0.45225c0.05916-0.12975,0.10113-0.21751,0.10113-0.21751l0.72514,0.37591
	c0.12595-0.26713,0.2309-0.48469,0.2309-0.48469l1.47315,0.70225c0,0-0.11449,0.24039-0.25379,0.53046l0.72894,0.37596
	L67.52523,72.31873z M65.27351,75.95962l0.73658-0.97892l-2.69253-1.84908l-0.61636,0.81483l-0.30532,0.40648l-0.3473,0.37398
	l1.52469,1.35867l-0.77856,0.84348l1.43499,1.45406l0.86633-0.94078l0.43318-0.46943l-1.87962-1.5724l0.33776-0.44648
	L65.27351,75.95962z M62.79853,79.6616l0.95793-0.84725l-1.66589-1.79753c0.20991-0.18513,0.42363-0.3702,0.55721-0.53239
	c0.14502-0.15461,0.23853-0.25763,0.23853-0.25763l-0.88734-0.84347c0,0-0.08778,0.09544-0.22135,0.24045
	c-0.12404,0.15269-0.32249,0.3225-0.51903,0.49424l-0.27861-0.30148l-0.75948,0.67931l0.25762,0.31866l0.25761,0.3168
	c0.00954,0.01334-0.42744,0.3225-0.42744,0.3225l0.49613,0.64687c0,0,0.45608-0.32442,0.44844-0.33776l0.51523,0.63354
	c0.00954,0.01334-0.46752,0.35494-0.46752,0.35494l0.99038,1.29758C62.29095,80.04898,62.80998,79.67686,62.79853,79.6616
	 M60.16516,81.46297l-0.82054-1.41399l-1.22699-2.11625c0,0,0.21753-0.13167,0.43699-0.2595
	c0.11258-0.06487,0.22135-0.12975,0.3034-0.17558c0.07824-0.05724,0.12976-0.09347,0.12976-0.09347l0.82626-0.6011l0.24616,0.32629
	l-0.42172,0.30725l0.9484,1.32809c0,0-0.23089,0.16795-0.4637,0.33777h-0.00191l0.22707,0.33968c0,0,0.14885-0.11257,0.2538-0.18321
	c0.13358-0.09923,0.22135-0.16218,0.22135-0.16218l0.95221,1.32809c0,0-0.09923,0.06872-0.24425,0.17558
	c-0.14885,0.10115-0.33204,0.25763-0.54004,0.3759C60.57735,81.21874,60.16516,81.46297,60.16516,81.46297 M59.04313,82.07555
	c0.14502-0.0668,0.28814-0.13737,0.39691-0.18891c0.10495-0.06109,0.17173-0.09924,0.17173-0.09924l-0.96747-1.79758
	c0,0-0.06106,0.03436-0.15457,0.08968c-0.09732,0.04775-0.22707,0.10686-0.35683,0.16795
	c-0.26143,0.12212-0.52095,0.24237-0.52095,0.24237l0.85107,1.85477C58.46302,82.34459,58.75307,82.211,59.04313,82.07555
	 M49.83399,80.12911l-1.019-0.04385l-0.23662,3.25736l1.22509,0.0534L49.83399,80.12911z M52.85663,83.17274
	c0,0-0.15076,0.02295-0.37975,0.05725c-0.22707,0.03243-0.52668,0.0916-0.83771,0.09544l-0.0687-0.81482
	c0.00381,0.03243,1.16593-0.145,1.16593-0.145l-0.18319-1.21367c0,0-1.07242,0.16981-1.0877,0.1393l-0.10305-1.21938
	l-0.50949,0.02481l-0.50949,0.02866l0.0458,2.0399l0.57247-0.02866l0.0229,0.40456l-0.58773,0.03244l0.01717,0.81674
	l0.02099,0.81482c0,0,0.63735-0.03243,1.27661-0.0668c0.32058-0.00571,0.63354-0.0668,0.87207-0.09923
	c0.23471-0.03436,0.3931-0.05917,0.3931-0.05917L52.85663,83.17274z M45.73891,82.07747l0.56293-2.38721
	c0,0-0.24807-0.05917-0.49423-0.12025c-0.12595-0.03052-0.24998-0.06104-0.34158-0.08205
	c-0.09541-0.01904-0.15266-0.04385-0.15266-0.04385l-0.23853,0.78239c-0.25188-0.09161-0.50377-0.18128-0.50377-0.18128
	l-1.04953,3.09133c0,0,0.11449,0.04198,0.28242,0.10115c0.05725,0.01904,0.12213,0.04385,0.18892,0.06487
	c0.04389,0.01526,0.08777,0.03244,0.13358,0.0477c0.02098,0.00762,0.04198,0.01333,0.06679,0.01717
	c0.0458,0.01718,0.09159,0.02859,0.1393,0.04199c0.22517,0.06103,0.41027,0.10301,0.41027,0.10301v-0.00192
	c0.34158,0.0859,0.62209,0.15462,0.62209,0.15462l0.18701-0.79385c0,0-0.26715-0.0668-0.59536-0.14885l0.21181-0.78809
	L45.73891,82.07747z M44.8325,79.27044l-0.48088-0.16987c0,0-0.24044-0.08584-0.48087-0.17174
	c-0.22899-0.10686-0.46179-0.21558-0.46179-0.21558l-0.33585,0.7461l-0.48278-0.2309l-0.71368,1.46931l0.53049,0.25001
	l-0.66978,1.49034c0,0,0.29196,0.13545,0.58201,0.26904l0.60109,0.21564l1.28806-3.43672l0.49232,0.17173L44.8325,79.27044z
	 M42.48537,78.27625c0,0-0.05725-0.02865-0.14503-0.06871c-0.08205-0.0477-0.18891-0.11449-0.29959-0.18129l-0.43889-0.26334
	l-1.48461,2.44254L39.4818,81.2531l0.82054,0.49039c0.20609,0.12404,0.43127,0.2118,0.58965,0.29199
	c0.1641,0.07821,0.27097,0.12975,0.27097,0.12975l0.53431-1.10104c0,0-0.10114-0.0477-0.2538-0.12025
	c-0.09922-0.04961-0.28623-0.13737-0.28623-0.13737L42.48537,78.27625z M38.76431,80.81989
	c0.10114,0.063,0.17174,0.10307,0.17174,0.10307l2.22691-3.41954c0,0-0.05534-0.03436-0.13548-0.08398
	c-0.07633-0.05724-0.17937-0.13359-0.28432-0.20994c-0.20419-0.15071-0.41027-0.29764-0.41027-0.29764l-2.43872,3.2707
	c0,0,0.25761,0.19083,0.51522,0.37782C38.54105,80.65392,38.6689,80.75123,38.76431,80.81989 M39.53333,76.27834
	c0,0-0.28432-0.25385-0.57247-0.50763c-0.14693-0.12212-0.28623-0.25186-0.37973-0.36065
	c-0.09924-0.10493-0.16412-0.17551-0.16412-0.17551l-1.16975,1.13918c0,0,0.07251,0.07827,0.17937,0.19276
	c0.10305,0.1202,0.25953,0.26142,0.41791,0.3988c0.31677,0.27859,0.63163,0.55719,0.63163,0.55719l-0.26525,0.31295
	l-0.42936-0.38161c0,0-0.21563-0.19083-0.42935-0.38167c-0.20609-0.19846-0.39691-0.41411-0.39691-0.41411l-1.46362,1.42547
	c0,0,0.21373,0.23661,0.44462,0.45796c0.23662,0.21372,0.47515,0.42744,0.47515,0.42744l0.83199-0.91976l0.4408,0.4084
	l-0.79383,0.93501c0,0,0.47897,0.4236,0.48851,0.41219l2.54177-3.19633C39.91116,76.61989,39.53524,76.27834,39.53333,76.27834
	 M36.8618,75.96346l1.206-1.10104l-0.34921-0.37019l-0.31295-0.40077l-0.31486-0.40264l-0.3244,0.24622
	c-0.00191,0-0.33203-0.4084-0.31676-0.41795l-1.66971,1.17547c-0.01336,0.00955,0.35302,0.46943,0.35302,0.46943l-1.30523,0.98085
	l0.3931,0.50378l0.3969,0.50187l0.43508,0.46943l0.60301-0.55148l-0.41982-0.44846l0.31105-0.26521l0.41027,0.43694l0.603-0.54956
	l-0.39118-0.41982l-0.00191,0.00192l0.31105-0.26712L36.8618,75.96346z M32.86596,74.74216
	c0.12595,0.19468,0.22899,0.35494,0.22899,0.35494l0.00191-0.00192l0.3473,0.53815l0.99991-0.70604l-0.3244-0.50378l2.38911-1.57048
	l-0.2786-0.42744c-0.0687-0.10686-0.13739-0.21372-0.19082-0.29385c-0.0439-0.08398-0.07442-0.14122-0.07442-0.14122
	l-3.54359,2.02273c0,0,0.03625,0.07058,0.09159,0.17558c0.06488,0.1011,0.15075,0.23661,0.23471,0.37019v0.00187L32.86596,74.74216z
	 M32.57972,67.5634l1.5991-0.33014c0,0-0.12022-0.49802-0.10877-0.49994l-0.06488-0.50565l-0.06679-0.50571l-1.62391,0.17937
	l0.07442,0.55719l-1.20982,0.16987l-0.08205-0.59347l-1.21745,0.13359l0.08205,0.63353l0.08778,0.62969
	c0,0,0.00763,0.08013,0.03434,0.19847c0.02672,0.11641,0.06297,0.27289,0.09542,0.42936
	c0.0706,0.31104,0.1412,0.62399,0.1412,0.62399l2.38148-0.57245L32.57972,67.5634z M29.75744,64.25642l0.05534,1.27854
	l1.22127-0.09731l-0.02672-0.59924l1.22318-0.05724l0.02481,0.56104l0.81291-0.06295l-0.02099-0.53622l0.81673-0.03815
	c0,0-0.05343-1.01899-0.0229-1.01899l0.0229-0.5095l-4.0779-0.1966l-0.02862,0.63738l1.22318,0.02288
	c-0.01908,0,0,0.59918,0,0.59918L29.75744,64.25642z M29.88338,61.7051c-0.02099,0.1584-0.04198,0.3168-0.05915,0.43699
	c-0.00382,0.11833-0.00764,0.19846-0.00764,0.19846l1.62582,0.13167c0,0,0.00381-0.07442,0.00954-0.1832
	c0.01526-0.11065,0.03434-0.25565,0.05343-0.40071c0.04007-0.29193,0.08015-0.582,0.08015-0.582l-1.61628-0.23475
	C29.96926,61.07156,29.92536,61.39029,29.88338,61.7051 M31.91184,61.93414c-0.02099,0.14116-0.03817,0.2843-0.05152,0.39116
	c-0.00572,0.10878-0.00954,0.17936-0.00954,0.17936l1.22127,0.09924c0,0,0.00191-0.06872,0.00763-0.16789
	c0.01336-0.10115,0.03054-0.23282,0.04961-0.36449l0.07252-0.53238l-1.21173-0.17558L31.91184,61.93414z M33.62544,59.44006
	l0.7881,0.21943l0.47706-1.45406l-1.90823-0.73084c0,0-0.13358,0.41026-0.26906,0.82053
	c-0.0687,0.20225-0.13548,0.40648-0.187,0.56295c-0.05153,0.15071-0.08015,0.25565-0.08015,0.25565L30.47875,58.568
	l-0.14312,0.62399l-0.00191-0.00192l-0.14503,0.62212c0,0-0.14693,0.62207-0.13167,0.62585l1.206,0.21372
	c-0.01526-0.00379,0.12595-0.58578,0.12595-0.58771l0.39882,0.08584c0,0-0.13739,0.56866-0.12213,0.57251l0.80527,0.14308
	c-0.01527-0.00378,0.11831-0.54764,0.11831-0.54764l0.39692,0.08205c0,0-0.13167,0.53238-0.11258,0.53622l1.2041,0.21372
	c-0.00954-0.00192,0.05915-0.30341,0.10495-0.49808l0.00191,0.00192l0.1164-0.4961l-0.80337-0.19846l0.00954,0.00187
	L33.62544,59.44006z M30.6734,57.95927l1.55902,0.48661l0.3702-1.11636l-1.52659-0.58392L30.6734,57.95927z M39.08681,44.94509
	l-0.60492-1.05335l-0.97702,0.59347l0.65453,1.01899L39.08681,44.94509z M36.10805,43.43949l0.68124,1.00373l0.49805-0.29956
	l0.99228-0.6011l-0.60491-1.05335l-0.6049-1.05335l-1.09343,0.66405l0.65644,1.02283L36.10805,43.43949z M39.69744,44.58252
	c0.0935-0.04391,0.21563-0.10115,0.33775-0.1584l0.49042-0.23277l-1.75367-3.64666c0,0-0.29005,0.13737-0.5782,0.27859
	c-0.14311,0.06872-0.28814,0.13737-0.39882,0.18699c-0.10876,0.05154-0.17555,0.09737-0.17555,0.09737l1.92922,3.555
	C39.54859,44.66265,39.60585,44.62072,39.69744,44.58252 M42.76779,42.4014l0.00191,0.00192l0.52857-0.19083l-0.23853-0.77476
	l-0.54766,0.20039l-0.00191-0.00192h0.00191l-0.25952-0.76707l-0.51522-1.53233l-1.20601,0.43123l0.58964,1.50374
	c-0.11068,0.04198-0.21372,0.07821-0.30151,0.10872c-0.15838,0.05154-0.25951,0.10878-0.25951,0.10878l-0.62782-1.49221
	l-0.5801,0.27475l0.998,2.21164l0.52477-0.24994c0,0,0.09541-0.05346,0.24997-0.10308
	c0.08587-0.03051,0.1851-0.0668,0.29196-0.10494l0.14693,0.37783c-0.13548,0.0477-0.26906,0.09731-0.37019,0.12975
	c-0.10114,0.04007-0.1622,0.0725-0.1622,0.0725l0.46943,1.12015c0,0,0.05915-0.03436,0.15648-0.06866
	c0.09541-0.03244,0.22326-0.08019,0.34921-0.12404l0.5114-0.18129v-0.00192l0.5076-0.17936L42.76779,42.4014z M42.93953,41.05227
	l-0.59537-1.93304c0,0,0.11068-0.0477,0.28624-0.08584c0.17746-0.04583,0.40836-0.10308,0.64308-0.16219
	c0.10495-0.02673,0.2099-0.05154,0.31104-0.07634v-0.00192l0.21181-0.05154c0.23853-0.05917,0.41218-0.10302,0.41218-0.10302
	l0.62018-0.15269l0.32249,1.58579l-0.58392,0.14693l0.0916,0.39309l0.35875,1.57618
	c0.30722-0.07821,0.53431-0.13353,0.53431-0.13353l0.08015,0.39687c0,0-0.52477,0.13167-1.04763,0.26334
	c-0.26333,0.06487-0.52667,0.12788-0.72512,0.1775c-0.19655,0.04199-0.3225,0.09347-0.3225,0.09347l-0.12022-0.38546
	c0,0,0.12785-0.0534,0.33203-0.09731c0.05916-0.01334,0.12976-0.03051,0.20036-0.04962l-0.43889-1.55521
	c-0.11068,0.02673-0.21754,0.05346-0.30532,0.07442C43.04258,41.00842,42.93953,41.05227,42.93953,41.05227 M46.70066,42.28499
	L46.70066,42.28499l0.32441-0.0477l0.21181-0.03051v-0.00192l0.53621-0.07821l-0.24234-2.41587l-0.59537,0.0859l-0.20419-1.60483
	l-1.26897,0.18513l0.70414,3.98628L46.70066,42.28499z M48.85315,42.06748l-0.20609-4.03975l-0.64116,0.03052l0.30722,4.03403
	L48.85315,42.06748z M49.93512,42.01023l-0.00191-0.80527c0.08969-0.00192,0.1851,0,0.28051,0.00955
	c0.42172,0.02097,0.84153,0.04007,0.84153,0.04007l0.03625-0.80911l-0.86824-0.04199
	c-0.09923-0.00763-0.19846-0.00955-0.29196-0.00955v-0.40264c0.09541,0,0.19464,0,0.29577,0.00955
	c0.44271,0.0191,0.88543,0.04199,0.88543,0.04199l0.0954-2.02273c0,0-0.48087-0.0191-0.95983-0.04198
	c-0.10877-0.00955-0.21754-0.01147-0.32058-0.00955v-0.00192l-0.11641,0.00577c-0.07824,0.00192-0.15648,0.00763-0.22517,0.00955
	c-0.17938,0.00763-0.29769,0.01526-0.29769,0.01526l0.10495,4.04161L49.93512,42.01023z M53.17148,42.26973
	c0,0,0.26907,0.0382,0.53432,0.07634c0.13548,0.02097,0.26906,0.03815,0.3702,0.05154
	c0.10112,0.01141,0.16792,0.03244,0.16792,0.03244l0.46753-2.37959c0.29196,0.07064,0.58392,0.14122,0.58392,0.14122
	l0.17746-0.79001c0,0-0.30341-0.0725-0.60492-0.145l0.15839-0.79578c0,0-0.07824-0.02289-0.19845-0.03622
	c-0.11832-0.0191-0.2767-0.04199-0.43507-0.06301l-0.63544-0.09347l-0.17556,1.2022l-0.60492-0.08782l-0.14692,1.20412
	l0.57627,0.08397L53.17148,42.26973z M56.8124,41.40722h0.00191c0.27287,0.09352,0.54767,0.19083,0.54767,0.19083l0.12402-0.38546
	c0,0-0.27859-0.09544-0.55911-0.19276l0.23471-0.77475l0.5782,0.20039l0.37783-1.1545l-0.60492-0.20988
	c0,0-0.07633-0.02481-0.19082-0.06109c-0.1164-0.02859-0.27287-0.06674-0.42935-0.10494l-0.62209-0.15263l-0.97509,3.92525
	c0,0,0.26334,0.06295,0.52475,0.12783c0.13358,0.03051,0.26334,0.06295,0.36448,0.0859
	c0.09542,0.0343,0.15838,0.05532,0.15838,0.05532l1.02473,0.35494l0.40836-1.14303l-1.08197-0.37404L56.8124,41.40722z
	 M58.60423,41.59997L58.60423,41.59997v0.00192c-0.30722-0.10878-0.55911-0.19468-0.55911-0.19468l-0.13548,0.38167
	c0,0,0.24808,0.08397,0.54958,0.18891l-0.5782,1.51323c0,0,0.06298,0.02097,0.15838,0.0534
	c0.09923,0.02865,0.22327,0.08019,0.34539,0.1393c0.24425,0.11449,0.49233,0.22712,0.49233,0.22712l0.81481-1.85099
	c0,0-0.22326-0.10686-0.50759-0.23282c-0.00954-0.00379-0.01907-0.00763-0.03053-0.01334l0.15457-0.37212
	c0.30149,0.13167,0.54767,0.25,0.54767,0.25l0.65261-1.48079c0,0-0.43316-0.20609-0.87588-0.39314
	c-0.45416-0.15834-0.90832-0.31674-0.90832-0.31674l-0.54193,1.52657c0,0,0.25378,0.08782,0.56483,0.19468L58.60423,41.59997z
	 M61.13264,41.83274c-0.30532-0.14116-0.55721-0.25757-0.55721-0.25757l0.51903-1.09726c0,0,0.43318,0.20039,0.87016,0.40263
	c0.416,0.23853,0.8339,0.47898,0.8339,0.47898l-0.59728,1.05906l-1.3911,2.46356c0,0-0.23471-0.13551-0.46943-0.27289
	c-0.22709-0.14885-0.48087-0.24808-0.48087-0.24808l0.36255-0.72129c-0.2805-0.12975-0.50949-0.23282-0.50949-0.23282
	l0.51714-1.09912c0,0,0.24044,0.11065,0.53812,0.24616l0.36257-0.72322L61.13264,41.83274z M62.73174,42.72582l0.62209-1.04188
	c0,0,0.41408,0.24232,0.83007,0.48655c0.38929,0.28052,0.78237,0.56295,0.78237,0.56295l-0.70032,0.9904l-0.69841,0.99226
	c0,0-0.23471-0.17365-0.47134-0.33776l-0.22327,0.33584c0.23281,0.1641,0.4618,0.33205,0.4618,0.33205l-0.70033,0.99226
	c0,0-0.87014-0.63924-0.88732-0.61251l0.21563-0.3416h-0.00191c-0.23662-0.13737-0.47706-0.27667-0.47706-0.27667l0.83198-1.39111
	c0,0,0.25571,0.15077,0.50951,0.29956l0.43317-0.68123C62.96836,42.86512,62.73174,42.72582,62.73174,42.72582 M63.51412,46.67204
	c0.11258,0.07827,0.22326,0.15455,0.29387,0.22705l0.12595,0.11263l2.57038-3.12569c0,0-0.06106-0.05154-0.15265-0.13167
	c-0.08588-0.08205-0.21563-0.1775-0.34539-0.26904c-0.26143-0.19083-0.52095-0.37788-0.52095-0.37788l-2.41011,3.24786
	C63.07522,46.3553,63.29276,46.51364,63.51412,46.67204 M65.70858,47.50212l2.23647-2.33946l-0.47897-0.42558l-0.48087-0.42744
	l-2.38339,2.75549l-0.26334,0.30532l0.80908,0.71559l0.28242-0.29385l-0.41219-0.36257l0.27289-0.3034L65.70858,47.50212z
	 M67.66262,47.19679l-0.40836-0.4427l-1.71932,1.71169l0.36638,0.40071h0.00191l0.36639,0.39693l0.29959-0.27289l0.37592,0.40648
	l-0.30721,0.26334l0.18317,0.19846c0.08015,0.10686,0.16412,0.21559,0.16412,0.21559l0.3263,0.43321l0.31867-0.24808
	l-0.33204-0.4427l1.25372-1.02091l-0.17938-0.23661c-0.09923-0.10686-0.19846-0.21564-0.19846-0.21564l1.53423-1.31861
	l-0.87014-0.94072L67.66262,47.19679z M71.6432,49.57446l-1.68497,1.12207c0,0-0.01908-0.03244-0.04771-0.08013
	c-0.02672-0.04775-0.0668-0.10878-0.11258-0.16795c-0.0439-0.05724-0.11451-0.15263-0.17557-0.23853l0.32822-0.22898
	l1.32623-0.92931l-0.77094-1.02476l-0.38927-0.51136l-0.62591,0.51136l0.37592,0.49616l-0.64117,0.49616l0.36448,0.48277
	l-0.3244,0.23661l-0.35684-0.47129l-0.95984,0.7461l0.33585,0.44654l0.33965,0.44841c0,0,0.08398,0.11257,0.16984,0.22327
	c0.0439,0.05724,0.08205,0.11641,0.10877,0.16026c0.02671,0.04583,0.04389,0.07635,0.04389,0.07635l-0.67171,0.44846
	l0.55911,0.92739l3.47298-2.07234L71.6432,49.57446z M69.20256,53.35086c0.04962,0.08968,0.13358,0.20039,0.18701,0.32442
	c0.11641,0.24424,0.2309,0.48847,0.2309,0.48847l0.72322-0.36065l0.48087,1.01328l0.7423-0.32629l-0.49804-1.04956l0.71941-0.36257
	l0.51712,1.08578l0.74039-0.32436l-0.53239-1.12399l0.72322-0.36257c0,0-0.13739-0.28814-0.27669-0.57815
	c-0.06487-0.14885-0.15839-0.28052-0.21563-0.38359c-0.06489-0.10302-0.10496-0.17173-0.10496-0.17173l-3.52451,1.98843
	C69.11479,53.20778,69.14913,53.26503,69.20256,53.35086 M74.32045,56.03193l0.38356-0.12596l-0.43316-1.20977l-0.21564-0.60302
	l-0.74993,0.30725l0.208,0.58578l-1.88534,0.72322l-0.19082-0.53617l-1.12396,0.46174l0.18129,0.50763l0.37782-0.14314h-0.00191
	l0.37211,1.03809l1.92351-0.62975c0,0,0.04961,0.14314,0.09923,0.28244c0.05152,0.14122,0.09731,0.28622,0.09731,0.28622
	l1.16212-0.34918c0,0-0.0458-0.15077-0.09924-0.29962C74.37197,56.18078,74.32045,56.03193,74.32045,56.03193 M73.22513,60.04116
	l-0.79574,0.13353l-0.08205-0.55527l-0.79383,0.15456l0.07633,0.53815l0.07824,0.5343l1.60291-0.2309l2.40247-0.3416
	l-0.18892-1.27086l-2.38148,0.4618L73.22513,60.04116z M75.80696,60.90746l-4.01873,0.47327c0,0,0.08777,0.5343,0.07061,0.53622
	l0.02479,0.54193l0.02672,0.54001l0.80719-0.03436l-0.02862-0.56103l2.828-0.1927l-0.03245-0.62975l0.40265-0.03622
	C75.90429,61.54292,75.80696,60.90746,75.80696,60.90746 M75.96918,63.22409c-0.00955-0.23853-0.01718-0.39693-0.01718-0.39693
	l-0.40454,0.01526c0,0,0.00763,0.15648,0.01907,0.395c0.00191,0.07064,0.00574,0.15077,0.00955,0.23661l-0.40264,0.00763
	c-0.00573-0.08392-0.01145-0.16218-0.01336-0.23468c-0.00954-0.23282-0.01718-0.38738-0.01718-0.38738l-0.80717,0.03628
	c0,0,0.00572,0.14885,0.01717,0.3759c0,0.0668,0.00572,0.145,0.01144,0.22519l-0.40454,0.00571l-0.03053-0.59155l-0.8072,0.03622
	l0.02863,0.57058l-1.21364,0.02288c0,0,0.03054,0.54193,0.01336,0.54193l0.80718,0.00385l-0.02672,0.56104l-0.40263-0.0134
	l-0.05152,1.10104l0.80528,0.0668l0.80717,0.06487l0.05534-1.18309l0.40264,0.01339
	c-0.01526,0.34539-0.02672,0.59917-0.02672,0.59917l0.8091,0.04578c0,0,0.01144-0.26526,0.02672-0.62014l0.40454,0.01334
	c-0.01526,0.36064-0.02863,0.62782-0.02863,0.62782l0.40454,0.02481l0.05917-1.28233
	C76.01305,63.78699,75.9749,63.46455,75.96918,63.22409 M74.28229,66.08645c0,0.11256-0.01527,0.26141-0.04008,0.41026
	l-2.41392-0.25378l-0.15648,1.07431l0.40075,0.05917l-0.05536,0.3893c-0.04769,0.31482-0.10686,0.70219-0.12593,0.69841
	l1.58575,0.32437c0.02098,0.00576,0.11068-0.57816,0.11068-0.57816l1.99029,0.35873l0.09349-0.63354l-0.80145-0.12404
	l0.08969-0.61443l0.80146,0.10301c0,0,0.04578-0.31673,0.08968-0.63353c0.02671-0.1584,0.04198-0.31866,0.04389-0.43886
	c0.00572-0.12218,0.00954-0.20039,0.00954-0.20039l-1.61246-0.12975C74.29182,65.89754,74.28801,65.97196,74.28229,66.08645
	 M75.06084,69.11669l-1.18884-0.24615l-0.14311,0.58584l-2.36239-0.54578l-0.25571,1.05148l0.38928,0.11257
	c0,0-0.02672,0.13545-0.07061,0.26526l-0.08968,0.26141l0.77283,0.23853c0,0,0.0458-0.13551,0.09351-0.26904
	c0.04578-0.13744,0.0725-0.27481,0.0725-0.27481l2.72496,0.76899l0.30341-1.24413l-0.395-0.09353L75.06084,69.11669z
	 M72.88546,71.08031l-0.38737-0.12025l-0.19083,0.5477l-1.5323-0.51718l-0.17747,0.51334l1.52086,0.55533l0.37784,0.1393
	l-0.19083,0.55911l1.88343,0.73847l0.62782-1.81664L72.88546,71.08031z M70.69099,75.2364l2.13342,1.15643l-0.64689,1.1106
	l-1.03619-0.63168l-0.30721,0.53052l-2.37958-1.53425l0.27097-0.46938c0.08205-0.14314,0.17557-0.30532,0.26906-0.46757
	c0.13931-0.23468,0.2748-0.46558,0.37785-0.64116c0.10686-0.17174,0.16029-0.29764,0.16029-0.29764l0.7194,0.36827
	c0,0-0.05534,0.12783-0.16602,0.30719c-0.03245,0.05538-0.0687,0.11641-0.10495,0.18129l0.35493,0.19467
	c0.03815-0.06487,0.07442-0.1298,0.10876-0.18513c0.11259-0.18128,0.16792-0.31481,0.16792-0.31481l0.36257,0.18699
	c-0.00191-0.00192-0.05916,0.13167-0.17555,0.31866C70.76732,75.10666,70.73106,75.16961,70.69099,75.2364 M71.17569,77.61983
	c0,0-0.05916,0.10302-0.16411,0.24232c-0.05535,0.07826-0.12213,0.16981-0.19274,0.26717L69.14532,76.992l-0.66597,0.92931
	l-0.3263-0.24616l0.65642-0.91213l-0.66597-0.45039l-0.9503,1.31483l0.31676,0.24994v0.00192l0.95221,0.75565l0.33776-0.46943
	v-0.00192h0.00191l1.28806,0.97322l0.64689,0.49039c0,0,0.28242-0.39116,0.56293-0.78233
	c0.14313-0.19468,0.28052-0.39122,0.38547-0.53622c0.10877-0.14314,0.16983-0.25,0.16983-0.25L71.17569,77.61983z
	 M68.38966,79.33339l-1.5514-1.29758l-0.35683,0.40456l0.91022,0.80143l-0.37974,0.42744l-0.37593,0.42744l1.1583,1.12778
	l0.87206,0.84725l0.42744-0.48084l-0.89306-0.82437l0.40456-0.45609l0.91213,0.80148l0.42363-0.48277
	c0,0,0.43125-0.4752,0.41982-0.48469l-1.58193-1.25944C68.78658,78.89453,68.39157,79.33147,68.38966,79.33339 M65.93567,80.20167
	c0.208-0.18891,0.416-0.37782,0.54576-0.54385c0.1412-0.15647,0.2347-0.26141,0.2347-0.26141l-0.59537-0.54962
	c0,0-0.08777,0.10116-0.22326,0.25379c-0.12404,0.16032-0.32632,0.34161-0.52667,0.52289
	c-0.39882,0.36828-0.79573,0.73469-0.79573,0.73469l-0.395,0.3702c0.00953,0.01334-0.42936,0.33199-0.42936,0.33199l1.51896,1.89297
	c0,0,0.48469-0.35686,0.47324-0.37019l0.44462-0.40834l0.26715,0.30148l-0.45034,0.41603l0.78237,0.92547l0.47515-0.43315
	l0.94077-0.87206L65.93567,80.20167z M65.26207,84.98752l1.0228-0.77283l-0.76139-0.94649l-0.4866,0.36827l-1.71741-2.2517
	l-0.43316,0.32821l0.71368,0.98085l-0.00191-0.00192l-0.45607,0.34731c0,0-0.10877,0.09347-0.23281,0.16597l-0.24425,0.14507
	l1.54757,2.37003l0.27478-0.16603c0.13931-0.08012,0.26143-0.18513,0.26143-0.18513l-0.68887-0.99796l0.49233-0.36065
	L65.26207,84.98752z M63.45114,85.71073l-0.53812,0.32437l-0.20228-0.34917l0.52858-0.32059l-1.27851-2.06471
	c0.24044-0.14314,0.48278-0.29006,0.66216-0.39693c0.09159-0.0534,0.16602-0.10115,0.21181-0.1393
	c0.04962-0.03814,0.07824-0.05917,0.07824-0.05917l-0.45988-0.66789c0,0-0.02481,0.02294-0.07442,0.05917
	c-0.0458,0.0382-0.11641,0.08205-0.20609,0.13359c-0.17174,0.10493-0.40454,0.24423-0.63735,0.38545
	c-0.4637,0.28244-0.9274,0.56296-0.9274,0.56296s-0.11449,0.07058-0.2309,0.1393c-0.12021,0.05724-0.24425,0.11449-0.24425,0.11449
	l0.37592,0.71938c0,0,0.12404-0.0591,0.24999-0.12212c0.12212-0.0725,0.24044-0.145,0.24044-0.145l0.19845,0.35494
	c0,0-0.12403,0.07442-0.24425,0.14692c-0.13167,0.06296-0.25952,0.12405-0.25952,0.12405l0.74995,1.4331
	c0,0,0.13739-0.0668,0.27478-0.13167c0.05343-0.03058,0.15838-0.09161,0.26715-0.15077l0.19082,0.34731l0.19656,0.35488
	l0.19463,0.35116l1.09723-0.66027L63.45114,85.71073z M59.62704,86.35953c0,0-0.0687,0.03243-0.16983,0.08013
	c-0.09924,0.05346-0.24044,0.10307-0.38356,0.15456l-0.9045-2.25363l-1.02091,0.36257l0.26524,0.76334v0.00186l-0.52857,0.18891
	l0.73657,2.31279c0.01146,0.05346-1.80137,0.48853-1.80137,0.48853l0.187,0.78617c0,0,1.56475-0.37399,1.85863-0.50187
	l0.60299-0.21372l-0.39691-1.14874l0.57629-0.20609l0.42554,1.13732c0,0,0.30151-0.10878,0.603-0.21564
	c0.15266-0.05346,0.3034-0.10878,0.41026-0.1641c0.10877-0.05346,0.17938-0.08782,0.17938-0.08782L59.62704,86.35953z
	 M56.91545,87.76589l-0.79192-2.71735l-1.05145,0.25955l0.18701,0.78809c-0.00763,0.00191-0.27478,0.07058-0.54384,0.13551
	l-0.16793-0.79193c0,0-0.25951,0.08205-0.53049,0.10878l-0.5343,0.07629l0.19273,1.19841l0.56485-0.08205l0.29577,1.59144
	l-0.60491,0.08776l0.19082,1.20027c0,0,0.31677-0.04769,0.63544-0.09538c0.31867-0.03436,0.6259-0.12596,0.6259-0.12596
	l-0.24807-1.1888l0.59155-0.14693L56.91545,87.76589z M53.73823,87.22396l-0.57438,0.08398l-0.21754-1.60291
	c0,0-1.07051,0.16411-1.07242,0.13167l0.34156,4.03206c0,0,0.32058-0.00378,0.63735-0.06487
	c0.31868-0.04385,0.63544-0.08968,0.63544-0.08968l-0.21754-1.60676l0.59538-0.08583L53.73823,87.22396z M51.47889,88.28302
	L51.35675,86.266l-0.55339,0.02673l-0.01335-0.40456c0,0-0.26907,0.01339-0.53812,0.02673
	c-0.13548,0.01147-0.27097,0.01334-0.37211,0.00385c-0.10304-0.00577-0.16983-0.00955-0.16983-0.00955l-0.04007,2.83178
	c-0.09732-0.00378-0.20037-0.00949-0.30341-0.01526c-0.45988-0.02096-0.91786-0.04198-0.91786-0.04198l-0.07633,1.21175
	l0.95985,0.04578c0.1412,0.00768,0.28051,0.01147,0.40837,0.01718c0.03244,0.00191,0.0706,0.00191,0.11258,0.00576
	c0.04962,0.00186,0.09732,0.00378,0.13931,0.00571h0.05152h0.03626c0.12976-0.00385,0.21372-0.01147,0.21372-0.01147
	c0.32058-0.01142,0.63926-0.02667,0.63926-0.02667l-0.05534-1.61823L51.47889,88.28302z M49.0745,88.30782l0.09541-2.42535
	l-1.08387-0.04962l-0.10495,1.21175c-0.00382,0.01526-0.56866-0.0668-0.56866-0.0668l-0.31867,2.81466
	c0,0,0.63735,0.08584,0.63735,0.0725l0.14312-1.61246L49.0745,88.30782z M46.34764,86.41485l1.11059,0.16032l0.08969-0.80341
	l-1.07243-0.15455l0.00191-0.00192c0,0-0.2309-0.03052-0.48087-0.06674l-0.05534-0.00768
	c-0.13548-0.01141-0.26524-0.05911-0.36448-0.08013c-0.09922-0.02481-1.21746-0.29578-1.21746-0.29578l-0.41599,1.56477
	l0.56484,0.13737l-0.18701,0.78623c-0.33585-0.08019-0.58583-0.14314-0.58583-0.14314l-0.10304,0.39122l-0.31104,1.17355
	l0.62208,0.15071l0.62399,0.15077l0.16983-0.79002c0.2996,0.07827,0.603,0.14507,0.83581,0.16988
	c0.23089,0.03243,0.38356,0.0534,0.38356,0.0534l-0.12976,0.80148l0.63544,0.08968l0.21945-1.60291l-0.59537-0.08589
	L46.34764,86.41485z M42.70482,86.79081l0.24807-0.76904l0.00191-0.00192l0.53813,0.18513l0.11259-0.3893l-0.53049-0.18129
	l0.12403-0.38545L43.72,85.42829l0.11259-0.38924l-1.53613-0.53052l-0.14121,0.37975l-0.28623,0.75758h0.00191l-0.14121,0.37975
	l0.54957,0.19078l-0.13166,0.38167c-0.30723-0.10686-0.56103-0.19654-0.56103-0.19654s-0.2786-0.09544-0.5553-0.19276
	c-0.00763-0.00378-0.01526-0.00763-0.02098-0.00955l-0.51904-0.23853l-0.32059,0.74424l-0.47897,1.11251l0.58201,0.26713
	l0.45416-1.12585c0.28815,0.10116,0.57248,0.20039,0.57629,0.20039l-0.14312,0.38161l-0.28241,0.75758
	c0,0,0.45415,0.15839,0.91022,0.3168c0.22709,0.07629,0.45417,0.15456,0.624,0.21372
	c0.16983,0.05917,0.28623,0.09347,0.28623,0.09347l0.11068-0.38738c0,0-0.11068-0.0343-0.2786-0.09347
	c-0.09159-0.03051-0.20037-0.06871-0.31676-0.10878l0.12212-0.38545c0.11449,0.04006,0.22136,0.07634,0.31295,0.10686
	c0.1622,0.05917,0.27479,0.09353,0.27479,0.09353l0.34158-1.16598c0,0-0.10686-0.03244-0.26524-0.08584
	C42.91663,86.86518,42.81359,86.82896,42.70482,86.79081 M41.18014,85.83285l0.6049-1.50175l-1.47697-0.67744l-0.17747,0.36449
	c-0.08205-0.0382-0.16601-0.07635-0.24998-0.11642c-0.19273-0.07826-0.36638-0.19083-0.50186-0.26717
	c-0.13358-0.08013-0.22326-0.12975-0.22326-0.12975l-0.58773,1.06098c0,0,0.0935,0.05532,0.23661,0.13551
	c0.14121,0.08205,0.32441,0.20225,0.52858,0.28622c0.08778,0.03814,0.17747,0.07821,0.26143,0.11827l-1.07052,2.1792
	l0.58392,0.26718l1.01709-2.20209L41.18014,85.83285z M37.85981,84.6211l1.02472-1.74413l-0.46752-0.27097
	c0,0-0.47324-0.26521-0.4637-0.28052l-0.44461,0.67552c-0.00573,0.01339,0.35875,0.21948,0.48278,0.28815l-1.06861,1.72316
	l-0.00191,0.00192c-0.14503-0.08398-0.52858-0.30917-0.52095-0.32064l-0.66597,1.01713
	c-0.00763,0.01334,0.54766,0.33013,0.54766,0.33013l1.11059,0.64687l0.5553,0.32058l0.3721-0.71558l-0.53622-0.31296
	l0.19655-0.35302l0.52668,0.30533l0.37592-0.71559l-0.5114-0.29769L37.85981,84.6211z M36.13667,84.00475l0.4847,0.35116
	l0.66788-1.01521l-0.46561-0.33392l0.4637-0.66597l-0.45034-0.3225l0.23853-0.32635c0,0-0.21945-0.15834-0.43699-0.31674
	c-0.06297-0.04391-0.12403-0.08775-0.17938-0.12596l-0.04198-0.03243c-0.03817-0.02097-0.07251-0.04962-0.10686-0.07635
	c-0.00763-0.00571-0.01336-0.00949-0.02099-0.01526c-0.02863-0.02289-0.05343-0.04769-0.08014-0.06866
	c-0.00191-0.00192-0.00382-0.00577-0.00382-0.00577h-0.00191c-0.07824-0.06866-0.14884-0.1393-0.21372-0.19077
	c-0.11258-0.10116-0.18891-0.16988-0.18891-0.16988l-1.04762,1.23463c0,0,0.08205,0.0725,0.20227,0.17937
	c0.12785,0.10307,0.2767,0.26718,0.45798,0.38545c0.08205,0.05724,0.16029,0.11642,0.23661,0.16988l-0.24425,0.32058
	c-0.00191-0.00192-0.06107-0.04391-0.15075-0.10878c-0.08587-0.0668-0.21563-0.145-0.32059-0.24809
	c-0.22326-0.19654-0.44271-0.39116-0.44271-0.39116l-0.26334,0.3091c0,0,0.22517,0.19847,0.45225,0.39693
	c0.10686,0.10493,0.23662,0.1832,0.32631,0.25186c0.08969,0.0668,0.15075,0.10686,0.15075,0.10878l-0.24425,0.32251
	c-0.08014-0.05725-0.16411-0.11834-0.24807-0.17937c-0.19273-0.12788-0.34921-0.29578-0.48278-0.40456
	c-0.12976-0.11449-0.21564-0.19083-0.21564-0.19083l-0.78619,0.92739c0,0,0.08969,0.08018,0.22517,0.19654
	c0.14121,0.11641,0.30722,0.29006,0.50759,0.42365c0.08778,0.0668,0.17556,0.12783,0.25952,0.18892l0.12976,0.09352
	c0.22135,0.16219,0.39119,0.2843,0.39119,0.2843l0.51904,0.37405L36.13667,84.00475z M32.66559,79.9059
	c0.21563,0.23468,0.395,0.42744,0.395,0.42744l-0.58201,0.56098c0,0-0.30722-0.332-0.61445-0.66213
	c-0.0687-0.07635-0.1374-0.15077-0.20419-0.22135l-0.30341,0.26526c0.41409,0.45033,0.83009,0.89874,0.83009,0.89874
	l-0.29196,0.28052c0,0-0.42172-0.45603-0.84344-0.91212h-0.00191l-0.30341,0.26526c0,0-0.00381-0.00192-0.00954-0.00955
	c0.00191,0.00385,0.00572,0.00763,0.00954,0.00955c0.42936,0.46558,0.8568,0.92738,0.8568,0.92738l-0.29005,0.28244
	c0,0-0.43508-0.47327-0.87016-0.94456c-0.22135-0.23475-0.43889-0.46757-0.57247-0.6679
	c-0.14693-0.19083-0.24234-0.31866-0.24234-0.31866l0.31677-0.25l0.31677-0.25187l0.08205-0.06493l1.18692-0.93694
	c0,0,0.17556,0.23283,0.35112,0.46564l1.24417-1.03431c0,0,0.03817,0.05538,0.11068,0.12788
	c0.0687,0.07442,0.1622,0.17558,0.2538,0.27289c0.1851,0.19846,0.36829,0.39693,0.36829,0.39693L32.66559,79.9059z
	 M32.14846,76.71341l-0.65643,0.46943l-0.33776-0.44846l0.66789-0.45225l-0.56293-0.92739l-1.03808,0.63161l0.59346,0.97701
	l0.00382-0.00187l-1.67734,1.13348l-0.64689-1.05719l-0.69078,0.41982l0.66789,1.09155l0.77093,1.02849l2.26508-1.70215
	l0.34158,0.4561l0.9522-0.75187L32.14846,76.71341z M29.15825,77.35073l1.02091-0.65834l-0.603-0.99226l1.39874-0.80527
	c0,0-0.1374-0.23283-0.28052-0.46564l-0.23471-0.48847l-0.35875,0.1832l-0.24235-0.49424l-0.72704,0.3511l0.24616,0.51334
	l-0.35875,0.18507l-0.50759-1.04765l-0.36829,0.16795l0.51522,1.0629l-0.35684,0.18507l-0.52667-1.08387l-0.73849,0.33392
	l-0.73658,0.33205l0.28051,0.57821l0.72895-0.35116l0.26906,0.55911l-0.7194,0.3702c0,0,0.14121,0.28815,0.28242,0.57629
	c0.16411,0.27288,0.32822,0.54961,0.32822,0.54961l1.05526-0.60686L29.15825,77.35073z M28.80333,73.30528
	c0.04579,0.09539,0.07824,0.16032,0.07824,0.16032l1.10487-0.49808c0,0-0.03053-0.06103-0.07251-0.15263
	c-0.04008-0.09161-0.1145-0.20802-0.15457-0.33968h0.00191l-0.11259-0.30148c-0.04389-0.12025-0.07632-0.20422-0.07632-0.20422
	l-0.19083-0.50758l-0.18701-0.50565l-1.91778,0.64303l0.20609,0.55533l-1.9006,0.69078l0.45034,1.20219l2.61047-1.10104
	C28.68502,73.08393,28.75943,73.20605,28.80333,73.30528 M28.88347,69.9201l-0.28242-1.04572c0,0-0.04389-0.12788-0.06297-0.26334
	c-0.0229-0.13359-0.0458-0.26718-0.0458-0.26718l-1.18883,0.24238c0,0,0.0248,0.14121,0.0477,0.28051
	c0.01145,0.07629,0.04007,0.187,0.06679,0.27859l-0.3931,0.08968c-0.04389-0.13737-0.07251-0.28052-0.08777-0.3893
	c-0.01717-0.10686-0.03053-0.17744-0.03053-0.17744l-0.39691,0.08013c0,0,0.01336,0.0725,0.03244,0.18129
	c0.01336,0.1107,0.04389,0.25378,0.08778,0.39693l-0.39501,0.08968c-0.04389-0.14314-0.07252-0.29006-0.08969-0.40263
	c-0.01717-0.1107-0.03053-0.18513-0.03053-0.18513l-0.39501,0.08019c0,0,0.01145,0.07442,0.03053,0.18891
	c0.01718,0.11065,0.04771,0.26334,0.09159,0.40834l-1.18501,0.27289l0.33203,1.23842l0.78047-0.21943
	c0,0,0.08015,0.29962,0.1622,0.6011c0.03817,0.14884,0.08205,0.29769,0.12785,0.40456
	c0.03817,0.11064,0.06679,0.18314,0.06679,0.18314l0.76902-0.25757c0,0-0.02672-0.07064-0.06679-0.17558
	c-0.0439-0.10493-0.08778-0.25-0.12404-0.395c-0.07632-0.28815-0.15648-0.57821-0.15648-0.58008l0.38928-0.1107l0.15457,0.57059
	l1.93113-0.59731L28.88347,69.9201z M28.30909,67.27718L28.30909,67.27718c0,0-0.01336-0.07827-0.03244-0.19083
	c-0.00381-0.02673-0.00954-0.04962-0.01336-0.07635c0,0-0.00191-0.00378-0.00191-0.00571
	c-0.00954-0.0668-0.0229-0.13737-0.03626-0.2118c-0.00191-0.02103-0.00764-0.04391-0.00954-0.0668
	c-0.02289-0.26526-0.04198-0.52097-0.04198-0.52097l-0.40454,0.04007l-0.40264,0.04198c0,0,0.02481,0.27866,0.04962,0.55911
	l-2.40819,0.30346c-0.03625-0.2748-0.0458-0.54007-0.06679-0.75187c-0.02289-0.29198-0.03625-0.48469-0.03625-0.48469
	l-0.80718,0.06296c0,0,0.01526,0.19846,0.03816,0.49808c0.03244,0.29956,0.03816,0.70219,0.12022,1.0972
	c0.13739,0.79002,0.27287,1.58002,0.27287,1.58002l0.79383-0.16218c0,0-0.04579-0.25379-0.10686-0.61257l2.38911-0.42552
	l-0.09541-0.54764l0.40073-0.06301c0.05152,0.29769,0.0935,0.54007,0.0935,0.54007l0.39691-0.06872
	C28.40068,67.81148,28.35871,67.57294,28.30909,67.27718 M25.35514,66.48908l0.80528-0.08013l-0.0935-1.17739l-0.80718,0.04199
	L25.35514,66.48908z M28.08774,65.12849c-0.01145-0.13737-0.0229-0.27289-0.03054-0.37212
	c-0.00763-0.1011-0.00191-0.16982-0.00191-0.16982l-0.40454,0.01147l0.01526-1.10297l-2.42537-0.05532l0.00763-0.61065
	l-1.21363-0.05725l-0.00954,0.64309l-0.00381,0.35489l-0.00191,0.28436l-0.00764,0.64116l3.23636-0.08776
	c0,0-0.00572,0.0725,0,0.17552c0.00954,0.10686,0.01909,0.24424,0.03244,0.38545c0.02099,0.27859,0.04198,0.55911,0.04198,0.55911
	l0.80718-0.06295L28.08774,65.12849z M26.09172,62.27953c0,0-0.01527,0.145-0.03053,0.29193
	c-0.00191,0.14693-0.00382,0.29385-0.00382,0.29385l2.01701,0.09545l0.00572-0.27097c0.01717-0.13359,0.02862-0.2691,0.02862-0.2691
	l-0.40454-0.02859l0.05915-0.5477l0.40264,0.0382l0.11067-1.07816l-1.20028-0.17558l-0.05915,0.56866l-2.81274-0.33968
	l-0.13167,1.27662L26.09172,62.27953z M25.30553,55.8602l-0.17938,0.61443l0.77666,0.23282l-0.17556,0.59726l-0.78047-0.21558
	c0,0-0.08969,0.30911-0.17938,0.61822c-0.04962,0.15269-0.06679,0.31109-0.0935,0.42744
	c-0.02481,0.11641-0.04007,0.1966-0.04007,0.1966l2.36812,0.52667c0,0,0.01526-0.07256,0.03434-0.17942
	c0.02671-0.10494,0.04199-0.25187,0.08778-0.38924c0.08205-0.27673,0.1622-0.55533,0.1622-0.55725l1.56094,0.42744l0.15266-0.52091
	l0.14884-0.51905L25.30553,55.8602z M29.72119,55.59878l-1.49606-0.61636l0.21181-0.54007l-1.48079-0.65258l-0.22708,0.57816
	l-0.74803-0.30911l-0.46752,1.19265l3.81075,1.35675L29.72119,55.59878z M28.88157,54.44236
	c-0.05343,0.09161-0.07442,0.16224-0.07442,0.16224l0.7404,0.32629c0,0,0.02099-0.06872,0.0706-0.1584
	c0.0458-0.09347,0.10877-0.21564,0.16983-0.33584l0.36638,0.16982l0.48469-0.96745l-1.42735-0.76136
	c0-0.00192,0.25379-0.52289,0.26715-0.51526l-1.41019-0.7938c-0.01336-0.00763-0.28623,0.54764-0.28623,0.54764l-0.71177-0.37975
	l-0.57629,1.1488l2.56277,1.20406C28.99224,54.21914,28.92927,54.34505,28.88157,54.44236 M28.88919,50.2462
	c-0.24425,0.39687-0.49232,0.7938-0.49232,0.7938l0.69269,0.41411c0,0,0.24044-0.38359,0.47897-0.76712
	c0.05343-0.0859,0.10687-0.16982,0.15838-0.25379l1.00946,0.6736c-0.04962,0.07821-0.09923,0.16026-0.15075,0.24232
	c-0.22517,0.36449-0.45225,0.72898-0.45225,0.72898l0.6946,0.41411c0,0,0.21754-0.35116,0.43508-0.70226
	c0.04962-0.07827,0.09923-0.1584,0.14693-0.23282l0.33585,0.22327c0,0,0.03434-0.05725,0.08969-0.14314
	c0.04961-0.08968,0.12785-0.20033,0.21181-0.30527c0.16602-0.21372,0.33012-0.42936,0.33012-0.42936l-3.24972-2.4101
	c0,0-0.19464,0.25571-0.38737,0.51328c-0.09732,0.12404-0.19464,0.25571-0.25379,0.35878
	c-0.06297,0.10302-0.10495,0.16981-0.10495,0.16981l0.6717,0.45033C28.99988,50.07062,28.94644,50.15838,28.88919,50.2462
	 M32.70376,50.46941l0.32822-0.42931c0.07633-0.1107,0.16601-0.21372,0.23662-0.28628
	c0.0706-0.0725,0.11449-0.12212,0.11449-0.12212l-2.14104-1.85285c0,0-0.05343,0.05532-0.12976,0.14116
	c-0.08014,0.08398-0.17938,0.19847-0.27097,0.32058v0.00192l-0.31104-0.25571v-0.00192
	c0.08969-0.1259,0.19274-0.24424,0.27479-0.32821c0.07824-0.08584,0.12976-0.14116,0.12976-0.14116l-0.61255-0.53052
	c0,0-0.05534,0.06109-0.13548,0.14693c-0.08205,0.08782-0.18891,0.20994-0.28242,0.33968
	c-0.19273,0.25571-0.38928,0.50949-0.38928,0.50949l0.63927,0.49802L32.70376,50.46941z M31.98817,46.37056
	c0.0706-0.07827,0.14121-0.15648,0.20991-0.22712l0.57247,0.57251c-0.0687,0.07058-0.13548,0.145-0.20609,0.22135
	c-0.30532,0.33199-0.60873,0.66213-0.60873,0.66213l0.89686,0.81674c0,0,0.28815-0.31674,0.58011-0.62969
	c0.14502-0.16032,0.28814-0.3168,0.41218-0.41982c0.12022-0.10686,0.20036-0.1775,0.20036-0.1775l-0.55721-0.58584l-1.11441-1.17547
	l-0.2786-0.29385c0,0-0.08778,0.08013-0.22136,0.20231c-0.1412,0.11449-0.30341,0.29193-0.4637,0.46751
	c-0.32821,0.35494-0.65261,0.70796-0.65261,0.70796l0.59918,0.5438C31.35654,47.05558,31.6714,46.7121,31.98817,46.37056
	 M34.47078,46.80755l-1.89869-2.10478l0.47897-0.4275l0.47706-0.42552l2.04754,2.50555l0.2557,0.31295l0.2557,0.31103
	c0,0-0.603,0.54385-1.20601,1.08957c-0.31485,0.25955-0.58201,0.56488-0.78619,0.79001l-0.34348,0.37404l-0.29959-0.27289
	c0,0,0.13931-0.15269,0.34921-0.37975l0.0229-0.02673l-0.29196-0.27859c-0.04007-0.04007,1.01708-0.99989,1.62581-1.54567
	l-0.26334-0.30725L34.47078,46.80755z M35.49169,71.08601c-0.02672,0.01334-0.41409-0.93123-0.41409-0.93123l-0.75375,0.31103
	l-0.20799-0.49423l-0.7633,0.28814l0.21754,0.51713l-2.26316,0.93886c0,0,0.4885,1.17931,0.51713,1.16598l0.29577,0.56482
	l1.08388-0.57245l-0.28051-0.53052l1.10296-0.54001l0.26143,0.49802l0.36065-0.1927L35.007,71.9218l-0.24807-0.47514
	L35.49169,71.08601z M34.71313,69.20259l-0.15266-0.48853l-0.15648-0.48469l-0.395,0.10686c0,0-0.03244-0.1259-0.05916-0.25571
	c-0.02862-0.12782-0.05724-0.25571-0.05724-0.25571l-0.79383,0.19276c0,0,0.03053,0.13359,0.06106,0.26712
	c0.02863,0.13359,0.06107,0.26526,0.06107,0.26718L30.4654,69.3056l0.19274,0.60686l0.19273,0.6106
	c0,0,0.19655,0.60686,0.20991,0.60302l0.7633-0.29007c-0.00954,0.00385-0.1145-0.3225-0.19655-0.58008l0.38165-0.12975
	c0,0,0.18319,0.57053,0.19654,0.56674l0.76521-0.28815c-0.01336,0.00378-0.18892-0.54385-0.18892-0.54385L34.71313,69.20259z
	 M36.55076,55.00339l-2.38147-1.58189l-0.31105,0.51328l-1.03999-0.64687l-0.33012,0.54572l2.47498,1.43118l-0.28433,0.46757
	l1.07815,0.582l0.28242-0.4618l0.24806-0.41219L36.55076,55.00339z M64.74493,50.10114
	c-0.10686-0.11827-0.21372-0.23661-0.29386-0.32629c-0.08587-0.08205-0.14694-0.13551-0.14694-0.13551l-0.86442,0.86636
	c-0.22135-0.20417-0.4389-0.40834-0.4389-0.40834l-0.00381,0.00379l0.0019-0.00379l0.83772-0.89309
	c0,0-0.23471-0.21751-0.47134-0.43315c-0.11831-0.10686-0.23471-0.21564-0.3244-0.2977
	c-0.08779-0.08397-0.15457-0.12596-0.15457-0.12596l-1.81665,2.20593c0,0,0.05726,0.0382,0.13358,0.10878
	c0.07633,0.06872,0.17556,0.16411,0.2767,0.25571c0.12785,0.1202,0.29768,0.27475,0.40263,0.3702l-0.83771,0.89687l0.37592,0.34539
	c0.09731,0.08013,0.18319,0.17558,0.24616,0.24808c0.00381,0.00763,0.00763,0.01334,0.01335,0.01718
	c0.02099,0.02667,0.0439,0.04961,0.0668,0.07629c0.01336,0.01718,0.02481,0.02865,0.02481,0.02865
	c0.16792,0.18891,0.33776,0.37975,0.33776,0.37975l3.06271-2.70209C65.17237,50.57819,64.95865,50.33966,64.74493,50.10114
	 M54.26682,81.23399l0.54575-0.1393l-0.33202-1.17738l-0.5095,0.12404l-0.09732-0.395c0,0-0.98846,0.25-0.99611,0.22134
	l0.73086,4.01686c0,0,0.31868-0.03436,0.62591-0.12404l0.62017-0.15263L54.26682,81.23399z M57.95161,79.88109l-0.36638-0.72898
	l-0.9713,0.45225l-0.16029-0.3759l0.9503-0.4427l-0.18319-0.36449l-0.9255,0.42937c0,0-0.11068,0.06103-0.2328,0.10302
	c-0.12022,0.04198-0.24045,0.08589-0.24045,0.08589l-0.48087,0.16789l-0.48278,0.17179l0.61445,1.9483
	c0,0-0.13548,0.05148-0.27287,0.09161l-0.27669,0.06866l0.55338,1.96548c0,0,0.15266-0.03814,0.30723-0.08013
	c0.15457-0.04198,0.30149-0.09923,0.30149-0.09923l0.60491-0.21372l-0.26906-0.76713l0.57629-0.20609l0.29387,0.7595
	l0.30149-0.10494c0.14885-0.05346,0.29196-0.12788,0.29196-0.12788l-0.95221-2.2517L57.95161,79.88109z M68.97359,62.82332
	l1.22127-0.07436l-0.03244-0.64122c0,0-0.00383-0.07821-0.01717-0.19654c-0.01527-0.11827-0.03818-0.27667-0.06106-0.43507
	c-0.04771-0.31674-0.09542-0.63353-0.09542-0.63353l-4.0321,0.63546l0.07633,0.50379
	c0.01716,0.1259,0.03815,0.25379,0.05152,0.34731c0.00954,0.09347,0.00954,0.15834,0.00954,0.15834l0.81482-0.07629l0.02671,0.53617
	l0.81481-0.04962l-0.02863-0.5629l1.21745-0.1107L68.97359,62.82332z M69.44683,58.34851c0,0-0.01909-0.07629-0.04771-0.1927
	c-0.04008-0.11257-0.0916-0.26526-0.14503-0.41597c-0.10496-0.29962-0.21181-0.60302-0.21181-0.60302v0.00192l-0.21372-0.60302
	l-0.75756,0.29956l0.20417,0.58014l-2.30705,0.82437l-0.17746-0.50571l-0.76139,0.29962l0.17174,0.48277l-0.00191,0.00192
	c0,0,0.08586,0.23661,0.17175,0.47706c0.04007,0.12404,0.08396,0.24232,0.11639,0.332
	c0.0229,0.09545,0.03818,0.15648,0.03818,0.15648l0.12021,0.49616l1.18884-0.30532l-0.13167-0.53238L69.44683,58.34851z"/>
</svg>
