<?xml version="1.0" encoding="utf-8"?>
<!-- Generator: Adobe Illustrator 26.0.2, SVG Export Plug-In . SVG Version: 6.00 Build 0)  -->
<svg version="1.2" baseProfile="tiny" id="Layer_1" xmlns="http://www.w3.org/2000/svg" xmlns:xlink="http://www.w3.org/1999/xlink"
	 x="0px" y="0px" viewBox="0 0 100 100" overflow="visible" xml:space="preserve">
<path id="Boros_00000100345703966705003990000002253245612324901799_" fill="#231F20" d="M78.974,58.6493l16.39153-4.24932
	L78.974,49.70678c-0.12912-0.84036-0.29832-1.66623-0.49662-2.48117L92.88074,36.7387l-17.8232,2.22109
	c-0.43834-0.72212-0.91131-1.4207-1.40971-2.10096l10.37766-16.22065l-16.70806,9.89391
	c-0.50928-0.3766-1.03865-0.73311-1.57347-1.07685l3.33069-21.04654L56.35211,25.56243
	c-0.42012-0.09282-0.84214-0.17464-1.26781-0.24925L50.00006,3.71184l-5.08247,21.60134
	c-0.42756,0.07461-0.84958,0.15644-1.26793,0.24925L30.92535,8.40871l3.33069,21.04654
	c-0.53481,0.34374-1.06419,0.70024-1.57347,1.07685l-16.70806-9.89391l10.37954,16.22065
	c-0.4984,0.68026-0.97137,1.37884-1.41159,2.09918L7.11936,36.7387l14.40326,10.48691
	c-0.19829,0.81493-0.36927,1.6408-0.4984,2.48117l-16.38975,4.6932l16.38975,4.24932
	c1.0059,6.57044,4.19836,12.41689,8.80241,16.78628l-4.10377,10.89254c3.08687,2.30475,6.51771,4.16927,10.19757,5.51536
	l4.52045-19.77317l-9.28638-11.33637V49.12833h16.66076v6.55407h-10.516v1.50258h7.10171l11.74384,6.14477l12.15308-6.69235
	l-2.59392,10.78885l-5.46273,5.18983l3.92746,19.19473c3.64711-1.34431,7.04697-3.19613,10.10841-5.48267l-4.10377-10.89254
	C74.77742,71.06618,77.96988,65.21974,78.974,58.6493 M43.40041,47.30743h-7.56913v-8.82972h7.56913V47.30743z M52.32118,54.86202
	h-2.50487v-7.55458h-4.50402V35.60912h7.00889V54.86202z M61.06174,54.86202h-6.69046V38.20126h6.69046V54.86202z
	 M68.57259,54.86202h-5.73552V40.66061h5.73552V54.86202z"/>
</svg>
