<?xml version="1.0" encoding="UTF-8" standalone="no"?><!DOCTYPE svg PUBLIC "-//W3C//DTD SVG 1.1//EN" "http://www.w3.org/Graphics/SVG/1.1/DTD/svg11.dtd"><svg width="197" height="314" viewBox="0 0 197 314" version="1.1" xmlns="http://www.w3.org/2000/svg" xmlns:xlink="http://www.w3.org/1999/xlink" xml:space="preserve" xmlns:serif="http://www.serif.com/" style="fill-rule:evenodd;clip-rule:evenodd;stroke-linejoin:round;stroke-miterlimit:2;"><path d="M59.428,258l9.75,0l13.5,-16.5l-24.75,-91.5l-11.25,-12c8.396,-21.57 25.103,-38.457 37.5,-56.25c0.534,-1.645 0.273,-2.601 -1.5,-2.25c-9.295,2.678 -13.048,7.906 -12.75,15c-10.291,0.154 -16.124,-11.337 -19.5,-29.25c-0.707,-3.75 9.308,-5.329 55.5,-27.75l23.25,-20.25c4.361,2.885 7.7,6.5 10.5,10.5l-24.75,18c-11.522,-0.589 -19.838,2.999 -24,12c-2.365,5.623 -4.993,8.087 -8.25,3c-0.32,-2.215 -1.423,-2.854 -3.75,-1.5c-12.139,7.75 -14.749,15.5 -13.5,23.25c12.987,-12.66 22.691,-16.036 28.008,-7.295c3.935,6.468 -1.95,15.145 -24.258,45.545l15.75,15.75l13.5,-16.5l13.5,16.5l15.75,-15.75c-7.745,-10.554 -17.573,-24.624 -17.573,-24.624l7.093,-7.596c13.174,15.526 25.047,31.628 32.98,49.47l-11.25,12l-24.75,91.5l13.5,16.5l9.75,0l-39,55.5l-39,-55.5Zm25.5,49.5l-29.25,-42l-3.75,0l-3,4.5c-7.049,-0.686 -10.976,29.521 -3,37.5l2.25,0c3.173,7.235 13.543,6.007 15,0l21.75,0Zm27,0l29.25,-42l3.75,0l3,4.5c7.049,-0.686 10.975,29.521 3,37.5l-2.25,0c-3.173,7.235 -13.544,6.007 -15,0l-21.75,0Zm-0,-48l-10.5,-14.25l9.75,-70.5l-12.75,12.75l-12.75,-12.75l9.75,70.5l-10.5,14.25l13.5,20.25l13.5,-20.25Zm-56.25,-31.5c-14.522,-11.702 -21.044,-51.29 -10.5,-83.25l8.25,7.5c-3.642,23.29 -3.529,42.699 2.25,56.25l-0,19.5Zm85.5,0c14.522,-11.702 21.044,-51.29 10.5,-83.25l-8.25,7.5c3.641,23.29 3.528,42.699 -2.25,56.25l-0,19.5Zm-77.25,-228l-21,0c-16.29,16.87 -30.564,17.677 -33.75,2.25c-8.823,-0.373 -10.448,28.558 -1.5,36.75l12,-10.5c2.752,-1.451 3.224,3.109 2.25,3.75c-20.111,13.242 -25.656,27.778 -19.5,42c4.127,-4.874 8.731,-10.211 14.25,-14.25c2.699,-1.723 4.612,1.764 2.25,3.75c-23.13,19.442 -21.644,36.378 -13.5,49.5c2.838,-8.587 8.042,-17.579 15.75,-27c1.548,-1.315 3.953,0.835 3,3c-26.404,28.935 -24.094,77.662 -8.25,84.75c0.279,-24.919 5.396,-45.93 17.25,-61.5c1.478,-0.989 2.789,0.733 2.25,2.25c-8.482,6.205 -33.438,96.24 6.75,101.25c-12.733,-41.527 -6.533,-78.479 18,-111c-32.023,-36.627 -18.176,-79.856 -8.665,-86.849c8.752,-6.435 13.195,-9.933 12.415,-18.151Zm69,0l21,0c16.29,16.87 30.564,17.677 33.75,2.25c8.822,-0.373 10.448,28.558 1.5,36.75l-12,-10.5c-2.753,-1.451 -3.224,3.109 -2.25,3.75c20.111,13.242 25.655,27.778 19.5,42c-4.128,-4.874 -8.731,-10.211 -14.25,-14.25c-2.7,-1.723 -4.612,1.764 -2.25,3.75c23.129,19.442 21.644,36.378 13.5,49.5c-2.838,-8.587 -8.043,-17.579 -15.75,-27c-1.549,-1.315 -3.954,0.835 -3,3c26.404,28.935 24.094,77.662 8.25,84.75c-0.279,-24.919 -5.396,-45.93 -17.25,-61.5c-1.479,-0.989 -2.79,0.733 -2.25,2.25c8.481,6.205 33.437,96.24 -6.75,101.25c12.732,-41.527 6.532,-78.479 -18,-111c32.022,-36.627 18.175,-79.856 8.664,-86.849c-8.752,-6.435 -13.195,-9.933 -12.414,-18.151Zm-70.5,129.75l22.5,20.25l2.25,12l-27.75,-26.25l3,-6Zm72,0l-22.5,20.25l-2.25,12l27.75,-26.25l-3,-6Zm-50.25,-6l-5.25,-5.25l19.5,-27l19.5,27l-5.25,5.25l-14.25,-18l-14.25,18Zm57,-91.5l-21,15c7.03,8.876 7.41,19.915 1.5,33l10.5,13.5c6.109,-3.391 10.132,-8.868 12,-16.5l-6,-3c-1.43,-0.59 -0.504,-3.105 0.75,-3l6,1.5c2.129,-5.796 2.365,-11.829 1.5,-18l-6.75,0.75c-2.002,0.36 -2.387,-2.843 -0.75,-3l6.75,-1.5c0.482,-5.369 -0.492,-11.385 -4.5,-18.75Z"/></svg>