<?xml version="1.0" encoding="UTF-8" standalone="no"?><!DOCTYPE svg PUBLIC "-//W3C//DTD SVG 1.1//EN" "http://www.w3.org/Graphics/SVG/1.1/DTD/svg11.dtd"><svg width="203" height="309" viewBox="0 0 203 309" version="1.1" xmlns="http://www.w3.org/2000/svg" xmlns:xlink="http://www.w3.org/1999/xlink" xml:space="preserve" xmlns:serif="http://www.serif.com/" style="fill-rule:evenodd;clip-rule:evenodd;stroke-linejoin:round;stroke-miterlimit:2;"><path d="M101.25,280.5l-20.25,-39.75l0,37.5l-9,-3l0,33l-36,-21.75l0,-32.25l-9.75,-9.75l0,-44.51c-7.497,-8.264 -13.649,-17.77 -18.108,-28.173l18.259,-0.056c14.253,26.757 42.439,44.989 74.849,44.989l0.38,-0.001c32.25,-0.141 60.271,-18.336 74.469,-44.988l18.259,0.056c-4.459,10.403 -10.611,19.909 -18.108,28.173l0,44.51l-9.75,9.75l0,32.25l-36,21.75l0,-33l-9,3l0,-37.5l-20.25,39.75Zm-63,-69.257c9.307,7.41 19.947,13.218 31.5,17.002l0,35.005l-9,-4.5l0,32.25l-13.5,-9.75l0,-31.5l-9,-9l0,-29.507Zm126,0c-9.307,7.41 -19.947,13.218 -31.5,17.002l0,35.005l9,-4.5l0,32.25l13.5,-9.75l0,-31.5l9,-9l0,-29.507Zm-75,21.245l24,-0l-12,25.203l-12,-25.203Zm11.666,-41.991c-6.993,-0.042 -13.064,0.771 -18.416,2.253c-4.095,-12.912 -11.827,-20.531 -25.5,-19.5c-10.808,-12.483 -3.533,-29.53 -10.5,-39.75c4.219,-7.889 18.118,-13.067 38.25,-16.5l16.5,16.5l16.5,-16.5c20.132,3.433 34.031,8.611 38.25,16.5c-6.967,10.22 0.308,27.267 -10.5,39.75c-13.673,-1.031 -21.405,6.588 -25.5,19.5c-5.437,-1.505 -11.616,-2.321 -18.75,-2.25l-0.334,-0.003Zm0.334,-15.747l-12,-7.5l12,12.75l12,-12.75l-12,7.5Zm-89.022,-90.996l11.569,13.816c-4.69,10.524 -7.297,22.175 -7.297,34.43c0,9.102 1.438,17.872 4.1,26.093l-12.458,13.724c-5.24,-12.223 -8.142,-25.684 -8.142,-39.817c0,-17.463 4.431,-33.899 12.228,-48.246Zm178.044,0l-11.569,13.816c4.69,10.524 7.297,22.175 7.297,34.43c0,9.102 -1.438,17.872 -4.1,26.093l12.458,13.724c5.24,-12.223 8.142,-25.684 8.142,-39.817c0,-17.463 -4.431,-33.899 -12.228,-48.246Zm-146.022,57.996l-22.5,24.75l26.25,0c-1.165,-2.341 -1.596,-5.133 -1.5,-8.25l-7.5,0l7.5,-7.5c0.454,-3.516 0.013,-6.648 -2.25,-9Zm114,0l22.5,24.75l-26.25,0c1.165,-2.341 1.596,-5.133 1.5,-8.25l7.5,0l-7.5,-7.5c-0.454,-3.516 -0.013,-6.648 2.25,-9Zm-96.75,-5.25c6.503,4.08 12.49,-1.047 16.5,-0.75c5.285,0.391 8.934,3.499 9,7.5c0.078,4.752 -3,7.527 -7.5,7.5c-4.691,-0.028 -14.362,-5.078 -18,-14.25Zm79.5,0c-6.503,4.08 -12.49,-1.047 -16.5,-0.75c-5.285,0.391 -8.934,3.499 -9,7.5c-0.078,4.752 3,7.527 7.5,7.5c4.691,-0.028 14.362,-5.078 18,-14.25Zm-40.162,-24.734c-35.014,1.406 -64.95,15.062 -57.338,25.484c-32.767,-2.147 0.132,-31.371 50.25,-38.25c0.909,-19.427 -3.745,-36.804 -15,-51.75l22.5,-47.25l22.5,47.25c-11.255,14.946 -15.909,32.323 -15,51.75c50.118,6.879 83.017,36.103 50.25,38.25c7.642,-10.463 -22.559,-24.185 -57.75,-25.5l-0.412,0.016Zm0.412,2.234c3.311,0 6,2.689 6,6c0,3.311 -2.689,6 -6,6c-3.311,0 -6,-2.689 -6,-6c0,-3.311 2.689,-6 6,-6Zm-42.75,-9.75l0,-9l-34.5,-5.25l15.75,24c5.674,-3.971 11.911,-7.236 18.75,-9.75Zm85.5,0l0,-9l34.5,-5.25l-15.75,24c-5.674,-3.971 -11.911,-7.236 -18.75,-9.75Zm-82.5,-51c31.427,30.148 29.549,21.878 29.25,42.75c-9.203,0.85 -18.685,3.015 -28.5,6.75l-0.75,-49.5Zm79.5,0c-31.427,30.148 -29.549,21.878 -29.25,42.75c9.203,0.85 18.685,3.015 28.5,6.75l0.75,-49.5Zm-84.442,-12.113l-0.243,19.009c-10.512,6.592 -19.48,15.428 -26.227,25.834l-17.86,-2.226c9.992,-18.384 25.514,-33.335 44.33,-42.617Zm89.384,-0l0.243,19.009c10.512,6.592 19.48,15.428 26.227,25.834l17.86,-2.226c-9.992,-18.384 -25.514,-33.335 -44.33,-42.617Zm-89.384,-0c6.637,-3.635 13.359,-6.383 21.546,-7.546l-7.99,19.571l-13.556,-12.025Zm89.384,-0c-6.637,-3.635 -13.359,-6.383 -21.546,-7.546l7.99,19.571l13.556,-12.025Z"/></svg>