<?xml version="1.0" encoding="UTF-8" standalone="no"?>
<svg
   xmlns:dc="http://purl.org/dc/elements/1.1/"
   xmlns:cc="http://creativecommons.org/ns#"
   xmlns:rdf="http://www.w3.org/1999/02/22-rdf-syntax-ns#"
   xmlns:svg="http://www.w3.org/2000/svg"
   xmlns="http://www.w3.org/2000/svg"
   version="1.1"
   width="140.03287"
   height="150.40302">
  <path
     d="m 29.563566,27.84052 c -0.36163,0.009 -0.71748,0.10681 -1.03125,0.34375 l -27.8125001,21 c -0.83673,0.63185 -0.93405,1.83619 -0.34375,2.65625 l 2.40625,3.375 c 0.59031,0.82005 1.75702,1.0381 2.59375,0.40625 l 3.96875,-2.96875 29.8437501,38.25 -24.40625,34.375 c -3.5558,5.00965 -2.99563,11.31458 -0.5625,16.21875 2.43313,4.90417 6.81292,8.90625 12.03125,8.90625 l 71.3125,0 c 4.826714,0 8.980504,-3.72898 11.531254,-8.28125 2.55075,-4.55227 3.50633,-10.5046 0.25,-15.25 l -23.937504,-34.875 30.281254,-39.03125 3.5,2.65625 c 0.83674,0.63185 2.03469,0.38255 2.625,-0.4375 l 2.40625,-3.3125 c 0.5903,-0.82005 0.43048,-2.05565 -0.40625,-2.6875 l -27.781254,-21 c -0.83673,-0.63185 -2.00344,-0.38256 -2.59375,0.4375 l -2.40625,3.34375 c -0.5903,0.82006 -0.49299,2.0244 0.34375,2.65625 l 4.1875,3.15625 -31.6875,38.84375 c 0.37582,-0.46039 -0.31243,0.0625 -1.0625,0.0625 -0.75007,0 -1.43444,-0.51523 -1.0625,-0.0625 l -32.21875,-39.21875 3.65625,-2.75 c 0.83673,-0.63185 0.9653,-1.86744 0.375,-2.6875 l -2.40625,-3.34375 c -0.36894,-0.51253 -0.99103,-0.79635 -1.59375,-0.78125 z m 0.0312,2.0625 2.3125,3.1875 -27.5937501,20.84375 -2.28125,-3.21875 27.5625001,-20.8125 z m 65.375,0 27.593754,20.84375 -2.3125,3.1875 -27.562504,-20.8125 2.28125,-3.21875 z m -68.625,9.90625 32.3125,39.34375 c 1.2524,1.52444 2.74503,1.53125 4.15625,1.53125 1.41122,0 2.9056,8.5e-4 4.15625,-1.53125 l 31.78125,-38.96875 13.343754,10.09375 -31.250004,40.25 c 0,0 -0.625,0.69258 -0.625,1.34375 0,0.65117 0.5625,1.3125 0.5625,1.3125 l 24.875004,36.25 c 2.00325,2.91931 1.47882,6.96845 -0.5,10.5 -1.97882,3.53155 -5.404174,5.96875 -7.593754,5.96875 l -71.3125,0 c -2.72762,0 -6.12215,-2.62129 -8,-6.40625 -1.87785,-3.78496 -2.16533,-8.2349 0.21875,-11.59375 l 25.375,-35.75 c 0,0 0.60417,-0.92709 0.59375,-1.375 -0.0104,-0.44792 -0.65625,-1.3125 -0.65625,-1.3125 l -30.84375,-39.53125 13.40625,-10.125 z" />
  <path
     d="m 54.219816,92.12177 c -2.72995,0.0289 -4.44148,0.0498 -5.09375,0.96875 l -26,36.625 c -3.70238,5.21616 1.41705,12.5625 6.875,12.5625 l 64.375,0 c 5.03946,0 10.078894,-6.96748 5.875004,-13.09375 L 76.313566,94.24677 c -2.26508,-0.0977 -2.54742,1.69145 -5.5625,1.53125 -3.01508,-0.1602 -3.51617,-2.49605 -6.09375,-2.46875 -2.57758,0.0273 -1.85202,1.7608 -4.625,1.6875 -2.77298,-0.0733 -3.08255,-2.9039 -5.8125,-2.875 z m 5.0625,9.4375 c 4.0761,0 7.375,3.2989 7.375,7.375 0,4.0761 -3.2989,7.375 -7.375,7.375 -4.0761,0 -7.375,-3.2989 -7.375,-7.375 0,-4.0761 3.2989,-7.375 7.375,-7.375 z m -14.1875,18.5625 c 2.73367,0 4.96875,2.20383 4.96875,4.9375 0,2.73367 -2.23508,4.96875 -4.96875,4.96875 -2.73367,0 -4.9375,-2.23508 -4.9375,-4.96875 0,-2.73367 2.20383,-4.9375 4.9375,-4.9375 z m 21.90625,6.90625 c 0.1664,-0.0169 0.32915,0 0.5,0 2.73367,0 4.9375,2.20383 4.9375,4.9375 0,2.73367 -2.20383,4.9375 -4.9375,4.9375 -2.73367,0 -4.9375,-2.20383 -4.9375,-4.9375 0,-2.56282 1.94156,-4.68402 4.4375,-4.9375 z" />
  <path
     d="m 791.51768,367.20938 a 6.0546017,6.0546017 0 1 1 -12.10921,0 6.0546017,6.0546017 0 1 1 12.10921,0 z"
     transform="translate(-706.37393,-286.37823)" />
  <path
     d="m 794.78801,352.93466 a 3.2703688,3.2703688 0 1 1 -6.54074,0 3.2703688,3.2703688 0 1 1 6.54074,0 z"
     transform="translate(-706.37393,-286.37823)" />
  <path
     d="m 814.14506,341.04642 a 6.0546017,6.0546017 0 1 1 -12.10921,0 6.0546017,6.0546017 0 1 1 12.10921,0 z"
     transform="translate(-706.37393,-286.37823)" />
  <path
     d="m 821.74647,312.89474 a 5.833631,5.833631 0 1 1 -11.66726,0 5.833631,5.833631 0 1 1 11.66726,0 z"
     transform="translate(-706.37393,-286.37823)" />
  <path
     d="m 844.72742,291.28378 a 4.552,4.552 0 1 1 -9.10401,0 4.552,4.552 0 1 1 9.10401,0 z"
     transform="translate(-706.46232,-286.73178)" />
  <path
     d="m 847.02552,312.05505 a 9.2365828,9.2365828 0 1 1 -18.47316,0 9.2365828,9.2365828 0 1 1 18.47316,0 z"
     transform="translate(-706.99265,-286.73178)" />
</svg>
