<?xml version="1.0" encoding="UTF-8" standalone="no"?>
<!DOCTYPE svg PUBLIC "-//W3C//DTD SVG 1.1//EN" "http://www.w3.org/Graphics/SVG/1.1/DTD/svg11.dtd">
<svg width="1023" height="424" viewBox="0 0 1023 424" version="1.1" xmlns="http://www.w3.org/2000/svg" xmlns:xlink="http://www.w3.org/1999/xlink" xml:space="preserve" xmlns:serif="http://www.serif.com/" style="fill-rule:evenodd;clip-rule:evenodd;stroke-linejoin:round;stroke-miterlimit:2;">
    <g transform="matrix(1,0,0,1,-0.93,-289.033)">
        <path d="M386.676,491.469C408.764,491.14 439.538,488.254 452.478,497.782C461.494,504.409 462.979,519.226 459.303,532.48C457.439,539.37 454.54,547.232 450.237,552.951C442.439,563.254 427.704,568.347 415.39,570.275C411.533,570.854 369.418,570.54 369.351,570.918C375.166,544.443 380.941,517.96 386.675,491.468L386.676,491.469ZM1022.64,528.935C1012.16,450.836 937.457,419.799 873.271,394.76C826.012,376.347 772.82,367.974 716.48,357.408L652.804,351.622C637.738,350.912 622.671,350.204 607.54,349.495L552.287,349.495C543.023,349.676 533.744,349.807 524.414,350.072L455.512,355.791C422.348,361.792 389.578,364.742 358.672,372.67C305.429,386.253 259.457,404.417 216.123,426.374C226.293,405.242 236.463,384.192 246.633,363.209C253.968,350.204 261.385,337.247 268.721,324.242C260.415,329.666 254.562,343.495 248.76,351.622C227.316,381.622 205.936,411.622 184.574,441.572C184.376,441.886 184.243,442.282 183.98,442.594C173.793,408.243 163.645,373.88 153.535,339.506C149.151,322.709 144.717,305.83 140.332,289.033C147.865,339.308 159.848,393.472 160.87,447.867C151.21,443.302 141.551,438.801 131.893,434.219C112.261,424.247 93.073,414.587 74.595,403.709C61.793,396.194 49.002,388.661 36.222,381.109C35.628,380.911 35.116,380.713 34.606,380.517L67.705,405.241C83.318,417.531 98.939,429.811 114.568,442.081C125.578,451.097 136.656,459.982 147.667,468.934C136.144,472.593 124.557,476.334 112.969,480.01C76.013,491.4 38.975,502.791 1.952,514.198L0.93,514.708C49.87,509.301 97.969,493.593 152.958,493.132L152.958,493.724C131.118,538.28 112.326,583.148 88.243,625.197L88.243,625.707L88.822,625.707C104.956,602.216 121.077,578.716 137.184,555.206C148.376,539.827 159.652,524.367 170.845,508.904L172.972,507.371C188.037,540.141 195.454,580.377 205.626,616.821C209.104,631.179 212.647,645.553 216.125,659.976L216.125,660.932L216.635,660.932C213.669,641.548 210.701,622.047 207.685,602.53C205.227,582.437 202.789,562.229 200.35,542.07C198.932,528.553 197.514,515.103 196.162,501.569C234.405,517.542 267.948,536.926 301.888,556.822C297.833,574.723 293.778,592.624 289.772,610.459L289.772,612.058L388.673,612.058C418.755,612.058 449.596,613.162 471.288,604.656C498.272,594.157 513.339,575.943 523.887,548.892C529.755,534.157 536.646,509.876 531.816,488.959C528.14,473.299 518.366,462.552 504.963,456.816C485.2,448.394 455.25,449.991 427.112,449.991L326.084,449.991C318.37,484.771 310.639,519.469 302.909,554.185L302.399,554.185C280.706,540.074 261.502,522.502 241.36,506.861C231.304,498.998 218.695,491.069 210.833,481.031C245.547,469.955 280.31,458.943 315.025,447.865C323.843,445.097 351.075,440.151 356.036,434.729C339.865,440.465 321.519,441.173 303.419,444.718C286.936,447.042 270.453,449.283 253.97,451.541L253.97,451.097C265.69,445.229 277.474,439.509 289.26,433.641C313.606,423.14 339.617,414.586 366.074,406.345C492.024,367.064 707.332,352.575 843.784,393.141C903.405,410.911 981.503,435.192 992.711,499.444C996.701,522.504 984.405,540.406 975.832,552.059C950.86,586.443 911.909,608.137 870.635,626.236C812.037,651.851 746.943,666.092 674.892,680.45C647.91,683.401 620.97,687.603 593.892,689.4C551.72,692.199 544.216,693.383 507.883,692.989L477.078,692.199C453.369,690.895 436.005,690.224 408.361,686.275C368.86,680.631 331.64,673.473 296.991,662.578C277.095,656.347 249.204,646.387 228.223,642.078C219.253,640.237 245.614,650.765 254.564,654.622C280.509,665.896 307.493,674.269 337.097,683.087C501.934,732.341 753.768,717.72 893.812,658.363C938.039,639.556 978.671,617.929 1004.81,581.039C1012.99,569.434 1025.55,550.116 1022.65,528.934L1022.64,528.935ZM799.606,449.487C787.509,503.489 775.404,557.489 763.293,611.487L831.667,611.487C843.783,557.536 855.881,503.503 867.98,449.487L799.606,449.487ZM693.304,548.388C684.667,571.184 616.936,580.381 611.2,549.475C606.123,521.602 628.524,497.586 648.04,492.624C670.244,487.019 700.573,490.315 698.068,513.689L775.392,513.689C776.298,471.178 756.98,458.173 721.245,451.546C721.245,451.546 653.827,447.689 631.805,451.283C583.325,459.342 556.16,478.842 542.826,522.639C539.727,532.876 535.293,547.48 537.6,562.036C545.2,609.821 588.6,611.487 643.854,611.487C668.71,611.487 693.552,611.75 712.805,605.766C740.052,597.195 757.112,573.954 767.546,548.388L693.304,548.388Z" style="fill-rule:nonzero;"/>
    </g>
</svg>
