<?xml version="1.0" encoding="UTF-8" standalone="no"?>
<!-- Created with Inkscape (http://www.inkscape.org/) -->

<svg
   width="600"
   height="953"
   viewBox="0 0 158.75 252.14791"
   version="1.1"
   id="svg5"
   xml:space="preserve"
   xmlns="http://www.w3.org/2000/svg"
   xmlns:svg="http://www.w3.org/2000/svg"><defs
     id="defs2" /><g
     id="layer1"><path
       id="path510"
       style="fill:#000000;stroke-width:0.378194"
       d="m 79.274541,0.03584675 c -0.670549,3.2e-6 -1.340489,0.2255792 -1.353209,0.6766123 C 76.111241,65.071695 65.652911,103.50373 65.652911,103.50373 l -10.96469,1.07032 c 0,0 -6.70798,-13.688223 -10.295448,-76.48461 -0.06669,-1.168074 -3.439653,-1.167858 -3.510123,0 -3.789956,62.869223 -12.535818,82.83489 -12.535818,82.83489 l -10.194989,2.7744 c 0,0 -5.95507,-7.54927 -10.2629485,-52.080743 -0.10299,-1.064611 -3.137599,-1.067212 -3.208744,0 -2.952099,44.282593 -4.680152,69.789403 -4.680152,69.789403 0,0 69.0907825,21.73264 77.9213325,119.37937 0.16005,1.77002 2.56895,1.76413 2.70718,0 C 88.266531,153.28954 158.75,131.40739 158.75,131.40739 c 0,0 -2.28752,-26.04534 -5.3154,-69.789403 -0.0678,-0.978105 -2.85295,-0.976454 -2.94135,0 -3.8922,42.995833 -11.0319,52.080743 -11.0319,52.080743 l -9.02495,-2.7744 c 0,0 -8.80809,-15.887427 -13.23755,-82.83489 -0.0699,-1.056193 -3.10909,-1.055679 -3.17549,7.39e-4 -4.17284,66.374024 -10.66404,76.483871 -10.66404,76.483871 l -10.328699,-1.07032 c 0,0 -10.6462,-38.44508 -12.40211,-102.79127095 -0.0127,-0.4510442 -0.68341,-0.6766155 -1.35397,-0.6766123 z m 0.20609,87.30895625 3.81591,28.364547 -12.6695,15.69804 52.285339,-9.07964 -41.341339,36.94487 c 6.31859,2.61781 12.2093,5.41394 18.555159,7.9657 l -17.586039,21.65164 -3.05953,25.81175 -5.16619,-28.45911 10.58944,-14.27684 -29.7828,-8.32028 34.69931,-26.0954 -46.612432,9.83305 32.902902,-35.6448 z" /></g></svg>
