<?xml version="1.0" encoding="utf-8"?>
<!-- Generator: Adobe Illustrator 26.0.2, SVG Export Plug-In . SVG Version: 6.00 Build 0)  -->
<svg version="1.2" baseProfile="tiny" id="Layer_1" xmlns="http://www.w3.org/2000/svg" xmlns:xlink="http://www.w3.org/1999/xlink"
	 x="0px" y="0px" viewBox="0 0 100 100" overflow="visible" xml:space="preserve">
<path id="Dimir" fill="#231F20" d="M50.00182,19.00781c-7.87466,0-14.25479,8.74805-14.25479,19.53867
	s6.38013,19.53683,14.25479,19.53683c7.87101,0,14.25479-8.74621,14.25479-19.53683S57.87283,19.00781,50.00182,19.00781
	 M50.00182,47.69643c-5.84114,0-10.5769-3.03478-10.5769-6.77846c0-3.74363,4.73576-6.77651,10.5769-6.77651
	c5.83931,0,10.57507,3.03288,10.57507,6.77651C60.57689,44.66165,55.84113,47.69643,50.00182,47.69643 M52.72232,14.36164
	c1.52012-3.56281,4.63163-6.28333,8.44654-7.26634c-1.25702,2.09571-1.98054,4.5476-1.98054,7.16944
	c0,1.26615,0.16992,2.49215,0.486,3.65782C57.60426,16.12469,55.24734,14.88598,52.72232,14.36164 M78.28301,8.49849
	c8.40086,7.71575,13.9259,18.51011,14.79195,30.59425c-1.2278-4.67361-3.40017-9.15909-6.81314-12.57024
	c-4.57863-4.58038-11.78642-5.11209-16.56603-0.74359c-1.26434,1.15653-2.2144,2.52872-2.85022,4.00675
	c-1.22048-4.23324-3.2668-7.89473-5.86489-10.61526c0.6815,0.08776,1.37578,0.13705,2.0792,0.13705
	C70.10322,19.30746,76.08688,14.79097,78.28301,8.49849 M79.72091,71.45378c0,0,2.99821-9.35458-0.3581-19.56604
	c-3.13159-9.52999-8.75166-11.22007-11.86681-6.58476c0.39648-2.04268,0.60841-4.18946,0.60841-6.40388
	c0-2.37879-0.24482-4.68092-0.70158-6.85881c1.06335,1.36852,4.00676,4.62978,9.46056,6.99402
	c5.927,2.57249,8.92705,1.0725,8.92705,1.0725S88.28804,55.1015,79.72091,71.45378 M75.57895,57.10036
	c0,0-2.14132,21.27987-19.56607,36.48834c0,0,12.49714-15.92474,9.28334-31.06017c-0.89893-4.23145-2.67301-4.63709-4.14196-4.08347
	c2.68945-2.88312,4.76498-6.78755,5.92152-11.2858C67.81026,49.43033,70.11784,55.01747,75.57895,57.10036 M40.3275,17.92254
	c0.31425-1.16567,0.486-2.39167,0.486-3.65782c0-2.62184-0.72535-5.07373-1.98054-7.16944
	c3.81309,0.98301,6.92641,3.70354,8.44836,7.26634C44.75265,14.88598,42.39756,16.12469,40.3275,17.92254 M36.94011,19.30746
	c0.70525,0,1.39954-0.04929,2.0792-0.13705c-2.59809,2.72053-4.64075,6.38202-5.86306,10.61526
	c-0.63582-1.47803-1.58589-2.85022-2.85022-4.00675c-4.78143-4.3685-11.98739-3.8368-16.56786,0.74359
	c-3.41113,3.41114-5.58535,7.89663-6.81313,12.57024c0.86785-12.08414,6.39291-22.8785,14.79377-30.59425
	C23.91311,14.79097,29.89859,19.30746,36.94011,19.30746 M14.21138,40.1068c0,0,3.00004,1.49999,8.92706-1.0725
	c5.45379-2.36424,8.39719-5.62551,9.45872-6.99402c-0.45676,2.17789-0.70158,4.48002-0.70158,6.85881
	c0,2.21442,0.21376,4.3612,0.61024,6.40388c-3.11516-4.6353-8.73523-2.94523-11.86864,6.58476
	C17.28269,62.0992,20.2809,71.45378,20.2809,71.45378C11.71195,55.1015,14.21138,40.1068,14.21138,40.1068 M32.92604,47.15926
	c1.15654,4.49825,3.23392,8.40269,5.9197,11.2858c-1.46712-0.55362-3.24303-0.14798-4.14013,4.08347
	c-3.2138,15.13543,9.28151,31.06017,9.28151,31.06017C26.56418,78.38023,24.42286,57.10036,24.42286,57.10036
	C29.88397,55.01747,32.19156,49.43033,32.92604,47.15926 M53.54086,40.91797c0,1.95681-1.58408,3.54089-3.53904,3.54089
	c-1.95679,0-3.54269-1.58408-3.54269-3.54089c0-1.95492,1.5859-3.539,3.54269-3.539
	C51.95678,37.37897,53.54086,38.96305,53.54086,40.91797"/>
</svg>
