<?xml version="1.0" encoding="UTF-8" standalone="no"?>
<svg
   xmlns:dc="http://purl.org/dc/elements/1.1/"
   xmlns:cc="http://creativecommons.org/ns#"
   xmlns:rdf="http://www.w3.org/1999/02/22-rdf-syntax-ns#"
   xmlns:svg="http://www.w3.org/2000/svg"
   xmlns="http://www.w3.org/2000/svg"
   version="1.1"
   width="178.625"
   height="138.39684">
  <path
     d="m 130.5625,0 -4.34375,17.03125 -12.09375,-7.125 9.5625,14.9375 -0.6875,-5.125 5.28125,4.21875 2.6875,-8.03125 2.25,9.90625 8.53125,-4.9375 -3.46875,7.375 6.84375,5.6875 -7.1875,-1.03125 -2.4375,9.9375 -2.40625,-10.28125 -5.1875,6 -1.40625,-3.75 -5.40625,17.28125 9.25,-13.34375 7.90625,18.375 0.53125,-19.4375 17.34375,0.4375 -12.9375,-10.96875 7.625,-16.1875 L 135.78125,19.75 z M 105.09375,23.5625 99.625,29.03125 c -3.84371,-1.76256 -8.11969,-2.75 -12.625,-2.75 -16.74631,0 -30.3125,13.56619 -30.3125,30.3125 0,16.74631 13.56619,30.3125 30.3125,30.3125 16.74631,0 30.3125,-13.56619 30.3125,-30.3125 0,-4.50531 -0.98744,-8.78129 -2.75,-12.625 L 120.03125,38.5 c 0,0 -1.55428,-3.34236 -4.34375,-6.75 1.26764,-0.45212 2.64552,-0.78808 4.0625,-0.90625 3.10637,-0.25905 6.24312,0.37003 8.5,2 l 2.625,-3.65625 c -3.36352,-2.42921 -7.54827,-3.1733 -11.5,-2.84375 -2.50986,0.20931 -4.94591,0.86899 -7.09375,1.90625 -3.5516,-3.02214 -7.1875,-4.6875 -7.1875,-4.6875 z m -0.0625,3.125 c 0.052,-0.003 0.10421,-0.003 0.15625,0 0.60814,-0.0278 1.21427,0.35475 1.45082,0.9157 0.23654,0.56094 0.0874,1.26201 -0.35707,1.67805 L 104,31.53125 c -0.53137,0.64916 -1.64065,0.70024 -2.22943,0.10267 -0.58879,-0.59758 -0.52128,-1.70597 0.13568,-2.22767 l 2.25,-2.25 c 0.22784,-0.24863 0.54178,-0.41682 0.875,-0.46875 z m -20.4375,3.53125 c 2.54524,-0.0689 5.23571,0.28409 8,1.09375 -16.52569,0.32494 -22.56276,5.50378 -29.9375,21.75 2.36047,-14.24015 10.90814,-22.54524 21.9375,-22.84375 z M 113.625,57.8125 C 112.4758,71.9764 101.45999,84.15625 87,84.15625 c -8.63304,0 -16.3218,-3.97415 -21.375,-10.1875 5.27306,4.71426 12.24524,7.5625 19.875,7.5625 14.0167,0 24.93787,-10.68406 28.125,-23.71875 z M 11.4375,66.5 10.5625,81 0,75.6875 7.46875,84.90625 0.1875,92.59375 9.375,89.4375 l 1.8125,8.25 0.78125,3.5 0.6875,-3.53125 1.40625,-7.28125 7.21875,6.96875 -3.96875,-9.15625 0.28125,3.5 -4.4375,-4.3125 -1.28125,6.46875 -1.40625,-6.375 -4.9375,1.6875 L 9.46875,85 l -3.9375,-4.84375 6.40625,3.1875 0.53125,-8.78125 2.375,7.40625 2.9375,-3.09375 -0.25,2.84375 5.46875,-10.5 -7.5,7.84375 z m 155.75,0 -4.0625,12.5625 -7.5,-7.84375 5.46875,10.5 -0.25,-2.84375 2.9375,3.09375 2.375,-7.40625 0.53125,8.78125 6.40625,-3.1875 -3.9375,4.84375 3.9375,4.15625 -4.9375,-1.6875 -1.40625,6.375 -1.28125,-6.46875 -4.4375,4.3125 0.28125,-3.5 -3.96875,9.15625 7.21875,-6.96875 1.40625,7.28125 0.6875,3.53125 0.78125,-3.5 1.8125,-8.25 9.1875,3.15625 -7.28125,-7.6875 L 178.625,75.6875 168.0625,81 z M 35.84375,76.875 c -2.19842,-0.005 -5.32897,2.92822 -7.71875,7.28125 -1.36564,-0.41922 -2.99991,-0.75001 -4.625,-0.625 -1.73192,0.13322 -2.70474,0.36557 -3.4375,0.5625 -0.73276,0.19693 -1.18275,0.34375 -2.28125,0.34375 -1.06772,0 -1.81705,-0.19675 -2.28125,-0.375 -0.4642,-0.17825 -0.5625,-0.28125 -0.5625,-0.28125 -0.40904,-0.32742 -1.07895,-0.25289 -1.40625,0.15625 -0.32731,0.40913 -0.25297,1.07906 0.15625,1.40625 0,0 0.41295,0.33232 1.09375,0.59375 0.6808,0.26143 1.68612,0.5 3,0.5 1.28311,0 2.07965,-0.2093 2.8125,-0.40625 0.73285,-0.19695 1.46016,-0.40799 3.0625,-0.53125 1.13937,-0.0876 2.41592,0.16879 3.5625,0.5 -2.37148,5.2144 -2.65092,10.10903 -0.5,11.1875 0.14246,0.0714 0.28156,0.1523 0.4375,0.1875 l 32.875,15.15625 26.875,-12.375 -50.125,-23.0625 C 36.49632,76.9509 36.17953,76.87577 35.84375,76.875 z m 106.9375,0 c -0.33578,7.7e-4 -0.65257,0.0759 -0.9375,0.21875 l -86.375,39.75 c -2.73123,1.19476 -4.93995,3.52622 -6,6.3125 -1.06006,2.78628 -0.96513,5.97943 0.28125,8.6875 1.24637,2.70807 3.6316,4.89925 6.4375,5.90625 2.80589,1.007 6.00357,0.82878 8.6875,-0.46875 L 151.46875,97.375 c 0.15594,-0.0352 0.29504,-0.11607 0.4375,-0.1875 2.15092,-1.07847 1.87148,-5.9731 -0.5,-11.1875 1.14658,-0.33121 2.42313,-0.58765 3.5625,-0.5 1.60234,0.12326 2.32965,0.3343 3.0625,0.53125 0.73285,0.19695 1.52939,0.40625 2.8125,0.40625 1.31388,0 2.3192,-0.23857 3,-0.5 0.6808,-0.26143 1.09375,-0.59375 1.09375,-0.59375 0.40922,-0.32719 0.48377,-0.99729 0.15646,-1.40642 -0.3273,-0.40914 -0.99742,-0.4835 -1.40646,-0.15608 0,0 -0.0983,0.103 -0.5625,0.28125 -0.4642,0.17825 -1.21353,0.375 -2.28125,0.375 -1.0985,0 -1.54849,-0.14682 -2.28125,-0.34375 -0.73276,-0.19693 -1.70558,-0.42928 -3.4375,-0.5625 -1.62509,-0.12501 -3.25936,0.20578 -4.625,0.625 -2.38978,-4.35303 -5.52033,-7.28632 -7.71875,-7.28125 z M 34.8125,78.75 c 0.0877,-0.0116 0.16995,-0.009 0.25,0 1.51796,0.16514 1.01208,3.97594 -1.125,8.5 -2.13708,4.52406 -5.10704,8.04014 -6.625,7.875 -1.51796,-0.16514 -1.01208,-3.94469 1.125,-8.46875 0.0362,-0.0766 0.0884,-0.14275 0.125,-0.21875 1.03178,0.38255 1.8125,0.75 1.8125,0.75 0.46259,0.35144 1.23285,0.17213 1.5,-0.34375 0.26715,-0.51587 -0.0398,-1.23126 -0.59375,-1.40625 0,0 -0.71025,-0.39112 -1.78125,-0.8125 1.85222,-3.28433 3.99659,-5.70111 5.3125,-5.875 z m 108.75,0 c 1.28078,-0.13934 3.5868,2.37172 5.5625,5.875 -1.071,0.42138 -1.78125,0.8125 -1.78125,0.8125 -0.55396,0.17499 -0.85398,0.89768 -0.58683,1.41355 0.26715,0.51588 1.03049,0.68789 1.49308,0.33645 0,0 0.78072,-0.36745 1.8125,-0.75 0.0366,0.076 0.0888,0.14219 0.125,0.21875 2.13708,4.52406 2.64296,8.30361 1.125,8.46875 -1.51796,0.16514 -4.48792,-3.35094 -6.625,-7.875 -2.13708,-4.52406 -2.64296,-8.33486 -1.125,-8.5 z m -24.96875,36 -26.875,12.375 22.03125,10.15625 c 2.68393,1.29753 5.88161,1.47575 8.6875,0.46875 2.8059,-1.007 5.19113,-3.19818 6.4375,-5.90625 1.24638,-2.70807 1.34131,-5.90122 0.28125,-8.6875 -1.06005,-2.78628 -3.26877,-5.11774 -6,-6.3125 z" />
</svg>
