<?xml version="1.0" encoding="utf-8"?>
<!-- Generator: Adobe Illustrator 26.0.2, SVG Export Plug-In . SVG Version: 6.00 Build 0)  -->
<svg version="1.2" baseProfile="tiny" id="Layer_1" xmlns="http://www.w3.org/2000/svg" xmlns:xlink="http://www.w3.org/1999/xlink"
	 x="0px" y="0px" viewBox="0 0 100 100" overflow="visible" xml:space="preserve">
<path id="Golgari" fill="#231F20" d="M30.32124,37.40309c-0.23767-5.0887,2.70641-8.72612,2.70641-8.72612
	c3.44112,1.40997,3.77243,4.4351,3.77243,4.4351C33.00786,33.7837,30.32124,37.40309,30.32124,37.40309 M32.80256,15.94439
	c1.96279-0.55282,2.40571-0.64646,2.72806-1.39733c0.3223-0.75263,1.29649-4.62414,1.56301-5.65592
	c0.26646-1.03179,0.41231-2.75861-1.73408-2.27789c-2.1482,0.48259-9.70927,3.21065-14.00929,8.10493
	c-3.42672,3.90382-9.33834,3.97229-11.43071,8.9079c0,0,1.59181-0.92913,2.89006-0.29707
	c1.50899,0.73647,0.94178,2.33724,0.65185,3.62477c-0.2791,1.24786-3.91646,12.45167-3.91646,12.45167
	s-1.02102,3.1674-2.20046,4.77718c-1.1812,1.60983-3.86425,4.34685-3.59592,10.08745c0,0,1.12724-1.39376,2.73702-1.39376
	c1.60983,0,3.31143,1.06063,4.36124,4.73943c1.78447,6.24117,6.44466,10.09097,9.1853,13.89763
	c3.29885,4.58276,3.72379,12.78666,1.31809,17.10647c2.74784-1.51437,9.52018-11.63958,3.00716-20.44851
	c-6.62292-8.95483-9.06286-13.41691-9.32576-17.65748c-0.06842-1.11465,0.62844-2.14106,1.69265-3.05035
	c0,0-2.6758-4.98429-1.00838-10.79513C19.25965,24.32474,28.02538,17.28588,32.80256,15.94439 M44.70509,65.4397
	c-0.1675,0.34752-0.40154,0.64102-0.71306,0.85352c-1.42794,0.96695-3.83007-0.07924-5.36423-2.3391
	c-1.53598-2.26168-1.62242-4.88165-0.19448-5.8504c0.83011-0.56364,1.98977-0.44115,3.1152,0.19986
	c-2.37691-3.30605-5.23642-4.9771-6.49686-5.59289c0,0,1.3793-6.84444,6.15472-8.85756c0,0,2.64338-10.58257,2.70278-10.87074
	c0.05583-0.28806,0.61766-2.6542,0.47539-3.35825c0,0-2.00417,1.53416-4.27299,6.00355
	c-0.39077,0.77065-1.5396,1.71056-3.41051,3.08272c-2.57859,1.89251-6.24298,4.79158-8.7387,10.80227
	c-2.44714,5.89722-1.2533,14.41441-0.44654,17.17488c0,0,6.03944-0.34395,9.14562,4.66013
	c3.10619,5.00413,1.72507,15.81718-0.34571,20.30448c0,0,8.91515-8.34074,8.9728-20.65018
	C45.29929,68.94199,45.08141,67.09811,44.70509,65.4397 M54.71149,71.00199c0.05759,12.30945,8.9728,20.65018,8.9728,20.65018
	c-2.07083-4.4873-3.45195-15.30035-0.34395-20.30448c3.10619-5.00408,9.14386-4.66013,9.14386-4.66013
	c0.8067-2.76048,2.00054-11.27766-0.44836-17.17488c-2.49396-6.0107-6.15836-8.90976-8.73694-10.80227
	c-1.87091-1.37216-3.01974-2.31207-3.41046-3.08272c-2.26706-4.46939-4.27304-6.00355-4.27304-6.00355
	c-0.14222,0.70405,0.41956,3.07019,0.4754,3.35825c0.0594,0.28817,2.70459,10.87074,2.70459,10.87074
	c4.77361,2.01313,6.15472,8.85756,6.15472,8.85756c-1.26226,0.6158-4.1217,2.28685-6.49862,5.59289
	c1.12543-0.64102,2.28503-0.76351,3.11514-0.19986c1.42794,0.96876,1.34156,3.58873-0.19447,5.8504
	c-1.53416,2.25986-3.93624,3.30605-5.36418,2.3391c-0.31153-0.21249-0.54562-0.506-0.71488-0.85352
	C54.92036,67.09811,54.70248,68.94199,54.71149,71.00199 M69.67871,37.40309c0.23772-5.0887-2.70641-8.72612-2.70641-8.72612
	c-3.44112,1.40997-3.77243,4.4351-3.77243,4.4351C66.99033,33.7837,69.67871,37.40309,69.67871,37.40309 M63.7383,23.86743
	c-0.34576-1.4136-3.67703-14.87188-3.67703-14.87188s-0.23047-1.55219-1.55395-1.66923
	c-1.32353-0.11342-4.31448-0.40148-4.31448-0.40148s-2.2436-0.11529-2.06896-2.01324c0,0-1.03541,0.34576-1.1524,1.38117
	C50.86163,7.27949,50.21336,7.6991,49.9991,7.6991c-0.2125,0-0.86253-0.41962-0.97238-1.40634
	c-0.11523-1.03541-1.14883-1.38117-1.14883-1.38117c0.17107,1.89795-2.07077,2.01324-2.07077,2.01324
	s-2.99095,0.28806-4.31442,0.40148c-1.32353,0.11705-1.554,1.66923-1.554,1.66923s-3.33308,13.45829-3.67698,14.87188
	c-0.41418,1.69979-3.74182,2.38406-3.74182,2.38406c5.75137,1.09487,6.55626,6.32755,6.55626,6.32755
	s1.00838-3.76699,6.29337-6.33118c0,0,1.5468,2.10863,1.21907,4.17397c-0.11881,0.74548-2.1626,12.05019-3.7166,15.78838
	c0,0,2.24547,1.2677,3.16559,3.68242c0.75988,1.99691,0.80494,4.71596,0.80494,4.71596s2.09957-3.63736,1.72501-5.17696
	c-0.51859-2.1266-1.43695-2.1266-0.68965-3.91107c0.7473-1.78266,2.01318-1.89789,2.01318-1.89789h0.21789
	c0,0,1.26588,0.11523,2.01494,1.89789c0.7473,1.78447-0.17464,1.78447-0.69146,3.91107
	c-0.37456,1.5396,1.72506,5.17696,1.72506,5.17696s0.04501-2.71905,0.80489-4.71596
	c0.92194-2.41472,3.16383-3.68242,3.16383-3.68242c-1.55219-3.73819-3.59779-15.0429-3.71665-15.78838
	c-0.32592-2.06533,1.22088-4.17397,1.22088-4.17397c5.28318,2.56419,6.29156,6.33118,6.29156,6.33118
	s0.80676-5.23268,6.55814-6.32755C67.48013,26.25148,64.15242,25.56721,63.7383,23.86743 M84.28408,36.66837
	c1.66742,5.81083-1.00843,10.79513-1.00843,10.79513c1.0642,0.9093,1.76287,1.9357,1.69264,3.05035
	c-0.26289,4.24057-2.7046,8.70265-9.3257,17.65748c-6.51308,8.80893,0.25926,18.93414,3.0071,20.44851
	c-2.40746-4.31981-1.98252-12.52371,1.31815-17.10647c2.74064-3.80666,7.40077-7.65647,9.18343-13.89763
	c1.05163-3.67879,2.75504-4.73943,4.36306-4.73943c1.61164,0,2.73707,1.39376,2.73707,1.39376
	c0.26828-5.7406-2.41472-8.47762-3.59598-10.08745c-1.17944-1.60978-2.20045-4.77718-2.20045-4.77718
	s-3.63736-11.20381-3.91827-12.45167c-0.28812-1.28753-0.85534-2.8883,0.65366-3.62477
	c1.29831-0.63206,2.89011,0.29707,2.89011,0.29707c-2.09418-4.93561-8.00223-5.00408-11.43076-8.9079
	C74.34967,9.82389,66.78684,7.09584,64.6404,6.61324c-2.14639-0.48072-2.00055,1.2461-1.73403,2.27789
	c0.26646,1.03179,1.24067,4.90329,1.56296,5.65592c0.32235,0.75087,0.76532,0.84451,2.72806,1.39733
	C71.97457,17.28588,80.74212,24.32474,84.28408,36.66837"/>
</svg>
