<?xml version="1.0" encoding="utf-8"?>
<!-- Generator: Adobe Illustrator 26.0.2, SVG Export Plug-In . SVG Version: 6.00 Build 0)  -->
<svg version="1.2" baseProfile="tiny" id="Layer_1" xmlns="http://www.w3.org/2000/svg" xmlns:xlink="http://www.w3.org/1999/xlink"
	 x="0px" y="0px" viewBox="0 0 100 100" overflow="visible" xml:space="preserve">
<path id="Gruul" fill="#231F20" d="M73.05812,41.89062c-2.9035,1.3639-2.84706,3.88855-2.84706,3.88855
	c1.97328-0.67875,2.21996-2.40697,2.21996-2.40697c0.73996,1.17202,0.92696,5.24596-2.77616,6.66629
	c-2.46498,0.9431-3.55966,2.16029-4.01913,2.86964c2.23768-4.66236-0.54168-7.62228-0.54168-7.62228
	c1.30746-0.12413,1.93943,0.57228,1.93943,0.57228c0.57233-2.49238,1.49285-1.71533,3.91759-3.65634
	c2.74546-2.19901,0.73833-5.37014,0.73833-5.37014c-0.36919,1.72827-1.66373,1.79115-3.20818,2.28284
	C66.94,39.60945,66.94,41.33767,66.94,41.33767c-0.80289-2.46985,1.42997-5.05896,3.09531-6.0456
	c1.66697-0.98826,2.65361-2.77774,1.04952-4.8752c-1.6041-2.09904,0.29667-4.81552,0.29667-4.81552
	c-0.67875,2.03458,2.03773,2.22159,3.57899,6.35516C76.50334,36.09008,76.09705,40.46064,73.05812,41.89062 M37.99852,39.97859
	c0,0,1.9136,0.43207,3.20818-1.97328c1.29615-2.40692-2.40535-4.99928-1.72502-7.83669
	c0.67713-2.84061,2.89705-3.82726,2.89705-3.82726s-1.23328,3.94981,2.59398,4.99928c0,0-2.22317-2.83899,0.36919-4.87677
	c2.59235-2.03291,6.48086-3.94818,4.19645-9.99536c0,0,5.42977,2.28279,5.79891,7.2805
	c0.37081,5.0009-3.63863,3.94981-4.00944,9.44403c0,0,1.04794-0.30956,1.35746-1.42191
	c0.30794-1.11082,1.2962-2.71329,2.46822-2.71329c0,0-1.2349,1.17202-0.30794,2.83579
	c0.92539,1.66859,3.64025-0.553,3.20823-2.34247c-0.43207-1.78947-1.35746-2.16191-1.35746-2.16191s2.46822-0.61583,3.33231,1.85397
	c0.86414,2.4666-0.12575,5.05896-1.17365,5.92147c-1.04789,0.86414-0.55295,2.59073,0.37244,3.33074
	c0.92534,0.73996,2.34405,1.66859,2.28279,2.84224c0,0,0.80126-1.66697,0.24669-2.90192
	c-0.55462-1.23328-0.49332-2.34567,1.41708-4.25607c1.91523-1.91365,4.99928-7.59006,3.58057-11.664
	c-1.42028-4.07232-4.19645-6.04717-3.64182-8.5154c0,0-1.91045,1.66697-1.35583,4.07394
	c0.55457,2.4053,1.97328,4.31895,0.61745,6.35673c0,0-0.37244-2.84061-1.91365-3.766
	c-1.54284-0.92539-3.14693-2.34572-2.34567-4.68819c0,0-1.78952,0.86251-1.78952,3.33074c0,0,0-4.07394-3.64025-5.86341
	c-3.64187-1.7879-3.08567-7.3418-1.66697-8.88464c0,0-5.61515,2.77779-6.78718,8.02213
	c-1.17207,5.24434,1.04952,7.89795,1.04952,7.89795s-1.94913,0.14189-2.99382-1.49123
	c-0.91407-1.4316-0.61903-3.74667-0.61903-3.74667s-4.28515,3.81923-3.17596,9.25058c0,0-2.65203-1.17365-1.78952-4.2577
	c0.86414-3.0873,2.28442-5.55552-0.43044-7.52881c0,0,2.09741,1.91041-0.43207,3.7628
	c-2.5311,1.85073-6.66625,5.98592-4.50438,10.73699C33.49414,31.95652,41.70165,34.36506,37.99852,39.97859 M28.7721,26.73633
	c0.01776-0.01451,0.03227-0.02416,0.03227-0.02416S28.79149,26.71862,28.7721,26.73633 M34.48241,52.81461
	c0,0-1.06728-1.9878,0.80928-3.80792c1.53639-1.48803-0.68677-3.90627-0.68677-3.90627s0.68033,1.48158-0.43207,1.85077
	c-1.11077,0.37239-2.59235-0.18381-3.20818-1.60409c-0.61745-1.41871,0.43207-2.28284,1.66534-1.78952
	c0,0-0.30794-1.29453-2.3441-1.78785c-2.03773-0.49495-4.50433-2.83904-3.64025-6.41803c0,0,0.18543,2.46822,2.83579,3.27111
	c2.65523,0.79958,4.56888,0.43044,4.75264,2.89862c0,0,1.17365-2.77612-0.6787-4.8139
	c-1.85078-2.03453-2.59073-3.26944-2.15866-4.38025c0,0-1.11082,1.9749-0.67875,3.94818c0,0-2.71486-1.97328-2.71486-5.55228
	c0-3.14048,0.61745-3.85786,0.76898-3.98686c-0.41268,0.30631-4.88966,3.78858-4.59624,9.9712
	c0.30951,6.48091,5.22338,8.91848,5.22338,8.91848s-1.90716,0.0306-3.1856-1.08179c0,0-0.30956,3.22112,3.06954,4.08683
	C33.57635,49.73056,31.24677,51.34597,34.48241,52.81461 M35.14335,82.91203l-5.11376,4.58015l3.80147,0.50621l3.68379-3.24847
	l0.17574-1.57674l-0.31438-2.13126L35.14335,82.91203z M58.34397,71.26416l0.37721-1.87813l10.61448-8.26556l-1.37035-0.16122
	l0.22248-1.99586l-1.01567,0.19025l-10.70151,8.82821l-2.21347,0.19989l0.15316,1.47352l-3.14693,2.07808l-0.15803-2.55206
	l-1.7169-1.7476l-0.92701-0.0032l-0.19025,4.31738l-2.65199-2.28604l-1.38806-3.43878l-0.89316,1.54127l-6.91613-5.8151
	l-0.44658-1.2075l-1.15913,0.25795l-4.06749-3.76438l2.4698,4.91387l5.95212,5.19436l-1.46062,0.40141l3.76438,3.84339
	l1.54284-0.03223l3.69024,3.38393L44.37459,76.278l0.06288-0.99308l-4.2819,4.71879l-1.42028,0.02578l0.52555,2.5037
	l-0.09835,1.3671l1.05921-0.87057l4.18355-3.2904l0.83831,0.56422l2.75196-2.21992l-0.22248,5.09281l1.25423,1.28168
	l0.90443,6.55988l0.92863-8.89915l1.08175,0.48849l-0.20477-3.2775l0.84642,0.70287l1.3026,0.04354l8.07856,8.58476l0.43364-1.9443
	l3.19691,0.66586l-5.08956-4.62851l1.54284-0.03709l-5.52649-4.9703l-0.04999,1.17207l-4.5463-4.00787l4.85587-3.91916
	L58.34397,71.26416z M57.9764,61.94588c0.26115,0.2918,0.57553,0.68357,0.47881,0.80933
	c-0.1596,0.20472-2.35537,2.44077-7.33373,2.44077H49.5593c-4.97837,0-7.1757-2.23605-7.33373-2.44077
	c-0.0951-0.12575,0.21766-0.51752,0.47881-0.80933c-0.58035-0.99471-1.59278-2.03291-2.60682-2.77454
	c-1.54284-1.13173-2.52466-3.89495-2.83904-6.41798c-0.32727-2.62621,1.34456-8.02213,2.77616-8.45414
	c0.88667-0.26927,1.89589-3.20016,3.33231-4.07394c2.57302-1.56217,6.54054-1.72665,6.54054-1.72665h0.86409
	c0,0,3.97077,0.16447,6.54216,1.72665c1.43967,0.87378,2.44564,3.80467,3.33231,4.07394
	c1.43322,0.43202,3.10344,5.82794,2.77617,8.45414c-0.31601,2.52303-1.2962,5.28625-2.83742,6.41798
	C59.5708,59.91298,58.55513,60.95118,57.9764,61.94588 M57.62172,48.18452c-0.92539-3.26948-4.32063-4.99608-4.93645-4.99608
	c-0.61745,0-0.86251,1.7266-1.35746,2.21992c-0.49489,0.49494-0.80283,0.46109-0.80283,0.46109h-0.36919
	c0,0-0.30951,0.03385-0.80283-0.46109c-0.49332-0.49332-0.74001-2.21992-1.35583-2.21992c-0.61745,0-4.01269,1.7266-4.93808,4.99608
	c-0.82217,2.90993-1.15269,8.88621,3.50967,11.17545c0.85444-0.57716,1.59282-1.11559,1.83789-1.40419
	c0.70128-0.82217,1.72822-0.86246,1.72822-0.86246h0.41111c0,0,1.02856,0.04029,1.7266,0.86246
	c0.24669,0.2886,0.98507,0.82704,1.84113,1.40419C58.77604,57.07074,58.44389,51.09446,57.62172,48.18452 M52.23067,47.75403
	c-0.74483-0.38366-1.46707-0.68353-2.32314-0.57391c-0.553,0.07095-1.05276,0.32083-1.54284,0.57391
	c-1.5235,0.78355-2.31831,1.93786-2.27797,3.70637c0.04029,1.77014,0.86733,2.91319,1.82494,3.49354
	c0.45785,0.27729,1.82495,0.76416,2.21997,0.79806c0.02898,0.00157,0.05638,0.0032,0.08541,0.00482
	c0.44496,0.00645,1.12046-0.11286,1.52512-0.27729c0.40142-0.16605,1.00116-0.37888,1.3639-0.6207
	c0.96726-0.64648,1.44769-1.70406,1.48798-3.47258C54.63597,49.6177,53.7525,48.53758,52.23067,47.75403"/>
</svg>
