<?xml version="1.0" encoding="utf-8"?>
<!-- Generator: Adobe Illustrator 26.0.2, SVG Export Plug-In . SVG Version: 6.00 Build 0)  -->
<svg version="1.2" baseProfile="tiny" id="Layer_1" xmlns="http://www.w3.org/2000/svg" xmlns:xlink="http://www.w3.org/1999/xlink"
	 x="0px" y="0px" viewBox="0 0 100 100" overflow="visible" xml:space="preserve">
<path id="Izzet" fill="#231F20" d="M31.23544,19.29694l-0.80259-5.26183l4.04644,3.73251
	C33.37154,18.2297,32.2885,18.73948,31.23544,19.29694 M43.67813,15.16577L39.38299,8.6358l-0.71264,7.65008
	C40.30021,15.80969,41.97066,15.43395,43.67813,15.16577 M50.00178,14.67193c1.28415,0,2.5524,0.06169,3.80655,0.1799
	L50.00178,3.99495l-3.8083,10.85688C47.44762,14.73362,48.7159,14.67193,50.00178,14.67193 M61.33142,16.28588L60.61703,8.6358
	l-4.29512,6.52997C58.0294,15.43395,59.70159,15.80969,61.33142,16.28588 M68.76634,19.29694l0.80261-5.26183l-4.04645,3.73251
	C66.63023,18.2297,67.71153,18.73948,68.76634,19.29694 M87.33337,55.10801c0,9.57808-3.60014,18.30951-9.51633,24.92421
	l-0.01938,0.02115l-0.39512,0.10406c-6.38366,1.77453-7.1986,7.67662-7.1986,7.67662
	c-2.03378-2.95632-2.59119-5.35883-1.99852-7.55841c-6.5353,1.64926-8.51621,5.55634-9.07535,7.0257
	c-0.17113,1.44993-4.25281,3.30735-9.11947,3.30735c-4.79081,0-8.8196-1.77275-9.11242-3.23328
	c-0.52036-1.31589-2.16081-6.32719-9.10184-7.09977c0.59267,2.19958,0.03354,4.60209-2.00027,7.55841
	c0,0-0.81494-5.90209-7.1968-7.67662l-0.39512-0.10406c-0.00178,0-0.01941-0.02115-0.01941-0.02115
	c-5.9162-6.61471-9.51814-15.34614-9.51814-24.92421c0-6.77345,1.79921-13.12885,4.94603-18.60757
	c0.30164-0.52216,0.61208-1.03538,0.93488-1.54171c0.95781-1.49401,2.02147-2.92279,3.18211-4.26694
	c4.85786-5.63391,11.43197-9.79501,18.62703-11.70352c8.16871-2.16787,17.02005-1.50822,24.74956,1.92444
	c6.66406,2.95982,12.41446,7.90588,16.34624,14.04602c0.32277,0.50633,0.63499,1.01955,0.93665,1.54171
	C85.53419,41.97916,87.33337,48.33456,87.33337,55.10801 M39.80632,55.36204c-5.54576-3.57904-9.24998-9.9838-9.24998-17.27585
	c0-0.47091,0.02115-0.93482,0.05292-1.39874c-0.99309,2.94927-1.53991,6.17189-1.53991,9.55154
	c0,8.47746,3.44139,15.98289,8.72435,20.58853c-0.13584-1.009-0.22579-2.00207-0.22579-2.87697
	C37.56791,61.24998,38.27349,58.51592,39.80632,55.36204 M55.35528,55.3179c6.90929-2.37247,11.91704-9.19884,11.91704-17.23171
	c0-0.29284-0.00883-0.58385-0.02116-0.87669c-0.15702-3.37432-1.22416-6.68694-3.10096-9.50045
	c-1.55759-2.33194-3.65488-4.30042-6.11023-5.66223c-2.45185-1.3617-5.23354-2.09024-8.0382-2.09024
	c-1.47816,0-2.9528,0.19939-4.37804,0.59095c-2.64058,0.72671-5.0748,2.11845-7.07509,3.98465
	c-2.2049,2.05676-3.87179,4.67088-4.83315,7.5267c-0.04231,0.12704-0.08465,0.25753-0.12524,0.38629
	c-0.53268,1.69868-0.81844,3.47315-0.8555,5.253c-0.02821,1.3617,0.09173,2.72695,0.35633,4.064
	c0.63854,3.21562,2.12023,6.24607,4.30397,8.69439c0.48154,0.54153,0.99837,1.05481,1.54343,1.53283
	c0.14817,0.13054,1.8627,1.46758,1.88033,1.43938c1.13948-2.03733,2.42714-3.98825,3.4802-6.07672
	c0.6897-1.37058,1.64929-3.26149,1.39704-4.83135c-0.27341-1.69335-2.56651-1.9315-3.69011-0.96836
	c-0.60855,0.52205-0.90314,1.30345-0.77613,2.09546l0.05466,0.34048c0,0-1.0354-0.19933-1.8715-0.70733
	c-0.83609-0.50805-1.30178-1.22594-1.55931-2.15731c-0.46391-1.67564-1.2524-3.70774-0.74437-5.45229
	c0.08465-0.2839,0.21872-0.56619,0.40922-0.80961c1.15009-1.45698,2.43597-2.86637,3.72718-4.18048
	c1.12891-1.14832,2.3019-2.33194,3.7342-3.10269c0.45864-0.24697,0.87491-0.51505,1.27885-0.83793
	c0.85725-0.6773,1.67397-1.34943,2.64058-1.86975l0.77085-0.4145l-0.27166,0.83782
	c-0.09348,0.29284-0.18346,0.59806-0.25753,0.89606c1.64221-1.38463,3.7342-2.14838,5.78213-2.71112l0.91017-0.24697
	l-0.53623,0.77968c-0.47449,0.68796-0.94545,1.37591-1.41819,2.06376c-0.05292,0.0759-0.36511,0.65619-0.44098,0.67213
	c0.04764-0.00883,0.09351-0.01593,0.13937-0.02821c1.43055-0.38101,2.83109-0.98079,4.2246-1.47291l0.69318-0.24342l-0.28926,0.6703
	l-1.21886,2.83106c-0.13934,0.34043-0.30869,0.65264-0.37044,1.02138c-0.01585,0.097-0.02293,0.20811,0.04059,0.28218
	c0.06527,0.07407,0.17638,0.0829,0.27516,0.08645c1.81506,0.05469,3.63012,0.11638,5.44695,0.18345l0.56802,0.0211l-0.38629,0.40922
	c-0.01416,0.01593-0.02998,0.03176-0.04414,0.04942c-0.57857,0.61205-1.13948,1.24187-1.74804,1.82389
	c-0.57324,0.54681-1.19768,1.07952-1.6034,1.7692c-0.08467,0.14825-0.13226,0.3246-0.09172,0.48867
	c0.03354,0.13049,0.11821,0.24159,0.21344,0.33515c0.53798,0.51677,1.44993,0.7055,2.12728,0.97013
	c0.82732,0.32277,1.65282,0.64737,2.47831,0.97369l0.36691,0.14459l-0.37218,0.12349
	c-1.00895,0.33515-2.0144,0.69323-3.01102,1.07069c-0.88018,0.33343-1.75331,0.68795-2.60704,1.0778
	c-0.02293,2.05493-0.97546,4.94601-2.28783,8.7261C55.2424,50.19021,55.09598,52.71966,55.35528,55.3179 M70.93248,46.23899
	c0-3.37965-0.54686-6.60227-1.53993-9.55154c0.02998,0.46208,0.05114,0.92783,0.05114,1.39874
	c0,9.1371-5.81386,16.88246-13.78149,19.42073c0.67735,3.77126,2.0938,7.49494,3.68659,10.17258
	c0.18523,0.31216,0.34042,0.62793,0.47274,0.94543C66.43268,64.35799,70.93248,55.93351,70.93248,46.23899"/>
</svg>
