<?xml version="1.0" encoding="utf-8"?>
<!-- Generator: Adobe Illustrator 27.6.1, SVG Export Plug-In . SVG Version: 6.00 Build 0)  -->
<svg version="1.1" id="Layer_1" xmlns="http://www.w3.org/2000/svg" xmlns:xlink="http://www.w3.org/1999/xlink" x="0px" y="0px"
	 viewBox="0 0 32 32" style="enable-background:new 0 0 32 32;" xml:space="preserve">
<style type="text/css">
	.st0{fill:#444444;}
</style>
<path class="st0" d="M9.6,6.2c0.6,0,1.3,0.1,1.9,0.3c1,0.3,2,0.8,2.8,1.4c0.7,0.5,1.2,1.3,1.7,2c1-1.7,2.7-3.1,4.7-3.4l0,0
	c1-0.2,2-0.4,3-0.1c1.3,0.4,2.3,1.5,2.8,2.7c0.6,1.5,0.7,3.1,0.2,4.6l0,0c-0.5,1.5-1.3,3-2.6,3.9c-0.2,0.2-0.1,0.1,0,0
	c0.6-0.1,1.3-0.7,1.8-1c0.6,0.9,1,2,0.6,3.1c-0.5,2.1-2.2,3.6-3.9,4.9c-0.7,0.6-1.6,1-2.3,1.6c3.9-1.3,7.7-4.1,9.2-8
	c1.1,0.7,2,1.6,2.4,2.8c0.4,1.6-0.3,3.3-1.5,4.3c-0.4-0.8-1.3-1.6-2.3-1.4c-1.1,0.3-1.9,1.2-2.8,1.9c-2.6,2.2-5.8,3.7-9.2,4
	c-3.5-0.3-6.8-1.8-9.4-4.1C5.8,25,5,24.1,4,23.9c-1-0.2-1.8,0.5-2.3,1.3c-0.1,0-0.2,0-0.2-0.1c-1-1-1.7-2.6-1.3-4
	c0.3-1.3,1.3-2.3,2.4-3c1.4,3.6,4.7,6.2,8.2,7.7c0.3,0.1,0.7,0.3,1,0.4c-2.1-1.3-4.2-2.7-5.5-4.9c-0.7-1.2-1.1-2.8-0.5-4.1
	c0.1-0.2,0.2-0.6,0.5-0.6c0.5,0.4,1.1,0.8,1.7,1.1c-1-1.1-2-2.3-2.4-3.7C5,12.6,5,11,5.5,9.5c0.4-1.3,1.4-2.5,2.6-3
	c0.3-0.1,0.7-0.2,1-0.2C9.3,6.2,9.5,6.2,9.6,6.2z M16.1,20L16.1,20c-0.8-0.1-0.9,0.8-1.3,1.2c-0.3,0.2-0.6-0.1-0.9-0.1
	c0.2,2,1,4,2.2,5.7c1.2-1.7,2-3.7,2.2-5.7c-0.3,0-0.6,0.3-0.9,0.1C16.8,20.8,16.7,20,16.1,20L16.1,20z M9.9,11.7
	c-1,0.1-0.6,0-1.3,0.2c0.1,0.1,0.2,0.3,0.3,0.4c0,0.6,0,1.2,0.3,1.7c0.4,0.8,1.3,1.3,2.2,1.2c0.6,0,1.3-0.3,1.7,0.3
	c0.1-0.9,0.3-1.8,0.1-2.7c-0.1-0.5-0.7-0.7-1.1-0.8c-0.5-0.1-0.7-0.1-1.3-0.2C10.4,11.7,10.2,11.7,9.9,11.7L9.9,11.7z M21.9,11.7
	c-0.7,0-0.4,0-0.9,0c-0.7,0.1-1.7,0.1-2.2,0.8c-0.4,0.9-0.1,2,0,3c0.5-0.6,1.3-0.3,1.9-0.3c0.9,0,1.8-0.6,2.2-1.4
	c0.3-0.6,0-1.4,0.5-1.9C22.9,11.7,22.4,11.7,21.9,11.7z M19.2,2.2c0.7,0,1.5,0.1,2.2,0.3c2.9,0.8,5.3,3,6.5,5.7
	c0.8,1.8,1,3.8,1.1,5.8c-0.1,1.4-0.1,2.8-0.6,4.1c-0.4,1.3-1.1,2.5-2,3.5c0.5-0.8,1-1.7,1.1-2.7c0.1-1.1-0.3-2.3-0.9-3.2
	c0.8-1.1,1.3-2.4,1.3-3.7c0.1-2.4-0.8-5-2.9-6.2c-1-0.7-2.2-0.8-3.4-0.7c-2.1,0.2-4.2,1.2-5.6,2.8c-1.5-1.6-3.5-2.6-5.6-2.8
	C9.2,5,8,5.2,7,5.8c-2.2,1.3-3.1,4.1-2.8,6.6c0.1,1.2,0.6,2.4,1.3,3.4c-0.7,0.9-1.1,2-0.9,3.2c0.1,1,0.6,1.9,1.1,2.7
	C4.3,20,3.4,18.1,3.2,16c-0.3-2.4-0.1-5,0.7-7.3c1-2.9,3.5-5.2,6.4-6.1C12,2.1,13.9,2,15.6,2.7c0.1,0,0.3,0.1,0.4,0.1
	c0.1-0.1,0.3-0.1,0.4-0.1c0.7-0.3,1.4-0.5,2.2-0.5C18.8,2.2,19,2.2,19.2,2.2L19.2,2.2z"/>
</svg>
