<?xml version="1.0" encoding="UTF-8" standalone="no"?>
<svg
   xmlns:dc="http://purl.org/dc/elements/1.1/"
   xmlns:cc="http://creativecommons.org/ns#"
   xmlns:rdf="http://www.w3.org/1999/02/22-rdf-syntax-ns#"
   xmlns:svg="http://www.w3.org/2000/svg"
   xmlns="http://www.w3.org/2000/svg"
   version="1.1"
   width="110.25"
   height="137.71875">
  <path
     d="M 55.125,0 C 40.36431,0 26.67717,4.18465 16.5625,12.125 6.44783,20.06535 0,31.87896 0,46.46875 c 0,10.91843 6.21767,21.12934 12.75,29.3125 3.26617,4.09158 6.65309,7.68119 9.46875,10.5625 2.81566,2.88131 5.12945,5.14374 5.96875,6.15625 2.88992,3.48634 5.0641,12.56375 5.8125,20.21875 -1.49595,0.91236 -2.4121,3.60484 -2.375,5.8125 0.0353,2.10416 0.67004,4.57869 3.71875,5.625 0.3144,0.11153 0.62499,0.2051 0.9375,0.3125 0.91166,2.05912 2.0947,4.04409 3.59375,5.84375 3.51514,4.22005 8.7835,7.40625 15.25,7.40625 6.4665,0 11.73486,-3.1862 15.25,-7.40625 1.49905,-1.79966 2.68209,-3.78463 3.59375,-5.84375 0.31251,-0.1074 0.6231,-0.20097 0.9375,-0.3125 3.04871,-1.04631 3.68346,-3.52084 3.71875,-5.625 0.0371,-2.20766 -0.87905,-4.90014 -2.375,-5.8125 0.7484,-7.655 2.92258,-16.73241 5.8125,-20.21875 0.8393,-1.01251 3.15309,-3.27494 5.96875,-6.15625 2.81566,-2.88131 6.20258,-6.47092 9.46875,-10.5625 6.53233,-8.18316 12.75,-18.39407 12.75,-29.3125 0,-14.58979 -6.44783,-26.4034 -16.5625,-34.34375 C 83.57283,4.18465 69.88569,0 55.125,0 z m 0,5 C 68.93919,5 80.0405,9.67414 89.09375,16.78125 98.147,23.88836 102.6875,33.44911 102.6875,46.59375 100.61219,68.05188 90.5092,73.96681 78.21875,87 73.27413,92.9651 72.3202,106.83557 71.90625,115.65625 64.13357,118.86127 60.85907,119 55.125,119 49.39093,119 46.11643,118.86127 38.34375,115.65625 37.9298,106.83557 36.97587,92.9651 32.03125,87 19.7408,73.96681 9.63781,68.05188 7.5625,46.59375 7.5625,33.44911 12.103,23.88836 21.15625,16.78125 30.2095,9.67414 41.31081,5 55.125,5 z m 0,18.03125 c -5.86898,0 -10.90769,2.6429 -13.3125,6.4375 -0.24684,-0.0789 -0.4972,-0.15255 -0.75,-0.21875 -6.01277,-1.57391 -11.38677,1.12497 -12.125,6.03125 -3.82193,1.67679 -6.40625,4.89515 -6.40625,8.5625 0,5.40632 5.64015,9.78125 12.5625,9.78125 3.82221,0 7.23225,-1.33061 9.53125,-3.4375 1.3648,2.47271 2.23023,5.83756 2.75,9.5 2.26962,0.15478 4.96604,0.375 7.75,0.375 2.78396,0 5.48038,-0.22022 7.75,-0.375 0.51977,-3.66244 1.3852,-7.02729 2.75,-9.5 2.299,2.10689 5.70904,3.4375 9.53125,3.4375 6.92235,0 12.5625,-4.37493 12.5625,-9.78125 0,-3.66735 -2.58432,-6.88571 -6.40625,-8.5625 -0.73823,-4.90628 -6.11223,-7.60516 -12.125,-6.03125 -0.2528,0.0662 -0.50316,0.13987 -0.75,0.21875 -2.40481,-3.7946 -7.44352,-6.4375 -13.3125,-6.4375 z M 46.59375,42 47.4375,43.15625 c 2.36595,3.1893 4.73541,5.03125 7.6875,5.03125 2.95209,0 5.32155,-1.84195 7.6875,-5.03125 L 63.65625,42 64.4375,43.21875 c 1.30468,2.02393 2.93354,3.85838 5.25,4.75 2.31646,0.89162 12.5625,-0.625 12.5625,-0.625 -4.92426,2.11153 -10.39577,3.61064 -13.28125,2.5 -2.41733,-0.93045 -4.05136,-2.67961 -5.375,-4.5 -2.3539,2.86495 -5.06523,4.84375 -8.46875,4.84375 -3.40352,0 -6.11485,-1.9788 -8.46875,-4.84375 -1.32364,1.82039 -2.95767,3.56955 -5.375,4.5 -2.88548,1.11064 -8.35699,-0.38847 -13.28125,-2.5 0,0 10.24604,1.51662 12.5625,0.625 2.31646,-0.89162 3.94532,-2.72607 5.25,-4.75 z M 46.4375,57 c -7.87178,0.3635 -14.125,0.67437 -14.125,2.3125 0,1.77672 6.48353,3.26288 15.4375,3.8125 0.58182,6.52595 0.375,13.41649 0.375,17.6875 0,0.65901 3.12628,1.1875 7,1.1875 3.87372,0 7,-0.52849 7,-1.1875 0,-4.27101 -0.20682,-11.16155 0.375,-17.6875 8.95397,-0.54962 15.4375,-2.03578 15.4375,-3.8125 0,-1.63813 -6.25322,-1.949 -14.125,-2.3125 -0.0835,0.36305 -0.14364,1.34338 -0.21875,1.71875 3.43895,0.0467 7.5625,0.077 7.5625,0.40625 0,1.08185 -7.16919,1.9375 -16.03125,1.9375 -8.86206,0 -16.03125,-0.85565 -16.03125,-1.9375 0,-0.32925 4.12355,-0.35955 7.5625,-0.40625 C 46.58115,58.34338 46.521,57.36305 46.4375,57 z m 1.15625,22.84375 c -5.19621,0.48763 -8.78125,1.44918 -8.78125,2.5625 0,1.11121 3.56604,2.07763 8.75,2.5625 -1.12571,3.15671 -3.8332,6.18542 -6.875,9.1875 0,0 6.90311,2.18879 14.35388,2.18879 7.45077,0 14.52112,-2.18879 14.52112,-2.18879 -3.0418,-3.00208 -5.74929,-6.03079 -6.875,-9.1875 5.18396,-0.48487 8.75,-1.45129 8.75,-2.5625 0,-1.11332 -3.58504,-2.07487 -8.78125,-2.5625 0.62636,0.30064 1,0.63652 1,1 0,1.19389 -3.81287,2.15625 -8.53125,2.15625 -4.71838,0 -8.53125,-0.96236 -8.53125,-2.15625 0,-0.36348 0.37364,-0.69936 1,-1 z M 38.5,93.5 l 2.34375,19.375 c 0,0 6.38893,3.40719 14.28125,3.59375 7.89232,-0.18656 14.28125,-3.59375 14.28125,-3.59375 L 71.75,93.5 c 0,0 -10.87732,4.49289 -16.625,4.625 C 49.37732,97.99289 38.5,93.5 38.5,93.5 z m 3.09375,5.34375 c 0,0 7.60717,3.25 13.53125,3.25 5.92408,0 13.53125,-3.25 13.53125,-3.25 0,0 -4.53887,4.6875 -13.53125,4.6875 -8.99238,0 -13.53125,-4.6875 -13.53125,-4.6875 z m 0,4.5 c 0,0 7.60717,3.25 13.53125,3.25 5.92408,0 13.53125,-3.25 13.53125,-3.25 0,0 -4.53887,4.6875 -13.53125,4.6875 -8.99238,0 -13.53125,-4.6875 -13.53125,-4.6875 z m 0,4.5 c 0,0 7.60717,3.25 13.53125,3.25 5.92408,0 13.53125,-3.25 13.53125,-3.25 0,0 -4.53887,4.6875 -13.53125,4.6875 -8.99238,0 -13.53125,-4.6875 -13.53125,-4.6875 z m -1.5625,17.84375 C 45.04201,127.15082 49.93029,128 55.125,128 c 5.19471,0 10.08299,-0.84918 15.09375,-2.3125 -2.97259,3.07682 -10.37807,4.03125 -15.09375,4.03125 -4.71568,0 -12.12116,-0.95443 -15.09375,-4.03125 z" />
</svg>
