<?xml version="1.0" encoding="UTF-8" standalone="no"?><!DOCTYPE svg PUBLIC "-//W3C//DTD SVG 1.1//EN" "http://www.w3.org/Graphics/SVG/1.1/DTD/svg11.dtd"><svg width="194" height="311" viewBox="0 0 194 311" version="1.1" xmlns="http://www.w3.org/2000/svg" xmlns:xlink="http://www.w3.org/1999/xlink" xml:space="preserve" xmlns:serif="http://www.serif.com/" style="fill-rule:evenodd;clip-rule:evenodd;stroke-linejoin:round;stroke-miterlimit:2;"><path d="M96.329,310.512c-27.831,0.475 -48.544,-2.875 -57.091,-12.762c3.374,-12.177 44.111,-7.98 47.25,-37.5l-0,-30l10.5,16.5l10.5,-16.5l-0,30c3.139,29.52 43.876,25.323 47.25,37.5c-8.614,9.965 -29.587,13.289 -57.75,12.75l-0.659,0.012Zm-76.591,-244.512l30,19.5l73.5,114l-1.5,9l8.25,2.25c17.561,21.808 24.543,48.831 42,33.75c9.745,27.025 -19.464,47.94 -44.25,30c13.826,-5.699 1.612,-21.009 -17.25,-48.75l0.75,-10.5l-9,-1.5l-5.25,-7.5l9.14,-9.14l-86.39,-131.11Zm62.33,115.926l-11.33,17.574l1.5,9l-8.25,2.25c-17.562,21.808 -24.543,48.831 -42,33.75c-9.745,27.025 19.464,47.94 44.25,30c-13.827,-5.699 -1.612,-21.009 17.25,-48.75l-0.75,-10.5l9,-1.5l5.25,-7.5l-14.92,-24.324Zm-42.83,-66.426l-6.75,-9.75c-38.082,34.275 -42.962,94.774 -13.175,129.75c5.966,7.006 12.415,8.378 16.175,2.25c-36.82,-39.182 -29.936,-88.092 3.75,-122.25Zm115.5,0l6.75,-9.75c38.081,34.275 42.962,94.774 13.175,129.75c-5.967,7.006 -12.416,8.378 -16.175,2.25c36.82,-39.182 29.936,-88.092 -3.75,-122.25Zm-78.75,57.75l-33,-50.25c-32.165,28.441 -29.965,81.515 -3,106.5l15.314,-23.929l-1.24,-8.093l7.722,-2.034l14.204,-22.194Zm42,0l33,-50.25c32.165,28.441 29.964,81.515 3,106.5l-15.314,-23.929l1.24,-8.093l-7.722,-2.034l-14.204,-22.194Zm-15.724,-22.648l8.323,11.997l63.651,-96.599l-30,19.5l-41.974,65.102Zm-5.135,-42.607c12.055,-0.523 30.337,-29.633 54.609,-86.245c-11.624,-5.471 -31.387,-7.395 -53.686,-8.212l-1.064,-0.038c-22.734,0.795 -42.942,2.692 -54.75,8.25c24.367,56.834 42.697,85.95 54.75,86.25l0.141,-0.005Zm-0.255,-11.247c-9.704,-0.329 -31.25,-38.99 -38.886,-55.498c8.266,-5.8 23.35,-6.487 39,-6.75l1.465,0.026c15.122,0.285 29.527,1.105 37.535,6.724c-7.666,16.572 -29.351,55.472 -39,55.5l-0.114,-0.002Zm-11.886,29.252l-0,-6c-34.288,-45.778 -52.212,-79.284 -60.75,-105.75c11.422,-10.797 41.579,-12.763 72.75,-14.25l2.919,0.141c30.122,1.478 58.766,3.65 69.831,14.109c-8.538,26.466 -26.462,59.972 -60.75,105.75l-0,6l-12,16.5l-12,-16.5Z"/></svg>