<?xml version="1.0" encoding="UTF-8" standalone="no"?>
<!DOCTYPE svg PUBLIC "-//W3C//DTD SVG 1.1//EN" "http://www.w3.org/Graphics/SVG/1.1/DTD/svg11.dtd">
<svg width="186" height="185" viewBox="0 0 186 185" version="1.1" xmlns="http://www.w3.org/2000/svg" xmlns:xlink="http://www.w3.org/1999/xlink" xml:space="preserve" xmlns:serif="http://www.serif.com/" style="fill-rule:evenodd;clip-rule:evenodd;stroke-linejoin:round;stroke-miterlimit:2;">
    <g transform="matrix(1,0,0,1,-12.4295,-12.6051)">
        <path d="M104.402,197.569C53.586,197.247 12.43,155.892 12.43,105C12.43,82.811 20.253,62.435 33.286,46.488L76.979,101.339C76.824,102.539 76.744,103.76 76.744,105C76.744,120.595 89.405,133.256 105,133.256L105.365,133.254C120.792,133.059 133.256,120.474 133.256,105C133.256,103.76 133.176,102.539 133.021,101.339L176.714,46.488C189.747,62.435 197.57,82.811 197.57,105C197.57,156.091 156.091,197.57 105,197.57L104.402,197.569ZM66.748,20.689L87.527,82.799C84.371,85.287 81.759,88.432 79.895,92.027L42.581,36.663C49.705,30.151 57.851,24.736 66.748,20.689ZM143.252,20.689L122.473,82.799C125.629,85.287 128.241,88.432 130.105,92.027L167.419,36.663C160.295,30.151 152.149,24.736 143.252,20.689ZM99.259,12.605L101.827,76.92C99.336,77.199 96.942,77.802 94.689,78.687L79.775,15.914C86.028,14.145 92.548,13.016 99.259,12.605ZM110.741,12.605L108.173,76.92C110.664,77.199 113.058,77.802 115.311,78.687L130.225,15.914C123.972,14.145 117.452,13.016 110.741,12.605Z"/>
    </g>
</svg>
