<?xml version="1.0" encoding="UTF-8" standalone="no"?><!DOCTYPE svg PUBLIC "-//W3C//DTD SVG 1.1//EN" "http://www.w3.org/Graphics/SVG/1.1/DTD/svg11.dtd"><svg width="176" height="314" viewBox="0 0 176 314" version="1.1" xmlns="http://www.w3.org/2000/svg" xmlns:xlink="http://www.w3.org/1999/xlink" xml:space="preserve" xmlns:serif="http://www.serif.com/" style="fill-rule:evenodd;clip-rule:evenodd;stroke-linejoin:round;stroke-miterlimit:2;"><path d="M87.32,313.492c-18.179,-0.434 -34.756,-10.871 -40.07,-27.742c15.284,5.422 24.596,-11.206 24.55,-18.849c-0.049,-7.909 -7.762,-15.031 -23.409,-15.235c-10.898,-0.142 -29.19,4.138 -43.141,16.084c-2.906,-2.764 -5.162,-5.943 -5.25,-10.5l27.75,-34.5l-3.75,19.5c7.503,-0.534 9.22,-9.716 36.75,-31.5l-4.5,25.5l6.75,0c9.573,-38.088 18.956,-76.164 24.75,-114l0.136,0.887c5.804,37.543 15.116,75.322 24.614,113.113l6.75,0l-4.5,-25.5c27.53,21.784 29.247,30.966 36.75,31.5l-3.75,-19.5l27.75,34.5c-0.088,4.557 -2.344,7.736 -5.25,10.5c-13.951,-11.946 -32.243,-16.226 -43.141,-16.084c-15.647,0.204 -23.36,7.326 -23.409,15.235c-0.046,7.643 9.266,24.271 24.55,18.849c-5.355,17.004 -22.152,27.471 -40.5,27.75l-0.43,-0.008Zm0.839,-12.016c8.565,-0.544 14.992,-2.987 19.091,-7.476c-4.663,-0.536 -7.791,-3.346 -9,-9c-0.59,6.697 -4.651,9.142 -10.233,9.724l-0.267,0.026c-5.719,-0.532 -9.9,-2.947 -10.5,-9.75c-1.209,5.654 -4.337,8.464 -9,9c4.164,4.56 10.73,7.008 19.5,7.5l0.409,-0.024Zm-0.302,-43.78c2.284,-6.369 6.848,-11.2 13.393,-14.696l-13.5,-13.5l-13.5,13.5c6.648,3.551 11.253,8.481 13.5,15l0.107,-0.304Zm-0.233,-154.946c-10.704,0.068 -19.374,8.78 -19.374,19.5c-0,6.72 3.407,12.651 8.585,16.157l-0.335,1.093l-9,42l6.75,3l-3,10.5c-19.232,-6.808 -33.002,-18.936 -39.177,-38.461c-2.077,-6.567 -5.545,-8.72 -9.573,-17.039l-0,-35.25l6,-7.5l-0,-10.5c0.357,-2.559 3.869,-4.078 5.835,-4.09c4.813,-0.03 10.851,6.721 10.665,9.34l-0,37.5l7.5,12c1.736,0.383 2.383,-0.484 2.25,-2.25l-4.5,-7.5l-0,-106.5c0.163,-6.041 6.161,-9.055 11.249,-9.089c4.417,-0.029 10.166,3.013 10.501,9.089l-0,57.75c1.257,2.13 2.54,2.065 3.846,-0l-0,-70.596c1.031,-7.26 4.696,-11.568 11.904,-11.904l0.168,0.009c7.097,0.394 10.713,4.691 11.736,11.895l0,70.596c1.306,2.065 2.589,2.13 3.846,-0l-0,-62.25c0.335,-6.076 6.084,-9.118 10.501,-9.089c5.088,0.034 11.086,3.048 11.249,9.089l-0,75.75c0.987,1.747 1.987,1.733 3,-0l-0,-46.5c0.908,-4.933 5.588,-8.285 9.544,-8.259c3.794,0.025 8.362,3.194 9.206,8.259l-0,84.75c-1.105,33.054 -17.05,51.653 -42.75,60.75l-3,-10.5l6.75,-3l-9,-42l-0.335,-1.093c5.178,-3.506 8.585,-9.437 8.585,-16.157c-0,-10.72 -8.67,-19.432 -19.374,-19.5l-0.126,-0l-0.126,0Z"/></svg>