<?xml version="1.0" encoding="UTF-8" standalone="no"?>
<svg
   xmlns:dc="http://purl.org/dc/elements/1.1/"
   xmlns:cc="http://creativecommons.org/ns#"
   xmlns:rdf="http://www.w3.org/1999/02/22-rdf-syntax-ns#"
   xmlns:svg="http://www.w3.org/2000/svg"
   xmlns="http://www.w3.org/2000/svg"
   version="1.1"
   width="112.5"
   height="143.50064">
  <path
     d="m 45.5,60.500642 0,6.9375 c -3.680884,0.579725 -7.16974,1.710973 -10.375,3.34375 l -4.0625,-5.59375 -8.90625,6.46875 4.0625,5.625 c -2.567629,2.574077 -4.735994,5.54346 -6.40625,8.8125 l -6.59375,-2.15625 -3.375,10.46875 6.59375,2.125 C 16.159011,98.310362 16,100.144 16,102.00064 c 0,1.85664 0.159011,3.69028 0.4375,5.46875 l -6.59375,2.125 3.375,10.46875 6.59375,-2.15625 c 1.670256,3.26904 3.838621,6.23842 6.40625,8.8125 l -4.0625,5.625 8.90625,6.46875 4.0625,-5.59375 c 3.20526,1.63278 6.694116,2.76403 10.375,3.34375 l 0,6.9375 11,0 0,-6.9375 c 3.680884,-0.57972 7.16974,-1.71097 10.375,-3.34375 l 4.0625,5.59375 8.90625,-6.46875 -4.0625,-5.625 c 2.567629,-2.57408 4.735994,-5.54346 6.40625,-8.8125 l 6.59375,2.15625 3.375,-10.46875 -6.59375,-2.125 C 85.840989,105.69092 86,103.85728 86,102.00064 86,100.144 85.840989,98.310362 85.5625,96.531892 l 6.59375,-2.125 -3.375,-10.46875 -6.59375,2.15625 c -1.670256,-3.26904 -3.838621,-6.238423 -6.40625,-8.8125 l 4.0625,-5.625 -8.90625,-6.46875 -4.0625,5.59375 C 63.66974,69.149115 60.180884,68.017867 56.5,67.438142 l 0,-6.9375 -11,0 z m 5.5,31.5 c 5.522847,0 10,4.47715 10,9.999998 0,5.52285 -4.477153,10 -10,10 -5.522847,0 -10,-4.47715 -10,-10 0,-5.522848 4.477153,-9.999998 10,-9.999998 z" />
  <path
     d="M 91,6.4150822e-4 91,17.313142 l -7.5,-6.8125 -16.5,15 c 0,0 0.0449,2.712692 6,4.28125 l 0,21.71875 -10.5,0 0,-33 6.5,-5.5 0,-12.0000005 -9,0 0,4.5 -5.5,0 0,-4.5 -10,0 0,4.5 -5.5,0 0,-4.5 -9,0 0,12.0000005 6.5,5.5 0,33 -10.5,0 0,-11.96875 c 6.989036,-1.50875 7,-4.53125 7,-4.53125 l -16.5,-15 -16.5,15 c 0,0 0.010964,3.0225 7,4.53125 l 0,11.96875 -6,0 0,51.499998 11.0625,0 c -0.03153,-0.33187 -0.0625,-0.65802 -0.0625,-1 0,-0.89826 0.156521,-1.7462 0.21875,-2.624998 l -7.40625,-2.375 5.84375,-18.125 7.40625,2.4375 c 0.93197,-1.480595 1.946303,-2.881966 3.0625,-4.21875 l -4.5625,-6.34375 15.375,-11.15625 4.59375,6.28125 C 38.143435,65.23316 39.795434,64.706224 41.5,64.281892 l 0,-7.78125 19,0 0,7.78125 c 1.704566,0.424332 3.356565,0.951268 4.96875,1.59375 l 4.59375,-6.28125 15.375,11.15625 -4.5625,6.34375 c 1.116197,1.336784 2.13053,2.738155 3.0625,4.21875 l 7.40625,-2.4375 5.84375,18.125 -7.40625,2.375 C 89.84348,100.25444 90,101.10238 90,102.00064 c 0,0.34198 -0.03097,0.66813 -0.0625,1 l 10.0625,0 0,-51.499998 -6,0 0,-21.71875 c 5.9551,-1.568558 6,-4.28125 6,-4.28125 l -6,-5.46875 0,-10.7187505 c 0.686254,0.331873 1.62306,0.617066 2.84375,0.5625 2.76513,-0.123604 5.6394,-4.98314 9.8125,-5.03125 4.1731,-0.04811 5.83875,-1.586303 5.84375,-2.09375 C 109.09207,1.8240625 109.64815,0.05573151 106.59375,6.4150822e-4 103.53935,-0.05444849 102.24578,3.4570215 98.1875,3.4381415 96.25665,3.4291415 94.907696,2.9234265 94,2.4068915 L 94,6.4150822e-4 z" />
</svg>
