<?xml version="1.0" encoding="utf-8"?>
<!-- Generator: Adobe Illustrator 26.0.2, SVG Export Plug-In . SVG Version: 6.00 Build 0)  -->
<svg version="1.2" baseProfile="tiny" id="Layer_1" xmlns="http://www.w3.org/2000/svg" xmlns:xlink="http://www.w3.org/1999/xlink"
	 x="0px" y="0px" viewBox="0 0 100 100" overflow="visible" xml:space="preserve">
<path id="Orzhov" fill="#231F20" d="M36.20988,49.16084c0-7.6042,6.18516-13.79231,13.79085-13.79231
	c7.6042,0,13.79084,6.18811,13.79084,13.79231c0,7.60567-6.18664,13.79084-13.79084,13.79084
	C42.39504,62.95168,36.20988,56.76651,36.20988,49.16084 M74.05741,73.22045l-12.26973-8.9664l-0.23188,4.92218l-4.15358-2.14536
	l-1.41906,4.45552l-3.31063-3.01605l-2.67328,23.90357l-2.67474-23.90794l-3.3048,3.00875l-1.4205-4.45258l-4.15213,2.14536
	l-0.23188-4.92218l-12.27116,8.96488l8.96639-12.2697l-4.92364-0.23188l2.14679-4.15358l-4.45401-1.41904l3.01018-3.30624
	l-23.91084-2.6733l23.90938-2.67477l-3.01018-3.30477l4.45402-1.4205l-2.1468-4.15358l4.92364-0.23046l-8.96493-12.27117
	l12.26971,8.9664l0.23042-4.92365l4.1536,2.14682l1.4205-4.45405l3.31063,3.01605l2.67328-23.90357l2.67475,23.90793
	l3.30479-3.01165l1.4205,4.454l4.15213-2.14388l0.23188,4.92075l12.26971-8.96493l-8.96491,12.27117l4.92218,0.23042
	l-2.14536,4.15215l4.45256,1.4205l-3.00871,3.30478l23.90938,2.67472l-23.90938,2.67624l3.01018,3.3033l-4.45403,1.4205
	l2.1468,4.15362l-4.92362,0.23042L74.05741,73.22045z M50.00074,65.01242c8.74032,0,15.85158-7.10981,15.85158-15.85158
	s-7.11126-15.85158-15.85158-15.85158c-8.74179,0-15.8516,7.10981-15.8516,15.85158S41.25894,65.01242,50.00074,65.01242"/>
</svg>
