<?xml version="1.0" encoding="utf-8"?>
<!-- Generator: Adobe Illustrator 26.0.2, SVG Export Plug-In . SVG Version: 6.00 Build 0)  -->
<svg version="1.2" baseProfile="tiny" id="Layer_1" xmlns="http://www.w3.org/2000/svg" xmlns:xlink="http://www.w3.org/1999/xlink"
	 x="0px" y="0px" viewBox="0 0 100 100" overflow="visible" xml:space="preserve">
<path id="Rakdoz" fill="#231F20" d="M82.49962,47.02479c3.27412-5.25699,2.1088-12.45929,2.1088-12.45929
	c2.77605,0.78374,4.5146,4.59915,4.5146,4.59915c1.12583-9.02353-6.18923-13.68848-8.15708-15.35559
	c-3.38313-2.86252-3.8173-7.2869-3.8173-7.2869c-2.25355,5.89791,3.22149,9.92194,0.5225,18.13167
	c-1.43972,4.37173-4.36045,6.97676-6.28697,8.29239l-0.2368-0.0639c0.13906-1.56559,0.13531-3.3718-0.16729-5.31148
	c-0.96984-6.22119-7.67217-9.04608-9.69265-15.18461c-2.01861-6.13847,2.54863-11.69241,2.54863-11.69241
	s-7.95412,3.77778-9.1476,11.86535c-0.94351,6.38471,1.01306,11.15491,3.11435,14.78987
	c0.53942,0.93414,0.52061,1.89271,0.19548,2.80235c-1.35701-0.23494-2.29677-0.39279-2.61628-0.46798
	c-1.64082-0.37776-3.49028,0.03762-3.49028,0.03762s-0.97733,1.05252-0.97733,2.62001c0,1.56376-0.01692,33.89331-0.01692,33.89331
	c0,1.76669,0.56948,3.97704,0.56948,3.97704c0.37779-1.57695,1.95657-4.2308,1.95657-4.2308c0,2.2103,2.0844,3.59928,2.0844,3.59928
	c-1.76675-4.29286,2.02047-7.32447,3.22147-6.88281c1.19913,0.44355,0.75745,1.83254,0,3.72519
	c-0.75931,1.89454,1.26303,2.8437,1.26303,2.8437c-0.18983-1.77048,1.57692-2.65385,2.40015-2.65385
	c0.82134,0,3.53536,0.1898,3.85112,3.53722c0.31576,3.34554-3.15757,6.75686-3.15757,6.75686s5.62162-1.23859,8.11197-4.34919
	c4.21388,1.75362,7.83382,0.68228,7.83382,0.68228s-2.75162-2.02612-5.62727-6.30579
	c-1.33633-1.98849-1.66336-4.2815-1.71033-5.80769c3.02037-0.02633,3.7966-1.30811,3.7966-1.30811s-1.1371-1.607-1.1371-3.44895
	c0-2.89441,2.41705-4.9807,5.15174-4.9807c5.366,0,6.86775,4.74203,12.36155,4.74203c5.49572,0,7.19854-2.96777,7.19854-2.96777
	C88.37875,62.23567,92.51553,52.96779,82.49962,47.02479 M67.55184,56.84148c-0.2011,0.90219-4.71006,5.70995-6.61211,5.70995
	c-1.90395,0-1.50362-1.80243-3.8079-3.70638c0,0,1.30062-2.7065,11.02147-5.21191
	C68.1533,53.63314,67.75297,55.93935,67.55184,56.84148 M49.08752,42.34104c0-1.56749-0.97925-2.62001-0.97925-2.62001
	s-1.84756-0.41539-3.49025-0.03762c-0.31952,0.0752-1.25741,0.23304-2.61441,0.46798
	c-0.32514-0.90964-0.34581-1.86821,0.19548-2.80235c2.09942-3.63496,4.056-8.40516,3.11248-14.78987
	c-1.19162-8.08756-9.14571-11.86535-9.14571-11.86535s4.56531,5.55394,2.54673,11.69241
	c-2.02047,6.13853-8.72283,8.96342-9.69265,15.18461c-0.30073,1.93968-0.30449,3.74589-0.16728,5.31148l-0.23494,0.0639
	c-1.92838-1.31563-4.84726-3.92067-6.28698-8.29239C19.628,26.4441,25.1068,22.42007,22.85139,16.52216
	c0,0-0.43231,4.42438-3.8173,7.2869c-1.96974,1.66712-9.28291,6.33206-8.15522,15.35559c0,0,1.7348-3.81541,4.51085-4.59915
	c0,0-1.16342,7.2023,2.1107,12.45929c-10.01595,5.943-5.87727,15.21088-16.56605,16.1375c0,0,1.70471,2.96777,7.20043,2.96777
	c5.49193,0,6.99366-4.74203,12.35966-4.74203c2.7347,0,5.15364,2.08629,5.15364,4.9807c0,1.84195-1.13899,3.44895-1.13899,3.44895
	s0.77812,1.28178,3.79663,1.30811c-0.04511,1.52618-0.37403,3.81919-1.71037,5.80769
	c-2.87376,4.27967-5.62727,6.30579-5.62727,6.30579s3.61996,1.07133,7.83381-0.68228c2.49038,3.1106,8.112,4.34919,8.112,4.34919
	s-3.47335-3.41132-3.1576-6.75686c0.31765-3.34742,3.03167-3.53722,3.85114-3.53722c0.8232,0,2.58995,0.88337,2.40202,2.65385
	c0,0,2.02047-0.94917,1.26303-2.8437c-0.75744-1.89265-1.19913-3.28164,0-3.72519c1.19913-0.44166,4.98821,2.58995,3.2196,6.88281
	c0,0,2.08437-1.38898,2.08437-3.59928c0,0,1.57881,2.65385,1.95847,4.2308c0,0,0.56762-2.21036,0.56762-3.97704
	C49.10255,76.23434,49.08752,43.90479,49.08752,42.34104 M39.06219,62.55143c-1.90395,0-6.4129-4.80777-6.61403-5.70995
	c-0.2011-0.90213-0.60143-3.20833-0.60143-3.20833c9.72084,2.50541,11.02333,5.21191,11.02333,5.21191
	C40.56392,60.749,40.96425,62.55143,39.06219,62.55143"/>
</svg>
