<?xml version="1.0" encoding="UTF-8" standalone="no"?><!DOCTYPE svg PUBLIC "-//W3C//DTD SVG 1.1//EN" "http://www.w3.org/Graphics/SVG/1.1/DTD/svg11.dtd"><svg width="262" height="415" viewBox="0 0 262 415" version="1.1" xmlns="http://www.w3.org/2000/svg" xmlns:xlink="http://www.w3.org/1999/xlink" xml:space="preserve" xmlns:serif="http://www.serif.com/" style="fill-rule:evenodd;clip-rule:evenodd;stroke-linejoin:round;stroke-miterlimit:2;"><path d="M75,377c9.806,-8.574 18.473,-17.907 26,-28l30,21l30,-21c7.527,10.093 16.194,19.426 26,28l-56,38l-56,-38Zm24,-36c7.75,-15.693 12.759,-37.34 15,-65l34,0c2.241,27.66 7.25,49.307 15,65l-32,19l-32,-19Zm-3,-239l-83,47l-0,136l77,45c7.623,-14.891 11.168,-32.987 11,-54l-28,0c0.366,-6.253 2.295,-10.033 6,-11l0,-14c24.43,6.745 41.415,4.137 42,-14c1.157,-35.858 -65.003,-10.62 -87,-55l68.877,0c1.023,-28.258 -0.944,-55.081 -6.877,-80Zm70,0l83,47l0,136l-77,45c-7.623,-14.891 -11.168,-32.987 -11,-54l42,0c-0.366,-6.253 -2.295,-10.033 -6,-11l0,-6c-37.693,-21.093 -37.23,-46.438 19,-78l16,0l-0,-8l-73.101,0c-0.971,-14.525 0.963,-50.92 7.101,-71Zm-50,70c-0.419,-33.291 -2.909,-66.011 -13.123,-96.608l18.257,-18.258l9.866,9.866l9.866,-9.866l18.257,18.258c-10.214,30.597 -12.704,63.317 -13.123,96.608l-30,0Zm-15,-164l-72,0c-4.069,-0.064 -6.514,-2.563 -7,-8l-22,0l0,82l22,0c0.96,-4.706 3.457,-7.876 8,-9l58,0c-2.145,-7.479 -7.123,-11.506 -15,-12l-43,0c-1.495,-0.085 -2.643,-0.647 -2.704,-2.704l0,-35.296c0.061,-1.425 0.778,-2.1 2.092,-2.092l57.612,-0c7.122,-0.403 12.728,-3.214 14,-12.908Zm60,-0l72,-0c4.069,-0.064 6.514,-2.563 7,-8l22,-0l0,82l-22,0c-0.96,-4.706 -3.457,-7.876 -8,-9l-58,0c2.145,-7.479 7.123,-11.506 15,-12l43,0c1.495,-0.085 2.643,-0.647 2.704,-2.704l-0,-35.296c-0.061,-1.425 -0.778,-2.1 -2.092,-2.092l-57.612,-0c-7.122,-0.403 -12.728,-3.214 -14,-12.908Zm-53.158,35.241l8.958,8.959l-20.8,20.8c-3.243,-7.087 -9.247,-13.376 -21,-18l-41,0l0,-28l52,0c14.52,-1.051 22.257,-9.604 22,-27l46,0c-0.257,17.396 7.48,25.949 22,27l52,0l0,28l-41,0c-11.753,4.624 -17.757,10.913 -21,18l-20.8,-20.8l8.958,-8.959l-23.158,-23.241l-23.158,23.241Z"/></svg>