<?xml version="1.0" encoding="utf-8"?>
<!-- Generator: Adobe Illustrator 26.0.2, SVG Export Plug-In . SVG Version: 6.00 Build 0)  -->
<svg version="1.2" baseProfile="tiny" id="Layer_1" xmlns="http://www.w3.org/2000/svg" xmlns:xlink="http://www.w3.org/1999/xlink"
	 x="0px" y="0px" viewBox="0 0 100 100" overflow="visible" xml:space="preserve">
<path id="Selesnya" fill="#231F20" d="M55.90234,16.182l7.71963-7.28286l2.11874,10.59368
	C62.68507,17.91707,59.37927,16.78667,55.90234,16.182 M74.7671,26.15742l1.1442-10.76335l-9.51125,4.4499
	C69.48652,21.51914,72.30244,23.65325,74.7671,26.15742 M84.90351,46.25708l7.02077-8.0056l-10.21346-2.19756
	C83.22835,39.22266,84.31944,42.65161,84.90351,46.25708 M94.08066,52.37691l-9.06236-5.36275
	c0.24828,1.75044,0.37676,3.54034,0.37676,5.36275c0,1.82414-0.12848,3.61232-0.37676,5.36453L94.08066,52.37691z M81.3717,35.36886
	l4.29057-9.86231l-10.3779,1.18518C77.69948,29.24902,79.75654,32.16927,81.3717,35.36886 M33.59995,19.84398l-9.50948-4.4499
	l1.1441,10.76335C27.69934,23.65325,30.51515,21.51914,33.59995,19.84398 M14.60493,52.37691
	c0-1.82241,0.13193-3.61231,0.37854-5.36275l-9.06413,5.36275l9.06413,5.36453
	C14.73687,55.98923,14.60493,54.20105,14.60493,52.37691 M18.29262,36.05392L8.07749,38.25147l7.02077,8.0056
	C15.68056,42.65161,16.77333,39.22266,18.29262,36.05392 M44.09766,16.182l-7.71953-7.28286l-2.11706,10.59368
	C37.31503,17.91707,40.62073,16.78667,44.09766,16.182 M50.00172,15.67164c1.75566,0,3.48216,0.1336,5.17092,0.39046
	l-5.17092-9.39981l-5.17437,9.39981C46.51789,15.80524,48.24272,15.67164,50.00172,15.67164 M24.7173,26.69173l-10.37958-1.18518
	l4.29235,9.86231C20.24524,32.16927,22.3023,29.24902,24.7173,26.69173 M18.48446,53.99553l6.91289-2.77473l-6.91289-3.77503
	c0.09764-0.8461,0.22779-1.68196,0.39057-2.5058c0.7091,0.31686,1.42155,0.62855,2.12553,0.95399
	c2.09134,0.94207,4.12958,1.95947,6.14901,3.05051L40.4152,48.5574l-11.29598-6.96599
	c-2.2951-0.06508-4.56803-0.19523-6.85288-0.4282c-0.77246-0.07193-1.54491-0.15927-2.31914-0.24149
	c0.274-0.80329,0.57895-1.59117,0.91296-2.3654l7.83431,0.36317l-4.1484-6.73987c0.50525-0.67826,1.03966-1.33426,1.59634-1.96809
	c0.45559,0.62861,0.91296,1.25387,1.36343,1.88582c0.8701,1.2247,1.75901,2.43393,2.56063,3.70483
	c0.26031,0.40938,0.5087,0.82556,0.76221,1.23829c0.10276,0.16789,0.29627,0.67492,0.47273,0.77078
	c0.00512,0.00178,11.68299,6.29797,11.68299,6.29797l-6.29976-11.68132c-1.95084-1.20065-3.86572-2.47836-5.71558-3.79213
	c-0.63206-0.44869-1.25721-0.91118-1.88404-1.36855c0.6354-0.55658,1.2914-1.08754,1.96799-1.59289l6.64735,4.24092
	l-0.26888-7.93028c0.77245-0.33223,1.56038-0.63718,2.36367-0.91118c0.08217,0.77245,0.16611,1.54491,0.23804,2.31914
	c0.22779,2.28485,0.36652,4.55779,0.43165,6.85288l6.96767,11.29593l0.38534-13.26559
	c-1.08932-2.01942-2.11016-4.0817-3.05563-6.14733c-0.32198-0.70388-0.63373-1.41643-0.94881-2.12731
	c0.82556-0.16267,1.65969-0.29282,2.50575-0.39046l3.68256,7.00708l3.68079-7.00708
	c0.84448,0.09764,1.68029,0.22779,2.50418,0.39046c-0.31519,0.7091-0.6286,1.41998-0.95237,2.12564
	c-0.94547,2.09302-1.96109,4.12958-3.05218,6.149l0.38712,13.26559l6.96589-11.29593c0.0668-2.29342,0.21588-4.59197,0.4282-6.85288
	c0.07203-0.77423,0.15932-1.54669,0.24327-2.31914c0.8033,0.274,1.58944,0.57895,2.36367,0.91118l-0.26888,7.93028l6.64735-4.24092
	c0.67659,0.50535,1.33259,1.03632,1.96799,1.59289c-0.62861,0.45569-1.25544,0.91641-1.88749,1.3651
	c-1.86178,1.33771-3.76129,2.59325-5.71391,3.79557l-6.29798,11.68132l11.68132-6.29797
	c1.20065-1.95084,2.48013-3.8675,3.79212-5.71558c0.45047-0.63205,0.91118-1.25721,1.36855-1.88414
	c0.55669,0.63383,1.08932,1.28983,1.59457,1.96809l-4.14662,6.73987l7.83431-0.36317
	c0.33234,0.77423,0.63885,1.56211,0.91118,2.3654c-0.77245,0.0805-1.54491,0.16444-2.31736,0.23809
	c-2.28485,0.22779-4.55779,0.36652-6.85466,0.4316L59.58491,48.5574l13.26731,0.38707
	c2.01765-1.09105,4.0816-2.11016,6.14555-3.05563c0.70566-0.32371,1.41643-0.63545,2.12731-0.94887
	c0.16267,0.82384,0.29282,1.65969,0.39223,2.5058l-6.91466,3.77503l6.91466,2.77473
	c-0.09942,0.84443-0.22957,1.68024-0.39223,2.50413l-8.84491-3.55748l-2.27973,0.06507
	c-8.12724,0.64403-14.42187,5.2429-14.42187,13.63734c0,9.07438,7.35478,13.71783,16.42927,13.71783h2.8432
	c-0.36996,0.38706-0.75018,0.76733-1.13897,1.13558c0,0-1.0705,1.01911-1.92178,1.69225l-8.0228-1.26066
	c1.70089,1.48328,3.84188,2.39964,5.53755,3.12928c-0.85641,0.60806-1.18529,0.79133-2.09647,1.31889
	c-1.70422-0.75536-3.85558-1.73852-6.5772-3.0214c-0.15932-0.07537-0.31686-0.14902-0.47618-0.22607l5.40906,4.14323
	c-0.87867,0.44879-1.7796,0.85985-2.70103,1.23322l-2.21983-1.69739l0.17981,2.44418
	c-0.88034,0.29292-1.21268,0.39051-2.12386,0.61146l-3.131-1.30002l0.60466,1.87897
	c-0.86675,0.1576-1.74542,0.28263-2.63433,0.37337l-0.71767-2.23174l-1.8139,2.39964
	c-0.50012,0.02055-0.5018,0.01369-1.00537,0.01369c-0.50525,0-0.5087,0.00685-1.00715-0.01369l-1.81211-2.39964l-0.72113,2.23174
	c-0.88891-0.09074-1.18006-0.13355-2.04848-0.29115l0.01881-1.96119l-3.07612,1.31716
	c-0.91129-0.22267-1.29829-0.33568-2.17874-0.6286l0.17992-2.44418l-2.21638,1.69739
	c-0.9232-0.37337-1.20411-0.50185-2.08455-0.9506l4.57493-4.25974c-0.04108,0.01887-0.08217,0.03769-0.12158,0.05823
	c-2.74912,1.30515-4.9243,2.302-6.64913,3.06421c-0.91463-0.52924-1.31377-0.75876-2.17352-1.36682
	c1.75556-0.75019,3.73212-1.56378,5.84238-3.19091l-8.29168,1.32741c-0.85306-0.67314-1.1648-0.94207-1.94917-1.69053
	c0,0-0.76733-0.7468-1.13908-1.13558h2.84498c9.07271,0,16.42916-4.64346,16.42916-13.71783
	c0-8.39444-6.2962-12.99331-14.42344-13.63734l-2.27973-0.06507l-8.84491,3.55748
	C18.71225,55.67576,18.5821,54.83996,18.48446,53.99553 M53.15155,81.07147l1.22637,3.79902l3.64482,2.0742l-0.16611-2.26949
	L53.15155,81.07147z M48.28547,85.16337l1.71625,3.10361l1.71447-3.10189l-1.71447-5.31827L48.28547,85.16337z M46.85023,81.07147
	l-4.70508,3.60374l-0.16957,2.26949l3.64828-2.0742L46.85023,81.07147z"/>
</svg>
