<?xml version="1.0" encoding="utf-8"?>
<!-- Generator: Adobe Illustrator 26.0.2, SVG Export Plug-In . SVG Version: 6.00 Build 0)  -->
<svg version="1.2" baseProfile="tiny" id="Layer_1" xmlns="http://www.w3.org/2000/svg" xmlns:xlink="http://www.w3.org/1999/xlink"
	 x="0px" y="0px" viewBox="0 0 100 100" overflow="visible" xml:space="preserve">
<path id="Simic" fill="#231F20" d="M87.41813,44.95395c-0.0994-0.64315-0.26066-1.2713-0.47628-1.88635
	c-0.5513-1.55262-1.46638-3.00583-2.75084-4.05968c-0.24561-0.20624-0.50066-0.39754-0.76125-0.57568
	c-0.03943-0.0281-0.08064-0.05247-0.12378-0.08063c0.30941-0.18747,0.59067-0.39376,0.83628-0.61505
	c2.1339-1.92572,3.9228-6.57046,0.89448-10.39009c-2.12452-2.6796-7.4349-3.87588-11.27707-2.53516
	c-0.18753-0.40504-0.42941-0.75382-0.71629-1.04824c2.67766-0.46312,4.68784-1.22071,5.88039-2.15078
	c1.64824-1.28257,2.50329-6.14855-3.05836-7.75364c-5.17911-1.49448-6.28915,1.46821-5.69664,2.81081
	c0.59444,1.33699,2.98901,1.53196,2.98901,1.53196c-1.05196-0.46129-1.7533-1.49631-1.1101-2.22386
	c0.98071-1.1101,3.2515-0.63943,4.66718,1.1232c1.41952,1.76263-0.62627,3.24961-2.77144,3.70712
	c-1.70261,0.36-6.00417,0.1069-6.00417,0.1069c-4.20217-0.02249-8.95936,0.6994-14.0766,2.73957
	c-0.07691-0.44629-0.13316-0.8776-0.17253-1.29385c0.00189-0.62255-0.02626-1.21511-0.07313-1.78329
	c0.11628-5.93287,4.01093-8.35742,6.81052-8.35742c2.042,0,3.81024,0.82318,3.81024,2.71141
	c0,1.89013-1.12881,2.77333-2.37579,2.77333c-1.2507,0-2.0139-0.70129-2.19576-1.5545
	c-0.1838-0.85316,0.5794-1.92011,0.5794-1.92011c-0.82878,0.32624-1.62575,0.87943-1.84515,1.7945
	c-0.49877,2.07199,1.53574,3.54775,3.43714,3.57213c3.58151,0.04498,6.13544-3.37711,5.19788-6.80297
	c-0.80818-2.95525-4.38969-4.40658-7.24738-4.40658c-4.91101,0-7.62992,2.29327-8.95003,3.9434
	c-1.39885-2.29516-4.36721-4.93911-7.78368-4.93911c-4.08967,0-6.81424,2.30077-7.17052,6.01167
	c-0.03188,0-0.06564-0.00189-0.09751-0.00189c-5.0947,0-7.89241,3.85716-8.73996,6.69052
	c-0.94884-0.20818-1.8808-0.32257-2.77711-0.32257c-6.09041,0-11.8096,3.73344-11.8096,11.52084
	c0,7.85304,7.11616,9.25378,9.68136,9.25378c3.36583,0,7.79679-2.43204,7.79679-7.18363c0-3.95278-2.75834-5.51101-5.16223-5.51101
	c-2.40395,0-4.63347,1.47571-4.63347,4.11965c0,1.36509,1.3576,3.45024,3.26832,2.46958
	c-1.0444-0.54758-1.34254-1.27514-1.32566-2.25579c0.00933-0.64131,0.80818-2.16578,2.64017-2.16578
	c1.8226,0,2.63456,1.41757,2.63456,3.24395c0,2.12268-2.23519,3.94157-4.80223,3.94157c-2.61396,0-5.80543-1.06695-5.80543-5.07416
	c0-4.00526,2.51267-7.21172,6.99988-7.21172c4.48532,0,9.08131,2.56326,9.08131,7.26614c0,3.3921-1.66701,5.71725-2.59519,6.7486
	c-4.10843,3.49333-7.25304,6.67919-9.43381,9.07564c-4.17779,4.07839-6.96423,8.72874-6.96423,13.87409
	c0,7.13487,2.05699,12.82969,5.39851,17.2156c-0.29064-8.51685,1.25631-13.37532,1.25631-13.37532s-0.74255,7.67679,6.97361,20.4671
	c3.39965,1.93138,7.19679,3.22334,11.10642,3.92274c-3.67525-6.89109-4.37653-11.33143-4.37653-11.33143
	s3.95467,7.25493,12.02522,11.95964c15.23918-0.16875,26.61376-8.53938,31.09536-12.95718
	c4.5228-4.46471,3.23833-9.23318,1.10072-9.96823c-1.91828-0.66003-2.98335,0.72755-2.98335,0.72755s1.21505-0.465,2.36079,0.12566
	c1.48132,0.76315,1.96326,3.74838-2.00829,7.64864c-7.83994,7.69183-25.50372,8.67999-35.10439-2.57082
	s-2.80703-26.39625,4.6935-33.10548c7.49865-6.70923,18.81508-6.74294,22.18658-1.03319
	c3.37144,5.71164,0.58501,10.39014-2.5446,12.11152c-3.13144,1.71949-5.34037,0.93568-6.71484-0.27004
	c-1.37448-1.20194-2.19576-4.34094-0.8194-6.30231c1.37631-1.95954,3.62271-2.01951,3.62271-2.01951
	s-2.56515-1.18134-5.31599,1.26569c-2.24263,1.99141-2.62707,6.1898-0.12378,9.52193
	c2.32332,3.09774,8.19621,2.61579,10.76514,1.33322c2.21642-1.1101,8.13813-5.56354,7.42929-12.81841
	c0.14437-0.13316,0.34878-0.32252,0.63193-0.52692c2.87456-2.08515,7.15553-1.65013,9.15067,1.43451
	c0.42191,0.64875,0.70689,1.3782,0.86066,2.1339c0.1913,0.90192,0.17253,1.83387-0.04687,2.6139
	c-0.37688,1.3426-1.68201,2.48457-3.12962,2.35708c-0.62065-0.06192-1.17945-0.36195-1.4757-0.72383
	c-0.59068-0.71628-0.38066-1.74575,0.02815-2.48829c0.20435-0.3675,0.47061-0.70507,0.76504-1.00509
	c0.05997-0.05808,0.11628-0.11811,0.16875-0.18186c0,0-0.12939-0.07124-0.4538-0.07124c-0.7988,0-1.57882,0.30186-2.1264,0.88131
	c-1.05196,1.11193-1.11382,2.89705-0.32063,4.16652c1.9276,3.08086,6.38483,2.40395,8.34248-0.24189
	C87.48754,49.11864,87.72755,46.94536,87.41813,44.95395 M40.26791,11.00658c1.32572-0.82134,3.1446-0.57196,4.44028,0.20252
	c2.39645,1.43073,3.42775,4.75341,3.33963,7.66179c-0.13128,4.34466-2.05516,9.00251-7.09922,10.66196
	c-0.29064-0.43313-0.62071-0.86627-0.97882-1.29946c2.83519-0.68629,4.64469-3.58712,4.64469-6.53109
	c0-1.50569-0.40315-3.05648-1.23199-4.4103c0.7838-1.16068,0.41253-2.54832,0.06192-3.15021
	c-0.47817-0.82884-1.36509-0.86632-1.36509-0.86632c0.3469,0.43313,0.40876,1.0388,0.40876,1.0388
	c0.08063,0.57007-0.08813,1.04635-0.39565,1.38197c-0.90009-0.85127-2.04389-1.52635-3.44086-1.91822
	C38.68715,12.76921,39.21785,11.6535,40.26791,11.00658 M37.06517,17.50574c1.63513,0,4.59221,1.19262,4.59221,4.72537
	c0,1.42323-0.65631,2.88583-2.08704,3.35834c-1.16818,0.38815-2.73207-0.05625-3.35084-1.17379
	c-0.43319-0.7838-0.05064-1.91828,0.76881-2.32892c1.20944-0.60566,2.34014,0.13877,2.34014,0.13877
	c-0.13877-0.59256-0.39943-1.07634-0.87943-1.45888c-0.57007-0.45751-1.37637-0.6919-2.08893-0.58878
	c-1.67822,0.24-2.62889,1.29385-3.11456,2.45264c-0.57007-0.33185-1.14947-0.64503-1.73453-0.93001
	C31.68544,19.93218,32.71674,17.50574,37.06517,17.50574 M58.23734,29.10161c-0.14066,0-0.84194-0.00189-1.88452,0.06936
	c2.52017-2.04011,5.70975-3.31336,8.40995-4.06901c0.12566,0.69379,0.50066,1.45694,1.41013,2.06449
	c0,0-0.5513-2.32515,1.46632-2.71519c0.98071-0.18564,2.29893,0.10129,2.7996,1.6689
	c0.58878,1.83388-1.17385,4.36715-4.35971,4.83221C62.5801,29.16347,59.10549,29.10161,58.23734,29.10161 M72.4546,37.55842
	c-0.72572-1.53007-1.61825-2.79015-2.60085-3.81774c1.14947-0.90197,2.92149-2.48646,3.80469-4.23593
	c0.72567-0.66941,2.81454-2.24452,5.90855-1.64074c3.88898,0.75565,4.20029,3.76154,3.78587,5.86168
	c-0.36,1.83387-2.7208,3.23273-4.54346,2.85396c-1.8226-0.37505-2.59702-1.55262-2.46014-2.4808
	c0.13872-0.93007,1.34071-2.11141,3.14832-1.35199c0,0-0.57379-2.37579-2.95708-1.68389
	c-2.0345,0.59067-3.30209,3.40526-2.1414,5.80543c-0.10312,0.02998-0.21191,0.05625-0.31313,0.08624
	C73.45963,37.13467,72.91961,37.34841,72.4546,37.55842"/>
</svg>
