<?xml version="1.0" encoding="UTF-8" standalone="no"?>
<!DOCTYPE svg PUBLIC "-//W3C//DTD SVG 1.1//EN" "http://www.w3.org/Graphics/SVG/1.1/DTD/svg11.dtd">
<svg width="1023" height="409" viewBox="0 0 1023 409" version="1.1" xmlns="http://www.w3.org/2000/svg" xmlns:xlink="http://www.w3.org/1999/xlink" xml:space="preserve" xmlns:serif="http://www.serif.com/" style="fill-rule:evenodd;clip-rule:evenodd;stroke-linejoin:round;stroke-miterlimit:2;">
    <g transform="matrix(1,0,0,1,-0.924,-307.54)">
        <path d="M279.151,423.97C279.151,423.97 404.043,358.666 560.287,358.666C770.32,358.666 986.15,475.074 1023.08,670.989C1023.08,670.989 912.3,387.046 571.576,387.046C418.305,387.046 330.276,452.35 330.276,452.35L455.168,455.239L287.696,494.909L389.925,602.794L259.316,529.006L290.524,676.643L222.39,551.751L131.534,716.458L185.466,531.916L0.924,574.414L174.093,489.275L63.402,392.679L196.838,449.521L179.831,335.92L233.763,443.867L307.53,307.54L279.15,423.969L279.151,423.97Z" style="fill-rule:nonzero;"/>
    </g>
</svg>
