<?xml version="1.0" encoding="UTF-8" standalone="no"?>
<svg xmlns="http://www.w3.org/2000/svg" xmlns:xlink="http://www.w3.org/1999/xlink" version="1.1" width="600" height="562.67358">
      <radialGradient cx="0" cy="0" r="1" fx="0" fy="0" id="radialGradient186" gradientUnits="userSpaceOnUse" gradientTransform="matrix(33.328537,0,0,-33.328537,396.24902,271.51074)" spreadMethod="pad">
      <stop style="stop-color:#d7bd74" offset="0"/>
      <stop style="stop-color:#b39a54" offset="0.69101"/>
      <stop style="stop-color:#8d742f" offset="1"/>
    </radialGradient>
    <radialGradient cx="0" cy="0" r="1" fx="0" fy="0" id="radialGradient2990" xlink:href="#radialGradient186" gradientUnits="userSpaceOnUse" gradientTransform="matrix(267.90124,0,0,267.90124,299.97745,281.34695)" spreadMethod="pad"/>
  <path d="m 302.46916,562.67357 c -87.79316,0 -170.75535,-36.23618 -227.649689,-99.40834 -0.723437,-0.81186 -1.382569,-1.63176 -2.009548,-2.54007 -0.876163,-0.0965 -1.752326,-0.25723 -2.636528,-0.44178 -0.723437,0.12861 -1.446875,0.24886 -2.162274,0.37747 -3.986944,0.53052 -7.507673,0.78774 -10.931943,0.78774 -12.748576,0 -24.363766,-4.24416 -33.567497,-12.2502 C 13.439824,440.4046 8.1024632,428.57238 8.1024632,415.00391 c 0,-5.08818 0.7153993,-9.91913 2.1301218,-14.44463 1.51118,-4.86311 3.898524,-9.44488 7.097725,-13.52828 3.167048,-4.05125 7.16203,-7.62825 11.960832,-10.5863 2.355191,-1.43884 4.710381,-2.63653 7.033419,-3.60915 L 10.425501,312.79828 C 7.9738521,306.96255 7.5639043,300.65257 9.0750847,294.8088 3.5126546,289.78493 0.03211671,282.40587 -3.60662e-5,274.21495 c 0,-6.09295 1.8166317662,-11.80811 5.3052078662,-16.71141 2.4194963,-3.29566 5.8678812,-6.21352 9.6056412,-7.87743 3.609149,-1.63175 6.092951,-5.46597 10.176354,-12.15375 l 0.562673,-0.87616 c 6.880694,-17.3625 12.306475,-32.36981 17.016856,-47.19224 0.409627,-1.25395 1.036927,-2.70083 1.631754,-3.89852 0.34532,-0.59483 0.659132,-1.18965 1.036927,-1.78448 0.128611,-4.0191 1.261996,-8.1025 3.295659,-11.49462 0.442422,-0.69128 0.852049,-1.44687 1.294149,-2.22658 -6.40644,-4.0834 -10.554148,-11.30973 -10.554148,-19.34793 v -1.18965 c 0,-0.69128 0.03215,-1.41472 0.09646,-2.10601 0.811858,-8.56871 5.369514,-14.06684 7.314757,-16.42203 0.313168,-0.37747 0.876163,-1.00477 1.221805,-1.38257 1.631753,-1.72017 6.125104,-6.3984 13.319287,-8.69732 0.562674,-4.17182 2.22658,-8.19092 5.023871,-11.55089 C 123.39428,39.845332 209.45922,5.3345002e-6 302.46916,5.3345002e-6 395.50321,5.3345002e-6 481.56815,39.845332 538.62325,109.30336 c 2.00955,2.4195 3.41623,5.1766 4.26828,8.1025 0.37748,0.0887 0.77971,0.21671 1.1575,0.34597 3.60915,-2.26677 7.82116,-3.45643 12.1216,-3.45643 2.29088,0 4.64607,0.34532 6.93696,1.06908 l 1.00477,0.31317 c 13.28714,4.0191 22.86063,17.08116 22.92493,31.74283 v 0.8842 c 0,7.31476 -3.48857,14.15526 -9.3243,18.45569 -0.0643,2.4838 -0.57104,5.12033 -1.44688,7.44337 0,0.0322 0,0.0643 0,0.0965 4.77469,0.1852 9.20373,1.69606 13.09422,4.33259 7.09772,4.99171 11.02036,13.09421 10.61042,21.47805 -0.0322,0.0643 -0.0322,0.12025 -0.0322,0.21671 -0.31317,5.65085 -2.35519,9.58153 -3.23135,11.3017 -1.94524,3.73776 -5.05603,7.22634 -8.66517,9.38861 -3.35997,2.0417 -6.84855,4.11555 -10.45769,6.0608 2.106,1.57548 3.92263,3.48857 5.40166,5.71515 3.1992,4.839 4.42905,10.70688 3.52073,16.42203 0.65913,2.51596 0.97262,5.08818 0.97262,7.72471 0,3.29566 -0.50673,6.5029 -1.51118,9.54937 0.44242,1.94524 0.65913,3.92264 0.65913,5.93219 0,5.08817 -1.35041,9.91913 -3.92263,14.1633 1.88093,3.29566 3.04647,7.03342 3.32781,11.05251 0.47393,7.2183 -2.0417,14.03469 -7.00127,19.3399 -1.72821,1.81663 -3.70561,3.45642 -5.90807,4.77468 1.69606,3.41624 2.54811,7.154 2.54811,10.89176 0,6.81638 -2.76514,13.88196 -8.72948,18.93798 12.99776,3.35997 21.92015,13.43182 21.92015,26.05982 0,1.38257 -0.12861,2.7571 -0.32153,4.08341 6.5029,6.52701 10.04775,15.28864 10.04775,25.11935 0,10.54611 -3.85834,19.74984 -11.07663,26.6225 -3.14294,2.95002 -8.01408,6.47075 -14.9832,8.63302 -2.00955,6.43859 -5.77142,10.42554 -8.31953,12.49939 -3.45642,2.82945 -9.50918,6.24568 -18.56019,6.24568 -4.64607,0 -8.75359,-0.81186 -12.27432,-2.25873 -0.84401,1.69605 -1.9774,3.23135 -3.23135,4.67822 -56.92649,63.17217 -139.88869,99.40835 -227.6738,99.40835"/>
  <path style="fill:url(#radialGradient2990)" d="M 84.087509,123.86857 H 141.32749 C 179.47675,67.89059 237.47232,32.120628 302.46916,32.120628 v 0 c 64.99683,0 123.01651,35.769962 161.13363,91.747942 v 0 h 57.27213 C 470.51564,62.521076 391.41981,22.957087 302.46916,22.957087 v 0 c -88.95869,0 -168.02237,39.563989 -218.381651,100.911483 m 412.704981,22.86062 c -7.7247,6.59132 -11.23739,17.55542 -11.26955,28.64009 v 0 c 0.0322,13.56043 5.27306,27.53081 15.6986,34.21859 v 0 c 8.07034,3.70561 15.8272,6.69581 23.17411,7.66844 v 0 c 2.35519,0.31316 4.64607,0.46621 6.93696,0.46621 v 0 c 13.94627,0 27.47455,-5.71515 44.4914,-16.10854 v 0 l 0.34532,-0.1852 0.16077,-0.34596 c 0.44178,-0.8199 0.69128,-1.31827 0.72343,-2.13816 v 0 c 0.0322,-0.37748 -0.19291,-1.06908 -0.65913,-1.38257 v 0 c -0.50673,-0.31381 -0.91635,-0.34597 -1.16554,-0.34597 v 0 c -0.72343,0.0322 -1.25395,0.22507 -1.28611,0.16077 v 0 h -0.21671 l -0.22507,0.0965 c -0.87616,0.28101 -1.81663,0.74755 -2.38734,0.94047 v 0 c -9.09924,2.38734 -19.52477,4.67822 -29.07415,4.67822 v 0 c -14.62951,-0.0965 -26.71895,-5.02387 -30.42456,-23.45545 v 0 c -0.40963,-2.45164 -0.69128,-4.89526 -0.69128,-7.21829 v 0 c 0,-2.58026 0.34532,-4.96761 1.13338,-7.00931 v 0 c 5.93219,-12.08944 10.0799,-14.72597 21.25298,-14.87869 v 0 c 2.70084,0 5.87592,0.1852 9.51723,0.49836 v 0 c 3.54484,1.72821 4.71038,4.87115 4.77468,9.61368 v 0 c 0,1.75233 -0.22507,3.70561 -0.53823,5.77143 v 0 l -0.0643,0.40962 0.19292,0.37812 c 0.75559,1.38257 2.106,1.69606 3.29566,1.72821 v 0 c 1.53529,-0.0322 3.42427,-0.62698 4.21201,-2.57222 v 0 l 0.0881,-0.22507 v -0.21671 c 0.0643,-8.16681 2.63653,-13.56847 8.63302,-17.20977 v 0 l 0.69128,-0.40191 v -0.75559 c -0.0579,-5.81162 -4.05125,-9.13943 -6.96911,-9.98344 v 0 l -0.97262,-0.34532 -0.56268,0.90832 c -2.41949,3.76991 -4.46119,4.92741 -7.19418,4.99171 v 0 c -0.94047,0 -2.00955,-0.1852 -3.16705,-0.50672 v 0 c -7.34691,-3.03844 -15.29668,-5.65085 -23.4876,-5.65085 v 0 c -8.1668,0 -16.61495,2.61241 -24.96663,9.7664 m -29.13845,-8.94651 c -5.33736,1.88094 -10.64257,2.66868 -15.91563,2.66868 v 0 c -5.3052,0 -10.55414,-0.78774 -15.73074,-1.97739 v 0 l -0.31317,-0.0643 -0.28101,0.0643 c -2.13816,0.37811 -4.36474,2.0417 -4.27632,4.8631 v 0 c 0,0.37748 0.0322,0.85205 0.12861,1.31827 v 0 l 0.12861,0.65913 0.62698,0.28937 c 4.39689,2.16228 8.47225,4.58177 10.89175,9.50919 v 0 c 0.37747,8.28737 2.23462,20.03118 2.23462,31.2123 v 0 c 0,13.21479 -2.61241,25.18366 -12.43509,30.04677 v 0 l -0.81989,0.41027 0.0643,0.87616 c 0.12861,3.39212 1.94525,5.90808 4.77469,6.12511 v 0 l 0.59483,0.0643 0.44178,-0.37747 c 7.59609,-6.40644 15.63428,-10.17635 24.61294,-10.17635 v 0 c 2.95002,0 5.9965,0.41027 9.17158,1.29415 v 0 l 0.40963,0.0887 0.40191,-0.15305 c 1.66391,-0.44242 2.73299,-2.0417 2.61241,-3.45642 v 0 c 0,-0.97262 -0.25722,-1.91309 -0.53888,-2.82141 v 0 l -0.1852,-0.57103 -0.50608,-0.24886 c -5.96434,-2.95002 -6.84051,-6.71993 -7.5961,-11.77596 v 0 c -1.03692,-4.71038 -1.35041,-9.45291 -1.35041,-14.28387 v 0 c -0.0322,-8.72948 1.13338,-17.77245 1.5996,-26.50192 v 0 -0.12861 -0.0888 c -0.0643,-0.31316 -0.0965,-0.60254 -0.0965,-0.8842 v 0 c 0,-3.85833 2.54811,-6.87265 6.47075,-9.98343 v 0 l 0.87616,-0.69129 -0.49837,-1.00477 c -0.56267,-1.18966 -1.51118,-3.80207 -4.77469,-4.36474 v 0 l -0.37747,-0.0322 -0.34596,0.0965 z m -311.56843,6.30998 c -0.0322,1.00478 0.40191,2.20247 1.43884,2.88571 v 0 c 3.55288,2.38735 7.29064,4.77469 10.55415,7.09773 v 0 c 2.16227,2.66868 3.67345,5.49812 3.7056,9.29215 v 0 c 0,0.37748 -0.0322,0.72344 -0.0643,1.10123 v 0 c -3.26351,5.02388 -6.27783,10.14421 -10.11205,13.97842 v 0 c -1.06908,1.34238 -2.35519,2.00955 -2.76514,4.13967 v 0 l -0.0257,0.12861 v 0.0888 c 0.0881,2.76513 2.09797,4.77468 3.82618,6.35017 v 0 c 1.2218,1.02889 2.57222,2.66868 5.18463,2.7571 v 0 c 0.31381,0.0643 0.62698,0.12861 0.97263,0.12861 v 0 c 1.56744,-0.0322 2.8214,-0.94047 3.98694,-2.32304 v 0 c 2.95002,0.0322 5.05602,1.50314 6.96911,4.67823 v 0 c 8.07035,12.96561 15.16807,28.28641 20.85108,46.78229 v 0 c 0.74755,3.76991 1.38257,7.41121 1.38257,10.48984 v 0 c 0,3.23136 -0.69129,5.77946 -2.29893,7.49964 v 0 c -3.48053,3.07862 -7.03342,6.40644 -10.13616,8.23111 v 0 l -0.50673,0.28166 -0.15304,0.53052 c -0.25723,0.9485 -0.37748,1.79251 -0.37748,2.61241 v 0 c -0.0322,1.12535 0.31317,2.25873 1.18966,3.01432 v 0 c 0.8842,0.72344 1.97739,0.94047 3.17508,0.94047 v 0 c 0.24886,0 0.49837,0 0.72344,0 v 0 l 0.46621,-0.0322 0.34597,-0.28102 c 3.11078,-2.4838 7.25849,-4.36474 12.15375,-5.81161 v 0 c 5.83573,-1.03693 11.20524,-1.41472 16.45418,-1.41472 v 0 c 2.78925,0 5.55439,0.0965 8.35168,0.28937 v 0 c 6.27783,0.94047 12.55566,2.13012 18.80938,4.95957 v 0 c 0.84401,0.21671 1.50314,0.34532 2.16227,0.34532 v 0 c 2.32304,0 4.58981,-1.51118 4.58981,-3.98695 v 0 c 0,-0.78774 -0.25722,-1.63979 -0.69129,-2.41949 v 0 l -0.0965,-0.12861 -0.12861,-0.1209 c -8.0382,-8.29541 -17.92518,-11.11682 -21.13242,-20.97968 v 0 c -7.37906,-29.23491 -21.41374,-60.12569 -32.43411,-79.78712 v 0 c -1.31826,-5.49008 -1.35041,-11.366 -1.78448,-17.36249 v 0 c 0.0257,-0.77971 0.0887,-1.47099 0.0887,-2.13013 v 0 c -0.0322,-1.54333 -0.15304,-2.82944 -0.84401,-3.96282 v 0 c -0.62697,-1.12535 -2.00954,-1.78448 -3.35996,-1.75233 v 0 c -1.03693,0 -2.17031,0.24886 -3.48858,0.74755 v 0 c -1.35041,0.50673 -2.73298,0.65913 -4.17182,0.65913 v 0 c -1.63175,0 -3.35996,-0.24886 -5.15248,-0.49836 v 0 c -9.57349,-1.69606 -14.69382,-1.44688 -23.17411,-2.4195 v 0 c -2.88572,0.31317 -4.30044,2.89375 -4.48532,5.40166 m 88.13076,-4.64607 c -1.56745,1.18965 -3.1992,2.70083 -3.23135,5.05602 v 0 c 0,0.59483 0.12861,1.25396 0.41027,1.88094 v 0 l 0.1524,0.34532 0.28937,0.22507 c 9.35646,6.96911 21.66294,10.61042 34.2829,13.97038 v 0 c 3.86637,1.18965 8.28738,14.97516 11.90457,29.60467 v 0 c 0.69128,7.37906 0.94046,13.84981 0.94046,19.81415 v 0 0.16076 l 0.0322,0.15305 c 0.65913,3.48857 2.88571,4.95956 4.67823,5.15248 v 0 l 0.31316,0.0643 0.34533,-0.12862 c 3.39211,-1.10123 6.78423,-2.00954 11.26954,-2.00954 v 0 c 4.17986,0 9.32431,0.78774 16.23715,2.98217 v 0 l 0.12026,0.0322 0.16076,0.0322 c 0.34532,0.0322 0.69128,0.0643 1.00477,0.0643 v 0 c 0.84401,0 1.72822,-0.16077 2.54007,-0.78775 v 0 c 0.8199,-0.65913 1.16554,-1.69606 1.16554,-2.76514 v 0 c 0,-0.36975 -0.0643,-0.7797 -0.12861,-1.2218 v 0 l -0.0643,-0.28102 -0.15304,-0.24886 c -21.79155,-33.25401 -19.71769,-44.90135 -22.92493,-61.82978 v 0 -0.15305 l -0.0579,-0.12861 c -2.13816,-5.71516 -5.77946,-6.59132 -8.29541,-6.37429 v 0 h -0.59483 c -5.99649,0.44178 -11.87241,0.75559 -17.77244,0.75559 v 0 c -10.4577,0 -20.88323,-1.06908 -31.36504,-4.58177 v 0 l -0.69128,-0.22507 -0.57103,0.44242 z m 91.90871,14.82243 c -3.45643,6.49486 -5.2409,13.75335 -5.2409,21.91211 v 0 c 0,4.24417 0.46621,8.69733 1.47098,13.40771 v 0 c 3.67346,10.77118 10.32908,19.05856 20.35271,24.08243 v 0 c 3.35997,2.98217 7.53179,4.27632 11.92868,4.27632 v 0 c 1.9774,0 3.98695,-0.28938 6.0608,-0.69129 v 0 l 0.15305,-0.0322 0.12861,-0.0965 c 4.77468,-2.29088 11.8081,-3.73776 17.90105,-4.20397 v 0 c 0.62698,-0.0643 1.18966,-0.0965 1.72018,-0.0965 v 0 c 5.90807,0.0322 9.17158,3.04648 13.7855,8.53656 v 0 l 0.12861,0.16077 0.1852,0.12089 c 1.03693,0.66717 2.10601,0.98066 3.14294,0.98066 v 0 c 1.28611,-0.0322 2.38734,-0.47458 3.35996,-0.8842 v 0 l 1.18965,-0.46622 -0.43406,-1.22984 c -1.47903,-4.17182 -2.20246,-7.81313 -2.20246,-11.02036 v 0 c 0.0643,-8.22308 4.36473,-13.75335 12.53154,-17.98948 v 0 l 0.53052,-0.31317 0.16076,-0.59483 c 0.15305,-0.60254 0.21671,-1.19769 0.21671,-1.69606 v 0 c 0.0322,-2.73298 -2.07385,-4.42904 -4.26828,-4.99171 v 0 l -0.24886,-0.0965 -0.28937,0.0643 c -6.14922,0.72344 -12.30648,1.18966 -18.48785,1.18966 v 0 c -3.58503,0 -7.16203,-0.15305 -10.77118,-0.49837 v 0 l -0.24951,-0.0321 -0.28937,0.0881 c -2.37931,0.65914 -3.38408,2.89375 -3.60915,4.99976 v 0 l -0.12089,1.25396 1.2218,0.28101 c 3.26351,0.69129 6.62347,1.18966 8.91436,2.35519 v 0 c 0.8842,1.22181 1.41472,2.70084 1.41472,4.23613 v 0 c 0,1.06908 -0.24886,2.13816 -0.78774,3.29566 v 0 c -1.68802,3.32781 -5.30521,3.80207 -9.26,4.55766 v 0 c -1.69606,0.1524 -3.45642,0.24886 -5.1766,0.24886 v 0 c -7.91762,0 -15.13592,-1.91309 -19.81415,-6.8405 v 0 c -4.27631,-4.34063 -6.84854,-12.00103 -6.81638,-19.94276 v 0 c 0,-0.69129 0,-1.31826 0.0643,-1.9774 v 0 c -0.0643,-9.57349 6.37429,-20.78677 14.31602,-25.33638 v 0 c 1.63176,-0.25723 3.67346,-0.37748 5.90004,-0.37748 v 0 c 4.05125,0 8.72948,0.46622 12.78073,1.78448 v 0 c 7.12987,2.13816 11.05251,2.26677 11.14897,9.86287 v 0 c 0,1.25395 -0.12861,2.79729 -0.40962,4.58177 v 0 l -0.0888,0.65913 0.46622,0.50673 c 0.81989,0.81185 1.97739,1.63175 3.48857,1.6639 v 0 c 1.06908,0 2.19443,-0.50673 3.16705,-1.35041 v 0 l 0.31317,-0.31317 0.0965,-0.44242 c 1.44687,-7.00127 3.04648,-13.40771 8.28738,-19.15502 v 0 l 0.47457,-0.53052 -0.16076,-0.72344 c -0.7154,-2.85356 -1.47099,-6.1251 -4.83096,-7.6604 v 0 l -0.72343,-0.34532 -0.65914,0.47458 c -3.07862,2.25873 -7.69255,5.33736 -12.65211,5.3052 v 0 c -0.28102,0 -0.62698,0 -0.94047,0 v 0 c -6.22156,-1.13338 -11.71969,-4.49335 -18.72095,-5.77946 v 0 c -2.09797,-0.0965 -4.0191,-0.16076 -5.90004,-0.16076 v 0 h -0.47393 v 0 c -12.96561,0 -24.82998,2.35519 -33.37458,14.98319 M 69.014931,142.55801 c -1.82467,0.24887 -3.175087,1.5353 -4.429045,2.82141 v 0 c -1.197691,1.47903 -2.138159,2.51596 -2.290885,4.0834 v 0 1.18966 l 1.189653,0.19291 c 8.102499,1.25396 12.877186,3.577 12.965606,11.55089 v 0 c 0,0.60254 -0.02572,1.19769 -0.08874,1.85682 v 0 c -2.58026,9.95128 -5.33736,15.25649 -7.91762,19.55692 v 0 l -0.1852,0.32153 v 0.36976 c 0.248862,2.10601 1.848784,3.11078 3.802065,4.42904 v 0 c 1.977396,1.1977 4.421007,2.20247 6.776198,2.20247 v 0 c 1.856822,0.0322 3.866371,-0.78774 4.838992,-2.76514 v 0 c 1.221806,-1.54333 2.194427,-3.26351 3.134896,-5.18463 v 0 c 0.787743,-1.84879 1.229843,-3.19921 1.607639,-3.9548 v 0 c 0.498368,-0.72343 0.401909,-0.59482 0.908315,-0.65913 v 0 c 0.530521,-0.0322 1.880938,0.34532 4.019097,1.35042 v 0 c 21.228868,9.63779 39.499678,79.50577 40.946558,97.71228 v 0 c 0,2.82945 1.63175,5.46597 4.30043,5.59459 v 0 h 0.0322 c 0.90831,0 1.81663,-0.40963 2.50791,-1.10124 v 0 c 6.8807,-6.27783 13.56847,-12.53154 20.44113,-18.84152 v 0 c 3.17509,-2.07386 3.80206,-5.12033 4.24417,-7.2183 v 0 l 0.0887,-0.44178 -0.15305,-0.34596 c -2.38734,-6.09296 -5.02387,-12.40294 -8.41599,-18.74507 v 0 c -2.20246,-4.49335 -3.01432,-8.25523 -3.01432,-11.77596 v 0 c -0.0643,-8.25522 4.64607,-15.48156 5.58654,-26.40546 v 0 -0.1852 l -0.0322,-0.19292 c -1.18965,-4.33259 -5.65085,-9.35646 -9.73425,-9.7021 v 0 c -0.87617,0 -1.84879,0.37747 -2.47577,1.16554 v 0 l -0.12861,0.1852 -0.0965,0.21671 c -2.32303,6.71993 -4.73449,8.51245 -5.45793,8.32757 v 0 c -0.44242,0.0322 -1.13338,-0.34597 -1.88897,-1.41472 v 0 c -5.27306,-8.66518 -12.40294,-21.95231 -19.09071,-33.09325 v 0 c -3.35997,-5.56243 -6.62348,-10.5863 -9.50919,-14.29191 v 0 c -2.98217,-3.6413 -5.30521,-6.14922 -8.19896,-6.30998 v 0 l -0.0322,-0.0643 c -0.0322,0 -0.12089,0 -0.28101,0.0643 v 0 c -4.798804,0.56267 -9.075123,0.78774 -13.246945,0.78774 v 0 c -6.502899,0 -12.780728,-0.57103 -20.441127,-1.28611 v 0 H 69.135044 69.01415 Z m 182.362499,25.64988 c -2.19442,0.44178 -4.05125,2.73299 -4.80684,6.84854 v 0 c -2.50791,11.76792 -14.18741,20.28036 -14.38033,32.58684 v 0 c 0,0.37747 0.0322,0.72344 0.0322,1.10123 v 0 c 0.25722,4.49335 2.70083,8.16681 6.5029,8.5446 v 0 c 1.03692,0.0579 1.97739,0.0579 2.95001,0.0579 v 0 c 2.60438,0 5.18464,-0.12025 8.28738,-0.12025 v 0 c 1.10123,0 2.32304,0 3.61719,0.0643 v 0 c 3.95479,0.0579 6.49486,-1.262 8.03819,-3.39212 v 0 c 1.56745,-2.106 2.41146,-4.67823 4.13967,-7.69255 v 0 c 1.63175,-2.98217 2.66868,-3.86637 6.22156,-6.02864 v 0 l 0.49837,-0.31381 0.12861,-0.60255 c 0.31317,-1.47099 0.62698,-3.57699 0.62698,-5.71515 v 0 c -0.0322,-2.95002 -0.50673,-6.21353 -3.14293,-8.0382 v 0 c -0.87617,-0.49837 -1.76037,-0.69128 -2.54007,-0.69128 v 0 c -0.8199,0 -1.54333,0.12861 -2.22658,0.25722 v 0 c -3.04648,0.97262 -5.43382,3.23135 -7.78901,5.14444 v 0 c -2.23462,1.79252 -4.49335,3.58504 -5.90807,5.15249 v 0 c -0.0881,0.0643 -0.21671,0.0643 -0.28102,0.0643 v 0 c -0.0643,-2.66868 6.15726,-12.71642 8.07035,-17.17762 v 0 l -1.25396,-0.53052 1.28611,0.43406 c 0.59483,-1.69606 0.84401,-3.16704 0.87616,-4.45316 v 0 c 0,-2.07385 -0.87616,-3.76991 -2.16227,-4.67822 v 0 c -1.31826,-0.94851 -2.82944,-1.16554 -4.14771,-1.16554 v 0 c -1.00477,0 -1.88094,0.16076 -2.63653,0.34596 m -186.75939,27.98095 -0.0643,0.0881 -0.03215,0.12861 c -5.683003,17.8046 -11.872412,34.37936 -18.270814,50.52005 v 0 c -5.530278,8.76163 -10.618454,18.49589 -21.759391,23.51976 v 0 l -0.313168,0.1524 -0.225069,0.31381 c -0.723438,0.97262 -1.036927,2.10601 -1.036927,3.20724 v 0 c 0,2.22658 1.382569,4.58177 3.954791,4.64608 v 0 c 0.409626,0 0.819896,-0.0643 1.229844,-0.1852 v 0 l 0.248862,-0.0965 0.160764,-0.12861 c 7.089687,-5.49009 16.446145,-9.04297 29.291178,-9.04297 v 0 c 2.98217,0 6.157257,0.19292 9.517222,0.62698 v 0 h 0.120894 0.160764 c 2.507916,-0.31381 3.42427,-2.73299 3.392118,-4.58177 v 0 c 0,-1.91309 -0.819896,-4.20398 -3.175087,-4.86311 v 0 l -0.120894,-0.0643 h -0.06431 c -2.355191,-0.28166 -4.019097,-0.88421 -5.273055,-3.39212 v 0 c -0.345964,-2.20247 -0.538881,-4.49335 -0.538881,-6.81639 v 0 c 0,-13.37556 5.900035,-28.94554 16.325572,-46.78229 v 0 c 0.377474,-0.47457 0.571033,-1.06908 0.571033,-1.63175 v 0 C 78.492283,199.48611 76.579193,198.2 74.505339,196.84958 v 0 c -2.130122,-1.26199 -4.646076,-2.23462 -6.784236,-2.26677 v 0 c -1.093194,0 -2.443611,0.31317 -3.102743,1.60764 m 231.72505,43.92069 -0.12861,1.03693 h -16.14069 l -0.15305,-1.03693 h -2.88571 l -0.60255,8.89024 h 2.7973 c 0.1852,-1.35041 0.62697,-2.32303 1.28611,-2.95001 v 0 c 0.65913,-0.62698 1.5996,-0.97262 2.76514,-0.97262 v 0 h 0.53052 v 21.97642 h -2.47577 v 3.2635 h 13.56043 v -3.2635 h -2.45164 v -21.97642 h 0.50672 c 1.18966,0 2.13816,0.34596 2.7973,0.97262 v 0 c 0.69128,0.65913 1.09319,1.63175 1.31826,2.95001 v 0 h 2.73298 l -0.60254,-8.89024 h -2.85356 z m 75.70371,1.88898 c -1.9774,0.94047 -3.67346,2.22658 -5.12033,3.89048 v 0 c -1.31826,1.47903 -2.29089,3.20724 -2.95002,5.12033 v 0 c -0.72344,1.88094 -1.06908,3.98695 -1.06908,6.14922 v 0 c 0,4.14771 1.16554,7.50767 3.45643,10.02363 v 0 c 2.25873,2.47576 5.27305,3.76187 9.04296,3.76187 v 0 c 1.76037,0 3.42427,-0.31381 5.05603,-0.94047 v 0 c 1.56745,-0.59482 3.04647,-1.53529 4.421,-2.76513 v 0 l 1.88898,3.07862 h 2.32304 v -13.49612 c 0,-0.50673 0.0643,-0.98066 0.24886,-1.41473 v 0 c 0.19292,-0.41027 0.44178,-0.85204 0.8199,-1.26199 v 0 l -1.13339,-1.9774 c -0.46621,0.22507 -0.97262,0.31317 -1.47099,0.44242 v 0 c -0.53888,0.0965 -1.03693,0.0965 -1.57548,0.0965 v 0 h -9.54134 v 3.16705 h 4.83095 v 9.35646 c -0.21671,0.0965 -0.49836,0.12861 -0.7797,0.19292 v 0 c -0.25722,0 -0.57103,0.0322 -0.94851,0.0322 v 0 c -2.35519,0 -4.33258,-1.22985 -5.93219,-3.67346 v 0 c -1.5996,-2.4838 -2.38734,-5.53027 -2.38734,-9.13942 v 0 c 0,-2.4838 0.47393,-4.49335 1.41472,-5.96434 v 0 c 0.94047,-1.51118 2.19443,-2.25874 3.70561,-2.25874 v 0 c 0.78774,0 1.41472,0.24887 1.91309,0.7154 v 0 c 0.50609,0.50673 0.75559,1.10124 0.75559,1.79252 v 0 c 0,0.21671 -0.0322,0.50673 -0.12861,0.78774 v 0 c -0.12089,0.24887 -0.28102,0.49837 -0.46622,0.69129 v 0 l 1.66391,2.32304 8.72948,-5.94023 -1.69606,-2.63653 -1.63175,1.03693 c -1.06908,-0.84401 -2.23462,-1.47099 -3.48858,-1.91309 v 0 c -1.2218,-0.44178 -2.50792,-0.65913 -3.85833,-0.65913 v 0 c -2.10601,0 -4.14771,0.44178 -6.09295,1.38257 m 61.88605,2.22658 v 2.66868 l 1.47903,-0.46622 v 21.25299 h -1.47903 v 2.63653 h 10.32908 v -2.63653 h -1.43884 v -12.21002 c 0.59483,-0.53888 1.18966,-0.98066 1.78448,-1.262 v 0 c 0.62698,-0.31316 1.25396,-0.43406 1.85682,-0.43406 v 0 c 0.7154,0 1.28612,0.21671 1.66391,0.65913 v 0 c 0.37812,0.46622 0.56267,1.1575 0.56267,2.06582 v 0 11.18113 h -1.44687 v 2.63653 h 10.36123 v -2.63653 h -1.47099 v -12.49939 c 0,-2.0417 -0.53888,-3.60915 -1.57548,-4.7345 v 0 c -1.02889,-1.16554 -2.44361,-1.72821 -4.26828,-1.72821 v 0 c -1.10124,0 -2.22658,0.31317 -3.44839,0.90831 v 0 c -1.262,0.59483 -2.58026,1.50315 -4.0191,2.7973 v 0 -8.44815 l 1.5353,-0.50672 v -2.66868 l -10.42554,3.42427 z m -131.0949,0 v 2.66868 l 1.44687,-0.46622 v 21.25299 h -1.44687 v 2.63653 h 10.30496 v -2.63653 h -1.41472 v -12.21002 c 0.53052,-0.53888 1.1575,-0.98066 1.79252,-1.262 v 0 c 0.62698,-0.31316 1.2218,-0.43406 1.81663,-0.43406 v 0 c 0.75559,0 1.31826,0.21671 1.66391,0.65913 v 0 c 0.37747,0.46622 0.57103,1.1575 0.57103,2.06582 v 0 11.18113 h -1.44688 v 2.63653 h 10.36124 v -2.63653 h -1.51118 v -12.49939 c 0,-2.0417 -0.49837,-3.60915 -1.5353,-4.7345 v 0 c -1.00477,-1.16554 -2.45165,-1.72821 -4.26828,-1.72821 v 0 c -1.06908,0 -2.20246,0.31317 -3.45642,0.90831 v 0 c -1.22181,0.59483 -2.57223,1.50315 -3.98695,2.7973 v 0 -8.44815 l 1.50314,-0.50672 v -2.66868 l -10.39338,3.42427 z m 203.06085,-1.03693 c -0.94047,0.78774 -1.41472,1.63175 -1.41472,2.60438 v 0 c 0,0.72343 0.25722,1.31826 0.78774,1.76036 v 0 c 0.50673,0.47393 1.19769,0.69129 2.07385,0.69129 v 0 c 1.38257,0 2.57223,-0.37748 3.577,-1.10124 v 0 c 0.97262,-0.69128 1.47903,-1.53529 1.47903,-2.54007 v 0 c 0,-0.75559 -0.28102,-1.35041 -0.8842,-1.82467 v 0 c -0.59483,-0.46621 -1.40669,-0.7154 -2.41146,-0.7154 v 0 c -1.19769,0 -2.26677,0.36976 -3.20724,1.12535 m -83.58114,4.83899 c -1.19769,1.06908 -2.73299,1.88094 -4.58981,2.44361 v 0 2.4195 h 1.95328 v 12.15375 c 0,2.07385 0.37812,3.577 1.28611,4.51746 v 0 c 0.81186,0.91636 2.19443,1.38257 4.08341,1.38257 v 0 c 1.1575,0 2.29088,-0.28101 3.41623,-0.84401 v 0 c 1.16554,-0.53888 2.23462,-1.38257 3.23939,-2.41949 v 0 l -1.10123,-1.63176 c -0.31317,0.21671 -0.62698,0.34533 -0.90832,0.44243 v 0 c -0.28101,0.0881 -0.53888,0.15304 -0.78774,0.15304 v 0 c -0.65913,0 -1.13339,-0.21671 -1.38257,-0.65913 v 0 c -0.28166,-0.44242 -0.41027,-1.18965 -0.41027,-2.29088 v 0 -10.80334 h 2.58026 c 0.1852,0 0.34532,-0.0322 0.41027,-0.12089 v 0 c 0.0881,-0.0965 0.1524,-0.34532 0.21671,-0.75559 v 0 l 0.44178,-2.4838 h -3.64934 v -5.11229 l -2.09797,-0.47458 c -0.60254,1.63175 -1.47903,2.98217 -2.70083,4.0834 m 137.65407,-1.94524 c -0.50673,0.49837 -1.00478,1.56745 -1.47903,3.1349 v 0 c -0.59483,-0.1852 -1.18965,-0.28102 -1.81663,-0.37748 v 0 c -0.69129,-0.0887 -1.38257,-0.12089 -2.07386,-0.12089 v 0 c -2.82944,0 -5.21679,0.7797 -7.09772,2.38734 v 0 c -1.88094,1.5996 -2.82945,3.577 -2.82945,5.96434 v 0 c 0,1.91309 0.6347,3.577 1.92113,5.02387 v 0 c 1.28611,1.38257 3.04648,2.35519 5.2409,2.82141 v 0 c -0.97262,0.53888 -2.106,0.97262 -3.39211,1.41472 v 0 c -1.28612,0.44242 -2.66868,0.85205 -4.23613,1.19769 v 0 l 2.47576,2.60438 c 0.47458,-0.12861 0.91636,-0.19292 1.31827,-0.25723 v 0 c 0.37811,-0.0257 0.75559,-0.0579 1.13338,-0.0579 v 0 c 0.34532,0 0.78774,0.0322 1.25396,0.0579 v 0 c 0.47457,0.0643 1.03693,0.12862 1.76036,0.25723 v 0 c -1.25396,0.37811 -2.22658,0.90831 -2.91786,1.5996 v 0 c -0.65913,0.69128 -0.97262,1.47902 -0.97262,2.45165 v 0 c 0,1.28611 0.59482,2.29088 1.75232,2.98217 v 0 c 1.19769,0.74755 2.8616,1.06908 4.96761,1.06908 v 0 c 2.47576,0 4.54962,-0.53824 6.21352,-1.66391 v 0 c 1.66391,-1.13339 2.51596,-2.51595 2.51596,-4.14771 v 0 c 0,-1.5996 -0.78775,-2.8616 -2.35519,-3.80206 v 0 c -1.57549,-0.94047 -4.11556,-1.63176 -7.63629,-2.07386 v 0 c 3.70561,-0.94047 6.40644,-2.19442 8.19896,-3.76187 v 0 c 1.76036,-1.57549 2.63653,-3.48858 2.63653,-5.84377 v 0 c 0,-1.84878 -0.62698,-3.54484 -1.84879,-5.05602 v 0 c -1.26199,-1.47099 -1.85682,-2.22658 -1.85682,-2.22658 v 0 c 0,-0.19292 0.0643,-0.37812 0.19292,-0.50673 v 0 c 0.15304,-0.12089 0.36975,-0.1852 0.59482,-0.1852 v 0 c 0.1852,0 0.34597,0.0322 0.56268,0.12861 v 0 c 0.21671,0.0579 0.50608,0.21671 0.81989,0.40191 v 0 l 0.84401,-4.0191 c -0.24886,-0.0579 -0.46621,-0.12025 -0.75559,-0.12025 v 0 c -0.24886,-0.0643 -0.46621,-0.0643 -0.69128,-0.0643 v 0 c -1.0932,0 -1.94525,0.2495 -2.44361,0.78774 m -7.19419,14.03469 c -0.84401,-1.79252 -1.28611,-3.83422 -1.28611,-6.09296 v 0 c 0,-0.8842 0.1852,-1.56744 0.50673,-2.0417 v 0 c 0.36976,-0.47457 0.84401,-0.75559 1.43884,-0.75559 v 0 c 1.16553,0 2.106,0.85205 2.98217,2.57223 v 0 c 0.85204,1.69605 1.28611,3.73776 1.28611,6.02864 v 0 c 0,0.94851 -0.1852,1.67195 -0.56268,2.17031 v 0 c -0.34596,0.53052 -0.87616,0.78775 -1.53529,0.78775 v 0 c -1.03693,0 -1.9774,-0.88421 -2.82945,-2.66868 m 1.57549,15.28864 c -0.32153,-0.40963 -0.47393,-0.97262 -0.47393,-1.66391 v 0 c 0,-0.50672 0.0965,-0.97262 0.24886,-1.44687 v 0 c 0.16076,-0.43406 0.37747,-0.87616 0.72344,-1.35042 v 0 c 0.69128,0.31317 1.28611,0.78775 1.6639,1.38257 v 0 c 0.41027,0.59483 0.59483,1.28611 0.59483,2.0417 v 0 c 0,0.50673 -0.0887,0.90832 -0.37812,1.19769 v 0 c -0.28101,0.31317 -0.62698,0.43407 -1.09319,0.43407 v 0 c -0.57103,0 -0.97262,-0.1852 -1.28611,-0.59483 m -158.75433,-20.47328 2.47577,0.97262 c 0.62697,-0.87616 1.35041,-1.50314 2.13815,-1.97739 v 0 c 0.77971,-0.44243 1.59961,-0.65914 2.44362,-0.65914 v 0 c 0.81989,0 1.44687,0.19292 1.92112,0.59483 v 0 c 0.46622,0.40963 0.72344,0.97262 0.72344,1.63175 v 0 l -0.0322,1.13339 c -0.41027,-0.0322 -0.72344,-0.0643 -1.00478,-0.0643 v 0 h -0.65913 c -3.55288,0 -6.22156,0.62698 -7.98192,1.92113 v 0 c -1.75233,1.28611 -2.63653,3.23136 -2.63653,5.80358 v 0 c 0,1.97739 0.60254,3.55288 1.85682,4.77469 v 0 c 1.22181,1.25395 2.78925,1.88093 4.77469,1.88093 v 0 c 0.94047,0 1.88094,-0.24886 2.85356,-0.65913 v 0 c 0.94047,-0.43406 1.91309,-1.09319 2.85356,-1.94524 v 0 l 0.57103,1.97739 h 8.25522 v -2.63652 h -1.47099 v -12.18591 c 0,-2.09796 -0.63469,-3.72972 -1.92112,-4.95956 v 0 c -1.31827,-1.22181 -3.10275,-1.81663 -5.36952,-1.81663 v 0 c -0.94047,0 -1.81663,0.0887 -2.73298,0.28101 v 0 c -0.87617,0.1852 -1.72018,0.46622 -2.54007,0.84401 v 0 l 0.41027,-1.2218 -2.20247,-0.8199 -2.72495,7.12988 z m 5.58655,10.5863 c -0.44243,-0.57103 -0.62698,-1.38257 -0.62698,-2.4838 v 0 c 0,-1.19769 0.31317,-2.19443 1.00477,-2.88571 v 0 c 0.62698,-0.72344 1.5353,-1.06908 2.66868,-1.06908 v 0 c 0.0322,0 0.15305,0 0.34532,0 v 0 c 0.15305,0.0322 0.37748,0.0643 0.69129,0.12089 v 0 l 0.0322,4.4612 c 0,0.8199 -0.22507,1.47903 -0.65913,1.94524 v 0 c -0.44178,0.50673 -1.00478,0.75559 -1.72821,0.75559 v 0 c -0.75559,0 -1.35042,-0.28101 -1.72822,-0.84401 m 97.58368,-16.05227 c -0.53052,-0.24886 -1.02889,-0.43406 -1.50315,-0.56267 v 0 c -0.47457,-0.1209 -0.87616,-0.1852 -1.25395,-0.1852 v 0 c -0.62698,0 -1.22985,0.24886 -1.79252,0.74755 v 0 c -0.59483,0.57103 -1.47903,1.72821 -2.63653,3.58503 v 0 c -0.31381,-0.91635 -0.85205,-1.69606 -1.5996,-2.38734 v 0 c -0.72344,-0.69128 -1.72821,-1.35042 -3.01432,-1.94524 v 0 l -4.49335,5.45793 1.54333,1.72821 0.74755,-0.65913 c 0.25723,0.16076 0.44178,0.34596 0.53824,0.56267 v 0 c 0.0887,0.19292 0.15305,0.57104 0.15305,1.13339 v 0 10.73903 h -1.43884 v 2.63652 h 10.98821 v -2.63652 h -2.13816 v -8.91436 c 0,-1.03693 0.24887,-1.82467 0.72344,-2.38734 v 0 c 0.47393,-0.57104 1.13339,-0.88421 1.94524,-0.88421 v 0 c 0.37812,0 0.85205,0.0965 1.41473,0.25723 v 0 c 0.49836,0.12089 1.18965,0.37747 2.00954,0.69128 v 0 l 2.45165,-7.12988 -2.20246,-0.78774 -0.44242,0.94047 z m 32.00005,0.16076 c -1.25396,0.59483 -2.57223,1.50315 -4.0191,2.7973 v 0 l 0.21671,-3.70561 h -0.31381 l -8.79379,2.47576 v 2.38735 l 1.44688,-0.21671 v 14.31602 h -1.44688 v 2.63653 h 10.33712 v -2.63653 h -1.44687 v -12.21002 c 0.56267,-0.53888 1.18965,-0.98066 1.82467,-1.26199 v 0 c 0.62698,-0.31317 1.2218,-0.43407 1.78448,-0.43407 v 0 c 0.75559,0 1.31826,0.21671 1.69605,0.65914 v 0 c 0.40963,0.46621 0.56268,1.1575 0.56268,2.06581 v 0 11.18113 h -1.40669 v 2.63653 h 10.29693 v -2.63653 h -1.44687 V 255.1834 c 0,-2.0417 -0.49837,-3.60915 -1.5353,-4.7345 v 0 c -1.06908,-1.16554 -2.51595,-1.72821 -4.33259,-1.72821 v 0 c -1.06908,0 -2.20246,0.31317 -3.42427,0.90832 m -18.77722,-0.90832 -8.79378,2.47576 v 2.38735 l 1.47903,-0.21671 v 14.31602 h -1.47903 v 2.63653 h 10.32908 v -2.63653 h -1.43884 v -15.25649 c 0,-0.41027 0.0322,-0.91636 0.0643,-1.44688 v 0 c 0,-0.59482 0.0579,-1.35041 0.12089,-2.25873 v 0 h -0.28101 z m -48.22916,3.23135 c -2.00955,2.13816 -2.98217,4.80684 -2.98217,7.97389 v 0 c 0,3.20724 0.90832,5.84377 2.73299,7.91762 v 0 c 1.81663,2.03367 4.13967,3.10275 7.00126,3.10275 v 0 c 2.10601,0 4.0191,-0.46622 5.74731,-1.38257 v 0 c 1.72821,-0.94047 3.29566,-2.35519 4.74254,-4.23613 v 0 l -1.51118,-1.66391 c -0.69129,0.72344 -1.47903,1.25396 -2.29089,1.63176 v 0 c -0.85205,0.34596 -1.72821,0.53888 -2.66868,0.53888 v 0 c -1.16554,0 -2.20247,-0.31317 -3.11078,-0.94851 v 0 c -0.87616,-0.62698 -1.66391,-1.5996 -2.25873,-2.78925 v 0 l 8.07034,-3.39212 c 0.75559,-0.31317 1.5353,-0.56268 2.32304,-0.8199 v 0 c 0.78774,-0.1852 1.18965,-0.37811 1.18965,-0.53052 v 0 c 0,-0.44178 -0.28165,-1.2218 -0.81185,-2.35519 v 0 c -0.53888,-1.10123 -1.19769,-2.13816 -1.94525,-2.98217 v 0 c -0.91635,-1.10123 -1.95328,-1.91309 -3.14293,-2.4838 v 0 c -1.19769,-0.53052 -2.51596,-0.81186 -3.92264,-0.81186 v 0 c -2.79729,0 -5.18463,1.0932 -7.16203,3.23136 m 3.89049,5.20875 c -0.0881,-0.56268 -0.15241,-1.18966 -0.15241,-1.81664 v 0 c 0,-1.00477 0.15241,-1.82467 0.53052,-2.38734 v 0 c 0.34532,-0.56267 0.85205,-0.84401 1.51118,-0.84401 v 0 c 0.72344,0 1.43884,0.36976 2.09797,1.18965 v 0 c 0.66717,0.78775 1.22985,1.88094 1.69606,3.39212 v 0 l -5.27305,2.19443 c -0.1852,-0.53052 -0.31317,-1.0932 -0.41027,-1.72821 m -135.01754,-5.20875 c -1.9774,2.13816 -2.98217,4.80684 -2.98217,7.97388 v 0 c 0,3.20724 0.91635,5.84377 2.73298,7.91762 v 0 c 1.82467,2.03367 4.14771,3.10275 7.00127,3.10275 v 0 c 2.106,0 4.0191,-0.46622 5.74731,-1.38257 v 0 c 1.72821,-0.94047 3.29566,-2.35519 4.74253,-4.23613 v 0 l -1.47903,-1.66391 c -0.7154,0.72344 -1.47099,1.25396 -2.32303,1.63176 v 0 c -0.81186,0.34596 -1.72018,0.53888 -2.66868,0.53888 v 0 c -1.12535,0 -2.16228,-0.31317 -3.07059,-0.94851 v 0 c -0.94851,-0.62698 -1.67195,-1.5996 -2.29893,-2.78925 v 0 l 8.07035,-3.39212 c 0.78774,-0.31317 1.54333,-0.56267 2.32304,-0.8199 v 0 c 0.78774,-0.1852 1.19769,-0.37811 1.19769,-0.53052 v 0 c 0,-0.44178 -0.28102,-1.2218 -0.8199,-2.35519 v 0 c -0.53052,-1.10123 -1.18965,-2.13816 -1.91309,-2.98217 v 0 c -0.90831,-1.10123 -1.97739,-1.91309 -3.17509,-2.4838 v 0 c -1.18965,-0.53052 -2.47576,-0.81186 -3.92263,-0.81186 v 0 c -2.7973,0 -5.1766,1.0932 -7.16203,3.23136 m 3.89852,5.20875 c -0.0965,-0.56268 -0.16076,-1.18966 -0.16076,-1.81664 v 0 c 0,-1.00477 0.19291,-1.82467 0.53888,-2.38734 v 0 c 0.37747,-0.56267 0.84401,-0.84401 1.50314,-0.84401 v 0 c 0.75559,0 1.47903,0.36976 2.13816,1.18965 v 0 c 0.65913,0.78775 1.2218,1.88094 1.6639,3.39212 v 0 l -5.2409,2.19443 c -0.19292,-0.53052 -0.34596,-1.0932 -0.44242,-1.72821 m 7.2826,39.28265 -40.19097,82.5201 c -0.69128,1.38257 0.19292,3.04647 2.13816,3.04647 v 0 c 2.44361,0 3.51269,-0.78774 4.3969,-2.17031 v 0 l 14.53305,-19.81415 c 1.76036,-2.47576 5.08818,-3.92264 10.55415,-3.92264 v 0 h 14.8787 c 5.46597,0 9.13942,2.17032 11.43031,6.53505 v 0 l 8.23111,16.19697 c 0.90831,1.94524 5.11229,4.01909 10.39338,4.01909 v 0 c 9.26,0 14.18741,-5.12033 12.08141,-9.57349 v 0 l -38.61549,-76.61202 c -0.69128,-1.51118 -1.88897,-3.27155 -4.55765,-3.27155 v 0 c -3.1349,0 -4.39689,1.22985 -5.27306,3.04648 m -9.26,50.68081 9.26,-19.78199 9.83071,19.43635 c 1.25396,2.60437 -1.72821,5.20875 -5.59458,5.20875 v 0 h -8.60087 c -3.16704,0 -6.14921,-2.38735 -4.89526,-4.86311 M 156.42868,299.39411 v 75.32591 c 0,6.63151 6.40644,7.7247 10.10401,7.7247 v 0 c 3.86637,0 9.92717,-1.6639 9.92717,-7.7247 v 0 -35.97896 c 0,-2.73298 2.0417,-5.12032 6.0608,-5.12032 v 0 c 3.7056,0 6.40644,2.95001 8.07034,5.21678 v 0 l 29.82974,39.46753 c 1.35042,2.04171 3.51269,3.70561 7.05753,3.70561 v 0 c 3.35997,0 6.40645,-1.79252 6.40645,-3.93067 v 0 -75.32592 c 0,-6.08491 -6.40645,-7.7247 -10.26478,-7.7247 v 0 c -3.73776,0 -10.26477,1.10123 -10.26477,7.7247 v 0 41.50923 c 0,1.51118 -0.85205,3.04648 -3.04648,3.04648 v 0 c -1.51118,0 -3.7056,-0.1852 -4.71038,-1.63175 v 0 l -34.19447,-46.50095 c -1.51119,-2.38735 -4.0191,-4.36474 -8.1025,-4.36474 v 0 c -4.17183,0 -6.87266,1.85682 -6.87266,4.58177 m 337.03343,-4.36474 c -4.51747,0 -7.31476,1.76036 -7.31476,4.36474 v 0 78.02674 c 0,2.4195 3.48858,4.58981 7.31476,4.58981 v 0 h 64.15282 c 4.13967,0 8.31953,-1.79252 8.31953,-4.36474 v 0 c 0,-2.70083 -4.33259,-4.36474 -8.66517,-4.36474 v 0 h -50.4879 v -26.71895 c 0,-4.24417 4.0191,-6.945 13.87393,-8.0382 v 0 l 25.84279,-2.82944 c 2.95002,-0.21735 6.24567,-1.10123 6.24567,-3.04648 v 0 c 0,-1.94524 -3.48053,-2.8214 -6.59131,-2.8214 v 0 h -32.05632 c -4.71038,0 -7.31476,-2.38735 -7.31476,-5.43382 v 0 -15.89151 c 0,-2.25873 -4.30847,-4.33259 -6.22156,-4.77469 v 0 h 54.25781 c 4.36474,0 8.51245,-1.84878 8.31953,-4.54961 v 0 c -0.15305,-2.60438 -4.13967,-4.14771 -8.31953,-4.14771 v 0 z m -96.36187,25.03093 v 36.91943 c 0,13.81765 17.33035,25.03093 38.71194,25.03093 v 0 c 21.41375,0 38.75213,-11.21328 38.75213,-25.03093 v 0 -13.46398 c 0,-2.95805 -1.85682,-5.65085 -6.75208,-5.65085 v 0 h -25.24797 c -3.39211,0 -6.06079,1.75233 -6.40644,3.92264 v 0 c -0.34532,2.38734 2.35519,4.77469 6.0608,4.77469 v 0 h 18.52804 c -2.19443,0.0887 -6.75209,2.3793 -6.75209,6.30998 v 0 4.10752 c 0,9.01885 -4.20397,16.30145 -18.18239,16.30145 v 0 c -13.97038,0 -18.68076,-7.2826 -18.68076,-16.30145 v 0 -36.91943 c 0,-9.04297 9.7664,-16.33361 23.73678,-16.33361 v 0 c 15.16808,0 24.93448,6.53505 24.93448,16.33361 v 0 2.16228 c 0,1.5996 1.84879,3.04647 4.36474,3.04647 v 0 c 2.54007,0 4.39689,-1.44687 4.39689,-3.04647 v 0 -2.16228 c 0,-13.81765 -17.33838,-25.03093 -38.75213,-25.03093 v 0 c -21.38159,0 -38.71194,11.21328 -38.71194,25.03093 M 253.13619,295.02937 c -3.577,0 -6.65563,1.85682 -6.84854,4.14771 v 0 c -0.15305,2.4838 2.9259,4.54961 6.84854,4.54961 v 0 h 18.80937 c 2.88571,0 4.76665,1.19769 4.76665,3.27155 v 0 71.1782 c 0,1.54334 1.85682,3.83422 5.12033,3.83422 v 0 c 3.39212,0 5.46597,-1.79252 5.81162,-3.93067 v 0 l 10.9239,-67.15911 c 0.69129,-4.58177 4.0834,-7.19419 10.5863,-7.19419 v 0 h 8.88221 c 3.92263,0 7.16203,-1.84878 7.16203,-4.33258 v 0 c 0,-2.50792 -3.58504,-4.36474 -7.50768,-4.36474 v 0 z m -132.94369,7.7247 v 71.62031 c 0,6.63151 6.37429,7.7247 10.01559,7.7247 v 0 c 3.85834,0 9.85483,-1.6639 9.85483,-7.7247 v 0 -71.62031 c 0,-6.08491 -5.99649,-7.7247 -9.85483,-7.7247 v 0 c -3.6413,0 -10.01559,1.10123 -10.01559,7.7247 m -19.53281,-5.33736 -22.257756,49.80465 c -0.506085,1.06104 -1.165539,2.3793 -3.552882,2.3793 v 0 c -3.359965,0 -4.05125,-1.53529 -4.549618,-3.03843 v 0 L 51.04796,299.83621 c -1.503142,-3.60915 -5.900034,-4.67823 -9.766405,-4.67823 v 0 c -7.596093,0 -11.454426,4.54962 -9.79052,8.56871 v 0 l 31.204268,72.3759 c 1.197691,2.63653 2.202465,5.90807 6.944999,5.90807 v 0 c 5.20875,0 6.559166,-2.73298 7.909583,-6.09295 v 0 l 29.548405,-77.6168 c 0.69128,-1.85682 -0.16077,-3.27154 -2.20247,-3.27154 v 0 c -2.69279,0 -3.54484,0.97262 -4.23613,2.38734 m 223.18849,100.91952 c -4.87115,4.14771 -7.29064,9.83071 -7.29064,17.08117 v 0 c 0,6.93696 2.17031,12.55565 6.5029,16.86413 v 0 c 4.33258,4.30043 10.17635,6.4627 17.4268,6.4627 v 0 c 7.16203,0 12.93345,-2.19442 17.39465,-6.55916 v 0 c 4.49335,-4.36474 6.68778,-9.7021 6.68778,-16.04424 v 0 c 0,-6.81639 -2.29089,-12.49939 -6.87266,-17.11331 v 0 c -4.55765,-4.58177 -10.04774,-6.8807 -16.42203,-6.8807 v 0 c -6.81638,0 -12.59585,2.04171 -17.4268,6.18941 m 8.28738,28.72851 c -2.35519,-3.26351 -3.52073,-7.06557 -3.52073,-11.3017 v 0 c 0,-4.42905 1.10123,-8.25523 3.33585,-11.46247 v 0 c 2.22658,-3.1992 4.95956,-4.83095 8.22307,-4.83095 v 0 c 3.32781,0 6.15726,1.63175 8.4803,4.86311 v 0 c 2.32303,3.23135 3.48053,7.06557 3.48053,11.43031 v 0 c 0,4.51746 -1.09319,8.31953 -3.32781,11.49461 v 0 c -2.19443,3.16705 -4.99172,4.7345 -8.41599,4.7345 v 0 c -3.16705,0 -5.93218,-1.63175 -8.25522,-4.92741 m 90.9602,-22.35422 c 0,3.23135 0.81989,5.93219 2.51595,8.07035 v 0 c 1.5996,2.106 4.61393,3.92264 8.91436,5.49008 v 0 c 2.54811,0.91636 4.39689,1.6398 5.62674,2.23462 v 0 c 1.18965,0.59483 2.16227,1.35042 2.95001,2.19443 v 0 c 0.74755,0.8842 1.0932,1.82467 1.0932,2.82944 v 0 c 0,4.83096 -4.17183,7.28261 -12.61997,7.28261 v 0 h -4.51746 c -2.20247,0.18455 -3.3037,0.85204 -3.3037,1.88093 v 0 c 0,1.22985 1.44687,2.13816 4.34062,2.82945 v 0 c 2.88572,0.69128 5.73927,1.00477 8.53657,1.00477 v 0 c 6.1251,0 10.86763,-1.10123 14.28387,-3.39212 v 0 c 3.42427,-2.22658 5.12033,-5.55439 5.12033,-9.91913 v 0 c 0,-2.23461 -0.37748,-4.21201 -1.13339,-5.87592 v 0 c -0.7797,-1.69606 -1.91309,-3.07862 -3.35996,-4.17182 v 0 c -1.50315,-1.10123 -3.82618,-2.17031 -6.96912,-3.23939 v 0 c -3.16705,-1.03693 -5.33736,-1.81663 -6.55916,-2.37931 v 0 c -1.1977,-0.57103 -2.13816,-1.3263 -2.82945,-2.26677 v 0 c -0.65913,-0.94047 -0.97262,-2.0417 -0.97262,-3.32781 v 0 c 0,-4.13967 4.80684,-6.21352 14.41248,-6.21352 v 0 c 2.76514,0 4.14771,-0.50673 4.14771,-1.44688 v 0 c 0,-1.25396 -1.44688,-2.25873 -4.26828,-3.01432 v 0 c -2.89375,-0.72344 -5.683,-1.10123 -8.41599,-1.10123 v 0 c -11.33385,0 -16.99274,4.17986 -16.99274,12.53154 M 48.258707,392.99887 c -2.170312,0.49837 -4.461198,1.47099 -6.944999,2.98217 v 0 c -2.443611,1.51118 -4.396892,3.23136 -5.900035,5.15248 v 0 c -1.479027,1.91309 -2.604374,4.0191 -3.295659,6.34214 v 0 c -0.723438,2.29088 -1.101233,4.7988 -1.101233,7.53179 v 0 c 0,6.88069 2.54007,12.49939 7.563941,16.92843 v 0 c 5.056024,4.3969 11.21328,6.59132 18.495884,6.59132 v 0 c 2.35519,0 4.903298,-0.18455 7.604131,-0.59482 v 0 c 2.692795,-0.37812 4.364739,-0.85205 5.080138,-1.44688 v 0 c 0.691285,-0.56267 1.036927,-1.44687 1.036927,-2.66868 v 0 c 0,-1.03693 -0.345964,-1.53529 -1.004774,-1.53529 v 0 l -6.80835,0.1524 c -4.244166,0 -7.47552,-0.46622 -9.734253,-1.38257 v 0 c -2.290885,-0.94047 -4.212013,-2.16227 -5.747308,-3.70561 v 0 c -1.567448,-1.50314 -2.797292,-3.16705 -3.673455,-5.05602 v 0 c -0.908316,-1.88094 -1.350416,-4.45316 -1.350416,-7.74882 v 0 c 0,-2.23462 0.313168,-4.21201 0.972621,-5.90807 v 0 c 0.594826,-1.72821 1.760365,-3.51269 3.488576,-5.36952 v 0 c 1.720174,-1.84878 3.673455,-3.1992 5.803576,-4.05124 v 0 c 2.13816,-0.77971 4.613923,-1.18966 7.507673,-1.18966 v 0 c 1.125347,0 2.853559,0.12861 5.20875,0.40963 v 0 c 2.35519,0.28166 3.609149,0.40191 3.802065,0.40191 v 0 c 0.75559,0 1.133386,-0.43406 1.133386,-1.31827 v 0 c 0,-1.69605 -1.350417,-2.98217 -4.05125,-3.92263 v 0 c -2.66868,-0.87617 -5.972378,-1.31827 -9.862864,-1.31827 v 0 c -3.327812,0 -6.060798,0.21736 -8.223072,0.72344 m 177.185903,0.18456 c -0.53888,0.0643 -1.10123,0.47457 -1.76036,1.10123 v 0 c -0.65913,0.65913 -1.25396,1.44687 -1.82467,2.35519 v 0 c -0.56268,0.90832 -1.03693,2.00955 -1.41472,3.26351 v 0 l -2.25874,8.00604 c -1.53529,5.15248 -2.73298,8.38383 -3.57699,9.73425 v 0 c -0.44243,0.69128 -0.90832,1.22984 -1.44688,1.54333 v 0 c -0.49837,0.37812 -1.06908,0.53052 -1.6639,0.53052 v 0 c -0.87617,0 -1.69606,-0.41027 -2.4195,-1.2218 v 0 c -0.7154,-0.85205 -1.66391,-3.07863 -2.85356,-6.65563 v 0 c -1.18965,-3.58503 -2.4195,-7.7247 -3.70561,-12.43508 v 0 c -0.44242,-1.76037 -1.2218,-3.23939 -2.25873,-4.5255 v 0 c -1.03693,-1.28612 -1.92113,-1.88094 -2.60437,-1.88094 v 0 h -21.07615 l 5.15248,6.71993 v 31.49364 l -5.15248,6.68778 h 20.41701 l -5.15248,-6.68778 v -8.41599 c 0,-2.88571 0.24886,-5.46597 0.81186,-7.7247 v 0 c 0.53888,-2.25873 1.262,-3.39212 2.07385,-3.39212 v 0 c 0.91636,0 2.00955,1.41472 3.32782,4.30043 v 0 c 1.26199,2.8616 2.4838,6.09295 3.61718,9.73426 v 0 c 1.0932,3.6413 1.91309,6.25371 2.47577,7.88546 v 0 c 0.56267,1.63176 1.13338,2.75711 1.69606,3.44839 v 0 c 0.56267,0.65913 1.19769,1.16554 1.82467,1.41472 v 0 c 0.65913,0.24951 2.00954,0.41027 4.05125,0.41027 v 0 c 1.40668,0 2.41145,-0.16076 3.03843,-0.41027 v 0 c 0.60255,-0.24886 1.19769,-0.75559 1.69606,-1.47099 v 0 c 0.53888,-0.75559 1.00478,-1.69606 1.38257,-2.89375 v 0 c 3.55288,-10.8596 5.81161,-17.45895 6.78424,-19.71769 v 0 c 0.47393,-1.13338 0.94046,-1.97739 1.41472,-2.54007 v 0 c 0.49837,-0.60254 0.97262,-0.85204 1.41472,-0.85204 v 0 c 0.94047,0 1.75233,1.19769 2.41146,3.55288 v 0 c 0.69128,2.32304 1.03693,4.89526 1.03693,7.62824 v 0 12.33863 c 0,0.87616 0.40962,1.69606 1.25395,2.38734 v 0 c 0.8199,0.69129 2.20247,1.00478 4.05125,1.00478 v 0 c 1.262,0 2.13816,-0.0965 2.70084,-0.34597 v 0 c 0.57103,-0.21671 1.06908,-0.62697 1.54333,-1.2218 v 0 c 0.46621,-0.60254 0.72344,-1.262 0.72344,-1.98543 v 0 -36.98373 c 0,-1.10124 -0.44178,-2.07386 -1.29415,-2.91787 v 0 c -0.81186,-0.85205 -1.78448,-1.29415 -2.88571,-1.38257 v 0 c -1.06908,-0.0322 -2.91787,-0.0643 -5.5544,-0.0643 v 0 c -3.52072,0 -5.53027,0.0643 -5.99649,0.18455 m -81.41886,0.25723 c -0.8199,0.24886 -1.54334,0.7154 -2.17031,1.37453 v 0 c -0.65914,0.66717 -1.12535,1.41472 -1.50315,2.29892 v 0 l -13.84981,35.31982 c -0.59482,1.51118 -0.87616,2.45165 -0.87616,2.82945 v 0 c 0,1.75232 1.66391,2.63653 4.99172,2.63653 v 0 c 3.1992,0 5.52224,-1.41473 6.96911,-4.26829 v 0 c 1.06908,-2.13815 2.16228,-3.52072 3.29566,-4.17986 v 0 c 1.10124,-0.62698 2.32304,-0.97262 3.67346,-0.97262 v 0 h 11.02036 c 1.19769,0 2.17031,0.28166 2.95002,0.84401 v 0 c 0.78774,0.60255 1.82467,1.98544 3.14293,4.17986 v 0 c 1.72821,2.98217 4.0191,4.42905 6.93696,4.42905 v 0 c 3.35997,0 5.05603,-0.94047 5.05603,-2.8616 v 0 c 0,-0.34596 -0.31317,-1.18965 -0.87617,-2.63653 v 0 l -14.25975,-35.2314 c -0.43406,-0.94047 -0.97262,-1.72017 -1.5353,-2.35519 v 0 c -0.56267,-0.59483 -1.25395,-1.06104 -2.0417,-1.37453 v 0 c -0.78774,-0.32153 -2.45165,-0.47458 -5.02387,-0.47458 v 0 c -3.11078,0 -5.08818,0.12861 -5.90003,0.44243 m 1.72017,27.03244 c -1.25396,-0.87616 -1.91309,-1.91309 -1.91309,-3.14293 v 0 c 0,-1.9774 0.59483,-4.51747 1.79252,-7.6604 v 0 c 1.18965,-3.14293 2.47576,-4.71038 3.82618,-4.71038 v 0 c 1.35041,0 2.73298,1.6639 4.11555,4.95956 v 0 c 1.38257,3.32782 2.07386,5.81162 2.07386,7.44337 v 0 c 0,1.16554 -0.65913,2.17031 -1.94525,3.07863 v 0 c -1.31826,0.87616 -2.63652,1.31826 -3.89852,1.31826 v 0 c -1.40668,0 -2.7571,-0.44242 -4.05125,-1.28611 m 389.28972,-27.22536 5.12033,6.65562 v 34.60443 c 0,2.25873 1.81664,3.39212 5.49009,3.39212 v 0 c 1.82467,0 3.17509,-0.34597 4.0191,-1.03693 v 0 c 0.8842,-0.72344 1.3263,-2.13816 1.3263,-4.23613 v 0 l -0.12861,-3.93068 c 0,-1.78448 0.28101,-3.1992 0.94047,-4.33258 v 0 c 0.62698,-1.0932 1.6639,-1.88094 3.04647,-2.29089 v 0 c 1.38257,-0.41027 3.32781,-0.72344 5.90004,-0.94047 v 0 c 4.71038,-0.41027 8.35168,-1.82467 10.99624,-4.33258 v 0 c 2.57223,-2.45165 3.89049,-5.81162 3.89049,-9.98344 v 0 c 0,-4.30847 -1.53529,-7.63628 -4.54962,-9.99147 v 0 c -3.07863,-2.37931 -7.16203,-3.577 -12.31451,-3.577 v 0 z m 17.33035,19.74984 c -0.90832,-1.12535 -1.37453,-3.13489 -1.37453,-5.93219 v 0 c 0,-4.99171 1.81663,-7.47552 5.39363,-7.47552 v 0 c 2.00955,0 3.76991,0.72344 5.36951,2.23462 v 0 c 1.57549,1.43884 2.35519,3.1992 2.35519,5.1766 v 0 c 0,2.10601 -0.7154,3.92264 -2.13012,5.43382 v 0 c -1.44688,1.50314 -3.17509,2.29088 -5.27306,2.29088 v 0 c -1.95328,0 -3.39211,-0.59482 -4.34062,-1.72821 m -41.87899,-19.74984 5.14444,6.75208 v 34.41151 c 0,2.35519 1.82467,3.48858 5.40167,3.48858 v 0 c 3.70561,0 5.53028,-1.1977 5.53028,-3.55289 v 0 -34.3472 l 5.14444,-6.75208 z m -17.11331,3.98694 v 8.00604 c 0,1.63176 -0.94851,3.01433 -2.89375,4.08341 v 0 c -1.88094,1.10123 -3.92264,1.6639 -6.0608,1.6639 v 0 c -2.13012,0 -4.07537,-0.53052 -5.86788,-1.53529 v 0 c -1.79252,-1.03693 -2.66868,-2.38735 -2.66868,-4.0834 v 0 -5.36952 l 5.14444,-6.75208 h -21.25298 l 5.17659,6.75208 v 31.21231 l -5.17659,6.68778 h 12.65211 c 1.03693,0 1.88898,-0.31382 2.4838,-0.97263 v 0 c 0.65914,-0.65913 0.97263,-1.51118 0.97263,-2.58026 v 0 -11.17309 c 0,-1.88897 0.81185,-3.32781 2.47576,-4.39689 v 0 c 1.66391,-1.06908 3.67345,-1.56745 6.0608,-1.56745 v 0 c 2.35519,0 4.42904,0.53053 6.28587,1.59961 v 0 c 1.81663,1.10123 2.72494,2.54006 2.72494,4.36473 v 0 11.14898 c 0,2.3793 1.95328,3.60915 5.87592,3.60915 v 0 c 3.42427,0 5.12033,-1.13339 5.12033,-3.42427 v 0 -37.24095 c 0,-2.66868 -1.97739,-4.0191 -5.94022,-4.0191 v 0 c -3.41624,0 -5.11229,1.35042 -5.11229,3.98694 m -125.66109,-3.98694 5.20875,6.75208 v 31.21231 l -5.14444,6.68778 h 20.44113 l -5.18464,-6.68778 v -8.4803 c 0,-4.83095 0.21671,-7.7247 0.69128,-8.66517 v 0 c 0.47458,-0.97262 1.03693,-1.44687 1.72822,-1.44687 v 0 c 1.12534,0 2.54007,1.31826 4.33258,4.01909 v 0 c 1.79252,2.70084 4.77469,7.85332 8.94651,15.41726 v 0 c 1.13339,2.0417 2.22658,3.61719 3.23939,4.67823 v 0 c 1.02889,1.10123 2.06582,1.72821 3.10275,1.92113 v 0 c 1.03692,0.18455 2.29088,0.24886 3.7056,0.24886 v 0 c 3.89853,0 6.22157,-0.37812 7.06558,-1.16554 v 0 c 0.78774,-0.7797 1.18965,-1.9774 1.18965,-3.48054 v 0 -37.24095 c 0,-1.00477 -0.31317,-1.82467 -0.94047,-2.4195 v 0 c -0.62698,-0.59482 -1.88094,-0.87616 -3.76187,-0.87616 v 0 c -2.13816,0 -3.55289,0.28166 -4.27632,0.81186 v 0 c -0.69129,0.50673 -1.03693,1.38257 -1.03693,2.66868 v 0 16.14069 c 0,3.67346 -0.7797,5.53028 -2.29088,5.53028 v 0 c -0.69129,0 -1.43884,-0.34596 -2.29089,-1.06908 v 0 c -0.84401,-0.72344 -2.57222,-3.45642 -5.27306,-8.25523 v 0 c -2.66868,-4.77468 -4.64607,-8.35972 -5.87591,-10.71491 v 0 c -1.22181,-2.3793 -2.3552,-3.89048 -3.44839,-4.54962 v 0 c -1.06908,-0.69128 -1.85682,-1.03692 -2.38734,-1.03692 v 0 h -17.7403 z m -75.92878,0 5.15249,6.75208 v 34.41151 c 0,2.35519 1.82467,3.48858 5.43382,3.48858 v 0 c 3.67345,0 5.49008,-1.1977 5.49008,-3.55289 v 0 -34.3472 l 5.18464,-6.75208 z m -44.86919,0 5.12033,6.65562 v 34.60443 c 0,2.25873 1.85682,3.39212 5.49812,3.39212 v 0 c 1.81663,0 3.16705,-0.34597 4.05125,-1.03693 v 0 c 0.84401,-0.72344 1.28611,-2.13816 1.28611,-4.23613 v 0 l -0.12861,-3.93068 c 0,-1.78448 0.31317,-3.1992 0.94047,-4.33258 v 0 c 0.62698,-1.0932 1.63979,-1.88094 3.04647,-2.29089 v 0 c 1.38257,-0.41027 3.35997,-0.72344 5.90808,-0.94047 v 0 c 4.67823,-0.41027 8.35168,-1.82467 10.98821,-4.33258 v 0 c 2.60437,-2.45165 3.89048,-5.81162 3.89048,-9.98344 v 0 c 0,-4.30847 -1.50314,-7.63628 -4.54961,-9.99147 v 0 c -3.07863,-2.37931 -7.16203,-3.577 -12.30648,-3.577 v 0 z m 17.37053,19.74984 c -0.9485,-1.12535 -1.38257,-3.13489 -1.38257,-5.93219 v 0 c 0,-4.99171 1.78448,-7.47552 5.40167,-7.47552 v 0 c 1.9774,0 3.76188,0.72344 5.33736,2.23462 v 0 c 1.56745,1.43884 2.38735,3.1992 2.38735,5.1766 v 0 c 0,2.10601 -0.72344,3.92264 -2.17032,5.43382 v 0 c -1.41472,1.50314 -3.17508,2.29088 -5.2409,2.29088 v 0 c -1.95328,0 -3.39212,-0.59482 -4.33259,-1.72821 m -155.49082,-15.7629 v 8.00604 c 0,1.63176 -0.97262,3.01433 -2.86159,4.08341 v 0 c -1.94525,1.10123 -3.95479,1.6639 -6.084916,1.6639 v 0 c -2.138159,0 -4.083402,-0.53052 -5.875919,-1.53529 v 0 c -1.792517,-1.03693 -2.66868,-2.38735 -2.66868,-4.0834 v 0 -5.36952 l 5.152482,-6.75208 H 75.194694 l 5.184635,6.75208 v 31.21231 l -5.184635,6.68778 h 12.652117 c 1.004774,0 1.856823,-0.31382 2.515955,-0.97263 v 0 c 0.626979,-0.65913 0.940469,-1.51118 0.940469,-2.58026 v 0 -11.17309 c 0,-1.88897 0.819895,-3.32781 2.483801,-4.39689 v 0 c 1.631754,-1.06908 3.641302,-1.56745 6.060798,-1.56745 v 0 c 2.323036,0 4.421006,0.53053 6.277826,1.59961 v 0 c 1.81664,1.10123 2.70084,2.54006 2.70084,4.36473 v 0 11.14898 c 0,2.3793 2.00955,3.60915 5.90003,3.60915 v 0 c 3.39212,0 5.12033,-1.13339 5.12033,-3.42427 v 0 -37.24095 c 0,-2.66868 -1.9774,-4.0191 -5.96434,-4.0191 v 0 c -3.39212,0 -5.08818,1.35042 -5.08818,3.98694 m 348.34317,50.71297 c -38.093,50.70492 -93.25913,82.64067 -154.67093,82.64067 v 0 c -61.38768,0 -116.58596,-31.93575 -154.64681,-82.64067 v 0 H 91.865908 c 50.552202,56.10659 126.135332,91.81225 210.600672,91.81225 v 0 c 84.48946,0 160.07259,-35.70566 210.6248,-91.81225 v 0 z"/>
</svg>
