<?xml version="1.0" encoding="UTF-8" standalone="no"?>
<svg xmlns="http://www.w3.org/2000/svg" xmlns:xlink="http://www.w3.org/1999/xlink" version="1.1" width="600" height="559.57355">
  <radialGradient cx="0" cy="0" r="1" fx="0" fy="0" id="radialGradient186" gradientUnits="userSpaceOnUse" gradientTransform="matrix(33.328537,0,0,-33.328537,396.24902,271.51074)" spreadMethod="pad">
    <stop style="stop-color:#d7bd74" offset="0"/>
    <stop style="stop-color:#b39a54" offset="0.69101"/>
    <stop style="stop-color:#8d742f" offset="1"/>
  </radialGradient>
  <radialGradient cx="0" cy="0" r="1" fx="0" fy="0" id="radialGradient2990" xlink:href="#radialGradient186" gradientUnits="userSpaceOnUse" gradientTransform="matrix(290.07209,0,0,290.07209,299.99054,279.77358)" spreadMethod="pad"/>
  <path style="fill:url(#radialGradient2990)" d="M 66.234076,109.26268 H 128.21109 C 169.5175,48.652093 232.31264,9.9218952 302.68846,9.9218952 v 0 c 70.37581,0 133.19706,38.7301978 174.46866,99.3407848 v 0 h 62.01183 C 484.64205,42.838211 399.00045,1.9903114e-6 302.68846,1.9903114e-6 v 0 C 206.36776,1.9903114e-6 120.76097,42.838211 66.234076,109.26268 m 446.859444,24.75251 c -8.36398,7.1368 -12.16738,19.00826 -12.20219,31.01027 v 0 c 0.0348,14.68266 5.70944,29.80919 16.99777,37.05043 v 0 c 8.73823,4.01228 17.13702,7.24995 25.09195,8.30306 v 0 c 2.5501,0.33978 5.03057,0.5048 7.51104,0.5048 v 0 c 15.10043,0 29.74828,-6.18813 48.17341,-17.44164 v 0 l 0.37389,-0.19983 0.17407,-0.3746 c 0.47834,-0.88775 0.7485,-1.42736 0.78331,-2.31511 v 0 c 0.0348,-0.40941 -0.20888,-1.15755 -0.71368,-1.49698 v 0 c -0.54866,-0.33909 -0.99219,-0.3739 -1.26199,-0.3739 v 0 c -0.78331,0.0348 -1.35774,0.24369 -1.39255,0.17406 v 0 h -0.23465 l -0.24369,0.10445 c -0.94867,0.30427 -1.96697,0.80941 -2.58492,1.0183 v 0 c -9.85226,2.58491 -21.14059,5.06538 -31.48025,5.06538 v 0 c -15.84021,-0.10444 -28.93015,-5.43963 -32.94242,-25.39656 v 0 c -0.44353,-2.65454 -0.7485,-5.30038 -0.7485,-7.81567 v 0 c 0,-2.7938 0.3739,-5.37871 1.22718,-7.58938 v 0 c 6.42312,-13.08993 10.91409,-15.94465 23.01183,-16.11002 v 0 c 2.92435,0 6.3622,0.20053 10.30485,0.53961 v 0 c 3.8382,1.87124 5.1002,5.27427 5.16983,10.40929 v 0 c 0,1.89734 -0.2437,4.01227 -0.58279,6.24905 v 0 l -0.0696,0.44422 0.20888,0.40871 c 0.81812,1.49699 2.28029,1.83643 3.5684,1.87124 v 0 c 1.66235,-0.0348 3.70765,-0.67887 4.56059,-2.78509 v 0 l 0.0954,-0.2437 v -0.23464 c 0.0696,-8.84267 2.85472,-14.69137 9.34747,-18.63402 v 0 l 0.74849,-0.43517 v -0.81812 c -0.0627,-6.29257 -4.38652,-9.89578 -7.54586,-10.80964 v 0 l -1.05311,-0.3739 -0.60924,0.98349 c -2.61973,4.0819 -4.8304,5.33519 -7.78956,5.40482 v 0 c -1.0183,0 -2.17585,-0.20053 -3.42915,-0.54797 v 0 c -7.95492,-3.28989 -16.56259,-6.1185 -25.43137,-6.1185 v 0 c -8.84267,0 -17.98996,2.82861 -27.03281,10.57465 m -31.54988,-9.6869 c -5.77907,2.0366 -11.52332,2.88953 -17.23276,2.88953 v 0 c -5.74426,0 -11.42759,-0.85293 -17.03259,-2.14104 v 0 l -0.33908,-0.0696 -0.30427,0.0696 c -2.31511,0.40872 -4.72596,2.21067 -4.63022,5.26557 v 0 c 0,0.40941 0.0348,0.92256 0.13925,1.42736 v 0 l 0.13926,0.71368 0.67887,0.31332 c 4.76076,2.34122 9.1734,4.96095 11.79312,10.29614 v 0 c 0.40872,8.97322 2.41955,21.68891 2.41955,33.79536 v 0 c 0,14.30842 -2.82861,27.2678 -13.46418,32.53337 v 0 l -0.88775,0.44422 0.0696,0.94867 c 0.13925,3.67285 2.10622,6.39701 5.16983,6.63201 v 0 l 0.64405,0.0696 0.47834,-0.40941 c 8.22473,-6.93662 16.92814,-11.01852 26.64986,-11.01852 v 0 c 3.19415,0 6.49274,0.44422 9.93059,1.40125 v 0 l 0.44353,0.0954 0.43517,-0.16502 c 1.80161,-0.47903 2.95916,-2.21066 2.82861,-3.74246 v 0 c 0,-1.05312 -0.27851,-2.07142 -0.58348,-3.0549 v 0 l -0.20052,-0.6176 -0.54797,-0.27015 c -6.45793,-3.19416 -7.40661,-7.27606 -8.22473,-12.7505 v 0 c -1.12274,-5.10021 -1.46217,-10.23522 -1.46217,-15.46597 v 0 c -0.0348,-9.45191 1.22718,-19.24325 1.73198,-28.69516 v 0 -0.13926 -0.0961 c -0.0696,-0.33909 -0.10444,-0.65241 -0.10444,-0.95738 v 0 c 0,-4.17764 2.75898,-7.44142 7.00625,-10.80964 v 0 l 0.94867,-0.74849 -0.53961,-1.08793 c -0.60924,-1.28811 -1.63625,-4.11672 -5.16983,-4.72596 v 0 l -0.40871,-0.0348 -0.3746,0.10444 z m -337.35307,6.83218 c -0.0348,1.08793 0.43517,2.38474 1.55791,3.12453 v 0 c 3.84691,2.58491 7.89399,5.16983 11.42758,7.68511 v 0 c 2.34122,2.88954 3.97746,5.95314 4.01227,10.06115 v 0 c 0,0.40941 -0.0348,0.78331 -0.0696,1.19237 v 0 c -3.53359,5.43963 -6.79737,10.98371 -10.9489,15.13524 v 0 c -1.15755,1.45347 -2.5501,2.17585 -2.99397,4.48226 v 0 l -0.0279,0.13925 v 0.0961 c 0.0961,2.99397 2.27159,5.16982 4.14282,6.87569 v 0 c 1.32292,1.11404 2.78509,2.88954 5.6137,2.98528 v 0 c 0.33909,0.0696 0.67887,0.13925 1.05312,0.13925 v 0 c 1.69716,-0.0348 3.0549,-1.0183 4.31689,-2.51529 v 0 c 3.19415,0.0348 5.47445,1.62754 7.54586,5.06539 v 0 c 8.73823,14.03861 16.42335,30.62732 22.57666,50.65388 v 0 c 0.80942,4.0819 1.49699,8.02455 1.49699,11.35795 v 0 c 0,3.49878 -0.7485,6.25776 -2.48918,8.12029 v 0 c -3.76858,3.33341 -7.61549,6.93662 -10.97501,8.9123 v 0 l -0.54796,0.30427 -0.16572,0.57442 c -0.2785,1.02701 -0.4094,1.94086 -0.4094,2.82861 v 0 c -0.0348,1.21848 0.33908,2.44566 1.2881,3.26378 v 0 c 0.95738,0.78331 2.14104,1.0183 3.43785,1.0183 v 0 c 0.26946,0 0.53961,0 0.78331,0 v 0 l 0.5048,-0.0348 0.37389,-0.30427 c 3.36823,-2.68936 7.85919,-4.72596 13.15957,-6.29257 v 0 c 6.31868,-1.12274 12.13256,-1.5318 17.81589,-1.5318 v 0 c 3.02008,0 6.01406,0.10444 9.04285,0.31332 v 0 c 6.79736,1.0183 13.59473,2.30641 20.36599,5.37001 v 0 c 0.91386,0.23464 1.62754,0.37459 2.34122,0.37459 v 0 c 2.51528,0 4.96965,-1.63624 4.96965,-4.31689 v 0 c 0,-0.85294 -0.27851,-1.7755 -0.7485,-2.61973 v 0 l -0.10444,-0.13925 -0.13925,-0.1309 c -8.70342,-8.98193 -19.40862,-12.03683 -22.88128,-22.71592 v 0 c -7.98974,-31.65432 -23.1859,-65.10154 -35.11828,-86.39009 v 0 c -1.42736,-5.94444 -1.46217,-12.30663 -1.93216,-18.79938 v 0 c 0.0279,-0.84423 0.0961,-1.59273 0.0961,-2.30641 v 0 c -0.0348,-1.67105 -0.16572,-3.0636 -0.91386,-4.29078 v 0 c -0.67887,-1.21848 -2.17585,-1.93216 -3.63803,-1.89734 v 0 c -1.12274,0 -2.34992,0.26945 -3.77728,0.80941 v 0 c -1.46217,0.54867 -2.95916,0.71368 -4.51707,0.71368 v 0 c -1.7668,0 -3.63803,-0.26945 -5.57889,-0.53961 v 0 c -10.36577,-1.83642 -15.90985,-1.56661 -25.09195,-2.61973 v 0 c -3.12452,0.33909 -4.65633,3.13323 -4.8565,5.8487 m 95.42424,-5.03058 c -1.69717,1.28811 -3.46396,2.92435 -3.49877,5.47445 v 0 c 0,0.64406 0.13925,1.35774 0.44352,2.0366 v 0 l 0.16572,0.3739 0.31332,0.2437 c 10.13077,7.54586 23.4557,11.4885 37.12006,15.12653 v 0 c 4.18635,1.28811 8.97323,16.21446 12.88976,32.05468 v 0 c 0.7485,7.98973 1.0183,14.99598 1.0183,21.45392 v 0 0.17407 l 0.0348,0.16501 c 0.71368,3.77729 3.12452,5.37001 5.06538,5.57889 v 0 l 0.33978,0.0696 0.3739,-0.13926 c 3.67284,-1.19236 7.34569,-2.17585 12.20219,-2.17585 v 0 c 4.52578,0 10.09596,0.85294 17.5809,3.22897 v 0 l 0.1309,0.0348 0.17407,0.0348 c 0.3739,0.0348 0.74849,0.0696 1.08792,0.0696 v 0 c 0.91386,0 1.87124,-0.17407 2.75028,-0.85293 v 0 c 0.88775,-0.71368 1.262,-1.83642 1.262,-2.99398 v 0 c 0,-0.40035 -0.0696,-0.84423 -0.13926,-1.32292 v 0 l -0.0696,-0.30427 -0.16572,-0.26946 C 305.09722,168.18654 307.3427,155.57529 303.87003,137.2459 v 0 -0.16572 l -0.0627,-0.13925 c -2.31511,-6.18813 -6.25776,-7.1368 -8.98193,-6.90181 v 0 h -0.64405 c -6.49275,0.47904 -12.85494,0.81812 -19.24325,0.81812 v 0 c -11.32314,0 -22.61147,-1.15755 -33.96072,-4.96095 v 0 l -0.7485,-0.24369 -0.61829,0.47903 z m 99.51485,16.0491 c -3.74247,7.03236 -5.67463,14.89155 -5.67463,23.72551 v 0 c 0,4.5954 0.5048,9.4171 1.59273,14.5173 v 0 c 3.97746,11.66257 11.18388,20.6358 22.03704,26.07543 v 0 c 3.63803,3.22897 8.1551,4.63022 12.91587,4.63022 v 0 c 2.14104,0 4.3169,-0.31333 6.56238,-0.7485 v 0 l 0.16571,-0.0348 0.13925,-0.10444 c 5.16983,-2.48047 12.78532,-4.04709 19.38251,-4.55189 v 0 c 0.67887,-0.0696 1.28811,-0.10444 1.86253,-0.10444 v 0 c 6.39701,0.0348 9.9306,3.2986 14.92636,9.24303 v 0 l 0.13925,0.17407 0.20053,0.1302 c 1.12274,0.72238 2.28029,1.06182 3.40303,1.06182 v 0 c 1.39255,-0.0348 2.58492,-0.51385 3.63803,-0.95738 v 0 l 1.28811,-0.5048 -0.46999,-1.33162 c -1.60143,-4.51707 -2.38473,-8.45972 -2.38473,-11.93238 v 0 c 0.0696,-8.9036 4.72595,-14.89155 13.56862,-19.47825 v 0 l 0.57443,-0.33908 0.17406,-0.64405 c 0.16572,-0.65241 0.23465,-1.29681 0.23465,-1.83642 v 0 c 0.0348,-2.95916 -2.24548,-4.79559 -4.62151,-5.40482 v 0 l -0.26946,-0.10445 -0.31333,0.0696 c -6.65811,0.78331 -13.32492,1.28811 -20.01785,1.28811 v 0 c -3.88172,0 -7.75474,-0.16572 -11.66258,-0.53961 v 0 l -0.26945,-0.0348 -0.31333,0.0961 c -2.57621,0.71368 -3.66413,3.13323 -3.90783,5.41352 v 0 l -0.1309,1.35773 1.32292,0.30428 c 3.53359,0.74849 7.17161,1.2881 9.65209,2.5501 v 0 c 0.95737,1.32292 1.5318,2.92434 1.5318,4.5867 v 0 c 0,1.15755 -0.26946,2.3151 -0.85294,3.5684 v 0 c -1.82771,3.60321 -5.74425,4.11671 -10.02633,4.93483 v 0 c -1.83642,0.16572 -3.74247,0.26946 -5.605,0.26946 v 0 c -8.57286,0 -16.38853,-2.07141 -21.45392,-7.40661 v 0 c -4.63022,-4.69984 -7.41531,-12.99419 -7.38049,-21.59317 v 0 c 0,-0.74849 0,-1.42736 0.0696,-2.14104 v 0 c -0.0696,-10.36577 6.90181,-22.50703 15.50078,-27.43316 v 0 c 1.7668,-0.27851 3.97747,-0.40941 6.38831,-0.40941 v 0 c 4.38652,0 9.45191,0.5048 13.83843,1.93216 v 0 c 7.71993,2.3151 11.9672,2.45436 12.07164,10.67909 v 0 c 0,1.35773 -0.13926,3.02879 -0.44353,4.96094 v 0 l -0.0954,0.71368 0.5048,0.54867 c 0.88775,0.87904 2.14104,1.76679 3.77728,1.8016 v 0 c 1.15756,0 2.37604,-0.54866 3.42915,-1.46217 v 0 l 0.33908,-0.33909 0.10444,-0.47903 c 1.56662,-7.58068 3.2986,-14.5173 8.97323,-20.74024 v 0 l 0.51385,-0.57442 -0.17407,-0.78331 c -0.77461,-3.08971 -1.59273,-6.632 -5.23076,-8.29436 v 0 l -0.7833,-0.3739 -0.71368,0.51316 c -3.33341,2.44566 -8.32917,5.77907 -13.69918,5.74425 v 0 c -0.30427,0 -0.67886,0 -1.0183,0 v 0 c -6.73644,-1.22718 -12.68958,-4.86521 -20.27025,-6.25775 v 0 c -2.27159,-0.10444 -4.35171,-0.17407 -6.38831,-0.17407 v 0 h -0.51385 v 0 c -14.03861,0 -26.88485,2.5501 -36.13658,16.22316 M 49.914128,129.49951 c -1.975675,0.26946 -3.437849,1.66235 -4.795582,3.0549 v 0 c -1.296809,1.60143 -2.315108,2.72417 -2.480473,4.42133 v 0 1.28811 l 1.288105,0.20888 c 8.773043,1.35773 13.942871,3.87302 14.038609,12.50681 v 0 c 0,0.6524 -0.02785,1.29681 -0.09539,2.01049 v 0 c -2.793797,10.77482 -5.779068,16.51908 -8.572864,21.1754 v 0 l -0.200527,0.34814 v 0.40036 c 0.270154,2.28029 2.001785,3.36822 4.116715,4.79558 v 0 c 2.14104,1.29681 4.786879,2.38474 7.336979,2.38474 v 0 c 2.010489,0.0348 4.186343,-0.85294 5.239456,-2.99398 v 0 c 1.322919,-1.67105 2.376032,-3.53359 3.394332,-5.6137 v 0 c 0.852935,-2.00179 1.331623,-3.46396 1.740683,-4.28208 v 0 c 0.539612,-0.78331 0.435171,-0.64405 0.983486,-0.71368 v 0 c 0.574425,-0.0348 2.036599,0.3739 4.351708,1.46217 v 0 c 22.985719,10.4354 42.768585,86.08548 44.335195,105.79872 v 0 c 0,3.0636 1.7668,5.91832 4.65633,6.05757 v 0 h 0.0348 c 0.98349,0 1.96697,-0.44352 2.71547,-1.19237 v 0 c 7.45012,-6.79736 14.69136,-13.56862 22.13278,-20.4008 v 0 c 3.43785,-2.24548 4.11672,-5.54408 4.59541,-7.81567 v 0 l 0.0954,-0.47903 -0.16502,-0.3739 c -2.58492,-6.59719 -5.43964,-13.42937 -9.11248,-20.29637 v 0 c -2.38473,-4.8652 -3.26378,-8.9384 -3.26378,-12.7505 v 0 c -0.0696,-8.93841 5.03058,-16.76278 6.04888,-28.59072 v 0 -0.20052 l -0.0348,-0.20889 c -1.2881,-4.69114 -6.1185,-10.13077 -10.53983,-10.50502 v 0 c -0.94868,0 -2.00179,0.40941 -2.68066,1.262 v 0 l -0.13925,0.20052 -0.10444,0.23465 c -2.51529,7.27605 -5.12631,9.21691 -5.90962,9.01674 v 0 c -0.47834,0.0348 -1.22718,-0.3739 -2.0453,-1.53181 v 0 c -5.70944,-9.38228 -13.42937,-23.76902 -20.67061,-35.83196 v 0 c -3.63803,-6.02276 -7.171618,-11.46239 -10.296144,-15.47467 v 0 c -3.228967,-3.94264 -5.744254,-6.65811 -8.877484,-6.83218 v 0 l -0.03481,-0.0696 c -0.03481,0 -0.1309,0 -0.304968,0.0696 v 0 c -5.195939,0.60924 -9.826156,0.85294 -14.343228,0.85294 v 0 c -7.041063,0 -13.83843,-0.61829 -22.132785,-1.39255 v 0 h -0.174068 -0.130899 z m 197.454382,27.7726 c -2.37604,0.47903 -4.38652,2.95916 -5.20465,7.41531 v 0 c -2.71546,12.7418 -15.36152,21.95871 -15.57041,35.28364 v 0 c 0,0.40941 0.0348,0.78331 0.0348,1.19237 v 0 c 0.27851,4.86521 2.92435,8.84267 7.04106,9.25173 v 0 c 1.12274,0.0627 2.14104,0.0627 3.19415,0.0627 v 0 c 2.81991,0 5.61371,-0.1309 8.97323,-0.1309 v 0 c 1.19236,0 2.51528,0 3.91653,0.0696 v 0 c 4.28208,0.0627 7.03236,-1.36644 8.70342,-3.67284 v 0 c 1.69716,-2.28029 2.61102,-5.06539 4.48226,-8.32917 v 0 c 1.76679,-3.22897 2.88953,-4.18634 6.73644,-6.52756 v 0 l 0.53961,-0.33908 0.13926,-0.65241 c 0.33978,-1.59273 0.67886,-3.87302 0.67886,-6.18813 v 0 c -0.0348,-3.19415 -0.54796,-6.72774 -3.40303,-8.70342 v 0 c -0.94867,-0.53961 -1.90605,-0.74849 -2.75028,-0.74849 v 0 c -0.88775,0 -1.67106,0.13925 -2.41085,0.27851 v 0 c -3.29859,1.05311 -5.88351,3.49877 -8.43361,5.57019 v 0 c -2.41955,1.94086 -4.86521,3.88172 -6.39701,5.57888 v 0 c -0.0961,0.0696 -0.23464,0.0696 -0.30427,0.0696 v 0 c -0.0696,-2.88953 6.66682,-13.7688 8.73823,-18.5992 v 0 l -1.35773,-0.57442 1.39254,0.46998 c 0.64406,-1.83642 0.91386,-3.42914 0.94868,-4.82169 v 0 c 0,-2.24548 -0.94868,-4.0819 -2.34122,-5.06539 v 0 c -1.42736,-1.027 -3.0636,-1.26199 -4.49096,-1.26199 v 0 c -1.08793,0 -2.0366,0.17407 -2.85472,0.3739 m -202.215152,30.29658 -0.06963,0.0961 -0.03481,0.13925 c -6.153314,19.27807 -12.854944,37.22451 -19.782863,54.70097 v 0 c -5.987949,9.48672 -11.497211,20.02656 -23.5601443,25.46619 v 0 l -0.3397813,0.16571 -0.2436956,0.33909 c -0.78328839,1.05312 -1.122721581824,2.2803 -1.122721581824,3.47267 v 0 c 0,2.41085 1.496987381824,4.96095 4.282080281824,5.03058 v 0 c 0.4442223,0 0.8877483,-0.0696 1.3316225,-0.20053 v 0 L 5.8832027,276.676 6.057271,276.53674 c 7.676412,-5.94443 17.807187,-9.79134 31.715245,-9.79134 v 0 c 3.228967,0 6.666816,0.20888 10.304843,0.67887 v 0 h 0.130203 0.174069 c 2.715465,-0.33909 3.707654,-2.95916 3.672841,-4.96095 v 0 c 0,-2.07141 -0.887749,-4.55188 -3.437849,-5.26556 v 0 l -0.130203,-0.0696 h -0.06963 c -2.5501,-0.30427 -4.351707,-0.95738 -5.70944,-3.67284 v 0 c -0.374595,-2.38474 -0.583477,-4.86521 -0.583477,-7.3805 v 0 c 0,-14.48248 6.388307,-31.341 17.676636,-50.65387 v 0 c 0.409409,-0.51385 0.617595,-1.15756 0.617595,-1.7668 v 0 c -0.243696,-2.51529 -2.315109,-3.90783 -4.56059,-5.37001 v 0 c -2.306405,-1.36643 -5.030574,-2.41954 -7.345682,-2.45436 v 0 c -1.183665,0 -2.645838,0.33978 -3.359519,1.74068 m 250.902057,47.55546 -0.13926,1.12275 h -17.47646 l -0.16501,-1.12275 h -3.12453 l -0.65241,9.62598 h 3.02879 c 0.20053,-1.46217 0.67887,-2.51529 1.39255,-3.19415 v 0 c 0.71368,-0.67887 1.73198,-1.05311 2.99397,-1.05311 v 0 h 0.57443 v 23.79513 h -2.68065 v 3.53359 h 14.68266 v -3.53359 h -2.65454 v -23.79513 h 0.54866 c 1.28811,0 2.31511,0.37389 3.02879,1.05311 v 0 c 0.74849,0.71368 1.18366,1.76679 1.42736,3.19415 v 0 h 2.95916 l -0.65241,-9.62598 h -3.08971 z m 81.96876,2.04531 c -2.14104,1.0183 -3.97746,2.41084 -5.54408,4.21245 v 0 c -1.42736,1.60143 -2.48047,3.47266 -3.19415,5.54408 v 0 c -0.78331,2.03659 -1.15755,4.31689 -1.15755,6.65811 v 0 c 0,4.49096 1.26199,8.12899 3.74247,10.85316 v 0 c 2.44566,2.68065 5.70944,4.0732 9.79134,4.0732 v 0 c 1.90605,0 3.70765,-0.33909 5.47445,-1.0183 v 0 c 1.69716,-0.64406 3.29859,-1.66236 4.78687,-2.99398 v 0 l 2.04531,3.33341 h 2.51528 v -14.61304 c 0,-0.54866 0.0696,-1.06181 0.26946,-1.5318 v 0 c 0.20888,-0.44352 0.47834,-0.92256 0.88775,-1.36643 v 0 l -1.22718,-2.14104 c -0.5048,0.24369 -1.05311,0.33908 -1.59273,0.47834 v 0 c -0.58278,0.10444 -1.12274,0.10444 -1.70587,0.10444 v 0 h -10.33095 v 3.42914 h 5.23075 v 10.13078 c -0.23464,0.10444 -0.53961,0.13925 -0.84423,0.20888 v 0 c -0.27851,0 -0.61829,0.0348 -1.027,0.0348 v 0 c -2.5501,0 -4.69114,-1.33162 -6.42312,-3.97746 v 0 c -1.73198,-2.68935 -2.58492,-5.98795 -2.58492,-9.89578 v 0 c 0,-2.68935 0.51316,-4.86521 1.5318,-6.45793 v 0 c 1.0183,-1.63625 2.37604,-2.44566 4.01228,-2.44566 v 0 c 0.85293,0 1.5318,0.27015 2.07141,0.7746 v 0 c 0.54867,0.54866 0.81812,1.19237 0.81812,1.94086 v 0 c 0,0.23465 -0.0348,0.54797 -0.13925,0.85294 v 0 c -0.1302,0.26946 -0.30427,0.53961 -0.5048,0.74849 v 0 l 1.80161,2.51529 9.45191,-6.43183 -1.83642,-2.85472 -1.7668,1.12274 c -1.15755,-0.91385 -2.41955,-1.59272 -3.77728,-2.07141 v 0 c -1.32292,-0.47834 -2.71547,-0.71368 -4.17764,-0.71368 v 0 c -2.28029,0 -4.49096,0.47834 -6.59719,1.49699 m 67.0076,2.41085 v 2.88953 l 1.60142,-0.5048 v 23.01183 h -1.60142 v 2.85472 h 11.18388 v -2.85472 h -1.55791 v -13.22049 c 0.64406,-0.58278 1.28811,-1.06181 1.93216,-1.36643 v 0 c 0.67887,-0.33909 1.35773,-0.46999 2.01049,-0.46999 v 0 c 0.7746,0 1.39255,0.23465 1.80161,0.71368 v 0 c 0.40941,0.5048 0.60924,1.25329 0.60924,2.23678 v 0 12.10645 h -1.56662 v 2.85472 h 11.2187 v -2.85472 h -1.59272 v -13.53381 c 0,-2.21067 -0.58348,-3.90783 -1.70587,-5.12631 v 0 c -1.11404,-1.262 -2.64584,-1.87124 -4.62151,-1.87124 v 0 c -1.19237,0 -2.41085,0.33909 -3.73377,0.98349 v 0 c -1.36644,0.64405 -2.7938,1.62754 -4.35171,3.02879 v 0 -9.14729 l 1.66235,-0.54866 v -2.88954 l -11.28832,3.70766 z m -141.944,0 v 2.88953 l 1.56661,-0.5048 v 23.01183 h -1.56661 v 2.85472 h 11.15778 v -2.85472 h -1.5318 v -13.22049 c 0.57442,-0.58278 1.25329,-1.06181 1.94086,-1.36643 v 0 c 0.67886,-0.33909 1.32292,-0.46999 1.96697,-0.46999 v 0 c 0.81812,0 1.42736,0.23465 1.80161,0.71368 v 0 c 0.4094,0.5048 0.61829,1.25329 0.61829,2.23678 v 0 12.10645 h -1.56662 v 2.85472 h 11.2187 v -2.85472 h -1.63624 v -13.53381 c 0,-2.21067 -0.53961,-3.90783 -1.66235,-5.12631 v 0 c -1.08793,-1.262 -2.65454,-1.87124 -4.62151,-1.87124 v 0 c -1.15756,0 -2.38474,0.33909 -3.74247,0.98349 v 0 c -1.32292,0.64405 -2.7851,1.62754 -4.3169,3.02879 v 0 -9.14729 l 1.62754,-0.54866 v -2.88954 l -11.25351,3.70766 z m 219.86567,-1.12275 c -1.0183,0.85294 -1.5318,1.7668 -1.5318,2.81991 v 0 c 0,0.78331 0.27851,1.42736 0.85293,1.90605 v 0 c 0.54867,0.51385 1.29681,0.74849 2.24549,0.74849 v 0 c 1.49698,0 2.78509,-0.40871 3.87302,-1.19237 v 0 c 1.05311,-0.74849 1.60142,-1.66235 1.60142,-2.75027 v 0 c 0,-0.81813 -0.30427,-1.46218 -0.95737,-1.97568 v 0 c -0.64405,-0.5048 -1.5231,-0.7746 -2.61103,-0.7746 v 0 c -1.29681,0 -2.45436,0.40035 -3.47266,1.21847 m -90.49811,5.23946 c -1.29681,1.15755 -2.95916,2.0366 -4.96965,2.64584 v 0 2.61973 h 2.11493 v 13.15956 c 0,2.24548 0.40941,3.87302 1.39255,4.89132 v 0 c 0.87904,0.99219 2.37603,1.49699 4.42133,1.49699 v 0 c 1.25329,0 2.48047,-0.30427 3.69895,-0.91386 v 0 c 1.262,-0.58348 2.41955,-1.49699 3.50748,-2.61973 v 0 l -1.19237,-1.76679 c -0.33908,0.23464 -0.67886,0.3739 -0.98348,0.47834 v 0 c -0.30428,0.0961 -0.58348,0.16571 -0.85294,0.16571 v 0 c -0.71368,0 -1.22718,-0.23464 -1.49699,-0.71368 v 0 c -0.30496,-0.47904 -0.44422,-1.28811 -0.44422,-2.48047 v 0 -11.69739 h 2.7938 c 0.20052,0 0.3739,-0.0348 0.44422,-0.1309 v 0 c 0.0954,-0.10444 0.16502,-0.3746 0.23464,-0.81812 v 0 l 0.47834,-2.68936 h -3.95135 v -5.53537 l -2.27159,-0.51315 c -0.65241,1.76679 -1.60143,3.22896 -2.92435,4.42133 m 149.04599,-2.10623 c -0.54867,0.53962 -1.08793,1.69717 -1.60143,3.39434 v 0 c -0.64405,-0.20053 -1.28811,-0.30428 -1.96697,-0.40941 v 0 c -0.7485,-0.0954 -1.49699,-0.13021 -2.24548,-0.13021 v 0 c -3.06361,0 -5.64852,0.84424 -7.68512,2.58492 v 0 c -2.0366,1.73198 -3.0636,3.87302 -3.0636,6.45793 v 0 c 0,2.07142 0.68722,3.87302 2.08012,5.43964 v 0 c 1.39254,1.49698 3.29859,2.5501 5.67462,3.0549 v 0 c -1.05311,0.58347 -2.28029,1.05311 -3.67284,1.5318 v 0 c -1.39255,0.47903 -2.88953,0.92256 -4.5867,1.29681 v 0 l 2.68065,2.8199 c 0.51385,-0.13925 0.99219,-0.20888 1.42736,-0.27851 v 0 c 0.40941,-0.0279 0.81812,-0.0627 1.22718,-0.0627 v 0 c 0.3739,0 0.85294,0.0348 1.35774,0.0627 v 0 c 0.51385,0.0696 1.12274,0.13926 1.90605,0.27851 v 0 c -1.35774,0.40871 -2.41085,0.98349 -3.15934,1.73198 v 0 c -0.71368,0.7485 -1.05312,1.60143 -1.05312,2.65454 v 0 c 0,1.39255 0.64406,2.48048 1.89735,3.22897 v 0 c 1.29681,0.80942 3.09841,1.15755 5.37871,1.15755 v 0 c 2.68065,0 4.92613,-0.58347 6.72774,-1.8016 v 0 c 1.8016,-1.22718 2.72417,-2.72417 2.72417,-4.49096 v 0 c 0,-1.73198 -0.85294,-3.09842 -2.5501,-4.11672 v 0 c -1.70587,-1.0183 -4.45615,-1.76679 -8.26825,-2.24548 v 0 c 4.01228,-1.0183 6.93662,-2.37603 8.87748,-4.0732 v 0 c 1.90605,-1.70587 2.85472,-3.77728 2.85472,-6.32738 v 0 c 0,-2.00179 -0.67886,-3.83821 -2.00178,-5.47445 v 0 c -1.36644,-1.59273 -2.01049,-2.41085 -2.01049,-2.41085 v 0 c 0,-0.20888 0.0696,-0.4094 0.20888,-0.54866 v 0 c 0.16572,-0.1309 0.40036,-0.20053 0.64406,-0.20053 v 0 c 0.20052,0 0.37459,0.0348 0.60923,0.13926 v 0 c 0.23465,0.0627 0.54797,0.23464 0.88775,0.43517 v 0 l 0.91386,-4.35171 c -0.26946,-0.0627 -0.5048,-0.1309 -0.81812,-0.1309 v 0 c -0.26946,-0.0696 -0.5048,-0.0696 -0.74849,-0.0696 v 0 c -1.18367,0 -2.10623,0.26945 -2.64584,0.85293 m -7.78956,15.19616 c -0.91386,-1.94086 -1.39254,-4.15153 -1.39254,-6.59719 v 0 c 0,-0.95737 0.20052,-1.69716 0.54866,-2.21066 v 0 c 0.40036,-0.51385 0.91386,-0.81812 1.55791,-0.81812 v 0 c 1.26199,0 2.28029,0.92256 3.22897,2.78509 v 0 c 0.92256,1.83642 1.39254,4.04709 1.39254,6.52756 v 0 c 0,1.027 -0.20052,1.81031 -0.60924,2.34992 v 0 c -0.37459,0.57443 -0.94867,0.85294 -1.66235,0.85294 v 0 c -1.12274,0 -2.14104,-0.95738 -3.0636,-2.88954 m 1.70587,16.5539 c -0.34814,-0.44353 -0.51315,-1.05312 -0.51315,-1.80161 v 0 c 0,-0.54797 0.10444,-1.05311 0.26945,-1.56661 v 0 c 0.17407,-0.46999 0.40872,-0.94868 0.78331,-1.46218 v 0 c 0.74849,0.33978 1.39255,0.85294 1.80161,1.49699 v 0 c 0.44422,0.64405 0.64405,1.39255 0.64405,2.21067 v 0 c 0,0.54866 -0.0961,0.98348 -0.40941,1.29681 v 0 c -0.30427,0.33978 -0.67886,0.46998 -1.18366,0.46998 v 0 c -0.61829,0 -1.05312,-0.20053 -1.39255,-0.64405 m -171.89245,-22.1676 2.68065,1.05311 c 0.67887,-0.94867 1.46218,-1.62754 2.31511,-2.14104 v 0 c 0.84423,-0.47903 1.73198,-0.71368 2.64584,-0.71368 v 0 c 0.88775,0 1.56662,0.20888 2.08012,0.64406 v 0 c 0.5048,0.44422 0.7833,1.05311 0.7833,1.76679 v 0 l -0.0348,1.22718 c -0.44422,-0.0348 -0.78331,-0.0696 -1.08793,-0.0696 v 0 h -0.71368 c -3.84691,0 -6.73644,0.67887 -8.64249,2.08012 v 0 c -1.89734,1.39255 -2.85472,3.49877 -2.85472,6.28386 v 0 c 0,2.14105 0.65241,3.84691 2.01049,5.16983 v 0 c 1.32292,1.35774 3.02009,2.0366 5.16983,2.0366 v 0 c 1.0183,0 2.0366,-0.26946 3.08971,-0.71368 v 0 c 1.0183,-0.46998 2.07141,-1.18366 3.08971,-2.10622 v 0 l 0.6183,2.14104 h 8.9384 v -2.85472 h -1.59272 v -13.19438 c 0,-2.27159 -0.68722,-4.03839 -2.08012,-5.37001 v 0 c -1.42736,-1.32292 -3.35952,-1.96697 -5.81388,-1.96697 v 0 c -1.0183,0 -1.96697,0.0954 -2.95916,0.30427 v 0 c -0.94867,0.20053 -1.86253,0.5048 -2.75028,0.91386 v 0 l 0.44353,-1.32292 -2.38474,-0.88775 -2.95046,7.71993 z m 6.04888,11.4624 c -0.47834,-0.6176 -0.67887,-1.49699 -0.67887,-2.68936 v 0 c 0,-1.29681 0.33978,-2.37603 1.08793,-3.12452 v 0 c 0.67886,-0.78331 1.66235,-1.15756 2.88953,-1.15756 v 0 c 0.0348,0 0.16571,0 0.3739,0 v 0 c 0.16571,0.0348 0.40871,0.0696 0.74849,0.1309 v 0 l 0.0348,4.8304 c 0,0.88775 -0.2437,1.60143 -0.71368,2.10622 v 0 c -0.47834,0.54867 -1.08793,0.81812 -1.87124,0.81812 v 0 c -0.81812,0 -1.46217,-0.30427 -1.87123,-0.91385 m 105.65946,-17.38072 c -0.57443,-0.26946 -1.11404,-0.46999 -1.62754,-0.60924 v 0 c -0.51385,-0.1309 -0.94867,-0.20053 -1.35773,-0.20053 v 0 c -0.67887,0 -1.33163,0.26946 -1.94087,0.80942 v 0 c -0.64405,0.61829 -1.60142,1.87123 -2.85472,3.88172 v 0 c -0.33978,-0.99219 -0.92256,-1.83642 -1.73198,-2.58491 v 0 c -0.7833,-0.7485 -1.87123,-1.46218 -3.26378,-2.10623 v 0 l -4.86521,5.90962 1.67106,1.87123 0.80942,-0.71368 c 0.27851,0.17407 0.47834,0.3739 0.58278,0.60924 v 0 c 0.0961,0.20888 0.16571,0.61829 0.16571,1.22718 v 0 11.62777 h -1.55791 v 2.85472 h 11.89757 v -2.85472 h -2.31511 v -9.65209 c 0,-1.12274 0.26946,-1.97568 0.78331,-2.58492 v 0 c 0.51315,-0.61829 1.22718,-0.95737 2.10622,-0.95737 v 0 c 0.40941,0 0.92257,0.10444 1.53181,0.27851 v 0 c 0.53961,0.1302 1.2881,0.40871 2.17585,0.74849 v 0 l 2.65454,-7.71993 -2.38473,-0.85293 -0.47904,1.0183 z m 34.64829,0.17406 c -1.35773,0.64406 -2.78509,1.62754 -4.3517,3.02879 v 0 l 0.23464,-4.01227 h -0.33978 l -9.52154,2.68065 v 2.58491 l 1.56662,-0.23464 v 15.50078 h -1.56662 v 2.85472 h 11.19259 v -2.85472 h -1.56661 v -13.22049 c 0.60924,-0.58278 1.2881,-1.06181 1.97567,-1.36643 v 0 c 0.67887,-0.33909 1.32292,-0.46999 1.93216,-0.46999 v 0 c 0.81812,0 1.42736,0.23465 1.83642,0.71368 v 0 c 0.44353,0.5048 0.60924,1.2533 0.60924,2.23678 v 0 12.10645 h -1.5231 v 2.85472 h 11.14908 v -2.85472 H 559.9398 V 251.4441 c 0,-2.21067 -0.53961,-3.90783 -1.66235,-5.12631 v 0 c -1.15755,-1.26199 -2.72417,-1.87123 -4.69114,-1.87123 v 0 c -1.15755,0 -2.38473,0.33908 -3.70765,0.98348 m -20.33118,-0.98348 -9.52154,2.68065 v 2.58491 l 1.60143,-0.23464 v 15.50078 h -1.60143 v 2.85472 h 11.18389 v -2.85472 h -1.55791 v -16.51908 c 0,-0.44353 0.0348,-0.99219 0.0696,-1.56662 v 0 c 0,-0.64405 0.0627,-1.46217 0.1309,-2.44566 v 0 h -0.30427 z m -52.22049,3.49877 c -2.17586,2.31511 -3.22897,5.20464 -3.22897,8.63379 v 0 c 0,3.47266 0.98349,6.32738 2.95916,8.57286 v 0 c 1.96697,2.20196 4.48226,3.35952 7.58068,3.35952 v 0 c 2.28029,0 4.3517,-0.5048 6.22294,-1.49699 v 0 c 1.87123,-1.0183 3.5684,-2.5501 5.13501,-4.5867 v 0 l -1.63624,-1.80161 c -0.74849,0.78331 -1.60143,1.35774 -2.48047,1.7668 v 0 c -0.92256,0.3739 -1.87124,0.58348 -2.88954,0.58348 v 0 c -1.26199,0 -2.38473,-0.33979 -3.36822,-1.02701 v 0 c -0.94867,-0.67886 -1.8016,-1.73198 -2.44566,-3.02008 v 0 l 8.73823,-3.67284 c 0.81812,-0.33979 1.66235,-0.60924 2.51529,-0.88775 v 0 c 0.85293,-0.19983 1.2881,-0.40871 1.2881,-0.57443 v 0 c 0,-0.47834 -0.30496,-1.32292 -0.87904,-2.5501 v 0 c -0.58348,-1.19237 -1.29681,-2.31511 -2.10623,-3.22897 v 0 c -0.99219,-1.19236 -2.11493,-2.07141 -3.40303,-2.68935 v 0 c -1.29681,-0.57443 -2.72417,-0.87905 -4.24727,-0.87905 v 0 c -3.02879,0 -5.6137,1.18367 -7.75474,3.49878 m 4.21245,5.63981 c -0.0954,-0.60924 -0.16502,-1.28811 -0.16502,-1.96697 v 0 c 0,-1.08793 0.16502,-1.97568 0.57443,-2.58492 v 0 c 0.3739,-0.60924 0.92256,-0.91385 1.63624,-0.91385 v 0 c 0.78331,0 1.55791,0.40035 2.27159,1.2881 v 0 c 0.72239,0.85294 1.33163,2.0366 1.83642,3.67284 v 0 l -5.70944,2.37603 c -0.20052,-0.57442 -0.33908,-1.18366 -0.44422,-1.87123 M 335.3482,247.94568 c -2.14104,2.31511 -3.22897,5.20464 -3.22897,8.63378 v 0 c 0,3.47267 0.99219,6.32739 2.95916,8.57287 v 0 c 1.97568,2.20196 4.49096,3.35952 7.58068,3.35952 v 0 c 2.28029,0 4.3517,-0.5048 6.22294,-1.49699 v 0 c 1.87123,-1.0183 3.5684,-2.5501 5.13501,-4.5867 v 0 l -1.60143,-1.80161 c -0.7746,0.78331 -1.59272,1.35774 -2.51528,1.7668 v 0 c -0.87905,0.37389 -1.86253,0.58347 -2.88954,0.58347 v 0 c -1.21847,0 -2.34122,-0.33978 -3.3247,-1.027 v 0 c -1.027,-0.67887 -1.81031,-1.73198 -2.48918,-3.02008 v 0 l 8.73823,-3.67285 c 0.85294,-0.33978 1.67106,-0.60924 2.51529,-0.88774 v 0 c 0.85293,-0.19983 1.29681,-0.40872 1.29681,-0.57443 v 0 c 0,-0.47834 -0.30497,-1.32292 -0.88775,-2.5501 v 0 c -0.57443,-1.19237 -1.28811,-2.31511 -2.07141,-3.22897 v 0 c -0.98349,-1.19237 -2.14104,-2.07141 -3.43785,-2.68935 v 0 c -1.28811,-0.57443 -2.68066,-0.87905 -4.24727,-0.87905 v 0 c -3.02879,0 -5.605,1.18367 -7.75474,3.49878 m 4.22115,5.63981 c -0.10444,-0.60924 -0.17406,-1.28811 -0.17406,-1.96697 v 0 c 0,-1.08793 0.20888,-1.97568 0.58278,-2.58492 v 0 c 0.4094,-0.60924 0.91385,-0.91386 1.62753,-0.91386 v 0 c 0.81813,0 1.60143,0.40036 2.31511,1.28811 v 0 c 0.71368,0.85293 1.32292,2.0366 1.80161,3.67284 v 0 l -5.67463,2.37603 c -0.20888,-0.57442 -0.37459,-1.18366 -0.47903,-1.87123 m 7.88529,42.53359 -43.51707,89.34926 c -0.7485,1.49699 0.20888,3.29859 2.3151,3.29859 v 0 c 2.64584,0 3.8034,-0.85293 4.76077,-2.34992 v 0 l 15.73578,-21.45392 c 1.90604,-2.68065 5.50926,-4.24726 11.42758,-4.24726 v 0 h 16.11002 c 5.91832,0 9.89579,2.34992 12.37626,7.07587 v 0 l 8.9123,17.53738 c 0.98348,2.10623 5.53537,4.35171 11.25351,4.35171 v 0 c 10.02634,0 15.36153,-5.54407 13.08123,-10.36577 v 0 l -41.8112,-82.95225 c -0.7485,-1.63624 -2.0453,-3.54229 -4.93484,-3.54229 v 0 c -3.39433,0 -4.76077,1.33163 -5.70944,3.2986 m -10.02633,54.87503 10.02633,-21.4191 10.64428,21.04485 c 1.35773,2.81991 -1.87124,5.63982 -6.05758,5.63982 v 0 H 342.728 c -3.42915,0 -6.65812,-2.58492 -5.30038,-5.26557 M 144.55994,299.31358 v 81.5597 c 0,7.18032 6.93662,8.36399 10.94019,8.36399 v 0 c 4.18634,0 10.74872,-1.80161 10.74872,-8.36399 v 0 -38.95648 c 0,-2.95916 2.21067,-5.54408 6.56237,-5.54408 v 0 c 4.01228,0 6.93663,3.19416 8.73823,5.64852 v 0 l 32.29838,42.73377 c 1.46217,2.21067 3.80339,4.01227 7.64159,4.01227 v 0 c 3.63803,0 6.93663,-1.94086 6.93663,-4.25597 v 0 -81.5597 c 0,-6.58849 -6.93663,-8.36398 -11.11427,-8.36398 v 0 c -4.04708,0 -11.11426,1.19236 -11.11426,8.36398 v 0 44.94443 c 0,1.63625 -0.92256,3.2986 -3.29859,3.2986 v 0 c -1.63624,0 -4.01227,-0.19983 -5.1002,-1.76679 v 0 L 160.7744,299.07859 c -1.63624,-2.58492 -4.35171,-4.72596 -8.77304,-4.72596 v 0 c -4.51707,0 -7.44142,2.01049 -7.44142,4.96095 m 364.92549,-4.72595 c -4.89132,0 -7.92011,1.90604 -7.92011,4.72595 v 0 84.48405 c 0,2.61973 3.77729,4.96965 7.92011,4.96965 v 0 h 69.46196 c 4.48226,0 9.00803,-1.94086 9.00803,-4.72595 v 0 c 0,-2.92435 -4.69114,-4.72596 -9.38228,-4.72596 v 0 h -54.66615 v -28.93015 c 0,-4.5954 4.35171,-7.51975 15.02209,-8.70341 v 0 l 27.98148,-3.06361 c 3.19416,-0.23464 6.76256,-1.19236 6.76256,-3.29859 v 0 c 0,-2.10623 -3.76858,-3.0549 -7.1368,-3.0549 v 0 H 531.8271 c -5.1002,0 -7.92011,-2.58491 -7.92011,-5.88351 v 0 -17.20665 c 0,-2.44566 -4.66503,-4.69114 -6.73644,-5.16983 v 0 h 58.74805 c 4.72595,0 9.21691,-2.00178 9.00803,-4.92613 v 0 c -0.16571,-2.81991 -4.48226,-4.49096 -9.00803,-4.49096 v 0 z m -104.33654,27.10243 v 39.97479 c 0,14.96117 18.76456,27.10243 41.91565,27.10243 v 0 c 23.1859,0 41.95916,-12.14126 41.95916,-27.10243 v 0 -14.57822 c 0,-3.20286 -2.01049,-6.1185 -7.31087,-6.1185 v 0 h -27.33742 c -3.67285,0 -6.56238,1.89734 -6.93663,4.24726 v 0 c -0.37389,2.58492 2.5501,5.16983 6.56238,5.16983 v 0 h 20.06137 c -2.37603,0.0961 -7.31087,2.57621 -7.31087,6.83218 v 0 4.44745 c 0,9.76523 -4.55188,17.65052 -19.68712,17.65052 v 0 c -15.12654,0 -20.22674,-7.88529 -20.22674,-17.65052 v 0 -39.97479 c 0,-9.79134 10.57465,-17.68534 25.70119,-17.68534 v 0 c 16.42334,0 26.99799,7.07588 26.99799,17.68534 v 0 2.34122 c 0,1.73198 2.00178,3.29859 4.72595,3.29859 v 0 c 2.75028,0 4.76077,-1.56661 4.76077,-3.29859 v 0 -2.34122 c 0,-14.96117 -18.77326,-27.10243 -41.95916,-27.10243 v 0 c -23.15109,0 -41.91565,12.14126 -41.91565,27.10243 M 249.27073,294.58763 c -3.87302,0 -7.20643,2.01049 -7.41531,4.49096 v 0 c -0.16502,2.68935 3.16804,4.92613 7.41531,4.92613 v 0 h 20.36599 c 3.12452,0 5.16112,1.29681 5.16112,3.54229 v 0 77.06874 c 0,1.67106 2.01049,4.15153 5.54408,4.15153 v 0 c 3.67284,0 5.91832,-1.94086 6.29257,-4.25597 v 0 l 11.82794,-72.71703 c 0.74849,-4.96095 4.42133,-7.78956 11.4624,-7.78956 v 0 h 9.61727 c 4.24727,0 7.75474,-2.00178 7.75474,-4.69114 v 0 c 0,-2.71546 -3.88172,-4.72595 -8.12899,-4.72595 v 0 z m -143.94579,8.36398 v 77.54743 c 0,7.18032 6.90181,8.36398 10.84446,8.36398 v 0 c 4.17764,0 10.67038,-1.80161 10.67038,-8.36398 v 0 -77.54743 c 0,-6.58849 -6.49274,-8.36398 -10.67038,-8.36398 v 0 c -3.94265,0 -10.84446,1.19236 -10.84446,8.36398 M 84.175644,297.17254 60.075887,351.0989 c -0.548663,1.14885 -1.261995,2.57621 -3.846909,2.57621 v 0 c -3.638028,0 -4.386521,-1.66235 -4.926133,-3.28989 v 0 L 30.458166,299.79227 c -1.627539,-3.90783 -6.388307,-5.06539 -10.57465,-5.06539 v 0 c -8.224727,0 -12.4023663,4.92613 -10.6007593,9.27784 v 0 l 33.7866573,78.36555 c 1.296809,2.85472 2.384736,6.39701 7.519751,6.39701 v 0 c 5.639813,0 7.101987,-2.95916 8.56416,-6.59719 v 0 l 31.993754,-84.04017 c 0.748494,-2.01049 -0.174068,-3.54229 -2.384735,-3.54229 v 0 c -2.915644,0 -3.838206,1.05311 -4.5867,2.58491 M 325.83467,406.44392 c -5.27427,4.49096 -7.894,10.64427 -7.894,18.49476 v 0 c 0,7.51104 2.34992,13.59473 7.04106,18.25976 v 0 c 4.69114,4.65633 11.01853,6.99755 18.86901,6.99755 v 0 c 7.75474,0 14.00379,-2.37604 18.83419,-7.10199 v 0 c 4.86521,-4.72596 7.24124,-10.50502 7.24124,-17.37202 v 0 c 0,-7.38049 -2.48047,-13.53381 -7.44142,-18.52957 v 0 c -4.93484,-4.96094 -10.87927,-7.45012 -17.78108,-7.45012 v 0 c -7.38049,0 -13.63825,2.21067 -18.869,6.70163 m 8.97322,31.106 c -2.5501,-3.53358 -3.8121,-7.6503 -3.8121,-12.237 v 0 c 0,-4.79558 1.19237,-8.93841 3.61192,-12.41107 v 0 c 2.41085,-3.46396 5.37001,-5.23075 8.90359,-5.23075 v 0 c 3.60322,0 6.66682,1.76679 9.18211,5.26557 v 0 c 2.51528,3.49877 3.76858,7.6503 3.76858,12.37625 v 0 c 0,4.89132 -1.18367,9.00804 -3.60322,12.44589 v 0 c -2.37603,3.42914 -5.40482,5.12631 -9.11247,5.12631 v 0 c -3.42915,0 -6.42312,-1.7668 -8.93841,-5.3352 m 98.48784,-24.20419 c 0,3.49877 0.88775,6.42312 2.72417,8.73823 v 0 c 1.73198,2.28029 4.99576,4.24726 9.65209,5.94443 v 0 c 2.75898,0.99219 4.76077,1.77549 6.09239,2.41955 v 0 c 1.28811,0.64405 2.34122,1.46217 3.19415,2.37603 v 0 c 0.80942,0.95738 1.18367,1.97567 1.18367,3.0636 v 0 c 0,5.23075 -4.51707,7.8853 -13.66436,7.8853 v 0 h -4.89132 c -2.38474,0.20052 -3.57711,0.92256 -3.57711,2.03659 v 0 c 0,1.33163 1.56662,2.31511 4.69985,3.06361 v 0 c 3.12452,0.74849 6.21424,1.08792 9.24303,1.08792 v 0 c 6.632,0 11.76701,-1.19236 15.46596,-3.67284 v 0 c 3.70766,-2.41084 5.54408,-6.01406 5.54408,-10.74001 v 0 c 0,-2.41955 -0.40871,-4.56059 -1.22718,-6.3622 v 0 c -0.84423,-1.83642 -2.07141,-3.33341 -3.63803,-4.51707 v 0 c -1.62754,-1.19237 -4.14282,-2.34992 -7.54586,-3.50748 v 0 c -3.42915,-1.12274 -5.77907,-1.96697 -7.10199,-2.57621 v 0 c -1.29681,-0.61829 -2.31511,-1.43606 -3.0636,-2.45436 v 0 c -0.71368,-1.0183 -1.05311,-2.21067 -1.05311,-3.60321 v 0 c 0,-4.48226 5.20464,-6.72774 15.60522,-6.72774 v 0 c 2.99398,0 4.49096,-0.54867 4.49096,-1.56662 v 0 c 0,-1.35773 -1.56661,-2.44566 -4.62151,-3.26378 v 0 c -3.13323,-0.78331 -6.15331,-1.19237 -9.11248,-1.19237 v 0 c -12.27181,0 -18.39902,4.52578 -18.39902,13.56863 M 27.438081,400.66485 c -2.349922,0.53961 -4.830396,1.59273 -7.519751,3.22897 v 0 c -2.645838,1.63624 -4.760768,3.49877 -6.388307,5.57889 v 0 c -1.601428,2.07141 -2.819906,4.3517 -3.5684,6.86699 v 0 c -0.7833073,2.48047 -1.1923678,5.19594 -1.1923678,8.1551 v 0 c 0,7.45012 2.7502788,13.53381 8.1899138,18.32939 v 0 c 5.474448,4.76077 12.141264,7.1368 20.026558,7.1368 v 0 c 2.550101,0 5.309083,-0.20052 8.233431,-0.64405 v 0 c 2.915644,-0.40871 4.725954,-0.92256 5.500558,-1.56661 v 0 c 0.748494,-0.60924 1.122741,-1.56662 1.122741,-2.88954 v 0 c 0,-1.12274 -0.374595,-1.66235 -1.087927,-1.66235 v 0 l -7.371793,0.16571 c -4.595403,0 -8.094176,-0.50479 -10.539836,-1.49698 v 0 c -2.480473,-1.0183 -4.560589,-2.34122 -6.222941,-4.01228 v 0 c -1.697166,-1.62754 -3.028789,-3.42914 -3.977461,-5.47445 v 0 c -0.983486,-2.0366 -1.462174,-4.82169 -1.462174,-8.39009 v 0 c 0,-2.41955 0.339781,-4.56059 1.053113,-6.39701 v 0 c 0.644053,-1.87123 1.906048,-3.80339 3.777283,-5.81388 v 0 c 1.86253,-2.00179 3.97746,-3.46396 6.283865,-4.38652 v 0 c 2.315109,-0.84423 4.995761,-1.28811 8.12899,-1.28811 v 0 c 1.218478,0 3.089712,0.13926 5.639813,0.44423 v 0 c 2.550101,0.30427 3.907833,0.43517 4.116715,0.43517 v 0 c 0.818121,0 1.227182,-0.46999 1.227182,-1.42736 v 0 c 0,-1.83642 -1.462174,-3.22897 -4.386521,-4.24727 v 0 c -2.889534,-0.94867 -6.466638,-1.42736 -10.679091,-1.42736 v 0 c -3.603214,0 -6.562375,0.23464 -8.903593,0.78331 m 191.849379,0.20052 c -0.58348,0.0696 -1.19237,0.51385 -1.90605,1.19237 v 0 c -0.71368,0.71368 -1.35773,1.56662 -1.97567,2.5501 v 0 c -0.60924,0.98349 -1.12274,2.17586 -1.5318,3.53359 v 0 l -2.44566,8.6686 c -1.66236,5.57889 -2.95916,9.07766 -3.87302,10.53984 v 0 c -0.47834,0.74849 -0.98349,1.33162 -1.56662,1.67105 v 0 c -0.53961,0.40941 -1.15755,0.57443 -1.80161,0.57443 v 0 c -0.94867,0 -1.83642,-0.44423 -2.61972,-1.32292 v 0 c -0.77461,-0.92256 -1.80161,-3.33341 -3.08972,-7.20643 v 0 c -1.2881,-3.88172 -2.61972,-8.36398 -4.01227,-13.46418 v 0 c -0.47904,-1.90605 -1.32292,-3.50748 -2.44566,-4.90003 v 0 c -1.12274,-1.39254 -2.08012,-2.0366 -2.81991,-2.0366 v 0 H 166.3794 l 5.57889,7.27606 v 34.09998 l -5.57889,7.24124 h 22.10667 l -5.57889,-7.24124 v -9.11248 c 0,-3.12452 0.27016,-5.91832 0.87905,-8.36398 v 0 c 0.58348,-2.44566 1.36644,-3.67284 2.24548,-3.67284 v 0 c 0.99219,0 2.17585,1.5318 3.60321,4.65633 v 0 c 1.36644,3.09841 2.68936,6.59719 3.91654,10.53983 v 0 c 1.18367,3.94265 2.07141,6.77126 2.68065,8.53805 v 0 c 0.60924,1.7668 1.22719,2.98528 1.83642,3.73377 v 0 c 0.60924,0.71368 1.29681,1.26199 1.97568,1.5318 v 0 c 0.71368,0.26946 2.17585,0.44422 4.38652,0.44422 v 0 c 1.5231,0 2.61103,-0.17407 3.28989,-0.44422 v 0 c 0.65241,-0.26946 1.29681,-0.81812 1.83642,-1.59272 v 0 c 0.58348,-0.81813 1.08793,-1.83642 1.49699,-3.13323 v 0 c 3.84691,-11.75832 6.29257,-18.90382 7.34568,-21.34948 v 0 c 0.51316,-1.22718 1.0183,-2.14104 1.5318,-2.75028 v 0 c 0.53961,-0.65241 1.05312,-0.92256 1.5318,-0.92256 v 0 c 1.0183,0 1.89735,1.29681 2.61103,3.84691 v 0 c 0.74849,2.51528 1.12274,5.30038 1.12274,8.25954 v 0 13.35974 c 0,0.94867 0.44353,1.83642 1.35773,2.58491 v 0 c 0.88775,0.7485 2.38474,1.08793 4.38652,1.08793 v 0 c 1.36644,0 2.31511,-0.10444 2.92435,-0.3739 v 0 c 0.61759,-0.23534 1.15755,-0.67886 1.67106,-1.32292 v 0 c 0.50479,-0.6524 0.7833,-1.36643 0.7833,-2.14974 v 0 -40.04441 c 0,-1.19237 -0.47834,-2.24548 -1.40125,-3.15934 v 0 c -0.87904,-0.92256 -1.93215,-1.40125 -3.12452,-1.49699 v 0 c -1.15756,-0.0348 -3.15934,-0.0696 -6.01406,-0.0696 v 0 c -3.8121,0 -5.98795,0.0696 -6.49275,0.20053 m -88.15689,0.27851 c -0.88775,0.26946 -1.67106,0.7746 -2.34992,1.48828 v 0 c -0.71368,0.72239 -1.21848,1.5318 -1.62754,2.48918 v 0 l -14.99599,38.24281 c -0.64405,1.63624 -0.94867,2.65454 -0.94867,3.0636 v 0 c 0,1.89734 1.80161,2.85472 5.40482,2.85472 v 0 c 3.46396,0 5.97925,-1.5318 7.54586,-4.62152 v 0 c 1.15756,-2.3151 2.34122,-3.81209 3.5684,-4.52577 v 0 c 1.19237,-0.67887 2.51529,-1.05311 3.97746,-1.05311 v 0 h 11.93239 c 1.2968,0 2.34992,0.30496 3.19415,0.91385 v 0 c 0.85293,0.65241 1.97567,2.14975 3.40303,4.52578 v 0 c 1.87124,3.22897 4.35171,4.79558 7.51105,4.79558 v 0 c 3.63803,0 5.47445,-1.0183 5.47445,-3.09841 v 0 c 0,-0.3746 -0.33978,-1.28811 -0.94867,-2.85472 v 0 l -15.43986,-38.14707 c -0.46999,-1.0183 -1.05311,-1.86253 -1.66235,-2.5501 v 0 c -0.60924,-0.64406 -1.35774,-1.14885 -2.21067,-1.48829 v 0 c -0.85294,-0.34813 -2.65454,-0.51385 -5.43963,-0.51385 v 0 c -3.36823,0 -5.50927,0.13926 -6.38831,0.47904 m 1.86253,29.26958 c -1.35773,-0.94867 -2.07141,-2.07141 -2.07141,-3.40303 v 0 c 0,-2.14104 0.64405,-4.89132 1.94086,-8.29436 v 0 c 1.2881,-3.40303 2.68065,-5.1002 4.14282,-5.1002 v 0 c 1.46218,0 2.95916,1.80161 4.45615,5.37001 v 0 c 1.49699,3.60321 2.24548,6.29257 2.24548,8.05936 v 0 c 0,1.262 -0.71368,2.34992 -2.10622,3.33341 v 0 c -1.42736,0.94867 -2.85472,1.42736 -4.22116,1.42736 v 0 c -1.5231,0 -2.98527,-0.47904 -4.38652,-1.39255 m 421.50639,-29.47846 5.54408,7.20642 v 37.46821 c 0,2.44566 1.96697,3.67284 5.94443,3.67284 v 0 c 1.97568,0 3.43785,-0.3739 4.35171,-1.12274 v 0 c 0.95737,-0.78331 1.43606,-2.31511 1.43606,-4.5867 v 0 l -0.13925,-4.25597 c 0,-1.93216 0.30427,-3.46396 1.0183,-4.69114 v 0 c 0.67886,-1.18367 1.8016,-2.0366 3.29859,-2.48048 v 0 c 1.49699,-0.44422 3.60322,-0.7833 6.38831,-1.0183 v 0 c 5.1002,-0.44352 9.04285,-1.97567 11.90627,-4.69114 v 0 c 2.78509,-2.65454 4.21245,-6.29257 4.21245,-10.80964 v 0 c 0,-4.66503 -1.66235,-8.26824 -4.92613,-10.81834 v 0 c -3.33341,-2.57621 -7.75474,-3.87302 -13.33363,-3.87302 v 0 z m 18.76457,21.38429 c -0.98349,-1.21848 -1.48829,-3.39433 -1.48829,-6.42312 v 0 c 0,-5.40482 1.96697,-8.09418 5.83999,-8.09418 v 0 c 2.17586,0 4.08191,0.78331 5.81389,2.41955 v 0 c 1.70586,1.55791 2.5501,3.46396 2.5501,5.605 v 0 c 0,2.2803 -0.77461,4.24727 -2.30641,5.88351 v 0 c -1.56661,1.62754 -3.43785,2.48047 -5.70944,2.48047 v 0 c -2.11493,0 -3.67284,-0.64405 -4.69984,-1.87123 m -45.3448,-21.38429 5.57019,7.31087 v 37.25932 c 0,2.5501 1.97567,3.77728 5.84869,3.77728 v 0 c 4.01228,0 5.98795,-1.29681 5.98795,-3.84691 v 0 -37.18969 l 5.57019,-7.31087 z m -18.52957,4.31689 v 8.6686 c 0,1.7668 -1.027,3.26378 -3.13323,4.42134 v 0 c -2.0366,1.19237 -4.24726,1.8016 -6.56237,1.8016 v 0 c -2.30641,0 -4.41263,-0.57442 -6.35349,-1.66235 v 0 c -1.94087,-1.12274 -2.88954,-2.58491 -2.88954,-4.42133 v 0 -5.81388 l 5.57019,-7.31087 h -23.01183 l 5.605,7.31087 v 33.79536 l -5.605,7.24124 h 13.69917 c 1.12274,0 2.04531,-0.33909 2.68936,-1.05312 v 0 c 0.71368,-0.71368 1.05311,-1.63624 1.05311,-2.79379 v 0 -12.09775 c 0,-2.0453 0.87905,-3.60321 2.68065,-4.76077 v 0 c 1.80161,-1.15755 3.97746,-1.69716 6.56238,-1.69716 v 0 c 2.5501,0 4.79558,0.57442 6.80607,1.73198 v 0 c 1.96697,1.19237 2.95046,2.75028 2.95046,4.72595 v 0 12.07164 c 0,2.57621 2.11493,3.90783 6.36219,3.90783 v 0 c 3.70766,0 5.54408,-1.22718 5.54408,-3.70765 v 0 -40.32293 c 0,-2.88953 -2.14104,-4.3517 -6.43182,-4.3517 v 0 c -3.69896,0 -5.53538,1.46217 -5.53538,4.31689 m -136.06049,-4.31689 5.63982,7.31087 v 33.79536 l -5.57019,7.24124 h 22.13279 l -5.61371,-7.24124 v -9.18211 c 0,-5.23075 0.23465,-8.36398 0.7485,-9.38228 v 0 c 0.51385,-1.05311 1.12274,-1.56661 1.87123,-1.56661 v 0 c 1.21848,0 2.75028,1.42736 4.69114,4.35171 v 0 c 1.94086,2.92434 5.16983,8.50323 9.6869,16.69315 v 0 c 1.22719,2.21066 2.41085,3.91653 3.50748,5.06538 v 0 c 1.11404,1.19237 2.23678,1.87124 3.35952,2.08012 v 0 c 1.12274,0.20053 2.48047,0.26946 4.01227,0.26946 v 0 c 4.22116,0 6.73645,-0.40941 7.6503,-1.262 v 0 c 0.85294,-0.84423 1.28811,-2.14104 1.28811,-3.76858 v 0 -40.32292 c 0,-1.08793 -0.33909,-1.97567 -1.0183,-2.61973 v 0 c -0.67887,-0.64405 -2.0366,-0.94867 -4.0732,-0.94867 v 0 c -2.31511,0 -3.84691,0.30427 -4.63021,0.87905 v 0 c -0.7485,0.54866 -1.12275,1.49698 -1.12275,2.88953 v 0 17.47646 c 0,3.97746 -0.84423,5.98795 -2.48047,5.98795 v 0 c -0.74849,0 -1.55791,-0.3739 -2.48047,-1.15756 v 0 c -0.91386,-0.78331 -2.78509,-3.74247 -5.70944,-8.93841 v 0 c -2.88954,-5.16982 -5.03058,-9.05155 -6.3622,-11.60165 v 0 c -1.32292,-2.57621 -2.5501,-4.21245 -3.73376,-4.92613 v 0 c -1.15756,-0.74849 -2.01049,-1.12274 -2.58492,-1.12274 v 0 H 373.3292 Z m -82.21245,0 5.57888,7.31087 v 37.25932 c 0,2.5501 1.97568,3.77728 5.88351,3.77728 v 0 c 3.97746,0 5.94444,-1.29681 5.94444,-3.84691 v 0 -37.18969 l 5.6137,-7.31087 z m -48.58247,0 5.54408,7.20642 v 37.46821 c 0,2.44566 2.01049,3.67284 5.95313,3.67284 v 0 c 1.96698,0 3.42915,-0.3739 4.38652,-1.12274 v 0 c 0.91386,-0.78331 1.39255,-2.31511 1.39255,-4.5867 v 0 l -0.13925,-4.25597 c 0,-1.93216 0.33978,-3.46396 1.0183,-4.69114 v 0 c 0.67886,-1.18367 1.77549,-2.0366 3.29859,-2.48048 v 0 c 1.49699,-0.44422 3.63803,-0.7833 6.39701,-1.0183 v 0 c 5.06539,-0.44352 9.04285,-1.97567 11.89757,-4.69114 v 0 c 2.81991,-2.65454 4.21245,-6.29257 4.21245,-10.80964 v 0 c 0,-4.66503 -1.62754,-8.26824 -4.92613,-10.81834 v 0 c -3.33341,-2.57621 -7.75474,-3.87302 -13.32493,-3.87302 v 0 z m 18.80808,21.38429 c -1.027,-1.21848 -1.49699,-3.39433 -1.49699,-6.42312 v 0 c 0,-5.40482 1.93216,-8.09418 5.8487,-8.09418 v 0 c 2.14104,0 4.0732,0.78331 5.77907,2.41955 v 0 c 1.69716,1.55791 2.58491,3.46396 2.58491,5.605 v 0 c 0,2.2803 -0.78331,4.24727 -2.34992,5.88351 v 0 c -1.5318,1.62754 -3.43785,2.48047 -5.67463,2.48047 v 0 c -2.11493,0 -3.67284,-0.64405 -4.69114,-1.87123 M 92.9835,405.25329 v 8.6686 c 0,1.7668 -1.053113,3.26378 -3.098416,4.42134 v 0 c -2.106226,1.19237 -4.28208,1.8016 -6.588485,1.8016 v 0 c -2.315109,0 -4.421335,-0.57442 -6.362197,-1.66235 v 0 c -1.940861,-1.12274 -2.889533,-2.58491 -2.889533,-4.42133 v 0 -5.81388 l 5.578889,-7.31087 H 56.603225 l 5.613702,7.31087 v 33.79536 l -5.613702,7.24124 H 70.3024 c 1.087927,0 2.010489,-0.33909 2.724169,-1.05312 v 0 c 0.678866,-0.71368 1.0183,-1.63624 1.0183,-2.79379 v 0 -12.09775 c 0,-2.0453 0.887748,-3.60321 2.689355,-4.76077 v 0 c 1.766793,-1.15755 3.942647,-1.69716 6.562375,-1.69716 v 0 c 2.515287,0 4.786878,0.57442 6.797367,1.73198 v 0 c 1.966972,1.19237 2.924348,2.75028 2.924348,4.72595 v 0 12.07164 c 0,2.57621 2.175853,3.90783 6.388306,3.90783 v 0 c 3.67284,0 5.54408,-1.22718 5.54408,-3.70765 v 0 -40.32293 c 0,-2.88953 -2.14104,-4.3517 -6.457938,-4.3517 v 0 c -3.672841,0 -5.509262,1.46217 -5.509262,4.31689 m 377.1712,54.90985 c -41.24549,54.90114 -100.97702,89.47981 -167.47112,89.47981 v 0 c -66.46798,0 -126.23433,-34.57867 -167.445,-89.47981 v 0 H 74.654108 c 54.735782,60.74983 136.573992,99.4104 228.029472,99.4104 v 0 c 91.4816,0 173.31981,-38.66057 228.05559,-99.4104 v 0 z"/>
</svg>
