<?xml version="1.0" encoding="UTF-8" standalone="no"?>
<svg xmlns="http://www.w3.org/2000/svg" version="1.1" width="600" height="327.14182">
  <path d="m 39.294585,100.70226 c 36.425455,34.34181 88.167275,45.16363 111.087275,48.15272 11.04,14.91273 40.61454,31.70182 117.74182,31.70182 11.42181,0 20.74909,9.29455 20.74909,20.74909 0,11.42182 -9.32728,20.76 -20.74909,20.76 -0.0436,0 -29.78182,0.1632 -29.78182,0.1632 l -2.65091,0.80728 c -11.24727,3.54545 -30.25091,18.32727 -30.25091,51.39272 0,32.77091 18.62182,47.90182 29.57455,51.69819 l 2.97818,1.01454 277.68,0 2.93454,-1.01454 c 10.95273,-3.79637 29.57455,-18.92728 29.57455,-51.69819 0,-33.06545 -19.00364,-47.84727 -30.25091,-51.39272 l -19.01455,-0.97091 c -10.69091,0 -19.34181,-8.69455 -19.34181,-19.35273 0,-10.64727 8.6509,-19.34182 19.34181,-19.34182 l 101.04,0 L 600,0 203.65091,0 190.23273,17.17091 0,17.17091 c 0,0 3.24,49.56 39.294545,83.53091" style="fill:#808080"/>
  <path d="m 446.89095,229.60408 c 0,-10.3091 -8.4,-18.7091 -18.70909,-18.7091 -10.30909,0 -18.66546,8.4 -18.66546,18.7091 0,10.30909 8.35637,18.66545 18.66546,18.66545 10.30909,0 18.70909,-8.35636 18.70909,-18.66545 m -88.25455,0 c 0,-10.3091 -8.35636,-18.7091 -18.66545,-18.7091 -10.30909,0 -18.66546,8.4 -18.66546,18.7091 0,10.30909 8.35637,18.66545 18.66546,18.66545 10.30909,0 18.66545,-8.35636 18.66545,-18.66545 m 222.61091,-64.89819 -82.33091,0 c -21,0 -38.00727,16.99637 -38.00727,38.00728 0,21.01091 17.00727,38.01818 38.00727,38.01818 l 13.42909,0.12043 c 0,0 17.17091,5.36728 17.17091,33.57819 0,28.16727 -17.00727,34.01454 -17.00727,34.01454 l -271.39636,0 c 0,0 -17.00728,-5.84727 -17.00728,-34.01454 0,-28.21091 17.12728,-33.57819 17.12728,-33.57819 0,0 26.84727,-0.12043 26.89091,-0.12043 21.77454,0 39.41454,-17.69455 39.41454,-39.42546 0,-21.77454 -17.64,-39.41454 -39.41454,-39.41454 -103.37455,0 -105.38182,-30.55637 -105.38182,-30.55637 0,0 -119.356365,-6.64363 -139.385456,-95.49818 l 175.952726,0 13.46182,-17.12727 368.56364,0 -0.0873,145.99636 z"/>
</svg>
