<?xml version="1.0" encoding="UTF-8" standalone="no"?>
<svg xmlns="http://www.w3.org/2000/svg" version="1.1" width="600" height="311.55518">
  <path d="m 455.4313,226.77719 c 0,-11.08547 -9.03261,-20.11809 -20.11809,-20.11809 -11.08548,0 -20.07117,9.03262 -20.07117,20.11809 0,11.08548 8.98569,20.07117 20.07117,20.07117 11.08548,0 20.11809,-8.98569 20.11809,-20.07117 m -94.90107,0 c 0,-11.08547 -8.98569,-20.11809 -20.07117,-20.11809 -11.08548,0 -20.07117,9.03262 -20.07117,20.11809 0,11.08548 8.98569,20.07117 20.07117,20.07117 11.08548,0 20.07117,-8.98569 20.07117,-20.07117 m 239.37592,-69.78572 -88.53132,0 c -22.58152,0 -40.86963,18.27638 -40.86963,40.86964 0,22.59325 18.28811,40.88136 40.86963,40.88136 l 14.44045,0.12951 c 0,0 18.46407,5.77148 18.46407,36.10698 0,30.28857 -18.28811,36.57621 -18.28811,36.57621 l -291.83546,0 c 0,0 -18.2881,-6.28764 -18.2881,-36.57621 0,-30.3355 18.41714,-36.10698 18.41714,-36.10698 0,0 28.86916,-0.12951 28.91609,-0.12951 23.4144,0 42.38289,-19.02714 42.38289,-42.39462 0,-23.41441 -18.96849,-42.38289 -42.38289,-42.38289 -111.15977,0 -113.31822,-32.85759 -113.31822,-32.85759 0,0 -128.345191,-7.14397 -149.88269,-102.69023 l 189.20388,0 L 203.67952,0 600,0 599.9062,156.99147 z"/>
</svg>
