<?xml version="1.0" encoding="UTF-8" standalone="no"?>
<svg xmlns="http://www.w3.org/2000/svg" version="1.1" width="600" height="327.14182">
  <radialGradient cx="0" cy="0" r="1" fx="0" fy="0" id="radialGradient346" gradientUnits="userSpaceOnUse" gradientTransform="matrix(19.800903,0,0,-19.800888,401.29687,483.72021)" spreadMethod="pad">
    <stop style="stop-color:#bf99c3" offset="0"/>
    <stop style="stop-color:#7b5190" offset="0.66291797"/>
    <stop style="stop-color:#612c75" offset="1"/>
  </radialGradient>
  <path d="m 39.294585,100.70138 c 36.425455,34.34182 88.167275,45.16364 111.087275,48.15273 11.04,14.91273 40.61454,31.70182 117.74182,31.70182 11.42181,0 20.74909,9.29455 20.74909,20.74909 0,11.42182 -9.32728,20.76 -20.74909,20.76 -0.0436,0 -29.78182,0.16407 -29.78182,0.16407 l -2.65091,0.80728 c -11.24727,3.54545 -30.25091,18.32727 -30.25091,51.39272 0,32.77091 18.62182,47.90182 29.57455,51.69819 l 2.97818,1.01454 277.63636,0 2.97818,-1.01454 c 10.95273,-3.79637 29.57455,-18.92728 29.57455,-51.69819 0,-33.06545 -19.00364,-47.84727 -30.25091,-51.39272 l -19.01455,-0.97091 c -10.69091,0 -19.34181,-8.69455 -19.34181,-19.35273 0,-10.64727 8.6509,-19.34182 19.34181,-19.34182 l 101.04,0 L 600,0 203.65091,0 190.23273,17.17091 0,17.17091 c 0,0 3.24,49.56 39.294545,83.53091" style="fill:#ffffff"/>
  <path d="m 446.89095,229.6032 c 0,-10.30909 -8.4,-18.70909 -18.70909,-18.70909 -10.30909,0 -18.66546,8.4 -18.66546,18.70909 0,10.30909 8.35637,18.66546 18.66546,18.66546 10.30909,0 18.70909,-8.35637 18.70909,-18.66546 m -88.25455,0 c 0,-10.30909 -8.35636,-18.70909 -18.66545,-18.70909 -10.30909,0 -18.70909,8.4 -18.70909,18.70909 0,10.30909 8.4,18.66546 18.70909,18.66546 10.30909,0 18.66545,-8.35637 18.66545,-18.66546 m 222.61091,-64.89818 -82.33091,0 c -21,0 -38.05091,16.99636 -38.05091,38.00727 0,21.01091 17.05091,38.01819 38.05091,38.01819 l 13.47273,0.11956 c 0,0 17.12727,5.36727 17.12727,33.57818 0,28.16727 -17.00727,34.01454 -17.00727,34.01454 l -271.39636,0 c 0,0 -17.00728,-5.84727 -17.00728,-34.01454 0,-28.21091 17.12728,-33.57818 17.12728,-33.57818 0,0 26.84727,-0.11956 26.89091,-0.11956 21.77454,0 39.41454,-17.69455 39.41454,-39.42546 0,-21.77455 -17.64,-39.41455 -39.41454,-39.41455 -103.37455,0 -105.38182,-30.55636 -105.38182,-30.55636 0,0 -119.356365,-6.64364 -139.385456,-95.49818 l 175.952726,0 13.46182,-17.12727 368.56364,0 -0.0873,145.99636 z" style="fill:#612c75"/>
  <g transform="matrix(10.909091,0,0,-10.909091,-4074.5455,5440.5266)">
    <path d="m 393.27,496.449 -1.067,-1.359 -0.168,-0.211 -0.265,0 -15.415,0 c 2.161,-7.008 11.993,-7.649 12.094,-7.652 l 0,0 0.438,-0.063 0.078,-0.422 c 0.004,-0.027 0.523,-2.312 9.113,-2.312 l 0,0 c 2.297,0 4.164,-1.871 4.164,-4.168 l 0,0 c 0,-2.297 -1.867,-4.164 -4.16,-4.164 l 0,0 -2.359,-0.008 c -0.254,-0.125 -1.133,-0.684 -1.133,-2.531 l 0,0 c 0,-1.84 0.871,-2.434 1.133,-2.571 l 0,0 24.64,0 c 0.258,0.137 1.125,0.731 1.125,2.571 l 0,0 c 0,1.847 -0.879,2.406 -1.133,2.531 l 0,0 -1.121,0.008 c -2.222,0 -4.035,1.812 -4.035,4.035 l 0,0 c 0,2.222 1.813,4.035 4.035,4.035 l 0,0 7,0 0.004,12.281 -32.968,0 z m 17.218,-18.781 c 0,1.246 1.016,2.262 2.266,2.262 l 0,0 c 1.242,0 2.258,-1.016 2.258,-2.262 l 0,0 c 0,-1.246 -1.016,-2.262 -2.258,-2.262 l 0,0 c -1.25,0 -2.266,1.016 -2.266,2.262 m -8.086,0 c 0,1.246 1.012,2.262 2.262,2.262 l 0,0 c 1.246,0 2.262,-1.016 2.262,-2.262 l 0,0 c 0,-1.246 -1.016,-2.262 -2.262,-2.262 l 0,0 c -1.25,0 -2.262,1.016 -2.262,2.262" style="fill:url(#radialGradient346)"/>
  </g>
</svg>
