<?xml version="1.0" encoding="UTF-8" standalone="no"?>
<svg xmlns="http://www.w3.org/2000/svg" version="1.1" width="314.66602" height="174.21294" viewBox="0 0 314.66602 174.21294">
  <path d="m 108.37888,0 -4.97461,10.37695 H 4.87107 c -1.08,0 -1.91105,0.88635 -2.6543,1.66993 C 1.2622,13.05325 0.0127,14.18909 0.0117,15.57617 L 0,30.85547 c 7.44423,27.78224 82.7207,45.2207 82.7207,45.2207 0,0 4.86178,15.33594 57.12891,15.33594 12.36388,0 22.3789,9.96531 22.3789,22.26758 0,12.27763 -10.01502,22.27539 -22.3789,22.27539 -0.0248,0 -21.71485,0.0684 -21.71485,0.0684 0,0 -9.72461,3.03197 -9.72461,18.9707 0,15.91405 9.65625,19.21875 9.65625,19.21875 h 156.17188 c 0,0 12.7832,-4.5547 12.7832,-19.21875 -0.13552,-6.91892 -0.98379,-19.03906 -16.125,-19.03906 0,0 -23.01758,0.0154 -23.01758,-21.48047 0,-21.24001 23.01758,-21.47266 23.01758,-21.47266 h 43.76953 V 4e-5 Z m 76.87305,115.58008 a 13.03125,13.03125 0 0 1 13.03125,13.03125 13.03125,13.03125 0 0 1 -13.03125,13.03125 13.03125,13.03125 0 0 1 -13.03125,-13.03125 13.03125,13.03125 0 0 1 13.03125,-13.03125 z m 39.08789,0 a 13.03125,13.03125 0 0 1 13.03125,13.03125 13.03125,13.03125 0 0 1 -13.03125,13.03125 13.03125,13.03125 0 0 1 -13.03125,-13.03125 13.03125,13.03125 0 0 1 13.03125,-13.03125 z"/>
</svg>
