<?xml version="1.0" encoding="UTF-8" standalone="no"?>
<svg xmlns="http://www.w3.org/2000/svg" version="1.1" width="600" height="327.14182">
  <path d="m 446.89095,229.60408 c 0,-10.3091 -8.4,-18.7091 -18.70909,-18.7091 -10.30909,0 -18.66546,8.4 -18.66546,18.7091 0,10.30909 8.35637,18.66545 18.66546,18.66545 10.30909,0 18.70909,-8.35636 18.70909,-18.66545 m -88.25455,0 c 0,-10.3091 -8.35636,-18.7091 -18.66545,-18.7091 -10.30909,0 -18.66546,8.4 -18.66546,18.7091 0,10.30909 8.35637,18.66545 18.66546,18.66545 10.30909,0 18.66545,-8.35636 18.66545,-18.66545 m 222.61091,-64.89819 -82.33091,0 c -21,0 -38.00727,16.99637 -38.00727,38.00728 0,21.01091 17.00727,38.01818 38.00727,38.01818 l 13.42909,0.12043 c 0,0 17.17091,5.36728 17.17091,33.57819 0,28.16727 -17.00727,34.01454 -17.00727,34.01454 l -271.39636,0 c 0,0 -17.00728,-5.84727 -17.00728,-34.01454 0,-28.21091 17.12728,-33.57819 17.12728,-33.57819 0,0 26.84727,-0.12043 26.89091,-0.12043 21.77454,0 39.41454,-17.69455 39.41454,-39.42546 0,-21.77454 -17.64,-39.41454 -39.41454,-39.41454 -103.37455,0 -105.38182,-30.55637 -105.38182,-30.55637 0,0 -119.356365,-6.64363 -139.385456,-95.49818 l 175.952726,0 13.46182,-17.12727 368.56364,0 -0.0873,145.99636 z"/>
</svg>
