<?xml version="1.0" encoding="UTF-8" standalone="no"?>
<svg xmlns="http://www.w3.org/2000/svg" xmlns:xlink="http://www.w3.org/1999/xlink" version="1.1" viewBox="0 0 69.410973 74.475302" height="74.475304mm" width="69.410973mm">
      <linearGradient id="linearGradient2260">
      <stop offset="0" style="stop-color:#bf331c"/>
      <stop offset="0.25" style="stop-color:#d3641c"/>
      <stop offset="0.5" style="stop-color:#F4A51F"/>
      <stop offset="0.75" style="stop-color:#d3641c"/>
      <stop offset="1" style="stop-color:#bf331c"/>
    </linearGradient>
    <linearGradient gradientTransform="translate(-354.97582,-40.682615)" gradientUnits="userSpaceOnUse" y2="183.07713" x2="608.32422" y1="183.07713" x1="363.54492" id="linearGradient2262" xlink:href="#linearGradient2260"/>
    <path d="m 47.886513,70.231123 -1.98076,-3.541903 c 9.98995,-4.576234 16.8374,-12.696045 20.05665,-24.04298 -1.09227,0.09549 -2.15603,0.210883 -3.2153,0.247523 -2.44446,-8e-6 -4.42608,-1.981628 -4.42609,-4.426085 10e-6,-2.444456 1.98163,-4.426079 4.42609,-4.426087 1.42971,0.0014 2.73855,0.741566 3.78503,1.873829 l 1.88801,1.884598 c 0.67799,-1.172721 0.90199,-3.003653 0.95159,-3.850621 0.27601,-4.710285 -0.93359,-9.716658 -2.70089,-13.895027 -1.7673,-4.178369 -4.32463,-7.941227 -7.48472,-11.101318 C 56.026043,5.792961 52.263173,3.23563 48.084823,1.468336 46.584183,0.853344 45.219703,0.387357 43.767663,0 v 8.363996 l -5.25113,7.805118 -0.13332,10.433655 c -0.0131,1.024671 -2.338336,1.618669 -3.67773,1.618669 -1.339394,0 -3.66463,-0.593998 -3.67773,-1.618668 L 30.894433,16.169114 25.643303,8.363996 V 0 c -1.45203,0.387357 -2.81651,0.853344 -4.31715,1.468336 -4.17836,1.767294 -7.94122,4.324625 -11.10131,7.484716 -3.1600904,3.160091 -5.7174174,6.922949 -7.4847174,11.101318 -1.76730301,4.178368 -2.97689601,9.184743 -2.70088801,13.895027 0.04963,0.846969 0.273598,2.677901 0.951592,3.850622 L 2.8788386,35.915421 c 1.04648,-1.132263 2.355321,-1.872398 3.785034,-1.87383 2.44445,8e-6 4.4260704,1.981632 4.4260804,4.426088 -10e-6,2.444456 -1.9816304,4.426077 -4.4260804,4.426085 -1.059276,-0.03664 -2.123033,-0.15203 -3.21531,-0.247523 3.21925,11.346934 10.0667104,19.466745 20.0566604,24.042978 l -1.98076,3.541903 c 2.92781,3.404293 8.565197,4.244183 13.18102,4.244184 4.615826,10e-7 10.25322,-0.83989 13.18103,-4.244183 z"/>
  <path transform="scale(0.26458333)" d="M 173.63867 11.253906 L 173.63867 33.767578 L 154.8418 60.974609 C 184.07966 70.736059 197.20899 90.598413 202.42383 110.90039 C 191.77698 91.826733 177.3897 74.311421 153.12891 69.898438 C 153.12891 69.898437 153.33935 90.608906 153.12891 100.96094 C 153.05434 104.62874 148.53982 114.34766 131.16992 114.34766 C 113.80003 114.34766 109.28551 104.62874 109.21094 100.96094 C 109.00049 90.60891 109.21094 69.898438 109.21094 69.898438 C 84.950146 74.311425 70.562865 91.826733 59.916016 110.90039 C 65.130853 90.598413 78.260185 70.736059 107.49805 60.974609 L 88.701172 33.767578 L 88.701172 11.255859 C 47.953601 29.661138 9.8555493 58.530997 8.5683594 126.51172 C 13.090609 122.44134 18.956695 120.18441 25.041016 120.17383 C 38.674976 120.17337 49.727877 131.22541 49.728516 144.85938 C 49.728965 158.4941 38.675735 169.54734 25.041016 169.54688 C 24.729586 169.53701 24.418333 169.51959 24.107422 169.49805 C 35.089301 198.16883 54.044401 224.90016 87.78125 243.14062 C 83.21298 212.06337 65.870323 196.31577 52.619141 178.83203 C 71.958121 186.86471 109.63685 234.76402 91.910156 263.75977 C 93.761516 266.1412 117.75241 273.53321 131.16992 273.5332 C 144.58743 273.5332 168.57833 266.1412 170.42969 263.75977 C 152.70299 234.76402 190.38172 186.86471 209.7207 178.83203 C 196.46952 196.31577 179.12686 212.06337 174.55859 243.14062 C 208.29544 224.90016 227.25054 198.16882 238.23242 169.49805 C 237.92151 169.51963 237.61026 169.53705 237.29883 169.54688 C 223.66411 169.54733 212.61088 158.49409 212.61133 144.85938 C 212.61197 131.2254 223.66487 120.17337 237.29883 120.17383 C 243.38315 120.18434 249.24923 122.44134 253.77148 126.51172 C 252.48429 58.530993 214.38624 29.659187 173.63867 11.253906 z M 87.513672 129.90625 C 99.982371 129.86656 113.79482 135.042 117.0332 141.06055 C 118.13664 143.11137 114.24795 153.76107 113.39453 157.5918 C 110.25692 154.15235 104.29391 153.54519 102.51953 153.94336 C 100.70604 154.35029 92.74527 156.73604 87.880859 155.96094 C 83.647872 155.28645 79.184228 153.52141 76.318359 150.33398 C 72.658488 146.26352 67.75888 137.45265 70.738281 134.89062 C 74.819721 131.38093 80.982421 129.92704 87.513672 129.90625 z M 174.82617 129.90625 C 181.35742 129.92704 187.52012 131.38092 191.60156 134.89062 C 194.58096 137.45264 189.68136 146.26352 186.02148 150.33398 C 183.15562 153.52141 178.69197 155.2845 174.45898 155.95898 C 169.59457 156.73409 161.63381 154.35029 159.82031 153.94336 C 158.04593 153.54519 152.08292 154.15235 148.94531 157.5918 C 148.09189 153.76106 144.20321 143.11137 145.30664 141.06055 C 148.54502 135.04201 162.35747 129.86656 174.82617 129.90625 z M 113.99609 188.95508 C 115.91905 189.01147 118.12255 189.76334 118.63281 189.99805 C 119.28731 190.29912 120.76595 191.60902 123.83984 193.44141 C 125.18021 194.24042 125.95353 195.28301 127.15625 195.99414 C 128.71179 196.91383 129.79128 196.99414 131.16992 196.99414 C 132.54857 196.99414 133.62805 196.91384 135.18359 195.99414 C 136.38631 195.28301 137.15963 194.24237 138.5 193.44336 C 141.57389 191.61097 143.05253 190.30108 143.70703 190 C 144.2173 189.76529 146.42079 189.01342 148.34375 188.95703 L 148.34375 188.95508 C 148.98474 188.93618 149.59382 188.9973 150.09961 189.17773 C 150.68918 189.38803 151.31352 189.75507 151.80078 190.22852 C 152.28803 190.70195 152.63739 191.27977 152.67969 191.9043 C 152.7329 192.69283 152.38605 193.46191 151.85352 194.13086 C 151.32095 194.7998 150.60288 195.36834 149.91406 195.75586 C 147.09237 197.34336 143.3414 195.60708 140.23047 196.50391 C 138.66144 196.95624 137.44871 198.28417 135.89453 198.78516 C 134.58406 199.20759 132.75782 199.39648 131.16992 199.39648 C 129.58202 199.39648 127.75578 199.20759 126.44531 198.78516 C 124.89113 198.28417 123.6784 196.95624 122.10938 196.50391 C 118.99845 195.60707 115.24747 197.34336 112.42578 195.75586 C 111.73696 195.36834 111.0189 194.7998 110.48633 194.13086 C 109.9538 193.46191 109.60694 192.69283 109.66016 191.9043 C 109.70245 191.27977 110.05181 190.70195 110.53906 190.22852 C 111.02632 189.75507 111.65067 189.38803 112.24023 189.17773 C 112.74603 188.9973 113.3551 188.93629 113.99609 188.95508 z M 131.16992 221.27734 C 139.04458 221.27734 149.99037 221.9274 154.61133 223.74805 L 148.06641 232.98047 C 142.1398 233.91678 136.81854 234.26563 131.16992 234.26562 C 125.5213 234.26562 120.20004 233.91678 114.27344 232.98047 L 107.72852 223.74805 C 112.34948 221.9274 123.29526 221.27734 131.16992 221.27734 z " style="fill:url(#linearGradient2262)"/>
</svg>
