<?xml version="1.0" encoding="UTF-8" standalone="no"?>
<svg xmlns="http://www.w3.org/2000/svg" version="1.1" width="600" height="84.885788">
  <path d="M 55.532308,0 41.898462,0 12.904615,58.163077 c -0.858461,1.809231 -1.726153,3.249231 -2.593846,4.403077 -0.2496,0.03692 -0.5723075,0.07385 -1.1538459,0.110769 L 0,63.101539 l 0,20.843077 106.00615,0 0,-20.621539 c 0,0 -7.024612,-0.507323 -8.363073,-0.61883 -0.03692,-0.10117 -0.184615,-0.322708 -0.184615,-0.322708 L 61.043077,0 55.532308,0 z" style="fill:#ffffff"/>
  <path d="m 177.11077,23.944616 c 0.75692,0.258461 1.62461,0.941538 1.62461,3.286154 0,2.233846 -0.72,3.498461 -0.96923,3.747692 0,0 -0.18461,0.110769 -0.65575,0.212677 l 0,-7.246154 z m -47.16,-23.649231 -9.62769,0 0,21.304615 11.75077,0 0,41.076923 -11.24308,0 0,21.267693 114.19385,0 0,-21.092308 -9.41539,-0.175754 c -1.51385,-0.03692 -1.61538,-0.221538 -1.94769,-0.655754 0,0 -5.83385,-7.606153 -11.14154,-14.52923 8.87077,-5.843077 11.10462,-13.809231 11.10462,-20.261539 0,-8.695384 -4.68,-16.227692 -13.19077,-21.203077 -7.28308,-4.107692 -15.58154,-5.732307 -29.75077,-5.732307 l -50.73231,0 z" style="fill:#ffffff"/>
  <path d="m 333.57231,0.295385 -85.38462,0 0,21.378462 11.64,0 c 0.29539,0 0.47114,0.03692 0.72,0.03692 l 0,40.92923 -11.60307,0 0,21.304616 93.35076,0 8.64924,-38.612308 -21.88616,0 -2.12308,6.701539 c -0.75692,2.455384 -0.97846,2.963076 -1.7723,3.96923 l 0,-18.387692 18,0 0,-37.32 -9.59077,0 z" style="fill:#ffffff"/>
  <path d="m 442.24615,21.6 1.76308,0 c 0.25846,0 0.43348,0 0.65575,0 l 0,7.356923 C 440.91729,25.606154 440.54806,25.246154 436.47729,21.6 l 5.76923,0 z M 470.88,0.295385 l -38.26154,0 0,17.843077 c -8.04,-7.246154 -19.79077,-17.843077 -19.79077,-17.843077 l -48.57231,0 0,20.981538 9.84,0.322708 c 0,0 1.5877,0.07385 1.91077,0.07385 l 0,40.781539 c -0.49846,0.110769 -1.15384,0.184615 -2.04923,0.221538 l -9.19384,0.397293 0,20.870769 48.6,0 0,-21.018462 -9.30462,-0.286523 c -1.21846,0 -2.08615,-0.07385 -2.80615,-0.147692 l 0,-18.572308 c 16.8,15.184616 45.36,40.966154 45.36,40.966154 l 23.25231,0 0,-63.212308 c 0.39729,-0.03692 0.83076,-0.07385 1.33846,-0.07385 l 9.26769,-0.359631 0,-20.944615 -9.59077,0 z" style="fill:#ffffff"/>
  <path d="m 549.51692,0 -13.62461,0 -28.99385,58.163077 c -0.86769,1.809231 -1.73538,3.249231 -2.55692,4.403077 -0.29539,0.03692 -0.61883,0.07385 -1.15385,0.110769 l -9.16615,0.424616 0,20.843077 105.97846,0 0,-20.621539 c 0,0 -7.03385,-0.507323 -8.32615,-0.61883 -0.0738,-0.10117 -0.22154,-0.322708 -0.22154,-0.322708 L 555.03692,0 l -5.52,0 z" style="fill:#ffffff"/>
  <path d="m 537.11077,31.015385 -9.72923,19.292308 20.73231,0 -11.00308,-19.292308 z m 10.09846,43.338462 0,-2.086154 c 8.69539,-0.11077 11.00308,-0.756923 11.00308,-3.286154 0,-1.043077 -0.50733,-2.196923 -1.55077,-4.070769 l -6.38769,-10.818462 -24.80308,0 -4.83692,9.701538 c -0.89539,1.8 -1.29231,2.806154 -1.29231,3.858462 0,3.203077 2.80615,4.504615 9.59077,4.615385 l 1.25538,0 0,2.086154 -26.57538,0 0,-2.086154 c 3.96923,-0.184616 5.88,-0.941539 7.82769,-3.101539 1.26462,-1.624615 2.66769,-3.784615 4.08,-6.710769 l 26.31692,-52.827692 7.68,0 33.60923,57.553846 c 2.55693,4.430769 3.31385,4.901538 7.28308,5.086154 l 0,2.086154 -43.2,0 z m -155.33538,-51.812308 -0.24887,0 0,41.713846 c 0,5.953846 2.70462,7.716923 12.1477,8.012308 l 0,2.086154 -29.39077,0 0,-2.086154 c 4.22769,-0.184616 7.03384,-1.052308 9.05538,-2.64 1.55077,-1.218462 2.05846,-2.556923 2.05846,-4.716923 0.1381,-0.36037 0.1381,-1.052308 0.1381,-1.984616 l 0,-45.756923 -2.55693,-2.270769 c -1.55077,-1.412308 -3.06461,-2.270769 -4.61538,-2.529231 -1.15385,-0.285784 -1.66154,-0.285784 -4.57846,-0.396554 l 0,-2.04923 35.26154,0 44.86153,40.384615 0.24887,0 0,-30.618462 c 0,-3.387692 -0.39656,-4.504615 -1.8,-5.621538 -1.77231,-1.338462 -4.5877,-2.095385 -8.44616,-2.095385 l -1.76308,0 0,-2.04923 28.63385,0 0,2.04923 c -7.79077,0.295385 -10.60615,2.095385 -10.60615,6.784616 l 0,56.538461 -9.9877,0 -58.4123,-52.753846 z m -133.33847,51.812308 0,-2.086154 2.95385,0 c 3.57231,0 5.88,-0.655754 7.28308,-2.058462 1.15384,-1.043077 1.40307,-2.381538 1.40307,-5.658461 l 0,-44.75077 c 0,-3.387692 -0.24886,-4.615384 -1.40307,-5.658461 -1.66154,-1.587692 -3.71077,-2.058462 -8.94462,-2.058462 l -2.04923,0 0,-2.16 75.79385,0 0,18.064616 -2.96308,0 c -1.40308,-9.304616 -8.04,-14.206154 -19.39385,-14.206154 l -15.11076,0 0,26.067692 2.70461,0 c 8.54769,0 12.76615,-4.329231 13.80923,-14.030769 l 2.92616,0 0,31.661538 -2.92616,0 c -0.54498,-5.446153 -1.8,-8.584615 -4.76308,-11.104615 -2.16,-2.095385 -4.57846,-2.741538 -9.04615,-2.741538 l -2.70461,0 0,21.276923 c 0,5.187692 0.90461,6.055384 6.77538,6.055384 l 6.78462,0 c 7.28307,0 10.34769,-0.572308 14.81538,-2.556923 3.06462,-1.412308 5.63077,-3.286154 7.43077,-5.483077 2.30769,-2.704615 2.91692,-3.932307 4.21846,-8.003077 l 2.81539,0 -4.36616,19.43077 -76.04308,0 z M 171.84923,41.289231 c 6.52615,0 10.20923,-1.043077 12.80308,-3.6 2.27077,-2.344615 3.67384,-6.101538 3.67384,-10.458461 0,-6.849231 -3.96,-11.861539 -10.2,-12.876923 -1.66153,-0.286524 -3.32307,-0.397293 -5.52,-0.397293 l -5.08615,0 0,27.332308 4.32923,0 z m -1.51385,3.683077 -2.81538,0 0,19.578462 c 0,3.276923 0.36037,4.615384 1.51385,5.658461 1.4123,1.403077 3.5723,2.058462 7.28307,2.058462 l 2.96308,0 0,2.086154 -48.82154,0 0,-2.086154 2.55692,0 c 3.42462,0 5.88,-0.655754 7.28308,-2.058462 1.00616,-1.043077 1.40308,-2.381538 1.40308,-5.658461 l 0,-44.861539 c 0,-3.276923 -0.39729,-4.504615 -1.40308,-5.621538 -1.40308,-1.44 -3.71077,-2.095385 -7.28308,-2.095385 l -3.06461,0 0,-2.049231 50.73231,0 c 12.25846,0 19.2923,1.227693 24.91384,4.43077 5.48308,3.212307 8.43693,7.606153 8.43693,12.876923 0,8.113846 -5.37231,13.375384 -16.61539,16.403077 l 18.52616,24.119999 c 2.30769,3.101539 5.23384,4.403077 9.4523,4.513847 l 0,2.086154 -32.19692,0 -22.86462,-29.381539 z M 43.126154,31.015385 l -9.738462,19.292308 20.732308,0 -10.993846,-19.292308 z m 10.098461,43.338462 0,-2.086154 c 8.686154,-0.11077 10.993847,-0.756923 10.993847,-3.286154 0,-1.043077 -0.544985,-2.196923 -1.55077,-4.070769 l -6.378461,-10.818462 -24.812308,0 -4.864615,9.701538 c -0.867693,1.8 -1.264616,2.806154 -1.264616,3.858462 0,3.203077 2.815385,4.504615 9.59077,4.615385 l 1.264615,0 0,2.086154 -26.5753847,0 0,-2.086154 c 3.9692307,-0.184616 5.8799997,-0.941539 7.7907697,-3.101539 1.292307,-1.624615 2.704615,-3.784615 4.107692,-6.710769 l 26.326154,-52.827692 7.643077,0 33.636923,57.553846 c 2.52923,4.430769 3.323077,4.901538 7.283077,5.086154 l 0,2.086154 -43.19077,0 z"/>
</svg>
