<?xml version="1.0" encoding="UTF-8" standalone="no"?>
<svg xmlns="http://www.w3.org/2000/svg" xmlns:xlink="http://www.w3.org/1999/xlink" version="1.1" width="600" height="84.886528">
  <linearGradient x1="0" y1="0" x2="1" y2="0" id="linearGradient390" gradientUnits="userSpaceOnUse" gradientTransform="matrix(52.924698,-19.263016,-19.263016,-52.924698,192.31201,380.77344)" spreadMethod="pad">
    <stop style="stop-color:#bf331c" offset="0"/>
    <stop style="stop-color:#d3641c" offset="0.3"/>
    <stop style="stop-color:#f6b91d" offset="0.5"/>
    <stop style="stop-color:#d3641c" offset="0.7"/>
    <stop style="stop-color:#bf331c" offset="1"/>
  </linearGradient>
  <linearGradient x1="0" y1="0" x2="1" y2="0" id="linearGradient3005" xlink:href="#linearGradient390" gradientUnits="userSpaceOnUse" gradientTransform="matrix(52.924698,-19.263016,-19.263016,-52.924698,192.31201,380.77344)" spreadMethod="pad"/>
  <linearGradient x1="0" y1="0" x2="1" y2="0" id="linearGradient3008" xlink:href="#linearGradient390" gradientUnits="userSpaceOnUse" gradientTransform="matrix(488.53567,177.81246,-177.81246,488.53567,69.590862,-44.634827)" spreadMethod="pad"/>
  <path d="M 55.495385,0 41.898462,0 12.913846,58.163077 c -0.867692,1.809231 -1.735384,3.249231 -2.593846,4.403077 -0.258462,0.03692 -0.6188308,0.07385 -1.1538462,0.110769 L 0,63.101538 l 0,20.843077 106.01538,0 0,-20.621538 c 0,0 -7.033842,-0.508062 -8.363072,-0.618831 -0.07385,-0.101169 -0.221539,-0.322708 -0.221539,-0.322708 L 61.015385,0 l -5.52,0 z" style="fill:#ffffff"/>
  <path d="m 177.12,23.944615 c 0.72,0.258462 1.58769,0.941539 1.58769,3.286154 0,2.233846 -0.68307,3.498462 -0.94154,3.747692 -0.0369,0 -0.17575,0.11077 -0.64615,0.212677 l 0,-7.246153 z m -47.19692,-23.64923 -9.59077,0 0,21.304615 11.75077,0 0,41.076923 -11.25231,0 0,21.267692 114.15692,0 0,-21.092307 -9.36923,-0.175754 c -1.51384,-0.03692 -1.62461,-0.221539 -1.94769,-0.655754 0,0 -5.84308,-7.606154 -11.17846,-14.529231 8.90769,-5.843077 11.14154,-13.809231 11.14154,-20.261538 0,-8.695385 -4.68923,-16.227693 -13.2,-21.203077 -7.28308,-4.107693 -15.60923,-5.732308 -29.77847,-5.732308 l -50.7323,0 z" style="fill:#ffffff"/>
  <path d="m 333.57231,0.295385 -85.42154,0 0,21.378461 11.64923,0 c 0.32271,0 0.50806,0.03692 0.75692,0.03692 l 0,40.929231 -11.64923,0 0,21.304615 93.36,0 8.64923,-38.612307 -21.84923,0 -2.13231,6.701538 c -0.75692,2.455385 -0.96923,2.963077 -1.8,3.969231 l 0,-18.387692 18.0277,0 0,-37.32 -9.59077,0 z" style="fill:#ffffff"/>
  <path d="m 442.21846,21.6 1.8,0 c 0.24886,0 0.39656,0 0.60923,0 l 0,7.356923 C 440.91692,25.606154 440.52,25.246154 436.44923,21.6 l 5.76923,0 z M 470.88,0.295385 l -38.25231,0 0,17.843076 c -8.04,-7.246153 -19.8,-17.843076 -19.8,-17.843076 l -48.57231,0 0,20.981538 9.81231,0.323446 c 0,0 1.62462,0.07385 1.94769,0.07385 l 0,40.781539 c -0.50806,0.110769 -1.15384,0.184615 -2.09538,0.221538 l -9.15692,0.396554 0,20.870769 48.60923,0 0,-21.018461 -9.30462,-0.285785 c -1.22769,0 -2.09538,-0.07385 -2.81538,-0.147692 l 0,-18.572308 c 16.8,15.184616 45.32307,40.966154 45.32307,40.966154 l 23.29847,0 0,-63.212308 c 0.39729,-0.03692 0.79384,-0.07385 1.32923,-0.07385 l 9.26769,-0.360369 0,-20.944615 -9.59077,0 z" style="fill:#ffffff"/>
  <path d="m 549.48923,0 -13.59692,0 -28.98462,58.163077 c -0.86769,1.809231 -1.73538,3.249231 -2.60307,4.403077 -0.24887,0.03692 -0.57231,0.07385 -1.15385,0.110769 l -9.12,0.424615 0,20.843077 105.96923,0 0,-20.621538 c 0,0 -7.02462,-0.508062 -8.36308,-0.618831 -0.0369,-0.101169 -0.21267,-0.322708 -0.21267,-0.322708 L 554.99963,0 549.48886,0 z" style="fill:#ffffff"/>
  <path d="m 537.12,31.015385 -9.73846,19.292307 20.73231,0 L 537.12,31.015385 z m 10.09846,43.338461 0,-2.086154 c 8.68616,-0.110769 10.95692,-0.756923 10.95692,-3.286154 0,-1.043076 -0.49846,-2.196923 -1.51384,-4.070769 l -6.37846,-10.818461 -24.81231,0 -4.86462,9.701538 c -0.86769,1.8 -1.26461,2.806154 -1.26461,3.858462 0,3.203076 2.81538,4.504615 9.59077,4.615384 l 1.26461,0 0,2.086154 -26.57538,0 0,-2.086154 c 3.96923,-0.184615 5.88,-0.941538 7.79077,-3.101538 1.29231,-1.624616 2.70461,-3.784616 4.10769,-6.710769 l 26.32615,-52.827693 7.64308,0 33.63692,57.553846 c 2.56616,4.43077 3.32308,4.901539 7.28308,5.086154 l 0,2.086154 -43.19077,0 z m -155.33538,-51.812308 -0.25846,0 0,41.713847 c 0,5.953846 2.66769,7.716923 12.15692,8.012307 l 0,2.086154 -29.42769,0 0,-2.086154 c 4.25538,-0.184615 7.03384,-1.052308 9.08307,-2.64 1.55077,-1.218461 2.05846,-2.556923 2.05846,-4.716923 0.11077,-0.360369 0.11077,-1.052307 0.11077,-1.984615 l 0,-45.756923 -2.52923,-2.27077 c -1.55077,-1.412307 -3.0923,-2.270769 -4.61538,-2.52923 -1.15385,-0.285785 -1.65231,-0.285785 -4.61539,-0.397293 l 0,-2.04923 35.27077,0 44.88923,40.384615 0.24887,0 0,-30.618462 c 0,-3.387692 -0.39656,-4.504615 -1.8,-5.621538 -1.76308,-1.338462 -4.57847,-2.095385 -8.43693,-2.095385 l -1.8,0 0,-2.04923 28.66154,0 0,2.04923 c -7.81846,0.295385 -10.63385,2.095385 -10.63385,6.784616 l 0,56.538461 -9.95076,0 -58.41231,-52.753846 z m -133.3477,51.812308 0,-2.086154 2.96308,0 c 3.56308,0 5.83385,-0.655754 7.24616,-2.058461 1.15384,-1.043077 1.44,-2.381539 1.44,-5.658462 l 0,-44.750769 c 0,-3.387692 -0.28579,-4.615385 -1.44,-5.658462 -1.66154,-1.587692 -3.68308,-2.058461 -8.94462,-2.058461 l -2.02154,0 0,-2.16 75.79385,0 0,18.064615 -2.95385,0 c -1.40308,-9.304615 -8.04,-14.206154 -19.44,-14.206154 l -15.06461,0 0,26.067693 2.66769,0 c 8.57538,0 12.79384,-4.329231 13.80923,-14.03077 l 2.95385,0 0,31.661539 -2.95385,0 c -0.50806,-5.446154 -1.77231,-8.584615 -4.72615,-11.104615 -2.16,-2.095385 -4.57847,-2.741539 -9.08308,-2.741539 l -2.66769,0 0,21.276923 c 0,5.187693 0.89538,6.055385 6.77538,6.055385 l 6.77539,0 c 7.28307,0 10.34769,-0.572308 14.82461,-2.556923 3.06462,-1.412308 5.62154,-3.286154 7.42154,-5.483077 2.28,-2.704616 2.92615,-3.932308 4.19077,-8.003077 l 2.80615,0 -4.32,19.430769 -76.05231,0 z M 171.85846,41.289231 c 6.48923,0 10.2,-1.043077 12.75692,-3.6 2.3077,-2.344616 3.72,-6.101539 3.72,-10.458462 0,-6.849231 -3.96923,-11.861538 -10.24615,-12.876923 -1.65231,-0.285785 -3.31385,-0.396554 -5.47385,-0.396554 l -5.12307,0 0,27.332308 4.36615,0 z m -1.55077,3.683077 -2.81538,0 0,19.578461 c 0,3.276923 0.39655,4.615385 1.55077,5.658462 1.40307,1.403077 3.5723,2.058461 7.28307,2.058461 l 2.91693,0 0,2.086154 -48.82154,0 0,-2.086154 2.56615,0 c 3.46154,0 5.87077,-0.655754 7.28308,-2.058461 1.04308,-1.043077 1.40308,-2.381539 1.40308,-5.658462 l 0,-44.861538 c 0,-3.276923 -0.36037,-4.504616 -1.40308,-5.621539 -1.41231,-1.44 -3.72,-2.095384 -7.28308,-2.095384 l -3.06461,0 0,-2.049231 50.7323,0 c 12.29539,0 19.32924,1.227692 24.95077,4.430769 5.48308,3.212308 8.4,7.606154 8.4,12.876923 0,8.113846 -5.33538,13.375385 -16.58769,16.403077 l 18.53539,24.12 c 2.27077,3.101538 5.22461,4.403077 9.44307,4.513846 l 0,2.086154 -32.19692,0 -22.89231,-29.381538 z M 43.089231,31.015385 l -9.692308,19.292307 20.695385,0 -11.003077,-19.292307 z m 10.098461,43.338461 0,-2.086154 c 8.695385,-0.110769 11.003077,-0.756923 11.003077,-3.286154 0,-1.043076 -0.508061,-2.196923 -1.523077,-4.070769 l -6.415384,-10.818461 -24.766154,0 -4.873846,9.701538 c -0.895385,1.8 -1.255385,2.806154 -1.255385,3.858462 0,3.203077 2.806154,4.504615 9.590769,4.615384 l 1.255385,0 0,2.086154 -26.5753847,0 0,-2.086154 c 3.9692307,-0.184615 5.8799997,-0.941538 7.7907697,-3.101538 1.301538,-1.624616 2.667692,-3.784616 4.08,-6.710769 l 26.316923,-52.827693 7.68,0 33.60923,57.553846 c 2.556923,4.43077 3.35077,4.901539 7.283077,5.086154 l 0,2.086154 -43.2,0 z" style="fill:#bf331c"/>
  <path d="m 544.11692,13.310769 -5.99077,12.046154 2.16923,3.821538 11.03077,19.32 1.69847,2.963077 0.42461,0.756923 6.46154,10.956924 c 1.11692,2.058461 1.98461,3.784615 1.98461,5.76923 l 0,0 c 0,0.618462 -0.0738,1.190769 -0.18461,1.698462 l 0,0 19.18154,0 c -0.32308,-0.507693 -0.64616,-1.015385 -0.96923,-1.587692 l 0,0 -32.56616,-55.744616 -3.24,0 z m -494.030766,0 -5.944616,12.009231 2.196924,3.858461 10.993846,19.32 1.513846,2.704616 0.581538,1.015384 6.489231,10.956924 c 1.153846,2.16923 1.984615,3.821538 1.984615,5.76923 l 0,0 c 0,0.618462 -0.07385,1.19077 -0.184615,1.698462 l 0,0 19.190769,0 c -0.332307,-0.507692 -0.655384,-1.015385 -0.978461,-1.587692 l 0,0 -32.52,-55.744616 -3.323077,0 z m 337.070766,0.286154 0.89539,0.830769 0.11077,0.07385 0,-0.286153 6.16615,5.584615 57.36923,51.775385 4.86462,0 0,-13.984616 -5.04,-4.541538 -43.78154,-39.452308 -20.58462,0 z m -61.51384,0 c 1.62461,1.015385 3.02769,2.196923 4.21846,3.609231 l 0,0 0,-3.609231 -4.21846,0 z m -52.71693,0 c 0.8677,1.772308 0.93231,3.858462 0.93231,6.203077 l 0,0 0,44.750769 c 0,2.344616 -0.0642,4.356923 -0.89538,6.092308 l 0,0 20.44615,0 c -0.65538,-1.412308 -1.01538,-3.286154 -1.01538,-5.732308 l 0,0 0,-21.276923 0,-0.07385 0,-3.710769 0,-26.067693 0,-0.184615 -19.4677,0 z m -128.54769,0 c 0.83077,1.698462 1.00616,3.646154 1.00616,6.092308 l 0,0 0,44.861538 c 0,2.446154 -0.17539,4.430769 -0.96924,6.092308 l 0,0 20.40924,0 c -0.83077,-1.661539 -1.00616,-3.609231 -1.00616,-6.092308 l 0,0 0,-19.615384 0,-3.683077 0,-27.295385 0,-0.36 -19.44,0 z m 47.66769,13.633846 c 0,5.187692 -1.72615,9.950769 -4.79077,13.089231 l 0,0 c -2.81538,2.769231 -6.6,4.218461 -12.29538,4.578461 l 0,0 20.04,25.744616 18.49846,0 C 213.36,70.421538 213.17538,70.209231 213,69.996923 l 0,0 -18.49846,-24.092308 -3.38769,-4.393846 5.33538,-1.449231 c 12.33231,-3.276923 13.88308,-8.575384 13.88308,-12.830769 l 0,0 c 0,-3.895384 -2.20616,-7.144615 -6.56308,-9.664615 l 0,0 C 199.55077,15.147692 194.28,13.993846 185.80615,13.670769 l 0,0 c 3.93231,2.990769 6.24,7.790769 6.24,13.56 M 307.68,41.649231 c 0.90462,0.507692 1.80923,1.116923 2.64,1.910769 l 0,0 c 0.53538,0.507692 1.08,1.015385 1.51385,1.550769 l 0,0 0,-6.738461 c -1.15385,1.366153 -2.52923,2.446153 -4.15385,3.276923 m 20.52,28.993846 3.42462,0 0.61846,-2.815385 c -1.19077,1.015385 -2.56616,1.947692 -4.04308,2.815385" style="fill:url(#linearGradient3008)"/>
</svg>
