<?xml version="1.0" encoding="UTF-8"?>
<svg xmlns="http://www.w3.org/2000/svg" width="600pt" height="810pt" viewBox="0 0 600 810">
  <g>
    <path fill="#ffffff" stroke="#ffffff" stroke-width="0.09375" d=" M 298.27 0.00 L 302.48 0.00 C 339.18 0.49 375.87 7.31 409.98 20.97 C 458.25 39.94 501.29 71.85 533.76 112.26 C 559.53 144.22 578.67 181.52 589.42 221.15 C 596.44 246.55 599.74 272.90 600.00 299.22 L 600.00 302.53 C 599.48 364.74 579.18 426.67 542.15 476.72 C 556.94 476.66 571.74 476.72 586.53 476.69 C 586.64 585.96 586.55 695.24 586.57 804.51 C 395.52 804.49 204.48 804.49 13.43 804.51 C 13.46 695.24 13.36 585.96 13.47 476.69 C 28.26 476.73 43.06 476.66 57.85 476.72 C 33.37 443.51 15.99 405.09 7.12 364.80 C 2.52 344.38 0.39 323.47 0.00 302.57 L 0.00 299.18 C 0.24 281.00 1.74 262.81 5.14 244.95 C 14.51 193.97 37.66 145.67 71.24 106.22 C 100.60 71.57 137.87 43.61 179.48 25.36 C 216.76 8.79 257.50 0.38 298.27 0.00 M 210.80 32.80 C 166.36 47.49 125.82 73.69 93.96 107.97 C 65.98 137.87 44.68 173.98 32.05 212.94 C 18.97 253.13 15.21 296.29 20.94 338.16 C 24.91 368.36 34.17 397.76 47.53 425.10 C 56.49 420.24 63.63 412.68 69.22 404.25 C 77.72 390.64 82.93 375.33 88.19 360.26 C 78.27 324.78 77.03 286.82 85.35 250.89 C 93.41 215.36 110.62 181.98 134.73 154.68 C 160.23 125.60 193.53 103.37 230.24 91.15 C 285.27 72.52 347.66 77.03 399.37 103.52 C 446.98 127.57 485.31 169.46 504.80 219.13 C 519.10 255.04 523.56 294.79 517.56 332.96 C 517.38 335.59 516.25 338.36 517.34 340.91 C 522.21 354.41 527.17 367.93 530.04 382.03 C 531.02 387.53 534.39 392.07 537.69 396.41 C 543.40 403.25 550.22 409.13 557.61 414.11 C 582.57 357.97 588.32 293.59 573.85 233.90 C 564.31 193.88 545.66 156.11 519.94 124.03 C 491.90 89.01 455.44 60.72 414.40 42.57 C 350.92 14.09 276.73 10.60 210.80 32.80 M 343.51 161.58 C 338.56 165.18 336.40 171.18 333.28 176.21 C 342.36 189.14 361.76 188.74 369.81 202.73 C 368.67 210.33 366.30 217.78 362.23 224.32 C 356.87 233.37 349.27 240.79 343.34 249.42 C 340.94 253.18 342.03 258.07 344.56 261.47 C 348.25 266.37 352.58 270.83 357.45 274.57 C 360.36 276.80 364.18 278.40 367.88 277.43 C 371.51 276.57 374.12 273.21 377.96 273.00 C 382.58 274.36 384.07 279.58 386.60 283.15 C 394.21 294.58 400.16 306.98 405.50 319.60 C 411.58 333.23 417.51 346.93 423.52 360.59 C 426.93 368.36 430.41 376.17 432.27 384.49 C 435.07 394.62 434.09 406.17 427.85 414.88 C 419.80 425.76 407.62 432.71 399.75 443.75 C 403.63 448.75 407.49 453.76 411.39 458.75 C 424.64 453.05 437.83 446.97 451.83 443.27 C 470.10 438.35 489.42 437.18 508.11 440.14 C 518.80 441.99 529.15 445.27 539.54 448.32 C 542.93 442.45 546.24 436.54 549.63 430.68 C 541.95 425.81 534.73 420.12 528.56 413.42 C 521.48 406.38 515.33 397.93 512.79 388.14 C 507.37 363.67 497.89 340.32 487.67 317.52 C 471.70 283.09 454.21 249.31 440.38 213.94 C 438.23 208.19 438.22 201.98 437.99 195.94 C 438.01 186.57 436.86 176.98 439.62 167.86 C 436.40 165.64 433.25 162.54 429.05 162.76 C 423.90 163.03 419.03 164.83 414.03 165.89 C 406.18 167.84 398.04 167.37 390.04 167.56 C 377.92 166.67 365.50 166.19 353.97 161.93 C 350.68 160.75 346.70 159.39 343.51 161.58 M 143.69 166.24 C 139.36 172.93 134.89 179.51 130.50 186.15 C 136.12 188.79 142.05 190.59 147.97 192.39 C 152.99 194.26 158.88 195.65 162.26 200.09 C 162.48 209.56 160.24 219.00 156.88 227.84 C 153.23 239.03 148.97 250.01 144.76 260.98 C 143.79 263.56 146.58 265.00 148.58 265.62 C 157.11 267.98 163.33 275.22 172.04 277.18 C 174.79 277.72 178.50 279.25 180.62 276.60 C 184.04 272.09 185.93 266.63 188.27 261.52 C 189.86 257.91 192.23 253.33 196.85 253.51 C 200.99 254.82 203.05 259.13 206.32 261.73 C 225.11 279.11 240.37 300.37 249.92 324.18 C 265.15 359.83 273.76 397.88 280.57 435.92 C 281.39 441.29 283.11 446.53 283.27 451.99 C 283.08 457.70 281.81 463.28 280.06 468.69 C 287.81 472.56 295.56 476.43 303.31 480.31 C 310.12 466.02 321.24 454.19 334.07 445.09 C 343.01 438.27 352.28 431.89 361.50 425.46 C 355.00 400.92 344.83 377.44 339.77 352.50 C 336.76 336.91 336.10 320.19 342.13 305.21 C 344.14 299.35 348.87 294.43 349.08 288.00 C 349.68 284.91 347.51 282.43 345.77 280.18 C 342.52 276.08 339.88 271.32 335.47 268.31 C 330.39 264.78 323.06 265.43 318.36 269.32 C 313.79 273.06 310.69 278.58 305.05 280.98 C 298.84 272.16 292.57 263.39 286.41 254.55 C 281.17 246.40 276.04 238.19 270.83 230.03 C 258.59 210.10 247.99 189.21 238.46 167.86 C 206.85 168.55 175.30 165.22 143.69 166.24 M 141.43 279.47 C 138.86 281.66 137.38 284.78 135.76 287.67 C 121.01 315.05 112.73 345.19 102.67 374.45 C 97.97 387.55 92.88 400.63 85.59 412.54 C 78.19 424.18 68.58 434.80 56.19 441.22 C 59.94 447.14 63.69 453.08 67.44 459.00 C 72.85 455.00 78.63 451.55 84.83 448.94 C 106.98 439.97 131.59 438.65 155.08 441.88 C 156.49 442.22 158.46 441.97 158.68 440.21 C 159.22 436.41 158.43 432.58 158.64 428.77 C 150.71 424.20 142.53 418.69 138.70 410.02 C 137.85 405.37 139.47 400.70 139.77 396.06 C 141.81 374.91 149.61 354.94 157.67 335.48 C 161.95 324.38 166.06 313.22 170.27 302.10 C 171.15 299.55 172.41 296.84 171.60 294.10 C 171.13 291.91 168.99 290.76 167.13 289.88 C 160.58 286.84 154.11 283.61 147.52 280.65 C 145.60 279.91 143.53 278.82 141.43 279.47 M 447.12 463.94 C 440.14 468.94 434.07 475.16 426.77 479.74 C 405.41 494.95 381.24 506.25 355.87 512.86 C 306.00 526.02 251.28 521.35 204.94 498.39 C 197.78 495.40 191.28 491.13 184.57 487.29 C 178.52 483.91 173.16 479.49 167.46 475.58 C 160.47 470.82 154.73 464.47 147.96 459.47 C 140.66 458.86 133.33 458.27 126.01 458.68 C 109.26 459.63 91.74 463.22 78.21 473.74 C 105.55 508.33 140.84 536.72 180.89 555.26 C 247.08 586.54 325.68 590.13 394.53 565.33 C 448.32 546.41 495.65 510.32 528.97 464.13 C 518.75 461.45 508.61 458.09 498.02 457.20 C 480.84 455.88 463.31 457.96 447.12 463.94 M 30.27 493.53 C 30.24 591.58 30.28 689.62 30.25 787.66 C 209.97 787.69 389.70 787.56 569.42 787.73 C 569.63 787.36 570.05 786.61 570.25 786.24 C 569.83 784.01 569.69 781.74 569.63 779.49 L 570.28 779.52 C 570.28 778.51 570.29 776.48 570.29 775.46 L 569.51 775.47 C 569.78 773.98 570.05 772.49 570.31 771.02 C 570.05 769.51 569.79 768.01 569.52 766.52 L 570.54 766.43 C 570.34 765.82 569.94 764.60 569.74 764.00 C 569.84 762.65 569.99 761.32 570.18 760.00 C 569.48 755.71 569.60 751.31 570.11 747.01 C 569.41 742.06 569.89 737.06 569.75 732.08 C 569.73 652.57 569.77 573.05 569.72 493.53 C 556.15 493.58 542.57 493.50 529.00 493.57 C 500.67 526.89 465.16 554.16 425.40 572.43 C 383.24 592.04 336.41 601.36 289.96 599.74 C 246.92 598.42 204.21 587.58 165.76 568.18 C 129.56 550.06 97.22 524.40 71.00 493.57 C 57.42 493.50 43.85 493.58 30.27 493.53 Z"/>
    <path fill="#ffffff" stroke="#ffffff" stroke-width="0.09375" d=" M 35.84 780.00 C 42.80 727.30 49.75 674.60 56.72 621.90 C 76.55 621.90 96.38 621.89 116.21 621.90 C 124.05 674.60 131.88 727.30 139.72 780.00 C 125.69 780.00 111.67 779.99 97.65 780.00 C 96.95 770.53 96.28 761.05 95.60 751.58 C 90.68 751.58 85.77 751.58 80.85 751.58 C 80.02 761.05 79.23 770.53 78.41 780.00 C 64.22 780.00 50.03 780.00 35.84 780.00 M 80.36 723.55 C 85.05 723.56 89.73 723.55 94.42 723.55 C 91.90 701.60 90.00 679.58 88.18 657.56 C 85.10 679.50 82.19 701.47 80.36 723.55 Z"/>
    <path fill="#ffffff" stroke="#ffffff" stroke-width="0.09375" d=" M 153.20 621.90 C 170.80 622.01 188.41 621.56 206.00 622.43 C 212.29 622.88 218.74 623.04 224.77 625.09 C 232.67 627.73 238.93 634.35 241.71 642.13 C 244.95 651.38 245.15 661.37 244.81 671.07 C 244.38 677.36 243.92 684.05 240.52 689.55 C 236.42 695.28 228.91 696.62 222.39 697.48 C 227.27 698.88 232.29 700.34 236.40 703.44 C 239.03 705.55 240.96 708.41 242.52 711.37 C 245.04 716.16 244.59 721.72 244.88 726.95 C 245.13 744.63 244.94 762.32 245.00 780.00 C 232.27 780.00 219.55 780.00 206.82 780.00 C 206.82 763.33 206.81 746.66 206.83 729.99 C 206.66 724.25 207.10 718.29 205.26 712.76 C 203.45 708.62 198.06 709.09 194.33 708.63 C 194.29 732.42 194.32 756.21 194.31 780.00 C 180.61 780.00 166.91 780.00 153.21 780.00 C 153.21 727.30 153.21 674.60 153.20 621.90 M 194.32 648.87 C 194.31 660.63 194.31 672.40 194.32 684.17 C 197.96 683.74 202.71 684.26 205.10 680.87 C 207.24 676.24 206.66 670.95 206.83 666.00 C 206.66 661.40 207.41 656.31 204.89 652.21 C 202.40 649.04 197.93 649.22 194.32 648.87 Z"/>
    <path fill="#ffffff" stroke="#ffffff" stroke-width="0.09375" d=" M 267.20 621.90 C 290.05 621.89 312.90 621.90 335.75 621.90 C 335.76 632.44 335.76 642.99 335.76 653.53 C 326.61 653.53 317.46 653.53 308.32 653.53 C 308.31 663.53 308.31 673.52 308.31 683.52 C 316.88 683.51 325.44 683.52 334.00 683.52 C 334.00 693.54 334.00 703.57 334.00 713.59 C 325.44 713.59 316.88 713.59 308.32 713.59 C 308.31 725.18 308.30 736.77 308.32 748.36 C 318.37 748.35 328.43 748.36 338.49 748.36 C 338.49 758.91 338.49 769.45 338.49 780.00 C 314.72 780.00 290.96 780.00 267.20 780.00 C 267.21 727.30 267.21 674.60 267.20 621.90 Z"/>
    <path fill="#ffffff" stroke="#ffffff" stroke-width="0.09375" d=" M 356.20 621.90 C 367.66 621.90 379.12 621.89 390.58 621.90 C 398.26 645.58 405.87 669.28 413.61 692.93 C 413.66 669.25 413.61 645.58 413.63 621.90 C 425.09 621.89 436.54 621.90 448.00 621.90 C 448.00 674.60 448.00 727.30 448.00 780.00 C 435.99 780.00 423.97 780.00 411.96 780.00 C 404.82 756.10 397.79 732.16 390.59 708.27 C 390.55 732.18 390.59 756.09 390.57 780.00 C 379.12 780.00 367.66 780.00 356.21 780.00 C 356.21 727.30 356.21 674.60 356.20 621.90 Z"/>
    <path fill="#ffffff" stroke="#ffffff" stroke-width="0.09375" d=" M 460.84 780.00 C 467.80 727.30 474.75 674.60 481.72 621.90 C 501.55 621.90 521.38 621.89 541.21 621.90 C 549.05 674.60 556.88 727.30 564.72 780.00 C 550.69 780.00 536.67 780.00 522.65 780.00 C 521.95 770.53 521.28 761.05 520.60 751.58 C 515.68 751.58 510.76 751.58 505.85 751.58 C 505.02 761.05 504.23 770.53 503.41 780.00 C 489.21 780.00 475.02 780.00 460.84 780.00 M 505.36 723.55 C 510.04 723.56 514.73 723.55 519.42 723.55 C 516.90 701.58 514.99 679.55 513.18 657.51 C 510.11 679.46 507.19 701.45 505.36 723.55 Z"/>
  </g>
  <g>
    <path stroke="#000000" stroke-width="0.09375" d=" M 210.80 32.80 C 276.73 10.60 350.92 14.09 414.40 42.57 C 455.44 60.72 491.90 89.01 519.94 124.03 C 545.66 156.11 564.31 193.88 573.85 233.90 C 588.32 293.59 582.57 357.97 557.61 414.11 C 550.22 409.13 543.40 403.25 537.69 396.41 C 534.39 392.07 531.02 387.53 530.04 382.03 C 527.17 367.93 522.21 354.41 517.34 340.91 C 516.25 338.36 517.38 335.59 517.56 332.96 C 523.56 294.79 519.10 255.04 504.80 219.13 C 485.31 169.46 446.98 127.57 399.37 103.52 C 347.66 77.03 285.27 72.52 230.24 91.15 C 193.53 103.37 160.23 125.60 134.73 154.68 C 110.62 181.98 93.41 215.36 85.35 250.89 C 77.03 286.82 78.27 324.78 88.19 360.26 C 82.93 375.33 77.72 390.64 69.22 404.25 C 63.63 412.68 56.49 420.24 47.53 425.10 C 34.17 397.76 24.91 368.36 20.94 338.16 C 15.21 296.29 18.97 253.13 32.05 212.94 C 44.68 173.98 65.98 137.87 93.96 107.97 C 125.82 73.69 166.36 47.49 210.80 32.80 Z"/>
    <path stroke="#000000" stroke-width="0.09375" d=" M 343.51 161.58 C 346.70 159.39 350.68 160.75 353.97 161.93 C 365.50 166.19 377.92 166.67 390.04 167.56 C 398.04 167.37 406.18 167.84 414.03 165.89 C 419.03 164.83 423.90 163.03 429.05 162.76 C 433.25 162.54 436.40 165.64 439.62 167.86 C 436.86 176.98 438.01 186.57 437.99 195.94 C 438.22 201.98 438.23 208.19 440.38 213.94 C 454.21 249.31 471.70 283.09 487.67 317.52 C 497.89 340.32 507.37 363.67 512.79 388.14 C 515.33 397.93 521.48 406.38 528.56 413.42 C 534.73 420.12 541.95 425.81 549.63 430.68 C 546.24 436.54 542.93 442.45 539.54 448.32 C 529.15 445.27 518.80 441.99 508.11 440.14 C 489.42 437.18 470.10 438.35 451.83 443.27 C 437.83 446.97 424.64 453.05 411.39 458.75 C 407.49 453.76 403.63 448.75 399.75 443.75 C 407.62 432.71 419.80 425.76 427.85 414.88 C 434.09 406.17 435.07 394.62 432.27 384.49 C 430.41 376.17 426.93 368.36 423.52 360.59 C 417.51 346.93 411.58 333.23 405.50 319.60 C 400.16 306.98 394.21 294.58 386.60 283.15 C 384.07 279.58 382.58 274.36 377.96 273.00 C 374.12 273.21 371.51 276.57 367.88 277.43 C 364.18 278.40 360.36 276.80 357.45 274.57 C 352.58 270.83 348.25 266.37 344.56 261.47 C 342.03 258.07 340.94 253.18 343.34 249.42 C 349.27 240.79 356.87 233.37 362.23 224.32 C 366.30 217.78 368.67 210.33 369.81 202.73 C 361.76 188.74 342.36 189.14 333.28 176.21 C 336.40 171.18 338.56 165.18 343.51 161.58 Z"/>
    <path stroke="#000000" stroke-width="0.09375" d=" M 143.69 166.24 C 175.30 165.22 206.85 168.55 238.46 167.86 C 247.99 189.21 258.59 210.10 270.83 230.03 C 276.04 238.19 281.17 246.40 286.41 254.55 C 292.57 263.39 298.84 272.16 305.05 280.98 C 310.69 278.58 313.79 273.06 318.36 269.32 C 323.06 265.43 330.39 264.78 335.47 268.31 C 339.88 271.32 342.52 276.08 345.77 280.18 C 347.51 282.43 349.68 284.91 349.08 288.00 C 348.87 294.43 344.14 299.35 342.13 305.21 C 336.10 320.19 336.76 336.91 339.77 352.50 C 344.83 377.44 355.00 400.92 361.50 425.46 C 352.28 431.89 343.01 438.27 334.07 445.09 C 321.24 454.19 310.12 466.02 303.31 480.31 C 295.56 476.43 287.81 472.56 280.06 468.69 C 281.81 463.28 283.08 457.70 283.27 451.99 C 283.11 446.53 281.39 441.29 280.57 435.92 C 273.76 397.88 265.15 359.83 249.92 324.18 C 240.37 300.37 225.11 279.11 206.32 261.73 C 203.05 259.13 200.99 254.82 196.85 253.51 C 192.23 253.33 189.86 257.91 188.27 261.52 C 185.93 266.63 184.04 272.09 180.62 276.60 C 178.50 279.25 174.79 277.72 172.04 277.18 C 163.33 275.22 157.11 267.98 148.58 265.62 C 146.58 265.00 143.79 263.56 144.76 260.98 C 148.97 250.01 153.23 239.03 156.88 227.84 C 160.24 219.00 162.48 209.56 162.26 200.09 C 158.88 195.65 152.99 194.26 147.97 192.39 C 142.05 190.59 136.12 188.79 130.50 186.15 C 134.89 179.51 139.36 172.93 143.69 166.24 Z"/>
    <path stroke="#000000" stroke-width="0.09375" d=" M 141.43 279.47 C 143.53 278.82 145.60 279.91 147.52 280.65 C 154.11 283.61 160.58 286.84 167.13 289.88 C 168.99 290.76 171.13 291.91 171.60 294.10 C 172.41 296.84 171.15 299.55 170.27 302.10 C 166.06 313.22 161.95 324.38 157.67 335.48 C 149.61 354.94 141.81 374.91 139.77 396.06 C 139.47 400.70 137.85 405.37 138.70 410.02 C 142.53 418.69 150.71 424.20 158.64 428.77 C 158.43 432.58 159.22 436.41 158.68 440.21 C 158.46 441.97 156.49 442.22 155.08 441.88 C 131.59 438.65 106.98 439.97 84.83 448.94 C 78.63 451.55 72.85 455.00 67.44 459.00 C 63.69 453.08 59.94 447.14 56.19 441.22 C 68.58 434.80 78.19 424.18 85.59 412.54 C 92.88 400.63 97.97 387.55 102.67 374.45 C 112.73 345.19 121.01 315.05 135.76 287.67 C 137.38 284.78 138.86 281.66 141.43 279.47 Z"/>
    <path stroke="#000000" stroke-width="0.09375" d=" M 447.12 463.94 C 463.31 457.96 480.84 455.88 498.02 457.20 C 508.61 458.09 518.75 461.45 528.97 464.13 C 495.65 510.32 448.32 546.41 394.53 565.33 C 325.68 590.13 247.08 586.54 180.89 555.26 C 140.84 536.72 105.55 508.33 78.21 473.74 C 91.74 463.22 109.26 459.63 126.01 458.68 C 133.33 458.27 140.66 458.86 147.96 459.47 C 154.73 464.47 160.47 470.82 167.46 475.58 C 173.16 479.49 178.52 483.91 184.57 487.29 C 191.28 491.13 197.78 495.40 204.94 498.39 C 251.28 521.35 306.00 526.02 355.87 512.86 C 381.24 506.25 405.41 494.95 426.77 479.74 C 434.07 475.16 440.14 468.94 447.12 463.94 Z"/>
    <path stroke="#000000" stroke-width="0.09375" d=" M 30.27 493.53 C 43.85 493.58 57.42 493.50 71.00 493.57 C 97.22 524.40 129.56 550.06 165.76 568.18 C 204.21 587.58 246.92 598.42 289.96 599.74 C 336.41 601.36 383.24 592.04 425.40 572.43 C 465.16 554.16 500.67 526.89 529.00 493.57 C 542.57 493.50 556.15 493.58 569.72 493.53 C 569.77 573.05 569.73 652.57 569.75 732.08 C 569.89 737.06 569.41 742.06 570.11 747.01 C 569.60 751.31 569.48 755.71 570.18 760.00 C 569.99 761.32 569.84 762.65 569.74 764.00 C 569.94 764.60 570.34 765.82 570.54 766.43 L 569.52 766.52 C 569.79 768.01 570.05 769.51 570.31 771.02 C 570.05 772.49 569.78 773.98 569.51 775.47 L 570.29 775.46 C 570.29 776.48 570.28 778.51 570.28 779.52 L 569.63 779.49 C 569.69 781.74 569.83 784.01 570.25 786.24 C 570.05 786.61 569.63 787.36 569.42 787.73 C 389.70 787.56 209.97 787.69 30.25 787.66 C 30.28 689.62 30.24 591.58 30.27 493.53 M 35.84 780.00 C 50.03 780.00 64.22 780.00 78.41 780.00 C 79.23 770.53 80.02 761.05 80.85 751.58 C 85.77 751.58 90.68 751.58 95.60 751.58 C 96.28 761.05 96.95 770.53 97.65 780.00 C 111.67 779.99 125.69 780.00 139.72 780.00 C 131.88 727.30 124.05 674.60 116.21 621.90 C 96.38 621.89 76.55 621.90 56.72 621.90 C 49.75 674.60 42.80 727.30 35.84 780.00 M 153.20 621.90 C 153.21 674.60 153.21 727.30 153.21 780.00 C 166.91 780.00 180.61 780.00 194.31 780.00 C 194.32 756.21 194.29 732.42 194.33 708.63 C 198.06 709.09 203.45 708.62 205.26 712.76 C 207.10 718.29 206.66 724.25 206.83 729.99 C 206.81 746.66 206.82 763.33 206.82 780.00 C 219.55 780.00 232.27 780.00 245.00 780.00 C 244.94 762.32 245.13 744.63 244.88 726.95 C 244.59 721.72 245.04 716.16 242.52 711.37 C 240.96 708.41 239.03 705.55 236.40 703.44 C 232.29 700.34 227.27 698.88 222.39 697.48 C 228.91 696.62 236.42 695.28 240.52 689.55 C 243.92 684.05 244.38 677.36 244.81 671.07 C 245.15 661.37 244.95 651.38 241.71 642.13 C 238.93 634.35 232.67 627.73 224.77 625.09 C 218.74 623.04 212.29 622.88 206.00 622.43 C 188.41 621.56 170.80 622.01 153.20 621.90 M 267.20 621.90 C 267.21 674.60 267.21 727.30 267.20 780.00 C 290.96 780.00 314.72 780.00 338.49 780.00 C 338.49 769.45 338.49 758.91 338.49 748.36 C 328.43 748.36 318.37 748.35 308.32 748.36 C 308.30 736.77 308.31 725.18 308.32 713.59 C 316.88 713.59 325.44 713.59 334.00 713.59 C 334.00 703.57 334.00 693.54 334.00 683.52 C 325.44 683.52 316.88 683.51 308.31 683.52 C 308.31 673.52 308.31 663.53 308.32 653.53 C 317.46 653.53 326.61 653.53 335.76 653.53 C 335.76 642.99 335.76 632.44 335.75 621.90 C 312.90 621.90 290.05 621.89 267.20 621.90 M 356.20 621.90 C 356.21 674.60 356.21 727.30 356.21 780.00 C 367.66 780.00 379.12 780.00 390.57 780.00 C 390.59 756.09 390.55 732.18 390.59 708.27 C 397.79 732.16 404.82 756.10 411.96 780.00 C 423.97 780.00 435.99 780.00 448.00 780.00 C 448.00 727.30 448.00 674.60 448.00 621.90 C 436.54 621.90 425.09 621.89 413.63 621.90 C 413.61 645.58 413.66 669.25 413.61 692.93 C 405.87 669.28 398.26 645.58 390.58 621.90 C 379.12 621.89 367.66 621.90 356.20 621.90 M 460.84 780.00 C 475.02 780.00 489.21 780.00 503.41 780.00 C 504.23 770.53 505.02 761.05 505.85 751.58 C 510.76 751.58 515.68 751.58 520.60 751.58 C 521.28 761.05 521.95 770.53 522.65 780.00 C 536.67 780.00 550.69 780.00 564.72 780.00 C 556.88 727.30 549.05 674.60 541.21 621.90 C 521.38 621.89 501.55 621.90 481.72 621.90 C 474.75 674.60 467.80 727.30 460.84 780.00 Z"/>
    <path stroke="#000000" stroke-width="0.09375" d=" M 194.32 648.87 C 197.93 649.22 202.40 649.04 204.89 652.21 C 207.41 656.31 206.66 661.40 206.83 666.00 C 206.66 670.95 207.24 676.24 205.10 680.87 C 202.71 684.26 197.96 683.74 194.32 684.17 C 194.31 672.40 194.31 660.63 194.32 648.87 Z"/>
    <path stroke="#000000" stroke-width="0.09375" d=" M 80.36 723.55 C 82.19 701.47 85.10 679.50 88.18 657.56 C 90.00 679.58 91.90 701.60 94.42 723.55 C 89.73 723.55 85.05 723.56 80.36 723.55 Z"/>
    <path stroke="#000000" stroke-width="0.09375" d=" M 505.36 723.55 C 507.19 701.45 510.11 679.46 513.18 657.51 C 514.99 679.55 516.90 701.58 519.42 723.55 C 514.73 723.55 510.04 723.56 505.36 723.55 Z"/>
  </g>
</svg>
