<?xml version="1.0" encoding="utf-8"?>
<svg xmlns:svg="http://www.w3.org/2000/svg" xmlns="http://www.w3.org/2000/svg" xmlns:xlink="http://www.w3.org/1999/xlink" version="1.1" id="svg4498" x="0px" y="0px" width="600px" height="252.982px" viewBox="-620.5 281.311 600 252.982" enable-background="new -620.5 281.311 600 252.982">
  <path fill="#808080" d="M-480.641,337.516c0,0-43.437-24.609-82.646-40.801c0,0,45.677-4.736,69.167-4.736  c12.147,0,23.602,0.536,34.047,1.554c35.453,3.507,103.722,15.284,175.276,54.716c1.092-8.642,2.275-14.313,2.313-14.424  l1.379-6.394l0.935-4.45l4.126-1.979l5.921-2.821c18.541-8.781,40.838-13.268,66.317-13.268c50.274,0,97.542,17.495,102.788,19.447  l13.221,5.125l4.774,0.223c-2.425-4.663-3.72-9.863-3.72-15.247c0-18.291,14.85-33.149,33.104-33.149  c18.244,0,33.14,14.858,33.14,33.149c0,18.208-14.896,33.103-33.14,33.103c-0.547,0-1.083-0.037-1.629-0.037l1.768,7.014  l-110.365,179.754l-31.697-22.334l44.058-76.106l-7.087-4.662c-13.48-8.493-27.94-14.313-43.077-17.209  c-1.156,14.1-7.559,31.984-26.673,39.83c-5.208,2.164-11.49,3.283-18.217,3.283c-8.669,0-22.111-1.84-37.146-10.731  c-3.84-2.276-96.358-55.835-195.557-55.835c-35.203,0-141.238,6.468-141.238,6.468S-560.576,362.126-480.641,337.516"/>
  <path d="M-148.435,380.805l-11.786-1.008l13.767,32.455c-58.972-37.368-114.991-17.708-114.991-17.708  c-5.894-23.602,1.008-56.021,1.008-56.021c59.925-28.477,151.323,6.902,151.323,6.902  C-138.609,365.05-148.435,380.805-148.435,380.805 M-224.476,419.59l-14.35-7.337c6.865-5.894,14.748-4.913,14.748-4.913  L-224.476,419.59L-224.476,419.59z M-272.252,426.963c-21.612-12.758-125.807-66.825-230.935-57.972  c0,0,42.243-14.748,77.632-20.632c0,0-7.846-12.759-51.107-33.399c0,0,96.313,0.98,196.564,61.914c0,0,0,16.689,5.894,30.466  c5.894,13.73,14.748,9.789,14.748,9.789s13.729,10.843,25.544,14.747C-233.912,431.876-250.64,439.749-272.252,426.963   M-128.774,417.129c0,0-3.33-10.409-10.195-25.156c0,0,19.05-21.029,45.574-34.759L-128.774,417.129L-128.774,417.129z   M-53.64,290.6c-13.156,0-23.852,10.667-23.852,23.86c0,6.569,2.674,12.499,6.976,16.839l-4.7,7.984l-14.497-0.574  c-6.754-2.609-14.6-5.681-14.6-5.681c-3.969-1.518-97.468-37.072-161.833-6.467l-5.931,2.821l-1.369,6.394  c-0.185,0.833-2.6,12.722-3.396,27.681c-76.8-45.713-152.442-57.564-184.14-60.71c-33.963-3.358-67.76-0.074-67.76-0.074  c45.214,21.141,72.932,38.524,72.932,38.524s-41.484,5.672-120.598,44.492l74.339-3.469c110.772-9.326,218.538,53.484,223.09,56.158  c18.364,10.88,36.646,11.204,47.092,6.864c25.405-10.445,20.779-41.956,20.779-41.956c16.912,1.739,36.934,7.124,57.537,20.169  l14.488,9.428l-44.232,76.401l16.699,11.786l103.177-168.06l-1.952-7.836l4.736-8.059c2.202,0.686,4.552,1.193,7.013,1.193  c13.193,0,23.852-10.704,23.852-23.851C-29.789,301.267-40.447,290.6-53.64,290.6"/>
</svg>
