<?xml version="1.0" encoding="UTF-8" standalone="no"?>
<svg xmlns="http://www.w3.org/2000/svg" version="1.1" x="0px" y="0px" width="600px" height="252.982px" viewBox="619.5 -276.009 600 252.982">
  <path d="M1219.5-242.86c0-18.291-14.858-33.149-33.14-33.149c-18.254,0-33.104,14.858-33.104,33.147  c0,5.384,1.295,10.584,3.72,15.247l-4.773-0.223l-13.221-5.125c-5.246-1.951-52.515-19.446-102.788-19.446  c-25.479,0-47.776,4.486-66.317,13.267l-5.921,2.822l-4.126,1.979l-0.936,4.45l-1.379,6.395c-0.037,0.109-1.22,5.781-2.274,14.423  c-71.591-39.432-139.86-51.209-175.313-54.715c-10.445-1.018-21.898-1.555-34.047-1.555c-23.49,0-69.167,4.737-69.167,4.737  c39.209,16.19,82.646,40.801,82.646,40.801c-79.973,24.61-139.859,59.48-139.859,59.48s106.035-6.468,141.238-6.468  c99.199,0,191.717,53.56,195.557,55.835c15.035,8.892,28.478,10.731,37.183,10.731c6.69,0,12.973-1.119,18.181-3.283  c19.114-7.846,25.517-25.729,26.674-39.83c15.136,2.896,29.633,8.716,43.076,17.209l7.087,4.662l-44.058,76.106l31.696,22.334  l110.402-179.754l-1.806-7.014c0.547,0,1.082,0.037,1.63,0.037C1204.642-209.757,1219.5-224.652,1219.5-242.86z M1111.226-140.192  c0,0-3.33-10.409-10.195-25.156c0,0,19.05-21.029,45.574-34.759L1111.226-140.192z"/>
  <linearGradient id="SVGID_1_" gradientUnits="userSpaceOnUse" x1="732.1133" y1="-52.9504" x2="1175.6992" y2="-309.0549">
    <stop offset="0.15" style="stop-color:#536E78" id="stop6"/>
    <stop offset="0.35" style="stop-color:#D9EAF3" id="stop8"/>
    <stop offset="0.5" style="stop-color:#536E78" id="stop10"/>
    <stop offset="0.65" style="stop-color:#D9E9F2" id="stop12"/>
    <stop offset="0.85" style="stop-color:#536E78" id="stop14"/>
  </linearGradient>
  <path fill="url(#SVGID_1_)" d="M1186.36-266.72c-13.156,0-23.853,10.667-23.853,23.86c0,6.568,2.674,12.499,6.977,16.838l-4.7,7.984  l-14.497-0.574c-6.754-2.609-14.6-5.682-14.6-5.682c-3.941-1.518-97.469-37.071-161.834-6.467l-5.931,2.821l-1.369,6.394  c-0.146,0.833-2.6,12.722-3.396,27.682c-76.799-45.674-152.441-57.563-184.139-60.708c-33.963-3.358-67.76-0.074-67.76-0.074  c45.215,21.141,72.895,38.525,72.895,38.525s-41.447,5.671-120.561,44.491l74.338-3.47c110.735-9.326,218.538,53.485,223.091,56.159  c18.363,10.88,36.684,11.204,47.092,6.864c25.404-10.445,20.778-41.957,20.778-41.957c16.912,1.703,36.972,7.125,57.537,20.169  l14.488,9.428l-44.232,76.401l16.699,11.785L1176.6-204.307l-1.988-7.836l4.735-8.058c2.239,0.685,4.553,1.192,7.015,1.192  c13.191,0,23.851-10.705,23.851-23.851C1210.211-256.053,1199.553-266.72,1186.36-266.72z M1111.226-140.192  c0,0-3.33-10.409-10.195-25.156c0,0,19.05-21.029,45.574-34.759L1111.226-140.192z"/>
</svg>
