<?xml version="1.0" encoding="utf-8"?>
<svg xmlns="http://www.w3.org/2000/svg" version="1.1" x="0px" y="0px" width="600px" height="252.982px" viewBox="619.5 8.329 600 252.982">
  <path fill="#ffffff" d="M1219.5,41.478c0-18.291-14.858-33.149-33.14-33.149c-18.254,0-33.104,14.858-33.104,33.149  c0,5.384,1.295,10.584,3.72,15.247l-4.774-0.223l-13.221-5.125c-5.246-1.952-52.514-19.447-102.788-19.447  c-25.479,0-47.776,4.486-66.317,13.268l-5.921,2.821l-4.126,1.979l-0.935,4.45l-1.379,6.394c-0.037,0.111-1.221,5.782-2.275,14.424  c-71.592-39.432-139.86-51.209-175.313-54.716c-10.445-1.018-21.899-1.554-34.047-1.554c-23.49,0-69.167,4.736-69.167,4.736  c39.21,16.191,82.646,40.801,82.646,40.801c-79.973,24.609-139.859,59.48-139.859,59.48s106.035-6.468,141.238-6.468  c99.198,0,191.717,53.559,195.557,55.835c15.034,8.892,28.477,10.731,37.183,10.731c6.689,0,12.972-1.119,18.18-3.283  c19.114-7.846,25.517-25.73,26.674-39.83c15.136,2.896,29.633,8.716,43.076,17.209l7.087,4.662l-44.058,76.106l31.697,22.334  l110.402-179.754l-1.805-7.014c0.546,0,1.082,0.037,1.629,0.037C1204.642,74.581,1219.5,59.686,1219.5,41.478z M1111.226,144.146  c0,0-3.33-10.409-10.195-25.156c0,0,19.05-21.029,45.574-34.759L1111.226,144.146z"/>
  <linearGradient id="SVGID_1_" gradientUnits="userSpaceOnUse" x1="732.1133" y1="231.3865" x2="1175.6989" y2="-24.7178">
    <stop offset="0.15" style="stop-color:#612C75"/>
    <stop offset="0.35" style="stop-color:#BF99C3"/>
    <stop offset="0.5" style="stop-color:#7B5190"/>
    <stop offset="0.65" style="stop-color:#BF99C3"/>
    <stop offset="0.85" style="stop-color:#612C75"/>
  </linearGradient>
  <path fill="url(#SVGID_1_)" d="M1186.36,17.618c-13.156,0-23.852,10.667-23.852,23.86c0,6.569,2.674,12.499,6.976,16.839l-4.7,7.984  l-14.497-0.574c-6.754-2.609-14.6-5.681-14.6-5.681c-3.941-1.518-97.468-37.072-161.833-6.467l-5.931,2.821l-1.369,6.394  c-0.147,0.833-2.6,12.722-3.396,27.681c-76.8-45.676-152.442-57.564-184.14-60.71c-33.963-3.358-67.76-0.074-67.76-0.074  c45.214,21.141,72.895,38.524,72.895,38.524s-41.447,5.672-120.561,44.492l74.339-3.469c110.735-9.326,218.538,53.484,223.09,56.158  c18.364,10.88,36.684,11.204,47.092,6.864c25.405-10.445,20.779-41.956,20.779-41.956c16.912,1.702,36.971,7.124,57.537,20.169  l14.488,9.428l-44.232,76.401l16.699,11.786L1176.6,80.03l-1.989-7.836l4.736-8.059c2.239,0.686,4.552,1.193,7.014,1.193  c13.192,0,23.851-10.704,23.851-23.851C1210.211,28.285,1199.553,17.618,1186.36,17.618z M1111.226,144.146  c0,0-3.33-10.409-10.195-25.156c0,0,19.05-21.029,45.574-34.759L1111.226,144.146z"/>
</svg>
