<?xml version="1.0" encoding="UTF-8" standalone="no"?>
<svg xmlns="http://www.w3.org/2000/svg" version="1.1" x="0px" y="0px" width="600px" height="252.982px" viewBox="-620.5 8.329 600 252.982">
  <path d="M-20.5,41.482c0-18.293-14.823-33.153-33.107-33.153c-18.256,0-33.106,14.86-33.106,33.153  c0,5.386,1.295,10.586,3.72,15.249l-4.775-0.222l-13.222-5.126c-5.247-1.953-52.521-19.45-102.801-19.45  c-25.483,0-47.782,4.487-66.325,13.269l-5.922,2.822l-4.127,1.98l-0.935,4.45l-1.379,6.395c-0.037,0.11-1.222,5.782-2.276,14.425  c-71.6-39.436-139.877-51.215-175.334-54.722c-10.447-1.018-21.902-1.555-34.052-1.555c-23.493,0-69.175,4.737-69.175,4.737  c39.214,16.193,82.656,40.806,82.656,40.806c-79.945,24.613-139.84,59.487-139.84,59.487s106.012-6.468,141.219-6.468  c99.211,0,191.74,53.565,195.58,55.842c15.036,8.893,28.48,10.733,37.188,10.733c6.69,0,12.973-1.119,18.183-3.285  c19.116-7.846,25.52-25.732,26.676-39.834c15.139,2.896,29.638,8.717,43.082,17.211l7.088,4.663l-44.063,76.115l31.7,22.337  L-53.432,81.566l-1.804-7.014c0.546,0,1.082,0.037,1.628,0.037C-35.323,74.59-20.5,59.692-20.5,41.482z M-128.774,144.146  c0,0-3.33-10.409-10.195-25.156c0,0,19.05-21.029,45.574-34.759L-128.774,144.146z"/>
  <linearGradient id="SVGID_1_" gradientUnits="userSpaceOnUse" x1="-507.9097" y1="231.4158" x2="-64.2693" y2="-24.7201">
    <stop offset="0.15" style="stop-color:#8B723C" id="stop6"/>
    <stop offset="0.35" style="stop-color:#EBD491" id="stop8"/>
    <stop offset="0.5" style="stop-color:#8B723C" id="stop10"/>
    <stop offset="0.65" style="stop-color:#D2BB7B" id="stop12"/>
    <stop offset="0.85" style="stop-color:#8B723C" id="stop14"/>
  </linearGradient>
  <path fill="url(#SVGID_1_)" d="M-53.607,17.619c-13.157,0-23.854,10.669-23.854,23.863c0,6.57,2.674,12.501,6.977,16.841  l-4.701,7.985l-14.499-0.574c-6.755-2.609-14.602-5.681-14.602-5.681c-3.941-1.518-97.479-37.077-161.853-6.468l-5.932,2.822  l-1.369,6.394c-0.148,0.833-2.6,12.723-3.396,27.685c-76.81-45.682-152.462-57.572-184.162-60.718  c-33.968-3.359-67.769-0.074-67.769-0.074c45.219,21.144,72.941,38.529,72.941,38.529s-41.49,5.672-120.613,44.498l74.348-3.47  c110.786-9.327,218.564,53.491,223.117,56.165c18.367,10.882,36.688,11.205,47.098,6.866c25.408-10.447,20.782-41.963,20.782-41.963  c16.914,1.703,36.975,7.125,57.544,20.172l14.49,9.429l-44.238,76.411l16.702,11.788L-63.369,80.04l-1.989-7.838l4.737-8.059  c2.239,0.685,4.553,1.193,7.014,1.193c13.195,0,23.854-10.706,23.854-23.854C-29.753,28.288-40.412,17.619-53.607,17.619z   M-128.774,144.146c0,0-3.33-10.409-10.195-25.156c0,0,19.05-21.029,45.574-34.759L-128.774,144.146z"/>
</svg>
