<?xml version="1.0" encoding="UTF-8" standalone="no"?>
<svg xmlns="http://www.w3.org/2000/svg" xmlns:xlink="http://www.w3.org/1999/xlink" version="1.1" width="543.90631" height="568.625">
  <path d="M 220.59375,0 164.1875,97.71875 51.34375,97.75 0,186.65625 56.40625,284.3125 0,382.0625 l 51.34375,88.90625 112.84375,0 56.40625,97.65625 102.6875,0 56.40625,-97.71875 112.8438,-0.0312 51.3437,-88.90625 -56.375,-97.59375 56.4063,-97.75 -51.3438,-88.90625 -112.84375,0 L 323.28125,5e-5 z"/>
  <path d="m 260.3125,44.0625 c -15.08202,17.49006 -23.6875,74.375 -23.6875,74.375 l -22.71875,-46.625 -15.09375,22.71875 28.96875,65.59375 -0.6875,46.46875 -40.59375,-22.625 -42.3125,-57.90625 -27.25,1.75 29.03125,43 c 0,0 -53.56215,-21.03513 -76.25,-16.71875 -0.17296,0.26052 -11.625,20.15625 -11.625,20.15625 7.60583,21.80644 52.5625,57.6875 52.5625,57.6875 l -51.71875,-3.625 12.125,24.40625 71.28125,7.71875 39.9375,23.84375 -39.9375,23.84375 -71.28125,7.71875 -12.125,24.4375 51.75,-3.625 c 0,0 -44.98792,35.88106 -52.59375,57.6875 0.13914,0.28005 11.625,20.125 11.625,20.125 22.68785,4.31638 76.25,-16.6875 76.25,-16.6875 l -29,43 27.21875,1.71875 42.3125,-57.90625 40.59375,-22.625 0.6875,46.46875 -28.96875,65.59375 15.125,22.71875 22.71875,-46.625 c 0,0 8.57423,56.88494 23.65625,74.375 0.3121,0.0195 23.25,0 23.25,0 15.08202,-17.49006 23.6875,-74.375 23.6875,-74.375 l 22.71875,46.625 15.09375,-22.71875 -28.96875,-65.59375 0.6875,-46.46875 40.5625,22.625 42.34375,57.90625 27.21875,-1.75 -29,-43 c 0,0 53.5309,21.03513 76.21875,16.71875 0.17296,-0.26052 11.625,-20.125 11.625,-20.125 C 478.14417,372.53731 433.1875,336.625 433.1875,336.625 l 51.75,3.65625 -12.125,-24.4375 L 401.5,308.125 361.625,284.28125 401.5,260.46875 472.8125,252.75 l 12.09375,-24.4375 -51.71875,3.625 c 0,0 44.95667,-35.84981 52.5625,-57.65625 -0.13914,-0.28006 -11.625,-20.15625 -11.625,-20.15625 -22.68785,-4.31639 -76.25,16.6875 -76.25,16.6875 l 29.03125,-43 L 399.6875,126.09375 357.34375,184 l -40.5625,22.625 -0.6875,-46.5 28.96875,-65.59375 -15.125,-22.71875 -22.71875,46.625 c 0,0 -8.57423,-56.88494 -23.65625,-74.375 -0.3121,-0.0195 -23.25,0 -23.25,0 z" style="fill:#ffffff"/>
  <path d="m 265.305,83.176 13.258,0 15,76.949 -15,92.625 -13.258,0 -15,-92.625 z"/>
  <path d="m 442.81859,177.98644 6.629,11.48177 -59.13979,51.46488 -87.7156,33.32212 -6.629,-11.48177 72.7156,-59.30288 z"/>
  <path d="m 449.46713,379.12294 -6.629,11.48177 -74.13979,-25.48412 -72.7156,-59.30288 6.629,-11.48177 87.7156,33.32212 z"/>
  <path d="m 278.60208,485.449 -13.258,0 -15,-76.949 15,-92.625 13.258,0 15,92.625 z"/>
  <path d="m 101.08849,390.63856 -6.629,-11.48177 59.13979,-51.46488 87.7156,-33.32212 6.629,11.48177 -72.7156,59.30288 z"/>
  <path d="m 94.43995,189.50206 6.629,-11.48177 74.13979,25.48412 72.7156,59.30288 -6.629,11.48177 -87.7156,-33.32212 z"/>
</svg>
