<?xml version="1.0" encoding="UTF-8"?>
<svg version="1.1" viewBox="0 0 941.44 984.25" xmlns="http://www.w3.org/2000/svg" xmlns:xlink="http://www.w3.org/1999/xlink">
<filter id="g" x="-.055992" y="-.064626" width="1.112" height="1.1293" color-interpolation-filters="sRGB">
<feGaussianBlur stdDeviation="7.2416"/>
</filter>
<filter id="f" x="-.12995" y="-.11567" width="1.2599" height="1.2313" color-interpolation-filters="sRGB">
<feBlend in2="BackgroundImage" mode="color-burn"/>
<feGaussianBlur stdDeviation="40.079"/>
</filter>
<linearGradient id="a">
<stop stop-color="#bf99c3" offset="0"/>
<stop stop-color="#7b5190" offset=".35"/>
<stop stop-color="#fff" stop-opacity=".5" offset=".5"/>
<stop stop-color="#7b5190" offset=".65"/>
<stop stop-color="#bf99c3" offset="1"/>
</linearGradient>
<linearGradient id="e" x1="226.16" x2="372.4" y1="117.19" y2="117.17" gradientTransform="matrix(-1.7308,0,0,-1.7308,988.68,1023.4)" gradientUnits="userSpaceOnUse" xlink:href="#a"/>
<linearGradient id="d" x1="226.16" x2="372.4" y1="117.19" y2="117.17" gradientTransform="matrix(-.86542 -1.4989 1.4989 -.86542 269.63 1206.4)" gradientUnits="userSpaceOnUse" xlink:href="#a"/>
<linearGradient id="c" x1="226.16" x2="372.4" y1="117.19" y2="117.17" gradientTransform="matrix(.86542 -1.4989 1.4989 .86542 -248.39 675.01)" gradientUnits="userSpaceOnUse" xlink:href="#a"/>
<radialGradient id="b" cx="273.73" cy="284.31" r="213.83" gradientTransform="matrix(.71394 0 0 .7139 275.21 289.06)" gradientUnits="userSpaceOnUse">
<stop style="stop-stop-opacity:0.6" offset="0"/>
<stop stop-color="#612c75" stop-opacity=".6" offset=".75"/>
<stop stop-color="#612c75" stop-opacity="0" offset="1"/>
</radialGradient>
<path d="m381.83 0-97.64 169.14-195.32 0.05-88.87 153.89 97.632 169.03-97.632 169.2 88.87 153.88h195.32l97.64 169.06h177.73l97.64-169.17h195.32l88.87-153.93-97.58-168.93 97.63-169.19-88.87-153.89h-195.32l-97.69-169.14z" stroke-width="1.7309"/>
<path d="m393.05 357.57l-77.56 134.46 77.56 134.47h155.23l77.61-134.47-77.61-134.41-155.23-0.05z" fill="#fff" fill-opacity=".25" filter="url(#g)" stroke-width="1.7308"/>
<path d="m490.8 907.85c26.11-30.28 41-128.74 41-128.96l39.33 80.71 26.12-39.33-50.14-113.54 1.19-80.59-77.62-134.47-77.62 134.47 1.19 80.59-50.14 113.54 26.18 39.33 39.33-80.71s14.83 98.46 40.93 128.74h40.25zm-40.25-831.57c-26.1 30.277-40.99 128.73-40.99 129.47l-39.32-80.7-26.13 39.32 50.14 113.54-1.19 80.6 77.62 134.46 77.62-134.46-1.19-80.6 50.14-113.54-26.18-39.32-39.32 80.7s-14.84-98.45-40.95-128.73c-0.54-0.03-40.25 0-40.25 0z" fill="url(#e)" stroke-width="1.7309"/>
<path d="m120.69 717.39c39.26 7.47 131.99-28.86 131.99-28.86l-50.23 74.41 47.11 2.96 73.26-100.19 70.4-39.26 77.63-134.46h-155.26l-69.2 41.33-123.39 13.34-20.97 42.34 89.55-6.3s-77.84 62.09-91.01 99.83c0.24 0.48 20.12 34.85 20.12 34.85zm699.98-450.6c-39.27-7.47-131.98 28.86-131.98 28.86l50.22-74.41-47.11-2.6-73.26 100.2-70.39 39.27-77.65 134.45h155.27l69.19-41.33 123.4-13.34 20.97-42.33-89.56 6.29s77.86-62.08 91.02-99.82c-0.24-0.49-20.12-34.85-20.12-34.85z" fill="url(#d)" stroke-width="1.7309"/>
<path d="m100.57 301.59c13.17 37.74 90.98 99.86 90.98 99.86l-89.54-5.87 20.99 42.28 123.39 13.34 69.2 41.33h155.26l-77.63-134.44-70.4-39.27-73.26-100.2-47.14 3.01 50.23 74.41s-92.7-36.38-131.96-28.91c-0.3 0.46-20.12 34.86-20.12 34.86zm740.22 380.95c-13.16-37.74-90.99-99.87-90.99-99.87l89.56 6.29-21-42.29-123.4-13.34-69.19-41.33h-155.27l77.65 134.46 70.39 39.26 73.26 100.19 47.14-3.01-50.23-74.41s92.69 36.38 131.96 28.91c0.3-0.45 20.12-34.85 20.12-34.85z" fill="url(#c)" stroke-width="1.7309"/>
<path d="m450.54 76.264c-26.1 30.276-41 128.74-41 128.74l-39.3-80.71-26.14 39.32 50.14 113.52-1.19 80.44-70.26-39.15-73.23-100.23-47.16 3.02 50.24 74.43s-92.7-36.4-131.97-28.94c-0.3 0.45-20.12 34.89-20.12 34.89 13.16 37.75 90.98 99.85 90.98 99.85l-89.52-6.28 20.99 42.25 123.36 13.36 69.13 41.26-69.13 41.26-123.36 13.37-20.99 42.3 89.57-6.27s-77.87 62.1-91.03 99.83c0.24 0.49 20.12 34.85 20.12 34.85 39.27 7.47 131.97-28.89 131.97-28.89l-50.19 74.42 47.11 2.98 73.23-100.23 70.26-39.15 1.19 80.43-50.14 113.52 26.19 39.33 39.32-80.71s14.83 98.46 40.93 128.73h40.25c26.1-30.27 41-128.73 41-128.73l39.32 80.71 26.12-39.33-50.14-113.52 1.19-80.43 70.2 39.15 73.3 100.23 47.12-3.03-50.2-74.42s92.65 36.41 131.91 28.94c0.31-0.45 20.13-34.85 20.13-34.85-13.18-37.73-90.97-99.9-90.97-99.9l89.56 6.34-20.99-42.3-123.42-13.37-69.03-41.26 69.03-41.21 123.42-13.36 20.94-42.3-89.51 6.28s77.79-62.05 90.97-99.8c-0.25-0.48-20.13-34.89-20.13-34.89-39.26-7.46-131.98 28.89-131.98 28.89l50.27-74.43-47.12-2.97-73.3 100.23-70.2 39.15-1.19-80.49 50.14-113.52-26.17-39.32-39.32 80.71s-14.85-98.46-40.95-128.74c-0.54-0.035-40.25 0-40.25 0z" fill="url(#b)" filter="url(#f)" stroke-width="1.7308"/>
</svg>