<?xml version="1.0" encoding="UTF-8" standalone="no"?>
<!-- Generator: Adobe Illustrator 15.1.0, SVG Export Plug-In . SVG Version: 6.00 Build 0)  -->

<svg
   version="1.1"
   id="Layer_1"
   x="0px"
   y="0px"
   width="361.7"
   height="430"
   viewBox="0 0 361.7 430"
   enable-background="new 0 0 375 460"
   xml:space="preserve"
   sodipodi:docname="80.svg"
   inkscape:version="1.1.1 (3bf5ae0d25, 2021-09-20)"
   xmlns:inkscape="http://www.inkscape.org/namespaces/inkscape"
   xmlns:sodipodi="http://sodipodi.sourceforge.net/DTD/sodipodi-0.dtd"
   xmlns="http://www.w3.org/2000/svg"
   xmlns:svg="http://www.w3.org/2000/svg"><defs
   id="defs15" /><sodipodi:namedview
   id="namedview13"
   pagecolor="#ffffff"
   bordercolor="#666666"
   borderopacity="1.0"
   inkscape:pageshadow="2"
   inkscape:pageopacity="0.0"
   inkscape:pagecheckerboard="0"
   showgrid="false"
   inkscape:zoom="1.563"
   inkscape:cx="180.42"
   inkscape:cy="214.33"
   inkscape:window-width="1920"
   inkscape:window-height="986"
   inkscape:window-x="-11"
   inkscape:window-y="-11"
   inkscape:window-maximized="1"
   inkscape:current-layer="Layer_1" />
<g
   id="g10"
   transform="translate(-7.14,-15.182)">
	<path
   fill="#808080"
   d="m 187.99,100.89 c 23.13,-23.257 29.76,-35.061 29.76,-46.341 0,-19.93 -10.71,-39.367 -10.71,-39.367 0,0 17.79,7.744 34.42,18.104 11.55,7.203 28.89,18.297 49.28,27.458 15.35,6.898 28.36,11.581 37.86,15.001 9.25,3.331 13.12,4.76 15.98,6.705 9.72,6.601 8.78,14.653 8.17,19.98 l -0.15,1.24 c -3.38,30.8 -6.05,56.78 2.93,71.76 4.11,6.86 13.31,12.49 13.31,12.49 0,0 -19.82,32.32 -53.96,56.15 -3.58,40.24 30.35,36.29 30.35,36.29 -8.9,22.56 -71.85,90.09 -76.75,95.88 -19.12,22.66 -54.32,56.23 -61.67,61.2 -6.67,4.49 -11.48,7.74 -18.82,7.74 -7.34,0 -12.16,-3.25 -18.83,-7.74 -7.35,-4.97 -42.55,-38.54 -61.67,-61.2 -4.9,-5.79 -67.849,-73.32 -76.743,-95.88 0,0 33.929,3.95 30.343,-36.29 C 26.958,220.24 7.14,187.92 7.14,187.92 c 0,0 9.193,-5.63 13.308,-12.49 8.981,-14.98 6.308,-40.96 2.922,-71.76 l -0.141,-1.24 c -0.62,-5.326 -1.554,-13.378 8.165,-19.979 2.862,-1.945 6.732,-3.374 15.981,-6.705 9.5,-3.42 22.511,-8.103 37.865,-15.001 20.39,-9.161 37.72,-20.255 49.28,-27.458 16.63,-10.361 34.41,-18.104 34.41,-18.104 0,0 -10.71,19.437 -10.71,39.367 0,11.278 6.63,23.083 29.77,46.34 z"
   id="path2" />
	<path
   fill="#ffffff"
   d="m 168.77,329.31 c -44.42,-47.22 -68.04,-96.04 -73.019,-110.26 -8.222,-23.45 -8.616,-62.09 3.164,-78.7 3.335,-4.71 7.225,-6.99 11.885,-6.99 8.19,0 30.7,6.8 47.13,26.67 -16.73,14.59 -9.14,62.93 10.84,169.28 z"
   id="path4" />
	<path
   d="m 187.99,433.32 c -3.73,0 -6.31,-1.75 -12.24,-5.75 -5.94,-4.01 -40.33,-36.63 -59.2,-58.98 C 97.671,346.24 65.939,311.14 51.389,289.9 76.863,284.47 72.662,237.53 72.662,237.53 39.31,216.04 22.892,190.5 22.892,190.5 41.286,175.77 39.804,144.64 35.156,102.37 34.54,96.764 33.944,95.05 38.055,92.255 42.166,89.464 62.763,83.839 90.099,71.564 117.43,59.281 139.3,43.963 149.49,37.941 c -8.39,26.157 -0.98,41.475 38.5,79.589 39.47,-38.114 46.88,-53.432 38.5,-79.589 10.18,6.022 32.04,21.34 59.38,33.623 27.34,12.275 47.93,17.9 52.05,20.691 4.11,2.794 3.51,4.509 2.89,10.115 -4.64,42.27 -6.13,73.4 12.27,88.13 0,0 -16.42,25.54 -49.77,47.03 0,0 -4.2,46.94 21.27,52.37 -14.55,21.24 -46.28,56.34 -65.16,78.69 -18.87,22.35 -53.26,54.97 -59.19,58.98 -5.94,4 -8.52,5.75 -12.24,5.75 z m -6.66,-80.09 -2.36,-12.5 C 159.93,239.87 147.35,173.23 165.39,164.51 l 4.29,-2.08 -2.83,-3.83 c -18.53,-25.05 -45.76,-33.15 -56.05,-33.15 -7.21,0 -13.545,3.57 -18.336,10.33 -13.521,19.06 -13.051,60.56 -4.175,85.89 5.47,15.6 32.641,71.6 84.011,122.6 z m 13.31,0 9.03,-8.96 c 51.37,-51 78.54,-107 84.01,-122.61 8.88,-25.32 9.35,-66.82 -4.17,-85.89 -4.8,-6.75 -11.13,-10.32 -18.34,-10.32 -10.28,0 -37.52,8.1 -56.04,33.15 l -2.84,3.83 4.29,2.08 c 18.04,8.72 5.46,75.36 -13.58,176.22 z"
   id="path6" />
	<path
   fill="#ffffff"
   d="m 207.2,329.31 c 19.98,-106.35 27.57,-154.69 10.84,-169.28 16.44,-19.87 38.94,-26.67 47.13,-26.67 4.67,0 8.55,2.29 11.89,6.99 11.78,16.61 11.38,55.25 3.16,78.7 -4.98,14.22 -28.6,63.04 -73.02,110.26 z"
   id="path8" />
</g>
</svg>
