<?xml version="1.0" encoding="UTF-8" standalone="no"?>
<!-- Generator: Adobe Illustrator 15.1.0, SVG Export Plug-In . SVG Version: 6.00 Build 0)  -->

<svg
   version="1.1"
   id="Layer_1"
   x="0px"
   y="0px"
   width="361.7"
   height="430"
   viewBox="0 0 361.7 430"
   enable-background="new 0 0 375 460"
   xml:space="preserve"
   sodipodi:docname="C.svg"
   inkscape:version="1.1.1 (3bf5ae0d25, 2021-09-20)"
   xmlns:inkscape="http://www.inkscape.org/namespaces/inkscape"
   xmlns:sodipodi="http://sodipodi.sourceforge.net/DTD/sodipodi-0.dtd"
   xmlns="http://www.w3.org/2000/svg"
   xmlns:svg="http://www.w3.org/2000/svg"><defs
   id="defs11" /><sodipodi:namedview
   id="namedview9"
   pagecolor="#ffffff"
   bordercolor="#666666"
   borderopacity="1.0"
   inkscape:pageshadow="2"
   inkscape:pageopacity="0.0"
   inkscape:pagecheckerboard="0"
   showgrid="false"
   inkscape:zoom="1.563"
   inkscape:cx="181.06"
   inkscape:cy="214.97"
   inkscape:window-width="1920"
   inkscape:window-height="986"
   inkscape:window-x="-11"
   inkscape:window-y="-11"
   inkscape:window-maximized="1"
   inkscape:current-layer="Layer_1" />
<g
   id="g6"
   transform="translate(-6.64,-14.516)">
	<path
   fill="#ffffff"
   d="m 187.49,100.23 c 23.13,-23.267 29.76,-35.071 29.76,-46.351 0,-19.929 -10.71,-39.363 -10.71,-39.363 0,0 17.79,7.742 34.42,18.104 11.55,7.203 28.89,18.298 49.28,27.456 15.35,6.898 28.36,11.581 37.86,15.001 9.25,3.329 13.12,4.758 15.98,6.703 9.72,6.601 8.78,14.656 8.17,19.98 L 352.1,103 c -3.38,30.8 -6.05,56.78 2.93,71.76 4.11,6.86 13.31,12.49 13.31,12.49 0,0 -19.82,32.32 -53.96,56.15 -3.58,40.24 30.35,36.29 30.35,36.29 -8.9,22.56 -71.85,90.09 -76.74,95.89 -19.13,22.65 -54.33,56.23 -61.68,61.19 -6.67,4.5 -11.48,7.75 -18.82,7.75 -7.34,0 -12.16,-3.25 -18.82,-7.75 -7.35,-4.96 -42.56,-38.54 -61.68,-61.19 -4.89,-5.8 -67.849,-73.33 -76.743,-95.89 0,0 33.93,3.95 30.344,-36.29 C 26.458,219.57 6.64,187.25 6.64,187.25 c 0,0 9.193,-5.63 13.308,-12.49 8.98,-14.98 6.307,-40.96 2.922,-71.76 l -0.141,-1.24 c -0.62,-5.324 -1.554,-13.378 8.165,-19.979 2.862,-1.945 6.732,-3.374 15.981,-6.703 9.5,-3.42 22.511,-8.103 37.865,-15.001 20.39,-9.158 37.72,-20.252 49.28,-27.456 16.63,-10.363 34.41,-18.104 34.41,-18.104 0,0 -10.71,19.434 -10.71,39.363 0,11.278 6.63,23.083 29.77,46.35 z"
   id="path2" />
	<path
   d="m 187.49,432.66 c -3.73,0 -6.31,-1.76 -12.24,-5.76 -5.94,-4 -40.33,-36.62 -59.2,-58.98 C 97.171,345.57 65.438,310.47 50.889,289.23 76.363,283.8 72.163,236.87 72.163,236.87 38.81,215.37 22.392,189.83 22.392,189.83 40.787,175.1 39.304,143.97 34.656,101.7 34.041,96.096 33.445,94.381 37.555,91.588 41.666,88.796 62.263,83.173 89.599,70.894 116.93,58.614 138.8,43.297 148.99,37.275 c -8.39,26.157 -0.98,41.475 38.5,79.585 39.47,-38.111 46.88,-53.429 38.49,-79.585 10.19,6.021 32.05,21.339 59.39,33.619 27.34,12.28 47.93,17.902 52.04,20.694 4.12,2.793 3.52,4.507 2.9,10.112 -4.64,42.27 -6.13,73.4 12.27,88.13 0,0 -16.42,25.54 -49.77,47.04 0,0 -4.2,46.93 21.27,52.36 -14.55,21.24 -46.28,56.34 -65.16,78.69 -18.87,22.36 -53.26,54.98 -59.19,58.98 -5.94,4 -8.52,5.76 -12.24,5.76 z M 91.521,219.69 c 6.478,18.48 34.339,72.74 83.069,121.11 -21.64,-114.62 -31.52,-170.79 -11.42,-180.52 -17.83,-24.1 -44.03,-31.54 -52.87,-31.54 -26.438,0 -30.391,57.83 -18.779,90.95 z M 264.67,128.74 c -8.84,0 -35.04,7.44 -52.87,31.54 20.1,9.73 10.22,65.9 -11.41,180.51 48.72,-48.37 76.58,-102.62 83.06,-121.1 11.61,-33.12 7.66,-90.95 -18.78,-90.95 z"
   id="path4" />
</g>
</svg>
