<?xml version="1.0" encoding="UTF-8" standalone="no"?>
<!-- Generator: Adobe Illustrator 15.1.0, SVG Export Plug-In . SVG Version: 6.00 Build 0)  -->

<svg
   version="1.1"
   id="Layer_1"
   x="0px"
   y="0px"
   width="361.69"
   height="430"
   viewBox="0 0 361.69 430"
   enable-background="new 0 0 375 460"
   xml:space="preserve"
   sodipodi:docname="M.svg"
   inkscape:version="1.1.1 (3bf5ae0d25, 2021-09-20)"
   xmlns:inkscape="http://www.inkscape.org/namespaces/inkscape"
   xmlns:sodipodi="http://sodipodi.sourceforge.net/DTD/sodipodi-0.dtd"
   xmlns="http://www.w3.org/2000/svg"
   xmlns:svg="http://www.w3.org/2000/svg"><defs
   id="defs38" /><sodipodi:namedview
   id="namedview36"
   pagecolor="#ffffff"
   bordercolor="#666666"
   borderopacity="1.0"
   inkscape:pageshadow="2"
   inkscape:pageopacity="0.0"
   inkscape:pagecheckerboard="0"
   showgrid="false"
   inkscape:zoom="1.563"
   inkscape:cx="181.06"
   inkscape:cy="214.97"
   inkscape:window-width="1920"
   inkscape:window-height="986"
   inkscape:window-x="-11"
   inkscape:window-y="-11"
   inkscape:window-maximized="1"
   inkscape:current-layer="Layer_1" />
<g
   id="g33"
   transform="translate(-6.473,-14.516)">
	<path
   d="m 187.32,100.23 c 23.13,-23.267 29.76,-35.071 29.76,-46.351 0,-19.928 -10.71,-39.363 -10.71,-39.363 0,0 17.79,7.742 34.41,18.104 11.56,7.203 28.9,18.297 49.28,27.456 15.36,6.898 28.37,11.581 37.87,15.001 9.25,3.329 13.12,4.758 15.98,6.703 9.72,6.601 8.79,14.655 8.16,19.98 l -0.13,1.24 c -3.39,30.8 -6.06,56.78 2.92,71.76 4.12,6.86 13.31,12.49 13.31,12.49 0,0 -19.82,32.32 -53.95,56.15 -3.59,40.24 30.34,36.29 30.34,36.29 -8.89,22.56 -71.85,90.09 -76.74,95.89 -19.13,22.65 -54.32,56.23 -61.67,61.19 -6.68,4.5 -11.49,7.75 -18.83,7.75 -7.34,0 -12.15,-3.25 -18.82,-7.75 -7.35,-4.96 -42.55,-38.54 -61.68,-61.19 -4.89,-5.8 -67.846,-73.33 -76.74,-95.89 0,0 33.931,3.95 30.345,-36.29 C 26.291,219.57 6.473,187.25 6.473,187.25 c 0,0 9.191,-5.63 13.306,-12.49 8.983,-14.98 6.308,-40.96 2.926,-71.76 l -0.143,-1.24 c -0.622,-5.324 -1.556,-13.378 8.165,-19.979 2.864,-1.945 6.732,-3.374 15.981,-6.703 9.5,-3.42 22.513,-8.103 37.865,-15.001 20.387,-9.159 37.727,-20.253 49.277,-27.456 16.63,-10.363 34.42,-18.104 34.42,-18.104 0,0 -10.71,19.435 -10.71,39.363 0,11.278 6.63,23.083 29.76,46.35 z"
   id="path2" />
	<path
   fill="#ffffff"
   d="M 168.1,328.64 C 123.68,281.42 100.07,232.6 95.084,218.38 c -8.222,-23.45 -8.616,-62.09 3.166,-78.7 3.33,-4.7 7.22,-6.99 11.88,-6.99 8.19,0 30.7,6.8 47.13,26.67 -16.73,14.59 -9.14,62.93 10.84,169.28 z"
   id="path4" />
	<linearGradient
   id="SVGID_1_"
   gradientUnits="userSpaceOnUse"
   x1="22.226"
   y1="234.97"
   x2="352.41"
   y2="234.97">
		<stop
   offset="0"
   style="stop-color:#BB2C26"
   id="stop6" />
		<stop
   offset="0.0737"
   style="stop-color:#C43E25"
   id="stop8" />
		<stop
   offset="0.2216"
   style="stop-color:#DB6E23"
   id="stop10" />
		<stop
   offset="0.25"
   style="stop-color:#E07823"
   id="stop12" />
		<stop
   offset="0.4023"
   style="stop-color:#F18F1F"
   id="stop14" />
		<stop
   offset="0.5"
   style="stop-color:#F7981D"
   id="stop16" />
		<stop
   offset="0.5977"
   style="stop-color:#F18F1F"
   id="stop18" />
		<stop
   offset="0.75"
   style="stop-color:#E07823"
   id="stop20" />
		<stop
   offset="0.7784"
   style="stop-color:#DB6E23"
   id="stop22" />
		<stop
   offset="0.9263"
   style="stop-color:#C43E25"
   id="stop24" />
		<stop
   offset="1"
   style="stop-color:#BB2C26"
   id="stop26" />
	</linearGradient>
	<path
   fill="url(#SVGID_1_)"
   d="m 187.32,432.66 c -3.72,0 -6.31,-1.76 -12.24,-5.76 -5.93,-4 -40.33,-36.62 -59.2,-58.98 C 97.006,345.57 65.272,310.47 50.722,289.23 76.196,283.8 71.995,236.86 71.995,236.86 38.643,215.37 22.225,189.83 22.225,189.83 40.619,175.1 39.137,143.97 34.489,101.7 33.875,96.096 33.277,94.382 37.388,91.589 41.499,88.796 62.094,83.173 89.432,70.894 116.77,58.615 138.63,43.297 148.82,37.275 c -8.39,26.157 -0.98,41.475 38.5,79.595 39.47,-38.12 46.89,-53.438 38.5,-79.595 10.19,6.022 32.05,21.34 59.38,33.619 27.34,12.279 47.94,17.902 52.05,20.695 4.11,2.793 3.52,4.507 2.9,10.111 -4.65,42.27 -6.13,73.4 12.26,88.13 0,0 -16.42,25.54 -49.77,47.03 0,0 -4.2,46.94 21.27,52.37 -14.55,21.24 -46.28,56.34 -65.15,78.69 -18.88,22.36 -53.27,54.98 -59.2,58.98 -5.93,4 -8.52,5.76 -12.24,5.76 z m -6.66,-80.1 -2.36,-12.5 C 159.26,239.2 146.69,172.57 164.72,163.84 l 4.29,-2.08 -2.83,-3.83 c -18.53,-25.04 -45.76,-33.15 -56.05,-33.15 -7.2,0 -13.54,3.57 -18.334,10.33 -13.519,19.07 -13.048,60.57 -4.173,85.89 5.47,15.6 32.647,71.61 84.007,122.6 z m 13.32,0 9.02,-8.96 c 51.37,-50.99 78.55,-107 84.02,-122.6 8.88,-25.32 9.34,-66.82 -4.18,-85.89 -4.79,-6.76 -11.13,-10.33 -18.33,-10.33 -10.29,0 -37.53,8.11 -56.05,33.15 l -2.83,3.83 4.29,2.08 c 18.03,8.73 5.45,75.36 -13.58,176.22 z"
   id="path29"
   style="fill:url(#SVGID_1_)" />
	<path
   fill="#ffffff"
   d="m 206.53,328.64 c 19.99,-106.35 27.58,-154.69 10.84,-169.27 16.44,-19.88 38.94,-26.68 47.14,-26.68 4.66,0 8.55,2.29 11.88,6.99 11.78,16.61 11.39,55.25 3.16,78.7 -4.98,14.22 -28.59,63.04 -73.02,110.26 z"
   id="path31" />
</g>
</svg>
