<?xml version="1.0" encoding="UTF-8" standalone="no"?>
<!-- Generator: Adobe Illustrator 15.1.0, SVG Export Plug-In . SVG Version: 6.00 Build 0)  -->

<svg
   version="1.1"
   id="Layer_1"
   x="0px"
   y="0px"
   width="357.49"
   height="425"
   viewBox="0 0 357.49 425"
   enable-background="new 0 0 375 460"
   xml:space="preserve"
   sodipodi:docname="U.svg"
   inkscape:version="1.1.1 (3bf5ae0d25, 2021-09-20)"
   xmlns:inkscape="http://www.inkscape.org/namespaces/inkscape"
   xmlns:sodipodi="http://sodipodi.sourceforge.net/DTD/sodipodi-0.dtd"
   xmlns="http://www.w3.org/2000/svg"
   xmlns:svg="http://www.w3.org/2000/svg"><defs
   id="defs38" /><sodipodi:namedview
   id="namedview36"
   pagecolor="#ffffff"
   bordercolor="#666666"
   borderopacity="1.0"
   inkscape:pageshadow="2"
   inkscape:pageopacity="0.0"
   inkscape:pagecheckerboard="0"
   showgrid="false"
   inkscape:zoom="1.563"
   inkscape:cx="178.5"
   inkscape:cy="212.41"
   inkscape:window-width="1920"
   inkscape:window-height="986"
   inkscape:window-x="-11"
   inkscape:window-y="-11"
   inkscape:window-maximized="1"
   inkscape:current-layer="Layer_1" />
<g
   id="g33"
   transform="translate(-9.243,-17.016)">
	<path
   d="m 187.99,101.73 c 22.86,-22.993 29.41,-34.661 29.41,-45.809 0,-19.697 -10.58,-38.905 -10.58,-38.905 0,0 17.58,7.652 34.02,17.894 11.42,7.12 28.55,18.085 48.7,27.137 15.18,6.818 28.04,11.446 37.42,14.827 9.15,3.291 12.97,4.702 15.8,6.625 9.61,6.524 8.68,14.485 8.07,19.751 l -0.14,1.22 c -3.35,30.44 -5.99,56.13 2.89,70.93 4.07,6.78 13.15,12.34 13.15,12.34 0,0 -19.58,31.95 -53.32,55.5 -3.55,39.77 29.99,35.86 29.99,35.86 -8.79,22.31 -71.01,89.05 -75.85,94.78 -18.9,22.39 -53.7,55.57 -60.96,60.48 -6.59,4.44 -11.35,7.65 -18.6,7.65 -7.26,0 -12.02,-3.21 -18.61,-7.65 -7.26,-4.91 -42.05,-38.09 -60.96,-60.48 -4.83,-5.73 -67.055,-72.47 -75.845,-94.78 0,0 33.535,3.91 29.991,-35.86 -33.735,-23.55 -53.323,-55.5 -53.323,-55.5 0,0 9.086,-5.56 13.153,-12.34 8.876,-14.8 6.234,-40.49 2.888,-70.93 l -0.139,-1.22 c -0.613,-5.266 -1.536,-13.227 8.069,-19.751 2.829,-1.923 6.654,-3.334 15.795,-6.625 9.39,-3.381 22.25,-8.009 37.425,-14.827 20.156,-9.052 37.286,-20.017 48.706,-27.137 16.43,-10.242 34.01,-17.894 34.01,-17.894 0,0 -10.58,19.208 -10.58,38.905 0,11.148 6.55,22.816 29.42,45.809 z"
   id="path2" />
	<path
   fill="#ffffff"
   d="m 169,327.49 c -43.91,-46.67 -67.25,-94.93 -72.176,-108.98 -8.126,-23.18 -8.516,-61.37 3.127,-77.79 3.299,-4.65 7.139,-6.91 11.749,-6.91 8.09,0 30.34,6.73 46.58,26.37 -16.54,14.42 -9.04,62.19 10.72,167.31 z"
   id="path4" />
	<linearGradient
   id="SVGID_1_"
   gradientUnits="userSpaceOnUse"
   x1="24.813"
   y1="234.9"
   x2="351.16"
   y2="234.9">
		<stop
   offset="0"
   style="stop-color:#626E77"
   id="stop6" />
		<stop
   offset="0.0745"
   style="stop-color:#718089"
   id="stop8" />
		<stop
   offset="0.2241"
   style="stop-color:#99ADB9"
   id="stop10" />
		<stop
   offset="0.25"
   style="stop-color:#A0B6C2"
   id="stop12" />
		<stop
   offset="0.3999"
   style="stop-color:#B0C9D8"
   id="stop14" />
		<stop
   offset="0.5"
   style="stop-color:#B7D1E1"
   id="stop16" />
		<stop
   offset="0.6001"
   style="stop-color:#B0C9D8"
   id="stop18" />
		<stop
   offset="0.75"
   style="stop-color:#A0B6C2"
   id="stop20" />
		<stop
   offset="0.7759"
   style="stop-color:#99ADB9"
   id="stop22" />
		<stop
   offset="0.9255"
   style="stop-color:#718089"
   id="stop24" />
		<stop
   offset="1"
   style="stop-color:#626E77"
   id="stop26" />
	</linearGradient>
	<path
   fill="url(#SVGID_1_)"
   d="m 187.99,430.3 c -3.68,0 -6.24,-1.74 -12.1,-5.69 -5.87,-3.96 -39.86,-36.2 -58.51,-58.29 C 98.722,344.22 67.357,309.53 52.978,288.54 78.155,283.18 74.004,236.78 74.004,236.78 41.039,215.54 24.813,190.29 24.813,190.29 42.993,175.73 41.528,144.97 36.934,103.19 36.326,97.648 35.736,95.954 39.8,93.193 43.863,90.433 64.22,84.876 91.238,72.739 118.26,60.602 139.87,45.463 149.93,39.511 c -8.29,25.853 -0.96,40.992 38.06,78.669 39.01,-37.677 46.34,-52.816 38.05,-78.669 10.06,5.952 31.67,21.091 58.69,33.228 27.02,12.137 47.38,17.694 51.44,20.454 4.06,2.761 3.47,4.455 2.87,9.997 -4.6,41.78 -6.06,72.55 12.12,87.1 0,0 -16.23,25.25 -49.19,46.49 0,0 -4.15,46.4 21.02,51.76 -14.38,20.99 -45.74,55.68 -64.4,77.78 -18.65,22.09 -52.64,54.33 -58.5,58.29 -5.87,3.95 -8.43,5.69 -12.1,5.69 z m -6.58,-79.17 -2.34,-12.35 C 160.26,239.09 147.83,173.23 165.65,164.61 l 4.24,-2.06 -2.8,-3.79 C 148.79,134.01 121.86,126 111.7,126 c -7.12,0 -13.388,3.53 -18.123,10.21 -13.363,18.84 -12.9,59.86 -4.126,84.89 5.406,15.42 32.269,70.78 83.039,121.18 z m 13.15,0 8.93,-8.85 c 50.77,-50.4 77.63,-105.76 83.03,-121.18 8.77,-25.03 9.24,-66.05 -4.12,-84.89 -4.74,-6.68 -11.01,-10.21 -18.12,-10.21 -10.17,0 -37.09,8.01 -55.4,32.76 l -2.8,3.79 4.24,2.06 c 17.82,8.62 5.39,74.48 -13.42,174.17 z"
   id="path29"
   style="fill:url(#SVGID_1_)" />
	<path
   fill="#ffffff"
   d="m 206.98,327.49 c 19.75,-105.12 27.25,-152.9 10.71,-167.31 16.25,-19.64 38.49,-26.37 46.59,-26.37 4.6,0 8.44,2.27 11.74,6.91 11.64,16.42 11.26,54.61 3.13,77.79 -4.93,14.05 -28.27,62.31 -72.17,108.98 z"
   id="path31" />
</g>
</svg>
