<?xml version="1.0" encoding="UTF-8" standalone="no"?>
<!-- Generator: Adobe Illustrator 15.1.0, SVG Export Plug-In . SVG Version: 6.00 Build 0)  -->

<svg
   version="1.1"
   id="Layer_1"
   x="0px"
   y="0px"
   width="361.7"
   height="430"
   viewBox="0 0 361.7 430"
   enable-background="new 0 0 375 460"
   xml:space="preserve"
   sodipodi:docname="WM.svg"
   inkscape:version="1.1.1 (3bf5ae0d25, 2021-09-20)"
   xmlns:inkscape="http://www.inkscape.org/namespaces/inkscape"
   xmlns:sodipodi="http://sodipodi.sourceforge.net/DTD/sodipodi-0.dtd"
   xmlns="http://www.w3.org/2000/svg"
   xmlns:svg="http://www.w3.org/2000/svg"><defs
   id="defs11">
	
	
</defs><sodipodi:namedview
   id="namedview9"
   pagecolor="#ffffff"
   bordercolor="#666666"
   borderopacity="1.0"
   inkscape:pageshadow="2"
   inkscape:pageopacity="0.0"
   inkscape:pagecheckerboard="0"
   showgrid="false"
   inkscape:zoom="1.563"
   inkscape:cx="181.06"
   inkscape:cy="214.97"
   inkscape:window-width="1920"
   inkscape:window-height="986"
   inkscape:window-x="-11"
   inkscape:window-y="-11"
   inkscape:window-maximized="1"
   inkscape:current-layer="Layer_1" />
<path
   id="path2"
   d="M 142.35 22.76 C 132.16 28.782 110.29 44.099 82.959 56.379 C 55.623 68.658 35.025 74.28 30.914 77.072 C 26.804 79.865 27.401 81.58 28.016 87.184 C 32.664 129.45 34.147 160.58 15.752 175.31 C 15.752 175.31 32.17 200.85 65.523 222.35 C 65.523 222.35 69.722 269.28 44.248 274.71 C 58.797 295.95 90.531 331.05 109.41 353.4 C 128.28 375.76 162.67 408.38 168.61 412.38 C 174.54 416.38 177.12 418.14 180.85 418.14 C 184.57 418.14 187.15 416.38 193.09 412.38 C 199.02 408.38 233.41 375.76 252.28 353.4 C 271.16 331.05 302.89 295.95 317.44 274.71 C 291.97 269.28 296.17 222.35 296.17 222.35 C 329.52 200.85 345.94 175.31 345.94 175.31 C 327.54 160.58 329.03 129.45 333.67 87.184 C 334.29 81.579 334.89 79.865 330.77 77.072 C 326.66 74.28 306.07 68.659 278.73 56.379 C 251.39 44.099 229.53 28.781 219.34 22.76 C 227.73 48.916 220.32 64.233 180.85 102.34 C 141.37 64.234 133.96 48.917 142.35 22.76 z M 103.66 114.22 C 112.5 114.22 138.7 121.66 156.53 145.76 C 136.43 155.49 146.31 211.66 167.95 326.28 C 119.22 277.91 91.359 223.65 84.881 205.17 C 73.269 172.05 77.222 114.22 103.66 114.22 z M 258.03 114.22 C 284.47 114.22 288.42 172.05 276.81 205.17 C 270.33 223.65 242.47 277.9 193.75 326.27 C 215.38 211.66 225.26 155.49 205.16 145.76 C 222.99 121.66 249.19 114.22 258.03 114.22 z " />
</svg>
