<?xml version="1.0" encoding="UTF-8" standalone="no"?>
<svg xmlns="http://www.w3.org/2000/svg" xmlns:xlink="http://www.w3.org/1999/xlink" width="600.00055" height="602.66998" version="1.1"><linearGradient gradientTransform="translate(1081.8323,137.79797)" xlink:href="#linearGradient4128-1" id="linearGradient3818" x1="-940.20911" y1="604.56421" x2="-433.45911" y2="218.84993" gradientUnits="userSpaceOnUse"/><linearGradient spreadMethod="pad" gradientTransform="matrix(286.38379,0,0,-286.38379,6.8085937,143.83398)" gradientUnits="userSpaceOnUse" id="linearGradient4128-1" y2="0" x2="1" y1="0" x1="0"><stop offset="0" style="stop-color:#bf331c"/><stop offset="0.51718265" style="stop-color:#f6b91d"/><stop offset="1" style="stop-color:#bf331c"/></linearGradient><linearGradient xlink:href="#linearGradient4128-1" id="linearGradient3929" gradientUnits="userSpaceOnUse" gradientTransform="translate(1081.8323,137.79797)" x1="-940.20911" y1="604.56421" x2="-433.45911" y2="218.84993"/>
  <g transform="translate(-105.71401,-193.88433)"><path d="m 279.93464,193.88433 v 21.635 25.788 6.788 l 3.874,5.548 59.604,85.67 v 235.439 h -38.899 c -73.865,-45.317 -74.861,-156.865 -6.447,-204.63 l 17.543,-12.243 -12.026,-17.636 -48.6,-71.413 -12.491,-18.349 -18.008,12.956 c -68.605,49.345 -114.246,120.941 -118.463,198.369 -3.943,72.399 29.895,147.93 108.638,209.186 l -61.03,91.963 -22.285,33.59896 h 40.293 468.15101 40.294 l -22.285,-33.59896 -61.03001,-91.963 c 78.72701,-61.213 112.58501,-136.528 108.63901,-208.721 -4.221,-77.208 -49.888,-148.519 -118.46401,-197.842 l -17.884,-12.894 -12.522,18.164 -48.601,70.421 -12.212,17.698 17.637,12.305 c 68.414,47.765 67.417,159.312 -6.447,204.63 h -38.898 v -235.44 l 59.604,-85.67 3.874,-5.548 v -6.788 -25.788 -21.635 h -21.637 -208.287 -21.635 z"/><path style="stroke-width:21.64999962" d="m 290.75,204.6875 0,10.84375 0,25.78125 0,3.375 1.9375,2.8125 61.53125,88.46875 0,249.59375 -52.625,0 C 218.50354,537.33047 216.2181,414.12493 291.90625,361.28125 l 8.75,-6.125 -6,-8.84375 -48.59375,-71.40625 -6.25,-9.1875 -9.03125,6.46875 C 164.35432,319.96567 120.81753,388.84161 116.8125,462.375 c -3.87155,71.08267 30.16391,145.44254 112.5,206.0625 l -66.6875,100.5 -11.15625,16.8125 20.15625,0 468.15625,0 20.1875,0 -11.15625,-16.8125 -66.71875,-100.5 C 664.41983,607.84065 698.49802,533.73149 694.625,462.875 690.61845,389.57559 647.06884,320.95447 580.65625,273.1875 l -8.96875,-6.4375 -6.28125,9.0625 -48.59375,70.4375 -6.125,8.84375 8.84375,6.1875 c 75.68899,52.84272 73.40366,176.04918 -9.6875,224.28125 l -52.65625,0 0,-249.59375 L 518.75,247.5 l 1.9375,-2.8125 0,-3.375 0,-25.78125 0,-10.84375 -10.84375,0 c -169.28703,0.001 -59.56425,0 -208.28125,0 z"/><path d="m 301.56964,215.51933 v 25.788 l 63.478,91.25 v 263.831 h -66.454 c -92.3,-51.131 -95.863,-186.067 -12.894,-243.994 l -48.601,-71.413 c -128.485,92.414 -165.767033,264.61 6.943,384.836 l -72.405,109.10296 c 415.878,0 109.189,0 468.15101,0 L 567.38364,665.81733 c 172.70901,-120.226 135.42801,-291.431 6.942,-383.844 l -48.601,70.421 c 82.97,57.926 79.407,192.863 -12.894,243.994 h -66.453 v -263.832 l 63.478,-91.25 v -25.788 c -169.287,0.001 -59.569,0.001 -208.286,0.001 z" style="fill:url(#linearGradient3929)"/></g>
</svg>
