<?xml version="1.0" encoding="UTF-8" standalone="no"?>
<svg xmlns="http://www.w3.org/2000/svg" width="600" height="602.66986" version="1.1">
  <g transform="translate(230.33321,-140.92386)">
    <path d="m -34.477073,162.55848 0,25.78798 63.478087,91.24975 0,263.8308 -66.453623,0 C -129.7531,492.29582 -133.31557,357.35931 -50.346595,299.43311 l -48.600411,-71.41285 c -128.484744,92.4138 -165.766764,264.61015 6.942916,384.83591 l -72.40469,109.10296 c 415.8778,0 109.188758,0 468.15089,0 L 231.33742,612.85617 C 404.04711,492.63041 366.76508,321.42591 238.28033,229.01211 l -48.60041,70.421 c 82.96898,57.9262 79.40651,192.86271 -12.89398,243.9939 l -66.45363,0 0,-263.8308 63.47809,-91.24975 0,-25.78798 c -169.2885885,0 -59.57058,0 -208.287473,0 z"/>
  </g>
</svg>
