<?xml version="1.0" encoding="UTF-8" standalone="no"?>
<svg xmlns="http://www.w3.org/2000/svg" version="1.1" width="600" height="600">
  <path d="M 300,600 C 134.535,600 0,465.48 0,300 0,134.595 134.535,0 300,0 465.405,0 600,134.595 600,300 600,465.48 465.405,600 300,600" style="fill:#808080"/>
  <path d="M 300,64.17 C 169.74,64.17 64.155,169.755 64.155,300 64.155,430.26 169.74,535.845 300,535.845 430.245,535.845 535.845,430.26 535.845,300 535.845,169.755 430.245,64.17 300,64.17 M 576.915,300 C 576.915,452.985 452.925,576.915 300,576.915 147.075,576.915 23.085,452.985 23.085,300 23.085,147.075 147.075,23.085 300,23.085 c 152.925,0 276.915,123.99 276.915,276.915 m -311.025,137.52 0,-98.49 85.32,-49.275 85.305,49.275 0,90.81 37.455,-21.555 0,-201.615 L 299.355,105.825 124.74,206.67 l 0,201.615 174.615,100.785 45.24,-26.085 -78.705,-45.465 z"/>
</svg>
