<?xml version="1.0" encoding="UTF-8" standalone="no"?>
<svg xmlns="http://www.w3.org/2000/svg" version="1.1" width="600" height="829.2251">
  <path d="m 131.18819,829.22425 c -10.36531,0 -20.08798,-2.98521 -28.25585,-8.58248 -12.148139,-8.25079 -19.362399,-22.01592 -19.673359,-37.64682 -0.33169,-17.91126 8.16787,-35.80179 21.684239,-45.83541 5.43142,-3.98028 10.22019,-7.38011 14.98824,-10.77993 4.20832,-2.98521 8.41663,-5.99115 13.20541,-9.4739 l 1.94868,-1.36822 c 5.99115,-18.63683 18.28441,-55.47516 34.64088,-97.18518 14.98824,-37.97851 30.37037,-74.98268 45.52446,-111.65516 11.81645,-28.58754 23.32195,-56.20073 34.41284,-83.89685 -4.37416,1.05643 -8.83125,1.69991 -13.43345,1.69991 -8.52029,0 -16.43939,-2.11452 -23.4878,-6.07407 -34.01896,-19.52826 -25.18771,-58.95791 -22.34762,-71.91455 0.95361,-4.37416 1.61699,-9.14221 2.25964,-13.84806 0.89059,-6.79965 1.86576,-13.59929 3.15106,-19.67337 5.68019,-25.5194 22.11958,-52.71798 51.51561,-52.71798 17.64176,0 29.70699,7.85691 36.50663,13.35052 5.09974,0.82923 10.2202,1.22394 15.71382,1.22394 1.53406,0 3.00594,-0.0829 4.54001,-0.0829 8.41663,-26.16206 15.46504,-49.79497 21.62204,-72.95108 -62.02604,9.86778 -156.37112,38.787 -205.3576,55.14347 -1.22393,1.86575 -2.44621,3.71078 -3.73151,5.57654 -11.89938,17.24788 -34.164079,36.11275 -60.243209,36.11275 -18.05637,0 -34.6616,-9.05929 -45.52445,-24.93895 -25.49868,-37.48097 0.66338,-72.78523 10.44823,-86.07356 1.55397,-2.0316 3.08887,-3.95955 4.29124,-5.90823 13.28834,-20.1709 26.88763,-37.97851 40.01011,-55.14347 17.16496,-22.51346 33.27266,-43.6587 47.701179,-68.4318 5.99115,-10.11655 6.07407,-19.52825 6.07407,-19.67337 0.0829,-11.17381 5.18266,-22.2025 13.76514,-29.39603 C 140.18528,3.3169 148.85068,0 157.82705,0 c 2.11452,0 4.12539,0.16584 6.23992,0.49753 0.41461,0.0829 39.03577,7.11061 81.2226,9.30805 35.55302,1.86576 221.4031,2.42549 277.52091,2.59133 l 11.48477,0 11.42257,0 c 34.10188,0 50.04374,20.9794 53.36064,38.95285 6.32284,35.13842 -21.53913,56.76046 -33.35558,65.98559 -1.53407,1.22228 -3.06814,2.36329 -4.37417,3.48274 -11.50549,9.80559 -20.97939,20.33675 -28.98141,32.31905 -14.09683,20.73063 -24.79383,44.38428 -36.05056,69.40614 -4.6022,10.44824 -9.30806,20.81355 -14.15902,31.01302 l -2.0316,4.20832 c 30.20452,7.93983 36.52736,31.09594 37.72974,39.18089 2.44621,15.23701 0.7463,52.3241 -64.78321,72.80596 -9.70194,3.00594 -18.86488,5.59727 -27.36443,7.77399 -0.33169,0.97517 -0.7264,1.94868 -1.05809,2.92302 -12.06523,33.35556 -22.01593,70.94018 -32.54709,110.78445 l -8.49956,31.90444 c -16.27354,60.2432 -10.77992,171.75325 -10.697,172.8727 0.80932,15.31993 -7.77399,29.6448 -21.62204,36.21641 l -175.87865,82.92251 -4.62293,2.17671 c -10.67627,5.34851 -23.96461,11.89938 -39.5955,11.89938" style="fill:#808080"/>
  <path d="m 561.84625,58.14856 c -1.30686,-7.13134 -11.25673,-7.85691 -16.12843,-7.93983 l -22.99026,0 C 444.01336,50.04288 277.69154,49.40106 243.34089,47.6174 198.003,45.35776 157.26732,37.81181 157.26732,37.81181 c 0,0 0.72474,18.8856 -11.17381,39.45039 -27.21931,46.47806 -59.289589,80.49702 -88.913659,125.3581 -9.24586,13.99318 -27.53027,31.32398 -15.07117,49.71205 13.12249,19.19656 34.57869,1.38978 43.57578,-11.65062 3.15106,-4.45708 5.99115,-9.4117 8.25079,-14.73947 0,0 203.989379,-70.54633 275.323469,-65.03198 0,0 3.64859,10.61408 -6.55088,48.90355 -9.14221,34.57869 -19.4246,67.70623 -30.45329,100.17039 -21.70497,3.08887 -41.54418,4.29124 -63.97472,-0.72474 -5.57654,-1.2853 -9.14221,-11.17381 -20.95866,-11.17381 -7.29718,0 -13.12249,16.93692 -14.51144,23.011 -2.25964,10.36531 -3.15106,23.15611 -5.4107,33.4385 -2.42548,11.00796 -5.76311,25.33283 4.1254,30.9301 9.22513,5.3485 30.1216,-9.80559 32.87877,-11.09089 14.40779,-7.29718 34.66161,-11.89938 49.23524,-12.56276 l 0.24877,0 c -33.68727,91.19403 -72.41208,177.76513 -108.91872,270.38958 -22.76222,57.81772 -37.66755,106.97004 -37.66755,106.97004 l -11.81645,8.35444 c -10.11655,7.35937 -17.89054,12.62495 -28.02781,20.08798 -5.49362,4.04247 -9.30805,17.55884 -3.06814,21.76716 8.58248,5.90823 23.07319,-2.90229 34.91038,-8.49956 11.73354,-5.57654 175.79572,-82.92251 175.79572,-82.92251 0,0 -6.07407,-117.72924 11.98231,-184.70989 14.09682,-52.3863 26.07913,-101.70446 41.95879,-145.67412 2.73644,-7.62887 5.74238,-14.98825 8.72759,-22.28543 14.17975,-3.23398 28.50461,-6.79964 44.05259,-11.73353 8.74832,-2.75718 41.31614,-13.84806 38.72481,-30.68133 -2.50841,-15.96259 -43.01605,-8.35445 -55.08128,-7.13134 -2.09379,0.16585 -4.12539,0.5589 -6.13627,0.97351 8.7276,-18.63683 18.2015,-37.81266 28.64973,-59.51763 17.01985,-35.38718 30.86791,-72.72304 52.96676,-105.29086 10.19946,-14.96751 22.09884,-28.17292 35.80179,-39.82353 9.78486,-8.43737 27.84123,-18.80268 25.10479,-33.93604"/>
</svg>
