<?xml version="1.0" encoding="UTF-8" standalone="no"?>
<svg xmlns="http://www.w3.org/2000/svg" xmlns:xlink="http://www.w3.org/1999/xlink" version="1.1" width="600" height="829.26495">
  <radialGradient cx="0" cy="0" r="1" fx="0" fy="0" id="radialGradient622" gradientUnits="userSpaceOnUse" gradientTransform="matrix(15.084915,0,0,-15.084915,747.35352,259.2627)" spreadMethod="pad">
    <stop style="stop-color:#f6b91d" offset="0"/>
    <stop style="stop-color:#d3641c" offset="0.7"/>
    <stop style="stop-color:#bf331c" offset="1"/>
  </radialGradient>
  <radialGradient cx="0" cy="0" r="1" fx="0" fy="0" id="radialGradient2997" xlink:href="#radialGradient622" gradientUnits="userSpaceOnUse" gradientTransform="matrix(15.084915,0,0,-15.084915,747.35352,259.2627)" spreadMethod="pad"/>
  <path d="m 131.22605,829.26411 c -10.36581,0 -20.08895,-2.98535 -28.34013,-8.58289 -12.065814,-8.25119 -19.280414,-22.01699 -19.612124,-37.64863 -0.3118,-17.91213 8.18899,-35.80352 21.706014,-45.83762 5.34876,-3.98047 10.19996,-7.38046 14.98897,-10.78045 4.12559,-2.98535 8.41704,-5.99144 13.12311,-9.47435 l 2.01097,-1.36829 c 5.92925,-18.63773 18.2231,-55.47782 34.66328,-97.18985 14.98896,-37.98033 30.2889,-74.98628 45.52664,-111.66053 11.81702,-28.5889 23.32308,-56.20343 34.41449,-83.90088 -4.37437,1.05814 -8.91459,1.7 -13.45482,1.7 -8.49997,0 -16.44018,-2.11463 -23.55112,-6.07437 -33.93767,-19.52919 -25.18893,-58.96074 -22.2865,-71.918 0.97522,-4.37438 1.55404,-9.14265 2.19755,-13.84873 0.97356,-6.79997 1.94877,-13.59994 3.23414,-19.67431 5.65973,-25.52063 22.09991,-52.72052 51.49735,-52.72052 17.58042,0 29.72915,7.85729 36.44619,13.35117 5.09998,0.82926 10.28289,1.22399 15.7975,1.22399 1.53414,0 2.98536,-0.0829 4.54023,-0.0829 8.41704,-26.16331 15.38286,-49.79737 21.62308,-72.95459 -62.04975,9.86825 -156.37863,38.78887 -205.38819,55.14612 -1.20244,1.86585 -2.4256,3.71096 -3.71096,5.57681 -11.89996,17.24871 -34.269384,36.11449 -60.266834,36.11449 -18.05725,0 -34.64255,-9.05972 -45.58885,-24.94015 -25.41697,-37.48277 0.72478,-72.78873 10.53167,-86.0777 1.53414,-2.0317 3.00609,-3.95974 4.29145,-5.90851 13.28897,-20.17187 26.88891,-37.98034 40.01203,-55.14612 17.08286,-22.51455 33.27426,-43.6608 47.703474,-68.43509 5.90851,-10.11704 6.07436,-19.52919 6.07436,-19.67431 0.0663,-11.17435 5.09998,-22.20357 13.7658,-29.39745 C 140.20284,3.31706 148.86866,0 157.86618,0 c 2.0317,0 4.1256,0.16585 6.24022,0.49756 0.39308,0.0829 39.03765,7.11095 81.2265,9.3085 35.55474,1.86585 221.39302,2.4256 277.51352,2.59145 l 11.50606,0 11.42312,0 c 34.08279,0 50.04614,20.98041 53.28027,38.95472 6.40608,35.14011 -21.45723,56.76319 -33.27425,65.98876 -1.53414,1.224 -3.08902,2.36341 -4.37438,3.48292 -11.50605,9.80605 -20.9804,20.33772 -29.00354,32.3206 -14.1597,20.73162 -24.77429,44.3864 -36.03156,69.40947 -4.62315,10.44874 -9.3085,20.81455 -14.24263,31.01451 l -1.94877,4.20852 c 30.12305,7.94022 36.52912,31.09744 37.73156,39.18277 2.34267,15.23775 0.72643,52.32662 -64.78633,72.80947 -9.72313,3.00608 -18.9487,5.59753 -27.36574,7.77436 -0.33171,0.97521 -0.72644,1.94877 -1.05814,2.92315 -12.14873,33.35717 -22.01699,70.9436 -32.54865,110.78978 l -8.49997,31.90597 c -16.29506,60.2461 -10.78045,171.76151 -10.69752,172.88101 0.80936,15.32067 -7.77436,29.64623 -21.70601,36.21815 l -175.80417,82.9265 -4.62315,2.17682 c -10.69752,5.34876 -23.96576,11.89995 -39.5974,11.89995"/>
  <path d="m 561.80115,58.15136 c -1.28537,-7.13168 -11.25728,-7.85729 -16.02555,-7.94021 l -22.99137,0 C 444.06625,50.04529 277.7157,49.40344 243.38413,47.61969 198.04407,45.35995 157.2235,37.81363 157.2235,37.81363 c 0,0 0.80937,18.88651 -11.17434,39.45228 -27.1377,46.48031 -59.209524,80.5009 -88.835014,125.36413 -9.32923,13.99385 -27.63525,31.32549 -15.07189,49.71444 13.12312,19.19748 34.49742,1.38985 43.57787,-11.65117 3.06828,-4.4573 5.99144,-9.41216 8.25119,-14.74019 0,0 203.916254,-70.54971 275.336694,-65.0351 0,0 3.56584,10.61459 -6.55119,48.9059 -9.16338,34.58035 -19.44626,67.70948 -30.45476,100.17521 -21.78893,3.08901 -41.6291,4.29144 -63.97779,-0.72478 C 262.66454,307.98899 259.0987,298.1 247.26094,298.1 c -7.19387,0 -13.10238,16.93774 -14.40848,23.01211 -2.25974,10.36581 -3.1512,23.15722 -5.43168,33.4401 -2.4256,11.0085 -5.74266,25.33405 4.0634,30.93159 9.22557,5.34876 30.20597,-9.80606 32.88035,-11.09142 14.49141,-7.29753 34.72547,-11.89995 49.32054,-12.56337 l 0.22887,0 c -33.77181,91.19842 -72.39483,177.77368 -108.92395,270.40257 -22.74259,57.8205 -37.64862,106.97518 -37.64862,106.97518 l -11.81703,8.35485 c -10.13776,7.35972 -17.97432,12.62556 -28.11208,20.08894 -5.49388,4.04267 -9.3085,17.55969 -3.06828,21.76821 8.58289,5.90851 23.15722,-2.90243 34.97425,-8.49997 11.75483,-5.57681 175.8249,-82.92649 175.8249,-82.92649 0,0 -6.07437,-117.7349 11.98287,-184.71877 14.09751,-52.38882 25.99746,-101.70935 41.94008,-145.68113 2.75731,-7.62923 5.7634,-14.98896 8.74875,-22.28649 14.0975,-3.23413 28.50598,-6.79997 44.0547,-11.7341 8.66582,-2.75731 41.29739,-13.84872 38.62302,-30.6828 -2.4256,-15.96335 -42.99739,-8.35485 -55.0632,-7.13168 -2.01097,0.16585 -4.04266,0.55892 -6.07436,0.97521 8.74874,-18.63773 18.22309,-37.81448 28.67183,-59.52049 16.99993,-35.38888 30.84866,-72.72653 52.9693,-105.29592 10.11703,-14.96823 22.09991,-28.17427 35.78278,-39.82545 9.80606,-8.43777 27.78038,-18.80358 25.02307,-33.93766" style="fill:#bf331c"/>
  <g transform="matrix(20.731624,0,0,-20.731624,-15193.901,5790.3625)">
    <path d="m 740.406,275.297 c -0.769,-1.32 -1.633,-2.449 -2.468,-3.543 l 0,0 c -0.61,-0.801 -1.239,-1.625 -1.836,-2.527 l 0,0 c -0.082,-0.125 -0.18,-0.258 -0.278,-0.391 l 0,0 c -0.496,-0.672 -0.707,-1.027 -0.453,-1.398 l 0,0 c 0.113,-0.168 0.195,-0.168 0.231,-0.168 l 0,0 c 0.253,0 0.683,0.332 0.968,0.734 l 0,0 c 0.141,0.211 0.258,0.414 0.34,0.609 l 0,0 0.094,0.231 0.234,0.078 c 0.375,0.129 9.25,3.18 13.051,3.18 l 0,0 c 0.16,0 0.313,-0.004 0.453,-0.012 l 0,0 0.36,-0.031 0.117,-0.344 c 0.054,-0.156 0.187,-0.809 -0.305,-2.676 l 0,0 c -0.398,-1.516 -0.883,-3.105 -1.476,-4.871 l 0,0 -0.11,-0.32 -0.34,-0.047 c -0.656,-0.09 -1.164,-0.133 -1.644,-0.133 l 0,0 c -0.571,0 -1.102,0.059 -1.637,0.18 l 0,0 c -0.246,0.054 -0.41,0.207 -0.543,0.328 l 0,0 c -0.105,0.097 -0.172,0.152 -0.242,0.179 l 0,0 c -0.094,-0.14 -0.219,-0.441 -0.27,-0.66 l 0,0 c -0.05,-0.234 -0.086,-0.5 -0.121,-0.765 l 0,0 c -0.043,-0.293 -0.082,-0.586 -0.14,-0.86 l 0,0 c -0.121,-0.543 -0.145,-0.843 -0.11,-0.867 l 0,0 c 0.114,0 0.371,0.074 0.953,0.442 l 0,0 c 0.078,0.046 0.133,0.078 0.161,0.093 l 0,0 c 0.82,0.41 1.894,0.625 2.593,0.657 l 0,0 0.844,0.039 -0.289,-0.778 c -0.965,-2.601 -2.031,-5.183 -3.066,-7.679 l 0,0 c -0.731,-1.762 -1.469,-3.547 -2.192,-5.375 l 0,0 c -1.078,-2.735 -1.797,-5.094 -1.805,-5.118 l 0,0 -0.054,-0.179 -0.153,-0.11 -0.562,-0.394 c -0.242,-0.18 -0.457,-0.332 -0.676,-0.485 l 0,0 c -0.215,-0.156 -0.433,-0.308 -0.668,-0.48 l 0,0 c -0.027,-0.027 -0.055,-0.09 -0.07,-0.148 l 0,0 c 0.207,0.035 0.523,0.191 0.781,0.32 l 0,0 0.254,0.125 c 0.5,0.234 6.645,3.129 8.152,3.84 l 0,0 c -0.046,1.328 -0.152,5.879 0.614,8.715 l 0,0 0.414,1.558 c 0.519,1.961 1.008,3.813 1.625,5.512 l 0,0 c 0.129,0.355 0.265,0.703 0.41,1.047 l 0,0 0.125,0.312 0.281,0.067 c 0.586,0.132 1.293,0.304 2.078,0.55 l 0,0 c 1.106,0.352 1.508,0.758 1.531,0.797 l 0,0 c -0.003,0 -0.128,0.094 -0.636,0.094 l 0,0 c -0.395,0 -0.84,-0.059 -1.16,-0.102 l 0,0 -0.301,-0.035 c -0.051,-0.004 -0.098,-0.011 -0.149,-0.019 l 0,0 -0.125,-0.02 -1.019,-0.156 0.441,0.934 c 0.266,0.554 0.539,1.121 0.832,1.722 l 0,0 0.555,1.149 c 0.23,0.476 0.445,0.961 0.664,1.441 l 0,0 c 0.559,1.25 1.141,2.539 1.934,3.707 l 0,0 c 0.507,0.75 1.101,1.414 1.82,2.031 l 0,0 c 0.09,0.075 0.191,0.157 0.297,0.239 l 0,0 c 0.308,0.242 0.683,0.531 0.73,0.789 l 0,0 c -0.05,0.011 -0.129,0.023 -0.234,0.023 l 0,0 -0.559,0 -0.554,0 c -2.719,0.008 -11.731,0.031 -13.504,0.121 l 0,0 c -1.496,0.078 -2.875,0.27 -3.629,0.391 l 0,0 c -0.07,-0.41 -0.223,-0.969 -0.559,-1.543" style="fill:url(#radialGradient2997)"/>
  </g>
</svg>
