<?xml version="1.0" encoding="UTF-8" standalone="no"?>
<svg xmlns="http://www.w3.org/2000/svg" version="1.1" width="600" height="829.23035">
  <radialGradient cx="0" cy="0" r="1" fx="0" fy="0" id="radialGradient606" gradientUnits="userSpaceOnUse" gradientTransform="matrix(15.084534,0,0,-15.084534,663.95215,259.2627)" spreadMethod="pad">
    <stop style="stop-color:#d9eaf3" offset="0"/>
    <stop style="stop-color:#99aebc" offset="0.66291797"/>
    <stop style="stop-color:#536e78" offset="1"/>
  </radialGradient>
  <path d="m 131.16317,829.23033 c -10.30317,0 -20.08808,-2.98523 -28.27672,-8.58253 -12.065292,-8.25083 -19.258862,-22.01604 -19.590552,-37.64702 -0.33169,-17.91135 8.18864,-35.80198 21.622162,-45.83566 5.43145,-3.9803 10.19952,-7.38014 15.07125,-10.77998 4.12541,-2.98523 8.33375,-5.99118 13.10182,-9.47395 l 1.94869,-1.36823 c 5.99118,-18.63693 18.30524,-55.47545 34.6618,-97.1857 15.07124,-37.97871 30.37053,-74.98308 45.58689,-111.65575 11.83725,-28.58769 23.32208,-56.20103 34.41302,-83.8973 -4.37418,1.05644 -8.89348,1.69992 -13.43352,1.69992 -8.4996,0 -16.43947,-2.11453 -23.57085,-6.0741 -33.9984,-19.52836 -25.18784,-58.95822 -22.26481,-71.91493 0.89059,-4.37419 1.53408,-9.14226 2.17673,-13.84814 0.89225,-6.79968 1.94869,-13.59936 3.25473,-19.67347 5.57656,-25.51954 22.09896,-52.71827 51.41223,-52.71827 17.66258,0 29.8108,7.85695 36.52756,13.3506 5.09976,0.82923 10.28244,1.22228 15.79682,1.22228 1.45115,0 2.98522,-0.0829 4.5193,-0.0829 8.43741,-26.16219 15.40294,-49.79523 21.62216,-72.95147 -62.02637,9.86784 -156.37196,38.78722 -205.44161,55.14377 -1.14102,1.86576 -2.34258,3.7108 -3.64861,5.57657 -11.98237,17.24797 -34.247182,36.11294 -60.243532,36.11294 -18.13939,0 -34.74471,-9.05933 -45.58689,-24.93908 -25.43662,-37.48117 0.64182,-72.78562 10.53121,-86.07402 1.53408,-2.03161 2.98523,-3.95957 4.29127,-5.90826 13.26767,-20.17101 26.88776,-37.97871 39.98959,-55.14376 17.10286,-22.51359 33.29357,-43.65894 47.701432,-68.43217 5.90826,-10.1166 6.0741,-19.52836 6.0741,-19.67347 0.0829,-11.17387 5.09977,-22.20262 13.76521,-29.39619 C 140.13958,3.31692 148.88795,0 157.88509,0 c 2.01089,0 4.12542,0.16585 6.21923,0.49754 0.33169,0.0829 39.03597,7.11064 81.22303,9.3081 35.47029,1.86577 221.40428,2.4255 277.52239,2.59134 l 11.50556,0 11.42263,0 c 33.99841,0 49.96108,20.97951 53.278,38.95306 6.4058,35.1386 -21.45631,56.76076 -33.29356,65.98594 -1.617,1.22394 -3.06815,2.3633 -4.37419,3.48276 -11.48483,9.80564 -20.95878,20.33686 -28.98157,32.31922 -14.17983,20.73074 -24.77323,44.38451 -36.03002,69.40651 -4.62296,10.44829 -9.30811,20.81366 -14.26275,31.01319 l -2.01088,4.20834 c 30.20468,7.93987 36.58975,31.0961 37.81286,39.18109 2.34258,15.23709 0.72475,52.32438 -64.78355,72.80635 -9.80564,3.00596 -18.9479,5.5973 -27.36458,7.77403 -0.41461,0.97352 -0.74631,1.94869 -1.14102,2.92303 -12.06529,33.35574 -21.95385,70.94057 -32.48506,110.78505 l -8.49961,31.9046 c -16.27363,60.24353 -10.84217,171.75417 -10.67633,172.87363 0.72641,15.32001 -7.85695,29.64495 -21.70508,36.2166 l -175.81739,82.92295 -4.60222,2.17673 c -10.69706,5.34853 -23.98547,11.89944 -39.67864,11.89944"/>
  <path d="m 561.80279,58.15053 c -1.2853,-7.13137 -11.25679,-7.85695 -16.02486,-7.93987 l -23.09404,0 c -78.63169,-0.16585 -244.9544,-0.80933 -279.36743,-2.59135 -45.35885,-2.25965 -86.09475,-9.80563 -86.09475,-9.80563 0,0 0.80767,18.8857 -11.17387,39.45059 -27.1158,46.47831 -59.186252,80.49746 -88.831212,125.35877 -9.3081,13.99325 -27.61334,31.32415 -15.05051,49.71231 13.03963,19.19667 34.49594,1.38813 43.55528,-11.65067 3.08888,-4.45711 5.99118,-9.41176 8.27156,-14.73956 0,0 203.907542,-70.5467 275.324932,-65.03232 0,0 3.56569,10.61414 -6.57164,48.90381 -9.14226,34.57887 -19.50763,67.70659 -30.43273,100.17093 -21.788,3.08888 -41.62732,4.29126 -63.97505,-0.72641 -5.68023,-1.28531 -9.24591,-11.17387 -21.06243,-11.17387 -7.2143,0 -13.12256,16.93702 -14.40787,23.01112 -2.34257,10.36537 -3.1718,23.15624 -5.51437,33.43868 -2.4255,11.00802 -5.6595,25.33296 4.12541,30.93026 9.24591,5.34853 30.20469,-9.80564 32.87895,-11.09094 14.51152,-7.29722 34.6618,-11.89945 49.31843,-12.56283 l 0.24877,0 c -33.77037,91.19452 -72.39174,177.76608 -108.9193,270.39102 -22.76235,57.81803 -37.64702,106.97061 -37.64702,106.97061 l -11.92017,8.35448 c -10.1166,7.35941 -17.89063,12.62502 -28.00723,20.08809 -5.51438,4.04249 -9.3081,17.55893 -3.08888,21.76727 8.60326,5.90826 23.17697,-2.9023 34.91056,-8.4996 11.7336,-5.57657 175.87958,-82.92295 175.87958,-82.92295 0,0 -6.1363,-117.72986 12.0031,-184.71088 14.07617,-52.38657 25.97562,-101.705 41.85536,-145.67489 2.84011,-7.62892 5.82534,-14.98833 8.8313,-22.28555 14.0969,-3.23399 28.42184,-6.79968 44.05281,-11.73359 8.66545,-2.75719 41.21271,-13.84814 38.62137,-30.6815 -2.50842,-15.96267 -42.99555,-8.35448 -55.06084,-7.13137 -2.11454,0.16584 -4.04249,0.5589 -6.15703,0.97517 8.83129,-18.63693 18.30524,-37.81286 28.75353,-59.51795 16.91629,-35.38737 30.76442,-72.72343 52.94631,-105.29141 10.13733,-14.9676 22.1197,-28.17308 35.80198,-39.82375 9.80564,-8.43741 27.77919,-18.80278 25.022,-33.93622" style="fill:#536e78"/>
  <g transform="matrix(20.730738,0,0,-20.730738,-13464.241,5790.1166)">
    <path d="m 657.004,275.297 c -0.774,-1.317 -1.633,-2.449 -2.469,-3.539 l 0,0 c -0.609,-0.801 -1.238,-1.629 -1.836,-2.531 l 0,0 c -0.082,-0.125 -0.176,-0.254 -0.277,-0.387 l 0,0 c -0.496,-0.676 -0.703,-1.031 -0.453,-1.402 l 0,0 c 0.113,-0.168 0.195,-0.168 0.23,-0.168 l 0,0 c 0.25,0 0.684,0.332 0.969,0.734 l 0,0 c 0.141,0.207 0.254,0.41 0.34,0.609 l 0,0 0.094,0.231 0.234,0.078 c 0.375,0.129 9.25,3.18 13.051,3.18 l 0,0 c 0.16,0 0.308,-0.004 0.453,-0.012 l 0,0 0.359,-0.031 0.117,-0.344 c 0.055,-0.156 0.192,-0.809 -0.3,-2.676 l 0,0 c -0.414,-1.551 -0.899,-3.144 -1.485,-4.871 l 0,0 -0.109,-0.32 -0.336,-0.047 c -0.656,-0.09 -1.168,-0.133 -1.648,-0.133 l 0,0 c -0.567,0 -1.098,0.059 -1.633,0.18 l 0,0 c -0.246,0.054 -0.41,0.207 -0.543,0.332 l 0,0 c -0.11,0.097 -0.172,0.152 -0.242,0.175 l 0,0 c -0.094,-0.136 -0.223,-0.441 -0.27,-0.66 l 0,0 c -0.051,-0.234 -0.086,-0.5 -0.121,-0.761 l 0,0 c -0.043,-0.297 -0.082,-0.59 -0.145,-0.864 l 0,0 c -0.117,-0.543 -0.14,-0.843 -0.105,-0.867 l 0,0 c 0.113,0 0.371,0.074 0.949,0.442 l 0,0 c 0.074,0.043 0.133,0.078 0.16,0.093 l 0,0 c 0.824,0.41 1.903,0.625 2.598,0.657 l 0,0 0.844,0.039 -0.289,-0.778 c -0.965,-2.597 -2.032,-5.176 -3.063,-7.664 l 0,0 c -0.734,-1.769 -1.473,-3.554 -2.195,-5.39 l 0,0 c -1.078,-2.735 -1.797,-5.094 -1.805,-5.118 l 0,0 -0.055,-0.179 -0.152,-0.11 -0.562,-0.394 c -0.239,-0.176 -0.45,-0.324 -0.657,-0.473 l 0,0 c -0.222,-0.156 -0.445,-0.312 -0.687,-0.492 l 0,0 c -0.027,-0.027 -0.055,-0.09 -0.07,-0.148 l 0,0 c 0.207,0.035 0.523,0.191 0.785,0.32 l 0,0 0.25,0.125 c 0.496,0.234 6.644,3.129 8.152,3.84 l 0,0 c -0.051,1.328 -0.152,5.879 0.609,8.715 l 0,0 0.414,1.539 c 0.516,1.968 1.008,3.824 1.625,5.531 l 0,0 c 0.11,0.301 0.223,0.59 0.344,0.879 l 0,0 0.086,0.215 0.11,0.265 0.281,0.067 c 0.547,0.125 1.273,0.3 2.078,0.55 l 0,0 c 1.105,0.352 1.504,0.758 1.527,0.797 l 0,0 c 0,0 -0.125,0.094 -0.633,0.094 l 0,0 c -0.394,0 -0.839,-0.059 -1.16,-0.102 l 0,0 -0.301,-0.035 c -0.05,-0.004 -0.097,-0.011 -0.152,-0.019 l 0,0 -0.121,-0.02 -1.019,-0.156 0.441,0.934 c 0.25,0.527 0.512,1.066 0.785,1.628 l 0,0 0.602,1.243 c 0.226,0.476 0.441,0.961 0.664,1.441 l 0,0 c 0.558,1.25 1.136,2.539 1.929,3.707 l 0,0 c 0.508,0.754 1.11,1.414 1.829,2.031 l 0,0 c 0.085,0.075 0.187,0.157 0.292,0.239 l 0,0 c 0.309,0.242 0.688,0.535 0.731,0.789 l 0,0 c -0.051,0.011 -0.129,0.023 -0.234,0.023 l 0,0 -0.559,0 -0.555,0 c -2.718,0.008 -11.73,0.031 -13.504,0.121 l 0,0 c -1.496,0.078 -2.875,0.27 -3.629,0.391 l 0,0 c -0.07,-0.41 -0.222,-0.969 -0.558,-1.543" style="fill:url(#radialGradient606)"/>
  </g>
</svg>
