<?xml version="1.0" encoding="UTF-8" standalone="no"?>
<svg xmlns="http://www.w3.org/2000/svg" version="1.1" width="600" height="829.2251">
  <path d="m 561.84625,58.14856 c -1.30686,-7.13134 -11.25673,-7.85691 -16.12843,-7.93983 l -22.99026,0 C 444.01336,50.04288 277.69154,49.40106 243.34089,47.6174 198.003,45.35776 157.26732,37.81181 157.26732,37.81181 c 0,0 0.72474,18.8856 -11.17381,39.45039 -27.21931,46.47806 -59.289589,80.49702 -88.913659,125.3581 -9.24586,13.99318 -27.53027,31.32398 -15.07117,49.71205 13.12249,19.19656 34.57869,1.38978 43.57578,-11.65062 3.15106,-4.45708 5.99115,-9.4117 8.25079,-14.73947 0,0 203.989379,-70.54633 275.323469,-65.03198 0,0 3.64859,10.61408 -6.55088,48.90355 -9.14221,34.57869 -19.4246,67.70623 -30.45329,100.17039 -21.70497,3.08887 -41.54418,4.29124 -63.97472,-0.72474 -5.57654,-1.2853 -9.14221,-11.17381 -20.95866,-11.17381 -7.29718,0 -13.12249,16.93692 -14.51144,23.011 -2.25964,10.36531 -3.15106,23.15611 -5.4107,33.4385 -2.42548,11.00796 -5.76311,25.33283 4.1254,30.9301 9.22513,5.3485 30.1216,-9.80559 32.87877,-11.09089 14.40779,-7.29718 34.66161,-11.89938 49.23524,-12.56276 l 0.24877,0 c -33.68727,91.19403 -72.41208,177.76513 -108.91872,270.38958 -22.76222,57.81772 -37.66755,106.97004 -37.66755,106.97004 l -11.81645,8.35444 c -10.11655,7.35937 -17.89054,12.62495 -28.02781,20.08798 -5.49362,4.04247 -9.30805,17.55884 -3.06814,21.76716 8.58248,5.90823 23.07319,-2.90229 34.91038,-8.49956 11.73354,-5.57654 175.79572,-82.92251 175.79572,-82.92251 0,0 -6.07407,-117.72924 11.98231,-184.70989 14.09682,-52.3863 26.07913,-101.70446 41.95879,-145.67412 2.73644,-7.62887 5.74238,-14.98825 8.72759,-22.28543 14.17975,-3.23398 28.50461,-6.79964 44.05259,-11.73353 8.74832,-2.75718 41.31614,-13.84806 38.72481,-30.68133 -2.50841,-15.96259 -43.01605,-8.35445 -55.08128,-7.13134 -2.09379,0.16585 -4.12539,0.5589 -6.13627,0.97351 8.7276,-18.63683 18.2015,-37.81266 28.64973,-59.51763 17.01985,-35.38718 30.86791,-72.72304 52.96676,-105.29086 10.19946,-14.96751 22.09884,-28.17292 35.80179,-39.82353 9.78486,-8.43737 27.84123,-18.80268 25.10479,-33.93604"/>
</svg>
