<?xml version="1.0" encoding="utf-8"?>
<!-- Generator: Adobe Illustrator 15.1.0, SVG Export Plug-In . SVG Version: 6.00 Build 0)  -->
<!DOCTYPE svg PUBLIC "-//W3C//DTD SVG 1.1//EN" "http://www.w3.org/Graphics/SVG/1.1/DTD/svg11.dtd">
<svg version="1.1" id="Layer_1" xmlns="http://www.w3.org/2000/svg" xmlns:xlink="http://www.w3.org/1999/xlink" x="0px" y="0px"
	 width="325px" height="350px" viewBox="37 0 325 350" enable-background="new 37 0 325 350" xml:space="preserve">
<g id="Layer_1_1_">
</g>
<g>
	<polygon fill="#808080" points="63.694,254.903 63.694,97.405 200.094,18.653 336.492,97.405 336.492,254.903 200.094,333.652 	"/>
	<polygon points="200.094,32.631 75.8,104.394 75.8,247.914 200.094,319.675 324.387,247.914 324.387,104.394 	"/>
	<path fill="#808080" d="M180.741,114.424c-8.296-26.815,5.594-49.383,5.594-49.383s-1.544,14.465,8.681,27.777
		c10.222,13.312,33.758,32.215,46.875,46.106c13.118,13.889,21.412,26.619,21.412,26.619c-0.771-19.677-40.509-53.048-45.333-57.678
		c-4.82-4.629-8.873-8.103-8.873-18.135c0-10.03,5.209-17.747,5.209-17.747c-0.191,3.667,0.385,15.047,9.452,27.009
		c9.068,11.961,40.897,40.315,51.122,50.348c10.224,10.033,12.087,28.102,12.087,31.444c0,3.344-0.771,9.004-0.771,9.004
		c13.118-0.13,10.03,13.115,10.03,13.115c12.092-5.53,15.563-16.719,15.563-16.719c5.788,38.583-23.535,52.472-23.535,52.472
		c4.757-24.822-21.734-25.593-25.077-25.593c-3.344,0-8.876,0.901-8.876,0.901c9.774-15.433-10.929-21.606-28.806-21.606
		c-17.878,0-24.692,7.072-24.692,7.072c16.717-1.414,22.893,3.604,22.893,3.604s-7.718,6.171-7.718,14.273
		c0,11.962,14.276,8.746,14.276,8.746s-5.145,3.599-5.145,8.744c0,10.933,14.531,7.201,14.531,7.201
		c-6.816,11.96,2.958,14.66,9.647,14.66c6.687,0,13.439-3.921,13.439-3.921c-17.171,38.581-74.785,31.187-74.785,31.187
		c26.876-8.232,25.72-25.204,25.72-25.204c-4.244,5.528-11.831,3.471-11.831,3.471s6.559-5.4,6.559-15.305
		c0-14.789-15.947-34.339-43.34-34.339c-5.402,0-15.689,1.547-15.689,1.547c14.146-23.408,42.183-30.482,42.183-30.482
		c-6.816-6.814-22.506-7.585-22.506-7.585c15.304-11.446,42.438-13.118,42.438-13.118c-46.041-9.775-68.545,19.932-68.545,19.932
		c11.574-0.386,18.262,3.471,18.262,3.471c-28.294,6.559-45.655,27.267-45.655,27.267s3.857-20.708-5.016-30.479
		c-8.874-9.775-26.363-7.332-26.363-7.332c24.435-24.562,42.31-22.247,42.31-32.407c0-14.532-18.389-22.634-18.389-22.634
		c19.032-5.145,32.666,2.059,32.666,2.059c-10.031-9.003-8.232-34.211-8.232-34.211c19.163,25.723,27.606,25.406,46.812,36.523
		c19.548,11.318,27.521,23.663,27.521,23.663C205.371,133.136,180.741,114.424,180.741,114.424z M248.129,182.713
		c5.018,4.114,13.246,2.313,13.246,2.313c-2.315-12.858-14.917-22.89-19.161-25.72c-4.244-2.828-6.687-1.929-6.687-1.929
		C231.668,166.635,243.114,178.599,248.129,182.713z"/>
</g>
</svg>
