<?xml version="1.0" encoding="utf-8"?>
<!-- Generator: Adobe Illustrator 15.1.0, SVG Export Plug-In . SVG Version: 6.00 Build 0)  -->
<!DOCTYPE svg PUBLIC "-//W3C//DTD SVG 1.1//EN" "http://www.w3.org/Graphics/SVG/1.1/DTD/svg11.dtd">
<svg version="1.1" id="Layer_1" xmlns="http://www.w3.org/2000/svg" xmlns:xlink="http://www.w3.org/1999/xlink" x="0px" y="0px"
	 width="325px" height="350px" viewBox="37 0 325 350" enable-background="new 37 0 325 350" xml:space="preserve">
<g id="Layer_1_1_">
</g>
<g>
	<polygon fill="#FFFFFF" points="63.297,254.903 63.297,97.405 199.696,18.653 336.095,97.405 336.095,254.903 199.696,333.652 	"/>
	<polygon points="70.312,250.854 70.312,101.455 199.696,26.751 329.08,101.455 329.08,250.854 199.696,325.555 	"/>
	<linearGradient id="SVGID_1_" gradientUnits="userSpaceOnUse" x1="95.1348" y1="263.8906" x2="304.2576" y2="88.4158">
		<stop  offset="0" style="stop-color:#BB2C26"/>
		<stop  offset="0.0098" style="stop-color:#BD2F26"/>
		<stop  offset="0.1368" style="stop-color:#D05724"/>
		<stop  offset="0.238" style="stop-color:#DC6F23"/>
		<stop  offset="0.3" style="stop-color:#E07823"/>
		<stop  offset="0.3053" style="stop-color:#E17A23"/>
		<stop  offset="0.3616" style="stop-color:#EE8B1F"/>
		<stop  offset="0.4232" style="stop-color:#F5951E"/>
		<stop  offset="0.5" style="stop-color:#F7981D"/>
		<stop  offset="0.5768" style="stop-color:#F5951E"/>
		<stop  offset="0.6384" style="stop-color:#EE8B1F"/>
		<stop  offset="0.6947" style="stop-color:#E17A23"/>
		<stop  offset="0.7" style="stop-color:#E07823"/>
		<stop  offset="0.762" style="stop-color:#DC6F23"/>
		<stop  offset="0.8632" style="stop-color:#D05724"/>
		<stop  offset="0.9902" style="stop-color:#BD2F26"/>
		<stop  offset="1" style="stop-color:#BB2C26"/>
	</linearGradient>
	<polygon fill="url(#SVGID_1_)" points="199.696,37.552 79.664,106.853 79.664,245.453 199.696,314.754 319.729,245.453 
		319.729,106.853 	"/>
	<path d="M181.005,116.54c-8.01-25.896,5.403-47.69,5.403-47.69s-1.49,13.969,8.384,26.824
		c9.872,12.855,32.601,31.111,45.269,44.527c12.666,13.411,20.677,25.706,20.677,25.706c-0.744-19.003-39.121-51.23-43.777-55.701
		c-4.655-4.471-8.57-7.824-8.57-17.513c0-9.685,5.031-17.14,5.031-17.14c-0.187,3.542,0.371,14.532,9.127,26.084
		c8.755,11.55,39.495,38.933,49.369,48.622c9.871,9.687,11.673,27.137,11.673,30.366c0,3.228-0.745,8.694-0.745,8.694
		c12.666-0.126,9.688,12.666,9.688,12.666c11.675-5.341,15.025-16.145,15.025-16.145c5.592,37.259-22.727,50.672-22.727,50.672
		c4.597-23.971-20.986-24.715-24.219-24.715c-3.228,0-8.566,0.87-8.566,0.87c9.437-14.903-10.555-20.866-27.819-20.866
		c-17.266,0-23.846,6.831-23.846,6.831c16.142-1.367,22.107,3.478,22.107,3.478s-7.452,5.961-7.452,13.785
		c0,11.552,13.786,8.445,13.786,8.445s-4.97,3.476-4.97,8.446c0,10.557,14.035,6.953,14.035,6.953
		c-6.585,11.551,2.856,14.158,9.313,14.158s12.979-3.785,12.979-3.785c-16.579,37.256-72.219,30.115-72.219,30.115
		c25.956-7.949,24.838-24.339,24.838-24.339c-4.098,5.339-11.425,3.353-11.425,3.353s6.332-5.216,6.332-14.782
		c0-14.281-15.399-33.161-41.855-33.161c-5.216,0-15.146,1.494-15.146,1.494c13.659-22.606,40.734-29.437,40.734-29.437
		c-6.585-6.581-21.736-7.325-21.736-7.325c14.78-11.054,40.985-12.669,40.985-12.669c-44.46-9.438-66.194,19.249-66.194,19.249
		c11.177-0.371,17.634,3.353,17.634,3.353c-27.323,6.334-44.089,26.33-44.089,26.33s3.727-19.996-4.842-29.435
		c-8.57-9.438-25.46-7.079-25.46-7.079c23.596-23.72,40.859-21.485,40.859-31.298c0-14.033-17.759-21.856-17.759-21.856
		c18.381-4.97,31.546,1.988,31.546,1.988c-9.689-8.696-7.949-33.038-7.949-33.038c18.504,24.841,26.659,24.533,45.205,35.27
		c18.88,10.931,26.579,22.853,26.579,22.853C204.792,134.611,181.005,116.54,181.005,116.54z M246.084,182.488
		c4.845,3.973,12.791,2.232,12.791,2.232c-2.234-12.416-14.406-22.105-18.504-24.839c-4.098-2.73-6.457-1.863-6.457-1.863
		C230.188,166.961,241.239,178.516,246.084,182.488z"/>
</g>
</svg>
