<?xml version="1.0" encoding="utf-8"?>
<!-- Generator: Adobe Illustrator 27.6.1, SVG Export Plug-In . SVG Version: 6.00 Build 0)  -->
<svg version="1.1" id="Layer_1" xmlns="http://www.w3.org/2000/svg" xmlns:xlink="http://www.w3.org/1999/xlink" x="0px" y="0px"
	 viewBox="0 0 325 350" style="enable-background:new 0 0 325 350;" xml:space="preserve">
<style type="text/css">
	.st0{fill:url(#SVGID_1_);}
</style>
<g id="Layer_1_1_">
</g>
<g>
	<polygon points="33.3,250.9 33.3,101.5 162.7,26.8 292.1,101.5 292.1,250.9 162.7,325.6 	"/>
	
		<linearGradient id="SVGID_1_" gradientUnits="userSpaceOnUse" x1="58.1349" y1="88.1095" x2="267.2581" y2="263.5845" gradientTransform="matrix(1 0 0 -1 0 352)">
		<stop  offset="0" style="stop-color:#BB2C26"/>
		<stop  offset="9.800000e-03" style="stop-color:#BD2F26"/>
		<stop  offset="0.1368" style="stop-color:#D05724"/>
		<stop  offset="0.238" style="stop-color:#DC6F23"/>
		<stop  offset="0.3" style="stop-color:#E07823"/>
		<stop  offset="0.3053" style="stop-color:#E17A23"/>
		<stop  offset="0.3616" style="stop-color:#EE8B1F"/>
		<stop  offset="0.4232" style="stop-color:#F5951E"/>
		<stop  offset="0.5" style="stop-color:#F7981D"/>
		<stop  offset="0.5768" style="stop-color:#F5951E"/>
		<stop  offset="0.6384" style="stop-color:#EE8B1F"/>
		<stop  offset="0.6947" style="stop-color:#E17A23"/>
		<stop  offset="0.7" style="stop-color:#E07823"/>
		<stop  offset="0.762" style="stop-color:#DC6F23"/>
		<stop  offset="0.8632" style="stop-color:#D05724"/>
		<stop  offset="0.9902" style="stop-color:#BD2F26"/>
		<stop  offset="1" style="stop-color:#BB2C26"/>
	</linearGradient>
	<polygon class="st0" points="162.7,37.6 42.7,106.9 42.7,245.5 162.7,314.8 282.7,245.5 282.7,106.9 	"/>
	<path d="M144,116.5c-8-25.9,5.4-47.7,5.4-47.7s-1.5,14,8.4,26.8c9.9,12.9,32.6,31.1,45.3,44.5c12.7,13.4,20.7,25.7,20.7,25.7
		c-0.7-19-39.1-51.2-43.8-55.7c-4.7-4.5-8.6-7.8-8.6-17.5c0-9.7,5-17.1,5-17.1c-0.2,3.5,0.4,14.5,9.1,26.1
		c8.8,11.6,39.5,38.9,49.4,48.6c9.9,9.7,11.7,27.1,11.7,30.4c0,3.2-0.7,8.7-0.7,8.7c12.7-0.1,9.7,12.7,9.7,12.7
		c11.7-5.3,15-16.1,15-16.1c5.6,37.3-22.7,50.7-22.7,50.7c4.6-24-21-24.7-24.2-24.7c-3.2,0-8.6,0.9-8.6,0.9
		c9.4-14.9-10.6-20.9-27.8-20.9c-17.3,0-23.8,6.8-23.8,6.8c16.1-1.4,22.1,3.5,22.1,3.5s-7.5,6-7.5,13.8c0,11.6,13.8,8.4,13.8,8.4
		s-5,3.5-5,8.4c0,10.6,14,7,14,7c-6.6,11.6,2.9,14.2,9.3,14.2s13-3.8,13-3.8c-16.6,37.3-72.2,30.1-72.2,30.1
		c26-7.9,24.8-24.3,24.8-24.3c-4.1,5.3-11.4,3.4-11.4,3.4s6.3-5.2,6.3-14.8c0-14.3-15.4-33.2-41.9-33.2c-5.2,0-15.1,1.5-15.1,1.5
		c13.7-22.6,40.7-29.4,40.7-29.4c-6.6-6.6-21.7-7.3-21.7-7.3c14.8-11.1,41-12.7,41-12.7c-44.5-9.4-66.2,19.2-66.2,19.2
		c11.2-0.4,17.6,3.4,17.6,3.4C97.8,192.3,81,212.3,81,212.3s3.7-20-4.8-29.4c-8.6-9.4-25.5-7.1-25.5-7.1
		c23.6-23.7,40.9-21.5,40.9-31.3c0-14-17.8-21.9-17.8-21.9c18.4-5,31.5,2,31.5,2c-9.7-8.7-7.9-33-7.9-33
		c18.5,24.8,26.7,24.5,45.2,35.3c18.9,10.9,26.6,22.9,26.6,22.9C167.8,134.6,144,116.5,144,116.5z M209.1,182.5
		c4.8,4,12.8,2.2,12.8,2.2c-2.2-12.4-14.4-22.1-18.5-24.8c-4.1-2.7-6.5-1.9-6.5-1.9C193.2,167,204.2,178.5,209.1,182.5z"/>
</g>
</svg>
