<?xml version="1.0" encoding="utf-8"?>
<!-- Generator: Adobe Illustrator 15.1.0, SVG Export Plug-In . SVG Version: 6.00 Build 0)  -->
<!DOCTYPE svg PUBLIC "-//W3C//DTD SVG 1.1//EN" "http://www.w3.org/Graphics/SVG/1.1/DTD/svg11.dtd">
<svg version="1.1" id="Layer_1" xmlns="http://www.w3.org/2000/svg" xmlns:xlink="http://www.w3.org/1999/xlink" x="0px" y="0px"
	 width="325px" height="350px" viewBox="37 0 325 350" enable-background="new 37 0 325 350" xml:space="preserve">
<g id="Layer_1_1_">
</g>
<g>
	<polygon points="63.763,254.903 63.763,97.405 200.162,18.653 336.561,97.405 336.561,254.903 200.162,333.652 	"/>
	<linearGradient id="SVGID_1_" gradientUnits="userSpaceOnUse" x1="91.8887" y1="267.0059" x2="308.435" y2="85.3019">
		<stop  offset="0" style="stop-color:#8D742F"/>
		<stop  offset="0.0286" style="stop-color:#927934"/>
		<stop  offset="0.1967" style="stop-color:#AA914B"/>
		<stop  offset="0.3" style="stop-color:#B39A54"/>
		<stop  offset="0.3145" style="stop-color:#B9A059"/>
		<stop  offset="0.3681" style="stop-color:#CAB068"/>
		<stop  offset="0.4268" style="stop-color:#D4BA71"/>
		<stop  offset="0.5" style="stop-color:#D7BD74"/>
		<stop  offset="0.5732" style="stop-color:#D4BA71"/>
		<stop  offset="0.6319" style="stop-color:#CAB068"/>
		<stop  offset="0.6855" style="stop-color:#B9A059"/>
		<stop  offset="0.7" style="stop-color:#B39A54"/>
		<stop  offset="0.8033" style="stop-color:#AA914B"/>
		<stop  offset="0.9714" style="stop-color:#927934"/>
		<stop  offset="1" style="stop-color:#8D742F"/>
	</linearGradient>
	<polygon fill="url(#SVGID_1_)" points="200.162,32.631 75.869,104.394 75.869,247.914 200.162,319.675 324.455,247.914 
		324.455,104.394 	"/>
	<path d="M180.809,114.424c-8.294-26.815,5.594-49.383,5.594-49.383s-1.543,14.465,8.681,27.777
		c10.223,13.312,33.758,32.215,46.876,46.106c13.118,13.889,21.412,26.619,21.412,26.619c-0.771-19.677-40.51-53.048-45.331-57.678
		c-4.823-4.629-8.876-8.103-8.876-18.135c0-10.03,5.212-17.747,5.212-17.747c-0.194,3.667,0.383,15.047,9.45,27.009
		c9.067,11.961,40.897,40.315,51.121,50.348c10.224,10.033,12.087,28.102,12.087,31.444c0,3.344-0.771,9.004-0.771,9.004
		c13.118-0.13,10.029,13.115,10.029,13.115c12.092-5.53,15.563-16.719,15.563-16.719c5.788,38.583-23.536,52.472-23.536,52.472
		c4.758-24.822-21.733-25.593-25.077-25.593c-3.343,0-8.871,0.901-8.871,0.901c9.77-15.433-10.933-21.606-28.808-21.606
		c-17.878,0-24.694,7.072-24.694,7.072c16.719-1.414,22.893,3.604,22.893,3.604s-7.718,6.171-7.718,14.273
		c0,11.962,14.276,8.746,14.276,8.746s-5.145,3.599-5.145,8.744c0,10.933,14.531,7.201,14.531,7.201
		c-6.814,11.96,2.96,14.66,9.646,14.66c6.688,0,13.439-3.921,13.439-3.921c-17.17,38.581-74.783,31.187-74.783,31.187
		c26.877-8.232,25.721-25.204,25.721-25.204c-4.246,5.528-11.831,3.471-11.831,3.471s6.557-5.4,6.557-15.305
		c0-14.789-15.947-34.339-43.34-34.339c-5.401,0-15.688,1.547-15.688,1.547c14.146-23.408,42.181-30.482,42.181-30.482
		c-6.816-6.814-22.505-7.585-22.505-7.585c15.304-11.446,42.438-13.118,42.438-13.118C165.505,153.134,143,182.841,143,182.841
		c11.575-0.386,18.262,3.471,18.262,3.471c-28.293,6.559-45.655,27.267-45.655,27.267s3.859-20.708-5.015-30.479
		c-8.874-9.775-26.363-7.332-26.363-7.332c24.434-24.562,42.31-22.247,42.31-32.407c0-14.532-18.391-22.634-18.391-22.634
		c19.034-5.145,32.666,2.059,32.666,2.059c-10.031-9.003-8.23-34.211-8.23-34.211c19.163,25.723,27.604,25.406,46.812,36.523
		c19.548,11.318,27.522,23.663,27.522,23.663C205.439,133.136,180.809,114.424,180.809,114.424z M248.197,182.713
		c5.018,4.114,13.245,2.313,13.245,2.313c-2.312-12.858-14.917-22.89-19.161-25.72c-4.241-2.828-6.687-1.929-6.687-1.929
		C231.736,166.635,243.183,178.599,248.197,182.713z"/>
</g>
</svg>
