<?xml version="1.0" encoding="UTF-8" standalone="no"?>
<!-- Generator: Adobe Illustrator 15.1.0, SVG Export Plug-In . SVG Version: 6.00 Build 0)  -->

<svg
   version="1.1"
   id="Layer_1"
   x="0px"
   y="0px"
   width="325px"
   height="350px"
   viewBox="37 0 325 350"
   enable-background="new 37 0 325 350"
   xml:space="preserve"
   sodipodi:docname="T.svg"
   inkscape:version="1.1.1 (3bf5ae0d25, 2021-09-20)"
   xmlns:inkscape="http://www.inkscape.org/namespaces/inkscape"
   xmlns:sodipodi="http://sodipodi.sourceforge.net/DTD/sodipodi-0.dtd"
   xmlns="http://www.w3.org/2000/svg"
   xmlns:svg="http://www.w3.org/2000/svg"><defs
   id="defs49" /><sodipodi:namedview
   id="namedview47"
   pagecolor="#ffffff"
   bordercolor="#666666"
   borderopacity="1.0"
   inkscape:pageshadow="2"
   inkscape:pageopacity="0.0"
   inkscape:pagecheckerboard="0"
   showgrid="false"
   inkscape:zoom="2.0543"
   inkscape:cx="162.59"
   inkscape:cy="174.76"
   inkscape:window-width="1920"
   inkscape:window-height="986"
   inkscape:window-x="-11"
   inkscape:window-y="-11"
   inkscape:window-maximized="1"
   inkscape:current-layer="Layer_1" />

<g
   id="g44">
	<polygon
   points="336.36,254.9 199.96,333.65 63.56,254.9 63.56,97.405 199.96,18.653 336.36,97.405 "
   id="polygon3"
   style="fill:#ffffff;fill-opacity:1" />
	<linearGradient
   id="SVGID_1_"
   gradientUnits="userSpaceOnUse"
   x1="91.686"
   y1="267.01"
   x2="308.23"
   y2="85.303">
		<stop
   offset="0"
   style="stop-color:#612C75"
   id="stop5" />
		<stop
   offset="0.0232"
   style="stop-color:#643078"
   id="stop7" />
		<stop
   offset="0.1946"
   style="stop-color:#754889"
   id="stop9" />
		<stop
   offset="0.3"
   style="stop-color:#7B5190"
   id="stop11" />
		<stop
   offset="0.3229"
   style="stop-color:#8C639D"
   id="stop13" />
		<stop
   offset="0.3608"
   style="stop-color:#A37BAE"
   id="stop15" />
		<stop
   offset="0.4011"
   style="stop-color:#B38CBA"
   id="stop17" />
		<stop
   offset="0.4451"
   style="stop-color:#BC96C1"
   id="stop19" />
		<stop
   offset="0.5"
   style="stop-color:#BF99C3"
   id="stop21" />
		<stop
   offset="0.5549"
   style="stop-color:#BC96C1"
   id="stop23" />
		<stop
   offset="0.5989"
   style="stop-color:#B38CBA"
   id="stop25" />
		<stop
   offset="0.6392"
   style="stop-color:#A37BAE"
   id="stop27" />
		<stop
   offset="0.6771"
   style="stop-color:#8C639D"
   id="stop29" />
		<stop
   offset="0.7"
   style="stop-color:#7B5190"
   id="stop31" />
		<stop
   offset="0.8054"
   style="stop-color:#754889"
   id="stop33" />
		<stop
   offset="0.9768"
   style="stop-color:#643078"
   id="stop35" />
		<stop
   offset="1"
   style="stop-color:#612C75"
   id="stop37" />
	</linearGradient>
	<polygon
   fill="url(#SVGID_1_)"
   points="324.25,247.91 324.25,104.39 199.96,32.631 75.666,104.39 75.666,247.91 199.96,319.68 "
   id="polygon40" />
	<path
   d="m 180.61,114.42 c -8.3,-26.811 5.59,-49.379 5.59,-49.379 0,0 -1.54,14.465 8.68,27.777 10.22,13.312 33.76,32.212 46.88,46.102 13.11,13.89 21.41,26.62 21.41,26.62 -0.77,-19.67 -40.51,-53.04 -45.33,-57.67 -4.83,-4.63 -8.88,-8.108 -8.88,-18.14 0,-10.03 5.21,-17.747 5.21,-17.747 -0.19,3.667 0.39,15.047 9.45,27.009 9.07,11.958 40.9,40.318 51.12,50.348 10.23,10.03 12.09,28.1 12.09,31.44 0,3.35 -0.77,9.01 -0.77,9.01 13.12,-0.13 10.03,13.11 10.03,13.11 12.09,-5.53 15.56,-16.72 15.56,-16.72 5.79,38.59 -23.53,52.48 -23.53,52.48 4.75,-24.83 -21.74,-25.6 -25.08,-25.6 -3.34,0 -8.87,0.9 -8.87,0.9 9.77,-15.43 -10.93,-21.6 -28.81,-21.6 -17.88,0 -24.69,7.07 -24.69,7.07 16.72,-1.41 22.89,3.6 22.89,3.6 0,0 -7.72,6.18 -7.72,14.28 0,11.96 14.28,8.74 14.28,8.74 0,0 -5.15,3.6 -5.15,8.75 0,10.93 14.53,7.2 14.53,7.2 -6.81,11.96 2.96,14.66 9.65,14.66 6.69,0 13.44,-3.92 13.44,-3.92 -17.17,38.58 -74.78,31.18 -74.78,31.18 26.87,-8.23 25.72,-25.2 25.72,-25.2 -4.25,5.53 -11.83,3.47 -11.83,3.47 0,0 6.55,-5.4 6.55,-15.3 0,-14.79 -15.95,-34.34 -43.34,-34.34 -5.4,0 -15.69,1.54 -15.69,1.54 14.15,-23.4 42.19,-30.48 42.19,-30.48 -6.82,-6.81 -22.51,-7.58 -22.51,-7.58 15.3,-11.45 42.44,-13.12 42.44,-13.12 -46.04,-9.78 -68.55,19.93 -68.55,19.93 11.58,-0.38 18.27,3.47 18.27,3.47 -28.29,6.56 -45.66,27.27 -45.66,27.27 0,0 3.86,-20.71 -5.01,-30.48 -8.88,-9.77 -26.365,-7.33 -26.365,-7.33 24.435,-24.56 42.305,-22.25 42.305,-32.41 0,-14.53 -18.39,-22.63 -18.39,-22.63 19.04,-5.15 32.67,2.06 32.67,2.06 -10.03,-9.01 -8.23,-34.215 -8.23,-34.215 19.16,25.725 27.6,25.405 46.81,36.525 19.55,11.32 27.52,23.66 27.52,23.66 -1.47,-15.62 -26.1,-34.34 -26.1,-34.34 z m 67.38,68.29 c 5.02,4.12 13.25,2.32 13.25,2.32 -2.31,-12.86 -14.92,-22.89 -19.16,-25.72 -4.24,-2.83 -6.69,-1.93 -6.69,-1.93 -3.86,9.25 7.59,21.22 12.6,25.33 z"
   id="path42"
   style="fill:#ffffff;fill-opacity:1" />
</g>
</svg>
