<?xml version="1.0" encoding="utf-8"?>
<!-- Generator: Adobe Illustrator 15.1.0, SVG Export Plug-In . SVG Version: 6.00 Build 0)  -->
<!DOCTYPE svg PUBLIC "-//W3C//DTD SVG 1.1//EN" "http://www.w3.org/Graphics/SVG/1.1/DTD/svg11.dtd">
<svg version="1.1" id="Layer_1" xmlns="http://www.w3.org/2000/svg" xmlns:xlink="http://www.w3.org/1999/xlink" x="0px" y="0px"
	 width="325px" height="350px" viewBox="37 0 325 350" enable-background="new 37 0 325 350" xml:space="preserve">
<g id="Layer_1_1_">
</g>
<g>
	<polygon points="64.229,254.903 64.229,97.405 200.628,18.653 337.028,97.405 337.028,254.903 200.628,333.652 	"/>
	<linearGradient id="SVGID_1_" gradientUnits="userSpaceOnUse" x1="92.3555" y1="267.0068" x2="308.9029" y2="85.302">
		<stop  offset="0" style="stop-color:#626E77"/>
		<stop  offset="0.0069" style="stop-color:#647079"/>
		<stop  offset="0.1352" style="stop-color:#8496A1"/>
		<stop  offset="0.2374" style="stop-color:#99ADB9"/>
		<stop  offset="0.3" style="stop-color:#A0B6C2"/>
		<stop  offset="0.3027" style="stop-color:#A1B7C3"/>
		<stop  offset="0.3597" style="stop-color:#ADC6D4"/>
		<stop  offset="0.4222" style="stop-color:#B5CEDE"/>
		<stop  offset="0.5" style="stop-color:#B7D1E1"/>
		<stop  offset="0.5778" style="stop-color:#B5CEDE"/>
		<stop  offset="0.6403" style="stop-color:#ADC6D4"/>
		<stop  offset="0.6973" style="stop-color:#A1B7C3"/>
		<stop  offset="0.7" style="stop-color:#A0B6C2"/>
		<stop  offset="0.7626" style="stop-color:#99ADB9"/>
		<stop  offset="0.8648" style="stop-color:#8496A1"/>
		<stop  offset="0.9931" style="stop-color:#647079"/>
		<stop  offset="1" style="stop-color:#626E77"/>
	</linearGradient>
	<polygon fill="url(#SVGID_1_)" points="200.628,32.631 76.334,104.394 76.334,247.914 200.628,319.675 324.923,247.914 
		324.923,104.394 	"/>
	<path d="M181.275,114.424c-8.294-26.815,5.594-49.383,5.594-49.383s-1.543,14.465,8.681,27.777
		c10.226,13.312,33.761,32.215,46.876,46.106c13.118,13.889,21.415,26.619,21.415,26.619c-0.773-19.677-40.513-53.048-45.336-57.678
		c-4.821-4.629-8.871-8.103-8.871-18.135c0-10.03,5.206-17.747,5.206-17.747c-0.193,3.667,0.388,15.047,9.453,27.009
		c9.065,11.961,40.896,40.315,51.119,50.348c10.226,10.033,12.092,28.102,12.092,31.444c0,3.344-0.773,9.004-0.773,9.004
		c13.118-0.13,10.032,13.115,10.032,13.115c12.087-5.53,15.561-16.719,15.561-16.719c5.788,38.583-23.536,52.472-23.536,52.472
		c4.76-24.822-21.731-25.593-25.077-25.593s-8.873,0.901-8.873,0.901c9.774-15.433-10.931-21.606-28.809-21.606
		c-17.875,0-24.691,7.072-24.691,7.072c16.719-1.414,22.893,3.604,22.893,3.604s-7.716,6.171-7.716,14.273
		c0,11.962,14.274,8.746,14.274,8.746s-5.145,3.599-5.145,8.744c0,10.933,14.534,7.201,14.534,7.201
		c-6.819,11.96,2.955,14.66,9.642,14.66c6.689,0,13.439-3.921,13.439-3.921c-17.166,38.581-74.781,31.187-74.781,31.187
		c26.877-8.232,25.719-25.204,25.719-25.204c-4.242,5.528-11.832,3.471-11.832,3.471s6.56-5.4,6.56-15.305
		c0-14.789-15.947-34.339-43.34-34.339c-5.401,0-15.688,1.547-15.688,1.547c14.146-23.408,42.181-30.482,42.181-30.482
		c-6.816-6.814-22.505-7.585-22.505-7.585c15.304-11.446,42.44-13.118,42.44-13.118c-46.042-9.775-68.547,19.932-68.547,19.932
		c11.575-0.386,18.262,3.471,18.262,3.471c-28.293,6.559-45.655,27.267-45.655,27.267s3.859-20.708-5.015-30.479
		c-8.874-9.775-26.363-7.332-26.363-7.332c24.434-24.562,42.31-22.247,42.31-32.407c0-14.532-18.391-22.634-18.391-22.634
		c19.034-5.145,32.666,2.059,32.666,2.059c-10.031-9.003-8.23-34.211-8.23-34.211c19.163,25.723,27.604,25.406,46.812,36.523
		c19.548,11.318,27.522,23.663,27.522,23.663C205.902,133.136,181.275,114.424,181.275,114.424z M248.666,182.713
		c5.012,4.114,13.245,2.313,13.245,2.313c-2.317-12.858-14.92-22.89-19.161-25.72c-4.247-2.828-6.689-1.929-6.689-1.929
		C232.202,166.635,243.648,178.599,248.666,182.713z"/>
</g>
</svg>
