<?xml version="1.0" encoding="utf-8"?>
<!-- Generator: Adobe Illustrator 15.1.0, SVG Export Plug-In . SVG Version: 6.00 Build 0)  -->
<!DOCTYPE svg PUBLIC "-//W3C//DTD SVG 1.1//EN" "http://www.w3.org/Graphics/SVG/1.1/DTD/svg11.dtd">
<svg version="1.1" id="Layer_1" xmlns="http://www.w3.org/2000/svg" xmlns:xlink="http://www.w3.org/1999/xlink" x="0px" y="0px"
	 width="325px" height="350px" viewBox="37 0 325 350" enable-background="new 37 0 325 350" xml:space="preserve">
<g id="Layer_1_1_">
</g>
<g>
	<polygon points="63.694,253.903 63.694,96.404 200.094,17.653 336.492,96.404 336.492,253.903 200.094,332.652 	"/>
	<polygon fill="#FFFFFF" points="200.094,31.631 75.8,103.394 75.8,246.914 200.094,318.674 324.387,246.914 324.387,103.394 	"/>
	<path d="M180.741,113.424c-8.296-26.815,5.594-49.383,5.594-49.383s-1.544,14.465,8.68,27.777
		c10.224,13.312,33.76,32.215,46.877,46.106c13.118,13.889,21.412,26.619,21.412,26.619c-0.771-19.677-40.509-53.048-45.333-57.678
		c-4.82-4.629-8.873-8.103-8.873-18.135c0-10.03,5.208-17.748,5.208-17.748c-0.191,3.667,0.386,15.047,9.453,27.009
		c9.067,11.961,40.898,40.315,51.122,50.348c10.223,10.032,12.086,28.101,12.086,31.444c0,3.344-0.771,9.004-0.771,9.004
		c13.118-0.13,10.03,13.115,10.03,13.115c12.092-5.53,15.563-16.719,15.563-16.719c5.788,38.583-23.535,52.472-23.535,52.472
		c4.757-24.821-21.734-25.593-25.078-25.593c-3.343,0-8.875,0.9-8.875,0.9c9.773-15.433-10.929-21.605-28.806-21.605
		c-17.878,0-24.692,7.071-24.692,7.071c16.717-1.414,22.893,3.604,22.893,3.604s-7.718,6.172-7.718,14.274
		c0,11.962,14.276,8.746,14.276,8.746s-5.145,3.599-5.145,8.743c0,10.934,14.532,7.203,14.532,7.203
		c-6.817,11.959,2.957,14.658,9.646,14.658c6.687,0,13.439-3.92,13.439-3.92c-17.171,38.58-74.785,31.188-74.785,31.188
		c26.876-8.233,25.72-25.205,25.72-25.205c-4.244,5.527-11.831,3.471-11.831,3.471s6.559-5.4,6.559-15.305
		c0-14.79-15.948-34.339-43.34-34.339c-5.402,0-15.689,1.547-15.689,1.547c14.146-23.408,42.183-30.482,42.183-30.482
		c-6.816-6.813-22.506-7.584-22.506-7.584c15.304-11.447,42.438-13.118,42.438-13.118c-46.041-9.775-68.545,19.932-68.545,19.932
		c11.574-0.386,18.262,3.471,18.262,3.471c-28.293,6.559-45.654,27.267-45.654,27.267s3.857-20.708-5.016-30.48
		c-8.874-9.774-26.363-7.331-26.363-7.331c24.435-24.562,42.31-22.247,42.31-32.407c0-14.531-18.39-22.635-18.39-22.635
		c19.033-5.145,32.666,2.06,32.666,2.06c-10.031-9.003-8.231-34.211-8.231-34.211c19.162,25.723,27.605,25.406,46.812,36.523
		c19.548,11.318,27.521,23.663,27.521,23.663C205.371,132.136,180.741,113.424,180.741,113.424z M248.13,181.713
		c5.017,4.114,13.245,2.313,13.245,2.313c-2.314-12.857-14.918-22.89-19.161-25.72c-4.244-2.828-6.688-1.93-6.688-1.93
		C231.668,165.635,243.114,177.599,248.13,181.713z"/>
</g>
</svg>
