<?xml version="1.0" encoding="UTF-8" standalone="no"?>
<svg xmlns="http://www.w3.org/2000/svg" xmlns:xlink="http://www.w3.org/1999/xlink" width="62.57674mm" height="78.36673mm" viewBox="0 0 62.576741 78.366729">
      <linearGradient id="linearGradient4710">
      <stop style="stop-color:#8b723c" offset="0" />
      <stop style="stop-color:#d2bb7b" offset="0.3"/>
      <stop style="stop-color:#ebd491" offset="0.5" />
      <stop style="stop-color:#d2bb7b" offset="0.7" />
      <stop style="stop-color:#8b723c" offset="1" />
    </linearGradient>
    <linearGradient id="linearGradient4657">
      <stop style="stop-color:#ebd491" offset="0" />
      <stop style="stop-color:#d2bb7b" offset="0.2"/>
      <stop style="stop-color:#8b723c" offset="0.3" />
	  <stop style="stop-color:#8b723c" offset="0.7"/>
      <stop style="stop-color:#d2bb7b" offset="0.8"/>
      <stop style="stop-color:#ebd491" offset="1"/>
    </linearGradient>
    <linearGradient xlink:href="#linearGradient4657" id="linearGradient5323" gradientUnits="userSpaceOnUse" x1="70.836319" y1="142.12302" x2="129.58099" y2="142.12302" gradientTransform="translate(-68.886929,-104.22056)"/>
    <linearGradient xlink:href="#linearGradient4710" id="linearGradient5318-1" gradientUnits="userSpaceOnUse" x1="82.762833" y1="143.40936" x2="117.34109" y2="143.40936" gradientTransform="matrix(-1,0,0,1,131.46367,-104.22056)"/>
  <path d="m 39.916091,66.806189 0.0467,-10.40887 c 2.8736,-1.81534 5.77494,-1.71694 7.88445,-0.77723 2.49012,1.10926 3.05396,4.3113 2.62339,6.10505 4.16473,-2.7978 4.71119,-5.78732 4.91333,-9.28231 0.22907,-3.96057 -1.74161,-7.01873 -4.31802,-11.09061 -4.49716,-10.1767 7.88889,-7.85205 5.92005,1.43868 5.53751,-2.4329 7.92188,-11.71819 2.64584,-16.08998 1.37979,-4.60946 -2.6232,-12.02086 -10.19143,-9.65952 l 0.22817,-8.3041697 -8.02933,3.9849897 C 39.620257,6.4145147 35.521944,3.167851 31.288371,0 27.054798,3.1678493 22.956485,6.4145133 20.937501,12.722218 l -8.02933,-3.9849907 0.22817,8.3041707 c -7.5682298,-2.36134 -11.5712198,5.050059 -10.1914308,9.65952 -5.276038,4.371791 -2.89166799,13.65708 2.645841,16.08998 -1.968841,-9.290731 10.4172098,-11.61538 5.9200498,-1.438679 -2.5764098,4.071879 -4.5470898,7.130039 -4.3180198,11.090608 0.20214,3.49499 0.7486,6.484512 4.9133298,9.282311 -0.43057,-1.79375 0.13327,-4.995791 2.62339,-6.105051 2.10951,-0.93971 5.01085,-1.038109 7.88445,0.777232 l 0.0467,10.40887 c 2.26126,5.572958 4.47085,7.682529 8.62772,11.56054 4.15687,-3.87801 6.36646,-5.98758 8.62772,-11.56054 z"/>
  <path d="m 58.836121,38.659649 c 1.58506,-2.3639 3.88119,-6.53348 -1.5875,-11.31828 2.26975,-6.11091 -4.64408,-10.40318 -8.46667,-7.54982 9.21815,6.44639 -8.67374,12.26063 -8.72793,12.24618 0.004,0.0303 -1.04835,8.35445 4.6583,14.37301 -1.67303,-0.0348 -3.22575,-0.96984 -4.46318,-2.06255 v 9.32656 c 8.21103,-3.84942 12.15118,3.10166 12.10468,3.24114 2.79198,-7.68194 -1.32029,-11.28262 -2.12554,-12.76423 -0.75919,-1.39687 -2.08764,-3.46608 -2.15468,-6.96782 0.69398,-6.62255 9.10023,-6.0738 10.76252,1.47581 z m -55.0287796,0 c -1.585059,-2.3639 -3.88119195,-6.53348 1.5875,-11.31828 -2.269757,-6.11091 4.6440736,-10.40318 8.4666666,-7.54982 -9.2474756,6.48561 8.719255,12.24866 8.727925,12.24618 -0.0029,0.0189 1.044605,8.15582 -4.658295,14.37301 1.673027,-0.0348 3.225754,-0.96984 4.463182,-2.06255 v 9.32656 c -8.211029,-3.84942 -12.151179,3.10166 -12.104687,3.24114 -2.7919786,-7.68194 1.320299,-11.28262 2.125543,-12.76423 0.759188,-1.39687 2.087644,-3.46608 2.15468,-6.96782 -0.693978,-6.62255 -9.1002326,-6.0738 -10.7625146,1.47581 z" style="fill:url(#linearGradient5323)"/>
  <path style="fill:url(#linearGradient5318-1)" d="m 37.618096,66.242459 0.05079,-33.734381 -4.521303,0.704221 C 31.820684,65.52515 32.665658,62.4957 31.288376,67.153139 h -10e-6 c -1.377282,-4.65744 -0.532308,-1.62799 -1.859207,-33.94084 l -4.521303,-0.70422 0.05079,33.73438 c 1.897363,4.21648 3.903458,7.18142 6.329725,8.92968 2.426267,-1.748261 4.432362,-4.713201 6.329725,-8.92968 z m 11.058396,-42.46563 c 0.275905,-0.9266 -1.886573,-2.46819 -1.74719,-2.44739 l 0.198438,-8.863541 -4.894792,2.711971 c -0.574755,3.58215 -2.212255,6.63294 -7.342187,7.9375 0.277327,-2.98043 -0.500954,-5.90971 4.299479,-9.3927 -1.059119,-4.20956 -4.033143,-7.5368299 -7.901869,-10.5171899 -3.868726,2.9803602 -6.84275,6.3076302 -7.901869,10.5171899 4.800433,3.48299 4.022152,6.41227 4.299479,9.3927 -5.129932,-1.30456 -6.767432,-4.35535 -7.342187,-7.9375 l -4.894792,-2.71197 0.198438,8.86354 c 0.139383,-0.0208 -2.023095,1.52079 -1.74719,2.44739 0.900702,3.02492 11.165399,6.79365 17.388121,6.79365 6.222722,0 16.487419,-3.76873 17.388121,-6.79365 z"/>
</svg>
