<?xml version="1.0" encoding="UTF-8" standalone="no"?>
<svg xmlns="http://www.w3.org/2000/svg" xmlns:xlink="http://www.w3.org/1999/xlink" width="62.57674mm" height="78.36673mm" viewBox="0 0 62.576741 78.366729">
  <path d="m 58.836121,38.659649 c 1.58506,-2.3639 3.88119,-6.53348 -1.5875,-11.31828 2.26975,-6.11091 -4.64408,-10.40318 -8.46667,-7.54982 9.21815,6.44639 -8.67374,12.26063 -8.72793,12.24618 0.004,0.0303 -1.04835,8.35445 4.6583,14.37301 -1.67303,-0.0348 -3.22575,-0.96984 -4.46318,-2.06255 v 9.32656 c 8.21103,-3.84942 12.15118,3.10166 12.10468,3.24114 2.79198,-7.68194 -1.32029,-11.28262 -2.12554,-12.76423 -0.75919,-1.39687 -2.08764,-3.46608 -2.15468,-6.96782 0.69398,-6.62255 9.10023,-6.0738 10.76252,1.47581 z m -55.0287796,0 c -1.585059,-2.3639 -3.88119195,-6.53348 1.5875,-11.31828 -2.269757,-6.11091 4.6440736,-10.40318 8.4666666,-7.54982 -9.2474756,6.48561 8.719255,12.24866 8.727925,12.24618 -0.0029,0.0189 1.044605,8.15582 -4.658295,14.37301 1.673027,-0.0348 3.225754,-0.96984 4.463182,-2.06255 v 9.32656 c -8.211029,-3.84942 -12.151179,3.10166 -12.104687,3.24114 -2.7919786,-7.68194 1.320299,-11.28262 2.125543,-12.76423 0.759188,-1.39687 2.087644,-3.46608 2.15468,-6.96782 -0.693978,-6.62255 -9.1002326,-6.0738 -10.7625146,1.47581 z"/>
  <path d="m 37.618096,66.242459 0.05079,-33.734381 -4.521303,0.704221 C 31.820684,65.52515 32.665658,62.4957 31.288376,67.153139 h -10e-6 c -1.377282,-4.65744 -0.532308,-1.62799 -1.859207,-33.94084 l -4.521303,-0.70422 0.05079,33.73438 c 1.897363,4.21648 3.903458,7.18142 6.329725,8.92968 2.426267,-1.748261 4.432362,-4.713201 6.329725,-8.92968 z m 11.058396,-42.46563 c 0.275905,-0.9266 -1.886573,-2.46819 -1.74719,-2.44739 l 0.198438,-8.863541 -4.894792,2.711971 c -0.574755,3.58215 -2.212255,6.63294 -7.342187,7.9375 0.277327,-2.98043 -0.500954,-5.90971 4.299479,-9.3927 -1.059119,-4.20956 -4.033143,-7.5368299 -7.901869,-10.5171899 -3.868726,2.9803602 -6.84275,6.3076302 -7.901869,10.5171899 4.800433,3.48299 4.022152,6.41227 4.299479,9.3927 -5.129932,-1.30456 -6.767432,-4.35535 -7.342187,-7.9375 l -4.894792,-2.71197 0.198438,8.86354 c 0.139383,-0.0208 -2.023095,1.52079 -1.74719,2.44739 0.900702,3.02492 11.165399,6.79365 17.388121,6.79365 6.222722,0 16.487419,-3.76873 17.388121,-6.79365 z"/>
</svg>
