<?xml version="1.0" encoding="utf-8"?>
<!-- Generator: Adobe Illustrator 15.1.0, SVG Export Plug-In . SVG Version: 6.00 Build 0)  -->
<!DOCTYPE svg PUBLIC "-//W3C//DTD SVG 1.1//EN" "http://www.w3.org/Graphics/SVG/1.1/DTD/svg11.dtd">
<svg version="1.1" id="Layer_1" xmlns="http://www.w3.org/2000/svg" xmlns:xlink="http://www.w3.org/1999/xlink" x="0px" y="0px"
	 width="160px" height="180px" viewBox="0 0 160 180" enable-background="new 0 0 160 180" xml:space="preserve">
<g id="Layer_1_1_">
</g>
<g id="Layer_3" display="none">
</g>
<g>
	<path fill="#FFFFFF" d="M80.5,173.049c8.497-4.509,23.333-12.796,35.756-21.005c12.448-8.224,25.11-20.025,25.11-20.025
		l-3.888-3.706v-25.085c3.399-2.974,8.946-8.737,13.782-14.376l1.441-1.687l0.111-2.169c0.009-0.172,0.882-17.094,2.335-29.509
		l0.352-2.992l-2.146-2.216c-0.891-0.922-8.128-8.84-29.781-18.074v-9.991L96.261,7.701c0,0-1.205,16.543-15.761,16.543
		S64.739,7.701,64.739,7.701L37.427,22.213v9.991C15.773,41.438,8.536,49.356,7.645,50.278L5.5,52.495l0.352,2.992
		c1.453,12.415,2.327,29.337,2.335,29.509l0.111,2.169l1.442,1.687c5.513,6.427,10.935,11.886,13.782,14.376v25.085l-3.888,3.706
		c0,0,12.663,11.802,25.11,20.025C57.167,160.253,72.002,168.54,80.5,173.049z"/>
	<g>
		<path d="M84.336,147.645v16.482c9.054-5.213,24.726-14.114,33.189-21.148v-10.466h1.29l12.282-10.587v-16.813
			c-6.344-4.367-12.085-7.761-17.286-10.4C92.253,111.104,84.336,135.077,84.336,147.645z"/>
		<path d="M47.189,94.713c-5.202,2.64-10.943,6.033-17.288,10.4v16.813l12.283,10.587h1.289v10.466
			c8.464,7.034,24.136,15.936,33.19,21.148v-16.482C76.664,135.077,68.748,111.105,47.189,94.713z"/>
		<path d="M116.587,35.764V25.366l-16.1-8.984c0,0-3.858,10.942-15.777,13.525l1.82,2.982c1.096,1.793,2.114,3.498,3.059,5.132
			c15.383,2.965,22.334,12.786,25.19,18.705c0.263-0.273,0.535-0.59,0.81-0.955l2.929-3.906l3.102,3.771
			c0.304,0.368,7.436,9.173,7.436,21.112c0,8.252-4.607,15.182-6.448,17.621c3.102,1.803,6.356,3.838,9.782,6.156
			c3.967-3.676,10.746-10.443,14.257-14.538c0,0,1.204-18.777,2.699-31.548C149.345,54.438,140.783,45.46,116.587,35.764z"/>
		<path d="M39.38,55.636l3.102-3.771l2.93,3.906c0.273,0.365,0.545,0.681,0.808,0.954c2.856-5.926,9.811-15.76,25.197-18.713
			c0.943-1.631,1.96-3.333,3.053-5.123l1.821-2.982c-11.919-2.583-15.777-13.525-15.777-13.525l-16.1,8.984v10.397
			C20.217,45.46,11.655,54.438,11.655,54.438c1.495,12.771,2.7,31.548,2.7,31.548c3.51,4.095,10.289,10.862,14.256,14.538
			c3.428-2.318,6.682-4.354,9.782-6.155c-1.84-2.438-6.448-9.369-6.448-17.622C31.945,64.809,39.077,56.004,39.38,55.636z"/>
	</g>
	<path d="M118.657,58.072c-2.826,3.769-5.854,4.139-5.854,4.139s-3.969-17.504-25.646-20.719c-1.167-2.069-2.475-4.271-3.899-6.604
		L80.5,30.374l-2.757,4.514c-1.425,2.333-2.732,4.535-3.899,6.604c-21.678,3.215-25.646,20.719-25.646,20.719
		s-3.028-0.37-5.854-4.139c0,0-6.562,7.975-6.562,18.675c0,8.782,6.259,16.05,6.259,16.05c1.64-1.154,3.225-2.188,4.762-3.121
		C72.317,107.455,80.5,134.526,80.5,147.645c0-13.118,8.183-40.189,33.697-57.967c1.538,0.933,3.122,1.966,4.763,3.121
		c0,0,6.259-7.268,6.259-16.05C125.219,66.047,118.657,58.072,118.657,58.072z"/>
	<path fill="#FFFFFF" d="M80.5,36.572c3.754,6.147,9.321,15.479,9.321,20.256c0,7.573-4.409,9.152-9.321,9.152
		c-4.913,0-9.321-1.579-9.321-9.152C71.179,52.051,76.746,42.719,80.5,36.572z"/>
	<g>
		<path fill="#FFFFFF" d="M78.481,69.115c-8.64-0.826-10.532-7.026-10.532-12.287c0-2.882,1.362-6.64,3.674-11.2
			c-18.18,4.441-20.801,22.001-20.801,22.001s-5.502-1.38-7.842-3.875c-1.625,2.961-3.565,7.621-3.565,12.993
			c0,4.354,1.91,8.374,3.454,10.914c6.364-4.416,17.102-9.847,35.612-10.218V69.115z"/>
		<path fill="#FFFFFF" d="M82.519,123.138c4.935-11.727,13.637-24.791,28.048-35.312c-6.143-3.169-15.038-6.071-28.048-6.345
			V123.138z"/>
		<path fill="#FFFFFF" d="M82.519,69.115v8.328c18.532,0.373,29.272,5.815,35.634,10.233c1.545-2.539,3.463-6.566,3.463-10.929
			c0-5.373-1.939-10.032-3.564-12.993c-2.341,2.495-7.842,3.875-7.842,3.875s-2.624-17.584-20.837-22.01
			c2.314,4.564,3.679,8.326,3.679,11.209C93.051,62.089,91.159,68.289,82.519,69.115z"/>
		<path fill="#FFFFFF" d="M50.451,87.817c14.416,10.52,23.1,23.587,28.03,35.317V81.481C65.484,81.754,56.593,84.651,50.451,87.817z
			"/>
	</g>
</g>
</svg>
