<?xml version="1.0" encoding="utf-8"?>
<!-- Generator: Adobe Illustrator 15.1.0, SVG Export Plug-In . SVG Version: 6.00 Build 0)  -->
<!DOCTYPE svg PUBLIC "-//W3C//DTD SVG 1.1//EN" "http://www.w3.org/Graphics/SVG/1.1/DTD/svg11.dtd">
<svg version="1.1" id="Layer_1" xmlns="http://www.w3.org/2000/svg" xmlns:xlink="http://www.w3.org/1999/xlink" x="0px" y="0px"
	 width="160px" height="180px" viewBox="0 0 160 180" enable-background="new 0 0 160 180" xml:space="preserve">
<g id="Layer_1_1_">
</g>
<g id="Layer_3" display="none">
</g>
<g>
	<path d="M79.583,171.889c8.407-4.461,23.085-12.66,35.375-20.781c12.315-8.136,24.843-19.812,24.843-19.812l-3.847-3.667v-24.817
		c3.364-2.942,9.649-8.645,14.435-14.223l1.426-1.668l0.11-2.146c0.009-0.171,0.873-16.913,2.31-29.195l0.349-2.96l-2.122-2.192
		c-0.882-0.913-8.841-8.746-30.264-17.881V22.66L95.176,7.411c0,0-1.191,17.259-15.593,17.259
		c-14.401,0-15.593-17.259-15.593-17.259L36.969,22.66v9.885C15.546,41.681,7.587,49.514,6.705,50.426l-2.122,2.192l0.348,2.96
		c1.437,12.282,2.302,29.024,2.31,29.195l0.11,2.146l1.426,1.668c4.785,5.579,11.071,11.281,14.435,14.223v24.817l-3.847,3.667
		c0,0,12.527,11.676,24.843,19.812C56.498,159.229,71.176,167.428,79.583,171.889z"/>
	<linearGradient id="SVGID_1_" gradientUnits="userSpaceOnUse" x1="11.7988" y1="90.3232" x2="147.3672" y2="90.3232">
		<stop  offset="0" style="stop-color:#8D742F"/>
		<stop  offset="0.1336" style="stop-color:#9F8641"/>
		<stop  offset="0.25" style="stop-color:#B39A54"/>
		<stop  offset="0.2646" style="stop-color:#B69D57"/>
		<stop  offset="0.4104" style="stop-color:#CEB46C"/>
		<stop  offset="0.5" style="stop-color:#D7BD74"/>
		<stop  offset="0.5896" style="stop-color:#CEB46C"/>
		<stop  offset="0.7354" style="stop-color:#B69D57"/>
		<stop  offset="0.75" style="stop-color:#B39A54"/>
		<stop  offset="0.8664" style="stop-color:#9F8641"/>
		<stop  offset="1" style="stop-color:#8D742F"/>
	</linearGradient>
	<path fill="url(#SVGID_1_)" d="M36.334,91.561c-2.779,1.898-5.63,4.055-8.565,6.521c-3.776-3.434-9.938-9.323-13.626-13.626
		c0,0-0.865-16.967-2.344-29.602c0,0,8.143-8.424,32.082-18.018V26.384l15.464-8.737c0,0,4.024,11.004,16.493,13.756l-0.346,0.566
		c-0.042,0.067-1.731,2.852-3.705,6.663c-1.291,0.324-2.825,0.708-2.825,0.708C56.081,42.572,49.24,51.08,46.06,58.548l-3.976-5.302
		c0,0-9.502,10.319-9.502,23.768C32.582,84.577,34.646,89.11,36.334,91.561z M44.885,91.909c-4.678,2.661-9.679,6.138-14.971,10.656
		l0.209,0.491v18.254l12.152,10.475h1.275v10.354c9.734,8.092,26.12,16.984,33.635,20.861v-14.047
		C77.186,135.42,67.648,105.881,44.885,91.909z M122.832,91.561c2.779,1.898,5.631,4.055,8.564,6.521
		c3.777-3.434,9.938-9.323,13.627-13.626c0,0,0.865-16.967,2.344-29.602c0,0-8.143-8.424-32.082-18.018V26.384l-15.464-8.737
		c0,0-4.024,11.004-16.493,13.756l0.346,0.566c0.041,0.067,1.731,2.852,3.705,6.663c1.291,0.324,2.824,0.708,2.824,0.708
		c12.883,3.231,19.723,11.739,22.902,19.207l3.977-5.302c0,0,9.502,10.319,9.502,23.768C126.584,84.577,124.52,89.11,122.832,91.561
		z M81.98,148.953V163c7.515-3.877,23.9-12.77,33.635-20.861v-10.354h1.275l12.152-10.475v-18.254l0.209-0.491
		c-5.293-4.519-10.293-7.995-14.971-10.656C91.518,105.881,81.98,135.42,81.98,148.953z"/>
	<path fill="#FFFFFF" d="M79.583,34.468c3.714,6.081,9.222,17.143,9.222,21.869c0,7.493-4.361,9.197-9.222,9.197
		c-4.86,0-9.222-1.705-9.222-9.197C70.361,51.611,75.869,40.549,79.583,34.468z M49.787,89.355
		c14.007,9.49,22.643,23.963,27.399,36.869V83.149C70.647,83.223,61.343,83.858,49.787,89.355z M77.186,70.18
		c-7.413-0.858-11.618-5.787-11.618-13.843c0-3.222,1.584-7.759,3.487-12.047v0c-19.137,5.444-20.497,23.406-20.497,23.406
		s-3.53-2.534-6.326-6.262c0,0-4.857,6.991-4.857,15.58c0,6.616,1.809,10.262,2.991,11.942c13.838-8.419,25.81-10.361,36.82-10.585
		V70.18z M81.98,83.149v43.075c4.756-12.906,13.392-27.379,27.398-36.869C97.822,83.858,88.52,83.223,81.98,83.149z M81.98,78.371
		c11.01,0.224,22.981,2.166,36.819,10.585c1.183-1.681,2.991-5.327,2.991-11.942c0-8.589-4.857-15.58-4.857-15.58
		c-2.797,3.729-6.326,6.262-6.326,6.262s-1.359-17.962-20.496-23.406v0c1.902,4.288,3.486,8.825,3.486,12.047
		c0,8.056-4.205,12.985-11.617,13.843V78.371z"/>
</g>
</svg>
