<?xml version="1.0" encoding="utf-8"?>
<!-- Generator: Adobe Illustrator 15.1.0, SVG Export Plug-In . SVG Version: 6.00 Build 0)  -->
<!DOCTYPE svg PUBLIC "-//W3C//DTD SVG 1.1//EN" "http://www.w3.org/Graphics/SVG/1.1/DTD/svg11.dtd">
<svg version="1.1" id="Layer_1" xmlns="http://www.w3.org/2000/svg" xmlns:xlink="http://www.w3.org/1999/xlink" x="0px" y="0px"
	 width="160px" height="180px" viewBox="0 0 160 180" enable-background="new 0 0 160 180" xml:space="preserve">
<g id="Layer_1_1_">
</g>
<g id="Layer_3" display="none">
</g>
<path d="M31.73,91.861c-3.075,2.102-6.229,4.487-9.476,7.217c-4.179-3.8-10.996-10.316-15.078-15.077c0,0-0.957-18.773-2.593-32.753
	c0,0,9.01-9.321,35.497-19.936V19.748l17.11-9.667c0,0,4.453,12.176,18.25,15.22l-0.383,0.627c-0.045,0.074-1.916,3.155-4.1,7.372
	c-1.428,0.358-3.125,0.784-3.125,0.784c-14.253,3.575-21.821,12.989-25.34,21.252l-4.399-5.866c0,0-10.514,11.417-10.514,26.297
	C27.579,84.135,29.863,89.151,31.73,91.861z M41.192,92.247c-5.176,2.944-10.709,6.791-16.565,11.791l0.231,0.543v20.197
	l13.445,11.589h1.412v11.457c10.771,8.952,28.9,18.791,37.216,23.082v-15.543C76.931,140.39,66.377,107.706,41.192,92.247z
	 M127.436,91.861c3.075,2.102,6.229,4.487,9.477,7.217c4.179-3.8,10.996-10.316,15.077-15.077c0,0,0.957-18.773,2.594-32.753
	c0,0-9.01-9.321-35.497-19.936V19.748l-17.11-9.667c0,0-4.452,12.176-18.249,15.22l0.383,0.627c0.046,0.074,1.915,3.155,4.1,7.372
	c1.428,0.358,3.125,0.784,3.125,0.784c14.253,3.575,21.821,12.989,25.34,21.252l4.399-5.866c0,0,10.515,11.417,10.515,26.297
	C131.588,84.135,129.304,89.151,127.436,91.861z M82.235,155.363v15.543c8.314-4.291,26.444-14.13,37.215-23.082v-11.457h1.412
	l13.445-11.589v-20.197l0.231-0.543c-5.855-5-11.39-8.847-16.564-11.791C92.789,107.706,82.235,140.39,82.235,155.363z"/>
<path d="M79.583,28.692c4.109,6.729,10.203,18.968,10.203,24.197c0,8.29-4.826,10.176-10.203,10.176
	c-5.377,0-10.203-1.886-10.203-10.176C69.38,47.66,75.474,35.42,79.583,28.692z M46.615,89.422
	c15.499,10.5,25.053,26.514,30.316,40.795V82.555C69.696,82.636,59.402,83.34,46.615,89.422z M76.931,68.206
	c-8.202-0.95-12.855-6.403-12.855-15.316c0-3.565,1.753-8.585,3.859-13.329v-0.001C46.76,45.583,45.256,65.457,45.256,65.457
	s-3.905-2.803-7-6.929c0,0-5.374,7.735-5.374,17.238c0,7.32,2.001,11.354,3.309,13.214c15.312-9.315,28.558-11.464,40.74-11.711
	V68.206z M82.235,82.555v47.662c5.263-14.281,14.817-30.295,30.315-40.795C99.764,83.34,89.471,82.636,82.235,82.555z
	 M82.235,77.269c12.182,0.248,25.428,2.396,40.739,11.711c1.308-1.86,3.309-5.894,3.309-13.214c0-9.503-5.374-17.238-5.374-17.238
	c-3.094,4.125-6.999,6.929-6.999,6.929s-1.504-19.874-22.679-25.898v0.001c2.105,4.744,3.858,9.764,3.858,13.329
	c0,8.914-4.652,14.367-12.854,15.316V77.269z"/>
</svg>
