<?xml version="1.0" encoding="UTF-8" standalone="no"?>
<svg xmlns="http://www.w3.org/2000/svg" version="1.1" width="600" height="648.78894">
  <path d="m 600,648.78893 -600,0 0,-145.34494 15.003244,-7.9801 0,-294.17712 153.649436,-73.66999 0,-57.98551 L 300,0 l 131.3311,69.63127 0,57.98551 153.64944,73.66999 0,294.17712 15.01946,7.9801 0,145.34494 z" style="fill:#808080"/>
  <path d="m 553.67647,464.41934 0,-243.42561 -118.0958,-56.57439 0,243.36072 118.0958,56.63928 z m -389.20848,-56.63928 0,-243.36072 -118.095801,56.57439 0,243.42561 118.095801,-56.63928 z M 300,35.48876 l -99.97837,52.95739 0,301.28136 L 300,336.68902 l 99.97837,53.03849 0,-301.28136 L 300,35.48876 z m -268.712154,582.01232 0,-95.22599 L 300,379.52531 l 268.69593,142.74978 0,95.22599 -537.408084,0 z"/>
</svg>
