<?xml version="1.0" encoding="UTF-8" standalone="no"?>
<svg xmlns="http://www.w3.org/2000/svg" xmlns:xlink="http://www.w3.org/1999/xlink" version="1.1" width="600" height="648.78894">
  <linearGradient x1="0" y1="0" x2="1" y2="0" id="linearGradient712" gradientUnits="userSpaceOnUse" gradientTransform="matrix(33.133789,0,0,-33.133789,82.867187,34.720703)" spreadMethod="pad">
    <stop style="stop-color:#612c75" offset="0"/>
    <stop style="stop-color:#7b5190" offset="0.39999399"/>
    <stop style="stop-color:#bf99c3" offset="0.5"/>
    <stop style="stop-color:#7b5190" offset="0.69999701"/>
    <stop style="stop-color:#612c75" offset="1"/>
  </linearGradient>
  <linearGradient x1="0" y1="0" x2="1" y2="0" id="linearGradient2995" xlink:href="#linearGradient712" gradientUnits="userSpaceOnUse" gradientTransform="matrix(33.133789,0,0,-33.133789,82.867187,34.720703)" spreadMethod="pad"/>
  <linearGradient x1="0" y1="0" x2="1" y2="0" id="linearGradient2998" xlink:href="#linearGradient712" gradientUnits="userSpaceOnUse" gradientTransform="matrix(537.42088,0,0,537.42088,31.29088,326.45919)" spreadMethod="pad"/>
  <path d="m 600,648.78893 -600,0 0,-145.34494 15.003244,-7.9801 0,-294.17712 153.649436,-73.66999 0,-57.98551 L 300,0 l 131.3311,69.63127 0,57.98551 153.64944,73.66999 0,294.17712 15.01946,7.9801 0,145.34494 z" fill="#ffffff"/>
  <path d="m 200.02163,88.44615 0,301.28136 L 300,336.68902 l 100.04325,53.03849 0,-301.28136 L 300,35.48876 200.02163,88.44615 z m 235.55904,319.33391 118.03092,56.63928 0,-243.42561 -118.03092,-56.57439 0,243.36072 z M 46.372189,220.99373 l 0,243.42561 118.030921,-56.63928 0,-243.36072 -118.030921,56.57439 z m -15.084343,301.28136 0,95.16112 537.408084,0 0,-95.16112 L 300,379.52531 31.287846,522.27509 z" style="fill:url(#linearGradient2998)"/>
</svg>
