<?xml version="1.0" encoding="UTF-8" standalone="no"?>
<svg xmlns="http://www.w3.org/2000/svg" xmlns:xlink="http://www.w3.org/1999/xlink" version="1.1" width="600" height="518.40338">
  <radialGradient cx="0" cy="0" r="1" fx="0" fy="0" id="radialGradient366" gradientUnits="userSpaceOnUse" gradientTransform="matrix(19.051147,0,0,-19.051147,747.99805,371.28223)" spreadMethod="pad">
    <stop style="stop-color:#ebd491" offset="0"/>
    <stop style="stop-color:#d2bb7b" offset="0.7"/>
    <stop style="stop-color:#8b723c" offset="1"/>
  </radialGradient>
  <radialGradient cx="0" cy="0" r="1" fx="0" fy="0" id="radialGradient2995" xlink:href="#radialGradient366" gradientUnits="userSpaceOnUse" gradientTransform="matrix(19.051147,0,0,-19.051147,747.99805,371.28223)" spreadMethod="pad"/>
  <path d="m 487.97262,301.42587 c 9.9663,20.71019 13.36184,27.74751 22.01916,45.71017 l -44.64744,0 c 8.90357,-18.06634 12.40278,-25.05182 22.62828,-45.71017 M 348.85921,218.40365 c 1.65889,0.85536 3.2789,1.30897 5.05443,2.68273 l 5.52099,4.45827 c 16.04457,13.10263 37.41573,29.71744 70.96935,41.14823 -7.99636,15.29288 -12.40279,23.65213 -23.53549,44.80296 l -50.5702,0 c -1.87921,-23.27628 -5.22291,-64.69667 -7.43908,-93.09219 m -126.91798,64.69668 2.12545,-4.51011 0,-4.95075 c 0,-15.79832 -4.66563,-25.22029 -6.02643,-27.74751 0,0 -17.06842,-32.19282 -32.15394,-60.70497 7.69828,0.36288 15.50024,0.60964 22.38204,0.20736 8.65733,-0.50596 18.62363,0.71332 27.22911,2.22913 -1.30896,24.85742 -4.8989,93.40324 -6.37635,121.04707 l -24.4427,0 c 11.02902,-13.11559 16.70554,-24.40382 17.26282,-25.57022 m -110.36797,-92.8978 c 9.96629,20.7102 13.36183,27.74752 22.071,45.71018 l -44.647447,0 c 8.903569,-18.06634 12.402787,-25.05182 22.576447,-45.71018 m 162.4545,-164.42443 -30.62465,43.53288 0,15.38361 c -15.13737,3.1493 -36.70293,7.8538 -52.20317,12.15655 -9.00725,2.47537 -19.94555,1.01088 -28.79728,-1.21825 -1.98289,-6.63556 -5.41731,-14.07464 -11.74183,-20.69724 -6.68739,-6.99843 -18.84394,-15.29288 -38.84133,-15.29288 -19.68635,0 -31.791057,8.20373 -38.361813,15.03368 -13.569195,14.0228 -14.735602,32.40018 -14.735602,38.2711 0,0.50492 0.05184,1.21824 0.05184,1.21824 0,8.55365 2.734576,15.48729 5.974593,21.3582 C 54.419341,155.2233 6.6744369,246.50108 6.6744369,246.50108 4.1990632,251.36111 0,260.71828 0,269.42745 0,288.97124 34.823713,353.318 111.8195,353.318 c 25.92014,0 46.47482,-8.04821 62.77859,-18.42923 0.50596,1.21825 28.65472,68.80502 28.65472,68.80502 l 26.17934,0 0,19.68635 -39.38566,0 -44.85481,95.02325 291.14802,0 -39.59302,-95.02325 -44.34937,0 0,-19.68635 30.43025,0 c 0,0 0.14308,-0.45412 0.14308,-0.45412 13.42663,26.37375 47.39498,62.01395 106.62251,62.01395 78.52507,0 107.63339,-69.76407 108.78684,-72.70601 L 600,388.50407 l 0,-4.35458 c 0,-12.66199 -4.35458,-21.31932 -5.66355,-23.63917 0,0 -48.25035,-91.32963 -58.87761,-111.4307 3.84914,-6.6874 7.24468,-14.98184 7.24468,-25.81646 0,-28.4992 -23.18557,-51.68477 -51.74956,-51.68477 -13.81544,0 -24.75374,6.169 -32.64642,12.80455 -9.00725,-5.52099 -21.1638,-14.42456 -32.60754,-28.40847 -19.68635,-24.09278 -54.62671,-50.22028 -83.12591,-60.64018 l 0,-24.71486 L 292.15942,0 274.02828,25.77758 z" style="fill:#ffffff"/>
  <path d="m 488.17998,250.54463 -58.73504,118.92161 116.1352,0 -57.40016,-118.92161 z M 111.8195,139.32129 53.097414,258.24291 l 116.083366,0 -57.36128,-118.92162 z m 292.4181,225.23309 58.77392,-111.8843 c -50.3758,-9.81078 -74.17049,-32.19282 -95.12692,-49.00203 -21.00828,-16.75738 -43.4292,-9.7719 -43.4292,-9.7719 l 11.23638,139.87806 51.78845,0 -19.59563,47.58938 -37.81749,0 0,64.34676 51.78844,0 20.9694,50.3758 -222.44667,0 23.78173,-50.3758 47.58938,0 0,-64.34676 -33.60546,0 -20.9694,-50.3758 53.16222,0 8.39812,-160.88633 c 0,0 -27.99375,-8.34628 -51.78844,-6.98548 -23.74286,1.37377 -60.13474,-4.19906 -60.13474,-4.19906 l 51.73661,97.91334 c 0,0 3.13634,5.61171 3.13634,16.80921 0,0 -26.93103,57.34832 -89.86514,57.34832 -62.921149,0 -89.554097,-53.14925 -89.554097,-61.56034 0,-4.54898 4.212024,-12.59719 4.212024,-12.59719 L 90.863063,133.70958 c 0,0 -9.823734,-8.00932 -9.823734,-20.25659 0,-0.10368 -1.360808,-31.49298 30.780171,-31.49298 32.15394,0 30.78017,30.78017 30.78017,30.78017 0,0 29.36752,12.61015 54.57486,5.57284 25.16846,-6.98548 68.54582,-15.33177 68.54582,-15.33177 l 0,-26.58111 26.58111,-37.76565 27.99375,39.12646 0,34.97923 c 18.18298,0 62.93411,26.58111 88.14145,57.36128 25.16846,30.78017 54.57486,41.97767 54.57486,41.97767 0,0 11.18455,-18.18298 27.99376,-18.18298 16.75737,0 29.31568,13.97096 29.31568,29.41937 0,15.33176 -11.18454,23.74285 -11.18454,23.74285 l 65.7594,124.53333 c 0,0 2.78642,4.86002 2.78642,12.55831 0,0 -23.74285,58.77392 -88.08961,58.77392 -64.34676,0 -90.92786,-51.78844 -90.92786,-61.56034 0,-6.63555 5.57283,-16.80921 5.57283,-16.80921" style="fill:#8b723c"/>
  <g transform="matrix(12.960072,0,0,-12.960072,-9394.1339,5081.5669)">
    <path d="m 745.855,386.043 0,-1.891 0,-0.414 -0.406,-0.078 c -0.031,-0.008 -3.347,-0.652 -5.25,-1.18 l 0,0 c -0.429,-0.121 -0.91,-0.179 -1.418,-0.179 l 0,0 c -1.621,0 -3.062,0.609 -3.125,0.637 l 0,0 -0.312,0.132 0.015,0.344 c 0,0.008 0.024,0.832 -0.496,1.367 l 0,0 c -0.308,0.324 -0.773,0.489 -1.383,0.489 l 0,0 c -0.597,0 -1.054,-0.165 -1.367,-0.485 l 0,0 c -0.527,-0.547 -0.508,-1.418 -0.508,-1.445 l 0,0 c 0,-0.688 0.571,-1.176 0.575,-1.18 l 0,0 0.308,-0.258 -0.183,-0.359 -4.965,-9.504 c -0.129,-0.238 -0.27,-0.601 -0.27,-0.727 l 0,0 c 0.059,-0.628 2.047,-4.257 6.41,-4.257 l 0,0 c 4.137,0 6.098,3.398 6.434,4.039 l 0,0 c -0.019,0.621 -0.18,0.941 -0.184,0.945 l 0,0 -3.992,7.559 -0.465,0.879 0.981,-0.149 c 0.023,-0.004 2.207,-0.34 3.93,-0.34 l 0,0 c 0.207,0 0.414,0.008 0.605,0.02 l 0,0 c 0.152,0.008 0.309,0.012 0.457,0.012 l 0,0 c 1.781,0 3.633,-0.547 3.715,-0.571 l 0,0 0.375,-0.113 -0.024,-0.391 -0.648,-12.418 -0.023,-0.472 -0.473,0 -3.352,0 1.204,-2.887 2.257,0 0.496,0 0,-0.5 0,-4.969 0,-0.496 -0.496,0 -3.355,0 -1.363,-2.891 15.625,0 -1.2,2.891 -3.664,0 -0.5,0 0,0.496 0,4.969 0,0.5 0.5,0 2.578,0 1.102,2.672 -3.246,0 -0.461,0 -0.039,0.457 -0.863,10.797 -0.032,0.398 0.379,0.117 c 0.043,0.016 0.45,0.133 1.051,0.133 l 0,0 c 0.699,0 1.75,-0.168 2.758,-0.976 l 0,0 0.441,-0.356 c 1.532,-1.246 3.266,-2.652 6.684,-3.32 l 0,0 0.66,-0.129 -0.312,-0.594 -4.54,-8.644 c -0.156,-0.282 -0.371,-0.793 -0.371,-1.051 l 0,0 c 0.024,-0.633 1.914,-4.254 6.52,-4.254 l 0,0 c 4.234,0 6.012,3.504 6.297,4.133 l 0,0 c -0.02,0.387 -0.149,0.629 -0.153,0.637 l 0,0 -5.078,9.609 -0.191,0.375 0.332,0.258 c 0.027,0.019 0.668,0.523 0.668,1.433 l 0,0 c 0,0.856 -0.711,1.77 -1.77,1.77 l 0,0 c -0.996,0 -1.726,-1.156 -1.734,-1.164 l 0,0 -0.215,-0.352 -0.387,0.145 c -0.097,0.039 -2.414,0.941 -4.421,3.39 l 0,0 c -1.915,2.34 -5.247,4.243 -6.411,4.243 l 0,0 -0.5,0 0,0.5 0,2.539 -1.656,2.316 -1.555,-2.207 z m -17.355,-13.652 4.531,9.175 0.457,0.918 0.442,-0.922 4.425,-9.179 0.344,-0.715 -0.793,0 -8.961,0 -0.804,0 0.359,0.723 z m 29.039,-8.582 4.531,9.171 0.453,0.918 0.446,-0.918 4.429,-9.179 0.344,-0.715 -0.793,0 -8.965,0 -0.8,0 0.355,0.723 z" style="fill:url(#radialGradient2995)"/>
  </g>
</svg>
