<?xml version="1.0" encoding="UTF-8" standalone="no"?>
<svg xmlns="http://www.w3.org/2000/svg" version="1.1" width="600" height="518.40338">
  <radialGradient cx="0" cy="0" r="1" fx="0" fy="0" id="radialGradient350" gradientUnits="userSpaceOnUse" gradientTransform="matrix(19.051239,0,0,-19.051239,665.49707,371.2832)" spreadMethod="pad">
    <stop style="stop-color:#d9eaf3" offset="0"/>
    <stop style="stop-color:#99aebc" offset="0.66291797"/>
    <stop style="stop-color:#536e78" offset="1"/>
  </radialGradient>
  <path d="m 487.97262,301.42587 c 9.96629,20.71019 13.36184,27.74751 22.01917,45.71017 l -44.64746,0 c 8.90358,-18.06634 12.4028,-25.05182 22.62829,-45.71017 M 348.85921,218.40365 c 1.65889,0.85536 3.2789,1.30896 5.05443,2.68274 l 5.52099,4.45826 c 16.04457,13.10263 37.41573,29.71744 70.96935,41.14823 -7.99636,15.29288 -12.40278,23.65213 -23.53549,44.80296 l -50.5702,0 c -1.87921,-23.27628 -5.22291,-64.69668 -7.43908,-93.09219 m -126.91798,64.69668 2.12545,-4.51011 0,-4.95075 c 0,-15.79832 -4.66563,-25.22029 -6.02643,-27.74751 0,0 -17.06842,-32.19282 -32.15394,-60.70497 7.69828,0.36288 15.50025,0.60964 22.38204,0.20736 8.65733,-0.50596 18.62362,0.71332 27.22911,2.22913 -1.30896,24.85742 -4.8989,93.40324 -6.37635,121.04707 l -24.4427,0 c 11.02902,-13.1156 16.70553,-24.40382 17.26282,-25.57022 m -110.36797,-92.8978 c 9.96629,20.7102 13.36183,27.74752 22.071,45.71017 l -44.647448,0 C 97.90038,217.84637 101.3996,210.86089 111.57326,190.20253 m 162.4545,-164.42443 -30.62465,43.53289 0,15.3836 c -15.13736,3.1493 -36.70292,7.8538 -52.20317,12.15655 -9.00725,2.47537 -19.94555,1.01088 -28.79728,-1.21825 -1.98289,-6.63556 -5.41731,-14.07464 -11.74183,-20.69723 -6.68739,-6.99845 -18.84394,-15.29289 -38.84133,-15.29289 -19.68635,0 -31.791056,8.20372 -38.361812,15.03369 -13.569196,14.02279 -14.735603,32.40017 -14.735603,38.27109 0,0.50492 0.05184,1.21824 0.05184,1.21824 0,8.55365 2.734577,15.48729 5.974595,21.3582 C 54.419341,155.2233 6.6744372,246.50108 6.6744372,246.50108 4.1990632,251.36111 0,260.71828 0,269.42745 0,288.97124 34.823713,353.318 111.8195,353.318 c 25.92014,0 46.47482,-8.04821 62.77859,-18.42922 0.50596,1.21824 28.65472,68.80501 28.65472,68.80501 l 26.17934,0 0,19.68635 -39.38566,0 -44.85481,95.02325 291.14802,0 -39.59302,-95.02325 -44.34937,0 0,-19.68635 30.43025,0 c 0,0 0.14308,-0.45412 0.14308,-0.45412 13.42663,26.37375 47.39498,62.01395 106.62251,62.01395 78.52508,0 107.63339,-69.76407 108.78684,-72.70601 L 600,388.50407 l 0,-4.35458 c 0,-12.66199 -4.35458,-21.31932 -5.66355,-23.63917 0,0 -48.25035,-91.32963 -58.87761,-111.4307 3.84914,-6.6874 7.24468,-14.98184 7.24468,-25.81646 0,-28.4992 -23.18556,-51.68477 -51.74957,-51.68477 -13.81543,0 -24.75373,6.16899 -32.64642,12.80455 -9.00724,-5.52099 -21.16379,-14.42456 -32.60754,-28.40848 -19.68634,-24.09277 -54.6267,-50.22027 -83.1259,-60.64017 l 0,-24.71486 L 292.15942,0 274.02827,25.77758 z" style="fill:#ffffff"/>
  <path d="m 488.17998,250.54463 -58.73504,118.92162 116.1352,0 -57.40016,-118.92162 z M 111.8195,139.32129 53.097414,258.24291 l 116.083366,0 -57.36128,-118.92162 z m 292.4181,225.23309 58.77392,-111.8843 c -50.37579,-9.81077 -74.17049,-32.19282 -95.12693,-49.00203 -21.00827,-16.75738 -43.4292,-9.77189 -43.4292,-9.77189 l 11.23639,139.87805 51.78845,0 -19.59564,47.58938 -37.81748,0 0,64.34676 51.78844,0 20.9694,50.3758 -222.44667,0 23.78173,-50.3758 47.58938,0 0,-64.34676 -33.60546,0 -20.9694,-50.3758 53.16222,0 8.39812,-160.88633 c 0,0 -27.99375,-8.34628 -51.78844,-6.98548 -23.74286,1.37377 -60.13474,-4.19906 -60.13474,-4.19906 l 51.73661,97.91334 c 0,0 3.13634,5.61171 3.13634,16.80921 0,0 -26.93103,57.34832 -89.86514,57.34832 -62.921149,0 -89.554097,-53.14925 -89.554097,-61.56034 0,-4.54898 4.212023,-12.59719 4.212023,-12.59719 L 90.863064,133.70958 c 0,0 -9.823734,-8.00932 -9.823734,-20.25659 0,-0.10368 -1.360806,-31.49298 30.78017,-31.49298 32.15394,0 30.78017,30.78018 30.78017,30.78018 0,0 29.36752,12.61014 54.57486,5.57283 25.16846,-6.98549 68.54582,-15.33177 68.54582,-15.33177 l 0,-26.58111 26.58111,-37.76565 27.99376,39.12646 0,34.97924 c 18.18297,0 62.9341,26.5811 88.14144,57.36127 25.16846,30.78017 54.57486,41.97767 54.57486,41.97767 0,0 11.18455,-18.18297 27.99376,-18.18297 16.75737,0 29.31568,13.97095 29.31568,29.41936 0,15.33176 -11.18454,23.74285 -11.18454,23.74285 l 65.7594,124.53333 c 0,0 2.78642,4.86002 2.78642,12.55831 0,0 -23.74285,58.77392 -88.08961,58.77392 -64.34676,0 -90.92786,-51.78844 -90.92786,-61.56034 0,-6.63556 5.57283,-16.80921 5.57283,-16.80921" style="fill:#536e78"/>
  <g transform="matrix(12.960072,0,0,-12.960072,-8324.928,5081.5668)">
    <path d="m 663.359,386.043 0,-1.895 0,-0.414 -0.41,-0.078 c -0.031,-0.004 -3.347,-0.644 -5.25,-1.176 l 0,0 c -0.433,-0.121 -0.914,-0.183 -1.422,-0.183 l 0,0 c -1.621,0 -3.054,0.613 -3.121,0.637 l 0,0 -0.308,0.136 0.007,0.344 c 0,0.008 0.024,0.836 -0.492,1.367 l 0,0 c -0.308,0.324 -0.773,0.489 -1.379,0.489 l 0,0 c -0.597,0 -1.058,-0.165 -1.371,-0.489 l 0,0 c -0.527,-0.543 -0.508,-1.414 -0.508,-1.441 l 0,0 c 0,-0.684 0.571,-1.176 0.575,-1.18 l 0,0 0.308,-0.262 -0.183,-0.355 -4.965,-9.496 c -0.125,-0.246 -0.27,-0.609 -0.274,-0.731 l 0,0 c 0.063,-0.632 2.051,-4.261 6.418,-4.261 l 0,0 c 4.129,0 6.09,3.39 6.43,4.039 l 0,0 c -0.016,0.621 -0.176,0.941 -0.184,0.945 l 0,0 -3.992,7.559 -0.465,0.879 0.985,-0.149 c 0.019,-0.004 2.203,-0.336 3.926,-0.336 l 0,0 c 0.211,0 0.418,0.004 0.605,0.016 l 0,0 c 0.156,0.008 0.309,0.012 0.465,0.012 l 0,0 c 1.777,0 3.629,-0.547 3.707,-0.571 l 0,0 0.379,-0.113 -0.024,-0.395 -0.648,-12.414 -0.023,-0.476 -0.477,0 -3.356,0 1.204,-2.883 2.257,0 0.504,0 0,-0.5 0,-4.969 0,-0.5 -0.504,0 -3.351,0 -1.363,-2.883 15.625,0 -1.2,2.883 -3.664,0 -0.5,0 0,0.5 0,4.969 0,0.5 0.5,0 2.578,0 1.102,2.668 -3.246,0 -0.461,0 -0.035,0.461 -0.871,10.797 -0.028,0.398 0.379,0.117 c 0.043,0.016 0.45,0.133 1.047,0.133 l 0,0 c 0.703,0 1.754,-0.168 2.766,-0.972 l 0,0 0.437,-0.36 c 1.532,-1.242 3.266,-2.652 6.684,-3.32 l 0,0 0.66,-0.129 -0.309,-0.594 -4.543,-8.644 c -0.156,-0.282 -0.371,-0.793 -0.371,-1.055 l 0,0 c 0.028,-0.629 1.918,-4.246 6.52,-4.246 l 0,0 c 4.226,0 6.008,3.488 6.297,4.125 l 0,0 c -0.02,0.387 -0.145,0.633 -0.153,0.641 l 0,0 -5.074,9.609 -0.195,0.375 0.336,0.258 c 0.023,0.019 0.664,0.527 0.664,1.433 l 0,0 c 0,0.856 -0.711,1.77 -1.77,1.77 l 0,0 c -0.992,0 -1.722,-1.153 -1.73,-1.168 l 0,0 -0.219,-0.348 -0.383,0.149 c -0.097,0.035 -2.422,0.937 -4.422,3.386 l 0,0 c -1.918,2.34 -5.253,4.243 -6.414,4.243 l 0,0 -0.504,0 0,0.5 0,2.543 -1.652,2.312 -1.551,-2.207 z M 646,372.391 l 4.535,9.175 0.453,0.918 0.446,-0.922 4.421,-9.175 0.348,-0.719 -0.797,0 -8.957,0 -0.808,0 0.359,0.723 z m 29.035,-8.582 4.535,9.171 0.457,0.918 0.442,-0.921 4.426,-9.172 0.347,-0.719 -0.797,0 -8.961,0 -0.804,0 0.355,0.723 z" style="fill:url(#radialGradient350)"/>
  </g>
</svg>
