<?xml version="1.0" encoding="UTF-8" standalone="no"?>
<svg xmlns="http://www.w3.org/2000/svg" version="1.1" width="600" height="518.40338">
  <path d="m 488.17998,250.54463 -58.73504,118.92161 116.1352,0 -57.40016,-118.92161 z M 111.8195,139.32129 53.097414,258.24291 l 116.083366,0 -57.36128,-118.92162 z m 292.4181,225.23309 58.77392,-111.8843 c -50.3758,-9.81078 -74.17049,-32.19282 -95.12692,-49.00203 -21.00828,-16.75738 -43.4292,-9.7719 -43.4292,-9.7719 l 11.23638,139.87806 51.78845,0 -19.59563,47.58938 -37.81749,0 0,64.34676 51.78844,0 20.9694,50.3758 -222.44667,0 23.78173,-50.3758 47.58938,0 0,-64.34676 -33.60546,0 -20.9694,-50.3758 53.16222,0 8.39812,-160.88633 c 0,0 -27.99375,-8.34628 -51.78844,-6.98548 -23.74286,1.37377 -60.13474,-4.19906 -60.13474,-4.19906 l 51.73661,97.91334 c 0,0 3.13634,5.61171 3.13634,16.80921 0,0 -26.93103,57.34832 -89.86514,57.34832 -62.921149,0 -89.554097,-53.14925 -89.554097,-61.56034 0,-4.54898 4.212024,-12.59719 4.212024,-12.59719 L 90.863063,133.70958 c 0,0 -9.823734,-8.00932 -9.823734,-20.25659 0,-0.10368 -1.360808,-31.49298 30.780171,-31.49298 32.15394,0 30.78017,30.78017 30.78017,30.78017 0,0 29.36752,12.61015 54.57486,5.57284 25.16846,-6.98548 68.54582,-15.33177 68.54582,-15.33177 l 0,-26.58111 26.58111,-37.76565 27.99375,39.12646 0,34.97923 c 18.18298,0 62.93411,26.58111 88.14145,57.36128 25.16846,30.78017 54.57486,41.97767 54.57486,41.97767 0,0 11.18455,-18.18298 27.99376,-18.18298 16.75737,0 29.31568,13.97096 29.31568,29.41937 0,15.33176 -11.18454,23.74285 -11.18454,23.74285 l 65.7594,124.53333 c 0,0 2.78642,4.86002 2.78642,12.55831 0,0 -23.74285,58.77392 -88.08961,58.77392 -64.34676,0 -90.92786,-51.78844 -90.92786,-61.56034 0,-6.63555 5.57283,-16.80921 5.57283,-16.80921"/>
</svg>
