<?xml version="1.0" encoding="UTF-8" standalone="no"?>
<svg xmlns="http://www.w3.org/2000/svg" xmlns:xlink="http://www.w3.org/1999/xlink" version="1.1" width="600" height="608">
  <linearGradient x1="0" y1="0" x2="1" y2="0" id="linearGradient36" gradientUnits="userSpaceOnUse" gradientTransform="matrix(286.38379,0,0,-286.38379,6.8085937,143.83398)" spreadMethod="pad">
    <stop style="stop-color:#bf331c" offset="0"/>
    <stop style="stop-color:#d3641c" offset="0.3"/>
    <stop style="stop-color:#f6b91d" offset="0.5"/>
    <stop style="stop-color:#d3641c" offset="0.7"/>
    <stop style="stop-color:#bf331c" offset="1"/>
  </linearGradient>
  <linearGradient x1="0" y1="0" x2="1" y2="0" id="linearGradient3015" xlink:href="#linearGradient36" gradientUnits="userSpaceOnUse" gradientTransform="matrix(286.38379,0,0,-286.38379,6.8085937,143.83398)" spreadMethod="pad"/>
  <linearGradient x1="0" y1="0" x2="1" y2="0" id="linearGradient3023" xlink:href="#linearGradient36" gradientUnits="userSpaceOnUse" gradientTransform="matrix(286.38379,0,0,-286.38379,6.8085937,143.83398)" spreadMethod="pad"/>
  <linearGradient x1="0" y1="0" x2="1" y2="0" id="linearGradient3028" xlink:href="#linearGradient36" gradientUnits="userSpaceOnUse" gradientTransform="matrix(286.38379,0,0,-286.38379,6.8085937,143.83398)" spreadMethod="pad"/>
  <linearGradient x1="0" y1="0" x2="1" y2="0" id="linearGradient3031" xlink:href="#linearGradient36" gradientUnits="userSpaceOnUse" gradientTransform="matrix(286.38379,0,0,-286.38379,6.8085937,143.83398)" spreadMethod="pad"/>
  <g transform="matrix(2,0,0,-2,2e-4,608)">
    <path d="m 166.4209,304 0,-27.273 0,-81.796 0,-7.015 6.379,-2.927 c 19.401,-8.903 31.936,-28.422 31.936,-49.727 0,-30.162 -24.554,-54.701 -54.736,-54.701 -30.182,0 -54.736,24.539 -54.736,54.701 0,21.305 12.536,40.824 31.935,49.727 l 6.38,2.927 0,7.015 0,81.796 0,27.273 -18.859,-19.713 -109.017,-113.949 -5.703,-5.962 4.166,-7.12 c 14.549,-24.87 22.563,-55.993 22.563,-87.636 0,-19.246 -2.787,-37.889 -8.281,-55.408 L 13.9909,0 l 14.904,0 242.211,0 14.901,0 -4.455,14.212 c -5.495,17.521 -8.28,36.164 -8.28,55.408 0,31.643 8.012,62.766 22.563,87.636 l 4.165,7.12 -5.704,5.962 -109.015,113.949 -18.86,19.713 z m 10.947,-27.273 109.016,-113.95 c -14.964,-25.578 -24.06,-57.946 -24.06,-93.157 0,-20.826 3.131,-40.658 8.782,-58.68 l -242.211,0 c 5.651,18.022 8.781,37.854 8.781,58.68 0,35.211 -9.096,67.579 -24.061,93.157 l 109.017,113.95 0,-81.796 c -22.607,-10.374 -38.315,-33.181 -38.315,-59.669 0,-36.254 29.408,-65.642 65.683,-65.642 36.276,0 65.684,29.388 65.684,65.642 0,26.488 -15.709,49.296 -38.316,59.669 l 0,81.796" style="fill:#ffffff"/>
    <path d="m 177.368,194.931 c 22.607,-10.373 38.315,-33.181 38.315,-59.669 l 0,0 C 215.683,99.008 186.277,69.62 150,69.62 l 0,0 c -36.275,0 -65.684,29.388 -65.684,65.642 l 0,0 c 0,26.488 15.709,49.295 38.316,59.669 l 0,0 0,81.796 L 13.615,162.778 C 28.58,137.2 37.676,104.831 37.676,69.62 l 0,0 c 0,-20.826 -3.13,-40.658 -8.781,-58.68 l 0,0 242.21,0 c -5.65,18.022 -8.781,37.854 -8.781,58.68 l 0,0 c 0,35.211 9.096,67.58 24.06,93.158 l 0,0 -109.016,113.949 0,-81.796 z" style="fill:url(#linearGradient3031)"/>
    <path d="m 215.6836,135.2617 c 0,-36.254 -29.407,-65.642 -65.684,-65.642 -36.275,0 -65.683,29.388 -65.683,65.642 0,26.488 15.709,49.295 38.315,59.669 l 0,81.796 -109.016,-113.949 c 14.964,-25.578 24.06,-57.947 24.06,-93.158 0,-20.826 -3.13,-40.658 -8.781,-58.679 l 242.211,0 c -5.651,18.021 -8.781,37.853 -8.781,58.679 0,35.211 9.095,67.58 24.059,93.158 l -109.015,113.949 0,-81.796 c 22.606,-10.373 38.315,-33.181 38.315,-59.669 z" style="fill:none;stroke:#000000;stroke-width:7.5;stroke-miterlimit:4"/>
  </g>
</svg>
