<?xml version="1.0" encoding="UTF-8" standalone="no"?>
<svg xmlns="http://www.w3.org/2000/svg" xmlns:xlink="http://www.w3.org/1999/xlink" version="1.1" width="600" height="608">
  <linearGradient x1="0" y1="0" x2="1" y2="0" id="linearGradient24" gradientUnits="userSpaceOnUse" gradientTransform="matrix(286.38379,0,0,-286.38379,6.8085937,147.91699)" spreadMethod="pad">
    <stop style="stop-color:#8b723c" offset="0"/>
    <stop style="stop-color:#d2bb7b" offset="0.3"/>
    <stop style="stop-color:#ebd491" offset="0.5"/>
    <stop style="stop-color:#d2bb7b" offset="0.7"/>
    <stop style="stop-color:#8b723c" offset="1"/>
  </linearGradient>
  <linearGradient x1="0" y1="0" x2="1" y2="0" id="linearGradient3010" xlink:href="#linearGradient24" gradientUnits="userSpaceOnUse" gradientTransform="matrix(286.38379,0,0,-286.38379,6.8085937,147.91699)" spreadMethod="pad"/>
  <linearGradient x1="0" y1="0" x2="1" y2="0" id="linearGradient3016" xlink:href="#linearGradient24" gradientUnits="userSpaceOnUse" gradientTransform="matrix(286.38379,0,0,-286.38379,6.8085937,147.91699)" spreadMethod="pad"/>
  <linearGradient x1="0" y1="0" x2="1" y2="0" id="linearGradient3024" xlink:href="#linearGradient24" gradientUnits="userSpaceOnUse" gradientTransform="matrix(286.38379,0,0,-286.38379,6.8085937,147.91699)" spreadMethod="pad"/>
  <linearGradient x1="0" y1="0" x2="1" y2="0" id="linearGradient3028" xlink:href="#linearGradient24" gradientUnits="userSpaceOnUse" gradientTransform="matrix(286.38379,0,0,-286.38379,6.8085937,147.91699)" spreadMethod="pad"/>
  <linearGradient x1="0" y1="0" x2="1" y2="0" id="linearGradient3031" xlink:href="#linearGradient24" gradientUnits="userSpaceOnUse" gradientTransform="matrix(572.76758,0,0,572.76758,13.617395,312.16602)" spreadMethod="pad"/>
  <path d="m 343.79021,225.154 6.378,2.928 c 42.676,19.582 70.252,62.52 70.252,109.394 l 0,0 c 0,66.356 -54.022,120.344 -120.42,120.344 l 0,0 c -66.398,0 -120.418,-53.988 -120.418,-120.344 l 0,0 c 0,-46.872 27.574,-89.812 70.25,-109.396 l 0,0 6.378,-2.926 0,-197.88 -242.592002,253.572 4.162,7.12 c 30.068,51.39 46.624,115.6 46.624,180.794 l 0,0 c 0,39.6 -5.74,77.986 -17.062,114.086 l 0,0 -4.456,14.216 514.226002,0 -4.456,-14.216 c -11.32,-36.104 -17.06,-74.49 -17.06,-114.086 l 0,0 c 0,-65.194 16.556,-129.404 46.622,-180.794 l 0,0 4.166,-7.12 -242.594,-253.572 0,197.88 z" style="fill:url(#linearGradient3031)"/>
  <path d="m 332.842,0 0,54.546 0,163.592 0,14.03 12.758,5.854 c 38.802,17.806 63.872,56.844 63.872,99.454 0,60.324 -49.108,109.402 -109.472,109.402 -60.364,0 -109.472,-49.078 -109.472,-109.402 0,-42.61 25.072,-81.648 63.87,-99.454 l 12.76,-5.854 0,-14.03 0,-163.592 L 267.158,0 229.44,39.426 11.406,267.324 0,279.248 l 8.332,14.24 c 29.098,49.74 45.126,111.986 45.126,175.272 0,38.492 -5.574,75.778 -16.562,110.816 L 27.982,608 l 29.808,0 484.422,0 29.802,0 -8.91,-28.424 c -10.99,-35.042 -16.56,-72.328 -16.56,-110.816 0,-63.286 16.024,-125.532 45.126,-175.272 L 600,279.248 588.592,267.324 370.562,39.426 332.842,0 z m 21.894,54.546 218.032,227.9 c -29.928,51.156 -48.12,115.892 -48.12,186.314 0,41.652 6.262,81.316 17.564,117.36 l -484.422,0 C 69.092,550.076 75.352,510.412 75.352,468.76 75.352,398.338 57.16,333.602 27.23,282.446 l 218.034,-227.9 0,163.592 c -45.214,20.748 -76.63,66.362 -76.63,119.338 0,72.508 58.816,131.284 131.366,131.284 72.552,0 131.368,-58.776 131.368,-131.284 0,-52.976 -31.418,-98.592 -76.632,-119.338 l 0,-163.592"/>
</svg>
