<?xml version="1.0" encoding="iso-8859-1"?>
<svg xmlns="http://www.w3.org/2000/svg" xmlns:xlink="http://www.w3.org/1999/xlink" version="1.1" id="Layer_1" x="0px" y="0px" width="400px" height="414px">
  <g>
    <path fill="#808080" d="M223.951,228.456c42.74-47.708,81.067-94.279,107.923-131.134c13.193-18.105,22.951-32.96,29.005-44.152   c6.328-11.7,11.171-23.434,3.822-30.018c-1.416-1.269-3.892-2.782-7.64-2.782c-4.263,0-15.586,0-68.003,48.604   c-32.687,30.31-72.821,71.708-113.01,116.568c-42.739,47.708-81.067,94.279-107.923,131.134   c-13.193,18.104-22.951,32.96-29.005,44.152c-6.328,11.699-11.171,23.434-3.821,30.019c1.416,1.269,3.891,2.781,7.638,2.781   c4.262,0,15.582,0,67.999-48.603C143.628,314.714,183.764,273.315,223.951,228.456z"/>
    <path fill="#808080" d="M118.898,234.6l-0.573-3.735c-3.982-25.971,5.021-54.181,24.083-75.46c18.374-20.51,43.518-32.273,68.984-32.273   c1.126,0,2.265,0.024,3.384,0.071l3.775,0.161l63.495-70.877l-44.405-39.781L48.438,71.223L10.997,265.697l44.407,39.78   L118.898,234.6z"/>
    <path fill="#808080" d="M344.596,108.522l-63.494,70.876l0.573,3.735c3.982,25.974-5.021,54.183-24.083,75.461   c-18.372,20.509-43.517,32.273-68.987,32.274h-0.006c-1.122,0-2.258-0.024-3.375-0.071l-3.775-0.16l-63.495,70.875l44.405,39.783   l189.203-58.519l37.441-194.474L344.596,108.522z"/>
    <path d="M349.611,39.995c-7.881,4.81-23.105,15.984-50.977,41.924   c-32.086,29.862-71.389,70.455-110.668,114.301c-39.276,43.842-75.32,87.355-101.491,122.524   c-22.73,30.544-32.168,46.898-36.087,55.26c7.882-4.811,23.104-15.983,50.975-41.922c32.09-29.866,71.394-70.459,110.67-114.302   c39.276-43.842,75.32-87.355,101.491-122.524C336.254,64.712,345.693,48.356,349.611,39.995z"/>
    <path d="M130.49,144.729c21.405-23.894,50.894-37.597,80.902-37.597c0.073,0,0.146,0,0.219,0   l47.842-53.404l-25.739-23.059L62.335,83.672L28.421,259.825l25.741,23.06l47.843-53.406   C98.695,199.919,109.188,168.509,130.49,144.729z"/>
    <path d="M345.838,131.115l-47.843,53.405c3.311,29.562-7.184,60.973-28.485,84.751   c-21.403,23.893-50.892,37.597-80.904,37.598c-0.083,0-0.145,0-0.217,0l-47.842,53.403l25.739,23.061l171.379-53.005   l33.914-176.153L345.838,131.115z"/>
  </g>
</svg>
