<?xml version="1.0" encoding="iso-8859-1"?>
<svg xmlns="http://www.w3.org/2000/svg" xmlns:xlink="http://www.w3.org/1999/xlink" version="1.1" id="Layer_1" x="0px" y="0px" width="400px" height="414px">
  <g>
    <path d="M253.402,144.628c12.275,10.692,18.651,26.998,17.955,45.91c-0.743,20.19-9.322,40.688-24.156,57.717   c-17.969,20.626-42.697,32.939-66.149,32.939c-13.866,0-26.193-4.354-35.649-12.592c-12.275-10.693-18.652-26.998-17.956-45.911   c0.743-20.189,9.322-40.687,24.157-57.715c17.967-20.626,42.696-32.94,66.15-32.94C231.619,132.036,243.946,136.39,253.402,144.628   z M392.717,135.167L244.736,6.256l-6.856-5.973l-8.641,2.834L47.032,62.886l-9.055,2.971l-1.701,9.376L2.05,263.912l-1.623,8.947   l6.856,5.974l147.98,128.911l6.856,5.973l8.64-2.834l182.208-59.768l9.055-2.971l1.701-9.377l34.227-188.681l1.623-8.947   L392.717,135.167z"/>
    <radialGradient id="SVGID_1_" cx="200" cy="207" r="194.3241" gradientUnits="userSpaceOnUse">
      <stop style="stop-color:#ebd491" offset="0"/>
      <stop style="stop-color:#d2bb7b" offset="0.7"/>
      <stop style="stop-color:#8b723c" offset="1"/>
    </radialGradient>
    <path style="fill:url(#SVGID_1_);" d="M52.02,78.089l-34.227,188.68l147.98,128.911l182.207-59.768l34.227-188.681L234.227,18.32   L52.02,78.089z M259.266,258.765c-21.818,25.045-51.156,38.43-78.214,38.43c-17.129,0-33.343-5.363-46.159-16.527   c-33.061-28.801-30.982-85.303,4.646-126.2c21.816-25.045,51.155-38.431,78.215-38.431c17.128,0,33.342,5.363,46.158,16.527   C296.973,161.364,294.893,217.866,259.266,258.765z"/>
    <g>
      <path d="M369.265,12.695c-3.585-3.123-8.133-4.774-13.149-4.774h-0.003h-0.007c-8.336,0.003-18.2,4.714-32.983,15.75    c-11.348,8.473-25.389,20.557-41.732,35.916c-33.055,31.065-73.332,73.512-113.411,119.52    c-42.775,49.104-80.947,97.164-107.483,135.33c-13.186,18.963-22.894,34.63-28.856,46.565c-3.463,6.933-5.684,12.644-6.787,17.458    c-2.945,12.852,2.422,19.829,5.883,22.845c3.586,3.124,8.135,4.775,13.153,4.775c8.339,0,18.205-4.709,32.99-15.747    c11.348-8.472,25.389-20.556,41.733-35.917c33.052-31.063,73.328-73.51,113.41-119.521    c42.775-49.104,80.948-97.165,107.485-135.331c13.185-18.963,22.894-34.63,28.855-46.565c3.464-6.934,5.684-12.645,6.786-17.459    C378.094,22.688,372.727,15.711,369.265,12.695z"/>
      <radialGradient id="SVGID_2_" cx="200" cy="207.0005" r="179.9142" gradientUnits="userSpaceOnUse">
        <stop style="stop-color:#ebd491" offset="0"/>
        <stop style="stop-color:#d2bb7b" offset="0.7"/>
        <stop style="stop-color:#8b723c" offset="1"/>
      </radialGradient>
      <path style="fill:url(#SVGID_2_);" d="M356.113,23.921c-17.809,0.007-93.544,70.963-176.07,165.695    C92.365,290.265,30.223,379.639,41.244,389.24c0.647,0.564,1.531,0.84,2.644,0.84c17.808,0,93.545-70.963,176.069-165.694    c87.68-100.648,149.822-190.023,138.799-199.625C358.108,24.196,357.225,23.92,356.113,23.921z"/>
    </g>
  </g>
</svg>
