<?xml version="1.0" encoding="utf-8"?>
<!-- Generator: Adobe Illustrator 15.1.0, SVG Export Plug-In . SVG Version: 6.00 Build 0)  -->
<!DOCTYPE svg PUBLIC "-//W3C//DTD SVG 1.1//EN" "http://www.w3.org/Graphics/SVG/1.1/DTD/svg11.dtd">
<svg version="1.1"
	 id="Layer_1" xmlns:rdf="http://www.w3.org/1999/02/22-rdf-syntax-ns#" xmlns:cc="http://creativecommons.org/ns#" xmlns:dc="http://purl.org/dc/elements/1.1/" xmlns:svg="http://www.w3.org/2000/svg"
	 xmlns="http://www.w3.org/2000/svg" xmlns:xlink="http://www.w3.org/1999/xlink" x="0px" y="0px" width="156px" height="116px"
	 viewBox="0 0 156 116" enable-background="new 0 0 156 116" xml:space="preserve">
<g>
	<path fill="#FFFFFF" d="M62.382,24.478l14.67-22.772c5.831,0.209,11.667,1.344,17.276,3.45l-7.426,19.02
		C78.875,21.234,70.135,21.436,62.382,24.478z M43.575,83.902l4.199-5.997c-4.962-6.358-7.479-14.208-7.294-22.1L24.101,77.33
		c2.459,6.071,6.021,11.746,10.627,16.701l3.01-12.737L43.575,83.902z M55.208,84.958c-1.785-1.25-3.408-2.645-4.881-4.146
		l-5.454,7.79l-4.522-2.023l-2.462,10.591c1.75,1.601,3.622,3.106,5.617,4.503c4.632,3.243,9.589,5.672,14.703,7.317l-0.33-22.344
		C56.973,86.126,56.081,85.568,55.208,84.958z M98.301,6.83l-7.492,19.061c1.385,0.713,2.74,1.519,4.053,2.437
		c4.645,3.253,8.236,7.444,10.716,12.136l8.874-0.532l8.584-10.102c-3.916-7.023-9.44-13.294-16.471-18.216
		C103.907,9.752,101.141,8.161,98.301,6.83z M62.228,88.746l0.308,21.439c16.466,3.839,34.03-0.13,47.271-10.951L92.001,86.767
		C83.006,91.824,72.027,92.665,62.228,88.746z M107.254,44.122c2.18,5.624,2.865,11.76,1.949,17.764l17.869,12.512
		c4.621-13.525,3.709-28.226-2.182-40.928l-8.609,10.111L107.254,44.122z M53.017,75.91l0.559-18.015l14.229,9.963l7.565,3.004
		l47.647,33.363l30.055,7.061l-16.914-25.827L88.512,52.096l-5.41-6.082L68.873,36.05l16.737-6.687l-28.444-3.456L72.728,1.726
		c-4.681,0.2-9.321,0.993-13.801,2.362L45.825,24.877l-5.672-1.432l-0.305-0.078L18.379,8.335l-2.309-6.812L3.352,6.449
		L3.073,20.087l7.19-0.16l21.468,15.032l0.177,0.261l3.286,4.839l-15.048,19.49c0.25,4.655,1.09,9.262,2.496,13.707l17.399-22.893
		L53.017,75.91z"/>
	<path fill="#010101" d="M90.049,7.236l-4.992,12.725c-5.033-1.37-10.245-1.673-15.309-0.959c2.819-4.381,6.068-9.43,8.922-13.862
		C82.496,5.404,86.313,6.102,90.049,7.236z M42.461,79.876l1.213-1.733c-2.834-4.145-4.796-8.771-5.819-13.594
		c-3.152,4.146-6.785,8.928-9.974,13.124c1.419,3.192,3.172,6.256,5.243,9.137l2.374-10.046L42.461,79.876z M53.238,87.812
		c-0.877-0.614-1.713-1.265-2.522-1.938l-4.729,6.754l-3.396-1.519l-1.126,4.764c1.262,1.078,2.583,2.109,3.971,3.081
		c3.03,2.122,6.209,3.869,9.482,5.259l-0.222-15.435C54.205,88.467,53.718,88.147,53.238,87.812z M99.946,11.412l-5.029,12.817
		c0.658,0.403,1.312,0.821,1.952,1.271c4.537,3.177,8.158,7.17,10.825,11.636l5.188-0.333l6.15-7.223
		c-3.586-5.833-8.396-11.046-14.361-15.223C103.133,13.279,101.555,12.3,99.946,11.412z M65.503,93.478l0.202,13.973
		c13.35,2.448,27.264-0.471,38.529-8.184l-12.227-8.562C83.854,94.755,74.415,95.786,65.503,93.478z M123.825,39.691l-5.978,7.018
		l-5.991,0.383c1.132,4.366,1.479,8.919,1.023,13.436l12.29,8.606C127.607,59.333,127.084,49.085,123.825,39.691z M57.844,40.554
		l7.542-3.013l15.56,10.895l5.41,6.083l47.448,33.224l12.156,18.563l-21.601-5.075L76.91,68.007l-7.565-3.003l-15.56-10.896
		l0.251-8.117l4.831,0.974c-1.04,2.554-0.225,5.574,2.128,7.222c2.732,1.914,6.499,1.25,8.413-1.483
		c1.913-2.733,1.249-6.5-1.483-8.413c-2.354-1.647-5.47-1.38-7.514,0.47L57.844,40.554z M78.408,51.631
		c-2.732-1.914-6.5-1.25-8.413,1.483c-1.914,2.732-1.25,6.499,1.484,8.412c2.732,1.914,6.499,1.25,8.413-1.483
		C81.806,57.311,81.141,53.544,78.408,51.631z M52.919,32.486l3.174,5.199l16.628-6.643l-17.505-2.128L52.919,32.486z
		 M44.794,44.127l-2.581,3.396l7.975,15.701l0.555-17.897L44.794,44.127z M55.022,42.63l-6.061-9.928L66.29,5.775
		c-1.806,0.312-3.597,0.713-5.362,1.213L47.301,28.573l-5.304-1.34l-2.125,4.788l-3.773,3.635l3.074,4.525L23.551,60.368
		c0.133,1.83,0.368,3.65,0.694,5.454L43.621,40.33L55.022,42.63z M15.239,9.106l-1.14-3.364l-7.57,2.932l-0.166,8.117l3.551-0.079
		L15.239,9.106z M66.077,46.929c1.275,0.894,1.585,2.651,0.692,3.926c-0.893,1.276-2.651,1.586-3.926,0.693
		c-1.275-0.894-1.585-2.651-0.692-3.927S64.802,46.036,66.077,46.929z M13.115,17.99l20.948,14.668l0.2,0.294l2.921-2.813
		l1.645-3.706l-0.344-0.088L17.536,11.677L13.115,17.99z M72.634,54.962c-0.893,1.275-0.583,3.033,0.692,3.926
		s3.033,0.583,3.926-0.692s0.583-3.033-0.692-3.926S73.527,53.687,72.634,54.962z"/>
</g>
</svg>
