<?xml version="1.0" encoding="iso-8859-1"?>
<svg xmlns="http://www.w3.org/2000/svg" xmlns:xlink="http://www.w3.org/1999/xlink" version="1.1" id="Layer_1" x="0px" y="0px" width="314px" height="314px">
  <g>
    <path style="fill:#FFFFFF;" d="M313.817,156.925c-0.02-1.829-0.751-3.579-2.047-4.875L161.949,2.23   c-1.348-1.348-3.108-2.028-4.875-2.047L157,0.108l-0.074,0.074c-1.767,0.019-3.528,0.699-4.876,2.047L2.229,152.05   c-1.295,1.296-2.026,3.046-2.046,4.876L0.107,157l0.075,0.074c0.02,1.83,0.751,3.58,2.046,4.876L152.05,311.771   c1.348,1.347,3.109,2.027,4.876,2.046l0.074,0.074l0.074-0.074c1.767-0.019,3.527-0.699,4.875-2.046l149.821-149.821   c1.296-1.296,2.027-3.046,2.047-4.875l0.075-0.075L313.817,156.925z"/>
    <polygon points="70.732,157 110.33,117.402 82.089,89.161 14.249,157 82.089,224.84 110.33,196.598  "/>
    <polygon points="157,70.733 196.598,110.331 224.839,82.089 157,14.25 89.16,82.089 117.401,110.331  "/>
    <polygon points="203.668,196.598 231.91,224.839 299.75,157 231.91,89.161 203.668,117.402 243.266,157  "/>
    <polygon points="117.401,203.669 89.16,231.911 157,299.75 224.839,231.911 196.598,203.669 157,243.267  "/>
    <rect x="106" y="106" transform="matrix(0.7071 -0.7071 0.7071 0.7071 -65.0317 157.0001)" width="102" height="102"/>
  </g>
</svg>
