<?xml version="1.0" encoding="UTF-8" standalone="no"?>
<!DOCTYPE svg PUBLIC "-//W3C//DTD SVG 1.1//EN" "http://www.w3.org/Graphics/SVG/1.1/DTD/svg11.dtd">
<svg width="100%" height="100%" viewBox="0 0 3000 3000" version="1.1" xmlns="http://www.w3.org/2000/svg" xmlns:xlink="http://www.w3.org/1999/xlink" xml:space="preserve" xmlns:serif="http://www.serif.com/" style="fill-rule:evenodd;clip-rule:evenodd;stroke-linecap:round;stroke-linejoin:round;stroke-miterlimit:1.5;">
    <g transform="matrix(3,0,0,3,-12828,0)">
        <g id="WM" transform="matrix(1,0,0,1,-0.444444,0)">
            <rect x="4276.44" y="0" width="1000" height="1000" style="fill:none;"/>
            <g id="Rings" transform="matrix(1,0,0,1,4295.01,0)">
                <g transform="matrix(0.924534,0,0,0.933291,-49.6436,-50.6485)">
                    <circle cx="593.062" cy="655.292" r="466.5" style="stroke:black;stroke-width:1.08px;"/>
                </g>
                <g transform="matrix(0.86292,0,0,0.868595,-14.0478,-8.49513)">
                    <circle cx="593.062" cy="655.292" r="466.5" style="stroke:black;stroke-width:1.16px;"/>
                </g>
            </g>
            <g id="Rings1" serif:id="Rings" transform="matrix(1,0,0,1,4295.01,0)">
                <g transform="matrix(0.924534,0,0,0.933291,-49.6436,-50.6485)">
                    <circle cx="593.062" cy="655.292" r="466.5" style="stroke:black;stroke-width:1.08px;"/>
                </g>
                <g transform="matrix(0.86292,0,0,0.868595,-14.0478,-8.49513)">
                    <circle cx="593.062" cy="655.292" r="466.5" style="fill:white;stroke:black;stroke-width:1.16px;"/>
                </g>
            </g>
            <g id="Head" transform="matrix(1,0,0,1,4295.01,0)">
                <path d="M745.225,677.052C745.225,677.052 718.183,723.122 685.634,751.666C685.634,751.666 708.669,804.747 624.04,863.837C539.41,922.927 488.833,922.927 430.745,877.858C430.745,877.858 262.988,856.839 212.411,709.601C212.411,709.601 201.716,680.951 200.237,668.528C200.237,668.528 186.164,621.719 191.506,544.637C191.506,544.637 192.651,498.464 205.243,450.384C217.835,402.305 219.743,390.857 228.138,374.831C215.953,376.981 177.559,307.548 193.032,253.869C193.032,253.869 191.887,244.153 204.098,214.771C204.098,214.771 196.466,157.915 224.704,118.231C224.704,118.231 233.098,92.15 296.441,54.888C296.441,54.888 290.336,92.035 293.007,115.693C293.007,115.693 296.441,147.746 318.573,143.167C318.573,143.167 342.613,141.259 377.719,88.982C377.719,88.982 399.851,59.219 450.983,55.021C450.983,55.021 479.602,58.456 490.668,66.087C490.668,66.087 529.207,2.744 581.484,3.508C581.484,3.508 635.288,1.981 668.486,62.272C668.486,62.272 723.434,55.785 760.447,85.93C760.447,85.93 793.263,108.443 807,152.325C807,152.325 873.014,179.418 886.37,248.103C886.37,248.103 896.673,293.893 882.172,360.288C867.672,426.684 841.725,491.935 815.014,532.001C815.014,532.001 848.151,599.512 819.593,635.41C790.852,671.539 747.32,679.147 745.225,677.052Z"/>
            </g>
            <g id="Hair" transform="matrix(1,0,0,1,4295.01,0)">
                <path d="M277.17,273.13C277.17,273.13 240.666,345.043 241.396,345.043C241.396,345.043 218.763,327.521 222.414,265.829C222.414,265.829 223.021,235.043 236.162,218.251C236.162,218.251 226.901,187.148 240.727,156.229C240.727,156.229 243.992,140.098 262.236,119.357C262.236,119.357 271.262,166.023 298.532,171.017C298.532,171.017 320.311,184.537 352.304,161.606C385.527,137.793 398.394,108.603 406.651,105.722C406.651,105.722 422.015,87.286 446.98,87.094C446.98,87.094 475.594,84.022 499.215,111.868C499.215,111.868 519.956,69.427 546.842,49.454C546.842,49.454 566.238,30.25 590.051,35.627C590.051,35.627 619.708,36.079 651.312,95.16C651.312,95.16 710.757,82.418 742.449,112.185C742.449,112.185 768.189,123.191 781.439,176.519C781.439,176.519 827.529,191.245 842.701,225.429C842.701,225.429 853.839,237.143 858.064,275.167C858.064,275.167 860.753,329.761 849.806,366.003C838.86,402.245 831.754,424.906 831.754,424.906C831.754,424.906 808.53,384.385 758.586,345.017C758.586,345.017 789.877,322.548 795.638,292.013C795.638,292.013 806.008,244.031 744.363,231.136C744.363,231.136 715.941,225.155 679.261,231.492C642.581,237.83 645.078,238.022 645.078,238.022C645.078,238.022 619.728,195.595 565.188,162.741C565.188,162.741 537.15,193.646 515.834,196.334C515.834,196.334 493.961,202.48 486.664,196.526L468.996,190.765L455.169,185.196C455.169,185.196 429.435,176.938 414.072,176.554C414.072,176.554 384.69,171.561 358.956,207.857C358.956,207.857 347.241,226.869 321.316,253.563C321.316,253.563 305.232,271.957 277.17,273.13Z" style="fill:white;"/>
            </g>
            <g id="Face" transform="matrix(1,0,0,1,4295.01,0)">
                <path d="M435.39,208.04C435.39,208.04 469.07,223.135 488.878,225.526C508.686,227.916 525.957,223.193 525.957,223.193C525.957,223.193 538.551,222.115 568.216,199.032C568.216,199.032 595.552,217.695 607.254,234.632C618.956,251.569 615.107,242.947 632.198,271.124C632.198,271.124 678.236,255.727 714.111,257.42C749.987,259.114 756.762,265.273 756.762,265.273C756.762,265.273 767.078,271.432 767.694,279.284C767.694,279.284 770.62,289.447 763.537,299.301C756.454,309.155 753.067,312.081 753.067,312.081L739.671,324.091L705.181,346.263L721.964,355.655C721.964,355.655 748.909,371.668 770.466,393.224C792.022,414.781 793.254,418.014 793.254,418.014L808.035,439.57L818.813,457.277L812.962,469.287C812.962,469.287 782.96,432.876 725.198,391.685C725.198,391.685 757.818,433.485 764.438,444.879C769.701,453.936 782.915,474.75 782.915,474.75C782.915,474.75 792,489.994 794.001,498.308C794.001,498.308 743.169,455.833 729.486,453.964C729.486,453.964 763.493,495.493 774.013,512.807C784.533,530.121 800.094,558.613 801.409,573.735C802.724,588.858 806.771,602.872 793.738,618.884C786.067,628.308 778.177,635.321 755.603,643.43C733.029,651.54 725.796,649.129 725.796,649.129C725.796,649.129 701.546,694.522 670.786,723.645C665.046,729.08 656.321,743.371 638.13,759.589C619.939,775.807 570.024,816.298 570.024,816.298C570.024,816.298 625.25,802.242 643.585,787.562C643.585,787.562 649.195,798.401 637.48,811.791C625.764,825.18 603.855,844.503 581.641,856.675C559.427,868.847 532.497,878.888 513.174,878.28C493.851,877.671 482.896,877.063 480.462,872.65C480.462,872.65 520.02,852.262 532.801,839.482C532.801,839.482 496.392,856.141 453.531,850.893C446.076,849.98 399.408,840.92 376.379,831.902C379.845,832.769 350.333,822.944 337.766,813.193C325.199,803.443 304.398,797.593 273.197,756.424C241.995,715.256 231.378,675.914 226.612,644.62C221.845,613.325 218.811,549.139 225.745,509.321C232.678,469.504 246.112,414.035 250.879,402.984C255.646,391.934 276.664,325.532 294.214,300.497C294.214,300.497 320.649,292.796 336.033,278.062C351.417,263.329 355.317,260.078 367.667,244.478C380.018,228.877 379.151,227.577 379.151,227.577L386.518,218.26L393.452,211.543C393.452,211.543 406.692,198.904 435.39,208.04Z" style="fill:white;"/>
            </g>
            <g id="Eyes--Nose--Brows" serif:id="Eyes, Nose, Brows" transform="matrix(1,0,0,1,4295.01,0)">
                <g transform="matrix(1.04616,0.094697,-0.10241,1.13138,12.5606,-69.5428)">
                    <ellipse cx="339.273" cy="402.844" rx="21.107" ry="34.525"/>
                </g>
                <path d="M288.492,360.459C288.492,360.459 287.539,350.171 309.829,331.502C332.118,312.832 343.739,315.309 343.739,315.309C343.739,315.309 353.836,312.642 356.884,322.738C359.932,332.835 353.074,340.837 353.074,340.837L344.882,348.647L336.119,352.267L330.213,353.22C330.213,353.22 299.541,354.553 293.636,362.745C293.636,362.745 288.09,364.118 288.492,360.459Z"/>
                <path d="M390.429,507.433C390.429,507.433 405.265,524.951 420.281,534.782L395.613,560.701C395.613,560.701 377.38,545.507 368.084,529.062C358.789,512.617 360.577,514.047 360.577,514.047C360.577,514.047 357.219,506.195 359.326,499.031C360.219,495.993 386.717,471.377 403.243,450.608C419.768,429.838 425.606,405.464 430.174,395.32C434.743,385.175 434.616,385.937 436.647,384.921C438.677,383.906 440.061,387.949 440.005,388.832C439.95,389.714 442.41,410.751 438.034,424.069C433.658,437.388 432.136,441.954 423.003,460.219C413.871,478.484 399.332,498.519 390.429,507.433Z"/>
                <path d="M552.993,324.863C552.993,324.863 550.113,311.991 572.131,284.384C572.131,284.384 603.804,300.643 620.233,337.735C636.662,374.827 626.161,381.602 626.161,381.602C626.161,381.602 609.214,355.564 587.879,342.982C566.544,330.4 562.417,327.897 552.993,324.863Z"/>
                <path d="M512.069,418.274C512.069,418.274 521.852,399.415 550.416,395.684C554.603,395.137 564.364,395.127 564.364,395.127C564.364,395.127 589.099,396.455 597.013,407.774C604.927,419.092 604.927,424.154 604.927,428.571C604.927,432.988 605.203,440.994 601.706,446.331C598.21,451.668 596.331,451.721 593.843,451.826C592.951,451.863 591.33,450.858 590.516,449.951C589.449,448.76 588.442,447.584 588.44,447.583C588.065,447.375 581.277,439.521 581.277,439.521C581.277,439.521 574.008,429.675 566.186,427.282C566.186,427.282 550.634,420.565 540.051,419.645C529.469,418.724 526.97,418.284 512.069,418.274Z"/>
            </g>
            <g id="Mund" transform="matrix(1,0,0,1,4295.01,0)">
                <path d="M562.662,633.002L562.627,673.32L594.483,604.999L529.763,546.41L518.522,560.546L528.23,582.347C528.23,582.347 441.63,653.484 293.749,591.938L295.488,567.51L259.366,607.702C259.366,607.702 271.271,649.377 283.99,664.682C283.99,664.682 291.723,673.577 295.081,662.385C295.081,662.385 295.03,655.696 293.504,653.254L296.429,653.278C296.429,653.278 303.113,668.447 353.835,685.837C404.557,703.227 456.859,686.232 456.859,686.232C456.859,686.232 513.343,672.359 562.662,633.002Z"/>
                <path d="M539.693,595.441L557.675,616.683C557.675,616.683 501.179,672.255 406.348,675.625C317.478,678.783 292.438,616.981 289.864,615.446C289.864,615.446 287.26,612.955 292.738,615.257C298.216,617.559 318.831,626.628 335.029,629.318C351.228,632.007 367.426,636.744 380.935,637.193C394.444,637.641 425.457,637.992 425.457,637.992C425.457,637.992 450.733,637.169 487.061,623.649C523.388,610.13 539.693,595.441 539.693,595.441Z" style="fill:white;"/>
            </g>
        </g>
    </g>
</svg>
