<?xml version="1.0" encoding="UTF-8" standalone="no"?>
<svg xmlns="http://www.w3.org/2000/svg" version="1.1" width="600" height="640.3244">
  <path d="m 0,250.87911 c 0,69.60327 47.223927,136.75729 75.046023,165.45983 22.507404,23.13172 56.396577,45.52707 90.669937,59.83832 24.57245,10.32523 66.22556,43.89424 79.78443,59.27804 39.2839,44.27843 54.53963,104.86913 54.53963,104.86913 0,0 17.00061,-61.90336 54.52363,-104.86913 13.44681,-15.43182 55.21197,-48.95281 79.72039,-59.27804 34.33739,-14.31125 68.22657,-36.7066 90.66994,-59.83832 C 552.85611,387.6364 600,320.48238 600,250.87911 c 0,-93.61543 -60.5907,-127.6967 -60.5907,-127.6967 0,0 -24.0762,42.53355 -70.48371,42.53355 -21.25877,0 -44.58259,-7.94002 -69.21907,-23.70801 C 349.44105,109.99173 327.86212,66.65777 321.79504,53.16293 310.10912,27.02169 299.97599,0 299.97599,0 c 0,0 -8.38825,25.88511 -22.07519,53.89931 -6.88348,14.13516 -28.20629,56.6527 -77.54329,88.10864 -24.70051,15.76799 -47.9603,23.70801 -69.21907,23.70801 -38.211357,0 -70.531733,-42.53355 -70.531733,-42.53355 0,0 -60.606707,35.39393 -60.606707,127.6967" style="fill:#808080"/>
  <path d="m 114.18585,185.46997 c -22.763529,-3.87396 -41.637092,-15.62392 -55.772254,-32.20832 0,0 -37.138817,32.59252 -37.138817,97.61746 0,26.26931 7.555829,52.09039 18.121182,75.09405 52.474587,-36.88269 79.240149,-87.29223 74.789889,-140.50319 M 387.6364,159.52082 C 320.48238,116.37896 300.04002,55.83629 300.04002,55.83629 c 0,0 -20.45837,60.54267 -87.67642,103.68453 79.97652,92.60692 69.60326,249.69451 0.81705,320.09819 20.57042,14.43931 40.2604,31.584 49.01684,42.70964 14.58339,18.5694 26.52544,35.1378 37.84317,64.3526 11.2537,-29.2148 23.19575,-45.7832 37.82717,-64.3526 8.8845,-11.31774 29.07073,-28.76658 50.02534,-43.39799 -69.73133,-69.90742 -80.5368,-226.35469 -0.25613,-319.40984 m 62.22353,25.70903 c -8.56434,-1.44073 -17.57691,-3.954 -26.89363,-7.50781 -74.78989,68.21056 -70.03548,219.91943 1.07319,279.82178 0.68771,-0.30479 1.37669,-0.62496 2.06504,-0.92847 28.57448,-11.94205 61.08695,-31.84013 83.65839,-55.09992 8.75644,-8.99655 21.08268,-23.8841 32.89667,-42.51754 -74.5978,-49.83325 -103.92466,-102.86812 -92.79902,-173.76804 m 91.72647,-31.9682 c -14.05512,16.5844 -32.94469,28.27033 -55.64419,32.20832 -4.88247,53.77124 21.38684,103.17227 74.78989,140.3271 10.50133,-22.95563 18.00913,-48.71268 18.00913,-74.91796 0,-65.02494 -37.15483,-97.61746 -37.15483,-97.61746 M 174.21755,456.72741 c -0.064,0 -0.17673,-0.0512 -0.30479,-0.11526 C 145.3863,444.6701 112.87383,424.77202 90.302393,401.51223 81.353859,392.32358 68.675436,376.93978 56.60532,357.74606 c 73.34916,-49.5291 104.48494,-102.17977 93.59942,-172.51941 8.56434,-1.44073 17.57691,-3.95401 26.89363,-7.50781 74.34167,67.90641 67.47419,218.6708 -2.88146,279.00537"/>
</svg>
