<?xml version="1.0" encoding="UTF-8" standalone="no"?>
<svg xmlns="http://www.w3.org/2000/svg" xmlns:xlink="http://www.w3.org/1999/xlink" version="1.1" width="600" height="640.39276">
  <linearGradient x1="0" y1="0" x2="1" y2="0" id="linearGradient830" gradientUnits="userSpaceOnUse" gradientTransform="matrix(34.826172,0,0,-34.826172,412.47656,34.814453)" spreadMethod="pad">
    <stop style="stop-color:#8b723c" offset="0"/>
    <stop style="stop-color:#ebd491" offset="0.1"/>
    <stop style="stop-color:#8b723c" offset="0.2"/>
    <stop style="stop-color:#ebd491" offset="0.3"/>
    <stop style="stop-color:#8b723c" offset="0.4"/>
    <stop style="stop-color:#ebd491" offset="0.5"/>
    <stop style="stop-color:#8b723c" offset="0.6"/>
    <stop style="stop-color:#ebd491" offset="0.7"/>
    <stop style="stop-color:#8b723c" offset="0.8"/>
    <stop style="stop-color:#ebd491" offset="0.9"/>
    <stop style="stop-color:#8b723c" offset="1"/>
  </linearGradient>
  <linearGradient x1="0" y1="0" x2="1" y2="0" id="linearGradient3001" xlink:href="#linearGradient830" gradientUnits="userSpaceOnUse" gradientTransform="matrix(34.826172,0,0,-34.826172,412.47656,34.814453)" spreadMethod="pad"/>
  <linearGradient x1="0" y1="0" x2="1" y2="0" id="linearGradient3004" xlink:href="#linearGradient830" gradientUnits="userSpaceOnUse" gradientTransform="matrix(557.56072,0,0,557.56072,21.205966,321.29381)" spreadMethod="pad"/>
  <path d="m 0,250.90588 c 0,69.6107 47.100889,136.77189 74.989994,165.4775 22.509806,23.13419 56.402596,45.53192 90.679616,59.8447 24.57507,10.32634 66.16858,43.89893 79.79294,59.28436 39.2881,44.28316 54.54545,104.88033 54.54545,104.88033 0,0 17.00243,-61.90997 54.52945,-104.88033 13.44825,-15.43346 55.21787,-48.95802 79.79294,-59.28436 34.27702,-14.31278 68.16981,-36.71051 90.67962,-59.8447 C 552.85108,387.67777 600,320.51658 600,250.90588 c 0,-93.62542 -60.59717,-127.71032 -60.59717,-127.71032 0,0 -24.07876,42.53809 -70.49123,42.53809 -21.26104,0 -44.58735,-7.94087 -69.22646,-23.71055 C 349.41431,110.00346 327.83307,66.66488 321.82939,53.16861 310.07818,27.02457 299.94397,0 299.94397,0 c 0,0 -8.38915,25.88787 -22.07755,53.90506 -6.88422,14.13667 -28.2093,56.65875 -77.55156,88.11804 -24.63911,15.76968 -47.96542,23.71055 -69.22646,23.71055 -38.215438,0 -70.539263,-42.53809 -70.539263,-42.53809 0,0 -60.549137,35.39771 -60.549137,127.71032"/>
  <path d="m 212.32222,159.53785 c 79.92102,92.6168 69.6107,249.72116 0.88054,320.13234 l 0,0 c 20.50858,14.44086 40.20066,31.58738 48.95803,42.7142 l 0,0 c 14.63298,18.57139 26.59231,35.14155 37.84721,64.35948 l 0,0 c 11.25491,-29.21793 23.19823,-45.78809 37.83121,-64.35948 l 0,0 c 8.88545,-11.31894 29.07383,-28.76964 50.03068,-43.40262 l 0,0 c -69.73877,-69.91488 -80.5454,-226.37884 -0.25615,-319.44392 l 0,0 C 320.45254,116.39138 300.008,55.84225 300.008,55.84225 l 0,0 c 0,0 -20.52458,60.54913 -87.68578,103.6956 m 273.60782,25.95191 c -4.883,53.77699 21.38912,103.18329 74.79787,140.34208 l 0,0 C 571.23035,302.87376 578.803,277.11396 578.803,250.90588 l 0,0 c 0,-65.03188 -37.22283,-97.62787 -37.22283,-97.62787 l 0,0 c -14.05662,16.58617 -32.94821,28.27334 -55.65013,32.21175 M 21.213011,250.90588 c 0,26.27212 7.620674,52.09596 18.123115,75.10207 l 0,0 C 91.816314,289.12132 118.58473,238.7064 114.134,185.48976 l 0,0 C 91.368039,181.61539 72.492462,169.86418 58.419831,153.27801 l 0,0 c 0,0 -37.20682,32.59599 -37.20682,97.62787 M 424.02007,457.59265 c 0.68842,-0.30418 1.44088,-0.62438 2.06526,-0.92857 l 0,0 c 28.57753,-11.94332 61.09347,-31.84353 83.66732,-55.1058 l 0,0 c 8.69333,-8.99751 21.08493,-23.88665 32.90018,-42.52208 l 0,0 C 467.98303,309.19764 438.71708,256.15711 449.8439,185.24962 l 0,0 c -8.56525,-1.44089 -17.57878,-3.95443 -26.89649,-7.50861 l 0,0 c -74.79788,68.21784 -70.04296,219.9429 1.07266,279.85164 M 150.09206,185.24962 c 11.01475,70.2831 -20.18839,123.00344 -93.545378,172.53782 l 0,0 c 12.071404,19.19577 24.751181,34.58121 33.70067,43.77084 l 0,0 c 22.573848,23.26227 55.089788,43.16248 83.619288,55.1058 l 0,0 c 0.12808,0.064 0.17611,0.11143 0.30418,0.11143 l 0,0 c 70.36316,-60.34101 77.23137,-211.12149 2.88177,-279.03514 l 0,0 c -9.31771,3.55418 -18.33124,6.06772 -26.96053,7.50861" style="fill:url(#linearGradient3004)"/>
</svg>
