<?xml version="1.0" encoding="UTF-8" standalone="no"?>
<svg xmlns="http://www.w3.org/2000/svg" xmlns:xlink="http://www.w3.org/1999/xlink" version="1.1" width="600" height="640.3244">
  <linearGradient x1="0" y1="0" x2="1" y2="0" id="linearGradient800" gradientUnits="userSpaceOnUse" gradientTransform="matrix(34.826172,0,0,-34.826172,345.47656,34.814453)" spreadMethod="pad">
    <stop style="stop-color:#536e78" offset="0"/>
    <stop style="stop-color:#d9eaf3" offset="0.1"/>
    <stop style="stop-color:#536e78" offset="0.2"/>
    <stop style="stop-color:#d9eaf3" offset="0.3"/>
    <stop style="stop-color:#536e78" offset="0.4"/>
    <stop style="stop-color:#d9eaf3" offset="0.5"/>
    <stop style="stop-color:#536e78" offset="0.6"/>
    <stop style="stop-color:#d9eaf3" offset="0.7"/>
    <stop style="stop-color:#536e78" offset="0.8"/>
    <stop style="stop-color:#d9eaf3" offset="0.9"/>
    <stop style="stop-color:#536e78" offset="1"/>
  </linearGradient>
  <linearGradient x1="0" y1="0" x2="1" y2="0" id="linearGradient3001" xlink:href="#linearGradient800" gradientUnits="userSpaceOnUse" gradientTransform="matrix(34.826172,0,0,-34.826172,345.47656,34.814453)" spreadMethod="pad"/>
  <linearGradient x1="0" y1="0" x2="1" y2="0" id="linearGradient3004" xlink:href="#linearGradient800" gradientUnits="userSpaceOnUse" gradientTransform="matrix(557.50122,0,0,557.50122,21.267608,321.25953)" spreadMethod="pad"/>
  <path d="m 0,250.87911 c 0,69.60327 47.223927,136.75729 75.046023,165.45983 22.507404,23.13172 56.396577,45.52707 90.669937,59.83832 24.57245,10.32523 66.22556,43.89424 79.78443,59.27804 39.2839,44.27843 54.53963,104.86913 54.53963,104.86913 0,0 17.00061,-61.90336 54.52363,-104.86913 13.44681,-15.43182 55.21197,-48.95281 79.72039,-59.27804 34.33739,-14.31125 68.22657,-36.7066 90.66994,-59.83832 C 552.85611,387.6364 600,320.48238 600,250.87911 c 0,-93.61543 -60.5907,-127.6967 -60.5907,-127.6967 0,0 -24.0762,42.53355 -70.48371,42.53355 -21.25877,0 -44.58259,-7.94002 -69.21907,-23.70801 C 349.44105,109.99173 327.86212,66.65777 321.79504,53.16293 310.10912,27.02169 299.97599,0 299.97599,0 c 0,0 -8.38825,25.88511 -22.07519,53.89931 -6.88348,14.13516 -28.20629,56.6527 -77.54329,88.10864 -24.70051,15.76799 -47.9603,23.70801 -69.21907,23.70801 -38.211357,0 -70.531733,-42.53355 -70.531733,-42.53355 0,0 -60.606707,35.39393 -60.606707,127.6967"/>
  <path d="m 212.36347,159.52082 c 79.91249,92.60692 69.60327,249.69451 0.81641,320.09819 l 0,0 c 20.57043,14.43931 40.2604,31.584 49.01684,42.70964 l 0,0 c 14.58339,18.5694 26.52544,35.1378 37.84317,64.3526 l 0,0 c 11.2537,-29.2148 23.19575,-45.7832 37.82717,-64.3526 l 0,0 c 8.8845,-11.31774 29.07073,-28.76658 50.02534,-43.39799 l 0,0 C 318.16107,409.02324 307.3556,252.57597 387.63627,159.52082 l 0,0 C 320.48225,116.37896 300.03989,55.83629 300.03989,55.83629 l 0,0 c 0,0 -20.45836,60.54267 -87.67642,103.68453 m 273.57861,25.94915 c -4.88247,53.77124 21.38684,103.17227 74.7899,140.3271 l 0,0 c 10.50132,-22.95563 18.07315,-48.71268 18.07315,-74.91796 l 0,0 c 0,-65.02494 -37.21885,-97.61746 -37.21885,-97.61746 l 0,0 c -14.05513,16.5844 -32.9447,28.27033 -55.6442,32.20832 M 21.274651,250.87911 c 0,26.26931 7.555828,52.09039 18.121182,75.09405 l 0,0 C 91.87042,289.09047 118.63598,238.68093 114.18573,185.46997 l 0,0 C 91.422193,181.59601 72.54863,169.84605 58.477501,153.26165 l 0,0 c 0,0 -37.20285,32.59252 -37.20285,97.61746 M 424.03872,457.54382 c 0.68835,-0.30415 1.3767,-0.62432 2.12908,-0.92847 l 0,0 c 28.51044,-11.94205 61.02292,-31.84013 83.59435,-55.09992 l 0,0 c 8.75644,-8.99655 21.08268,-23.8841 32.89667,-42.51754 l 0,0 C 468.06102,309.16464 438.73416,256.12977 449.8598,185.22985 l 0,0 c -8.56434,-1.44073 -17.5769,-3.954 -26.89363,-7.50781 l 0,0 c -74.78989,68.21056 -70.03548,219.91943 1.07255,279.82178 M 150.13994,185.22985 c 10.94955,70.27561 -20.18622,122.99031 -93.535388,172.51941 l 0,0 c 12.070115,19.19372 24.748539,34.57752 33.697073,43.76617 l 0,0 c 22.571435,23.25979 55.083905,43.15787 83.610365,55.09992 l 0,0 c 0.12806,0.064 0.24012,0.11142 0.30415,0.11142 l 0,0 C 244.57179,396.3922 251.43927,245.62781 177.0976,177.7214 l 0,0 c -9.31672,3.55381 -18.32929,6.06708 -26.95766,7.50781" style="fill:url(#linearGradient3004)"/>
</svg>
