<?xml version="1.0" encoding="UTF-8" standalone="no"?>
<!DOCTYPE svg PUBLIC "-//W3C//DTD SVG 1.1//EN" "http://www.w3.org/Graphics/SVG/1.1/DTD/svg11.dtd">
<svg width="100%" height="100%" viewBox="0 0 1000 1000" version="1.1" xmlns="http://www.w3.org/2000/svg" xmlns:xlink="http://www.w3.org/1999/xlink" xml:space="preserve" xmlns:serif="http://www.serif.com/" style="fill-rule:evenodd;clip-rule:evenodd;stroke-linejoin:round;stroke-miterlimit:2;">
    <g transform="matrix(1,0,0,1,-2138,0)">
        <g id="U" transform="matrix(1,0,0,1,-0.444444,0)">
            <rect x="2138.44" y="0" width="1000" height="1000" style="fill:none;"/>
            <g id="_-" serif:id=" " transform="matrix(0.979797,0,0,0.978763,2157.45,23.0574)">
                <circle cx="490.934" cy="487.172" r="509.066"/>
            </g>
            <g transform="matrix(0.91186,0,0,0.912553,2189.12,56.2058)">
                <circle cx="490.934" cy="487.172" r="509.066" style="fill:url(#_Linear1);"/>
            </g>
            <g transform="matrix(1,0,0,1,2138.44,0)">
                <path d="M240.335,784.908C240.259,784.75 240.507,784.026 246.413,781.123C253.465,777.657 266.375,778.673 266.375,778.673L275.246,770.951C274.286,758.867 292.913,752.79 292.913,752.63C292.913,752.79 309.463,751.73 309.463,751.73C309.463,751.73 311.774,751.643 318.817,742.588C325.86,733.533 331.981,731.353 331.981,731.353C331.981,731.353 339.191,730.43 335.586,727.663C331.981,724.896 334.664,715.506 334.664,715.506C340.449,708.463 346.234,707.708 346.234,707.708C346.234,707.708 372.478,702.174 400.063,715.087C427.648,727.999 431.421,745.187 431.421,745.187L413.897,735.545C413.897,735.545 410.208,732.443 396.877,729.173C383.545,725.903 377.089,727.915 371.472,729.173C365.854,730.43 365.938,732.946 365.938,732.946L367.699,734.874C370.466,737.389 367.699,740.324 367.699,740.324L360.488,746.277C360.488,746.277 359.23,749.547 360.656,750.805C362.081,752.062 364.513,750.385 364.513,750.385L375.329,745.439L381.869,740.995C381.869,740.995 391.427,736.467 400.482,738.815C409.537,741.162 418.967,752.345 418.967,752.345C432.572,768.461 433.497,773.48 433.497,773.48C440.894,801.352 429.796,807.399 429.796,807.399C423.826,772.82 401.014,763.793 401.014,763.793C390.561,766.831 385.468,762.542 385.468,762.542C381.001,771.655 367.6,770.861 367.6,770.861C350,798.567 326.771,776.758 326.771,776.758L325.484,782.638C322.746,787.792 316.072,789.67 316.072,789.67L307.053,790.314C307.053,790.314 298.839,797.401 295.94,798.689C293.041,799.978 289.498,798.689 289.498,798.689L285.787,797.346C277.11,805.566 269.388,807.543 269.388,807.543C267.104,809.137 262.101,807.568 262.101,807.568C254.877,836.021 230.609,819.167 230.609,819.167C203.913,834.623 167.674,825.513 167.674,825.513C21.701,743.549 32.845,508.282 34.14,510.611C35.435,512.94 42.659,517.431 43.657,524.584C44.655,531.737 49.978,525.25 49.978,525.25L58.129,509.779L58.129,490.15C57.797,488.82 60.791,481.001 66.946,483.829C73.101,486.657 78.257,497.47 79.755,500C81.252,502.53 85.909,510.445 90.068,515.102C94.227,519.76 93.728,514.104 93.728,508.282C93.728,502.46 94.06,502.46 90.567,493.81C87.074,485.16 92.896,481.001 97.055,481.999C101.213,482.997 112.359,497.636 113.19,500.776C114.022,503.916 118.514,504.29 119.345,500.776C120.177,497.262 115.852,490.816 115.852,490.816C115.852,490.816 108.699,476.343 106.537,472.517C104.374,468.691 111.194,463.202 114.854,465.198C118.514,467.194 125.334,473.183 127.33,477.674C129.326,482.166 131.655,479.837 131.655,479.837C131.655,479.837 137.477,474.181 140.97,467.194C144.464,460.208 141.802,452.722 141.802,452.722C141.802,452.722 139.64,448.231 134.483,435.073C129.809,423.149 149.288,424.095 149.288,424.095C154.278,423.595 161.265,434.741 161.265,434.741C162.596,438.234 169.749,437.569 168.418,429.917C167.087,422.265 162.596,416.276 162.596,416.276C157.439,406.129 154.278,399.974 154.278,399.974C150.785,394.651 158.104,390.659 168.085,393.819C178.066,396.98 184.337,406.109 184.337,406.109C184.337,406.109 188.791,408.927 191.427,408.654C194.063,408.381 187.791,398.473 187.791,398.473C187.791,398.473 179.883,386.566 177.066,376.86C174.248,367.153 181.429,368.497 185.155,369.133C188.882,369.77 196.427,377.859 196.427,377.859C204.153,380.223 199.335,373.678 199.335,373.678C199.335,373.678 191.336,368.952 192.518,364.589C193.7,360.225 185.792,352.408 185.792,352.408C171.157,338.774 175.702,331.933 175.702,331.933C178.156,323.298 185.883,325.389 194.063,327.752C202.244,330.115 211.606,336.933 213.242,337.66C214.879,338.387 220.241,338.932 220.241,338.932C220.514,339.569 229.877,339.66 226.604,331.661C223.332,323.662 220.423,329.479 218.878,313.572C217.333,297.665 212.879,297.393 205.516,292.03C198.154,286.667 197.245,282.122 201.062,277.85C204.88,273.578 213.242,273.469 223.059,274.923C232.876,276.377 247.965,288.648 247.965,288.648L260.145,288.648C265.326,292.921 275.234,291.466 275.234,291.466C282.688,290.285 281.415,282.649 281.415,282.649C268.326,277.286 269.009,274.033 269.009,274.033L269.009,264.073L255.833,255.838C234.03,249.956 244.383,239.838 244.383,239.838L261.794,229.251C276.695,225.094 287.918,238.674 287.918,238.674C287.918,238.674 298.581,250.552 313.095,254.303C327.609,258.053 320.838,250.24 320.838,250.24L314.136,243.538L314.136,227.844C314.136,227.844 313.65,227.358 303.164,218.191C292.678,209.024 294.969,203.052 300.803,196.385C306.636,189.718 317.609,202.774 317.609,202.774L322.678,204.788C333.234,205.621 345.873,210.413 348.234,214.302C350.595,218.191 356.399,216.217 358.097,214.52C359.794,212.823 365.639,212.257 369.034,212.257C372.428,212.257 376.388,207.92 376.388,207.92C389.21,195.286 399.393,198.585 399.393,198.585L420.033,198.585C436.639,182.248 448.039,185.479 448.039,185.479C448.039,185.479 460.786,186.736 467.249,185.21C473.711,183.684 476.404,180.901 476.404,180.901L489.061,169.412C502.256,157.383 512.579,167.437 512.579,167.437L532.686,187.275C532.686,187.275 548.125,187.185 555.755,189.16C563.385,191.134 567.334,198.315 567.334,198.315C569.578,199.662 569.668,206.753 569.668,206.753C575.951,211.151 573.528,218.063 573.528,218.063C568.411,225.783 572.181,224.167 572.181,224.167C602.342,216.896 609.433,245.082 609.433,245.082L617.422,253.879C626.398,255.943 629.424,261.996 629.424,261.996L640.686,273.283C649.405,266.806 674.842,299.183 674.842,299.183L721.925,326.088L760.788,350.751L780.148,366.82C827.414,383.304 822.796,386.282 841.131,396.374C859.465,406.466 859.633,415.381 859.633,415.381C873.426,424.8 874.771,437.079 874.771,437.079C893.61,453.058 900.503,467.869 900.503,467.869C909.669,482.564 906.837,495.78 906.837,495.78C906.732,495.78 894.908,520.893 878.69,543.39C862.471,565.886 850.543,546.738 850.019,546.738C849.496,546.738 850.019,537.321 850.019,537.321L839.242,527.38C839.87,519.428 837.045,522.881 837.045,522.881C837.045,522.881 836.626,526.962 829.092,527.59C821.558,528.218 822.186,519.847 822.186,519.847C823.442,511.58 820.512,513.882 820.512,513.882C814.025,536.275 804.921,522.986 804.921,522.986C801.887,514.406 800.422,517.335 800.422,517.335C794.876,524.555 785.878,520.474 786.819,514.824C787.761,509.174 784.831,509.592 784.831,509.592C780.018,510.743 774.681,515.243 774.681,515.243L741.407,515.243C720.061,505.407 710.958,504.57 710.958,504.57C703.634,500.07 683.962,497.455 683.962,497.455C683.962,497.455 679.777,494.525 663.767,489.816C647.758,485.107 629.97,471.923 629.97,471.923C605.694,467.947 604.943,463.029 604.943,463.029C591.778,435.929 567.274,450.264 567.274,450.264C535.396,447.223 539.964,441.16 525.838,441.265C512.376,441.365 493.924,456.123 493.924,456.123C508.991,462.611 520.187,476.004 520.187,476.004C520.187,476.004 530.86,487.723 532.953,490.339C535.046,492.955 536.301,501.745 536.301,501.745L544.568,524.241C547.393,538.263 532.953,533.763 532.953,533.763C532.953,533.763 525.838,529.369 523.64,525.183C521.443,520.998 519.978,524.869 519.978,524.869L519.121,527.63C512.01,537.55 515.617,538.149 515.617,538.149C521.93,544.461 521.93,547.735 521.93,547.735L523.099,561.296L525.203,575.558C529.645,575.09 534.789,593.094 542.271,602.68C549.753,612.266 561.209,619.28 561.209,619.28L572.9,630.737L585.258,643.313C593.802,655.169 617.69,675.745 623.967,680.278C630.244,684.812 648.204,694.228 658.143,697.192C668.082,700.156 689.529,709.223 689.529,709.223C721.438,731.891 689.529,738.865 689.529,738.865C677.323,743.573 659.887,743.05 659.887,743.05C659.887,743.05 655.179,747.584 621.875,743.748C588.571,739.912 576.539,724.916 576.539,724.916C574.098,720.383 556.662,706.433 556.662,706.433C542.015,697.541 531.204,683.242 531.204,683.242C520.045,665.98 487.612,648.369 471.222,642.441C454.832,636.512 429.723,620.296 403.568,605.649C377.413,591.003 358.93,570.427 357.709,566.417C356.489,562.406 342.365,510.968 339.227,520.384C336.088,529.8 336.437,536.775 336.437,536.775C336.611,546.365 331.903,546.888 331.903,546.888L331.903,554.909C328.241,557.35 319,590.305 319,590.305C321.79,571.299 324.928,505.04 322.487,519.687C320.232,533.217 316.34,541.986 315.76,543.244C315.865,542.5 315.982,538.803 315.338,521.43C314.466,497.891 310.805,511.491 310.805,511.491C312.2,517.245 304.702,571.822 304.702,571.822C301.563,582.284 291.101,611.752 291.101,611.752C291.101,611.752 298.773,509.573 286.219,549.899C273.665,590.225 246.838,639.47 246.838,639.47C252.217,625.253 259.006,585.803 259.006,585.803C258.493,577.478 255.803,582.852 255.803,582.852C250.552,591.172 244.532,610.518 244.532,610.518L244.532,633.445L242.739,626.913C242.355,622.814 238.128,624.177 238.128,624.177C220.196,635.916 199.831,693.086 199.831,693.086C199.831,693.086 199.703,683.48 200.728,674.514C201.752,665.548 209.181,645.952 213.664,633.912C218.147,621.872 230.187,604.581 230.187,604.581C231.852,602.531 231.211,595.743 231.211,595.743C223.398,583.959 219.94,574.737 219.94,574.737C218.403,566.668 216.738,570.382 216.738,570.382C211.23,592.668 209.181,622.768 209.181,622.768L207.004,630.069C192.402,637.625 177.929,695.263 177.929,695.263L178.441,672.848L178.825,663.626L179.594,652.867C179.594,652.867 184.461,631.606 184.589,621.359C184.717,611.112 182.027,588.698 180.106,584.087C178.185,579.476 175.751,583.19 175.751,583.19C175.751,583.19 177.673,598.048 175.751,610.088C173.83,622.127 168.194,620.718 168.194,620.718C140.272,619.694 144.499,653.764 144.499,653.764C153.977,659.912 166.273,688.859 166.273,688.859C149.11,674.898 141.809,676.307 141.809,676.307C137.198,679.381 138.863,712.81 138.863,712.81L143.859,725.747L150.007,727.284L165.377,741.885C166.786,732.407 173.83,723.185 173.83,723.185C192.146,697.697 195.989,722.929 195.989,722.929L198.55,725.106L202.521,726.643L206.748,727.668L209.822,728.437L214.176,729.333L217.635,728.949C224.295,726.387 235.525,727.72 235.525,727.72C239.495,715.065 257.61,717.464 257.61,717.464C265.137,709.936 272.995,710.267 272.995,710.267C272.912,705.056 286.726,698.681 286.726,698.681C274.732,680.727 287.718,667.167 287.718,667.167C279.86,665.761 277.213,652.609 280.274,642.684C283.334,632.758 293.177,632.51 293.177,632.51C292.268,629.449 292.847,626.471 292.847,626.471C298.058,619.523 312.283,617.088 312.283,617.088C355.142,609.081 371.155,635.456 371.155,635.456C326.726,625.408 321.097,642.295 321.097,642.295C308.942,643.23 311.719,645.876 311.719,645.876C314.444,651.24 310.357,651.496 309.931,656.093C309.505,660.691 316.63,659.995 316.63,659.995C317.379,651.763 329.977,646.447 329.977,646.447C387.103,633.392 402.471,679.415 402.471,679.415C374.6,656.339 347.507,662.702 347.507,662.702C337.612,673.678 332.873,674.925 332.873,674.925C330.794,677.253 328.964,677.669 328.964,677.669C324.724,691.722 321.98,692.137 321.98,692.137C319.402,695.713 312.583,694.05 312.583,694.05C311.087,695.38 311.087,698.124 311.087,698.124C315.577,700.37 313.748,718.497 313.748,718.497C316.242,727.228 307.511,730.011 307.511,730.011C307.761,750.09 285.809,743.648 285.809,743.648C282.316,747.806 271.423,744.957 271.423,744.957C260.78,761.233 244.731,748.283 244.731,748.283C237.248,759.592 220.118,755.018 220.118,755.018L211.221,765.08L210.972,786.699C210.972,786.699 200.136,799.95 212.602,784.889C224.691,770.283 239.453,784.061 240.335,784.908C240.349,784.939 240.376,784.948 240.376,784.948C240.376,784.948 240.362,784.935 240.335,784.908ZM88.271,651.262C88.511,651.593 88.638,651.788 88.638,651.788C88.638,651.788 88.506,651.602 88.271,651.262C87.077,649.615 83.066,644.621 77.803,643.775C71.483,642.76 76.562,656.19 76.562,656.19L78.255,659.801L117.416,698.963L117.416,658.221C114.256,643.775 109.178,649.531 109.178,649.531C109.178,649.531 88.299,626.847 84.236,622.332C80.173,617.818 78.029,623.122 78.029,623.122C78.029,623.122 74.756,625.492 76.9,631.812C78.794,637.393 86.496,648.695 88.271,651.262ZM610.019,323.638L609.998,343.384C609.998,343.384 612.194,344.52 612.795,347.325C613.396,350.129 616.701,351.331 616.701,351.331C616.701,351.331 618.905,351.832 619.305,355.537C620.402,365.678 610.992,369.96 610.992,369.96C610.992,369.96 603.681,373.466 601.878,382.881C600.075,392.295 612.695,398.105 612.695,398.105C622.61,399.407 621.108,411.325 621.108,411.325C636.833,415.933 638.235,427.551 638.235,427.551C641.14,428.352 647.95,434.562 656.564,434.963C665.178,435.363 679.4,421.341 679.4,421.341C679.4,421.341 690.518,412.427 695.125,405.015C699.732,397.604 702.036,390.993 698.931,379.175C695.826,367.356 671.788,349.127 671.788,349.127L656.094,333.761C650.16,322.242 648.764,322.591 645.622,315.261C642.481,307.931 630.962,298.506 630.962,298.506C630.962,298.506 620.141,294.667 615.604,298.157C611.066,301.648 606.528,302.695 606.528,311.77C606.528,320.846 610.019,323.638 610.019,323.638ZM112.426,593.402L113.249,626.995C113.249,626.995 114.567,629.465 113.578,632.43C113.578,632.43 116.707,636.052 118.848,635.888C120.989,635.723 124.118,632.43 124.118,632.43C124.118,632.43 128.235,623.372 129.717,616.621C131.199,609.869 128.564,597.848 128.564,597.848C128.564,597.848 127.246,589.944 119.671,588.626C112.096,587.309 112.426,592.414 112.426,593.402ZM541.018,306.767C544.701,315.361 528.739,321.009 528.739,321.009C527.512,320.027 503.201,335.743 508.603,350.231C514.006,364.72 525.056,368.649 525.056,368.649C525.056,368.649 536.106,377.735 546.42,372.823C556.734,367.912 560.417,359.317 560.417,359.317C564.101,348.267 569.257,343.601 569.257,343.601L580.553,327.394C587.183,311.678 583.254,307.503 581.781,295.225C580.308,282.947 573.186,268.213 569.257,258.882C565.328,249.55 557.716,240.219 542.245,245.621C526.775,251.024 521.127,267.231 525.301,279.755C529.476,292.279 541.018,306.767 541.018,306.767ZM238.106,551.076C238.106,551.076 238.106,559.115 237.191,563.493C236.276,567.872 234.969,573.884 234.969,573.884L235.1,585.844C235.1,585.844 235.23,590.948 239.021,592.706C242.811,594.463 247.386,582.373 249.477,577.471C251.568,572.57 249.543,563.813 249.543,563.813C249.543,563.813 248.628,560.284 251.242,558.519C251.242,558.519 255.097,549.305 246.667,546.364C238.237,543.423 238.106,551.076 238.106,551.076ZM87.889,604.106C87.889,604.106 95.464,612.175 100.075,619.585C100.075,619.585 103.698,621.561 104.851,619.585C104.851,619.585 106.992,618.432 107.486,614.645C107.98,610.857 109.132,601.471 99.252,596.366C99.252,596.366 86.901,592.578 87.889,604.106ZM690.711,438.482C690.711,438.482 706.478,447.416 709.368,447.547C712.259,447.679 741.296,447.679 742.872,447.81C744.449,447.942 759.427,445.445 754.829,431.781C750.23,418.116 733.281,406.685 721.85,408.656C710.419,410.627 700.565,411.941 689.397,421.27C678.229,430.598 690.711,438.482 690.711,438.482Z"/>
            </g>
            <g id="Teeth" transform="matrix(1,0,0,1,2138.44,0)">
                <path d="M546.599,543.05C546.599,543.05 540.087,554.751 533.171,556.478C533.171,556.478 526.604,558.975 534.298,563.801C534.298,563.801 535.557,566.212 543.95,553.412C543.95,553.412 545.191,551.084 546.599,543.05Z"/>
                <path d="M533.529,537.115C533.529,537.115 523.037,547.257 525.135,549.915C527.233,552.573 527.373,552.922 527.373,552.922C527.373,552.922 528.353,554.601 531.22,548.236C531.22,548.236 531.29,543.55 533.529,537.115Z"/>
                <path d="M556.218,551.188C556.218,551.188 552.741,561.365 545.023,565.182C537.305,568.998 536.797,571.627 536.797,571.627C536.797,571.627 534.591,574.765 537.39,576.461C540.189,578.158 543.157,575.783 543.157,575.783C543.157,575.783 545.447,574.426 551.384,567.047C557.321,559.669 556.218,551.188 556.218,551.188Z"/>
                <path d="M568.288,566.571C568.288,566.571 562.112,578.702 551.967,581.128C541.822,583.554 542.925,591.052 542.925,591.052C542.925,591.052 543.255,596.787 551.857,590.832C560.458,584.877 568.288,566.571 568.288,566.571Z"/>
                <path d="M585.711,574.07C585.711,574.07 573.849,594.778 557.481,602.962C556.819,603.293 549.762,607.373 563.215,611.343C576.669,615.313 585.711,574.07 585.711,574.07Z"/>
                <path d="M602.142,583.554C602.142,583.554 586.463,608.933 573.801,618.842C571.265,620.827 576.448,626.781 578.654,626.12C580.859,625.458 591.148,610.717 602.142,583.554Z"/>
                <path d="M614.018,606.345C614.018,606.345 608.82,617.261 588.434,635.017C585.016,637.994 598.69,646.375 602.88,640.2C607.071,634.024 612.805,614.395 614.018,606.345Z"/>
                <path d="M636.404,613.734C636.404,613.734 611.978,644.938 602.142,651.668C602.142,651.668 605.637,661.372 615.782,658.616C625.928,655.859 636.404,613.734 636.404,613.734Z"/>
                <path d="M647.1,619.909C647.1,619.909 627.802,658.622 619.273,663.909C615.893,666.004 625.376,671.077 625.376,671.077C625.376,671.077 632.77,669.052 636.404,656.361C640.038,643.669 643.497,639.22 647.1,619.909Z"/>
                <path d="M673.657,598.438C673.657,598.438 669.067,620.149 663.666,626.171C658.265,632.192 650.839,642.415 650.839,642.415C650.839,642.415 643.953,651.905 641.793,656.766C639.633,661.626 640.848,665.272 640.848,665.272C640.848,665.272 644.493,669.592 650.164,665.542C655.835,661.491 658.265,657.846 658.265,657.846L663.396,649.205L667.041,641.509C667.041,641.509 670.282,640.573 673.657,598.438Z"/>
                <path d="M674.286,655.997C674.286,655.997 672.872,660.795 660.928,667.275C648.985,673.755 649.928,671.869 649.928,671.869C649.928,671.869 638.456,677.055 638.928,680.355C639.399,683.655 643.171,684.598 643.171,684.598L651.971,685.855C651.971,685.855 653.865,686.327 657.082,681.926C660.3,677.526 669.414,672.183 674.286,655.997Z"/>
                <path d="M705.716,629.282C705.716,629.282 694.715,655.997 685.129,662.283C681.074,664.942 679.416,669.516 676.219,673.057C671.857,677.886 666.525,681.739 665.8,684.912C664.543,690.412 668.729,692.256 669.543,692.906C670.357,693.555 673.972,694.341 679.629,690.098C685.286,685.855 688.272,679.255 688.272,679.255C688.272,679.255 699.587,665.445 705.716,629.282Z"/>
                <path d="M710.932,655.331C710.932,655.331 699.997,673.278 698.095,675.893C696.194,678.507 685.997,689.319 685.641,693.422C685.284,697.524 687.993,700.139 687.993,700.139C687.993,700.139 691.439,701.922 695.362,695.979C699.284,690.036 707.723,674.229 710.932,655.331Z"/>
                <path d="M723.887,670.933C723.887,670.933 715.805,682.43 709.743,690.512C703.682,698.594 701.304,703.824 701.304,703.824C701.304,703.824 697.858,715.709 708.911,711.074C708.911,711.074 715.329,708.508 723.887,670.933Z"/>
                <path d="M611.455,479.613C611.455,479.613 610.925,471.759 615.772,472.243C617.877,472.454 617.035,475.086 617.035,475.086C617.035,475.086 614.193,478.981 611.455,479.613Z"/>
                <path d="M617.201,490.036C617.201,490.036 621.248,483.808 621.878,477.192C622.089,474.981 627.037,473.823 626.931,478.35C626.826,482.877 620,488.035 617.201,490.036Z"/>
                <path d="M622.067,500.669C622.067,500.669 629.071,491.288 631.564,482.64C632.406,479.718 638.512,480.034 636.512,485.93C634.511,491.825 624.678,500.458 622.067,500.669Z"/>
                <path d="M631.564,510.67C631.564,510.67 636.286,507.971 643.671,490.036C645.145,486.456 648.935,488.562 648.935,492.984C648.935,497.405 640.828,508.775 631.564,510.67Z"/>
                <path d="M636.912,531.2C636.912,531.2 648.312,515.447 654.304,499.446C655.778,495.51 662.095,490.698 662.305,500C662.516,509.302 646.998,524.252 636.912,531.2Z"/>
                <path d="M647.671,553.203C647.671,553.203 667.265,522.954 670.833,502.775C671.78,497.416 681.466,500.153 681.466,504.891C681.466,509.628 669.043,540.582 647.671,553.203Z"/>
                <path d="M663.893,553.938C663.893,553.938 678.175,538.755 689.574,512.094C690.988,508.788 696.929,506.298 703.239,512.919C705.477,515.267 702.532,522.217 699.823,524.809C697.113,527.401 688.396,539.362 663.893,553.938Z"/>
                <path d="M687.1,560.739C687.1,560.739 701.204,545.946 713.017,517.152C714.902,512.558 727.035,513.382 726.329,519.861C725.622,526.34 707.716,548.149 687.1,560.739Z"/>
                <path d="M712.781,563.08C712.781,563.08 721.961,540.446 734.104,521.142C738.227,514.588 746.944,521.303 746.826,523.423C746.709,525.544 750.161,523.536 712.781,563.08Z"/>
                <path d="M727.081,572.95C727.081,572.95 729.521,570.684 735.447,557.612C741.373,544.54 749.042,531.348 749.042,531.348C749.042,531.348 754.648,522.202 753.573,536.174C752.876,545.237 746.865,552.383 746.865,552.383L738.933,560.739C738.933,560.739 729.869,572.079 727.081,572.95Z"/>
                <path d="M742.973,574.479C742.973,574.479 753.386,563.754 755.593,550.679C756.149,547.385 755.835,530.873 763.521,526.167C771.207,521.461 772.462,526.638 773.403,531.971C774.344,537.304 760.384,572.283 742.973,574.479Z"/>
                <path d="M760.541,570.557C760.541,570.557 763.88,561.663 767.128,558.218C770.579,554.558 773.716,547.499 776.069,539.5C778.422,531.5 783.128,529.304 785.637,531.029C788.147,532.755 785.794,539.343 784.069,542.637C782.343,545.931 778.265,553.93 775.285,556.597C772.305,559.264 759.913,571.028 760.541,570.557Z"/>
                <path d="M764.787,579.373C764.787,579.373 775.53,571.017 782.958,555.897C790.385,540.777 792.905,536.003 792.905,536.003C792.905,536.003 798.741,523.138 807.892,533.615C807.892,533.615 814.258,540.91 802.322,553.775C790.385,566.64 789.854,565.049 789.854,565.049C789.854,565.049 766.909,579.638 764.787,579.373Z"/>
                <path d="M799.96,569.51C799.96,569.51 810.487,553.448 811.681,545.96C812.875,538.471 821.448,535.216 821.448,535.216C821.448,535.216 829.154,532.937 826.549,543.247C823.944,553.556 806.906,565.06 799.96,569.51Z"/>
                <path d="M814.757,567.544C814.757,567.544 824.539,557.681 825.949,554.735C827.36,551.788 831.65,542.053 837.836,538.471C837.836,538.471 846.113,537.125 839.758,547.424C836.611,552.525 832.626,555.401 832.626,555.401C832.626,555.401 816.71,569.715 814.757,567.544Z"/>
                <path d="M807.552,584.097C807.552,584.097 821.274,576.53 835.601,560.185C835.601,560.185 845.177,546.302 848.285,550.993C851.392,555.685 853.399,557.939 851.209,562.631C850.356,564.458 841.643,570.612 841.643,570.612C841.643,570.612 818.914,583.325 807.552,584.097Z"/>
            </g>
        </g>
    </g>
    <defs>
        <linearGradient id="_Linear1" x1="0" y1="0" x2="1" y2="0" gradientUnits="userSpaceOnUse" gradientTransform="matrix(780.831,876.798,-878.132,780.831,127.899,50.931)"><stop offset="0" style="stop-color:rgb(98,110,119);stop-opacity:1"/><stop offset="0.04" style="stop-color:rgb(105,119,128);stop-opacity:1"/><stop offset="0.11" style="stop-color:rgb(125,142,152);stop-opacity:1"/><stop offset="0.2" style="stop-color:rgb(158,180,192);stop-opacity:1"/><stop offset="0.2" style="stop-color:rgb(161,183,195);stop-opacity:1"/><stop offset="0.29" style="stop-color:rgb(173,198,212);stop-opacity:1"/><stop offset="0.38" style="stop-color:rgb(181,206,222);stop-opacity:1"/><stop offset="0.5" style="stop-color:rgb(183,209,225);stop-opacity:1"/><stop offset="0.62" style="stop-color:rgb(181,206,222);stop-opacity:1"/><stop offset="0.71" style="stop-color:rgb(173,198,212);stop-opacity:1"/><stop offset="0.8" style="stop-color:rgb(161,183,195);stop-opacity:1"/><stop offset="0.8" style="stop-color:rgb(160,182,194);stop-opacity:1"/><stop offset="0.85" style="stop-color:rgb(139,157,168);stop-opacity:1"/><stop offset="0.91" style="stop-color:rgb(116,131,141);stop-opacity:1"/><stop offset="0.96" style="stop-color:rgb(103,116,125);stop-opacity:1"/><stop offset="1" style="stop-color:rgb(98,110,119);stop-opacity:1"/></linearGradient>
    </defs>
</svg>
