<?xml version="1.0" encoding="UTF-8" standalone="no"?>
<svg
   xmlns:dc="http://purl.org/dc/elements/1.1/"
   xmlns:cc="http://creativecommons.org/ns#"
   xmlns:rdf="http://www.w3.org/1999/02/22-rdf-syntax-ns#"
   xmlns:svg="http://www.w3.org/2000/svg"
   xmlns="http://www.w3.org/2000/svg"
   xmlns:xlink="http://www.w3.org/1999/xlink"
   height="462.10181"
   width="456.76178"
   version="1.1">
  <defs>
    <linearGradient id="g1">
      <stop offset="0"    style="stop-color:#536e78" />
      <stop offset="0.13" style="stop-color:#829ba5" />
      <stop offset="0.37" style="stop-color:#d9eaf3" />
      <stop offset="0.63" style="stop-color:#d9eaf3" />
      <stop offset="0.87" style="stop-color:#829ba5" />
      <stop offset="1"    style="stop-color:#536e78" />
    </linearGradient>
    <linearGradient
       gradientTransform="translate(-704.61914,-122.08875)"
       gradientUnits="userSpaceOnUse"
       y2="369.89084"
       x2="1071.8278"
       y1="336.38916"
       x1="794.17212"
       id="g2"
       xlink:href="#g1" />
    <linearGradient
       gradientTransform="translate(-704.61914,-122.08875)"
       gradientUnits="userSpaceOnUse"
       y2="378.91122"
       x2="1146.587"
       y1="327.3688"
       x1="719.41302"
       id="g3"
       xlink:href="#g1" />
  </defs>
  <path
     d="M 255.73867,4.3155355 A 228.38089,228.38089 0 0 0 177.38886,8.6565558 L 106.01201,0.04428553 c -3.30578,-0.39887 -6.289462,1.94055997 -6.688342,5.24634027 L 94.366648,46.373516 A 228.38089,228.38089 0 0 0 1.6445177,203.69406 228.38089,228.38089 0 0 0 201.02305,457.78821 a 228.38089,228.38089 0 0 0 78.35003,-4.34296 l 71.37688,8.61227 c 3.3057,0.39887 6.2895,-1.94056 6.6883,-5.24635 l 4.9571,-41.08289 A 228.38089,228.38089 0 0 0 455.11726,258.40968 228.38089,228.38089 0 0 0 255.73867,4.3155355 Z"
     style="fill:#000000" />
  <path
     d="m 308.26756,33.231556 -2.541,21.06836 c 78.0056,34.12513 124.4337,115.335034 114.2656,199.869144 -2.3851,18.6576 -8.3192,40.10389 -17.0527,58.78516 -5.3656,11.47701 -16.85,8.79885 -12.0918,-0.90039 8.9682,-18.28072 14.5742,-37.37529 17.7266,-59.26172 C 422.03166,141.25926 302.23386,83.248836 296.23436,132.9718 l -3.90819,32.38476 92.87109,11.20508 c 3.3057,0.39887 5.647,3.38366 5.2481,6.68945 l -25.545,211.71875 c 41.8914,-34.79668 68.9094,-84.27962 75.5293,-138.33398 11.4388,-95.76565 -42.7216,-187.316734 -132.1621,-223.404304 z M 91.861327,67.131946 C 49.969917,101.92862 22.952077,151.41159 16.332027,205.46594 4.8933175,301.23159 59.053707,392.78266 148.49414,428.87023 l 2.54102,-21.06836 C 73.029507,373.67675 26.601347,292.46683 36.769527,207.93273 c 2.38511,-18.6576 8.31917,-40.10389 17.05274,-58.78515 5.36555,-11.47701 16.85006,-8.79885 12.09179,0.90039 -8.96818,18.28072 -14.57421,37.37529 -17.72656,59.26172 C 34.730037,320.84254 154.52781,378.85296 160.52734,329.13 l 3.90821,-32.38477 -92.871103,-11.20507 c -3.30578,-0.39888 -5.64688,-3.38367 -5.24804,-6.68946 z"
     style="fill:url(#g3)" />
  <path
     d="m 193.25977,78.475696 c -29.4771,-0.42667 -56.49261,30.684484 -61.48047,72.021494 -4.74211,39.67153 12.50031,75.63081 40.18945,83.81836 l 9.20703,-76.31446 c 0.39888,-3.30579 3.38171,-5.64691 6.6875,-5.24804 l 57.03125,6.88281 c 3.32096,-41.74313 -17.41259,-77.211194 -47.27148,-80.865234 -1.45928,-0.17609 -2.91359,-0.27394 -4.36328,-0.29493 z m 91.5332,149.310554 -9.20703,76.31445 c -0.39888,3.30579 -3.38171,5.64693 -6.6875,5.24805 l -57.03125,-6.88281 c -3.32096,41.74314 17.4126,77.21118 47.27148,80.86523 31.13136,3.75634 60.61059,-28.3566 65.84379,-71.72656 4.7424,-39.6715 -12.5003,-75.63081 -40.18949,-83.81836 z"
     style="fill:#d9eaf3" />
  <path
     id="path1103"
     d="m 113.40625,16.612416 -30.945313,256.474614 179.892583,21.70703 1.91406,-15.86719 7.05078,-58.44335 c 0.52197,-4.32597 3.88613,-7.58143 8,-8.15039 0.14925,0.013 0.29815,0.0287 0.44727,0.043 1.80975,0.25583 3.60684,0.60349 5.38671,1.04297 l 0.004,-0.0312 c 0.10518,0.0307 0.20941,0.0623 0.31445,0.0937 0.34208,0.0628 0.6844,0.12783 1.02539,0.19727 l -0.0117,0.10156 c 35.41058,8.93117 58.07118,51.96383 52.39648,99.5 -6.1594,51.04628 -42.6123,88.63178 -81.41992,83.94922 -37.47521,-4.54932 -63.66951,-46.9868 -59.53125,-96.44531 l -19.34375,-2.33399 -15.12305,125.33399 179.89257,21.70507 30.9453,-256.4746 -179.89256,-21.70704 -1.91406,15.86719 -7.05078,58.44336 c -0.52197,4.32598 -3.88612,7.58144 -8,8.15039 -0.14925,-0.013 -0.29815,-0.0287 -0.44727,-0.043 -1.80975,-0.25584 -3.60684,-0.60349 -5.38671,-1.04297 l -0.004,0.0312 c -0.10519,-0.0307 -0.20941,-0.0623 -0.31445,-0.0937 -0.34207,-0.0628 -0.6844,-0.12781 -1.02539,-0.19726 l 0.0137,-0.10156 c -35.41054,-8.93117 -58.07314,-51.96383 -52.39844,-99.5 6.15941,-51.04627 42.61231,-88.631784 81.41992,-83.949224 37.47522,4.54933 63.66951,46.986804 59.53125,96.445314 l 19.34375,2.33398 15.12305,-125.333984 z"
     style="fill:url(#g2)" />
</svg>
