<?xml version="1.0" encoding="UTF-8" standalone="no"?>
<svg
   version="1.1"
   id="Layer_1"
   x="0px"
   y="0px"
   width="1013.5"
   height="1024"
   sodipodi:docname="R.svg"
   inkscape:version="1.1.1 (3bf5ae0d25, 2021-09-20)"
   xmlns:inkscape="http://www.inkscape.org/namespaces/inkscape"
   xmlns:sodipodi="http://sodipodi.sourceforge.net/DTD/sodipodi-0.dtd"
   xmlns="http://www.w3.org/2000/svg"
   xmlns:svg="http://www.w3.org/2000/svg">
  <defs
     id="defs22" />
  <sodipodi:namedview
     id="namedview20"
     pagecolor="#ffffff"
     bordercolor="#666666"
     borderopacity="1.0"
     inkscape:pageshadow="2"
     inkscape:pageopacity="0.0"
     inkscape:pagecheckerboard="0"
     showgrid="false"
     inkscape:zoom="14.38"
     inkscape:cx="24.757"
     inkscape:cy="24.965"
     inkscape:window-width="1920"
     inkscape:window-height="986"
     inkscape:window-x="-11"
     inkscape:window-y="-11"
     inkscape:window-maximized="1"
     inkscape:current-layer="Layer_1" />
  <g
     id="g17"
     transform="scale(20.484)">
    <path
       d="M 43.796,8.481 C 40.182,4.119 35.147,1.106 29.622,0 l -2.551,1.105 1.232,1.967 c 1.653,1.164 2.64,3.063 2.64,5.078 0,1.657 -0.646,3.216 -1.817,4.388 -1.171,1.172 -2.73,1.817 -4.388,1.817 -1.658,0 -3.216,-0.646 -4.388,-1.817 -1.172,-1.171 -1.817,-2.73 -1.817,-4.388 0,-2.016 0.987,-3.914 2.641,-5.077 L 22.406,1.105 19.854,0 C 14.329,1.106 9.296,4.119 5.681,8.481 2.018,12.902 0,18.504 0,24.256 v 0.01 0 l 1.799,2.294 1.426,-1.517 c 1.074,-2.063 3.184,-3.346 5.506,-3.346 3.422,0 6.205,2.784 6.205,6.206 0,1.802 -0.784,3.514 -2.151,4.695 l -1.253,1.083 1.042,1.286 10.837,13.383 1.327,1.64 1.328,-1.64 10.838,-13.384 1.041,-1.286 -1.252,-1.082 c -1.368,-1.182 -2.152,-2.894 -2.152,-4.696 0,-3.421 2.784,-6.205 6.205,-6.205 2.322,0 4.433,1.282 5.507,3.346 l 1.426,1.516 1.799,-2.294 v 0 -0.01 c 0,-5.751 -2.018,-11.353 -5.682,-15.774 z"
       id="path2" />
    <linearGradient
       id="SVGID_2_"
       gradientUnits="userSpaceOnUse"
       x1="15.278"
       y1="99.15"
       x2="52.049"
       y2="112.53"
       gradientTransform="matrix(1,0,0,-1,-8.3599,129.05)">
      <stop
         style="stop-color:#8b723c"
         offset="0"
         id="stop4" />
      <stop
         style="stop-color:#d2bb7b"
         offset="0.3"
         id="stop6" />
      <stop
         style="stop-color:#ebd491"
         offset="0.5"
         id="stop8" />
      <stop
         style="stop-color:#d2bb7b"
         offset="0.7"
         id="stop10" />
      <stop
         style="stop-color:#8b723c"
         offset="1"
         id="stop12" />
    </linearGradient>
    <path
       fill="url(#SVGID_2_)"
       d="m 40.746,19.639 c -4.562,0 -8.273,3.712 -8.273,8.274 0,2.287 0.946,4.465 2.609,6.027 L 24.738,46.713 14.396,33.94 c 1.662,-1.563 2.608,-3.74 2.608,-6.027 0,-4.563 -3.711,-8.274 -8.273,-8.274 -2.642,0 -5.078,1.244 -6.625,3.318 C 2.663,13.232 9.447,4.89 18.828,2.364 c -1.5,1.533 -2.363,3.608 -2.363,5.786 0,2.21 0.86,4.287 2.423,5.851 1.563,1.563 3.641,2.423 5.851,2.423 2.21,0 4.288,-0.86 5.851,-2.423 1.563,-1.563 2.424,-3.641 2.424,-5.851 0,-2.178 -0.864,-4.253 -2.363,-5.786 9.38,2.525 16.164,10.868 16.722,20.593 -1.549,-2.074 -3.984,-3.318 -6.627,-3.318 z"
       id="path15"
       style="fill:url(#SVGID_2_)" />
  </g>
</svg>
