<?xml version="1.0" encoding="UTF-8" standalone="no"?>
<svg xmlns="http://www.w3.org/2000/svg" version="1.1" width="600" height="503.19702">
  <path d="m 171.37655,0 c 0,0 -31.6459,3.342 -31.6459,36.15692 L 22.141579,68.98558 c 0,0 -29.4454004,11.27755 -20.4233604,49.74499 L 99.007699,481.74383 c 0,0 20.368351,27.17614 44.106211,20.3546 l 156.93671,-43.1435 156.86794,43.1435 c 23.73786,6.82154 44.10621,-20.3546 44.10621,-20.3546 L 598.25924,118.73057 C 607.33629,80.26313 577.95965,68.98558 577.95965,68.98558 L 460.35683,36.15692 C 460.35683,3.342 428.65592,0 428.65592,0 L 171.37655,0 z"/>
  <path d="m 172.39428,13.54681 c -1.44408,0.26076 -5.9551,1.27904 -10.25982,4.12593 -6.01011,4.02966 -8.857,9.88848 -8.857,18.48418 l 0,10.31483 c 0,0 -124.809451,34.80911 -126.624861,35.30422 -3.23198,1.49909 -13.06545,7.41293 -13.06545,23.03646 0,3.17696 0.4401,6.72527 1.40282,10.69991 0.16503,0.70086 94.813921,354.14251 96.381771,359.8363 4.13969,4.73107 16.48998,16.97133 28.04259,13.69809 l 160.63629,-44.21624 160.62254,44.21624 c 11.5526,3.27324 23.86164,-8.96702 27.98757,-13.69809 1.56785,-5.69379 96.27175,-359.13489 96.43679,-359.8363 0.922,-3.97464 1.3478,-7.52295 1.3478,-10.69991 0,-15.62353 -9.77846,-21.53737 -13.0517,-23.03646 C 571.56446,81.28086 446.75501,46.47175 446.75501,46.47175 l 0,-10.31483 c 0,-8.5957 -2.84689,-14.45452 -8.80199,-18.48418 -4.30472,-2.84689 -8.87075,-3.86462 -10.31483,-4.12593 l -255.24391,0 z" style="fill:#808080"/>
  <path d="m 449.50563,64.41955 0,349.09512 c 0,0 -3.01193,22.61011 -21.11102,22.61011 l -98.0459,0 131.19089,36.21193 c 0,0 7.57796,3.7546 11.27755,-4.51102 l 96.54681,-358.17217 c 0,0 3.7546,-11.27755 -5.26744,-14.28948 L 449.50563,64.41955 z M 35.935949,96.12046 c -9.02204,2.99818 -5.21243,14.28948 -5.21243,14.28948 l 96.436791,358.17217 c 3.82336,8.26562 11.33256,4.51102 11.33256,4.51102 l 131.20464,-36.15692 -98.00464,0 c -18.1541,0 -21.11102,-22.67887 -21.11102,-22.67887 l 0,-349.08137 -114.645901,30.94449 z m 138.026181,-65.60232 252.54831,0 c 5.26744,0 6.06512,6.76653 6.06512,6.76653 l 0,375.47358 c 0,6.02386 -6.06512,7.57796 -6.06512,7.57796 l -252.54831,0 c -5.32245,0 -5.32245,-7.57796 -5.32245,-7.57796 l 0,-375.47358 c 0,-4.51102 5.32245,-6.76653 5.32245,-6.76653"/>
  <path d="m 319.4425,197.05452 c 33.25501,-16.97134 49.91002,-36.30821 49.91002,-57.91434 0,-12.07523 -4.30472,-22.01872 -12.90041,-29.76172 -8.59569,-7.78426 -19.07556,-11.64888 -31.42585,-11.64888 -12.8454,0 -23.58658,4.08467 -32.07225,12.24026 -8.59569,8.16935 -12.79039,17.35642 -12.79039,27.50622 0,7.04159 1.9942,13.80811 6.02386,20.31334 4.08468,6.4502 13.6981,18.00281 28.89528,34.49279 l 4.35974,4.77233 z m -21.27606,29.01905 c -22.29379,9.72345 -39.00381,20.29959 -50.13008,31.6459 -11.16752,11.38757 -16.75128,23.79288 -16.75128,37.22966 0,14.39951 5.58376,26.26844 16.75128,35.77183 11.18128,9.40713 24.65933,14.1382 40.40663,14.1382 15.47225,0 28.35891,-4.67606 38.61873,-14.02817 10.25982,-9.35211 15.41723,-20.40961 15.41723,-33.14499 0,-18.5942 -14.77084,-42.4971 -44.31251,-71.61243 m -12.51533,-13.64308 c -24.45302,-23.97167 -36.69329,-45.50903 -36.69329,-64.58459 0,-17.98907 7.83927,-33.35129 23.47656,-45.97664 15.67854,-12.68036 34.1077,-19.02055 55.38376,-19.02055 20.73968,0 37.71102,5.58377 50.87274,16.65502 13.10671,11.16752 19.72196,25.19569 19.72196,42.27705 0,13.64308 -4.73107,25.56702 -14.17945,35.82684 -9.46214,10.25982 -26.91484,21.22105 -52.4406,32.82867 28.799,29.28036 43.19851,53.82966 43.19851,73.75791 0,19.66695 -7.85303,37.17465 -23.58658,52.55062 -15.6923,15.30721 -37.28468,22.9952 -64.62585,22.9952 -26.81856,0 -47.76454,-7.20663 -62.75543,-21.60613 -14.99089,-14.3995 -22.51384,-29.81674 -22.51384,-46.2517 0,-16.06363 7.46794,-31.05452 22.3488,-45.01392 14.89462,-13.91814 35.52428,-25.41574 61.79271,-34.43778" style="fill:#808080"/>
</svg>
