<?xml version="1.0" encoding="UTF-8" standalone="no"?>
<svg xmlns="http://www.w3.org/2000/svg" version="1.1" width="600" height="503.21094">
  <linearGradient x1="0" y1="0" x2="1" y2="0" id="linearGradient668" gradientUnits="userSpaceOnUse" gradientTransform="matrix(29.487869,-29.487869,-29.487869,-29.487869,203.64258,162.37695)" spreadMethod="pad">
    <stop style="stop-color:#8b723c" offset="0"/>
    <stop style="stop-color:#d2bb7b" offset="0.3"/>
    <stop style="stop-color:#ebd491" offset="0.5"/>
    <stop style="stop-color:#d2bb7b" offset="0.7"/>
    <stop style="stop-color:#8b723c" offset="1"/>
  </linearGradient>
  <path d="m 171.38442,0 c 0,0 -31.64674,3.38335 -31.64674,36.15788 L 22.076726,68.98741 c 0,0 -29.37741,11.27785 -20.35514,49.74631 l 97.29206,363.02288 c 0,0 20.368894,27.17686 44.107384,20.41015 l 156.88585,-43.19966 156.92711,43.19966 c 23.73849,6.76671 44.10738,-20.41015 44.10738,-20.41015 L 598.27842,118.73372 C 607.30069,80.26526 577.92328,68.98741 577.92328,68.98741 L 460.31734,36.15788 C 460.31734,3.38335 428.61559,0 428.61559,0 L 171.38442,0 z" fill="#ffffff"/>
  <path d="m 172.40217,13.54717 c -1.44411,0.26186 -6.01026,1.27907 -10.26009,4.12604 -6.06528,4.02977 -8.85723,9.88875 -8.85723,18.48467 l 0,10.3151 c 0,0 -124.812754,34.81004 -126.641974,35.30516 -3.27332,1.49913 -13.05204,7.46814 -13.05204,23.03706 0,3.17706 0.44011,6.72545 1.34784,10.70021 0.16504,0.70197 94.871454,354.15189 96.384334,359.84582 4.18105,4.7312 16.49041,16.97179 28.04333,13.69846 l 160.64054,-44.21741 160.62679,44.21741 c 11.60793,3.27333 23.86228,-8.96726 28.04333,-13.69846 1.5679,-5.69393 96.21929,-359.1444 96.38433,-359.84582 0.96274,-3.97476 1.34784,-7.52315 1.34784,-10.70021 0,-15.56892 -9.77872,-21.53793 -13.01078,-23.03706 C 571.58293,81.28302 446.71516,46.47298 446.71516,46.47298 l 0,-10.3151 c 0,-8.59592 -2.79195,-14.4549 -8.80222,-18.48467 -4.30484,-2.84697 -8.81598,-3.86473 -10.3151,-4.12604 l -255.19567,0 z"/>
  <g transform="matrix(13.753487,0,0,-13.753487,-2703.5761,2266.6433)">
    <path d="m 209.219,162.586 c 0,0 -0.383,-0.164 -0.383,-0.492 l 0,0 0,-27.301 c 0,0 0,-0.551 0.383,-0.551 l 0,0 18.367,0 c 0,0 0.437,0.113 0.437,0.551 l 0,0 0,27.301 c 0,0 -0.054,0.492 -0.437,0.492 l 0,0 -18.367,0 z m 20.035,-27.848 c 0,0 -0.219,-1.644 -1.535,-1.644 l 0,0 -7.125,0 9.535,-2.633 c 0,0 0.551,-0.273 0.824,0.328 l 0,0 7.02,26.043 c 0,0 0.269,0.82 -0.387,1.039 l 0,0 -8.332,2.25 0,-25.383 z m -30.066,23.078 c -0.661,-0.218 -0.383,-1.039 -0.383,-1.039 l 0,0 7.015,-26.039 c 0.274,-0.605 0.821,-0.332 0.821,-0.332 l 0,0 9.539,2.629 -7.125,0 c -1.317,0 -1.535,1.649 -1.535,1.649 l 0,0 0,25.382 -8.332,-2.25 z" style="fill:url(#linearGradient668)"/>
  </g>
  <path d="m 319.45397,197.05996 c 33.25594,-16.9718 49.91141,-36.3092 49.91141,-57.91593 0,-12.07556 -4.30484,-22.01933 -12.95579,-29.76255 -8.59593,-7.78447 -19.06233,-11.6492 -31.3717,-11.6492 -12.88702,0 -23.58723,4.08479 -32.12814,12.2406 -8.54092,8.16957 -12.79075,17.3569 -12.79075,27.50698 0,7.04178 1.99426,13.8085 6.07904,20.3139 4.02978,6.45038 13.64346,18.00331 28.84107,34.49374 l 4.41486,4.77246 z m -21.27664,29.01986 c -22.34942,9.72371 -39.0599,20.30014 -50.18647,31.64677 -11.16783,11.38789 -16.75175,23.79353 -16.75175,37.23069 0,14.3999 5.58392,26.26916 16.80676,35.77282 11.12657,9.40738 24.60499,14.13858 40.40775,14.13858 15.47267,0 28.30467,-4.67618 38.57853,-14.02855 10.2601,-9.35237 15.41765,-20.41018 15.41765,-33.14591 0,-18.59471 -14.78499,-42.49827 -44.27247,-71.6144 m -12.57069,-13.64346 c -24.4537,-23.97233 -36.63928,-45.51029 -36.63928,-64.58638 0,-17.98956 7.78447,-33.3522 23.4772,-45.9779 15.63771,-12.68072 34.10864,-19.02107 55.38529,-19.02107 20.74026,0 37.65704,5.58391 50.81914,16.65547 13.16208,11.16783 19.7225,25.19639 19.7225,42.27822 0,13.64346 -4.7312,25.56773 -14.17985,35.82783 -9.4624,10.2601 -26.91558,21.22163 -52.38703,32.82957 28.7998,29.28118 43.1997,53.83115 43.1997,73.75995 0,19.66749 -7.83949,37.17568 -23.58723,52.55207 -15.74774,15.30764 -37.2857,22.99583 -64.62764,22.99583 -26.86056,0 -47.76586,-7.20682 -62.75716,-21.60672 -15.03256,-14.3999 -22.5007,-29.81756 -22.5007,-46.25298 0,-16.06407 7.41313,-31.05537 22.2944,-45.01516 14.88127,-13.91853 35.5115,-25.41644 61.78066,-34.43873"/>
</svg>
