<?xml version="1.0" encoding="UTF-8" standalone="no"?>
<svg xmlns="http://www.w3.org/2000/svg" version="1.1" width="600" height="503.20746">
  <linearGradient x1="0" y1="0" x2="1" y2="0" id="linearGradient646" gradientUnits="userSpaceOnUse" gradientTransform="matrix(29.487183,-29.487183,-29.487183,-29.487183,119.96094,162.37695)" spreadMethod="pad">
    <stop style="stop-color:#536e78" offset="0"/>
    <stop style="stop-color:#99aebc" offset="0.3"/>
    <stop style="stop-color:#d9eaf3" offset="0.5"/>
    <stop style="stop-color:#99aebc" offset="0.7"/>
    <stop style="stop-color:#536e78" offset="1"/>
  </linearGradient>
  <path d="m 171.38442,0 c 0,0 -31.64674,3.38335 -31.64674,36.15788 L 22.076726,68.98741 c 0,0 -29.37741,11.27785 -20.35514,49.74631 l 97.29206,363.02288 c 0,0 20.368894,27.17686 44.107384,20.41015 l 156.88585,-43.19966 156.92711,43.19966 c 23.73849,6.76671 44.10738,-20.41015 44.10738,-20.41015 L 598.27842,118.73372 C 607.30069,80.26526 577.92328,68.98741 577.92328,68.98741 L 460.31734,36.15788 C 460.31734,3.38335 428.61559,0 428.61559,0 L 171.38442,0 z" fill="#ffffff"/>
  <path d="m 172.40217,13.54717 c -1.44411,0.26186 -6.01026,1.27907 -10.26009,4.12604 -6.06528,4.02977 -8.85723,9.88875 -8.85723,18.48467 l 0,10.3151 c 0,0 -124.812754,34.81004 -126.641974,35.30516 -3.27332,1.49913 -13.05204,7.46814 -13.05204,23.03706 0,3.17706 0.44011,6.72545 1.34784,10.70021 0.16504,0.70197 94.871454,354.15189 96.384334,359.84582 4.18105,4.7312 16.49041,16.97179 28.04333,13.69846 l 160.64054,-44.21741 160.62679,44.21741 c 11.60793,3.27333 23.86228,-8.96726 28.04333,-13.69846 1.5679,-5.69393 96.21929,-359.1444 96.38433,-359.84582 0.96274,-3.97476 1.34784,-7.52315 1.34784,-10.70021 0,-15.56892 -9.77872,-21.53793 -13.01078,-23.03706 C 571.58293,81.28302 446.71516,46.47298 446.71516,46.47298 l 0,-10.3151 c 0,-8.59592 -2.79195,-14.4549 -8.80222,-18.48467 -4.30484,-2.84697 -8.81598,-3.86473 -10.3151,-4.12604 l -255.19567,0 z"/>
  <g transform="matrix(13.753392,0,0,-13.753392,-1552.6277,2266.6278)">
    <path d="m 125.535,162.586 c 0,0 -0.383,-0.164 -0.383,-0.492 l 0,0 0,-27.301 c 0,0 0,-0.551 0.383,-0.551 l 0,0 18.367,0 c 0,0 0.438,0.113 0.438,0.551 l 0,0 0,27.301 c 0,0 -0.055,0.492 -0.438,0.492 l 0,0 -18.367,0 z m 20.035,-27.848 c 0,0 -0.215,-1.644 -1.535,-1.644 l 0,0 -7.125,0 9.539,-2.633 c 0,0 0.547,-0.273 0.821,0.328 l 0,0 7.019,26.043 c 0,0 0.273,0.82 -0.387,1.039 l 0,0 -8.332,2.25 0,-25.383 z m -30.066,23.078 c -0.656,-0.218 -0.383,-1.039 -0.383,-1.039 l 0,0 7.016,-26.039 c 0.273,-0.605 0.824,-0.332 0.824,-0.332 l 0,0 9.539,2.629 -7.129,0 c -1.316,0 -1.531,1.649 -1.531,1.649 l 0,0 0,25.382 -8.336,-2.25 z" style="fill:url(#linearGradient646)"/>
  </g>
  <path d="m 319.44282,197.05861 c 33.2557,-16.97169 49.91106,-36.30896 49.91106,-57.91554 0,-12.07548 -4.29106,-22.01918 -12.88693,-29.76234 -8.65088,-7.78442 -19.07595,-11.64912 -31.44025,-11.64912 -12.88693,0 -23.57332,4.08476 -32.11417,12.24052 -8.55461,8.16951 -12.79066,17.35678 -12.79066,27.50678 0,7.04174 2.0355,13.80841 6.06525,20.31376 4.08475,6.45034 13.69838,18.00319 28.90963,34.49351 l 4.34607,4.77243 z m -21.2765,29.01965 c -22.29425,9.72365 -39.00462,20.30001 -50.17237,31.64656 -11.18151,11.38781 -16.71037,23.79337 -16.71037,37.23043 0,14.3998 5.58387,26.26898 16.76538,35.77257 11.16775,9.40732 24.65983,14.13849 40.39371,14.13849 15.47257,0 28.37325,-4.67615 38.63328,-14.02846 10.26003,-9.35231 15.36254,-20.41003 15.36254,-33.14567 0,-18.59459 -14.77114,-42.49799 -44.27217,-71.61392 M 285.65073,212.4349 c -24.43977,-23.97216 -36.69405,-45.50998 -36.69405,-64.58593 0,-17.98944 7.83944,-33.35198 23.47704,-45.97759 15.69262,-12.68063 34.12217,-19.02094 55.39867,-19.02094 20.72636,0 37.7118,5.58388 50.87379,16.65536 13.10698,11.16775 19.6536,25.19621 19.6536,42.27792 0,13.64337 -4.71742,25.56756 -14.12474,35.82759 -9.44858,10.26003 -26.91538,21.22148 -52.42792,32.82935 28.78585,29.28097 43.18564,53.83077 43.18564,73.75944 0,19.66735 -7.83942,37.17542 -23.58706,52.55171 -15.73388,15.30752 -37.28544,22.99567 -64.62719,22.99567 -26.80536,0 -47.75177,-7.20678 -62.74297,-21.60658 -14.9912,-14.3998 -22.5143,-29.81735 -22.5143,-46.25266 0,-16.06396 7.46809,-31.05516 22.34926,-45.01485 14.88117,-13.91843 35.45624,-25.41627 61.78023,-34.43849"/>
</svg>
