<?xml version="1.0" encoding="UTF-8" standalone="no"?>
<svg xmlns="http://www.w3.org/2000/svg" version="1.1" width="600" height="503.19702">
  <path d="M 171.37695 0 C 171.37695 0 139.73047 3.34133 139.73047 36.15625 L 22.140625 68.986328 C 22.140625 68.986328 -7.30329 80.263029 1.71875 118.73047 L 99.007812 481.74414 C 99.007812 481.74414 119.37542 508.9192 143.11328 502.09766 L 300.05078 458.95508 L 456.91797 502.09766 C 480.65583 508.9192 501.02539 481.74414 501.02539 481.74414 L 598.25977 118.73047 C 607.33682 80.263029 577.95898 68.986328 577.95898 68.986328 L 460.35742 36.15625 C 460.35742 3.34133 428.65625 0 428.65625 0 L 171.37695 0 z M 172.39453 13.546875 L 427.63867 13.546875 C 429.08275 13.808185 433.64841 14.824985 437.95312 17.671875 C 443.90823 21.701535 446.75586 27.56055 446.75586 36.15625 L 446.75586 46.472656 C 446.75586 46.472656 571.56537 81.280281 573.39453 81.775391 C 576.66777 83.274481 586.44531 89.18897 586.44531 104.8125 C 586.44531 107.98946 586.01966 111.53708 585.09766 115.51172 C 584.93262 116.21313 490.22801 469.65582 488.66016 475.34961 C 484.53423 480.08068 472.22643 492.32011 460.67383 489.04688 L 300.05078 444.83008 L 139.41406 489.04688 C 127.86145 492.32011 115.51078 480.08068 111.37109 475.34961 C 109.80324 469.65582 15.155264 116.21258 14.990234 115.51172 C 14.027514 111.53708 13.587891 107.98946 13.587891 104.8125 C 13.587891 89.18897 23.420364 83.274481 26.652344 81.775391 C 28.467754 81.280281 153.27734 46.472656 153.27734 46.472656 L 153.27734 36.15625 C 153.27734 27.56055 156.12466 21.701535 162.13477 17.671875 C 166.43949 14.824985 170.95045 13.807635 172.39453 13.546875 z M 173.96289 30.517578 C 173.96289 30.517578 168.64062 32.774136 168.64062 37.285156 L 168.64062 412.75781 C 168.64062 412.75781 168.64044 420.33594 173.96289 420.33594 L 426.50977 420.33594 C 426.50977 420.33594 432.57617 418.78167 432.57617 412.75781 L 432.57617 37.285156 C 432.57617 37.285156 431.77721 30.517578 426.50977 30.517578 L 173.96289 30.517578 z M 449.50586 64.419922 L 449.50586 413.51562 C 449.50586 413.51563 446.49362 436.125 428.39453 436.125 L 330.34961 436.125 L 461.53906 472.33594 C 461.53906 472.33594 469.11682 476.09179 472.81641 467.82617 L 569.36328 109.6543 C 569.36328 109.6543 573.11774 98.375211 564.0957 95.363281 L 449.50586 64.419922 z M 150.58203 65.175781 L 35.935547 96.121094 C 26.913507 99.119274 30.722656 110.41016 30.722656 110.41016 L 127.16016 468.58203 C 130.98352 476.84765 138.49219 473.09375 138.49219 473.09375 L 269.69727 436.93555 L 171.69336 436.93555 C 153.53926 436.93555 150.58203 414.25781 150.58203 414.25781 L 150.58203 65.175781 z M 327.81836 82.849609 C 348.55804 82.849609 365.52969 88.432656 378.69141 99.503906 C 391.79812 110.67143 398.41211 124.69989 398.41211 141.78125 C 398.41211 155.42433 393.6808 167.3476 384.23242 177.60742 C 374.77028 187.86724 357.31873 198.82793 331.79297 210.43555 C 360.59197 239.71591 374.99219 264.26511 374.99219 284.19336 C 374.99219 303.86031 367.13785 321.36817 351.4043 336.74414 C 335.712 352.05135 314.12047 359.74023 286.7793 359.74023 C 259.96074 359.74023 239.01433 352.53427 224.02344 338.13477 C 209.03255 323.73527 201.50977 308.31777 201.50977 291.88281 C 201.50977 275.81918 208.97852 260.82854 223.85938 246.86914 C 238.754 232.951 259.38196 221.45173 285.65039 212.42969 C 261.19737 188.45802 248.95703 166.92126 248.95703 147.8457 C 248.95703 129.85663 256.7963 114.49449 272.43359 101.86914 C 288.11213 89.188783 306.5423 82.849609 327.81836 82.849609 z M 325.02539 97.730469 C 312.17999 97.730469 301.43881 101.81511 292.95312 109.9707 C 284.35744 118.14005 280.16406 127.32676 280.16406 137.47656 C 280.16406 144.51815 282.15784 151.28383 286.1875 157.78906 C 290.27218 164.23926 299.88485 175.79127 315.08203 192.28125 L 319.44336 197.05469 C 352.69837 180.08335 369.35156 160.74676 369.35156 139.14062 C 369.35156 127.06539 365.04686 117.12191 356.45117 109.37891 C 347.85548 101.59465 337.37568 97.730469 325.02539 97.730469 z M 298.16602 226.07422 C 275.87223 235.79767 259.16338 246.37244 248.03711 257.71875 C 236.86959 269.10632 231.28516 281.51244 231.28516 294.94922 C 231.28516 309.34873 236.86959 321.21731 248.03711 330.7207 C 259.21839 340.12783 272.69606 344.85935 288.44336 344.85938 C 303.91561 344.85937 316.80268 340.18219 327.0625 330.83008 C 337.32232 321.47797 342.47852 310.42093 342.47852 297.68555 C 342.47852 279.09135 327.70769 255.18955 298.16602 226.07422 z "/>
</svg>
