<?xml version="1.0" encoding="UTF-8" standalone="no"?>
<svg
   xmlns:dc="http://purl.org/dc/elements/1.1/"
   xmlns:cc="http://creativecommons.org/ns#"
   xmlns:rdf="http://www.w3.org/1999/02/22-rdf-syntax-ns#"
   xmlns:svg="http://www.w3.org/2000/svg"
   xmlns="http://www.w3.org/2000/svg"
   xmlns:sodipodi="http://sodipodi.sourceforge.net/DTD/sodipodi-0.dtd"
   xmlns:inkscape="http://www.inkscape.org/namespaces/inkscape"
   sodipodi:docname="80.svg"
   inkscape:version="1.0 (4035a4fb49, 2020-05-01)"
   id="svg8"
   version="1.1"
   viewBox="0 0 65.19912 70.36141"
   height="70.361412mm"
   width="65.19912mm">
  <defs
     id="defs2" />
  <sodipodi:namedview
     inkscape:window-maximized="1"
     inkscape:window-y="-6"
     inkscape:window-x="-6"
     inkscape:window-height="1018"
     inkscape:window-width="1920"
     showgrid="false"
     inkscape:document-rotation="0"
     inkscape:current-layer="layer2"
     inkscape:document-units="mm"
     inkscape:cy="138.74072"
     inkscape:cx="139.09475"
     inkscape:zoom="2.7489713"
     inkscape:pageshadow="2"
     inkscape:pageopacity="0.0"
     borderopacity="1.0"
     bordercolor="#666666"
     pagecolor="#ffffff"
     id="base" />
  <metadata
     id="metadata5">
    <rdf:RDF>
      <cc:Work
         rdf:about="">
        <dc:format>image/svg+xml</dc:format>
        <dc:type
           rdf:resource="http://purl.org/dc/dcmitype/StillImage" />
        <dc:title></dc:title>
      </cc:Work>
    </rdf:RDF>
  </metadata>
  <g
     transform="translate(-96.100592,-13.879957)"
     sodipodi:insensitive="true"
     style="display:inline"
     inkscape:label="Layer 2"
     id="layer2"
     inkscape:groupmode="layer">
    <path
       transform="scale(0.26458333)"
       inkscape:label="Background"
       sodipodi:nodetypes="cscsscccccccccsscscc"
       d="m 432.14258,61.697266 c 0.83239,2.386635 1.86284,4.871768 2.69336,7.36914 0.83052,2.497372 1.46109,5.006985 1.49414,7.445313 6e-4,9.696512 -7.86013,17.557318 -17.55664,17.55664 -5.94091,-4.16e-4 -10.9133,-3.422582 -14.7168,-7.986328 L 397.5,78.214844 c -17.11252,17.944958 -24.92667,41.012126 -34.28516,63.927736 l 24.4336,40.125 V 235 c 21.67006,42.07936 55.31104,65.81171 98.77734,83.39258 C 528.63516,301.6342 566.44081,274.78623 585.20312,235 v -52.73242 l 24.4336,-40.125 c -9.44818,-23.1452 -17.74827,-45.730776 -34.28516,-63.927736 l -6.55664,7.867187 c -3.80349,4.563746 -8.77587,7.985913 -14.7168,7.986328 -9.69649,6.81e-4 -17.55724,-7.86013 -17.55664,-17.55664 0.033,-2.438328 0.66363,-4.947941 1.49414,-7.445313 0.83052,-2.497372 1.861,-4.982505 2.69336,-7.36914 -36.12063,-13.035953 -72.72384,-11.575994 -108.5664,0 z"
       style="display:inline;opacity:1;fill:#808080;fill-opacity:1;stroke:none;stroke-width:1.00157;stroke-linecap:butt;stroke-linejoin:miter;stroke-miterlimit:4;stroke-dasharray:none;stroke-opacity:1"
       id="path848" />
    <path
       transform="scale(0.26458333)"
       sodipodi:nodetypes="ccccccccccccccccccccccccccccscccsccccscccsccccccccccc"
       d="m 444.50195,68.324219 c 2.22474,8.665221 0.19239,19.506064 -6.9414,26.222656 -11.7146,12.440865 -29.93968,9.919535 -40.08594,-1.623047 l -0.0644,0.0332 C 386.8958,107.65225 380.34483,125.39521 374.08403,141.29883 l 22.97461,38.16601 v 53.61328 c 15.80094,29.18721 48.9902,61.08849 89.36714,75.16016 40.37692,-14.07167 73.56628,-45.97295 89.36724,-75.16016 v -53.61328 l 22.97461,-38.16601 C 592.5068,125.39521 585.95588,107.65225 575.44146,92.957028 l -0.0645,-0.0332 c -10.14625,11.542582 -28.37136,14.063912 -40.08593,1.623047 -7.13379,-6.716591 -9.16615,-17.557435 -6.94141,-26.222656 -12.84809,-3.630951 -27.50138,-6.717359 -41.92384,-6.717359 -14.42245,0 -29.07573,3.086407 -41.92383,6.717359 z m 36.92383,5.341797 c 0.82467,38.019494 0.24025,74.820834 0.60938,112.693364 -14.70983,1.49734 -25.31404,14.53641 -25.31446,29.32226 -2e-5,13.37966 9.53088,25.37272 22.55664,28.42969 -6.05756,9.54919 -9.54882,17.59721 -12.7207,24.65625 -1.47504,3.32618 -0.68963,6.65214 0.79492,9.41015 -12.15068,1.63931 -31.83321,-11.45319 -38.33398,-20.98242 11.80342,-1.33372 26.22123,-10.04916 33.34961,-23.26562 -28.92735,10.26248 -33.7815,10.71947 -36.78321,14.88672 -9.4037,-6.95146 -16.90492,-27.9922 -18.99218,-41.36524 11.05146,6.75817 24.64653,10.45281 48.24218,11.32422 -2.10434,-1.17472 -14.7178,-8.89201 -25.29882,-15.08789 -10.58103,-6.19589 -16.49564,-11.8627 -22.45704,-6.29688 -2.55511,-20.92361 2.06522,-38.46613 16.34376,-56.1875 6.81688,16.71533 20.26484,41.64019 35.51757,60.10352 -0.9712,-14.11527 -1.88,-31.8172 -3.91601,-44.67187 -2.03601,-12.85466 -3.88868,-28.26017 -13.50782,-32.71485 8.80921,-26.824318 19.73265,-35.652653 39.91016,-50.253904 z m 10,0 c 20.1775,14.601251 31.10095,23.429588 39.91016,50.253904 -9.61913,4.45468 -11.47182,19.86018 -13.50782,32.71485 -2.03602,12.85466 -2.94482,30.5566 -3.91601,44.67187 15.2527,-18.46333 28.70071,-43.38819 35.51758,-60.10352 14.27856,17.72137 18.89886,35.26388 16.34375,56.1875 -5.96141,-5.56583 -11.87598,0.10099 -22.45703,6.29688 -10.58102,6.19588 -23.1945,13.91317 -25.29883,15.08789 23.59563,-0.87141 37.19073,-4.56605 48.24219,-11.32422 -2.08725,13.37304 -9.5885,34.41378 -18.99219,41.36524 -3.0017,-4.16725 -7.85584,-4.62424 -36.7832,-14.88672 7.12836,13.21646 21.54622,21.9319 33.3496,23.26562 -6.50075,9.52923 -26.18329,22.62173 -38.33398,20.98242 1.48456,-2.758 2.27,-6.08397 0.79492,-9.41015 -3.17185,-7.05904 -6.66314,-15.10706 -12.7207,-24.65625 13.02576,-3.05697 22.55668,-15.05003 22.55664,-28.42969 -4.2e-4,-14.78585 -10.60465,-27.82491 -25.31445,-29.32226 0.36899,-37.87253 -0.21532,-74.67387 0.60937,-112.693364 z"
       inkscape:label="Emblem.C"
       style="display:inline;opacity:1;fill:#000000;fill-opacity:1;stroke:none;stroke-width:1.00157;stroke-linecap:butt;stroke-linejoin:miter;stroke-miterlimit:4;stroke-dasharray:none;stroke-opacity:1"
       id="path875" />
    <path
       transform="scale(0.26458333)"
       inkscape:label="Inside"
       d="M 476.17578,84.474609 C 462.87275,93.205794 454.64282,104.354 448,121.66406 c 11.88411,9.62048 14.30148,46.88804 15.71875,67.01367 4.13073,-3.45266 8.48682,-5.90859 13.71875,-7.17773 z m 20.5,0 L 495.41406,181.5 c 5.23193,1.26914 9.58803,3.72508 13.71875,7.17773 1.41729,-20.12562 3.83467,-57.39319 15.71875,-67.01367 C 518.20874,104.354 509.97881,93.205794 496.67578,84.474609 Z m -74.55469,67.662111 c -7.34864,11.34096 -9.77109,24.26551 -10,37.83984 8.76873,0.65312 24.28194,11.27071 38.95118,19.99219 0.39741,-2.4458 1.05275,-4.84264 1.95507,-7.15039 -12.3727,-15.73824 -22.18333,-32.68711 -30.90625,-50.68164 z m 128.60938,0 c -8.72292,17.99453 -18.53355,34.9434 -30.90625,50.68164 0.90232,2.30775 1.55766,4.70459 1.95508,7.15039 14.66925,-8.72148 30.18244,-19.33907 38.95117,-19.99219 -0.22889,-13.57433 -2.65135,-26.49888 -10,-37.83984 z M 415.62305,218.2793 c 1.87339,9.02709 5.26639,16.52948 10.03906,23.57812 9.07756,-5.31754 16.81501,-6.86081 28.67383,-10.8457 -1.16236,-2.37708 -1.75917,-4.61823 -2.35938,-7.19531 -13.01021,0.45323 -24.47752,-1.44082 -36.35351,-5.53711 z m 141.60547,0 c -11.876,4.09629 -23.34329,5.99034 -36.35352,5.53711 -0.60019,2.57707 -1.19702,4.81823 -2.35938,7.19531 11.8588,3.98489 19.59624,5.52816 28.67383,10.8457 4.77264,-7.04864 8.1657,-14.55103 10.03907,-23.57812 z m -93.31836,24.0332 c -6.64089,8.57289 -14.41556,13.64151 -23.79883,18.04688 5.61971,5.79554 12.90674,10.64334 20.83008,11.63671 -0.28645,-8.41182 5.9622,-15.99038 9.99023,-24.88476 -2.80866,-1.29208 -5.8343,-3.80881 -7.02148,-4.79883 z m 45.03125,0 c -1.18719,0.99002 -4.21281,3.50675 -7.02149,4.79883 4.02803,8.89438 10.27672,16.47295 9.99024,24.88476 7.92332,-0.99337 15.21037,-5.84117 20.83007,-11.63671 -9.38324,-4.40538 -17.15793,-9.47399 -23.79882,-18.04688 z"
       style="display:inline;opacity:1;fill:#ffffff;fill-opacity:1;stroke:none;stroke-width:0.999999px;stroke-linecap:butt;stroke-linejoin:miter;stroke-opacity:1"
       id="path1004" />
  </g>
</svg>
