<?xml version="1.0" encoding="UTF-8" standalone="no"?>
<svg xmlns="http://www.w3.org/2000/svg" version="1.1" width="600" height="600">
  <path d="M 300,600 C 134.60571,600 0,465.40286 0,299.97429 0,134.57143 134.60571,0 300,0 465.40286,0 600,134.57143 600,299.97429 600,465.40286 465.40286,600 300,600" style="fill:#ffffff"/>
  <path d="M 576.70286,299.97429 C 576.70286,452.78571 452.82,576.66857 300,576.66857 147.18857,576.66857 23.305714,452.78571 23.305714,299.97429 23.305714,147.15429 147.18857,23.27143 300,23.27143 c 152.82,0 276.70286,123.88286 276.70286,276.70286"/>
  <path d="m 309.3125,32.59375 c -21.42857,0 -42.23375,2.69589 -62.09375,7.71875 l 37.21875,103.28125 c 6.6,-0.96857 13.3616,-1.46875 20.21875,-1.46875 18.98571,0 37.06,3.81822 53.5,10.8125 L 407.6875,52.40625 c -30.23143,-12.72857 -63.48071,-19.8125 -98.375,-19.8125 z m 0,5 c 32.3296,0 63.16574,6.260972 91.46875,17.46875 l -45.15625,91.625 c -15.84773,-6.10862 -33.00178,-9.5625 -50.96875,-9.5625 -5.69901,0 -11.30352,0.41171 -16.84375,1.0625 L 253.875,43.96875 c 17.82961,-4.087295 36.35983,-6.375 55.4375,-6.375 z M 233.75,44.0625 C 192.06714,57.09108 155.04768,80.6 125.65625,111.5 l 84.21875,68.59375 c 16.77428,-16.00286 37.55321,-27.79893 60.6875,-33.6875 L 233.75,44.0625 z m -3.03125,6.375 33.3125,92.65625 c -20.40528,6.05714 -38.85968,16.57671 -54.3125,30.4375 L 133.125,111.15625 C 160.20779,83.878549 193.47727,62.883469 230.71875,50.4375 z m 189.6875,7.78125 -49.6875,100.8125 c 22.07142,12.08571 40.37733,30.08393 52.96875,51.8125 l 97.90625,-63.1875 c -24.94286,-38.20286 -59.89893,-69.2775 -101.1875,-89.4375 z m 2.21875,6.84375 c 37.02787,19.018555 68.59848,47.04172 91.90625,81.21875 l -89.3125,57.625 C 413.16775,184.75599 396.76019,168.65886 377.25,157.09375 L 422.625,65.0625 z M 116.3125,121.90625 C 90.701069,151.97482 72.092857,188.03554 62.75,227.78125 l 108.21875,19.8125 c 5.11715,-21.52286 15.32143,-41.07821 29.25,-57.3125 l -83.90625,-68.375 z m 0.75,7.0625 76.25,62.15625 c -11.80214,14.80484 -20.82291,31.92363 -25.96875,50.71875 l -98.375,-18 c 9.096504,-35.30791 25.683123,-67.49156 48.09375,-94.875 z m 411.84375,30.625 -98.8125,63.75 c 7.74,17.21143 12.03125,36.22714 12.03125,56.25 0,7.36285 -0.58212,14.62768 -1.6875,21.65625 l 120.90625,11.28125 c 0.9,-8.7 1.375,-17.55697 1.375,-26.53125 0,-46.07143 -12.32393,-89.20625 -33.8125,-126.40625 z m -1.84375,7.125 c 19.47014,35.40936 30.65625,75.97742 30.65625,119.28125 0,7.11921 -0.38463,14.14268 -0.96875,21.09375 L 446,296.75 c 0.67339,-5.63107 1.125,-11.34516 1.125,-17.15625 0,-19.21483 -3.964,-37.50086 -10.90625,-54.28125 l 90.84375,-58.59375 z m -467.15625,74.75 c -2.545714,14.46857 -3.9375,29.32553 -3.9375,44.53125 0,31.77428 5.8825,62.20178 16.5625,90.1875 L 174.90625,325 c -4.98857,-14.22857 -7.71875,-29.47197 -7.71875,-45.40625 0,-6.16286 0.4409,-12.25858 1.28125,-18.25 l -108.5625,-19.875 z m 4.28125,5.84375 98.84375,18.09375 c -0.49337,4.68677 -0.84375,9.40227 -0.84375,14.1875 0,14.94835 2.44079,29.28051 6.71875,42.8125 L 75.4375,369.125 C 66.186296,343.14311 60.96875,315.19767 60.96875,286 c 0,-13.18409 1.242218,-26.04962 3.21875,-38.6875 z M 437.5,315 c -5.85429,22.10572 -17.09018,41.98446 -32.21875,58.21875 l 88.25,86.6875 c 34.11428,-36.09428 57.73465,-82.20857 65.9375,-133.5 L 437.5,315 z m 3.625,5.34375 112.375,10.5 c -8.45916,46.42847 -29.81022,88.26766 -60.25,121.8125 l -81.09375,-79.6875 c 13.12497,-15.08147 23.11512,-32.94643 28.96875,-52.625 z M 180.21875,337.96875 77.875,389.125 c 21.771429,48.81428 58.47803,89.4109 104.34375,116.09375 L 235,398.09375 c -23.80286,-14.03143 -42.96125,-34.97643 -54.78125,-60.125 z m -2.1875,6.6875 c 11.64532,22.61945 29.12159,41.65284 50.5,55.21875 L 180.1875,498 C 138.7388,472.66858 105.34352,435.64367 84.5625,391.375 l 93.46875,-46.71875 z m 217.1875,38.3125 c -18.42,16.14 -41.1725,27.44607 -66.3125,31.9375 L 344.5625,536.9375 c 53.53714,-7.46572 101.69661,-31.665 139.09375,-67.125 l -88.4375,-86.84375 z m -0.3125,6.6875 81.40625,79.9375 c -34.89861,31.74795 -78.76411,53.68672 -127.4375,61.5 l -14.40625,-112.25 c 22.61574,-4.83461 43.19909,-15.04326 60.4375,-29.1875 z m -147.5,14.90625 L 194.5,511.875 c 34.48285,17.54572 73.46393,27.53125 114.8125,27.53125 7.2,0 14.3066,-0.36909 21.34375,-0.96875 l -15.625,-121.78125 c -3.41143,0.23109 -6.88643,0.4375 -10.375,0.4375 -20.41715,0 -39.80714,-4.53411 -57.25,-12.53125 z m 2.46875,6.34375 c 16.88977,7.06058 35.35558,11.1875 54.78125,11.1875 2.06326,0 4.00704,-0.14955 6,-0.25 L 325,533.6875 c -5.21289,0.35073 -10.4128,0.71875 -15.6875,0.71875 -38.7847,0 -75.36019,-9.0385 -108.0625,-24.875 l 48.625,-98.625 z" style="fill:#ffffff"/>
  <path d="m 401.88857,369.91714 c 14.4,-15.47143 25.11429,-34.38857 30.84,-55.34571 l -27.12,-2.51143 c -4.72286,14.66571 -12.55714,27.98571 -22.76571,39.13714 l 19.04571,18.72 z M 403.26,240.64286 c 4.75714,12.08571 7.44,25.20857 7.44,38.94 0,6.39428 -0.60891,12.61714 -1.71429,18.71143 l 26.75143,2.51142 c 1.10572,-6.92571 1.71429,-13.99714 1.74857,-21.22285 -0.0343,-19.08857 -4.12285,-37.23429 -11.39142,-53.64 l -22.83429,14.7 z m -30.53143,120.23143 c -13.49143,11.31428 -29.87143,19.35428 -47.81143,22.76571 l 3.37715,26.58857 c 24.07714,-4.35428 45.87428,-15.17143 63.54857,-30.57428 l -19.11429,-18.78 z M 237.09429,393.85714 248.94,369.78 C 231.3,358.90286 217.10571,342.89143 208.36286,323.91429 l -23.94,11.98285 c 11.34857,24.17143 29.80285,44.4 52.67143,57.96 M 201.93429,253.26 c 4.14857,-16.16571 12.05142,-30.86571 22.67142,-43.12286 L 203.88,193.26 c -13.43143,15.64286 -23.27143,34.45714 -28.29429,55.18286 L 201.93429,253.26 z M 234.48,200.16 c 13.12286,-11.58857 29.16,-19.98857 46.84286,-23.97429 L 272.17714,150.84 c -22.32857,5.65714 -42.38571,16.94571 -58.62,32.28 L 234.48,200.16 z m 51.56571,-52.02857 9.33429,25.87714 c 3.05143,-0.26606 6.16286,-0.43748 9.27429,-0.43748 13.99714,0 27.36,2.75142 39.58285,7.67142 l 11.84572,-24.07714 c -15.83143,-6.66 -33.18,-10.34571 -51.42857,-10.40571 -6.32572,0.0343 -12.51429,0.49714 -18.60858,1.37143 M 368.64,163.25966 356.79429,187.3368 c 16.93714,9.54 30.93428,23.60571 40.40571,40.57714 l 22.5,-14.49428 c -12.12,-21.02572 -29.76,-38.43429 -51.06,-50.16 m -165.3,147.52285 c -3.04286,-9.84 -4.68857,-20.32285 -4.68857,-31.2 0,-4.25142 0.27428,-8.44285 0.77143,-12.55714 L 173.04,262.19966 c -0.77143,5.69143 -1.17429,11.52 -1.17429,17.38285 0,15.16286 2.58,29.72572 7.30286,43.28572 L 203.34,310.78251 z m 101.31429,101.62286 c -19.71429,-0.0343 -38.4,-4.38857 -55.17429,-12.05143 l 11.82,-24.00857 c 13.26,5.92286 27.92571,9.27429 43.35429,9.27429 2.14285,0 4.26,-0.10286 6.36857,-0.20572 l 3.41143,26.55429 c -3.24858,0.26606 -6.49715,0.43748 -9.78,0.43748" style="fill:#ffffff"/>
  <path d="m 478.22571,375.13714 c -11.04857,10.31143 -30.72857,10.34572 -42.21428,9.34286 -1.07143,1.37143 -2.17714,2.74286 -3.31714,4.08857 l 59.52857,54.73714 c 0,0 -4.65429,-20.39142 5.82857,-35.55428 10.48286,-15.13714 34.95428,-36.09429 34.95428,-36.09429 l -15.13714,-18.68571 c 0,0 -23.29714,7.00286 -39.64286,22.16571" style="fill:#ffffff"/>
  <path d="M 472.26857,286.38 506.22,273.78857 521.65714,297.66 l 30.86572,3.21429 c 0,0 -10.77429,-44.56286 -38.13429,-66.72858 L 509.7,249.30857 c 0,0 -28.72286,-2.44286 -43.22571,-13.35428 3.85714,14.09142 5.96571,28.89428 5.96571,44.22857 0,2.07428 -0.10286,4.11428 -0.17143,6.19714" style="fill:#ffffff"/>
  <path d="m 444.28286,187.14 63.11143,-42.69429 c 0,0 -27.96,-20.95714 -59.43429,-22.13142 l -3.51429,17.47714 -11.61428,-10.48286 -30.90857,14.20286 c 16.61143,11.85428 30.96857,26.64857 42.36,43.62857" style="fill:#ffffff"/>
  <path d="M 362.68286,122.71714 394.65429,55.92 c 0,0 -35.22,-1.17429 -56.21143,1.14 -20.95715,2.37429 -31.44,24.47143 -31.44,24.47143 l 20.95714,-3.48 c 0,0 -17.10857,24.41143 -24.54,34.38857 l 1.20857,0 c 20.45143,0 39.97714,3.61714 58.05429,10.27714" style="fill:#ffffff"/>
  <path d="m 227.48571,56.18571 c 0,0 -34.65428,12.55715 -48.65142,59.16858 l 32.60571,1.13142 0.36891,23.94 c 12.46286,-8.23714 26.04858,-14.86285 40.48286,-19.62 l -24.80571,-64.62 z" style="fill:#ffffff"/>
  <path d="m 128.74286,202.70571 c -22.13143,3.48 -39.608574,1.77429 -47.777146,19.55143 l 62.477146,11.55429 c 5.76,-20.02286 15.10285,-38.53714 27.35143,-54.71143 -6.99429,6.26571 -24.77143,20.86286 -42.05143,23.60571" style="fill:#ffffff"/>
</svg>
