<?xml version="1.0" encoding="utf-8"?>
<!-- Generator: Adobe Illustrator 15.1.0, SVG Export Plug-In . SVG Version: 6.00 Build 0)  -->
<!DOCTYPE svg PUBLIC "-//W3C//DTD SVG 1.1//EN" "http://www.w3.org/Graphics/SVG/1.1/DTD/svg11.dtd">
<svg version="1.1" id="Layer_1" xmlns="http://www.w3.org/2000/svg" xmlns:xlink="http://www.w3.org/1999/xlink" x="0px" y="0px"
	 width="140px" height="156px" viewBox="0 0 140 156" enable-background="new 0 0 140 156" xml:space="preserve">
<g>
	<g>
		<path fill="#5D5E61" d="M124.078,42.378c-0.358,0-1.388-0.03-2.733-0.254c-0.63-1.19-1.004-2.779-1.004-4.897
			c0-6.466,4.344-10.405,4.344-10.405c-3.869-3.14-8.047-6.029-11.958-8.519c2.086-2.931,4.359-4.721,4.359-4.721L96.932,2.958
			c0,0-7.402,8.004-26.696,8.004c-19.294,0-26.697-8.004-26.697-8.004L23.386,13.582c0,0,2.273,1.79,4.359,4.721
			c-3.911,2.489-8.089,5.379-11.958,8.519c0,0,4.343,3.939,4.343,10.405c0,2.118-0.374,3.707-1.003,4.897
			c-1.347,0.224-2.375,0.254-2.734,0.254c-6.516,0-13.172-3.575-13.172-3.575l16.554,64.486l3.206,0.458
			c0.52,0.074,1.086,0.208,1.686,0.384c1.806,7.787,2.77,12.327,2.77,12.327c23.704,10.506,42.798,36.5,42.798,36.5
			s19.094-25.994,42.798-36.5c0,0,0.964-4.54,2.77-12.327c0.601-0.176,1.167-0.31,1.687-0.384l3.207-0.458l16.554-64.486
			C137.251,38.803,130.594,42.378,124.078,42.378z"/>
	</g>
	<path d="M62.554,107.135l3.738,19.938c-9.068-7.887-31.499-26.535-42.625-28.125l-13.536-52.73c0,0,3.031,1.01,6.263,1.01
		c4.95,0,19.597-2.626,19.597-19.395c0-7.273-4.95-12.829-4.95-12.829l11.92-6.264c0,0,7.658,6.23,23.976,6.994l-4.303,18.641
		c-16.863,3.519-29.573,18.495-29.573,36.39C33.062,88.629,45.73,103.586,62.554,107.135z M91.247,70.764
		c0-8.722-5.345-16.216-12.931-19.391v38.781C85.902,86.98,91.247,79.486,91.247,70.764z M49.224,70.764
		c0,8.723,5.345,16.217,12.93,19.391V51.373C54.569,54.548,49.224,62.042,49.224,70.764z M130.341,46.217c0,0-3.03,1.01-6.263,1.01
		c-4.95,0-19.598-2.626-19.598-19.395c0-7.273,4.95-12.829,4.95-12.829l-11.92-6.264c0,0-7.659,6.23-23.976,6.994l4.303,18.641
		c16.863,3.519,29.572,18.495,29.572,36.39c0,17.865-12.668,32.822-29.492,36.371l-3.738,19.938
		c9.068-7.887,31.499-26.535,42.625-28.125L130.341,46.217z"/>
	<g>
		<path fill="#FFFFFF" d="M104.178,70.764c0-17.096-12.649-31.198-29.094-33.557v-0.385l-4.848-21.012l-4.849,21.012v0.385
			c-16.444,2.358-29.093,16.461-29.093,33.557s12.649,31.198,29.093,33.557v0.385l4.849,25.86l4.848-25.86v-0.385
			C91.528,101.962,104.178,87.859,104.178,70.764z M45.992,70.764c0-11.708,8.342-21.502,19.396-23.755v47.51
			C54.333,92.266,45.992,82.473,45.992,70.764z M75.084,94.519v-47.51c11.055,2.253,19.396,12.047,19.396,23.755
			C94.479,82.473,86.139,92.266,75.084,94.519z"/>
	</g>
</g>
</svg>
