<?xml version="1.0" encoding="utf-8"?>
<!-- Generator: Adobe Illustrator 15.1.0, SVG Export Plug-In . SVG Version: 6.00 Build 0)  -->
<!DOCTYPE svg PUBLIC "-//W3C//DTD SVG 1.1//EN" "http://www.w3.org/Graphics/SVG/1.1/DTD/svg11.dtd">
<svg version="1.1" id="Layer_1" xmlns="http://www.w3.org/2000/svg" xmlns:xlink="http://www.w3.org/1999/xlink" x="0px" y="0px"
	 width="140px" height="156px" viewBox="0 0 140 156" enable-background="new 0 0 140 156" xml:space="preserve">
<g id="Layer_1_1_">
</g>
<g id="Layer_3" display="none">
</g>
<g>
	<path fill="#FFFFFF" d="M70.237,152.604c22.695-31.724,44.632-39.181,44.632-39.181s1.57-9.302,5.119-23.022l13.873-54.033
		c0,0-7.801,2.85-10.047,3.188c0,0-1.426-1.798-1.426-4.461c0-6.012,6.641-10.046,6.641-10.046l-4.28-3.475
		c-3.147-2.554-6.79-5.172-10.838-7.787l0.978-1.098L95.695,2.604c0,0-8.472,7.753-25.458,7.753S44.778,2.604,44.778,2.604
		L25.585,12.69l0.978,1.098c-4.048,2.615-7.691,5.232-10.838,7.787l-4.282,3.475c0,0,6.641,4.034,6.641,10.046
		c0,2.663-1.425,4.461-1.425,4.461c-2.246-0.339-10.048-3.188-10.048-3.188L20.486,90.4c3.549,13.722,5.119,23.022,5.119,23.022
		S47.542,120.881,70.237,152.604z"/>
	<path d="M107.376,26.204c0-4.369,2.731-8.05,3.354-8.833c3.621,2.316,7.465,4.98,11.035,7.878c0,0-4.111,3.728-4.111,9.847
		c0,1.921,0.33,3.373,0.884,4.482C114.471,38.877,107.376,36.22,107.376,26.204z M33.097,26.204c0-4.335-2.736-8.049-3.355-8.833
		c-3.621,2.315-7.465,4.98-11.035,7.878c0,0,4.11,3.728,4.11,9.847c0,1.921-0.332,3.373-0.883,4.482
		C26.002,38.877,33.097,36.221,33.097,26.204z M70.237,129.293l-3.266-3.115c-8.755-8.349-30.407-24.683-39.821-27.595
		c1.683,7.262,2.582,11.494,2.582,11.494c22.433,9.942,40.502,34.542,40.502,34.542s18.071-24.6,40.504-34.542
		c0,0,0.898-4.232,2.58-11.493c-9.416,2.914-31.063,19.246-39.815,27.594L70.237,129.293z M65.647,98.592
		c-15.563-2.232-27.533-15.578-27.533-31.757s11.971-29.526,27.533-31.758v-0.364l3.66-19.636
		c-15.333-0.264-24.882-6.942-24.882-6.942l-11.28,5.928c0,0,4.684,5.258,4.684,12.141c0,15.87-13.862,18.355-18.547,18.355
		c-3.059,0-5.927-0.956-5.927-0.956l12.811,49.903c10.079,1.44,33.952,19.975,42.944,28.199l-3.462-22.749L65.647,98.592
		L65.647,98.592z M93.182,66.833c0-11.08-7.896-20.349-18.356-22.481v44.962C85.286,87.182,93.18,77.914,93.182,66.833z
		 M127.117,43.603c0,0-2.867,0.956-5.928,0.956c-4.685,0-18.545-2.485-18.545-18.355c0-6.883,4.684-12.141,4.684-12.141
		L96.047,8.135c0,0-9.531,6.668-24.845,6.942l3.622,19.636v0.364c15.563,2.232,27.533,15.578,27.533,31.757
		c0,16.178-11.973,29.525-27.533,31.758v0.364l-3.463,22.752c8.988-8.226,32.867-26.763,42.945-28.202L127.117,43.603z
		 M47.292,66.833c0,11.081,7.894,20.349,18.356,22.481V44.352C55.187,46.485,47.292,55.753,47.292,66.833z"/>
</g>
</svg>
