<?xml version="1.0" encoding="utf-8"?>
<!-- Generator: Adobe Illustrator 15.1.0, SVG Export Plug-In . SVG Version: 6.00 Build 0)  -->
<!DOCTYPE svg PUBLIC "-//W3C//DTD SVG 1.1//EN" "http://www.w3.org/Graphics/SVG/1.1/DTD/svg11.dtd">
<svg version="1.1" id="Layer_1" xmlns="http://www.w3.org/2000/svg" xmlns:xlink="http://www.w3.org/1999/xlink" x="0px" y="0px"
	 width="140px" height="156px" viewBox="0 0 140 156" enable-background="new 0 0 140 156" xml:space="preserve">
<g id="Layer_1_1_">
</g>
<g id="Layer_3" display="none">
</g>
<g>
	<g>
		<path d="M124.078,42.837c-0.358,0-1.388-0.03-2.733-0.254c-0.63-1.19-1.004-2.779-1.004-4.897c0-6.466,4.344-10.405,4.344-10.405
			c-3.869-3.14-8.047-6.029-11.958-8.519c2.086-2.931,4.359-4.721,4.359-4.721L96.932,3.417c0,0-7.402,8.004-26.696,8.004
			c-19.294,0-26.697-8.004-26.697-8.004L23.386,14.041c0,0,2.273,1.79,4.359,4.721c-3.911,2.489-8.089,5.379-11.958,8.519
			c0,0,4.343,3.939,4.343,10.405c0,2.118-0.374,3.707-1.003,4.897c-1.347,0.224-2.375,0.254-2.734,0.254
			c-6.516,0-13.172-3.575-13.172-3.575l16.554,64.486l3.206,0.458c0.52,0.074,1.086,0.208,1.686,0.384
			c1.806,7.787,2.77,12.327,2.77,12.327c23.704,10.506,42.798,36.5,42.798,36.5s19.094-25.994,42.798-36.5
			c0,0,0.964-4.54,2.77-12.327c0.601-0.176,1.167-0.31,1.687-0.384l3.207-0.458l16.554-64.486
			C137.251,39.262,130.594,42.837,124.078,42.837z"/>
	</g>
	<linearGradient id="SVGID_1_" gradientUnits="userSpaceOnUse" x1="10.1309" y1="68.3647" x2="130.3408" y2="68.3647">
		<stop  offset="0" style="stop-color:#8D742F"/>
		<stop  offset="0.0775" style="stop-color:#937A35"/>
		<stop  offset="0.1787" style="stop-color:#A38A45"/>
		<stop  offset="0.25" style="stop-color:#B39A54"/>
		<stop  offset="0.2682" style="stop-color:#B9A059"/>
		<stop  offset="0.3351" style="stop-color:#CAB068"/>
		<stop  offset="0.4086" style="stop-color:#D4BA71"/>
		<stop  offset="0.5" style="stop-color:#D7BD74"/>
		<stop  offset="0.5914" style="stop-color:#D4BA71"/>
		<stop  offset="0.6649" style="stop-color:#CAB068"/>
		<stop  offset="0.7318" style="stop-color:#B9A059"/>
		<stop  offset="0.75" style="stop-color:#B39A54"/>
		<stop  offset="0.7526" style="stop-color:#B29953"/>
		<stop  offset="0.8368" style="stop-color:#9E853F"/>
		<stop  offset="0.9198" style="stop-color:#917833"/>
		<stop  offset="1" style="stop-color:#8D742F"/>
	</linearGradient>
	<path fill="url(#SVGID_1_)" d="M62.554,107.594l3.738,19.938c-9.068-7.887-31.499-26.535-42.625-28.125l-13.536-52.73
		c0,0,3.031,1.01,6.263,1.01c4.95,0,19.597-2.626,19.597-19.395c0-7.273-4.95-12.829-4.95-12.829l11.92-6.264
		c0,0,7.658,6.23,23.976,6.994l-4.303,18.641c-16.863,3.519-29.573,18.495-29.573,36.39C33.062,89.088,45.73,104.045,62.554,107.594
		z M91.247,71.223c0-8.722-5.345-16.216-12.931-19.391v38.781C85.902,87.439,91.247,79.945,91.247,71.223z M49.224,71.223
		c0,8.723,5.345,16.217,12.93,19.391V51.832C54.569,55.007,49.224,62.501,49.224,71.223z M130.341,46.676c0,0-3.03,1.01-6.263,1.01
		c-4.95,0-19.598-2.626-19.598-19.395c0-7.273,4.95-12.829,4.95-12.829l-11.92-6.264c0,0-7.659,6.23-23.976,6.994l4.303,18.641
		c16.863,3.519,29.572,18.495,29.572,36.39c0,17.865-12.668,32.822-29.492,36.371l-3.738,19.938
		c9.068-7.887,31.499-26.535,42.625-28.125L130.341,46.676z"/>
	<g>
		<path fill="#FFFFFF" d="M104.178,71.223c0-17.096-12.649-31.198-29.094-33.557v-0.385L70.236,16.27l-4.849,21.012v0.385
			c-16.444,2.358-29.093,16.461-29.093,33.557s12.649,31.198,29.093,33.557v0.385l4.849,25.86l4.848-25.86v-0.385
			C91.528,102.421,104.178,88.318,104.178,71.223z M45.992,71.223c0-11.708,8.342-21.502,19.396-23.755v47.51
			C54.333,92.725,45.992,82.932,45.992,71.223z M75.084,94.978v-47.51c11.055,2.253,19.396,12.047,19.396,23.755
			C94.479,82.932,86.139,92.725,75.084,94.978z"/>
	</g>
</g>
</svg>
