<?xml version="1.0" encoding="utf-8"?>
<!-- Generator: Adobe Illustrator 15.1.0, SVG Export Plug-In . SVG Version: 6.00 Build 0)  -->
<!DOCTYPE svg PUBLIC "-//W3C//DTD SVG 1.1//EN" "http://www.w3.org/Graphics/SVG/1.1/DTD/svg11.dtd">
<svg version="1.1" id="Layer_1" xmlns="http://www.w3.org/2000/svg" xmlns:xlink="http://www.w3.org/1999/xlink" x="0px" y="0px"
	 width="140px" height="156px" viewBox="0 0 140 156" enable-background="new 0 0 140 156" xml:space="preserve">
<g>
	<path d="M124.297,42.378c-0.358,0-1.387-0.03-2.734-0.254c-0.629-1.19-1.004-2.779-1.004-4.897c0-6.466,4.344-10.405,4.344-10.405
		c-3.868-3.14-8.046-6.029-11.957-8.519c2.086-2.931,4.359-4.721,4.359-4.721L97.152,2.958c0,0-7.403,8.004-26.697,8.004
		c-19.294,0-26.697-8.004-26.697-8.004L23.605,13.582c0,0,2.273,1.79,4.359,4.721c-3.911,2.489-8.089,5.379-11.958,8.519
		c0,0,4.344,3.939,4.344,10.405c0,2.118-0.375,3.707-1.004,4.897c-1.347,0.224-2.375,0.254-2.734,0.254
		c-6.516,0-13.171-3.575-13.171-3.575l16.554,64.486l3.206,0.458c0.519,0.074,1.086,0.208,1.686,0.384
		c1.806,7.787,2.77,12.327,2.77,12.327c23.704,10.506,42.798,36.5,42.798,36.5s19.094-25.994,42.798-36.5
		c0,0,0.964-4.54,2.771-12.327c0.6-0.176,1.166-0.31,1.686-0.384l3.207-0.458l16.555-64.486
		C137.471,38.803,130.813,42.378,124.297,42.378z M33.281,70.764c0,17.865,12.668,32.822,29.492,36.371l3.738,19.938
		c-9.068-7.887-31.498-26.535-42.625-28.125L10.35,46.217c0,0,3.031,1.01,6.263,1.01c4.95,0,19.597-2.626,19.597-19.395
		c0-7.273-4.95-12.829-4.95-12.829l11.92-6.264c0,0,7.658,6.23,23.976,6.994l-4.303,18.641
		C45.99,37.893,33.281,52.869,33.281,70.764z M62.374,51.373v38.781c-7.585-3.174-12.93-10.668-12.93-19.391
		C49.444,62.042,54.788,54.548,62.374,51.373z M117.023,98.947c-11.126,1.59-33.557,20.238-42.624,28.125l3.737-19.938
		c16.824-3.549,29.492-18.506,29.492-36.371c0-17.895-12.709-32.871-29.572-36.39l-4.303-18.641
		c16.317-0.764,23.976-6.994,23.976-6.994l11.92,6.264c0,0-4.95,5.556-4.95,12.829c0,16.769,14.648,19.395,19.598,19.395
		c3.232,0,6.264-1.01,6.264-1.01L117.023,98.947z M78.536,90.154V51.373c7.586,3.175,12.931,10.669,12.931,19.391
		C91.467,79.486,86.122,86.98,78.536,90.154z"/>
</g>
</svg>
