<?xml version="1.0" encoding="UTF-8" standalone="no"?>
<svg xmlns="http://www.w3.org/2000/svg" version="1.1" width="600" height="600">
  <path d="M 300,600 C 134.60571,600 0,465.40286 0,299.97429 0,134.57143 134.60571,0 300,0 465.40286,0 600,134.57143 600,299.97429 600,465.40286 465.40286,600 300,600" style="fill:#ffffff"/>
  <path d="M 576.70286,299.97429 C 576.70286,452.78571 452.82,576.66857 300,576.66857 147.18857,576.66857 23.305714,452.78571 23.305714,299.97429 23.305714,147.15429 147.18857,23.27143 300,23.27143 c 152.82,0 276.70286,123.88286 276.70286,276.70286"/>
  <path d="m 457.47429,316.84286 c -6.53143,26.78571 -19.86,50.82857 -38.07429,70.25143 l 74.13429,72.82285 c 34.11428,-36.09428 57.72,-82.23428 65.92285,-133.52571 L 457.47429,316.84286 z M 263.84571,127.70571 233.74286,44.06571 C 192.06,57.09429 155.05714,80.59714 125.66571,111.49714 L 194.4,167.48571 c 19.05429,-18.72 42.85714,-32.64857 69.44571,-39.78 m 176.52,72.38572 L 521.58857,147.66 C 496.64571,109.45714 461.69143,78.38571 420.40286,58.22571 l -40.87715,83.00572 c 25.24286,13.69714 46.30286,34.12286 60.84,58.86 M 304.65429,122.31429 c 22.14,0 43.16571,4.58571 62.28,12.82285 L 407.68286,52.40571 C 377.45143,39.67714 344.20286,32.58 309.30857,32.58 c -21.42857,0 -42.21428,2.71714 -62.07428,7.74 l 30.36857,84.33429 c 8.81143,-1.5 17.84571,-2.34 27.05143,-2.34 m 157.30285,157.26857 c 0,7.96285 -0.63428,15.83143 -1.77428,23.50285 l 101.15143,9.43715 c 0.9,-8.7 1.37142,-17.53715 1.37142,-26.51143 0,-46.07143 -12.32571,-89.22857 -33.81428,-126.42857 l -82.00286,52.90285 c 9.64286,20.35715 15.06857,43.12286 15.06857,67.09715 m -314.59714,0 c 0,-7.37143 0.53143,-14.66572 1.57714,-21.79715 L 59.905714,241.47429 c -2.545714,14.46857 -3.951428,29.33142 -3.951428,44.53714 0,31.77428 5.888571,62.17714 16.568571,90.16286 L 157.03714,333.92571 C 150.80571,317.01429 147.36,298.73143 147.36,279.58286 m 157.29429,157.29428 c -23.57143,0 -45.93429,-5.22 -66.02572,-14.52857 l -44.12571,89.52857 C 228.98571,529.42286 267.96,539.4 309.30857,539.4 c 7.2,0 14.29714,-0.36891 21.33429,-0.96857 l -13.09715,-102.12 c -4.25142,0.33394 -8.53714,0.56571 -12.89142,0.56571 m 26.76,-2.34 13.15714,102.38572 c 53.53714,-7.46572 101.68286,-31.63715 139.08,-67.09715 L 409.38857,396.9 C 387.89143,416.11714 361.08,429.48 331.41429,434.53714 M 162.46286,346.84286 77.88,389.13429 c 21.771429,48.81428 58.46571,89.4 104.33143,116.08285 L 226.24286,415.92 C 198.55714,399.95143 176.22,375.84 162.46286,346.84286 M 151.47429,244.02 62.751429,227.78571 C 72.094286,188.04 90.711429,151.98 116.32286,121.91143 L 184.86,177.76286 c -16.00286,18.78 -27.62571,41.38285 -33.38571,66.25714" style="fill:#d1d3d4"/>
  <path d="m 401.88857,369.91714 c 14.4,-15.47143 25.11429,-34.38857 30.84,-55.34571 l -27.12,-2.51143 c -4.72286,14.66571 -12.55714,27.98571 -22.76571,39.13714 l 19.04571,18.72 z M 403.26,240.64286 c 4.75714,12.08571 7.44,25.20857 7.44,38.94 0,6.39428 -0.60891,12.61714 -1.71429,18.71143 l 26.75143,2.51142 c 1.10572,-6.92571 1.71429,-13.99714 1.74857,-21.22285 -0.0343,-19.08857 -4.12285,-37.23429 -11.39142,-53.64 l -22.83429,14.7 z m -30.53143,120.23143 c -13.49143,11.31428 -29.87143,19.35428 -47.81143,22.76571 l 3.37715,26.58857 c 24.07714,-4.35428 45.87428,-15.17143 63.54857,-30.57428 l -19.11429,-18.78 z M 237.09429,393.85714 248.94,369.78 C 231.3,358.90286 217.10571,342.89143 208.36286,323.91429 l -23.94,11.98285 c 11.34857,24.17143 29.80285,44.4 52.67143,57.96 M 201.93429,253.26 c 4.14857,-16.16571 12.05142,-30.86571 22.67142,-43.12286 L 203.88,193.26 c -13.43143,15.64286 -23.27143,34.45714 -28.29429,55.18286 L 201.93429,253.26 z M 234.48,200.16 c 13.12286,-11.58857 29.16,-19.98857 46.84286,-23.97429 L 272.17714,150.84 c -22.32857,5.65714 -42.38571,16.94571 -58.62,32.28 L 234.48,200.16 z m 51.56571,-52.02857 9.33429,25.87714 c 3.05143,-0.26606 6.16286,-0.43748 9.27429,-0.43748 13.99714,0 27.36,2.75142 39.58285,7.67142 l 11.84572,-24.07714 c -15.83143,-6.66 -33.18,-10.34571 -51.42857,-10.40571 -6.32572,0.0343 -12.51429,0.49714 -18.60858,1.37143 M 368.64,163.25966 356.79429,187.3368 c 16.93714,9.54 30.93428,23.60571 40.40571,40.57714 l 22.5,-14.49428 c -12.12,-21.02572 -29.76,-38.43429 -51.06,-50.16 m -165.3,147.52285 c -3.04286,-9.84 -4.68857,-20.32285 -4.68857,-31.2 0,-4.25142 0.27428,-8.44285 0.77143,-12.55714 L 173.04,262.19966 c -0.77143,5.69143 -1.17429,11.52 -1.17429,17.38285 0,15.16286 2.58,29.72572 7.30286,43.28572 L 203.34,310.78251 z m 101.31429,101.62286 c -19.71429,-0.0343 -38.4,-4.38857 -55.17429,-12.05143 l 11.82,-24.00857 c 13.26,5.92286 27.92571,9.27429 43.35429,9.27429 2.14285,0 4.26,-0.10286 6.36857,-0.20572 l 3.41143,26.55429 c -3.24858,0.26606 -6.49715,0.43748 -9.78,0.43748" style="fill:#ffffff"/>
  <path d="m 442.14,279.58286 c 0,7.36285 -0.60891,14.63143 -1.71429,21.66 l 10.44858,0.96857 c 1.14,-7.39714 1.74,-14.89714 1.74,-22.62857 -0.0343,-22.13143 -4.95429,-43.09715 -13.68858,-61.94572 l -8.84571,5.69143 c 7.74,17.21143 12.06,36.23143 12.06,56.25429 m -171.56571,-133.19143 -3.54858,-9.84857 c -24.97714,6.56571 -47.31428,19.49143 -65.28857,36.93428 l 8.13429,6.62572 C 226.64571,164.1 247.44,152.28 270.57429,146.39143 m -70.34572,43.89428 -8.07428,-6.6 c -15.02572,17.61429 -25.98,38.74286 -31.44,62.04 l 10.25142,1.87715 C 176.08286,226.08 186.3,206.52 200.22857,190.28571 m -33.05143,89.29715 c 0,-6.16286 0.4368,-12.25715 1.27715,-18.24857 l -10.31143,-1.87715 c -0.90857,6.6 -1.40572,13.32857 -1.44,20.12572 0.0343,17.60571 3.14571,34.48285 8.76857,50.11714 l 9.44571,-4.68857 c -4.98857,-14.22857 -7.74,-29.49429 -7.74,-45.42857 m 13.02857,58.38857 -9.34285,4.68857 c 12.85714,27.15429 33.68571,49.75714 59.52857,64.82571 l 4.62,-9.37714 C 211.20857,384.07714 192.02571,363.12 180.20571,337.97143 m 243.48,-127.13143 8.74286,-5.65714 c -13.59428,-23.34 -33.35143,-42.55715 -57.08571,-55.51715 l -4.62857,9.37715 c 22.07142,12.08571 40.38,30.06857 52.97142,51.79714 m -119.03142,-68.7 c 18.98571,0 37.07142,3.81429 53.51142,10.80857 l 4.62,-9.37714 c -17.84571,-7.66286 -37.46571,-11.88 -58.13142,-11.94857 -8.1,0.0343 -16.07143,0.70285 -23.83715,2.00571 l 3.61715,9.97714 c 6.6,-0.96857 13.36285,-1.46571 20.22,-1.46571 m 24.24857,272.77714 1.33714,10.38 c 27.52286,-4.86 52.43143,-17.24571 72.42,-34.98857 l -7.43143,-7.33714 c -18.42,16.14 -41.18571,27.45428 -66.32571,31.94571 m -24.24857,2.17715 c -20.41715,0 -39.80572,-4.52572 -57.24858,-12.52286 l -4.62,9.34286 c 18.81429,8.7 39.77143,13.59428 61.86858,13.65428 3.95142,0 7.84285,-0.1968 11.72571,-0.53143 l -1.34571,-10.38 c -3.41143,0.23109 -6.89143,0.43749 -10.38,0.43749 m 132.85714,-102.09429 10.55143,1.01143 c -6.26572,24.50572 -18.61715,46.56857 -35.35715,64.51714 l -7.43142,-7.30285 c 15.12857,-16.23429 26.38285,-36.12 32.23714,-58.22572" style="fill:#d1d3d4"/>
  <path d="m 478.22571,375.13714 c -11.04857,10.31143 -30.72857,10.34572 -42.21428,9.34286 -1.07143,1.37143 -2.17714,2.74286 -3.31714,4.08857 l 59.52857,54.73714 c 0,0 -4.65429,-20.39142 5.82857,-35.55428 10.48286,-15.13714 34.95428,-36.09429 34.95428,-36.09429 l -15.13714,-18.68571 c 0,0 -23.29714,7.00286 -39.64286,22.16571" style="fill:#ffffff"/>
  <path d="M 472.26857,286.38 506.22,273.78857 521.65714,297.66 l 30.86572,3.21429 c 0,0 -10.77429,-44.56286 -38.13429,-66.72858 L 509.7,249.30857 c 0,0 -28.72286,-2.44286 -43.22571,-13.35428 3.85714,14.09142 5.96571,28.89428 5.96571,44.22857 0,2.07428 -0.10286,4.11428 -0.17143,6.19714" style="fill:#ffffff"/>
  <path d="m 444.28286,187.14 63.11143,-42.69429 c 0,0 -27.96,-20.95714 -59.43429,-22.13142 l -3.51429,17.47714 -11.61428,-10.48286 -30.90857,14.20286 c 16.61143,11.85428 30.96857,26.64857 42.36,43.62857" style="fill:#ffffff"/>
  <path d="M 362.68286,122.71714 394.65429,55.92 c 0,0 -35.22,-1.17429 -56.21143,1.14 -20.95715,2.37429 -31.44,24.47143 -31.44,24.47143 l 20.95714,-3.48 c 0,0 -17.10857,24.41143 -24.54,34.38857 l 1.20857,0 c 20.45143,0 39.97714,3.61714 58.05429,10.27714" style="fill:#ffffff"/>
  <path d="m 227.48571,56.18571 c 0,0 -34.65428,12.55715 -48.65142,59.16858 l 32.60571,1.13142 0.36891,23.94 c 12.46286,-8.23714 26.04858,-14.86285 40.48286,-19.62 l -24.80571,-64.62 z" style="fill:#ffffff"/>
  <path d="m 128.74286,202.70571 c -22.13143,3.48 -39.608574,1.77429 -47.777146,19.55143 l 62.477146,11.55429 c 5.76,-20.02286 15.10285,-38.53714 27.35143,-54.71143 -6.99429,6.26571 -24.77143,20.86286 -42.05143,23.60571" style="fill:#ffffff"/>
</svg>
