<?xml version="1.0" encoding="UTF-8" standalone="no"?>
<svg xmlns="http://www.w3.org/2000/svg" xmlns:xlink="http://www.w3.org/1999/xlink" version="1.1" width="600" height="600">
  <linearGradient id="linearGradient3837">
    <stop style="stop-color:#bf331c" offset="0"/>
    <stop style="stop-color:#d3641c" offset="0.75"/>
    <stop style="stop-color:#f6b91d" offset="1"/>
  </linearGradient>
  <linearGradient id="linearGradient2995">
    <stop style="stop-color:#f6b91d" offset="0"/>
    <stop style="stop-color:#d3641c" offset="0.75"/>
    <stop style="stop-color:#bf331c" offset="1"/>
  </linearGradient>
  <radialGradient cx="276.23734" cy="271.56146" r="253.37572" fx="276.23734" fy="271.56146" id="radialGradient3022" xlink:href="#linearGradient2995" gradientUnits="userSpaceOnUse" gradientTransform="matrix(-0.00689431,-1.000388,1.0143261,-0.00700746,36.560868,563.64487)"/>
  <radialGradient cx="289.08356" cy="244.11113" r="235.78125" fx="289.08356" fy="244.11113" id="radialGradient3036" xlink:href="#linearGradient3837" gradientUnits="userSpaceOnUse" gradientTransform="matrix(7.1003485e-7,-0.97975638,0.98987435,-3.7189902e-8,68.468703,568.62887)"/>
  <path d="M 300,0 C 134.60571,0 0,134.56589 0,299.96875 0,465.39732 134.60571,600 300,600 465.40286,600 600,465.39732 600,299.96875 600,134.56589 465.40286,0 300,0 z m -141.09375,150 299.34375,0 0,272.03125 -299.34375,0 0,-272.03125 z" style="fill:#ffffff"/>
  <path d="M 576.70286,299.97429 C 576.70286,452.78571 452.82,576.66857 300,576.66857 147.18857,576.66857 23.305714,452.78571 23.305714,299.97429 23.305714,147.15429 147.18857,23.27143 300,23.27143 c 152.82,0 276.70286,123.88286 276.70286,276.70286"/>
  <path d="m 300,23.28125 c -152.81143,0 -276.6875,123.8675 -276.6875,276.6875 0,152.81142 123.87607,276.6875 276.6875,276.6875 152.82,0 276.6875,-123.87608 276.6875,-276.6875 0,-152.82 -123.8675,-276.6875 -276.6875,-276.6875 z m 1.9375,170.84375 c 0.72614,-0.0185 1.45692,0 2.1875,0 46.75699,0 84.65625,38.00885 84.65625,84.90625 0,46.8974 -37.89926,84.90625 -84.65625,84.90625 -46.75699,0 -84.65625,-38.00885 -84.65625,-84.90625 0,-46.16463 36.72165,-83.74376 82.46875,-84.90625 z"/>
  <path d="m 309.3125,32.59375 c -21.42857,0 -42.23375,2.69589 -62.09375,7.71875 l 30.375,84.34375 c 8.81143,-1.5 17.85678,-2.34375 27.0625,-2.34375 22.14,0 43.16696,4.57536 62.28125,12.8125 l 40.75,-82.71875 C 377.45607,39.67768 344.20679,32.59375 309.3125,32.59375 z M 233.75,44.0625 C 192.06714,57.09108 155.04768,80.6 125.65625,111.5 l 68.75,56 c 19.05429,-18.72 42.84893,-32.64982 69.4375,-39.78125 L 233.75,44.0625 z m 186.65625,14.15625 -40.875,83 c 25.24286,13.69714 46.30661,34.13786 60.84375,58.875 l 81.21875,-52.4375 C 496.65089,109.45339 461.69482,78.37875 420.40625,58.21875 z M 116.3125,121.90625 C 90.701069,151.97482 72.092857,188.03554 62.75,227.78125 l 88.71875,16.25 C 157.22875,219.15696 168.87214,196.53 184.875,177.75 l -68.5625,-55.84375 z m 188.34375,9.71875 c -8.1,0.0343 -16.07803,0.69714 -23.84375,2 l 3.625,9.96875 c 6.6,-0.96857 13.3616,-1.46875 20.21875,-1.46875 18.98571,0 37.06,3.81822 53.5,10.8125 l 4.625,-9.375 c -17.84571,-7.66286 -37.45929,-11.86893 -58.125,-11.9375 z m -37.625,4.90625 c -24.97714,6.56571 -47.30696,19.49465 -65.28125,36.9375 l 8.125,6.625 c 16.77428,-16.00286 37.55321,-27.79893 60.6875,-33.6875 l -3.53125,-9.875 z m 37.625,10.21875 c -6.32572,0.0343 -12.53071,0.50071 -18.625,1.375 L 295.375,174 c 3.05143,-0.26606 6.16982,-0.4375 9.28125,-0.4375 13.99714,0 27.3709,2.7675 39.59375,7.6875 l 11.84375,-24.09375 C 340.26232,150.49625 322.90482,146.81 304.65625,146.75 z m 70.6875,2.90625 -4.625,9.375 c 22.07142,12.08571 40.37733,30.08393 52.96875,51.8125 l 8.75,-5.65625 c -13.59428,-23.34 -33.35947,-42.57125 -57.09375,-55.53125 z m -103.15625,1.1875 c -22.32857,5.65714 -42.39071,16.94696 -58.625,32.28125 l 20.90625,17.03125 c 13.12286,-11.58857 29.16089,-19.98303 46.84375,-23.96875 l -9.125,-25.34375 z m 256.71875,8.75 L 446.875,212.5 c 9.64286,20.35715 15.09375,43.11946 15.09375,67.09375 0,7.96285 -0.64125,15.82858 -1.78125,23.5 l 101.15625,9.4375 c 0.9,-8.7 1.375,-17.55697 1.375,-26.53125 0,-46.07143 -12.32393,-89.20625 -33.8125,-126.40625 z M 368.625,163.25 356.78125,187.34375 c 16.93714,9.54 30.93482,23.59107 40.40625,40.5625 l 22.5,-14.5 C 407.5675,192.38053 389.925,174.97571 368.625,163.25 z m -176.46875,20.4375 c -15.02572,17.61429 -25.9775,38.73411 -31.4375,62.03125 l 10.25,1.875 c 5.11715,-21.52286 15.32143,-41.07821 29.25,-57.3125 l -8.0625,-6.59375 z M 203.875,193.25 c -13.43143,15.64286 -23.25839,34.46178 -28.28125,55.1875 l 26.34375,4.8125 c 4.14857,-16.16571 12.03625,-30.86785 22.65625,-43.125 L 203.875,193.25 z m 235.0625,24.375 -8.84375,5.71875 c 7.74,17.21143 12.03125,36.22714 12.03125,56.25 0,7.36285 -0.58212,14.62768 -1.6875,21.65625 l 10.4375,0.96875 c 1.14,-7.39714 1.75,-14.89357 1.75,-22.625 -0.0343,-22.13143 -4.95321,-43.12018 -13.6875,-61.96875 z m -12.84375,8.3125 -22.84375,14.71875 c 4.75714,12.08571 7.4375,25.20607 7.4375,38.9375 0,6.39428 -0.58212,12.59321 -1.6875,18.6875 l 26.75,2.53125 c 1.10572,-6.92571 1.71572,-13.99304 1.75,-21.21875 -0.0343,-19.08857 -4.13768,-37.25054 -11.40625,-53.65625 z m -366.1875,15.53125 c -2.545714,14.46857 -3.9375,29.32553 -3.9375,44.53125 0,31.77428 5.8825,62.20178 16.5625,90.1875 l 84.5,-42.25 c -6.23143,-16.91142 -9.65625,-35.19518 -9.65625,-54.34375 0,-7.37143 0.51679,-14.68107 1.5625,-21.8125 l -89.03125,-16.3125 z m 98.25,18 c -0.90857,6.6 -1.43447,13.32785 -1.46875,20.125 0.0343,17.60571 3.15839,34.45946 8.78125,50.09375 L 174.90625,325 c -4.98857,-14.22857 -7.71875,-29.47197 -7.71875,-45.40625 0,-6.16286 0.4409,-12.25858 1.28125,-18.25 l -10.3125,-1.875 z m 14.875,2.71875 c -0.77143,5.69143 -1.15625,11.5434 -1.15625,17.40625 0,15.16286 2.55839,29.72125 7.28125,43.28125 l 24.1875,-12.09375 c -3.04286,-9.84 -4.6875,-20.31035 -4.6875,-31.1875 0,-4.25142 0.2841,-8.44821 0.78125,-12.5625 l -26.40625,-4.84375 z m 232.5625,49.875 c -4.72286,14.66571 -12.54143,27.97357 -22.75,39.125 l 19.03125,18.71875 c 14.4,-15.47143 25.11804,-34.38661 30.84375,-55.34375 l -27.125,-2.5 z M 437.5,315 c -5.85429,22.10572 -17.09018,41.98446 -32.21875,58.21875 l 7.4375,7.3125 C 429.45875,362.58268 441.79678,340.50572 448.0625,316 L 437.5,315 z m 19.96875,1.84375 c -6.53143,26.78571 -19.84821,50.82714 -38.0625,70.25 l 74.125,72.8125 c 34.11428,-36.09428 57.73465,-82.20857 65.9375,-133.5 l -102,-9.5625 z m -249.09375,7.0625 -23.9375,12 c 11.34857,24.17143 29.78767,44.3775 52.65625,57.9375 l 11.84375,-24.0625 c -17.64,-10.87714 -31.81965,-26.89786 -40.5625,-45.875 z m -28.15625,14.0625 -9.34375,4.6875 c 12.85714,27.15429 33.68839,49.77518 59.53125,64.84375 L 235,398.09375 c -23.80286,-14.03143 -42.96125,-34.97643 -54.78125,-60.125 z m -17.75,8.875 L 77.875,389.125 c 21.771429,48.81428 58.47803,89.4109 104.34375,116.09375 L 226.25,415.90625 c -27.68572,-15.96857 -50.02411,-40.06536 -63.78125,-69.0625 z m 210.25,14.03125 c -13.49143,11.31428 -29.8725,19.33857 -47.8125,22.75 l 3.375,26.59375 c 24.07714,-4.35428 45.88821,-15.15965 63.5625,-30.5625 l -19.125,-18.78125 z m -111.40625,15.46875 -11.84375,24 c 16.77429,7.66286 35.47321,12.0282 55.1875,12.0625 3.28285,0 6.53267,-0.17144 9.78125,-0.4375 l -3.40625,-26.5625 c -2.10857,0.10286 -4.23215,0.21875 -6.375,0.21875 -15.42858,0 -30.08375,-3.35839 -43.34375,-9.28125 z m 133.90625,6.625 c -18.42,16.14 -41.1725,27.44607 -66.3125,31.9375 L 330.25,425.3125 c 27.52286,-4.86 52.41768,-17.25714 72.40625,-35 l -7.4375,-7.34375 z m 14.15625,13.9375 c -21.49714,19.21714 -48.30304,32.56786 -77.96875,37.625 L 344.5625,536.9375 c 53.53714,-7.46572 101.69661,-31.665 139.09375,-67.125 L 409.375,396.90625 z m -161.96875,7.65625 -4.625,9.34375 c 18.81429,8.7 39.77785,13.59625 61.875,13.65625 3.95142,0 7.83589,-0.19662 11.71875,-0.53125 l -1.34375,-10.375 c -3.41143,0.23109 -6.88643,0.4375 -10.375,0.4375 -20.41715,0 -39.80714,-4.53411 -57.25,-12.53125 z M 238.625,422.34375 194.5,511.875 c 34.48285,17.54572 73.46393,27.53125 114.8125,27.53125 7.2,0 14.3066,-0.36909 21.34375,-0.96875 l -13.125,-102.125 c -4.25142,0.33394 -8.52072,0.5625 -12.875,0.5625 -23.57143,0 -45.93982,-5.22268 -66.03125,-14.53125 z" style="fill:url(#radialGradient3022)"/>
  <path d="m 374.40625,55.625 c -11.42893,-0.0043 -25.47303,0.280355 -35.96875,1.4375 C 317.48035,59.43679 307,81.53125 307,81.53125 l 20.96875,-3.46875 c 0,0 -17.13107,24.39786 -24.5625,34.375 l 1.21875,0 c 20.45143,0 39.98535,3.62125 58.0625,10.28125 l 31.96875,-66.8125 c 0,0 -8.82107,-0.276964 -20.25,-0.28125 z M 227.5,56.1875 c 0,0 -34.65911,12.54482 -48.65625,59.15625 l 32.59375,1.15625 0.375,23.9375 c 12.46286,-8.23714 26.03447,-14.86785 40.46875,-19.625 L 227.5,56.1875 z m 220.46875,66.125 -3.53125,17.46875 L 432.84375,129.3125 401.9375,143.5 c 16.61143,11.85428 30.95232,26.645 42.34375,43.625 l 63.125,-42.6875 c 0,0 -27.96321,-20.95072 -59.4375,-22.125 z m -277.1875,56.78125 c -6.99429,6.26571 -24.75125,20.88215 -42.03125,23.625 -22.13143,3.48 -39.612678,1.75411 -47.78125,19.53125 l 62.46875,11.5625 c 5.76,-20.02286 15.09517,-38.54446 27.34375,-54.71875 z m 343.59375,55.0625 -4.6875,15.15625 c 0,0 -28.7159,-2.43233 -43.21875,-13.34375 3.85714,14.09142 5.96875,28.88446 5.96875,44.21875 0,2.07428 -0.0877,4.10464 -0.15625,6.1875 l 33.9375,-12.59375 15.4375,23.875 30.875,3.21875 c 0,0 -10.79625,-44.55303 -38.15625,-66.71875 z m 3.5,118.8125 c 0,0 -23.31053,6.9934 -39.65625,22.15625 -11.04857,10.31143 -30.73304,10.34661 -42.21875,9.34375 -1.07143,1.37143 -2.1725,2.74804 -3.3125,4.09375 l 59.53125,54.75 c 0,0 -4.63911,-20.39964 5.84375,-35.5625 C 508.54536,392.61286 533,371.65625 533,371.65625 l -15.125,-18.6875 z" style="fill:url(#radialGradient3036)"/>
</svg>
