<?xml version="1.0" encoding="UTF-8" standalone="no"?>
<svg
   version="1.1"
   width="1024"
   height="580.91"
   id="svg20"
   sodipodi:docname="C.svg"
   inkscape:version="1.1.1 (3bf5ae0d25, 2021-09-20)"
   xmlns:inkscape="http://www.inkscape.org/namespaces/inkscape"
   xmlns:sodipodi="http://sodipodi.sourceforge.net/DTD/sodipodi-0.dtd"
   xmlns="http://www.w3.org/2000/svg"
   xmlns:svg="http://www.w3.org/2000/svg">
  <defs
     id="defs24" />
  <sodipodi:namedview
     id="namedview22"
     pagecolor="#ffffff"
     bordercolor="#666666"
     borderopacity="1.0"
     inkscape:pageshadow="2"
     inkscape:pageopacity="0.0"
     inkscape:pagecheckerboard="0"
     showgrid="false"
     inkscape:zoom="3.654"
     inkscape:cx="173.51"
     inkscape:cy="98.523"
     inkscape:window-width="1920"
     inkscape:window-height="986"
     inkscape:window-x="-11"
     inkscape:window-y="-11"
     inkscape:window-maximized="1"
     inkscape:current-layer="svg20" />
  <g
     transform="matrix(0,-2.9522,2.9522,0,0,580.91)"
     id="g18">
    <g
       transform="rotate(90,98.386,98.386)"
       id="g16">
      <g
         transform="rotate(90,173.43,173.43)"
         id="g14">
        <g
           transform="rotate(90,98.386,98.386)"
           id="g12">
          <g
             transform="rotate(90,173.43,173.43)"
             id="g10">
            <g
               transform="rotate(90,193.15,67.609)"
               id="g8">
              <path
                 style="fill:#ffffff"
                 d="m 250.32,212.16 -48.03,-48.76 -17.46,-0.11 c -15.35,-0.1 -18.82,-0.52 -28.65,-3.55 -6.15,-1.9 -15.56,-5.52 -20.91,-8.05 l -9.73,-4.61 30.7,-14.34 c 16.88,-7.89 30.94,-14.75 31.25,-15.24 0.3,-0.49 -2.16,-2.27 -5.48,-3.95 -15.36,-7.78 -46.24,-33.979 -49.42,-41.919 -3.31,-8.27 -2.7,-9.488 2.65,-5.293 2.58,2.016 6.05,4.385 7.73,5.264 5.51,2.897 23.39,2.907 54.33,0.03 18.97,-1.763 35.24,-2.598 44.4,-2.276 12.98,0.456 15.22,0.886 21.78,4.189 4.02,2.024 8.46,5.268 9.86,7.207 5.51,7.622 1.98,24.578 -10.43,50.068 l -6.05,12.43 20.56,22.19 c 11.31,12.2 21.01,22.18 21.55,22.18 0.54,0 10.23,-9.97 21.52,-22.15 l 20.54,-22.16 -7.88,-13.07 c -8.7,-14.45 -15.1,-29.42 -16.29,-38.075 -1.48,-10.81 5.4,-19.544 18.28,-23.201 8.44,-2.395 36.02,-1.757 62.38,1.441 12.69,1.54 29.81,2.844 38.04,2.898 15.36,0.1 19.17,-0.788 26.51,-6.173 2.78,-2.04 2.81,-2.015 2.81,2.756 0,4.341 -0.88,5.66 -8.96,13.423 -10.55,10.143 -31.3,25.841 -39.93,30.211 -3.35,1.7 -5.84,3.49 -5.54,3.98 0.31,0.49 14.37,7.35 31.25,15.24 l 30.7,14.34 -9.73,4.61 c -5.35,2.53 -14.76,6.15 -20.91,8.05 -9.83,3.03 -13.3,3.46 -28.65,3.55 l -17.47,0.11 -48.02,48.6 c -26.42,26.73 -48.31,48.67 -48.65,48.76 -19.57,-19.1 -32.96,-32.68 -48.65,-48.6 z"
                 id="path2" />
              <path
                 d="m 417.77,106.69 v 0 c 0,0.36 0,0.72 0,1.08 0,-0.36 0,-0.72 0,-1.08"
                 style="fill:#ffffff"
                 id="path4" />
              <path
                 d="m 281.58,170.16 z m 30.53,67.05 c 6.79,-7.03 28.3,-28.92 47.79,-48.63 l 35.43,-35.83 6.19,2.02 c 7.54,2.47 20.73,1.71 34.71,-1.98 20.29,-5.36 21.98,-3.37 -19.74,-23.17 l -36.79,-17.47 12.96,-0.62 c 12.14,-0.58 13.52,-0.93 21.61,-5.4 9.76,-5.4 20.47,-13.393 26.84,-20.048 l 4.3,-4.49 h -8.7 c -4.78,0 -21.03,-1.439 -36.1,-3.198 -30.78,-3.59 -55.72,-4.339 -64.1,-1.925 -7.03,2.024 -12.59,7.463 -12.59,12.316 0,8.045 8.04,26.065 19.56,43.795 3.73,5.75 6.53,11.08 6.22,11.85 -0.82,2.02 -49.61,54.42 -50.68,54.42 -0.78,0 -33.61,-34.85 -46.5,-49.36 l -4.66,-5.25 7.98,-16.67 c 8.06,-16.85 13.19,-31.182 13.19,-36.879 0,-1.851 -1.65,-4.764 -4.08,-7.192 -7.54,-7.542 -24.72,-8.475 -69.16,-3.759 -9.46,1.004 -23.06,1.831 -30.22,1.839 l -13.02,0.01 3.67,3.858 c 6.18,6.512 23.2,18.793 31.35,22.623 7.12,3.35 8.66,3.6 19.53,3.24 6.49,-0.22 11.62,-0.1 11.39,0.27 -0.23,0.37 -16.99,8.5 -37.24,18.08 l -36.82,17.42 7.21,2.72 c 16.48,6.2 36.33,8.28 46.09,4.84 l 5.1,-1.8 47.67,48.57 c 26.22,26.72 48.02,48.58 48.46,48.58 0.43,0 6.35,-5.75 13.15,-12.78 z"
                 id="path6" />
            </g>
          </g>
        </g>
      </g>
    </g>
  </g>
</svg>
