<?xml version="1.0" encoding="UTF-8" standalone="no"?>
<svg
   version="1.1"
   id="Layer_1"
   x="0px"
   y="0px"
   width="1024"
   height="580.93"
   sodipodi:docname="U.svg"
   inkscape:version="1.1.1 (3bf5ae0d25, 2021-09-20)"
   xmlns:inkscape="http://www.inkscape.org/namespaces/inkscape"
   xmlns:sodipodi="http://sodipodi.sourceforge.net/DTD/sodipodi-0.dtd"
   xmlns="http://www.w3.org/2000/svg"
   xmlns:svg="http://www.w3.org/2000/svg">
  <defs
     id="defs19" />
  <sodipodi:namedview
     id="namedview17"
     pagecolor="#ffffff"
     bordercolor="#666666"
     borderopacity="1.0"
     inkscape:pageshadow="2"
     inkscape:pageopacity="0.0"
     inkscape:pagecheckerboard="0"
     showgrid="false"
     inkscape:zoom="14.38"
     inkscape:cx="44.089"
     inkscape:cy="24.965"
     inkscape:window-width="1920"
     inkscape:window-height="986"
     inkscape:window-x="-11"
     inkscape:window-y="-11"
     inkscape:window-maximized="1"
     inkscape:current-layer="Layer_1" />
  <path
     d="M 368.38,437.45 226.59,293.5 175.02,293.18 C 129.69,292.9 119.47,291.62 90.44,282.69 72.28,277.1 44.488,266.41 28.698,258.93 L 0,245.32 90.614,202.96 c 49.846,-23.29 91.356,-43.53 92.266,-44.98 0.89,-1.45 -6.38,-6.69 -16.18,-11.66 C 121.37,123.35 30.185,46.006 20.809,22.56 11.038,-1.8399 12.839,-5.4533 28.64,6.9438 36.239,12.893 46.498,19.887 51.436,22.49 c 16.289,8.551 69.074,8.575 160.434,0.08 55.99,-5.193 104.03,-7.656 131.08,-6.715 38.31,1.348 44.9,2.626 64.27,12.374 11.88,5.972 24.98,15.545 29.12,21.262 16.28,22.517 5.86,72.559 -30.78,147.839 l -17.87,36.7 60.71,65.5 c 33.38,36.03 62,65.5 63.61,65.5 1.62,0 30.2,-29.44 63.54,-65.42 l 60.63,-65.43 -23.24,-38.58 c -25.69,-42.67 -44.59,-86.83 -48.1,-112.403 -4.37,-31.905 15.95,-57.699 53.98,-68.504 24.9,-7.0647 106.31,-5.1825 184.13,4.252 37.47,4.555 88.02,8.401 112.32,8.552 45.33,0.29 56.59,-2.324 78.25,-18.2188 8.18,-6.0185 8.28,-5.9488 8.28,8.1338 0,12.827 -2.58,16.707 -26.44,39.631 -31.15,29.941 -92.38,76.267 -117.88,89.197 -9.9,5.02 -17.24,10.31 -16.35,11.75 0.91,1.45 42.42,21.69 92.26,44.98 l 90.61,42.37 -28.71,13.59 c -15.8,7.48 -43.58,18.16 -61.74,23.76 -29.02,8.95 -39.27,10.21 -84.59,10.5 L 797.4,293.52 655.63,436.97 C 577.66,515.89 513.02,580.67 512,580.93 454.23,524.54 414.68,484.45 368.38,437.45 Z"
     id="path2"
     style="stroke-width:11.6187" />
  <linearGradient
     id="path5291_1_"
     gradientUnits="userSpaceOnUse"
     x1="20.791"
     y1="-9.4531"
     x2="67.051"
     y2="36.806"
     gradientTransform="matrix(11.619,0,0,11.619,0,0)">
    <stop
       style="stop-color:#536e78"
       offset="0"
       id="stop4" />
    <stop
       style="stop-color:#99aebc"
       offset="0.3"
       id="stop6" />
    <stop
       style="stop-color:#d9eaf3"
       offset="0.5"
       id="stop8" />
    <stop
       style="stop-color:#99aebc"
       offset="0.7"
       id="stop10" />
    <stop
       style="stop-color:#536e78"
       offset="1"
       id="stop12" />
  </linearGradient>
  <path
     id="path5291"
     fill="url(#path5291_1_)"
     d="m 550.79,511.4 c 20.07,-20.76 83.55,-85.36 141.09,-143.53 l 104.61,-105.81 18.26,5.97 c 22.27,7.29 61.22,5.07 102.47,-5.84 59.91,-15.82 64.91,-9.95 -58.25,-68.42 l -108.64,-51.56 38.26,-1.84 c 35.82,-1.72 39.91,-2.74 63.8,-15.94 28.83,-15.93 60.44,-39.536 79.24,-59.183 l 12.69,-13.269 h -25.67 c -14.11,0 -62.09,-4.241 -106.6,-9.446 -90.86,-10.596 -164.49,-12.815 -189.24,-5.681 -20.75,5.983 -37.17,22.029 -37.17,36.366 0,23.749 23.75,76.943 57.74,129.293 11.02,16.96 19.28,32.71 18.36,35 -2.38,5.96 -146.43,160.66 -149.58,160.66 -2.31,0 -99.23,-102.89 -137.28,-145.73 l -13.77,-15.49 23.55,-49.21 c 23.82,-49.76 38.96,-92.076 38.96,-108.888 0,-5.472 -4.88,-14.07 -12.05,-21.239 C 389.3,35.352 338.59,32.598 207.39,46.517 c -27.93,2.975 -68.07,5.415 -89.22,5.438 l -38.431,0.02 10.817,11.386 c 18.254,19.218 68.504,55.469 92.564,66.789 21.03,9.89 25.56,10.63 57.67,9.54 19.15,-0.64 34.27,-0.28 33.6,0.8 -0.69,1.09 -50.15,25.12 -109.94,53.41 l -108.704,51.42 21.297,8.01 c 48.637,18.3 107.227,24.45 136.057,14.28 l 15.07,-5.32 140.72,143.43 c 77.39,78.88 141.79,143.42 143.06,143.42 1.3,0 18.78,-16.97 38.84,-37.74 z"
     style="fill:url(#path5291_1_);stroke-width:11.6187" />
</svg>
