<?xml version="1.0" encoding="UTF-8" standalone="no"?>
<svg
   xmlns:dc="http://purl.org/dc/elements/1.1/"
   xmlns:cc="http://creativecommons.org/ns#"
   xmlns:rdf="http://www.w3.org/1999/02/22-rdf-syntax-ns#"
   xmlns:svg="http://www.w3.org/2000/svg"
   xmlns="http://www.w3.org/2000/svg"
   xmlns:xlink="http://www.w3.org/1999/xlink"
   height="507.53195"
   width="545.03699"
   version="1.1">
  <defs>
    <linearGradient id="g1">
      <stop offset="0"    style="stop-color:#7f6e41" />
      <stop offset="0.2"  style="stop-color:#ae975f" />
      <stop offset="0.35" style="stop-color:#e3cd99" />
      <stop offset="0.65" style="stop-color:#e3cd99" />
      <stop offset="0.8"  style="stop-color:#ae975f" />
      <stop offset="1"    style="stop-color:#7f6e41" />
    </linearGradient>
    <linearGradient
       gradientTransform="translate(-661.4043,-111.63994)"
       gradientUnits="userSpaceOnUse"
       y2="539.45282"
       x2="1091.2072"
       y1="170.48882"
       x1="832.85571"
       id="g2"
       xlink:href="#g1" />
  </defs>
  <path
     d="M 295.89843,0.05537056 A 244,244 0 0 0 247.53711,5.9499006 244,244 0 0 0 57.67187,256.20381 C 32.5808,264.1376 11.58383,278.03576 0,299.2292 c 43.12315,11.8331 48.00204,27.48865 70.74804,37.80859 38.69596,17.55649 43.42653,-5.27674 58.65625,6.42188 -68.60104,14.07393 -41.81253,54.30228 -94.8457,67.98047 24.96068,12.71418 41.86878,7.01737 56.65625,-3.52149 -1.93755,21.81316 -19.2743,35.41462 -35.38281,49.66993 41.36632,11.85743 66.36023,2.94853 84.86719,-9.65625 18.06049,-12.30069 28.88766,-28.32429 51.2871,-33.67383 -10.28972,44.29239 -31.20204,58.73872 -54.91601,69.41992 21.19505,9.28859 54.45013,-2.34636 72.52148,-12.87305 17.41944,-10.14695 23.38387,-27.7603 39.95118,-30.45117 0.78301,3.82023 -16.86599,45.79237 31.47461,67.17774 0.0523,-9.18637 -2.37484,-17.87686 16.47265,-30.82227 28.11588,23.58712 68.70487,45.50591 124.70117,15.32617 -13.4835,-3.71571 -25.7318,-10.54989 -36.2617,-19.5039 A 244,244 0 0 0 536.9395,181.43818 244,244 0 0 0 295.89843,0.05537056 Z"
     style="fill:#000000" />
  <path
     d="m 299.6289,17.977251 c -26.10232,0.16314 -52.52801,4.86694 -78.14648,14.50976 C 129.66166,67.048481 71.88633,156.13466 75.22265,251.73506 c 18.23516,-3.62513 37.82121,-4.61023 57.08008,-3.33984 3.89865,-7.3977 3.04729,-10.71421 13.27344,-26.69141 21.91988,-19.58938 40.56235,-38.45881 76.66992,-58.50586 17.77342,-2.14376 32.71642,-0.75389 47.12891,-0.37695 22.28461,-31.72428 102.7253,-84.143859 105.7773,-84.460939 3.052,-0.31708 40.4221,48.136659 24.7539,62.697269 11.0759,19.7357 6.8128,33.24041 3.2696,47.03711 -3.1749,-9.14592 -5.7324,-18.60061 -17.1074,-23.64649 1.4766,13.22298 0.6049,25.20824 -7.8848,37.8125 -4.3509,-10.09705 -7.1355,-20.19118 -22.2871,-25.33789 5.6759,24.22829 -0.7621,36.7486 -12.8946,45.51172 -8.48799,-17.21628 -26.10197,-7.48143 -29.83198,-2.38477 -8.30105,11.34251 -6.47943,33.72789 4.76953,41.16407 12.67053,8.37592 36.12685,0.53684 39.89845,-26.06641 6.965,7.30115 11.9709,16.07232 10.582,28.48242 8.0358,-9.91505 17.1474,-15.28383 21.1817,-42.09375 9.0852,13.14247 8.3581,21.92353 9.3847,31.48438 19.4364,-18.48772 15.185,-28.73969 16.9688,-41.93164 27.4253,35.11898 28.9525,64.06851 24.0176,91.28515 -19.5751,-27.34005 -78.6243,16.61504 -90.711,64.84375 -12.64971,50.47521 45.8449,94.43088 99.7246,47.67383 82.7631,-71.8222 102.3185,-192.34451 46.336,-286.44336 C 453.3354,57.873811 377.9359,17.487821 299.6289,17.977251 Z m 47.125,299.449219 c -39.34874,3.65657 -99.94923,33.39781 -127.81054,68.24609 16.82684,-3.21802 29.26414,-3.80142 31.99609,1.4375 -18.12085,9.87913 -30.77848,26.00125 -35.70898,50.95508 13.1972,-18.38825 35.53608,-25.23115 66.64648,-20.99219 -8.35192,16.4888 -21.0979,30.97986 -9.72266,56.43555 7.64001,-8.45473 13.41782,-17.94369 29.11914,-21.91992 20.10653,25.90573 40.92017,33.18457 61.21287,33.76562 -41.86457,-44.25261 -78.82975,-91.21495 -15.7324,-167.92773 z"
     style="fill:url(#g2)" />
  <path
     d="m 260.0332,182.41084 c 0,0 -27.98279,10.8593 -43.36133,5.50195 -8.22279,0.25767 -21.06163,19.19538 -17.3125,23.13672 2.00356,-2.34398 26.22268,-12.58762 40.44922,-7.76562 11.17677,-3.72302 24.13566,-21.19897 20.22461,-20.87305 z"
     style="fill:#e3cd99" />
</svg>
