<?xml version="1.0" encoding="UTF-8" standalone="no"?>
<svg xmlns="http://www.w3.org/2000/svg" version="1.1" id="Layer_1" x="0px" y="0px" width="98.107735" height="50" viewBox="0 0 98.107733 50">
  <g id="g886" transform="rotate(-90,25,25)">
    <g transform="rotate(90,25.000009,24.999991)" id="g398">
      <g id="common_1_">
        <path style="fill:#808080" id="border" d="m 6.675,0.25 c 28.131,0 56.582,0 84.713,0 8.305,12.503 8.305,36.921 0,49.5 -28.396,0 -56.317,0 -84.713,0 -7.768,-12.423 -8.711,-36.013 0,-49.5 z"/>
        <path id="star" d="M 91.816,0 H 6.247 c -8.799,13.623 -7.846,37.451 0,50 h 85.569 c 8.389,-12.706 8.389,-37.371 0,-50 z M 89.547,47.154 H 8.322 c -7.112,-10.745 -7.37,-33.3 0,-44.309 h 81.225 c 7.362,10.743 7.363,33.567 0,44.309 z M 87.955,7.317 c -2.556,0 -5.259,-0.005 -8.923,-0.005 -19.11,1.056 -32.828,8.055 -44.096,14.708 5.217,-0.067 12.807,-0.84 12.866,-0.327 0.06,0.514 -8.073,2.65 -13.696,4.344 4.485,2.902 12.585,8.251 12.307,8.75 C 46.135,35.286 34.855,30.32 30.85,28.859 32.447,32.806 36.764,41.39 36.318,41.59 35.872,41.791 30.882,35.315 26.8,30.833 23.758,35.579 19.11,43.196 18.687,43.053 18.264,42.909 20.869,34.464 22.382,29.51 17.26,30.822 8.094,35.122 7.787,34.641 7.48,34.16 16.505,28.241 20.645,25.385 16.77,22.965 7.739,18.586 7.86,18.108 7.982,17.63 17.426,20.525 22.382,21.695 21.251,17.623 17.687,9.396 18.102,9.183 18.517,8.97 23.585,16.571 26.507,19.958 29.125,15.912 32.699,7.931 33.213,8.062 33.727,8.193 31.834,16.627 31.439,19.004 38.918,13.938 50.82,8.619 65.616,5.691 H 9.703 c -5.063,10.147 -5.33,28.56 0,38.618 h 78.252 c 4.711,-9.277 5.321,-27.348 0,-36.992 z M 67.029,39.634 H 52.504 v -0.813 c 0.952,0 4.906,-1.216 4.906,-3.504 V 16.87 h -4.857 v -0.813 c 2.849,0 5.563,-1.434 9.385,-4.724 h 1.084 c 0,4.61 0.005,16.903 0.005,23.984 0,1.971 2.698,3.503 4.002,3.503 z m 11.934,0 c -8.945,0 -10.291,-7.794 -10.291,-12.164 0,-4.513 2.013,-9.245 7.071,-12.875 2.714,-1.948 7.749,-3.258 10.635,-3.258 v 1.413 c -4.476,0.809 -10.719,4.526 -10.923,9.811 16.964,-5.644 16.074,17.073 3.508,17.073 z m 2.045,-14.272 c -1.749,-1.437 -3.515,-1.181 -5.858,-0.871 -0.493,3.114 -0.882,13.897 4.747,12.577 3.048,-0.715 3.348,-9.866 1.111,-11.706 z"/>
      </g>
    </g>
  </g>
</svg>
