<?xml version="1.0" encoding="utf-8"?>
<svg xmlns="http://www.w3.org/2000/svg" xmlns:xlink="http://www.w3.org/1999/xlink" version="1.1" id="Layer_1" x="0px" y="0px" width="98.107px" height="50px">
  <g id="rare_1_">
    <path d="M7.082,0.047c28.131,0,56.583,0,84.714,0c8.305,12.503,8.305,36.921,0,49.5c-28.397,0-56.317,0-84.714,0   C-0.686,37.123-1.629,13.533,7.082,0.047z"/>
    <linearGradient id="star_4_" gradientUnits="userSpaceOnUse" x1="19.9746" y1="678.6567" x2="94.8091" y2="741.4503" gradientTransform="matrix(1 0 0 -1 -8.3599 735.0537)">
      <stop offset="0" style="stop-color:#8b723c"/>
      <stop offset="0.5" style="stop-color:#ebd491"/>
      <stop offset="1" style="stop-color:#8b723c"/>
    </linearGradient>
    <path fill="url(#star_4_)" d="M91.816,0H6.247c-8.799,13.623-7.846,37.451,0,50h85.569   C100.205,37.294,100.205,12.629,91.816,0z M89.547,47.154H8.322c-7.112-10.745-7.37-33.3,0-44.309h81.225   C96.909,13.588,96.91,36.412,89.547,47.154z M87.955,7.317c-2.556,0-5.259-0.005-8.923-0.005   c-19.11,1.056-32.828,8.055-44.096,14.708c5.217-0.067,12.807-0.84,12.866-0.327c0.06,0.514-8.073,2.65-13.696,4.344   c4.485,2.902,12.585,8.251,12.307,8.75s-11.558-4.467-15.563-5.928c1.597,3.947,5.914,12.531,5.468,12.731   c-0.446,0.201-5.436-6.275-9.518-10.757c-3.042,4.746-7.69,12.363-8.113,12.22c-0.423-0.144,2.182-8.589,3.695-13.543   c-5.122,1.312-14.288,5.612-14.595,5.131c-0.307-0.481,8.718-6.4,12.858-9.256c-3.875-2.42-12.906-6.799-12.785-7.277   c0.122-0.478,9.566,2.417,14.522,3.587c-1.131-4.072-4.695-12.299-4.28-12.512c0.415-0.213,5.483,7.388,8.405,10.775   c2.618-4.046,6.192-12.027,6.706-11.896c0.514,0.131-1.379,8.565-1.774,10.942c7.479-5.066,19.381-10.385,34.177-13.313H9.703   c-5.063,10.147-5.33,28.56,0,38.618h78.252C92.666,35.032,93.276,16.961,87.955,7.317z M67.029,39.634H52.504v-0.813   c0.952,0,4.906-1.216,4.906-3.504V16.87h-4.857v-0.813c2.849,0,5.563-1.434,9.385-4.724h1.084c0,4.61,0.005,16.903,0.005,23.984   c0,1.971,2.698,3.503,4.002,3.503V39.634L67.029,39.634z M78.963,39.634c-8.945,0-10.291-7.794-10.291-12.164   c0-4.513,2.013-9.245,7.071-12.875c2.714-1.948,7.749-3.258,10.635-3.258v1.413c-4.476,0.809-10.719,4.526-10.923,9.811   C92.419,16.917,91.529,39.634,78.963,39.634z M81.008,25.362c-1.749-1.437-3.515-1.181-5.858-0.871   c-0.493,3.114-0.882,13.897,4.747,12.577C82.945,36.353,83.245,27.202,81.008,25.362z"/>
  </g>
</svg>
