<?xml version="1.0" encoding="UTF-8" standalone="no"?>
<svg xmlns="http://www.w3.org/2000/svg" xmlns:xlink="http://www.w3.org/1999/xlink" version="1.1" width="600" height="517.92493">
  <radialGradient cx="0" cy="0" r="1" fx="0" fy="0" id="radialGradient570" gradientUnits="userSpaceOnUse" gradientTransform="matrix(19.172806,0,0,-19.172806,134.7041,259.30273)" spreadMethod="pad">
    <stop style="stop-color:#bf99c3" offset="0"/>
    <stop style="stop-color:#7b5190" offset="0.7"/>
    <stop style="stop-color:#612c75" offset="1"/>
  </radialGradient>
  <radialGradient cx="0" cy="0" r="1" fx="0" fy="0" id="radialGradient2995" xlink:href="#radialGradient570" gradientUnits="userSpaceOnUse" gradientTransform="matrix(19.172806,0,0,-19.172806,134.7041,259.30273)" spreadMethod="pad"/>
  <radialGradient cx="0" cy="0" r="1" fx="0" fy="0" id="radialGradient2998" xlink:href="#radialGradient570" gradientUnits="userSpaceOnUse" gradientTransform="matrix(245.187,0,0,245.187,299.98849,258.94013)" spreadMethod="pad"/>
  <path d="m 260.21569,129.8393 43.45454,110.33718 45.51345,-110.33718 -88.96799,0 z m 314.20777,388.0856 -548.84692,0 0,-131.32274 157.30849,0 L 73.37909,129.92882 0,129.92882 0,0 l 600,0 0,129.92882 -75.23339,0 -107.39588,258.01611 157.05273,0 0,129.97997 z" fill="#ffffff"/>
  <path d="m 303.06918,313.70903 87.22879,-211.35172 -170.44205,0 83.21326,211.35172 z m -250.01065,100.36233 171.43953,0 -132.98521,-311.61174 -64.03086,0 0,-75.02878 545.04881,0 0,75.02878 -66.08978,0 -130.23573,312.9673 170.74897,0 0,74.97762 -493.89573,0 0,-76.33318 z" style="fill:#612c75"/>
  <path d="m 35.11659,35.11639 0,59.64448 56.39626,0 5.10252,0 1.94382,4.65493 132.98521,311.6629 4.53983,10.691 -11.58617,0 -163.80494,0 0,60.9361 478.5626,0 0,-59.59334 -163.10158,0 -11.48386,0 4.43752,-10.63983 130.28689,-313.00567 1.94382,-4.70609 5.15367,0 58.34008,0 0,-59.64448 -529.71567,0 z m 260.76559,281.39306 -83.1749,-211.35171 -4.09225,-10.48639 11.24089,0 170.44205,0 11.48386,0 -4.39916,10.63984 -87.26715,211.35172 -7.23816,17.63503 -6.99518,-17.78849 z" style="fill:url(#radialGradient2998)"/>
</svg>
