<?xml version="1.0" encoding="UTF-8" standalone="no"?>
<svg xmlns="http://www.w3.org/2000/svg" xmlns:xlink="http://www.w3.org/1999/xlink" version="1.1" width="600" height="416.78857">
  <linearGradient x1="0" y1="0" x2="1" y2="0" id="linearGradient302" gradientUnits="userSpaceOnUse" gradientTransform="matrix(30.630951,30.630951,30.630951,-30.630936,610.07422,464.40234)" spreadMethod="pad">
    <stop style="stop-color:#536e78" offset="0"/>
    <stop style="stop-color:#99aebc" offset="0.3"/>
    <stop style="stop-color:#d9eaf3" offset="0.5"/>
    <stop style="stop-color:#99aebc" offset="0.7"/>
    <stop style="stop-color:#536e78" offset="1"/>
  </linearGradient>
  <linearGradient x1="0" y1="0" x2="1" y2="0" id="linearGradient2995" xlink:href="#linearGradient302" gradientUnits="userSpaceOnUse" gradientTransform="matrix(30.630951,30.630951,30.630951,-30.630936,610.07422,464.40234)" spreadMethod="pad"/>
  <linearGradient x1="0" y1="0" x2="1" y2="0" id="linearGradient2998" xlink:href="#linearGradient302" gradientUnits="userSpaceOnUse" gradientTransform="matrix(364.7196,-364.7196,364.7196,364.71942,117.63086,438.41974)" spreadMethod="pad"/>
  <path d="m 297.86295,155.58696 c -73.537,0 -146.97874,14.64548 -201.488521,40.18578 C 34.184703,224.93273 0,266.55924 0,313.01996 c 0,78.28785 139.21545,92.83808 181.91358,95.44569 0.22671,0 0.51152,0 0.73823,0 5.72722,0 10.7043,-3.85784 12.04978,-9.4898 1.39311,-5.81057 -1.53599,-11.85927 -7.0727,-14.27637 -33.91084,-15.0265 -80.64542,-46.18686 -80.64542,-65.48794 0,-5.72721 11.9069,-14.05014 53.24765,-26.32615 39.49518,-11.71638 89.63513,-15.0265 137.63183,-15.63375 47.53234,0.60772 99.81552,4.09597 139.81079,15.68138 48.04433,13.85963 55.30754,22.51594 55.30754,26.27852 0,19.25346 -46.69885,50.46144 -80.70495,65.48794 -5.48908,2.46473 -8.46581,8.4658 -7.02507,14.27637 1.40501,5.63196 6.3821,9.4898 12.04978,9.4898 0.28577,0 0.51152,0 0.79729,0 C 460.74883,405.85804 600,391.30781 600,313.01996 c 0,-98.55339 -153.62279,-157.433 -302.13753,-157.433 m 159.35001,177.06747 c 2.32185,-2.51235 2.9291,-6.23921 2.32185,-9.63268 -0.60773,-3.44109 -2.55998,-6.41782 -5.48908,-8.32292 -0.97637,-0.60773 -24.59965,-15.71711 -70.51265,-22.56357 -0.60773,-0.0381 -1.15497,-0.0857 -1.76222,-0.0857 -4.6556,0 -8.9778,2.64333 -11.16867,6.83456 -0.64297,1.29785 -16.50296,30.83886 -70.59599,30.96984 -54.09304,-0.13145 -69.95303,-29.67199 -70.65553,-30.96984 -2.14325,-4.19123 -6.51308,-6.83456 -11.15677,-6.83456 -0.55915,0 -1.16687,0.0476 -1.77413,0.0857 -45.85346,6.84646 -69.53628,21.95632 -70.56027,22.56357 -2.88147,1.9051 -4.88183,4.88183 -5.44145,8.32292 -0.59535,3.39347 0,7.0727 2.38138,9.63268 44.3651,48.65159 99.94649,84.13414 157.20677,84.13414 57.20073,0 111.19851,-34.8753 157.20676,-84.13414 M 403.63145,19.8126 l 0,0 c 0.321,0.42865 33.52982,46.6036 41.06688,129.40417 l 0.70299,7.34655 6.78693,2.9291 c 0.22671,0.14288 24.64728,10.59714 46.18686,21.76581 l 16.88398,8.78729 1.20259,-18.96721 C 516.74745,166.79182 521.95076,66.2857 420.23014,1.95273 418.18215,0.65488 415.95556,0 413.68134,0 c -3.40537,0 -6.70358,1.35739 -9.12068,3.95309 -4.09597,4.38174 -4.46509,11.02579 -0.92874,15.85999 M 83.538793,171.07831 C 83.264459,166.79182 78.002086,66.38096 179.57983,2.00036 c 0.0476,0 0.0953,-0.0476 0.0953,-0.0476 2.09562,-1.29785 4.36984,-1.95273 6.65596,-1.95273 3.34584,0 6.64405,1.35739 9.06115,3.95309 4.04834,4.38174 4.46509,11.02579 0.94017,15.82427 l 0.0476,0.0381 c -0.38103,0.42865 -33.58936,46.6036 -41.12643,129.40417 l -0.64297,7.34655 -6.84647,2.9291 c -0.2267,0.14288 -24.64728,10.59714 -46.13923,21.76581 l -16.883976,8.78729 -1.202597,-18.96769 z"/>
  <path d="m 457.07008,148.0979 c 0,0 24.83779,10.59714 46.97271,22.18255 l 0,0 c 0,0 6.23921,-96.64829 -90.40907,-157.86165 l 0,0 c 0,0 35.43492,47.91336 43.43636,135.6791 M 95.91006,170.28045 c 22.13492,-11.58541 46.97271,-22.18255 46.97271,-22.18255 l 0,0 c 8.00144,-87.76574 43.4959,-135.6791 43.4959,-135.6791 l 0,0 C 89.718473,73.63216 95.91006,170.28045 95.91006,170.28045 M 12.371267,313.02034 c 0,62.93986 116.747133,79.82384 170.280543,83.02679 l 0,0 c 0,0 -91.623578,-40.45963 -91.623578,-76.83521 l 0,0 c 0,-32.74396 106.185708,-62.18972 206.834718,-63.43995 l 0,0 c 100.60138,1.25023 211.07357,30.69599 211.07357,63.43995 l 0,0 c 0,36.37558 -91.63548,76.83521 -91.63548,76.83521 l 0,0 c 53.48578,-3.20295 170.23291,-20.08693 170.23291,-83.02679 l 0,0 c 0,-89.30173 -147.10972,-145.01411 -289.671,-145.01411 l 0,0 c -142.56128,0 -285.491683,55.71238 -285.491683,145.01411 m 287.587293,29.25525 c -63.43995,-0.13098 -81.72894,-37.85203 -81.72894,-37.85203 l 0,0 c -43.71022,6.5607 -65.57129,20.74181 -65.57129,20.74181 l 0,0 c 0,0 55.71238,73.25124 147.30023,73.25124 l 0,0 c 91.57595,0 147.34786,-73.25124 147.34786,-73.25124 l 0,0 c 0,0 -21.86106,-14.18111 -65.58319,-20.74181 l 0,0 c 0,0 -18.22946,37.72105 -81.76467,37.85203" style="fill:url(#linearGradient2998)"/>
</svg>
