<?xml version="1.0" encoding="UTF-8" standalone="no"?>
<svg xmlns="http://www.w3.org/2000/svg" version="1.1" viewBox="0 0 368.17189 413.37697" height="116.66417mm" width="103.90629mm">
  <path d="m 184.08594,0 -167.76367,96.88282 31.52344,9.15234 c 58.23977,16.90878 92.66286,47.93551 126.87695,78.72071 l 9.36328,8.4258 9.36328,-8.4258 c 34.21409,-30.7852 68.63717,-61.81193 126.87695,-78.72071 l 31.52344,-9.15234 z M 0,114.57617 l 0,32.748 0,164.5528 11.69141,1.9551 c 54.53545,9.1147 94.10176,39.7434 133.25781,77.0234 l 23.6543,22.5215 0,-198.4414 -11.65039,-1.9824 c -58.65245,-9.9872 -89.31457,-33.7288 -133.2793,-75.75004 z m 368.17188,0 -23.67383,22.62696 c -43.96472,42.02124 -74.62683,65.76274 -133.2793,75.75004 l -11.65039,1.9824 0,198.4414 23.6543,-22.5215 c 39.15605,-37.2801 78.72236,-67.9087 133.25781,-77.0234 l 11.69141,-1.9551 z" style="fill:#808080"/>
  <path d="M 184.08594,16.166019 51.75,92.58985 c 61.27347,17.78955 98.12494,50.9754 132.33594,81.75781 34.211,-30.78244 71.06247,-63.96826 132.33594,-81.75781 L 184.08594,16.166019 Z M 14,147.32422 14,300.02344 c 58.50767,9.77864 100.80182,42.79864 140.60352,80.69336 l 0,-153.96289 C 92.97036,216.25917 58.48348,189.8413 14,147.32422 Z m 340.17188,0 c -44.48348,42.5171 -78.97036,68.93489 -140.60352,79.42969 l 0,153.96289 c 39.8017,-37.8948 82.09585,-70.91476 140.60352,-80.69336 l 0,-152.69922 z"/>
</svg>
