<?xml version="1.0" encoding="UTF-8" standalone="no"?>
<svg xmlns="http://www.w3.org/2000/svg" xmlns:xlink="http://www.w3.org/1999/xlink" version="1.1" width="600" height="608">
  <linearGradient x1="0" y1="0" x2="1" y2="0" id="linearGradient24" gradientUnits="userSpaceOnUse" gradientTransform="matrix(284.40039,0,0,-284.40039,7.7998047,153.45508)" spreadMethod="pad">
    <stop style="stop-color:#612c75" offset="0"/>
    <stop style="stop-color:#7b5190" offset="0.3"/>
    <stop style="stop-color:#bf99c3" offset="0.5"/>
    <stop style="stop-color:#7b5190" offset="0.7"/>
    <stop style="stop-color:#612c75" offset="1"/>
  </linearGradient>
  <linearGradient x1="0" y1="0" x2="1" y2="0" id="linearGradient3056" xlink:href="#linearGradient24" gradientUnits="userSpaceOnUse" gradientTransform="matrix(284.40039,0,0,-284.40039,7.79981,153.45508)" spreadMethod="pad"/>
  <g transform="matrix(2,0,0,-2,0,608)">
    <path d="m 214.473,296.201 -44.674,-44.67 0,-70.152 27.236,27.231 c 3.791,-7.377 5.765,-15.536 5.765,-24 l 0,0 c 0,-29.114 -23.686,-52.798 -52.8,-52.798 l 0,0 c -29.115,0 -52.8,23.684 -52.8,52.798 l 0,0 c 0,8.458 1.976,16.613 5.773,23.994 l 0,0 27.227,-27.225 0,70.152 -44.672,44.67 -77.729,0 0,-79.425 32.632,32.628 21.738,0 2.125,-2.125 C 51.032,229.163 43.799,207.174 43.799,184.607 l 0,0 c 0,-47.777 32.439,-89.854 78.001,-102.389 l 0,0 0,-44.969 28.2,-26.539 28.2,26.539 0,44.969 c 45.562,12.535 78,54.612 78,102.389 l 0,0 c 0,22.574 -7.229,44.568 -20.481,62.685 l 0,0 2.112,2.112 21.738,0 32.631,-32.628 0,79.425 -77.727,0 z" style="fill:url(#linearGradient3056)"/>
    <path d="m 300,304 -15.601,0 -66.695,0 -6.462,0 -4.569,-4.568 -40.104,-40.101 -4.569,-4.569 0,-6.461 0,-48.093 0,-37.657 26.631,26.626 5.291,5.29 c 0.715,-3.202 1.078,-6.5 1.078,-9.858 0,-24.812 -20.187,-44.997 -45,-44.997 -24.813,0 -45,20.185 -45,44.997 0,3.355 0.365,6.653 1.082,9.856 l 5.287,-5.287 26.631,-26.629 0,37.659 0,48.093 0,6.461 -4.569,4.569 -40.103,40.101 -4.569,4.568 -6.462,0 -66.697,0 -15.6,0 0,-15.6 0,-52.795 0,-37.659 26.631,26.629 17.031,17.029 7.633,0 C 41.345,224.379 36,204.705 36,184.607 36,158.309 45.175,132.646 61.834,112.35 75.521,95.674 93.724,83.209 114,76.443 l 0,-35.824 0,-6.74 4.908,-4.619 L 139.309,10.062 150,0 l 10.691,10.062 20.401,19.198 4.908,4.619 0,6.74 0,35.824 c 20.275,6.766 38.479,19.231 52.166,35.907 16.659,20.296 25.834,45.959 25.834,72.257 0,20.1 -5.339,39.773 -15.28,56.997 l 7.618,0 17.031,-17.029 26.631,-26.629 0,37.659 0,52.795 0,15.6 z m -15.601,-15.6 0,-52.795 -21.599,21.598 -28.2,0 -9.285,-9.284 c 14.403,-17.111 23.085,-39.194 23.085,-63.312 0,-47.344 -33.448,-86.867 -78,-96.26 l 0,-47.728 -20.4,-19.198 -20.4,19.198 0,47.728 c -44.553,9.393 -78,48.916 -78,96.26 0,24.118 8.692,46.192 23.099,63.299 l -9.299,9.297 -28.2,0 -21.6,-21.598 0,52.795 66.697,0 40.103,-40.099 0,-48.093 -20.808,20.806 C 93.949,210.879 89.4,198.282 89.4,184.609 c 0,-33.466 27.131,-60.595 60.6,-60.595 33.469,0 60.6,27.129 60.6,60.595 0,13.673 -4.541,26.278 -12.183,36.413 l -20.817,-20.814 0,48.093 40.104,40.099 66.695,0" fill="#ffffff"/>
  </g>
</svg>
