<?xml version="1.0" encoding="UTF-8" standalone="no"?>
<svg xmlns="http://www.w3.org/2000/svg" version="1.1" width="600" height="608">
  <path d="M 31.201172 31.197266 L 31.201172 136.78906 L 74.400391 93.591797 L 130.79883 93.591797 L 149.39648 112.18555 C 120.58448 146.39555 103.19922 190.54525 103.19922 238.78125 C 103.19922 333.46525 170.09322 412.51273 259.19922 431.30273 L 259.19922 526.75586 L 300 565.15234 L 340.80078 526.75586 L 340.80078 431.30273 C 429.90478 412.51273 496.80078 333.46525 496.80078 238.78125 C 496.80078 190.54925 479.43686 146.3782 450.63086 112.1582 L 469.20117 93.591797 L 525.59961 93.591797 L 568.80078 136.78906 L 568.80078 31.197266 L 435.4082 31.197266 L 355.19922 111.39648 L 355.19922 207.57812 L 396.83398 165.94727 C 412.11798 186.22127 421.19922 211.43125 421.19922 238.78125 C 421.19922 305.71125 366.936 359.96875 300 359.96875 C 233.062 359.96875 178.80078 305.71125 178.80078 238.78125 C 178.80078 211.43125 187.89964 186.2408 203.18164 165.9668 L 244.80078 207.57812 L 244.80078 111.39648 L 164.59375 31.197266 L 31.201172 31.197266 z "/>
</svg>
