<?xml version="1.0" encoding="UTF-8" standalone="no"?>
<svg
   version="1.1"
   id="Layer_1"
   x="0px"
   y="0px"
   width="618.82"
   height="500"
   viewBox="0 0 618.82 500"
   sodipodi:docname="80.svg"
   inkscape:version="1.1.1 (3bf5ae0d25, 2021-09-20)"
   xmlns:inkscape="http://www.inkscape.org/namespaces/inkscape"
   xmlns:sodipodi="http://sodipodi.sourceforge.net/DTD/sodipodi-0.dtd"
   xmlns="http://www.w3.org/2000/svg"
   xmlns:svg="http://www.w3.org/2000/svg">
  <defs
     id="defs27" />
  <sodipodi:namedview
     id="namedview25"
     pagecolor="#ffffff"
     bordercolor="#666666"
     borderopacity="1.0"
     inkscape:pageshadow="2"
     inkscape:pageopacity="0.0"
     inkscape:pagecheckerboard="0"
     showgrid="false"
     inkscape:zoom="15.64"
     inkscape:cx="30.915"
     inkscape:cy="25"
     inkscape:window-width="1920"
     inkscape:window-height="986"
     inkscape:window-x="-11"
     inkscape:window-y="-11"
     inkscape:window-maximized="1"
     inkscape:current-layer="Layer_1" />
  <path
     style="fill:#808080;stroke-width:9.99989"
     d="M 267.01,496.44 C 202.37,484.61 136.3,450.93 65.668,393.83 27.538,363 11.678,344.03 4.3582,320.51 -10.082,274.12 12.118,227.28 59.748,203.66 c 12.959,-6.43 17.789,-7.51 36.949,-8.31 31.443,-1.33 55.203,6.26 80.783,25.78 l 10.69,8.16 V 208.93 188.58 L 166.38,166.79 144.59,145 V 72.499 0 h 59.63 59.62 V 13.81 27.62 L 309.12,27 354.41,26.37 355.1,13.19 355.79,0 h 59.34 59.34 v 71.719 71.711 l -21.65,22.44 -21.65,22.43 v 19.63 19.63 l 6.3,-4.17 c 36.27,-24.01 52.53,-29.42 84,-27.94 20.21,0.9 25.24,2.06 38.97,8.61 19.51,9.31 41.38,30.41 50.42,48.64 4.81,9.72 6.78,17.64 7.67,30.96 2.28,34.18 -8.6,58.12 -39.91,87.83 -100.74,95.63 -217.08,142.27 -311.68,124.95 z"
     id="path2" />
  <path
     d="M 285.54,483.59 C 231.9,478 172.76,453.02 121.08,414.14 c -9.77,-7.35 -17.77,-13.69 -17.77,-14.07 0,-0.4 5.54,-3.24 12.31,-6.34 15.28,-7 30.05,-20.12 36.46,-32.38 3.69,-7.06 4.9,-13.57 4.97,-26.75 0,-14.94 -0.9,-19.35 -6.81,-30.96 -15.55,-30.51 -53.933,-41.56 -76.963,-22.18 -6.67,5.62 -16.839,23.3 -14.649,25.49 0.5,0.5 4.09,-1.75 7.959,-5.01 12.34,-10.39 28.77,-13.12 43.073,-7.15 17.32,7.24 26.41,20.63 26.41,38.88 0,13.41 -4.52,23.43 -14.27,31.63 -21.57,18.15 -53.333,12.09 -81.532,-15.58 -42.0697,-41.26 -29.65,-105.03 25.75,-132.3 13.899,-6.85 16.969,-7.47 35.992,-7.31 24.18,0.2 36.63,3.93 57.91,17.36 14.7,9.28 39.71,34.53 39.71,40.09 0,1.68 0.8,3.05 1.72,3.05 0.9,0 1.43,-20.44 1.06,-45.43 L 201.75,179.75 181.2,159.3 160.65,138.84 V 76.249 13.66 l 44.15,0.63 44.15,0.63 0.7,14.33 0.7,14.34 h 59.4 59.4 l 0.7,-14.34 0.7,-14.33 44.14,-0.63 44.15,-0.63 v 62.589 62.591 l -20.55,20.46 -20.55,20.45 -0.7,45.6 c -0.6,40.37 -0.3,44.98 2.63,40.26 6.47,-10.47 33.64,-35.48 46.46,-42.79 37.94,-21.61 83.02,-16.61 112.49,12.5 16.21,16.02 23.33,32.21 24.31,55.32 0.7,17.13 0.2,20.25 -6.13,33.71 -8.05,17.21 -22.29,32.38 -39.71,42.33 -23.35,13.34 -44.04,12.37 -60.43,-2.82 -18.34,-17 -19.14,-39.94 -2.05,-58.86 14.57,-16.12 36.34,-18.06 55.03,-4.88 8.69,6.13 10.05,6.52 10.05,2.89 0,-6.07 -9.24,-18.88 -17.77,-24.63 -10.7,-7.21 -21.76,-8.6 -35.81,-4.52 -25.64,7.46 -41.36,26.54 -44.19,53.66 -3.01,28.78 11.53,52.91 39.08,64.84 7.02,3.04 12.78,6.64 12.8,8.02 0,2.55 -25.41,21.54 -48.12,35.91 -55.64,35.19 -123.99,53.15 -180.1,47.3 z m 48.32,-69.35 c 13.75,-6.4 29.01,-22.89 32.76,-35.4 12.22,-40.81 -15.11,-78.43 -56.93,-78.35 -35.34,0 -59.61,24.35 -59.54,59.56 0,18.33 5.21,30.63 18.2,43.23 17.17,16.66 43.73,21.1 65.51,10.96 z m 1.38,-200.62 c 10.22,-3.95 23.07,-16.93 28.69,-28.99 13.54,-29.06 1.25,-64.3 -27.86,-79.85 -13.04,-6.971 -39.77,-6.921 -53.04,0.1 -22.08,11.69 -32.82,29.31 -32.9,54 0,22.16 7.7,36.48 28.26,52.1 10.4,7.91 39.69,9.26 56.85,2.63 z"
     id="path4"
     style="stroke-width:9.99989" />
</svg>
