<?xml version="1.0" encoding="UTF-8" standalone="no"?>
<svg
   version="1.1"
   id="Layer_1"
   x="0px"
   y="0px"
   width="618.83"
   height="500"
   sodipodi:docname="T.svg"
   inkscape:version="1.1.1 (3bf5ae0d25, 2021-09-20)"
   xmlns:inkscape="http://www.inkscape.org/namespaces/inkscape"
   xmlns:sodipodi="http://sodipodi.sourceforge.net/DTD/sodipodi-0.dtd"
   xmlns="http://www.w3.org/2000/svg"
   xmlns:svg="http://www.w3.org/2000/svg">
  <defs
     id="defs22">
    <linearGradient
       id="SVGID_2_"
       gradientUnits="userSpaceOnUse"
       x1="7.6699"
       y1="39.256"
       x2="50.328"
       y2="9.3862"
       gradientTransform="matrix(9.9999,0,0,9.9999,0,0)">
      <stop
         style="stop-color:#612c75"
         offset="0"
         id="stop4" />
      <stop
         style="stop-color:#7b5190"
         offset="0.3"
         id="stop6" />
      <stop
         style="stop-color:#bf99c3"
         offset="0.5"
         id="stop8" />
      <stop
         style="stop-color:#7b5190"
         offset="0.7"
         id="stop10" />
      <stop
         style="stop-color:#612c75"
         offset="1"
         id="stop12" />
    </linearGradient>
  </defs>
  <sodipodi:namedview
     id="namedview20"
     pagecolor="#ffffff"
     bordercolor="#666666"
     borderopacity="1.0"
     inkscape:pageshadow="2"
     inkscape:pageopacity="0.0"
     inkscape:pagecheckerboard="0"
     showgrid="false"
     inkscape:zoom="15.64"
     inkscape:cx="30.914"
     inkscape:cy="25"
     inkscape:window-width="1920"
     inkscape:window-height="986"
     inkscape:window-x="-11"
     inkscape:window-y="-11"
     inkscape:window-maximized="1"
     inkscape:current-layer="Layer_1" />
  <path
     fill="#ffffff"
     d="M 267.01,496.44 C 202.37,484.61 136.3,450.93 65.677,393.83 c -38.13,-30.83 -54,-49.8 -61.32,-73.32 -14.439,-46.39 7.77,-93.23 55.38,-116.85 12.97,-6.43 17.8,-7.51 36.959,-8.31 31.434,-1.33 55.194,6.26 80.774,25.78 l 10.69,8.16 V 208.93 188.58 L 166.38,166.79 144.59,145 V 72.499 0 h 59.63 59.62 V 13.81 27.62 L 309.13,27 354.42,26.37 355.11,13.19 355.8,0 h 59.34 59.34 v 71.719 71.711 l -21.65,22.44 -21.65,22.43 v 19.63 19.63 l 6.31,-4.17 c 36.27,-24.01 52.53,-29.42 84,-27.94 20.21,0.9 25.23,2.06 38.96,8.61 19.51,9.31 41.39,30.41 50.42,48.64 4.81,9.72 6.78,17.64 7.67,30.96 2.29,34.18 -8.59,58.12 -39.9,87.83 -100.76,95.63 -217.1,142.27 -311.71,124.95 z m 66.86,-82.2 c 13.75,-6.4 29.01,-22.89 32.77,-35.4 12.22,-40.81 -15.12,-78.43 -56.93,-78.35 -35.34,0 -59.62,24.35 -59.55,59.56 0,18.33 5.21,30.63 18.19,43.23 17.17,16.66 43.75,21.1 65.52,10.96 z m 1.38,-200.62 c 10.21,-3.95 23.07,-16.93 28.68,-28.99 13.54,-29.06 1.24,-64.3 -27.86,-79.85 -13.04,-6.971 -39.77,-6.921 -53.05,0.1 -22.08,11.69 -32.82,29.31 -32.9,54 0,22.16 7.71,36.48 28.27,52.1 10.41,7.91 39.7,9.26 56.86,2.63 z"
     id="path2"
     style="stroke-width:9.99989" />
  <path
     fill="url(#SVGID_2_)"
     d="m 307.1,477.88 c -7.13,0 -14.16,-0.4 -20.86,-1.05 -52.03,-5.42 -110.74,-30.25 -161.05,-68.12 -3.84,-2.89 -7.08,-5.38 -9.68,-7.4 0.9,-0.4 1.91,-0.9 2.97,-1.38 16.63,-7.63 32.56,-21.87 39.64,-35.42 4.21,-8.08 5.66,-15.62 5.75,-29.86 0,-16.04 -1.13,-21.46 -7.56,-34.09 -11,-21.58 -32.89,-35.54 -55.77,-35.54 -11.954,0 -22.883,3.9 -31.633,11.25 -14.76,12.41 -24.69,27.38 -20.19,41.48 0,0 10.21,-7.8 21.61,-13.51 7.75,-3.87 15.499,-5.75 23.779,-5.75 4.46,0 8.814,0.9 12.924,2.59 14.75,6.16 22.23,17.13 22.23,32.6 0,11.38 -3.65,19.52 -11.84,26.43 -6.89,5.8 -15.01,8.75 -24.104,8.75 -15.379,0 -32.529,-8.52 -48.289,-23.97 -17.72,-17.38 -25.8,-40.34 -22.16,-62.99 3.95,-24.59 20.77,-45.86 46.16,-58.36 11.78,-5.8 14.409,-6.64 28.759,-6.64 h 4.164 c 22.93,0.2 34.09,3.54 54.31,16.31 14.03,8.86 34.12,29.92 36.58,35.18 5.01,7.93 14.62,39.75 14.62,39.75 0,0 2.42,-36.48 1.74,-83.07 L 208.5,176.9 167.43,136.03 V 20.57 l 75,1.06 1.37,28.749 h 131.79 l 1.37,-28.749 74.99,-1.06 v 115.44 l -41.06,40.87 -0.7,48.37 c -0.6,41.58 -1.04,85 -1.04,85 0,0 11.41,-32.71 16.27,-41.06 5.63,-9.68 32.24,-33.72 44.04,-40.46 14.29,-8.13 30.15,-12.44 45.83,-12.44 22.15,0 42.93,8.48 58.52,23.88 14.92,14.74 21.38,29.45 22.29,50.77 0.7,16.09 0.3,18.09 -5.5,30.53 -7.51,16.04 -20.63,30.01 -36.92,39.32 -9.79,5.6 -19.03,8.44 -27.41,8.44 -9.2,0 -17.61,-3.48 -25.02,-10.34 -15.49,-14.37 -16.11,-33.26 -1.61,-49.31 6.7,-7.41 15.09,-11.34 24.29,-11.33 16.07,0 45.19,21.61 45.19,21.61 0,0 1.49,-30.61 -23.41,-47.11 -7.99,-5.28 -16.18,-7.95 -25.18,-7.95 -5.13,0 -10.47,0.8 -16.35,2.53 -28.5,8.3 -45.92,29.42 -49.05,59.49 -3.33,31.82 12.79,58.65 43.13,71.8 2.07,0.9 3.85,1.77 5.3,2.54 -7.87,6.49 -24.7,18.73 -41.56,29.39 -47.55,30.07 -104,47.33 -154.9,47.33 z m 2.48,-198.16 c -22.91,0 -43.49,8.04 -57.94,22.49 -14.46,14.46 -22.4,35.01 -22.35,57.85 0,24.52 7.16,41.39 24.54,58.23 14.46,14.05 34.6,22.11 55.24,22.11 0,0 0,0 0,0 11.49,0 22.98,-2.53 33.22,-7.3 18.7,-8.68 38.9,-30.63 44.1,-47.89 7.92,-26.44 3.66,-53.39 -11.67,-73.97 -14.9,-20.03 -38.59,-31.51 -64.97,-31.51 h -0.2 z m 0.2,-200.881 c -14.23,0 -27.45,2.69 -36.26,7.34 -29.69,15.711 -44.17,39.501 -44.28,72.731 0,29.6 10.45,49.17 37.61,69.8 8.15,6.18 23.7,9.88 41.61,9.88 v 0 c 13.21,0 25.71,-2.03 35.22,-5.7 14.25,-5.5 31.46,-22.76 39.16,-39.3 18.26,-39.31 1.84,-86.54 -37.43,-107.541 -8.59,-4.58 -21.59,-7.21 -35.67,-7.21 z"
     id="path15"
     style="fill:url(#SVGID_2_);stroke-width:9.99989" />
</svg>
