<?xml version="1.0" encoding="UTF-8" standalone="no"?>
<svg xmlns="http://www.w3.org/2000/svg" version="1.1" width="600" height="503.24957">
  <path d="m 171.38394,0 c 0,0 -31.64677,3.38336 -31.64677,36.15792 L 22.089835,68.98749 c 0,0 -29.3911998,11.27786 -20.3689098,49.74636 L 99.013085,481.75713 c 0,0 20.368925,27.17689 44.107445,20.41018 l 156.94103,-43.19971 156.87227,43.19971 c 23.73852,6.76671 44.10743,-20.41018 44.10743,-20.41018 L 598.27842,118.73385 C 607.3007,80.26535 577.92325,68.98749 577.92325,68.98749 L 460.31719,36.15792 C 460.31719,3.38336 428.6154,0 428.6154,0 L 171.38394,0 z"/>
  <path d="m 172.4017,13.54718 c -1.44412,0.26187 -6.01027,1.27908 -10.2601,4.12605 -6.06529,4.02977 -8.85725,9.88876 -8.85725,18.48469 l 0,10.31511 c 0,0 -124.799145,34.81008 -126.628355,35.3052 -3.28708,1.49913 -13.05206,7.46815 -13.05206,23.03709 0,3.17706 0.42581,6.72546 1.33409,10.70021 0.16504,0.70198 94.885305,354.15229 96.384435,359.84623 4.19482,4.7312 16.49044,16.9718 28.04336,13.69847 l 160.64072,-44.21746 160.68199,44.21746 c 11.55293,3.27333 23.80729,-8.96727 28.0021,-13.69847 1.55415,-5.69394 96.2194,-359.1448 96.4257,-359.84623 0.92203,-3.97475 1.34784,-7.52315 1.34784,-10.70021 0,-15.56894 -9.83374,-21.53796 -13.05206,-23.03709 -1.82921,-0.49512 -126.68336,-35.3052 -126.68336,-35.3052 l 0,-10.31511 c 0,-8.59593 -2.79196,-14.45492 -8.81599,-18.48469 -4.29109,-2.84697 -8.81598,-3.86473 -10.31511,-4.12605 l -255.19595,0 z" style="fill:#ffffff"/>
  <path d="m 449.46569,64.47635 0,349.04973 c 0,0 -3.01201,22.61074 -21.1116,22.61074 l -97.9936,0 131.19451,36.21293 c 0,0 7.52316,3.7547 11.27786,-4.51115 l 96.54948,-358.18205 c 0,0 3.7547,-11.27786 -5.3226,-14.28987 L 449.46569,64.47635 z M 35.953355,96.12312 c -9.03604,2.99826 -5.26759,14.34489 -5.26759,14.34489 l 96.480715,358.12704 c 3.76846,8.26584 11.34663,4.51114 11.34663,4.51114 l 131.13949,-36.15792 -97.99359,0 c -18.11334,0 -21.1116,-22.6795 -21.1116,-22.6795 l 0,-349.03598 -114.594055,30.89033 z m 137.961225,-65.60413 252.61029,0 c 5.26759,0 6.01028,6.76671 6.01028,6.76671 l 0,375.48394 c 0,6.06529 -6.01028,7.57817 -6.01028,7.57817 l -252.61029,0 c -5.26758,0 -5.26758,-7.57817 -5.26758,-7.57817 l 0,-375.48394 c 0,-4.51114 5.26758,-6.76671 5.26758,-6.76671"/>
  <path d="m 349.47784,207.70516 c 6.39537,-19.02108 9.62744,-35.93787 9.62744,-50.72286 0,-17.50819 -4.08479,-31.85308 -12.19935,-43.07592 -8.16957,-11.29162 -18.48468,-16.93055 -31.00035,-16.93055 -16.00906,0 -29.33619,8.76098 -39.96764,26.26916 -10.70021,17.57696 -16.00906,37.6708 -16.00906,60.28154 0,15.5827 3.86473,27.28691 11.49792,34.97511 7.67444,7.74322 17.02682,11.60795 28.09837,11.60795 8.91226,0 17.5632,-1.88423 25.88406,-5.58392 8.33462,-3.76846 16.33915,-9.35237 24.06861,-16.82051 m -133.12,151.23334 -10.90652,-11.49792 c 63.12851,-17.89329 108.2537,-56.25176 135.2793,-115.18545 -9.4624,7.04178 -18.85603,12.30937 -28.26342,15.89903 -9.35237,3.5484 -18.69098,5.3226 -27.98834,5.3226 -19.83253,0 -35.19517,-6.56041 -46.21172,-19.7225 -11.0578,-13.2171 -16.54544,-28.84106 -16.54544,-47.10569 0,-25.69152 9.03604,-49.54006 27.13563,-71.51813 18.09959,-22.01934 40.50402,-33.03588 67.32331,-33.03588 23.95858,0 43.02091,8.70596 57.1595,26.10412 14.06982,17.3569 21.16662,39.0599 21.16662,64.9027 0,41.10917 -18.00332,81.02179 -54.05121,119.91665 -36.04789,38.94988 -77.41838,60.92795 -124.09771,65.92047" style="fill:#ffffff"/>
</svg>
