<?xml version="1.0" encoding="UTF-8" standalone="no"?>
<svg xmlns="http://www.w3.org/2000/svg" version="1.1" width="600" height="503.24957">
  <linearGradient x1="0" y1="0" x2="1" y2="0" id="linearGradient720" gradientUnits="userSpaceOnUse" gradientTransform="matrix(29.487183,-29.487183,-29.487183,-29.487183,466.44141,162.37598)" spreadMethod="pad">
    <stop style="stop-color:#8b723c" offset="0"/>
    <stop style="stop-color:#d2bb7b" offset="0.3"/>
    <stop style="stop-color:#ebd491" offset="0.5"/>
    <stop style="stop-color:#d2bb7b" offset="0.7"/>
    <stop style="stop-color:#8b723c" offset="1"/>
  </linearGradient>
  <path d="m 171.38442,0 c 0,0 -31.64674,3.38335 -31.64674,36.15788 L 22.076726,68.98741 c 0,0 -29.37741,11.27785 -20.35514,49.74631 l 97.29206,363.02288 c 0,0 20.368894,27.17686 44.107384,20.41015 l 156.88585,-43.19966 156.92711,43.19966 c 23.73849,6.76671 44.10738,-20.41015 44.10738,-20.41015 L 598.27842,118.73372 C 607.30069,80.26526 577.92328,68.98741 577.92328,68.98741 L 460.31734,36.15788 C 460.31734,3.38335 428.61559,0 428.61559,0 L 171.38442,0 z" fill="#ffffff"/>
  <path d="m 172.40217,13.54717 c -1.44411,0.26186 -6.01026,1.27907 -10.26009,4.12604 -6.06528,4.02977 -8.85723,9.88875 -8.85723,18.48467 l 0,10.3151 c 0,0 -124.812754,34.81004 -126.641974,35.30516 -3.27332,1.49913 -13.05204,7.46814 -13.05204,23.03706 0,3.17706 0.44011,6.72545 1.34784,10.70021 0.16504,0.70197 94.871454,354.15189 96.384334,359.84582 4.18105,4.7312 16.49041,16.97179 28.04333,13.69846 l 160.64054,-44.21741 160.62679,44.21741 c 11.60793,3.27333 23.86228,-8.96726 28.04333,-13.69846 1.5679,-5.69393 96.21929,-359.1444 96.38433,-359.84582 0.96274,-3.97476 1.34784,-7.52315 1.34784,-10.70021 0,-15.56892 -9.77872,-21.53793 -13.01078,-23.03706 C 571.58293,81.28302 446.71516,46.47298 446.71516,46.47298 l 0,-10.3151 c 0,-8.59592 -2.79195,-14.4549 -8.80222,-18.48467 -4.30484,-2.84697 -8.81598,-3.86473 -10.3151,-4.12604 l -255.19567,0 z"/>
  <g transform="matrix(13.753487,0,0,-13.753487,-6317.9511,2266.6434)">
    <path d="m 472.02,162.586 c 0,0 -0.387,-0.164 -0.387,-0.492 l 0,0 0,-27.305 c 0,0 0,-0.547 0.387,-0.547 l 0,0 18.363,0 c 0,0 0.437,0.113 0.437,0.547 l 0,0 0,27.305 c 0,0 -0.054,0.492 -0.437,0.492 l 0,0 -18.363,0 z m 20.031,-27.848 c 0,0 -0.215,-1.644 -1.531,-1.644 l 0,0 -7.129,0 9.539,-2.633 c 0,0 0.547,-0.273 0.82,0.328 l 0,0 7.02,26.039 c 0,0 0.273,0.824 -0.383,1.043 l 0,0 -8.336,2.246 0,-25.379 z m -30.067,23.078 c -0.656,-0.218 -0.382,-1.043 -0.382,-1.043 l 0,0 7.015,-26.035 c 0.278,-0.605 0.824,-0.332 0.824,-0.332 l 0,0 9.536,2.629 -7.125,0 c -1.317,0 -1.536,1.649 -1.536,1.649 l 0,0 0,25.378 -8.332,-2.246 z" style="fill:url(#linearGradient720)"/>
  </g>
  <path d="m 349.47784,207.70516 c 6.39537,-19.02108 9.61368,-35.93787 9.61368,-50.72286 0,-17.50819 -4.07103,-31.85308 -12.18559,-43.07592 -8.11455,-11.29162 -18.42967,-16.93055 -31.00035,-16.93055 -15.95405,0 -29.28118,8.76098 -39.96764,26.26916 -10.70021,17.57696 -16.00906,37.6708 -16.00906,60.28154 0,15.5827 3.86473,27.28691 11.48417,34.97511 7.68819,7.74322 17.04057,11.60795 28.09837,11.60795 8.92601,0 17.57695,-1.88423 25.89781,-5.58392 8.33462,-3.76846 16.33915,-9.35237 24.06861,-16.82051 m -133.12,151.23334 -10.96153,-11.49792 c 63.16976,-17.89329 108.30871,-56.25176 135.33431,-115.18545 -9.4624,7.04178 -18.86979,12.30937 -28.2084,15.89903 -9.40739,3.5484 -18.75976,5.3226 -28.04336,5.3226 -19.83253,0 -35.19517,-6.56041 -46.21172,-19.7225 -11.0578,-13.2171 -16.54544,-28.84106 -16.54544,-47.10569 0,-25.69152 9.02229,-49.54006 27.13563,-71.51813 18.09959,-22.01934 40.55903,-33.03588 67.30956,-33.03588 23.97233,0 43.03466,8.70596 57.17325,26.10412 14.12483,17.3569 21.16662,39.0599 21.16662,64.9027 0,41.10917 -18.00332,81.02179 -54.05121,119.91665 -35.99288,38.94988 -77.36336,60.92795 -124.09771,65.92047"/>
</svg>
