<?xml version="1.0" encoding="UTF-8" standalone="no"?>
<svg xmlns="http://www.w3.org/2000/svg" version="1.1" width="600" height="503.24899">
  <linearGradient x1="0" y1="0" x2="1" y2="0" id="linearGradient698" gradientUnits="userSpaceOnUse" gradientTransform="matrix(29.487183,-29.487183,-29.487183,-29.487183,383.19482,162.37598)" spreadMethod="pad">
    <stop style="stop-color:#536e78" offset="0"/>
    <stop style="stop-color:#99aebc" offset="0.3"/>
    <stop style="stop-color:#d9eaf3" offset="0.5"/>
    <stop style="stop-color:#99aebc" offset="0.7"/>
    <stop style="stop-color:#536e78" offset="1"/>
  </linearGradient>
  <path d="m 171.38442,0 c 0,0 -31.64674,3.38335 -31.64674,36.15788 L 22.076726,68.98741 c 0,0 -29.37741,11.27785 -20.35514,49.74631 l 97.29206,363.02288 c 0,0 20.368894,27.17686 44.107384,20.41015 l 156.88585,-43.19966 156.92711,43.19966 c 23.73849,6.76671 44.10738,-20.41015 44.10738,-20.41015 L 598.27842,118.73372 C 607.30069,80.26526 577.92328,68.98741 577.92328,68.98741 L 460.31734,36.15788 C 460.31734,3.38335 428.61559,0 428.61559,0 L 171.38442,0 z" fill="#ffffff"/>
  <path d="m 172.40217,13.54717 c -1.44411,0.26186 -6.01026,1.27907 -10.26009,4.12604 -6.06528,4.02977 -8.85723,9.88875 -8.85723,18.48467 l 0,10.3151 c 0,0 -124.812754,34.81004 -126.641974,35.30516 -3.27332,1.49913 -13.05204,7.46814 -13.05204,23.03706 0,3.17706 0.44011,6.72545 1.34784,10.70021 0.16504,0.70197 94.871454,354.15189 96.384334,359.84582 4.18105,4.7312 16.49041,16.97179 28.04333,13.69846 l 160.64054,-44.21741 160.62679,44.21741 c 11.60793,3.27333 23.86228,-8.96726 28.04333,-13.69846 1.5679,-5.69393 96.21929,-359.1444 96.38433,-359.84582 0.96274,-3.97476 1.34784,-7.52315 1.34784,-10.70021 0,-15.56892 -9.77872,-21.53793 -13.01078,-23.03706 C 571.58293,81.28302 446.71516,46.47298 446.71516,46.47298 l 0,-10.3151 c 0,-8.59592 -2.79195,-14.4549 -8.80222,-18.48467 -4.30484,-2.84697 -8.81598,-3.86473 -10.3151,-4.12604 l -255.19567,0 z"/>
  <g transform="matrix(13.753471,0,0,-13.753471,-5173.022,2266.6408)">
    <path d="m 388.77,162.586 c 0,0 -0.383,-0.164 -0.383,-0.492 l 0,0 0,-27.305 c 0,0 0,-0.547 0.383,-0.547 l 0,0 18.367,0 c 0,0 0.437,0.113 0.437,0.547 l 0,0 0,27.305 c 0,0 -0.054,0.492 -0.437,0.492 l 0,0 -18.367,0 z m 20.035,-27.848 c 0,0 -0.219,-1.644 -1.535,-1.644 l 0,0 -7.125,0 9.539,-2.633 c 0,0 0.546,-0.273 0.82,0.328 l 0,0 7.019,26.039 c 0,0 0.274,0.824 -0.386,1.043 l 0,0 -8.332,2.246 0,-25.379 z m -30.067,23.078 c -0.656,-0.218 -0.383,-1.043 -0.383,-1.043 l 0,0 7.016,-26.035 c 0.274,-0.605 0.824,-0.332 0.824,-0.332 l 0,0 9.535,2.629 -7.125,0 c -1.316,0 -1.535,1.649 -1.535,1.649 l 0,0 0,25.378 -8.332,-2.246 z" style="fill:url(#linearGradient698)"/>
  </g>
  <path d="m 349.47811,207.70492 c 6.39537,-19.02105 9.55867,-35.93782 9.55867,-50.7228 0,-17.50817 -4.01602,-31.85304 -12.13056,-43.07587 -8.16957,-11.2916 -18.48467,-16.93052 -31.00033,-16.93052 -16.00904,0 -29.33615,8.76096 -39.96759,26.26913 -10.7002,17.57693 -16.02279,37.67075 -16.02279,60.28146 0,15.58268 3.87848,27.28689 11.4979,34.97508 7.68819,7.7432 17.04055,11.60793 28.09834,11.60793 8.92601,0 17.57694,-1.88423 25.89779,-5.58391 8.3346,-3.76845 16.33912,-9.35236 24.06857,-16.8205 M 216.34451,358.9381 205.39675,347.44019 c 63.16969,-17.89326 108.25357,-56.25169 135.27914,-115.18532 -9.40737,7.04178 -18.86976,12.30936 -28.20837,15.89901 -9.35236,3.5484 -18.70472,5.3226 -27.98831,5.3226 -19.83251,0 -35.19513,-6.56041 -46.26668,-19.72248 -11.00278,-13.21709 -16.49041,-28.84103 -16.49041,-47.10564 0,-25.69149 9.02228,-49.54 27.1356,-71.51805 18.04455,-22.01931 40.50397,-33.03584 67.25447,-33.03584 24.01356,0 43.08963,8.70595 57.17319,26.10409 14.12481,17.35688 21.16659,39.05986 21.16659,64.90263 0,41.10913 -17.94828,81.0217 -53.99613,119.91652 -36.04785,38.94983 -77.41829,60.92788 -124.11133,65.92039"/>
</svg>
