<?xml version="1.0" encoding="UTF-8" standalone="no"?>
<svg xmlns="http://www.w3.org/2000/svg" version="1.1" width="600" height="503.24957">
  <path d="M 171.38477 0 C 171.38477 0 139.73633 3.3836431 139.73633 36.158203 L 22.089844 68.988281 C 22.089844 68.988281 -7.3015869 80.265875 1.7207031 118.73438 L 99.013672 481.75781 C 99.013672 481.75781 119.38257 508.93468 143.12109 502.16797 L 300.0625 458.9668 L 456.93359 502.16797 C 480.67211 508.93468 501.04102 481.75781 501.04102 481.75781 L 598.2793 118.73438 C 607.30158 80.265875 577.92383 68.988281 577.92383 68.988281 L 460.31641 36.158203 C 460.31641 3.3836431 428.61523 4.7369516e-015 428.61523 0 L 171.38477 0 z M 172.40234 13.546875 L 427.59766 13.546875 C 429.09679 13.808195 433.62102 14.826858 437.91211 17.673828 C 443.93614 21.703598 446.72852 27.562273 446.72852 36.158203 L 446.72852 46.472656 C 446.72852 46.472656 571.5829 81.282224 573.41211 81.777344 C 576.63043 83.276474 586.46484 89.245516 586.46484 104.81445 C 586.46484 107.99151 586.03922 111.54087 585.11719 115.51562 C 584.91089 116.21706 490.24556 469.66739 488.69141 475.36133 C 484.4966 480.09253 472.24238 492.33388 460.68945 489.06055 L 300.00586 444.8418 L 139.36523 489.06055 C 127.81231 492.33388 115.51709 480.09253 111.32227 475.36133 C 109.82314 469.66739 15.10254 116.21761 14.9375 115.51562 C 14.02922 111.54089 13.603516 107.99151 13.603516 104.81445 C 13.603516 89.245516 23.36917 83.276474 26.65625 81.777344 C 28.48546 81.282224 153.28516 46.472656 153.28516 46.472656 L 153.28516 36.158203 C 153.28516 27.562273 156.07533 21.703598 162.14062 17.673828 C 166.39046 14.826858 170.95822 13.808745 172.40234 13.546875 z M 173.91406 30.519531 C 173.91406 30.519531 168.64648 32.774016 168.64648 37.285156 L 168.64648 412.76953 C 168.64648 412.76953 168.64648 420.34766 173.91406 420.34766 L 426.52539 420.34766 C 426.52539 420.34766 432.53516 418.83482 432.53516 412.76953 L 432.53516 37.285156 C 432.53516 37.285156 431.79298 30.519531 426.52539 30.519531 L 173.91406 30.519531 z M 449.46484 64.476562 L 449.46484 413.52539 C 449.46484 413.52539 446.45311 436.13672 428.35352 436.13672 L 330.36133 436.13672 L 461.55469 472.34961 C 461.55469 472.34961 469.07733 476.10374 472.83203 467.83789 L 569.38281 109.65625 C 569.38281 109.65625 573.13785 98.379197 564.06055 95.367188 L 449.46484 64.476562 z M 150.54688 65.232422 L 35.953125 96.123047 C 26.917085 99.121307 30.685547 110.46875 30.685547 110.46875 L 127.16602 468.5957 C 130.93448 476.86154 138.51367 473.10547 138.51367 473.10547 L 269.65234 436.94922 L 171.6582 436.94922 C 153.54486 436.94922 150.54687 414.26953 150.54688 414.26953 L 150.54688 65.232422 z M 316.17969 82.09375 C 340.13827 82.09375 359.20125 90.801057 373.33984 108.19922 C 387.40966 125.55612 394.50586 147.25876 394.50586 173.10156 C 394.50586 214.21073 376.50297 254.12272 340.45508 293.01758 C 304.40719 331.96746 263.03675 353.94693 216.35742 358.93945 L 205.45117 347.44141 C 268.57968 329.54812 313.70487 291.18955 340.73047 232.25586 C 331.26807 239.29764 321.87419 244.56464 312.4668 248.1543 C 303.11443 251.7027 293.77588 253.47656 284.47852 253.47656 C 264.64599 253.47656 249.28413 246.916 238.26758 233.75391 C 227.20978 220.53681 221.72266 204.91307 221.72266 186.64844 C 221.72266 160.95692 230.75783 137.10893 248.85742 115.13086 C 266.95701 93.111517 289.3604 82.09375 316.17969 82.09375 z M 315.90625 96.976562 C 299.89719 96.976563 286.56895 105.73596 275.9375 123.24414 C 265.23729 140.8211 259.92969 160.9166 259.92969 183.52734 C 259.92969 199.11004 263.79454 210.81375 271.42773 218.50195 C 279.10217 226.24517 288.45384 230.10938 299.52539 230.10938 C 308.43765 230.10938 317.0893 228.22508 325.41016 224.52539 C 333.74478 220.75693 341.74906 215.17322 349.47852 207.70508 C 355.87389 188.684 359.10547 171.76741 359.10547 156.98242 C 359.10547 139.47423 355.02081 125.12909 346.90625 113.90625 C 338.73668 102.61463 328.42192 96.976563 315.90625 96.976562 z "/></svg>
