<?xml version="1.0" encoding="UTF-8" standalone="no"?>
<svg xmlns="http://www.w3.org/2000/svg" version="1.1" width="600" height="589.33142">
  <path d="m 599.95991,331.55786 c -0.33945,-25.42965 -4.47892,-72.8561 -26.99138,-105.94706 -27.78697,-40.97327 -66.00512,-46.39511 -66.00512,-46.39511 0,0 10.59323,41.20899 2.99086,66.99224 -5.70178,19.46267 -18.13667,35.62509 -28.83304,45.40799 -8.05911,7.42558 -16.97274,13.76089 -26.59358,18.94701 l -11.38883,-9.32617 c -10.47537,-8.51584 -17.26741,-18.01881 -20.0962,-28.19951 -3.21186,-11.4625 -1.7238,-24.41306 3.63912,-31.4261 3.10872,-4.03692 8.73684,-7.82338 14.77749,-11.8603 5.64284,-3.80118 12.03709,-8.0591 17.842,-13.58408 19.10908,-18.18088 29.42238,-48.16311 26.82932,-78.32215 C 484.05315,113.2695 473.57779,89.38684 454.24772,64.92959 433.93052,39.20527 409.47326,20.3172 383.51321,10.25437 366.01007,3.46232 346.56213,0 325.7882,0 c -55.88335,0 -82.418,22.15886 -82.418,22.15886 0,0 31.66183,2.47519 66.65339,26.35785 14.95428,10.19543 27.50704,22.39459 35.05048,37.36361 6.49738,12.99476 8.73684,25.37072 5.98172,33.14989 -3.10873,8.61898 -14.79222,17.60628 -29.70231,22.8366 -9.0315,3.16765 -18.65234,4.67045 -28.71517,6.27638 -11.04997,1.72379 -22.45353,3.56545 -33.90129,7.6613 -18.01881,6.43845 -35.74295,18.57868 -52.77463,36.14075 -1.20813,-11.34463 -0.51508,-22.96919 2.13633,-33.96022 3.21185,-13.40729 10.29856,-26.23998 18.2398,-39.19054 22.33566,-36.31755 50.53517,-60.31807 50.53517,-60.31807 0,0 -43.40426,-3.86012 -85.98345,24.97292 -21.70213,14.73329 -41.9604,31.08723 -58.35854,50.31417 -28.03745,32.79629 -46.395119,72.1047 -53.069297,113.7115 -8.633705,54.33635 3.108723,109.17364 31.485027,146.75825 4.53785,5.93752 9.6061,11.6835 15.19002,17.14955 -1.03133,0.0589 -2.01846,0.0589 -2.99086,0.0589 -0.92878,0 -1.84166,0 -2.75512,-0.0589 C 107.38198,410.92548 93.856823,407.06595 80.213801,399.81717 25.022913,370.23273 1.4201894,316.13211 1.4201894,316.13211 c 0,0 -13.0094904,69.9389 39.7209386,139.92201 19.33007,25.72432 38.954806,46.89605 61.113662,60.87793 28.31738,17.84201 60.89267,25.78325 82.87473,30.39477 23.54379,4.95039 40.75227,8.17698 47.88318,9.42931 11.34463,9.26723 24.05946,16.86961 37.80561,22.33566 17.14955,6.79204 35.40409,10.23963 53.76176,10.23963 13.86402,0 27.80171,-1.94479 41.209,-6.04065 11.5067,-3.44759 22.49773,-8.33904 32.73736,-14.43862 13.58409,-1.62066 55.66235,-8.86944 99.56754,-38.15921 38.27708,-25.54751 68.37718,-60.377 83.9208,-99.44967 12.93582,-32.7521 18.51974,-63.48573 17.94514,-99.68541" style="fill:#ffffff"/>
  <path d="m 449.35627,444.88629 c 0,27.21238 -9.20831,54.26269 -25.78325,75.96482 -15.88248,20.715 -38.39495,36.19968 -63.36786,43.74312 -26.81458,8.05911 -56.11909,6.61525 -82.12334,-3.68332 -24.35412,-9.67977 -45.30485,-27.16818 -59.34567,-49.2681 -15.07215,-23.82373 -21.58426,-52.5389 -18.53447,-80.51741 2.88772,-26.59358 14.51228,-51.7433 32.69316,-71.3091 18.47554,-19.9636 43.28639,-33.31196 70.04204,-38.04134 26.77038,-4.65572 54.55735,-0.39839 78.67574,12.09602 41.09113,21.17173 67.74365,64.67913 67.74365,111.01531 m 34.75582,-6.96884 c 0,-37.34888 -13.12736,-73.54857 -37.06895,-102.26374 17.26741,-6.79204 33.38563,-16.75175 47.30858,-29.58444 16.47181,-15.14581 29.93804,-34.18122 34.71162,-55.54448 3.10872,-13.52516 2.63726,-27.96378 0,-41.6068 10.5343,7.76444 20.42033,17.09061 27.78698,27.74278 17.26741,25.20865 23.08706,63.07319 23.54379,95.19175 0.51507,33.96023 -4.65572,62.1008 -16.63388,92.2009 -14.37969,36.25862 -42.52026,68.24458 -76.30369,90.18244 -10.8879,7.07198 -22.39459,13.05369 -34.25489,18.12194 20.09621,-27.38917 30.91044,-60.48013 30.91044,-94.44035 M 428.80333,317.0603 c -36.59748,-31.64709 -85.58565,-44.95125 -133.17416,-36.25861 -2.2984,-0.57519 -4.55259,-1.20813 -6.85098,-1.9006 -31.48503,-9.66503 -60.89267,-31.76496 -73.0329,-63.19106 -0.51507,-1.32599 -1.03133,-2.65199 -1.44386,-4.02218 0.80974,-0.92879 1.67959,-1.84166 2.47519,-2.76986 13.93769,-14.96902 30.33584,-28.14058 48.57564,-34.69689 19.56581,-7.02778 41.209,-6.45318 62.51333,-13.87875 18.00408,-6.32058 35.72822,-18.35768 41.6068,-34.69689 5.34819,-14.79222 0.91347,-33.03203 -6.96884,-48.57564 -13.34836,-26.47572 -36.59748,-45.01019 -62.43967,-55.54449 25.26759,-3.78645 52.47997,-2.29839 76.36262,6.96884 24.63406,9.54717 45.70265,27.38918 62.4544,48.57565 14.43862,18.29874 25.72432,39.1316 27.74278,62.43966 1.94479,22.45353 -4.78832,47.19071 -20.8476,62.43966 -10.81423,10.3133 -25.88638,16.29502 -34.63796,27.80171 -9.66503,12.67063 -11.56563,32.11857 -6.96884,48.57565 4.31685,15.30788 14.27655,28.08164 26.53465,38.10027 l -1.9006,0.63294 z M 258.73702,292.30838 c -25.03185,11.2857 -46.67505,28.77411 -62.95533,50.81511 -16.23608,22.09992 -26.53465,47.94211 -29.93804,75.16922 -14.83641,-9.7829 -28.53837,-21.76106 -39.24947,-35.90502 -27.153442,-35.91975 -35.050483,-86.10132 -27.72804,-131.8629 6.20271,-38.95481 23.47012,-74.75669 48.56091,-104.04647 22.67452,-26.59358 51.80223,-47.88317 83.28726,-62.43966 -19.5658,18.57867 -35.28622,42.69706 -41.66573,69.34958 -6.04065,25.25285 -3.68332,52.77462 6.95411,76.36261 12.19916,27.16818 35.46302,49.03238 62.4544,62.43967 0.0471,0.0589 0.16265,0.0589 0.28052,0.11786 m -93.9247,153.03464 c 1.38493,29.98224 11.22677,58.93314 28.31738,83.62613 -1.38493,-0.29467 -2.71093,-0.57519 -4.08112,-0.81092 -26.99138,-5.52498 -53.58496,-13.40729 -76.31842,-27.80171 C 90.748689,486.4925 72.332082,466.5731 57.186265,444.8857 42.23198,423.36037 30.430618,400.11125 22.489377,375.47719 c 12.832692,17.03168 29.466571,31.52923 48.575643,41.6068 15.072151,8.00017 31.70603,13.23049 48.57564,13.86402 7.07198,0.29467 14.15869,-0.22041 21.17173,-1.42913 7.60238,5.80492 15.66148,11.1089 24.00052,15.82355"/>
</svg>
