<?xml version="1.0" encoding="UTF-8" standalone="no"?>
<svg xmlns="http://www.w3.org/2000/svg" xmlns:xlink="http://www.w3.org/1999/xlink" version="1.1" width="600" height="589.33142">
  <linearGradient x1="0" y1="0" x2="1" y2="0" id="linearGradient788" gradientUnits="userSpaceOnUse" gradientTransform="matrix(-29.673202,17.131836,17.131836,29.673218,233.18213,22.624023)" spreadMethod="pad">
    <stop style="stop-color:#8b723c" offset="0"/>
    <stop style="stop-color:#d2bb7b" offset="0.3"/>
    <stop style="stop-color:#ebd491" offset="0.5"/>
    <stop style="stop-color:#d2bb7b" offset="0.7"/>
    <stop style="stop-color:#8b723c" offset="1"/>
  </linearGradient>
  <linearGradient x1="0" y1="0" x2="1" y2="0" id="linearGradient2995" xlink:href="#linearGradient788" gradientUnits="userSpaceOnUse" gradientTransform="matrix(-29.673202,17.131836,17.131836,29.673218,233.18213,22.624023)" spreadMethod="pad"/>
  <linearGradient x1="0" y1="0" x2="1" y2="0" id="linearGradient2998" xlink:href="#linearGradient788" gradientUnits="userSpaceOnUse" gradientTransform="matrix(-437.18375,-252.40823,252.40823,-437.18399,554.93691,442.88222)" spreadMethod="pad"/>
  <path d="m 599.95991,331.55786 c -0.33945,-25.42965 -4.47892,-72.8561 -26.99138,-105.94706 -27.78697,-40.97327 -66.00512,-46.39511 -66.00512,-46.39511 0,0 10.59323,41.20899 2.99086,66.99224 -5.70178,19.46267 -18.13667,35.62509 -28.83304,45.40799 -8.05911,7.42558 -16.97274,13.76089 -26.59358,18.94701 l -11.38883,-9.32617 c -10.47537,-8.51584 -17.26741,-18.01881 -20.0962,-28.19951 -3.21186,-11.4625 -1.7238,-24.41306 3.63912,-31.4261 3.10872,-4.03692 8.73684,-7.82338 14.77749,-11.8603 5.64284,-3.80118 12.03709,-8.0591 17.842,-13.58408 19.10908,-18.18088 29.42238,-48.16311 26.82932,-78.32215 C 484.05315,113.2695 473.57779,89.38684 454.24772,64.92959 433.93052,39.20527 409.47326,20.3172 383.51321,10.25437 366.01007,3.46232 346.56213,0 325.7882,0 c -55.88335,0 -82.418,22.15886 -82.418,22.15886 0,0 31.66183,2.47519 66.65339,26.35785 14.95428,10.19543 27.50704,22.39459 35.05048,37.36361 6.49738,12.99476 8.73684,25.37072 5.98172,33.14989 -3.10873,8.61898 -14.79222,17.60628 -29.70231,22.8366 -9.0315,3.16765 -18.65234,4.67045 -28.71517,6.27638 -11.04997,1.72379 -22.45353,3.56545 -33.90129,7.6613 -18.01881,6.43845 -35.74295,18.57868 -52.77463,36.14075 -1.20813,-11.34463 -0.51508,-22.96919 2.13633,-33.96022 3.21185,-13.40729 10.29856,-26.23998 18.2398,-39.19054 22.33566,-36.31755 50.53517,-60.31807 50.53517,-60.31807 0,0 -43.40426,-3.86012 -85.98345,24.97292 -21.70213,14.73329 -41.9604,31.08723 -58.35854,50.31417 -28.03745,32.79629 -46.395119,72.1047 -53.069297,113.7115 -8.633705,54.33635 3.108723,109.17364 31.485027,146.75825 4.53785,5.93752 9.6061,11.6835 15.19002,17.14955 -1.03133,0.0589 -2.01846,0.0589 -2.99086,0.0589 -0.92878,0 -1.84166,0 -2.75512,-0.0589 C 107.38198,410.92548 93.856823,407.06595 80.213801,399.81717 25.022913,370.23273 1.4201894,316.13211 1.4201894,316.13211 c 0,0 -13.0094904,69.9389 39.7209386,139.92201 19.33007,25.72432 38.954806,46.89605 61.113662,60.87793 28.31738,17.84201 60.89267,25.78325 82.87473,30.39477 23.54379,4.95039 40.75227,8.17698 47.88318,9.42931 11.34463,9.26723 24.05946,16.86961 37.80561,22.33566 17.14955,6.79204 35.40409,10.23963 53.76176,10.23963 13.86402,0 27.80171,-1.94479 41.209,-6.04065 11.5067,-3.44759 22.49773,-8.33904 32.73736,-14.43862 13.58409,-1.62066 55.66235,-8.86944 99.56754,-38.15921 38.27708,-25.54751 68.37718,-60.377 83.9208,-99.44967 12.93582,-32.7521 18.51974,-63.48573 17.94514,-99.68541"/>
  <path d="m 300.06388,21.52533 c 25.84219,10.5343 49.15025,29.06877 62.43967,55.54449 l 0,0 c 7.88231,15.54361 12.25809,33.78342 6.96884,48.57564 l 0,0 c -5.87858,16.33921 -23.60272,28.37631 -41.6068,34.69689 l 0,0 c -21.30433,7.42557 -42.94752,6.85097 -62.51333,13.87875 l 0,0 c -18.2398,6.55631 -34.63795,19.72787 -48.57564,34.69689 l 0,0 c -0.7956,0.9282 -1.66486,1.84166 -2.47519,2.76986 l 0,0 c 0.41253,1.37019 0.9282,2.69619 1.44386,4.02218 l 0,0 c 12.14023,31.4261 41.54787,53.52603 73.0329,63.19106 l 0,0 c 2.29839,0.69247 4.61152,1.326 6.85098,1.9006 l 0,0 c 47.58851,-8.69264 96.57668,4.61152 133.11523,36.25861 l 0,0 2.01846,-0.63353 C 418.3869,306.40814 408.48613,293.63438 404.16928,278.3265 l 0,0 c -4.59679,-16.45708 -2.69619,-35.90502 6.96884,-48.57565 l 0,0 c 8.75158,-11.50669 23.82373,-17.48841 34.63796,-27.80171 l 0,0 c 16.05928,-15.24895 22.73346,-39.98613 20.8476,-62.43966 l 0,0 C 464.60522,116.20142 453.31952,95.36856 438.8809,77.06982 l 0,0 C 422.12915,55.88335 401.00162,38.04134 376.4265,28.49417 l 0,0 c -15.94141,-6.15851 -33.31196,-8.91363 -50.6383,-8.91363 l 0,0 c -8.69264,0 -17.32634,0.67773 -25.72432,1.94479 M 147.42705,146.47832 c -25.09079,29.28978 -42.3582,65.09166 -48.56091,104.04647 l 0,0 c -7.322443,45.76158 0.574598,95.94315 27.72804,131.8629 l 0,0 c 10.7111,14.14396 24.41306,26.12212 39.24947,35.90502 l 0,0 c 3.40339,-27.22711 13.70196,-53.0693 29.93804,-75.16922 l 0,0 c 16.28028,-22.041 37.92348,-39.52941 62.8964,-50.81511 l 0,0 c -0.0589,-0.0589 -0.1768,-0.0589 -0.221,-0.11786 l 0,0 c -26.99138,-13.40729 -50.25524,-35.27149 -62.4544,-62.43967 l 0,0 c -10.63743,-23.58799 -12.99476,-51.10976 -6.95411,-76.36261 l 0,0 c 6.37951,-26.65252 22.09993,-50.77091 41.66573,-69.34958 l 0,0 c -31.48503,14.55649 -60.61274,35.84608 -83.28726,62.43966 m 381.63629,104.04647 c -4.77358,21.36326 -18.23981,40.39867 -34.71162,55.54448 l 0,0 c -13.92295,12.83269 -30.04117,22.7924 -47.30858,29.58444 l 0,0 c 23.94159,28.71517 37.01001,64.91486 37.01001,102.26374 l 0,0 c 0,33.96022 -10.75529,67.05118 -30.8515,94.44035 l 0,0 c 11.8603,-5.06825 23.36699,-11.04996 34.25489,-18.12194 l 0,0 c 33.78343,-21.93786 61.924,-53.92382 76.30369,-90.18244 l 0,0 c 11.97816,-30.1001 17.14954,-58.24067 16.63388,-92.2009 l 0,0 c -0.45673,-32.11856 -6.27638,-69.9831 -23.54379,-95.19175 l 0,0 c -7.36665,-10.65217 -17.25268,-19.97834 -27.78698,-27.74278 l 0,0 c 2.63726,13.64302 3.10872,28.08164 0,41.6068 m -226.12646,71.25017 c -26.75565,4.72938 -51.5665,18.07774 -70.04204,38.04134 l 0,0 c -18.18088,19.5658 -29.80544,44.71552 -32.69316,71.3091 l 0,0 c -3.04979,27.97851 3.46232,56.69368 18.53447,80.51741 l 0,0 c 14.04082,22.09992 34.99155,39.58833 59.34567,49.2681 l 0,0 c 26.00425,10.29857 55.30876,11.74243 82.12334,3.68332 l 0,0 c 24.97291,-7.54344 47.48538,-23.02812 63.36786,-43.74312 l 0,0 c 16.57494,-21.70213 25.78325,-48.75244 25.78325,-75.96482 l 0,0 c 0,-46.33618 -26.59358,-89.84358 -67.74365,-111.01531 l 0,0 c -17.72414,-9.2083 -37.52568,-13.93769 -57.38615,-13.93769 l 0,0 c -7.13091,0 -14.20288,0.63354 -21.28959,1.84167 M 57.185675,444.88629 c 15.145818,21.68739 33.562425,41.6068 55.544485,55.47082 l 0,0 c 22.73346,14.39442 49.32704,22.27673 76.31842,27.80171 l 0,0 c 1.37019,0.23573 2.69619,0.51566 4.08112,0.81033 l 0,0 c -17.09061,-24.69299 -26.93245,-53.64389 -28.31738,-83.62613 l 0,0 c -8.33904,-4.71465 -16.39814,-10.01863 -24.00052,-15.82355 l 0,0 c -7.01304,1.20813 -14.15869,1.7238 -21.1128,1.42913 l 0,0 c -16.92854,-0.63353 -33.562419,-5.86385 -48.63457,-13.86402 l 0,0 C 51.955359,407.00701 35.32148,392.50946 22.488788,375.47778 l 0,0 c 7.941241,24.63405 19.742603,47.88318 34.696887,69.40851" style="fill:url(#linearGradient2998)"/>
</svg>
