<?xml version="1.0" encoding="UTF-8" standalone="no"?>
<svg xmlns="http://www.w3.org/2000/svg" version="1.1" width="600" height="280.20016">
  <path d="m 417.76678,106.68929 0,0 c 0.0369,0.36037 0.0369,0.72 0.0369,1.08 0,-0.36036 -0.0369,-0.72 -0.0369,-1.08" style="fill:#808080"/>
  <path d="m 300.0744,280.20017 -8.29847,-4.54154 C 264.98822,260.94477 241.19129,241.3663 229.40359,231.05552 l -64.08004,21.34156 -15.8954,5.30769 -5.55692,-15.83078 -9.08309,-25.89232 -5.55692,-15.75693 15.60924,-5.88001 58.95696,-22.17232 c -0.0738,-1.55077 -0.14769,-3.10154 -0.21268,-4.54154 l -39.41541,-15.1477 c -5.84308,4.10769 -12.83078,6.27692 -20.44616,6.27692 -15.64617,0 -29.02156,-9.09231 -31.55079,-10.92923 L 42.507718,95.07698 0,62.88004 53.326187,64.46773 c 2.926155,0.0738 71.538503,2.12308 93.572363,4.25539 19.93848,1.94769 30.07387,13.69847 33.89541,25.45847 l 22.09847,8.21539 -0.46154,-50.8431 L 201.84899,0 l 7.39385,9.72923 c 0,0 26.46463,39.26772 43.1631,55.27388 3.31385,3.21231 6.2677,5.48308 8.32616,6.27693 5.37231,-2.23385 16.9477,-15.60924 24.51694,-28.52309 l 14.71385,-24.98771 14.7877,24.98771 c 7.60616,12.91385 19.18155,26.28924 24.55386,28.52309 1.91078,-0.72 4.61539,-2.77846 7.71693,-5.65846 C 364.07062,49.61541 391.15372,9.25846 391.15372,9.25846 L 398.18757,0 l -0.58191,51.55388 -0.4704,50.8431 22.10771,-8.21539 c 3.82154,-11.76 13.95693,-23.51078 33.8954,-25.45847 22.03386,-2.13231 90.64621,-4.18154 93.57237,-4.25539 L 600,62.88004 557.49228,95.07698 488.22455,147.61855 c -2.88924,2.04923 -16.26463,11.14154 -31.91079,11.14154 -7.61539,0 -14.5754,-2.20615 -20.44617,-6.27692 l -39.45233,15.11078 c -0.0665,1.47692 -0.10117,3.02769 -0.21268,4.57846 l 58.98465,22.17232 15.61848,5.88001 -5.55693,15.75693 -9.08308,25.89232 -5.55693,15.83078 -15.89539,-5.30769 -64.08004,-21.34156 c -11.7877,10.31078 -35.58464,29.88925 -62.37235,44.60311 l -8.1877,4.54154 z" style="fill:#808080"/>
  <path d="m 299.96363,260.73247 c -35.69541,-19.6154 -66.48927,-49.00619 -66.48927,-49.00619 l -73.52312,24.48002 -9.08309,-25.8831 70.70774,-26.61232 c -0.72,-9.08308 -1.40308,-27.97848 -1.40308,-27.97848 l -60.22157,-23.11386 c -12.58155,19.57847 -37.82772,1.40308 -37.82772,1.40308 L 52.828094,81.48928 c 0,0 70.707736,2.12308 92.409286,4.21846 21.71078,2.08616 20.30771,20.98155 20.30771,20.98155 l 54.62772,20.29848 -0.72886,-75.60928 c 0,0 23.83386,37.13541 41.32618,37.13541 17.49232,0 39.19387,-37.13541 39.19387,-37.13541 l 0.0738,0 c 0,0 21.70155,37.13541 39.23079,37.13541 17.48309,0 41.31695,-37.13541 41.31695,-37.13541 l -0.72,75.60928 54.5908,-20.29848 c 0,0 -1.36615,-18.89539 20.34463,-20.98155 21.70155,-2.09538 92.40929,-4.21846 92.40929,-4.21846 l -69.30466,52.53234 c 0,0 -25.23694,18.17539 -37.81849,-1.40308 l -60.22157,23.11386 c 0,0 -0.68308,18.8954 -1.40308,27.97848 l 70.70774,26.61232 -9.08309,25.8831 -73.52312,-24.48002 c 0,0 -30.79386,29.39079 -66.52619,49.00619 l -0.0738,0 z"/>
</svg>
