<?xml version="1.0" encoding="UTF-8" standalone="no"?>
<svg xmlns="http://www.w3.org/2000/svg" version="1.1" width="600" height="280.20016">
  <radialGradient cx="0" cy="0" r="1" fx="0" fy="0" id="radialGradient444" gradientUnits="userSpaceOnUse" gradientTransform="matrix(19.464066,0,0,-19.46405,483.00195,257.4082)" spreadMethod="pad">
    <stop style="stop-color:#f6b91d" offset="0"/>
    <stop style="stop-color:#d3641c" offset="0.7"/>
    <stop style="stop-color:#bf331c" offset="1"/>
  </radialGradient>
  <path d="m 417.76678,106.68929 0,0 c 0.0369,0.36037 0.0369,0.72 0.0369,1.08 0,-0.36036 -0.0369,-0.72 -0.0369,-1.08" style="fill:#ffffff"/>
  <path d="m 300.0744,280.20017 -8.29847,-4.54154 C 264.98822,260.94477 241.19129,241.3663 229.40359,231.05552 l -64.08004,21.34156 -15.8954,5.30769 -5.55692,-15.83078 -9.08309,-25.89232 -5.55692,-15.75693 15.60924,-5.88001 58.95696,-22.17232 c -0.0738,-1.55077 -0.14769,-3.10154 -0.21268,-4.54154 l -39.41541,-15.1477 c -5.84308,4.10769 -12.83078,6.27692 -20.44616,6.27692 -15.64617,0 -29.02156,-9.09231 -31.55079,-10.92923 L 42.507718,95.07698 0,62.88004 53.326187,64.46773 c 2.926155,0.0738 71.538503,2.12308 93.572363,4.25539 19.93848,1.94769 30.07387,13.69847 33.89541,25.45847 l 22.09847,8.21539 -0.46154,-50.8431 L 201.84899,0 l 7.39385,9.72923 c 0,0 26.46463,39.26772 43.1631,55.27388 3.31385,3.21231 6.2677,5.48308 8.32616,6.27693 5.37231,-2.23385 16.9477,-15.60924 24.51694,-28.52309 l 14.71385,-24.98771 14.7877,24.98771 c 7.60616,12.91385 19.18155,26.28924 24.55386,28.52309 1.91078,-0.72 4.61539,-2.77846 7.71693,-5.65846 C 364.07062,49.61541 391.15372,9.25846 391.15372,9.25846 L 398.18757,0 l -0.58191,51.55388 -0.4704,50.8431 22.10771,-8.21539 c 3.82154,-11.76 13.95693,-23.51078 33.8954,-25.45847 22.03386,-2.13231 90.64621,-4.18154 93.57237,-4.25539 L 600,62.88004 557.49228,95.07698 488.22455,147.61855 c -2.88924,2.04923 -16.26463,11.14154 -31.91079,11.14154 -7.61539,0 -14.5754,-2.20615 -20.44617,-6.27692 l -39.45233,15.11078 c -0.0665,1.47692 -0.10117,3.02769 -0.21268,4.57846 l 58.98465,22.17232 15.61848,5.88001 -5.55693,15.75693 -9.08308,25.89232 -5.55693,15.83078 -15.89539,-5.30769 -64.08004,-21.34156 c -11.7877,10.31078 -35.58464,29.88925 -62.37235,44.60311 l -8.1877,4.54154 z" style="fill:#ffffff"/>
  <path d="m 299.96363,260.73247 c -35.69541,-19.6154 -66.48927,-49.00619 -66.48927,-49.00619 l -73.52312,24.48002 -9.08309,-25.8831 70.70774,-26.61232 c -0.72,-9.08308 -1.40308,-27.97848 -1.40308,-27.97848 l -60.22157,-23.11386 c -12.58155,19.57847 -37.82772,1.40308 -37.82772,1.40308 L 52.828094,81.48928 c 0,0 70.707736,2.12308 92.409286,4.21846 21.71078,2.08616 20.30771,20.98155 20.30771,20.98155 l 54.62772,20.29848 -0.72886,-75.60928 c 0,0 23.83386,37.13541 41.32618,37.13541 17.49232,0 39.19387,-37.13541 39.19387,-37.13541 l 0.0738,0 c 0,0 21.70155,37.13541 39.23079,37.13541 17.48309,0 41.28926,-37.13541 41.28926,-37.13541 l -0.69194,75.60928 54.5908,-20.29848 c 0,0 -1.36616,-18.89539 20.34463,-20.98155 21.66463,-2.09538 92.40929,-4.21846 92.40929,-4.21846 l -69.30466,52.53234 c 0,0 -25.23694,18.17539 -37.81849,-1.40308 l -60.22157,23.11386 c 0,0 -0.72,18.8954 -1.40308,27.97848 l 70.70773,26.61232 -9.08308,25.8831 -73.52312,-24.48002 c 0,0 -30.79386,29.39079 -66.52619,49.00619 l -0.0739,0 z" style="fill:#bf331c"/>
  <g transform="matrix(9.2307749,0,0,-9.2307749,-4158.4637,2533.6631)">
    <path d="m 478.75,264.441 c -1.426,0 -3.043,1.778 -4.012,3.039 l 0,0 0.067,-6.753 0.004,-0.657 -0.614,0.231 -5.918,2.199 -0.312,0.117 0.019,0.336 c 0.012,0.164 0.047,1.617 -1.793,1.793 l 0,0 c -1.695,0.164 -6.242,0.332 -8.57,0.406 l 0,0 6.375,-4.824 c 0.012,-0.008 1.055,-0.75 2.074,-0.75 l 0,0 c 0.59,0 1.043,0.254 1.379,0.777 l 0,0 0.196,0.309 0.343,-0.133 6.524,-2.5 0.277,-0.105 0.012,-0.297 c 0,-0.004 0.074,-2.035 0.152,-3.016 l 0,0 0.027,-0.34 -0.32,-0.117 -7.25,-2.726 0.695,-1.973 7.543,2.516 0.258,0.086 0.196,-0.188 c 0.035,-0.031 3.218,-3.055 6.898,-5.125 l 0,0 c 3.684,2.07 6.867,5.094 6.902,5.125 l 0,0 0.196,0.188 0.254,-0.086 7.543,-2.516 0.695,1.973 -7.246,2.726 -0.317,0.117 0.028,0.336 c 0.074,0.981 0.148,3.016 0.148,3.02 l 0,0 0.012,0.297 0.277,0.105 6.52,2.5 0.34,0.133 0.199,-0.305 c 0.34,-0.527 0.789,-0.781 1.387,-0.781 l 0,0 c 1.015,0 2.062,0.742 2.066,0.742 l 0,0 6.375,4.832 c -2.324,-0.074 -6.871,-0.242 -8.567,-0.406 l 0,0 c -1.839,-0.176 -1.808,-1.629 -1.796,-1.797 l 0,0 0.019,-0.332 -0.312,-0.117 -5.914,-2.199 -0.614,-0.231 0.004,0.657 0.067,6.753 c -0.969,-1.261 -2.59,-3.039 -4.012,-3.039 l 0,0 c -1.676,0 -3.469,2.43 -4.254,3.629 l 0,0 c -0.785,-1.199 -2.578,-3.629 -4.25,-3.629" style="fill:url(#radialGradient444)"/>
  </g>
</svg>
