<?xml version="1.0" encoding="UTF-8" standalone="no"?>
<svg xmlns="http://www.w3.org/2000/svg" version="1.1" width="600" height="280.20016">
  <radialGradient cx="0" cy="0" r="1" fx="0" fy="0" id="radialGradient426" gradientUnits="userSpaceOnUse" gradientTransform="matrix(19.465591,0,0,-19.465591,401.00195,257.40723)" spreadMethod="pad">
    <stop style="stop-color:#d9eaf3" offset="0"/>
    <stop style="stop-color:#99aebc" offset="0.66291797"/>
    <stop style="stop-color:#536e78" offset="1"/>
  </radialGradient>
  <path d="m 417.76678,106.68929 0,0 c 0.0369,0.36037 0.0369,0.72 0.0369,1.08 0,-0.36036 -0.0369,-0.72 -0.0369,-1.08" style="fill:#ffffff"/>
  <path d="m 300.0744,280.20017 -8.29847,-4.54154 C 264.98822,260.94477 241.19129,241.3663 229.40359,231.05552 l -64.08004,21.34156 -15.8954,5.30769 -5.55692,-15.83078 -9.08309,-25.89232 -5.55692,-15.75693 15.60924,-5.88001 58.95696,-22.17232 c -0.0738,-1.55077 -0.14769,-3.10154 -0.21268,-4.54154 l -39.41541,-15.1477 c -5.84308,4.10769 -12.83078,6.27692 -20.44616,6.27692 -15.64617,0 -29.02156,-9.09231 -31.55079,-10.92923 L 42.507718,95.07698 0,62.88004 53.326187,64.46773 c 2.926155,0.0738 71.538503,2.12308 93.572363,4.25539 19.93848,1.94769 30.07387,13.69847 33.89541,25.45847 l 22.09847,8.21539 -0.46154,-50.8431 L 201.84899,0 l 7.39385,9.72923 c 0,0 26.46463,39.26772 43.1631,55.27388 3.31385,3.21231 6.2677,5.48308 8.28924,6.27693 5.40923,-2.23385 16.98462,-15.60924 24.55386,-28.52309 l 14.71385,-24.98771 14.7877,24.98771 c 7.60616,12.91385 19.18155,26.28924 24.55386,28.52309 1.91078,-0.72 4.61539,-2.77846 7.71693,-5.65846 C 364.07062,49.61541 391.15372,9.25846 391.15372,9.25846 L 398.18757,0 l -0.58191,51.55388 -0.4704,50.8431 22.10771,-8.21539 c 3.82154,-11.76 13.95693,-23.51078 33.8954,-25.45847 22.03386,-2.13231 90.64621,-4.18154 93.57237,-4.25539 L 600,62.88004 557.49228,95.07698 488.22455,147.61855 c -2.88924,2.04923 -16.26463,11.14154 -31.91079,11.14154 -7.61539,0 -14.5754,-2.20615 -20.44617,-6.27692 l -39.45233,15.11078 c -0.0665,1.47692 -0.10117,3.02769 -0.21268,4.57846 l 58.98465,22.17232 15.61848,5.88001 -5.55693,15.75693 -9.08308,25.89232 -5.55693,15.83078 -15.89539,-5.30769 -64.08004,-21.34156 c -11.7877,10.31078 -35.58464,29.88925 -62.37235,44.60311 l -8.1877,4.54154 z" style="fill:#ffffff"/>
  <path d="m 299.96363,260.73247 c -35.69541,-19.6154 -66.48927,-49.00619 -66.48927,-49.00619 l -73.52312,24.48002 -9.08309,-25.8831 70.70774,-26.61232 c -0.72,-9.08308 -1.40308,-27.97848 -1.40308,-27.97848 l -60.22157,-23.11386 c -12.58155,19.57847 -37.82772,1.40308 -37.82772,1.40308 L 52.828094,81.48928 c 0,0 70.707736,2.12308 92.409286,4.21846 21.71078,2.08616 20.30771,20.98155 20.30771,20.98155 l 54.62772,20.29848 -0.72886,-75.60928 c 0,0 23.80617,37.13541 41.32618,37.13541 17.49232,0 39.19387,-37.13541 39.19387,-37.13541 l 0.0738,0 c 0,0 21.70155,37.13541 39.23079,37.13541 17.48309,0 41.28926,-37.13541 41.28926,-37.13541 l -0.69194,75.60928 54.5908,-20.29848 c 0,0 -1.36616,-18.89539 20.34463,-20.98155 21.66463,-2.09538 92.40929,-4.21846 92.40929,-4.21846 l -69.30466,52.53234 c 0,0 -25.23694,18.17539 -37.81849,-1.40308 l -60.22157,23.11386 c 0,0 -0.72,18.8954 -1.40308,27.97848 l 70.70773,26.61232 -9.08308,25.8831 -73.52312,-24.48002 c 0,0 -30.79386,29.39079 -66.52619,49.00619 l -0.0739,0 z" style="fill:#536e78"/>
  <g transform="matrix(9.2307749,0,0,-9.2307749,-3401.5402,2533.6631)">
    <path d="m 396.75,264.441 c -1.426,0 -3.047,1.778 -4.012,3.039 l 0,0 0.063,-6.753 0.008,-0.653 -0.618,0.227 -5.914,2.199 -0.312,0.117 0.023,0.332 c 0.008,0.168 0.043,1.621 -1.797,1.801 l 0,0 c -1.695,0.164 -6.242,0.328 -8.57,0.402 l 0,0 6.371,-4.824 c 0.012,-0.008 1.059,-0.746 2.078,-0.746 l 0,0 c 0.59,0 1.043,0.254 1.379,0.777 l 0,0 0.199,0.305 0.34,-0.133 6.524,-2.5 0.277,-0.105 0.012,-0.297 c 0,-0.004 0.074,-2.035 0.148,-3.016 l 0,0 0.031,-0.336 -0.32,-0.121 -7.25,-2.726 0.695,-1.973 7.543,2.516 0.258,0.082 0.196,-0.184 c 0.035,-0.035 3.218,-3.055 6.898,-5.125 l 0,0 c 3.68,2.07 6.871,5.09 6.902,5.125 l 0,0 0.2,0.184 0.253,-0.082 7.543,-2.516 0.692,1.973 -7.25,2.726 -0.313,0.121 0.024,0.336 c 0.078,0.981 0.148,3.012 0.148,3.016 l 0,0 0.016,0.297 0.273,0.105 6.524,2.5 0.343,0.133 0.2,-0.305 c 0.336,-0.523 0.785,-0.777 1.379,-0.777 l 0,0 c 1.019,0 2.066,0.738 2.07,0.742 l 0,0 6.379,4.828 c -2.328,-0.074 -6.875,-0.238 -8.571,-0.402 l 0,0 c -1.839,-0.18 -1.804,-1.633 -1.796,-1.801 l 0,0 0.019,-0.336 -0.312,-0.113 -5.914,-2.199 -0.614,-0.227 0.004,0.653 0.067,6.753 c -0.969,-1.261 -2.586,-3.039 -4.012,-3.039 l 0,0 c -1.672,0 -3.469,2.43 -4.254,3.629 l 0,0 c -0.785,-1.199 -2.578,-3.629 -4.25,-3.629" style="fill:url(#radialGradient426)"/>
  </g>
</svg>
