<?xml version="1.0" encoding="UTF-8" standalone="no"?>
<svg xmlns="http://www.w3.org/2000/svg" version="1.1" width="600" height="280.20016">
  <path d="m 299.96363,260.73247 c -35.69541,-19.6154 -66.48927,-49.00619 -66.48927,-49.00619 l -73.52312,24.48002 -9.08309,-25.8831 70.70774,-26.61232 c -0.72,-9.08308 -1.40308,-27.97848 -1.40308,-27.97848 l -60.22157,-23.11386 c -12.58155,19.57847 -37.82772,1.40308 -37.82772,1.40308 L 52.828094,81.48928 c 0,0 70.707736,2.12308 92.409286,4.21846 21.71078,2.08616 20.30771,20.98155 20.30771,20.98155 l 54.62772,20.29848 -0.72886,-75.60928 c 0,0 23.83386,37.13541 41.32618,37.13541 17.49232,0 39.19387,-37.13541 39.19387,-37.13541 l 0.0738,0 c 0,0 21.70155,37.13541 39.23079,37.13541 17.48309,0 41.31695,-37.13541 41.31695,-37.13541 l -0.72,75.60928 54.5908,-20.29848 c 0,0 -1.36615,-18.89539 20.34463,-20.98155 21.70155,-2.09538 92.40929,-4.21846 92.40929,-4.21846 l -69.30466,52.53234 c 0,0 -25.23694,18.17539 -37.81849,-1.40308 l -60.22157,23.11386 c 0,0 -0.68308,18.8954 -1.40308,27.97848 l 70.70774,26.61232 -9.08309,25.8831 -73.52312,-24.48002 c 0,0 -30.79386,29.39079 -66.52619,49.00619 l -0.0738,0 z"/>
</svg>
