<?xml version="1.0" encoding="utf-8"?>
<!-- Generator: Adobe Illustrator 15.1.0, SVG Export Plug-In . SVG Version: 6.00 Build 0)  -->
<!DOCTYPE svg PUBLIC "-//W3C//DTD SVG 1.1//EN" "http://www.w3.org/Graphics/SVG/1.1/DTD/svg11.dtd">
<svg version="1.1" id="Layer_1" xmlns="http://www.w3.org/2000/svg" xmlns:xlink="http://www.w3.org/1999/xlink" x="0px" y="0px"
	 width="155px" height="155px" viewBox="0 0 155 155" enable-background="new 0 0 155 155" xml:space="preserve">
<g id="Layer_1_1_">
</g>
<g id="Layer_3" display="none">
</g>
<g>
	<g>
		<g>
			<path d="M147.059,59.815c0,0-1.953,14.993-9.918,28.449c-1.043-6.016-2.477-11.636-4.173-16.906
				c2.524-25.354,12.562-32.389,12.562-32.389s-13.022-9.652-23.133-18.231c0,0-4.29,5.669-13.635,5.669
				c-0.657,0-1.306-0.021-1.949-0.053c-0.22-0.24-0.444-0.498-0.662-0.732c-12.863-13.86-23.121-20-28.487-22.545
				c-5.367,2.545-15.624,8.685-28.487,22.545c-0.218,0.234-0.442,0.492-0.662,0.732c-0.644,0.031-1.292,0.053-1.95,0.053
				c-9.345,0-13.635-5.669-13.635-5.669C22.819,29.317,9.797,38.97,9.797,38.97s10.038,7.034,12.562,32.389
				c-1.696,5.271-3.129,10.891-4.172,16.906c-7.965-13.456-9.918-28.449-9.918-28.449S4.016,72.511,4.016,92.272
				c0,32.632,12.247,51.287,12.247,51.287c1.136-4.692,6.144-18.836,14.682-32.693c2.526,0.235,12.615,1.668,24.527,10.022
				c-0.189-13.057-9.782-20.943-14.348-23.958c0.919-1.047,1.856-2.072,2.823-3.062c4.679,3.229,12.822,10.283,15.083,21.385
				c1.875-4.89,3.275-10.34,3.275-15.734c0-8.421-4.169-13.165-6.459-15.139c1.268-0.744,2.557-1.441,3.881-2.047
				c-0.001,0.001-0.003,0.003-0.004,0.004c2.917,2.931,6.718,8.427,6.718,17.182c0,8.979-3.382,17.863-6.795,24.545
				c5.952,4.868,12.176,11.512,18.017,20.61c5.841-9.099,12.064-15.742,18.017-20.61c-3.413-6.682-6.795-15.566-6.795-24.545
				c0-8.755,3.801-14.251,6.718-17.182c-0.001-0.001-0.002-0.002-0.003-0.003c1.324,0.605,2.613,1.302,3.88,2.046
				c-2.29,1.975-6.459,6.718-6.459,15.139c0,5.395,1.4,10.845,3.275,15.734c2.261-11.102,10.403-18.155,15.083-21.385
				c0.967,0.989,1.904,2.015,2.822,3.062c-4.565,3.015-14.158,10.901-14.348,23.958c11.912-8.354,22.002-9.787,24.527-10.022
				c8.539,13.858,13.545,28.001,14.682,32.693c0,0,12.248-18.655,12.248-51.287C151.311,72.511,147.059,59.815,147.059,59.815z"/>
		</g>
		<path fill="#FFFFFF" d="M134.04,95.958c-6.447-55.201-44.92-81.081-54.309-86.623v37.869c9.632,1.035,17.158,9.209,17.158,19.111
			c0,1.354-0.15,2.672-0.418,3.948c2.415-3.43,6.241-10.757,5.281-21.874c0,0,7.58,17.77-4.924,29.95
			c28.146,12.406,42.572,53.772,42.572,53.772c9.958-23.438,6.895-53.158,6.895-53.158C141.699,93.66,134.04,95.958,134.04,95.958z"
			/>
		<path fill="#FFFFFF" d="M58.497,78.34c-12.504-12.181-4.924-29.95-4.924-29.95c-0.96,11.117,2.866,18.444,5.281,21.874
			c-0.268-1.276-0.418-2.594-0.418-3.948c0-9.902,7.526-18.076,17.158-19.111V9.335c-9.389,5.542-47.861,31.422-54.309,86.623
			c0,0-7.659-2.298-12.256-17.004c0,0-3.063,29.72,6.895,53.158C15.925,132.112,30.351,90.746,58.497,78.34z"/>
	</g>
	<g>
		<path fill="#FFFFFF" d="M106.813,26.354c0.644,0.031,1.292,0.053,1.949,0.053c9.345,0,13.635-5.669,13.635-5.669
			c10.11,8.579,23.133,18.231,23.133,18.231s-10.037,7.034-12.562,32.389c1.654,5.141,3.052,10.621,4.087,16.471
			c-0.246-3.062,0.024-16.02,0.024-16.02c2.252-22.715,10.799-29.431,10.885-29.496l4.699-3.294l-4.671-3.373
			c-0.13-0.096-13.032-9.673-22.92-18.063l-3.335-2.829l-2.639,3.487c-0.098,0.119-3.329,4.028-10.337,4.028
			c-0.601,0-1.192-0.02-1.78-0.049l-4.301-0.206c1.136,1.146,2.288,2.333,3.47,3.606C106.368,25.856,106.593,26.114,106.813,26.354z
			"/>
		<g>
			<path fill="#FFFFFF" d="M138.809,142.591c-0.035-0.131-0.081-0.282-0.121-0.423c-0.066-0.231-0.133-0.462-0.209-0.717
				c-0.052-0.17-0.111-0.356-0.168-0.536c-0.078-0.255-0.158-0.511-0.248-0.785c-0.063-0.198-0.135-0.41-0.204-0.618
				c-0.094-0.283-0.19-0.571-0.294-0.872c-0.076-0.225-0.159-0.459-0.242-0.694c-0.107-0.309-0.219-0.623-0.336-0.946
				c-0.091-0.25-0.185-0.505-0.279-0.764c-0.125-0.336-0.254-0.68-0.387-1.03c-0.101-0.267-0.203-0.536-0.31-0.811
				c-0.141-0.363-0.288-0.735-0.437-1.111c-0.112-0.283-0.225-0.566-0.342-0.856c-0.16-0.394-0.326-0.797-0.494-1.201
				c-0.12-0.289-0.238-0.576-0.363-0.87c-0.183-0.434-0.375-0.879-0.568-1.324c-0.123-0.282-0.242-0.561-0.368-0.847
				c-0.215-0.487-0.441-0.987-0.669-1.486c-0.117-0.26-0.23-0.514-0.351-0.776c-0.299-0.648-0.61-1.308-0.928-1.972
				c-0.058-0.119-0.11-0.235-0.168-0.355c-0.379-0.787-0.772-1.585-1.177-2.39c-0.119-0.235-0.245-0.475-0.365-0.71
				c-0.29-0.569-0.582-1.139-0.885-1.714c-0.172-0.327-0.354-0.657-0.529-0.985c-0.263-0.489-0.524-0.978-0.796-1.469
				c-0.202-0.367-0.413-0.736-0.622-1.105c-0.258-0.457-0.516-0.913-0.781-1.372c-0.225-0.389-0.457-0.778-0.688-1.167
				c-0.26-0.438-0.521-0.875-0.787-1.313c-0.104-0.168-0.209-0.336-0.313-0.504c-2.525,0.235-12.615,1.668-24.527,10.022
				c0.189-13.057,9.782-20.943,14.348-23.959c-0.142-0.161-0.283-0.323-0.426-0.483c-0.656-0.734-1.324-1.456-2.004-2.163
				c-0.132-0.137-0.26-0.278-0.393-0.414c-4.68,3.229-12.822,10.283-15.083,21.385c-1.875-4.89-3.275-10.34-3.275-15.734
				c0-8.421,4.169-13.164,6.459-15.139c-0.134-0.079-0.268-0.155-0.401-0.232l-3.476-1.811c-2.917,2.931-6.718,8.427-6.718,17.182
				c0,8.979,3.382,17.863,6.795,24.545c-5.952,4.868-12.176,11.512-18.017,20.61c-5.841-9.099-12.064-15.742-18.017-20.61
				c3.413-6.682,6.795-15.566,6.795-24.545c0-8.755-3.801-14.251-6.718-17.182l-3.476,1.812c-0.134,0.076-0.268,0.153-0.401,0.231
				c2.29,1.975,6.459,6.718,6.459,15.139c0,5.395-1.4,10.845-3.275,15.734c-2.26-11.102-10.403-18.155-15.083-21.385
				c-0.133,0.137-0.262,0.278-0.395,0.416c-0.68,0.706-1.347,1.427-2.002,2.161c-0.143,0.16-0.284,0.322-0.426,0.483
				c4.566,3.016,14.159,10.902,14.348,23.959c-11.913-8.354-22.002-9.787-24.527-10.022c-0.103,0.167-0.208,0.333-0.31,0.5
				c-0.269,0.441-0.532,0.882-0.794,1.323c-0.229,0.385-0.458,0.771-0.682,1.155c-0.269,0.464-0.53,0.927-0.791,1.39
				c-0.205,0.362-0.412,0.727-0.612,1.088c-0.277,0.501-0.544,0.999-0.811,1.497c-0.171,0.318-0.347,0.639-0.514,0.956
				c-0.313,0.593-0.613,1.181-0.912,1.768c-0.111,0.218-0.229,0.439-0.338,0.656c-0.407,0.809-0.801,1.609-1.182,2.399
				c-0.045,0.094-0.086,0.184-0.131,0.277c-0.331,0.691-0.655,1.378-0.966,2.052c-0.113,0.246-0.219,0.484-0.329,0.729
				c-0.235,0.517-0.469,1.032-0.691,1.537c-0.12,0.271-0.233,0.536-0.349,0.804c-0.2,0.461-0.399,0.921-0.589,1.369
				c-0.119,0.28-0.231,0.554-0.345,0.828c-0.174,0.421-0.347,0.839-0.512,1.246c-0.112,0.278-0.22,0.55-0.328,0.822
				c-0.154,0.387-0.305,0.771-0.449,1.144c-0.103,0.266-0.202,0.526-0.3,0.784c-0.136,0.36-0.269,0.714-0.396,1.059
				c-0.092,0.25-0.183,0.496-0.27,0.737c-0.12,0.333-0.235,0.656-0.346,0.973c-0.08,0.228-0.16,0.455-0.235,0.675
				c-0.105,0.307-0.204,0.6-0.299,0.889c-0.067,0.202-0.136,0.408-0.199,0.602c-0.091,0.281-0.173,0.543-0.254,0.804
				c-0.054,0.174-0.112,0.355-0.162,0.521c-0.078,0.259-0.146,0.493-0.213,0.728c-0.039,0.138-0.083,0.286-0.119,0.414
				c-0.072,0.262-0.132,0.493-0.188,0.718c-0.018,0.069-0.041,0.152-0.057,0.219c0.015,0.022,0.028,0.043,0.028,0.043
				c1.029-4.249,5.225-16.246,12.344-28.763l1.905,0.176c4.108,0.38,25.518,3.703,43.634,31.927l3.48,5.423l3.48-5.423
				c18.116-28.224,39.525-31.547,43.634-31.927l1.905-0.176c7.119,12.517,11.314,24.514,12.344,28.763c0,0,0.013-0.021,0.028-0.043
				c-0.017-0.066-0.04-0.15-0.058-0.22C138.94,143.082,138.881,142.852,138.809,142.591z"/>
		</g>
		<path fill="#FFFFFF" d="M9.797,38.97c0,0,13.022-9.652,23.133-18.231c0,0,4.29,5.669,13.635,5.669c0.657,0,1.306-0.021,1.95-0.053
			c0.219-0.24,0.444-0.498,0.662-0.732c1.182-1.273,2.333-2.46,3.47-3.606l-4.301,0.206c-0.588,0.029-1.18,0.049-1.78,0.049
			c-7.008,0-10.239-3.909-10.337-4.028l-2.639-3.487l-3.335,2.829c-9.888,8.39-22.79,17.967-22.92,18.063L2.663,39.02l4.699,3.294
			c0.086,0.065,8.633,6.781,10.885,29.496c0,0,0.271,12.958,0.024,16.02c1.035-5.85,2.433-11.33,4.087-16.471
			C19.834,46.004,9.797,38.97,9.797,38.97z"/>
	</g>
</g>
</svg>
