<?xml version="1.0" encoding="utf-8"?>
<!-- Generator: Adobe Illustrator 15.1.0, SVG Export Plug-In . SVG Version: 6.00 Build 0)  -->
<!DOCTYPE svg PUBLIC "-//W3C//DTD SVG 1.1//EN" "http://www.w3.org/Graphics/SVG/1.1/DTD/svg11.dtd">
<svg version="1.1" id="Layer_1" xmlns="http://www.w3.org/2000/svg" xmlns:xlink="http://www.w3.org/1999/xlink" x="0px" y="0px"
	 width="155px" height="155px" viewBox="0 0 155 155" enable-background="new 0 0 155 155" xml:space="preserve">
<g id="Layer_1_1_">
</g>
<g id="Layer_3" display="none">
</g>
<g>
	<path fill="#FFFFFF" d="M77.904,151.78l3.48-5.423c18.117-28.224,39.525-31.547,43.635-31.927l1.904-0.176
		c7.119,12.517,11.314,24.514,12.344,28.763c0,0,12.248-18.657,12.248-51.288c0-19.763-4.252-32.459-4.252-32.459
		s-1.953,14.994-9.918,28.45c-0.33-1.904-0.025-16.463-0.025-16.463c2.252-22.715,10.799-29.431,10.885-29.496l4.699-3.294
		l-4.67-3.373c-0.131-0.096-13.033-9.673-22.92-18.063l-3.336-2.829l-2.639,3.487c-0.098,0.119-3.328,4.028-10.336,4.028
		c-0.602,0-1.193-0.02-1.781-0.049l-4.334-0.208c-11.205-11.31-20.1-16.591-24.984-18.913C73.02,4.871,64.125,10.152,52.92,21.462
		l-4.334,0.208c-0.588,0.029-1.18,0.049-1.779,0.049c-7.008,0-10.24-3.909-10.338-4.028l-2.639-3.487l-3.334,2.829
		c-9.889,8.39-22.791,17.967-22.92,18.063l-4.672,3.373l4.699,3.294c0.086,0.065,8.633,6.781,10.885,29.496
		c0,0,0.305,14.559-0.025,16.463c-7.965-13.456-9.918-28.45-9.918-28.45S4.293,71.967,4.293,91.729
		c0,32.631,12.248,51.288,12.248,51.288c1.029-4.249,5.225-16.246,12.344-28.763l1.906,0.176c4.107,0.38,25.518,3.703,43.633,31.927
		L77.904,151.78z"/>
	<linearGradient id="SVGID_1_" gradientUnits="userSpaceOnUse" x1="10.0391" y1="82.1543" x2="145.7715" y2="82.1543">
		<stop  offset="0" style="stop-color:#612C75"/>
		<stop  offset="0.0116" style="stop-color:#643078"/>
		<stop  offset="0.0973" style="stop-color:#754889"/>
		<stop  offset="0.15" style="stop-color:#7B5190"/>
		<stop  offset="0.1901" style="stop-color:#8C639D"/>
		<stop  offset="0.2563" style="stop-color:#A37BAE"/>
		<stop  offset="0.3269" style="stop-color:#B38CBA"/>
		<stop  offset="0.404" style="stop-color:#BC96C1"/>
		<stop  offset="0.5" style="stop-color:#BF99C3"/>
		<stop  offset="0.596" style="stop-color:#BC96C1"/>
		<stop  offset="0.6731" style="stop-color:#B38CBA"/>
		<stop  offset="0.7437" style="stop-color:#A37BAE"/>
		<stop  offset="0.8099" style="stop-color:#8C639D"/>
		<stop  offset="0.85" style="stop-color:#7B5190"/>
		<stop  offset="0.9027" style="stop-color:#754889"/>
		<stop  offset="0.9884" style="stop-color:#643078"/>
		<stop  offset="1" style="stop-color:#612C75"/>
	</linearGradient>
	<path fill="url(#SVGID_1_)" d="M48.785,25.802c-9.068,9.851-19.668,24.726-26.18,45.049C20.088,45.46,10.039,38.418,10.039,38.418
		s13.021-9.652,23.133-18.231c0,0,4.289,5.669,13.635,5.669C47.473,25.855,48.131,25.834,48.785,25.802z M41.336,96.358
		c-3.914,4.46-7.309,9.3-10.166,13.954c2.502,0.231,12.609,1.654,24.545,10.024C55.525,107.254,45.891,99.359,41.336,96.358z
		 M59.271,114.702c1.875-4.89,3.275-10.34,3.275-15.734c0-8.446-4.195-13.194-6.48-15.158c-4.346,2.544-8.313,5.828-11.898,9.493
		C48.844,96.525,57.008,103.585,59.271,114.702z M107.025,25.802c9.066,9.851,19.666,24.726,26.18,45.049
		c2.516-25.391,12.566-32.433,12.566-32.433s-13.023-9.652-23.133-18.231c0,0-4.291,5.669-13.635,5.669
		C108.336,25.855,107.678,25.834,107.025,25.802z M100.096,120.337c11.934-8.37,22.041-9.793,24.543-10.024
		c-2.855-4.654-6.25-9.494-10.166-13.954C109.918,99.359,100.285,107.254,100.096,120.337z M111.641,93.303
		c-3.584-3.665-7.553-6.949-11.898-9.493c-2.285,1.964-6.48,6.712-6.48,15.158c0,5.395,1.4,10.845,3.275,15.734
		C98.801,103.585,106.965,96.525,111.641,93.303z M89.127,98.968c0-8.755,3.801-14.251,6.717-17.182
		c-3.25-1.481-6.689-2.525-10.313-3.018c4.459-2.622,7.463-7.458,7.463-13.005c0-8.335-6.756-15.091-15.09-15.091
		s-15.09,6.756-15.09,15.091c0,5.547,3.002,10.383,7.463,13.005c-3.623,0.492-7.063,1.536-10.313,3.018
		c2.918,2.931,6.719,8.427,6.719,17.182c0,8.979-3.383,17.863-6.795,24.545c5.951,4.868,12.176,11.512,18.016,20.61
		c5.842-9.099,12.064-15.742,18.018-20.61C92.508,116.831,89.127,107.946,89.127,98.968z"/>
	<path fill="#7B5190" d="M75.836,8.783v37.869c-9.631,1.035-17.158,9.209-17.158,19.111c0,1.354,0.15,2.672,0.418,3.948
		c-2.414-3.43-6.24-10.757-5.281-21.874c0,0-7.58,17.77,4.924,29.95c-28.146,12.406-42.572,53.772-42.572,53.772
		c-9.957-23.438-6.895-53.158-6.895-53.158c4.598,14.706,12.256,17.004,12.256,17.004C27.975,40.205,66.447,14.325,75.836,8.783z
		 M79.973,8.783v37.869c9.633,1.035,17.158,9.209,17.158,19.111c0,1.354-0.15,2.672-0.418,3.948
		c2.416-3.43,6.242-10.757,5.281-21.874c0,0,7.58,17.77-4.924,29.95c28.146,12.406,42.572,53.772,42.572,53.772
		c9.959-23.438,6.895-53.158,6.895-53.158c-4.596,14.706-12.256,17.004-12.256,17.004C127.834,40.205,89.361,14.325,79.973,8.783z"
		/>
</g>
</svg>
