<?xml version="1.0" encoding="utf-8"?>
<!-- Generator: Adobe Illustrator 15.1.0, SVG Export Plug-In . SVG Version: 6.00 Build 0)  -->
<!DOCTYPE svg PUBLIC "-//W3C//DTD SVG 1.1//EN" "http://www.w3.org/Graphics/SVG/1.1/DTD/svg11.dtd">
<svg version="1.1" id="Layer_1" xmlns="http://www.w3.org/2000/svg" xmlns:xlink="http://www.w3.org/1999/xlink" x="0px" y="0px"
	 width="155px" height="155px" viewBox="0 0 155 155" enable-background="new 0 0 155 155" xml:space="preserve">
<g id="Layer_1_1_">
</g>
<g id="Layer_3" display="none">
</g>
<g>
	<path d="M77.996,152.32l3.48-5.423c18.116-28.224,39.525-31.547,43.634-31.927l1.905-0.176
		c7.119,12.517,11.314,24.514,12.344,28.763c0,0,12.248-18.657,12.248-51.288c0-19.763-4.252-32.459-4.252-32.459
		s-1.953,14.994-9.918,28.45c-0.33-1.904-0.025-16.463-0.025-16.463c2.252-22.715,10.799-29.431,10.885-29.496l4.699-3.294
		l-4.671-3.373c-0.13-0.096-13.032-9.673-22.92-18.063l-3.335-2.829l-2.639,3.487c-0.098,0.119-3.329,4.028-10.337,4.028
		c-0.601,0-1.192-0.02-1.78-0.049l-4.334-0.208c-11.205-11.31-20.1-16.591-24.984-18.913c-4.885,2.322-13.779,7.604-24.984,18.913
		l-4.334,0.208c-0.588,0.029-1.18,0.049-1.78,0.049c-7.008,0-10.239-3.909-10.337-4.028l-2.639-3.487l-3.335,2.829
		c-9.888,8.39-22.79,17.967-22.92,18.063l-4.671,3.373l4.699,3.294c0.086,0.065,8.633,6.781,10.885,29.496
		c0,0,0.305,14.559-0.025,16.463c-7.965-13.456-9.918-28.45-9.918-28.45S4.385,72.507,4.385,92.27
		c0,32.631,12.248,51.288,12.248,51.288c1.029-4.249,5.225-16.246,12.344-28.763l1.905,0.176c4.108,0.38,25.518,3.703,43.634,31.927
		L77.996,152.32z"/>
	<linearGradient id="SVGID_1_" gradientUnits="userSpaceOnUse" x1="10.1299" y1="82.6953" x2="145.8623" y2="82.6953">
		<stop  offset="0" style="stop-color:#626E77"/>
		<stop  offset="0.0035" style="stop-color:#647079"/>
		<stop  offset="0.0676" style="stop-color:#8496A1"/>
		<stop  offset="0.1187" style="stop-color:#99ADB9"/>
		<stop  offset="0.15" style="stop-color:#A0B6C2"/>
		<stop  offset="0.1547" style="stop-color:#A1B7C3"/>
		<stop  offset="0.2545" style="stop-color:#ADC6D4"/>
		<stop  offset="0.3638" style="stop-color:#B5CEDE"/>
		<stop  offset="0.5" style="stop-color:#B7D1E1"/>
		<stop  offset="0.6362" style="stop-color:#B5CEDE"/>
		<stop  offset="0.7455" style="stop-color:#ADC6D4"/>
		<stop  offset="0.8453" style="stop-color:#A1B7C3"/>
		<stop  offset="0.85" style="stop-color:#A0B6C2"/>
		<stop  offset="0.8813" style="stop-color:#99ADB9"/>
		<stop  offset="0.9324" style="stop-color:#8496A1"/>
		<stop  offset="0.9965" style="stop-color:#647079"/>
		<stop  offset="1" style="stop-color:#626E77"/>
	</linearGradient>
	<path fill="url(#SVGID_1_)" d="M48.876,26.342c-9.067,9.851-19.667,24.726-26.18,45.049C20.18,46,10.13,38.958,10.13,38.958
		s13.022-9.652,23.133-18.231c0,0,4.29,5.669,13.635,5.669C47.564,26.396,48.223,26.374,48.876,26.342z M41.428,96.898
		c-3.915,4.46-7.31,9.3-10.166,13.954c2.502,0.231,12.609,1.654,24.544,10.024C55.616,107.794,45.982,99.899,41.428,96.898z
		 M59.363,115.242c1.875-4.89,3.275-10.34,3.275-15.734c0-8.446-4.195-13.194-6.48-15.158c-4.346,2.544-8.313,5.828-11.898,9.493
		C48.936,97.065,57.1,104.125,59.363,115.242z M107.116,26.342c9.067,9.851,19.667,24.726,26.18,45.049
		c2.517-25.391,12.566-32.433,12.566-32.433s-13.022-9.652-23.133-18.231c0,0-4.29,5.669-13.635,5.669
		C108.428,26.396,107.77,26.374,107.116,26.342z M100.187,120.877c11.935-8.37,22.042-9.793,24.544-10.024
		c-2.856-4.654-6.251-9.494-10.166-13.954C110.01,99.899,100.376,107.794,100.187,120.877z M111.732,93.843
		c-3.585-3.665-7.553-6.949-11.898-9.493c-2.285,1.964-6.48,6.712-6.48,15.158c0,5.395,1.4,10.845,3.275,15.734
		C98.893,104.125,107.057,97.065,111.732,93.843z M89.218,99.508c0-8.755,3.801-14.251,6.718-17.182
		c-3.25-1.481-6.689-2.525-10.313-3.018c4.46-2.622,7.464-7.458,7.464-13.005c0-8.335-6.756-15.091-15.09-15.091
		s-15.09,6.756-15.09,15.091c0,5.547,3.002,10.383,7.463,13.005c-3.623,0.492-7.063,1.536-10.313,3.018
		c2.917,2.931,6.718,8.427,6.718,17.182c0,8.979-3.382,17.863-6.795,24.545c5.952,4.868,12.176,11.512,18.017,20.61
		c5.841-9.099,12.064-15.742,18.017-20.61C92.6,117.371,89.218,108.486,89.218,99.508z"/>
	<path fill="#FFFFFF" d="M75.928,9.323v37.869c-9.632,1.035-17.158,9.209-17.158,19.111c0,1.354,0.15,2.672,0.418,3.948
		c-2.415-3.43-6.241-10.757-5.281-21.874c0,0-7.58,17.77,4.924,29.95c-28.146,12.406-42.572,53.772-42.572,53.772
		C6.3,108.662,9.363,78.942,9.363,78.942c4.597,14.706,12.256,17.004,12.256,17.004C28.066,40.745,66.539,14.865,75.928,9.323z
		 M80.064,9.323v37.869c9.632,1.035,17.158,9.209,17.158,19.111c0,1.354-0.15,2.672-0.418,3.948
		c2.415-3.43,6.241-10.757,5.281-21.874c0,0,7.58,17.77-4.924,29.95c28.146,12.406,42.572,53.772,42.572,53.772
		c9.958-23.438,6.895-53.158,6.895-53.158c-4.597,14.706-12.256,17.004-12.256,17.004C127.926,40.745,89.453,14.865,80.064,9.323z"
		/>
</g>
</svg>
