<?xml version="1.0" encoding="utf-8"?>
<!-- Generator: Adobe Illustrator 15.1.0, SVG Export Plug-In . SVG Version: 6.00 Build 0)  -->
<!DOCTYPE svg PUBLIC "-//W3C//DTD SVG 1.1//EN" "http://www.w3.org/Graphics/SVG/1.1/DTD/svg11.dtd">
<svg version="1.1" id="Layer_1" xmlns="http://www.w3.org/2000/svg" xmlns:xlink="http://www.w3.org/1999/xlink" x="0px" y="0px"
	 width="155px" height="155px" viewBox="0 0 155 155" enable-background="new 0 0 155 155" xml:space="preserve">
<g id="Layer_1_1_">
</g>
<g id="Layer_3" display="none">
</g>
<path d="M45.478,22.459C35.633,33.154,24.125,49.305,17.054,71.37C14.321,43.803,3.41,36.157,3.41,36.157
	s14.139-10.48,25.116-19.794c0,0,4.658,6.155,14.804,6.155C44.054,22.517,44.769,22.494,45.478,22.459z M37.391,99.065
	c-4.251,4.842-7.937,10.097-11.038,15.15c2.716,0.251,13.69,1.796,26.648,10.884C52.796,110.895,42.336,102.323,37.391,99.065z
	 M56.864,118.981c2.036-5.309,3.556-11.227,3.556-17.083c0-9.171-4.555-14.326-7.036-16.458c-4.718,2.762-9.026,6.328-12.918,10.307
	C45.542,99.246,54.407,106.911,56.864,118.981z M108.711,22.459c9.846,10.695,21.354,26.846,28.425,48.911
	c2.732-27.567,13.644-35.213,13.644-35.213s-14.139-10.48-25.115-19.794c0,0-4.658,6.155-14.805,6.155
	C110.136,22.517,109.421,22.494,108.711,22.459z M101.188,125.1c12.958-9.088,23.932-10.633,26.648-10.884
	c-3.102-5.054-6.787-10.309-11.037-15.15C111.854,102.323,101.394,110.895,101.188,125.1z M113.724,95.747
	c-3.893-3.979-8.2-7.545-12.919-10.307c-2.48,2.132-7.035,7.287-7.035,16.458c0,5.856,1.52,11.774,3.556,17.083
	C99.783,106.911,108.646,99.246,113.724,95.747z M89.278,101.898c0-9.506,4.127-15.473,7.294-18.655
	c-3.529-1.608-7.264-2.741-11.197-3.276c4.842-2.847,8.104-8.098,8.104-14.119c0-9.05-7.336-16.385-16.384-16.385
	c-9.048,0-16.384,7.335-16.384,16.385c0,6.021,3.259,11.272,8.103,14.119c-3.934,0.535-7.669,1.668-11.197,3.276
	c3.167,3.183,7.294,9.149,7.294,18.655c0,9.748-3.672,19.395-7.378,26.649c6.463,5.285,13.22,12.498,19.562,22.377
	c6.342-9.879,13.099-17.092,19.562-22.377C92.95,121.293,89.278,111.646,89.278,101.898z M74.849,3.981v41.116
	c-10.458,1.124-18.629,9.999-18.629,20.75c0,1.47,0.163,2.9,0.454,4.286c-2.622-3.724-6.776-11.679-5.734-23.75
	c0,0-8.23,19.293,5.346,32.518c-30.56,13.47-46.223,58.383-46.223,58.383c-10.812-25.448-7.486-57.716-7.486-57.716
	c4.991,15.967,13.307,18.462,13.307,18.462C22.884,38.097,64.655,9.999,74.849,3.981z M79.34,3.981v41.116
	c10.458,1.124,18.63,9.999,18.63,20.75c0,1.47-0.163,2.9-0.454,4.286c2.623-3.724,6.777-11.679,5.734-23.75
	c0,0,8.23,19.293-5.346,32.518c30.56,13.47,46.223,58.383,46.223,58.383c10.812-25.448,7.485-57.716,7.485-57.716
	c-4.991,15.967-13.307,18.462-13.307,18.462C131.305,38.097,89.534,9.999,79.34,3.981z"/>
</svg>
