<?xml version="1.0" encoding="UTF-8" standalone="no"?>
<svg xmlns="http://www.w3.org/2000/svg" version="1.1" width="891.84247" height="546.71277">
  <defs>
    <linearGradient id="g" x1="23.529579" x2="877.4704" gradientUnits="userSpaceOnUse" gradientTransform="translate(-4.5787524,-1.9257812)" >
      <stop offset="0"    style="stop-color:#be0e00" />
      <stop offset="0.24" style="stop-color:#e65800" />
      <stop offset="0.39" style="stop-color:#ff8700" />
      <stop offset="0.61" style="stop-color:#ff8700" />
      <stop offset="0.76" style="stop-color:#e65800" />
      <stop offset="1"    style="stop-color:#be0e00" />
    </linearGradient>
  </defs>
  <path d="M 48.186873,0 C 22.381784,11.417733 6.2078396,84.071671 16.114607,139.9668 c -26.760052,34.67615 -16.03034966,101.21593 2.134766,137.79687 -8.7827254,65.24034 14.0334,106.17001 46.683594,130.50782 4.93951,19.33138 20.694749,61.94203 69.833983,82.26757 37.53234,66.95897 122.7344,70.36045 201.18555,29.71485 35.29562,12.186 77.07344,18.82031 109.96875,18.82031 32.89531,0 74.67313,-6.63431 109.96875,-18.82031 78.45115,40.6456 163.65321,37.24412 201.18555,-29.71485 49.13924,-20.32554 64.89447,-62.93619 69.83398,-82.26757 32.6502,-24.33781 55.46632,-65.26748 46.6836,-130.50782 18.1651,-36.58094 28.89482,-103.12072 2.13476,-137.79687 C 885.63466,84.071671 869.46071,11.417733 843.65563,0 c -31.4385,69.351386 -93.03714,132.30296 -148.2754,174.19336 -55.23826,41.89039 -92.57463,34.98399 -75.66796,-16.61523 -45.92232,-22.42103 -106.04834,-46.832 -135.51954,-59.166021 -7.01714,18.458431 -14.93301,40.912111 -38.27148,40.912111 -23.33847,0 -31.25434,-22.45368 -38.27148,-40.912111 -29.4712,12.334021 -89.59722,36.744991 -135.51954,59.166021 16.90667,51.59922 -20.4297,58.50562 -75.66796,16.61523 C 141.22401,132.30296 79.625352,69.351386 48.186873,0 Z M 374.46617,192.57422 c 22.79675,0 42.48648,13.32937 51.66016,32.64062 1.89811,3.99565 11.1761,10.60938 19.79492,10.60938 8.61882,0 17.89681,-6.61373 19.79492,-10.60938 9.17368,-19.31125 28.86341,-32.64062 51.66016,-32.64062 31.58378,0 57.1875,25.60372 57.1875,57.1875 -0.01,1.57729 -0.0627,3.08908 -0.19141,4.66211 -0.99456,12.15942 18.69733,28.85141 34.40625,18.01172 8.60498,-5.93773 18.79304,-9.10721 29.24805,-9.11133 28.44266,0 51.5,23.05734 51.5,51.5 0,28.44266 -23.05734,51.5 -51.5,51.5 -28.44266,0 -51.5,-23.05734 -51.5,-51.5 0.01,-0.80134 0.0182,-1.54516 0.0547,-2.3457 0.61273,-13.44041 -21.54515,-27.23736 -34.32032,-17.40235 -10.00731,7.70416 -22.22022,11.84804 -34.88476,11.87305 -23.04939,0 -42.91918,-13.64912 -51.95313,-33.28906 -2.32162,-5.04722 -10.13323,-9.58594 -19.50196,-9.58594 -9.36873,0 -17.18034,4.53872 -19.50195,9.58594 -9.03395,19.63994 -28.90374,33.28906 -51.95313,33.28906 -12.66454,-0.025 -24.87745,-4.16889 -34.88476,-11.87305 -12.77517,-9.83501 -34.93305,3.96194 -34.32032,17.40235 0.0365,0.80054 0.0447,1.54436 0.0547,2.3457 0,28.44266 -23.05734,51.5 -51.5,51.5 -28.44266,0 -51.5,-23.05734 -51.5,-51.5 0,-28.44266 23.05734,-51.5 51.5,-51.5 10.45501,0.004 20.64307,3.1736 29.24805,9.11133 15.70892,10.83969 35.40081,-5.8523 34.40625,-18.01172 -0.12871,-1.57303 -0.18141,-3.08482 -0.19141,-4.66211 0,-31.58378 25.60372,-57.1875 57.1875,-57.1875 z" />
  <path fill="url(#g)" d="M 43.534529,35.673828 C 28.196787,72.335082 23.981382,149.93748 55.300154,184.86328 c 30.210747,33.69016 58.313896,51.48992 93.031256,67.35547 19.6812,-18.89417 38.21123,-34.13723 56.47656,-47.92187 -0.0836,-0.0532 -0.1664,-0.10284 -0.25,-0.15625 C 149.15456,168.74503 73.475938,97.594708 43.534529,35.673828 Z m 804.773441,0 C 818.36656,97.594708 742.68794,168.74503 687.28453,204.14063 c -0.0836,0.0534 -0.1664,0.10305 -0.25,0.15625 18.26533,13.78464 36.79536,29.0277 56.47656,47.92187 34.71736,-15.86555 62.82051,-33.66531 93.03125,-67.35547 31.31878,-34.9258 27.10337,-112.528198 11.76563,-149.189452 z M 397.00914,126.25391 c -28.06781,11.01252 -55.06164,21.33142 -99.6875,43.01953 6.19187,44.1208 -28.43397,65.4522 -75.33984,44.36133 -25.8142,18.01391 -53.86856,41.85422 -86.64453,77.96875 16.97018,40.74149 39.6846,81.93963 63.15039,124.0664 8.47986,-2.43292 16.33335,-4.98705 24.35937,-6.40234 25.5416,-4.50393 95.26038,-0.65101 86.63867,79.92187 27.38269,17.56873 94.46612,31.63477 136.43555,31.63477 41.96943,0 109.05286,-14.06604 136.43555,-31.63477 -8.62171,-80.57288 61.09707,-84.4258 86.63867,-79.92187 8.02602,1.41529 15.87951,3.96942 24.35937,6.40234 23.46579,-42.12677 46.18021,-83.32491 63.15039,-124.0664 -32.77597,-36.11453 -60.83033,-59.95484 -86.64453,-77.96875 -46.90587,21.09087 -81.53171,-0.24053 -75.33984,-44.36133 -44.62586,-21.68811 -71.61969,-32.00701 -99.6875,-43.01953 -9.35393,17.10674 -20.00762,36.32031 -48.91211,36.32031 -28.90449,0 -39.55818,-19.21357 -48.91211,-36.32031 z M 23.884139,166.11914 c -14.7591474,40.75308 6.434284,102.4336 26.255859,125.65235 19.551919,22.90288 64.495402,45.28496 88.716802,51.74414 -7.75926,-15.94511 -16.00649,-33.72711 -25.47461,-55.01368 7.30114,-8.16039 14.39666,-15.711 21.34179,-22.80078 C 90.021258,241.34842 42.195203,214.8424 23.884139,166.11914 Z m 844.074221,0 c -18.31107,48.72326 -66.13711,75.22928 -110.83984,99.58203 6.94513,7.08978 14.04065,14.64039 21.34179,22.80078 -9.46812,21.28657 -17.71535,39.06857 -25.47461,55.01368 24.2214,-6.45918 69.16488,-28.84126 88.7168,-51.74414 19.82157,-23.21875 41.01501,-84.89927 26.25586,-125.65235 z m -493.49219,9.54102 c 29.39007,0 55.0456,17.22716 66.9375,42.29687 0.45466,0.95844 3.05685,1.42578 4.51758,1.42578 1.46073,0 4.06292,-0.46734 4.51758,-1.42578 11.8919,-25.06971 37.54743,-42.29687 66.9375,-42.29687 40.72504,0 74.10156,33.37652 74.10156,74.10156 1.1e-4,0.0358 1.1e-4,0.0716 0,0.10742 -0.012,1.88551 -0.0659,3.84288 -0.24805,5.9336 -0.17101,1.96247 5.47356,4.41456 7.94141,2.71093 11.4198,-7.88346 24.98047,-12.09805 38.84961,-12.10351 h 0.006 c 37.58392,0 68.41406,30.83014 68.41406,68.41406 0,37.58392 -30.83014,68.41406 -68.41406,68.41406 -37.58392,0 -68.41406,-30.83014 -68.41406,-68.41406 -4.4e-4,-0.0703 -4.4e-4,-0.14063 0,-0.21094 0.01,-0.78597 -0.0431,-1.07872 0.0215,-2.24414 0.11555,-2.08265 -5.92329,-4.76048 -7.05469,-3.89062 -12.97005,9.97178 -28.83723,15.35251 -45.16992,15.38476 h -0.0332 c -28.78923,0 -53.91753,-16.53538 -66.16797,-40.74609 -1.45635,-2.8782 -3.4194,-3.19141 -5.28711,-3.19141 -1.86771,0 -3.83076,0.31321 -5.28711,3.19141 -12.25044,24.21071 -37.37874,40.74609 -66.16797,40.74609 h -0.0332 c -16.33269,-0.0323 -32.19987,-5.41298 -45.16992,-15.38476 -1.1314,-0.86986 -7.17024,1.80797 -7.05469,3.89062 0.0646,1.16542 0.0115,1.45817 0.0215,2.24414 4.4e-4,0.0703 4.4e-4,0.14064 0,0.21094 0,37.58392 -30.83014,68.41406 -68.41406,68.41406 -37.58392,0 -68.41406,-30.83014 -68.41406,-68.41406 0,-37.58392 30.83014,-68.41406 68.41406,-68.41406 h 0.006 c 13.86914,0.005 27.42981,4.22005 38.84961,12.10351 2.46785,1.70363 8.11242,-0.74846 7.94141,-2.71093 -0.18215,-2.09072 -0.23605,-4.04809 -0.24805,-5.9336 -1.1e-4,-0.0358 -1.1e-4,-0.0716 0,-0.10742 0,-40.72504 33.37652,-74.10156 74.10156,-74.10156 z M 35.634139,302.19141 c 1.970298,73.77938 42.396236,101.55888 90.001951,114.55273 22.44232,6.12556 39.58887,5.85805 54.10157,3.38086 C 168.31554,400.2894 158.37144,382.27087 148.0443,361.9668 100.54989,352.19033 59.906122,327.53763 35.634139,302.19141 Z m 820.574221,0 c -24.27198,25.34622 -64.91575,49.99892 -112.41016,59.77539 -10.32714,20.30407 -20.27124,38.3226 -31.69336,58.1582 14.5127,2.47719 31.65925,2.7447 54.10157,-3.38086 47.60572,-12.99385 88.03165,-40.77335 90.00195,-114.55273 z M 90.145857,423.24219 c 37.046083,77.25795 153.301733,80.83577 190.242193,18.29687 -4.37883,-3.96973 -9.46395,-7.00598 -14.35938,-9.8457 -16.57018,-9.61195 -31.54875,-6.71131 -67.04883,2.78906 -33.56375,8.98218 -69.11598,7.815 -108.833983,-11.24023 z m 711.550783,0 c -39.718,19.05523 -75.27023,20.22241 -108.83398,11.24023 -35.50008,-9.50037 -50.47865,-12.40101 -67.04883,-2.78906 -4.89543,2.83972 -9.98055,5.87597 -14.35938,9.8457 36.94046,62.5389 153.19611,58.96108 190.24219,-18.29687 z m -510.50586,36.38867 c -13.35567,21.84768 -55.63709,53.17903 -128.23047,39.15625 34.05026,32.40039 82.66324,41.37445 148.86133,11.72266 -9.17323,-4.33877 -17.47757,-9.12892 -24.51172,-14.35157 5.23214,-15.99608 5.92245,-27.67062 3.88086,-36.52734 z m 309.46094,0 c -2.04159,8.85672 -1.35128,20.53126 3.88086,36.52734 -7.03415,5.22265 -15.33849,10.0128 -24.51172,14.35157 66.19809,29.65179 114.81107,20.67773 148.86133,-11.72266 -72.59338,14.02278 -114.8748,-17.30857 -128.23047,-39.15625 z" />
</svg>
