<?xml version="1.0" encoding="UTF-8" standalone="no"?>
<svg xmlns="http://www.w3.org/2000/svg" xmlns:xlink="http://www.w3.org/1999/xlink" version="1.1" id="Layer_1" x="0px" y="0px" width="220px" height="300px" viewBox="0 0 220 300">
  <linearGradient id="SVGID_3_" gradientUnits="userSpaceOnUse" x1="-360.27539" y1="455.64651" x2="-322.5885" y2="455.64651" gradientTransform="matrix(5.797,-2.511727e-4,-2.511727e-4,-5.797,2110.4346,2791.4724)">
    <stop style="stop-color:#bf331c" offset="0"/>
    <stop style="stop-color:#d3641c" offset="0.3"/>
    <stop style="stop-color:#f6b91d" offset="0.5"/>
    <stop style="stop-color:#d3641c" offset="0.7"/>
    <stop style="stop-color:#bf331c" offset="1"/>
  </linearGradient>
  <g>
    <path d="M 219.337,58.892 125.515,0 17.042,57.954 0.663,174.688 35.244,196.386 c 0,20.207 1.325,41.077 6.037,59.813 l 0.718,2.907 70.779,40.894 67.469,-51.678 -1.656,-4.785 c -0.185,-0.294 -5.705,-17.778 -5.411,-51.972 l 29.777,-15.938 16.38,-116.735 z"/>
    <path fill="url(#SVGID_3_)" id="SVGID_1_" d="m 54.181,249.905 57.53,33.237 52.12,-39.899 c -1.841,-6.994 -4.38,-22.122 -4.748,-44.169 L 94.485,233.6 49.451,205.331 c 0.387,15.312 1.528,30.661 4.73,44.574 M 29.962,66.99 15.864,167.622 l 79.173,49.745 95,-50.739 L 204.171,65.959 124.924,16.214 29.962,66.99 z"/>
    <path d="M 118.852,44.132 C 79.432,44.113 42.9,76.154 37.397,115.484 c -2.779,19.747 2.466,38.39 14.649,52.451 12.036,13.84 29.52,21.532 49.101,21.495 39.421,0 75.935,-31.967 81.418,-71.296 2.761,-19.766 -2.429,-38.39 -14.612,-52.451 C 155.844,51.751 138.434,44.114 118.852,44.132 m 44.721,71.37 c -4.27,30.183 -32.243,54.752 -62.426,54.733 -13.95,0.036 -26.207,-5.282 -34.599,-14.889 -8.502,-9.828 -12.128,-23.079 -10.122,-37.268 4.233,-30.182 32.207,-54.751 62.425,-54.77 13.914,0 26.171,5.355 34.6,14.962 8.466,9.792 12.073,23.006 10.122,37.232"/>
  </g>
</svg>
