<?xml version="1.0" encoding="UTF-8" standalone="no"?>
<svg xmlns="http://www.w3.org/2000/svg" xmlns:xlink="http://www.w3.org/1999/xlink" version="1.1" id="Layer_1" x="0px" y="0px" width="220px" height="300px" viewBox="0 0 220 300">
  <path d="M 124.92383 16.214844 L 29.962891 66.990234 L 15.863281 167.62109 L 95.037109 217.36719 L 190.03711 166.62891 L 204.17188 65.958984 L 124.92383 16.214844 z M 118.85156 44.132812 C 138.43356 44.114812 155.84412 51.751594 167.95312 65.683594 C 180.13612 79.744594 185.32545 98.368766 182.56445 118.13477 C 177.08145 157.46377 140.56748 189.42969 101.14648 189.42969 C 81.565484 189.46669 64.082875 181.77555 52.046875 167.93555 C 39.863875 153.87455 34.617484 135.23138 37.396484 115.48438 C 42.899484 76.154375 79.431562 44.113813 118.85156 44.132812 z M 118.85156 63.308594 C 88.633563 63.327594 60.658781 87.896125 56.425781 118.07812 C 54.419781 132.26712 58.046828 145.5177 66.548828 155.3457 C 74.940828 164.9527 87.196484 170.27038 101.14648 170.23438 C 131.32948 170.25338 159.30227 145.68495 163.57227 115.50195 C 165.52327 101.27595 161.91717 88.061531 153.45117 78.269531 C 145.02217 68.662531 132.76556 63.308594 118.85156 63.308594 z M 159.08203 199.07422 L 94.484375 233.59961 L 49.451172 205.33008 C 49.838172 220.64208 50.979641 235.9913 54.181641 249.9043 L 111.71094 283.14258 L 163.83008 243.24219 C 161.98908 236.24819 159.45003 221.12122 159.08203 199.07422 z "/>
</svg>
