<?xml version="1.0" encoding="UTF-8" standalone="no"?>
<svg xmlns="http://www.w3.org/2000/svg" version="1.1" width="600" height="639.59033">
  <path d="m 267.48229,67.72342 c -4.87737,16.35916 -10.93809,39.16284 -15.1758,67.8993 -18.3101,2.86246 -47.41437,8.23555 -76.7745,17.54252 l -49.90903,-39.29076 c 0,0 15.1758,64.02939 8.92318,110.94803 -3.31021,24.67466 -10.74619,54.72242 -41.721453,56.09768 l -1.998919,0.064 c -30.415561,0 -33.549867,-41.48158 -33.917668,-46.16705 C 49.040353,131.68888 6.7432145,126.44372 6.7432145,126.44372 c 0,0 29.1042685,36.90805 5.0052945,99.43425 -4.445597,11.43382 -13.1289037,28.73647 -11.56175081,57.66483 1.11939501,19.54144 11.05002681,37.29185 19.55742881,50.59666 6.428525,10.12252 13.544679,18.54997 20.420963,26.67358 10.362399,12.29735 19.301567,22.91561 23.555268,36.47628 8.059644,25.98596 13.736575,54.46656 16.85489,84.77019 1.99892,19.2376 2.94241,37.72361 2.814479,54.89832 -0.127931,18.24614 -1.311292,34.7972 -3.678012,49.04549 l -3.757969,22.61175 22.435873,4.55754 103.000331,21.17255 27.10535,5.24517 1.37526,-27.60108 c 0.31982,-5.56499 2.51064,-23.74717 18.80583,-24.8026 l 22.18001,-1.50318 0,-22.22799 c 0,-3.93387 -0.31982,-98.33085 -24.86656,-174.97742 l -4.12577,-12.12145 -12.23338,-3.48612 c -3.69401,-1.07206 -29.67996,-9.37093 -41.97732,-37.1799 22.10006,4.8134 51.09239,10.93809 76.07089,15.87941 l 22.30794,81.82778 27.92091,0 22.41988,-81.82778 c 24.93053,-4.94132 53.92286,-11.06601 76.02291,-15.87941 -12.36132,27.80897 -38.28331,36.10848 -41.97731,37.1799 l -12.23339,3.48612 -4.12577,12.12145 c -24.6107,76.64657 -24.93052,171.04355 -24.93052,174.97742 l 0,22.22799 22.18001,1.50318 c 16.35916,1.05543 18.48601,19.23761 18.8698,24.8026 l 1.31129,27.60108 27.16932,-5.24517 103.00032,-21.17255 22.43588,-4.55754 -3.75797,-22.61178 c -2.36672,-14.2483 -3.61405,-30.79935 -3.74198,-49.04549 -0.064,-17.17471 0.88017,-35.66072 2.87845,-54.89832 3.11831,-30.30363 8.79524,-58.78423 16.85489,-84.77019 4.2537,-13.56067 13.19286,-24.17893 23.55526,-36.47628 6.87629,-8.12361 13.99244,-16.55106 20.42097,-26.67358 8.5074,-13.30481 18.43803,-31.05522 19.49346,-50.59666 1.63112,-28.92836 -7.05219,-46.23101 -11.49779,-57.66483 -24.09897,-62.5262 4.94133,-99.43425 4.94133,-99.43425 0,0 -42.23317,5.24516 -50.16488,108.37342 -0.36844,4.68547 -3.43814,46.16705 -33.8537,46.16705 l -1.99892,-0.064 c -31.03923,-1.37526 -38.41124,-31.42302 -41.72145,-56.09768 -6.25262,-46.91864 8.92317,-110.94803 8.92317,-110.94803 l -49.90902,39.29076 C 395.15728,143.85824 365.98904,138.48515 347.74291,135.62269 343.44123,106.88623 337.44447,84.08255 332.50314,67.72339 319.88596,25.55419 300.08866,0 300.08866,0 c 0,0 -19.98919,25.55419 -32.60637,67.72339" style="fill:#808080"/>
  <path d="m 326.50638,156.79528 c 0,0 57.96867,6.06072 108.06959,25.04246 0,0 7.11616,-5.24516 10.12253,-14.16834 0,0 -5.11723,30.09574 -2.87844,58.96013 2.62258,33.85371 17.86234,75.89498 64.28525,78.02183 57.45695,2.68655 60.71918,-68.65089 60.71918,-68.65089 0,0 10.61826,22.41988 9.24301,46.23101 -0.75096,13.86451 -8.5074,27.66505 -15.81545,39.09887 -15.41567,24.17893 -37.72362,40.41016 -46.59882,68.84279 -9.05111,29.10427 -14.72804,59.21599 -17.79838,89.43966 -1.99892,19.06169 -3.11831,38.2993 -3.05435,57.47293 0.11514,18.80584 1.43922,36.79611 4.06181,52.78747 l -102.95236,21.10859 c 0,0 -1.37525,-44.83976 -40.96985,-47.52631 0,0 0,-93.70935 23.79514,-167.66937 0,0 64.71702,-17.17472 66.02831,-91.13475 0,0 -76.64657,17.17472 -125.50017,26.41773 l -17.36661,63.40572 -17.11075,-63.40572 c -48.91756,-9.24301 -125.50017,-26.41773 -125.50017,-26.41773 1.31129,73.96003 66.02831,91.13475 66.02831,91.13475 23.79514,73.96002 23.79514,167.66937 23.79514,167.66937 -39.5946,2.68655 -40.90589,47.52631 -40.90589,47.52631 L 103.18709,589.8732 c 2.62258,-15.99136 3.8859,-33.98163 3.99784,-52.78747 0.064,-19.17363 -0.99147,-38.41124 -2.92642,-57.47293 -3.18228,-30.22367 -8.81124,-60.33539 -17.862348,-89.43966 -8.875203,-28.43263 -31.183146,-44.66386 -46.662779,-68.84279 -7.30805,-11.43382 -14.999893,-25.23436 -15.815452,-39.09887 -1.311291,-23.81113 9.243004,-46.23101 9.243004,-46.23101 0,0 3.326203,71.33744 60.719182,68.65089 46.422913,-2.12685 61.726643,-44.16812 64.349223,-78.02183 2.19081,-28.86439 -2.87845,-58.96013 -2.87845,-58.96013 2.94241,8.92318 10.12253,14.16834 10.12253,14.16834 50.10092,-18.98174 108.06959,-25.04246 108.06959,-25.04246 7.93171,-69.96219 26.35376,-108.32545 26.35376,-108.32545 0,0 19.06169,38.42723 26.60961,108.32545"/>
</svg>
