<?xml version="1.0" encoding="UTF-8" standalone="no"?>
<svg xmlns="http://www.w3.org/2000/svg" version="1.1" width="600" height="639.59033">
  <linearGradient x1="0" y1="0" x2="1" y2="0" id="linearGradient548" gradientUnits="userSpaceOnUse" gradientTransform="matrix(537.93753,94.852782,-94.852782,537.93753,20.597981,288.76145)" spreadMethod="pad">
    <stop style="stop-color:#bf331c" offset="0"/>
    <stop style="stop-color:#d3641c" offset="0.3"/>
    <stop style="stop-color:#f6b91d" offset="0.5"/>
    <stop style="stop-color:#d3641c" offset="0.7"/>
    <stop style="stop-color:#bf331c" offset="1"/>
  </linearGradient>
  <path d="m 267.48229,67.72342 c -4.87737,16.35916 -10.93809,39.16284 -15.1758,67.8993 -18.3101,2.86246 -47.41437,8.23555 -76.7745,17.54252 l -49.90903,-39.29076 c 0,0 15.1758,64.02939 8.92318,110.94803 -3.31021,24.67466 -10.74619,54.72242 -41.721453,56.09768 l -1.998919,0.064 c -30.415561,0 -33.549867,-41.48158 -33.917668,-46.16705 C 49.040353,131.68888 6.7432145,126.44372 6.7432145,126.44372 c 0,0 29.1042685,36.90805 5.0052945,99.43425 -4.445597,11.43382 -13.1289037,28.73647 -11.56175081,57.66483 1.11939501,19.54144 11.05002681,37.29185 19.55742881,50.59666 6.428525,10.12252 13.544679,18.54997 20.420963,26.67358 10.362399,12.29735 19.301567,22.91561 23.555268,36.47628 8.059644,25.98596 13.736575,54.46656 16.85489,84.77019 1.99892,19.2376 2.94241,37.72361 2.814479,54.89832 -0.127931,18.24614 -1.311292,34.7972 -3.678012,49.04549 l -3.757969,22.61175 22.435873,4.55754 103.000331,21.17255 27.10535,5.24517 1.37526,-27.60108 c 0.31982,-5.56499 2.51064,-23.74717 18.80583,-24.8026 l 22.18001,-1.50318 0,-22.22799 c 0,-3.93387 -0.31982,-98.33085 -24.86656,-174.97742 l -4.12577,-12.12145 -12.23338,-3.48612 c -3.69401,-1.07206 -29.67996,-9.37093 -41.97732,-37.1799 22.10006,4.8134 51.09239,10.93809 76.07089,15.87941 l 22.30794,81.82778 27.92091,0 22.41988,-81.82778 c 24.93053,-4.94132 53.92286,-11.06601 76.02291,-15.87941 -12.36132,27.80897 -38.28331,36.10848 -41.97731,37.1799 l -12.23339,3.48612 -4.12577,12.12145 c -24.6107,76.64657 -24.93052,171.04355 -24.93052,174.97742 l 0,22.22799 22.18001,1.50318 c 16.35916,1.05543 18.48601,19.23761 18.8698,24.8026 l 1.31129,27.60108 27.16932,-5.24517 103.00032,-21.17255 22.43588,-4.55754 -3.75797,-22.61178 c -2.36672,-14.2483 -3.61405,-30.79935 -3.74198,-49.04549 -0.064,-17.17471 0.88017,-35.66072 2.87845,-54.89832 3.11831,-30.30363 8.79524,-58.78423 16.85489,-84.77019 4.2537,-13.56067 13.19286,-24.17893 23.55526,-36.47628 6.87629,-8.12361 13.99244,-16.55106 20.42097,-26.67358 8.5074,-13.30481 18.43803,-31.05522 19.49346,-50.59666 1.63112,-28.92836 -7.05219,-46.23101 -11.49779,-57.66483 -24.09897,-62.5262 4.94133,-99.43425 4.94133,-99.43425 0,0 -42.23317,5.24516 -50.16488,108.37342 -0.36844,4.68547 -3.43814,46.16705 -33.8537,46.16705 l -1.99892,-0.064 c -31.03923,-1.37526 -38.41124,-31.42302 -41.72145,-56.09768 -6.25262,-46.91864 8.92317,-110.94803 8.92317,-110.94803 l -49.90902,39.29076 C 395.15728,143.85824 365.98904,138.48515 347.74291,135.62269 343.44123,106.88623 337.44447,84.08255 332.50314,67.72339 319.88596,25.55419 300.08866,0 300.08866,0 c 0,0 -19.98919,25.55419 -32.60637,67.72339"/>
  <path d="m 273.54335,156.7947 c 0,0 -57.96867,5.99676 -108.06959,25.04246 v 0 c 0,0 -7.18012,-5.24516 -10.1865,-14.16834 v 0 c 0,0 5.1812,30.09574 2.94241,58.96013 v 0 c -2.62258,33.91767 -17.92631,75.89499 -64.349217,78.02184 v 0 c -57.39298,2.68654 -60.719183,-68.6509 -60.719183,-68.6509 v 0 c 0,0 -10.554295,22.41988 -9.243004,46.23101 v 0 c 0.815559,13.86451 8.571367,27.66505 15.815452,39.09887 v 0 c 15.479634,24.17893 37.787577,40.41016 46.66278,68.84279 v 0 c 9.051108,29.10427 14.680062,59.216 17.798382,89.43966 v 0 c 1.99892,19.0617 3.05435,38.2993 2.99038,57.47294 v 0 c -0.11194,18.80584 -1.37525,36.79611 -3.99784,52.78747 v 0 l 103.01632,21.10859 c 0,0 1.3113,-44.83976 40.9059,-47.52631 v 0 c 0,0 0,-93.70935 -23.79514,-167.66938 v 0 c 0,0 -64.71703,-17.17472 -66.02832,-91.13474 v 0 c 0,0 76.58261,17.17471 125.50017,26.41772 v 0 l 17.11076,63.40573 17.36661,-63.40573 c 48.85359,-9.24301 125.4362,-26.41772 125.4362,-26.41772 v 0 c -1.31129,73.96002 -65.96434,91.13474 -65.96434,91.13474 v 0 c -23.79514,73.96003 -23.79514,167.66938 -23.79514,167.66938 v 0 c 39.5946,2.68655 40.90589,47.52631 40.90589,47.52631 v 0 l 103.01632,-21.10859 c -2.62258,-15.99136 -3.94987,-33.98163 -4.06181,-52.78747 v 0 c -0.064,-19.17364 1.05543,-38.41124 2.99039,-57.47294 v 0 c 3.1343,-30.22366 8.81124,-60.33539 17.86234,-89.43966 v 0 c 8.81124,-28.43263 31.18315,-44.66386 46.66278,-68.84279 v 0 c 7.24409,-11.43382 14.9999,-25.23436 15.81546,-39.09887 v 0 c 1.31129,-23.81113 -9.24301,-46.23101 -9.24301,-46.23101 v 0 c 0,0 -3.3262,71.33744 -60.78315,68.6509 v 0 c -46.42291,-2.12685 -61.66267,-44.10417 -64.28525,-78.02184 v 0 c -2.23879,-28.86439 2.87844,-58.96013 2.87844,-58.96013 v 0 c -3.00637,8.92318 -10.12253,14.16834 -10.12253,14.16834 v 0 C 384.47539,162.79146 326.50672,156.7947 326.50672,156.7947 v 0 C 318.9588,86.896477 299.89711,48.469246 299.89711,48.469246 v 0 c 0,0 -18.42205,38.363266 -26.35376,108.325454" style="fill:url(#linearGradient548)"/>
</svg>
