<?xml version="1.0" encoding="UTF-8" standalone="no"?>
<svg xmlns="http://www.w3.org/2000/svg" version="1.1" width="600" height="639.59033">
  <path d="m 326.50638,156.79528 c 0,0 57.96867,6.06072 108.06959,25.04246 0,0 7.11616,-5.24516 10.12253,-14.16834 0,0 -5.11723,30.09574 -2.87844,58.96013 2.62258,33.85371 17.86234,75.89498 64.28525,78.02183 57.45695,2.68655 60.71918,-68.65089 60.71918,-68.65089 0,0 10.61826,22.41988 9.24301,46.23101 -0.75096,13.86451 -8.5074,27.66505 -15.81545,39.09887 -15.41567,24.17893 -37.72362,40.41016 -46.59882,68.84279 -9.05111,29.10427 -14.72804,59.21599 -17.79838,89.43966 -1.99892,19.06169 -3.11831,38.2993 -3.05435,57.47293 0.11514,18.80584 1.43922,36.79611 4.06181,52.78747 l -102.95236,21.10859 c 0,0 -1.37525,-44.83976 -40.96985,-47.52631 0,0 0,-93.70935 23.79514,-167.66937 0,0 64.71702,-17.17472 66.02831,-91.13475 0,0 -76.64657,17.17472 -125.50017,26.41773 l -17.36661,63.40572 -17.11075,-63.40572 c -48.91756,-9.24301 -125.50017,-26.41773 -125.50017,-26.41773 1.31129,73.96003 66.02831,91.13475 66.02831,91.13475 23.79514,73.96002 23.79514,167.66937 23.79514,167.66937 -39.5946,2.68655 -40.90589,47.52631 -40.90589,47.52631 L 103.18709,589.8732 c 2.62258,-15.99136 3.8859,-33.98163 3.99784,-52.78747 0.064,-19.17363 -0.99147,-38.41124 -2.92642,-57.47293 -3.18228,-30.22367 -8.81124,-60.33539 -17.862348,-89.43966 -8.875203,-28.43263 -31.183146,-44.66386 -46.662779,-68.84279 -7.30805,-11.43382 -14.999893,-25.23436 -15.815452,-39.09887 -1.311291,-23.81113 9.243004,-46.23101 9.243004,-46.23101 0,0 3.326203,71.33744 60.719182,68.65089 46.422913,-2.12685 61.726643,-44.16812 64.349223,-78.02183 2.19081,-28.86439 -2.87845,-58.96013 -2.87845,-58.96013 2.94241,8.92318 10.12253,14.16834 10.12253,14.16834 50.10092,-18.98174 108.06959,-25.04246 108.06959,-25.04246 7.93171,-69.96219 26.35376,-108.32545 26.35376,-108.32545 0,0 19.06169,38.42723 26.60961,108.32545"/>
</svg>
