<?xml version="1.0" encoding="UTF-8" standalone="no"?>
<svg xmlns="http://www.w3.org/2000/svg" version="1.1" width="600" height="236.28923">
  <path d="m 146.75077,37.28308 c 0,0 -8.07692,18 -12.86769,28.67077 l -28.52308,0 0,21.12923 C 89.815385,91.66154 0,118.08923 0,118.08923 l 52.107692,15.43385 c 0,0 37.707693,11.06769 53.252308,15.64615 l 0,21.16615 28.52308,0 c 4.79077,10.68 29.64,65.95385 29.64,65.95385 0,0 18.78461,-56.32615 22.64307,-67.86462 l 3.53539,0 c 5.65846,18.13847 19.93846,29.86154 29.20615,34.47693 l 23.11385,11.57538 0,-45.50769 c 19.71692,-3.49846 30.53538,-13.44923 35.76923,-23.4 l 172.60615,0 c 5.04923,6.6 13.01539,11.42769 23.1877,11.42769 l 112.71692,0 4.79077,-6.37846 C 592.56923,148.63384 600,137.85231 600,120.07385 l 0,-3.89539 c 0,-17.74154 -7.43077,-28.56 -8.90769,-30.53538 l -4.79077,-6.3877 -112.71692,0 c -10.17231,0 -18.13847,4.83693 -23.1877,11.43693 l -172.60615,0 C 272.55692,80.76923 261.73846,70.81846 242.02154,67.28308 l 0,-45.49847 L 218.90769,33.36 C 209.64,37.97538 195.36,49.72615 189.70154,67.86461 l -3.53539,0 C 182.30769,56.32615 163.52308,0 163.52308,0 l -16.77231,37.28308 z" style="fill:#ffffff"/>
  <path d="m 584.03077,116.17846 c 0,-13.30154 -5.70462,-20.94461 -5.70462,-20.94461 l -104.74153,0 c -11.43693,0 -13.31077,11.42769 -13.31077,11.42769 l -194.24308,0 c 0,0 0,-24.77539 -39.98769,-24.77539 l 0,-34.25538 c 0,0 -22.81846,11.43692 -22.81846,36.16615 l -28.56,0 -13.33847,-39.98769 -17.1323,38.07692 -22.85539,0 0,17.16923 -64.726152,19.03385 0,0.11077 64.726152,19.00615 0,17.16 22.85539,0 17.1323,38.07693 13.33847,-39.9877 28.56,0 c 0,24.73846 22.81846,36.16616 22.81846,36.16616 l 0,-34.25539 c 39.98769,0 39.98769,-24.77538 39.98769,-24.77538 l 194.24308,0 c 0,0 1.87384,11.43692 13.31077,11.43692 l 104.74153,0 c 0,0 5.70462,-7.61538 5.70462,-20.95384 l 0,-3.89539 z"/>
</svg>
