<?xml version="1.0" encoding="UTF-8" standalone="no"?>
<svg xmlns="http://www.w3.org/2000/svg" xmlns:xlink="http://www.w3.org/1999/xlink" version="1.1" width="600" height="236.28923">
  <radialGradient cx="0" cy="0" r="1" fx="0" fy="0" id="radialGradient364" gradientUnits="userSpaceOnUse" gradientTransform="matrix(20.171524,0,0,-20.171524,220.86621,370.13184)" spreadMethod="pad">
    <stop style="stop-color:#f6b91d" offset="0"/>
    <stop style="stop-color:#d3641c" offset="0.7"/>
    <stop style="stop-color:#bf331c" offset="1"/>
  </radialGradient>
  <radialGradient cx="0" cy="0" r="1" fx="0" fy="0" id="radialGradient2995" xlink:href="#radialGradient364" gradientUnits="userSpaceOnUse" gradientTransform="matrix(20.171524,0,0,-20.171524,220.86621,370.13184)" spreadMethod="pad"/>
  <radialGradient cx="0" cy="0" r="1" fx="0" fy="0" id="radialGradient2998" xlink:href="#radialGradient364" gradientUnits="userSpaceOnUse" gradientTransform="matrix(186.19868,0,0,186.19868,324.94347,118.13686)" spreadMethod="pad"/>
  <path d="m 146.78769,37.28308 c 0,0 -8.10461,18 -12.90461,28.67077 l -28.48616,0 0,21.12923 C 89.852308,91.66154 0,118.08923 0,118.08923 l 52.107692,15.43385 c 0,0 37.744616,11.06769 53.289228,15.64615 l 0,21.16615 28.48616,0 c 4.8,10.68 29.67692,65.95385 29.67692,65.95385 0,0 18.78462,-56.32615 22.60615,-67.86462 l 3.53539,0 c 5.65846,18.13847 19.93846,29.86154 29.24308,34.47693 l 23.11384,11.57538 0,-45.50769 c 19.71692,-3.49846 30.49846,-13.44923 35.73231,-23.4 l 172.60615,0 c 5.08616,6.6 13.01539,11.42769 23.22462,11.42769 l 112.68,0 4.79077,-6.37846 C 592.60615,148.63384 600,137.85231 600,120.07385 l 0,-3.89539 c 0,-17.74154 -7.39385,-28.56 -8.90769,-30.53538 l -4.79077,-6.3877 -112.68,0 c -10.20923,0 -18.13846,4.83693 -23.22462,11.43693 l -172.60615,0 C 272.55692,80.76923 261.77538,70.81846 242.05846,67.28308 l 0,-45.49847 L 218.94462,33.36 C 209.64,37.97538 195.36,49.72615 189.70154,67.86461 l -3.53539,0 C 182.34462,56.32615 163.56,0 163.56,0 l -16.77231,37.28308 z" style="fill:#ffffff"/>
  <path d="m 584.03077,116.17846 c 0,-13.30154 -5.70462,-20.94461 -5.70462,-20.94461 l -104.70461,0 c -11.43692,0 -13.34769,11.42769 -13.34769,11.42769 l -194.20616,0 c 0,0 0,-24.77539 -39.98769,-24.77539 l 0,-34.25538 c 0,0 -22.85538,11.43692 -22.85538,36.16615 l -28.56,0 -13.33847,-39.98769 -17.1323,38.07692 -22.85539,0 0,17.16923 -64.726152,19.03385 0,0.11077 64.726152,19.00615 0,17.16 22.85539,0 17.1323,38.07693 13.33847,-39.9877 28.56,0 c 0,24.73846 22.85538,36.16616 22.85538,36.16616 l 0,-34.25539 c 39.98769,0 39.98769,-24.77538 39.98769,-24.77538 l 194.20616,0 c 0,0 1.91077,11.43692 13.34769,11.43692 l 104.70461,0 c 0,0 5.70462,-7.61538 5.70462,-20.95384 l 0,-3.89539 z" style="fill:#bf331c"/>
  <path d="m 147.58154,83.43692 -0.96923,2.20616 -2.41846,0 -19.14462,0 0,13.4123 0,2.74154 -2.66769,0.79385 -52.827694,15.53538 52.827694,15.54462 2.66769,0.79384 0,2.77847 0,13.4123 19.14462,0 2.41846,0 0.96923,2.19693 13.23692,29.41846 10.34769,-31.00616 0.8677,-2.52 2.63077,0 28.56,0 3.71076,0 0,3.71077 c 0,15.07385 9.2677,24.66462 15.43385,29.39077 l 0,0 0,-27.48 0,-3.71077 3.67385,0 c 35.55692,0 36.31384,-20.19692 36.31384,-21.10154 l 0,0 0.0738,-3.63692 3.63692,0 194.20616,0 3.06461,0.0369 0.58154,3.02769 c 0.14769,0.8677 1.72615,8.32616 9.70154,8.32616 l 0,0 102.65538,0 c 1.44,-2.63077 4.07077,-8.61231 4.07077,-17.23385 l 0,0 0,-3.89538 c 0,-8.61231 -2.63077,-14.60308 -4.07077,-17.23385 l 0,0 -102.65538,0 c -7.97539,0 -9.55385,7.50462 -9.70154,8.36308 l 0,0 -0.58154,3.06461 -3.06461,0 -194.20616,0 -3.63692,-0.0369 -0.0738,-3.63692 c 0,-0.86769 -0.75692,-21.05538 -36.31384,-21.05538 l 0,0 -3.67385,0 0,-3.72 0,-27.5077 c -6.16615,4.72616 -15.43385,14.35385 -15.43385,29.41847 l 0,0 0,3.68307 -3.71076,0 -28.56,0 -2.63077,0 -0.8677,-2.52923 -10.34769,-31.00615 -13.23692,29.45538 z" style="fill:url(#radialGradient2998)"/>
</svg>
