<?xml version="1.0" encoding="UTF-8" standalone="no"?>
<svg xmlns="http://www.w3.org/2000/svg" xmlns:xlink="http://www.w3.org/1999/xlink" version="1.1" width="600" height="236.28923">
  <radialGradient cx="0" cy="0" r="1" fx="0" fy="0" id="radialGradient348" gradientUnits="userSpaceOnUse" gradientTransform="matrix(20.170029,0,0,-20.170029,138.34473,370.13184)" spreadMethod="pad">
    <stop style="stop-color:#d9eaf3" offset="0"/>
    <stop style="stop-color:#99aebc" offset="0.66291797"/>
    <stop style="stop-color:#536e78" offset="1"/>
  </radialGradient>
  <radialGradient cx="0" cy="0" r="1" fx="0" fy="0" id="radialGradient2995" xlink:href="#radialGradient348" gradientUnits="userSpaceOnUse" gradientTransform="matrix(20.170029,0,0,-20.170029,138.34473,370.13184)" spreadMethod="pad"/>
  <radialGradient cx="0" cy="0" r="1" fx="0" fy="0" id="radialGradient2998" xlink:href="#radialGradient348" gradientUnits="userSpaceOnUse" gradientTransform="matrix(186.18488,0,0,186.18488,324.9575,118.13686)" spreadMethod="pad"/>
  <path d="m 146.75077,37.28308 c 0,0 -8.07692,18 -12.86769,28.67077 l -28.52308,0 0,21.12923 C 89.852308,91.66154 0,118.08923 0,118.08923 l 52.098462,15.43385 c 0,0 37.753846,11.06769 53.261538,15.64615 l 0,21.16615 28.52308,0 c 4.79077,10.68 29.66769,65.95385 29.66769,65.95385 0,0 18.75692,-56.32615 22.61538,-67.86462 l 3.52616,0 c 5.66769,18.13847 19.94769,29.86154 29.24307,34.47693 l 23.07693,11.57538 0,-45.50769 c 19.76307,-3.49846 30.54461,-13.44923 35.76923,-23.4 l 172.61538,0 c 5.04,6.6 13.01539,11.42769 23.21539,11.42769 l 112.68,0 4.8,-6.37846 C 592.56923,148.63384 600,137.85231 600,120.07385 l 0,-3.89539 c 0,-17.74154 -7.43077,-28.56 -8.90769,-30.53538 l -4.8,-6.3877 -112.68,0 c -10.2,0 -18.17539,4.83693 -23.21539,11.43693 l -172.61538,0 C 272.55692,80.76923 261.77538,70.81846 242.01231,67.28308 l 0,-45.49847 L 218.93538,33.36 C 209.64,37.97538 195.36,49.72615 189.69231,67.86461 l -3.52616,0 C 182.30769,56.32615 163.55077,0 163.55077,0 l -16.8,37.28308 z" style="fill:#ffffff"/>
  <path d="m 584.02154,116.17846 c 0,-13.30154 -5.69539,-20.94461 -5.69539,-20.94461 l -104.71384,0 c -11.46462,0 -13.33846,11.42769 -13.33846,11.42769 l -194.24308,0 c 0,0 0,-24.77539 -39.98769,-24.77539 l 0,-34.25538 c 0,0 -22.8277,11.43692 -22.8277,36.16615 l -28.56,0 -13.33846,-39.98769 -17.12307,38.07692 -22.86462,0 0,17.16923 -64.726153,19.03385 0,0.11077 64.726153,19.00615 0,17.16 22.86462,0 17.12307,38.07693 13.33846,-39.9877 28.56,0 c 0,24.73846 22.8277,36.16616 22.8277,36.16616 l 0,-34.25539 c 39.98769,0 39.98769,-24.77538 39.98769,-24.77538 l 194.24308,0 c 0,0 1.87384,11.43692 13.33846,11.43692 l 104.71384,0 c 0,0 5.69539,-7.61538 5.69539,-20.95384 l 0,-3.89539 z" style="fill:#536e78"/>
  <path d="m 147.54462,83.4 -0.96924,2.20615 -2.38153,0 -19.14462,0 0,13.44923 0,2.77847 -2.67692,0.79384 -52.781541,15.49846 52.781541,15.54462 2.67692,0.79384 0,2.77847 0,13.4123 19.14462,0 2.38153,0 0.96924,2.19693 13.26461,29.45538 10.32,-31.00615 0.85846,-2.55693 2.66769,0 28.56,0 3.72,0 0,3.71077 c 0,15.07385 9.25847,24.66462 15.42462,29.39077 l 0,0 0,-27.48 0,-3.71077 3.72,0 c 35.51077,0 36.26769,-20.23384 36.30462,-21.10154 l 0,0 0.0369,-3.63692 3.64615,0 194.20616,0 3.06461,0.0369 0.57231,3.02769 c 0.14769,0.8677 1.73538,8.36308 9.70154,8.36308 l 0,0 102.61846,0 c 1.44923,-2.66769 4.08,-8.61231 4.08,-17.27077 l 0,0 0,-3.89538 c 0,-8.61231 -2.63077,-14.60308 -4.08,-17.23385 l 0,0 -102.61846,0 c -7.96616,0 -9.55385,7.50462 -9.70154,8.36308 l 0,0 -0.57231,3.06461 -3.06461,0 -194.20616,0 -3.64615,-0.0369 -0.0369,-3.63692 C 262.34772,105.83077 261.59077,85.60615 226.08,85.60615 l 0,0 -3.72,0 0,-3.72 0,-27.47077 c -6.16615,4.72616 -15.42462,14.35385 -15.42462,29.38154 l 0,0 0,3.72 -3.72,0 -28.56,0 -2.66769,0 -0.85846,-2.56615 -10.32,-31.00616 L 147.54462,83.4 z" style="fill:url(#radialGradient2998)"/>
</svg>
