<?xml version="1.0" encoding="UTF-8" standalone="no"?>
<svg xmlns="http://www.w3.org/2000/svg" version="1.1" width="600" height="236.28923">
  <path d="m 584.03077,116.17846 c 0,-13.30154 -5.70462,-20.94461 -5.70462,-20.94461 l -104.74153,0 c -11.43693,0 -13.31077,11.42769 -13.31077,11.42769 l -194.24308,0 c 0,0 0,-24.77539 -39.98769,-24.77539 l 0,-34.25538 c 0,0 -22.81846,11.43692 -22.81846,36.16615 l -28.56,0 -13.33847,-39.98769 -17.1323,38.07692 -22.85539,0 0,17.16923 -64.726152,19.03385 0,0.11077 64.726152,19.00615 0,17.16 22.85539,0 17.1323,38.07693 13.33847,-39.9877 28.56,0 c 0,24.73846 22.81846,36.16616 22.81846,36.16616 l 0,-34.25539 c 39.98769,0 39.98769,-24.77538 39.98769,-24.77538 l 194.24308,0 c 0,0 1.87384,11.43692 13.31077,11.43692 l 104.74153,0 c 0,0 5.70462,-7.61538 5.70462,-20.95384 l 0,-3.89539 z"/>
</svg>
