<?xml version="1.0" encoding="utf-8"?>
<!-- Generator: Adobe Illustrator 15.1.0, SVG Export Plug-In . SVG Version: 6.00 Build 0)  -->
<!DOCTYPE svg PUBLIC "-//W3C//DTD SVG 1.1//EN" "http://www.w3.org/Graphics/SVG/1.1/DTD/svg11.dtd">
<svg version="1.1" id="Layer_1" xmlns="http://www.w3.org/2000/svg" xmlns:xlink="http://www.w3.org/1999/xlink" x="0px" y="0px"
	 width="155px" height="145px" viewBox="0 0 155 145" enable-background="new 0 0 155 145" xml:space="preserve">
<g id="Layer_1_1_">
</g>
<g id="Layer_3" display="none">
</g>
<g>
	<path fill="#FFFFFF" d="M130.301,25.446V14.077l-28.139-10.4c0,0-4.969,18.374-24.383,18.374
		c-19.415,0-24.384-18.374-24.384-18.374l-28.14,10.4v11.369L2.779,33.723c0,0,7.461,13.851,9.707,22.65
		c2.773,10.863,3.582,24.268,3.582,24.268l18.028,6.55v9.86l43.683,43.857l43.682-43.857v-9.86l18.027-6.55
		c0,0,0.811-13.404,3.584-24.268c2.246-8.8,9.707-22.65,9.707-22.65L130.301,25.446z"/>
	<path fill="#010101" d="M25.255,47.995V31.727l-14.22,5.236c2.46,5.062,5.726,12.332,7.161,17.953
		c1.976,7.738,2.992,16.537,3.446,21.479l12.453,4.524V53.918L25.255,47.995z"/>
	<path fill="#010101" d="M130.301,31.727v16.269l-8.84,5.923V80.92l12.453-4.524c0.455-4.942,1.471-13.741,3.447-21.479
		c1.434-5.621,4.701-12.892,7.162-17.953L130.301,31.727z"/>
	<g>
		<polygon fill="#010101" points="77.779,118.953 56.284,97.221 56.284,68.783 39.99,57.866 39.99,94.617 77.779,132.557 
			115.568,94.617 115.568,57.866 99.273,68.783 99.273,97.221 		"/>
		<path fill="#010101" d="M77.779,32.68l21.495,21.734v7.275l25.135-16.84V18.182l-18.98-7.016
			c-4.135,7.717-12.873,16.779-27.649,16.779c-14.776,0-23.514-9.063-27.648-16.779l-18.981,7.016V44.85l25.135,16.84v-7.275
			L77.779,32.68z"/>
	</g>
	<path fill="#010101" d="M59.404,95.938V55.695l18.375-18.578l18.374,18.578v40.242l-18.374,18.578L59.404,95.938z M77.779,110.572
		l15.6-15.774V56.836l-15.6-15.774L62.177,56.836v37.962L77.779,110.572z"/>
</g>
</svg>
