<?xml version="1.0" encoding="utf-8"?>
<!-- Generator: Adobe Illustrator 15.1.0, SVG Export Plug-In . SVG Version: 6.00 Build 0)  -->
<!DOCTYPE svg PUBLIC "-//W3C//DTD SVG 1.1//EN" "http://www.w3.org/Graphics/SVG/1.1/DTD/svg11.dtd">
<svg version="1.1" id="Layer_1" xmlns="http://www.w3.org/2000/svg" xmlns:xlink="http://www.w3.org/1999/xlink" x="0px" y="0px"
	 width="155px" height="145px" viewBox="0 0 155 145" enable-background="new 0 0 155 145" xml:space="preserve">
<g id="Layer_1_1_">
</g>
<g id="Layer_3" display="none">
</g>
<g>
	<path fill="#010101" d="M130.322,25.445V14.077l-28.14-10.401c0,0-4.969,18.375-24.383,18.375
		c-19.415,0-24.385-18.375-24.385-18.375L25.276,14.077v11.368L2.8,33.723c0,0,7.46,13.85,9.707,22.65
		c2.773,10.862,3.582,24.268,3.582,24.268l18.027,6.549v9.861L77.8,140.907l43.683-43.856v-9.861l18.027-6.549
		c0,0,0.809-13.405,3.582-24.268c2.247-8.801,9.707-22.65,9.707-22.65L130.322,25.445z"/>
	<linearGradient id="SVGID_1_" gradientUnits="userSpaceOnUse" x1="11.0557" y1="56.3223" x2="144.543" y2="56.3223">
		<stop  offset="0" style="stop-color:#BB2F27"/>
		<stop  offset="0.0302" style="stop-color:#BE3527"/>
		<stop  offset="0.0698" style="stop-color:#C64427"/>
		<stop  offset="0.1143" style="stop-color:#D35E27"/>
		<stop  offset="0.15" style="stop-color:#E07826"/>
		<stop  offset="0.1593" style="stop-color:#E07A26"/>
		<stop  offset="0.2577" style="stop-color:#ED8B22"/>
		<stop  offset="0.3655" style="stop-color:#F59621"/>
		<stop  offset="0.5" style="stop-color:#F79820"/>
		<stop  offset="0.6345" style="stop-color:#F59621"/>
		<stop  offset="0.7423" style="stop-color:#ED8B22"/>
		<stop  offset="0.8407" style="stop-color:#E07A26"/>
		<stop  offset="0.85" style="stop-color:#E07826"/>
		<stop  offset="0.8603" style="stop-color:#DB6F27"/>
		<stop  offset="0.896" style="stop-color:#CE5328"/>
		<stop  offset="0.9314" style="stop-color:#C33F27"/>
		<stop  offset="0.9663" style="stop-color:#BD3326"/>
		<stop  offset="1" style="stop-color:#BB2F27"/>
	</linearGradient>
	<path fill="url(#SVGID_1_)" d="M34.116,53.917v27.002l-12.453-4.523c-0.453-4.942-1.471-13.741-3.445-21.48
		c-1.436-5.62-4.701-12.892-7.162-17.952l14.221-5.237v16.269L34.116,53.917z M130.322,31.726v16.269l-8.84,5.923v27.002
		l12.453-4.523c0.454-4.942,1.47-13.741,3.446-21.48c1.435-5.62,4.701-12.892,7.161-17.952L130.322,31.726z"/>
	<linearGradient id="SVGID_2_" gradientUnits="userSpaceOnUse" x1="77.8003" y1="132.5557" x2="77.8003" y2="57.8657">
		<stop  offset="0" style="stop-color:#F79820"/>
		<stop  offset="0.1004" style="stop-color:#EB8924"/>
		<stop  offset="0.2" style="stop-color:#E07826"/>
		<stop  offset="0.45" style="stop-color:#E07826"/>
		<stop  offset="0.5088" style="stop-color:#DB7026"/>
		<stop  offset="0.6048" style="stop-color:#CF5C27"/>
		<stop  offset="0.7252" style="stop-color:#BF3827"/>
		<stop  offset="0.75" style="stop-color:#BB2F27"/>
		<stop  offset="1" style="stop-color:#BB2F27"/>
	</linearGradient>
	<polygon fill="url(#SVGID_2_)" points="77.8,118.953 56.305,97.22 56.305,68.782 40.011,57.865 40.011,94.616 77.8,132.556 
		115.589,94.616 115.589,57.865 99.294,68.782 99.294,97.22 	"/>
	<linearGradient id="SVGID_3_" gradientUnits="userSpaceOnUse" x1="31.1699" y1="36.4272" x2="124.4287" y2="36.4272">
		<stop  offset="0" style="stop-color:#BB2F27"/>
		<stop  offset="0.0248" style="stop-color:#BF3827"/>
		<stop  offset="0.1452" style="stop-color:#CF5C27"/>
		<stop  offset="0.2412" style="stop-color:#DB7026"/>
		<stop  offset="0.3" style="stop-color:#E07826"/>
		<stop  offset="0.324" style="stop-color:#E58025"/>
		<stop  offset="0.3748" style="stop-color:#EE8D23"/>
		<stop  offset="0.4306" style="stop-color:#F49621"/>
		<stop  offset="0.5" style="stop-color:#F79820"/>
		<stop  offset="0.5694" style="stop-color:#F49621"/>
		<stop  offset="0.6252" style="stop-color:#EE8D23"/>
		<stop  offset="0.676" style="stop-color:#E58025"/>
		<stop  offset="0.7" style="stop-color:#E07826"/>
		<stop  offset="0.7588" style="stop-color:#DB7026"/>
		<stop  offset="0.8548" style="stop-color:#CF5C27"/>
		<stop  offset="0.9752" style="stop-color:#BF3827"/>
		<stop  offset="1" style="stop-color:#BB2F27"/>
	</linearGradient>
	<path fill="url(#SVGID_3_)" d="M77.8,32.68l21.494,21.733v7.275l25.135-16.839V18.182l-18.98-7.016
		c-4.135,7.716-12.873,16.778-27.648,16.778c-14.777,0-23.516-9.063-27.648-16.778L31.17,18.182V44.85l25.135,16.839v-7.275
		L77.8,32.68z"/>
	<polygon fill="#FFFFFF" points="77.8,110.571 93.4,94.798 93.4,56.835 77.8,41.061 62.198,56.835 62.198,94.798 	"/>
</g>
</svg>
