<?xml version="1.0" encoding="utf-8"?>
<!-- Generator: Adobe Illustrator 15.1.0, SVG Export Plug-In . SVG Version: 6.00 Build 0)  -->
<!DOCTYPE svg PUBLIC "-//W3C//DTD SVG 1.1//EN" "http://www.w3.org/Graphics/SVG/1.1/DTD/svg11.dtd">
<svg version="1.1" id="Layer_1" xmlns="http://www.w3.org/2000/svg" xmlns:xlink="http://www.w3.org/1999/xlink" x="0px" y="0px"
	 width="155px" height="145px" viewBox="0 0 155 145" enable-background="new 0 0 155 145" xml:space="preserve">
<g id="Layer_1_1_">
</g>
<g id="Layer_3" display="none">
</g>
<g>
	<path fill="#FFFFFF" d="M130.322,25.904V14.536l-28.14-10.401c0,0-4.969,18.375-24.383,18.375
		c-19.415,0-24.385-18.375-24.385-18.375L25.276,14.536v11.368L2.8,34.182c0,0,7.46,13.85,9.707,22.65
		C15.28,67.694,16.089,81.1,16.089,81.1l18.027,6.549v9.861L77.8,141.366l43.683-43.856v-9.861L139.51,81.1
		c0,0,0.809-13.405,3.582-24.268c2.247-8.801,9.707-22.65,9.707-22.65L130.322,25.904z"/>
	<linearGradient id="SVGID_1_" gradientUnits="userSpaceOnUse" x1="11.0557" y1="56.7813" x2="144.543" y2="56.7813">
		<stop  offset="0" style="stop-color:#622D76"/>
		<stop  offset="0.0372" style="stop-color:#6A397E"/>
		<stop  offset="0.107" style="stop-color:#764B8B"/>
		<stop  offset="0.15" style="stop-color:#7B5290"/>
		<stop  offset="0.1634" style="stop-color:#805894"/>
		<stop  offset="0.2205" style="stop-color:#956EA3"/>
		<stop  offset="0.2805" style="stop-color:#A680B0"/>
		<stop  offset="0.344" style="stop-color:#B48DBA"/>
		<stop  offset="0.4135" style="stop-color:#BC96C0"/>
		<stop  offset="0.5" style="stop-color:#BF99C2"/>
		<stop  offset="0.5865" style="stop-color:#BC96C0"/>
		<stop  offset="0.656" style="stop-color:#B48DBA"/>
		<stop  offset="0.7195" style="stop-color:#A680B0"/>
		<stop  offset="0.7795" style="stop-color:#956EA3"/>
		<stop  offset="0.8366" style="stop-color:#805894"/>
		<stop  offset="0.85" style="stop-color:#7B5290"/>
		<stop  offset="0.893" style="stop-color:#764B8B"/>
		<stop  offset="0.9628" style="stop-color:#6A397E"/>
		<stop  offset="1" style="stop-color:#622D76"/>
	</linearGradient>
	<path fill="url(#SVGID_1_)" d="M34.116,54.376v27.002l-12.453-4.523c-0.453-4.942-1.471-13.741-3.445-21.48
		c-1.436-5.62-4.701-12.892-7.162-17.952l14.221-5.237v16.269L34.116,54.376z M130.322,32.185v16.269l-8.84,5.923v27.002
		l12.453-4.523c0.454-4.942,1.47-13.741,3.446-21.48c1.435-5.62,4.701-12.892,7.161-17.952L130.322,32.185z"/>
	<linearGradient id="SVGID_2_" gradientUnits="userSpaceOnUse" x1="77.8003" y1="133.0146" x2="77.8003" y2="58.3247">
		<stop  offset="0" style="stop-color:#BF99C2"/>
		<stop  offset="0.0497" style="stop-color:#AF89B6"/>
		<stop  offset="0.1494" style="stop-color:#8C659D"/>
		<stop  offset="0.2" style="stop-color:#7B5290"/>
		<stop  offset="0.45" style="stop-color:#7B5290"/>
		<stop  offset="0.5359" style="stop-color:#764B8B"/>
		<stop  offset="0.6757" style="stop-color:#6A397E"/>
		<stop  offset="0.75" style="stop-color:#622D76"/>
		<stop  offset="1" style="stop-color:#622D76"/>
	</linearGradient>
	<polygon fill="url(#SVGID_2_)" points="77.8,119.412 56.305,97.679 56.305,69.241 40.011,58.324 40.011,95.075 77.8,133.015 
		115.589,95.075 115.589,58.324 99.294,69.241 99.294,97.679 	"/>
	<linearGradient id="SVGID_3_" gradientUnits="userSpaceOnUse" x1="31.1699" y1="36.8862" x2="124.4287" y2="36.8862">
		<stop  offset="0" style="stop-color:#622D76"/>
		<stop  offset="0.0496" style="stop-color:#6A397E"/>
		<stop  offset="0.1427" style="stop-color:#764B8B"/>
		<stop  offset="0.2" style="stop-color:#7B5290"/>
		<stop  offset="0.2115" style="stop-color:#805894"/>
		<stop  offset="0.2604" style="stop-color:#956EA3"/>
		<stop  offset="0.3118" style="stop-color:#A680B0"/>
		<stop  offset="0.3663" style="stop-color:#B48DBA"/>
		<stop  offset="0.4259" style="stop-color:#BC96C0"/>
		<stop  offset="0.5" style="stop-color:#BF99C2"/>
		<stop  offset="0.5741" style="stop-color:#BC96C0"/>
		<stop  offset="0.6337" style="stop-color:#B48DBA"/>
		<stop  offset="0.6882" style="stop-color:#A680B0"/>
		<stop  offset="0.7396" style="stop-color:#956EA3"/>
		<stop  offset="0.7885" style="stop-color:#805894"/>
		<stop  offset="0.8" style="stop-color:#7B5290"/>
		<stop  offset="0.8573" style="stop-color:#764B8B"/>
		<stop  offset="0.9504" style="stop-color:#6A397E"/>
		<stop  offset="1" style="stop-color:#622D76"/>
	</linearGradient>
	<path fill="url(#SVGID_3_)" d="M77.8,33.139l21.494,21.733v7.275l25.135-16.839V18.641l-18.98-7.016
		c-4.135,7.716-12.873,16.778-27.648,16.778c-14.777,0-23.516-9.063-27.648-16.778L31.17,18.641v26.668l25.135,16.839v-7.275
		L77.8,33.139z"/>
	<linearGradient id="SVGID_4_" gradientUnits="userSpaceOnUse" x1="62.1982" y1="76.2754" x2="93.4004" y2="76.2754">
		<stop  offset="0" style="stop-color:#622D76"/>
		<stop  offset="0.013" style="stop-color:#68357C"/>
		<stop  offset="0.0426" style="stop-color:#724586"/>
		<stop  offset="0.0718" style="stop-color:#794F8E"/>
		<stop  offset="0.1" style="stop-color:#7B5290"/>
		<stop  offset="0.1153" style="stop-color:#805894"/>
		<stop  offset="0.1805" style="stop-color:#956EA3"/>
		<stop  offset="0.2491" style="stop-color:#A680B0"/>
		<stop  offset="0.3218" style="stop-color:#B48DBA"/>
		<stop  offset="0.4011" style="stop-color:#BC96C0"/>
		<stop  offset="0.5" style="stop-color:#BF99C2"/>
		<stop  offset="0.5989" style="stop-color:#BC96C0"/>
		<stop  offset="0.6782" style="stop-color:#B48DBA"/>
		<stop  offset="0.7509" style="stop-color:#A680B0"/>
		<stop  offset="0.8195" style="stop-color:#956EA3"/>
		<stop  offset="0.8847" style="stop-color:#805894"/>
		<stop  offset="0.9" style="stop-color:#7B5290"/>
		<stop  offset="0.9265" style="stop-color:#784D8D"/>
		<stop  offset="0.9613" style="stop-color:#6F4183"/>
		<stop  offset="1" style="stop-color:#622D76"/>
	</linearGradient>
	<polygon fill="url(#SVGID_4_)" points="77.8,111.03 93.4,95.257 93.4,57.294 77.8,41.52 62.198,57.294 62.198,95.257 	"/>
</g>
</svg>
