<?xml version="1.0" encoding="utf-8"?>
<!-- Generator: Adobe Illustrator 15.1.0, SVG Export Plug-In . SVG Version: 6.00 Build 0)  -->
<!DOCTYPE svg PUBLIC "-//W3C//DTD SVG 1.1//EN" "http://www.w3.org/Graphics/SVG/1.1/DTD/svg11.dtd">
<svg version="1.1" id="Layer_1" xmlns="http://www.w3.org/2000/svg" xmlns:xlink="http://www.w3.org/1999/xlink" x="0px" y="0px"
	 width="155px" height="145px" viewBox="0 0 155 145" enable-background="new 0 0 155 145" xml:space="preserve">
<g id="Layer_1_1_">
</g>
<g id="Layer_3" display="none">
</g>
<g>
	<path fill="#010101" d="M28.366,52.156v30.342l-13.994-5.083c-0.51-5.554-1.652-15.44-3.872-24.138
		c-1.612-6.314-5.283-14.486-8.047-20.173l15.98-5.885v18.281L28.366,52.156z M136.473,27.22v18.281l-9.934,6.655v30.342
		l13.994-5.083c0.51-5.554,1.651-15.44,3.873-24.138c1.611-6.314,5.282-14.486,8.047-20.173L136.473,27.22z"/>
	<polygon fill="#010101" points="77.453,125.237 53.299,100.815 53.299,68.86 34.989,56.593 34.989,97.89 77.453,140.522 
		119.916,97.89 119.916,56.593 101.606,68.86 101.606,100.815 	"/>
	<path fill="#010101" d="M77.453,28.292l24.154,24.422v8.175l28.243-18.922V12l-21.328-7.883
		c-4.646,8.67-14.465,18.854-31.069,18.854S51.029,12.787,46.385,4.117L25.055,12v29.967l28.244,18.922v-8.175L77.453,28.292z"/>
	<polygon fill="#010101" points="77.453,115.818 94.983,98.094 94.983,55.436 77.453,37.709 59.922,55.436 59.922,98.094 	"/>
</g>
</svg>
