<?xml version="1.0" encoding="UTF-8" standalone="no"?>
<svg xmlns="http://www.w3.org/2000/svg" version="1.1" width="600" height="334.21844">
  <path d="m 285.94154,136.91077 25.16308,0 c 24.34153,0 33.85846,-3.93231 36.63692,-5.44616 l 5.84308,-13.63384 15.83076,8.47384 c 0.17576,0.11077 19.03385,10.02462 50.44616,10.02462 20.69538,0 34.07077,-7.03385 34.07077,-17.88 0,-8.65846 -7.92923,-31.08923 -44.28,-31.08923 -55.42154,0 -98.00308,30.72923 -98.43693,31.05231 l -25.27384,18.49846 z m 0,60.39692 25.27384,18.48923 c 0.43348,0.33231 43.01539,31.08923 98.43693,31.08923 36.35077,0 44.28,-22.43077 44.28,-31.11692 0,-10.85538 -13.37539,-17.88923 -34.07077,-17.88923 -31.41231,0 -50.23385,9.91385 -50.44616,10.02461 l -15.72,8.47385 -5.95384,-13.59692 c -2.77846,-1.55077 -12.29539,-5.47385 -36.63692,-5.47385 l -25.16308,0 z m 172.92923,136.91077 c -154.32923,0 -193.16308,-136.91077 -193.16308,-136.91077 l -217.135382,0 -21.313846,9.55385 L 6.3507692,176.35384 0,167.08615 l 27.295385,-39.73846 21.276923,9.56308 217.172312,0 C 265.74462,136.91077 305.73231,0 458.87077,0 555.83077,0 600,88.87384 600,88.87384 l -29.81538,1.44924 c -41.61231,2.0123 -42.08308,26.50153 -42.08308,27.54461 0,2.92615 1.8,9.84923 3.96923,16.33846 l 24.84,11.71385 0,42.36923 -24.84,11.72308 c -2.16923,6.52615 -3.96923,13.4123 -3.96923,16.36615 0,1.04308 0.4704,25.53231 42.08308,27.50769 L 600,245.29846 c 0,0 -42.97846,88.92 -141.12923,88.92" style="fill:#808080"/>
  <path d="m 19.836923,167.08615 13.190769,-19.21846 12.046154,5.40923 266.067694,0 c 45.03692,0 50.44615,-12.61846 50.44615,-12.61846 0,0 21.6,12.00923 58.23693,12.00923 36.66461,0 50.47384,-18 50.47384,-34.21846 0,-16.22769 -13.80923,-47.45539 -60.64615,-47.45539 -61.87385,0 -108.13846,34.25539 -108.13846,34.25539 30.03692,-55.27385 87.6923,-88.92 157.35692,-88.92 69.66461,0 110.52,57.65538 110.52,57.65538 -50.44615,2.41847 -57.65539,34.25539 -57.65539,43.84616 0,9.62769 7.20924,28.23692 7.20924,28.23692 l 21.63692,10.2 0,21.67385 -21.63692,10.2 c 0,0 -7.20924,18.60923 -7.20924,28.23692 0,9.59077 7.20924,41.42769 57.65539,43.84615 0,0 -40.85539,57.65539 -110.52,57.65539 -69.66462,0 -127.32,-33.63692 -157.35692,-88.88308 0,0 46.26461,34.21846 108.13846,34.21846 46.83692,0 60.64615,-31.22769 60.64615,-47.44615 0,-16.19077 -13.80923,-34.21846 -50.47384,-34.21846 -36.63693,0 -58.23693,12 -58.23693,12 0,0 -5.40923,-12.61846 -50.44615,-12.61846 l -266.067694,0 -12.046154,5.40923 -13.190769,-19.25539 z"/>
</svg>
