<?xml version="1.0" encoding="UTF-8" standalone="no"?>
<svg xmlns="http://www.w3.org/2000/svg" xmlns:xlink="http://www.w3.org/1999/xlink" version="1.1" width="600" height="334.21844">
  <radialGradient cx="0" cy="0" r="1" fx="0" fy="0" id="radialGradient328" gradientUnits="userSpaceOnUse" gradientTransform="matrix(23.346786,0,0,-23.346786,744.88477,482.29492)" spreadMethod="pad">
    <stop style="stop-color:#ebd491" offset="0"/>
    <stop style="stop-color:#d2bb7b" offset="0.7"/>
    <stop style="stop-color:#8b723c" offset="1"/>
  </radialGradient>
  <radialGradient cx="0" cy="0" r="1" fx="0" fy="0" id="radialGradient2995" xlink:href="#radialGradient328" gradientUnits="userSpaceOnUse" gradientTransform="matrix(23.346786,0,0,-23.346786,744.88477,482.29492)" spreadMethod="pad"/>
  <radialGradient cx="0" cy="0" r="1" fx="0" fy="0" id="radialGradient2998" xlink:href="#radialGradient328" gradientUnits="userSpaceOnUse" gradientTransform="matrix(215.5088,0,0,215.5088,292.84403,167.10528)" spreadMethod="pad"/>
  <path d="m 285.94154,136.91077 25.16308,0 c 24.30461,0 33.85846,-3.93231 36.63692,-5.44616 l 5.84308,-13.63384 15.83076,8.47384 c 0.17576,0.11077 19.03385,10.02462 50.40924,10.02462 20.7323,0 34.10769,-7.03385 34.10769,-17.88 0,-8.65846 -7.92923,-31.08923 -44.31693,-31.08923 -55.38461,0 -98.00307,30.72923 -98.4,31.05231 l -25.27384,18.49846 z m 0,60.39692 25.27384,18.48923 c 0.43348,0.33231 43.01539,31.08923 98.4,31.08923 36.3877,0 44.31693,-22.43077 44.31693,-31.11692 0,-10.85538 -13.37539,-17.88923 -34.10769,-17.88923 -31.37539,0 -50.23385,9.91385 -50.40924,10.02461 l -15.72,8.47385 -5.95384,-13.59692 c -2.77846,-1.55077 -12.29539,-5.47385 -36.63692,-5.47385 l -25.16308,0 z m 172.92923,136.91077 c -154.32923,0 -193.16308,-136.91077 -193.16308,-136.91077 l -217.135382,0 -21.313846,9.55385 L 6.3507692,176.35384 0,167.08615 l 27.295385,-39.73846 21.276923,9.56308 217.135382,0 c 0,0 40.02462,-136.91077 193.16308,-136.91077 96.92308,0 141.09231,88.87384 141.09231,88.87384 l -29.77846,1.44924 c -41.61231,2.0123 -42.12,26.50153 -42.12,27.54461 0,2.92615 1.83692,9.84923 3.96923,16.33846 l 24.87692,11.71385 0,42.36923 -24.87692,11.72308 c -2.13231,6.52615 -3.96923,13.4123 -3.96923,16.36615 0,1.04308 0.50732,25.53231 42.12,27.50769 L 600,245.29846 c 0,0 -42.97846,88.92 -141.12923,88.92" style="fill:#ffffff"/>
  <path d="m 19.836923,167.08615 13.190769,-19.21846 12.009231,5.40923 266.067697,0 c 45.07384,0 50.44615,-12.61846 50.44615,-12.61846 0,0 21.63692,12.00923 58.27385,12.00923 36.66461,0 50.47384,-18 50.47384,-34.21846 0,-16.22769 -13.80923,-47.45539 -60.68308,-47.45539 -61.87384,0 -108.10153,34.25539 -108.10153,34.25539 30.03692,-55.27385 87.6923,-88.92 157.35692,-88.92 69.66461,0 110.52,57.65538 110.52,57.65538 -50.44615,2.41847 -57.65539,34.25539 -57.65539,43.84616 0,9.62769 7.20924,28.23692 7.20924,28.23692 l 21.6,10.2 0,21.67385 -21.6,10.2 c 0,0 -7.20924,18.60923 -7.20924,28.23692 0,9.59077 7.20924,41.42769 57.65539,43.84615 0,0 -40.85539,57.65539 -110.52,57.65539 -69.66462,0 -127.32,-33.63692 -157.35692,-88.88308 0,0 46.22769,34.21846 108.10153,34.21846 46.87385,0 60.68308,-31.22769 60.68308,-47.44615 0,-16.19077 -13.80923,-34.21846 -50.47384,-34.21846 -36.63693,0 -58.27385,12 -58.27385,12 0,0 -5.37231,-12.61846 -50.44615,-12.61846 l -266.067697,0 -12.009231,5.40923 -13.190769,-19.25539 z" style="fill:#8b723c"/>
  <path d="m 315.75692,91.07992 c 19.18154,-10.38461 53.04,-24.66461 93.85846,-24.66461 l 0,0 c 47.92616,0 65.29847,31.11692 65.29847,52.03385 l 0,0 c 0,17.91692 -14.41847,38.83384 -55.08923,38.83384 l 0,0 c -29.39077,0 -49.32924,-7.43077 -57.00924,-10.89231 l 0,0 c -5.16,4.68923 -18.35076,11.50154 -51.71076,11.50154 l 0,0 -266.067697,0 -0.969231,0 -0.904615,-0.43384 -8.510769,-3.78462 -9.23077,13.41231 9.23077,13.44923 8.510769,-3.82154 0.904615,-0.39692 0.969231,0 266.067697,0 c 33.36,0 46.55076,6.81231 51.71076,11.50154 l 0,0 c 7.64308,-3.42462 27.61847,-10.88308 57.00924,-10.88308 l 0,0 c 40.67076,0 55.08923,20.90769 55.08923,38.83385 l 0,0 c 0,20.94461 -17.37231,52.06153 -65.29847,52.06153 l 0,0 c -40.81846,0 -74.67692,-14.31692 -93.85846,-24.70153 l 0,0 c 31.41231,44.24307 83.5477,70.13538 143.11385,70.13538 l 0,0 c 52.46769,0 88.44923,-34.46769 101.42769,-49.18154 l 0,0 C 507.76615,257.55685 507.12,218.10454 507.12,216.34146 l 0,0 c 0,-10.31077 7.20923,-29.05846 7.53231,-29.8523 l 0,0 0.64615,-1.73539 1.66154,-0.79385 19.00615,-8.9723 0,-15.75693 -19.00615,-8.98153 -1.66154,-0.79385 -0.64615,-1.73539 C 514.32923,146.93531 507.12,128.21531 507.12,117.83069 l 0,0 c 0,-1.72615 0.64615,-41.17846 53.17846,-47.70461 l 0,0 C 547.32,55.41223 511.33846,20.94454 458.87077,20.94454 l 0,0 c -59.56615,0 -111.70154,25.89231 -143.11385,70.13538" style="fill:url(#radialGradient2998)"/>
</svg>
