<?xml version="1.0" encoding="UTF-8" standalone="no"?>
<svg xmlns="http://www.w3.org/2000/svg" version="1.1" width="600" height="334.21844">
  <path d="m 19.836923,167.08615 13.190769,-19.21846 12.046154,5.40923 266.067694,0 c 45.03692,0 50.44615,-12.61846 50.44615,-12.61846 0,0 21.6,12.00923 58.23693,12.00923 36.66461,0 50.47384,-18 50.47384,-34.21846 0,-16.22769 -13.80923,-47.45539 -60.64615,-47.45539 -61.87385,0 -108.13846,34.25539 -108.13846,34.25539 30.03692,-55.27385 87.6923,-88.92 157.35692,-88.92 69.66461,0 110.52,57.65538 110.52,57.65538 -50.44615,2.41847 -57.65539,34.25539 -57.65539,43.84616 0,9.62769 7.20924,28.23692 7.20924,28.23692 l 21.63692,10.2 0,21.67385 -21.63692,10.2 c 0,0 -7.20924,18.60923 -7.20924,28.23692 0,9.59077 7.20924,41.42769 57.65539,43.84615 0,0 -40.85539,57.65539 -110.52,57.65539 -69.66462,0 -127.32,-33.63692 -157.35692,-88.88308 0,0 46.26461,34.21846 108.13846,34.21846 46.83692,0 60.64615,-31.22769 60.64615,-47.44615 0,-16.19077 -13.80923,-34.21846 -50.47384,-34.21846 -36.63693,0 -58.23693,12 -58.23693,12 0,0 -5.40923,-12.61846 -50.44615,-12.61846 l -266.067694,0 -12.046154,5.40923 -13.190769,-19.25539 z"/>
</svg>
