<?xml version="1.0" encoding="utf-8"?>
<svg xmlns="http://www.w3.org/2000/svg" xmlns:xlink="http://www.w3.org/1999/xlink" version="1.1" id="Layer_1" x="0px" y="0px" width="254px" height="300px">
  <g>
    <path fill="#808080" d="M127.096,0l-9.954,23.557c-4.064,9.689-9.187,19.937-11.632,23.294   c-18.844,7.536-33.39,15.516-44.049,21.436C55.777,71.41,49.329,75,47.296,75.444c-0.235-0.06-5.153-1.325-11.896-7.335   c-11.425-7.449-3.239-20.905-3.239-20.905L18.999,47.85c-4.535,0.12-10.866,2.209-15.018,7.718   c-2.62,3.531-5.241,9.686-2.739,19.081c1.973,7.538,9.806,36.363,17.639,63.396l0.795,2.56l1.826,2.005l25.412,25.705   l-18.286,0.295l4.152,13.752c3.092,10.483,12.191,24.498,19.346,34.57c-4.181,1.383-7.98,3.502-11.189,6.39l-3.622,3.387   l0.177,5.006c0.177,3.915-0.059,8.979-0.324,11.955c-3.151,29.918-22.291,56.213-22.291,56.213S59.87,288.898,81.632,266.4   c2.385-2.356,4.328-4.887,5.801-7.598c18.198,20.084,31.536,33.246,32.125,33.776l7.538,7.421l7.48-7.423   c0.589-0.586,13.869-13.691,31.859-33.714c1.443,2.59,3.357,5.005,5.596,7.184c25.117,23.821,66.754,33.834,66.754,33.834   s-20.288-37.752-21.967-56.271c-0.264-2.916-0.441-7.98-0.323-11.898l0.206-5.004l-3.622-3.387   c-3.209-2.887-7.009-5.006-11.188-6.389c7.185-10.396,16.194-24.031,19.375-34.511l4.004-13.397l-18.051-0.236l25.206-26.179   l1.884-1.942l0.707-2.562c7.98-27.092,15.754-55.921,17.756-63.459c2.475-9.335-0.117-15.548-2.826-19.08   c-4.006-5.506-10.454-7.596-14.988-7.713l-13.752-0.384c0,0,8.51,12.691-2.648,20.64c-6.686,6.008-11.691,7.275-12.604,7.275   c-1.325-0.383-7.744-3.975-13.516-7.157c-10.631-5.857-25.119-13.839-43.875-21.376c-2.474-3.356-7.598-13.516-11.631-23.202   L127.096,0z"/>
    <path d="M76.191,231.543c7.096,7.482,5.653,19.67-1.708,26.916c-14.989,13.457-39.105,24.323-39.105,24.323   s10.542-16.61,12.515-38.195c0.293-3.324,0.53-8.951,0.353-13.396C55.666,224.42,69.124,224.125,76.191,231.543 M206.18,244.598   c-0.296-3.326-0.531-8.978-0.354-13.396c-7.421-6.802-20.935-7.068-27.944,0.354c-7.186,7.478-5.683,19.668,1.68,26.91   c14.987,13.458,39.164,24.323,39.164,24.323S208.121,266.154,206.18,244.598 M111.174,56.185   C77.258,69.462,56.877,85.001,48.86,86.041c-4.671,0.374-12.484-2.8-20.502-9.893c-9.765-8.719-9.428-15.715-9.033-17.62   c-2.285,0.075-10.777,2.107-7.677,13.356c1.894,7.572,9.69,36.274,17.561,63.196l29.098,29.65c1.897,2.127,4.79,7.422,0.786,12.158   c-4.592,5.352-10.807,4.314-13.973,3.278c-1.303-0.409-2.132-0.796-2.132-0.796c3.58,11.574,17.355,30.449,18.395,32.009   c2.047-0.416,17.494-2.897,28.553,9.338c10.702,11.877,5.441,25.779,3.851,29.028c19.05,21.178,33.268,35.168,33.268,35.168   s14.238-13.936,33.23-35.166c-1.586-3.211-6.85-17.114,3.807-29.05c11.055-12.161,26.602-9.781,28.611-9.308   c0.992-1.559,14.793-20.474,18.329-32.048c0,0-0.856,0.448-2.118,0.82c-3.178,1.057-9.393,2.052-14.076-3.259   c-3.818-4.799-0.923-10.029,0.946-12.152l29.034-29.683c7.922-26.949,15.617-55.671,17.604-63.215   c3.06-11.243-5.433-13.277-7.756-13.328c0.446,1.875,0.942,8.897-8.967,17.614c-8.007,7.082-15.927,10.288-20.581,9.887   c-7.949-1.044-28.359-16.542-62.189-29.861c-4.804-1.924-15.864-28.394-15.864-28.394S115.937,54.273,111.174,56.185    M105.287,187.374l-37.662-53.032l-0.001-19.491l37.662,31.271L105.287,187.374z M186.455,134.348l-37.721,53.033V146.1   l37.721-31.243V134.348z"/>
  </g>
</svg>
