<?xml version="1.0" encoding="UTF-8" standalone="no"?>
<svg xmlns="http://www.w3.org/2000/svg" version="1.1" id="Layer_1" x="0px" y="0px" width="254px" height="300px" viewBox="0 0 254 300">
  <g id="g3">
    <path id="path5" d="M127.096,0l-9.954,23.557c-4.064,9.689-9.187,19.937-11.632,23.294   c-18.844,7.536-33.39,15.516-44.049,21.436C55.777,71.41,49.329,75,47.296,75.444c-0.235-0.06-5.153-1.325-11.896-7.335   c-11.425-7.449-3.239-20.905-3.239-20.905L18.999,47.85c-4.535,0.12-10.866,2.209-15.018,7.718   c-2.62,3.531-5.241,9.686-2.739,19.081c1.973,7.538,9.806,36.363,17.639,63.396l0.795,2.56l1.826,2.005l25.412,25.705   l-18.286,0.295l4.152,13.752c3.092,10.483,12.191,24.498,19.346,34.57c-4.181,1.383-7.98,3.502-11.189,6.39l-3.622,3.387   l0.177,5.006c0.177,3.915-0.059,8.979-0.324,11.955c-3.151,29.918-22.291,56.213-22.291,56.213S59.87,288.898,81.632,266.4   c2.385-2.356,4.328-4.887,5.801-7.598c18.198,20.084,31.536,33.246,32.125,33.776l7.538,7.421l7.48-7.423   c0.589-0.586,13.869-13.691,31.859-33.714c1.443,2.59,3.357,5.005,5.596,7.184c25.117,23.821,66.754,33.834,66.754,33.834   s-20.288-37.752-21.967-56.271c-0.264-2.916-0.441-7.98-0.323-11.898l0.206-5.004l-3.622-3.387   c-3.209-2.887-7.009-5.006-11.188-6.389c7.185-10.396,16.194-24.031,19.375-34.511l4.004-13.397l-18.051-0.236l25.206-26.179   l1.884-1.942l0.707-2.562c7.98-27.092,15.754-55.921,17.756-63.459c2.475-9.335-0.117-15.548-2.826-19.08   c-4.006-5.506-10.454-7.596-14.988-7.713l-13.752-0.384c0,0,8.51,12.691-2.648,20.64c-6.686,6.008-11.691,7.275-12.604,7.275   c-1.325-0.383-7.744-3.975-13.516-7.157c-10.631-5.857-25.119-13.839-43.875-21.376c-2.474-3.356-7.598-13.516-11.631-23.202   L127.096,0z"/>
    <path id="path7" d="m 76.191,231.543 c 7.096,7.482 5.653,19.67 -1.708,26.916 -14.989,13.457 -39.105,24.323 -39.105,24.323 0,0 10.542,-16.61 12.515,-38.195 0.293,-3.324 0.53,-8.951 0.353,-13.396 7.42,-6.771 20.878,-7.066 27.945,0.352 m 129.989,13.055 c -0.296,-3.326 -0.531,-8.978 -0.354,-13.396 -7.421,-6.802 -20.935,-7.068 -27.944,0.354 -7.186,7.478 -5.683,19.668 1.68,26.91 14.987,13.458 39.164,24.323 39.164,24.323 0,0 -10.605,-16.635 -12.546,-38.191" style="fill:#d8bd7b"/>
    <path id="path7_1_" d="M 111.174,56.185 C 77.258,69.462 56.877,85.001 48.86,86.041 44.189,86.415 36.376,83.241 28.358,76.148 18.593,67.429 18.93,60.433 19.325,58.528 17.04,58.603 8.548,60.635 11.648,71.884 c 1.894,7.572 9.69,36.274 17.561,63.196 l 29.098,29.65 c 1.897,2.127 4.79,7.422 0.786,12.158 -4.592,5.352 -10.807,4.314 -13.973,3.278 -1.303,-0.409 -2.132,-0.796 -2.132,-0.796 3.58,11.574 17.355,30.449 18.395,32.009 2.047,-0.416 17.494,-2.897 28.553,9.338 10.702,11.877 5.441,25.779 3.851,29.028 19.05,21.178 33.268,35.168 33.268,35.168 0,0 14.238,-13.936 33.23,-35.166 -1.586,-3.211 -6.85,-17.114 3.807,-29.05 11.055,-12.161 26.602,-9.781 28.611,-9.308 0.992,-1.559 14.793,-20.474 18.329,-32.048 0,0 -0.856,0.448 -2.118,0.82 -3.178,1.057 -9.393,2.052 -14.076,-3.259 -3.818,-4.799 -0.923,-10.029 0.946,-12.152 l 29.034,-29.683 c 7.922,-26.949 15.617,-55.671 17.604,-63.215 3.06,-11.243 -5.433,-13.277 -7.756,-13.328 0.446,1.875 0.942,8.897 -8.967,17.614 -8.007,7.082 -15.927,10.288 -20.581,9.887 C 197.169,84.981 176.759,69.483 142.929,56.164 138.125,54.24 127.065,27.77 127.065,27.77 c 0,0 -11.128,26.503 -15.891,28.415 m -5.887,131.189 -37.662,-53.032 -0.001,-19.491 37.662,31.271 z m 81.168,-53.026 -37.721,53.033 0,-41.281 37.721,-31.243 z" style="fill:url(#path7_3_)"/>
    <linearGradient id="path7_3_" gradientUnits="userSpaceOnUse" x1="218.13379" y1="272.05609" x2="40.1381" y2="22.7706" gradientTransform="matrix(1 0 0 -1 0 301)">
      <stop offset="0.2" style="stop-color:#8b723c"/>
      <stop offset="0.5" style="stop-color:#ebd491"/>
      <stop offset="0.8" style="stop-color:#8b723c"/>
    </linearGradient>
  </g>
</svg>
