<?xml version="1.0" encoding="utf-8"?>
<svg xmlns="http://www.w3.org/2000/svg" xmlns:xlink="http://www.w3.org/1999/xlink" version="1.1" id="Layer_1" x="0px" y="0px" width="254px" height="300px">
    <path d="M76.191,231.543c7.096,7.482,5.653,19.67-1.708,26.916c-14.989,13.457-39.105,24.323-39.105,24.323   s10.542-16.61,12.515-38.195c0.293-3.324,0.53-8.951,0.353-13.396C55.666,224.42,69.124,224.125,76.191,231.543 M206.18,244.598   c-0.296-3.326-0.531-8.978-0.354-13.396c-7.421-6.802-20.935-7.068-27.944,0.354c-7.186,7.478-5.683,19.668,1.68,26.91   c14.987,13.458,39.164,24.323,39.164,24.323S208.121,266.154,206.18,244.598 M111.174,56.185   C77.258,69.462,56.877,85.001,48.86,86.041c-4.671,0.374-12.484-2.8-20.502-9.893c-9.765-8.719-9.428-15.715-9.033-17.62   c-2.285,0.075-10.777,2.107-7.677,13.356c1.894,7.572,9.69,36.274,17.561,63.196l29.098,29.65c1.897,2.127,4.79,7.422,0.786,12.158   c-4.592,5.352-10.807,4.314-13.973,3.278c-1.303-0.409-2.132-0.796-2.132-0.796c3.58,11.574,17.355,30.449,18.395,32.009   c2.047-0.416,17.494-2.897,28.553,9.338c10.702,11.877,5.441,25.779,3.851,29.028c19.05,21.178,33.268,35.168,33.268,35.168   s14.238-13.936,33.23-35.166c-1.586-3.211-6.85-17.114,3.807-29.05c11.055-12.161,26.602-9.781,28.611-9.308   c0.992-1.559,14.793-20.474,18.329-32.048c0,0-0.856,0.448-2.118,0.82c-3.178,1.057-9.393,2.052-14.076-3.259   c-3.818-4.799-0.923-10.029,0.946-12.152l29.034-29.683c7.922-26.949,15.617-55.671,17.604-63.215   c3.06-11.243-5.433-13.277-7.756-13.328c0.446,1.875,0.942,8.897-8.967,17.614c-8.007,7.082-15.927,10.288-20.581,9.887   c-7.949-1.044-28.359-16.542-62.189-29.861c-4.804-1.924-15.864-28.394-15.864-28.394S115.937,54.273,111.174,56.185    M105.287,187.374l-37.662-53.032l-0.001-19.491l37.662,31.271L105.287,187.374z M186.455,134.348l-37.721,53.033V146.1   l37.721-31.243V134.348z"/>
</svg>
