<?xml version="1.0" encoding="utf-8"?>
<!-- Generator: Adobe Illustrator 15.1.0, SVG Export Plug-In . SVG Version: 6.00 Build 0)  -->
<!DOCTYPE svg PUBLIC "-//W3C//DTD SVG 1.1//EN" "http://www.w3.org/Graphics/SVG/1.1/DTD/svg11.dtd">
<svg version="1.1" id="Layer_1" xmlns="http://www.w3.org/2000/svg" xmlns:xlink="http://www.w3.org/1999/xlink" x="0px" y="0px"
	 width="160px" height="115px" viewBox="0 0 160 115" enable-background="new 0 0 160 115" xml:space="preserve">
<g id="Layer_1_1_">
</g>
<g id="Layer_3" display="none">
</g>
<g>
	<path fill="#5D5E61" d="M155.168,60.769c0,0-1.33-7.441-4.937-15.715c-3.754-8.608-9.705-14.684-9.705-14.684
		s-14.007,5.968-25.277,17.872l-2.009-1.339c5.525-7.046,10.685-11.4,13.447-13.478l3.512-2.641l-2.54-3.585
		C117.08,12.254,99.326,3.334,80.167,3.334c-19.158,0-36.912,8.92-47.491,23.864l-2.54,3.585l3.511,2.641
		c2.763,2.077,7.921,6.432,13.447,13.478l-2.009,1.339C33.816,36.337,19.808,30.369,19.808,30.369s-5.95,6.076-9.704,14.684
		c-3.607,8.274-4.937,15.715-4.937,15.715s6.605-0.408,12.947,0.826c-7.346,9.883-7.665,23.719-7.665,23.719s9.34-1.589,16.02-1.589
		c23.238,0,38.671,11.04,42.405,13.876c6.268,4.761,11.292,13.099,11.292,13.099s5.024-8.338,11.293-13.099
		c3.734-2.836,19.168-13.876,42.406-13.876c6.68,0,16.019,1.589,16.019,1.589s-0.318-13.836-7.664-23.719
		C148.562,60.36,155.168,60.769,155.168,60.769z"/>
	<path d="M42.837,52.464l16.852,24.101c-3.334-2.76-12.609-10.021-24.302-14.618c-14.696-5.777-24.493-5.699-24.493-5.699
		c2.826-11.682,10.079-20.255,10.079-20.255S31.862,41.381,42.837,52.464z M139.361,35.992c0,0,7.254,8.573,10.079,20.255
		c0,0-9.797-0.078-24.492,5.699c-11.693,4.597-20.968,11.858-24.302,14.618l16.851-24.101
		C128.473,41.381,139.361,35.992,139.361,35.992z M52.255,72.821c-4.58-3.196-10.6-6.792-17.419-9.472
		c-3.628-1.427-6.947-2.487-9.885-3.28c-7.968,9.089-9.283,19.761-9.283,19.761s3.517-0.629,10.803-0.629
		c29.204,0,45.47,15.074,45.47,15.074S65.157,81.824,52.255,72.821z M88.396,94.275c0,0,16.267-15.074,45.471-15.074
		c7.285,0,10.802,0.629,10.802,0.629s-1.314-10.672-9.283-19.761c-2.938,0.793-6.258,1.854-9.886,3.28
		c-6.819,2.68-12.84,6.275-17.419,9.472C95.177,81.824,88.396,94.275,88.396,94.275z M66.546,9.521
		c4.344-1.083,8.909-1.664,13.621-1.664s9.277,0.581,13.62,1.664c-2.184,5.067-5.01,14.531-2.266,25.611l-11.354-7.573
		l-11.354,7.573C71.556,24.052,68.731,14.588,66.546,9.521z M64.717,10.013c-11.751,3.363-21.739,10.458-28.351,19.799
		c3.378,2.541,9.521,7.801,15.866,16.379l14.184-9.459C70.029,25.052,66.932,15.024,64.717,10.013z M93.919,36.731l14.184,9.459
		c6.345-8.579,12.488-13.839,15.866-16.379c-6.612-9.341-16.6-16.436-28.352-19.799C93.403,15.022,90.305,25.052,93.919,36.731z
		 M96.779,78.43V41.358l17.806,11.874L96.779,78.43z M45.75,53.232L63.556,78.43V41.358L45.75,53.232z M80.167,30.278L65.063,40.351
		v40.211l15.104,21.375l15.104-21.375V40.351L80.167,30.278z"/>
</g>
</svg>
