<?xml version="1.0" encoding="utf-8"?>
<!-- Generator: Adobe Illustrator 15.1.0, SVG Export Plug-In . SVG Version: 6.00 Build 0)  -->
<!DOCTYPE svg PUBLIC "-//W3C//DTD SVG 1.1//EN" "http://www.w3.org/Graphics/SVG/1.1/DTD/svg11.dtd">
<svg version="1.1" id="Layer_1" xmlns="http://www.w3.org/2000/svg" xmlns:xlink="http://www.w3.org/1999/xlink" x="0px" y="0px"
	 width="160px" height="115px" viewBox="0 0 160 115" enable-background="new 0 0 160 115" xml:space="preserve">
<g id="Layer_1_1_">
</g>
<g id="Layer_3" display="none">
</g>
<g>
	<path d="M154.945,60.769c0,0-1.331-7.441-4.937-15.715c-3.753-8.608-9.704-14.684-9.704-14.684s-14.008,5.968-25.277,17.872
		l-2.009-1.339c5.523-7.046,10.684-11.4,13.446-13.478l3.51-2.641l-2.537-3.585C116.857,12.254,99.104,3.334,79.945,3.334
		s-36.913,8.92-47.492,23.864l-2.539,3.585l3.511,2.641c2.762,2.077,7.922,6.432,13.446,13.478l-2.009,1.339
		C33.594,36.337,19.585,30.369,19.585,30.369s-5.951,6.076-9.704,14.684c-3.606,8.274-4.937,15.715-4.937,15.715
		s6.605-0.408,12.947,0.826c-7.346,9.883-7.664,23.719-7.664,23.719s9.339-1.589,16.02-1.589c23.238,0,38.671,11.04,42.405,13.876
		c6.269,4.761,11.293,13.099,11.293,13.099s5.025-8.338,11.292-13.099c3.732-2.836,19.168-13.876,42.405-13.876
		c6.681,0,16.019,1.589,16.019,1.589s-0.316-13.836-7.663-23.719C148.339,60.36,154.945,60.769,154.945,60.769z"/>
	<linearGradient id="SVGID_1_" gradientUnits="userSpaceOnUse" x1="79.9453" y1="76.5645" x2="79.9453" y2="35.9927">
		<stop  offset="0" style="stop-color:#D7BD74"/>
		<stop  offset="0.1399" style="stop-color:#C5AB64"/>
		<stop  offset="0.25" style="stop-color:#B39A54"/>
		<stop  offset="0.5" style="stop-color:#B39A54"/>
		<stop  offset="0.5861" style="stop-color:#AA914B"/>
		<stop  offset="0.7262" style="stop-color:#927934"/>
		<stop  offset="0.75" style="stop-color:#8D742F"/>
		<stop  offset="1" style="stop-color:#8D742F"/>
	</linearGradient>
	<path fill="url(#SVGID_1_)" d="M42.614,52.464l16.852,24.101c-3.333-2.76-12.609-10.021-24.301-14.618
		c-14.696-5.777-24.494-5.699-24.494-5.699c2.826-11.682,10.08-20.255,10.08-20.255S31.64,41.381,42.614,52.464z M139.139,35.992
		c0,0,7.254,8.573,10.08,20.255c0,0-9.798-0.078-24.494,5.699c-11.691,4.597-20.968,11.858-24.303,14.618l16.854-24.101
		C128.249,41.381,139.139,35.992,139.139,35.992z"/>
	<linearGradient id="SVGID_2_" gradientUnits="userSpaceOnUse" x1="15.4443" y1="77.1719" x2="71.7173" y2="77.1719">
		<stop  offset="0" style="stop-color:#8D742F"/>
		<stop  offset="0.0861" style="stop-color:#967D38"/>
		<stop  offset="0.2262" style="stop-color:#AE954F"/>
		<stop  offset="0.25" style="stop-color:#B39A54"/>
		<stop  offset="0.2682" style="stop-color:#B9A059"/>
		<stop  offset="0.3351" style="stop-color:#CAB068"/>
		<stop  offset="0.4086" style="stop-color:#D4BA71"/>
		<stop  offset="0.5" style="stop-color:#D7BD74"/>
		<stop  offset="0.5914" style="stop-color:#D4BA71"/>
		<stop  offset="0.6649" style="stop-color:#CAB068"/>
		<stop  offset="0.7318" style="stop-color:#B9A059"/>
		<stop  offset="0.75" style="stop-color:#B39A54"/>
		<stop  offset="0.8213" style="stop-color:#A38A45"/>
		<stop  offset="0.9225" style="stop-color:#937A35"/>
		<stop  offset="1" style="stop-color:#8D742F"/>
	</linearGradient>
	<path fill="url(#SVGID_2_)" d="M52.032,72.821c-4.58-3.196-10.601-6.792-17.419-9.472c-3.628-1.427-6.947-2.487-9.886-3.28
		c-7.968,9.089-9.283,19.761-9.283,19.761s3.517-0.629,10.803-0.629c29.204,0,45.47,15.074,45.47,15.074
		S64.934,81.824,52.032,72.821z"/>
	<linearGradient id="SVGID_3_" gradientUnits="userSpaceOnUse" x1="88.1719" y1="77.1719" x2="144.4453" y2="77.1719">
		<stop  offset="0" style="stop-color:#8D742F"/>
		<stop  offset="0.0861" style="stop-color:#967D38"/>
		<stop  offset="0.2262" style="stop-color:#AE954F"/>
		<stop  offset="0.25" style="stop-color:#B39A54"/>
		<stop  offset="0.2682" style="stop-color:#B9A059"/>
		<stop  offset="0.3351" style="stop-color:#CAB068"/>
		<stop  offset="0.4086" style="stop-color:#D4BA71"/>
		<stop  offset="0.5" style="stop-color:#D7BD74"/>
		<stop  offset="0.5914" style="stop-color:#D4BA71"/>
		<stop  offset="0.6649" style="stop-color:#CAB068"/>
		<stop  offset="0.7318" style="stop-color:#B9A059"/>
		<stop  offset="0.75" style="stop-color:#B39A54"/>
		<stop  offset="0.8213" style="stop-color:#A38A45"/>
		<stop  offset="0.9225" style="stop-color:#937A35"/>
		<stop  offset="1" style="stop-color:#8D742F"/>
	</linearGradient>
	<path fill="url(#SVGID_3_)" d="M88.172,94.275c0,0,16.267-15.074,45.471-15.074c7.285,0,10.803,0.629,10.803,0.629
		s-1.313-10.672-9.282-19.761c-2.94,0.793-6.259,1.854-9.888,3.28c-6.817,2.68-12.839,6.275-17.417,9.472
		C94.955,81.824,88.172,94.275,88.172,94.275z"/>
	<linearGradient id="SVGID_4_" gradientUnits="userSpaceOnUse" x1="36.1436" y1="27.0239" x2="123.7461" y2="27.0239">
		<stop  offset="0" style="stop-color:#8D742F"/>
		<stop  offset="0.1123" style="stop-color:#917833"/>
		<stop  offset="0.2285" style="stop-color:#9E853F"/>
		<stop  offset="0.3463" style="stop-color:#B29953"/>
		<stop  offset="0.35" style="stop-color:#B39A54"/>
		<stop  offset="0.3891" style="stop-color:#C1A760"/>
		<stop  offset="0.4519" style="stop-color:#D1B76F"/>
		<stop  offset="0.5" style="stop-color:#D7BD74"/>
		<stop  offset="0.5481" style="stop-color:#D1B76F"/>
		<stop  offset="0.6109" style="stop-color:#C1A760"/>
		<stop  offset="0.65" style="stop-color:#B39A54"/>
		<stop  offset="0.7499" style="stop-color:#A38A45"/>
		<stop  offset="0.8915" style="stop-color:#937A35"/>
		<stop  offset="1" style="stop-color:#8D742F"/>
	</linearGradient>
	<path fill="url(#SVGID_4_)" d="M66.324,9.521c4.344-1.083,8.909-1.664,13.621-1.664s9.278,0.581,13.621,1.664
		c-2.185,5.067-5.01,14.531-2.267,25.611l-11.354-7.573L68.59,35.132C71.333,24.052,68.508,14.588,66.324,9.521z M64.495,10.013
		c-11.751,3.363-21.739,10.458-28.351,19.799c3.378,2.541,9.521,7.801,15.866,16.379l14.183-9.459
		C69.807,25.052,66.709,15.024,64.495,10.013z M93.696,36.731l14.183,9.459c6.346-8.579,12.489-13.839,15.867-16.379
		c-6.613-9.341-16.6-16.436-28.353-19.799C93.18,15.022,90.082,25.052,93.696,36.731z"/>
	<g>
		<linearGradient id="SVGID_5_" gradientUnits="userSpaceOnUse" x1="45.5273" y1="59.8945" x2="114.3633" y2="59.8945">
			<stop  offset="0" style="stop-color:#D7BD74"/>
			<stop  offset="0.0633" style="stop-color:#CEB46C"/>
			<stop  offset="0.1664" style="stop-color:#B69C55"/>
			<stop  offset="0.296" style="stop-color:#8E7530"/>
			<stop  offset="0.3" style="stop-color:#8D742F"/>
			<stop  offset="0.3179" style="stop-color:#8D742F"/>
			<stop  offset="0.5" style="stop-color:#8D742F"/>
			<stop  offset="0.6821" style="stop-color:#8D742F"/>
			<stop  offset="0.7" style="stop-color:#8D742F"/>
			<stop  offset="0.7675" style="stop-color:#A68D46"/>
			<stop  offset="0.8581" style="stop-color:#C1A75F"/>
			<stop  offset="0.9385" style="stop-color:#D1B76F"/>
			<stop  offset="1" style="stop-color:#D7BD74"/>
		</linearGradient>
		<path fill="url(#SVGID_5_)" d="M96.558,78.43V41.358l17.806,11.874L96.558,78.43z M45.527,53.232L63.333,78.43V41.358
			L45.527,53.232z"/>
		<polygon fill="#D7BD74" points="79.945,30.278 64.84,40.351 64.84,80.563 79.945,101.938 95.05,80.563 95.05,40.351 		"/>
	</g>
</g>
</svg>
