<?xml version="1.0" encoding="utf-8"?>
<!-- Generator: Adobe Illustrator 15.1.0, SVG Export Plug-In . SVG Version: 6.00 Build 0)  -->
<!DOCTYPE svg PUBLIC "-//W3C//DTD SVG 1.1//EN" "http://www.w3.org/Graphics/SVG/1.1/DTD/svg11.dtd">
<svg version="1.1" id="Layer_1" xmlns="http://www.w3.org/2000/svg" xmlns:xlink="http://www.w3.org/1999/xlink" x="0px" y="0px"
	 width="160px" height="115px" viewBox="0 0 160 115" enable-background="new 0 0 160 115" xml:space="preserve">
<g id="Layer_1_1_">
</g>
<g id="Layer_3" display="none">
</g>
<g>
	<path d="M155.057,60.769c0,0-1.33-7.441-4.937-15.715c-3.754-8.608-9.705-14.684-9.705-14.684s-14.007,5.968-25.277,17.872
		l-2.009-1.339c5.525-7.046,10.685-11.4,13.447-13.478l3.512-2.641l-2.54-3.585C116.969,12.254,99.215,3.334,80.056,3.334
		c-19.158,0-36.912,8.92-47.492,23.864l-2.539,3.585l3.511,2.641c2.762,2.077,7.922,6.432,13.446,13.478l-2.009,1.339
		C33.705,36.337,19.696,30.369,19.696,30.369s-5.951,6.076-9.704,14.684c-3.606,8.274-4.937,15.715-4.937,15.715
		s6.605-0.408,12.947,0.826c-7.346,9.883-7.664,23.719-7.664,23.719s9.339-1.589,16.02-1.589c23.238,0,38.671,11.04,42.405,13.876
		c6.268,4.761,11.292,13.099,11.292,13.099s5.024-8.338,11.293-13.099c3.734-2.836,19.168-13.876,42.406-13.876
		c6.68,0,16.019,1.589,16.019,1.589s-0.318-13.836-7.664-23.719C148.45,60.36,155.057,60.769,155.057,60.769z"/>
	<linearGradient id="SVGID_1_" gradientUnits="userSpaceOnUse" x1="80.0562" y1="76.5645" x2="80.0562" y2="35.9927">
		<stop  offset="0" style="stop-color:#B7D1E1"/>
		<stop  offset="0.1592" style="stop-color:#A9C1CF"/>
		<stop  offset="0.25" style="stop-color:#A0B6C2"/>
		<stop  offset="0.5" style="stop-color:#A0B6C2"/>
		<stop  offset="0.5522" style="stop-color:#99ADB9"/>
		<stop  offset="0.6373" style="stop-color:#8496A1"/>
		<stop  offset="0.7442" style="stop-color:#647079"/>
		<stop  offset="0.75" style="stop-color:#626E77"/>
		<stop  offset="1" style="stop-color:#626E77"/>
	</linearGradient>
	<path fill="url(#SVGID_1_)" d="M42.726,52.464l16.852,24.101c-3.333-2.76-12.609-10.021-24.301-14.618
		c-14.696-5.777-24.494-5.699-24.494-5.699c2.826-11.682,10.08-20.255,10.08-20.255S31.751,41.381,42.726,52.464z M139.25,35.992
		c0,0,7.254,8.573,10.079,20.255c0,0-9.797-0.078-24.492,5.699c-11.693,4.597-20.968,11.858-24.302,14.618l16.851-24.101
		C128.361,41.381,139.25,35.992,139.25,35.992z"/>
	<linearGradient id="SVGID_2_" gradientUnits="userSpaceOnUse" x1="15.5557" y1="77.1719" x2="71.8286" y2="77.1719">
		<stop  offset="0" style="stop-color:#626E77"/>
		<stop  offset="0.0522" style="stop-color:#697780"/>
		<stop  offset="0.1373" style="stop-color:#7D8E98"/>
		<stop  offset="0.2442" style="stop-color:#9EB4C0"/>
		<stop  offset="0.25" style="stop-color:#A0B6C2"/>
		<stop  offset="0.2534" style="stop-color:#A1B7C3"/>
		<stop  offset="0.3247" style="stop-color:#ADC6D4"/>
		<stop  offset="0.4027" style="stop-color:#B5CEDE"/>
		<stop  offset="0.5" style="stop-color:#B7D1E1"/>
		<stop  offset="0.5973" style="stop-color:#B5CEDE"/>
		<stop  offset="0.6753" style="stop-color:#ADC6D4"/>
		<stop  offset="0.7466" style="stop-color:#A1B7C3"/>
		<stop  offset="0.75" style="stop-color:#A0B6C2"/>
		<stop  offset="0.8079" style="stop-color:#8B9DA8"/>
		<stop  offset="0.8827" style="stop-color:#74838D"/>
		<stop  offset="0.9492" style="stop-color:#67747D"/>
		<stop  offset="1" style="stop-color:#626E77"/>
	</linearGradient>
	<path fill="url(#SVGID_2_)" d="M52.144,72.821c-4.58-3.196-10.601-6.792-17.419-9.472c-3.628-1.427-6.947-2.487-9.886-3.28
		c-7.968,9.089-9.283,19.761-9.283,19.761s3.517-0.629,10.803-0.629c29.204,0,45.47,15.074,45.47,15.074
		S65.045,81.824,52.144,72.821z"/>
	<linearGradient id="SVGID_3_" gradientUnits="userSpaceOnUse" x1="88.2842" y1="77.1719" x2="144.5566" y2="77.1719">
		<stop  offset="0" style="stop-color:#626E77"/>
		<stop  offset="0.0522" style="stop-color:#697780"/>
		<stop  offset="0.1373" style="stop-color:#7D8E98"/>
		<stop  offset="0.2442" style="stop-color:#9EB4C0"/>
		<stop  offset="0.25" style="stop-color:#A0B6C2"/>
		<stop  offset="0.2534" style="stop-color:#A1B7C3"/>
		<stop  offset="0.3247" style="stop-color:#ADC6D4"/>
		<stop  offset="0.4027" style="stop-color:#B5CEDE"/>
		<stop  offset="0.5" style="stop-color:#B7D1E1"/>
		<stop  offset="0.5973" style="stop-color:#B5CEDE"/>
		<stop  offset="0.6753" style="stop-color:#ADC6D4"/>
		<stop  offset="0.7466" style="stop-color:#A1B7C3"/>
		<stop  offset="0.75" style="stop-color:#A0B6C2"/>
		<stop  offset="0.8079" style="stop-color:#8B9DA8"/>
		<stop  offset="0.8827" style="stop-color:#74838D"/>
		<stop  offset="0.9492" style="stop-color:#67747D"/>
		<stop  offset="1" style="stop-color:#626E77"/>
	</linearGradient>
	<path fill="url(#SVGID_3_)" d="M88.284,94.275c0,0,16.267-15.074,45.471-15.074c7.285,0,10.802,0.629,10.802,0.629
		s-1.314-10.672-9.283-19.761c-2.938,0.793-6.258,1.854-9.886,3.28c-6.819,2.68-12.84,6.275-17.419,9.472
		C95.065,81.824,88.284,94.275,88.284,94.275z"/>
	<linearGradient id="SVGID_4_" gradientUnits="userSpaceOnUse" x1="36.2549" y1="27.0239" x2="123.8574" y2="27.0239">
		<stop  offset="0" style="stop-color:#626E77"/>
		<stop  offset="0.0791" style="stop-color:#65727B"/>
		<stop  offset="0.1611" style="stop-color:#707E88"/>
		<stop  offset="0.2444" style="stop-color:#81929C"/>
		<stop  offset="0.3281" style="stop-color:#99ADB9"/>
		<stop  offset="0.35" style="stop-color:#A0B6C2"/>
		<stop  offset="0.3783" style="stop-color:#A7BECB"/>
		<stop  offset="0.4472" style="stop-color:#B3CCDB"/>
		<stop  offset="0.5" style="stop-color:#B7D1E1"/>
		<stop  offset="0.5528" style="stop-color:#B3CCDB"/>
		<stop  offset="0.6217" style="stop-color:#A7BECB"/>
		<stop  offset="0.65" style="stop-color:#A0B6C2"/>
		<stop  offset="0.7311" style="stop-color:#8B9DA8"/>
		<stop  offset="0.8358" style="stop-color:#74838D"/>
		<stop  offset="0.9289" style="stop-color:#67747D"/>
		<stop  offset="1" style="stop-color:#626E77"/>
	</linearGradient>
	<path fill="url(#SVGID_4_)" d="M66.435,9.521c4.344-1.083,8.909-1.664,13.621-1.664s9.277,0.581,13.62,1.664
		c-2.184,5.067-5.01,14.531-2.266,25.611l-11.354-7.573l-11.354,7.573C71.445,24.052,68.619,14.588,66.435,9.521z M64.606,10.013
		c-11.751,3.363-21.739,10.458-28.351,19.799c3.378,2.541,9.521,7.801,15.866,16.379l14.183-9.459
		C69.918,25.052,66.82,15.024,64.606,10.013z M93.808,36.731l14.184,9.459c6.345-8.579,12.488-13.839,15.866-16.379
		c-6.612-9.341-16.6-16.436-28.352-19.799C93.292,15.022,90.193,25.052,93.808,36.731z"/>
	<g>
		<linearGradient id="SVGID_5_" gradientUnits="userSpaceOnUse" x1="45.6387" y1="59.8945" x2="114.4736" y2="59.8945">
			<stop  offset="0" style="stop-color:#B7D1E1"/>
			<stop  offset="0.0486" style="stop-color:#B0C9D8"/>
			<stop  offset="0.1277" style="stop-color:#9CB2C0"/>
			<stop  offset="0.2271" style="stop-color:#7D8D98"/>
			<stop  offset="0.3" style="stop-color:#626E77"/>
			<stop  offset="0.3179" style="stop-color:#626E77"/>
			<stop  offset="0.5" style="stop-color:#626E77"/>
			<stop  offset="0.6821" style="stop-color:#626E77"/>
			<stop  offset="0.7" style="stop-color:#626E77"/>
			<stop  offset="0.7353" style="stop-color:#72808A"/>
			<stop  offset="0.8137" style="stop-color:#90A3B0"/>
			<stop  offset="0.8865" style="stop-color:#A5BCCB"/>
			<stop  offset="0.9508" style="stop-color:#B2CCDB"/>
			<stop  offset="1" style="stop-color:#B7D1E1"/>
		</linearGradient>
		<path fill="url(#SVGID_5_)" d="M96.668,78.43V41.358l17.806,11.874L96.668,78.43z M45.639,53.232L63.444,78.43V41.358
			L45.639,53.232z"/>
		<polygon fill="#B7D1E1" points="80.056,30.278 64.952,40.351 64.952,80.563 80.056,101.938 95.16,80.563 95.16,40.351 		"/>
	</g>
</g>
</svg>
