<?xml version="1.0" encoding="utf-8"?>
<!-- Generator: Adobe Illustrator 15.1.0, SVG Export Plug-In . SVG Version: 6.00 Build 0)  -->
<!DOCTYPE svg PUBLIC "-//W3C//DTD SVG 1.1//EN" "http://www.w3.org/Graphics/SVG/1.1/DTD/svg11.dtd">
<svg version="1.1" id="Layer_1" xmlns="http://www.w3.org/2000/svg" xmlns:xlink="http://www.w3.org/1999/xlink" x="0px" y="0px"
	 width="160px" height="115px" viewBox="0 0 160 115" enable-background="new 0 0 160 115" xml:space="preserve">
<g id="Layer_1_1_">
</g>
<g id="Layer_3" display="none">
</g>
<path d="M39.751,54.408l18.245,26.093c-3.61-2.987-13.652-10.85-26.311-15.826C15.774,58.42,5.167,58.504,5.167,58.504
	C8.227,45.856,16.08,36.575,16.08,36.575S27.869,42.41,39.751,54.408z M144.255,36.575c0,0,7.854,9.281,10.913,21.929
	c0,0-10.607-0.084-26.518,6.171c-12.66,4.977-22.701,12.839-26.312,15.826l18.244-26.093
	C132.467,42.41,144.255,36.575,144.255,36.575z M49.948,76.449c-4.958-3.462-11.477-7.354-18.86-10.256
	c-3.928-1.545-7.521-2.692-10.702-3.551c-8.627,9.84-10.051,21.394-10.051,21.394s3.807-0.68,11.695-0.68
	c31.618,0,49.229,16.32,49.229,16.32S63.916,86.195,49.948,76.449z M89.076,99.677c0,0,17.61-16.32,49.229-16.32
	c7.887,0,11.694,0.68,11.694,0.68s-1.423-11.554-10.051-21.394c-3.181,0.858-6.774,2.006-10.702,3.551
	c-7.383,2.901-13.901,6.794-18.859,10.256C96.418,86.195,89.076,99.677,89.076,99.677z M65.42,7.915
	c4.703-1.172,9.646-1.801,14.747-1.801s10.044,0.629,14.746,1.801c-2.363,5.486-5.424,15.732-2.453,27.729l-12.293-8.199
	l-12.293,8.199C70.844,23.647,67.786,13.401,65.42,7.915z M63.44,8.448c-12.723,3.64-23.537,11.322-30.695,21.435
	c3.658,2.75,10.309,8.446,17.178,17.734l15.356-10.242C69.191,24.73,65.838,13.874,63.44,8.448z M95.056,37.375l15.356,10.242
	c6.869-9.288,13.521-14.983,17.178-17.734c-7.158-10.113-17.972-17.795-30.695-21.435C94.497,13.872,91.143,24.73,95.056,37.375z
	 M98.152,82.521V42.385L117.43,55.24L98.152,82.521z M42.905,55.24l19.278,27.28V42.385L42.905,55.24z M80.167,30.388L63.815,41.294
	V84.83l16.352,23.142L96.521,84.83V41.294L80.167,30.388z"/>
</svg>
