<?xml version="1.0" encoding="UTF-8" standalone="no"?>
<svg xmlns="http://www.w3.org/2000/svg" version="1.1" width="618.4375" height="465.625">
  <linearGradient id="linearGradient3007">
    <stop style="stop-color:#8b723c" offset="0"/>
    <stop style="stop-color:#ebd491" offset="0.46751356"/>
    <stop style="stop-color:#8b723c" offset="1"/>
  </linearGradient>
  <path d="M 309.21957,51.448543 276.17411,167.10976 205.22093,155.44636 C 218.82823,74.774513 272.28548,12.569723 272.28548,12.569723 156.62343,32.980663 123.57714,117.54031 123.57714,117.54031 c 0,0 -57.34423,-13.60647 -106.913667,6.80448 85.759357,61.38565 111.988777,131.99414 187.711537,244.53207 5.80629,8.6292 11.90358,17.50495 18.34102,26.64196 l -17.4951,-172.03514 56.37308,43.73775 47.62474,171.06318 48.59831,-169.11929 55.39951,-45.68164 -17.4951,172.03514 c 101.08278,-155.512 142.87582,-235.21188 206.05256,-271.17403 -35.96216,-15.5512 -106.91367,-6.80448 -106.91367,-6.80448 0,0 -29.1585,-79.699897 -148.70834,-104.970587 44.70971,43.73774 67.06455,142.876637 67.06455,142.876637 l -70.95318,11.6634 z" style="fill:none;stroke:#808080;stroke-width:14.88944626;stroke-miterlimit:100"/>
  <path d="m 309.21793,51.448543 33.04546,115.661217 70.95318,-11.6634 C 399.60928,74.774513 346.15202,12.569723 346.15202,12.569723 461.81408,32.980663 494.86036,117.54031 494.86036,117.54031 c 0,0 57.34422,-13.60647 106.91367,6.80448 -92.33524,66.09259 -115.66122,142.87664 -206.05256,271.17403 l 17.4951,-172.03514 -56.37308,43.73775 -47.62474,171.06318 -48.59831,-169.11929 -55.39951,-45.68164 17.4951,172.03514 C 216.69495,386.25562 210.88424,377.2614 205.26685,368.52941 116.5785,230.66723 76.07703,158.16482 16.663473,124.34479 c 35.962156,-15.5512 106.913667,-6.80448 106.913667,-6.80448 0,0 29.1585,-79.699897 148.70834,-104.970587 -44.70971,43.73774 -67.06455,142.876637 -67.06455,142.876637 l 70.95318,11.6634 z" style="stroke:#808080;stroke-width:14.88944626;stroke-miterlimit:100"/>
</svg>
