<svg xmlns="http://www.w3.org/2000/svg" version="1.1" width="550.12109" height="385.02347">
  <path d="m 217.4336,0 c -10.20344,14.064147 -18.78763,30.197576 -25.96485,46.234375 -11.58347,23.188648 -22.50393,51.390276 -27.74609,82.468745 l -1.24414,7.3711 84.87305,13.95117 27.70898,-96.982421 27.70898,96.982421 84.87305,-13.95117 -1.24414,-7.3711 C 381.15629,97.624651 370.23582,69.423022 358.65235,46.234375 351.47513,30.197576 342.89094,14.064147 332.6875,0 c 54.48539,16.147146 85.76326,43.985092 102.92383,65.322266 13.3039,16.917885 18.16016,29.429685 18.16016,29.429685 l 2.10742,5.376959 5.73437,-0.705079 c 0,0 16.03131,-1.97325 36.65235,-2.33399 16.6096,-0.29056 36.11865,0.65734 51.85547,4.142579 -23.46608,16.43491 -44.42705,39.22718 -67.05078,69.76758 -0.004,0.006 -0.007,0.012 -0.0117,0.0176 -10.89481,14.2322 -21.10794,29.20648 -31.375,45.14648 -22.18741,33.45393 -48.58238,75.4338 -79.5625,123.60547 l 16.10156,-158.32422 -72.04688,55.89844 -41.11523,147.67969 -41.11523,-147.67969 -72.04688,-55.89844 16.125,158.56055 c -0.21069,-0.3274 -0.44219,-0.6831 -0.65234,-1.00977 -31.38551,-48.7874 -56.73216,-89.37432 -79.126963,-123.12695 l -0.0547,-0.082 C 87.992417,199.96943 77.846617,185.08605 67.019527,170.94726 44.40637,140.42548 23.454774,117.65725 0,101.23242 c 15.736814,-3.485239 35.245865,-4.433139 51.855469,-4.142579 20.621038,0.36074 36.652348,2.33399 36.652348,2.33399 l 5.73437,0.705079 2.10742,-5.376959 c 0,0 4.856263,-12.5118 18.160163,-29.429685 C 131.67034,43.985092 162.94821,16.147146 217.4336,0 Z"/>
</svg>
