<?xml version="1.0" encoding="UTF-8" standalone="no"?>
<svg xmlns="http://www.w3.org/2000/svg" version="1.1" width="600" height="625.39087">
  <path d="m 516.44778,417.26016 27.78299,52.09506 -36.71044,-7.52032 c 5.31582,-14.16511 8.31769,-29.06504 8.92745,-44.57474 m -117.13571,57.89556 c -14.54034,17.16698 -37.02314,26.87618 -49.2339,31.20701 -4.94058,1.76673 -9.77173,3.17386 -14.54033,4.58099 21.8105,-22.84241 39.82176,-41.77611 45.3252,-47.57661 3.65854,0.73545 10.9287,2.2045 20.6379,4.22138 -0.61038,2.56411 -1.21951,5.06567 -2.18887,7.56723 M 61.99187,311.41276 175.65666,258.83302 c 26.4384,48.24891 84.64665,74.62477 133.86492,96.85741 6.91057,3.12696 13.4459,6.05066 19.73108,9.0369 44.04315,20.59099 68.04252,45.45028 73.17073,75.60976 l -30.72233,-6.28518 -81.05065,85.13133 c -2.50157,0.12508 -5.12821,0.37523 -7.56723,0.37523 -8.73984,0 -17.0419,-0.92307 -24.54659,-2.68918 -6.84803,-1.59474 -12.64853,-4.7686 -17.77674,-8.48968 L 228.2364,394.54284 61.99187,311.41276 z m 264.8843,-214.4309 c 8.17699,-1.70419 15.99437,-2.62664 23.38962,-2.62664 23.38962,0 39.94684,8.55222 49.09318,25.40651 2.68919,4.83114 7.39525,16.6823 11.5541,27.12633 1.15697,2.9237 2.25141,5.67542 3.29894,8.3646 -15.02502,3.04878 -26.3915,5.31582 -31.20701,6.28518 -6.78549,-7.08255 -31.94184,-33.52095 -59.97498,-62.96123 1.28205,-0.54784 2.5641,-1.09443 3.84615,-1.59475 m 139.30582,207.22327 c -25.78174,-22.04503 -56.80113,-34.99062 -87.14822,-47.45153 -36.39775,-14.96248 -70.73171,-29.06504 -93.0738,-57.89556 -9.95934,-12.88305 -14.54033,-30.95685 -12.28893,-48.24891 2.01689,-15.02501 9.09944,-27.78299 19.9187,-35.97561 1.40713,-1.09443 3.04878,-2.06379 4.58099,-3.17386 l 75.60976,79.39337 174.60913,-35.35022 -82.20763,148.70232 z m 25.46904,9.47467 C 503.56473,292.11945 600,117.6354 600,117.6354 c 0,0 -54.54972,11.05378 -109.20888,22.10757 -2.31395,-33.09882 -6.28518,-88.25829 -6.28518,-88.25829 -0.4853,-10.44403 -8.005,-18.87117 -18.74609,-20.9975 -16.80738,-3.42401 -36.03815,-5.01876 -60.53784,-5.01876 -12.82051,0 -25.51594,0.43777 -38.46153,0.92308 -33.05191,1.21951 -64.74359,8.48968 -93.08944,20.38774 C 248.57724,20.40338 229.15885,0 229.15885,0 l -6.78549,56.67605 c 0,0 -1.09444,9.22451 -2.75172,23.1551 -14.10257,12.46091 -25.46904,26.68855 -33.58349,42.32332 -16.49469,22.77986 -24.79675,49.2808 -24.79675,78.78362 0,11.91369 1.59475,22.77986 4.39337,32.91119 C 105.72233,261.52283 0,310.44403 0,310.44403 c 0,0 180.90994,90.50969 203.14259,101.62601 0.67167,5.92558 2.37648,21.73234 4.64353,42.13571 -1.84491,-4.7686 -4.58099,-9.39649 -10.38149,-12.08567 l -16.49469,-8.92746 -1.76673,-0.90682 -2.45465,-1.28205 -2.68919,0 -2.01688,0 c -6.95747,0 -13.61789,4.87805 -21.79487,15.93184 -2.43903,3.36147 -10.02189,13.55534 -10.02189,19.85616 l 0,0.54659 0.0625,0.61038 11.55409,104.50281 c 0.17261,3.2364 1.82927,9.3965 10.49094,12.88305 8.38023,3.29894 17.71419,6.09757 27.86116,8.42715 9.70919,2.18886 20.76298,3.42401 33.39587,3.84615 1.84494,16.85428 3.06446,27.78299 3.06446,27.78299 0,0 11.05378,-11.601 26.98561,-28.39275 12.16386,-0.61038 24.12446,-1.59474 35.55347,-2.75172 20.9975,-2.2045 43.10507,-6.95747 63.99312,-13.86804 42.82364,-11.2883 81.7855,-30.95685 109.63102,-55.45653 13.32083,-11.601 24.187,-24.35898 32.61414,-38.10194 51.06316,10.44403 99.42151,20.40337 99.42151,20.40337 0,0 -91.60413,-171.85741 -103.14259,-193.54283" style="fill:#ffffff"/>
  <path d="m 469.9656,167.77611 c 2.43903,0 3.61164,-1.15697 3.61164,-3.61163 L 465.63477,52.59475 c 0,-1.95435 -1.21951,-3.12696 -3.61163,-3.61163 -29.54972,-5.98812 -64.49343,-4.83115 -94.54347,-3.72108 -83.0519,3.11132 -178.08005,46.3571 -178.08005,142.41714 0,89.1651 94.60601,122.51407 161.77299,153.84615 53.6898,25.15635 80.56598,57.83302 80.56598,98.13946 0,43.98061 -37.80488,71.21639 -75.37524,84.53721 -31.37898,11.05379 -68.82426,19.04315 -102.23577,11.05379 -51.59475,-12.33584 -62.47655,-75.37524 -64.91557,-76.11007 l -17.22952,-9.27142 c -2.43903,0 -3.596,1.21951 -3.596,3.59599 l 11.53846,104.79988 c 0,1.46967 1.21952,2.68918 3.61164,3.61163 7.94246,3.11132 16.66666,5.8005 26.25078,7.94247 28.70544,6.41025 66.33833,3.29893 95.52845,0.23389 84.09944,-8.66166 192.55785,-60.58474 192.55785,-158.42714 0,-22.17011 -6.95747,-47.20138 -19.23077,-65.65041 -49.29643,-74.01501 -154.87805,-67.47967 -207.5985,-135.5222 -24.54659,-31.69168 -23.38962,-84.77173 11.11633,-110.85053 37.50781,-28.39274 116.22889,-49.53096 144.07442,1.65729 6.41025,11.78861 21.07567,53.62726 23.45215,53.62726 l 20.2783,12.88306 z m -229.20575,340.6035 c 5.12821,3.72108 10.92871,6.89494 17.77674,8.48968 7.50469,1.76673 15.74421,2.68918 24.60913,2.68918 2.37648,0 5.00312,-0.25015 7.50469,-0.37523 l 81.05065,-85.13133 30.72233,6.28518 c -5.12821,-30.15948 -29.19012,-55.01877 -73.17073,-75.60976 -6.28518,-2.98624 -12.82051,-5.90994 -19.73108,-9.0369 -49.21827,-22.23264 -107.42652,-48.6085 -133.86492,-96.85741 L 61.929331,311.41276 228.2364,394.54284 240.75985,508.37961 z m 57.41088,-396.91995 c -1.53221,1.1107 -3.17386,2.07943 -4.58099,3.17386 -10.86616,8.19262 -17.90181,20.9506 -19.9187,35.97561 -2.2514,17.29206 2.32959,35.36586 12.28893,48.24891 22.27955,28.83052 56.67605,42.93308 93.0738,57.89556 30.34709,12.46091 61.36648,25.4065 87.14822,47.45153 l 82.20763,-148.70232 -174.60913,35.35022 -75.60976,-79.39337 z m 246.06004,357.89556 -36.71044,-7.52032 c 5.31582,-14.16511 8.31769,-29.06504 8.92745,-44.57474 l 27.78299,52.09506 z"/>
</svg>
