<?xml version="1.0" encoding="UTF-8" standalone="no"?>
<svg xmlns="http://www.w3.org/2000/svg" xmlns:xlink="http://www.w3.org/1999/xlink" version="1.1" width="600" height="625.39087">
  <radialGradient cx="0" cy="0" r="1" fx="0" fy="0" id="radialGradient664" gradientUnits="userSpaceOnUse" gradientTransform="matrix(15.491287,0,0,-15.491287,401.42773,146.75098)" spreadMethod="pad">
    <stop style="stop-color:#d9eaf3" offset="0"/>
    <stop style="stop-color:#99aebc" offset="0.66291797"/>
    <stop style="stop-color:#536e78" offset="1"/>
  </radialGradient>
  <radialGradient cx="0" cy="0" r="1" fx="0" fy="0" id="radialGradient2995" xlink:href="#radialGradient664" gradientUnits="userSpaceOnUse" gradientTransform="matrix(15.491287,0,0,-15.491287,401.42773,146.75098)" spreadMethod="pad"/>
  <radialGradient cx="0" cy="0" r="1" fx="0" fy="0" id="radialGradient2998" xlink:href="#radialGradient664" gradientUnits="userSpaceOnUse" gradientTransform="matrix(242.20274,0,0,242.20274,306.68745,308.95966)" spreadMethod="pad"/>
  <path d="m 516.44778,417.26141 27.78299,52.09506 -36.71044,-7.52032 c 5.31582,-14.1651 8.31769,-29.06504 8.92745,-44.57474 m -117.13571,57.89556 c -14.54034,17.16698 -36.9606,26.87618 -49.2339,31.20701 -4.94058,1.76673 -9.77173,3.17386 -14.54033,4.58099 21.8105,-22.84241 39.82176,-41.77611 45.3252,-47.57661 3.65854,0.73546 10.9287,2.2045 20.6379,4.22138 -0.67292,2.56411 -1.21951,5.06567 -2.18887,7.56723 M 61.99187,311.41401 175.65666,258.83427 c 26.4384,48.24891 84.64665,74.62477 133.92746,96.85741 6.91056,3.12696 13.38336,6.05066 19.66854,9.0369 44.04315,20.591 68.04252,45.45028 73.17073,75.60976 l -30.72233,-6.28518 -81.05065,85.13133 c -2.50157,0.12508 -5.12821,0.37524 -7.56723,0.37524 -8.73984,0 -17.0419,-0.92308 -24.54659,-2.68919 -6.84803,-1.59474 -12.64853,-4.7686 -17.77674,-8.48968 L 228.2364,394.54409 61.99187,311.41401 z M 326.87617,96.98312 c 8.17699,-1.70419 15.99437,-2.62665 23.38962,-2.62665 23.38962,0 39.94684,8.55222 49.09318,25.40651 2.68919,4.83114 7.39525,16.6823 11.5541,27.12633 1.09443,2.9237 2.25141,5.67542 3.36148,8.3646 -15.08756,3.04878 -26.51658,5.31582 -31.26955,6.28518 -6.78549,-7.08255 -31.94184,-33.52095 -59.97498,-62.96123 1.28205,-0.54784 2.5641,-1.09443 3.84615,-1.59474 m 139.30582,207.22326 c -25.78174,-22.04503 -56.80113,-34.99062 -87.14822,-47.45153 -36.39775,-14.96248 -70.73171,-29.06504 -93.02689,-57.89556 -10.00625,-12.88305 -14.58724,-30.95685 -12.2733,-48.24891 1.95435,-15.02501 9.0369,-27.78299 19.79362,-35.97561 1.46967,-1.09443 3.04878,-2.06379 4.70607,-3.17386 l 75.54722,79.39337 174.60913,-35.35021 -82.20763,148.70231 z m 25.46904,9.47467 C 503.61163,292.1207 600,117.63665 600,117.63665 c 0,0 -54.54972,11.05378 -109.20888,22.10757 -2.31395,-33.09882 -6.28518,-88.25829 -6.28518,-88.25829 -0.4853,-10.44403 -8.005,-18.87117 -18.74609,-20.9975 -16.74484,-3.42401 -36.03815,-5.01876 -60.53784,-5.01876 -12.82051,0 -25.4534,0.43777 -38.41463,0.92183 -33.09881,1.21951 -64.85303,8.48968 -93.0738,20.38774 C 248.57724,20.40338 229.15885,0 229.15885,0 l -6.78549,56.67605 c 0,0 -1.09444,9.22451 -2.75172,23.1551 -14.10257,12.46091 -25.46904,26.68855 -33.58349,42.32332 -16.49469,22.77986 -24.79675,49.2808 -24.79675,78.78362 0,11.91369 1.59475,22.77986 4.39337,32.91119 C 105.72233,261.52283 0,310.44403 0,310.44403 c 0,0 180.97248,90.50969 203.14259,101.62601 0.67167,5.92558 2.37648,21.73234 4.64353,42.13571 -1.84491,-4.7686 -4.58099,-9.39649 -10.38149,-12.08567 l -16.49469,-8.92746 -1.76673,-0.90682 -2.45465,-1.28205 -2.68919,0 -2.01688,0 c -6.89494,0 -13.61789,4.87805 -21.79487,15.93184 -2.43903,3.36147 -10.02189,13.55534 -10.02189,19.85616 l 0,0.54659 0.0625,0.61038 11.55409,104.50281 c 0.17261,3.2364 1.82927,9.3965 10.49094,12.88305 8.38023,3.29894 17.71419,6.09757 27.86116,8.42715 9.70919,2.18886 20.76298,3.42401 33.39587,3.84615 1.84494,16.85428 3.06446,27.78299 3.06446,27.78299 0,0 11.05378,-11.601 26.98561,-28.39275 12.16386,-0.61038 24.12446,-1.59474 35.55347,-2.75172 20.9975,-2.2045 43.10507,-6.95747 63.99312,-13.86804 42.88618,-11.2883 81.7855,-30.95685 109.63102,-55.45653 13.32083,-11.601 24.187,-24.35898 32.61414,-38.10194 51.06316,10.44403 99.48405,20.40337 99.48405,20.40337 0,0 -91.66667,-171.85741 -103.20513,-193.54283" style="fill:#ffffff"/>
  <path d="m 469.9656,167.77736 c 2.43903,0 3.61164,-1.15697 3.61164,-3.61163 L 465.63477,52.596 c 0,-1.95435 -1.15697,-3.12696 -3.61163,-3.61163 -29.48718,-5.98812 -64.49343,-4.83115 -94.54347,-3.72108 -83.0519,3.11132 -178.08005,46.3571 -178.08005,142.41714 0,89.1651 94.60601,122.51407 161.77299,153.84615 53.6898,25.15635 80.56598,57.83302 80.56598,98.13946 0,43.98061 -37.80488,71.21639 -75.37524,84.53721 -31.37898,11.05379 -68.82426,19.04315 -102.23577,11.05379 -51.59475,-12.33584 -62.47655,-75.37524 -64.91557,-76.11007 l -17.22952,-9.27142 c -2.43903,0 -3.596,1.21951 -3.596,3.596 l 11.53846,104.79987 c 0,1.46967 1.21952,2.68918 3.61164,3.61163 7.94246,3.11132 16.66666,5.8005 26.25078,7.94247 28.70544,6.41025 66.33833,3.29893 95.52845,0.23514 84.09944,-8.66166 192.55785,-60.58474 192.55785,-158.42714 0,-22.1701 -6.95747,-47.20137 -19.16823,-65.6504 C 429.34647,271.96811 323.76485,278.50344 271.0444,210.46091 246.49781,178.76923 247.65478,125.68918 282.16073,99.61038 c 37.50781,-28.39274 116.29143,-49.53095 144.07442,1.65729 6.41025,11.78862 21.07567,53.62727 23.45215,53.62727 l 20.2783,12.88305 z m -229.20575,340.6035 c 5.12821,3.72108 10.92871,6.89494 17.77674,8.48968 7.50469,1.76673 15.74421,2.68919 24.60913,2.68919 2.37648,0 5.00312,-0.25016 7.50469,-0.37524 l 81.05065,-85.13133 30.72233,6.28518 c -5.12821,-30.15948 -29.19012,-55.01876 -73.17073,-75.60976 -6.28518,-2.98624 -12.75798,-5.90994 -19.73108,-9.0369 -49.21827,-22.23264 -107.42652,-48.6085 -133.86492,-96.85741 l -113.66479,52.57974 166.24453,83.13008 12.52345,113.83677 z m 57.47342,-396.91995 c -1.65729,1.1107 -3.2364,2.07943 -4.64353,3.17386 -10.86616,8.19262 -17.90181,20.9506 -19.9187,35.97561 -2.2514,17.29206 2.32959,35.36586 12.28893,48.24891 22.27955,28.83052 56.67605,42.93308 93.0738,57.89556 30.34709,12.46091 61.36648,25.4065 87.21076,47.45153 l 82.14509,-148.70231 -174.60913,35.35021 -75.54722,-79.39337 z m 245.9975,357.89556 -36.71044,-7.52032 c 5.31582,-14.1651 8.31769,-29.06504 8.92745,-44.57474 l 27.78299,52.09506 z" style="fill:#536e78"/>
  <path d="m 367.79237,53.08068 c -84.89681,3.17385 -170.51282,46.0444 -170.51282,134.59975 l 0,0 c 0,75.60975 72.92058,108.59912 137.28893,137.66416 l 0,0 c 6.8324,3.11132 13.49281,6.1132 19.9656,9.16198 l 0,0 c 56.44153,26.37586 85.02189,61.80425 85.02189,105.15947 l 0,0 c 0,40.32208 -29.37773,73.78049 -80.61288,91.91682 l 0,0 c -27.79862,9.77174 -53.33021,14.72796 -75.85991,14.72796 l 0,0 c -10.80363,0 -21.20075,-1.17261 -30.72233,-3.42402 l 0,0 C 205.58161,531.70794 189.39962,483.16198 184.0838,467.15197 l 0,0 c -0.31269,-0.85991 -0.54721,-1.70419 -0.79737,-2.31395 l 0,0 -6.1601,-3.29893 10.31895,93.43339 c 7.56723,2.93934 15.69731,5.37836 24.06191,7.20763 l 0,0 c 10.56911,2.32958 23.63978,3.5491 38.77424,3.5491 l 0,0 c 18.44903,0 37.74233,-1.71983 54.17448,-3.42402 l 0,0 c 74.6404,-7.69231 185.53784,-54.17448 185.53784,-150.67229 l 0,0 c 0,-21.24766 -6.76986,-44.76236 -17.82364,-61.30394 l 0,0 c -24.24953,-36.41339 -62.66417,-52.1576 -103.34584,-68.90244 l 0,0 C 330.8474,265.79175 291.57286,249.6723 264.8843,215.22889 l 0,0 c -14.29018,-18.44903 -20.88805,-43.91807 -17.65165,-68.15197 l 0,0 c 2.9237,-22.1232 13.68042,-41.16635 30.23764,-53.6898 l 0,0 c 20.38775,-15.44716 56.1132,-31.08193 90.07192,-31.08193 l 0,0 c 30.36273,0 53.01751,12.21076 65.60351,35.17824 l 0,0 c 3.17385,5.86304 7.87992,17.69856 12.44527,29.19012 l 0,0 c 3.12696,8.005 7.39525,18.74609 9.28706,22.23264 l 0,0 10.2095,6.53534 -7.03564,-99.24953 c -14.52471,-2.68919 -31.37899,-4.03378 -52.8299,-4.03378 l 0,0 c -12.82051,0 -25.51594,0.48468 -37.42964,0.92246 m -86.36648,98.57723 c -2.00125,15.25954 1.96998,31.14447 10.69419,42.37023 l 0,0 c 21.07567,27.25141 54.47154,40.93184 89.83739,55.45654 l 0,0 c 26.51658,10.94434 56.31645,23.1551 81.89494,42.7611 l 0,0 69.57473,-125.68793 -158.13008,31.94184 -4.20575,0.84428 -3.00188,-3.11132 -70.90369,-74.45279 c -8.55222,6.97311 -14.10256,17.47968 -15.75985,29.87805 m -201.407128,160.00626 151.766728,75.84427 3.78362,1.95435 0.48467,4.22139 12.03878,110.30331 c 4.08067,2.56411 8.05191,4.2683 12.21075,5.30019 l 0,0 c 7.02002,1.59475 14.71232,2.45466 22.77987,2.45466 l 0,0 c 1.34459,0 2.68918,-0.0625 4.03377,-0.18762 l 0,0 78.90869,-82.87992 2.98624,-3.11132 4.28393,0.85991 18.30832,3.72108 c -8.36461,-22.42027 -29.98749,-41.5885 -65.65041,-58.38024 l 0,0 c -6.28518,-2.93934 -12.75797,-5.8005 -19.66854,-8.92746 l 0,0 C 259.4434,341.7142 201.67292,315.57286 172.4828,268.9187 l 0,0 -92.464038,42.74547 z m 437.773608,144.30894 11.72608,2.39212 -8.3177,-15.57223 c -0.90682,4.45591 -2.06379,8.84928 -3.40838,13.18011" style="fill:url(#radialGradient2998)"/>
</svg>
