<?xml version="1.0" encoding="UTF-8" standalone="no"?>
<svg xmlns="http://www.w3.org/2000/svg" version="1.1" width="600" height="625.39087">
  <path d="m 469.9656,167.77611 c 2.43903,0 3.61164,-1.15697 3.61164,-3.61163 L 465.63477,52.59475 c 0,-1.95435 -1.21951,-3.12696 -3.61163,-3.61163 -29.54972,-5.98812 -64.49343,-4.83115 -94.54347,-3.72108 -83.0519,3.11132 -178.08005,46.3571 -178.08005,142.41714 0,89.1651 94.60601,122.51407 161.77299,153.84615 53.6898,25.15635 80.56598,57.83302 80.56598,98.13946 0,43.98061 -37.80488,71.21639 -75.37524,84.53721 -31.37898,11.05379 -68.82426,19.04315 -102.23577,11.05379 -51.59475,-12.33584 -62.47655,-75.37524 -64.91557,-76.11007 l -17.22952,-9.27142 c -2.43903,0 -3.596,1.21951 -3.596,3.59599 l 11.53846,104.79988 c 0,1.46967 1.21952,2.68918 3.61164,3.61163 7.94246,3.11132 16.66666,5.8005 26.25078,7.94247 28.70544,6.41025 66.33833,3.29893 95.52845,0.23389 84.09944,-8.66166 192.55785,-60.58474 192.55785,-158.42714 0,-22.17011 -6.95747,-47.20138 -19.23077,-65.65041 -49.29643,-74.01501 -154.87805,-67.47967 -207.5985,-135.5222 -24.54659,-31.69168 -23.38962,-84.77173 11.11633,-110.85053 37.50781,-28.39274 116.22889,-49.53096 144.07442,1.65729 6.41025,11.78861 21.07567,53.62726 23.45215,53.62726 l 20.2783,12.88306 z m -229.20575,340.6035 c 5.12821,3.72108 10.92871,6.89494 17.77674,8.48968 7.50469,1.76673 15.74421,2.68918 24.60913,2.68918 2.37648,0 5.00312,-0.25015 7.50469,-0.37523 l 81.05065,-85.13133 30.72233,6.28518 c -5.12821,-30.15948 -29.19012,-55.01877 -73.17073,-75.60976 -6.28518,-2.98624 -12.82051,-5.90994 -19.73108,-9.0369 -49.21827,-22.23264 -107.42652,-48.6085 -133.86492,-96.85741 L 61.929331,311.41276 228.2364,394.54284 240.75985,508.37961 z m 57.41088,-396.91995 c -1.53221,1.1107 -3.17386,2.07943 -4.58099,3.17386 -10.86616,8.19262 -17.90181,20.9506 -19.9187,35.97561 -2.2514,17.29206 2.32959,35.36586 12.28893,48.24891 22.27955,28.83052 56.67605,42.93308 93.0738,57.89556 30.34709,12.46091 61.36648,25.4065 87.14822,47.45153 l 82.20763,-148.70232 -174.60913,35.35022 -75.60976,-79.39337 z m 246.06004,357.89556 -36.71044,-7.52032 c 5.31582,-14.16511 8.31769,-29.06504 8.92745,-44.57474 l 27.78299,52.09506 z"/>
</svg>
