<?xml version="1.0" encoding="UTF-8" standalone="no"?>
<!-- Generator: Adobe Illustrator 15.1.0, SVG Export Plug-In . SVG Version: 6.00 Build 0)  -->

<svg
   version="1.1"
   id="Layer_1"
   x="0px"
   y="0px"
   width="354.91"
   height="485"
   viewBox="0 0 354.91 485"
   enable-background="new 0 0 375 500"
   xml:space="preserve"
   sodipodi:docname="80.svg"
   inkscape:version="1.1.1 (3bf5ae0d25, 2021-09-20)"
   xmlns:inkscape="http://www.inkscape.org/namespaces/inkscape"
   xmlns:sodipodi="http://sodipodi.sourceforge.net/DTD/sodipodi-0.dtd"
   xmlns="http://www.w3.org/2000/svg"
   xmlns:svg="http://www.w3.org/2000/svg"><defs
   id="defs13" /><sodipodi:namedview
   id="namedview11"
   pagecolor="#ffffff"
   bordercolor="#666666"
   borderopacity="1.0"
   inkscape:pageshadow="2"
   inkscape:pageopacity="0.0"
   inkscape:pagecheckerboard="0"
   showgrid="false"
   inkscape:zoom="1.438"
   inkscape:cx="178.03"
   inkscape:cy="242"
   inkscape:window-width="1920"
   inkscape:window-height="986"
   inkscape:window-x="-11"
   inkscape:window-y="-11"
   inkscape:window-maximized="1"
   inkscape:current-layer="Layer_1" />
<g
   id="g8"
   transform="translate(-9.766,-7.746)">
	<path
   fill="#808080"
   d="m 187.22,57.099 c 43.3,0 59.06,-49.353 59.06,-49.353 l 118.39,93.204 c 0,0 -7.54,178.81 -7.77,185.49 -0.56,15.72 -7.1,30.47 -11.28,40.73 -15.11,36.95 -72.24,116.75 -148.23,165.58 H 177.05 C 101.06,443.92 43.93,364.12 28.83,327.17 24.634,316.9 18.093,302.16 17.543,286.44 17.306,279.76 9.766,100.95 9.766,100.95 L 128.15,7.746 c 0,0 15.76,49.353 59.07,49.353 z"
   id="path2" />
	<path
   d="M 181.83,477.16 C 94.472,417.93 43.613,330.57 40.62,313.22 c -1.994,-11.56 -1.199,-21.74 2.396,-30.52 8.374,26.32 24.728,56.25 49.063,89.75 26.041,34.73 51.891,59.11 77.541,73.14 h 35.2 c 25.64,-14.03 51.5,-38.41 77.54,-73.14 24.33,-33.5 40.69,-63.43 49.06,-89.75 v 0 c 3.58,8.78 4.39,18.95 2.39,30.52 -2.99,17.35 -53.85,104.71 -141.21,163.94 z m 5.39,-397.905 -14.96,44.285 -52.66,31.11 -46.67,-11.97 32.31,37.11 v 62.22 l -32.31,37.11 47.27,-12.58 51.46,31.71 15.56,49.07 15.56,-49.07 51.46,-31.71 47.27,12.58 -32.32,-37.1 v -62.23 l 32.32,-37.1 -46.68,11.96 -52.65,-31.11 z M 26.258,127.73 c 37.517,50.94 39.847,96.61 6.991,136.99 l -1.009,1.22 z m 321.912,0 -5.98,138.21 -1.01,-1.22 c -32.85,-40.38 -30.52,-86.05 6.99,-136.99 z M 174.05,431.09 C 117.41,392 76.918,337.15 52.588,266.54 84.184,222.71 76.677,169.88 30.076,108.06 L 28.651,106.19 122.6,31.987 c 13.42,27.65 34.67,41.215 63.73,40.704 l 0.89,-0.01 0.89,0.01 c 29.06,0.511 50.3,-13.054 63.73,-40.704 l 93.95,74.203 -1.42,1.87 C 297.76,169.88 290.26,222.71 321.85,266.54 297.51,337.15 257.03,392 200.38,431.09 Z"
   id="path4" />
	<polygon
   fill="#ffffff"
   points="187.22,135.5 250.64,173.8 250.64,247.4 187.22,286.29 123.79,247.4 123.79,173.8 "
   id="polygon6" />
</g>
</svg>
