<?xml version="1.0" encoding="UTF-8" standalone="no"?>
<!-- Generator: Adobe Illustrator 15.1.0, SVG Export Plug-In . SVG Version: 6.00 Build 0)  -->

<svg
   version="1.1"
   id="Layer_1"
   x="0px"
   y="0px"
   width="354.9"
   height="485"
   viewBox="0 0 354.9 485"
   enable-background="new 0 0 375 500"
   xml:space="preserve"
   sodipodi:docname="C.svg"
   inkscape:version="1.1.1 (3bf5ae0d25, 2021-09-20)"
   xmlns:inkscape="http://www.inkscape.org/namespaces/inkscape"
   xmlns:sodipodi="http://sodipodi.sourceforge.net/DTD/sodipodi-0.dtd"
   xmlns="http://www.w3.org/2000/svg"
   xmlns:svg="http://www.w3.org/2000/svg"><defs
   id="defs11" /><sodipodi:namedview
   id="namedview9"
   pagecolor="#ffffff"
   bordercolor="#666666"
   borderopacity="1.0"
   inkscape:pageshadow="2"
   inkscape:pageopacity="0.0"
   inkscape:pagecheckerboard="0"
   showgrid="false"
   inkscape:zoom="1.438"
   inkscape:cx="177.33"
   inkscape:cy="242.7"
   inkscape:window-width="1920"
   inkscape:window-height="986"
   inkscape:window-x="-11"
   inkscape:window-y="-11"
   inkscape:window-maximized="1"
   inkscape:current-layer="Layer_1" />
<g
   id="g6"
   transform="translate(-10.171,-7.079)">
	<path
   fill="#ffffff"
   d="m 187.62,56.432 c 43.32,0 59.08,-49.353 59.08,-49.353 l 118.37,93.201 c 0,0 -7.54,178.82 -7.77,185.49 -0.55,15.72 -7.09,30.47 -11.29,40.74 -15.1,36.94 -72.23,116.75 -148.22,165.57 H 177.45 C 101.46,443.26 44.335,363.45 29.235,326.51 25.039,316.24 18.498,301.49 17.948,285.78 17.711,279.1 10.171,100.28 10.171,100.28 L 128.56,7.079 c 0,0 15.75,49.353 59.06,49.353 z"
   id="path2" />
	<path
   d="M 182.24,476.5 C 94.877,417.26 44.018,329.91 41.025,312.56 c -1.994,-11.57 -1.199,-21.75 2.396,-30.53 8.374,26.33 24.728,56.25 49.063,89.76 26.046,34.72 51.886,59.11 77.536,73.14 h 35.2 c 25.66,-14.03 51.5,-38.41 77.54,-73.14 24.34,-33.51 40.69,-63.43 49.06,-89.76 v 0 c 3.6,8.78 4.4,18.96 2.41,30.53 -3,17.35 -53.86,104.7 -141.22,163.94 z m 5.38,-397.912 -14.96,44.282 -52.65,31.11 -46.675,-11.96 32.315,37.1 v 62.23 l -32.315,37.1 47.265,-12.58 51.46,31.72 15.56,49.06 15.56,-49.06 51.46,-31.72 47.28,12.58 -32.32,-37.1 v -62.23 l 32.32,-37.1 -46.69,11.96 -52.65,-31.11 z m 53.85,163.352 v -62.82 l -53.85,-32.92 -53.85,32.92 v 62.82 l 53.85,32.32 z M 26.664,127.06 c 37.517,50.94 39.847,96.61 6.991,137 l -1.009,1.22 z m 321.926,0 -5.99,138.21 -1,-1.22 C 308.74,223.67 311.07,178 348.59,127.06 Z m -224.4,119.67 v -73.6 l 63.43,-38.29 63.43,38.29 v 73.6 l -63.43,38.89 z m 50.27,183.69 C 117.81,391.34 77.323,336.48 52.993,265.87 84.589,222.04 77.082,169.21 30.481,107.39 L 29.056,105.52 123,31.32 c 13.43,27.65 34.68,41.215 63.74,40.704 h 0.88 0.89 c 29.06,0.512 50.31,-13.053 63.74,-40.704 l 93.94,74.2 -1.43,1.87 c -46.59,61.82 -54.1,114.65 -22.51,158.48 -24.33,70.61 -64.82,125.47 -121.46,164.55 z"
   id="path4" />
</g>
</svg>
