<?xml version="1.0" encoding="utf-8"?>
<!-- Generator: Adobe Illustrator 15.1.0, SVG Export Plug-In . SVG Version: 6.00 Build 0)  -->
<!DOCTYPE svg PUBLIC "-//W3C//DTD SVG 1.1//EN" "http://www.w3.org/Graphics/SVG/1.1/DTD/svg11.dtd">
<svg version="1.1"
	 id="Layer_1" xmlns:svg="http://www.w3.org/2000/svg" xmlns:cc="http://creativecommons.org/ns#" xmlns:rdf="http://www.w3.org/1999/02/22-rdf-syntax-ns#" xmlns:dc="http://purl.org/dc/elements/1.1/"
	 xmlns="http://www.w3.org/2000/svg" xmlns:xlink="http://www.w3.org/1999/xlink" x="0px" y="0px" width="375px" height="500px"
	 viewBox="0 0 375 500" enable-background="new 0 0 375 500" xml:space="preserve">
<g>
	<path fill="#FFFFFF" d="M187.457,56.432c43.309,0,59.07-49.353,59.07-49.353l118.381,93.202c0,0-7.54,178.814-7.769,185.494
		c-0.559,15.715-7.095,30.464-11.291,40.731c-15.1,36.943-72.239,116.75-148.224,165.572h-20.338
		C101.298,443.257,44.168,363.45,29.069,326.507c-4.196-10.269-10.737-25.019-11.287-40.731
		c-0.237-6.68-7.777-185.494-7.777-185.494L128.39,7.079C128.39,7.079,144.147,56.432,187.457,56.432z"/>
	
		<linearGradient id="SVGID_1_" gradientUnits="userSpaceOnUse" x1="26.4971" y1="247.0918" x2="348.416" y2="247.0918" gradientTransform="matrix(1 0 0 -1 0 501)">
		<stop  offset="0" style="stop-color:#612C75"/>
		<stop  offset="0.0155" style="stop-color:#643078"/>
		<stop  offset="0.1297" style="stop-color:#754889"/>
		<stop  offset="0.2" style="stop-color:#7B5190"/>
		<stop  offset="0.2344" style="stop-color:#8C639D"/>
		<stop  offset="0.2911" style="stop-color:#A37BAE"/>
		<stop  offset="0.3516" style="stop-color:#B38CBA"/>
		<stop  offset="0.4177" style="stop-color:#BC96C1"/>
		<stop  offset="0.5" style="stop-color:#BF99C3"/>
		<stop  offset="0.5823" style="stop-color:#BC96C1"/>
		<stop  offset="0.6484" style="stop-color:#B38CBA"/>
		<stop  offset="0.7089" style="stop-color:#A37BAE"/>
		<stop  offset="0.7656" style="stop-color:#8C639D"/>
		<stop  offset="0.8" style="stop-color:#7B5190"/>
		<stop  offset="0.8703" style="stop-color:#754889"/>
		<stop  offset="0.9845" style="stop-color:#643078"/>
		<stop  offset="1" style="stop-color:#612C75"/>
	</linearGradient>
	<path fill="url(#SVGID_1_)" d="M182.07,476.496C94.71,417.264,43.851,329.907,40.858,312.555
		c-1.994-11.566-1.199-21.74,2.396-30.521c8.374,26.324,24.728,56.249,49.063,89.754c26.041,34.727,51.887,59.109,77.539,73.138
		h35.201c25.651-14.028,51.502-38.411,77.533-73.138c24.345-33.505,40.694-63.43,49.068-89.754l0,0
		c3.59,8.781,4.396,18.955,2.396,30.521c-2.993,17.354-53.852,104.709-141.214,163.941H182.07L182.07,476.496z M187.457,78.588
		l-14.958,44.285l-52.658,31.108l-46.672-11.964l32.311,37.104v62.226l-32.311,37.105l47.269-12.58l51.46,31.715l15.559,49.067
		l15.559-49.067l51.461-31.715l47.27,12.58l-32.313-37.105v-62.226l32.313-37.104l-46.682,11.964l-52.649-31.108L187.457,78.588
		L187.457,78.588z M241.309,241.944v-62.823l-53.853-32.917l-53.852,32.917v62.823l53.852,32.312L241.309,241.944z M26.497,127.06
		c37.517,50.944,39.847,96.612,6.991,136.995l-1.009,1.221L26.497,127.06z M348.416,127.06l-5.986,138.215l-1.004-1.221
		C308.565,223.671,310.895,178.004,348.416,127.06L348.416,127.06z M124.028,246.728v-73.593l63.429-38.298l63.419,38.298v73.593
		l-63.419,38.895L124.028,246.728L124.028,246.728z M174.29,430.422c-56.642-39.084-97.133-93.939-121.463-164.55
		c31.596-43.83,24.089-96.659-22.512-158.478l-1.425-1.875l93.945-74.199c13.428,27.65,34.675,41.215,63.737,40.704l0.886-0.009
		l0.886,0.009c29.063,0.512,50.313-13.053,63.736-40.704l93.939,74.199l-1.421,1.875c-46.596,61.818-54.106,114.647-22.507,158.478
		c-24.345,70.608-64.83,125.466-121.468,164.55H174.29L174.29,430.422z"/>
</g>
</svg>
