<?xml version="1.0" encoding="UTF-8" standalone="no"?>
<!-- Generator: Adobe Illustrator 15.1.0, SVG Export Plug-In . SVG Version: 6.00 Build 0)  -->

<svg
   version="1.1"
   id="Layer_1"
   x="0px"
   y="0px"
   width="354.9"
   height="485"
   viewBox="0 0 354.9 485"
   enable-background="new 0 0 375 500"
   xml:space="preserve"
   sodipodi:docname="WM.svg"
   inkscape:version="1.1.1 (3bf5ae0d25, 2021-09-20)"
   xmlns:inkscape="http://www.inkscape.org/namespaces/inkscape"
   xmlns:sodipodi="http://sodipodi.sourceforge.net/DTD/sodipodi-0.dtd"
   xmlns="http://www.w3.org/2000/svg"
   xmlns:svg="http://www.w3.org/2000/svg"><defs
   id="defs11">
	
	
</defs><sodipodi:namedview
   id="namedview9"
   pagecolor="#ffffff"
   bordercolor="#666666"
   borderopacity="1.0"
   inkscape:pageshadow="2"
   inkscape:pageopacity="0.0"
   inkscape:pagecheckerboard="0"
   showgrid="false"
   inkscape:zoom="1.438"
   inkscape:cx="177.33"
   inkscape:cy="242.7"
   inkscape:window-width="1920"
   inkscape:window-height="986"
   inkscape:window-x="-11"
   inkscape:window-y="-11"
   inkscape:window-maximized="1"
   inkscape:current-layer="Layer_1" />
<path
   id="path2"
   d="m 112.83,24.24 -93.945,74.201 1.426,1.869 c 46.601,61.82 54.107,114.65 22.511,158.48 24.33,70.61 64.818,125.47 121.468,164.55 h 26.33 C 247.26,384.26 287.75,329.4 312.08,258.79 280.49,214.96 288,162.13 334.59,100.31 L 336.02,98.441 242.08,24.24 C 228.65,51.891 207.4,65.457 178.34,64.945 h -0.89 -0.88 C 147.51,65.456 126.26,51.89 112.83,24.24 Z m 64.62,47.27 14.96,44.28 52.65,31.11 46.69,-11.96 -32.32,37.1 v 62.23 l 32.32,37.1 -47.28,-12.58 -51.46,31.72 -15.56,49.06 -15.56,-49.06 -51.46,-31.72 -47.266,12.58 32.315,-37.1 v -62.23 l -32.315,-37.1 46.676,11.96 52.65,-31.11 z m -160.958,48.47 5.983,138.22 1.009,-1.22 c 32.856,-40.39 30.525,-86.06 -6.992,-137 z m 321.928,0 c -37.52,50.94 -39.85,96.61 -6.99,136.99 l 1,1.22 z m -160.97,7.78 -63.43,38.29 v 73.6 l 63.43,38.89 63.43,-38.89 v -73.6 z m 0,11.36 53.85,32.92 v 62.82 L 177.45,267.18 123.6,234.86 V 172.04 Z M 33.25,274.95 c -3.595,8.78 -4.39,18.96 -2.396,30.53 2.993,17.35 53.851,104.7 141.216,163.94 h 10.77 c 87.36,-59.24 138.22,-146.59 141.22,-163.94 1.99,-11.57 1.19,-21.75 -2.41,-30.53 -8.37,26.33 -24.72,56.25 -49.06,89.76 -26.04,34.73 -51.88,59.11 -77.54,73.14 h -35.2 C 134.2,423.82 108.36,399.43 82.312,364.71 57.977,331.2 41.624,301.28 33.25,274.95 Z" />
</svg>
