<?xml version="1.0" encoding="UTF-8" standalone="no"?>
<svg xmlns="http://www.w3.org/2000/svg" version="1.1" width="600" height="353.62155">
  <radialGradient cx="0" cy="0" r="1" fx="0" fy="0" id="radialGradient242" gradientUnits="userSpaceOnUse" gradientTransform="matrix(23.614136,0,0,-23.614121,401.00098,483.71973)" spreadMethod="pad">
    <stop style="stop-color:#d9eaf3" offset="0"/>
    <stop style="stop-color:#99aebc" offset="0.66291797"/>
    <stop style="stop-color:#536e78" offset="1"/>
  </radialGradient>
  <path d="m 124.93883,39.01846 c -5.12308,4.61539 -7.81846,11.0677 -7.81846,17.63077 0,0.75693 0.21268,1.51385 0.28578,2.27077 C 20.556923,87.29539 0,140.84308 0,181.08 c 0,40.81846 21.203077,97.86462 122.12308,137.92615 64.47692,25.56 137.60307,34.61539 180.61846,34.61539 167.38154,0 261.12923,-95.91692 265.06154,-99.98769 4.32,-4.55077 6.6,-10.49539 6.6,-16.44923 0,-4.21847 -1.12616,-8.43693 -3.43385,-12.25847 -0.17575,-0.3227 -0.46154,-0.5723 -0.72,-0.89538 1.66154,-1.37538 3.39692,-2.70462 4.91077,-4.15385 C 591.41538,204.08308 600,184.32923 600,162.80308 600,50.48308 422.81538,0 296.97231,0 171.92308,0 129.37846,35.01231 124.93846,39.01846" style="fill:#ffffff"/>
  <path d="m 550.59729,237.18462 c 0,0 -98.76,28.0523 -185.33538,28.0523 -86.60308,0 -234.15693,-43.91077 -234.15693,-112.1723 0,-68.32616 137.81539,-61.00616 137.81539,-61.00616 0,0 74.45538,2.12308 85.27385,36.48923 12.12,38.51077 -26.75077,51.30462 -26.75077,51.30462 0,0 97.56923,1.22769 97.56923,-49.97539 0,-51.23076 -119.52923,-65.87076 -160.99385,-65.87076 -41.47385,0 -240.221538,4.90153 -240.221538,117.07384 0,110.48308 192.692308,148.77231 278.944618,148.77231 159.12,0 247.85538,-92.66769 247.85538,-92.66769 M 295.38498,45.57231 c -2.70461,-0.10191 -5.44615,-0.13883 -8.18769,-0.13883 -103.66154,0 -146.35384,11.25231 -146.35384,11.25231 0,0 36.6,-32.88923 156.12923,-32.88923 119.4923,0 279.23077,47.52923 279.23077,139.00615 0,91.47692 -212.19693,85.34769 -212.19693,85.34769 0,0 -109.32923,-6.42461 -163.12615,-39.01846 -84.45231,-51.26769 2.59385,-90.53538 2.59385,-90.53538 28.99384,-13.52308 67.86461,-8.22462 67.86461,-8.22462 0,0 -42.69231,19.50462 -42.69231,45.11077 0,25.59692 81.73846,39.04615 130.52308,39.04615 47.99077,0 112.24615,-15.68307 117.00923,-44.92615 C 490.45883,61.69809 295.38498,45.57194 295.38498,45.57194" style="fill:#536e78"/>
  <g transform="matrix(9.2307692,0,0,-9.2307692,-3401.5381,4641.923)">
    <path d="m 387.645,497.969 c 2.582,0.297 6.488,0.582 11.968,0.582 l 0,0 c 0.305,0 0.61,-0.004 0.938,-0.016 l 0,0 c 0.582,-0.047 14.336,-1.246 18.808,-6.965 l 0,0 c 1.168,-1.496 1.61,-3.179 1.317,-4.996 l 0,0 c -0.602,-3.707 -8.121,-5.371 -13.27,-5.371 l 0,0 c -4.617,0 -14.734,1.215 -14.734,4.828 l 0,0 c 0,1.883 1.738,3.442 3.16,4.399 l 0,0 c -1.402,-0.008 -3.387,-0.18 -5.039,-0.95 l 0,0 c -0.039,-0.019 -3.773,-1.738 -3.922,-4.191 l 0,0 c -0.086,-1.477 1.16,-3.012 3.703,-4.555 l 0,0 c 5.633,-3.418 17.281,-4.136 17.379,-4.144 l 0,0 c 0.004,0 0.317,-0.008 0.863,-0.008 l 0,0 c 3.59,0 21.508,0.418 21.508,8.656 l 0,0 c 0,9.438 -17.222,14.461 -29.652,14.461 l 0,0 c -6.328,0 -10.473,-0.867 -13.027,-1.73 m -15.969,-14.711 c 0,-10.965 19.293,-15.52 29.621,-15.52 l 0,0 c 12.508,0 21.012,5.438 24.558,8.235 l 0,0 c -3.738,-0.895 -11.125,-2.434 -17.789,-2.434 l 0,0 c -8.808,0 -25.964,4.504 -25.964,12.758 l 0,0 c 0,6.523 10.003,7.23 14.3,7.23 l 0,0 c 0.786,0 1.262,-0.027 1.246,-0.027 l 0,0 c 0.348,-0.008 8.508,-0.285 9.793,-4.371 l 0,0 c 0.727,-2.301 -0.05,-3.949 -1.144,-5.008 l 0,0 c 2.926,0.313 7.644,1.328 7.644,4.684 l 0,0 c 0,4.925 -12.523,6.535 -16.839,6.535 l 0,0 c -4.247,0 -25.426,-0.582 -25.426,-12.082" style="fill:url(#radialGradient242)"/>
  </g>
</svg>
