<?xml version="1.0" encoding="UTF-8" standalone="no"?>
<svg xmlns="http://www.w3.org/2000/svg" version="1.1" width="600" height="353.62155">
  <path d="m 550.59729,237.18462 c 0,0 -98.76,28.0523 -185.33538,28.0523 -86.60308,0 -234.15693,-43.91077 -234.15693,-112.1723 0,-68.32616 137.81539,-61.00616 137.81539,-61.00616 0,0 74.45538,2.12308 85.27385,36.48923 12.12,38.51077 -26.75077,51.30462 -26.75077,51.30462 0,0 97.56923,1.22769 97.56923,-49.97539 0,-51.23076 -119.52923,-65.87076 -160.99385,-65.87076 -41.47385,0 -240.221538,4.90153 -240.221538,117.07384 0,110.48308 192.692308,148.77231 278.944618,148.77231 159.12,0 247.85538,-92.66769 247.85538,-92.66769 M 295.38498,45.57231 c -2.70461,-0.10191 -5.44615,-0.13883 -8.18769,-0.13883 -103.66154,0 -146.35384,11.25231 -146.35384,11.25231 0,0 36.6,-32.88923 156.12923,-32.88923 119.4923,0 279.23077,47.52923 279.23077,139.00615 0,91.47692 -212.19693,85.34769 -212.19693,85.34769 0,0 -109.32923,-6.42461 -163.12615,-39.01846 -84.45231,-51.26769 2.59385,-90.53538 2.59385,-90.53538 28.99384,-13.52308 67.86461,-8.22462 67.86461,-8.22462 0,0 -42.69231,19.50462 -42.69231,45.11077 0,25.59692 81.73846,39.04615 130.52308,39.04615 47.99077,0 112.24615,-15.68307 117.00923,-44.92615 C 490.45883,61.69809 295.38498,45.57194 295.38498,45.57194"/>
</svg>
