<?xml version="1.0" encoding="utf-8"?>
<svg xmlns="http://www.w3.org/2000/svg" xmlns:xlink="http://www.w3.org/1999/xlink" version="1.1" baseProfile="basic" id="Layer_1" x="0px" y="0px" width="356px" height="300px">
  <g>
    <path fill="#FFFFFF" d="M48.042,300l-6.125-7.222C14.541,260.512,0.052,220.727,0.052,177.971C0.052,79.845,79.897,0.023,177.978,0   c98.126,0.023,177.971,79.845,177.971,177.971c0,40.471-13.209,78.542-38.072,110.123l-5.895,7.404l-3.383-8.821   c-3.656-9.483-8.454-18.669-14.305-27.171l-1.281-1.987l12.387-55.211c-11.654,12.18-24.086,22.234-29.708,28.017l-3.473,3.588   l-3.839-3.153c-3.566-2.949-7.039-5.6-10.33-7.793l-2.422-1.646v-2.879c0-17.346,2.697-51.303,6.811-77.536   c-13.437,20.178-30.348,44.08-40.768,60.351l-2.104,3.269l-3.793-0.982c-3.382-0.914-6.9-1.715-10.421-2.354l-7.22-1.279   l-0.869-3.428c-5.713-23.926-13.574-60.17-18.693-88.528c-5.483,28.222-13.985,64.26-19.835,88.551l-0.822,3.405l-3.428,0.594   c-4.799,0.868-9.461,1.966-13.848,3.314l-3.885,1.119l-2.148-3.405c-9.918-15.471-26.097-43.121-38.985-66.133   c3.337,30.438,5.073,71.572,4.753,86.037l-0.045,2.514l-1.92,1.554c-3.244,2.56-5.896,4.914-8.318,7.153l-3.793,3.656l-3.702-3.725   c-6.49-6.445-18.83-20.316-30.576-35.97l12.66,66.294l-1.097,1.896c-5.12,8.364-9.278,17.162-12.432,26.279L48.042,300z"/>
    <path d="M10.839,177.971c-0.046,37.089,11.562,71.686,33.546,100.662c2.514-6.056,5.439-11.906,8.821-17.596L30.857,149.999   l14.944,20.271c0.366,0.479,27.605,35.604,40.951,50.937c0.868-0.868,1.875-1.646,2.833-2.468   c-0.274-24.863-7.541-107.86-7.632-108.798l-3.246-27.126l13.3,23.927c0.366,0.662,33.044,59.187,49.452,85.649   c2.514-0.709,5.027-1.28,7.586-1.783c9.416-39.67,24.406-112.546,24.498-113.414l5.621-29.433l4.937,29.57   c0.182,0.822,13.711,74.132,22.852,113.231l0.32,0.045c2.559,0.457,5.027,0.96,7.449,1.6   c17.688-27.444,52.057-77.308,52.467-77.925l13.986-20.909l-4.251,24.794c-0.045,0.822-9.599,69.47-10.421,97.532   c1.555,1.12,3.199,2.331,4.892,3.633c12.796-13.413,40.31-39.213,40.31-39.213l14.169-14.671l-21.298,90.082   c3.932,5.896,7.404,12.111,10.328,18.51c19.836-28.108,30.303-61.175,30.303-96.001c0-92.229-75.092-167.276-167.23-167.298   c-6.947,0.022-13.803,0.434-20.521,1.256C74.915,22.121,10.793,92.71,10.839,177.971"/>
  </g>
</svg>
