<?xml version="1.0" encoding="utf-8"?>
<svg xmlns="http://www.w3.org/2000/svg" xmlns:xlink="http://www.w3.org/1999/xlink" version="1.1" baseProfile="basic" id="Layer_1" x="0px" y="0px" width="356px" height="300px">
  <g>
    <path d="M48.041,300l-6.125-7.222c-27.33-32.313-41.818-72.028-41.863-114.83C0.053,79.866,79.852-0.023,178.023,0   c98.125-0.023,177.924,79.798,177.924,177.948c0.047,40.448-13.162,78.541-38.07,110.123l-5.85,7.403l-3.383-8.774   c-3.656-9.507-8.455-18.716-14.26-27.217l-1.371-1.988l12.387-55.164c-11.609,12.133-24.041,22.144-29.662,27.947l-3.475,3.633   l-3.838-3.221c-3.566-2.926-7.084-5.554-10.33-7.794l-2.422-1.576v-2.879c0.047-17.391,2.697-51.348,6.719-77.559   c-13.393,20.153-30.211,44.034-40.678,60.35l-2.146,3.269l-3.793-1.004c-3.338-0.846-6.811-1.668-10.375-2.286l-7.268-1.35   l-0.869-3.381c-5.713-23.926-13.574-60.169-18.646-88.528c-5.531,28.176-13.984,64.214-19.836,88.505l-0.822,3.428l-3.52,0.594   c-4.752,0.893-9.414,1.966-13.803,3.292l-3.883,1.143l-2.15-3.36c-9.916-15.47-26.051-43.19-39.029-66.179   c3.428,30.438,5.164,71.549,4.844,86.038l-0.092,2.467l-1.965,1.6c-3.154,2.562-5.896,4.937-8.271,7.153l-3.748,3.68l-3.748-3.748   c-6.49-6.468-18.785-20.361-30.576-35.97l12.66,66.339l-1.098,1.852c-5.072,8.341-9.277,17.162-12.43,26.326L48.041,300z"/>
    <linearGradient id="SVGID_1_" gradientUnits="userSpaceOnUse" x1="36.5361" y1="88.6797" x2="326.1785" y2="155.9048">
      <stop style="stop-color:#bf331c" offset="0.03"/>
      <stop style="stop-color:#d3641c" offset="0.1"/>
      <stop style="stop-color:#f6b91d" offset="0.6"/>
    </linearGradient>
    <path fill="url(#SVGID_1_)" d="M177.979,10.718C85.793,10.74,10.838,85.764,10.838,177.948c0,37.109,11.609,71.708,33.549,100.685   c2.559-6.055,5.529-11.929,8.818-17.597L30.902,149.931l14.945,20.339c0.32,0.457,27.605,35.603,40.904,50.938   c0.914-0.846,1.875-1.67,2.881-2.492c-0.32-24.863-7.588-107.814-7.68-108.798l-3.199-27.08l13.209,23.926   c0.412,0.596,33.09,59.142,49.588,85.628c2.424-0.709,4.936-1.258,7.543-1.807c9.367-39.669,24.313-112.567,24.449-113.39   l5.623-29.457l5.072,29.547c0.092,0.869,13.574,74.178,22.715,113.255l0.412,0.092c2.467,0.389,4.98,0.938,7.359,1.553   c17.732-27.49,52.055-77.354,52.512-77.924l13.986-20.887l-4.205,24.793c-0.137,0.824-9.643,69.425-10.512,97.465   c1.6,1.166,3.199,2.377,4.891,3.656c12.842-13.323,40.355-39.237,40.355-39.237l14.076-14.647l-21.16,90.06   c3.84,5.986,7.268,12.088,10.238,18.532c19.928-28.131,30.348-61.151,30.301-96.024c-0.045-78.793-54.799-144.995-128.199-162.636   C204.486,12.34,191.414,10.718,177.979,10.718"/>
  </g>
</svg>
