<?xml version="1.0" encoding="utf-8"?>
<svg xmlns="http://www.w3.org/2000/svg" xmlns:xlink="http://www.w3.org/1999/xlink" version="1.1" baseProfile="basic" id="Layer_1" x="0px" y="0px" width="356px" height="300px">
  <g>
    <path d="M48.041,300l-6.123-7.222C14.541,260.512,0.053,220.727,0.053,177.971C0.053,79.845,79.896,0.023,177.977,0   c98.127,0.023,177.971,79.845,177.971,177.971c0,40.471-13.207,78.542-38.07,110.123l-5.896,7.404l-3.383-8.821   c-3.656-9.483-8.453-18.669-14.303-27.171l-1.281-1.987l12.385-55.211c-11.652,12.18-24.086,22.234-29.707,28.017l-3.473,3.588   l-3.838-3.153c-3.566-2.949-7.039-5.6-10.332-7.793l-2.422-1.646v-2.879c0-17.346,2.697-51.303,6.813-77.536   c-13.438,20.178-30.348,44.08-40.77,60.351l-2.102,3.269l-3.795-0.982c-3.381-0.914-6.9-1.715-10.42-2.354l-7.221-1.279   l-0.869-3.428c-5.713-23.926-13.572-60.17-18.693-88.528c-5.482,28.222-13.984,64.26-19.834,88.551l-0.822,3.405l-3.428,0.594   c-4.801,0.868-9.461,1.966-13.848,3.314l-3.887,1.119l-2.148-3.405c-9.918-15.471-26.096-43.121-38.984-66.133   c3.336,30.438,5.072,71.572,4.752,86.037l-0.045,2.514l-1.92,1.554c-3.244,2.56-5.895,4.914-8.316,7.153l-3.795,3.656l-3.701-3.725   c-6.49-6.445-18.83-20.316-30.576-35.97l12.66,66.294l-1.096,1.896c-5.121,8.364-9.279,17.162-12.432,26.279L48.041,300z"/>
    <linearGradient id="SVGID_1_" gradientUnits="userSpaceOnUse" x1="36.5146" y1="88.6821" x2="326.1697" y2="255.9146">
      <stop offset="0.1" style="stop-color:#536e78"/>
      <stop offset="0.5" style="stop-color:#d9eaf3"/>
      <stop offset="0.9" style="stop-color:#536e78"/>
    </linearGradient>
    <path fill="url(#SVGID_1_)" d="M10.84,177.971C10.793,215.06,22.4,249.656,44.385,278.633c2.514-6.056,5.439-11.906,8.822-17.596   l-22.35-111.038l14.943,20.271c0.367,0.479,27.605,35.604,40.951,50.937c0.869-0.868,1.875-1.646,2.834-2.468   c-0.273-24.863-7.541-107.86-7.633-108.798l-3.244-27.126l13.299,23.927c0.367,0.662,33.045,59.187,49.453,85.649   c2.514-0.709,5.027-1.28,7.586-1.783c9.416-39.67,24.406-112.546,24.498-113.414l5.621-29.433l4.936,29.57   c0.184,0.822,13.711,74.132,22.852,113.231l0.32,0.045c2.561,0.457,5.027,0.96,7.449,1.6   c17.688-27.444,52.059-77.308,52.469-77.925l13.984-20.909l-4.25,24.794c-0.045,0.822-9.598,69.47-10.42,97.532   c1.555,1.12,3.199,2.331,4.891,3.633c12.795-13.413,40.309-39.213,40.309-39.213l14.17-14.671l-21.299,90.082   c3.932,5.896,7.404,12.111,10.33,18.51c19.834-28.108,30.303-61.175,30.303-96.001c0-92.229-75.092-167.276-167.232-167.298   c-6.945,0.022-13.803,0.434-20.52,1.256C74.914,22.121,10.793,92.71,10.84,177.971"/>
  </g>
</svg>
