<?xml version="1.0" encoding="UTF-8" standalone="no"?>
<svg xmlns="http://www.w3.org/2000/svg" version="1.1" width="600" height="946.07379">
  <path d="m 290.49669,394.03973 c -37.60643,0 -68.09366,30.51088 -68.09366,68.09366 0,37.70104 30.48723,68.18827 68.09366,68.18827 37.67739,0 68.16462,-30.48723 68.16462,-68.18827 0,-37.58278 -30.48723,-68.09366 -68.16462,-68.09366 m -1.77294,-355.41627 82.52128,319.01608 60.50142,0 0,99.05393 53.12205,0 0,-53.21665 75.78051,0 0,503.2403 -521.357619,0 0,-499.55061 69.749289,0 0,102.649 62.27531,0 0,-152.17597 38.52885,0 78.87891,-319.01608 z"/>
</svg>
