<?xml version="1.0" encoding="UTF-8" standalone="no"?>
<svg xmlns="http://www.w3.org/2000/svg" version="1.1" width="600" height="363.10175">
  <path d="m 172.56934,0 -66.92312,0 c 0,0 -3.27693,35.91694 -4.35693,47.6031 C 92.704672,40.85541 69.083119,22.21847 69.083119,22.21847 L 13.273854,84.62774 c 0,0 20.510782,27.25848 27.184632,36.16618 -0.258461,0.79385 -0.544985,1.58769 -0.793846,2.38154 C 28.956941,125.37238 0,131.36316 0,131.36316 l 0,80.94466 c 0,0 35.556945,2.81539 47.307721,3.72 0.07385,0.17502 0.147693,0.32271 0.248862,0.49846 -5.769234,8.98155 -21.92309,34.25541 -21.92309,34.25541 l 65.196963,60.94158 c 0,0 21.341554,-21.48925 29.243094,-29.42771 3.49846,10.74462 12.18462,37.6431 12.18462,37.6431 l 85.81852,-1.04308 1.00615,-16.51386 c 0.0738,-0.90461 1.01539,-16.72616 1.48616,-28.69848 9.72923,5.01231 35.43694,18.1754 35.43694,18.1754 0,0 22.28309,-24.48925 32.41848,-35.63079 3.21231,0.22154 25.81848,2.02154 37.56926,2.92615 0.0738,0.17502 0.18461,0.35964 0.25846,0.53539 -5.76924,8.94462 -21.92309,34.21848 -21.92309,34.21848 l 65.22465,60.94158 c 0,0 21.31386,-21.45232 29.20618,-29.42771 3.49846,10.74462 12.19385,37.68002 12.19385,37.68002 l 85.80928,-1.04308 1.01539,-16.55078 c 0.0369,-0.86769 1.00615,-16.72616 1.44,-28.66155 9.77539,4.97538 35.4831,18.16616 35.4831,18.16616 l 53.64926,-59.02157 -26.67694,-33.10156 C 572.05844,239.78784 600,231.46168 600,231.46168 l -5.37231,-86.57544 c 0,0 -30.72002,0.53539 -41.3908,0.72 -0.54498,-1.08 -1.12615,-2.16923 -1.69846,-3.21231 6.45231,-9.59077 24.81232,-36.9231 24.81232,-36.9231 L 510.94148,51.12926 c 0,0 -22.68001,23.22463 -30.75694,31.44925 -2.38154,-0.79385 -4.8,-1.51385 -7.29231,-2.16923 C 471.05531,70.2462 466.07992,43.1631 466.07992,43.1631 l -81.73851,0 c 0,0 -3.28616,35.88002 -4.36616,47.59388 -8.58462,-6.73847 -32.16002,-25.38463 -32.16002,-25.38463 0,0 -22.43078,25.06155 -32.6031,36.38771 -1.29231,0.0369 -30.00002,0.49846 -40.67079,0.68308 -0.53539,-1.08 -1.11693,-2.12308 -1.68923,-3.17539 6.45231,-9.6277 24.80309,-36.96002 24.80309,-36.96002 L 232.24593,8.01231 c 0,0 -22.68002,23.2154 -30.75694,31.44002 -2.41847,-0.79385 -4.8277,-1.51385 -7.28309,-2.20616 C 192.36898,27.12001 187.39359,0 187.39359,0 l -14.82462,0 z" style="fill:#ffffff"/>
  <path d="m 418.73564,203.04012 c 0,11.14155 9.05539,20.19694 20.19694,20.19694 11.14154,0 20.1877,-9.05539 20.1877,-20.19694 0,-11.14154 -9.04616,-20.1877 -20.1877,-20.1877 -11.14155,0 -20.19694,9.04616 -20.19694,20.1877 m 20.19694,-54.44311 c 30.00002,0 54.44311,24.40617 54.44311,54.44311 0,30.00002 -24.44309,54.45234 -54.44311,54.45234 -30.03694,0 -54.45234,-24.45232 -54.45234,-54.45234 0,-30.03694 24.4154,-54.44311 54.45234,-54.44311 m 0,-17.77847 c -39.91387,0 -72.25851,32.34464 -72.25851,72.22158 0,39.88618 32.34464,72.23082 72.25851,72.23082 39.87695,0 72.2585,-32.34464 72.2585,-72.23082 0,-39.87694 -32.38155,-72.22158 -72.2585,-72.22158 m 138.99701,32.16925 3.42461,55.44927 -35.29848,10.53231 c -1.36615,5.58462 -3.13846,11.03078 -5.33539,16.26462 l 24.19386,30.03695 -34.21848,37.68002 -33.24002,-17.02155 c -5.12308,3.13846 -18.85847,13.69847 -16.15386,8.22462 1.29231,-2.64 -1.30153,40.27387 -1.30153,40.27387 l -56.14158,0.68308 -11.7877,-36.45233 c -5.55692,-1.44 -10.92923,-3.35077 -16.11693,-5.63077 l -26.87079,27.04617 -41.75079,-39.04618 19.65232,-30.69233 c -3.53539,-5.69539 -6.56308,-11.75077 -8.98155,-18.10155 l -41.50156,-3.24 0,-49.97541 36.35079,-7.54155 c 1.44,-7.13539 3.56308,-14.02154 6.30462,-20.58463 l -24.19386,-32.16001 34.93848,-39.01849 28.92002,22.79078 c 5.62154,-3.78462 11.64924,-7.10769 17.95386,-9.81231 l 3.79385,-41.7508 50.69541,0 6.2677,34.29233 c 9.52616,1.51385 18.68309,4.29231 27.19386,8.15078 l 27.47079,-28.06156 40.42156,33.57233 -22.17232,32.99079 c 4.57846,6.7477 8.40001,14.03078 11.39078,21.71078 l 36.09233,-0.60923 z m -437.88027,-3.10154 c 0,11.14155 9.04616,20.22463 20.1877,20.22463 11.14155,0 20.19694,-9.08308 20.19694,-20.22463 0,-11.14154 -9.05539,-20.19694 -20.19694,-20.19694 -11.14154,0 -20.1877,9.0554 -20.1877,20.19694 m 20.1877,-54.41542 c 30.00002,0 54.45234,24.4154 54.45234,54.41542 0,30.03694 -24.45232,54.44311 -54.45234,54.44311 -30.03694,0 -54.44311,-24.40617 -54.44311,-54.44311 0,-30.00002 24.40617,-54.41542 54.44311,-54.41542 m 0,-17.81539 c -39.91387,0 -72.258504,32.34463 -72.258504,72.23081 0,39.91387 32.344634,72.25851 72.258504,72.25851 39.88618,0 72.23082,-32.34464 72.23082,-72.25851 0,-39.88618 -32.34464,-72.23081 -72.23082,-72.23081 m 139.00624,32.16925 3.42462,55.48619 -35.29848,10.49539 c -1.37539,5.63077 -3.13847,11.04 -5.33539,16.30154 l 24.19386,30.03695 -34.21848,37.6431 -33.24926,-17.02155 c -5.11384,3.17538 -18.82155,13.7077 -16.15385,8.26154 1.30154,-2.64 -1.29231,40.27387 -1.29231,40.27387 l -56.14157,0.68308 -11.79693,-36.45233 c -5.5477,-1.47693 -10.95693,-3.3877 -16.11694,-5.65847 L 90.396979,286.91094 48.609261,247.90169 68.26158,217.21859 c -3.498463,-5.70462 -6.526157,-11.76 -8.981544,-18.10155 l -41.46464,-3.28615 0,-49.97542 36.34156,-7.53231 c 1.440001,-7.1077 3.57231,-13.99385 6.31385,-20.55694 L 36.276945,85.6062 71.215428,46.58772 100.13545,69.3785 c 5.62154,-3.82154 11.60308,-7.10769 17.91693,-9.84 l 3.82154,-41.72311 50.69542,0 6.27692,34.25541 c 9.51693,1.55077 18.64617,4.32923 27.18464,8.1877 l 27.48001,-28.05233 40.38464,33.5631 -22.14463,32.9631 c 4.5877,6.77539 8.40924,14.02154 11.40001,21.73847 l 36.09233,-0.64615 z"/>
</svg>
