<?xml version="1.0" encoding="UTF-8" standalone="no"?>
<svg xmlns="http://www.w3.org/2000/svg" version="1.1" width="600" height="363.10175">
  <radialGradient cx="0" cy="0" r="1" fx="0" fy="0" id="radialGradient698" gradientUnits="userSpaceOnUse" gradientTransform="matrix(14.85376,0,0,-14.85376,150.1626,144.1875)" spreadMethod="pad">
    <stop style="stop-color:#bf99c3" offset="0"/>
    <stop style="stop-color:#7b5190" offset="0.66291797"/>
    <stop style="stop-color:#612c75" offset="1"/>
  </radialGradient>
  <radialGradient cx="0" cy="0" r="1" fx="0" fy="0" id="radialGradient684" gradientUnits="userSpaceOnUse" gradientTransform="matrix(14.853516,0,0,-14.853516,119.9707,148.85937)" spreadMethod="pad">
    <stop style="stop-color:#bf99c3" offset="0"/>
    <stop style="stop-color:#7b5190" offset="0.66291797"/>
    <stop style="stop-color:#612c75" offset="1"/>
  </radialGradient>
  <path d="m 172.56934,0 -66.92312,0 c 0,0 -3.27693,35.91694 -4.35693,47.6031 C 92.704672,40.85541 69.083119,22.21847 69.083119,22.21847 L 13.264624,84.62774 c 0,0 20.520012,27.25848 27.193862,36.16618 -0.258461,0.79385 -0.544985,1.58769 -0.793846,2.38154 C 28.956941,125.37238 0,131.36316 0,131.36316 l 0,80.94466 c 0,0 35.556945,2.81539 47.307721,3.72 0.07385,0.17502 0.147693,0.32271 0.248862,0.49846 -5.769234,8.98155 -21.92309,34.25541 -21.92309,34.25541 l 65.196963,60.94158 c 0,0 21.341554,-21.48925 29.243094,-29.42771 3.49846,10.74462 12.18462,37.6431 12.18462,37.6431 l 85.81852,-1.04308 1.00615,-16.51386 c 0.0738,-0.90461 1.01539,-16.72616 1.48616,-28.69848 9.72923,5.01231 35.43694,18.1754 35.43694,18.1754 0,0 22.28309,-24.48925 32.41848,-35.63079 3.21231,0.22154 25.81848,2.02154 37.56926,2.92615 0.0738,0.17502 0.18461,0.35964 0.25846,0.53539 -5.76924,8.94462 -21.92309,34.21848 -21.92309,34.21848 l 65.22465,60.94158 c 0,0 21.31386,-21.45232 29.20618,-29.42771 3.49846,10.74462 12.19385,37.68002 12.19385,37.68002 l 85.80928,-1.04308 1.01539,-16.55078 c 0.0369,-0.86769 1.00615,-16.72616 1.44,-28.66155 9.77539,4.97538 35.4831,18.16616 35.4831,18.16616 l 53.64926,-59.02157 -26.67694,-33.10156 C 572.05844,239.78784 600,231.46168 600,231.46168 l -5.37231,-86.57544 c 0,0 -30.72002,0.53539 -41.3908,0.72 -0.54498,-1.08 -1.11692,-2.16923 -1.69846,-3.21231 6.45231,-9.59077 24.80309,-36.9231 24.80309,-36.9231 L 510.94148,51.12926 c 0,0 -22.68001,23.22463 -30.75694,31.44925 -2.38154,-0.79385 -4.8,-1.51385 -7.29231,-2.16923 C 471.05531,70.2462 466.07992,43.1631 466.07992,43.1631 l -81.73851,0 c 0,0 -3.28616,35.88002 -4.36616,47.59388 -8.58462,-6.73847 -32.16002,-25.38463 -32.16002,-25.38463 0,0 -22.43078,25.06155 -32.6031,36.38771 -1.29231,0.0369 -30.00002,0.49846 -40.67079,0.68308 -0.53539,-1.08 -1.11693,-2.12308 -1.68923,-3.17539 6.45231,-9.6277 24.80309,-36.96002 24.80309,-36.96002 L 232.24593,8.01231 c 0,0 -22.68002,23.2154 -30.75694,31.44002 -2.41847,-0.79385 -4.8277,-1.51385 -7.28309,-2.20616 C 192.36898,27.12001 187.39359,0 187.39359,0 l -14.82462,0 z" style="fill:#ffffff"/>
  <path d="m 140.01239,159.92317 c 0,11.10463 9.08309,20.18771 20.22463,20.18771 11.14155,0 20.19694,-9.08308 20.19694,-20.18771 0,-11.14154 -9.05539,-20.23386 -20.19694,-20.23386 -11.14154,0 -20.22463,9.09232 -20.22463,20.23386 m 20.22463,-54.45234 c 30.00002,0 54.45234,24.4154 54.45234,54.45234 0,30.00002 -24.45232,54.40619 -54.45234,54.40619 -30.03694,0 -54.44311,-24.40617 -54.44311,-54.40619 0,-30.03694 24.40617,-54.45234 54.44311,-54.45234 m 0,-17.81539 c -39.91387,0 -72.258504,32.34463 -72.258504,72.26773 0,39.87695 32.344634,72.22159 72.258504,72.22159 39.88618,0 72.23082,-32.34464 72.23082,-72.22159 0,-39.9231 -32.34464,-72.26773 -72.23082,-72.26773 m 139.00624,32.16925 3.42462,55.48619 -35.29848,10.49539 c -1.37539,5.63077 -3.13847,11.0677 -5.33539,16.30154 l 24.19386,30.03695 -34.21848,37.6431 -33.24926,-17.02155 c -5.11384,3.17538 -18.85847,13.7077 -16.15385,8.26154 1.30154,-2.64 -1.29231,40.27387 -1.29231,40.27387 l -56.14157,0.68308 -11.79693,-36.45233 c -5.5477,-1.47693 -10.95693,-3.3877 -16.15386,-5.65847 L 90.396979,286.91094 48.609261,247.90169 68.26158,217.21859 c -3.498463,-5.70462 -6.535388,-11.76 -8.981544,-18.10155 l -41.46464,-3.28615 0,-49.97542 36.34156,-7.53231 c 1.440001,-7.1077 3.57231,-13.99385 6.31385,-20.55694 L 36.313869,85.6062 71.215428,46.58772 100.13545,69.3785 c 5.62154,-3.82154 11.60308,-7.10769 17.91693,-9.81231 l 3.82154,-41.7508 50.69542,0 6.27692,34.25541 c 9.51693,1.55077 18.64617,4.32923 27.18464,8.1877 l 27.48001,-28.05233 40.38464,33.5631 -22.14463,33.00002 c 4.5877,6.70154 8.40924,13.98462 11.40001,21.70155 l 36.09233,-0.64615 z" style="fill:#612c75"/>
  <g transform="matrix(9.2307749,0,0,-9.2307749,-947.30828,1533.9702)">
    <path d="m 116.332,163.699 -0.371,-4.019 -0.027,-0.328 -0.301,-0.129 c -0.653,-0.282 -1.274,-0.621 -1.852,-1.012 l 0,0 -0.332,-0.227 -0.316,0.25 -2.727,2.149 -3.136,-3.508 2.343,-3.121 0.192,-0.25 -0.121,-0.289 c -0.286,-0.688 -0.508,-1.403 -0.653,-2.129 l 0,0 -0.07,-0.359 -0.356,-0.071 -3.5,-0.726 0,-4.457 3.989,-0.317 0.344,-0.027 0.124,-0.324 c 0.247,-0.637 0.559,-1.27 0.926,-1.867 l 0,0 0.18,-0.293 -0.188,-0.293 -1.878,-2.938 3.8,-3.551 2.532,2.551 0.265,0.266 0.348,-0.153 c 0.543,-0.238 1.101,-0.429 1.668,-0.582 l 0,0 0.293,-0.074 0.09,-0.289 1.152,-3.562 5.164,0.062 c 0.055,0.973 0.168,3.039 0.148,3.637 l 0,0 0.047,0.426 0.387,0.128 c 0.16,0.051 0.707,0.43 1,0.633 l 0,0 c 0.207,0.145 0.402,0.274 0.539,0.356 l 0,0 0.262,0.164 0.277,-0.141 3.227,-1.652 3.109,3.422 -2.328,2.886 -0.207,0.254 0.129,0.305 c 0.226,0.547 0.414,1.109 0.551,1.68 l 0,0 0.078,0.308 0.301,0.086 3.402,1.016 -0.309,5.051 -3.386,-0.059 -0.383,-0.008 -0.141,0.36 c -0.305,0.789 -0.699,1.543 -1.176,2.242 l 0,0 -0.207,0.304 0.207,0.309 2.125,3.16 -3.609,2.996 -2.617,-2.675 -0.27,-0.278 -0.347,0.156 c -0.895,0.403 -1.84,0.688 -2.813,0.844 l 0,0 -0.383,0.063 -0.07,0.383 -0.598,3.261 -4.527,0 z m -4.727,-14.844 c 0,4.622 3.758,8.379 8.379,8.379 l 0,0 c 4.618,0 8.375,-3.757 8.375,-8.379 l 0,0 c 0,-4.617 -3.757,-8.371 -8.375,-8.371 l 0,0 c -4.621,0 -8.379,3.754 -8.379,8.371 m 3.032,0 c 0,-2.949 2.398,-5.347 5.347,-5.347 l 0,0 c 2.95,0 5.348,2.398 5.348,5.347 l 0,0 c 0,2.95 -2.398,5.352 -5.348,5.352 l 0,0 c -2.949,0 -5.347,-2.402 -5.347,-5.352 m 2.609,0 c 0,1.512 1.227,2.743 2.738,2.743 l 0,0 c 1.512,0 2.739,-1.231 2.739,-2.743 l 0,0 c 0,-1.507 -1.227,-2.734 -2.739,-2.734 l 0,0 c -1.511,0 -2.738,1.227 -2.738,2.734" style="fill:url(#radialGradient684)"/>
  </g>
  <path d="m 418.73564,203.04012 c 0,11.14155 9.05539,20.19694 20.19694,20.19694 11.14154,0 20.1877,-9.05539 20.1877,-20.19694 0,-11.14154 -9.04616,-20.1877 -20.1877,-20.1877 -11.14155,0 -20.19694,9.04616 -20.19694,20.1877 m 20.19694,-54.44311 c 30.00002,0 54.44311,24.40617 54.44311,54.44311 0,30.00002 -24.44309,54.45234 -54.44311,54.45234 -30.03694,0 -54.45234,-24.45232 -54.45234,-54.45234 0,-30.03694 24.4154,-54.44311 54.45234,-54.44311 m 0,-17.77847 c -39.91387,0 -72.25851,32.34464 -72.25851,72.22158 0,39.88618 32.34464,72.23082 72.25851,72.23082 39.87695,0 72.2585,-32.34464 72.2585,-72.23082 0,-39.87694 -32.38155,-72.22158 -72.2585,-72.22158 m 138.99701,32.16925 3.42461,55.44927 -35.29848,10.53231 c -1.36615,5.58462 -3.13846,11.03078 -5.33539,16.26462 l 24.19386,30.03695 -34.21848,37.68002 -33.24002,-17.02155 c -5.12308,3.13846 -18.85847,13.69847 -16.15386,8.22462 1.29231,-2.64 -1.30153,40.27387 -1.30153,40.27387 l -56.14158,0.68308 -11.7877,-36.45233 c -5.55692,-1.44 -10.92923,-3.35077 -16.11693,-5.63077 l -26.87079,27.04617 -41.75079,-39.04618 19.65232,-30.69233 c -3.53539,-5.69539 -6.56308,-11.75077 -8.98155,-18.10155 l -41.50156,-3.24 0,-49.97541 36.35079,-7.54155 c 1.44,-7.13539 3.56308,-14.02154 6.30462,-20.58463 l -24.19386,-32.16001 34.93848,-39.01849 28.92002,22.79078 c 5.62154,-3.78462 11.64924,-7.10769 17.95386,-9.81231 l 3.79385,-41.7508 50.69541,0 6.2677,34.29233 c 9.52616,1.51385 18.68309,4.29231 27.19386,8.15078 l 27.47079,-28.06156 40.42156,33.57233 -22.17232,32.99079 c 4.57846,6.7477 8.40001,14.03078 11.39078,21.71078 l 36.09233,-0.60923 z" style="fill:#612c75"/>
  <g transform="matrix(9.2307749,0,0,-9.2307749,-947.30828,1533.9702)">
    <path d="m 146.523,159.027 -0.367,-4.023 -0.031,-0.324 -0.301,-0.133 c -0.64,-0.274 -1.265,-0.613 -1.855,-1.012 l 0,0 -0.332,-0.226 -0.313,0.25 -2.726,2.152 -3.137,-3.508 2.348,-3.121 0.187,-0.254 -0.121,-0.289 c -0.285,-0.684 -0.508,-1.402 -0.652,-2.129 l 0,0 -0.071,-0.355 -0.355,-0.075 -3.5,-0.722 0,-4.457 3.988,-0.317 0.344,-0.027 0.125,-0.324 c 0.25,-0.653 0.562,-1.281 0.926,-1.867 l 0,0 0.183,-0.293 -0.187,-0.293 -1.883,-2.942 3.805,-3.547 2.531,2.551 0.266,0.27 0.347,-0.157 c 0.543,-0.242 1.106,-0.433 1.664,-0.582 l 0,0 0.293,-0.078 0.09,-0.285 1.152,-3.562 5.164,0.062 c 0.059,0.973 0.168,3.039 0.149,3.637 l 0,0 0.047,0.422 0.387,0.133 c 0.156,0.05 0.703,0.425 0.996,0.625 l 0,0 c 0.211,0.144 0.406,0.277 0.543,0.363 l 0,0 0.265,0.164 0.278,-0.145 3.222,-1.648 3.11,3.422 -2.329,2.887 -0.207,0.253 0.129,0.305 c 0.227,0.543 0.414,1.11 0.551,1.676 l 0,0 0.074,0.308 0.305,0.09 3.402,1.016 -0.308,5.047 -3.387,-0.059 -0.383,-0.004 -0.14,0.356 c -0.297,0.777 -0.696,1.531 -1.176,2.246 l 0,0 -0.203,0.305 0.203,0.308 2.121,3.16 -3.606,2.993 -2.617,-2.676 -0.269,-0.274 -0.352,0.157 c -0.894,0.406 -1.84,0.687 -2.808,0.843 l 0,0 -0.383,0.063 -0.071,0.383 -0.597,3.261 -4.528,0 z m -4.722,-14.843 c 0,4.617 3.758,8.378 8.375,8.378 l 0,0 c 4.617,0 8.375,-3.761 8.375,-8.378 l 0,0 c 0,-4.618 -3.758,-8.375 -8.375,-8.375 l 0,0 c -4.617,0 -8.375,3.757 -8.375,8.375 m 3.027,0 c 0,-2.95 2.399,-5.348 5.348,-5.348 l 0,0 c 2.945,0 5.347,2.398 5.347,5.348 l 0,0 c 0,2.949 -2.402,5.347 -5.347,5.347 l 0,0 c -2.949,0 -5.348,-2.398 -5.348,-5.347 m 2.61,0 c 0,1.511 1.226,2.742 2.738,2.742 l 0,0 c 1.508,0 2.738,-1.231 2.738,-2.742 l 0,0 c 0,-1.512 -1.23,-2.739 -2.738,-2.739 l 0,0 c -1.512,0 -2.738,1.227 -2.738,2.739" style="fill:url(#radialGradient698)"/>
  </g>
</svg>
