<?xml version="1.0" encoding="UTF-8" standalone="no"?>
<svg xmlns="http://www.w3.org/2000/svg" xmlns:xlink="http://www.w3.org/1999/xlink" version="1.1" width="600" height="429.72345">
  <radialGradient cx="0" cy="0" r="1" fx="0" fy="0" id="radialGradient486" gradientUnits="userSpaceOnUse" gradientTransform="matrix(21.295975,0,0,-21.295975,747.99023,369.62695)" spreadMethod="pad">
    <stop style="stop-color:#ebd491" offset="0"/>
    <stop style="stop-color:#d2bb7b" offset="0.7"/>
    <stop style="stop-color:#8b723c" offset="1"/>
  </radialGradient>
  <radialGradient cx="0" cy="0" r="1" fx="0" fy="0" id="radialGradient2995" xlink:href="#radialGradient486" gradientUnits="userSpaceOnUse" gradientTransform="matrix(21.295975,0,0,-21.295975,747.99023,369.62695)" spreadMethod="pad"/>
  <path d="m 525.92394,131.85022 -28.86764,0 c -0.4624,-0.21487 -16.57714,-8.05758 -16.57714,-8.05758 l -8.10056,-26.439624 -0.1719,0.0859 -0.043,-0.043 -16.69532,9.185654 c -0.043,0.043 -9.11044,4.9957 -21.94886,8.93854 -0.33347,0.086 -0.96691,0.21487 -2.13794,0.21487 -4.11474,0 -10.24925,-1.5578 -17.33993,-3.3627 -11.45251,-2.97593 -25.71981,-6.6287 -42.75891,-6.6287 -20.56296,0 -42.64074,3.73872 -56.27418,6.54276 -8.40137,-17.501084 -21.65878,-32.391494 -47.80833,-32.391494 -11.16244,0 -23.45295,2.42801 -39.56812,5.83369 -1.09583,0.20455 -2.22389,0.37645 -3.27675,0.46239 -5.2428,0.3756 -9.73356,-1.05285 -13.6012,-3.60979 -14.13838,-9.81951 -20.05801,-35.46412 -20.14396,-35.79717 l -0.043,0 c -0.0773,-0.17189 -6.78985,-22.12075 -8.89557,-41.5126705 -0.99914,-9.60465 -11.20541,-3.14783 -11.20541,-3.14783 -4.523,19.6067905 -10.19554,44.2415105 -10.28148,44.3596905 l -0.043,0 -7.75676,33.70219 -16.28707,-14.0202 -8.93855,37.816934 -10.6575,3.7817 -1.09583,3.39492 -10.74344,3.81393 -0.58015,2.14869 c -6.714654,2.38504 -12.129351,4.31886 -12.129351,4.31886 0,0 -2.266868,9.48647 -2.438763,10.36743 l -17.963042,0 L 0,406.5176 l 237.61281,0 c 1.26772,2.18092 2.85775,4.40481 4.87752,6.58573 10.23851,11.04427 27.61066,16.62012 51.49334,16.62012 35.29222,0 51.32144,-11.20542 58.54104,-20.93898 l 247.47529,0 -74.07606,-276.93382 z" style="fill:#ffffff"/>
  <path d="m 337.2905,373.91081 c 0,0 6.83283,24.9248 -41.8887,24.9248 -48.72152,0 -40.74989,-27.19167 -40.74989,-27.19167 l -205.006444,0 60.184784,-233.62698 5.6618,-2.01977 -59.217877,231.66094 c 0,0 47.045547,-9.99141 70.423287,-13.42931 23.37774,-3.48088 129.05028,-19.93984 174.37688,20.81005 0,0 30.5866,-15.81435 95.13322,-15.81435 64.54663,0 114.40697,11.29136 144.95058,7.88569 l -56.18822,-214.78298 7.92866,3.39493 56.24194,218.18865 -211.85002,0 z m -216.84572,-242.98452 6.29566,-2.26687 -52.578429,222.42157 c 0,0 65.341639,-14.64332 118.639879,-13.97723 53.2875,0.6343 81.91878,16.24409 81.91878,16.24409 0,0 -44.24151,-13.01031 -89.06317,-11.03351 -44.89686,1.92307 -91.233349,10.81865 -121.776967,17.95229 L 120.44478,130.92629 z m 11.00129,-6.80061 6.96175,-2.51396 -49.645465,214.19209 c 0,0 38.397075,-4.31887 52.664375,-6.49979 14.94413,-2.26687 82.55264,-16.24409 142.98453,21.44392 0,0 -57.83197,-23.42071 -111.75333,-18.22088 -53.97508,5.21057 -76.052859,9.78728 -92.329181,13.01031 L 131.44607,124.12568 z m 17.2862,-17.50107 11.58144,9.64762 -41.7168,198.88267 c 0,0 23.08766,1.00989 54.77009,-5.50064 31.01633,-6.37087 83.26171,7.21959 118.51095,40.3309 0,0 -53.58831,-40.20198 -128.96433,-29.12549 -29.20068,4.24366 -65.674686,7.76751 -65.674686,7.76751 0,-0.086 51.493336,-222.00257 51.493336,-222.00257 m 27.73958,-33.401374 c 0,0 8.51956,33.401374 42.17877,35.378164 33.73443,2.00903 71.6373,-25.730554 80.15686,32.01548 0,0 -2.26687,203.79243 -2.26687,203.8354 0,-1.29996 -6.09153,-5.25354 -6.9725,-5.96261 -6.32789,-4.95273 -13.08551,-9.44349 -20.05801,-13.51526 -20.69188,-12.20455 -43.9407,-22.948 -68.23163,-24.67769 -14.10615,-0.99914 -28.08337,1.18177 -41.93167,3.91061 -19.92909,3.8569 -32.69231,2.88999 -32.69231,2.88999 L 176.47185,73.223236 z M 306.73614,137.136 c 0.33262,-0.086 0.54835,-0.12892 0.54835,-0.12892 0.33261,-0.0859 34.70133,-8.8526 63.99871,-8.8526 14.22432,0 26.43962,3.14783 37.18307,5.87666 12.00043,3.10486 22.32488,5.74775 31.63945,2.88999 6.54275,-2.00903 13.1822,-4.60894 18.67211,-6.96175 l 60.89385,217.9308 c 0,0 -158.54104,-27.19166 -212.93511,13.55823 l 0,-224.31241 z m 171.1431,9.44349 56.52128,216.58787 c 0,0 -26.05286,0 -86.65664,-7.39149 -60.60379,-7.33777 -127.40654,4.57671 -127.40654,4.57671 0,0 59.42201,-28.91061 206.68243,-6.25268 l -58.75591,-212.05415 9.61538,4.53374 z m 36.88226,4.18994 -20.18694,-0.11775 -11.20542,-4.9957 -1.12806,-3.78169 -14.56811,-6.87581 -4.65191,-14.77224 c 0,0 -10.15256,5.6618 -24.89257,10.19553 -14.72926,4.53374 -36.25913,-9.06746 -66.84572,-9.06746 -30.59734,0 -65.67469,9.06746 -65.67469,9.06746 -14.74001,-40.792864 -31.69317,-38.526004 -74.7529,-29.45853 -43.00602,9.05673 -55.47916,-50.956164 -55.47916,-50.956164 l -13.63343,58.884834 -16.37302,-14.138384 -4.98495,21.143104 -11.42029,3.98582 -1.05286,3.3627 -10.3137,3.69575 -0.76236,2.80404 -11.36657,4.53373 -3.07262,13.13924 -18.758059,0 -63.450795,243.48946 228.760204,0 c 0,0 -1.67598,23.20585 45.06876,23.20585 46.66953,0 48.9364,-20.93898 48.9364,-20.93898 l 236.77482,0 -64.96562,-242.40438 z" style="fill:#8b723c"/>
  <g transform="matrix(10.743446,0,0,-10.743446,-7736.0765,4212.426)">
    <path d="m 736.793,385.352 c 0.027,-0.118 0.781,-2.903 3.652,-3.071 l 0,0 c 0.106,-0.004 0.211,-0.008 0.317,-0.008 l 0,0 c 0.691,0 1.422,0.122 2.136,0.243 l 0,0 c 0.692,0.117 1.348,0.226 1.973,0.226 l 0,0 c 1.914,0 2.938,-1.137 3.317,-3.742 l 0,0 c 0,0 -0.211,-18.93 -0.211,-18.973 l 0,0 -0.036,-0.761 0.387,-0.364 0,20.426 0.051,0.242 0.223,0.063 c 0.031,0.008 3.246,0.828 6.035,0.828 l 0,0 c 1.359,0 2.511,-0.297 3.543,-0.559 l 0,0 c 0.769,-0.195 1.437,-0.367 2.047,-0.367 l 0,0 c 0.269,0 0.503,0.035 0.722,0.098 l 0,0 c 0.512,0.156 1.086,0.371 1.707,0.64 l 0,0 0.317,0.133 0.089,-0.328 0.196,-0.683 0.086,-0.043 -0.028,0.082 -0.324,1.039 c -0.394,-0.196 -1.129,-0.524 -2.047,-0.805 l 0,0 c -0.218,-0.066 -0.457,-0.098 -0.718,-0.098 l 0,0 c -0.606,0 -1.274,0.168 -2.047,0.368 l 0,0 c -1.024,0.261 -2.184,0.558 -3.543,0.558 l 0,0 c -2.778,0 -6.008,-0.824 -6.043,-0.832 l 0,0 -0.266,-0.07 -0.09,0.258 c -0.922,2.55 -1.906,3.05 -3.293,3.05 l 0,0 c -0.867,0 -1.968,-0.218 -3.32,-0.5 l 0,0 c -0.297,-0.062 -0.586,-0.097 -0.867,-0.097 l 0,0 c -2.09,0 -3.317,1.679 -3.981,3.105 l 0,0 0.016,-0.058 z m -1.367,-3.461 -0.114,-0.489 0.016,-0.015 -0.039,-0.18 -2.453,-11.699 3.242,15.219 -0.652,-2.836 z m -1.656,0.789 0.339,-0.285 1.082,-0.895 0.11,-0.086 -0.367,0.316 -1.153,0.997 -0.011,-0.047 z m -0.442,-1.621 -0.078,-0.356 -4.523,-19.519 c 0.011,0 0.019,0 0.031,0 l 0,0 0.07,0.378 c 0.004,0.004 0.008,0.012 4.527,19.504 l 0,0 -0.027,-0.007 z m -3.723,-2.989 -1.515,0 -5.75,-22.066 20.906,0 0.316,0 -0.015,-0.316 c 0,-0.02 -0.016,-0.438 0.398,-0.872 l 0,0 c 0.422,-0.445 1.371,-0.972 3.493,-0.972 l 0,0 c 3.976,0 4.265,1.672 4.265,1.687 l 0,0 0.035,0.262 0.262,0 21.641,0 -5.883,21.969 -1.539,0.008 0.023,-0.094 5.235,-20.313 0.093,-0.375 -0.386,0 -19.383,0 c -0.004,-0.285 -0.071,-0.691 -0.379,-1.093 l 0,0 c -0.621,-0.813 -1.914,-1.223 -3.852,-1.223 l 0,0 c -1.867,0 -3.121,0.418 -3.742,1.238 l 0,0 c -0.351,0.473 -0.406,0.961 -0.398,1.289 l 0,0 -18.735,0 -0.386,0 0.097,0.375 5.282,20.496 -0.083,0 z m 5.364,-14.586 c -1.278,-0.25 -2.25,-0.285 -2.719,-0.285 l 0,0 c -0.266,0 -0.41,0.012 -0.41,0.012 l 0,0 -0.32,0.023 -0.04,-0.183 c 0.7,0 2.458,0.058 4.672,0.515 l 0,0 c 0.477,0.094 1.008,0.145 1.578,0.145 l 0,0 c 2.532,0 6.594,-1.043 9.715,-3.977 l 0,0 0.317,-0.296 -0.352,0.472 c -0.043,0.055 -0.191,0.176 -0.457,0.356 l 0,0 -0.109,0.082 c -0.535,0.422 -1.137,0.828 -1.836,1.238 l 0,0 c -2.383,1.402 -4.356,2.121 -6.223,2.258 l 0,0 c -0.215,0.015 -0.43,0.019 -0.64,0.019 l 0,0 c -1.083,0 -2.165,-0.183 -3.176,-0.379 m 15.304,-4.453 c 1.071,0.383 3.825,1.16 8.711,1.207 l 0,0 c -0.144,0 -0.289,0 -0.437,0 l 0,0 c -3.598,0 -6.367,-0.406 -8.274,-1.207 m -2.031,-0.902 -1.976,0.578 c 0.718,-0.328 1.351,-0.719 1.882,-1.168 l 0,0 c 0.164,0.07 0.434,0.184 0.813,0.313 l 0,0 -0.25,0.187 -0.172,-0.031 -0.211,-0.16 0,0.121 -0.512,-0.09 0.512,0.246 0,0.195 -0.234,0.176 -1.656,0.672 c -0.008,0 -0.126,0.051 -0.336,0.125 l 0,0 2.14,-1.164 z m 1.699,0.129 -0.714,-0.129 0.207,-0.125 c 0.492,0.144 1.117,0.308 1.871,0.457 l 0,0 c -0.844,-0.113 -1.352,-0.203 -1.364,-0.203" style="fill:url(#radialGradient2995)"/>
  </g>
</svg>
