<?xml version="1.0" encoding="UTF-8" standalone="no"?>
<svg xmlns="http://www.w3.org/2000/svg" version="1.1" width="600" height="429.72345">
  <radialGradient cx="0" cy="0" r="1" fx="0" fy="0" id="radialGradient470" gradientUnits="userSpaceOnUse" gradientTransform="matrix(21.295288,0,0,-21.295288,665.49316,369.62451)" spreadMethod="pad">
    <stop style="stop-color:#bf99c3" offset="0"/>
    <stop style="stop-color:#7b5190" offset="0.66291797"/>
    <stop style="stop-color:#612c75" offset="1"/>
  </radialGradient>
  <path d="m 525.92394,131.85022 -28.91062,0 c -0.4624,-0.21487 -16.53416,-8.05758 -16.53416,-8.05758 l -8.14353,-26.439624 -0.1719,0.0859 0,-0.043 -16.69532,9.185654 c -0.0859,0.043 -9.15341,4.9957 -21.99183,8.93854 -0.33262,0.086 -0.96691,0.21487 -2.13795,0.21487 -4.11474,0 -10.24924,-1.5578 -17.33992,-3.3627 -11.40954,-2.97593 -25.71981,-6.6287 -42.75892,-6.6287 -20.56295,0 -42.59776,3.73872 -56.27417,6.54276 -8.40137,-17.501084 -21.61581,-32.391494 -47.76536,-32.391494 -11.16244,0 -23.45295,2.42801 -39.61109,5.83369 -1.09583,0.20455 -2.22389,0.37645 -3.27675,0.46239 -5.19983,0.3756 -9.69059,-1.05285 -13.55823,-3.60979 -14.18135,-9.81951 -20.05801,-35.46412 -20.18694,-35.79717 l -0.043,0 c -0.0344,-0.17189 -6.78986,-22.12075 -8.8526,-41.5126705 -1.04211,-9.60465 -11.24839,-3.14783 -11.24839,-3.14783 -4.52299,19.6067905 -10.19553,44.2415105 -10.2385,44.3596905 l -0.0859,0 -7.75677,33.70219 -16.28706,-14.0202 -8.93855,37.816934 -10.61453,3.7817 -1.1388,3.39492 -10.74345,3.81393 -0.58014,2.14869 c -6.714658,2.38504 -12.086381,4.31886 -12.086381,4.31886 0,0 -2.266868,9.48647 -2.481737,10.36743 l -17.963042,0 L 0,406.5176 l 237.56983,0 c 1.26773,2.18092 2.85776,4.40481 4.90976,6.58573 10.24925,11.04427 27.57842,16.62012 51.46111,16.62012 35.29222,0 51.32144,-11.20542 58.54104,-20.93898 l 247.51826,0 -74.07606,-276.93382 z" style="fill:#ffffff"/>
  <path d="m 337.24753,373.91081 c 0,0 6.83283,24.9248 -41.84573,24.9248 -48.72152,0 -40.79286,-27.19167 -40.79286,-27.19167 l -204.963474,0 60.141814,-233.62698 5.6618,-2.01977 -59.174907,231.66094 c 0,0 47.002577,-9.99141 70.380317,-13.42931 23.42071,-3.48088 129.09325,-19.93984 174.41985,20.81005 0,0 30.54362,-15.81435 95.09025,-15.81435 64.54663,0 114.40696,11.29136 144.99355,7.88569 l -56.2312,-214.78298 7.92867,3.39493 56.24194,218.18865 -211.85002,0 z M 120.4018,130.92629 l 6.29566,-2.26687 -52.546192,222.42157 c 0,0 65.309412,-14.64332 118.607652,-13.97723 53.28749,0.6343 81.91878,16.24409 81.91878,16.24409 0,0 -44.19854,-13.01031 -89.06317,-11.03351 -44.85389,1.92307 -91.233353,10.81865 -121.776971,17.95229 L 120.4018,130.92629 z m 11.03352,-6.80061 6.92953,-2.51396 -49.602495,214.19209 c 0,0 38.354105,-4.31887 52.664375,-6.49979 14.90116,-2.26687 82.50967,-16.24409 142.98453,21.44392 0,0 -57.87495,-23.42071 -111.79631,-18.22088 -53.97507,5.21057 -76.052853,9.78728 -92.329174,13.01031 L 131.43532,124.12568 z m 17.25398,-17.50107 11.62441,9.64762 -41.75978,198.88267 c 0,0 23.13064,1.00989 54.77009,-5.50064 31.01633,-6.37087 83.26171,7.21959 118.51096,40.3309 0,0 -53.58831,-40.20198 -128.96433,-29.12549 -29.20069,4.24366 -65.67469,7.76751 -65.67469,7.76751 0.04297,-0.086 51.49334,-222.00257 51.49334,-222.00257 m 27.78255,-33.401374 c 0,0 8.47658,33.401374 42.17877,35.378164 33.69145,2.00903 71.6373,-25.730554 80.15686,32.01548 0,0 -2.30984,203.79243 -2.30984,203.8354 0,-1.29996 -6.09154,-5.25354 -6.92953,-5.96261 -6.33863,-4.95273 -13.12849,-9.44349 -20.10098,-13.51526 -20.69188,-12.20455 -43.9407,-22.948 -68.1994,-24.67769 -14.13838,-0.99914 -28.1156,1.18177 -41.92093,3.91061 -19.97207,3.8569 -32.73528,2.88999 -32.73528,2.88999 L 176.47185,73.223236 z M 306.73614,137.136 c 0.33262,-0.086 0.50451,-0.12892 0.50451,-0.12892 0.37645,-0.0859 34.70134,-8.8526 63.99871,-8.8526 14.22433,0 26.43963,3.14783 37.18307,5.87666 12.00043,3.10486 22.36786,5.74775 31.63945,2.88999 6.54276,-2.00903 13.18221,-4.60894 18.71509,-6.96175 l 60.85088,217.9308 c 0,0 -158.54104,-27.19166 -212.93511,13.55823 l 0.043,-224.31241 z m 171.1431,9.44349 56.4783,216.58787 c 0,0 -26.05286,0 -86.65664,-7.39149 -60.60378,-7.33777 -127.40653,4.57671 -127.40653,4.57671 0,0 59.46498,-28.91061 206.68242,-6.25268 l -58.7559,-212.05415 9.65835,4.53374 z m 36.88226,4.18994 -20.18694,-0.11775 -11.24839,-4.9957 -1.08509,-3.78169 -14.61108,-6.87581 -4.65192,-14.77224 c 0,0 -10.15255,5.6618 -24.89256,10.19553 -14.72927,4.53374 -36.25913,-9.06746 -66.84573,-9.06746 -30.55436,0 -65.67468,9.06746 -65.67468,9.06746 C 290.86807,89.628906 273.87194,91.895766 230.8122,100.96324 187.80619,110.01997 175.33305,50.007076 175.33305,50.007076 l -13.59046,58.884834 -16.41599,-14.138384 -4.98496,21.143104 -11.42028,3.98582 -1.05286,3.3627 -10.28148,3.69575 -0.79501,2.80404 -11.3236,4.53373 -3.1156,13.13924 -18.758053,0 -63.450795,243.48946 228.803178,0 c 0,0 -1.71895,23.20585 45.02579,23.20585 46.7125,0 48.97937,-20.93898 48.97937,-20.93898 l 236.73184,0 -64.92264,-242.40438 z" style="fill:#612c75"/>
  <g transform="matrix(10.743446,0,0,-10.743446,-6849.7851,4212.426)">
    <path d="m 654.297,385.352 c 0.027,-0.122 0.777,-2.903 3.648,-3.071 l 0,0 c 0.106,-0.004 0.211,-0.008 0.321,-0.008 l 0,0 c 0.699,0 1.425,0.122 2.132,0.243 l 0,0 c 0.692,0.117 1.348,0.226 1.973,0.226 l 0,0 c 1.914,0 2.938,-1.14 3.317,-3.742 l 0,0 c 0,0 -0.211,-18.918 -0.211,-18.973 l 0,0 -0.032,-0.757 0.379,-0.364 0,20.422 0.055,0.242 0.223,0.063 c 0.027,0.008 3.25,0.832 6.031,0.832 l 0,0 c 1.355,0 2.512,-0.293 3.539,-0.559 l 0,0 c 0.742,-0.191 1.445,-0.371 2.058,-0.371 l 0,0 c 0.266,0 0.504,0.031 0.719,0.098 l 0,0 c 0.508,0.156 1.067,0.363 1.711,0.64 l 0,0 0.317,0.133 0.089,-0.332 0.196,-0.683 0.082,-0.039 -0.024,0.082 -0.324,1.039 c -0.398,-0.192 -1.129,-0.524 -2.055,-0.805 l 0,0 c -0.214,-0.07 -0.449,-0.102 -0.711,-0.102 l 0,0 c -0.609,0 -1.277,0.172 -2.05,0.372 l 0,0 c -1.024,0.261 -2.18,0.558 -3.547,0.558 l 0,0 c -2.77,0 -6.004,-0.824 -6.039,-0.832 l 0,0 -0.262,-0.07 -0.094,0.258 c -0.926,2.562 -1.875,3.05 -3.293,3.05 l 0,0 c -0.867,0 -1.968,-0.218 -3.32,-0.504 l 0,0 c -0.297,-0.058 -0.586,-0.089 -0.863,-0.089 l 0,0 c -2.09,-0.004 -3.317,1.671 -3.981,3.093 l 0,0 0.016,-0.05 z m -1.371,-3.461 -0.114,-0.485 -0.374,0.324 -1.157,0.993 -0.011,-0.047 0.343,-0.281 1.078,-0.895 0.137,-0.113 -0.035,-0.18 -2.309,-11 3.09,14.496 -0.648,-2.812 z m -2.094,-0.832 -0.082,-0.356 -4.523,-19.519 c 0.011,0 0.019,0 0.031,0 l 0,0 0.074,0.378 c 0.004,0.004 0.004,0.016 4.523,19.504 l 0,0 -0.023,-0.007 z m -3.727,-2.989 -1.515,0 -5.75,-22.062 20.906,0 0.316,-0.004 -0.015,-0.316 c 0,-0.016 -0.016,-0.438 0.398,-0.872 l 0,0 c 0.422,-0.445 1.371,-0.972 3.496,-0.972 l 0,0 c 3.973,0 4.258,1.672 4.258,1.687 l 0,0 0.039,0.266 0.262,0 21.645,0 -5.883,21.965 -1.539,0.008 0.019,-0.098 5.235,-20.309 0.097,-0.375 -0.39,0 -19.383,0 c -0.004,-0.285 -0.074,-0.691 -0.379,-1.093 l 0,0 c -0.621,-0.813 -1.914,-1.227 -3.852,-1.227 l 0,0 c -1.863,0 -3.121,0.418 -3.742,1.242 l 0,0 c -0.348,0.469 -0.406,0.961 -0.394,1.285 l 0,0 -18.739,0 -0.386,0 0.097,0.379 5.282,20.496 -0.083,0 z m 5.364,-14.586 c -1.278,-0.25 -2.254,-0.285 -2.723,-0.285 l 0,0 c -0.266,0 -0.406,0.012 -0.406,0.012 l 0,0 -0.32,0.023 -0.036,-0.183 c 0.688,0 2.457,0.058 4.668,0.511 l 0,0 c 0.477,0.102 1.008,0.149 1.582,0.149 l 0,0 c 2.528,0 6.59,-1.039 9.711,-3.977 l 0,0 0.301,-0.281 -0.34,0.461 c -0.054,0.074 -0.344,0.277 -0.441,0.348 l 0,0 c -0.063,0.039 -0.11,0.074 -0.121,0.086 l 0,0 c -0.528,0.414 -1.125,0.816 -1.832,1.238 l 0,0 c -2.383,1.406 -4.364,2.121 -6.223,2.258 l 0,0 c -0.211,0.015 -0.426,0.019 -0.641,0.019 l 0,0 c -1.078,0 -2.164,-0.183 -3.179,-0.379 m 15.343,-4.441 c 1.09,0.387 3.836,1.148 8.672,1.195 l 0,0 c -0.144,0 -0.289,0 -0.437,0 l 0,0 c -3.57,0 -6.332,-0.402 -8.235,-1.195 m -2.074,-0.918 -1.965,0.582 c 0.715,-0.328 1.344,-0.719 1.875,-1.168 l 0,0 c 0.164,0.07 0.438,0.184 0.817,0.313 l 0,0 -0.25,0.187 -0.176,-0.031 -0.215,-0.16 0,0.121 -0.512,-0.09 0.512,0.25 0,0.199 -0.215,0.164 -1.671,0.676 c -0.004,0.004 -0.129,0.051 -0.34,0.129 l 0,0 2.14,-1.172 z m 1.707,0.133 -0.718,-0.129 0.207,-0.125 c 0.492,0.144 1.105,0.305 1.847,0.449 l 0,0 c -0.828,-0.109 -1.328,-0.195 -1.336,-0.195" style="fill:url(#radialGradient470)"/>
  </g>
</svg>
