<svg xmlns="http://www.w3.org/2000/svg" width="50.189102mm" height="34.760746mm" viewBox="0 0 50.189102 34.760746" version="1.1">
  <path d="m 7.14022,0 c 1.31586,0.6597 2.58939,1.75331 4.16631,1.51695 3.37255,-0.38806 6.82978,-1.9685 10.21291,-0.71261 1.82739,0.57855 2.99156,2.18369 3.90173,3.77472 1.97202,-2.10961 4.96005,-2.76578 7.747,-2.63878 3.27377,-0.0353 6.55813,1.26647 9.79663,0.30692 0.14112,0.5715 0.0917,1.23119 0.41275,1.73919 0.75848,0.45861 1.62278,0.71614 2.37067,1.20297 0.25047,0.47978 0.33161,1.02659 0.43039,1.55575 1.28058,8.128 2.59292,16.24895 3.92642,24.36636 0.13758,0.62089 0.22225,1.73214 -0.71614,1.64395 -4.9142,-0.38806 -9.85309,-1.06892 -14.79197,-0.59972 -2.08845,0.23636 -4.20864,0.68086 -6.03956,1.7533 -1.56281,0.93486 -3.48897,0.99484 -5.23875,0.68086 -1.49578,-0.37747 -2.73756,-1.40052 -4.24039,-1.778 C 14.12169,31.43956 8.93939,32.13806 3.89114,32.48378 2.59644,32.60372 1.29469,32.87889 0,32.63547 0.87489,25.28359 2.13783,17.97756 3.17147,10.64331 3.51014,8.83003 3.65831,6.97795 4.09928,5.18936 4.88244,4.64256 5.78908,4.32153 6.64986,3.92642 6.80861,2.61761 6.96736,1.30528 7.14022,0 M 15.1765,1.98614 C 12.87639,2.49061 10.27994,3.48192 8.06803,2.159 7.112,10.46692 6.23006,18.78895 5.19642,27.08981 c 6.42761,-1.42875 13.80419,-1.14653 19.21227,3.01978 0.0317,-7.78228 -0.0141,-15.56456 0.0176,-23.34684 0.13053,-1.76036 -0.93133,-3.429 -2.36008,-4.37797 -2.0567,-1.28764 -4.64256,-0.87842 -6.88975,-0.39864 m 10.69975,3.83117 c -0.0811,8.07155 0.0811,16.15722 0.0741,24.23583 5.41161,-4.02519 12.69647,-4.38855 19.07822,-2.95628 C 44.03017,19.31106 42.9789,11.53231 42.05109,3.73945 38.24815,4.09928 34.50165,2.68817 30.70223,3.2385 c -1.8415,0.23989 -3.70064,1.05128 -4.826,2.57881 M 5.18229,6.58284 c -1.0407,7.95513 -2.06728,15.9138 -3.15031,23.86188 5.2705,-1.53458 10.89025,-2.3883 16.33714,-1.35113 2.0708,0.49388 4.26861,1.09713 5.85964,2.58586 C 23.8654,30.80809 22.77531,30.48353 22.03095,29.98611 16.30184,27.2415 9.63081,27.6225 3.55245,28.79372 4.51201,21.20195 5.5139,13.6137 6.45581,6.01839 6.02895,6.20536 5.60562,6.39234 5.18229,6.58284 M 43.55392,6.02898 c 0.99484,7.60588 2.1202,15.19766 3.19264,22.79649 -4.08164,-1.00541 -8.3573,-1.3723 -12.53066,-0.76552 -2.90689,0.44097 -5.84906,1.41464 -8.0892,3.37961 1.84856,-1.17122 3.86645,-2.09903 6.02545,-2.51531 5.39044,-1.06186 11.00313,-0.15875 16.12547,1.67922 C 47.12051,22.62717 46.03395,14.64028 44.82745,6.6675 44.40059,6.45231 43.97726,6.23711 43.55392,6.02898 Z"/>
</svg>
