<?xml version="1.0" encoding="UTF-8" standalone="no"?>
<svg xmlns="http://www.w3.org/2000/svg" xmlns:xlink="http://www.w3.org/1999/xlink" version="1.1" width="600" height="751.83258">
  <linearGradient x1="0" y1="0" x2="1" y2="0" id="linearGradient330" gradientUnits="userSpaceOnUse" gradientTransform="matrix(27.685547,0,0,-27.685547,482.4209,484.03857)" spreadMethod="pad">
    <stop style="stop-color:#bf331c" offset="0"/>
    <stop style="stop-color:#d3641c" offset="0.3"/>
    <stop style="stop-color:#f6b91d" offset="0.5"/>
    <stop style="stop-color:#d3641c" offset="0.7"/>
    <stop style="stop-color:#bf331c" offset="1"/>
  </linearGradient>
  <linearGradient x1="0" y1="0" x2="1" y2="0" id="linearGradient3011" xlink:href="#linearGradient330" gradientUnits="userSpaceOnUse" gradientTransform="matrix(27.685547,0,0,-27.685547,482.4209,484.03857)" spreadMethod="pad"/>
  <linearGradient x1="0" y1="0" x2="1" y2="0" id="linearGradient3014" xlink:href="#linearGradient330" gradientUnits="userSpaceOnUse" gradientTransform="matrix(520.37242,0,0,520.37242,39.770065,369.98446)" spreadMethod="pad"/>
  <path d="M 300,751.83259 0,301.84199 300,0 600,301.84199 300,751.83259 z" style="fill:#ffffff"/>
  <path d="M 300,734.95395 12.029321,303.00733 299.92482,13.36382 587.8767,303.00733 300,734.95395 z"/>
  <path d="M 300,43.98175 39.79074,305.73227 300,696.04616 560.11528,305.73227 300,43.98175 z M 300,640.46694 247.63486,397.73778 95.294781,313.6641 247.63486,299.41688 300,82.02448 352.34634,299.41688 504.61124,313.6641 352.34634,397.73778 300,640.46694 z" style="fill:url(#linearGradient3014)"/>
</svg>
