<?xml version="1.0" encoding="UTF-8" standalone="no"?>
<svg xmlns="http://www.w3.org/2000/svg" viewBox="0 0 156.08984 137.94926" height="137.94926" width="156.08984" version="1.1">
  <path d="M 50.845702,6.2500465 C 42.637172,6.2654365 33.719642,10.68017 29.482422,14.017625 23.025712,19.103275 6.25,28.586335 6.25,62.806685 c 0,34.22035 34.495712,68.892575 71.794922,68.892575 37.299208,0 71.794918,-34.672225 71.794918,-68.892575 0,-34.22035 -16.77571,-43.70341 -23.23242,-48.78906 -4.23722,-3.337455 -13.15475,-7.7521885 -21.36328,-7.7675785 -4.29971,-0.0081 -8.404218,1.191444 -11.539058,4.3847665 -8.95951,9.126642 -3.18141,19.742902 5.62304,28.767582 0.812428,2.2376 -3.31097,6.61808 -7.20508,5.30468 -4.12821,-1.39236 -2.38877,-5.68884 -1.58203,-5.5039 -0.18256,1.74462 0.50142,2.96686 2.64649,2.80273 2.14508,-0.16413 3.13756,-4.88761 0.4707,-7.01172 -2.66687,-2.12411 -6.20521,-2.37023 -9.01953,-0.14453 -2.81433,2.2257 -2.61012,7.81664 -0.74219,10.56641 1.86793,2.74977 4.96351,6.49724 10.3086,6.71484 4.21872,0.17175 8.393388,-4.15412 10.662108,-6.89258 6.25574,7.07441 9.85529,13.8834 5.6582,22.08789 -5.2404,10.24396 -10.610928,6.14667 -11.466798,3.86133 -0.85587,-2.28534 0.82821,-4.36079 3.515628,-5.46094 -0.41011,2.13819 -0.67824,4.08794 1.73242,4.17774 2.41067,0.0898 5.56227,-5.66572 0.29687,-10.2793 -5.265408,-4.61358 -17.254038,1.24019 -17.019528,11.2793 0.2218,9.4949 8.12391,19.81261 22.562498,12.5332 10.76537,-5.4275 13.20122,-21.0029 9.25586,-32.55859 1.8528,0.14572 4.09775,-0.71234 6.20508,-3.29883 3.29853,-4.04852 0.8125,-11.375 -1.53125,-13.625 -2.34375,-2.25 -5.64227,-3.86102 -8.46875,-2.375 -2.82648,1.48602 -1.5,6.56255 0.0625,6.65625 1.5625,0.0937 2.29852,-0.76727 2.5,-2.34375 1.88888,1.86102 2.375,4.125 0.0937,5.625 -1.64996,1.08491 -2.71147,1.25821 -4.46289,0.0586 -0.19381,-0.1889 -0.38501,-0.38238 -0.58594,-0.56054 -10.83277,-9.60529 -17.722428,-21.77173 -3.47656,-22.36133 14.24587,-0.5896 27.06567,19.23565 26.48047,34.98242 -0.5852,15.74678 -8.27065,27.76351 -21.14453,37.47852 -12.87387,9.714995 -24.890328,14.220695 -37.029298,14.220695 -12.13897,0 -24.15543,-4.5057 -37.0293,-14.220695 -12.87387,-9.71501 -20.559326,-21.73174 -21.144528,-37.47852 -0.585203,-15.74677 12.234598,-35.57202 26.480468,-34.98242 14.24587,0.5896 7.35621,12.75604 -3.47656,22.36133 -0.20093,0.17816 -0.39213,0.37164 -0.58594,0.56054 -1.75142,1.19962 -2.81293,1.02632 -4.46289,-0.0586 -2.28125,-1.5 -1.79513,-3.76398 0.0937,-5.625 0.20148,1.57648 0.9375,2.4375 2.5,2.34375 1.5625,-0.0937 2.88898,-5.17023 0.0625,-6.65625 -2.82648,-1.48602 -6.125,0.125 -8.46875,2.375 -2.34375,2.25 -4.829774,9.57648 -1.53125,13.625 2.10733,2.58649 4.35228,3.44455 6.20508,3.29883 -3.94536,11.55569 -1.50951,27.13109 9.25586,32.55859 14.43859,7.27941 22.3407,-3.0383 22.5625,-12.5332 0.23451,-10.03911 -11.75412,-15.89288 -17.01953,-11.2793 -5.2654,4.61358 -2.1138,10.3691 0.29687,10.2793 2.41066,-0.0898 2.14253,-2.03955 1.73242,-4.17774 2.68742,1.10015 4.3715,3.1756 3.51563,5.46094 -0.85587,2.28534 -6.2264,6.38263 -11.4668,-3.86133 -4.19709,-8.20449 -0.59754,-15.01348 5.6582,-22.08789 2.26872,2.73846 6.44339,7.06433 10.66211,6.89258 5.34509,-0.2176 8.44067,-3.96507 10.3086,-6.71484 1.86793,-2.74977 2.07214,-8.34071 -0.74219,-10.56641 -2.81432,-2.2257 -6.35266,-1.97958 -9.01953,0.14453 -2.66686,2.12411 -1.67438,6.84759 0.4707,7.01172 2.14507,0.16413 2.82905,-1.05811 2.64649,-2.80273 0.80674,-0.18494 2.54618,4.11154 -1.58203,5.5039 -3.89411,1.3134 -8.01751,-3.06708 -7.20508,-5.30468 8.80445,-9.02468 14.58255,-19.64094 5.62304,-28.767582 -3.13484,-3.1933225 -7.23935,-4.3928295 -11.53906,-4.3847665 z"/>
</svg>
