<?xml version="1.0" encoding="UTF-8" standalone="no"?>
<svg xmlns="http://www.w3.org/2000/svg" version="1.1" width="600" height="818.74939">
  <path d="m 353.08484,196.68406 0,0 c -0.55183,5.36281 -0.96121,10.56187 -0.96121,15.59718 0,53.4848 15.76093,92.27305 27.18248,120.58131 1.67844,4.15516 3.21359,7.90093 4.6464,11.50343 3.6025,9.35421 8.86296,23.27295 14.4714,38.78825 6.46812,-15.12639 10.78702,-29.02466 10.78702,-38.78825 0,-46.77106 -56.12527,-147.68192 -56.12527,-147.68192 m 153.1266,33.9167 C 566.24706,277.12619 600,337.89786 600,411.21687 c 0,82.03868 -29.18841,137.28379 -50.45543,177.66861 -5.19906,9.82499 -9.68171,18.38092 -12.95671,25.81107 -2.39484,5.44468 -5.03531,11.68765 -8.00327,18.40139 -26.13858,61.32433 -52.21574,118.4935 -82.42759,145.51223 -44.847,40.13919 -94.11524,40.13919 -110.34695,40.13919 -11.50343,0 -30.3756,-0.40937 -50.45543,-0.7991 -19.73186,-0.49125 -40.11872,-0.87934 -52.19527,-0.87934 -34.71497,0 -68.77495,-21.26701 -93.48071,-58.37683 -9.51796,-14.22577 -14.63514,-27.73513 -19.09733,-39.56606 -4.72828,-12.54733 -8.47405,-22.31092 -16.94811,-33.50732 -1.20847,-1.51468 -2.55859,-3.19312 -4.011872,-5.0353 C 72.356975,645.39965 0,551.85754 0,450.31215 0,300.86992 101.87289,232.91372 101.87289,232.91372 c 7.81906,39.64794 20.55061,71.08792 20.55061,71.08792 C 124.90021,207.71671 167.27049,134.25443 245.70668,80.11462 341.97114,13.67311 442.80012,0 442.80012,0 c -71.80432,94.74977 -84.8429,171.01627 -84.8429,171.01627 0,0 89.79634,14.32812 148.25504,59.58449" style="fill:#ffffff"/>
  <path d="m 405.93511,220.36639 c 0,0 39.09529,74.99744 39.09529,123.99959 0,48.85887 -57.00543,130.4063 -57.00543,130.4063 -3.275,-26.13857 -26.0567,-88.09743 -37.49872,-117.44959 -11.44202,-29.27029 -34.22372,-76.594 -34.22372,-145.04145 0,-68.44745 47.2623,-148.39832 47.2623,-148.39832 -167.90502,55.40886 -205.40374,158.16191 -205.40374,249.47293 0,91.22915 66.83042,213.5503 66.83042,213.5503 C 202.2098,500.76758 166.30765,461.6723 136.95548,422.55654 107.62378,383.46126 84.760209,303.59226 84.760209,303.59226 c 0,0 -48.858868,52.13387 -48.858868,146.63801 0,94.58602 74.997439,185.89705 96.182579,213.57077 21.18514,27.81701 21.18514,50.59871 37.49872,74.99745 16.23171,24.46013 39.09528,42.37027 63.57589,42.37027 0.88097,0 1.84219,0 2.70187,0.0819 L 163.03265,561.1299 303.20254,587.26848 216.84495,292.15027 428.71682,668.7545 269.06069,645.89093 l 66.19589,136.9563 0.55183,0 c 22.86358,0 55.40887,-3.275 86.43947,-30.94873 31.0306,-27.73513 63.55542,-110.8996 81.46556,-151.59144 17.99201,-40.85559 60.38276,-96.26446 60.38276,-189.17204 0,-149.99488 -158.1619,-190.76861 -158.1619,-190.76861"/>
</svg>
