<?xml version="1.0" encoding="UTF-8" standalone="no"?>
<svg xmlns="http://www.w3.org/2000/svg" xmlns:xlink="http://www.w3.org/1999/xlink" version="1.1" width="600" height="818.74939">
  <linearGradient x1="0" y1="0" x2="1" y2="0" id="linearGradient506" gradientUnits="userSpaceOnUse" gradientTransform="matrix(25.109711,-4.427521,-4.427521,-25.109711,415.96289,152.85547)" spreadMethod="pad">
    <stop style="stop-color:#8b723c" offset="0"/>
    <stop style="stop-color:#d2bb7b" offset="0.3"/>
    <stop style="stop-color:#ebd491" offset="0.5"/>
    <stop style="stop-color:#d2bb7b" offset="0.7"/>
    <stop style="stop-color:#8b723c" offset="1"/>
  </linearGradient>
  <linearGradient x1="0" y1="0" x2="1" y2="0" id="linearGradient2995" xlink:href="#linearGradient506" gradientUnits="userSpaceOnUse" gradientTransform="matrix(25.109711,-4.427521,-4.427521,-25.109711,415.96289,152.85547)" spreadMethod="pad"/>
  <linearGradient x1="0" y1="0" x2="1" y2="0" id="linearGradient2998" xlink:href="#linearGradient506" gradientUnits="userSpaceOnUse" gradientTransform="matrix(513.964,90.625749,-90.625749,513.964,44.495957,378.19119)" spreadMethod="pad"/>
  <path d="m 353.08484,196.68406 0,0 c -0.55183,5.36281 -0.96121,10.56187 -0.96121,15.59718 0,53.4848 15.76093,92.27305 27.18248,120.58131 1.67844,4.15516 3.21359,7.90093 4.6464,11.50343 3.6025,9.35421 8.86296,23.27295 14.4714,38.78825 6.46812,-15.12639 10.78702,-29.02466 10.78702,-38.78825 0,-46.77106 -56.12527,-147.68192 -56.12527,-147.68192 m 153.1266,33.9167 C 566.24706,277.12619 600,337.89786 600,411.21687 c 0,82.03868 -29.18841,137.28379 -50.45543,177.66861 -5.19906,9.82499 -9.68171,18.38092 -12.95671,25.81107 -2.39484,5.44468 -5.03531,11.68765 -8.00327,18.40139 -26.13858,61.32433 -52.21574,118.4935 -82.42759,145.51223 -44.847,40.13919 -94.11524,40.13919 -110.34695,40.13919 -11.50343,0 -30.3756,-0.40937 -50.45543,-0.7991 -19.73186,-0.49125 -40.11872,-0.87934 -52.19527,-0.87934 -34.71497,0 -68.77495,-21.26701 -93.48071,-58.37683 -9.51796,-14.22577 -14.63514,-27.73513 -19.09733,-39.56606 -4.72828,-12.54733 -8.47405,-22.31092 -16.94811,-33.50732 -1.20684,-1.51468 -2.55859,-3.19312 -4.011872,-5.0353 C 72.356975,645.39965 0,551.85754 0,450.31215 0,300.86992 101.87289,232.91372 101.87289,232.91372 c 7.81906,39.64794 20.55061,71.08792 20.55061,71.08792 C 124.90021,207.71671 167.27049,134.25443 245.70668,80.11462 341.97114,13.67311 442.80012,0 442.80012,0 c -71.80432,94.74977 -84.8429,171.01627 -84.8429,171.01627 0,0 89.79634,14.32812 148.25504,59.58449"/>
  <path d="m 158.16109,313.35585 c 0,91.31102 66.83042,213.5503 66.83042,213.5503 l 0,0 C 202.12793,500.76758 166.30765,461.75417 136.95548,422.55654 l 0,0 C 107.62378,383.37939 84.760209,303.51039 84.760209,303.51039 l 0,0 c 0,0 -48.858868,52.21574 -48.858868,146.71988 l 0,0 c 0,94.58602 74.915569,185.89705 96.182579,213.57077 l 0,0 c 21.18514,27.73514 21.18514,50.51684 37.49872,74.99745 l 0,0 c 16.31358,24.54201 39.09528,42.45215 63.57589,42.45215 l 0,0 2.78375,0 0,0 -72.90963,-220.12077 140.16989,26.0567 -86.35759,-295.03633 211.87187,376.60424 -159.73801,-22.7817 66.27777,136.87442 0.55265,0 c 22.86358,0 55.49074,-3.19312 86.43947,-31.0306 l 0,0 c 30.94872,-27.65326 63.55541,-110.81773 81.54743,-151.59144 l 0,0 c 17.91014,-40.69185 60.30089,-96.10071 60.30089,-189.00829 l 0,0 c 0,-149.99489 -158.16191,-190.76861 -158.16191,-190.76861 l 0,0 c 0,0 39.09529,74.91557 39.09529,123.83585 l 0,0 c 0,48.94074 -57.00543,130.4063 -57.00543,130.4063 l 0,0 c -3.275,-26.0567 -26.0567,-87.95415 -37.49872,-117.28585 l 0,0 C 339.08423,327.97052 316.30253,280.72869 316.30253,212.28124 l 0,0 c 0,-68.52932 47.2623,-148.39832 47.2623,-148.39832 l 0,0 C 195.65981,119.29178 158.16109,222.04483 158.16109,313.35585" style="fill:url(#linearGradient2998)"/>
</svg>
