<?xml version="1.0" encoding="UTF-8" standalone="no"?>
<svg xmlns="http://www.w3.org/2000/svg" xmlns:xlink="http://www.w3.org/1999/xlink" version="1.1" width="600" height="818.74939">
  <linearGradient x1="0" y1="0" x2="1" y2="0" id="linearGradient488" gradientUnits="userSpaceOnUse" gradientTransform="matrix(25.108749,-4.427353,-4.427353,-25.108749,348.96387,152.85449)" spreadMethod="pad">
    <stop style="stop-color:#536e78" offset="0"/>
    <stop style="stop-color:#99aebc" offset="0.3"/>
    <stop style="stop-color:#d9eaf3" offset="0.5"/>
    <stop style="stop-color:#99aebc" offset="0.7"/>
    <stop style="stop-color:#536e78" offset="1"/>
  </linearGradient>
  <linearGradient x1="0" y1="0" x2="1" y2="0" id="linearGradient2995" xlink:href="#linearGradient488" gradientUnits="userSpaceOnUse" gradientTransform="matrix(25.108749,-4.427353,-4.427353,-25.108749,348.96387,152.85449)" spreadMethod="pad"/>
  <linearGradient x1="0" y1="0" x2="1" y2="0" id="linearGradient2998" xlink:href="#linearGradient488" gradientUnits="userSpaceOnUse" gradientTransform="matrix(513.9443,90.62231,-90.62231,513.9443,44.517654,378.21125)" spreadMethod="pad"/>
  <path d="m 353.08648,196.68406 0,0 c -0.55184,5.36281 -0.96285,10.56187 -0.96285,15.59718 0,53.4848 15.76093,92.27305 27.18248,120.58131 1.67844,4.15516 3.21359,7.90093 4.6464,11.50343 3.6025,9.35421 8.86296,23.27295 14.4714,38.78825 6.46812,-15.12639 10.78702,-29.02466 10.78702,-38.78825 0,-46.77106 -56.12527,-147.68192 -56.12527,-147.68192 m 153.1266,33.9167 C 566.24706,277.12619 600,337.89786 600,411.21687 c 0,82.03868 -29.18841,137.28379 -50.45543,177.66861 -5.19906,9.82499 -9.68171,18.38092 -12.95671,25.81107 -2.39484,5.44468 -5.03531,11.68765 -8.00327,18.40139 -26.13858,61.32433 -52.21574,118.4935 -82.42759,145.51223 -44.847,40.13919 -94.11524,40.13919 -110.34695,40.13919 -11.50343,0 -30.3756,-0.40937 -50.45543,-0.7991 -19.73186,-0.49125 -40.11872,-0.87934 -52.19527,-0.87934 -34.71497,0 -68.77495,-21.26701 -93.48071,-58.37683 -9.51796,-14.22577 -14.63514,-27.73513 -19.09733,-39.56606 -4.72828,-12.54733 -8.47405,-22.31092 -16.94811,-33.50732 -1.20847,-1.51468 -2.55859,-3.19312 -4.011872,-5.0353 C 72.356975,645.39965 0,551.85754 0,450.31215 0,300.86992 101.87289,232.91372 101.87289,232.91372 c 7.81906,39.64794 20.55061,71.08792 20.55061,71.08792 C 124.90021,207.71671 167.27049,134.25443 245.70668,80.11462 341.97114,13.67311 442.80012,0 442.80012,0 c -71.80432,94.74977 -84.8429,171.01627 -84.8429,171.01627 0,0 89.79634,14.32812 148.25504,59.58449"/>
  <path d="m 158.16273,313.35585 c 0,91.31102 66.83041,213.5503 66.83041,213.5503 l 0,0 C 202.12957,500.76758 166.30928,461.75417 136.95712,422.55654 l 0,0 C 107.62542,383.37939 84.761846,303.51039 84.761846,303.51039 l 0,0 c 0,0 -48.858868,52.21574 -48.858868,146.71988 l 0,0 c 0,94.58602 74.915562,185.89705 96.182582,213.57077 l 0,0 c 21.18514,27.73514 21.18514,50.51684 37.49872,74.99745 l 0,0 c 16.23171,24.54201 39.09528,42.45215 63.57589,42.45215 l 0,0 2.70187,0 0,0 -72.82775,-220.12077 140.23129,26.0567 -86.41899,-295.03633 211.87186,376.60424 -159.65612,-22.7817 66.19588,136.87442 0.55266,0 c 22.86357,0 55.40886,-3.19312 86.43946,-31.0306 l 0,0 c 31.0306,-27.65326 63.55542,-110.81773 81.46556,-151.59144 l 0,0 c 17.99202,-40.69185 60.38277,-96.10071 60.38277,-189.00829 l 0,0 c 0,-149.99489 -158.16191,-190.76861 -158.16191,-190.76861 l 0,0 c 0,0 39.09528,74.91557 39.09528,123.83585 l 0,0 c 0,48.94074 -57.00542,130.4063 -57.00542,130.4063 l 0,0 c -3.275,-26.0567 -26.13857,-87.95415 -37.49872,-117.28585 l 0,0 C 339.08587,327.97052 316.30417,280.72869 316.30417,212.28124 l 0,0 c 0,-68.52932 47.2623,-148.39832 47.2623,-148.39832 l 0,0 C 195.66145,119.29178 158.16273,222.04483 158.16273,313.35585" style="fill:url(#linearGradient2998)"/>
</svg>
