<?xml version="1.0" encoding="UTF-8" standalone="no"?>
<svg xmlns="http://www.w3.org/2000/svg" version="1.1" width="600" height="818.74939">
  <path d="m 405.93511,220.36639 c 0,0 39.09529,74.99744 39.09529,123.99959 0,48.85887 -57.00543,130.4063 -57.00543,130.4063 -3.275,-26.13857 -26.0567,-88.09743 -37.49872,-117.44959 -11.44202,-29.27029 -34.22372,-76.594 -34.22372,-145.04145 0,-68.44745 47.2623,-148.39832 47.2623,-148.39832 -167.90502,55.40886 -205.40374,158.16191 -205.40374,249.47293 0,91.22915 66.83042,213.5503 66.83042,213.5503 C 202.2098,500.76758 166.30765,461.6723 136.95548,422.55654 107.62378,383.46126 84.760209,303.59226 84.760209,303.59226 c 0,0 -48.858868,52.13387 -48.858868,146.63801 0,94.58602 74.997439,185.89705 96.182579,213.57077 21.18514,27.81701 21.18514,50.59871 37.49872,74.99745 16.23171,24.46013 39.09528,42.37027 63.57589,42.37027 0.88097,0 1.84219,0 2.70187,0.0819 L 163.03265,561.1299 303.20254,587.26848 216.84495,292.15027 428.71682,668.7545 269.06069,645.89093 l 66.19589,136.9563 0.55183,0 c 22.86358,0 55.40887,-3.275 86.43947,-30.94873 31.0306,-27.73513 63.55542,-110.8996 81.46556,-151.59144 17.99201,-40.85559 60.38276,-96.26446 60.38276,-189.17204 0,-149.99488 -158.1619,-190.76861 -158.1619,-190.76861"/>
</svg>
