<?xml version="1.0" encoding="UTF-8" standalone="no"?>
<svg
   width="143pt"
   height="200pt"
   viewBox="0 0 143 200"
   version="1.1"
   id="svg17"
   sodipodi:docname="T.svg"
   inkscape:version="1.1.1 (3bf5ae0d25, 2021-09-20)"
   xmlns:inkscape="http://www.inkscape.org/namespaces/inkscape"
   xmlns:sodipodi="http://sodipodi.sourceforge.net/DTD/sodipodi-0.dtd"
   xmlns="http://www.w3.org/2000/svg"
   xmlns:svg="http://www.w3.org/2000/svg">
  <defs
     id="defs21" />
  <sodipodi:namedview
     id="namedview19"
     pagecolor="#ffffff"
     bordercolor="#666666"
     borderopacity="1.0"
     inkscape:pageshadow="2"
     inkscape:pageopacity="0.0"
     inkscape:pagecheckerboard="0"
     inkscape:document-units="pt"
     showgrid="false"
     inkscape:zoom="2.6963"
     inkscape:cx="95.318"
     inkscape:cy="133.15"
     inkscape:window-width="1920"
     inkscape:window-height="986"
     inkscape:window-x="-11"
     inkscape:window-y="-11"
     inkscape:window-maximized="1"
     inkscape:current-layer="g15" />
  <g
     id="g15">
    <polygon
       fill="url(#radialGradient856)"
       points="10,190 10,9 134,9 134,190 "
       id="polygon2" />
    <radialGradient
       cx="0"
       cy="0"
       r="1"
       fx="0"
       fy="0"
       id="radialGradient856"
       gradientUnits="userSpaceOnUse"
       gradientTransform="matrix(71.5,0,0,-71.5,71.5,100)"
       spreadMethod="pad">
      <stop
         style="stop-color:#bf99c3"
         offset="0"
         id="stop4" />
      <stop
         style="stop-color:#7b5190"
         offset="0.7"
         id="stop6" />
      <stop
         style="stop-color:#612c75"
         offset="1"
         id="stop8" />
    </radialGradient>
    <path
       d="M 0,0 H 143 V 200 H 0 V 0 m 10.02,9.02 c -0.03,60.32 -0.03,120.64 0,180.96 41.32,0 82.64,0 123.96,0 0,-60.32 0,-120.64 0,-180.96 C 92.66,8.99 51.34,8.98 10.02,9.02 Z"
       id="path11"
       style="fill:#ffffff;fill-opacity:1" />
    <path
       d="m 84.78,35.76 c 4.96,-3.88 9.65,-9.09 16.15,-10.07 1.42,5.99 1.22,12.19 1.33,18.31 -0.33,14 -0.58,28.01 -0.57,42.02 0.13,3.78 -0.81,7.93 0.84,11.46 8.08,2.65 16.98,-1.01 25.07,1.85 1.83,0.65 2.3,2.86 2.03,4.57 -0.57,4.23 -2.65,8.02 -4.68,11.7 -7.61,-1.26 -15.15,-3.3 -22.91,-3.36 -1.34,16.2 0.22,32.52 -0.85,48.75 -0.22,5.66 -4.51,10.49 -9.41,12.86 -3.73,1.81 -6.31,-2.72 -6.42,-5.87 -0.32,-17.34 -0.29,-34.7 -1.27,-52.03 -0.33,-1.69 0.08,-4.24 -1.89,-5.02 -2.96,-1.11 -6.16,-1.27 -9.27,-1.5 -16.31,-0.83 -32.65,-0.34 -48.97,-0.1 -3.66,0.19 -7.35,0.11 -10.98,-0.45 0.78,-2.87 2.34,-5.42 4.49,-7.46 C 39.23,78.88 61.88,57.18 84.78,35.76 M 62.42,65.43 c -9.68,10.3 -20.06,19.95 -29.52,30.45 5.98,1.11 12.08,1.09 18.13,1.3 10.92,0.03 21.96,0.48 32.76,-1.34 0.64,-2.21 1.2,-4.46 1.22,-6.77 C 85.14,73.92 84.79,58.78 84.64,43.64 76.56,50.16 69.98,58.32 62.42,65.43 Z"
       id="path13"
       style="fill:#ffffff;fill-opacity:1" />
  </g>
</svg>
