<?xml version="1.0" encoding="UTF-8"?>
<svg xmlns="http://www.w3.org/2000/svg" width="200pt" height="190pt" viewBox="0 0 200 190">
  <g>
    <path fill="#ffffff" stroke="#ffffff" stroke-width="0.09375" d=" M 0.63 75.52 C 20.70 51.62 40.77 27.72 60.83 3.81 C 56.20 24.50 51.54 45.18 46.91 65.88 C 57.82 69.79 68.75 73.70 79.67 77.61 C 86.46 97.04 93.21 116.48 100.00 135.90 C 106.79 116.47 113.53 97.03 120.34 77.61 C 131.27 73.73 142.18 69.80 153.10 65.91 C 148.47 45.19 143.79 24.49 139.17 3.77 C 159.21 27.71 179.33 51.58 199.37 75.52 C 182.36 83.81 165.36 92.12 148.32 100.33 C 145.74 120.23 143.22 140.13 140.67 160.03 C 127.16 169.57 113.56 178.99 100.01 188.47 C 86.45 178.98 72.90 169.50 59.33 160.04 C 56.79 140.14 54.24 120.23 51.69 100.33 C 34.68 92.04 17.66 83.78 0.63 75.52 M 10.18 73.49 C 25.86 81.12 41.59 88.67 57.24 96.38 C 59.81 116.47 62.36 136.57 64.97 156.65 C 76.64 164.82 88.33 172.97 100.02 181.13 C 111.72 173.02 123.38 164.84 135.04 156.67 C 137.64 136.57 140.17 116.46 142.77 96.37 C 158.48 88.78 174.15 81.11 189.83 73.48 C 176.70 57.83 163.57 42.17 150.42 26.53 C 153.64 40.95 156.90 55.35 160.11 69.77 C 148.42 73.92 136.74 78.14 125.06 82.31 C 116.67 106.23 108.37 130.19 100.00 154.12 C 91.63 130.18 83.32 106.22 74.94 82.28 C 63.25 78.12 51.58 73.92 39.90 69.74 C 43.10 55.34 46.36 40.94 49.58 26.54 C 36.45 42.20 23.30 57.83 10.18 73.49 Z"/>
    <path fill="#ffffff" stroke="#ffffff" stroke-width="0.09375" d=" M 95.39 26.57 C 100.95 25.03 107.14 25.89 112.02 28.99 C 118.14 32.75 122.02 39.86 121.83 47.05 C 121.76 54.18 117.72 61.10 111.54 64.66 C 105.19 68.49 96.78 68.49 90.43 64.68 C 83.27 60.61 79.08 52.03 80.30 43.88 C 81.28 35.78 87.51 28.67 95.39 26.57 M 96.37 32.54 C 89.27 34.69 84.68 42.66 86.45 49.88 C 87.95 57.60 96.30 63.05 103.98 61.24 C 111.97 59.81 117.55 51.06 115.43 43.21 C 113.69 35.02 104.28 29.71 96.37 32.54 Z"/>
  </g>
  <g>
    <path stroke="#000000" stroke-width="0.09375" d=" M 10.18 73.49 C 23.30 57.83 36.45 42.20 49.58 26.54 C 46.36 40.94 43.10 55.34 39.90 69.74 C 51.58 73.92 63.25 78.12 74.94 82.28 C 83.32 106.22 91.63 130.18 100.00 154.12 C 108.37 130.19 116.67 106.23 125.06 82.31 C 136.74 78.14 148.42 73.92 160.11 69.77 C 156.90 55.35 153.64 40.95 150.42 26.53 C 163.57 42.17 176.70 57.83 189.83 73.48 C 174.15 81.11 158.48 88.78 142.77 96.37 C 140.17 116.46 137.64 136.57 135.04 156.67 C 123.38 164.84 111.72 173.02 100.02 181.13 C 88.33 172.97 76.64 164.82 64.97 156.65 C 62.36 136.57 59.81 116.47 57.24 96.38 C 41.59 88.67 25.86 81.12 10.18 73.49 Z"/>
    <path stroke="#000000" stroke-width="0.09375" d=" M 96.37 32.54 C 104.28 29.71 113.69 35.02 115.43 43.21 C 117.55 51.06 111.97 59.81 103.98 61.24 C 96.30 63.05 87.95 57.60 86.45 49.88 C 84.68 42.66 89.27 34.69 96.37 32.54 Z"/>
  </g>
</svg>
