<?xml version="1.0" encoding="UTF-8" standalone="no"?>
<svg xmlns="http://www.w3.org/2000/svg" xmlns:xlink="http://www.w3.org/1999/xlink" version="1.1" viewBox="0 0 26.458333 25.135419" height="95" width="100">
  <linearGradient id="SpecialGradient-0">
    <stop style="stop-color:#bf331c" offset="0"/>
    <stop style="stop-color:#d3641c" offset="0.3"/>
    <stop style="stop-color:#f6b91d" offset="0.5"/>
    <stop style="stop-color:#d3641c" offset="0.7"/>
    <stop style="stop-color:#bf331c" offset="1"/>
  </linearGradient>
  <linearGradient gradientUnits="userSpaceOnUse" y2="23.839092" x2="27.174629" y1="13.276038" x1="-1.9932064" id="linearGradient8509" xlink:href="#SpecialGradient-0"/>
  <g transform="translate(0,-1.3229167)" id="layer3">
    <g style="fill:url(#linearGradient8509);stroke:#000000;stroke-width:0.79375003;stroke-miterlimit:10">
      <path d="M 13.229167,20.509212 10.22898,11.901526 5.7405134,10.295126 7.3043899,3.3273717 0.71343006,11.178647 7.2051711,14.334748 8.2209822,22.272248 13.229167,25.772085 18.237352,22.272248 19.253163,14.334748 25.744904,11.178647 19.153944,3.3273717 20.717821,10.295126 16.229354,11.901526 Z"/>
      <circle cx="13.357933" cy="7.4990401" r="2.3647134"/>
    </g>
  </g>
  <g transform="translate(0,-1.3229167)" style="display:none" id="layer2">
    <path d="M 7.4167293,272.01028 3.5413211,280.42927 8.3521726,282.90152 10.857824,291.00312 C 11.461508,292.95503 15.082379,292.98441 15.615374,291.02929 L 17.840241,282.86811 23.252449,280.39586 18.775684,271.84324" style="stroke:#ffffff;stroke-width:0.26458332px" transform="translate(0,-270.54164)"/>
  </g>
</svg>
