<?xml version="1.0" encoding="UTF-8"?>
<svg xmlns="http://www.w3.org/2000/svg" width="200pt" height="190pt" viewBox="0 0 200 190">
    <path stroke="#000000" stroke-width="0.09375" d=" M 10.18 73.49 C 23.30 57.83 36.45 42.20 49.58 26.54 C 46.36 40.94 43.10 55.34 39.90 69.74 C 51.58 73.92 63.25 78.12 74.94 82.28 C 83.32 106.22 91.63 130.18 100.00 154.12 C 108.37 130.19 116.67 106.23 125.06 82.31 C 136.74 78.14 148.42 73.92 160.11 69.77 C 156.90 55.35 153.64 40.95 150.42 26.53 C 163.57 42.17 176.70 57.83 189.83 73.48 C 174.15 81.11 158.48 88.78 142.77 96.37 C 140.17 116.46 137.64 136.57 135.04 156.67 C 123.38 164.84 111.72 173.02 100.02 181.13 C 88.33 172.97 76.64 164.82 64.97 156.65 C 62.36 136.57 59.81 116.47 57.24 96.38 C 41.59 88.67 25.86 81.12 10.18 73.49 Z"/>
    <path stroke="#000000" stroke-width="0.09375" d=" M 96.37 32.54 C 104.28 29.71 113.69 35.02 115.43 43.21 C 117.55 51.06 111.97 59.81 103.98 61.24 C 96.30 63.05 87.95 57.60 86.45 49.88 C 84.68 42.66 89.27 34.69 96.37 32.54 Z"/>
</svg>
