<?xml version="1.0" encoding="UTF-8" standalone="no"?>
<svg xmlns:xlink="http://www.w3.org/1999/xlink" xmlns:svg="http://www.w3.org/2000/svg" xmlns="http://www.w3.org/2000/svg" width="205.50037pt" height="195.20947pt" viewBox="0 0 274.00049 260.2793">
  <path style="fill:#808080" d="m 221.93993,0 c -28.45,3.45 -56.65029,9.0594139 -85.05029,12.899414 C 108.61965,8.9294141 80.529449,3.429043 52.189453,0.019043 47.749452,28.059043 43.42957,56.129159 38.80957,84.139156 26.09957,109.55916 13.25,134.96914 0,160.11914 v 0.90967 c 25.37,13.07 50.940468,25.78121 76.230464,38.99121 20.260005,19.92 40.279846,40.11928 60.339846,60.25928 h 1.02978 c 20.05999,-20.08 40.02979,-40.28993 60.27979,-60.16992 25.21001,-13.32 50.92061,-25.74032 76.12061,-39.07031 v -1.00929 C 261.06049,134.98979 248.33962,109.82994 235.5996,84.689941 230.67961,56.54994 226.69995,28.19 221.93993,0 Z M 87.240231,18.520019 c 16.570009,2.630001 33.140489,5.368711 49.750489,7.678711 16.84001,-1.78 33.90952,-6.308945 50.51954,-7.168945 -2.82,10.82 -5.24955,21.749023 -8.28956,32.499023 -27.81,0.79 -55.95135,0.03074 -83.881346,0.260742 -3.080003,-10.93 -6.27912,-22.05953 -8.099123,-33.269531 z m 127.539549,19.63916 c 2.93,16.65 5.06057,33.460586 8.10059,50.100582 7.26,15.400009 15.3299,30.449249 22.8999,45.719249 -11.44999,0.71 -22.92014,2.16002 -34.39013,2.02002 -8.54001,-26.58 -17.83949,-53.000242 -25.70949,-79.740242 9.59001,-6.17 19.15913,-12.509609 29.09913,-18.099609 z M 59.560546,38.399413 c 9.85,5.73 19.519318,11.859864 29.049313,18.109864 -8.52,26.579999 -17.079274,53.160433 -25.759274,79.690433 -11.41,-0.08 -22.809961,-1.43983 -34.20996,-2.06983 6.849999,-15.45999 15.389276,-30.23046 22.759277,-45.480464 2.93,-16.700003 5.480644,-33.490002 8.160644,-50.250003 z m 87.755864,23.499024 c 9.83659,0.02285 19.65555,0.152226 29.42431,0.500976 8.13999,24.829998 16.19986,49.710347 24.10985,74.610347 -21.18,15.53001 -42.33031,31.18977 -63.82031,46.25977 -21.34999,-15.24 -42.730436,-30.50951 -63.710436,-46.24951 8.2,-24.92 15.789805,-50.471092 24.799802,-74.871095 16.356254,-0.03125 32.802444,-0.288574 49.196784,-0.250488 z M 65.129882,143.88867 c 22.709997,16.23 45.669728,32.62077 67.719718,49.53077 -3.70999,10.60999 -7.96988,21.18993 -12.62987,31.43994 -12.26001,-11.69001 -23.929729,-24.00966 -36.219731,-35.63965 -14.93,-7.84 -30.18,-15.07988 -45,-23.12989 7.910001,-7.87999 17.339883,-15.00117 26.129883,-22.20117 z m 143.900388,0.3208 c 8.88,6.83 17.79035,14.07987 25.86035,21.85987 -14.82,8.02 -30.1209,15.14994 -44.92091,23.18994 -12.35998,11.40999 -23.69979,23.94012 -36.0498,35.37012 -4.62,-10.24001 -8.7305,-20.76977 -12.77051,-31.25977 22.48001,-16.56 44.99086,-33.21016 67.88087,-49.16016 z"/>
  <path d="m 87.240231,18.520019 c 1.820003,11.210001 5.01912,22.339531 8.099123,33.269531 27.929996,-0.23 56.071346,0.529258 83.881346,-0.260742 3.03999,-10.75 5.46954,-21.679023 8.28954,-32.499023 -16.61,0.86 -33.67953,5.388945 -50.51952,7.168945 -16.61,-2.31 -33.18048,-5.04871 -49.750489,-7.678711 z m 127.539549,19.63916 c -9.94,5.59 -19.50912,11.929609 -29.09913,18.099609 7.87,26.74 17.16947,53.160242 25.70948,79.740242 11.46999,0.14 22.94013,-1.31002 34.39013,-2.02002 -7.57,-15.27 -15.6399,-30.31924 -22.8999,-45.719249 -3.04001,-16.639996 -5.17058,-33.450582 -8.10058,-50.100582 z M 59.560546,38.399413 c -2.68,16.760001 -5.230644,33.55 -8.160644,50.250003 -7.370001,15.250004 -15.909278,30.020474 -22.759277,45.480464 11.399999,0.63 22.79996,1.98983 34.20996,2.06983 8.68,-26.53 17.239274,-53.110434 25.759274,-79.690433 -9.529995,-6.25 -19.199313,-12.379864 -29.049313,-18.109864 z m 87.755864,23.499024 c -16.39434,-0.03809 -32.84053,0.219238 -49.196784,0.250488 -9.009997,24.400003 -16.599802,49.951095 -24.799802,74.871095 20.98,15.74 42.360446,31.00951 63.710446,46.24951 21.48999,-15.07 42.6403,-30.72976 63.8203,-46.25977 -7.90999,-24.9 -15.96986,-49.780349 -24.10985,-74.610347 -9.76876,-0.34875 -19.58772,-0.478125 -29.42431,-0.500976 z M 65.129882,143.88867 c -8.79,7.2 -18.219882,14.32118 -26.129883,22.20117 14.82,8.05001 30.07,15.28989 45,23.12989 12.290002,11.62999 23.959721,23.94964 36.219731,35.63965 4.65999,-10.25001 8.91988,-20.82995 12.62987,-31.43994 -22.04999,-16.91 -45.009721,-33.30077 -67.719718,-49.53077 z m 143.900388,0.3208 c -22.89001,15.95 -45.40086,32.60016 -67.88086,49.16016 4.04001,10.49 8.15051,21.01976 12.77051,31.25977 12.35,-11.43 23.68981,-23.96013 36.04979,-35.37012 14.80001,-8.04 30.10091,-15.16994 44.92091,-23.18994 -8.07,-7.78 -16.98034,-15.02987 -25.86035,-21.85987 z"/>
</svg>
