<?xml version="1.0" encoding="UTF-8" standalone="no"?>
<svg xmlns:xlink="http://www.w3.org/1999/xlink" xmlns:svg="http://www.w3.org/2000/svg" xmlns="http://www.w3.org/2000/svg" width="205.50037pt" height="195.20947pt" viewBox="0 0 274.00049 260.2793">
  <path d="m 87.240231,18.520019 c 1.820003,11.210001 5.01912,22.339531 8.099123,33.269531 27.929996,-0.23 56.071346,0.529258 83.881346,-0.260742 3.03999,-10.75 5.46954,-21.679023 8.28954,-32.499023 -16.61,0.86 -33.67953,5.388945 -50.51952,7.168945 -16.61,-2.31 -33.18048,-5.04871 -49.750489,-7.678711 z m 127.539549,19.63916 c -9.94,5.59 -19.50912,11.929609 -29.09913,18.099609 7.87,26.74 17.16947,53.160242 25.70948,79.740242 11.46999,0.14 22.94013,-1.31002 34.39013,-2.02002 -7.57,-15.27 -15.6399,-30.31924 -22.8999,-45.719249 -3.04001,-16.639996 -5.17058,-33.450582 -8.10058,-50.100582 z M 59.560546,38.399413 c -2.68,16.760001 -5.230644,33.55 -8.160644,50.250003 -7.370001,15.250004 -15.909278,30.020474 -22.759277,45.480464 11.399999,0.63 22.79996,1.98983 34.20996,2.06983 8.68,-26.53 17.239274,-53.110434 25.759274,-79.690433 -9.529995,-6.25 -19.199313,-12.379864 -29.049313,-18.109864 z m 87.755864,23.499024 c -16.39434,-0.03809 -32.84053,0.219238 -49.196784,0.250488 -9.009997,24.400003 -16.599802,49.951095 -24.799802,74.871095 20.98,15.74 42.360446,31.00951 63.710446,46.24951 21.48999,-15.07 42.6403,-30.72976 63.8203,-46.25977 -7.90999,-24.9 -15.96986,-49.780349 -24.10985,-74.610347 -9.76876,-0.34875 -19.58772,-0.478125 -29.42431,-0.500976 z M 65.129882,143.88867 c -8.79,7.2 -18.219882,14.32118 -26.129883,22.20117 14.82,8.05001 30.07,15.28989 45,23.12989 12.290002,11.62999 23.959721,23.94964 36.219731,35.63965 4.65999,-10.25001 8.91988,-20.82995 12.62987,-31.43994 -22.04999,-16.91 -45.009721,-33.30077 -67.719718,-49.53077 z m 143.900388,0.3208 c -22.89001,15.95 -45.40086,32.60016 -67.88086,49.16016 4.04001,10.49 8.15051,21.01976 12.77051,31.25977 12.35,-11.43 23.68981,-23.96013 36.04979,-35.37012 14.80001,-8.04 30.10091,-15.16994 44.92091,-23.18994 -8.07,-7.78 -16.98034,-15.02987 -25.86035,-21.85987 z"/>
</svg>
