<?xml version="1.0" encoding="UTF-8" standalone="no"?>
<svg xmlns="http://www.w3.org/2000/svg" xmlns:xlink="http://www.w3.org/1999/xlink" version="1.1" width="600" height="655.09332">
  <linearGradient x1="0" y1="0" x2="1" y2="0" id="linearGradient778" gradientUnits="userSpaceOnUse" gradientTransform="matrix(26.004684,18.208679,18.208679,-26.004684,220.04492,25.77832)" spreadMethod="pad">
    <stop style="stop-color:#bf331c" offset="0"/>
    <stop style="stop-color:#d3641c" offset="0.3"/>
    <stop style="stop-color:#f6b91d" offset="0.5"/>
    <stop style="stop-color:#d3641c" offset="0.7"/>
    <stop style="stop-color:#bf331c" offset="1"/>
  </linearGradient>
  <linearGradient x1="0" y1="0" x2="1" y2="0" id="linearGradient2997" xlink:href="#linearGradient778" gradientUnits="userSpaceOnUse" gradientTransform="matrix(26.004684,18.208679,18.208679,-26.004684,220.04492,25.77832)" spreadMethod="pad"/>
  <linearGradient x1="0" y1="0" x2="1" y2="0" id="linearGradient3000" xlink:href="#linearGradient778" gradientUnits="userSpaceOnUse" gradientTransform="matrix(425.88739,-298.20962,298.20962,425.88739,87.093351,476.65706)" spreadMethod="pad"/>
  <path d="M 300.03275,655.09335 293.25254,650.22928 45.348837,473.99279 41.958729,471.61808 40.812316,467.52375 0.88437602,321.09401 0,317.76941 1.0153947,314.49394 41.320013,186.86538 42.531936,183.09859 45.741893,180.8549 293.25254,4.86407 300.03275,0 l 6.84573,4.86407 247.44514,175.99083 3.20995,2.24369 1.21193,3.76679 40.23911,127.62856 1.01539,3.27547 -0.88438,3.3246 -39.92794,146.42974 -1.0809,4.09433 -3.39011,2.37471 -247.9037,176.23649 -6.78022,4.86407 z" style="fill:#ffffff"/>
  <path d="M 547.87095,464.39568 587.78251,318.01507 547.47789,190.45201 300.03275,14.39568 52.587619,190.45201 12.283,318.01507 52.129053,464.39568 300.03275,640.69767 547.87095,464.39568 z"/>
  <path d="m 245.46348,160.84179 0,333.42614 54.56927,109.07305 54.56928,-109.07305 0,-333.42614 -54.56928,-109.08942 -54.56927,109.08942 z m 151.55585,-12.10285 0,357.61546 -36.40682,61.21848 90.97609,-67.80216 0,-344.43171 -90.97609,-67.81854 36.40682,61.21847 z m -248.54242,6.60007 0,344.43171 90.97609,67.80216 -36.40682,-61.21847 0,-357.61547 36.40682,-61.21847 -90.97609,67.81854 z m 345.52899,320.70095 36.32492,-24.25483 36.40682,-133.32788 -36.40682,-115.21454 -36.32492,-24.23845 0,297.0357 z M 69.71831,203.24271 33.327874,318.45725 69.71831,451.78513 l 36.3413,24.25483 0,-297.0357 -36.3413,24.23845 z" style="fill:url(#linearGradient3000)"/>
</svg>
