<?xml version="1.0" encoding="UTF-8" standalone="no"?>
<svg xmlns="http://www.w3.org/2000/svg" xmlns:xlink="http://www.w3.org/1999/xlink" version="1.1" width="600" height="652.91907">
  <linearGradient x1="0" y1="0" x2="1" y2="0" id="linearGradient740" gradientUnits="userSpaceOnUse" gradientTransform="matrix(27.200409,19.045929,19.045929,-27.200409,86.071289,25.361328)" spreadMethod="pad">
    <stop style="stop-color:#612c75" offset="0"/>
    <stop style="stop-color:#7b5190" offset="0.3"/>
    <stop style="stop-color:#bf99c3" offset="0.5"/>
    <stop style="stop-color:#7b5190" offset="0.7"/>
    <stop style="stop-color:#612c75" offset="1"/>
  </linearGradient>
  <linearGradient x1="0" y1="0" x2="1" y2="0" id="linearGradient2995" xlink:href="#linearGradient740" gradientUnits="userSpaceOnUse" gradientTransform="matrix(27.200409,19.045929,19.045929,-27.200409,86.071289,25.361328)" spreadMethod="pad"/>
  <linearGradient x1="0" y1="0" x2="1" y2="0" id="linearGradient2998" xlink:href="#linearGradient740" gradientUnits="userSpaceOnUse" gradientTransform="matrix(443.99166,-310.88626,310.88626,443.99166,77.995902,481.88158)" spreadMethod="pad"/>
  <path d="M 558.36008,469.15501 600,316.51885 557.98466,183.43762 300,0 42.015344,183.43762 0,316.51885 41.574623,469.15501 300,652.91909 558.36008,469.15501 z" fill="#ffffff"/>
  <path d="m 243.13075,152.65248 0,347.56516 56.86925,113.7385 56.86925,-113.7385 0,-347.56516 L 300,38.89765 243.13075,152.65248 z m 157.9248,-12.63398 0,372.8168 -37.8693,63.82284 94.82017,-70.71114 0,-359.04021 -94.82017,-70.71113 37.8693,63.82284 z m -259.06197,6.88829 0,359.04021 94.82017,70.71114 -37.93459,-63.82284 0,-372.8168 37.93459,-63.82284 -94.82017,70.71113 z m 360.19914,334.37619 37.9346,-25.31693 37.86931,-139.00648 -37.86931,-120.0555 -37.9346,-25.25164 0,309.63055 z M 59.872681,196.90407 l -37.934599,120.0555 37.934599,139.00648 37.869307,25.31693 0,-309.63055 -37.869307,25.25164 z" style="fill:url(#linearGradient2998)"/>
</svg>
