<?xml version="1.0" encoding="UTF-8" standalone="no"?>
<svg xmlns="http://www.w3.org/2000/svg" version="1.1" width="600" height="329.711">
  <path d="m 548.75102,329.7106 -0.0399,0 c -11.91281,0 -29.6275,-2.80125 -46.45496,-16.15955 -23.08792,-18.34273 -21.37327,-44.19202 -13.93649,-63.63133 -16.27918,-2.76138 -35.21007,-5.29348 -53.47305,-7.19753 l -5.87167,16.66796 c -2.46231,7.00812 -9.08165,11.64365 -16.3988,11.64365 -0.34851,0 -0.69782,0 -1.04673,-0.0399 -19.62872,-1.13646 -31.5515,-12.54085 -32.86739,-13.82683 -4.75515,-4.75516 -6.35017,-11.83306 -4.12711,-18.14336 l 3.33957,-9.43056 C 349.49313,229.05486 272.81254,223.56201 190.26028,183.91579 96.333522,138.78669 32.94144,85.43326 1.9482044,25.35085 -1.7602175,18.2231 -0.04557084,9.58009 5.995568,4.28661 9.2653593,1.44548 13.352599,0 17.479713,0 c 3.509045,0 7.00812,1.01682 10.048627,3.12026 0.308637,0.22968 35.668638,24.10474 118.07137,26.27795 6.76887,0.19938 12.84988,4.3265 15.53151,10.55704 2.73147,6.23055 1.52524,13.47792 -2.99066,18.53214 l -0.46814,0.46894 c 20.71532,12.84988 61.44815,33.06676 112.61839,33.06676 22.23059,0 44.54094,-3.81808 66.31296,-11.37449 1.82431,-0.61807 3.77821,-0.93707 5.68226,-0.93707 3.73833,0 7.43678,1.20623 10.47729,3.50904 l 60.75033,45.51789 3.34954,-9.46046 c 2.49222,-6.96825 9.07168,-11.64365 16.46859,-11.64365 20.63557,0 33.05679,13.00938 34.42253,14.52465 4.40624,4.82494 5.72213,11.7234 3.42929,17.83432 l -3.50905,9.35081 c 115.41965,45.47801 130.73184,72.70301 130.73184,91.46443 0,17.09663 -10.20813,29.04931 -30.41504,35.59886 3.57883,1.59502 10.23804,3.30967 15.69101,3.69845 5.76201,0.38839 10.98571,3.57883 13.90659,8.56327 2.881,4.98444 3.22991,11.06545 0.77757,16.27917 -7.00812,14.79381 -26.91597,24.76269 -49.6151,24.76269" style="fill:#808080"/>
  <path d="m 433.2915,125.07948 -42.28797,119.74614 c 0,0 7.98507,7.98507 21.53277,8.76264 l 10.39754,-29.51784 c 0,0 100.54608,8.76264 118.92869,23.12779 0,0 -12.7801,26.36768 -29.55772,-5.5726 0,0 -26.3278,36.72534 0.81745,58.25811 27.14525,21.57265 63.04317,11.17511 69.43322,-2.37259 0,0 -26.36767,-1.59502 -32.74776,-15.19257 -6.35017,-13.5477 0.81745,-19.15021 6.38009,-20.7552 5.61247,-1.59502 24.77265,-4.74518 24.77265,-20.7552 0,-15.92029 -34.35274,-43.06554 -135.6764,-81.3859 l 9.58009,-25.54026 c 0,0 -8.02495,-8.80252 -21.57265,-8.80252 m -136.48388,13.86671 c 0,0 51.86806,7.43678 76.63075,13.81686 l -32.70788,-31.65118 c 0,0 -19.42934,10.35766 -43.92287,17.83432 m -15.97014,2.10343 C 181.84654,133.06455 125.19342,76.40146 125.19342,76.40146 c 51.86806,110.12618 155.64406,64.64816 155.64406,64.64816 M 17.439838,17.3259 c 0,0 37.502911,27.14525 127.691332,29.55772 L 131.5735,62.03631 c 0,0 91.00587,76.63075 210.71213,35.12035 l 70.25067,52.68551 -22.35022,62.23569 c 0,0 -90.96599,4.82494 -192.3694,-43.89296 C 96.453149,119.50688 42.990067,66.82137 17.439838,17.3259"/>
</svg>
