<?xml version="1.0" encoding="UTF-8" standalone="no"?>
<svg xmlns="http://www.w3.org/2000/svg" version="1.1" width="600" height="329.711">
  <linearGradient x1="0" y1="0" x2="1" y2="0" id="linearGradient276" gradientUnits="userSpaceOnUse" gradientTransform="matrix(56.688965,0,0,-56.688965,190.90576,483.72461)" spreadMethod="pad">
    <stop style="stop-color:#8b723c" offset="0"/>
    <stop style="stop-color:#d2bb7b" offset="0.3"/>
    <stop style="stop-color:#ebd491" offset="0.5"/>
    <stop style="stop-color:#d2bb7b" offset="0.7"/>
    <stop style="stop-color:#8b723c" offset="1"/>
  </linearGradient>
  <path d="m 548.75102,329.7106 -0.0399,0 c -11.91281,0 -29.6275,-2.80125 -46.45496,-16.15955 -23.08792,-18.34273 -21.37327,-44.19202 -13.93649,-63.63133 -16.27918,-2.76138 -35.21007,-5.29348 -53.47305,-7.19753 l -5.87167,16.66796 c -2.46231,7.00812 -9.08165,11.64365 -16.3988,11.64365 -0.34851,0 -0.69782,0 -1.04673,-0.0399 -19.62872,-1.13646 -31.5515,-12.54085 -32.86739,-13.82683 -4.75515,-4.75516 -6.35017,-11.83306 -4.12711,-18.14336 l 3.33957,-9.43056 C 349.49313,229.05486 272.81254,223.56201 190.26028,183.91579 96.333522,138.78669 32.94144,85.43326 1.9482044,25.35085 -1.7602175,18.2231 -0.04557084,9.58009 5.995568,4.28661 9.2653593,1.44548 13.352599,0 17.479713,0 c 3.509045,0 7.00812,1.01682 10.048627,3.12026 0.308637,0.22968 35.668638,24.10474 118.07137,26.27795 6.76887,0.19938 12.84988,4.3265 15.53151,10.55704 2.73147,6.23055 1.52524,13.47792 -2.99066,18.53214 l -0.46814,0.46894 c 20.71532,12.84988 61.44815,33.06676 112.61839,33.06676 22.23059,0 44.54094,-3.81808 66.31296,-11.37449 1.82431,-0.61807 3.77821,-0.93707 5.68226,-0.93707 3.73833,0 7.43678,1.20623 10.47729,3.50904 l 60.75033,45.51789 3.34954,-9.46046 c 2.49222,-6.96825 9.07168,-11.64365 16.46859,-11.64365 20.63557,0 33.05679,13.00938 34.42253,14.52465 4.40624,4.82494 5.72213,11.7234 3.42929,17.83432 l -3.50905,9.35081 c 115.41965,45.47801 130.73184,72.70301 130.73184,91.46443 0,17.09663 -10.20813,29.04931 -30.41504,35.59886 3.57883,1.59502 10.23804,3.30967 15.69101,3.69845 5.76201,0.38839 10.98571,3.57883 13.90659,8.56327 2.881,4.98444 3.22991,11.06545 0.77757,16.27917 -7.00812,14.79381 -26.91597,24.76269 -49.6151,24.76269"/>
  <g transform="matrix(9.968876,0,0,-9.968876,-1885.6783,4987.0097)">
    <path d="m 209,483.387 c 10.172,-4.887 19.297,-4.403 19.297,-4.403 l 0,0 2.242,6.243 -7.047,5.285 c -12.008,-4.164 -21.137,3.523 -21.137,3.523 l 0,0 1.36,1.52 c -9.047,0.242 -12.809,2.965 -12.809,2.965 l 0,0 c 2.563,-4.965 7.926,-10.25 18.094,-15.133 m -7.285,9.207 c 0,0 5.683,-5.684 15.613,-6.485 l 0,0 c 0,0 -2.129,-0.933 -4.945,-0.933 l 0,0 c -3.406,0 -7.817,1.367 -10.668,7.418 m 17.215,-6.274 c 2.457,0.75 4.406,1.789 4.406,1.789 l 0,0 3.281,-3.175 c -2.484,0.64 -7.687,1.386 -7.687,1.386 m 9.449,-10.621 c 0,0 0.801,-0.801 2.16,-0.883 l 0,0 1.043,2.965 c 0,0 10.086,-0.879 11.926,-2.32 l 0,0 c 0,0 -1.278,-2.645 -2.961,0.559 l 0,0 c 0,0 -2.641,-3.684 0.082,-5.844 l 0,0 c 2.723,-2.164 6.324,-1.121 6.965,0.238 l 0,0 c 0,0 -2.645,0.16 -3.285,1.524 l 0,0 c -0.637,1.359 0.082,1.921 0.64,2.082 l 0,0 c 0.563,0.16 2.485,0.476 2.485,2.082 l 0,0 c 0,1.597 -3.446,4.32 -13.61,8.164 l 0,0 0.961,2.562 c 0,0 -0.805,0.883 -2.164,0.883 l 0,0 -4.242,-12.012 z" style="fill:url(#linearGradient276)"/>
  </g>
</svg>
