<?xml version="1.0" encoding="UTF-8" standalone="no"?>
<svg xmlns="http://www.w3.org/2000/svg" version="1.1" width="600" height="329.711">
  <path d="m 433.2915,125.07948 -42.28797,119.74614 c 0,0 7.98507,7.98507 21.53277,8.76264 l 10.39754,-29.51784 c 0,0 100.54608,8.76264 118.92869,23.12779 0,0 -12.7801,26.36768 -29.55772,-5.5726 0,0 -26.3278,36.72534 0.81745,58.25811 27.14525,21.57265 63.04317,11.17511 69.43322,-2.37259 0,0 -26.36767,-1.59502 -32.74776,-15.19257 -6.35017,-13.5477 0.81745,-19.15021 6.38009,-20.7552 5.61247,-1.59502 24.77265,-4.74518 24.77265,-20.7552 0,-15.92029 -34.35274,-43.06554 -135.6764,-81.3859 l 9.58009,-25.54026 c 0,0 -8.02495,-8.80252 -21.57265,-8.80252 m -136.48388,13.86671 c 0,0 51.86806,7.43678 76.63075,13.81686 l -32.70788,-31.65118 c 0,0 -19.42934,10.35766 -43.92287,17.83432 m -15.97014,2.10343 C 181.84654,133.06455 125.19342,76.40146 125.19342,76.40146 c 51.86806,110.12618 155.64406,64.64816 155.64406,64.64816 M 17.439838,17.3259 c 0,0 37.502911,27.14525 127.691332,29.55772 L 131.5735,62.03631 c 0,0 91.00587,76.63075 210.71213,35.12035 l 70.25067,52.68551 -22.35022,62.23569 c 0,0 -90.96599,4.82494 -192.3694,-43.89296 C 96.453149,119.50688 42.990067,66.82137 17.439838,17.3259"/>
</svg>
