<?xml version="1.0" encoding="UTF-8" standalone="no"?>
<svg
   xmlns:dc="http://purl.org/dc/elements/1.1/"
   xmlns:cc="http://creativecommons.org/ns#"
   xmlns:rdf="http://www.w3.org/1999/02/22-rdf-syntax-ns#"
   xmlns:svg="http://www.w3.org/2000/svg"
   xmlns="http://www.w3.org/2000/svg"
   xmlns:xlink="http://www.w3.org/1999/xlink"
   height="490.69336"
   width="613"
   version="1.1">
  <defs>
    <linearGradient id="g1">
      <stop offset="0"   style="stop-color:#e3cd99" />
      <stop offset="0.5" style="stop-color:#ae975f" />
      <stop offset="1"   style="stop-color:#7f6e41" />
    </linearGradient>
    <radialGradient
       gradientUnits="userSpaceOnUse"
       gradientTransform="matrix(-9.8742576e-8,1.1935137,-1.1897432,-3.3769248e-7,709.0671,-887.94566)"
       r="293.25"
       fy="338.36465"
       fx="933.49994"
       cy="338.36465"
       cx="933.49994"
       id="g2"
       xlink:href="#g1" />
  </defs>
  <path
     d="M 18.64648,0 C 23.04867,47.37585 31.9511,80.26122 40.16602,96.00585 24.23795,96.43606 9.12288,99.03984 0,100.44335 c 5.11871,28.93182 29.21478,68.48757 38.50977,81.25 -5.11253,1.65315 -9.87854,3.40725 -14.00977,5 15.5,32.25 34.375,49.62502 55.25,61.875 -7.5,5.12501 -25.03125,18.29688 -33.15625,35.17188 18,12.625 43.71875,24.92186 71.59375,30.04688 -10.625,8.875 -21.65625,32.04687 -21.65625,32.04687 31.75,8.125 46.09375,5.92189 61.46875,3.42187 l -7.28125,24.67188 c 15.375,-0.125 46.34375,-6.70314 55.59375,-11.20312 -0.625,7.875 8.84375,23.42187 12.21875,26.92187 -7.625,7.625 -20.00977,41.01758 -22.63477,52.64258 13.63025,1.33551 27.89503,2.08739 39.86524,0.76953 -0.96877,16.17319 3.29271,25.86614 8.11523,35.51758 11.55668,-2.55715 20.1271,-6.11011 28.63477,-9.6836 6.40876,13.33767 19.57248,21.80078 33.98828,21.80078 14.4158,0 27.57952,-8.46311 33.98828,-21.80078 8.50767,3.57349 17.07809,7.12645 28.63477,9.6836 4.82255,-9.65144 9.08395,-19.34439 8.11525,-35.51758 11.9702,1.31786 26.235,0.56598 39.8652,-0.76953 -2.625,-11.625 -15.0096,-45.01758 -22.6347,-52.64258 3.3751,-3.5 12.8437,-19.04687 12.2187,-26.92187 9.25,4.49998 40.2187,11.07812 55.5937,11.20312 L 455,349.25585 c 15.375,2.50002 29.7188,4.70313 61.4688,-3.42187 -10e-5,0 -11.0313,-23.17187 -21.6563,-32.04687 27.875,-5.12502 53.5937,-17.42188 71.5937,-30.04688 -8.125,-16.875 -25.6562,-30.04687 -33.1562,-35.17188 20.875,-12.24998 39.75,-29.625 55.25,-61.875 -4.1312,-1.59275 -8.8972,-3.34685 -14.0098,-5 9.295,-12.76243 33.3911,-52.31818 38.5098,-81.25 -9.1229,-1.40351 -24.2379,-4.00729 -40.166,-4.4375 8.2149,-15.74463 17.1173,-48.63 21.5195,-96.00585 0,0 -45.1362,1.40911 -51.0879,4.61523 -50.5806,27.24764 -80.6477,59.4674 -101.2207,79.37305 -20.6221,19.95325 -39.8476,43.6875 -69.84763,47.0625 0,0 14.96093,15.58789 17.46093,19.33789 2.25,8.25 -0.2949,38.12695 -2.0449,57.87695 l -8.0078,16.51758 -11.31058,-33.97852 7.72268,-7.23633 c -7.00004,-8 -44.0176,-34.0332 -69.5176,-34.0332 -25.5,0 -62.51758,26.0332 -69.51758,34.0332 l 7.72266,7.23633 -11.31055,33.97852 -8.00781,-16.51758 c -1.75,-19.75 -4.29492,-49.62695 -2.04492,-57.87695 2.5,-3.75 17.46093,-19.33789 17.46093,-19.33789 -30,-3.375 -49.22548,-27.10925 -69.84765,-47.0625 C 150.3821,64.08263 120.31504,31.86287 69.73438,4.61523 63.78274,1.40911 18.64648,0 18.64648,0 Z"
     style="fill:#000000" />
  <path
     d="m 34.62109,11.37304 c -1.1467,-0.0221 -2.10753,-0.0226 -2.82031,0.002 2.67343,45.26988 14.09161,73.98188 22.19141,84.89062 19.25693,1.33219 37.53692,7.23596 45.75781,23.67773 -19.5,-5.75 -13.25,-16.5 -86.5,-11.5 3.57478,17.07949 26.9381,54.97111 36.49609,69.99805 7.84961,-1.96435 16.03147,-3.32081 23.75586,-3.24609 10.14698,0.0981 19.49805,2.65433 26.24805,9.49804 -26.2176,-4.72388 -39.05801,-1.18548 -60.00195,7.44141 5.38662,10.87674 22.82387,39.39993 64.12695,56.52735 l 2.875,2.46874 c -23.06936,1.41423 -45.22721,26.72126 -44.625,28.96876 0.66381,2.47737 38.31723,22.76404 76.32422,23.73632 l 1.95703,2.13086 c -4.94975,2.91682 -27.83776,29.64751 -26.73437,31.5586 1.25678,2.17681 39.65337,4.46989 62.01562,-1.62891 l 1.14062,0.99609 c -3.18196,2.82843 -11.96502,22.45295 -10.85937,23.5586 1.17737,1.17737 35.39214,-2.93529 48.65039,-14.42578 l 1.43164,0.81054 c -0.61872,4.77297 1.91631,25.78373 4.87891,26.95313 2.88921,1.14043 31.91265,-20.59756 35.97851,-35.18164 1.89991,-0.42317 2.5724,-1.02219 2.83203,-1.67969 0.977,7.00206 2.67142,9.34082 4.06836,13.61328 -33.76435,28.10749 -54.52866,79.18869 -53.23242,81.11719 1.53186,2.27905 30.91342,0.50904 36.92383,-1.78906 l 1.57031,1.21484 c -3.53553,1.23744 -2.32584,31.5423 0.86133,33.91992 2.66671,1.98936 19.44772,-6.90208 29.32813,-14.38476 1.49845,18.6056 10.81387,27.83593 27.24023,27.83593 16.42636,0 25.74178,-9.23033 27.24023,-27.83593 9.88041,7.48268 26.66142,16.37412 29.32813,14.38476 3.18717,-2.37762 4.39686,-32.68248 0.86133,-33.91992 L 365.5,429.86914 c 6.01041,2.2981 35.392,4.06811 36.9238,1.78906 1.2963,-1.9285 -19.468,-53.0097 -53.23239,-81.11719 1.39694,-4.27246 3.09136,-6.61122 4.06836,-13.61328 0.25963,0.6575 0.93212,1.25652 2.83203,1.67969 4.06586,14.58408 33.0893,36.32207 35.9785,35.18164 2.9626,-1.1694 5.4976,-22.18016 4.8789,-26.95313 l 1.4317,-0.81054 c 13.2582,11.49049 47.4729,15.60315 48.6503,14.42578 1.1056,-1.10565 -7.6774,-20.73017 -10.8593,-23.5586 l 1.1406,-0.99609 c 22.3623,6.0988 60.7588,3.80572 62.0156,1.62891 1.1034,-1.91109 -21.7847,-28.64178 -26.7343,-31.5586 l 1.957,-2.13086 c 38.007,-0.97228 75.6604,-21.25895 76.3242,-23.73632 0.6022,-2.24749 -21.5556,-27.55453 -44.625,-28.96876 l 2.875,-2.46874 c 41.3031,-17.12741 58.7404,-45.65061 64.127,-56.52735 -20.9439,-8.62689 -33.7844,-12.16529 -60.002,-7.44141 6.75,-6.84372 16.101,-9.39994 26.248,-9.49804 7.7243,-0.0747 15.9063,1.28174 23.7559,3.24609 9.558,-15.02694 32.9213,-52.91856 36.4961,-69.99805 -73.25,-5 -67,5.75 -86.5,11.5 8.2209,-16.44176 26.5009,-22.34554 45.7578,-23.67773 8.0998,-10.90874 19.518,-39.62074 22.1914,-84.89062 -0.7128,-0.0246 -1.6736,-0.0241 -2.8203,-0.002 -8.0269,0.15444 -25.1752,1.3847 -30.3144,2.76172 -5.5616,1.49023 -64.2919,39.20543 -97.7676,78.08594 -15.7822,18.33024 -45.6424,42.09484 -57.0469,44.84765 0,0 6.7679,8.85609 8,14.125 1.4948,6.39222 -2.6142,58.09095 -3.5371,61.53516 -0.9272,3.46014 -11.8449,30.08282 -39.9629,54.46484 l -3.03711,-1.35742 c 0.78652,-1.96629 17.92969,-29.21484 17.92969,-29.21484 -5.89888,-17.10675 -20.79359,-46.33154 -12.53516,-52.82031 0,0 -33.74787,-23.60743 -53.60742,-23.60743 -19.85955,0 -53.60742,23.60743 -53.60742,23.60743 8.25843,6.48877 -6.63628,35.71356 -12.53516,52.82031 0,0 17.14317,27.24855 17.92969,29.21484 l -3.03711,1.35742 c -28.11798,-24.38202 -39.03575,-51.0047 -39.96289,-54.46484 -0.92287,-3.44421 -5.0319,-55.14295 -3.53711,-61.53516 1.23211,-5.26891 8,-14.125 8,-14.125 C 208.34551,134.3155 178.48526,110.5509 162.70312,92.22066 129.22744,53.34015 70.49718,15.62495 64.93555,14.13472 59.79642,12.7577 42.64803,11.52744 34.62109,11.373 Z m 133.49805,139.81055 c 0.59481,0.0361 0.94736,0.68226 0.91406,2.19726 0,1e-5 -1.79216,55.48718 -1.26172,57.4668 0.47914,1.78817 8.56231,20.59824 20.49219,35.46875 7.95039,9.91009 23.33769,26.93435 22.19922,28.17969 -1.57428,1.72205 -14.19821,-2.04539 -18.21875,-6.31641 -10.33674,-10.98074 -32.32516,-46.72454 -33.91992,-48.13281 -3.7995,-3.35522 -14.85938,-14.1875 -14.85938,-14.1875 0,0 14.94922,6.78016 14.94922,-5.51953 v -35.93945 c 0,-2.04247 7.12756,-13.37315 9.70508,-13.2168 z m 276.76176,0 c 2.5775,-0.15635 9.705,11.17433 9.705,13.2168 v 35.93945 c 0,12.29969 14.9493,5.51953 14.9493,5.51953 0,0 -11.0599,10.83228 -14.8594,14.1875 -1.5948,1.40827 -23.5832,37.15207 -33.9199,48.13281 -4.0206,4.27102 -16.6445,8.03846 -18.2188,6.31641 -1.1385,-1.24534 14.2488,-18.2696 22.1992,-28.17969 11.9299,-14.87051 20.0131,-33.68058 20.4922,-35.46875 0.5305,-1.97962 -1.2617,-57.46679 -1.2617,-57.4668 -0.033,-1.515 0.3192,-2.16116 0.9141,-2.19726 z M 306.5,226.19921 l 9.54688,15.90625 h 8.13085 L 306.5,292.20507 288.82227,242.10546 h 8.13085 z"
     style="fill:url(#g2)" />
</svg>
