<?xml version="1.0" encoding="UTF-8" standalone="no"?>
<svg xmlns="http://www.w3.org/2000/svg" xmlns:xlink="http://www.w3.org/1999/xlink" version="1.1" width="600" height="555.87433">
  <radialGradient cx="0" cy="0" r="1" fx="0" fy="0" id="radialGradient344" gradientUnits="userSpaceOnUse" gradientTransform="matrix(19.016495,0,0,-19.016495,100.44727,151.33301)" spreadMethod="pad">
    <stop style="stop-color:#d9eaf3" offset="0"/>
    <stop style="stop-color:#99aebc" offset="0.66291797"/>
    <stop style="stop-color:#536e78" offset="1"/>
  </radialGradient>
  <radialGradient cx="0" cy="0" r="1" fx="0" fy="0" id="radialGradient2993" xlink:href="#radialGradient344" gradientUnits="userSpaceOnUse" gradientTransform="matrix(19.016495,0,0,-19.016495,100.44727,151.33301)" spreadMethod="pad"/>
  <radialGradient cx="0" cy="0" r="1" fx="0" fy="0" id="radialGradient2996" xlink:href="#radialGradient344" gradientUnits="userSpaceOnUse" gradientTransform="matrix(264.26955,0,0,264.26955,300.05395,277.97872)" spreadMethod="pad"/>
  <path d="m 378.03937,555.87435 c -63.41136,0 -118.40123,-22.04042 -159.00786,-63.84217 -36.31249,-37.28527 -59.38127,-89.45408 -65.07899,-146.77862 -1.13954,-11.61777 5.96176,-22.41563 17.03755,-26.1122 2.55703,-0.87606 5.15574,-1.25072 7.76835,-1.25072 8.57436,0 16.82909,4.447 21.44285,12.21534 0.48583,0.86161 52.97483,87.39735 133.53492,87.39735 101.725,0 104.65724,-96.9028 104.65724,-107.9647 0,-14.34156 -4.01619,-140.01085 -142.27604,-140.01085 -56.94933,0 -108.52057,23.29114 -153.18507,69.33143 -40.06465,41.19029 -72.694471,100.09907 -91.969414,165.72004 -3.14069,10.70058 -12.854595,17.91305 -23.874804,17.91305 -0.541421,0 -1.083955,-0.0556 -1.625932,-0.0556 C 13.788809,421.68628 4.22777,412.94516 2.4350752,401.38297 1.4067077,394.69858 -21.286863,236.78858 95.321679,113.13433 164.09723,40.23141 257.95662,0 359.62603,0 c 46.80462,0 93.48417,8.68554 134.9524,25.13942 8.14356,3.19628 14.11921,10.31147 15.57838,18.88583 1.41748,8.57436 -1.51476,17.09314 -8.08797,22.80474 -3.84943,3.52981 -11.65947,13.35489 -11.65947,21.33168 0,11.28425 6.61491,18.45503 20.40059,32.18513 C 511.68602,121.27844 600,212.8026 600,327.28492 c 0,53.086 -22.19328,110.29937 -59.38128,153.0739 -42.34373,48.69459 -100.09907,75.51553 -162.57935,75.51553"/>
  <path d="M 113.40149,130.22746 C 3.8525548,246.50248 27.088102,397.57523 27.088102,397.57523 l 0,0 C 65.846441,265.29103 159.91428,144.61071 296.11739,144.61071 l 0,0 c 136.20311,0 167.13752,108.52057 167.13752,164.92792 l 0,0 c 0,56.50463 -33.15791,132.88177 -129.51872,132.88177 l 0,0 c -96.30523,0 -154.97777,-99.66828 -154.97777,-99.66828 l 0,0 c 9.93625,100.75223 78.60063,188.26075 199.28095,188.26075 l 0,0 c 120.66643,0 197.04356,-110.74407 197.04356,-203.72795 l 0,0 c 0,-92.99778 -67.52484,-174.90586 -81.90808,-189.28911 l 0,0 C 478.7916,123.55697 465.4923,110.31327 465.4923,88.16167 l 0,0 c 0,-22.15159 19.9142,-39.89788 19.9142,-39.89788 l 0,0 C 448.21851,33.54702 404.902,24.97266 359.62603,24.97266 l 0,0 c -84.07599,0 -174.94755,29.69758 -246.22454,105.2548" style="fill:url(#radialGradient2996)"/>
</svg>
