<?xml version="1.0" encoding="UTF-8" standalone="no"?>
<svg xmlns="http://www.w3.org/2000/svg" version="1.1" width="600" height="555.87433">
  <path d="m 27.088102,397.57523 c 0,0 -23.2911346,-151.07275 86.368978,-267.34777 C 223.04771,13.95245 379.17891,6.23969 485.4065,48.26379 c 0,0 -19.9142,17.74629 -19.9142,39.89788 0,22.09601 13.2993,35.3953 27.68255,49.77855 14.38324,14.43884 81.90808,96.34692 81.90808,189.3447 0,93.03947 -76.37713,203.72795 -197.04356,203.72795 -120.68032,0 -189.3447,-87.45293 -199.28095,-188.20516 0,0 58.67254,99.61268 154.97777,99.61268 96.30523,0 129.51872,-76.37713 129.51872,-132.88176 0,-56.40735 -30.99,-164.92792 -167.13752,-164.92792 -136.20311,0 -230.270949,120.68032 -269.029288,252.96452"/>
</svg>
