<?xml version="1.0" encoding="utf-8"?>
<svg xmlns="http://www.w3.org/2000/svg" xmlns:xlink="http://www.w3.org/1999/xlink" version="1.1" id="Layer_1" x="0px" y="0px" width="194.756px" height="194.755px">
  <path d="M82.438,0.26c13.85-0.085,27.698-0.175,41.548-0.26c0.388,5.925,0.777,11.85,1.169,17.774   c2.644,0.905,5.201,2.05,7.668,3.355c18.94-5.317,37.871-10.678,56.809-16.005c-5.328,18.939-10.695,37.869-16.006,56.814   c1.309,2.463,2.448,5.016,3.354,7.655c5.925,0.399,11.852,0.785,17.777,1.175c-0.08,13.846-0.186,27.69-0.253,41.535   c-5.87,0.45-11.742,0.832-17.612,1.26c-1.373,5.748-3.568,11.305-6.572,16.396c3.8,4.47,7.68,8.875,11.435,13.382   c-8.357,8.027-16.71,16.068-25.013,24.152c3.038,2.226,6.766,3.443,10.522,3.541c4.105,0.119,8.212-0.865,11.903-2.641   c1.527-0.747,3.002-1.64,4.244-2.808c-2.109,6.192-6.098,11.743-11.292,15.723c-7.391,5.647-17.258,7.758-26.353,5.955   c-9.425-1.798-17.883-7.452-23.697-15.013c-0.443,4.423-0.893,8.843-1.335,13.266c-13.341-0.343-26.681-0.698-40.021-1.051   c-0.422-5.877-0.838-11.757-1.265-17.635c-4.603-1.353-9.12-3.018-13.44-5.107c-11.012,11.008-22.02,22.022-33.033,33.03   c0.006-10.985-0.026-21.973-0.017-32.958c-10.985,0-21.973-0.024-32.958-0.018c11.008-11.012,22.023-22.02,33.028-33.032   c-2.093-4.319-3.753-8.84-5.108-13.442c-5.877-0.425-11.757-0.84-17.635-1.263c-0.35-13.34-0.707-26.68-1.05-40.02   c4.418-0.445,8.838-0.893,13.258-1.338c-6.323-4.882-11.304-11.58-13.798-19.192c-2.112-6.343-2.391-13.311-0.604-19.765   c1.702-6.44,5.495-12.293,10.667-16.487c3.11-2.533,6.643-4.578,10.452-5.848c-1.735,1.875-2.897,4.202-3.8,6.572   c-1.582,4.279-2.18,9.02-1.13,13.497c0.545,2.362,1.583,4.601,3.007,6.561C35.322,29.678,43.4,21.369,51.41,13   c4.508,3.752,8.912,7.635,13.386,11.438c5.09-3.006,10.645-5.205,16.392-6.572C81.613,11.997,82.011,6.127,82.438,0.26z    M87.508,5.675c-0.393,5.58-0.805,11.157-1.172,16.74c-7.87,1.212-15.473,4.229-22.006,8.795c-4.176-3.585-8.35-7.17-12.527-10.75   c-6.917,7.173-13.842,14.337-20.758,21.51c2.583,2.147,5.643,3.742,8.934,4.462c5.137,1.166,10.449,0.306,15.512-0.824   c7.008-1.6,14.027-3.54,21.266-3.62c6.063-0.115,12.228,1.202,17.479,4.303c4.115,2.375,7.567,5.75,10.475,9.478   c3.099,4.002,5.44,8.657,6.383,13.649c11.181-11.173,22.353-22.353,33.535-33.524c-7.229-6.107-15.341-11.658-24.647-13.947   c-0.37-5.493-0.725-10.985-1.09-16.48C108.431,5.55,97.968,5.59,87.508,5.675z M125.291,83.689   c6.597,1.221,12.524,4.863,17.305,9.478c3.422,3.226,6.205,7.16,7.93,11.545c1.862,4.675,2.482,9.775,2.245,14.78   c-0.265,6.107-1.76,12.064-3.157,17.99c-1.183,5.07-2.291,10.305-1.572,15.527c0.507,3.93,2.22,7.657,4.746,10.695   c7.171-6.91,14.328-13.836,21.504-20.743c-3.563-4.197-7.17-8.357-10.748-12.542c4.543-6.521,7.611-14.105,8.76-21.973   c5.59-0.43,11.186-0.793,16.777-1.2c0.083-10.462,0.125-20.923,0.207-31.382c-5.491-0.368-10.984-0.723-16.477-1.091   c-2.295-9.308-7.838-17.42-13.95-24.647C147.666,61.31,136.48,72.502,125.291,83.689z M48.979,74.467   c-2.683,1.518-4.623,4.24-5.221,7.261c-4.79-0.78-9.457-2.272-13.82-4.4c-5.047,0.485-10.09,1.101-15.135,1.635   c0.266,10,0.527,20.003,0.79,30.003c5.522,0.397,11.045,0.79,16.567,1.185c1.721,6.698,3.988,13.317,7.423,19.345   c3.463,0.373,6.928,0.713,10.392,1.053c5.799-5.822,11.621-11.619,17.431-17.43c-4.107-6.025-6.367-13.2-6.952-20.439   c3.313-2.273,5.16-6.471,4.518-10.448c-0.492-3.563-2.925-6.77-6.21-8.228C55.673,72.587,51.916,72.762,48.979,74.467z    M99.123,73.42c-3.813,0.572-7.438,2.313-10.263,4.93c-2.925,2.678-5.003,6.263-5.845,10.138c-0.88,3.955-0.495,8.18,1.103,11.905   c1.882,4.444,5.485,8.127,9.885,10.112c3.795,1.732,8.155,2.188,12.23,1.298c3.904-0.833,7.52-2.918,10.215-5.86   c5.225-5.527,6.635-14.213,3.489-21.128c-1.77-4.018-4.944-7.393-8.837-9.415C107.45,73.487,103.189,72.797,99.123,73.42z    M64.203,144.779c0.357,3.465,0.668,6.938,1.064,10.402c6.03,3.421,12.643,5.695,19.338,7.41c0.393,5.523,0.785,11.048,1.186,16.57   c10,0.26,20.002,0.527,30.002,0.787c0.512-4.654,1.02-9.31,1.537-13.962c0.041-0.57,0.253-1.19-0.112-1.7   c-2.034-4.168-3.35-8.655-4.159-13.213c1.135-0.302,2.267-0.654,3.282-1.26c2.904-1.645,4.955-4.705,5.33-8.027   c0.415-3.225-0.733-6.605-3.043-8.893c-2.341-2.4-5.848-3.567-9.16-3.075c-2.944,0.393-5.647,2.103-7.345,4.528   c-7.263-0.588-14.457-2.857-20.495-6.988C75.813,133.16,70.013,138.975,64.203,144.779z"/>
  <path fill="#808080" d="M55.49,45.607c7.008-1.6,14.027-3.54,21.266-3.62c6.063-0.115,12.228,1.202,17.479,4.303    c4.115,2.375,7.567,5.75,10.475,9.478c3.099,4.002,5.44,8.657,6.383,13.649c11.181-11.173,22.353-22.353,33.535-33.524    c-7.229-6.107-15.341-11.658-24.647-13.947c-0.37-5.493-0.725-10.985-1.09-16.48c-10.46,0.085-20.923,0.125-31.383,0.21    c-0.393,5.58-0.805,11.157-1.172,16.74c-7.87,1.212-15.473,4.229-22.006,8.795c-4.176-3.585-8.35-7.17-12.527-10.75    c-6.917,7.173-13.842,14.337-20.758,21.51c2.583,2.147,5.643,3.742,8.934,4.462C45.115,47.598,50.428,46.737,55.49,45.607z"/>
  <path fill="#808080" d="M189.08,107.247c0.083-10.462,0.125-20.923,0.207-31.382c-5.491-0.368-10.984-0.723-16.477-1.091    c-2.295-9.308-7.838-17.42-13.95-24.647c-11.194,11.183-22.38,22.375-33.569,33.563c6.597,1.221,12.524,4.863,17.305,9.478    c3.422,3.226,6.205,7.16,7.93,11.545c1.862,4.675,2.482,9.775,2.245,14.78c-0.265,6.107-1.76,12.064-3.157,17.99    c-1.183,5.07-2.291,10.305-1.572,15.527c0.507,3.93,2.22,7.657,4.746,10.695c7.171-6.91,14.328-13.836,21.504-20.743    c-3.563-4.197-7.17-8.357-10.748-12.542c4.543-6.521,7.611-14.105,8.76-21.973C177.893,108.018,183.488,107.654,189.08,107.247z"/>
  <path fill="#808080" d="M60.453,92.678c3.313-2.273,5.16-6.471,4.518-10.448c-0.492-3.563-2.925-6.77-6.21-8.228    c-3.088-1.415-6.845-1.24-9.782,0.465c-2.683,1.518-4.623,4.24-5.221,7.261c-4.79-0.78-9.457-2.272-13.82-4.4    c-5.047,0.485-10.09,1.101-15.135,1.635c0.266,10,0.527,20.003,0.79,30.003c5.522,0.397,11.045,0.79,16.567,1.185    c1.721,6.698,3.988,13.317,7.423,19.345c3.463,0.373,6.928,0.713,10.392,1.053c5.799-5.822,11.621-11.619,17.431-17.43    C63.298,107.092,61.038,99.917,60.453,92.678z"/>
  <path fill="#808080" d="M111.101,75.399c-3.65-1.912-7.911-2.603-11.978-1.979c-3.813,0.572-7.438,2.313-10.263,4.93    c-2.925,2.678-5.003,6.263-5.845,10.138c-0.88,3.955-0.495,8.18,1.103,11.905c1.882,4.444,5.485,8.127,9.885,10.112    c3.795,1.732,8.155,2.188,12.23,1.298c3.904-0.833,7.52-2.918,10.215-5.86c5.225-5.527,6.635-14.213,3.489-21.128    C118.168,80.797,114.993,77.422,111.101,75.399z"/>
  <path fill="#808080" d="M109.468,129.819c-2.944,0.393-5.647,2.103-7.345,4.528c-7.263-0.588-14.457-2.857-20.495-6.988    c-5.815,5.801-11.615,11.615-17.425,17.42c0.357,3.465,0.668,6.938,1.064,10.402c6.03,3.421,12.643,5.695,19.338,7.41    c0.393,5.523,0.785,11.048,1.186,16.57c10,0.26,20.002,0.527,30.002,0.787c0.512-4.654,1.02-9.31,1.537-13.962    c0.041-0.57,0.253-1.19-0.112-1.7c-2.034-4.168-3.35-8.655-4.159-13.213c1.135-0.302,2.267-0.654,3.282-1.26    c2.904-1.645,4.955-4.705,5.33-8.027c0.415-3.225-0.733-6.605-3.043-8.893C116.287,130.494,112.78,129.327,109.468,129.819z"/>
</svg>
