<?xml version="1.0" encoding="utf-8"?>
<svg xmlns="http://www.w3.org/2000/svg" xmlns:xlink="http://www.w3.org/1999/xlink" version="1.1" id="Layer_1" x="0px" y="0px" width="194.756px" height="194.755px">
  <path d="M82.438,0.26c13.85-0.085,27.698-0.175,41.548-0.26c0.388,5.925,0.777,11.85,1.169,17.774   c2.644,0.905,5.201,2.051,7.668,3.355c18.94-5.317,37.871-10.678,56.809-16.005c-5.328,18.939-10.695,37.87-16.006,56.814   c1.309,2.463,2.448,5.015,3.354,7.655c5.925,0.4,11.852,0.785,17.777,1.175c-0.08,13.845-0.186,27.69-0.253,41.535   c-5.87,0.45-11.742,0.833-17.612,1.26c-1.373,5.748-3.568,11.306-6.572,16.396c3.8,4.47,7.68,8.875,11.435,13.383   c-8.357,8.027-16.71,16.066-25.013,24.152c3.038,2.225,6.766,3.442,10.522,3.539c4.105,0.121,8.212-0.864,11.903-2.64   c1.527-0.747,3.002-1.64,4.244-2.808c-2.109,6.193-6.098,11.742-11.292,15.723c-7.391,5.647-17.258,7.758-26.353,5.955   c-9.425-1.797-17.883-7.452-23.697-15.013c-0.443,4.423-0.893,8.843-1.335,13.265c-13.341-0.342-26.681-0.697-40.021-1.049   c-0.422-5.878-0.838-11.758-1.265-17.636c-4.603-1.353-9.12-3.018-13.44-5.107c-11.012,11.008-22.02,22.022-33.033,33.03   c0.006-10.985-0.026-21.973-0.017-32.958c-10.985,0-21.973-0.024-32.958-0.017c11.008-11.014,22.023-22.021,33.028-33.033   c-2.093-4.32-3.753-8.84-5.108-13.442c-5.877-0.425-11.757-0.84-17.635-1.263c-0.35-13.34-0.707-26.68-1.05-40.02   c4.418-0.445,8.838-0.893,13.258-1.338c-6.323-4.883-11.304-11.58-13.798-19.192c-2.112-6.343-2.391-13.31-0.604-19.765   c1.702-6.44,5.495-12.293,10.667-16.488c3.11-2.532,6.643-4.577,10.452-5.847c-1.735,1.875-2.897,4.202-3.8,6.572   c-1.582,4.28-2.18,9.02-1.13,13.497c0.545,2.363,1.583,4.601,3.007,6.561C35.322,29.677,43.4,21.37,51.41,13   c4.508,3.752,8.912,7.635,13.386,11.438c5.09-3.005,10.645-5.205,16.392-6.573C81.613,11.997,82.011,6.127,82.438,0.26z    M87.508,5.675c-0.393,5.58-0.805,11.157-1.172,16.74c-7.87,1.212-15.473,4.229-22.006,8.795c-4.176-3.585-8.35-7.17-12.527-10.75   c-6.917,7.172-13.842,14.337-20.758,21.51c2.583,2.147,5.643,3.742,8.934,4.463c5.137,1.164,10.449,0.305,15.512-0.825   c7.008-1.601,14.027-3.54,21.266-3.62c6.063-0.115,12.228,1.202,17.479,4.303c4.115,2.375,7.567,5.75,10.475,9.477   c3.099,4.003,5.44,8.658,6.383,13.65c11.181-11.172,22.353-22.353,33.535-33.524c-7.229-6.108-15.341-11.658-24.647-13.948   c-0.37-5.492-0.725-10.984-1.09-16.479C108.431,5.55,97.968,5.59,87.508,5.675z M125.291,83.689   c6.597,1.22,12.524,4.862,17.305,9.478c3.422,3.225,6.205,7.16,7.93,11.545c1.862,4.676,2.482,9.775,2.245,14.78   c-0.265,6.107-1.76,12.065-3.157,17.99c-1.183,5.069-2.291,10.305-1.572,15.527c0.507,3.93,2.22,7.657,4.746,10.694   c7.171-6.909,14.328-13.834,21.504-20.742c-3.563-4.197-7.17-8.357-10.748-12.542c4.543-6.521,7.611-14.105,8.76-21.973   c5.59-0.431,11.186-0.792,16.777-1.2c0.083-10.463,0.125-20.922,0.207-31.383c-5.491-0.367-10.984-0.723-16.477-1.09   c-2.295-9.307-7.838-17.42-13.95-24.647C147.666,61.31,136.48,72.502,125.291,83.689z M48.979,74.468   c-2.683,1.517-4.623,4.239-5.221,7.26c-4.79-0.78-9.457-2.273-13.82-4.4c-5.047,0.485-10.09,1.1-15.135,1.635   c0.266,10,0.527,20.003,0.79,30.003c5.522,0.397,11.045,0.79,16.567,1.185c1.721,6.697,3.988,13.318,7.423,19.346   c3.463,0.372,6.928,0.712,10.392,1.052c5.799-5.822,11.621-11.62,17.431-17.43c-4.107-6.024-6.367-13.2-6.952-20.44   c3.313-2.271,5.16-6.47,4.518-10.447c-0.492-3.563-2.925-6.77-6.21-8.228C55.673,72.587,51.916,72.763,48.979,74.468z    M99.123,73.42c-3.813,0.572-7.438,2.313-10.263,4.93c-2.925,2.678-5.003,6.263-5.845,10.138c-0.88,3.955-0.495,8.18,1.103,11.904   c1.882,4.445,5.485,8.128,9.885,10.113c3.795,1.732,8.155,2.188,12.23,1.297c3.904-0.832,7.52-2.917,10.215-5.859   c5.225-5.527,6.635-14.213,3.489-21.128c-1.77-4.018-4.944-7.393-8.837-9.415C107.45,73.487,103.189,72.797,99.123,73.42z    M64.203,144.78c0.357,3.465,0.668,6.938,1.064,10.402c6.03,3.42,12.643,5.694,19.338,7.41c0.393,5.521,0.785,11.047,1.186,16.569   c10,0.26,20.002,0.527,30.002,0.788c0.512-4.655,1.02-9.311,1.537-13.963c0.041-0.57,0.253-1.19-0.112-1.7   c-2.034-4.167-3.35-8.655-4.159-13.212c1.135-0.303,2.267-0.655,3.282-1.261c2.904-1.645,4.955-4.705,5.33-8.027   c0.415-3.225-0.733-6.604-3.043-8.893c-2.341-2.399-5.848-3.567-9.16-3.075c-2.944,0.393-5.647,2.103-7.345,4.527   c-7.263-0.587-14.457-2.857-20.495-6.987C75.813,133.159,70.013,138.975,64.203,144.78z"/>
  <linearGradient id="SVGID_1_" gradientUnits="userSpaceOnUse" x1="-22.6631" y1="37.4404" x2="201.0523" y2="37.4404">
    <stop offset="0.2" style="stop-color:#BF331C"/>
    <stop offset="0.5" style="stop-color:#F6971D"/>
    <stop offset="0.8" style="stop-color:#BF331C"/>
  </linearGradient>
  <path fill="url(#SVGID_1_)" d="M55.49,45.607c7.008-1.601,14.027-3.54,21.266-3.62c6.063-0.115,12.228,1.202,17.479,4.303    c4.115,2.375,7.567,5.75,10.475,9.477c3.099,4.003,5.44,8.658,6.383,13.65c11.181-11.172,22.353-22.353,33.535-33.524    c-7.229-6.108-15.341-11.658-24.647-13.948c-0.37-5.492-0.725-10.984-1.09-16.479c-10.46,0.085-20.923,0.125-31.383,0.21    c-0.393,5.58-0.805,11.157-1.172,16.74c-7.87,1.212-15.473,4.229-22.006,8.795c-4.176-3.585-8.35-7.17-12.527-10.75    c-6.917,7.172-13.842,14.337-20.758,21.51c2.583,2.147,5.643,3.742,8.934,4.463C45.115,47.597,50.428,46.737,55.49,45.607z"/>
  <path fill="url(#SVGID_1_)" d="M189.08,107.247c0.083-10.463,0.125-20.922,0.207-31.383c-5.491-0.367-10.984-0.723-16.477-1.09    c-2.295-9.307-7.838-17.42-13.95-24.647c-11.194,11.183-22.38,22.375-33.569,33.563c6.597,1.22,12.524,4.862,17.305,9.478    c3.422,3.225,6.205,7.16,7.93,11.545c1.862,4.676,2.482,9.775,2.245,14.78c-0.265,6.107-1.76,12.065-3.157,17.99    c-1.183,5.069-2.291,10.305-1.572,15.527c0.507,3.93,2.22,7.657,4.746,10.694c7.171-6.909,14.328-13.834,21.504-20.742    c-3.563-4.197-7.17-8.357-10.748-12.542c4.543-6.521,7.611-14.105,8.76-21.973C177.893,108.017,183.488,107.655,189.08,107.247z"/>
  <path fill="url(#SVGID_1_)" d="M60.453,92.677c3.313-2.271,5.16-6.47,4.518-10.447c-0.492-3.563-2.925-6.77-6.21-8.228    c-3.088-1.415-6.845-1.239-9.782,0.466c-2.683,1.517-4.623,4.239-5.221,7.26c-4.79-0.78-9.457-2.273-13.82-4.4    c-5.047,0.485-10.09,1.1-15.135,1.635c0.266,10,0.527,20.003,0.79,30.003c5.522,0.397,11.045,0.79,16.567,1.185    c1.721,6.697,3.988,13.318,7.423,19.346c3.463,0.372,6.928,0.712,10.392,1.052c5.799-5.822,11.621-11.62,17.431-17.43    C63.298,107.093,61.038,99.917,60.453,92.677z"/>
  <path fill="url(#SVGID_1_)" d="M111.101,75.399c-3.65-1.912-7.911-2.603-11.978-1.979c-3.813,0.572-7.438,2.313-10.263,4.93    c-2.925,2.678-5.003,6.263-5.845,10.138c-0.88,3.955-0.495,8.18,1.103,11.904c1.882,4.445,5.485,8.128,9.885,10.113    c3.795,1.732,8.155,2.188,12.23,1.297c3.904-0.832,7.52-2.917,10.215-5.859c5.225-5.527,6.635-14.213,3.489-21.128    C118.168,80.797,114.993,77.422,111.101,75.399z"/>
  <path fill="url(#SVGID_1_)" d="M109.468,129.819c-2.944,0.393-5.647,2.103-7.345,4.527c-7.263-0.587-14.457-2.857-20.495-6.987    c-5.815,5.8-11.615,11.615-17.425,17.421c0.357,3.465,0.668,6.938,1.064,10.402c6.03,3.42,12.643,5.694,19.338,7.41    c0.393,5.521,0.785,11.047,1.186,16.569c10,0.26,20.002,0.527,30.002,0.788c0.512-4.655,1.02-9.311,1.537-13.963    c0.041-0.57,0.253-1.19-0.112-1.7c-2.034-4.167-3.35-8.655-4.159-13.212c1.135-0.303,2.267-0.655,3.282-1.261    c2.904-1.645,4.955-4.705,5.33-8.027c0.415-3.225-0.733-6.604-3.043-8.893C116.287,130.495,112.78,129.327,109.468,129.819z"/>
</svg>
