<?xml version="1.0" encoding="UTF-8" standalone="no"?><!DOCTYPE svg PUBLIC "-//W3C//DTD SVG 1.1//EN" "http://www.w3.org/Graphics/SVG/1.1/DTD/svg11.dtd"><svg width="100%" height="100%" viewBox="0 0 91 90" version="1.1" xmlns="http://www.w3.org/2000/svg" xmlns:xlink="http://www.w3.org/1999/xlink" xml:space="preserve" xmlns:serif="http://www.serif.com/" style="fill-rule:evenodd;clip-rule:evenodd;stroke-linejoin:round;stroke-miterlimit:2;"><rect id="Rare" x="0.033" y="0" width="90" height="90" style="fill:none;"/><clipPath id="_clip1"><rect x="0.033" y="0" width="90" height="90"/></clipPath><g clip-path="url(#_clip1)"><path d="M45.002,57.905l-2.2,-4.573c-1.743,-3.625 -4.08,-6.793 -7.019,-9.498l-1.9,-1.749l1.827,-1.824c2.667,-2.661 5.043,-5.941 7.147,-9.82l2.145,-3.955l-0,-0.057l0.015,0.029l0.016,-0.029l-0,0.057l2.144,3.955c2.104,3.879 4.481,7.159 7.147,9.82l1.828,1.824l-1.901,1.749c-2.939,2.705 -5.275,5.873 -7.019,9.498l-2.199,4.573l-0,0.064l-0.016,-0.032l-0.015,0.032l-0,-0.064Zm-23.456,-38.582c6.871,2.343 12.5,5.528 17.04,9.035l1.63,1.26l-0.943,1.831c-2.06,4.005 -4.742,7.521 -8.054,10.542c5.354,4.972 9.387,10.274 11.727,15.971l0.186,0.452l-0,12.919l-4.224,-4.214c-6.775,-6.759 -14.62,-11.081 -23.518,-13.006l-2.401,-0.52l0.502,-2.405c2.019,-9.685 3.521,-19.653 4.801,-29.831l0.379,-3.014l2.875,0.98Zm-12.601,6.446c1.563,0.173 3.079,0.636 4.563,1.279l1.833,0.794c0,0 -5.513,27.705 -5.513,27.705c9.322,1.017 18.163,6.787 23.096,12.263c-9.453,-4.072 -20.239,-5.828 -32.922,-4.291l6.632,-38.007l2.311,0.257Zm59.543,-6.446l2.875,-0.98l0.379,3.014c1.281,10.178 2.782,20.146 4.802,29.831l0.501,2.405l-2.401,0.52c-8.898,1.925 -16.743,6.247 -23.518,13.006l-4.223,4.214l-0,-12.919l0.185,-0.452c2.341,-5.697 6.373,-10.999 11.728,-15.971c-3.313,-3.021 -5.995,-6.537 -8.055,-10.542l-0.942,-1.831l1.63,-1.26c4.54,-3.507 10.168,-6.692 17.039,-9.035Zm12.601,6.446l2.312,-0.257l6.632,38.007c-12.683,-1.537 -23.47,0.219 -32.923,4.291c4.933,-5.476 13.774,-11.246 23.096,-12.263c-0,0 -5.513,-27.705 -5.513,-27.705l1.833,-0.794c1.485,-0.643 3.001,-1.106 4.563,-1.279Z"/><path d="M45.033,52.259c-1.881,-3.91 -4.403,-7.328 -7.574,-10.246c2.823,-2.818 5.346,-6.285 7.574,-10.392c2.227,4.107 4.75,7.574 7.573,10.392c-3.17,2.918 -5.692,6.336 -7.573,10.246Zm-24.285,-30.593c6.581,2.244 11.975,5.291 16.324,8.651c-2.343,4.554 -5.547,8.433 -9.627,11.623c6.107,5.243 10.701,10.851 13.212,16.963l-0,6.464c-7.127,-7.11 -15.384,-11.648 -24.743,-13.673c2.033,-9.749 3.545,-19.783 4.834,-30.028Zm-12.076,6.563c1.32,0.146 2.598,0.546 3.852,1.09l-5.669,28.487c6.451,0.242 11.96,2.132 16.86,5.087c-6.479,-2.061 -13.328,-2.962 -20.711,-2.18l5.668,-32.484Zm60.646,-6.563c1.288,10.245 2.801,20.279 4.834,30.028c-9.36,2.025 -17.616,6.563 -24.743,13.673l-0,-6.464c2.51,-6.112 7.104,-11.72 13.211,-16.963c-4.079,-3.19 -7.284,-7.069 -9.627,-11.623c4.349,-3.36 9.743,-6.407 16.325,-8.651Zm12.075,6.563l5.668,32.484c-7.383,-0.782 -14.231,0.119 -20.711,2.18c4.901,-2.955 10.409,-4.845 16.86,-5.087l-5.668,-28.487c1.253,-0.544 2.531,-0.944 3.851,-1.09Z" style="fill:url(#_Linear2);"/></g><defs><linearGradient id="_Linear2" x1="0" y1="0" x2="1" y2="0" gradientUnits="userSpaceOnUse" gradientTransform="matrix(84.0576,0,0,43.7013,3.00385,43.5167)"><stop offset="0" style="stop-color:#8d742f;stop-opacity:1"/><stop offset="0.07" style="stop-color:#967d38;stop-opacity:1"/><stop offset="0.18" style="stop-color:#ae954f;stop-opacity:1"/><stop offset="0.2" style="stop-color:#b39a54;stop-opacity:1"/><stop offset="0.22" style="stop-color:#b9a059;stop-opacity:1"/><stop offset="0.3" style="stop-color:#cab068;stop-opacity:1"/><stop offset="0.39" style="stop-color:#d4ba71;stop-opacity:1"/><stop offset="0.5" style="stop-color:#d7bd74;stop-opacity:1"/><stop offset="0.61" style="stop-color:#d4ba71;stop-opacity:1"/><stop offset="0.7" style="stop-color:#cab068;stop-opacity:1"/><stop offset="0.78" style="stop-color:#b9a059;stop-opacity:1"/><stop offset="0.8" style="stop-color:#b39a54;stop-opacity:1"/><stop offset="0.86" style="stop-color:#a38a45;stop-opacity:1"/><stop offset="0.94" style="stop-color:#937a35;stop-opacity:1"/><stop offset="1" style="stop-color:#8d742f;stop-opacity:1"/></linearGradient></defs></svg>