<?xml version="1.0" encoding="UTF-8" standalone="no"?><!DOCTYPE svg PUBLIC "-//W3C//DTD SVG 1.1//EN" "http://www.w3.org/Graphics/SVG/1.1/DTD/svg11.dtd"><svg width="100%" height="100%" viewBox="0 0 91 90" version="1.1" xmlns="http://www.w3.org/2000/svg" xmlns:xlink="http://www.w3.org/1999/xlink" xml:space="preserve" xmlns:serif="http://www.serif.com/" style="fill-rule:evenodd;clip-rule:evenodd;stroke-linejoin:round;stroke-miterlimit:2;"><rect id="Uncommon" x="0.065" y="0" width="90" height="90" style="fill:none;"/><clipPath id="_clip1"><rect x="0.065" y="0" width="90" height="90"/></clipPath><g clip-path="url(#_clip1)"><path d="M45.034,57.905l-2.199,-4.573c-1.744,-3.625 -4.08,-6.793 -7.02,-9.498l-1.9,-1.749l1.828,-1.824c2.666,-2.661 5.043,-5.941 7.147,-9.82l2.144,-3.955l0,-0.057l0.016,0.029l0.015,-0.029l0,0.057l2.145,3.955c2.104,3.879 4.48,7.159 7.146,9.82l1.828,1.824l-1.9,1.749c-2.939,2.705 -5.276,5.873 -7.019,9.498l-2.2,4.573l0,0.064l-0.015,-0.032l-0.016,0.032l0,-0.064Zm-23.455,-38.582c6.871,2.343 12.499,5.528 17.039,9.035l1.63,1.26l-0.942,1.831c-2.06,4.005 -4.742,7.521 -8.055,10.542c5.355,4.972 9.387,10.274 11.728,15.971l0.185,0.452l0,12.919l-4.223,-4.214c-6.775,-6.759 -14.621,-11.081 -23.518,-13.006l-2.401,-0.52l0.501,-2.405c2.02,-9.685 3.521,-19.653 4.802,-29.831l0.379,-3.014l2.875,0.98Zm-12.601,6.446c1.562,0.173 3.078,0.636 4.563,1.279l1.833,0.794c-0,0 -5.513,27.705 -5.513,27.705c9.322,1.017 18.163,6.787 23.096,12.263c-9.453,-4.072 -20.24,-5.828 -32.923,-4.291l6.632,-38.007l2.312,0.257Zm59.543,-6.446l2.875,-0.98l0.379,3.014c1.28,10.178 2.782,20.146 4.801,29.831l0.502,2.405l-2.401,0.52c-8.898,1.925 -16.743,6.247 -23.519,13.006l-4.223,4.214l0,-12.919l0.186,-0.452c2.34,-5.697 6.373,-10.999 11.727,-15.971c-3.312,-3.021 -5.994,-6.537 -8.054,-10.542l-0.943,-1.831l1.63,-1.26c4.54,-3.507 10.169,-6.692 17.04,-9.035Zm12.601,6.446l2.311,-0.257l6.632,38.007c-12.683,-1.537 -23.469,0.219 -32.922,4.291c4.933,-5.476 13.774,-11.246 23.096,-12.263c-0,0 -5.513,-27.705 -5.513,-27.705l1.833,-0.794c1.484,-0.643 3,-1.106 4.563,-1.279Z"/><path d="M45.065,52.259c-1.881,-3.91 -4.403,-7.328 -7.573,-10.246c2.823,-2.818 5.346,-6.285 7.573,-10.392c2.228,4.107 4.751,7.574 7.574,10.392c-3.171,2.918 -5.693,6.336 -7.574,10.246Zm-24.285,-30.593c6.582,2.244 11.976,5.291 16.325,8.651c-2.343,4.554 -5.548,8.433 -9.627,11.623c6.107,5.243 10.701,10.851 13.211,16.963l0,6.464c-7.127,-7.11 -15.383,-11.648 -24.743,-13.673c2.033,-9.749 3.546,-19.783 4.834,-30.028Zm-12.075,6.563c1.32,0.146 2.598,0.546 3.851,1.09l-5.668,28.487c6.451,0.242 11.959,2.132 16.86,5.087c-6.48,-2.061 -13.328,-2.962 -20.711,-2.18l5.668,-32.484Zm60.645,-6.563c1.289,10.245 2.801,20.279 4.834,30.028c-9.359,2.025 -17.616,6.563 -24.743,13.673l0,-6.464c2.511,-6.112 7.105,-11.72 13.212,-16.963c-4.08,-3.19 -7.284,-7.069 -9.627,-11.623c4.349,-3.36 9.743,-6.407 16.324,-8.651Zm12.076,6.563l5.668,32.484c-7.383,-0.782 -14.232,0.119 -20.711,2.18c4.9,-2.955 10.409,-4.845 16.86,-5.087l-5.669,-28.487c1.254,-0.544 2.532,-0.944 3.852,-1.09Z" style="fill:url(#_Linear2);"/></g><defs><linearGradient id="_Linear2" x1="0" y1="0" x2="1" y2="0" gradientUnits="userSpaceOnUse" gradientTransform="matrix(84.0576,0,0,43.7013,3.03652,43.5167)"><stop offset="0" style="stop-color:#626e77;stop-opacity:1"/><stop offset="0.04" style="stop-color:#697780;stop-opacity:1"/><stop offset="0.11" style="stop-color:#7d8e98;stop-opacity:1"/><stop offset="0.2" style="stop-color:#9eb4c0;stop-opacity:1"/><stop offset="0.2" style="stop-color:#a0b6c2;stop-opacity:1"/><stop offset="0.2" style="stop-color:#a1b7c3;stop-opacity:1"/><stop offset="0.29" style="stop-color:#adc6d4;stop-opacity:1"/><stop offset="0.38" style="stop-color:#b5cede;stop-opacity:1"/><stop offset="0.5" style="stop-color:#b7d1e1;stop-opacity:1"/><stop offset="0.62" style="stop-color:#b5cede;stop-opacity:1"/><stop offset="0.71" style="stop-color:#adc6d4;stop-opacity:1"/><stop offset="0.8" style="stop-color:#a1b7c3;stop-opacity:1"/><stop offset="0.8" style="stop-color:#a0b6c2;stop-opacity:1"/><stop offset="0.85" style="stop-color:#8b9da8;stop-opacity:1"/><stop offset="0.91" style="stop-color:#74838d;stop-opacity:1"/><stop offset="0.96" style="stop-color:#67747d;stop-opacity:1"/><stop offset="1" style="stop-color:#626e77;stop-opacity:1"/></linearGradient></defs></svg>