<?xml version="1.0" encoding="UTF-8" standalone="no"?><!DOCTYPE svg PUBLIC "-//W3C//DTD SVG 1.1//EN" "http://www.w3.org/Graphics/SVG/1.1/DTD/svg11.dtd"><svg width="100%" height="100%" viewBox="0 0 91 90" version="1.1" xmlns="http://www.w3.org/2000/svg" xmlns:xlink="http://www.w3.org/1999/xlink" xml:space="preserve" xmlns:serif="http://www.serif.com/" style="fill-rule:evenodd;clip-rule:evenodd;stroke-linejoin:round;stroke-miterlimit:2;"><rect id="WM" x="0.079" y="0" width="90" height="90" style="fill:none;"/><path d="M45.079,52.259c-1.881,-3.91 -4.403,-7.328 -7.574,-10.246c2.823,-2.818 5.346,-6.285 7.574,-10.392c2.227,4.107 4.75,7.574 7.573,10.392c-3.17,2.918 -5.692,6.336 -7.573,10.246Zm-24.285,-30.593c6.581,2.244 11.975,5.291 16.325,8.651c-2.344,4.554 -5.548,8.433 -9.628,11.623c6.107,5.243 10.701,10.851 13.212,16.963l-0,6.464c-7.127,-7.11 -15.384,-11.648 -24.743,-13.673c2.033,-9.749 3.545,-19.783 4.834,-30.028Zm-12.076,6.563c1.32,0.146 2.598,0.546 3.852,1.09l-5.669,28.487c6.451,0.242 11.96,2.132 16.86,5.087c-6.479,-2.061 -13.328,-2.962 -20.711,-2.18l5.668,-32.484Zm60.646,-6.563c1.288,10.245 2.801,20.279 4.834,30.028c-9.36,2.025 -17.616,6.563 -24.743,13.673l-0,-6.464c2.51,-6.112 7.104,-11.72 13.211,-16.963c-4.079,-3.19 -7.284,-7.069 -9.627,-11.623c4.349,-3.36 9.743,-6.407 16.325,-8.651Zm12.075,6.563l5.668,32.484c-7.383,-0.782 -14.231,0.119 -20.711,2.18c4.901,-2.955 10.409,-4.845 16.86,-5.087l-5.668,-28.487c1.253,-0.544 2.531,-0.944 3.851,-1.09Z"/></svg>