<?xml version="1.0" encoding="UTF-8" standalone="no"?>
<svg xmlns="http://www.w3.org/2000/svg" version="1.1" width="600" height="335.95624">
  <path d="m 553.96434,335.95624 c -3.17541,0 -389.60543,-97.57905 -389.60543,-97.57905 L 136.73105,329.89159 4.9056381,296.46677 26.865771,203.43852 c -9.009286,-2.77848 -16.587793,-8.76006 -21.4524375,-16.9478 -5.22464687,-8.79697 -6.747733,-19.14473 -4.218487,-29.09556 L 8.9118162,126.96113 C 13.241073,109.93949 28.527319,98.04096 46.047425,98.04096 c 1.873857,0 3.756946,0.11077 5.630803,0.39655 L 60.724437,60.07421 120.43864,0 l 70.56043,15.72009 -6.19389,19.7632 c -10.89237,34.68944 -16.19086,79.39432 -7.97543,94.50518 l 394.22084,99.9883 c 20.55705,5.19695 32.96328,26.10477 27.76632,46.6249 l -7.71697,30.43403 c -4.32925,17.04933 -19.57857,28.92017 -37.1356,28.92017" style="fill:#808080"/>
  <path d="M 566.39826,248.40187 166.01122,146.86279 C 138.14336,120.25032 166.66698,29.78824 166.66698,29.78824 L 126.53136,20.88049 77.995679,69.6654 65.774067,121.40418 50.847823,117.61954 c -10.347755,-2.59386 -20.880126,3.6831 -23.510911,14.03085 l -7.71697,30.47095 c -2.630785,10.31084 3.646176,20.8709 13.993931,23.47399 l 16.043174,4.0708 -21.960133,92.9544 96.092886,24.37861 27.58171,-91.5144 397.83009,100.856 c 10.34775,2.63078 20.8432,-3.60926 23.47399,-13.95701 l 7.71697,-30.47095 c 2.63078,-10.38468 -3.64618,-20.91705 -13.99393,-23.51091"/>
</svg>
