<?xml version="1.0" encoding="UTF-8" standalone="no"?>
<svg xmlns="http://www.w3.org/2000/svg" version="1.1" width="600" height="335.95056">
  <radialGradient cx="0" cy="0" r="1" fx="0" fy="0" id="radialGradient764" gradientUnits="userSpaceOnUse" gradientTransform="matrix(23.748428,0,0,-23.748428,483.00098,146.38379)" spreadMethod="pad">
    <stop style="stop-color:#f6b91d" offset="0"/>
    <stop style="stop-color:#d3641c" offset="0.7"/>
    <stop style="stop-color:#bf331c" offset="1"/>
  </radialGradient>
  <path d="m 553.95499,335.95057 c -3.17535,0 -389.59886,-97.5774 -389.59886,-97.5774 L 136.72874,329.88602 4.9055555,296.46177 26.865317,203.43508 c -8.97221,-2.77843 -16.55059,-8.7599 -21.4520747,-16.94751 -5.22455883,-8.79682 -6.7476192,-19.1444 -4.2184159,-29.09506 L 8.9116659,126.95899 C 13.24085,109.93763 28.526838,98.0393 46.083571,98.0393 c 1.836903,0 3.719959,0.11077 5.593785,0.39655 L 60.723412,60.07319 120.43661,0 l 70.55924,15.71983 -6.19378,19.76286 c -10.89219,34.68885 -16.15367,79.39298 -7.9753,94.50359 l 394.25111,99.98661 c 20.48285,5.19686 32.96272,26.10433 27.72893,46.62411 l -7.71684,30.43351 c -4.29226,17.04905 -19.61517,28.91969 -37.13498,28.91969" style="fill:#ffffff"/>
  <path d="M 566.3887,248.39767 166.00842,146.86031 c -27.86739,-26.61202 0.65501,-117.07258 0.65501,-117.07258 l -40.13495,-8.90759 -48.534855,48.78409 -12.221406,51.7379 -14.925992,-3.78458 c -10.347581,-2.59382 -20.879774,3.68304 -23.510515,14.03062 l -7.716839,30.47044 c -2.630741,10.31066 3.646114,20.87054 13.993694,23.47359 l 16.042903,4.07072 -21.959762,92.95284 96.091262,24.3782 27.58124,-91.51285 397.82338,100.85429 c 10.34758,2.63074 20.87978,-3.60919 23.4736,-13.95677 l 7.75376,-30.47044 c 2.59382,-10.38451 -3.68304,-20.9167 -14.03062,-23.51052" style="fill:#bf331c"/>
  <g transform="matrix(9.2306692,0,0,-9.2306692,-4158.4124,1520.3931)">
    <path d="m 459.492,156.863 -1.281,-5.445 -0.145,-0.594 -0.589,0.153 -1.618,0.406 c -0.121,0.031 -0.246,0.047 -0.367,0.047 l 0,0 c -0.683,0 -1.277,-0.461 -1.449,-1.125 l 0,0 -0.836,-3.305 c -0.098,-0.387 -0.043,-0.789 0.164,-1.133 l 0,0 c 0.203,-0.344 0.531,-0.586 0.918,-0.683 l 0,0 1.738,-0.442 0.571,-0.144 -0.133,-0.575 -2.242,-9.496 9.281,-2.351 2.82,9.363 0.164,0.551 0.559,-0.141 43.098,-10.929 c 0.121,-0.032 0.246,-0.047 0.367,-0.047 l 0,0 c 0.683,0 1.277,0.465 1.449,1.129 l 0,0 0.836,3.3 c 0.098,0.387 0.039,0.789 -0.168,1.133 l 0,0 c -0.203,0.344 -0.527,0.586 -0.918,0.684 l 0,0 -43.375,11 -0.152,0.039 -0.114,0.109 c -2.82,2.692 -0.918,10.399 -0.273,12.672 l 0,0 -3.395,0.754 -4.91,-4.93 z" style="fill:url(#radialGradient764)"/>
  </g>
</svg>
