<?xml version="1.0" encoding="UTF-8" standalone="no"?>
<svg xmlns="http://www.w3.org/2000/svg" xmlns:xlink="http://www.w3.org/1999/xlink" version="1.1" width="600" height="335.94931">
  <radialGradient cx="0" cy="0" r="1" fx="0" fy="0" id="radialGradient748" gradientUnits="userSpaceOnUse" gradientTransform="matrix(23.748428,0,0,-23.748428,401,146.38379)" spreadMethod="pad">
    <stop style="stop-color:#d9eaf3" offset="0"/>
    <stop style="stop-color:#99aebc" offset="0.66291797"/>
    <stop style="stop-color:#536e78" offset="1"/>
  </radialGradient>
  <radialGradient cx="0" cy="0" r="1" fx="0" fy="0" id="radialGradient2990" xlink:href="#radialGradient748" gradientUnits="userSpaceOnUse" gradientTransform="matrix(219.21307,0,0,219.21307,299.9997,169.17215)" spreadMethod="pad"/>
  <path d="m 553.95293,335.94932 c -3.17534,0 -389.59741,-97.57704 -389.59741,-97.57704 L 136.72823,329.88479 4.9055372,296.46066 26.865217,203.43433 C 17.89304,200.65591 10.277766,194.67445 5.4132221,186.48688 0.18868278,177.69009 -1.334372,167.34254 1.194822,157.39192 l 7.7168107,-30.4334 C 13.2408,109.93723 28.526732,98.03894 46.083399,98.03894 c 1.836896,0 3.719946,0.11077 5.593765,0.39655 L 60.723186,60.07297 120.43616,0 l 70.55897,15.71977 -6.19375,19.76279 c -10.89215,34.68872 -16.15361,79.39269 -7.97527,94.50324 l 394.24964,99.98623 c 20.51971,5.19685 32.9626,26.10424 27.72883,46.62394 l -7.71681,30.4334 c -4.29224,17.04898 -19.57818,28.91958 -37.13484,28.91958" style="fill:#ffffff"/>
  <path d="M 566.38659,248.39675 166.00781,146.85977 c -27.86729,-26.61193 0.65574,-117.07215 0.65574,-117.07215 l -40.1348,-8.90756 -48.534677,48.78391 -12.221361,51.7377 -14.925936,-3.78456 c -10.347542,-2.5938 -20.879696,3.68303 -23.510427,14.03057 L 19.619538,162.118 c -2.630731,10.31062 3.646101,20.87047 13.993643,23.47351 l 16.042843,4.07071 -21.95968,92.95249 96.090906,24.37811 27.58114,-91.51252 397.8219,100.85392 c 10.34754,2.63073 20.87969,-3.60918 23.4735,-13.95672 l 7.75374,-30.47033 c 2.5938,-10.38446 -3.68303,-20.91661 -14.03057,-23.51042" style="fill:#536e78"/>
  <path d="m 83.005938,72.47931 -11.861365,50.22388 -1.30152,5.483 -5.436844,-1.41229 -14.935167,-3.78456 c -1.116907,-0.24922 -2.233814,-0.39691 -3.35072,-0.39691 l 0,0 c -6.341447,0 -11.861366,4.25532 -13.449035,10.38446 l 0,0 -7.716811,30.50725 c -0.86768,3.57225 -0.359995,7.24605 1.550747,10.45831 l 0,0 c 1.873818,3.17534 4.901467,5.40915 8.4368,6.30452 l 0,0 16.079766,4.04302 5.270692,1.36613 -1.264597,5.2707 -20.695083,87.69103 85.706439,21.70122 26.03039,-86.42643 1.51383,-5.08608 5.15992,1.30152 397.8219,100.8816 c 1.11691,0.29538 2.27074,0.43384 3.38765,0.43384 l 0,0 c 6.30452,0 11.82444,-4.29224 13.37519,-10.42138 l 0,0 7.71681,-30.4611 c 0.9046,-3.57225 0.35999,-7.31989 -1.55075,-10.45831 l 0,0 c -1.87382,-3.17534 -4.86454,-5.40915 -8.4368,-6.31375 l 0,0 -400.41571,-101.53699 -1.40305,-0.39691 -1.0523,-0.96922 C 136.15593,126.01699 153.7126,54.91341 159.66636,33.93218 l 0,0 -31.37493,-6.99682 -45.285492,45.54395 z" style="fill:url(#radialGradient2990)"/>
</svg>
