<?xml version="1.0" encoding="UTF-8" standalone="no"?>
<svg xmlns="http://www.w3.org/2000/svg" version="1.1" width="600" height="320.57999">
  <path d="M 38.712,0 561.42,0 c 12.096,30.144 25.968,59.999995 31.548,92.243995 C 596.052,104.58 597.228,117.228 600,129.612 l 0,54.648 c -2.484,15.048 -3.564,30.336 -7.176,45.144 -2.208,13.92 -7.404,27.048 -11.256,40.5 -6.084,17.25599 -12.984,34.26 -21.084,50.676 l -520.836,0 C 28.776,299.71199 20.904,277.45199 13.584,255.18 10.356,241.968 5.952,229.08 4.164,215.58 3.084,207.744 1.872,199.92 0,192.276 L 0,135.144 C 1.452,126 2.76,116.856 3.792,107.664 5.34,93.047995 9.984,79.031995 13.92,64.919995 20.196,42.564 29.808,21.372 38.712,0"/>
  <path d="m 233.532,191.34 c 5.904,15.24 12.036,30.708 14.34,46.968 -5.016,2.724 -10.548,4.356 -15.324,7.5 -10.98,7.08 -19.5,17.256 -25.788,28.59599 -5.676,-2.484 -11.34,-5.11199 -16.176,-9 -0.936,-2.064 -0.22752,-4.5 -0.27552,-6.70799 1.308,-14.436 -1.692,-28.872 -5.904,-42.6 -4.176,-13.224 -7.872,-26.676 -13.692,-39.336 -7.404,-17.532 -15.516,-35.148 -27.888,-49.824 -2.484,-2.16 -5.532,-7.128 -9.24,-4.272 -4.584,4.224 -4.68,11.724 -9.6,15.66 -6.384,1.788 -12,-2.484 -17.436,-5.064 -3.756,-2.016 -9.192,-4.632 -8.064,-9.84 2.616,-10.452 8.244,-19.92 10.92,-30.372005 0.17952,-3.336 1.68,-8.58 -2.388,-10.032 -5.532,-2.772 -12,-2.856 -17.532,-5.532 -2.304,-1.176 -2.532,-4.128 -1.032,-6.048 2.76,-4.032 5.616,-8.292 9.6,-11.208 8.448,-1.164 16.884,0.80448 25.272,0.70848 13.644,0.37152 27.276,-0.048 40.872,0.84 1.128,9.336 6.048,17.532 11.772,24.756 10.212,13.728005 16.968,30.000005 28.776,42.564005 1.644,1.452 3.324,3.372 5.676,3.516 3.792,-1.32 6.984,-4.176 11.016,-4.884 4.728,0.384 7.632,4.74 10.68,7.836 3.048,3.744 7.692,7.776 6.144,13.116 -1.872,5.352 -7.08,9.048 -7.824,14.868 -1.08,9.324 -0.41952,18.984 3.096,27.792 m 240.936,-120.144005 c 11.292,-4.68 22.164,-10.452 33.792,-14.34 -0.51648,16.92 0.192,33.888 -0.936,50.808005 -0.192,16.5 0.144,33.048 -0.096,49.596 0.288,2.904 -2.196,4.74 -4.08,6.468 -6.696,5.82 -13.164,11.916 -18.792,18.708 -1.356,1.776 -3.24,3.048 -5.256,3.984 1.5,-30.564 1.644,-61.176 -0.22752,-91.740005 -0.048,-1.632 -1.128,-3.42 -2.952,-3.276 -7.32,-0.61248 -14.628,0.41952 -21.936,-0.27648 -0.288,-3.384 -0.24,-6.756 -0.048,-10.128 6.18,-4.5 13.632,-6.612 20.532,-9.804 m -87,0 c 11.292,-4.68 22.164,-10.452 33.792,-14.34 -0.51648,16.92 0.192,33.888 -0.936,50.808005 -0.192,16.5 0.144,33.048 -0.096,49.596 0.288,2.904 -2.196,4.74 -4.08,6.468 -6.696,5.82 -13.164,11.916 -18.792,18.708 -1.356,1.776 -3.24,3.048 -5.256,3.984 1.5,-30.564 1.644,-61.176 -0.22752,-91.740005 -0.048,-1.632 -1.128,-3.42 -2.952,-3.276 -7.32,-0.61248 -14.628,0.41952 -21.936,-0.27648 -0.288,-3.384 -0.24,-6.756 -0.048,-10.128 6.18,-4.5 13.632,-6.612 20.532,-9.804 m -1.368,172.032005 c -0.42048,4.64399 -2.808,8.72399 -5.016,12.70799 -10.68,-1.176 -20.808,-5.436 -31.584,-6.096 -16.692,-2.244 -33.984,-2.388 -50.208,2.58 -5.904,1.824 -10.824,5.532 -16.128,8.58 -4.356,-4.404 -8.76,-8.856 -12.372,-13.92 8.16,-8.01599 19.404,-13.73999 23.952,-24.80399 3.372,-9.468 -1.92,-18.888 -5.244,-27.516 -6.468,-17.904 -16.416,-34.212 -24.048,-51.564 -1.5,-2.712 -2.676,-6.132 -5.628,-7.548 -4.128,0.56352 -8.016,4.272 -12.24,2.532 -4.356,-2.808 -7.536,-7.02 -10.824,-10.968 -2.676,-3.048 -3.984,-7.584 -2.196,-11.388 2.484,-3.792 6.276,-6.612 8.808,-10.404 3.228,-4.74 6.42,-9.564005 8.532,-14.904005 1.128,-2.388 -0.37248,-4.872 -2.16,-6.372 -7.128,-5.82 -16.08,-8.772 -23.628,-13.932 3,-5.148 6.336,-10.164 9.432,-15.276 5.904,0.41952 11.484,2.76 17.34,3.276 8.436,0.80352 16.92,0.80352 25.356,0.336 4.872,-0.288 9.372,-2.436 14.112,-3.144 4.212,1.968 7.92,4.872 11.856,7.26 -0.51648,6.24 -3.18,12.144 -2.34,18.48 1.128,9.42 3.096,18.84 7.212,27.420005 6.432,12.744 14.064,24.936 19.368,38.196 6.984,16.92 15.228,33.384 20.616,50.868 2.628,8.244 3.096,17.952 9.756,24.18 6.096,5.352 13.128,9.564 19.872,14.064 2.82,1.968 5.868,4.08 7.404,7.356 m 175.884,-69 c 0.0864,6.936 -0.984,13.788 -1.932,20.628 -1.02,6.792 -1.26,13.788 -2.712,20.532 -1.548,7.224 -3.66,14.292 -5.532,21.468 -3.324,15.04799 -9.372,29.33999 -15,43.69199 -0.37248,2.148 -2.808,1.968 -4.5,2.1 -151.224,-0.0384 -302.436,0 -453.708,0 -4.872,-0.18048 -9.936,0.70752 -14.664,-0.6 -3.708,-8.352 -7.08,-16.92 -9.756,-25.692 7.74,-4.728 16.872,-6.324 25.74,-7.596 10.212,-0.744 20.628,-0.696 30.744,1.08 0.336,-4.824 0.336,-9.69599 -0.096,-14.53199 -4.632,-3.18 -11.388,-5.292 -12.6,-11.58 -1.92,-9.132 1.68,-18.18 4.032,-26.904 2.052,-8.712 6.696,-16.404 9.888,-24.696 2.244,-6.048 7.308,-11.532 6.18,-18.384 -0.18048,-3.324 -3.6,-5.064 -6.228,-6.468 -4.788,-2.244 -9.756,-4.632 -15.096,-5.196 -3.468,-0.46848 -6.18,2.34 -7.548,5.148 -9,18.9 -13.968,39.336 -22.26,58.5 -4.368,11.352 -9.708,22.74 -18.564,31.272 -3.048,-6.516 -3.564,-13.788 -5.388,-20.628 -2.16,-10.776 -3.468,-21.708 -4.644,-32.532 -0.61248,-14.904 -0.51552,-29.808 -0.096,-44.76 1.224,-17.112 4.872,-33.936 8.112,-50.724005 5.016,-16.92 10.776,-33.66 17.436,-50.015995 1.692,-0.144 3.372,-0.37248 5.064,-0.42048 155.58,0.144 311.112,-0.096 466.692,0.144 3,4.584 4.632,9.887995 6.468,15.047995 4.032,12.048 8.436,23.952 11.856,36.228 2.112,11.724005 4.968,23.340005 6.096,35.256005 2.904,16.404 1.968,33.084 2.016,49.632 m 16.452,-54.936 c -2.016,-10.596 -3.336,-21.324005 -6.288,-31.728005 -1.968,-12.468 -7.116,-24.096 -10.632,-36.144 -3.9,-10.967995 -8.868,-21.515995 -13.32,-32.255995 -1.68,-0.0864 -3.324,-0.22848 -4.968,-0.27648 -157.68,0.048 -315.372,0 -473.064,0.048 -6.42,0.048 -12.84,-0.32352 -19.212,0.22848 -3.096,11.532 -9.336,21.85199 -12.804,33.239995 -5.064,16.224 -10.824,32.388 -13.824,49.176005 -3.516,16.308 -4.356,33.048 -4.5,49.632 -0.144,16.836 -0.144,33.708 1.596,50.436 1.452,11.352 4.26,22.416 6.744,33.516 2.904,15.432 9.468,29.724 14.352,44.48399 3.18,7.272 6.084,14.58 9,21.948 165.648,0.0864 331.308,0.0864 496.968,0 12.132,-29.952 24,-60.46799 28.584,-92.67599 3.516,-16.596 2.724,-33.612 3.66,-50.436 -0.84,-13.032 -0.51552,-26.208 -2.292,-39.192" style="fill:#808080"/>
</svg>
