<?xml version="1.0" encoding="UTF-8" standalone="no"?>
<svg xmlns="http://www.w3.org/2000/svg" version="1.1" width="600" height="320.33014">
  <linearGradient x1="0" y1="0" x2="1" y2="0" id="linearGradient988" gradientUnits="userSpaceOnUse" gradientTransform="matrix(-33.878906,-33.878906,-33.878906,33.878921,513.20508,51.842773)" spreadMethod="pad">
    <stop offset="0" style="stop-color:#bf331c"/>
    <stop offset="0.5" style="stop-color:#f6b91d"/>
    <stop offset="1" style="stop-color:#bf331c"/>
  </linearGradient>
  <path d="m 560.33493,320.33015 c 10.86353,-20.85174 18.72939,-43.09439 26.0317,-65.34903 C 589.6041,241.77942 600,204.11679 600,162.14953 600,120.18226 590.02378,78.970407 586.04288,64.869406 579.77177,42.53083 570.16726,21.35535 561.2702,0 L 38.69381,0 C 29.83273,21.35535 20.19225,42.53083 13.90915,64.869406 9.97621,78.970407 0,120.18226 0,162.14953 c 0,41.96726 10.39589,79.62989 13.5854,92.83159 7.35027,22.25464 15.21613,44.49729 26.04368,65.34903 l 520.70585,0 z" style="fill:#ffffff"/>
  <g transform="matrix(11.990647,0,0,-11.990647,-5650.5446,578.45281)">
    <path d="m 474.973,47.492 -0.18,-0.433 c -0.609,-1.438 -1.238,-2.922 -1.664,-4.43 l 0,0 c -0.191,-0.676 -1.137,-4.238 -1.137,-7.906 l 0,0 c 0,-3.129 0.727,-6.024 1.039,-7.258 l 0,0 0.063,-0.254 c 0.617,-1.879 1.187,-3.457 1.922,-4.934 l 0,0 42.5,0 c 0.785,1.59 1.386,3.301 1.902,4.879 l 0,0 0.074,0.285 c 0.313,1.239 1.043,4.137 1.043,7.282 l 0,0 c 0,3.668 -0.945,7.23 -1.133,7.906 l 0,0 c -0.422,1.492 -1.047,2.969 -1.648,4.394 l 0,0 -0.195,0.469 -42.586,0 z" style="fill:url(#linearGradient988)"/>
  </g>
  <path d="m 233.30202,191.19087 c 5.8994,15.27609 12.03861,30.68407 14.32882,46.9314 -5.01209,2.76984 -10.52779,4.40057 -15.31205,7.54212 -10.91149,7.07448 -19.48481,17.24255 -25.75591,28.52575 -5.62362,-2.43411 -11.34316,-5.06006 -16.11543,-8.94503 -0.98324,-2.06239 -0.28778,-4.49649 -0.32327,-6.70277 1.30698,-14.42475 -1.69068,-28.8495 -5.91139,-42.5668 -4.16076,-13.21369 -7.8179,-26.65521 -13.66934,-39.30534 -7.39823,-17.51834 -15.50391,-35.1326 -27.86626,-49.78517 -2.48207,-2.20628 -5.52769,-7.1704 -9.2328,-4.26867 -4.59242,4.22071 -4.68834,11.71487 -9.60451,15.59984 -6.31907,1.83456 -11.99065,-2.43411 -17.42241,-5.06006 -3.74108,-1.96646 -9.18484,-4.59242 -8.05772,-9.78437 2.62596,-10.44385 8.24957,-19.95243 10.91149,-30.396287 0.23982,-3.285437 1.69068,-8.573313 -2.38614,-9.976219 -5.52768,-2.769839 -11.99064,-2.901736 -17.51833,-5.575651 -2.24225,-1.175083 -2.53003,-4.124782 -1.0312,-5.995323 2.76984,-4.028858 5.67158,-8.297528 9.65247,-11.247227 8.38147,-1.115131 16.81089,0.851815 25.20434,0.75589 13.62138,0.37123 27.25475,-0.04796 40.84015,0.839345 1.12712,9.328724 6.04329,17.470373 11.75083,24.736706 10.21603,13.717296 16.95478,29.928656 28.76557,42.530826 1.63072,1.45087 3.36937,3.36937 5.65958,3.4653 3.80104,-1.31898 6.97856,-4.12479 11.00742,-4.83223 4.7363,0.3837 7.686,4.68834 10.73163,7.82989 2.99766,3.69312 7.63804,7.76994 6.09124,13.10578 -1.88253,5.34782 -7.07448,9.04094 -7.82989,14.85641 -1.07916,9.31673 -0.42015,18.9692 3.09359,27.72237 M 474.05072,71.188956 c 11.29519,-4.676352 22.15871,-10.443853 33.77765,-14.376786 -0.51608,16.954776 0.18034,33.909551 -0.93527,50.7684 -0.19185,16.5351 0.13142,33.07021 -0.0959,49.60531 0.27531,2.85377 -2.20628,4.7363 -4.07682,6.46296 -6.70277,5.81546 -13.16573,11.85875 -18.78934,18.69342 -1.35494,1.77461 -3.17752,3.04562 -5.19195,3.98089 1.49883,-30.54018 1.59475,-61.17628 -0.28778,-91.668497 -0.0384,-1.630728 -1.11513,-3.417334 -2.9497,-3.273447 -7.3023,-0.659965 -14.6046,0.419193 -21.9189,-0.323267 -0.2283,-3.3334 -0.2283,-6.702772 -0.048,-10.072144 6.18717,-4.496493 13.63336,-6.606847 20.516,-9.796359 m -86.9322,0 c 11.29519,-4.676352 22.15872,-10.443854 33.77766,-14.376786 -0.51608,16.954775 0.18034,33.90955 -0.93527,50.7684 -0.19185,16.5351 0.13141,33.07021 -0.0959,49.60531 0.27531,2.85377 -2.20628,4.7363 -4.07682,6.46296 -6.70277,5.81546 -13.16573,11.85875 -18.78934,18.69342 -1.35495,1.77461 -3.17753,3.04562 -5.19195,3.98089 1.49883,-30.54018 1.59475,-61.17628 -0.28778,-91.668497 -0.0384,-1.630728 -1.11513,-3.417335 -2.9497,-3.273447 -7.3023,-0.659965 -14.60461,0.419193 -21.9189,-0.323268 -0.2283,-3.3334 -0.2283,-6.702772 -0.048,-10.072144 6.18717,-4.496492 13.63336,-6.606846 20.51599,-9.796358 m -1.3549,171.897914 c -0.37123,4.59242 -2.80581,8.66924 -4.96413,12.6981 -10.73163,-1.17508 -20.83974,-5.43176 -31.61933,-6.09125 -16.667,-2.24225 -33.95752,-2.4341 -50.15688,2.57799 -5.91139,1.77462 -10.82756,5.52769 -16.11543,8.57331 -4.35263,-4.44853 -8.76519,-8.86108 -12.36238,-13.90915 8.14165,-8.00975 19.38888,-13.72929 23.93333,-24.83263 3.36937,-9.41266 -1.9185,-18.82531 -5.2519,-27.49455 -6.46296,-17.84209 -16.34325,-34.13738 -24.02926,-51.47585 -1.49883,-2.70989 -2.66192,-6.12722 -5.61162,-7.54212 -4.12479,0.56404 -8.00975,4.26867 -12.23046,2.53003 -4.35261,-2.80581 -7.54212,-7.02652 -10.81557,-10.95945 -2.67391,-3.09359 -3.98089,-7.59008 -2.20628,-11.37913 2.48207,-3.78904 6.27111,-6.60684 8.80114,-10.39589 3.28544,-4.7363 6.42699,-9.604507 8.52535,-14.892382 1.12712,-2.39813 -0.37123,-4.880194 -2.14633,-6.379025 -7.12244,-5.851435 -16.0195,-8.801135 -23.60958,-13.90915 2.99766,-5.191951 6.31907,-10.156079 9.46062,-15.264094 5.85144,0.419193 11.42709,2.757848 17.27852,3.273446 8.44142,0.803853 16.91881,0.803853 25.34823,0.335738 4.8682,-0.287775 9.3647,-2.434101 14.08901,-3.141549 4.22071,1.966466 7.92582,4.82024 11.85875,7.254341 -0.51608,6.187174 -3.14155,12.134535 -2.35017,18.417635 1.12713,9.46062 3.09359,18.825316 7.26634,27.44659 6.36703,12.73407 14.00507,24.8686 19.29295,38.16623 6.97856,16.85885 15.22812,33.31002 20.65988,50.81636 2.62596,8.20161 3.04563,17.90204 9.70044,24.17315 6.07926,5.33584 13.10578,9.55655 19.85651,14.05304 2.85377,1.96646 5.8994,4.07682 7.39823,7.35026 m 175.73493,-68.99418 c 0.0959,6.97856 -0.98324,13.82522 -1.91851,20.65989 -1.03119,6.7867 -1.25902,13.72929 -2.70988,20.51599 -1.5468,7.20638 -3.65715,14.2329 -5.52769,21.40331 -3.3334,15.08423 -9.37669,29.36509 -14.98831,43.70591 -0.3837,2.14632 -2.8178,1.96646 -4.49649,2.09836 -151.10614,-0.048 -302.21228,-0.048 -453.30642,0 -4.86821,-0.18034 -9.92826,0.70793 -14.71253,-0.64749 -3.69312,-8.34549 -7.07448,-16.87084 -9.7364,-25.62402 7.72197,-4.7363 16.85885,-6.31907 25.70794,-7.59008 10.21603,-0.74342 20.61193,-0.69545 30.73203,1.07916 0.32327,-4.82024 0.32327,-9.70043 -0.0959,-14.52067 -4.64038,-3.18951 -11.37913,-5.28788 -12.60217,-11.57098 -1.91851,-9.17284 1.73864,-18.16583 4.02885,-26.93099 2.0624,-8.65725 6.70278,-16.39122 9.8803,-24.67675 2.3022,-5.99533 7.31429,-11.47505 6.23513,-18.32171 -0.23981,-3.32141 -3.65714,-5.06005 -6.2831,-6.46296 -4.77227,-2.29021 -9.7364,-4.67635 -15.07224,-5.23991 -3.4653,-0.46716 -6.18717,2.33817 -7.54212,5.19195 -8.99298,18.87328 -13.95711,39.30534 -22.25464,58.4544 -4.3526,11.29519 -9.64048,22.72228 -18.54953,31.19967 -3.03363,-6.46296 -3.54923,-13.72929 -5.3838,-20.61193 -2.14633,-10.71964 -3.4653,-21.64311 -4.62839,-32.45868 -0.61104,-14.89238 -0.51512,-29.83273 -0.0959,-44.72511 1.21105,-17.09867 4.8682,-33.92154 8.09368,-50.684469 5.01209,-16.906812 10.77959,-33.681728 17.4344,-49.977021 1.67869,-0.19185 3.36938,-0.37219 5.04807,-0.42015 155.45874,0.14389 310.86952,-0.14389 466.32826,0.14389 3.04562,4.53246 4.68834,9.880292 6.46296,15.036271 4.02886,12.026619 8.42942,23.933332 11.84676,36.151801 2.11035,11.762828 4.96413,23.369768 6.09125,35.276488 2.90173,16.39121 1.96646,33.05821 2.01443,49.54535 m 16.43917,-54.84522 C 575.92329,108.66021 574.61631,97.94057 571.71458,87.544679 569.70015,75.086396 564.59213,63.467459 561.03091,51.380887 557.1939,40.42144 552.22978,29.88166 547.78125,19.15003 c -1.69069,-0.0384 -3.38137,-0.22831 -5.01209,-0.22831 -157.5691,0.048 -315.1382,0 -472.6953,0 -6.415,0.0959 -12.83,-0.28777 -19.20902,0.27627 -3.09359,11.47505 -9.31673,21.78701 -12.73407,33.16613 -5.10801,16.247327 -10.86352,32.362757 -13.86119,49.18563 -3.51325,16.29529 -4.36459,32.97428 -4.49649,49.59332 -0.14389,16.82288 -0.0959,33.68173 1.58277,50.34873 1.45087,11.39111 4.26867,22.44649 6.79869,33.53784 2.90174,15.37201 9.41266,29.70083 14.32883,44.44933 3.14155,7.26633 6.04328,14.56864 8.94502,21.93089 165.53089,0.0863 331.06177,0.0863 496.58067,0 12.13453,-29.94064 23.98129,-60.43286 28.57371,-92.60377 3.51326,-16.58306 2.72188,-33.5858 3.70511,-50.39669 -0.89882,-13.0698 -0.56404,-26.18757 -2.35017,-39.16145"/>
</svg>
