<?xml version="1.0" encoding="UTF-8" standalone="no"?>
<svg xmlns="http://www.w3.org/2000/svg" version="1.1" width="600" height="320.57999">
  <path d="M 38.712891 0 C 29.808891 21.372 20.195922 42.563927 13.919922 64.919922 C 9.9839219 79.031922 5.3409688 93.048057 3.7929688 107.66406 C 2.7609687 116.85606 1.452 126.00053 0 135.14453 L 0 192.27539 C 1.872 199.91939 3.0840625 207.74408 4.1640625 215.58008 C 5.9520625 229.08008 10.355984 241.96769 13.583984 255.17969 C 20.903984 277.45168 28.776437 299.71207 39.648438 320.58008 L 560.48438 320.58008 C 568.58437 304.16408 575.48436 287.16029 581.56836 269.9043 C 585.42036 256.4523 590.61622 243.3243 592.82422 229.4043 C 596.43622 214.5963 597.516 199.30777 600 184.25977 L 600 129.61133 C 597.228 117.22733 596.05275 104.58015 592.96875 92.244141 C 587.38875 60.000141 573.51592 30.144 561.41992 0 L 38.712891 0 z M 60.541016 18.859375 C 63.745016 18.877255 66.956016 18.957594 70.166016 18.933594 C 227.85802 18.885594 385.54852 18.934719 543.22852 18.886719 C 544.87252 18.934719 546.51727 19.075709 548.19727 19.162109 C 552.64927 29.902109 557.61758 40.451927 561.51758 51.419922 C 565.03358 63.467922 570.18239 75.0945 572.15039 87.5625 C 575.10239 97.9665 576.4215 108.69502 578.4375 119.29102 C 580.21398 132.27502 579.88852 145.45042 580.72852 158.48242 C 579.79252 175.30642 580.58631 192.32392 577.07031 208.91992 C 572.48631 241.12792 560.61833 271.6437 548.48633 301.5957 C 382.82633 301.6821 217.16558 301.6821 51.517578 301.5957 C 48.601578 294.2277 45.697578 286.91848 42.517578 279.64648 C 37.633578 264.88649 31.070016 250.59411 28.166016 235.16211 C 25.682016 224.06211 22.873875 212.99848 21.421875 201.64648 C 19.681875 184.91848 19.682172 168.04694 19.826172 151.21094 C 19.970172 134.62694 20.810172 117.88612 24.326172 101.57812 C 27.326172 84.79012 33.086391 68.626344 38.150391 52.402344 C 41.618391 41.014339 47.857125 30.694109 50.953125 19.162109 C 54.139125 18.886109 57.337016 18.841495 60.541016 18.859375 z M 68.857422 37.919922 C 67.165422 37.967922 65.484969 38.195844 63.792969 38.339844 C 57.132969 54.695839 51.373422 71.435469 46.357422 88.355469 C 43.117422 105.14347 39.470094 121.96808 38.246094 139.08008 C 37.826574 154.03208 37.729317 168.93584 38.341797 183.83984 C 39.517797 194.66384 40.826328 205.59509 42.986328 216.37109 C 44.810328 223.21109 45.325047 230.484 48.373047 237 C 57.229047 228.468 62.5695 217.07856 66.9375 205.72656 C 75.2295 186.56256 80.197266 166.12656 89.197266 147.22656 C 90.565266 144.41856 93.278094 141.6116 96.746094 142.08008 C 102.08609 142.64408 107.0538 145.03139 111.8418 147.27539 C 114.4698 148.67939 117.88983 150.42014 118.07031 153.74414 C 119.19831 160.59614 114.13267 166.07895 111.88867 172.12695 C 108.69667 180.41895 104.05395 188.11222 102.00195 196.82422 C 99.649953 205.54822 96.04875 214.59456 97.96875 223.72656 C 99.18075 230.01456 105.93831 232.12664 110.57031 235.30664 C 111.00231 240.14264 111.00202 245.01584 110.66602 249.83984 C 100.55002 248.06384 90.133875 248.01577 79.921875 248.75977 C 71.053875 250.03177 61.921641 251.62747 54.181641 256.35547 C 56.857641 265.12747 60.2295 273.69488 63.9375 282.04688 C 68.6655 283.3544 73.729563 282.46796 78.601562 282.64844 C 229.87356 282.64844 381.08459 282.61004 532.30859 282.64844 C 534.00059 282.51644 536.43611 282.69488 536.80859 280.54688 C 542.43659 266.19488 548.48459 251.90346 551.80859 236.85547 C 553.68059 229.67947 555.7938 222.61072 557.3418 215.38672 C 558.7938 208.64272 559.03273 201.64747 560.05273 194.85547 C 561.00073 188.01547 562.07273 181.16256 561.98633 174.22656 C 561.93833 157.67856 562.87275 140.9997 559.96875 124.5957 C 558.84075 112.6797 555.98505 101.06385 553.87305 89.339844 C 550.45305 77.063844 546.04958 65.159328 542.01758 53.111328 C 540.18158 47.951328 538.54883 42.6465 535.54883 38.0625 C 379.96883 37.8225 224.43742 38.063922 68.857422 37.919922 z M 235.54883 54.935547 C 241.45283 55.355067 247.03267 57.694938 252.88867 58.210938 C 261.32467 59.014457 269.81009 59.014395 278.24609 58.546875 C 283.11809 58.258875 287.61742 56.112297 292.35742 55.404297 C 296.56942 57.372297 300.27689 60.276063 304.21289 62.664062 C 303.69641 68.904062 301.03305 74.806578 301.87305 81.142578 C 303.00105 90.562578 304.96994 99.984448 309.08594 108.56445 C 315.51794 121.30845 323.14912 133.49977 328.45312 146.75977 C 335.43712 163.67977 343.68231 180.14295 349.07031 197.62695 C 351.69831 205.87095 352.16617 215.57864 358.82617 221.80664 C 364.92217 227.15864 371.95327 231.37109 378.69727 235.87109 C 381.51727 237.83909 384.56556 239.95056 386.10156 243.22656 C 385.68108 247.87055 383.29394 251.95155 381.08594 255.93555 C 370.40594 254.75955 360.27795 250.49984 349.50195 249.83984 C 332.80995 247.59584 315.51697 247.45192 299.29297 252.41992 C 293.38897 254.24392 288.47002 257.952 283.16602 261 C 278.81002 256.596 274.40497 252.14408 270.79297 247.08008 C 278.95297 239.06409 290.19809 233.33939 294.74609 222.27539 C 298.11809 212.80739 292.82595 203.38777 289.50195 194.75977 C 283.03395 176.85577 273.08513 160.54731 265.45312 143.19531 C 263.95312 140.48331 262.77817 137.06444 259.82617 135.64844 C 255.69817 136.21196 251.80994 139.91969 247.58594 138.17969 C 243.22994 135.37169 240.04972 131.15894 236.76172 127.21094 C 234.08572 124.16294 232.77841 119.62822 234.56641 115.82422 C 237.05041 112.03222 240.84105 109.21192 243.37305 105.41992 C 246.60105 100.67992 249.79425 95.855625 251.90625 90.515625 C 253.03425 88.127625 251.53361 85.642578 249.74609 84.142578 C 242.61809 78.322578 233.66519 75.370937 226.11719 70.210938 C 229.11719 65.062938 232.45283 60.047547 235.54883 54.935547 z M 421.26172 56.855469 C 420.74524 73.775469 421.45222 90.744057 420.32422 107.66406 C 420.13222 124.16406 420.46852 140.71177 420.22852 157.25977 C 420.51652 160.16377 418.03244 162.00052 416.14844 163.72852 C 409.45244 169.54852 402.98542 175.64355 397.35742 182.43555 C 396.00142 184.21155 394.11756 185.48392 392.10156 186.41992 C 393.60156 155.85592 393.74457 125.24369 391.87305 94.679688 C 391.82505 93.047687 390.74588 91.260297 388.92188 91.404297 C 381.60188 90.791817 374.29433 91.822953 366.98633 91.126953 C 366.69833 87.742953 366.7455 84.372 366.9375 81 C 373.1175 76.5 380.56875 74.387312 387.46875 71.195312 C 398.76075 66.515313 409.63372 60.743469 421.26172 56.855469 z M 508.25977 56.857422 C 507.74329 73.777422 508.45222 90.744057 507.32422 107.66406 C 507.13222 124.16406 507.46852 140.71177 507.22852 157.25977 C 507.51652 160.16377 505.03244 162.00052 503.14844 163.72852 C 496.45244 169.54852 489.98542 175.64355 484.35742 182.43555 C 483.00142 184.21155 481.11561 185.48392 479.09961 186.41992 C 480.59961 155.85592 480.74457 125.24369 478.87305 94.679688 C 478.82505 93.047687 477.74587 91.260297 475.92188 91.404297 C 468.60188 90.791817 461.29237 91.824906 453.98438 91.128906 C 453.69637 87.744906 453.7455 84.372 453.9375 81 C 460.1175 76.5 467.56875 74.387313 474.46875 71.195312 L 474.46875 71.197266 C 485.76075 66.517266 496.63177 60.745422 508.25977 56.857422 z M 104.38477 59.861328 C 110.71458 59.919401 117.03322 61.007547 123.32422 60.935547 C 136.96822 61.307067 150.60127 60.889344 164.19727 61.777344 C 165.32527 71.113344 170.24475 79.309203 175.96875 86.533203 C 186.18075 100.26121 192.93614 116.5317 204.74414 129.0957 C 206.38814 130.5477 208.06792 132.46928 210.41992 132.61328 C 214.21192 131.29328 217.40355 128.43652 221.43555 127.72852 C 226.16355 128.11252 229.06919 132.46845 232.11719 135.56445 C 235.16519 139.30845 239.80777 143.33969 238.25977 148.67969 C 236.38777 154.03169 231.17955 157.72883 230.43555 163.54883 C 229.35555 172.87283 230.01768 182.53184 233.5332 191.33984 L 233.53125 191.33984 C 239.43525 206.57984 245.56709 222.04859 247.87109 238.30859 C 242.85509 241.03259 237.32483 242.66459 232.54883 245.80859 C 221.56883 252.88859 213.04777 263.06431 206.75977 274.4043 C 201.08377 271.9203 195.41998 269.29231 190.58398 265.4043 C 189.64798 263.3403 190.35659 260.9033 190.30859 258.69531 C 191.61659 244.25931 188.6163 229.8237 184.4043 216.0957 C 180.2283 202.8717 176.53289 189.41977 170.71289 176.75977 C 163.30889 159.22777 155.19622 141.61155 142.82422 126.93555 C 140.34022 124.77555 137.29198 119.80806 133.58398 122.66406 C 128.99998 126.88806 128.90437 134.38822 123.98438 138.32422 C 117.60037 140.11222 111.98483 135.83977 106.54883 133.25977 C 102.79283 131.24377 97.356375 128.62792 98.484375 123.41992 C 101.10037 112.96792 106.7283 103.50083 109.4043 93.048828 C 109.58382 89.712828 111.08363 84.467625 107.01562 83.015625 C 101.48363 80.243625 95.016375 80.160375 89.484375 77.484375 C 87.180375 76.308375 86.953125 73.355547 88.453125 71.435547 C 91.213125 67.403547 94.068734 63.144516 98.052734 60.228516 C 100.16473 59.937516 102.27483 59.841971 104.38477 59.861328 z "/></svg>
