<?xml version="1.0" encoding="utf-8"?>
<!-- Generator: Adobe Illustrator 15.1.0, SVG Export Plug-In . SVG Version: 6.00 Build 0)  -->
<!DOCTYPE svg PUBLIC "-//W3C//DTD SVG 1.1//EN" "http://www.w3.org/Graphics/SVG/1.1/DTD/svg11.dtd">
<svg version="1.1" id="Layer_1" xmlns="http://www.w3.org/2000/svg" xmlns:xlink="http://www.w3.org/1999/xlink" x="0px" y="0px"
	 width="350px" height="350px" viewBox="0 0 350 350" enable-background="new 0 0 350 350" xml:space="preserve">
<g id="Layer_1_1_">
</g>
<g>
	<path fill="#808080" d="M344.626,175.005c0,93.892-76.114,170-170.001,170c-93.888,0-169.999-76.108-169.999-170
		c0-93.885,76.11-170,169.999-170C268.512,5.006,344.626,81.121,344.626,175.005z"/>
	<path d="M330.296,175.005c0,85.983-69.698,155.677-155.671,155.677c-85.976,0-155.671-69.693-155.671-155.677
		c0-85.969,69.696-155.669,155.671-155.669C260.598,19.336,330.296,89.036,330.296,175.005z M174.625,37.445
		c-75.975,0-137.563,61.592-137.563,137.561c0,75.98,61.588,137.567,137.563,137.567c75.971,0,137.563-61.587,137.563-137.567
		C312.188,99.037,250.596,37.445,174.625,37.445z M174.625,45.5c-71.525,0-129.508,57.986-129.508,129.505
		c0,71.533,57.982,129.513,129.508,129.513c71.521,0,129.507-57.979,129.507-129.513C304.132,103.486,246.146,45.5,174.625,45.5z
		 M174.621,56.312l13.249,39.219l46.63,27.545l41.337-10.592l-28.62,32.858v55.104l28.62,32.864l-41.862-11.144L188.4,250.249
		l-13.78,43.457l-13.774-43.457l-45.572-28.082l-41.862,11.144l28.614-32.865v-55.104l-28.614-32.858l41.331,10.592l46.633-27.545
		L174.621,56.312L174.621,56.312z M174.628,241.77l56.166-34.438v-65.17l-56.166-33.92l-56.173,33.92v65.17L174.628,241.77z"/>
</g>
</svg>
