<?xml version="1.0" encoding="utf-8"?>
<!-- Generator: Adobe Illustrator 15.1.0, SVG Export Plug-In . SVG Version: 6.00 Build 0)  -->
<!DOCTYPE svg PUBLIC "-//W3C//DTD SVG 1.1//EN" "http://www.w3.org/Graphics/SVG/1.1/DTD/svg11.dtd">
<svg version="1.1" id="Layer_1" xmlns="http://www.w3.org/2000/svg" xmlns:xlink="http://www.w3.org/1999/xlink" x="0px" y="0px"
	 width="350px" height="350px" viewBox="0 0 350 350" enable-background="new 0 0 350 350" xml:space="preserve">
<g id="Layer_1_1_">
</g>
<g>
	<path d="M344.625,175.004c0,93.898-76.113,170.006-170,170.006c-93.89,0-170-76.107-170-170.006
		c0-93.882,76.111-169.998,170-169.998C268.512,5.007,344.625,81.123,344.625,175.004z M174.625,24.782
		C91.657,24.782,24.4,92.044,24.4,175.005c0,82.974,67.257,150.23,150.225,150.23c82.964,0,150.225-67.256,150.225-150.23
		C324.85,92.044,257.589,24.782,174.625,24.782z M174.625,33.579c-78.108,0-141.429,63.323-141.429,141.425
		c0,78.118,63.319,141.434,141.429,141.434c78.104,0,141.428-63.315,141.428-141.434C316.053,96.902,252.729,33.579,174.625,33.579z
		 M174.621,45.386l14.468,42.829l50.923,30.081l45.142-11.567l-31.255,35.882v60.177l31.255,35.889l-45.716-12.17l-49.77,30.668
		l-15.048,47.457l-15.042-47.457l-49.767-30.667l-45.715,12.169l31.248-35.89v-60.176l-31.248-35.882l45.135,11.567l50.925-30.081
		L174.621,45.386L174.621,45.386z M174.628,247.915l61.335-37.607v-71.169l-61.335-37.042l-61.344,37.042v71.169L174.628,247.915z"
		/>
</g>
</svg>
