<?xml version="1.0" encoding="UTF-8" standalone="no"?>
<svg xmlns="http://www.w3.org/2000/svg" version="1.1" width="600" height="709.26447">
  <path d="m 48.475887,96.89646 -0.07092,0.97588 c -0.195745,4.0071 -0.337589,8.10284 -0.337589,12.10993 0,63.79433 27.570922,131.11702 83.049642,157.35816 -4.64539,3.47518 -9.21986,6.93262 -13.51064,10.53191 -11.08156,9.29078 -25.354605,22.16312 -36.985811,39.55674 -12.464539,18.68794 -17.588652,39.46809 -17.588652,59.91135 0,25.07092 8.031915,49.37943 19.734042,69.04255 C 42.251773,469.85816 0,513.7766 0,585.60284 c 0,66.56028 37.340426,96.47163 59.62766,108.38652 41.15248,22.02128 98.35106,18.28015 123.98936,1.17022 l 16.13475,-12.7305 c 5.74468,-5 14.39717,-12.41135 17.65958,-11.98582 l 9.06028,0.95745 c 25.49646,2.97872 51.87943,5.95745 80.42553,3.40426 22.57093,-2.07447 41.75532,-6.8617 58.65249,-14.75178 l 17.65957,-9.55673 c 2.28723,-1.31206 5,-2.83688 7.48227,-4.16667 6.50709,5.88652 16.01064,14.27305 30.47872,19.25532 18.56383,6.31206 39.75178,4.3617 58.59929,-3.59929 13.49291,9.41489 27.97873,13.79432 43.68795,10.39007 29.85815,-6.29433 54.37943,-26.17021 67.32269,-54.57447 C 596.95035,604.3617 600,589.8227 600,575.4078 c 0,-16.75531 -4.14894,-33.43971 -12.39362,-48.26241 -26.73759,-48.35106 -83.12056,-66.01064 -133.67021,-69.82269 17.65957,-7.67731 33.79433,-18.97163 43.56383,-35.65603 6.29433,-10.67376 9.41489,-22.16312 9.41489,-33.9539 0,-14.32624 -4.64539,-28.93617 -13.77659,-42.65958 -32.55319,-48.75886 -89.62766,-45.70922 -117.05674,-44.25531 -7.96099,0.42553 -16.6844,0.97588 -25.83333,1.80851 4.3617,-1.4539 8.65248,-3.5993 13.01418,-4.57447 l 24.94681,-5.12412 c 67.87234,-13.29787 170.44326,-33.38652 170.44326,-116.15248 0,-31.50709 -13.84752,-60.8156 -39.06028,-82.55319 -34.29078,-29.64539 -87.00355,-43.42199 -137.55319,-36.01064 -50.35461,7.41135 -63.24468,3.10284 -97.51773,-8.24468 -18.42199,-6.24113 -38.43972,-9.29078 -59.29078,-9.14893 0,0 -17.10993,2.5 -23.5461,3.40425 C 198.91844,41.34752 185.54965,27.28724 185.54965,27.28724 170.51418,15.58511 147.18085,0 117.3227,0 88.297872,0 52.783688,16.84397 48.475177,96.89717" style="fill:#808080"/>
  <path d="m 139.34468,471.93192 c 0,0 -93.280141,22.039 -93.280141,113.67021 0,91.63121 96.684401,81.43617 111.914891,71.25887 15.30142,-10.17731 33.93617,-35.67376 64.48582,-32.26951 26.73759,2.97873 53.33333,6.79078 80.26596,4.29078 14.82269,-1.31205 29.78723,-4.29078 43.36879,-10.60284 20,-9.34397 37.46454,-27.00354 61.08156,-16.68439 11.01064,4.84042 17.51773,16.48936 28.88298,20.35461 12.46454,4.23759 28.04964,-0.62128 37.53546,-9.20213 20.42553,-18.63475 23.90071,18.06738 40.37234,14.60993 34.07801,-7.2695 49.87589,-47.99645 33.3156,-77.9078 -26.31205,-47.51773 -109.14893,-51.95036 -155.47872,-43.84752 -27.92553,4.91135 -57.83688,11.08156 -84.50355,20.6383 -66.13475,23.68794 -225.638294,32.19858 -167.96099,-54.30851 M 188.67092,91.91419 c 10.8688,1.73759 25.26596,-4.98227 36.84397,-4.98227 15.01773,-0.14185 30.19504,1.93262 44.46809,6.71986 40.70922,13.56383 61.08156,18.61702 118.77659,10.1773 57.69504,-8.52837 123.82979,20.35461 123.82979,72.92553 0,52.57092 -106.8617,64.48582 -159.50354,76.32979 -52.57093,11.91489 -103.47518,50.90426 -123.82979,79.71631 -20.37234,28.81206 -8.45745,47.51773 52.57092,28.81206 31.15248,-9.48582 64.27305,-13.08511 96.6844,-14.8227 27.35815,-1.4539 58.93617,-2.14539 76.24113,23.82979 28.88298,43.35106 -54.57447,57.74823 -79.64539,55.74468 -30.95744,-2.48227 -62.05674,-1.31205 -92.87234,2.42908 -29.85815,3.59929 -55.76241,14.68085 -84.29078,22.99645 -29.3617,8.65249 -55.95745,0.76312 -73.1383,-24.52127 -15.9929,-23.47518 -22.78368,-58.86525 -5.8156,-84.29078 7.62411,-11.41844 17.65958,-20.99291 28.19149,-29.71632 21.54255,-17.99645 46.25887,-32.34042 71.13475,-45.15957 10.8688,-5.60284 21.87943,-10.86879 32.96099,-16.06383 4.71632,-2.21631 46.82625,-14.39716 34.29079,-26.52482 -7.5532,-7.26951 -35.74469,2.28723 -44.39717,3.38652 -23.90071,2.92553 -50.78014,7.14539 -74.66312,2.0922 C 110.60355,219.27234 91.702837,148.77589 94.397872,100.42483 95.088652,87.81844 96.82695,46.13405 117.3234,46.13405 c 14.89362,0 28.40426,8.58156 39.8227,17.4468 9.43262,7.48227 17.39362,24.5922 29.85816,27.97873 0.54893,0.14184 1.09929,0.21276 1.66666,0.35461"/>
</svg>
