<?xml version="1.0" encoding="UTF-8" standalone="no"?>
<svg xmlns="http://www.w3.org/2000/svg" xmlns:xlink="http://www.w3.org/1999/xlink" version="1.1" width="600" height="709.26447">
  <radialGradient cx="0" cy="0" r="1" fx="0" fy="0" id="radialGradient608" gradientUnits="userSpaceOnUse" gradientTransform="matrix(15.439835,0,0,-15.439835,748,259.29883)" spreadMethod="pad">
    <stop style="stop-color:#ebd491" offset="0"/>
    <stop style="stop-color:#d2bb7b" offset="0.7"/>
    <stop style="stop-color:#8b723c" offset="1"/>
  </radialGradient>
  <radialGradient cx="0" cy="0" r="1" fx="0" fy="0" id="radialGradient2995" xlink:href="#radialGradient608" gradientUnits="userSpaceOnUse" gradientTransform="matrix(15.439835,0,0,-15.439835,748,259.29883)" spreadMethod="pad"/>
  <radialGradient cx="0" cy="0" r="1" fx="0" fy="0" id="radialGradient2998" xlink:href="#radialGradient608" gradientUnits="userSpaceOnUse" gradientTransform="matrix(273.75594,0,0,273.75594,300.03617,354.71861)" spreadMethod="pad"/>
  <path d="m 48.546809,96.89646 -0.07092,0.97588 c -0.194327,4.0071 -0.337589,8.10284 -0.337589,12.10993 0,63.79433 27.570922,131.11702 83.04964,157.35816 -4.64539,3.47518 -9.21985,6.93262 -13.51064,10.53191 -11.15248,9.29078 -25.425525,22.16312 -36.985809,39.55674 -12.464539,18.68794 -17.659574,39.46809 -17.659574,59.91135 0,25.07092 8.031915,49.37943 19.804964,69.04255 C 42.322695,469.85816 0,513.7766 0,585.60284 c 0,66.56028 37.411348,96.47163 59.698582,108.38652 41.152478,22.02128 98.351068,18.28015 123.918438,1.17022 l 16.20568,-12.7305 c 5.74468,-5 14.32624,-12.41135 17.65957,-11.98582 l 9.00709,0.95745 c 25.54965,2.97872 51.8617,5.95745 80.47873,3.40426 22.5,-2.07447 41.75531,-6.8617 58.65248,-14.75178 l 17.65957,-9.55673 c 2.21631,-1.31206 5,-2.83688 7.41135,-4.16667 6.57801,5.88652 16.08156,14.27305 30.54964,19.25532 18.56383,6.31206 39.68086,4.3617 58.5993,-3.59929 13.42198,9.41489 27.9078,13.79432 43.68794,10.39007 29.78723,-6.29433 54.30851,-26.17021 67.32269,-54.57447 C 596.95035,604.3617 600,589.8227 600,575.4078 c 0,-16.75531 -4.07801,-33.43971 -12.3227,-48.26241 -26.80851,-48.35106 -83.12056,-66.01064 -133.67021,-69.82269 17.58865,-7.67731 33.72341,-18.97163 43.56383,-35.65603 6.22341,-10.67376 9.34397,-22.16312 9.34397,-33.9539 0,-14.32624 -4.57446,-28.93617 -13.77659,-42.65958 -32.48227,-48.75886 -89.55674,-45.70922 -117.05674,-44.25531 -7.96099,0.42553 -16.61347,0.97588 -25.76241,1.80851 4.3617,-1.4539 8.58156,-3.5993 13.01418,-4.57447 l 24.87589,-5.12412 c 67.87234,-13.29787 170.51418,-33.38652 170.51418,-116.15248 0,-31.50709 -13.91844,-60.8156 -39.06028,-82.55319 -34.3617,-29.64539 -87.05674,-43.42199 -137.55319,-36.01064 -50.42553,7.41135 -63.24468,3.10284 -97.51773,-8.24468 -18.42199,-6.24113 -38.43972,-9.29078 -59.3617,-9.14893 0.0709,0 -17.10993,2.5 -23.47518,3.40425 C 198.98936,41.34752 185.54965,27.28724 185.54965,27.28724 170.58511,15.58511 147.25177,0 117.3227,0 88.315603,0 52.85461,16.84397 48.546099,96.89717" style="fill:#ffffff"/>
  <path d="m 139.4156,471.93192 c 0,0 -93.351061,22.039 -93.351061,113.67021 0,91.63121 96.755321,81.43617 111.985811,71.25887 15.30142,-10.17731 33.93617,-35.67376 64.48582,-32.26951 26.73759,2.97873 53.26241,6.79078 80.19504,4.29078 14.89361,-1.31205 29.85815,-4.29078 43.43971,-10.60284 20,-9.34397 37.39362,-27.00354 61.01064,-16.68439 11.01064,4.84042 17.51773,16.48936 28.9539,20.35461 12.46454,4.23759 28.04965,-0.62128 37.46454,-9.20213 20.49645,-18.63475 23.97163,18.06738 40.37234,14.60993 34.14894,-7.2695 49.94681,-47.99645 33.38653,-77.9078 -26.31206,-47.51773 -109.21986,-51.95036 -155.54965,-43.84752 -27.85461,4.91135 -57.83688,11.08156 -84.43262,20.6383 -66.20568,23.68794 -225.638302,32.19858 -167.961,-54.30851 M 188.74184,91.91419 c 10.79788,1.73759 25.21277,-4.98227 36.84398,-4.98227 15.01773,-0.14185 30.12411,1.93262 44.46808,6.71986 40.70922,13.56383 61.01064,18.61702 118.70567,10.1773 57.69504,-8.52837 123.82979,20.35461 123.82979,72.92553 0,52.57092 -106.8617,64.48582 -159.43262,76.32979 -52.57092,11.91489 -103.47518,50.90426 -123.82979,79.71631 -20.37234,28.81206 -8.52837,47.51773 52.57092,28.81206 31.15248,-9.48582 64.20213,-13.08511 96.6844,-14.8227 27.35816,-1.4539 58.93617,-2.14539 76.24113,23.82979 28.88298,43.35106 -54.64539,57.74823 -79.64539,55.74468 -30.95744,-2.48227 -62.05673,-1.31205 -92.87234,2.42908 -29.85815,3.59929 -55.76241,14.68085 -84.3617,22.99645 -29.29078,8.65249 -55.88652,0.76312 -73.06737,-24.52127 -15.99291,-23.47518 -22.78369,-58.86525 -5.81561,-84.29078 7.62412,-11.41844 17.65958,-20.99291 28.12057,-29.71632 21.54255,-17.99645 46.25887,-32.34042 71.20567,-45.15957 10.8688,-5.60284 21.87944,-10.86879 32.961,-16.06383 4.71631,-2.21631 46.82624,-14.39716 34.29078,-26.52482 -7.55319,-7.26951 -35.74468,2.28723 -44.39717,3.38652 -23.90071,2.92553 -50.78014,7.14539 -74.66312,2.0922 -55.90425,-11.71986 -74.804961,-82.21631 -72.109926,-130.56737 0.69078,-12.60639 2.429078,-54.29078 22.854606,-54.29078 14.89362,0 28.47518,8.58156 39.8227,17.4468 9.50355,7.48227 17.46454,24.5922 29.85816,27.97873 0.61985,0.14184 1.17021,0.21276 1.73758,0.35461" style="fill:#8b723c"/>
  <path d="m 103.33404,100.92128 c -2.28723,41.13475 13.3688,110.53191 65.03546,121.40071 l 0,0 c 6.86171,1.4539 14.4149,2.14539 23.06738,2.14539 l 0,0 c 13.84752,0 28.12057,-1.79078 41.96808,-3.52837 l 0,0 6.71986,-0.83333 c 1.93263,-0.19504 4.91135,-0.95745 8.38653,-1.79078 l 0,0 c 8.29787,-1.95036 18.56383,-4.36171 27.21631,-4.36171 l 0,0 c 7.19858,0 12.46454,1.71986 16.06383,5.19504 l 0,0 c 5.54964,5.39007 5.33688,11.15248 4.71631,14.06028 l 0,0 c -2.28723,10.79788 -16.20567,17.80142 -37.81915,25.54965 l 0,0 c -1.66666,0.62057 -2.97872,1.0461 -3.52837,1.31206 l 0,0 c -11.01063,5.19503 -21.96808,10.39007 -32.76595,15.93971 l 0,0 c -30.0532,15.44326 -51.52483,29.07802 -69.53901,44.04256 l 0,0 c -8.24468,6.93262 -18.75887,16.27659 -26.4539,27.83687 l 0,0 c -15.2305,22.85461 -7.69504,54.64539 5.74468,74.39717 l 0,0 c 10.74468,15.70922 25.83333,24.02482 43.70567,24.02482 l 0,0 c 6.24114,0 12.81915,-1.02837 19.60993,-2.97872 l 0,0 c 8.22695,-2.42908 16.2766,-5.05319 24.16667,-7.67731 l 0,0 c 19.45035,-6.38298 39.60993,-13.03191 61.57801,-15.65603 l 0,0 c 20.69149,-2.5 40.92199,-3.81205 60.31915,-3.81205 l 0,0 c 11.63121,0 23.19149,0.4078 34.34397,1.38298 l 0,0 c 1.32979,0.0709 2.78369,0.14184 4.30851,0.14184 l 0,0 c 23.88298,0 62.18086,-9.29078 70.28369,-24.37943 l 0,0 c 1.73759,-3.19149 3.26241,-8.45745 -2.97872,-17.80142 l 0,0 c -9.55674,-14.34397 -24.92908,-20.42553 -51.31206,-20.42553 l 0,0 c -5.8156,0 -11.56028,0.26595 -17.18085,0.54964 l 0,0 c -39.34397,2.07447 -68.49291,6.50709 -94.46808,14.46809 l 0,0 c -17.10993,5.26595 -31.43617,7.9078 -42.51773,7.9078 l 0,0 c -17.87235,0 -25.28369,-7.07447 -28.33334,-13.03192 l 0,0 c -3.45744,-6.64893 -4.85815,-18.56383 8.38653,-37.32269 l 0,0 c 22.02127,-31.17021 74.71631,-70.92199 129.16666,-83.26241 l 0,0 c 7.74823,-1.71986 16.6844,-3.52837 26.38298,-5.39007 l 0,0 c 50.21277,-9.84043 126.11702,-24.73405 126.11702,-62.26951 l 0,0 c 0,-41.06383 -48.13829,-65.51418 -94.60993,-65.51418 l 0,0 c -6.43617,0 -12.87234,0.4078 -19.04255,1.31206 l 0,0 c -19.73404,2.9078 -35.1773,4.29078 -48.75886,4.29078 l 0,0 c -27.76596,0 -47.37589,-5.88653 -74.04256,-14.8227 l 0,0 C 254.73475,97.87163 241.1,95.79717 225.65674,95.79717 l 0,0 c -4.09575,0 -9.14894,1.17021 -14.48582,2.34042 l 0,0 c -6.08156,1.4539 -12.39362,2.92553 -18.61702,2.92553 l 0,0 c -1.80851,0 -3.5461,-0.14184 -5.26596,-0.42553 l 0,0 -2.0922,-0.4078 -0.47872,-0.0709 c -10.53191,-2.9078 -17.7305,-11.84397 -24.09574,-19.80497 l 0,0 c -3.19149,-3.88298 -6.17022,-7.62411 -8.93617,-9.7695 l 0,0 C 142.46525,63.31492 130.14255,54.99931 117.3234,54.99931 l 0,0 c -2.69503,0 -11.70212,3.24468 -13.98936,45.92199 M 54.929787,585.53121 c 0,62.19858 48.900713,68.90071 69.875883,68.90071 l 0,0 c 15.65603,0 25.97518,-3.38653 28.33334,-4.91135 l 0,0 c 3.38652,-2.28723 6.91489,-5.4078 10.79787,-8.7234 l 0,0 c 12.46454,-10.74469 29.43262,-25.35461 53.04964,-25.35461 l 0,0 c 2.0922,0 4.30852,0.14184 6.52483,0.42553 l 0,0 8.98936,0.95744 c 17.03901,2.02128 34.7695,4.02483 51.95035,4.02483 l 0,0 c 5.81561,0 11.63121,-0.21277 17.51773,-0.83334 l 0,0 c 16.15249,-1.38298 29.37944,-4.64539 40.461,-9.7695 l 0,0 c 4.43262,-2.07447 8.7234,-4.62766 13.01418,-7.12766 l 0,0 c 11.43617,-6.64894 23.20922,-13.51064 37.3227,-13.51064 l 0,0 c 6.02837,0 12.05673,1.31206 18.01418,3.88298 l 0,0 c 6.50709,2.83688 11.50709,7.41135 15.93972,11.36525 l 0,0 c 4.29078,3.86525 7.96099,7.2695 12.32269,8.7234 l 0,0 c 2.07447,0.69149 4.3617,1.02837 6.9149,1.02837 l 0,0 c 7.48227,0 16.01063,-3.24468 21.68439,-8.43971 l 0,0 c 5.62057,-5.12412 11.08156,-7.62412 16.63121,-7.62412 l 0,0 c 9.75177,0 15.70922,7.34043 20.56737,13.3688 l 0,0 c 1.86171,2.35815 5.39008,6.71985 7.34043,6.71985 l 0,0 0,0 c 12.60638,-2.62411 23.06738,-11.29432 28.67021,-23.61702 l 0,0 c 6.09929,-13.43971 5.60284,-28.81205 -1.24113,-41.20567 l 0,0 C 524.85887,527.14468 484.46879,511.20497 431.63191,511.20497 l 0,0 c -13.36879,0 -26.59574,1.11702 -38.22695,3.12056 l 0,0 c -24.30851,4.21986 -55.62056,10.39008 -83.04964,20.30142 l 0,0 c -28.12057,10.03546 -68.84752,16.54256 -103.75887,16.54256 l 0,0 c -31.15248,0 -71.11702,-5.12412 -84.27305,-29.64539 l 0,0 c -5.12411,-9.75178 -5.47872,-21.0461 -1.0461,-33.72341 l 0,0 c -25.620562,11.70213 -66.347513,39.4149 -66.347513,97.7305" style="fill:url(#radialGradient2998)"/>
</svg>
