<?xml version="1.0" encoding="UTF-8" standalone="no"?>
<svg xmlns="http://www.w3.org/2000/svg" xmlns:xlink="http://www.w3.org/1999/xlink" version="1.1" width="600" height="709.34827">
  <radialGradient cx="0" cy="0" r="1" fx="0" fy="0" id="radialGradient592" gradientUnits="userSpaceOnUse" gradientTransform="matrix(15.439407,0,0,-15.439407,665.50098,259.29883)" spreadMethod="pad">
    <stop style="stop-color:#d9eaf3" offset="0"/>
    <stop style="stop-color:#99aebc" offset="0.66291797"/>
    <stop style="stop-color:#536e78" offset="1"/>
  </radialGradient>
  <radialGradient cx="0" cy="0" r="1" fx="0" fy="0" id="radialGradient2995" xlink:href="#radialGradient592" gradientUnits="userSpaceOnUse" gradientTransform="matrix(15.439407,0,0,-15.439407,665.50098,259.29883)" spreadMethod="pad"/>
  <radialGradient cx="0" cy="0" r="1" fx="0" fy="0" id="radialGradient2998" xlink:href="#radialGradient592" gradientUnits="userSpaceOnUse" gradientTransform="matrix(273.78072,0,0,273.78072,300.01809,354.76054)" spreadMethod="pad"/>
  <path d="m 48.481617,96.9079 -0.07093,0.97601 c -0.194349,4.00756 -0.337629,8.10379 -0.337629,12.11136 0,63.80186 27.574182,131.13252 83.059462,157.37676 -4.64594,3.47558 -9.22095,6.93344 -13.51223,10.53316 -11.1538,9.29187 -25.357611,22.16574 -36.990192,39.56141 -12.466012,18.69015 -17.661662,39.47275 -17.661662,59.91843 0,25.07388 8.032864,49.38527 19.807306,69.05071 C 42.256768,469.9137 0,513.83733 0,585.67206 0,652.24021 37.34484,682.1551 59.634709,694.0714 100.79206,716.09528 157.9974,712.3537 183.5678,695.24175 l 16.20759,-12.732 c 5.74536,-5.00059 14.39886,-12.41282 17.66166,-11.98723 l 9.00816,0.95756 c 25.55266,2.97907 51.93876,5.95815 80.48823,3.40465 22.57359,-2.07471 41.76026,-6.86251 58.65942,-14.75351 l 17.66166,-9.55787 c 2.28751,-1.31221 5.00059,-2.83721 7.48316,-4.16716 6.50786,5.88722 16.01253,14.27474 30.48232,19.2576 18.56603,6.3128 39.75647,4.36221 58.60622,-3.59972 13.4945,9.41601 27.9111,13.79596 43.69311,10.3913 29.86168,-6.29507 54.31493,-26.17331 67.33065,-54.58092 C 597.02092,604.43314 600,589.89242 600,575.47582 c 0,-16.7573 -4.0785,-33.44367 -12.32415,-48.26812 -26.81168,-48.35678 -83.1304,-66.01844 -133.68602,-69.83095 17.59074,-7.67821 33.72739,-18.97387 43.56898,-35.66024 6.29507,-10.67502 9.34508,-22.16574 9.34508,-33.95791 0,-14.32794 -4.57501,-28.9396 -13.77823,-42.66462 -32.4861,-48.76463 -89.56732,-45.71463 -116.99964,-44.26055 -8.03286,0.42558 -16.68637,0.976 -25.83639,1.80872 4.36222,-1.45407 8.65351,-3.59971 13.01573,-4.57501 l 24.87882,-5.12472 c 67.88037,-13.29944 170.53434,-33.39047 170.53434,-116.16621 0,-31.51082 -13.92008,-60.82279 -39.0649,-82.56295 -34.29483,-29.6489 -87.06703,-43.42712 -137.56945,-36.0149 -50.36056,7.41223 -63.25216,3.10321 -97.52926,-8.24565 -18.42416,-6.24187 -38.44426,-9.29188 -59.29779,-9.15002 0,0 -17.11195,2.5003 -23.54888,3.40466 C 198.94196,41.3524 185.50065,27.29046 185.50065,27.29046 170.53434,15.58694 147.19825,0 117.33656,0 88.255113,0 52.789928,16.84596 48.480908,96.90861" style="fill:#ffffff"/>
  <path d="m 139.36115,471.9877 c 0,0 -93.362096,22.04161 -93.362096,113.68365 0,91.64204 96.766756,81.4458 111.999056,71.26729 15.30323,-10.17851 33.94018,-35.67797 64.49344,-32.27332 26.74075,2.97908 53.26871,6.79159 80.27544,4.29129 14.82445,-1.31221 29.79076,-4.29129 43.37393,-10.60409 20.00236,-9.34508 37.39803,-27.00674 61.08878,-16.68637 11.01194,4.841 17.5198,16.49131 28.88639,20.35702 12.46601,4.23809 28.05296,-0.62135 37.5399,-9.20322 20.42794,-18.63695 23.90353,18.06951 40.37711,14.61166 34.08204,-7.27037 49.88178,-48.00213 33.31954,-77.91701 C 521.03747,501.99125 438.1908,497.5581 391.78461,505.66189 363.92671,510.57382 334.01182,516.74476 307.342,526.30263 241.1285,549.99338 81.67703,558.50502 139.36115,471.9877 M 188.69323,91.92505 c 10.87008,1.73779 25.21574,-4.98286 36.84832,-4.98286 15.01951,-0.14186 30.19861,1.93285 44.47335,6.72065 40.71403,13.56543 61.08878,18.61922 118.7197,10.17851 57.70186,-8.52938 123.91536,20.35701 123.91536,72.93415 0,52.57714 -106.94527,64.49344 -159.5224,76.33881 -52.57714,11.9163 -103.48741,50.91027 -123.84443,79.72574 -20.37475,28.81546 -8.45845,47.52335 52.57714,28.81546 31.15616,-9.48694 64.20971,-13.08665 96.69582,-14.82445 27.36139,-1.45407 58.94314,-2.14564 76.25015,23.83261 28.8864,43.35619 -54.58092,57.75505 -79.6548,55.75127 -30.96111,-2.48256 -62.06408,-1.31221 -92.88332,2.42936 -29.86169,3.59972 -55.76901,14.68259 -84.30075,22.99918 -29.36517,8.6535 -55.96406,0.76321 -73.14694,-24.52418 -15.9948,-23.47795 -22.78638,-58.87221 -5.81629,-84.30074 7.62501,-11.41979 17.66166,-20.99539 28.12389,-29.71983 21.5451,-17.99858 46.33526,-32.34425 71.21409,-45.16491 10.87008,-5.6035 21.88202,-10.87008 32.96489,-16.06573 4.71687,-2.21658 46.83178,-14.39887 34.29483,-26.52796 -7.55408,-7.27036 -35.7489,2.2875 -44.40241,3.38693 -23.90353,2.92587 -50.78614,7.14623 -74.67194,2.09244 -55.91087,-11.72124 -74.813812,-82.22603 -72.118458,-130.58281 0.690862,-12.60787 2.429365,-54.2972 22.928238,-54.2972 14.89538,0 28.40762,8.58258 39.82741,17.44887 9.43374,7.48316 17.39567,24.59511 29.86168,27.98203 0.549,0.14186 1.09942,0.21279 1.66687,0.35466" style="fill:#536e78"/>
  <path d="m 103.27533,100.9332 c -2.28751,41.13962 13.37037,110.54498 65.04315,121.41506 l 0,0 c 6.86251,1.45408 14.4166,2.14565 23.14103,2.14565 l 0,0 c 13.77822,0 28.12389,-1.72006 41.83119,-3.52879 l 0,0 6.79158,-0.83343 c 1.93285,-0.19506 4.85873,-0.95756 8.38752,-1.79099 l 0,0 c 8.24565,-1.95059 18.56602,-4.36222 27.21952,-4.36222 l 0,0 c 7.19944,0 12.46602,1.72006 16.06573,5.19565 l 0,0 c 5.55031,5.39071 5.33751,11.1538 4.71687,14.06195 l 0,0 c -2.2875,10.79914 -16.20759,17.80352 -37.82362,25.55266 l 0,0 c -1.66686,0.62064 -2.97907,1.04622 -3.52878,1.31221 l 0,0 c -11.01194,5.19565 -21.97068,10.3913 -32.6989,15.9416 l 0,0 c -30.12768,15.44509 -51.53092,29.01053 -69.54723,44.04776 l 0,0 c -8.31659,6.93345 -18.76108,16.27852 -26.45703,27.84017 l 0,0 c -15.2323,22.85732 -7.69594,54.65185 5.74536,74.40596 l 0,0 c 10.67502,15.71108 25.76546,24.02766 43.63991,24.02766 l 0,0 c 6.24187,0 12.82067,-1.02849 19.61225,-2.97907 l 0,0 c 8.22792,-2.42937 16.20759,-5.05379 24.16952,-7.67821 l 0,0 c 19.45266,-6.38374 39.54368,-13.03346 61.5853,-15.65788 l 0,0 c 20.69393,-2.5003 40.99775,-3.81251 60.32628,-3.81251 l 0,0 c 11.63258,0 23.14103,0.40785 34.34803,1.38314 l 0,0 c 1.32994,0.0709 2.71308,0.14186 4.36222,0.14186 l 0,0 c 23.90353,0 62.135,-9.29188 70.30972,-24.38231 l 0,0 c 1.66687,-3.19187 3.12094,-8.45845 -3.12093,-17.87445 l 0,0 c -9.48694,-14.27474 -24.8611,-20.35702 -51.24719,-20.35702 l 0,0 c -5.81629,0 -11.56165,0.26599 -17.11196,0.54971 l 0,0 c -39.41955,2.07471 -68.57193,6.50786 -94.55018,14.46979 l 0,0 c -17.18288,5.26658 -31.38669,7.90874 -42.52276,7.90874 l 0,0 c -17.87445,0 -25.28667,-7.0753 -28.33668,-13.03345 l 0,0 c -3.45785,-6.64973 -4.7878,-18.56603 8.38752,-37.32711 l 0,0 c 22.02388,-31.1739 74.79607,-70.93037 129.18193,-83.27226 l 0,0 c 7.82008,-1.72006 16.7573,-3.52878 26.3861,-5.3907 l 0,0 c 50.28963,-9.84159 126.13193,-24.73697 126.13193,-62.27687 l 0,0 c 0,-41.06868 -48.14399,-65.52193 -94.69204,-65.52193 l 0,0 c -6.366,0 -12.80293,0.40785 -18.97388,1.31221 l 0,0 c -19.66544,2.90815 -35.18146,4.29129 -48.69369,4.29129 l 0,0 c -27.84018,0 -47.38149,-5.88722 -74.19317,-14.82445 l 0,0 C 254.76487,97.8832 241.1285,95.80848 225.61248,95.80848 l 0,0 c -4.09623,0 -9.15001,1.17035 -14.48752,2.41164 l 0,0 c -6.08228,1.38314 -12.46602,2.85494 -18.56603,2.85494 l 0,0 c -1.79099,0 -3.59971,-0.14186 -5.24885,-0.42558 l 0,0 -2.16337,-0.40785 -0.47878,-0.0709 c -10.60409,-2.90814 -17.73259,-11.84537 -24.0986,-19.8073 l 0,0 c -3.12093,-3.88344 -6.17094,-7.62502 -8.93722,-9.77066 l 0,0 C 142.34023,63.3224 130.15794,55.00582 117.26634,55.00582 l 0,0 c -2.62442,0 -11.70351,3.24506 -13.99101,45.92741 M 54.936281,585.60042 c 0,62.20594 48.835559,68.90886 69.813219,68.90886 l 0,0 c 15.72881,0 26.04918,-3.38693 28.33668,-4.91193 l 0,0 c 3.45786,-2.28751 6.98664,-5.40844 10.87008,-8.72444 l 0,0 c 12.39508,-10.74595 29.36517,-25.3576 52.91406,-25.3576 l 0,0 c 2.2343,0 4.37995,0.14186 6.59652,0.42558 l 0,0 8.99042,0.95756 c 17.11196,2.02151 34.70269,4.0253 51.9565,4.0253 l 0,0 c 5.81629,0 11.63258,-0.2128 17.5198,-0.83344 l 0,0 c 16.15439,-1.38314 29.38291,-4.64594 40.46578,-9.77065 l 0,0 c 4.50408,-2.07472 8.79536,-4.62821 13.15758,-7.12851 l 0,0 c 11.29566,-6.64972 23.0701,-13.51223 37.18525,-13.51223 l 0,0 c 6.02908,0 12.05816,1.31221 17.94538,3.88344 l 0,0 c 6.57879,2.83721 11.63258,7.41222 16.01253,11.41979 l 0,0 c 4.29129,3.88343 8.03287,7.21716 12.32415,8.67123 l 0,0 c 2.07472,0.69157 4.43315,1.02849 6.86252,1.02849 l 0,0 c 7.53635,0 16.13666,-3.24506 21.74016,-8.44071 l 0,0 c 5.62123,-5.12472 11.08287,-7.62502 16.7041,-7.62502 l 0,0 c 9.68199,0 15.56921,7.3413 20.49888,13.37038 l 0,0 c 1.86192,2.35843 5.3907,6.72065 7.34129,6.72065 l 0,0 0,0 c 12.60787,-2.62442 23.0701,-11.29566 28.6736,-23.61981 l 0,0 c 6.10001,-13.44131 5.6035,-28.81546 -1.24128,-41.21055 l 0,0 C 524.84998,527.20699 484.45514,511.26539 431.61201,511.26539 l 0,0 c -13.37037,0 -26.59889,1.11716 -38.23147,3.12094 l 0,0 c -24.25819,4.22036 -55.62714,10.3913 -83.05946,20.30382 l 0,0 c -28.12389,10.03665 -68.85566,16.54451 -103.77113,16.54451 l 0,0 c -31.15617,0 -71.12543,-5.12472 -84.28302,-29.6489 l 0,0 c -5.12471,-9.69973 -5.47937,-20.83579 -1.18808,-33.44367 l 0,0 c -25.481735,11.9163 -66.142569,39.89834 -66.142569,97.45833" style="fill:url(#radialGradient2998)"/>
</svg>
