<svg xmlns="http://www.w3.org/2000/svg" width="31.039154mm" height="34.007519mm" viewBox="0 0 31.039154 34.007519" version="1.1">
  <path d="m 4.0148819,0 c -0.257527,2.409475 -0.24343,5.069487 1.220597,7.126181 1.114778,1.675694 3.252619,2.444838 5.2105351,2.120283 3.541889,-0.553861 7.172029,-0.709137 10.728029,-0.144696 -4.173361,1.220615 -8.424164,2.480084 -12.0824661,4.907196 -1.647472,1.107722 -3.248911,2.525779 -3.880386,4.473112 -0.624417,1.7145 0.345256,3.830927 2.077392,4.427121 1.608666,0.592667 3.3479381,0.165764 4.9283831,-0.306959 4.896555,-1.566333 10.167397,-2.229199 15.25798,-1.308449 -0.546802,-1.389941 -1.033885,-2.871766 -2.106326,-3.954794 -0.797282,-0.712614 -1.908549,-0.910417 -2.931605,-1.048 -3.457225,-0.296334 -6.847067,0.638513 -10.22315,1.220597 -0.575028,0.162277 -1.115265,-0.09138 -1.647963,-0.271301 0.05645,-1.382888 1.182166,-2.346261 2.131138,-3.207039 C 16.171901,11.101669 20.758086,9.485919 25.298336,9.59528 25.993312,9.6235 26.737694,9.397745 27.171607,8.822718 27.760749,7.813773 27.629876,6.58266 27.524042,5.467886 27.40057,4.437771 26.349374,3.91234 25.492124,3.56309 21.583346,2.151979 17.357026,2.448429 13.278918,2.448429 10.068637,2.349649 6.7841879,1.693333 4.0148819,0 Z m 1.735812,22.768122 c -2.448278,1.125361 -4.99505829,2.875417 -5.62652699,5.669417 -0.3739479,1.943809 0.027764,4.617498 2.15852019,5.358331 2.2824758,0.589139 4.6250328,-0.176029 6.8228418,-0.779279 4.4767501,-1.312333 8.9569641,-3.048042 13.6947731,-2.952796 2.208386,-0.04586 4.586439,0.04925 6.424412,1.439192 1.467555,-1.315861 2.522188,-3.682827 1.234549,-5.467886 -1.439333,-1.890885 -4.000327,-2.473205 -6.261633,-2.533177 -5.355166,-0.194028 -10.322284,2.14848 -15.5292841,2.97398 -1.397,0.134052 -3.330483,0.264756 -4.060733,-1.234553 -0.144639,-0.991302 0.635081,-1.725344 1.143081,-2.473229 z"/>
</svg>
