<?xml version="1.0" encoding="UTF-8" standalone="no"?>
<svg xmlns="http://www.w3.org/2000/svg" version="1.1" width="600" height="832.62848">
  <path d="M 600,327.28543 C 600,250.45464 561.69909,169.93947 521.04601,129.28639 465.75948,73.91659 405.74779,56.59792 403.22909,55.86937 L 380.62322,49.43732 C 363.78331,22.37689 334.68295,0 299.87908,0 265.15847,0 236.14137,22.37689 219.30146,49.43732 l -22.60586,6.43205 c -2.5187,0.72772 -62.44713,18.04722 -117.816928,73.41702 -40.736347,40.73634 -79.5160171,121.2307 -78.87073005,197.99904 0,76.43529 45.94027505,129.20312 45.94027505,129.20312 l 25.124563,-39.59148 24.562539,6.24471 C 149.69372,436.98423 219.46799,584.31783 251.83642,684.5663 l 7.38958,23.02217 39.84127,125.03998 41.63142,-125.03998 7.47284,-23.02217 C 380.4567,584.31783 450.31422,436.98423 504.28936,423.14178 l 24.56254,-6.24471 25.54088,40.1535 c 0,0 45.60722,-52.85109 45.60722,-129.76514" style="fill:#808080"/>
  <path d="m 299.87908,181.2424 0,0 c -0.33305,0 -0.56286,0 -0.89591,0 -0.24979,0 -0.56119,0 -0.89424,0 l 0,0 c -13.82163,-0.89591 -23.41768,-12.19801 -23.41768,-34.72061 0,-23.48012 24.31275,-55.68202 24.31275,-55.68202 0,0 24.39602,32.2019 24.39602,55.68202 0,22.5226 -9.67931,33.82554 -23.50094,34.72061 m 74.16638,-39.11272 C 372.25531,124.74856 371.44349,107.34663 363.55434,83.03388 355.74845,58.63786 331.01938,29.933 299.87908,29.933 c -31.30683,0 -55.70284,28.70486 -63.50873,53.10088 -7.8059,24.31275 -8.70097,41.71468 -10.40786,59.0958 -1.79015,17.40193 -12.11474,94.81556 73.99985,94.81556 86.1146,0 75.79001,-77.41363 74.08312,-94.81556 m 21.12795,-57.55544 c 5.20392,19.35861 6.82755,34.97039 8.13894,48.79203 l 0.64612,7.05652 c 1.62362,15.38281 6.51532,62.1349 -23.41768,95.37759 -14.88323,16.50686 -35.44915,26.18616 -60.90677,29.51668 l 0,52.12254 c 186.36306,0 233.0527,81.16046 233.0527,81.16046 43.90034,-79.03726 -2.20646,-197.666 -52.70538,-248.16491 C 449.41998,99.93623 395.17424,84.57424 395.17424,84.57424 m 101.80964,309.6337 C 402.50137,418.35417 319.71729,675.38657 319.71729,675.38657 l 0,-328.34703 c 130.01493,0 177.26659,47.1684 177.26659,47.1684 M 100.02827,150.43515 C 49.446089,200.93406 3.3392883,319.5628 47.239623,398.60006 c 0,0 46.68964,-81.16046 233.135967,-81.16046 l 0,-52.12254 c -25.45761,-3.33052 -46.1068,-13.00982 -60.99003,-29.51668 -29.933,-33.24269 -24.95804,-79.99478 -23.41768,-95.37759 l 0.72772,-7.05652 c 1.22896,-13.82164 2.93501,-29.43342 8.13894,-48.79203 0,0 -54.329,15.36199 -104.8071,65.86091 m 180.18079,196.60439 0,328.34703 c 0,0 -82.78408,-257.0324 -177.18333,-281.17863 0,0 47.25166,-47.1684 177.18333,-47.1684"/>
</svg>
