<?xml version="1.0" encoding="UTF-8" standalone="no"?><!DOCTYPE svg PUBLIC "-//W3C//DTD SVG 1.1//EN" "http://www.w3.org/Graphics/SVG/1.1/DTD/svg11.dtd"><svg width="100%" height="100%" viewBox="0 0 90 90" version="1.1" xmlns="http://www.w3.org/2000/svg" xmlns:xlink="http://www.w3.org/1999/xlink" xml:space="preserve" xmlns:serif="http://www.serif.com/" style="fill-rule:evenodd;clip-rule:evenodd;stroke-linejoin:round;stroke-miterlimit:2;"><rect id="Mythic" x="0" y="0" width="90" height="90" style="fill:none;"/><g id="Mythic1" serif:id="Mythic"><path d="M12.898,35.346l0.311,-0.908c0.98,-2.861 2.227,-5.739 3.378,-8.564l0.511,-1.251l11.576,-0.019c0.233,-0.267 0.453,-0.505 0.66,-0.711c4.306,-4.306 11.005,-5.262 15.211,-5.274l0,0.005l0.046,0.001c0.708,0.016 1.418,0.014 2.126,0.052c1.447,0.077 1.961,0.155 3.238,0.311l0.027,0.004c3.526,0.527 6.858,2.013 9.704,4.129c0.643,0.478 1.295,1.007 1.822,1.622l1.743,-0.061c2.693,-0.095 5.388,-0.072 8.081,-0.08l1.233,-0.004l0.564,1.097c0,-0 2.964,5.825 3.503,9.068l0.105,0.631l4.786,-0l0.581,1.01c0,0 2.954,5.154 4.005,7.887l0.278,0.722l-0.277,0.723c-0.996,2.595 -2.604,4.982 -3.843,7.463l-0.556,1.114l-1.246,0c-1.124,0 -2.238,-0.001 -3.347,-0.002l-0.431,1.11c-1.134,2.926 -2.123,6.263 -3.549,9.058l-0.561,1.099l-14.816,0c0.004,0.97 -0.032,1.938 -0.133,2.905l-0.058,0.554l-0.334,0.446c-0.626,0.834 -1.516,1.347 -2.506,1.582c-1.163,0.276 -2.464,0.139 -3.355,-0.131c-0.93,-0.282 -2.534,-1.235 -7.368,-0.947c-0.827,0.049 -1.963,0.306 -2.874,0.475c-0.958,0.177 -1.89,0.644 -2.895,0.788c-0.912,0.131 -2.484,0.22 -3.678,-0.22c-1.257,-0.464 -2.212,-1.371 -2.444,-2.949l-0.016,-0.109l-0.005,-0.111c-0.028,-0.761 -0.033,-1.522 -0.023,-2.283l-14.77,0l-0.515,-1.244c-1.213,-2.932 -3.624,-8.803 -3.624,-8.803l-0.507,-1.234c-1.098,0 -2.202,0.001 -3.317,0.001l-1.28,-0l-0.544,-1.159c-1.155,-2.461 -2.747,-4.813 -3.646,-7.384l-0.24,-0.688l0.255,-0.682c1.032,-2.759 2.599,-5.334 3.944,-7.942l0.562,-1.089l4.508,-0.008Zm0.495,2.014c-0.11,-0.078 -0.177,-0.09 -0.177,-0.004c-0,0.002 -0,0.003 -0,0.004l0.177,-0Z" style="fill-rule:nonzero;"/><path d="M15.027,54.766l17.09,0.029c-0.002,1.084 -0.005,2.169 -0.034,3.251c-0.018,0.64 -0.06,1.278 -0.083,1.919c-0.047,1.199 -0.04,2.399 -0.047,3.599l-13.304,-0c-1.213,-2.93 -2.616,-5.785 -3.62,-8.798l-0.002,-0Zm0.203,-17.407l5.876,0.008c-0.533,2.872 -0.823,5.632 -0.588,8.392c0.227,2.669 2.336,4.506 3.792,6.516c-5.065,0 -9.911,0.008 -14.971,0.008c-1.126,-2.399 -2.692,-4.686 -3.567,-7.193c1.003,-2.684 2.537,-5.185 3.847,-7.723l5.611,-0.011l0,0.003Zm11.37,-10.737c-1.817,2.747 -3.239,5.674 -4.752,8.468l-6.733,0c0.967,-2.825 2.201,-5.666 3.338,-8.455l8.147,-0.013Z" style="fill:url(#_Linear1);fill-rule:nonzero;"/><path d="M74.973,54.766l-17.091,0.029c0.003,1.084 0.005,2.169 0.034,3.251c0.018,0.64 0.06,1.278 0.084,1.919c0.047,1.199 0.039,2.399 0.047,3.599l13.303,-0c1.213,-2.93 2.617,-5.785 3.62,-8.798l0.003,-0Zm-0.204,-17.407l-5.875,0.008c0.533,2.872 0.823,5.632 0.588,8.392c-0.228,2.669 -2.337,4.506 -3.793,6.516c5.065,0 9.911,0.008 14.971,0.008c1.127,-2.399 2.692,-4.686 3.568,-7.193c-1.004,-2.684 -2.538,-5.185 -3.847,-7.723l-5.612,-0.011l0,0.003Zm-11.369,-10.737c1.816,2.747 3.238,5.674 4.751,8.468l6.733,0c-0.967,-2.825 -2.201,-5.666 -3.338,-8.455l-8.146,-0.013Z" style="fill:url(#_Linear2);fill-rule:nonzero;"/><path d="M15.23,37.359l5.876,0.008c-0.533,2.872 -0.823,5.632 -0.588,8.392c0.227,2.669 2.336,4.506 3.792,6.516c-5.065,0 -9.911,0.008 -14.971,0.008c-1.126,-2.399 -2.692,-4.686 -3.567,-7.193c1.003,-2.684 2.537,-5.185 3.847,-7.723l5.611,-0.011l0,0.003Z" style="fill:url(#_Linear3);fill-rule:nonzero;"/><path d="M74.769,37.359l-5.875,0.008c0.533,2.872 0.823,5.632 0.588,8.392c-0.228,2.669 -2.337,4.506 -3.793,6.516c5.065,0 9.911,0.008 14.971,0.008c1.127,-2.399 2.692,-4.686 3.568,-7.193c-1.004,-2.684 -2.538,-5.185 -3.847,-7.723l-5.612,-0.011l0,0.003Z" style="fill:url(#_Linear4);fill-rule:nonzero;"/><path d="M44.545,20.639c0.688,0.016 1.378,0.013 2.065,0.05c1.385,0.073 1.877,0.149 3.074,0.295c3.199,0.479 6.181,1.885 8.8,3.754c-1.344,2.2 -3.353,3.805 -5.4,5.297c2.679,-0.494 5.172,-1.651 7.386,-3.227c4.112,5.162 7.099,11.549 6.838,18.274c-0.042,2.076 -1.229,4.004 -2.875,5.209c-2.651,1.469 -5.884,1.367 -8.544,2.75c-0.102,0.269 -0.317,0.805 -0.419,1.079c-0.423,4.708 0.646,9.451 0.155,14.153c-0.842,1.122 -2.452,0.8 -3.665,1.093c-0.251,-2.541 0.026,-3.908 -0.316,-6.438c-0.256,-1.889 -1.814,-2.788 -2.06,-0.154c-0.149,1.605 -0.041,2.039 -0.078,3.644c-1.153,0.454 -2.308,0.883 -3.466,1.312c0.029,-2.107 0.319,-3.984 -0.018,-6.056c-0.274,-1.696 -1.665,-0.999 -1.788,-0.092c-0.308,2.259 -0.204,4.3 -0.347,6.574c-1.043,0.227 -2.084,0.455 -3.121,0.685c-0.633,-2.661 -0.131,-7.868 -1.532,-7.865c-2.532,0.008 -0.758,5.478 -1.283,8.28c-1.317,-0.097 -3.573,0.358 -3.842,-1.469c-0.154,-4.187 0.381,-8.364 0.413,-12.548c-0.06,-0.805 -0.005,-1.884 -0.769,-2.381c-2.977,-1.312 -6.73,-1.043 -9.213,-3.353c-2.642,-2.499 -2.148,-6.427 -1.563,-9.66c1.085,-5.471 3.921,-10.531 7.781,-14.527c0.512,2.01 0.81,4.153 1.934,5.943c1.893,1.14 4.242,0.912 6.367,1.043c-1.568,-0.912 -3.377,-1.521 -4.623,-2.883c-0.662,-2.01 -0.703,-4.158 -0.824,-6.252c3.382,-1.746 7.133,-2.524 10.933,-2.535l0,0.005Zm-0.828,25.254c-2.363,3.282 -2.601,7.506 -2.214,11.4c2.232,-0.619 4.558,-0.65 6.795,-0.041c0.424,-3.824 0.246,-8.056 -2.185,-11.242c-0.269,2.972 -0.125,6.019 -1.05,8.897c-1.652,-2.702 -0.931,-6.019 -1.349,-9.014l0.003,-0Zm13.293,-8.95c-0.536,-0.023 -1.054,0.087 -1.563,0.236c-3.424,1.037 -6.043,4.391 -6.242,7.958c-0.149,1.359 0.944,2.721 2.376,2.549c3.121,0.005 6.336,0.41 9.378,-0.424c2.101,-0.614 2.53,-3.27 1.85,-5.078c-0.852,-2.752 -2.822,-4.966 -5.799,-5.241Zm-24.305,0.05c-0.914,0.089 -0.525,0.024 -1.176,0.154c-2.809,0.949 -4.67,3.902 -4.804,6.796c-0.102,1.641 1.033,3.269 2.708,3.497c2.953,0.543 6.001,0.298 8.986,0.227c1.926,0.097 2.512,-2.219 2.028,-3.716c-0.719,-3.069 -3.04,-6.067 -6.226,-6.801c-0.674,-0.154 -0.828,-0.128 -1.516,-0.154l0,-0.003Z" style="fill:url(#_Linear5);fill-rule:nonzero;"/></g><defs><linearGradient id="_Linear1" x1="0" y1="0" x2="1" y2="0" gradientUnits="userSpaceOnUse" gradientTransform="matrix(50.8729,0,0,50.8729,-17.7511,67.9403)"><stop offset="0" style="stop-color:#bb2c26;stop-opacity:1"/><stop offset="0.04" style="stop-color:#bf3526;stop-opacity:1"/><stop offset="0.11" style="stop-color:#cb4d25;stop-opacity:1"/><stop offset="0.19" style="stop-color:#de7523;stop-opacity:1"/><stop offset="0.21" style="stop-color:#e17a23;stop-opacity:1"/><stop offset="0.29" style="stop-color:#ee8b1f;stop-opacity:1"/><stop offset="0.38" style="stop-color:#f5951e;stop-opacity:1"/><stop offset="0.5" style="stop-color:#ff9915;stop-opacity:1"/><stop offset="0.62" style="stop-color:#f5951e;stop-opacity:1"/><stop offset="0.71" style="stop-color:#ee8b1f;stop-opacity:1"/><stop offset="0.79" style="stop-color:#e17a23;stop-opacity:1"/><stop offset="0.8" style="stop-color:#e07823;stop-opacity:1"/><stop offset="0.85" style="stop-color:#d35d24;stop-opacity:1"/><stop offset="0.91" style="stop-color:#c64225;stop-opacity:1"/><stop offset="0.96" style="stop-color:#be3226;stop-opacity:1"/><stop offset="1" style="stop-color:#bb2c26;stop-opacity:1"/></linearGradient><linearGradient id="_Linear2" x1="0" y1="0" x2="1" y2="0" gradientUnits="userSpaceOnUse" gradientTransform="matrix(-50.8729,0,0,50.8729,107.75,67.9403)"><stop offset="0" style="stop-color:#bb2c26;stop-opacity:1"/><stop offset="0.04" style="stop-color:#bf3526;stop-opacity:1"/><stop offset="0.11" style="stop-color:#cb4d25;stop-opacity:1"/><stop offset="0.19" style="stop-color:#de7523;stop-opacity:1"/><stop offset="0.21" style="stop-color:#e17a23;stop-opacity:1"/><stop offset="0.29" style="stop-color:#ee8b1f;stop-opacity:1"/><stop offset="0.38" style="stop-color:#f5951e;stop-opacity:1"/><stop offset="0.5" style="stop-color:#ff9915;stop-opacity:1"/><stop offset="0.62" style="stop-color:#f5951e;stop-opacity:1"/><stop offset="0.71" style="stop-color:#ee8b1f;stop-opacity:1"/><stop offset="0.79" style="stop-color:#e17a23;stop-opacity:1"/><stop offset="0.8" style="stop-color:#e07823;stop-opacity:1"/><stop offset="0.85" style="stop-color:#d35d24;stop-opacity:1"/><stop offset="0.91" style="stop-color:#c64225;stop-opacity:1"/><stop offset="0.96" style="stop-color:#be3226;stop-opacity:1"/><stop offset="1" style="stop-color:#bb2c26;stop-opacity:1"/></linearGradient><linearGradient id="_Linear3" x1="0" y1="0" x2="1" y2="0" gradientUnits="userSpaceOnUse" gradientTransform="matrix(42.0613,0,0,42.0613,-17.7511,67.9403)"><stop offset="0" style="stop-color:#bb2c26;stop-opacity:1"/><stop offset="0.04" style="stop-color:#bf3526;stop-opacity:1"/><stop offset="0.11" style="stop-color:#cb4d25;stop-opacity:1"/><stop offset="0.19" style="stop-color:#de7523;stop-opacity:1"/><stop offset="0.21" style="stop-color:#e17a23;stop-opacity:1"/><stop offset="0.29" style="stop-color:#ee8b1f;stop-opacity:1"/><stop offset="0.38" style="stop-color:#f5951e;stop-opacity:1"/><stop offset="0.5" style="stop-color:#ff9915;stop-opacity:1"/><stop offset="0.62" style="stop-color:#f5951e;stop-opacity:1"/><stop offset="0.71" style="stop-color:#ee8b1f;stop-opacity:1"/><stop offset="0.79" style="stop-color:#e17a23;stop-opacity:1"/><stop offset="0.8" style="stop-color:#e07823;stop-opacity:1"/><stop offset="0.85" style="stop-color:#d35d24;stop-opacity:1"/><stop offset="0.91" style="stop-color:#c64225;stop-opacity:1"/><stop offset="0.96" style="stop-color:#be3226;stop-opacity:1"/><stop offset="1" style="stop-color:#bb2c26;stop-opacity:1"/></linearGradient><linearGradient id="_Linear4" x1="0" y1="0" x2="1" y2="0" gradientUnits="userSpaceOnUse" gradientTransform="matrix(-42.0613,0.503693,0.503693,42.0613,107.75,67.9403)"><stop offset="0" style="stop-color:#bb2c26;stop-opacity:1"/><stop offset="0.04" style="stop-color:#bf3526;stop-opacity:1"/><stop offset="0.11" style="stop-color:#cb4d25;stop-opacity:1"/><stop offset="0.19" style="stop-color:#de7523;stop-opacity:1"/><stop offset="0.21" style="stop-color:#e17a23;stop-opacity:1"/><stop offset="0.29" style="stop-color:#ee8b1f;stop-opacity:1"/><stop offset="0.38" style="stop-color:#f5951e;stop-opacity:1"/><stop offset="0.5" style="stop-color:#ff9915;stop-opacity:1"/><stop offset="0.62" style="stop-color:#f5951e;stop-opacity:1"/><stop offset="0.71" style="stop-color:#ee8b1f;stop-opacity:1"/><stop offset="0.79" style="stop-color:#e17a23;stop-opacity:1"/><stop offset="0.8" style="stop-color:#e07823;stop-opacity:1"/><stop offset="0.85" style="stop-color:#d35d24;stop-opacity:1"/><stop offset="0.91" style="stop-color:#c64225;stop-opacity:1"/><stop offset="0.96" style="stop-color:#be3226;stop-opacity:1"/><stop offset="1" style="stop-color:#bb2c26;stop-opacity:1"/></linearGradient><linearGradient id="_Linear5" x1="0" y1="0" x2="1" y2="0" gradientUnits="userSpaceOnUse" gradientTransform="matrix(59.9437,0,0,59.9437,15.0265,54.7659)"><stop offset="0" style="stop-color:#bb2c26;stop-opacity:1"/><stop offset="0.04" style="stop-color:#bf3526;stop-opacity:1"/><stop offset="0.11" style="stop-color:#cb4d25;stop-opacity:1"/><stop offset="0.19" style="stop-color:#de7523;stop-opacity:1"/><stop offset="0.21" style="stop-color:#e17a23;stop-opacity:1"/><stop offset="0.29" style="stop-color:#ee8b1f;stop-opacity:1"/><stop offset="0.38" style="stop-color:#f5951e;stop-opacity:1"/><stop offset="0.5" style="stop-color:#ff9915;stop-opacity:1"/><stop offset="0.62" style="stop-color:#f5951e;stop-opacity:1"/><stop offset="0.71" style="stop-color:#ee8b1f;stop-opacity:1"/><stop offset="0.79" style="stop-color:#e17a23;stop-opacity:1"/><stop offset="0.8" style="stop-color:#e07823;stop-opacity:1"/><stop offset="0.85" style="stop-color:#d35d24;stop-opacity:1"/><stop offset="0.91" style="stop-color:#c64225;stop-opacity:1"/><stop offset="0.96" style="stop-color:#be3226;stop-opacity:1"/><stop offset="1" style="stop-color:#bb2c26;stop-opacity:1"/></linearGradient></defs></svg>