<?xml version="1.0" encoding="UTF-8" standalone="no"?><!DOCTYPE svg PUBLIC "-//W3C//DTD SVG 1.1//EN" "http://www.w3.org/Graphics/SVG/1.1/DTD/svg11.dtd"><svg width="100%" height="100%" viewBox="0 0 91 90" version="1.1" xmlns="http://www.w3.org/2000/svg" xmlns:xlink="http://www.w3.org/1999/xlink" xml:space="preserve" xmlns:serif="http://www.serif.com/" style="fill-rule:evenodd;clip-rule:evenodd;stroke-linejoin:round;stroke-miterlimit:2;"><rect id="Rare" x="0.033" y="0" width="90" height="90" style="fill:none;"/><path d="M12.931,35.346l0.311,-0.908c0.979,-2.861 2.227,-5.739 3.378,-8.564l0.51,-1.251l11.577,-0.019c0.232,-0.267 0.453,-0.505 0.659,-0.711c4.307,-4.306 11.006,-5.262 15.212,-5.274l-0,0.005l0.046,0.001c0.708,0.016 1.418,0.014 2.126,0.052c1.447,0.077 1.96,0.155 3.238,0.311l0.026,0.004c3.527,0.527 6.859,2.013 9.705,4.129c0.642,0.478 1.294,1.007 1.822,1.622l1.743,-0.061c2.692,-0.095 5.388,-0.072 8.081,-0.08l1.232,-0.004l0.565,1.097c-0,-0 2.963,5.825 3.502,9.068l0.105,0.631l4.787,-0l0.581,1.01c-0,0 2.954,5.154 4.005,7.887l0.277,0.722l-0.277,0.723c-0.995,2.595 -2.603,4.982 -3.842,7.463l-0.557,1.114l-1.246,0c-1.123,0 -2.237,-0.001 -3.346,-0.002l-0.431,1.11c-1.135,2.926 -2.124,6.263 -3.549,9.058l-0.561,1.099l-14.817,0c0.004,0.97 -0.031,1.938 -0.132,2.905l-0.058,0.554l-0.334,0.446c-0.626,0.834 -1.516,1.347 -2.506,1.582c-1.163,0.276 -2.464,0.139 -3.355,-0.131c-0.931,-0.282 -2.534,-1.235 -7.369,-0.947c-0.826,0.049 -1.962,0.306 -2.873,0.475c-0.959,0.177 -1.89,0.644 -2.896,0.788c-0.911,0.131 -2.483,0.22 -3.677,-0.22c-1.258,-0.464 -2.212,-1.371 -2.445,-2.949l-0.016,-0.109l-0.004,-0.111c-0.028,-0.761 -0.033,-1.522 -0.023,-2.283l-14.77,0l-0.515,-1.244c-1.213,-2.932 -3.625,-8.803 -3.625,-8.803l-0.507,-1.234c-1.098,0 -2.202,0.001 -3.316,0.001l-1.28,-0l-0.544,-1.159c-1.155,-2.461 -2.748,-4.813 -3.646,-7.384l-0.24,-0.688l0.255,-0.682c1.031,-2.759 2.598,-5.334 3.944,-7.942l0.562,-1.089l4.508,-0.008Zm0.494,2.014c-0.11,-0.078 -0.177,-0.09 -0.177,-0.004c0,0.002 0,0.003 0,0.004l0.177,-0Z" style="fill-rule:nonzero;"/><path d="M44.578,20.639c0.687,0.016 1.377,0.013 2.065,0.05c1.385,0.073 1.876,0.149 3.073,0.295c3.199,0.479 6.182,1.885 8.801,3.754c-1.344,2.2 -3.354,3.805 -5.4,5.297c2.679,-0.494 5.172,-1.651 7.386,-3.227c4.111,5.162 7.099,11.549 6.837,18.274c-0.042,2.076 -1.228,4.004 -2.875,5.209c-2.65,1.469 -5.883,1.367 -8.544,2.75c-0.102,0.269 -0.316,0.805 -0.418,1.079c-0.423,4.708 0.646,9.451 0.154,14.153c-0.841,1.122 -2.451,0.8 -3.664,1.093c-0.251,-2.541 0.026,-3.908 -0.316,-6.438c-0.257,-1.889 -1.814,-2.788 -2.06,-0.154c-0.149,1.605 -0.042,2.039 -0.078,3.644c-1.153,0.454 -2.308,0.883 -3.466,1.312c0.029,-2.107 0.319,-3.984 -0.018,-6.056c-0.275,-1.696 -1.665,-0.999 -1.788,-0.092c-0.309,2.259 -0.204,4.3 -0.348,6.574c-1.043,0.227 -2.083,0.455 -3.12,0.685c-0.633,-2.661 -0.131,-7.868 -1.532,-7.865c-2.533,0.008 -0.758,5.478 -1.283,8.28c-1.318,-0.097 -3.573,0.358 -3.842,-1.469c-0.155,-4.187 0.381,-8.364 0.412,-12.548c-0.06,-0.805 -0.005,-1.884 -0.768,-2.381c-2.977,-1.312 -6.73,-1.043 -9.213,-3.353c-2.642,-2.499 -2.149,-6.427 -1.563,-9.66c1.085,-5.471 3.92,-10.531 7.781,-14.527c0.512,2.01 0.81,4.153 1.934,5.943c1.892,1.14 4.242,0.912 6.367,1.043c-1.568,-0.912 -3.377,-1.521 -4.624,-2.883c-0.661,-2.01 -0.703,-4.158 -0.823,-6.252c3.382,-1.746 7.133,-2.524 10.933,-2.535l-0,0.005Zm-0.829,25.254c-2.362,3.282 -2.6,7.506 -2.213,11.4c2.232,-0.619 4.558,-0.65 6.795,-0.041c0.424,-3.824 0.246,-8.056 -2.185,-11.242c-0.269,2.972 -0.125,6.019 -1.051,8.897c-1.651,-2.702 -0.93,-6.019 -1.348,-9.014l0.002,-0Zm13.293,-8.95c-0.535,-0.023 -1.053,0.087 -1.563,0.236c-3.423,1.037 -6.042,4.391 -6.241,7.958c-0.149,1.359 0.944,2.721 2.376,2.549c3.121,0.005 6.335,0.41 9.378,-0.424c2.101,-0.614 2.53,-3.27 1.85,-5.078c-0.852,-2.752 -2.823,-4.966 -5.8,-5.241Zm-24.304,0.05c-0.915,0.089 -0.525,0.024 -1.176,0.154c-2.81,0.949 -4.671,3.902 -4.804,6.796c-0.102,1.641 1.032,3.269 2.708,3.497c2.953,0.543 6.001,0.298 8.985,0.227c1.927,0.097 2.512,-2.219 2.029,-3.716c-0.719,-3.069 -3.04,-6.067 -6.226,-6.801c-0.674,-0.154 -0.829,-0.128 -1.516,-0.154l-0,-0.003Z" style="fill:url(#_Linear1);fill-rule:nonzero;"/><path d="M15.059,54.766l17.091,0.029c-0.003,1.084 -0.005,2.169 -0.034,3.251c-0.018,0.64 -0.06,1.278 -0.084,1.919c-0.047,1.199 -0.039,2.399 -0.047,3.599l-13.303,-0c-1.213,-2.93 -2.617,-5.785 -3.62,-8.798l-0.003,-0Zm0.204,-17.407l5.876,0.008c-0.534,2.872 -0.824,5.632 -0.589,8.392c0.228,2.669 2.337,4.506 3.793,6.516c-5.065,0 -9.911,0.008 -14.971,0.008c-1.127,-2.399 -2.692,-4.686 -3.568,-7.193c1.004,-2.684 2.538,-5.185 3.848,-7.723l5.611,-0.011l0,0.003Zm11.369,-10.737c-1.816,2.747 -3.238,5.674 -4.751,8.468l-6.733,0c0.967,-2.825 2.201,-5.666 3.338,-8.455l8.146,-0.013Z" style="fill:url(#_Linear2);fill-rule:nonzero;"/><path d="M75.006,54.766l-17.091,0.029c0.002,1.084 0.005,2.169 0.034,3.251c0.018,0.64 0.06,1.278 0.083,1.919c0.047,1.199 0.04,2.399 0.047,3.599l13.304,-0c1.213,-2.93 2.616,-5.785 3.62,-8.798l0.003,-0Zm-0.204,-17.407l-5.876,0.008c0.533,2.872 0.823,5.632 0.588,8.392c-0.227,2.669 -2.336,4.506 -3.792,6.516c5.065,0 9.911,0.008 14.971,0.008c1.126,-2.399 2.692,-4.686 3.568,-7.193c-1.004,-2.684 -2.538,-5.185 -3.848,-7.723l-5.611,-0.011l-0,0.003Zm-11.37,-10.737c1.817,2.747 3.239,5.674 4.752,8.468l6.733,0c-0.967,-2.825 -2.201,-5.666 -3.338,-8.455l-8.147,-0.013Z" style="fill:url(#_Linear3);fill-rule:nonzero;"/><path d="M15.263,37.359l5.876,0.008c-0.534,2.872 -0.824,5.632 -0.589,8.392c0.228,2.669 2.337,4.506 3.793,6.516c-5.065,0 -9.911,0.008 -14.971,0.008c-1.127,-2.399 -2.692,-4.686 -3.568,-7.193c1.004,-2.684 2.538,-5.185 3.848,-7.723l5.611,-0.011l0,0.003Z" style="fill:url(#_Linear4);fill-rule:nonzero;"/><path d="M74.802,37.359l-5.876,0.008c0.533,2.872 0.823,5.632 0.588,8.392c-0.227,2.669 -2.336,4.506 -3.792,6.516c5.065,0 9.911,0.008 14.971,0.008c1.126,-2.399 2.692,-4.686 3.568,-7.193c-1.004,-2.684 -2.538,-5.185 -3.848,-7.723l-5.611,-0.011l-0,0.003Z" style="fill:url(#_Linear5);fill-rule:nonzero;"/><defs><linearGradient id="_Linear1" x1="0" y1="0" x2="1" y2="0" gradientUnits="userSpaceOnUse" gradientTransform="matrix(59.9437,0,0,59.9437,15.0592,54.7659)"><stop offset="0" style="stop-color:#8d742f;stop-opacity:1"/><stop offset="0.07" style="stop-color:#967d38;stop-opacity:1"/><stop offset="0.18" style="stop-color:#ae954f;stop-opacity:1"/><stop offset="0.2" style="stop-color:#b39a54;stop-opacity:1"/><stop offset="0.22" style="stop-color:#b9a059;stop-opacity:1"/><stop offset="0.3" style="stop-color:#cab068;stop-opacity:1"/><stop offset="0.39" style="stop-color:#d4ba71;stop-opacity:1"/><stop offset="0.5" style="stop-color:#d7bd74;stop-opacity:1"/><stop offset="0.61" style="stop-color:#d4ba71;stop-opacity:1"/><stop offset="0.7" style="stop-color:#cab068;stop-opacity:1"/><stop offset="0.78" style="stop-color:#b9a059;stop-opacity:1"/><stop offset="0.8" style="stop-color:#b39a54;stop-opacity:1"/><stop offset="0.86" style="stop-color:#a38a45;stop-opacity:1"/><stop offset="0.94" style="stop-color:#937a35;stop-opacity:1"/><stop offset="1" style="stop-color:#8d742f;stop-opacity:1"/></linearGradient><linearGradient id="_Linear2" x1="0" y1="0" x2="1" y2="0" gradientUnits="userSpaceOnUse" gradientTransform="matrix(50.8729,0,0,50.8729,-17.7184,67.9403)"><stop offset="0" style="stop-color:#8d742f;stop-opacity:1"/><stop offset="0.07" style="stop-color:#967d38;stop-opacity:1"/><stop offset="0.18" style="stop-color:#ae954f;stop-opacity:1"/><stop offset="0.2" style="stop-color:#b39a54;stop-opacity:1"/><stop offset="0.22" style="stop-color:#b9a059;stop-opacity:1"/><stop offset="0.3" style="stop-color:#cab068;stop-opacity:1"/><stop offset="0.39" style="stop-color:#d4ba71;stop-opacity:1"/><stop offset="0.5" style="stop-color:#d7bd74;stop-opacity:1"/><stop offset="0.61" style="stop-color:#d4ba71;stop-opacity:1"/><stop offset="0.7" style="stop-color:#cab068;stop-opacity:1"/><stop offset="0.78" style="stop-color:#b9a059;stop-opacity:1"/><stop offset="0.8" style="stop-color:#b39a54;stop-opacity:1"/><stop offset="0.86" style="stop-color:#a38a45;stop-opacity:1"/><stop offset="0.94" style="stop-color:#937a35;stop-opacity:1"/><stop offset="1" style="stop-color:#8d742f;stop-opacity:1"/></linearGradient><linearGradient id="_Linear3" x1="0" y1="0" x2="1" y2="0" gradientUnits="userSpaceOnUse" gradientTransform="matrix(-50.8729,0,0,50.8729,107.783,67.9403)"><stop offset="0" style="stop-color:#8d742f;stop-opacity:1"/><stop offset="0.07" style="stop-color:#967d38;stop-opacity:1"/><stop offset="0.18" style="stop-color:#ae954f;stop-opacity:1"/><stop offset="0.2" style="stop-color:#b39a54;stop-opacity:1"/><stop offset="0.22" style="stop-color:#b9a059;stop-opacity:1"/><stop offset="0.3" style="stop-color:#cab068;stop-opacity:1"/><stop offset="0.39" style="stop-color:#d4ba71;stop-opacity:1"/><stop offset="0.5" style="stop-color:#d7bd74;stop-opacity:1"/><stop offset="0.61" style="stop-color:#d4ba71;stop-opacity:1"/><stop offset="0.7" style="stop-color:#cab068;stop-opacity:1"/><stop offset="0.78" style="stop-color:#b9a059;stop-opacity:1"/><stop offset="0.8" style="stop-color:#b39a54;stop-opacity:1"/><stop offset="0.86" style="stop-color:#a38a45;stop-opacity:1"/><stop offset="0.94" style="stop-color:#937a35;stop-opacity:1"/><stop offset="1" style="stop-color:#8d742f;stop-opacity:1"/></linearGradient><linearGradient id="_Linear4" x1="0" y1="0" x2="1" y2="0" gradientUnits="userSpaceOnUse" gradientTransform="matrix(42.0613,0,0,42.0613,-17.7184,67.9403)"><stop offset="0" style="stop-color:#8d742f;stop-opacity:1"/><stop offset="0.07" style="stop-color:#967d38;stop-opacity:1"/><stop offset="0.18" style="stop-color:#ae954f;stop-opacity:1"/><stop offset="0.2" style="stop-color:#b39a54;stop-opacity:1"/><stop offset="0.22" style="stop-color:#b9a059;stop-opacity:1"/><stop offset="0.3" style="stop-color:#cab068;stop-opacity:1"/><stop offset="0.39" style="stop-color:#d4ba71;stop-opacity:1"/><stop offset="0.5" style="stop-color:#d7bd74;stop-opacity:1"/><stop offset="0.61" style="stop-color:#d4ba71;stop-opacity:1"/><stop offset="0.7" style="stop-color:#cab068;stop-opacity:1"/><stop offset="0.78" style="stop-color:#b9a059;stop-opacity:1"/><stop offset="0.8" style="stop-color:#b39a54;stop-opacity:1"/><stop offset="0.86" style="stop-color:#a38a45;stop-opacity:1"/><stop offset="0.94" style="stop-color:#937a35;stop-opacity:1"/><stop offset="1" style="stop-color:#8d742f;stop-opacity:1"/></linearGradient><linearGradient id="_Linear5" x1="0" y1="0" x2="1" y2="0" gradientUnits="userSpaceOnUse" gradientTransform="matrix(-42.0613,0.503693,0.503693,42.0613,107.783,67.9403)"><stop offset="0" style="stop-color:#8d742f;stop-opacity:1"/><stop offset="0.07" style="stop-color:#967d38;stop-opacity:1"/><stop offset="0.18" style="stop-color:#ae954f;stop-opacity:1"/><stop offset="0.2" style="stop-color:#b39a54;stop-opacity:1"/><stop offset="0.22" style="stop-color:#b9a059;stop-opacity:1"/><stop offset="0.3" style="stop-color:#cab068;stop-opacity:1"/><stop offset="0.39" style="stop-color:#d4ba71;stop-opacity:1"/><stop offset="0.5" style="stop-color:#d7bd74;stop-opacity:1"/><stop offset="0.61" style="stop-color:#d4ba71;stop-opacity:1"/><stop offset="0.7" style="stop-color:#cab068;stop-opacity:1"/><stop offset="0.78" style="stop-color:#b9a059;stop-opacity:1"/><stop offset="0.8" style="stop-color:#b39a54;stop-opacity:1"/><stop offset="0.86" style="stop-color:#a38a45;stop-opacity:1"/><stop offset="0.94" style="stop-color:#937a35;stop-opacity:1"/><stop offset="1" style="stop-color:#8d742f;stop-opacity:1"/></linearGradient></defs></svg>