<?xml version="1.0" encoding="UTF-8" standalone="no"?>
<svg xmlns="http://www.w3.org/2000/svg" width="1021.1755" height="856.51123" version="1.1">
  <radialGradient cx="510.58773" cy="428.2556" r="510.58773" fx="510.58773" fy="428.2556" id="radialGradient3009" gradientUnits="userSpaceOnUse" gradientTransform="matrix(1,0,0,0.83875029,0,69.056092)" spreadMethod="pad">
    <stop style="stop-color:#bf99c3" offset="0"/>
    <stop style="stop-color:#7b5190" offset="0.7"/>
    <stop style="stop-color:#612c75" offset="1"/>
  </radialGradient>
  <path d="m 729.46282,0 c 0,0 53.955,5.852 53.955,61.631 l 200.224,55.779 c 0,0 50.02098,19.287 34.57198,84.756 L 852.72482,819.998 c 0,0 -34.666,46.252 -75.066,34.644 l -267.006,-73.429 -267.075,73.428 c -40.4,11.61 -75.066,-34.642 -75.066,-34.642 L 2.9288246,202.167 C -12.426175,136.698 37.594825,117.411 37.594825,117.411 L 237.81882,61.632 c 0,-55.779 53.859,-61.631 53.859,-61.631 h 437.784 z" style="fill:#ffffff"/>
  <path d="m 729.46285,1.525306e-5 c 0,0 53.955,5.85200004694 53.955,61.63099974694 l 200.224,55.778995 c 0,0 50.02095,19.287 34.57195,84.756 l -165.48895,617.832 c 0,0 -34.666,46.252 -75.066,34.644 l -267.006,-73.429 -267.075,73.428 c -40.4,11.61 -75.066,-34.642 -75.066,-34.642 L 2.9288504,202.16701 c -15.3550004,-65.469 34.6659996,-84.756 34.6659996,-84.756 l 200.224,-55.778995 c 0,-55.7789997 53.859,-61.63099975 53.859,-61.63099975 h 437.784 z M 727.73085,23.150015 h -434.319 c -2.458,0.445 -10.228,2.178 -17.461,7.045 -10.322,6.835 -15.075,16.807 -15.075,31.437 v 17.555 c 0,0 -212.419,59.266995 -215.509,60.086995 -5.594,2.551 -22.236,12.616 -22.236,39.207 0,5.407 0.749,11.445 2.294,18.304 0.282,1.007 161.463,602.641 164.13,612.332 7.023,8.052 27.972,28.977 47.729,23.407 l 273.37,-75.254 273.302,75.254 c 19.756,5.571 40.612,-15.355 47.727,-23.407 2.669,-9.69 163.85,-611.325 164.132,-612.332 1.545,-6.859 2.29396,-12.897 2.29396,-18.304 0,-26.592 -16.73596,-36.656 -22.23596,-39.207 -3.091,-0.821 -215.603,-60.086995 -215.603,-60.086995 l -0.002,-17.555 c 0.002,-14.63 -4.751,-24.602 -14.979,-31.437 -7.233,-4.867 -15.005,-6.6 -17.555,-7.045 h -0.002 z m -471.447,86.745995 v 594.121 c 0,0 5.033,38.598 35.93,38.598 h 166.775 l -223.281,61.537 c 0,0 -12.803,6.39 -19.287,-7.678 l -164.224,-609.592 c 0,0.002 -6.484,-19.217 8.965,-24.32 l 195.121,-52.666 z m 508.754,-1.287 194.935,52.666 c 15.449,5.127 9.035,24.32 9.035,24.32 l -164.296,609.592 c -6.32,14.092 -19.193,7.678 -19.193,7.678 l -223.281,-61.631 h 166.847 c 30.734,0 35.953,-38.482 35.953,-38.482 v -594.144 z m -39.135,-57.698995 c 8.965,0 10.228,11.517 10.228,11.517 V 701.46601 c 0,10.252 -10.228,12.803 -10.228,12.803 h -429.85 c -9.035,0 -9.035,-12.803 -9.035,-12.803 V 62.427015 c 0,-7.677 9.035,-11.517 9.035,-11.517 z m -163.702,79.078995 c -3.84,0.213 -2.251,-0.121 -4.832,0.621 q -10.31,5.156 -16.201,15.095 -5.891,9.941 -10.677,22.828 -2.21,-1.104 -10.126,-2.393 -7.916,-1.289 -18.041,-2.393 -10.126,-1.106 -20.251,-1.841 -10.125,-0.735 -16.015,-0.737 -26.51,0.002 -51.915,8.837 -25.405,8.837 -45.657,25.774 -20.25,16.937 -32.585,41.974 -12.335,25.037 -12.334,57.438 0,35.347 11.23,60.568 11.23,25.221 29.455,41.236 18.225,16.017 41.789,23.564 23.566,7.549 48.234,7.549 6.26,0 13.807,-0.369 l 3.886,-0.167 -1.432,3.028 q -11.757,26.544 -11.757,63.241 0,26.365 8.55,48.276 8.552,21.912 24.941,37.588 16.389,15.677 40.26,24.585 23.871,8.908 54.868,8.907 7.839,0 18.171,-0.534 10.332,-0.534 20.664,-1.425 10.332,-0.891 19.417,-1.425 9.085,-0.534 14.43,-0.534 6.414,0 8.373,5.521 1.959,5.523 2.673,10.511 0.712,3.207 3.384,3.384 2.672,0.177 6.234,-1.248 -1.78,-6.057 -2.493,-14.964 -0.712,-8.907 -0.712,-18.169 0,-11.402 1.78,-20.309 1.07,-4.632 2.138,-8.55 0,-1.782 -1.959,-2.85 -1.959,-1.068 -3.384,-1.068 -0.357,0 -1.427,1.068 -2.137,4.989 -7.66,11.401 -5.523,6.414 -14.43,12.291 -8.907,5.879 -21.733,9.977 -12.827,4.098 -29.571,4.098 -17.459,0 -30.819,-5.345 -13.36,-5.345 -22.98,-14.43 -9.62,-9.085 -16.034,-20.664 -6.412,-11.58 -10.332,-24.049 -3.919,-12.471 -5.521,-24.941 -1.604,-12.469 -1.604,-23.158 6.057,-0.357 20.844,-0.713 14.785,-0.355 39.013,-0.355 12.826,0 23.871,0.355 11.046,0.357 19.773,1.961 8.73,1.603 14.252,4.809 5.522,3.206 6.948,8.907 0.712,2.493 4.096,3.919 3.386,1.425 4.098,-2.137 0,-8.907 1.425,-17.103 1.425,-8.194 3.564,-14.964 2.137,-6.769 3.919,-11.935 1.782,-5.166 2.493,-8.373 -1.068,-1.425 -3.741,-1.782 -2.671,-0.357 -4.096,1.782 -2.85,2.85 -9.62,5.344 -6.77,2.494 -16.032,4.454 -9.262,1.96 -20.308,3.028 -11.046,1.07 -22.446,1.07 -4.989,0.355 -14.964,0.177 -9.977,-0.177 -20.666,-0.534 -10.687,-0.357 -19.773,-1.068 -9.085,-0.713 -11.935,-1.427 1.068,-18.883 6.769,-36.519 5.701,-17.636 15.321,-31.353 9.619,-13.716 22.803,-22.089 13.182,-8.373 29.215,-8.373 14.251,0 25.653,3.741 11.401,3.741 19.596,9.443 8.194,5.7 13.182,11.935 4.988,6.235 6.769,11.223 1.425,4.989 5.166,5.166 3.741,0.179 4.454,-2.673 1.425,-10.687 3.384,-19.239 1.959,-8.55 3.741,-13.182 4.275,-15.321 9.798,-26.187 5.523,-10.866 13.716,-17.28 4.989,-3.562 2.495,-5.7 -2.495,-2.137 -8.552,-3.919 -4.987,0 -8.55,6.591 -3.563,6.591 -6.234,14.251 -2.673,7.661 -4.454,14.073 -1.782,6.414 -3.562,6.057 -2.85,-0.712 -9.62,-1.603 -6.77,-0.891 -15.676,-1.782 -8.906,-0.891 -18.884,-1.425 -9.975,-0.534 -18.526,-0.534 -28.503,0 -54.513,8.016 -26.008,8.016 -45.961,25.119 c -9.4,8.554 -18.178,18.009 -24.175,29.331 -11.889,1.966 -6.518,1.493 -16.063,1.881 q -18.778,0 -34.611,-9.02 -15.831,-9.021 -27.245,-26.327 -11.414,-17.304 -17.859,-42.158 -6.443,-24.852 -6.443,-56.885 0,-23.195 5.154,-43.447 5.156,-20.25 14.913,-34.978 9.757,-14.727 23.933,-23.197 14.174,-8.467 32.217,-8.467 16.937,0 29.271,4.417 12.334,4.419 20.618,11.783 8.284,7.364 12.887,16.568 4.603,9.206 6.076,18.41 2.944,2.21 5.154,2.208 1.473,0.002 2.946,-1.289 1.473,-1.289 1.473,-3.128 0,-3.314 0.367,-8.102 0.369,-4.785 1.106,-9.941 0.736,-5.154 1.655,-10.493 0.922,-5.338 1.657,-9.388 1.473,-8.468 4.234,-16.753 2.761,-8.285 6.444,-14.729 3.681,-6.443 7.916,-10.493 4.235,-4.05 8.653,-4.052 1.473,0.002 2.393,-0.736 0.92,-0.736 2.761,-4.05 0,-2.946 -3.681,-3.683 l -1.795,-0.253 z" style="fill:url(#radialGradient3009)"/>
</svg>
