<?xml version="1.0" encoding="UTF-8" standalone="no"?>
<svg xmlns="http://www.w3.org/2000/svg" version="1.1" id="Welcome_Deck" x="0px" y="0px" width="482.689px" height="246px" viewBox="6.155 141.5 482.689 246">
  <g id="common_1_">
    <path id="border" fill="#FFFFFF" d="M38.997,142.73c138.406,0,278.384,0,416.792,0c40.857,61.515,40.857,181.653,0,243.54   c-139.712,0-277.08,0-416.792,0C0.779,325.146-3.861,209.084,38.997,142.73z"/>
    <path id="star" d="M457.891,141.5h-421c-43.291,67.025-38.604,184.26,0,246h421C499.163,324.986,499.163,203.637,457.891,141.5z    M446.726,373.5H47.098c-34.99-52.865-36.26-163.839,0-218h399.625C482.949,208.353,482.95,320.646,446.726,373.5z M438.891,177.5   c-12.573,0-25.875-0.025-43.899-0.025c-94.022,5.197-161.514,39.628-216.952,72.362c25.667-0.333,63.009-4.136,63.3-1.608   s-39.721,13.041-67.387,21.375c22.067,14.277,61.921,40.597,60.549,43.053c-1.372,2.455-56.864-21.98-76.571-29.166   c7.856,19.419,29.096,61.65,26.902,62.639s-26.744-30.874-46.827-52.924c-14.964,23.348-37.833,60.827-39.914,60.122   s10.735-42.259,18.181-66.634c-25.2,6.453-70.298,27.608-71.809,25.242c-1.511-2.367,42.896-31.484,63.263-45.537   c-19.069-11.908-63.501-33.452-62.903-35.806c0.598-2.352,47.063,11.892,71.449,17.647c-5.564-20.033-23.1-60.509-21.06-61.557   c2.04-1.048,26.978,36.349,41.355,53.012c12.881-19.908,30.464-59.172,32.993-58.527s-6.785,42.138-8.729,53.834   c36.793-24.924,95.356-51.097,168.152-65.501H53.891c-24.91,49.924-26.221,140.517,0,190h385   C462.073,313.859,465.073,224.951,438.891,177.5z M335.938,336.5h-71.463v-4c4.683,0,24.139-5.982,24.139-17.238V224.5h-23.896v-4   c14.019,0,27.37-7.052,46.174-23.242h5.333c0,22.681,0.025,83.165,0.025,118.003c0,9.698,13.271,17.238,19.688,17.238V336.5   L335.938,336.5z"/>
  </g>
  <g id="g6">
    <path fill="#FFFFFF" d="M345.389,243.631v-46.214h89.938l0.19,0.671l-44.968,136.821c-12.785,0-23.396,1.63-31.833,4.89   l-0.383-0.574l56.378-121.193h-40.078c-14.063,0-23.556,8.534-28.477,25.6H345.389z"/>
  </g>
</svg>
