<?xml version="1.0" encoding="UTF-8" standalone="no"?>
<svg xmlns="http://www.w3.org/2000/svg" version="1.1" id="Welcome_Deck" x="0px" y="0px" width="482.688px" height="246px" viewBox="6.155 141.5 482.688 246">
  <g id="mythic_1_">
    <path id="border_1_" d="M40.997,141.73c138.405,0,278.384,0,416.791,0c40.858,61.515,40.858,181.653,0,243.54   c-139.712,0-277.079,0-416.791,0C2.779,324.146-1.861,208.084,40.997,141.73z"/>
    <linearGradient id="star_2_" gradientUnits="userSpaceOnUse" x1="217.2798" y1="-565.9326" x2="639.8444" y2="-321.965" gradientTransform="matrix(1 0 0 -1 -181.0996 -179.4902)">
      <stop offset="0" style="stop-color:#bf331c"/>
      <stop offset="0.5" style="stop-color:#f6b91d"/>
      <stop offset="1" style="stop-color:#bf331c"/>
    </linearGradient>
    <path id="star_1_" fill="url(#star_2_)" d="M457.891,141.5h-421c-43.291,67.025-38.604,184.26,0,246h421   C499.162,324.986,499.162,203.637,457.891,141.5z M446.726,373.5H47.098c-34.99-52.865-36.26-163.839,0-218h399.625   C482.948,208.353,482.949,320.646,446.726,373.5z M438.891,177.5c-12.573,0-25.875-0.025-43.899-0.025   c-94.021,5.197-161.514,39.628-216.951,72.362c25.667-0.333,63.009-4.136,63.3-1.608s-39.721,13.041-67.387,21.375   c22.066,14.277,61.921,40.598,60.549,43.053s-56.864-21.979-76.571-29.165c7.856,19.419,29.096,61.649,26.902,62.639   c-2.194,0.987-26.744-30.874-46.827-52.924c-14.964,23.348-37.833,60.827-39.914,60.122c-2.081-0.705,10.735-42.26,18.181-66.635   c-25.2,6.453-70.298,27.609-71.809,25.242c-1.511-2.367,42.896-31.483,63.263-45.537c-19.069-11.907-63.501-33.454-62.903-35.805   c0.599-2.352,47.063,11.892,71.449,17.647c-5.563-20.033-23.1-60.509-21.06-61.557c2.04-1.048,26.978,36.349,41.354,53.012   c12.881-19.908,30.464-59.172,32.993-58.527s-6.785,42.138-8.729,53.834c36.793-24.924,95.355-51.097,168.151-65.501H53.891   c-24.91,49.924-26.221,140.518,0,190h385C462.073,313.859,465.073,224.951,438.891,177.5z M335.938,336.5h-71.463v-4   c4.683,0,24.139-5.982,24.139-17.238V224.5h-23.896v-4c14.019,0,27.37-7.052,46.174-23.242h5.333   c0,22.681,0.024,83.165,0.024,118.003c0,9.698,13.271,17.238,19.688,17.238L335.938,336.5L335.938,336.5z"/>
  </g>
  <g>
    <path d="M345.389,243.631v-46.214h89.938l0.19,0.671l-44.968,136.821c-12.785,0-23.396,1.63-31.833,4.89l-0.383-0.574   l56.378-121.193h-40.078c-14.063,0-23.556,8.534-28.477,25.6H345.389z"/>
  </g>
</svg>
