<?xml version="1.0" encoding="UTF-8" standalone="no"?>
<svg xmlns="http://www.w3.org/2000/svg" version="1.1" id="Welcome_Deck" x="0px" y="0px" width="482.68973" height="246">
  <path d="m 30.735732,0 c -43.291,67.025 -38.604,184.26 0,246 H 451.73573 c 41.272,-62.514 41.272,-183.863 0,-246 z M 40.942763,14 H 440.56776 c 36.226,52.853 36.22595,165.146 0.002,218 H 40.942763 c -34.99,-52.865 -36.26,-163.839 0,-218 z m 6.792969,14.00195 c -24.91,49.924 -26.221,140.517 0,190 H 432.73573 c 23.182,-45.642 26.182,-134.55095 0,-182.00195 -12.573,0 -25.87444,-0.0254 -43.89844,-0.0254 -94.022,5.197 -161.51512,39.62928 -216.95312,72.36328 25.667,-0.333 63.00978,-4.13737 63.30078,-1.60937 0.291,2.528 -39.72072,13.041 -67.38672,21.375 22.067,14.277 61.92083,40.59673 60.54883,43.05273 -1.372,2.455 -56.86527,-21.98002 -76.57227,-29.16602 7.856,19.419 29.09634,61.65163 26.90234,62.64063 -2.194,0.989 -26.74317,-30.87578 -46.82617,-52.92578 -14.964,23.348 -37.83306,60.82804 -39.914056,60.12304 -2.081,-0.70499 10.733686,-42.25976 18.179686,-66.63476 -25.199999,6.453 -70.297592,27.60819 -71.808592,25.24219 -1.511,-2.367 42.896672,-31.48411 63.263672,-45.53711 -19.069,-11.908 -63.500344,-33.45069 -62.902344,-35.80469 0.598,-2.352 47.061266,11.89148 71.447264,17.64648 -5.564,-20.03299 -23.098592,-60.50863 -21.058592,-61.55663 2.04,-1.048 26.976512,36.34871 41.353512,53.01171 12.881,-19.908 30.46514,-59.17234 32.99414,-58.52734 2.529,0.645 -6.78452,42.13798 -8.72852,53.83398 36.793,-24.924 95.35439,-51.096 168.15039,-65.5 z M 304.73573,55.75781 h 5.33398 c 0,22.681 0.0254,83.16591 0.0254,118.00391 0,9.698 13.2705,17.23633 19.6875,17.23633 V 195 h -71.46289 v -4 c 4.683,0 24.13867,-5.98228 24.13867,-17.23828 V 83 H 258.5619 v -4 c 14.019,0 27.36983,-7.05219 46.17383,-23.24219 z m 34.49805,0.16016 h 89.9375 l 0.18945,0.66992 -44.9668,136.82031 c -12.785,0 -23.39698,1.63063 -31.83398,4.89063 l -0.38282,-0.57422 56.37891,-121.19336 h -40.07812 c -14.063,0 -23.55557,8.53556 -28.47657,25.60156 h -0.76757 v -0.002 z"/>
</svg>
