<?xml version="1.0" encoding="UTF-8" standalone="no"?>
<svg xmlns="http://www.w3.org/2000/svg" version="1.1" width="600" height="286.83655">
  <path d="M 546.71077,71.57538 C 535.23692,81.4523 522.48,91.15384 514.14462,91.15384 c -1.5877,0 -2.74154,-0.32271 -4.21847,-2.05846 l -23.4,-26.67692 -3.60923,35.33538 c -0.17575,1.76308 -0.46154,3.93231 -0.68307,5.16 -1.32923,2.44616 -1.83693,2.48308 -4.25539,2.66769 -2.27077,0 -6.45231,-2.27076 -10.16308,-4.32923 -1.11692,-0.61883 -2.23384,-1.22769 -3.39692,-1.8 L 467.95385,14.88923 433.33846,72.44307 409.46769,0 396.96,79.14461 345.50769,27.04615 l 24.84,82.96615 c -6.73846,5.88 -15.17538,11.36308 -20.44615,11.36308 -7.35692,0 -9.72923,-3.32308 -9.98769,-3.75692 l -3.46154,-11.46462 -58.80923,9.62769 L 279.48,127.24615 0,165.54461 l 8.04,55.92 280.34769,-38.00308 1.73539,10.85539 48.24,-6.20308 c 0.68307,1.66154 0.97846,3.06462 0.86769,3.93231 -0.0738,0.75692 -1.36615,1.68923 -1.94769,2.08615 -5.04923,3.49846 -13.08923,5.40923 -22.60616,5.40923 -3.64615,0 -6.16615,-0.28578 -6.56307,-0.32344 l -22.8277,-3.06462 5.76923,22.24616 c 6.20308,23.69538 34.25539,68.43692 96.3877,68.43692 86.57538,0 157.1723,-71.24308 193.22769,-191.60308 C 594.12,50.40886 600,9.98732 600,9.98732 c 0,0 -23.11385,35.55692 -53.28923,61.58769" style="fill:#808080"/>
  <path d="m 421.58769,155.33538 1.87385,-0.0369 c 25.49538,-1.19077 27.90461,-26.31693 27.94154,-26.57539 0.0738,-1.04307 -0.60923,-1.97538 -1.61539,-2.30769 -0.22154,-0.0665 -0.43347,-0.0665 -0.65575,-0.0665 -0.83077,0 -1.58769,0.39729 -2.01231,1.11692 -0.0738,0.10117 -8.01231,13.22769 -24.52615,14.60308 -0.96923,0.0369 -1.87385,0.0738 -2.77846,0.0738 -15,0 -24.72924,-10.28308 -24.80308,-10.38462 -0.4704,-0.4704 -1.08,-0.72886 -1.73539,-0.72886 -0.36037,0 -0.75692,0.0738 -1.11692,0.25846 -0.89538,0.49846 -1.36615,1.55077 -1.08,2.55692 0.0738,0.22154 6.74769,21.48924 30.50769,21.48924 m -75.54461,16.22769 -43.01539,5.52 -1.72615,-10.92923 -280.172308,37.96615 -3.636924,-25.38461 279.692312,-38.28924 -1.87385,-11.89846 30.32308,-4.97538 c 0,0 5.52,13.22769 24.26769,13.22769 17.92615,0 38.33538,-22.60615 38.33538,-22.60615 l -12.95077,-36.41539 26.57539,30.57231 c 2.34461,-0.82154 4.86461,-1.55077 7.60615,-2.16 l 4.97539,-44.41846 11.64923,42.97846 c 2.41846,0.11077 4.93846,0.32271 7.54154,0.72 l 17.76923,-34.29231 -3.31385,37.92923 c 1.51385,0.54499 3.06462,1.15385 4.65231,1.80923 8.51077,3.56308 16.94769,10.81846 26.68615,10.06154 8.89846,-0.69194 13.41231,-4.76308 17.19693,-12.29538 0.89538,-1.80923 1.6523,-9.37847 1.6523,-9.37847 24.20308,27.65539 73.92,-31.98461 73.92,-31.98461 -30.24923,124.4677 -97.96615,204.08308 -184.79077,204.08308 -66.56307,0 -81.38769,-56.89846 -81.38769,-56.89846 0,0 24.05539,3.39692 40.02462,-7.64308 16.01538,-11.03077 6.06461,-28.12615 0,-35.29846"/>
</svg>
