<?xml version="1.0" encoding="UTF-8" standalone="no"?>
<svg xmlns="http://www.w3.org/2000/svg" version="1.1" width="600" height="286.83655">
  <radialGradient cx="0" cy="0" r="1" fx="0" fy="0" id="radialGradient892" gradientUnits="userSpaceOnUse" gradientTransform="matrix(21.856094,0,0,-21.856094,400.23437,31.442383)" spreadMethod="pad">
    <stop style="stop-color:#d9eaf3" offset="0"/>
    <stop style="stop-color:#99aebc" offset="0.66291797"/>
    <stop style="stop-color:#536e78" offset="1"/>
  </radialGradient>
  <path d="m 546.71077,71.57538 c -11.43692,9.87692 -24.20308,19.57846 -32.52923,19.57846 -1.58769,0 -2.74154,-0.32271 -4.25539,-2.05846 l -23.4,-26.67692 -3.5723,35.33538 c -0.21268,1.76308 -0.49847,3.93231 -0.72,5.16 -1.32923,2.44616 -1.83693,2.48308 -4.21847,2.66769 -2.30769,0 -6.48923,-2.27076 -10.2,-4.32923 -1.11692,-0.61883 -2.23384,-1.22769 -3.36,-1.8 L 467.95385,14.88923 433.33846,72.44307 409.50462,0 396.96,79.14461 345.50769,27.04615 l 24.84,82.96615 c -6.73846,5.88 -15.17538,11.36308 -20.40923,11.36308 -7.35692,0 -9.73846,-3.32308 -10.02461,-3.75692 l -3.42462,-11.46462 -58.84615,9.62769 L 279.48,127.24615 0,165.54461 l 8.04,55.92 280.34769,-38.00308 1.73539,10.85539 48.24,-6.20308 c 0.68307,1.66154 0.97846,3.06462 0.86769,3.93231 -0.0738,0.75692 -1.36615,1.68923 -1.94769,2.08615 -5.04923,3.49846 -13.08923,5.40923 -22.60616,5.40923 -3.60923,0 -6.16615,-0.28578 -6.56307,-0.32344 l -22.8277,-3.06462 5.80616,22.24616 c 6.16615,23.69538 34.21846,68.43692 96.35077,68.43692 86.57538,0 157.1723,-71.24308 193.26461,-191.60308 C 594.15692,50.40886 600,9.98732 600,9.98732 c 0,0 -23.11385,35.55692 -53.28923,61.58769" style="fill:#ffffff"/>
  <path d="m 421.58769,155.33538 1.87385,-0.0369 c 25.49538,-1.19077 27.94154,-26.31693 27.94154,-26.57539 0.0738,-1.04307 -0.57231,-1.97538 -1.5877,-2.30769 -0.24886,-0.0665 -0.46153,-0.0665 -0.68307,-0.0665 -0.83077,0 -1.58769,0.39729 -2.01231,1.11692 -0.0738,0.10117 -8.01231,13.22769 -24.52615,14.60308 -0.93231,0.0369 -1.87385,0.0738 -2.77847,0.0738 -15,0 -24.6923,-10.28308 -24.80307,-10.38462 -0.4704,-0.4704 -1.04308,-0.72886 -1.69846,-0.72886 -0.3973,0 -0.75693,0.0738 -1.15385,0.25846 -0.89538,0.49846 -1.32923,1.55077 -1.08,2.55692 0.0738,0.22154 6.74769,21.48924 30.50769,21.48924 m -75.54461,16.22769 -43.01539,5.52 -1.72615,-10.92923 -280.172309,37.96615 -3.636923,-25.38461 279.692312,-38.28924 -1.87385,-11.89846 30.32308,-4.97538 c 0,0 5.52,13.22769 24.26769,13.22769 17.96308,0 38.36308,-22.60615 38.36308,-22.60615 l -12.97847,-36.41539 26.57539,30.57231 c 2.34461,-0.82154 4.90154,-1.55077 7.60615,-2.16 l 4.97539,-44.41846 11.64923,42.97846 c 2.45538,0.11077 4.93846,0.32271 7.54154,0.72 l 17.76923,-34.29231 -3.31385,37.92923 c 1.51385,0.54499 3.06462,1.15385 4.65231,1.80923 8.54769,3.56308 16.98461,10.81846 26.71384,10.06154 8.87077,-0.69194 13.38462,-4.76308 17.20616,-12.29538 0.89538,-1.80923 1.65231,-9.37847 1.65231,-9.37847 24.19384,27.65539 73.88307,-31.98461 73.88307,-31.98461 -30.24923,124.4677 -97.96615,204.08308 -184.75384,204.08308 -66.56308,0 -81.42462,-56.89846 -81.42462,-56.89846 0,0 24.05539,3.39692 40.02462,-7.64308 16.01538,-11.03077 6.0923,-28.12615 0,-35.29846" style="fill:#536e78"/>
  <g transform="matrix(9.2307692,0,0,-9.2307692,-3401.5385,465.43384)">
    <path d="m 424.203,38.371 c -0.5,0 -0.953,0.117 -1.355,0.348 l 0,0 c -0.032,-0.121 -0.063,-0.227 -0.098,-0.297 l 0,0 c -0.527,-1.039 -1.207,-1.52 -2.27,-1.606 l 0,0 c -0.066,-0.004 -0.132,-0.007 -0.199,-0.007 l 0,0 c -0.804,0 -1.515,0.394 -2.144,0.738 l 0,0 c -0.266,0.148 -0.524,0.289 -0.785,0.398 l 0,0 c -0.161,0.067 -0.321,0.129 -0.477,0.188 l 0,0 -0.363,0.125 0.031,0.387 0.141,1.597 -0.766,-1.472 -0.16,-0.317 -0.356,0.051 c -0.261,0.043 -0.515,0.062 -0.761,0.07 l 0,0 -0.368,0.016 -0.093,0.355 -0.578,2.121 -0.247,-2.203 -0.039,-0.355 -0.347,-0.078 c -0.278,-0.063 -0.531,-0.133 -0.766,-0.215 l 0,0 -0.32,-0.117 -0.223,0.257 -1.144,1.317 0.515,-1.453 0.102,-0.281 -0.199,-0.219 c -0.098,-0.11 -2.387,-2.617 -4.524,-2.617 l 0,0 c -1.691,0 -2.539,0.875 -2.89,1.382 l 0,0 -2.454,-0.398 0.125,-0.797 0.079,-0.508 -0.504,-0.066 -29.805,-4.086 0.254,-1.758 29.859,4.051 0.485,0.062 0.078,-0.48 0.113,-0.707 4.176,0.535 0.269,0.035 0.176,-0.211 c 0.289,-0.336 1.207,-1.543 1.035,-2.828 l 0,0 c -0.094,-0.695 -0.476,-1.273 -1.133,-1.73 l 0,0 c -1.16,-0.797 -2.64,-0.965 -3.675,-0.965 l 0,0 c -0.075,0 -0.149,0 -0.215,0.004 l 0,0 c 0.652,-1.532 2.754,-5.117 8.09,-5.117 l 0,0 c 8.5,0 15.531,7.378 19.035,19.843 l 0,0 c -1.344,-1.297 -3.453,-2.992 -5.305,-2.992 m -9.961,-2.84 c 1.488,0.121 2.238,1.297 2.274,1.352 l 0,0 c 0.14,0.219 0.379,0.351 0.64,0.351 l 0,0 0.149,-0.007 0.074,-0.024 c 0.332,-0.101 0.551,-0.43 0.523,-0.765 l 0,0 c -0.07,-0.887 -0.832,-3.215 -3.511,-3.34 l 0,0 -0.219,-0.004 c -2.297,0 -3.457,1.679 -3.785,2.691 l 0,0 c -0.094,0.332 0.058,0.692 0.386,0.867 l 0,0 c 0.11,0.047 0.223,0.075 0.336,0.075 l 0,0 c 0.207,0 0.403,-0.082 0.555,-0.243 l 0,0 c 0.008,-0.007 0.93,-0.961 2.316,-0.961 l 0,0 c 0.086,0 0.176,0.004 0.262,0.008" style="fill:url(#radialGradient892)"/>
  </g>
</svg>
