<?xml version="1.0" encoding="UTF-8" standalone="no"?>
<svg xmlns="http://www.w3.org/2000/svg" width="55.25378mm" height="32.176849mm" viewBox="0 0 55.25378 32.176849" version="1.1">
  <path style="fill:#ffffff" d="m 54.955771,0 c -1.012468,1.47109 -1.951064,3.0058 -3.122287,4.36046 -1.672167,1.9685 -4.035909,3.400768 -6.660576,3.520718 0.123473,0.87841 0.194101,1.76398 0.165883,2.64945 -0.945446,0.0847 -1.890945,-0.0141 -2.790531,-0.32453 C 42.096706,7.669628 41.588905,5.13652 40.989184,2.62827 40.262461,4.51916 39.528711,6.40999 38.812571,8.304408 37.535517,6.46996 36.343061,4.57593 35.12598,2.70268 35.08008,5.06629 35.05898,7.4333 35.06608,9.800438 33.13285,8.618628 31.2558,7.34139 29.31552,6.17017 c 1.2065,2.490608 2.45582,4.963578 3.58118,7.489468 -0.64558,0.9525 -1.58791,1.90838 -2.805,1.96835 -0.81138,-0.0177 -1.30164,-0.70536 -1.82728,-1.21336 -1.8168,0.67381 -3.59492,1.44983 -5.41878,2.11305 0.1023,0.26458 0.30335,0.79375 0.40565,1.05833 C 15.50077,20.619898 7.75758,23.681958 0,26.701737 c 0.6738,1.830912 1.33355,3.66889 2.07791,5.475111 7.747,-3.07975 15.53599,-6.05723 23.29005,-9.11934 0.73378,2.10256 1.72186,4.176852 3.30936,5.778459 2.0955,2.151952 5.09066,3.390641 8.103378,3.274222 4.614336,-0.22225 8.995545,-2.628231 11.874212,-6.208921 3.654777,-4.45911 5.333952,-10.18506 6.124175,-15.80834 C 55.191835,6.75212 55.513206,3.34434 54.955816,0 Z m -0.920872,3.65146 c -0.194029,6.395858 -1.16083,12.978708 -4.342889,18.623148 -2.04611,3.64773 -5.330145,6.688671 -9.369454,7.937499 -2.621137,0.85725 -5.616566,0.962941 -8.114236,-0.331758 -1.69686,-0.800801 -3.01938,-2.186951 -4.09535,-3.693311 1.44991,0.0741 3.0691,-0.5577 3.6406,-1.98645 0.53975,-1.13594 0.0667,-2.35623 -0.27905,-3.46748 -1.67922,0.51153 -3.31605,1.15332 -4.96352,1.7601 -0.13759,-0.35278 -0.27161,-0.70556 -0.40566,-1.05834 -7.76464,3.0727 -15.56451,6.046581 -23.32209,9.136911 -0.42334,-1.04422 -0.81816,-2.10262 -1.20975,-3.157431 7.76464,-3.01978 15.51128,-6.08149 23.26887,-9.12244 -0.13406,-0.34925 -0.2611,-0.69875 -0.3881,-1.048 1.13242,-0.44097 2.25817,-0.90674 3.39412,-1.34772 0.73025,0.5715 1.60869,1.11158 2.58588,0.9493 1.79564,-0.19403 2.98758,-1.7325 3.95067,-3.10834 -0.74789,-1.38641 -1.36851,-2.83615 -2.10582,-4.2261 1.32997,0.83256 2.65615,1.67543 3.957899,2.55385 -0.0035,-1.73567 0.01773,-3.47125 0.08475,-5.206908 0.948973,1.379358 1.851988,2.787008 2.723348,4.215758 0.553861,-1.37584 1.072465,-2.76931 1.608688,-4.152198 0.306917,1.453438 0.5754,2.917768 0.910537,4.367688 1.322917,0.33161 2.737591,0.76869 4.092258,0.33125 0.99836,-0.48331 0.934511,-1.73217 0.962731,-2.66703 3.153834,-0.53622 5.535264,-2.874888 7.41557,-5.301998 z M 43.34201,14.139708 c -0.500941,0.80433 -0.885174,1.71799 -1.636591,2.33887 -1.389946,1.31234 -3.595161,1.56976 -5.306134,0.76895 -0.4445,-0.127 -0.86424,-0.51179 -1.340495,-0.35657 1.097145,3.29495 6.357167,3.61633 8.043444,0.62477 0.493887,-0.99483 1.001776,-2.3953 0.239776,-3.37602 z"/>
  <path d="m 46.619459,8.953658 c 3.153834,-0.53623 5.535084,-2.875138 7.41539,-5.302248 -0.194027,6.395858 -1.16064,12.978688 -4.342696,18.623128 -2.04611,3.64773 -5.330471,6.68867 -9.369777,7.937501 -2.621137,0.85725 -5.616216,0.963088 -8.113886,-0.331611 -1.69686,-0.800801 -3.01978,-2.18722 -4.09575,-3.69358 1.44992,0.0741 3.06917,-0.55739 3.64067,-1.98614 0.53975,-1.13594 0.067,-2.35655 -0.2787,-3.4678 -1.67922,0.51152 -3.31611,1.15358 -4.96358,1.76036 -0.13759,-0.35278 -0.27164,-0.70556 -0.4057,-1.05834 -7.76464,3.0727 -15.56455,6.046611 -23.32214,9.136949 -0.42333,-1.044218 -0.81844,-2.102559 -1.21002,-3.15736 7.76463,-3.019779 15.51163,-6.081889 23.26922,-9.122839 -0.13406,-0.34925 -0.26106,-0.6985 -0.38806,-1.04775 1.13242,-0.44097 2.25778,-0.90664 3.39373,-1.34761 0.73025,0.5715 1.60866,1.11125 2.58586,0.94897 1.79564,-0.19402 2.98802,-1.73213 3.95111,-3.10797 -0.74789,-1.38641 -1.36878,-2.83633 -2.10609,-4.22627 1.32998,0.83255 2.65642,1.67569 3.958169,2.55411 -0.0035,-1.73567 0.01765,-3.47134 0.08467,-5.206998 0.948973,1.379358 1.852083,2.786938 2.723446,4.215688 0.55386,-1.37583 1.072443,-2.7693 1.608666,-4.152188 0.306917,1.453438 0.575027,2.917468 0.910167,4.367388 1.322917,0.33161 2.737554,0.76905 4.092223,0.33161 0.99836,-0.48331 0.93486,-1.73214 0.963081,-2.667 m -3.277304,5.18583 c -0.500946,0.80433 -0.885473,1.71803 -1.63689,2.33892 -1.389943,1.31233 -3.594806,1.56986 -5.305777,0.76905 -0.4445,-0.127 -0.864306,-0.51153 -1.340561,-0.3563 1.097145,3.29494 6.357061,3.61597 8.043338,0.62441 0.49389,-0.99483 1.00189,-2.39536 0.23989,-3.37608 z"/>
</svg>
