<?xml version="1.0" encoding="utf-8"?>
<svg xmlns="http://www.w3.org/2000/svg" version="1.1" x="0px" y="0px" width="66.559998" height="50.000393" viewBox="0 0 66.559994 50.000393">
    <path d="M 1.0195312,-0.02539063 1.078125,2.6113281 C 1.0963607,3.415166 1.2115448,4.6193392 2.0527344,5.7441406 3.6338763,8.1139955 5.272976,9.7969721 5.9082031,11.472656 l 0.021484,0.05859 0.025391,0.05859 c 0.7030562,1.608177 0.8043554,3.663482 0.7636719,5.970703 -0.082344,2.393307 -1.5364634,5.618256 -0.8203125,9.673828 0.6251376,3.550872 3.0155825,5.988147 5.0820315,7.808594 l 0.0039,0.0039 0.0039,0.0039 c 5.812853,5.075414 12.338981,9.124798 18.957031,12.72461 1.106799,0.602161 3.320313,1.80664 3.320313,1.80664 0,0 2.213698,-1.204141 3.320313,-1.80664 6.618051,-3.599811 13.144178,-7.649196 18.957031,-12.72461 l 0.0059,-0.0039 0.0039,-0.0039 c 2.066449,-1.820447 4.456895,-4.257721 5.082032,-7.808594 v -0.0039 c 0.71528,-4.058375 -0.743061,-7.28634 -0.822266,-9.679688 -0.04019,-2.302996 0.06167,-4.355175 0.763672,-5.960937 l 0.02539,-0.05859 0.02344,-0.05859 c 0.636447,-1.6789016 2.275072,-3.3626226 3.857422,-5.7363279 0.835818,-1.1225292 0.950557,-2.3230397 0.96875,-3.125 v -2.63281248 l -20.957031,0.02539063 -6.390625,4.49414065 0.5,1.7597656 c 0.52676,1.8485206 0.337705,3.8699375 -0.609375,5.2558595 l -0.02148,0.03125 -0.02148,0.0332 c -0.588897,0.920546 -1.755718,1.63784 -2.996094,1.833984 -1.63035,0.232817 -1.628554,0.241567 -3.380859,0 -1.240116,-0.196102 -2.402506,-0.912211 -2.992188,-1.833984 l -0.02148,-0.0332 -0.02148,-0.03125 C 27.591382,10.126894 27.399367,8.1051206 27.925781,6.2578125 L 28.427734,4.4980469 22.037109,0.00390625 Z" style="fill:#ffffff"/>
	<linearGradient id="path3355_4_" gradientUnits="userSpaceOnUse" x1="27.3613" y1="634.4111" x2="62.5538" y2="581.9125" gradientTransform="matrix(1 0 0 -1 -8.3599 625.0547)">
      <stop offset="0" style="stop-color:#612c75"/>
      <stop offset="0.4" style="stop-color:#7b5190"/>
      <stop offset="0.5" style="stop-color:#bf99c3"/>
      <stop offset="0.6" style="stop-color:#7b5190"/>
      <stop offset="1" style="stop-color:#612c75"/>
    </linearGradient>
    <path fill="url(#path3355_4_)" d="m 3.653,2.5533934 c 0.013242,0.5837134 0.1025011,1.1740925 0.4628906,1.6528349 1.395176,2.1185476 3.2867538,3.9458208 4.1992187,6.3528387 0.9720165,2.2234 1.0214874,4.685525 0.9785157,7.069591 -0.099237,3.069555 -1.4048729,6.068013 -0.859375,9.157175 0.4562093,2.597224 2.327265,4.633302 4.248047,6.325423 5.603838,4.892916 11.964791,8.850574 18.49414,12.402137 L 31.172537,15.95624 C 29.264875,15.654577 27.457498,14.598957 26.412765,12.965862 24.938188,10.808023 24.748991,8.0111658 25.449875,5.5516046 L 21.221359,2.5768934 Z m 59.224609,0 -17.566406,0.023499 -4.230469,2.9747112 c 0.700884,2.4595612 0.51364,5.2564184 -0.960937,7.4142584 -1.044733,1.633095 -2.854063,2.688715 -4.761719,2.990378 l -0.002,29.557152 c 6.529349,-3.551562 12.890302,-7.509221 18.49414,-12.402137 1.920782,-1.692121 3.791838,-3.728199 4.248047,-6.325422 0.545498,-3.089163 -0.760138,-6.087621 -0.859375,-9.157176 -0.04297,-2.384065 0.0065,-4.84619 0.978516,-7.06959 0.912465,-2.4070189 2.802089,-4.2342921 4.197265,-6.3528397 0.360389,-0.4787424 0.449649,-1.0691215 0.462891,-1.6528349 z"/>
</svg>
