<?xml version="1.0" encoding="UTF-8" standalone="no"?>
<svg xmlns="http://www.w3.org/2000/svg" version="1.1" x="0px" y="0px" width="66.559998" height="50.000393" viewBox="0 0 66.559994 50.000393">
    <path d="m 3.653,2.5533934 c 0.013242,0.5837134 0.1025011,1.1740925 0.4628906,1.6528349 1.395176,2.1185476 3.2867538,3.9458208 4.1992187,6.3528387 0.9720165,2.2234 1.0214874,4.685525 0.9785157,7.069591 -0.099237,3.069555 -1.4048729,6.068013 -0.859375,9.157175 0.4562093,2.597224 2.327265,4.633302 4.248047,6.325423 5.603838,4.892916 11.964791,8.850574 18.49414,12.402137 L 31.172537,15.95624 C 29.264875,15.654577 27.457498,14.598957 26.412765,12.965862 24.938188,10.808023 24.748991,8.0111658 25.449875,5.5516046 L 21.221359,2.5768934 Z m 59.224609,0 -17.566406,0.023499 -4.230469,2.9747112 c 0.700884,2.4595612 0.51364,5.2564184 -0.960937,7.4142584 -1.044733,1.633095 -2.854063,2.688715 -4.761719,2.990378 l -0.002,29.557152 c 6.529349,-3.551562 12.890302,-7.509221 18.49414,-12.402137 1.920782,-1.692121 3.791838,-3.728199 4.248047,-6.325422 0.545498,-3.089163 -0.760138,-6.087621 -0.859375,-9.157176 -0.04297,-2.384065 0.0065,-4.84619 0.978516,-7.06959 0.912465,-2.4070189 2.802089,-4.2342921 4.197265,-6.3528397 0.360389,-0.4787424 0.449649,-1.0691215 0.462891,-1.6528349 z"/>
</svg>
