<?xml version="1.0" encoding="UTF-8" standalone="no"?>
<svg xmlns="http://www.w3.org/2000/svg" xmlns:xlink="http://www.w3.org/1999/xlink" version="1.1" width="600" height="386.04431">
  <radialGradient cx="0" cy="0" r="1" fx="0" fy="0" id="radialGradient24" gradientUnits="userSpaceOnUse" gradientTransform="matrix(119.08626,0,0,-119.08626,150,94.8125)" spreadMethod="pad">
    <stop style="stop-color:#f6b91d" offset="0"/>
    <stop style="stop-color:#d3641c" offset="0.7"/>
    <stop style="stop-color:#bf331c" offset="1"/>
  </radialGradient>
  <radialGradient cx="0" cy="0" r="1" fx="0" fy="0" id="radialGradient3839" xlink:href="#radialGradient24" gradientUnits="userSpaceOnUse" gradientTransform="matrix(237.38045,0,0,237.38045,300.00001,197.04911)" spreadMethod="pad"/>
  <path d="m 236.2228,120.92811 -82.85554,0 -137.353692,255.14865 113.158432,0 c 0.80132,-13.34547 3.43454,-26.52749 7.44715,-38.38791 l 0,0 c 13.33949,-33.60189 36.79324,-60.54598 70.25758,-77.40971 l 0,0 c 12.68368,-2.80863 73.95922,-4.47109 73.95922,-4.47109 l 0,0 19.19994,-190.482415 19.14412,190.619965 c 0,0 63.95859,2.12291 73.93929,4.33354 l 0,0 c 33.52414,16.89363 56.94599,43.8756 70.25757,77.40971 l 0,0 c 4.01858,11.87836 6.64384,25.06038 7.44516,38.38791 l 0,0 113.16439,0 -137.3517,-255.14865 -82.85753,0 L 300.00001,18.023464 236.2228,120.92811 z" style="fill:url(#radialGradient3839)"/>
  <path d="m 471.80175,334.59796 c -14.19463,-35.62114 -39.36864,-64.56856 -75.64559,-82.83162 -6.53619,-1.45116 -14.73284,-2.45581 -22.59262,-3.12358 l 72.78315,-109.32322 122.62285,227.78795 -89.92595,0 c -1.28372,-11.24449 -3.6857,-21.83913 -7.24184,-32.50953 m -122.62882,-87.09141 -24.59195,0 L 299.999,65.326433 275.41902,247.50655 l -24.59195,0 -78.30273,-117.60757 68.6928,0 58.78186,-94.847526 58.78386,94.847526 68.6908,0.002 -78.30073,117.60558 z m -145.33308,4.25979 c -35.95403,18.09961 -61.33335,46.91546 -75.64559,82.83162 -3.54218,10.62854 -5.95613,21.2192 -7.24383,32.50953 l -89.919968,0 122.622848,-227.78795 72.77717,109.31326 c -7.63254,0.63986 -15.81125,1.62657 -22.59063,3.13354 m 248.152,-139.80551 -83.22231,-0.002 L 299.999,0.99706442 231.22847,111.95883 l -83.22232,0 -147.00947558,273.08879 136.87728558,0 c 0,-15.48434 2.54551,-30.3607 7.17008,-44.2683 12.57205,-31.29159 34.89556,-56.89217 64.86955,-71.9858 9.75345,-2.16877 31.6165,-3.34684 40.28359,-3.34684 l 32.85836,0 16.94346,-125.58097 16.94347,125.58097 32.85637,0 c 8.66708,0 30.53013,1.17807 40.28358,3.34684 29.97399,15.09363 52.29751,40.69421 64.86956,71.9858 4.62457,13.9076 7.16808,28.78396 7.16808,44.2683 l 136.88327,0 -147.01148,-273.0868 z" style="stroke:#ffffff;stroke-width:1.99334884;stroke-opacity:0"/>
  <path d="m 463.37667,337.68924 c -13.31159,-33.5341 -36.73344,-60.51607 -70.25758,-77.4097 -9.55013,-2.11495 -23.62517,-3.09169 -33.33676,-3.52823 l 88.44887,-132.85072 135.75503,252.17657 -113.1664,0 c -0.79933,-13.32753 -3.42457,-26.50955 -7.44316,-38.38792 M 319.25156,256.47623 299.9998,113.77637 280.74804,256.47623 c -17.61722,0.002 -31.74209,0.006 -32.32215,0.0144 l -90.25286,-135.56207 78.04957,0 63.7772,-102.904646 63.7772,102.904646 78.04957,0.002 -90.25285,135.55968 c -0.58406,-0.008 -14.70693,-0.0112 -32.32216,-0.0143 m -112.37504,3.80331 c -33.46434,16.86373 -56.91808,43.80982 -70.25757,77.40971 -4.01261,11.86042 -6.64583,25.04244 -7.44715,38.38791 l -113.158431,0 135.755031,-252.17865 88.44888,132.85271 c -9.7116,0.43654 -23.79062,1.41328 -33.34076,3.52823 M 451.99265,111.96043 368.77034,111.95843 299.9998,0.99667442 231.22927,111.95843 l -83.22232,0 -147.00947824,273.08879 136.87528824,0 c 0,-15.48434 2.54551,-30.3607 7.17207,-44.26829 12.57006,-31.2896 34.89557,-56.89217 64.86956,-71.98581 9.76143,-2.16877 31.63843,-3.34683 40.28358,-3.34683 l 36.37862,0 13.42321,-99.49202 13.42321,99.49202 36.37463,0 c 8.63718,0 30.51817,1.17607 40.28359,3.34683 29.97598,15.09364 52.29949,40.69621 64.86955,71.98581 4.62656,13.90759 7.16808,28.78395 7.16808,44.26829 l 136.88327,0 -147.00948,-273.08679 z" style="fill:#ffffff;stroke:#ffffff;stroke-width:1.99334884"/>
</svg>
