<?xml version="1.0" encoding="UTF-8" standalone="no"?>
<svg xmlns="http://www.w3.org/2000/svg" xmlns:xlink="http://www.w3.org/1999/xlink" version="1.1" width="600" height="385.332">
  <radialGradient cx="0" cy="0" r="1" fx="0" fy="0" id="radialGradient48" gradientUnits="userSpaceOnUse" gradientTransform="matrix(121.40797,0,0,-121.40796,150,94.985352)" spreadMethod="pad">
    <stop style="stop-color:#bf99c3" offset="0"/>
    <stop style="stop-color:#7b5190" offset="0.7"/>
    <stop style="stop-color:#612c75" offset="1"/>
  </radialGradient>
  <radialGradient cx="0" cy="0" r="1" fx="0" fy="0" id="radialGradient3031" xlink:href="#radialGradient48" gradientUnits="userSpaceOnUse" gradientTransform="matrix(242.81594,0,0,242.81592,299.99981,195.362)" spreadMethod="pad"/>
  <path d="m 234.33981,117.3327 -83.256,0 -141.042002,262 121.412002,0 c 0.56,-13.712 3.034,-27.242 7.38,-40.308 l 0,0 0.128,-0.344 c 13.55,-33.732 37.05,-59.788 67.952,-75.348 l 0,0 0.668,-0.336 0.728,-0.162 c 10.344,-2.3 32.66,-3.502 41.72,-3.502 l 0,0 33.778,0 16.194,-194.788 16.19,194.788 33.776,0 c 9.062,0 31.376,1.202 41.718,3.502 l 0,0 0.728,0.162 0.668,0.336 c 30.904,15.56 54.402,41.616 67.956,75.348 l 0,0 0.124,0.344 c 4.344,13.058 6.816,26.59 7.376,40.308 l 0,0 121.418,0 -141.04,-262 -83.256,0 -65.66,-105.942 -65.66,105.942 z" style="fill:url(#radialGradient3031)"/>
  <path d="m 466.74,336.7819 c -14.178,-35.242 -37.914,-62.164 -72.294,-79.48 -7.896,-1.756 -16.094,-2.534 -24.438,-3.122 l 80.598,-121.05 129.306,240.202 -105.722,0 c -1.008,-12.834 -3.536,-24.742 -7.45,-36.55 m -121.396,-83.45 -19.872,0 -25.47,-188.788 -25.474,188.788 -19.872,0 -86.55,-130 69.574,0 62.32,-100.552 62.32,100.552 69.578,0.002 -86.554,129.998 z m -139.794,3.97 c -34.378,17.314 -58.114,44.234 -72.294,79.48 -3.906,11.784 -6.442,23.688 -7.454,36.55 l -105.714,0 129.308,-240.206 80.596,121.054 c -8.334,0.586 -16.602,1.378 -24.442,3.122 M 452.5,111.3339 369,111.332 300,0 l -69,111.332 -83.5,0 -147.5,274 137.332,0 c 0,-15.534 2.554,-30.46 7.196,-44.416 12.612,-31.394 35.01,-57.082 65.086,-72.224 9.784,-2.176 31.722,-3.36 40.418,-3.36 l 32.968,0 17,-125.998 17,125.998 32.964,0 c 8.696,0 30.634,1.184 40.418,3.36 30.074,15.142 52.474,40.83 65.086,72.224 4.642,13.956 7.192,28.882 7.192,44.416 l 137.34,0 -147.5,-273.998 z" fill="#ffffff"/>
</svg>
