<?xml version="1.0" encoding="UTF-8" standalone="no"?>
<svg xmlns="http://www.w3.org/2000/svg" version="1.1" width="600" height="386.0452">
  <g transform="matrix(1.9933555,0,0,-1.9933555,0.99647841,385.04931)">
    <g transform="translate(234.2695,3)">
      <path d="m 0,0 c -0.28,6.858 -1.517,13.625 -3.688,20.154 l -0.063,0.172 C -10.527,37.192 -22.276,50.22 -37.729,58 l -0.334,0.168 -0.364,0.081 C -43.598,59.398 -54.755,60 -59.285,60 l -16.889,0 -8.095,97.394 -8.096,-97.394 -16.889,0 c -4.531,0 -15.689,-0.602 -20.86,-1.751 l -0.365,-0.081 -0.333,-0.168 c -15.452,-7.78 -27.202,-20.808 -33.978,-37.674 l -0.063,-0.172 C -167.025,13.621 -168.263,6.855 -168.542,0 l -60.706,0 70.52,131 41.628,0 32.83,52.971 L -51.439,131 -9.812,131 60.708,0 0,0 z"/>
    </g>
  </g>
</svg>
