<?xml version="1.0" encoding="UTF-8" standalone="no"?>
<svg xmlns="http://www.w3.org/2000/svg" version="1.1" id="Flat" x="0px" y="0px" width="304.99829" height="120.999" viewBox="0 0 304.99829 120.999">
  <g transform="rotate(-90,60.4995,60.4995)">
    <g transform="rotate(90,60.500429,60.498571)">
      <g>
        <path d="m 14.855,9.03 55.982,6.822 22.5,-4.326 14.333,8.819 37.291,-11.774 20.182,5.347 93.858,-5.72 28.333,10.067 -4.834,41.726 c -3.186,4.979 -4.445,13.609 -7.083,24.838 -16.396,-3.774 -29.242,-1.043 -36.791,7.112 -7.812,-7.601 -17.155,-3.919 -27.687,3.703 -2.751,-5.679 -12.693,-5.546 -22.479,-7.281 l -45.292,-1.704 -5.75,-7.488 -29.749,2.413 L 82.42,63.111 61.087,76.924 13.838,44.225 Z"/>
        <path d="M 305,5.031 C 305.01,3.7 304.488,2.421 303.549,1.476 302.611,0.531 301.333,0 300,0 h -28.387 c -2.011,0 -3.744,1.186 -4.538,2.894 h -5.374 c -1.645,0 -3.179,0.808 -4.11,2.15 -0.902,-1.3 -2.406,-2.15 -4.109,-2.15 h -0.005 -14.664 c -0.77,0 -1.499,0.174 -2.15,0.484 -1.906,-0.488 -4.32,-0.857 -7.466,-0.857 -7.262,0 -12.999,1.903 -17.051,5.546 L 212.137,8.053 C 211.214,6.64 209.639,5.789 207.95,5.789 h -8.938 C 198.881,5.495 198.72,5.213 198.531,4.944 197.594,3.618 196.07,2.829 194.445,2.829 h -9.468 c -1.716,0 -3.312,0.879 -4.228,2.328 -0.211,0.334 -0.38,0.688 -0.505,1.054 l -0.051,-0.137 c -0.73,-1.952 -2.597,-3.245 -4.684,-3.245 H 160.65 160.63 L 160.367,2.822 H 150.9 c -1.733,0 -3.342,0.896 -4.253,2.368 -0.249,0.401 -0.436,0.829 -0.56,1.272 -0.59,-2.101 -2.52,-3.641 -4.812,-3.641 h -0.005 -12.988 c -0.33,0 -0.653,0.032 -0.965,0.093 -0.315,-0.063 -0.641,-0.094 -0.973,-0.094 h -11.092 c -2.415,0 -4.485,1.724 -4.918,4.095 l -0.011,0.059 c -0.271,1.482 -0.548,2.997 -1.48,6.729 C 107.336,10.12 105.038,7.393 101.959,5.55 98.101,3.198 93.669,2.894 90.243,2.894 H 72.257 c -2.012,0 -3.746,1.187 -4.54,2.897 H 61.904 C 60.83,5.791 59.803,6.135 58.96,6.747 58.71,6.53 58.452,6.32 58.186,6.119 53.872,2.895 48.802,2.895 46.894,2.895 H 34.753 C 33.96,1.186 32.226,0 30.214,0 H 7.925 C 6.09,0 4.402,1.003 3.528,2.615 2.654,4.225 2.734,6.185 3.737,7.719 4.148,8.348 4.26,8.52 4.335,11.133 l 0.057,6.609 c -2.458,0.314 -4.357,2.411 -4.357,4.951 0,2.285 1.546,4.255 3.69,4.838 0.257,0.622 0.626,2.029 0.7,4.51 l -0.009,1.26 c 0,7.748 0,10.939 -0.76,12.955 -0.578,1.533 -0.366,3.252 0.568,4.6 0.934,1.348 2.47,2.15 4.111,2.15 h 10.649 c 1.698,0 3.281,-0.86 4.201,-2.285 0.921,-1.425 1.054,-3.219 0.354,-4.764 -0.523,-1.154 -0.681,-1.504 -0.809,-5.042 -0.013,-0.463 -0.031,-3.963 -0.047,-7.572 0.335,0.004 0.635,0.006 0.885,0.006 l 0.275,-10e-4 c 0.108,-10e-4 0.216,-0.006 0.324,-0.014 1.147,-0.083 2.214,-0.281 3.198,-0.588 0.003,0.215 0.005,0.424 0.008,0.624 0,8.522 -0.036,9.036 -0.758,10.943 -0.58,1.534 -0.369,3.255 0.565,4.604 0.934,1.349 2.471,2.153 4.113,2.153 h 9.68 c 2.761,0 5,-2.235 5,-4.992 v -1.464 c 0.402,0.67 0.765,1.275 1.075,1.794 l 0.075,0.121 c 0.975,1.53 3.941,6.189 10.771,6.598 0.1,0.006 0.199,0.009 0.299,0.009 h 6.88 c 1.971,0 3.759,-1.156 4.564,-2.953 0.151,-0.339 0.263,-0.687 0.335,-1.04 h 2.961 l 0.105,-10e-4 c 0.126,0.162 0.264,0.317 0.411,0.465 0.938,0.938 2.211,1.465 3.538,1.465 H 88.51 c 2.354,0 7.17,0 11.741,-2.274 0.926,1.375 2.479,2.205 4.147,2.205 h 9.361 c 1.384,0 2.707,-0.573 3.652,-1.583 0.946,-1.009 1.43,-2.365 1.337,-3.744 -0.038,-0.559 -0.072,-1.074 0.096,-2.174 0.51,0 1,0 1.462,-0.001 0.056,0.485 0.064,0.815 0.049,1.177 l -0.089,0.751 c -0.169,1.416 0.277,2.838 1.226,3.904 0.949,1.067 2.31,1.678 3.739,1.678 h 10.658 c 0.658,0 1.3,-0.13 1.892,-0.372 0.6,0.249 1.25,0.383 1.917,0.383 h 10.931 c 1.697,0 3.279,-0.86 4.2,-2.284 0.921,-1.423 1.056,-3.217 0.357,-4.761 -0.519,-1.149 -0.676,-1.496 -0.807,-5.047 -0.019,-0.598 -0.037,-3.788 -0.046,-6.167 l 1.8,-4.716 0.817,-1.916 c 1.147,-2.695 2.248,-5.28 3.469,-7.928 v 0.006 c 0.022,1.353 -0.007,8.185 -0.026,11.604 -0.055,6.765 -0.271,11.063 -0.404,12.299 l -0.005,0.052 c -0.107,1.104 -0.197,1.392 -0.467,2.24 l -0.026,0.084 c -0.48,1.518 -0.208,3.172 0.734,4.456 0.941,1.283 2.439,2.042 4.033,2.042 h 8.062 c 2.761,0 5,-2.235 5,-4.992 v -3.776 l 0.108,0.19 c 1.697,3.012 4.537,8.05 11.878,8.512 0.104,0.007 0.209,0.01 0.314,0.01 h 4.066 c 1.485,0 2.886,-0.658 3.831,-1.784 h 10.485 c 1.697,0 3.279,-0.86 4.2,-2.284 0.078,-0.121 0.151,-0.244 0.218,-0.37 0.607,0.542 1.215,1.014 1.807,1.425 4.734,3.265 9.822,3.643 13.238,3.643 2.1,0 4.029,-0.17 5.73,-0.319 l 0.857,-0.074 0.163,-0.017 0.618,-0.072 c 2.63,-0.31 2.905,-0.342 4.113,-0.384 0.442,-0.016 0.874,-0.089 1.288,-0.216 0.718,0.387 1.53,0.598 2.37,0.598 h 10.931 c 1.659,0 3.208,-0.822 4.137,-2.188 l 0.023,0.033 c 0.934,1.35 2.471,2.155 4.114,2.155 h 10.929 c 1.177,0 2.298,-0.414 3.182,-1.143 0.101,0.241 0.221,0.477 0.361,0.702 0.91,1.469 2.519,2.365 4.252,2.365 h 10.818 c 1.732,0 3.34,-0.895 4.251,-2.365 0.911,-1.47 0.996,-3.307 0.223,-4.854 l -0.029,-0.057 c -0.262,-0.523 -0.419,-0.84 -0.531,-3.392 l -0.003,-0.061 c -0.098,-1.753 -0.118,-15.063 -0.108,-25.959 0.614,0.009 1.074,0.027 1.377,0.056 0.946,0.91 2.196,1.396 3.47,1.396 0.653,0 1.311,-0.128 1.938,-0.392 1.947,-0.817 3.169,-2.77 3.052,-4.876 -0.026,-0.591 -0.016,-4.262 0.009,-7.465 z"/>
        <path style="fill:#ffe980" d="m 198.155,31.403 c -0.106,-7.834 -0.106,-14.464 -0.106,-14.464 0,-3.782 -0.487,-4.916 -1.082,-6.158 h 10.982 c -0.595,1.351 -1.027,2.376 -1.135,6.375 -0.164,2.97 -0.164,16.84 -0.058,20.08 0.165,4.431 0.489,5.241 1.246,6.917 h -10.927 c 1.08,-2.865 1.08,-4.162 1.08,-12.75 z M 160.368,7.815 H 150.9 c 0.216,0.431 0.378,0.754 0.378,1.402 0,1.999 -1.895,7.129 -3.029,10.318 l -2.11,5.728 -1.948,-5.243 c -0.867,-2.43 -3.247,-8.967 -3.247,-10.911 0,-0.595 0.108,-0.918 0.327,-1.294 h -12.988 c 1.425,0 2.467,0.746 3.207,1.986 0.728,1.247 1.361,2.676 1.937,3.953 2.541,5.781 3.299,7.78 5.354,12.91 l 1.948,5.187 0.055,1.43 c 0,8.589 0,9.886 -1.084,12.748 h 10.931 c -0.757,-1.676 -1.082,-2.484 -1.246,-6.915 -0.033,-1.04 -0.053,-7.263 -0.053,-7.263 l 2.165,-5.671 c 1.894,-4.429 3.568,-8.482 5.732,-12.91 1.463,-2.971 2.056,-3.944 3.139,-5.455 z M 72.934,44.151 h -10.89 c 1.53,2.307 2.02,2.865 3.03,3.993 h -6.88 c -3.67,-0.219 -5.49,-2.156 -6.85,-4.293 -2.5,-4.184 -8.429,-13.948 -10.369,-17.433 v 19.66 h -9.68 c 1.08,-2.856 1.08,-4.154 1.08,-12.741 -0.07,-5.042 -0.11,-15.166 -0.11,-15.166 0,-3.765 -0.54,-7.199 -2.05,-8.996 v 3.484 c -0.59,-0.699 -1.14,-1.078 -2.76,-1.397 -0.909,-0.176 -2.337,-0.229 -3.818,-0.229 -2.22,0 -4.556,0.119 -5.432,0.119 h -0.54 v 11.542 h 8.45 c 2.48,0 3.46,-0.479 4.05,-0.919 l -0.02,0.16 c -0.49,3.954 -2.37,6.131 -6.34,6.421 l -0.235,10e-4 c -0.905,0 -2.498,-0.03 -3.952,-0.03 -0.718,0 -1.402,0.008 -1.953,0.029 0,0 0.04,11.681 0.07,12.739 0.16,4.433 0.49,5.242 1.25,6.919 H 8.335 c 1.08,-2.865 1.08,-6.09 1.08,-14.677 l 0.01,-1.348 c -0.13,-4.872 -1.28,-8.977 -4.39,-9.275 v -0.021 h 4.4 L 9.335,11.041 C 9.225,7.158 8.845,6.399 7.925,4.991 h 22.29 v 2.896 h 16.68 c 2.05,0 5.46,0.109 8.28,2.217 2.65,1.997 3.89,5.242 3.89,8.536 0,7.509 -4.65,9.935 -6.33,10.804 1.98,3.265 5.45,8.746 7.69,12.221 0.64,0.998 1.16,1.798 1.6,2.457 1.07,-2.847 1.07,-4.165 1.07,-12.721 -0.11,-7.828 -0.11,-14.458 -0.11,-14.458 0,-3.784 -0.49,-4.922 -1.08,-6.16 h 10.98 c -0.6,1.349 -1.03,2.376 -1.13,6.37 -0.17,2.976 -0.17,16.844 -0.06,20.079 0.159,4.433 0.489,5.242 1.239,6.919 z M 49.814,19.34 c 0,-3.346 -1.3,-6.101 -5.839,-6.101 -0.98,0 -1.9,0.11 -2.98,0.27 v 12.53 h 2.17 c 2.109,0 6.649,-0.219 6.649,-6.699 z M 189.62,45.938 h 4.066 c -0.482,-1.406 -0.648,-2.215 -0.704,-5.563 -0.052,-4.268 -0.052,-5.293 0,-9.183 l 0.11,-7.239 c 0.111,-5.724 0.269,-11.43 0.649,-13.699 0.217,-1.136 0.433,-1.676 0.702,-2.431 h -9.468 c 0.541,1.134 0.865,1.781 1.027,5.617 0.162,4.376 0.162,7.488 0.218,12.135 v 7.132 l -3.733,-8.374 c -4.112,-9.562 -5.14,-11.595 -6.979,-16.51 H 160.65 c 3.252,0 4.519,3.903 4.734,8.691 l 0.034,1.588 c 0.029,1.797 -0.025,11.739 -0.025,11.739 -0.055,6.753 -0.271,11.29 -0.433,12.803 -0.162,1.675 -0.378,2.323 -0.703,3.351 h 8.062 V 19.436 l 9.204,20.063 c 1.6,2.81 3.201,6.13 8.097,6.439 z M 300,12.772 c -0.054,-0.974 0,-7.78 0,-7.78 h -28.387 v 2.894 h -9.912 c 0.594,1.243 1.081,2.379 1.081,6.16 0,0 0,5.423 0.036,11.359 -0.626,0.169 -1.477,0.284 -2.69,0.284 l -7.913,0.002 c 0.011,-5.127 0.05,-10.029 0.128,-11.432 0.106,-3.995 0.539,-5.022 1.134,-6.374 h -14.664 c 3.607,0 4.769,4.801 4.769,10.281 0,0 -0.023,3.577 -0.028,7.526 l -18.292,0.006 c 3.604,0 4.767,4.8 4.767,10.283 v 4.695 c -0.649,0.109 -1.426,0.162 -1.967,0.162 -6.925,0 -9.143,-6.805 -9.143,-14.204 0,-5.512 1.244,-13.505 10.115,-13.505 4.38,0 6.233,1.663 7.046,2.565 l 1.891,-6.638 c -1.518,-0.609 -4.138,-1.546 -8.774,-1.546 -14.825,0 -19.099,8.75 -19.099,19.554 0,3.296 0.271,12.101 6.98,16.747 3.678,2.537 7.79,2.753 10.388,2.753 2.218,0 4.274,-0.216 6.167,-0.376 3.246,-0.381 3.625,-0.435 5.141,-0.487 -0.651,-2.104 -0.651,-3.822 -0.651,-10.563 0.028,-1.481 0.092,-3.794 0.092,-3.794 0,0 2.313,10e-4 5.351,0.003 0.005,0.719 0.009,1.389 0.018,1.985 0,8.586 0.102,9.884 -0.978,12.747 h 10.931 c -0.761,-1.677 -1.085,-2.484 -1.244,-6.914 -0.041,-1.142 -0.064,-4.203 -0.072,-7.816 2.982,0 5.33,-0.001 5.599,-0.005 2.372,-0.171 3.997,-1.022 5.027,-2.521 0.012,1.563 0.029,3.095 0.049,4.509 0,8.586 0,9.884 -1.085,12.747 h 10.929 c -0.756,-1.677 -1.08,-2.484 -1.244,-6.914 -0.111,-3.241 -0.111,-21.935 0.056,-24.907 0.015,-0.563 0.037,-1.063 0.064,-1.517 v 0.029 c 1.192,-1.295 2.162,-1.459 5.843,-1.459 h 4.265 c 0,0 0.058,28.321 -0.105,31.236 -0.162,3.676 -0.542,4.379 -1.082,5.458 h 10.818 c -0.539,-1.079 -0.92,-1.782 -1.08,-5.458 -0.163,-2.915 -0.108,-31.236 -0.108,-31.236 h 3.995 c 3.673,0.002 4.65,0.167 5.838,1.461 z M 125.341,45.101 c 0.096,-1.67 -0.106,-2.758 -0.823,-6.673 -0.221,0.032 -0.449,0.061 -0.685,0.076 -0.631,0.006 -4.968,0.006 -9.02,0.006 -1.198,4.763 -1.15,6.049 -1.053,7.501 h -9.36 c 0.976,-1.943 1.244,-2.536 2.165,-5.454 0.273,-0.857 0.524,-1.655 0.76,-2.419 l -1.923,-4.967 C 103.349,44.078 96.179,46.079 88.511,46.079 H 76.988 l 0.037,-27.912 c 0,-5.48 -1.163,-10.281 -4.769,-10.281 h 17.987 c 2.543,0 6.221,0.163 9.144,1.944 4.058,2.431 6.601,7.349 6.601,16.315 0,2.37 -0.166,4.453 -0.466,6.305 h 3.465 c 0.229,-0.807 0.464,-1.642 0.717,-2.535 l 1.869,-6.906 c 2.814,-10.424 3.245,-12.819 3.68,-15.195 h 11.092 c 0.703,3.833 0.812,4.231 3.245,14.928 l 1.811,7.664 c 2.489,10.427 3.085,12.209 4.489,15.613 H 125.232 Z M 97.115,27.171 c 0,-9.129 -1.461,-13.774 -8.491,-13.774 -0.977,0 -2.006,0.054 -3.086,0.162 0,2.701 -0.056,4.971 -0.056,9.021 v 3.728 10.857 c 0,3.188 1.136,3.351 3.142,3.351 6.543,0 8.491,-4.107 8.491,-13.345 z m 26.264,5.279 -3.364,-17.543 -3.86,17.543 z"/>
        <path d="m 288.314,74.189 -0.187,-0.003 c -0.132,0 -0.265,0.005 -0.397,0.016 -0.398,0.031 -0.783,0.108 -1.149,0.227 l -0.353,0.106 c -5.716,1.709 -7.642,2.285 -15.946,2.911 -0.877,0.065 -1.72,0.1 -2.506,0.1 -2.554,0 -5.936,-0.357 -7.541,-2.063 -1.161,-1.232 -1.582,-3.336 -1.367,-6.82 0.242,-3.898 3.405,-7.31 4.571,-7.429 2.188,0.148 2.856,0.466 3.056,0.642 0.12,0.105 0.739,0.783 1.159,3.737 0.281,1.982 1.722,3.606 3.659,4.123 l 2.22,0.593 c 0.425,0.114 0.859,0.17 1.292,0.17 0.918,0 1.829,-0.253 2.625,-0.743 1.171,-0.722 1.993,-1.893 2.271,-3.237 0.483,-2.33 2.556,-6.498 3.424,-7.48 l 0.028,-0.026 c 2.266,-2.125 1.646,-4.35 0.706,-7.719 -0.381,-1.367 -0.775,-2.723 -0.775,-2.723 -0.492,-1.697 -1.758,-3.093 -3.472,-3.531 -0.442,-0.113 -0.885,-0.17 -1.32,-0.17 -1.236,0 -2.412,0.455 -3.333,1.356 -0.292,0.223 -1.872,1.324 -4.432,1.324 -0.175,0 -0.355,-0.005 -0.538,-0.016 -1.734,-0.104 -2.755,-0.367 -4.049,-0.703 -1.939,-0.502 -4.137,-1.071 -8.216,-1.075 -6.862,0 -12.958,3.113 -16.983,8.053 0.238,-0.949 0.194,-1.958 -0.142,-2.896 l -0.759,-2.118 c -0.725,-2.022 -2.638,-3.312 -4.706,-3.312 -0.395,0 -0.794,0.047 -1.193,0.145 -3.327,0.815 -8.833,1.342 -14.026,1.342 -2.547,0 -4.167,-0.137 -4.833,-0.264 -0.315,-0.06 -0.63,-0.089 -0.941,-0.089 -1.85,0 -3.583,1.027 -4.45,2.717 l -1.037,2.023 -0.095,0.196 c -0.284,-1.004 -0.522,-1.824 -0.522,-1.824 -0.494,-1.699 -1.76,-3.097 -3.476,-3.534 -0.44,-0.112 -0.882,-0.167 -1.316,-0.167 -1.238,0 -2.414,0.455 -3.335,1.36 -0.29,0.219 -1.815,1.274 -4.293,1.274 -0.17,0 -0.343,-0.005 -0.521,-0.015 -1.807,-0.104 -3.764,-0.497 -5.836,-0.911 -2.965,-0.594 -6.327,-1.267 -10.202,-1.313 l -0.315,-0.002 c -9.459,0 -20.665,5.718 -21.114,21.832 -0.028,0.979 0.008,1.955 0.102,2.925 -1.843,-4.808 -3.356,-10.211 -4.678,-16.564 -0.237,-1.141 -0.867,-2.163 -1.78,-2.89 l -3.869,-3.078 c -0.901,-0.717 -2.003,-1.088 -3.116,-1.088 -0.682,0 -1.368,0.14 -2.014,0.423 -0.584,0.257 -2.411,0.854 -6.747,0.854 -6.885,0 -14.457,-1.442 -15.612,-1.814 -0.505,-0.163 -1.023,-0.242 -1.535,-0.242 -1.464,0 -2.886,0.643 -3.853,1.808 l -2.405,2.9 c -1.036,1.249 -1.4,2.923 -0.975,4.489 0.424,1.565 1.584,2.827 3.11,3.384 1.522,0.556 3.108,1.145 4.682,1.741 -1.199,0.802 -2.142,1.962 -2.621,3.336 -0.68,1.973 -2.14,5.67 -4.335,8.438 -1.212,1.526 -2.111,3.02 -2.752,4.464 -2.752,-6.197 -5.71,-12.219 -7.097,-14.617 C 99.034,57.361 97.66,51.293 98.88,48.283 h -10e-4 c 0.288,-0.739 1.381,-4.23 -2.582,-6.485 -0.295,-0.167 -0.691,-0.382 -1.089,-0.594 -0.736,-0.392 -1.477,-0.771 -1.477,-0.771 -0.717,-0.368 -1.501,-0.554 -2.288,-0.554 -0.688,0 -1.376,0.142 -2.021,0.427 -0.409,0.18 -2.037,0.768 -5.847,0.768 -4.36,0 -8.127,-0.733 -8.892,-1.026 -0.616,-0.251 -1.257,-0.372 -1.889,-0.372 -1.656,0 -3.255,0.827 -4.2,2.291 l -2.117,3.279 c -0.775,1.201 -0.998,2.677 -0.612,4.052 0.387,1.376 1.345,2.521 2.633,3.145 1.998,0.968 4.131,2.095 5.322,2.798 -1.93,3.358 -3.216,4.586 -3.702,5.04 -1.112,1.017 -1.854,2.26 -2.169,3.603 -1.114,0.141 -2.51,0.597 -3.897,1.797 l -0.004,0.003 c -0.855,-1.359 -1.713,-2.86 -2.594,-4.403 -1.235,-2.16 -2.512,-4.396 -3.982,-6.619 -0.767,-1.166 -1.487,-2.225 -2.141,-3.185 -1.33,-1.952 -2.835,-4.162 -2.984,-4.932 -0.131,-2.602 -2.245,-4.668 -4.856,-4.739 l -21.06,-0.578 -0.138,-0.002 c -1.532,0 -2.983,0.702 -3.932,1.909 0,0 -0.719,0.915 -1.433,1.836 -1.848,2.384 -3.307,4.267 -1.93,7.095 0.749,1.537 2.225,2.572 3.897,2.774 0.812,0.117 2.061,0.376 3.094,0.649 -0.609,2.295 -1.996,5.998 -2.62,7.596 -0.498,0.927 -1.371,2.84 -0.893,5.024 -1.042,0.728 -1.869,1.793 -2.37,3.115 l -0.096,0.237 c -0.398,0.983 -1.063,2.624 -2.435,5.942 -0.495,1.179 -1.11,2.967 -1.89,5.229 -1.881,5.462 -5.031,14.604 -7.855,18.181 -1.61,2.043 -4.534,4.139 -5.524,4.773 -2.198,1.408 -2.946,4.274 -1.708,6.57 l 1.453,2.696 c 0.735,1.364 2.063,2.311 3.594,2.562 0.27,0.044 0.54,0.065 0.809,0.065 1.259,0 2.482,-0.476 3.416,-1.347 1.437,-1.343 7,-3.85 13.939,-3.85 1.417,0 2.826,0.106 4.187,0.316 0.255,0.039 0.511,0.059 0.765,0.059 1.185,0 2.341,-0.421 3.254,-1.202 1.108,-0.947 1.746,-2.332 1.746,-3.79 v -2.22 c 0,-2.423 -1.092,-4.347 -3.432,-4.767 -0.189,-0.112 -0.543,-0.349 -1.017,-0.774 -1.249,-1.116 1.467,-7.863 2.359,-10.08 0.463,-1.149 0.9,-2.236 1.265,-3.266 1.094,-3.07 2.375,-5.881 3.063,-7.39 l 0.173,-0.382 c 0.042,-0.092 0.081,-0.185 0.117,-0.279 0.587,-1.535 0.753,-2.977 0.524,-4.267 0.936,-0.597 1.864,-1.554 2.558,-3.075 2.871,3.415 7.614,10.727 11.352,23.175 3.875,12.908 3.411,17.274 3.306,17.914 -0.78,2.254 0.152,4.788 2.285,5.98 l 3.806,2.128 c 0.754,0.422 1.596,0.637 2.443,0.637 0.513,0 1.028,-0.079 1.526,-0.238 1.321,-0.423 2.407,-1.374 2.998,-2.627 1.02,-1.966 6.776,-8.019 9.698,-8.548 1.316,-0.238 2.482,-0.994 3.236,-2.098 0.754,-1.104 1.034,-2.464 0.776,-3.774 -0.89,-4.531 -2.767,-9.453 -4.138,-13.047 -0.527,-1.382 -0.983,-2.577 -1.204,-3.288 -1.627,-5.267 0.569,-8.469 1.026,-9.058 0.854,-1.101 1.372,-2.182 1.625,-3.214 0.375,-0.053 0.73,-0.137 1.064,-0.242 0.169,0.344 0.349,0.71 0.54,1.098 2.674,5.437 8.237,16.749 9.509,21.512 0.208,0.771 0.195,0.79 -0.13,1.286 -0.963,1.466 -3.59,3.775 -6.285,6.054 -1.042,0.881 -1.678,2.149 -1.76,3.511 -0.082,1.36 0.397,2.696 1.326,3.695 l 2.609,2.808 c 0.981,1.055 2.32,1.596 3.667,1.596 1.095,0 2.195,-0.356 3.112,-1.086 2.307,-1.833 7.077,-2.928 12.759,-2.928 5.005,0 10.416,0.856 15.235,2.412 0.509,0.165 1.027,0.242 1.538,0.242 1.957,0 3.799,-1.153 4.602,-3.041 l 1.064,-2.501 c 0.722,-1.695 0.449,-3.65 -0.709,-5.085 -1.536,-1.902 -3.68,-3.281 -5.754,-4.614 -1.449,-0.933 -2.948,-1.896 -3.688,-2.722 -0.732,-0.816 -0.936,-1.16 -1.313,-2.633 0.149,0.007 0.301,0.011 0.456,0.011 0.9,0 1.894,-0.096 3.044,-0.205 1.372,-0.131 2.927,-0.28 4.506,-0.28 1.104,0 2.063,0.072 2.933,0.219 0.28,0.048 0.56,0.07 0.837,0.07 2.023,0 3.886,-1.229 4.648,-3.161 l 0.357,-0.908 c 0.805,-2.047 1.801,-4.582 2.39,-5.183 l 0.167,-0.068 c 0.752,-0.318 1.415,-0.742 1.978,-1.249 l -0.006,0.18 c -0.522,0.696 -0.859,1.523 -0.964,2.403 -0.165,1.379 0.253,2.764 1.153,3.822 l 2.131,2.506 c 0.906,1.067 2.22,1.705 3.62,1.757 l 0.191,0.004 c 1.333,0 2.613,-0.531 3.554,-1.479 0.175,-0.143 1.205,-0.599 3.319,-0.599 2.427,0 5.326,0.602 7.953,1.649 0.604,0.241 1.233,0.357 1.854,0.357 1.521,0 3.001,-0.694 3.969,-1.954 0.949,-1.235 2.141,-2.787 2.197,-4.613 3.78,3.743 8.543,6.251 13.559,6.641 0.371,0.03 0.762,0.046 1.15,0.046 2.23,0 4.179,-0.512 6.063,-1.007 1.834,-0.481 3.73,-0.98 6.344,-1.181 0.42,0.014 1.418,0.559 1.744,0.966 0.602,1.39 1.805,2.434 3.272,2.834 l 2.842,0.774 c 0.435,0.117 0.876,0.175 1.315,0.175 1.109,0 2.201,-0.368 3.093,-1.069 1.245,-0.978 1.952,-2.487 1.906,-4.068 -0.017,-0.57 -0.071,-1.169 -0.134,-1.862 -0.615,-6.77 0.428,-8.137 3.674,-8.594 1.527,-0.216 2.862,-1.12 3.628,-2.44 -0.808,4.109 -2.12,7.066 -3.381,8.207 -1.606,1.451 -2.093,3.771 -1.206,5.744 l 1.04,2.314 c 0.758,1.687 2.388,2.817 4.235,2.938 0.109,0.007 0.219,0.011 0.328,0.011 1.727,0 3.341,-0.892 4.255,-2.372 0.684,-1.108 5.005,-3.228 9.729,-3.228 1.996,0 3.086,0.396 3.558,0.633 0.714,0.358 1.481,0.53 2.241,0.53 1.426,0 2.825,-0.608 3.8,-1.746 l 1.323,-1.543 c 0.875,-1.021 1.301,-2.35 1.182,-3.687 -0.119,-1.338 -0.772,-2.571 -1.813,-3.422 -5.244,-4.287 -5.073,-6.203 -4.698,-10.4 0.11,-1.229 0.234,-2.621 0.234,-4.158 0,-6.447 0.382,-10.854 2.245,-11.396 0.527,-0.152 1.019,-0.391 1.46,-0.697 -1.825,3.147 -2.913,6.804 -3.026,10.735 -0.358,12.947 8.149,26.722 23.007,27.371 0.325,0.015 0.672,0.022 1.031,0.022 7.784,0 21.278,-3.744 27.525,-6.429 0.958,-0.411 1.764,-1.113 2.304,-2.006 l 2.724,-4.504 c 0.503,-0.778 0.796,-1.706 0.796,-2.702 0.002,-2.697 -2.137,-4.893 -4.814,-4.989 z"/>
        <path style="fill:#ffe980" d="m 288.983,79.694 -2.798,4.627 c -0.108,0.179 -0.269,0.318 -0.46,0.401 -3.052,1.31 -7.74,2.819 -12.569,4.019 -4.833,1.197 -9.768,2.08 -13.375,2.084 -0.294,0 -0.58,-0.006 -0.857,-0.019 h 0.001 c -6.111,-0.261 -10.968,-3.282 -14.217,-7.53 -3.257,-4.25 -4.973,-9.716 -4.976,-15.054 0,-0.227 0.003,-0.454 0.01,-0.681 V 67.54 c 0.151,-5.367 2.357,-9.843 5.672,-12.942 3.314,-3.103 7.725,-4.848 12.302,-4.849 h 0.024 c 3.162,-0.001 5.04,0.391 6.664,0.806 1.628,0.413 2.951,0.819 5.371,0.966 0.263,0.016 0.521,0.022 0.772,0.022 2.207,0 3.951,-0.561 5.165,-1.135 1.207,-0.57 1.88,-1.155 1.918,-1.189 v 0 c 0.255,-0.23 0.613,-0.314 0.945,-0.221 0.331,0.093 0.593,0.352 0.688,0.683 0.001,0.004 0.719,2.477 1.15,4.099 0.145,0.548 0.255,0.979 0.309,1.266 0.014,0.088 0.029,0.14 0.033,0.305 l -0.008,0.133 c -0.009,0.06 -0.018,0.138 -0.073,0.272 -0.038,0.089 -0.1,0.211 -0.238,0.345 l -0.021,0.018 c -0.256,0.222 -0.696,0.776 -1.147,1.494 -0.456,0.721 -0.946,1.613 -1.409,2.563 -0.928,1.896 -1.751,4.053 -2.055,5.534 -0.056,0.269 -0.22,0.503 -0.454,0.647 -0.234,0.144 -0.518,0.186 -0.783,0.114 l -2.22,-0.593 c -0.388,-0.104 -0.675,-0.427 -0.732,-0.824 -0.353,-2.505 -0.921,-4.171 -1.664,-5.25 -0.747,-1.075 -1.642,-1.656 -2.997,-2.057 -0.9,-0.261 -1.997,-0.411 -3.295,-0.497 l -0.236,-0.008 c -0.872,-10e-4 -1.825,0.313 -2.783,0.924 -0.956,0.607 -1.901,1.502 -2.734,2.579 -1.671,2.153 -2.871,5.034 -3.029,7.673 -0.038,0.61 -0.063,1.241 -0.063,1.881 -0.002,2.028 0.26,4.127 1.129,5.907 0.876,1.78 2.307,3.285 4.905,4.276 1.733,0.655 3.997,1.058 6.93,1.058 0.875,0 1.81,-0.036 2.807,-0.111 4.519,-0.34 7.273,-0.68 9.664,-1.16 2.389,-0.479 4.453,-1.107 7.595,-2.047 0.396,-0.118 0.824,0.019 1.077,0.346 0.25,0.326 0.276,0.773 0.062,1.126 z M 31.954,73.565 c -0.306,-0.222 -0.621,-0.37 -0.942,-0.509 v -10e-4 l -3.464,-1.588 v 0.001 c -0.497,-0.266 -1.006,-0.45 -1.571,-0.455 -0.464,-0.005 -0.967,0.154 -1.347,0.473 -0.373,0.306 -0.619,0.717 -0.787,1.168 L 23.84,72.653 c -0.386,0.953 -1.039,2.571 -2.569,6.271 l 0.002,-0.004 c -0.452,1.078 -1.035,2.77 -1.743,4.823 -1.06,3.077 -2.39,6.947 -3.867,10.565 -1.472,3.614 -3.116,6.986 -4.693,8.975 v 0.001 c -1.17,1.487 -2.811,2.926 -4.15,3.969 -0.669,0.522 -1.264,0.949 -1.689,1.244 -0.212,0.147 -0.382,0.262 -0.498,0.337 l -0.131,0.086 -0.041,0.027 c -0.443,0.282 -0.592,0.854 -0.343,1.314 l 1.453,2.696 c 0.147,0.272 0.412,0.462 0.719,0.513 0.307,0.05 0.618,-0.045 0.845,-0.257 1.066,-1.006 3.315,-2.285 6.238,-3.252 2.928,-0.977 6.545,-1.676 10.434,-1.675 1.563,0 3.172,0.112 4.799,0.364 0.29,0.045 0.581,-0.038 0.804,-0.229 0.222,-0.19 0.349,-0.465 0.349,-0.758 v -2.22 c 0,-0.443 -0.295,-0.836 -0.722,-0.96 v 0 C 28.919,104.441 28,104.099 26.63,102.866 l -0.003,-0.003 c -0.575,-0.516 -0.957,-1.101 -1.213,-1.783 -0.254,-0.681 -0.375,-1.464 -0.374,-2.33 -0.005,-2.01 0.662,-4.441 1.526,-6.827 0.861,-2.391 1.902,-4.733 2.598,-6.696 l -0.001,0.002 c 1.257,-3.526 2.751,-6.736 3.366,-8.091 l 0.023,-0.057 c 0.228,-0.6 0.36,-1.12 0.362,-1.642 0,-0.307 -0.052,-0.614 -0.168,-0.896 -0.173,-0.425 -0.481,-0.755 -0.792,-0.978 z M 149.155,55.427 c -0.048,-0.23 -0.172,-0.433 -0.356,-0.578 L 144.93,51.77 c -0.292,-0.231 -0.685,-0.282 -1.026,-0.132 -1.883,0.838 -4.996,1.199 -8.359,1.192 -3.503,0 -7.297,-0.362 -10.429,-0.798 -1.566,-0.218 -2.967,-0.453 -4.082,-0.67 -1.111,-0.216 -1.956,-0.418 -2.33,-0.54 -0.391,-0.127 -0.816,-0.003 -1.078,0.313 l -2.405,2.9 c -0.207,0.249 -0.28,0.585 -0.195,0.897 0.085,0.313 0.317,0.565 0.622,0.677 0.003,10e-4 1.07,0.391 2.713,1.004 2.464,0.92 6.213,2.343 9.544,3.691 1.665,0.675 3.226,1.332 4.461,1.895 0.617,0.28 1.153,0.538 1.573,0.759 0.303,0.157 0.548,0.301 0.705,0.403 0.156,0.269 0.354,0.658 0.574,1.14 0.939,2.048 2.264,5.648 3.38,9.247 0.559,1.801 1.067,3.605 1.455,5.219 0.388,1.611 0.653,3.042 0.729,4.048 v -0.003 c 0.018,0.244 0.026,0.471 0.026,0.681 -0.001,1.099 -0.22,1.729 -0.393,2.068 -0.087,0.171 -0.164,0.27 -0.206,0.317 l -0.033,0.034 0.005,0.006 c -0.202,0.163 -0.34,0.394 -0.371,0.653 -0.033,0.275 0.051,0.552 0.231,0.764 l 2.131,2.506 c 0.18,0.212 0.446,0.341 0.724,0.352 0.278,0.011 0.553,-0.098 0.749,-0.296 0.541,-0.547 1.36,-1.003 2.417,-1.312 1.055,-0.31 2.335,-0.471 3.744,-0.471 2.869,-0.002 6.263,0.666 9.438,1.936 0.432,0.173 0.924,0.025 1.19,-0.354 l 1.142,-1.629 c 0.239,-0.34 0.241,-0.792 0.006,-1.135 C 155,77.504 151.612,67.236 149.155,55.427 Z M 71.634,88.563 v 0 c -0.556,-1.802 -0.769,-3.433 -0.769,-4.881 -0.002,-4.408 1.983,-7.198 2.454,-7.806 0.265,-0.341 0.499,-0.686 0.68,-1.063 0.18,-0.377 0.308,-0.799 0.308,-1.257 C 74.308,73.2 74.225,72.832 74.066,72.498 73.915,72.18 73.699,71.892 73.44,71.625 l 0.002,-0.002 -2.39,-2.665 c -0.079,-0.099 -0.26,-0.311 -0.568,-0.543 -0.369,-0.278 -0.948,-0.59 -1.703,-0.592 -0.698,-0.006 -1.461,0.3 -2.15,0.914 L 66.63,68.735 c -0.697,0.536 -1.687,1.3 -3.197,2.912 -1.451,-1.677 -2.8,-3.81 -4.168,-6.156 -1.593,-2.729 -3.218,-5.736 -5.132,-8.633 l 10e-4,0.002 c -1.748,-2.658 -3.211,-4.689 -4.219,-6.32 -0.504,-0.813 -0.893,-1.525 -1.152,-2.15 -0.261,-0.626 -0.391,-1.158 -0.412,-1.64 -0.022,-0.523 -0.447,-0.94 -0.972,-0.955 l -21.06,-0.578 c -0.321,-0.009 -0.628,0.139 -0.823,0.393 l -2.798,3.665 c -0.23,0.302 -0.269,0.709 -0.101,1.049 0.154,0.311 0.461,0.51 0.802,0.542 l 10e-4,0.008 v 10e-4 c 0.193,0.025 1.428,0.224 2.777,0.544 0.677,0.16 1.389,0.351 2.02,0.563 0.628,0.21 1.182,0.449 1.501,0.655 0.286,0.185 0.414,0.337 0.501,0.5 0.085,0.165 0.141,0.383 0.142,0.736 0.004,0.537 -0.153,1.352 -0.43,2.416 v 0.002 c -0.684,2.694 -2.437,7.287 -2.921,8.509 -0.393,0.718 -0.646,1.318 -0.656,1.995 -0.001,0.299 0.063,0.607 0.192,0.878 0.194,0.41 0.499,0.701 0.804,0.922 0.31,0.222 0.64,0.393 0.999,0.568 l 0.011,0.005 3.462,1.631 0.033,0.015 c 0.566,0.24 1.081,0.397 1.633,0.401 0.558,0.013 1.153,-0.223 1.541,-0.614 0.388,-0.379 0.622,-0.829 0.826,-1.333 0.202,-0.475 0.477,-1.134 0.794,-1.769 0.312,-0.633 0.684,-1.242 0.978,-1.549 l 10e-4,-0.001 c 0.244,-0.266 0.437,-0.476 0.575,-0.577 0.146,-0.104 0.179,-0.111 0.285,-0.117 0.1,-10e-4 0.325,0.035 0.715,0.256 l 0.007,0.004 c 0.146,0.078 0.449,0.287 0.831,0.615 1.353,1.149 3.75,3.746 6.411,8.13 2.665,4.386 5.611,10.569 8.123,18.934 2.939,9.786 3.542,15.169 3.541,17.886 0,0.998 -0.081,1.636 -0.151,2 -0.035,0.182 -0.067,0.296 -0.086,0.354 l -0.016,0.044 0.005,0.002 c -0.207,0.468 -0.03,1.021 0.42,1.272 l 3.806,2.128 c 0.243,0.136 0.529,0.164 0.794,0.079 0.265,-0.084 0.481,-0.273 0.6,-0.525 0.205,-0.444 0.823,-1.375 1.68,-2.431 1.289,-1.595 3.139,-3.552 5.121,-5.169 1.976,-1.622 4.109,-2.881 5.801,-3.176 0.263,-0.047 0.497,-0.199 0.647,-0.42 0.15,-0.221 0.207,-0.493 0.155,-0.755 -0.598,-3.037 -1.694,-6.312 -2.748,-9.194 -1.054,-2.874 -2.073,-5.379 -2.49,-6.726 z m 46.769,14.667 c -1.765,-1.13 -3.515,-2.269 -4.578,-3.464 -0.923,-1.034 -1.366,-1.782 -1.727,-2.729 -0.359,-0.945 -0.617,-2.135 -1.038,-3.886 V 93.15 c -0.386,-1.586 -1.169,-3.809 -2.177,-6.375 -1.51,-3.845 -3.525,-8.433 -5.428,-12.521 -1.905,-4.093 -3.687,-7.667 -4.767,-9.536 l -0.001,-0.002 c -2.537,-4.347 -4.258,-9.493 -4.25,-13.696 0,-1.578 0.238,-3.017 0.733,-4.235 0.19,-0.469 0,-1.004 -0.445,-1.249 l -2.8,-1.54 c -0.272,-0.149 -0.603,-0.164 -0.887,-0.039 -1.738,0.778 -4.573,1.116 -7.464,1.109 -2.217,0 -4.478,-0.184 -6.363,-0.445 -0.941,-0.131 -1.79,-0.282 -2.487,-0.436 -0.695,-0.152 -1.247,-0.315 -1.548,-0.44 -0.447,-0.182 -0.958,-0.022 -1.22,0.384 l -2.117,3.278 c -0.155,0.24 -0.2,0.537 -0.123,0.811 0.077,0.275 0.27,0.505 0.527,0.629 0,10e-4 0.368,0.179 0.943,0.466 0.864,0.431 2.191,1.105 3.408,1.773 0.608,0.333 1.188,0.665 1.663,0.96 0.471,0.29 0.848,0.56 0.987,0.69 0.4,0.367 0.716,0.748 0.918,1.1 0.204,0.354 0.29,0.665 0.29,0.938 -0.001,0.204 -0.044,0.398 -0.162,0.626 v -10e-4 c -1.37,2.609 -2.533,4.373 -3.451,5.575 -0.92,1.205 -1.583,1.841 -2.013,2.243 l 0.001,0.001 c -0.349,0.317 -0.616,0.661 -0.792,1.028 -0.179,0.369 -0.259,0.756 -0.258,1.111 0.003,0.7 0.278,1.236 0.517,1.593 0.227,0.335 0.435,0.525 0.498,0.583 0.081,0.087 0.218,0.234 0.385,0.415 0.732,0.789 2.042,2.21 2.044,2.213 l 0.025,0.025 c 0.275,0.277 0.551,0.513 0.878,0.695 0.323,0.183 0.712,0.297 1.1,0.295 0.383,0 0.738,-0.101 1.059,-0.241 0.298,-0.132 0.582,-0.301 0.879,-0.496 0.29,-0.15 0.719,-0.312 1.108,-0.308 0.273,0.004 0.521,0.059 0.809,0.252 0.285,0.193 0.627,0.556 0.963,1.25 v 0.001 c 1.157,2.392 3.52,7.1 5.798,11.976 2.276,4.862 4.469,9.926 5.242,12.836 l 0.001,0.003 c 0.179,0.664 0.269,1.236 0.268,1.759 -0.001,0.586 -0.105,1.117 -0.354,1.708 -0.372,0.881 -1.105,1.901 -2.345,3.184 -1.237,1.282 -2.964,2.82 -5.265,4.764 -0.21,0.178 -0.336,0.429 -0.352,0.703 -0.017,0.272 0.078,0.537 0.265,0.739 l 2.609,2.807 c 0.355,0.382 0.947,0.426 1.355,0.102 1.521,-1.211 3.701,-2.177 6.322,-2.82 2.62,-0.646 5.673,-0.977 8.929,-0.977 5.276,-0.001 11.082,0.868 16.465,2.605 0.494,0.16 1.025,-0.082 1.228,-0.56 l 1.064,-2.501 c 0.145,-0.34 0.09,-0.729 -0.142,-1.018 -1.181,-1.449 -2.962,-2.57 -4.727,-3.714 z m 90.658,-30.161 c -0.12,-0.201 -0.304,-0.354 -0.526,-0.432 -0.556,-0.191 -1.221,-0.276 -2.07,-0.347 -0.842,-0.065 -1.842,-0.095 -2.936,-0.095 -2.45,0.001 -5.37,0.146 -7.929,0.386 -1.28,0.12 -2.468,0.264 -3.468,0.427 -1.006,0.166 -1.801,0.336 -2.405,0.574 -0.262,0.104 -0.465,0.313 -0.563,0.576 l -0.815,2.177 c -0.124,0.332 -0.063,0.705 0.161,0.98 0.223,0.273 0.577,0.41 0.927,0.356 0.348,-0.053 0.691,-0.078 1.024,-0.078 1.208,-0.002 2.293,0.337 3.015,0.804 0.361,0.232 0.628,0.491 0.789,0.73 0.163,0.24 0.221,0.445 0.222,0.627 -0.002,0.156 -0.039,0.314 -0.167,0.522 -0.19,0.309 -0.625,0.719 -1.427,1.107 -0.798,0.39 -1.947,0.754 -3.488,1.02 v 0 c -1.046,0.181 -2.001,0.264 -2.872,0.264 -2.081,-0.002 -3.674,-0.466 -4.937,-1.215 -1.887,-1.12 -3.092,-2.934 -3.84,-5.049 -0.745,-2.107 -1.002,-4.482 -1.001,-6.536 0,-0.528 0.017,-1.034 0.045,-1.509 v 0.002 c 0.148,-2.453 1.212,-5.074 2.902,-7.025 1.696,-1.958 3.954,-3.234 6.566,-3.235 0.397,0 0.804,0.029 1.221,0.092 2.581,0.377 4.703,0.838 6.191,1.879 0.75,0.521 1.367,1.179 1.876,2.109 0.507,0.93 0.899,2.143 1.124,3.744 0.056,0.396 0.346,0.725 0.734,0.827 l 2.183,0.577 c 0.265,0.069 0.549,0.028 0.782,-0.116 0.233,-0.146 0.397,-0.38 0.453,-0.648 0.294,-1.447 1.101,-3.561 2.009,-5.42 0.454,-0.932 0.933,-1.807 1.379,-2.513 0.441,-0.702 0.871,-1.247 1.119,-1.462 l 0.008,-0.007 c 0.143,-0.133 0.206,-0.257 0.246,-0.347 0.057,-0.136 0.066,-0.216 0.075,-0.277 l 0.008,-0.137 c -0.003,-0.162 -0.019,-0.216 -0.032,-0.302 -0.053,-0.286 -0.161,-0.709 -0.303,-1.247 -0.423,-1.591 -1.126,-4.009 -1.127,-4.012 -0.096,-0.331 -0.358,-0.59 -0.689,-0.684 -0.33,-0.093 -0.688,-0.008 -0.942,0.222 v 0 c -0.03,0.027 -0.69,0.604 -1.878,1.165 -1.189,0.562 -2.899,1.111 -5.069,1.111 -0.245,0 -0.496,-0.007 -0.752,-0.021 -2.352,-0.137 -4.743,-0.658 -7.335,-1.171 -2.591,-0.512 -5.383,-1.009 -8.519,-1.047 l -0.267,-0.002 c -4.02,0 -8.211,1.123 -11.466,3.981 -3.26,2.857 -5.475,7.424 -5.649,13.968 v -10e-4 c -0.005,0.177 -0.007,0.354 -0.007,0.53 0.004,5.309 2.214,10.469 5.539,14.419 3.328,3.944 7.795,6.722 12.472,7.095 h -0.002 c 0.285,0.022 0.565,0.033 0.841,0.033 1.851,-0.003 3.488,-0.472 5.336,-0.952 1.852,-0.485 3.938,-1.007 6.766,-1.225 h -0.002 c 0.086,-0.007 0.175,-0.01 0.266,-0.01 0.99,-0.006 2.243,0.412 3.289,1.072 1.053,0.649 1.881,1.551 2.156,2.271 0.116,0.291 0.363,0.512 0.666,0.595 l 2.842,0.774 c 0.306,0.083 0.632,0.018 0.882,-0.179 0.25,-0.197 0.39,-0.497 0.381,-0.814 -0.019,-0.623 -0.101,-1.38 -0.176,-2.251 -0.075,-0.869 -0.145,-1.845 -0.145,-2.856 -0.003,-2.059 0.299,-4.239 1.325,-5.933 0.513,-0.851 1.199,-1.593 2.154,-2.194 0.956,-0.601 2.194,-1.063 3.821,-1.293 0.331,-0.046 0.617,-0.255 0.762,-0.557 0.145,-0.3 0.129,-0.654 -0.041,-0.94 z m 22.725,7.498 c -0.885,-1.711 -1.123,-3.24 -1.126,-4.9 -0.005,-2.031 0.4,-4.246 0.404,-6.884 -0.004,-4.225 0.147,-7.827 0.897,-10.428 0.372,-1.302 0.884,-2.342 1.558,-3.125 0.678,-0.783 1.513,-1.337 2.671,-1.677 0.264,-0.077 0.486,-0.261 0.611,-0.505 0.125,-0.244 0.144,-0.532 0.051,-0.79 l -0.759,-2.118 c -0.173,-0.481 -0.681,-0.756 -1.18,-0.634 -4.06,0.998 -10.272,1.46 -14.979,1.456 -2.445,0.003 -4.518,-0.127 -5.585,-0.335 -0.436,-0.083 -0.876,0.132 -1.078,0.525 l -1.037,2.023 c -0.132,0.258 -0.146,0.559 -0.038,0.827 0.108,0.268 0.327,0.477 0.6,0.571 1.417,0.492 2.492,1.176 3.336,1.987 1.262,1.216 2.019,2.743 2.466,4.406 0.446,1.659 0.569,3.438 0.568,5.065 0.001,1.728 -0.136,3.26 -0.138,4.383 0,4.362 -0.536,8.573 -1.505,12.056 -0.961,3.486 -2.387,6.23 -3.982,7.656 -0.32,0.29 -0.418,0.756 -0.241,1.148 l 1.04,2.315 c 0.152,0.337 0.478,0.563 0.847,0.588 0.369,0.025 0.723,-0.158 0.917,-0.473 0.395,-0.643 1.067,-1.313 1.955,-1.931 2.661,-1.874 7.2,-3.206 11.179,-3.194 2.048,-0.003 3.941,0.346 5.352,1.057 0.41,0.206 0.91,0.105 1.208,-0.243 l 1.323,-1.543 c 0.174,-0.203 0.26,-0.472 0.236,-0.737 -0.023,-0.267 -0.156,-0.516 -0.362,-0.685 -2.748,-2.242 -4.321,-4.151 -5.209,-5.861 z m -96.863,-2.479 c -0.145,-0.865 -0.231,-1.398 -0.393,-1.935 -0.163,-0.538 -0.389,-0.998 -0.735,-1.636 l -0.003,0.002 c -0.317,-0.626 -0.854,-1.027 -1.34,-1.212 -0.497,-0.193 -0.946,-0.219 -1.256,-0.22 -0.18,0 -0.337,0.011 -0.338,0.01 l -0.057,0.003 c -1.414,0.106 -2.64,0.359 -3.841,0.852 -0.338,0.138 -0.674,0.299 -1.011,0.473 0.156,-0.308 0.318,-0.62 0.482,-0.939 0.684,-1.338 1.401,-2.788 1.721,-4.445 v 0 c 0.099,-0.323 0.159,-0.646 0.159,-0.96 0.001,-0.509 -0.138,-0.99 -0.373,-1.387 -0.196,-0.334 -0.459,-0.596 -0.743,-0.814 l -0.104,-0.095 -0.123,-0.087 c -0.119,-0.076 -0.316,-0.195 -0.583,-0.351 -0.397,-0.23 -0.927,-0.526 -1.445,-0.788 -0.259,-0.131 -0.515,-0.253 -0.757,-0.354 -0.246,-0.103 -0.465,-0.188 -0.725,-0.242 v 0 c -0.204,-0.041 -0.407,-0.061 -0.604,-0.061 -0.676,0 -1.276,0.229 -1.74,0.56 -0.463,0.336 -0.812,0.765 -0.999,1.287 l -10e-4,0.003 c -0.695,2.028 -2.364,6.318 -4.977,9.603 -1.924,2.422 -3.202,5.124 -3.203,8.086 -0.002,2.033 0.61,4.146 1.929,6.281 l 0.071,0.101 c 0.322,0.385 0.695,0.501 1.01,0.576 0.325,0.07 0.647,0.088 1.004,0.089 0.89,-0.002 2.001,-0.128 3.295,-0.247 1.29,-0.121 2.749,-0.239 4.255,-0.239 1.192,0 2.414,0.074 3.6,0.275 0.468,0.079 0.923,-0.179 1.097,-0.618 0.985,-2.499 1.735,-4.477 2.508,-5.86 0.385,-0.692 0.772,-1.231 1.176,-1.632 0.406,-0.401 0.822,-0.671 1.332,-0.855 l 0.054,-0.021 c 0.44,-0.186 0.881,-0.471 1.212,-0.912 0.333,-0.44 0.511,-1.019 0.506,-1.617 0,-0.221 -0.021,-0.447 -0.063,-0.68 z"/>
      </g>
    </g>
  </g>
</svg>
