<?xml version="1.0" encoding="UTF-8" standalone="no"?>
<svg xmlns="http://www.w3.org/2000/svg" version="1.1" width="600" height="609.41547">
  <path d="m 600,609.41547 0,-302.37672 C 600,116.94683 460.87045,36.1231 454.97435,32.80179 c 0,0 -8.21187,-4.58585 -15.23538,-8.57752 C 442.70987,15.82957 448.24031,0 448.24031,0 L 151.45498,0 c 0,0 5.71327,15.70768 8.74511,24.28521 -6.96257,3.93073 -15.1135,8.51658 -15.1135,8.51658 C 139.19049,36.1231 0,116.94683 0,307.03875 l 0,302.31578 600,0.0609 z" style="fill:#ffffff"/>
  <path d="m 367.81687,437.89549 -57.01082,0 0,-122.82769 57.01082,0 0,122.82769 z m -75.2171,0 -57.01082,0 0,-122.82769 57.01082,0 0,122.82769 z m 18.20628,-241.67894 -18.32817,0 0.12189,105.33746 -57.01082,0 0,-105.15464 -18.22152,0 0,105.15464 -48.14383,0 0,13.51379 48.14383,0 0,122.82769 -48.14383,0 0,12.9196 48.14383,0 0,135.09218 18.22152,0 0,-135.09218 57.01082,0 0,135.09218 18.20628,0 0,-135.09218 57.01082,0 0,135.09218 16.48469,0 0,-135.09218 51.72414,0 0,-12.9196 -51.72414,0 0,-122.82769 51.72414,0 0,-13.51379 -51.72414,0 0,-105.15464 -16.48469,0 0,105.15464 -57.01082,0 0,-105.33746 z m 147.1129,389.75166 120.69473,0 0,-240.90194 -120.69473,0 0,240.90194 z m -432.532631,-0.0609 120.694731,0 0,-240.841 -120.694731,0 0,240.841 z M 457.97989,307.0845 l 120.63379,0 c 0,-178.71109 -133.18775,-253.92819 -133.18775,-253.92819 l -42.30867,112.89421 c 0,0 54.86263,42.24773 54.86263,141.03398 M 200.94368,166.05048 158.63501,53.15627 c 0,0 -133.18775,75.2171 -133.18775,253.92819 l 120.63379,0 c 0,-98.78625 54.86263,-141.03398 54.86263,-141.03398 m -14.10797,-142.66416 230.37428,0 -50.15489,142.66416 -128.49525,0 -51.72414,-142.66416 z"/>
</svg>
