<?xml version="1.0" encoding="UTF-8" standalone="no"?>
<svg xmlns="http://www.w3.org/2000/svg" xmlns:xlink="http://www.w3.org/1999/xlink" version="1.1" width="600" height="609.35358">
  <radialGradient cx="0" cy="0" r="1" fx="0" fy="0" id="radialGradient664" gradientUnits="userSpaceOnUse" gradientTransform="matrix(10.959595,0,0,-10.959595,483.04102,253.63086)" spreadMethod="pad">
    <stop style="stop-color:#ebd491" offset="0"/>
    <stop style="stop-color:#d2bb7b" offset="0.7"/>
    <stop style="stop-color:#8b723c" offset="1"/>
  </radialGradient>
  <radialGradient cx="0" cy="0" r="1" fx="0" fy="0" id="radialGradient652" gradientUnits="userSpaceOnUse" gradientTransform="matrix(17.761887,0,0,-17.761887,483,259.30273)" spreadMethod="pad">
    <stop style="stop-color:#ebd491" offset="0"/>
    <stop style="stop-color:#d2bb7b" offset="0.7"/>
    <stop style="stop-color:#8b723c" offset="1"/>
  </radialGradient>
  <radialGradient cx="0" cy="0" r="1" fx="0" fy="0" id="radialGradient3003" xlink:href="#radialGradient664" gradientUnits="userSpaceOnUse" gradientTransform="matrix(10.959595,0,0,-10.959595,483.04102,253.63086)" spreadMethod="pad"/>
  <radialGradient cx="0" cy="0" r="1" fx="0" fy="0" id="radialGradient3006" xlink:href="#radialGradient664" gradientUnits="userSpaceOnUse" gradientTransform="matrix(166.95671,0,0,166.95671,300.59442,391.05479)" spreadMethod="pad"/>
  <radialGradient cx="0" cy="0" r="1" fx="0" fy="0" id="radialGradient3008" xlink:href="#radialGradient652" gradientUnits="userSpaceOnUse" gradientTransform="matrix(17.761887,0,0,-17.761887,483,259.30273)" spreadMethod="pad"/>
  <radialGradient cx="0" cy="0" r="1" fx="0" fy="0" id="radialGradient3011" xlink:href="#radialGradient652" gradientUnits="userSpaceOnUse" gradientTransform="matrix(270.58174,0,0,270.58174,299.96953,304.65044)" spreadMethod="pad"/>
  <path d="m 600,609.35358 0,-302.34601 C 600,116.93495 460.82364,36.11944 454.92815,32.79846 c 0,0 -8.21104,-4.58539 -15.23384,-8.57665 C 442.66491,15.82796 448.19479,0 448.19479,0 L 151.4396,0 c 0,0 5.71269,15.70609 8.80516,24.28274 -7.0228,3.93033 -15.11197,8.51572 -15.11197,8.51572 C 139.17636,36.11944 0,116.93495 0,307.00757 l 0,302.28507 600,0.0609 z" style="fill:#ffffff"/>
  <path d="m 455.87265,585.9087 120.68247,0 0,-240.87747 -120.68247,0 0,240.87747 z m -432.488706,-0.0609 120.682476,0 0,-240.81654 -120.682476,0 0,240.81654 z m 432.549636,-278.79449 120.62154,0 c 0,-178.69294 -133.17422,-253.9024 -133.17422,-253.9024 l -42.30438,112.88274 c 0,0 54.85706,42.24345 54.85706,141.01966 M 198.92348,166.03362 156.6191,53.15087 c 0,0 -133.174221,75.20946 -133.174221,253.9024 l 120.621541,0 c 0,-98.77621 54.85706,-141.01965 54.85706,-141.01965 m -14.10654,-142.64967 230.35089,0 -50.1498,142.64967 -128.48221,0 -51.71888,-142.64967 z" style="fill:#8b723c"/>
  <path d="m 196.7298,31.77779 45.70152,125.86198 116.69121,0 44.26954,-125.86198 -206.66227,0 z m 214.21825,131.75748 c 13.51242,12.73549 50.75916,55.03986 53.19657,135.07845 l 0,0 103.97095,0 C 564.71843,158.47763 475.57,85.40091 447.60067,65.87112 l 0,0 -36.65262,97.66415 z m -379.063624,135.07845 103.970954,0 c 2.43741,-80.03859 39.68415,-122.34296 53.19657,-135.07845 l 0,0 -36.60692,-97.66415 C 124.4757,85.40091 35.342507,158.47763 31.884426,298.61372 m -0.106637,278.90114 103.894781,0 0,-224.10502 -103.894781,0 0,224.10502 z m 432.488701,0 103.95572,0 0,-224.10502 -103.95572,0 0,224.10502 z" style="fill:url(#radialGradient3011)"/>
  <path d="m 290.44838,196.19662 0.12187,105.32677 -57.00502,0 0,-105.14396 -18.15874,0 0,105.14396 -48.19987,0 0,13.51241 48.19987,0 0,122.81522 -48.19987,0 0,12.91829 48.19987,0 0,135.07846 18.15874,0 0,-135.07846 57.00502,0 0,135.07846 18.20444,0 0,-135.07846 57.00503,0 0,135.07846 16.48301,0 0,-135.07846 51.71889,0 0,-12.91829 -51.71889,0 0,-122.81522 51.71889,0 0,-13.51241 -51.71889,0 0,-105.14396 -16.48301,0 0,105.14396 -57.00503,0 0,-105.32677 -18.32631,0 z m 18.32631,118.83918 57.00503,0 0,122.81522 -57.00503,0 0,-122.81522 z m -75.20946,0 57.00502,0 0,122.81522 -57.00502,0 0,-122.81522 z" style="fill:url(#radialGradient3006)"/>
</svg>
