<?xml version="1.0" encoding="UTF-8" standalone="no"?>
<svg xmlns="http://www.w3.org/2000/svg" version="1.1" width="179.18958" height="182.22141" viewBox="0 0 179.18958 182.22141">
  <path d="M 110.90837,134.25613 H 92.45819 V 94.47942 h 18.45018 z m -24.35838,0 H 68.09982 V 94.47942 h 18.45017 z m 5.9082,-77.29215 h -5.93411 l 0.0259,33.13611 H 68.0998 V 57.04173 H 62.19161 V 90.10009 H 48.82282 v 4.37933 h 13.36881 v 39.77671 H 48.82282 v 4.19793 h 13.36881 v 42.52793 h 5.90819 V 138.45406 H 86.55 v 42.52793 h 5.9082 v -42.52793 h 18.45017 v 42.52793 h 5.33812 v -42.52793 h 12.05606 v -4.19793 h -12.0561 V 94.47942 h 12.05607 V 90.10009 H 116.24645 V 56.79384 h -5.33812 V 90.10009 H 92.45815 Z m 47.65433,125.25742 h 39.07706 V 104.19686 H 140.11252 Z M 0,182.2214 H 39.10298 V 104.19686 H 0 Z M 140.11252,91.88811 h 39.07706 c 0,-57.89004 -43.14543,-82.24841 -43.14543,-82.24841 L 122.362,46.20319 c 0,0 17.75052,13.68215 17.75052,45.68492 z M 56.85349,46.20319 43.17135,9.6397 c 0,0 -43.14542,24.35837 -43.14542,82.24841 h 39.07705 c 0,-32.00277 17.75051,-45.68492 17.75051,-45.68492 M 52.29278,0 h 74.62994 L 110.67516,46.20319 H 69.05859 Z"/>
</svg>
