<?xml version="1.0" encoding="UTF-8" standalone="no"?>
<svg xmlns="http://www.w3.org/2000/svg" version="1.1" width="82.016296" height="52.167278">
  <linearGradient x1="-642.32098" y1="-140" x2="629.77008" y2="-140" id="linearGradient1" gradientUnits="userSpaceOnUse" gradientTransform="matrix(0.05774247,0.02391771,-0.02391771,0.05774247,39.311447,35.502151)">
    <stop style="stop-color:#536e78" offset="0"/>
    <stop style="stop-color:#99aebc" offset="0.3"/>
    <stop style="stop-color:#d9eaf3" offset="0.5"/>
    <stop style="stop-color:#99aebc" offset="0.7"/>
    <stop style="stop-color:#536e78" offset="1"/>
  </linearGradient>
  <path d="M 23.690555,1.2870095 C 18.200951,-0.98685925 12.171543,-0.14583488 7.6129896,3.007547 L 4.7835434,4.964342 7.9629884,6.2813114 19.199312,10.935549 20.142168,18.091044 14.415769,22.484043 3.1794452,17.829806 2.4999999e-7,16.512836 0.61705775,19.89722 C 1.610664,25.350382 5.2794052,30.208511 10.76901,32.482379 c 5.87953,2.435381 12.371567,1.298293 17.025608,-2.42715 l 24.54055,10.165029 c 0.980534,4.693313 4.193482,8.840196 8.943303,10.807636 7.63315,3.161754 16.43669,-0.484791 19.598444,-8.117941 C 84.03867,35.276802 80.392124,26.473263 72.758974,23.311508 67.76338,21.242266 62.2672,22.078746 58.180253,25.052498 L 34.013224,15.042187 C 33.356606,9.1169976 29.570085,3.7223907 23.690555,1.2870095 Z M 65.70259,30.910271 c 0.560452,0.220134 0.850875,0.747771 0.850875,0.747771 l 0.32597,0.69313 0.716752,0.265178 c 1.326199,0.493156 2.944391,1.489171 4.021099,2.612687 1.076709,1.123515 1.529539,2.200892 1.364118,3.127261 -0.101861,0.570429 0.02013,1.239449 0.211681,1.647848 0.01691,0.03604 0.02699,0.04677 0.04328,0.07924 -0.03448,0.01143 -0.0492,0.01189 -0.08664,0.02542 -0.424228,0.153334 -0.983558,0.540143 -1.314885,1.015524 -0.538072,0.772011 -1.620091,1.213633 -3.175884,1.24673 -1.555794,0.0331 -3.404318,-0.406847 -4.690796,-0.995897 l -0.69432,-0.319314 -0.720613,0.259621 c 0,0 -0.652948,0.195316 -1.243656,-0.126154 -0.248736,-0.135365 -0.377786,-0.295673 -0.51546,-0.710312 -0.137673,-0.414638 -0.200257,-1.043282 -0.172089,-1.682185 0.05634,-1.277807 0.415661,-2.468273 0.415661,-2.468273 l 0.359676,-1.149042 0.558166,-1.066825 c 0,0 0.587706,-1.095867 1.451416,-2.039249 0.431855,-0.471691 0.920627,-0.871956 1.31117,-1.0678 0.390544,-0.195843 0.595151,-0.217946 0.866752,-0.137781 0.01269,0.0038 0.05347,0.01718 0.117725,0.04243 z"/>
  <path style="fill:url(#linearGradient1)" d="M 22.973023,3.0192839 C 18.081403,0.99310825 12.733484,1.7453964 8.6805196,4.549037 L 20.91651,9.6173501 22.141501,18.919195 14.697904,24.630393 2.461914,19.562079 c 0.8834044,4.848353 4.1330069,9.16185 9.024627,11.188026 5.59661,2.318192 11.793084,0.998916 15.960982,-2.868132 l 26.556123,10.999906 c 0.59536,4.492863 3.504082,8.554637 7.992356,10.413741 6.696961,2.773971 14.374668,-0.406239 17.148639,-7.103199 2.773972,-6.69696 -0.406238,-14.374667 -7.103199,-17.148639 -4.722561,-1.956149 -9.933774,-0.951339 -13.568228,2.15955 L 32.231066,16.333478 C 32.018333,10.651913 28.569634,5.3374757 22.973023,3.0192839 Z M 66.387641,29.164543 c 1.304902,0.512537 1.862174,1.695177 1.862174,1.695177 3.203821,1.191362 7.191577,4.390623 6.578136,7.825949 -0.156103,0.874182 0.879734,0.851626 0.324747,2.191483 -0.554987,1.339857 -1.271484,0.59146 -1.779243,1.319981 -1.995374,2.862911 -7.077362,2.30536 -10.185226,0.882337 0,0 -1.401848,0.504731 -2.774702,-0.242392 -2.884381,-1.569716 -1.165179,-7.067891 -1.165179,-7.067891 -1.057797,-0.492574 -1.453115,-0.733097 -0.9763,-1.88423 0.476814,-1.151132 0.926422,-1.041676 2.0227,-0.642003 0,0 2.672138,-5.103456 5.821659,-4.173847 0.09369,0.02765 0.184242,0.06126 0.271234,0.09544 z"/>
</svg>
