<?xml version="1.0" encoding="UTF-8" standalone="no"?>
<svg xmlns="http://www.w3.org/2000/svg" version="1.1" width="82.016296" height="52.167278">
  <path d="M 22.973023,3.0192839 C 18.081403,0.99310825 12.733484,1.7453964 8.6805196,4.549037 L 20.91651,9.6173501 22.141501,18.919195 14.697904,24.630393 2.461914,19.562079 c 0.8834044,4.848353 4.1330069,9.16185 9.024627,11.188026 5.59661,2.318192 11.793084,0.998916 15.960982,-2.868132 l 26.556123,10.999906 c 0.59536,4.492863 3.504082,8.554637 7.992356,10.413741 6.696961,2.773971 14.374668,-0.406239 17.148639,-7.103199 2.773972,-6.69696 -0.406238,-14.374667 -7.103199,-17.148639 -4.722561,-1.956149 -9.933774,-0.951339 -13.568228,2.15955 L 32.231066,16.333478 C 32.018333,10.651913 28.569634,5.3374757 22.973023,3.0192839 Z M 66.387641,29.164543 c 1.304902,0.512537 1.862174,1.695177 1.862174,1.695177 3.203821,1.191362 7.191577,4.390623 6.578136,7.825949 -0.156103,0.874182 0.879734,0.851626 0.324747,2.191483 -0.554987,1.339857 -1.271484,0.59146 -1.779243,1.319981 -1.995374,2.862911 -7.077362,2.30536 -10.185226,0.882337 0,0 -1.401848,0.504731 -2.774702,-0.242392 -2.884381,-1.569716 -1.165179,-7.067891 -1.165179,-7.067891 -1.057797,-0.492574 -1.453115,-0.733097 -0.9763,-1.88423 0.476814,-1.151132 0.926422,-1.041676 2.0227,-0.642003 0,0 2.672138,-5.103456 5.821659,-4.173847 0.09369,0.02765 0.184242,0.06126 0.271234,0.09544 z"/>
</svg>
