<?xml version="1.0" encoding="UTF-8" standalone="no"?>
<svg
   xmlns:dc="http://purl.org/dc/elements/1.1/"
   xmlns:cc="http://creativecommons.org/ns#"
   xmlns:rdf="http://www.w3.org/1999/02/22-rdf-syntax-ns#"
   xmlns:svg="http://www.w3.org/2000/svg"
   xmlns="http://www.w3.org/2000/svg"
   xmlns:xlink="http://www.w3.org/1999/xlink"
   height="526.4751"
   width="558.64343"
   version="1.1">
  <defs>
    <linearGradient id="g1">
      <stop offset="0"    style="stop-color:#536e78" />
      <stop offset="0.2"  style="stop-color:#829ba5" />
      <stop offset="0.35" style="stop-color:#d9eaf3" />
      <stop offset="0.65" style="stop-color:#d9eaf3" />
      <stop offset="0.8"  style="stop-color:#829ba5" />
      <stop offset="1"    style="stop-color:#536e78" />
    </linearGradient>
    <linearGradient
       gradientTransform="translate(-652.56445,-103.22216)"
       gradientUnits="userSpaceOnUse"
       y2="485.60886"
       x2="1173.2937"
       y1="202.3056"
       x1="768.69415"
       id="g2"
       xlink:href="#g1" />
  </defs>
  <path
     d="M 321.79102,0.18214029 A 246.2632,249.43262 0 0 0 248.64649,8.4985403 246.2632,249.43262 0 0 0 66.43555,251.40089 C 38.36772,266.86496 14.66384,282.60027 0,311.19386 c 25.98939,5.18471 38.3148,11.55464 53.38672,22.13086 15.61018,11.60365 26.25052,18.54537 44.62891,23.11914 -28.12721,26.78485 -14.9617,38.00429 -74.95117,55.24609 19.56441,12.28009 37.10795,22.82217 58.65625,21.10156 -10.10664,12.85212 -23.15582,18.58365 -36.14454,30.07813 22.62263,10.05799 49.54905,17.5239 78.34961,14.99218 43.28454,38.06544 91.59642,25.16939 123.93555,-6.82812 8.79463,35.46337 30.55873,47.24718 57.01172,55.44141 0.99569,-10.77608 -3.52861,-25.96914 4.02148,-33.41211 13.13221,10.05068 28.4754,19.28306 47.17192,23.35351 50.6487,5.74654 70.7384,-8.22358 98.5117,-31.41211 -19.3281,-2.52406 -32.0523,-5.21741 -39.377,-8.94336 A 246.2632,249.43262 0 0 0 550.25785,184.87354 246.2632,249.43262 0 0 0 321.79102,0.18214029 Z"
     style="fill:url(#g2)" />
  <path
     d="M 312.38477,11.45948 C 182.6261,11.45963 77.4359,118.00347 77.43555,249.43214 c 0.0277,3.83081 0.1512,7.65917 0.36133,11.48242 -28.19041,8.30945 -48.50425,23.71932 -55.95703,45.73242 43.12315,11.8331 39.50204,21.48865 62.24804,31.80859 38.85613,17.62916 37.76368,-0.64065 64.15625,7.92188 -68.60104,14.07393 -43.31253,53.30228 -96.3457,66.98047 28.46068,9.71418 42.36878,7.01737 57.15625,-3.52149 -1.93755,21.81316 -17.7743,34.41462 -33.88281,48.66993 41.36632,11.85743 54.01478,4.18011 72.86719,-3.15625 20.81496,-8.10008 29.63383,-29.49607 50.2871,-37.17383 -13.28971,45.79239 -32.20204,47.73872 -55.91601,58.41992 22.4564,10.54994 57.85387,11.55738 74.52148,-0.37305 16.39267,-11.73363 29.88387,-32.2603 46.45118,-34.95117 -2.71699,6.82023 -19.36601,44.29235 28.97461,65.67774 0.0523,-9.18638 -2.37484,-16.87686 16.47265,-29.82227 28.11588,23.58712 64.70487,44.00591 120.70117,13.82617 -13.3316,-3.01899 -25.5025,-9.51073 -35.9434,-18.35937 92.0084,-34.29605 153.6862,-123.1948 153.7461,-223.16211 -3e-4,-131.42865 -105.1905,-237.97249 -234.94918,-237.97266 z m 0,17.1875 c 120.38658,2.5e-4 217.97898,98.8492 217.97848,220.78516 -0.093,67.67397 -30.4842,132.10362 -83.3769,173.35547 -43.3367,33.79901 -106.23788,-2.34757 -88.3848,-53.15235 12.0889,-48.22817 67.6359,-87.6838 87.211,-60.34375 4.9349,-27.21664 6.4077,-54.66617 -21.0176,-89.78515 -1.7838,13.19195 1.4676,18.94392 -17.9688,37.43164 -1.0266,-9.56085 -1.2995,-14.84191 -10.3847,-27.98438 -4.0343,26.80992 -12.6459,30.1787 -20.6817,40.09375 1.3889,-12.4101 -1.117,-20.68127 -8.082,-27.98242 -3.7716,26.60325 -30.31845,34.95544 -41.39845,24.56641 -8.5141,-7.98315 -8.68191,-26.59929 -4.26953,-37.16407 2.43402,-5.8279 21.34399,-14.83151 29.83198,2.38477 12.1325,-8.76312 18.5705,-21.28343 12.8946,-45.51172 15.1516,5.14671 17.9362,15.24084 22.2871,25.33789 8.4897,-12.60426 9.3614,-24.58952 7.8848,-37.8125 11.375,5.04588 13.9325,14.50055 17.1074,23.64649 3.5432,-13.79668 7.8063,-27.30141 -3.2696,-47.03711 15.6682,-14.56061 -21.7019,-63.01435 -24.7539,-62.69727 -3.052,0.31708 -81.49269,51.73666 -103.7773,83.46094 -14.41249,-0.37694 -29.35549,-1.76681 -47.12891,0.37695 -36.10757,20.04705 -48.25004,34.91648 -70.16992,54.50586 -10.22615,15.9772 -8.37479,21.79371 -12.27344,29.19141 -20.2132,-1.31891 -39.15868,-0.40775 -56.04297,2.64062 -0.10606,-2.50547 -0.17164,-5.01274 -0.19336,-7.52148 C 94.40579,127.49616 191.99817,28.64721 312.38477,28.64698 Z m -39.19125,163.59585 c 3.45043,-0.32592 -14.81877,15.02871 -23.05304,18.75173 -14.22654,-4.822 -33.31914,2.77 -35.3227,5.11398 -2.24147,-2.99906 9.90873,-17.94775 15.89829,-19.60119 15.37854,5.35735 42.47745,-4.26452 42.47745,-4.26452 z m 84.21273,127.35142 c -63.09736,76.71278 -27.54632,122.25912 14.3184,166.51171 -20.2927,-0.58105 -39.69234,-6.44387 -59.79887,-32.3496 -15.70132,3.97623 -21.47913,13.46519 -29.11914,21.91992 -11.37524,-25.45569 1.37074,-39.94675 9.72266,-56.43555 -31.1104,-4.23896 -53.44733,2.60394 -66.64453,20.99219 4.9305,-24.95383 17.58813,-41.07595 35.70898,-50.95508 -2.73195,-5.23892 -15.1712,-4.65552 -31.99804,-1.4375 27.86131,-34.84828 88.46179,-64.58952 127.81054,-68.24609 z"
     style="fill:#000000" />
</svg>
