<?xml version="1.0" encoding="UTF-8" standalone="no"?>
<svg xmlns="http://www.w3.org/2000/svg" version="1.1" id="Layer_1" x="0px" y="0px" width="300" height="137" viewBox="0 0 300 137">
  <g transform="rotate(-90,68.5,68.5)">
    <g transform="rotate(90,68.5,68.5)">
      <path d="M 234.313,8.366 97.347,0 0,77.769 15.207,96.053 83.818,60.611 h 22.179 c -3.778,7.127 -5.909,15.183 -5.909,23.714 0,29.091 24.75,52.675 55.282,52.675 30.532,0 55.28,-23.584 55.28,-52.675 0,-8.531 -2.13,-16.586 -5.908,-23.714 v 0 c 18.352,-0.016 37.437,2.981 50.195,13.023 -3.966,16.188 -13.039,30.196 -26.15,42.805 l 4.479,5.384 L 300,87.35 Z"/>
    </g>
  </g>
</svg>
