<?xml version="1.0"?>
<svg xmlns="http://www.w3.org/2000/svg" version="1.1" width="224.91603" height="263.96875">
    <linearGradient x1="376.0625" y1="227.96875" x2="595.9375" y2="227.96875" id="g3" gradientUnits="userSpaceOnUse" gradientTransform="translate(-373.54198,-57.03125)">
	  <stop style="stop-color:#7f6e41 " offset="0"/>
      <stop style="stop-color:#ae975f " offset="0.2"/>
      <stop style="stop-color:#e3cd99 " offset="0.5"/>
      <stop style="stop-color:#ae975f " offset="0.8"/>
      <stop style="stop-color:#7f6e41 " offset="1"/></linearGradient>
    <linearGradient x1="376.0625" y1="154.26151" x2="595.9375" y2="154.26151" id="g4" gradientUnits="userSpaceOnUse" gradientTransform="translate(-373.54198,-57.03125)">
	  <stop style="stop-color:#7f6e41 " offset="0"/>
      <stop style="stop-color:#ae975f " offset="0.08"/>
      <stop style="stop-color:#e3cd99 " offset="0.18"/>
      <stop style="stop-color:#e3cd99 " offset="0.82"/>
      <stop style="stop-color:#ae975f " offset="0.92"/>
      <stop style="stop-color:#7f6e41 " offset="1"/></linearGradient>
  <path d="m 112.45802,0 c -9.24927,10.88697 -22.406254,104.25 -22.406254,104.25 0,0 -12.05794,-74.42681 -22.03125,-91.8125 -9.37655,17.973869 -18.71875,95.03125 -18.71875,95.03125 l -24.40625,-62.1875 c -12.65801,27.35868 -31.8019597,110.49601 -22.3749997,137.75 13.8183497,39.94976 89.1157997,22.28768 102.0000037,80.9375 l 15.875,0 c 12.8842,-58.64982 88.18165,-40.98774 102,-80.9375 9.42696,-27.25399 -9.71699,-110.39132 -22.375,-137.75 l -24.40625,62.1875 c 0,0 -9.3422,-77.057381 -18.71875,-95.03125 -9.97331,17.38569 -22.03125,91.8125 -22.03125,91.8125 0,0 -13.15698,-93.36303 -22.40625,-104.25 z"/>
  <path d="m 24.958016,67.09375 c -3.73097,12.80958 -13.72643,52.43155 -14.25,79.125 11.38525,-12.43515 31.75,-27.28125 31.75,-27.28125 0.75,-1.96875 0.75,-1.96875 0,-3.78125 z m 175.000004,0 -17.5,48.0625 c -0.75,1.8125 -0.75,1.8125 0,3.78125 0,0 20.36475,14.8461 31.75,27.28125 -0.52357,-26.69345 -10.51903,-66.31542 -14.25,-79.125 z" style="fill:url(#g4)"/>
  <path d="m 112.45802,19.84375 -18.875004,124.375 c 0,0 -12.42547,3.03135 -18.625,10.75 14.08558,5.36513 31.487644,22.37724 37.500004,41.875 6.01236,-19.49776 23.41442,-36.50987 37.5,-41.875 -6.19953,-7.71865 -18.625,-10.75 -18.625,-10.75 z M 68.645516,40.125 l -14.875,84.6875 c 0,0 -44.3124997,23.87096 -44.3124997,46.125 0,41.37904 78.2647497,27.71021 103.0000037,85.03125 24.73525,-57.32104 103,-43.65221 103,-85.03125 0,-22.25404 -44.3125,-46.125 -44.3125,-46.125 L 156.27052,40.125 140.48927,135.5 c 0,0 36.0625,16.14264 36.0625,31.125 0,19.23236 -37.84367,12.21582 -64.09375,44.0625 -26.250084,-31.84668 -64.093754,-24.83014 -64.093754,-44.0625 0,-14.98236 36.0625,-31.125 36.0625,-31.125 z" style="fill:url(#g3)"/>
</svg>
