<?xml version="1.0" encoding="UTF-8" standalone="no"?>
<svg
   viewBox="0 0 220.44 228.41"
   version="1.1"
   id="svg4"
   sodipodi:docname="T.svg"
   width="220.44"
   height="228.41"
   inkscape:version="1.1.1 (3bf5ae0d25, 2021-09-20)"
   xmlns:inkscape="http://www.inkscape.org/namespaces/inkscape"
   xmlns:sodipodi="http://sodipodi.sourceforge.net/DTD/sodipodi-0.dtd"
   xmlns:xlink="http://www.w3.org/1999/xlink"
   xmlns="http://www.w3.org/2000/svg"
   xmlns:svg="http://www.w3.org/2000/svg">
  <defs
     id="defs8">
    <linearGradient
       id="g1">
      <stop
         id="s1"
         style="stop-color:#612c75;stop-opacity:1"
         offset="0" />
      <stop
         id="s2"
         style="stop-color:#7b5190;stop-opacity:1"
         offset="0.15" />
      <stop
         id="s3"
         style="stop-color:#bf99c3;stop-opacity:1"
         offset="0.5" />
      <stop
         id="s4"
         style="stop-color:#7b5190;stop-opacity:1"
         offset="0.85" />
      <stop
         id="s5"
         style="stop-color:#612c75;stop-opacity:1"
         offset="1" />
    </linearGradient>
    <linearGradient
       inkscape:collect="always"
       xlink:href="#g1"
       id="linearGradient19485"
       x1="13.34"
       y1="114.85"
       x2="207.09"
       y2="114.85"
       gradientUnits="userSpaceOnUse" />
  </defs>
  <sodipodi:namedview
     id="namedview6"
     pagecolor="#ffffff"
     bordercolor="#666666"
     borderopacity="1.0"
     inkscape:pageshadow="2"
     inkscape:pageopacity="0.0"
     inkscape:pagecheckerboard="0"
     showgrid="false"
     inkscape:zoom="2.56"
     inkscape:cx="48.047"
     inkscape:cy="96.484"
     inkscape:window-width="1920"
     inkscape:window-height="986"
     inkscape:window-x="-11"
     inkscape:window-y="-11"
     inkscape:window-maximized="1"
     inkscape:current-layer="svg4" />
  <path
     id="path19400"
     style="display:inline;opacity:1;fill:url(#linearGradient19485);fill-opacity:1;stroke-width:7.63158"
     d="m 22.92,11.95 c 47.07,-0.33 82.38,20.38 87.3,19.8 5.25,0.62 45.07,-22.98 96.87,-19.44 V 187.92 C 145.56,186.08 122.9,204.53 110.22,217.75 97.54,204.53 74.88,186.08 13.34,187.92 V 12.31 c 3.24,-0.22 6.43,-0.34 9.57,-0.36 z"
     sodipodi:nodetypes="sccccccss" />
  <path
     id="path2"
     style="display:inline;opacity:1;fill:#ffffff;fill-opacity:1;stroke-width:7.63158"
     d="M 19.55,6.7767 C 15.84,6.7767 12.01,6.88 8.05,7 V 19.21 L 0,18.24 V 194.2 l 95.49,34.21 h 14.73 14.73 L 220.44,194.2 V 18.24 l -8.05,0.97 V 7 C 149,4.28 119.09,27.5 110.22,23.94 101.91,27.28 75.1,7.08 19.55,6.7767 Z m 3.37,5.1733 c 47.07,-0.33 82.38,20.38 87.3,19.8 5.25,0.62 45.07,-22.98 96.87,-19.44 V 187.92 C 145.56,186.08 122.9,204.53 110.22,217.75 97.54,204.53 74.88,186.08 13.34,187.92 V 12.31 c 3.24,-0.22 6.43,-0.34 9.57,-0.36 z" />
  <path
     d="m 134.93,59.636 c 7.68,-7.415 12.17,-16.976 10.29,-28.726 30.98,68.22 -46.7,74.14 -46.7,127.65 -7.76,-6.95 -12.34,-15.99 -13.8,-26.11 -8.11,13.35 -6.67,34.44 -0.6,47.71 C 34.67,153.77 29.54,94.439 67.85,65.89 60.65,75.016 62.88,93.028 78.25,92.704 102.52,92.191 112.26,33.2 83.67,0 c 23.8,10.28 46.69,31.79 51.26,59.636 z"
     id="path6622"
     style="display:inline;opacity:1;fill:#ffffff;fill-opacity:1;stroke-width:7.63158"
     sodipodi:nodetypes="ccccccscc" />
  <path
     d="M 174.72,77.271 C 210.12,170.9 103.64,161.39 111.41,228.41 70.19,134.34 164.06,140.86 174.72,77.271 Z"
     id="path8942"
     style="display:inline;opacity:1;fill:#ffffff;fill-opacity:1;stroke-width:7.63158"
     sodipodi:nodetypes="ccc" />
</svg>
