<?xml version="1.0" encoding="UTF-8" standalone="no"?>
<svg xmlns="http://www.w3.org/2000/svg" version="1.1" width="600" height="725.90894">
  <path d="m 215.43161,478.08361 c 0,0 2.0507,-0.85367 3.194,-1.27034 2.3955,7.29539 6.36985,19.34547 6.36985,19.34547 l 149.93649,0 c 0,0 4.04694,-12.05008 6.44244,-19.34547 1.21662,0.48926 6.24281,2.54068 7.31353,2.97623 3.90176,2.75845 9.41867,6.80539 9.41867,6.80539 13.5382,9.70904 18.58327,16.29666 20.14397,18.71031 0,0 2.46809,3.75657 3.17585,4.89988 -12.24971,12.17712 -32.32109,30.61521 -56.05831,47.34741 -14.89928,-13.68338 -35.87805,-24.59017 -64.17035,-24.59017 l -2.19587,0 c -28.41934,0 -49.4707,10.90679 -64.36998,24.59017 -23.73722,-16.7322 -43.8086,-35.17029 -56.05831,-47.34741 0.77963,-1.14403 3.24844,-4.97248 3.24844,-4.97248 1.56071,-2.34105 6.53318,-8.92867 20.07138,-18.63771 0,0 5.51691,-3.97435 9.34608,-6.7328 0.9974,-0.50814 4.19212,-1.77848 4.19212,-1.77848 M 60.613393,1e-5 c 0,0 24.172766,72.95385 25.152743,76.00266 -5.172101,8.58388 -12.394894,20.41619 -12.394894,20.41619 -1.342932,2.12328 -26.659004,44.73414 -45.732261,108.52338 -1.197749,-1.5607 -6.170225,-7.78537 -6.170225,-7.78537 0,0 -6.442442,50.9588 -9.200896,72.66348 -0.07259,0.1989 -0.290363,1.54256 -0.290363,1.54256 l 0.07259,0.0726 C 11.54195,275.40986 10.27161,285.89924 10.27161,285.89924 7.9305537,304.11955 6.8053949,322.26728 6.8053949,339.92501 5.6613635,338.99874 0,334.24476 0,334.24476 c 0,0 5.4624645,42.04828 9.0012703,69.75985 0.072591,1.77848 0.1451818,4.39175 0.1451818,4.39175 0,0 0.4181235,0.36295 0.4892626,0.36295 0.9262593,7.44057 2.7584543,21.46876 2.7584543,21.46876 10.217167,78.97889 30.851128,126.83443 31.758514,128.81253 l 4.119533,9.36423 8.220918,6.09763 c 3.193999,2.32291 71.883126,51.52139 151.061646,74.98639 3.1214,15.87926 9.36422,34.31734 23.68277,49.63402 11.34233,12.26786 31.9037,26.78604 65.07774,26.78604 l 7.29538,0 c 33.24663,0 53.808,-14.51818 65.15032,-26.78604 14.31856,-15.31668 20.56137,-33.75476 23.68278,-49.56143 79.17852,-23.53759 147.86764,-72.73607 151.06164,-75.05898 l 8.29351,-6.02504 4.04695,-9.43682 c 0.90738,-1.9781 21.54134,-49.83364 31.75851,-128.81253 0,0 1.90551,-14.59077 2.97623,-22.88428 0,0 0.34553,-0.29036 0.34553,-0.29036 0,0 0.0726,-2.12329 0.0726,-3.26659 3.6114,-27.71158 9.00127,-69.46949 9.00127,-69.46949 0,0 -5.66209,4.68212 -6.8054,5.68024 0,-17.65773 -1.12515,-35.80545 -3.39362,-54.02577 0,0 -1.34293,-10.56197 -1.85107,-14.53632 l 0.0726,-0.0726 c 0,0 -0.21777,-0.97998 -0.21777,-1.12516 -2.68586,-21.34172 -9.14645,-73.15347 -9.14645,-73.15347 0,0 -5.02692,6.29726 -6.29726,7.85796 -19.07326,-63.78924 -44.44377,-106.4001 -45.73226,-108.52338 0,0 -7.2228,-11.83231 -12.3949,-20.41619 C 515.21386,72.95385 539.38663,0 539.38663,0 L 60.613413,0 z" style="fill:#ffffff"/>
  <path d="M 547.62567,261.38166 C 531.02051,176.23254 494.38026,116.0547 494.38026,116.0547 l -112.49774,320.271 c 0,0 8.22092,2.41365 19.34548,7.80352 L 547.62567,261.38166 z m 6.07949,128.44958 c 1.14258,-15.38927 1.77848,-31.68593 1.77848,-48.85367 0,-17.29478 -1.19775,-34.15401 -3.194,-50.32364 L 420.22866,455.88895 c 9.78162,7.09576 22.26726,17.36737 29.70782,28.78229 l 103.76868,-94.84 z M 298.80225,570.80033 c -41.54014,0 -54.44317,37.58393 -54.44317,37.58393 -58.63529,-31.83111 -106.90823,-86.49205 -106.90823,-86.49205 0.48926,-7.1502 1.9781,-13.75597 4.04694,-19.78101 L 49.906237,425.34633 c 9.63644,74.56899 28.854878,118.52278 28.854878,118.52278 0,0 80.666625,58.68973 163.819495,75.78489 0,0 -4.97248,68.47135 53.7354,68.47135 l 7.36798,0 c 58.63529,0 53.7354,-68.39876 53.7354,-68.39876 83.15287,-17.16775 163.81949,-75.78489 163.81949,-75.78489 0,0 19.21844,-43.95379 28.85488,-118.59537 l -91.59155,76.76487 c 2.06884,6.09763 3.55695,12.7034 4.04694,19.78101 0,0 -48.27294,54.73354 -106.98082,86.49205 0,0 -12.83044,-37.58393 -54.37058,-37.58393 l -2.3955,0 z M 198.772,444.12922 c 11.12456,-5.46246 19.34548,-7.80352 19.34548,-7.80352 L 105.61974,116.0547 c 0,0 -36.640247,60.17784 -53.245413,145.32696 L 198.772,444.12922 z m -48.70848,40.54202 c 7.44056,-11.46937 19.9262,-21.68653 29.70782,-28.78229 L 47.782953,290.65393 c -2.06884,16.16963 -3.26659,33.02886 -3.26659,50.32364 0,17.16774 0.635896,33.4644 1.778477,48.85367 l 103.76868,94.84 z m -37.0758,-446.81508 374.02456,0 -139.37451,420.44643 -95.27554,0 L 112.98772,37.85616 z"/>
</svg>
