<?xml version="1.0" encoding="UTF-8" standalone="no"?>
<svg xmlns="http://www.w3.org/2000/svg" version="1.1" width="600" height="725.90717">
  <linearGradient x1="0" y1="0" x2="1" y2="0" id="linearGradient316" gradientUnits="userSpaceOnUse" gradientTransform="matrix(0,35.832031,35.832031,0,483,465.80518)" spreadMethod="pad">
    <stop style="stop-color:#bf331c" offset="0"/>
    <stop style="stop-color:#d3641c" offset="0.3"/>
    <stop style="stop-color:#f6b91d" offset="0.5"/>
    <stop style="stop-color:#d3641c" offset="0.7"/>
    <stop style="stop-color:#bf331c" offset="1"/>
  </linearGradient>
  <path d="m 215.43109,478.08245 c 0,0 1.9781,-0.85367 3.19399,-1.27034 2.3955,7.29537 6.36984,19.34543 6.36984,19.34543 l 149.93612,0 c 0,0 4.04693,-12.05006 6.44242,-19.34543 1.21663,0.48927 6.24281,2.54068 7.31352,2.97622 3.90175,2.75845 9.41864,6.80538 9.41864,6.80538 13.53817,9.70901 18.58323,16.29662 20.14393,18.71026 0,0 2.46808,3.75657 3.17584,4.89987 -12.24968,12.1771 -32.32101,30.61514 -56.05818,47.3473 -14.89924,-13.68335 -35.87796,-24.59011 -64.17019,-24.59011 l -2.19587,0 c -28.41926,0 -49.47057,10.90676 -64.36981,24.59011 -23.73717,-16.73216 -43.8085,-35.1702 -56.00374,-47.3473 0.72591,-1.14403 3.19399,-4.97246 3.19399,-4.97246 1.48811,-2.34105 6.53317,-8.92866 20.07133,-18.63767 0,0 5.5169,-3.97434 9.34606,-6.73279 0.99739,-0.50813 4.19211,-1.77847 4.19211,-1.77847 M 60.667689,1e-5 c 0,0 24.118265,72.95367 25.09824,76.00248 -5.172089,8.58385 -12.394865,20.41613 -12.394865,20.41613 -1.289211,2.12328 -26.658939,44.73403 -45.73215,108.52312 -1.197746,-1.5607 -6.242801,-7.78535 -6.242801,-7.78535 0,0 -6.369835,50.95868 -9.128282,72.6633 -0.07259,0.1989 -0.290363,1.54256 -0.290363,1.54256 l 0.07259,0.0726 c -0.508135,3.97434 -1.851064,14.4637 -1.851064,14.4637 C 7.9305345,304.11882 6.8053785,322.26649 6.8053785,339.92418 5.6613498,338.99792 0,334.24395 0,334.24395 c 0,0 5.4624512,42.04817 9.0012486,69.75968 0.072591,1.77847 0.2177721,4.39174 0.2177721,4.39174 0,0 0.3455318,0.36295 0.4181225,0.36295 0.9988478,7.44055 2.7584468,21.4687 2.7584468,21.4687 10.217143,78.9787 30.851054,126.83413 31.758438,128.81223 l 4.046932,9.3642 8.293489,6.09762 c 3.266582,2.3229 71.882951,51.52126 151.061281,74.98621 3.1214,15.87921 9.3642,34.31726 23.68272,49.6339 11.3423,12.26783 31.90361,26.78597 65.07757,26.78597 l 7.29537,0 c 33.24655,0 53.80786,-14.51814 65.15016,-26.78597 14.31852,-15.31664 20.56132,-33.75469 23.68272,-49.56131 79.17833,-23.53754 147.7947,-72.7359 151.06128,-75.0588 l 8.2209,-6.02503 4.11952,-9.43679 c 0.90739,-1.9781 21.5413,-49.83353 31.75844,-128.81223 0,0 1.83292,-14.59073 2.97622,-22.88422 0,0 0.27294,-0.29036 0.27294,-0.29036 0,0 0.14518,-2.12328 0.14518,-3.26658 C 594.61014,376.07435 600,334.31654 600,334.31654 c 0,0 -5.66208,4.6821 -6.80538,5.68023 0,-17.6577 -1.12516,-35.80537 -3.39362,-54.02564 0,0 -1.34292,-10.56195 -1.85106,-14.53629 l 0.0726,-0.0726 c 0,0 -0.21777,-0.97998 -0.21777,-1.12516 -2.68586,-21.34167 -9.14643,-73.15329 -9.14643,-73.15329 0,0 -5.02691,6.29724 -6.29724,7.85794 -19.07321,-63.78909 -44.38923,-106.39984 -45.73215,-108.52312 0,0 -7.22278,-11.83228 -12.39487,-20.41613 C 515.21406,72.95367 539.38676,0 539.38676,0 L 60.669151,0 z"/>
  <g transform="matrix(18.147679,0,0,-18.147679,-8465.3295,9141.4027)">
    <path d="m 472.695,501.637 7.68,-23.168 5.25,0 7.68,23.168 -20.61,0 z m 14.817,-21.957 c 0,0 0.453,-0.133 1.066,-0.434 l 0,0 8.067,10.074 c -0.911,4.692 -2.934,8.008 -2.934,8.008 l 0,0 -6.199,-17.648 z m -18.157,9.64 8.067,-10.074 c 0.613,0.305 1.066,0.434 1.066,0.434 l 0,0 -6.199,17.648 c 0,0 -2.019,-3.316 -2.934,-8.008 m 20.27,-10.718 c 0.539,-0.391 1.227,-0.957 1.637,-1.586 l 0,0 5.718,5.226 c 0.063,0.848 0.098,1.746 0.098,2.692 l 0,0 c 0,0.953 -0.066,1.878 -0.176,2.773 l 0,0 -7.277,-9.105 z m -20.703,6.332 c 0,-0.946 0.035,-1.844 0.098,-2.692 l 0,0 5.718,-5.226 c 0.41,0.632 1.098,1.195 1.637,1.586 l 0,0 -7.273,9.105 c -0.114,-0.891 -0.18,-1.82 -0.18,-2.773 m 22.812,-8.879 c 0.114,-0.336 0.196,-0.7 0.223,-1.09 l 0,0 c 0,0 -2.66,-3.016 -5.891,-4.766 l 0,0 c 0,0 -0.711,2.071 -3,2.071 l 0,0 -0.132,0 c -2.293,0 -2.996,-2.071 -2.996,-2.071 l 0,0 c -3.235,1.754 -5.895,4.766 -5.895,4.766 l 0,0 c 0.027,0.39 0.109,0.758 0.223,1.09 l 0,0 -5.047,4.23 c 0.531,-4.109 1.59,-6.531 1.59,-6.531 l 0,0 c 0,0 4.445,-3.234 9.027,-4.176 l 0,0 c 0,0 -0.274,-3.773 2.961,-3.773 l 0,0 0.406,0 c 3.235,0 2.961,3.769 2.961,3.769 l 0,0 c 4.582,0.946 9.027,4.18 9.027,4.18 l 0,0 c 0,0 1.059,2.422 1.59,6.531 l 0,0 -5.047,-4.23 z" style="fill:url(#linearGradient316)"/>
  </g>
</svg>
