<?xml version="1.0" encoding="UTF-8" standalone="no"?>
<svg xmlns="http://www.w3.org/2000/svg" version="1.1" id="svg2" width="198.66344" height="250.40826" viewBox="0 0 198.66344 250.40826">
  <path d="M 25.556641 0 L 80.380859 161.4082 L 118.29297 161.4082 L 173.10547 0 L 25.556641 0 z M 21.798828 27.458984 C 13.402378 47.479248 7.3188262 68.971612 3.7539062 89.982422 L 60.373047 155.89648 L 64.908203 153.45703 L 21.798828 27.458984 z M 177.36328 27.458984 L 133.75391 153.45703 L 138.28711 155.89648 L 194.9082 89.982422 C 191.34328 68.971612 185.75973 47.479248 177.36328 27.458984 z M 1.7480469 101.72266 C -0.84244302 112.66683 -0.20318249 123.45688 1.3984375 135.29102 L 41.376953 173.35352 L 41.376953 161.4082 L 49.824219 161.4082 L 1.7480469 101.72266 z M 196.91406 101.72266 L 148.83789 161.4082 L 157.2832 161.4082 L 157.2832 173.35352 L 197.26367 135.29102 C 198.86529 123.45688 199.50455 112.66683 196.91406 101.72266 z M 2.7246094 147.16016 C 1.5528094 172.12548 11.423011 189.98035 13.869141 195.7207 C 13.869141 195.7207 41.531667 216.91063 71.349609 225.10938 C 73.19388 225.60099 75.05926 226.08527 77 226.49219 C 77.11164 226.51609 77.224277 226.54486 77.335938 226.56836 C 77.286828 227.14954 77.258329 227.73122 77.255859 228.31445 L 77.253906 228.33203 C 77.253951 234.42872 79.727057 239.94827 83.722656 243.94336 C 85.470252 245.69073 87.508252 247.14752 89.759766 248.23242 C 89.759766 248.23242 89.761719 248.23242 89.761719 248.23242 C 90.404626 248.54214 91.064552 248.82096 91.740234 249.06836 C 91.740234 249.06836 91.742188 249.06836 91.742188 249.06836 C 92.079745 249.19192 92.42058 249.30869 92.765625 249.41602 C 92.765625 249.41602 92.767578 249.41602 92.767578 249.41602 C 93.11263 249.52331 93.460422 249.6223 93.8125 249.71289 C 93.8137 249.7132 93.815206 249.71258 93.816406 249.71289 C 94.167894 249.80329 94.522829 249.88767 94.880859 249.96094 C 94.882059 249.96119 94.883566 249.96068 94.884766 249.96094 C 95.242814 250.03414 95.604618 250.09866 95.96875 250.1543 C 95.96875 250.1543 95.970703 250.1543 95.970703 250.1543 C 96.335481 250.21 96.701843 250.2573 97.072266 250.29492 C 97.073566 250.29505 97.074872 250.29479 97.076172 250.29492 C 97.445974 250.33242 97.818392 250.35991 98.193359 250.37891 C 98.570917 250.39811 98.951653 250.4082 99.333984 250.4082 C 101.61863 250.40779 103.82191 250.06068 105.89453 249.41602 C 106.58646 249.20093 107.26293 248.9533 107.92383 248.67383 C 107.92383 248.67383 107.92578 248.67383 107.92578 248.67383 C 108.58554 248.39477 109.22839 248.08367 109.85352 247.74414 C 109.85352 247.74414 109.85547 247.74414 109.85547 247.74414 C 110.4806 247.40455 111.08702 247.03505 111.67383 246.63867 C 112.55507 246.04332 113.39139 245.38685 114.17578 244.67383 C 118.61896 240.63547 121.41011 234.80922 121.41016 228.33203 L 121.4043 228.29688 C 121.4013 227.71954 121.37672 227.14367 121.32812 226.56836 C 121.43979 226.54486 121.55047 226.51609 121.66211 226.49219 C 123.60285 226.08527 125.47018 225.60099 127.31445 225.10938 C 157.13239 216.91063 184.79492 195.7207 184.79492 195.7207 C 187.24106 189.98035 197.1093 172.12548 195.9375 147.16016 L 164.44531 177.36328 L 164.44531 188.09766 C 149.71829 201.18216 135.39516 213.42391 120.38477 221.69922 C 117.49018 212.50942 108.96786 206.25786 99.332031 206.25586 L 99.330078 206.25586 C 89.694237 206.25786 81.173888 212.50942 78.279297 221.69922 C 63.268897 213.42391 48.945769 201.18216 34.21875 188.09766 L 34.21875 177.36328 L 2.7246094 147.16016 z "/>
</svg>
