<?xml version="1.0" encoding="UTF-8" standalone="no"?>
<svg xmlns="http://www.w3.org/2000/svg" version="1.1" width="600" height="725.90894">
  <path d="M 547.62567,261.38166 C 531.02051,176.23254 494.38026,116.0547 494.38026,116.0547 l -112.49774,320.271 c 0,0 8.22092,2.41365 19.34548,7.80352 L 547.62567,261.38166 z m 6.07949,128.44958 c 1.14258,-15.38927 1.77848,-31.68593 1.77848,-48.85367 0,-17.29478 -1.19775,-34.15401 -3.194,-50.32364 L 420.22866,455.88895 c 9.78162,7.09576 22.26726,17.36737 29.70782,28.78229 l 103.76868,-94.84 z M 298.80225,570.80033 c -41.54014,0 -54.44317,37.58393 -54.44317,37.58393 -58.63529,-31.83111 -106.90823,-86.49205 -106.90823,-86.49205 0.48926,-7.1502 1.9781,-13.75597 4.04694,-19.78101 L 49.906237,425.34633 c 9.63644,74.56899 28.854878,118.52278 28.854878,118.52278 0,0 80.666625,58.68973 163.819495,75.78489 0,0 -4.97248,68.47135 53.7354,68.47135 l 7.36798,0 c 58.63529,0 53.7354,-68.39876 53.7354,-68.39876 83.15287,-17.16775 163.81949,-75.78489 163.81949,-75.78489 0,0 19.21844,-43.95379 28.85488,-118.59537 l -91.59155,76.76487 c 2.06884,6.09763 3.55695,12.7034 4.04694,19.78101 0,0 -48.27294,54.73354 -106.98082,86.49205 0,0 -12.83044,-37.58393 -54.37058,-37.58393 l -2.3955,0 z M 198.772,444.12922 c 11.12456,-5.46246 19.34548,-7.80352 19.34548,-7.80352 L 105.61974,116.0547 c 0,0 -36.640247,60.17784 -53.245413,145.32696 L 198.772,444.12922 z m -48.70848,40.54202 c 7.44056,-11.46937 19.9262,-21.68653 29.70782,-28.78229 L 47.782953,290.65393 c -2.06884,16.16963 -3.26659,33.02886 -3.26659,50.32364 0,17.16774 0.635896,33.4644 1.778477,48.85367 l 103.76868,94.84 z m -37.0758,-446.81508 374.02456,0 -139.37451,420.44643 -95.27554,0 L 112.98772,37.85616 z"/>
</svg>
