<?xml version="1.0" encoding="UTF-8" standalone="no"?>
<svg xmlns="http://www.w3.org/2000/svg" xmlns:xlink="http://www.w3.org/1999/xlink" version="1.1" width="600" height="494.88617">
  <linearGradient x1="0" y1="0" x2="1" y2="0" id="linearGradient542" gradientUnits="userSpaceOnUse" gradientTransform="matrix(37.15715,-12.07309,-12.07309,-37.15715,648.95312,259.14063)" spreadMethod="pad">
    <stop style="stop-color:#8b723c" offset="0"/>
    <stop style="stop-color:#d2bb7b" offset="0.3"/>
    <stop style="stop-color:#ebd491" offset="0.5"/>
    <stop style="stop-color:#d2bb7b" offset="0.7"/>
    <stop style="stop-color:#8b723c" offset="1"/>
  </linearGradient>
  <linearGradient x1="0" y1="0" x2="1" y2="0" id="linearGradient2995" xlink:href="#linearGradient542" gradientUnits="userSpaceOnUse" gradientTransform="matrix(37.15715,-12.07309,-12.07309,-37.15715,648.95312,259.14063)" spreadMethod="pad"/>
  <linearGradient x1="0" y1="0" x2="1" y2="0" id="linearGradient2998" xlink:href="#linearGradient542" gradientUnits="userSpaceOnUse" gradientTransform="matrix(459.714,149.37014,-149.37014,459.714,123.19103,227.91204)" spreadMethod="pad"/>
  <path d="M 580.32827,453.46421 C 542.39525,373.52772 488.01963,319.54801 438.92692,284.11416 461.34527,254.39624 474.63296,217.47773 474.63296,177.45381 474.63296,79.63956 394.9934,0 297.12966,0 199.26592,0 119.66348,79.63956 119.66348,177.45381 c 0,41.22402 14.11663,79.16942 37.74744,109.27087 C 109.32036,322.19565 56.689211,375.50726 19.671726,453.46421 L 0,494.88618 l 600,0 -19.67173,-41.42197 z"/>
  <path d="m 148.66381,177.45381 c 0,35.13692 12.22369,67.41587 32.613,92.84065 l 0,0 c 51.48053,-33.15737 93.0386,-45.48004 96.46568,-46.44507 l 0,0 22.23277,-6.37166 22.28225,6.37166 c 3.32811,0.96503 42.96849,12.66909 92.64269,44.0325 l 0,0 c 19.2387,-25.04124 30.69531,-56.40465 30.69531,-90.42808 l 0,0 c 0,-81.96552 -66.45084,-148.41636 -148.46585,-148.41636 l 0,0 c -82.01501,0 -148.46585,66.45084 -148.46585,148.41636 m 165.61366,288.43204 239.85895,0 C 474.15045,297.41422 314.27747,251.73623 314.27747,251.73623 l 0,0 0,214.14962 z m -268.413894,0 239.858954,0 0,-214.14962 c 0,0 -159.92246,45.67799 -239.858954,214.14962" style="fill:url(#linearGradient2998)"/>
</svg>
