<?xml version="1.0" encoding="UTF-8" standalone="no"?>
<svg xmlns="http://www.w3.org/2000/svg" version="1.1" width="600" height="494.88617">
  <path d="m 299.97526,217.47773 22.28225,6.37166 c 3.32811,0.96503 42.96849,12.66909 92.64269,43.98301 19.2387,-24.99175 30.7448,-56.35516 30.7448,-90.3291 0,-82.01501 -66.50033,-148.46585 -148.51534,-148.46585 -81.96552,0 -148.46585,66.45084 -148.46585,148.46585 0,35.08743 12.22369,67.36638 32.613,92.79116 51.48053,-33.15737 93.0386,-45.48004 96.46568,-46.44507 l 22.23277,-6.37166 z m 14.30221,34.2585 0,214.14962 239.85895,0 C 474.15045,297.41422 314.27747,251.73623 314.27747,251.73623 m -28.55494,0 0,214.14962 -239.858954,0 C 125.84955,297.41422 285.72253,251.73623 285.72253,251.73623"/>
</svg>
