<?xml version="1.0" encoding="UTF-8" standalone="no"?>
<svg xmlns="http://www.w3.org/2000/svg" version="1.1" width="599.99963" height="510.36099">
  <path d="m 419.33756,0 -239.77274,0 -1.14828,0.1531 c -16.19068,1.74793 -38.56931,13.40931 -46.04585,37.93138 -20.38828,5.62655 -96.99103,27.01 -96.99103,27.01 l -0.94414,0.34499 C 21.23035,70.53015 0,87.57567 0,118.7705 c 0,5.57552 0.65018,11.61035 2.19449,18.14276 l 91.50482,341.44619 2.48793,3.38103 c 10.32172,13.80483 35.53276,34.9331 64.29068,26.76758 0,0 128.92586,-35.48172 139.59206,-38.42896 10.61517,2.94724 139.75792,38.48 139.75792,38.48 28.55379,8.11448 53.7138,-13.01379 64.08655,-26.81862 l 2.48793,-3.34276 91.35172,-340.83377 c 1.55655,-6.73655 2.24552,-12.91172 2.24552,-18.58931 0,-31.45 -21.17931,-48.44449 -34.33345,-53.53517 l -0.9441,-0.34499 c 0,0 -76.60275,-21.38345 -96.99103,-27.01 C 460.2545,13.56241 437.82484,1.90103 421.68518,0.1531 L 420.53691,0 419.3376,0 z" style="fill:#ffffff"/>
  <path d="m 180.7131,21.72793 c 0,0 -29.35759,3.18965 -29.35759,33.59344 L 42.21828,85.72516 c 0,0 -27.26517,10.51311 -18.89552,46.19897 l 90.25448,336.76377 c 0,0 18.89551,25.21103 40.91689,18.88276 l 145.57585,-40.02379 145.53758,40.02379 c 22.02137,6.32827 40.91689,-18.88276 40.91689,-18.88276 L 576.72789,131.92413 C 585.14859,96.23827 557.88341,85.72516 557.88341,85.72516 L 448.74617,55.32137 c 0,-30.40379 -29.40861,-33.59344 -29.40861,-33.59344 l -238.62446,0 z"/>
  <path d="m 181.65724,34.3462 c -1.33966,0.24292 -5.57552,1.18655 -9.51794,3.84035 -5.62655,3.72551 -8.21655,9.16068 -8.21655,17.13482 l 0,9.56897 c 0,0 -115.78447,32.30482 -117.46861,32.75137 -3.04931,1.39069 -12.12069,6.8769 -12.12069,21.3707 0,2.94724 0.40828,6.23897 1.25035,9.97723 0.1531,0.5491 88.00895,328.48343 89.46343,333.7655 3.82759,4.38897 15.24655,15.79518 26.01484,12.75862 l 149.00791,-41.01896 148.96964,41.01896 c 10.76829,3.03656 22.13621,-8.36965 26.01484,-12.75862 1.45448,-5.28207 89.31033,-333.21687 89.46344,-333.7655 0.8421,-3.73826 1.25034,-7.02999 1.25034,-9.97723 0,-14.4938 -9.12242,-19.98001 -12.12069,-21.3707 C 551.96342,97.19465 436.1279,64.89034 436.1279,64.89034 l 0,-9.56897 c 0,-7.97414 -2.59,-13.40931 -8.16551,-17.13482 -3.94242,-2.6538 -8.17828,-3.59793 -9.56897,-3.84035 l -236.73618,0 z" style="fill:#ffffff"/>
  <path d="m 438.73066,81.54034 0,323.85205 c 0,0 -2.84517,20.97517 -19.59724,20.97517 l -90.94344,0 121.70447,33.59344 c 0,0 7.01725,3.49587 10.46208,-4.18483 l 89.55275,-332.27273 c 0,0 3.49586,-10.46207 -4.92483,-13.2562 L 438.73066,81.54034 z M 55.06621,110.94895 c -8.42069,2.78139 -4.88655,13.25622 -4.88655,13.25622 l 89.51447,332.27273 c 3.53414,7.66793 10.51311,4.18483 10.51311,4.18483 l 121.70447,-33.54241 -90.90516,0 c -16.84138,0 -19.58449,-21.03897 -19.58449,-21.03897 l 0,-323.83929 -106.35585,28.70689 z m 128.03275,-60.85861 234.29929,0 c 4.88655,0 5.57552,6.27724 5.57552,6.27724 l 0,348.32309 c 0,5.58827 -5.57552,6.97896 -5.57552,6.97896 l -234.29929,0 c -4.92483,0 -4.92483,-6.97896 -4.92483,-6.97896 l 0,-348.32309 c 0,-4.18483 4.92483,-6.27724 4.92483,-6.27724"/>
  <g id="text4394" style="fill:#ffffff">
    <path d="m 372.10115,128.92779 c -2.93843,2.09988 -7.76351,3.62182 -14.47524,4.56583 -6.71206,0.94441 -10.22484,2.09827 -10.53836,3.46157 -0.31382,1.36371 -0.47066,3.51459 -0.47051,6.45265 -1.5e-4,9.4359 2.41159,26.89739 7.23522,52.38452 4.82332,25.48743 7.97122,39.90825 9.44372,43.26249 1.88825,13.84639 4.92893,31.46632 9.12204,52.85984 4.19276,21.39362 7.91519,33.19305 11.1673,35.39832 3.25174,2.20531 8.33927,3.30795 15.26262,3.30794 6.92294,1e-5 9.96522,3.66803 9.12684,11.00407 -4.19955,0.84499 -7.45147,1.26748 -9.75579,1.26748 -2.09986,0 -6.296,-0.47211 -12.58841,-1.41632 -6.29279,-0.94421 -16.25661,-1.41631 -29.8915,-1.41631 -12.58536,0 -20.81759,0.52332 -24.69673,1.56995 -3.87939,1.04663 -6.03027,1.3619 -6.45264,0.94581 -2.09339,-2.09967 -3.14003,-3.88247 -3.1399,-5.3484 -1.3e-4,-2.09966 4.03757,-4.04089 12.11311,-5.8237 8.07526,-1.78279 12.95155,-4.14331 14.62887,-7.08159 -2.72715,-18.66654 -5.50697,-37.49154 -8.33946,-56.47504 -2.83278,-18.98336 -5.1933,-28.89437 -7.08159,-29.73306 -1.88855,-0.83848 -17.20077,0.78748 -45.93668,4.87789 -28.7361,4.09061 -44.25956,7.6018 -46.57043,10.53356 -2.9319,10.28078 -5.86695,21.50408 -8.80517,33.66994 -2.93829,12.16597 -4.40742,23.28364 -4.40739,33.35307 -3e-5,2.93827 0.20962,6.03336 0.62894,9.28528 0.41926,3.25193 2.72858,4.8779 6.92795,4.87789 4.82024,-0.42249 9.64372,-0.84498 14.47044,-1.26749 2.09962,0.63375 3.14945,1.99886 3.14951,4.09532 -6e-5,2.09647 -6e-5,3.77525 0,5.03633 l -60.09986,4.09052 c -0.62733,-4.82668 -0.941,-7.87056 -0.94101,-9.13165 1e-5,-1.04343 0.57614,-1.46112 1.72839,-1.25308 1.15226,0.20805 2.6726,0.52332 4.56102,0.94581 2.09967,10e-6 4.14492,-0.73456 6.13577,-2.20369 1.99084,-1.46912 5.76608,-12.63961 11.32574,-33.5115 5.55962,-20.87182 9.80857,-36.65613 12.74685,-47.35301 -3e-5,-0.4224 -0.15846,0.20654 -0.47531,1.88683 -0.31689,1.68046 -0.47533,2.62307 -0.4753,2.82783 l 30.8421,-114.84171 c -6.08781,-2.09947 -12.17237,-4.30157 -18.25368,-6.60628 -29.78588,-1.46573 -44.6788,-5.76428 -44.67881,-12.89569 16.77815,1.04365 34.29245,2.03747 52.54297,2.98147 18.25042,0.94442 31.46616,1.41653 39.64728,1.41631 12.37387,2.2e-4 26.63784,-0.94399 42.79198,-2.83263 16.15387,-1.88821 25.80242,-2.83242 28.94568,-2.83264 7.76477,2.2e-4 12.27457,1.88864 13.52943,5.66527 z m -123.96376,95.02288 c 0.62729,0.63386 3.98164,0.95073 10.06305,0.95061 10.28064,1.2e-4 22.18569,-0.47199 35.7152,-1.41632 13.52932,-0.94409 25.85367,-2.04673 36.97308,-3.30794 -1.3e-4,-10.48541 -2.83276,-26.16411 -8.4979,-47.03613 -5.66539,-20.87168 -9.02294,-31.77971 -10.07266,-32.72412 -1.04995,-0.94401 -2.6231,-1.41612 -4.71946,-1.41632 -2.09657,2e-4 -3.98339,2e-4 -5.66046,0 -4.82678,2e-4 -10.07115,0.053 -15.73313,0.15843 -5.66215,0.10583 -11.01214,0.26107 -16.04999,0.46571 -5.03159,18.67316 -10.0119,37.34292 -14.94094,56.00934 -4.92916,18.66671 -7.28809,28.10561 -7.07679,28.31674 z"/>
  </g>
</svg>
