<?xml version="1.0" encoding="UTF-8" standalone="no"?>
<svg xmlns="http://www.w3.org/2000/svg" xmlns:xlink="http://www.w3.org/1999/xlink" version="1.1" width="600" height="510.37814">
  <radialGradient cx="0" cy="0" r="1" fx="0" fy="0" id="radialGradient416" gradientUnits="userSpaceOnUse" gradientTransform="matrix(17.570526,0,0,-17.570526,481.19141,483.6748)" spreadMethod="pad">
    <stop style="stop-color:#ebd491" offset="0"/>
    <stop style="stop-color:#d2bb7b" offset="0.7"/>
    <stop style="stop-color:#8b723c" offset="1"/>
  </radialGradient>
  <radialGradient cx="0" cy="0" r="1" fx="0" fy="0" id="radialGradient2997" xlink:href="#radialGradient416" gradientUnits="userSpaceOnUse" gradientTransform="matrix(21.963157,0,0,21.963157,268.57881,623.8494)" spreadMethod="pad"/>
  <radialGradient cx="0" cy="0" r="1" fx="0" fy="0" id="radialGradient3002" xlink:href="#radialGradient416" gradientUnits="userSpaceOnUse" gradientTransform="matrix(21.963157,0,0,21.963157,268.57881,623.8494)" spreadMethod="pad"/>
  <radialGradient cx="0" cy="0" r="1" fx="0" fy="0" id="radialGradient3003" xlink:href="#radialGradient416" gradientUnits="userSpaceOnUse" gradientTransform="matrix(224.17579,0,0,224.17579,300.07539,255.78739)" spreadMethod="pad"/>
  <path d="m 419.38887,-2.521768e-5 -239.82392,0 L 178.41667,0.15307831 C 162.27701,1.9010103 139.84734,13.562396 132.37079,38.084478 112.03354,43.762067 35.379701,65.094492 35.379701,65.094492 L 34.435563,65.49052 C 21.230383,70.530178 2.72541e-5,87.626739 2.72541e-5,118.77055 c 0,5.62655 0.6501796559,11.66138 2.1944839459,18.14277 l 91.5048768,341.48466 2.487932,3.34276 c 10.36001,13.80484 35.53278,34.98416 64.29072,26.71657 0,0 128.92593,-35.43071 139.59215,-38.37795 10.61518,2.94724 139.758,38.48002 139.758,38.48002 28.55381,8.16552 53.71382,-13.0138 64.08659,-26.81864 l 2.48793,-3.34276 91.35177,-340.83397 C 599.31104,130.87849 600,124.70331 600,118.97469 600,87.52467 578.82068,70.530178 565.66654,65.49052 l -0.94414,-0.396028 c 0,0 -76.6028,-21.332425 -96.94005,-27.010014 C 460.25476,13.562396 437.87612,1.9010103 421.68542,0.15307831 l -1.14827,-0.153103527681 -1.14828,0 z"/>
  <path d="m 180.76426,21.778952 c 0,0 -29.40863,3.138622 -29.40863,33.542432 L 42.256602,85.776227 c 0,0 -27.303463,10.462075 -18.933804,46.147953 l 90.254532,336.81501 c 0,0 18.89553,25.10898 40.91692,18.83173 l 145.57594,-40.02381 145.53766,40.02381 c 22.02139,6.27725 40.91692,-18.83173 40.91692,-18.83173 l 90.2035,-336.81501 c 8.42069,-35.685878 -18.8445,-46.147953 -18.8445,-46.147953 L 448.74647,55.321384 c 0,-30.40381 -29.3576,-33.542432 -29.3576,-33.542432 l -238.62461,0 z" style="fill:#8b723c"/>
  <path d="m 181.65737,34.3462 c -1.33966,0.241904 -5.52449,1.186552 -9.51794,3.840347 -5.57552,3.725519 -8.21656,9.160694 -8.21656,17.134837 l 0,9.56897 c 0,0 -115.784541,32.304845 -117.481439,32.751397 -2.985518,1.441725 -12.107937,6.876899 -12.107937,21.370699 0,2.94725 0.408276,6.23897 1.30138,9.97725 0.153103,0.60016 87.957976,328.48362 89.412466,333.76569 3.82758,4.38897 15.24656,15.79519 26.01484,12.75863 l 149.00801,-41.01899 149.02077,41.01899 c 10.71724,3.03656 22.12346,-8.36966 25.9638,-12.75863 1.45449,-5.28207 89.3104,-333.16604 89.4635,-333.76569 0.84207,-3.73828 1.25035,-7.03 1.25035,-9.97725 0,-14.4938 -9.07139,-19.928974 -12.1207,-21.370699 C 551.96377,97.194689 436.17923,64.890354 436.17923,64.890354 l 0,-9.56897 c 0,-7.974143 -2.64104,-13.409318 -8.16553,-17.134837 -3.99345,-2.653795 -8.22931,-3.597933 -9.56897,-3.840347 l -236.78736,0 z"/>
  <path d="m 438.67992,81.540363 0,323.852237 c 0,0 -2.79414,21.02622 -19.54622,21.02622 l -90.9435,0 121.70455,33.54243 c 0,0 6.96621,3.49587 10.46207,-4.18483 l 89.55281,-332.27293 c 0,0 3.49587,-10.46208 -4.87379,-13.25621 L 438.67992,81.540363 z M 55.066264,110.949 c -8.36966,2.78138 -4.886555,13.30725 -4.886555,13.30725 l 89.514531,332.17086 c 3.53414,7.71897 10.51311,4.23587 10.51311,4.23587 l 121.70455,-33.54243 -90.90522,0 c -16.84139,0 -19.5845,-21.03898 -19.5845,-21.03898 l 0,-323.788448 L 55.066264,110.949 z m 128.032826,-60.858654 234.29944,0 c 4.88655,0 5.62655,6.277245 5.62655,6.277245 l 0,348.374319 c 0,5.53725 -5.62655,6.92794 -5.62655,6.92794 l -234.29944,0 c -4.92483,0 -4.92483,-6.92794 -4.92483,-6.92794 l 0,-348.374319 c 0,-4.18483 4.92483,-6.277245 4.92483,-6.277245" style="fill:#8b723c"/>
  <path d="m 184.40047,55.219213 c -0.59914,0.408276 -1.09724,0.956386 -1.09724,1.199311 l 0,0 0,348.221216 c 0,0.85534 0.25517,1.95207 -0.1531,1.95207 l 0,0 233.4446,0 c 0.59915,-0.3062 1.30138,-0.85533 1.30138,-1.90103 l 0,0 0.051,-347.672601 c -0.10207,-0.702235 -0.49708,-1.645863 -0.54811,-1.798966 l 0,0 -232.99806,0 z M 443.75785,406.08147 c -1.14828,8.82897 -7.82104,25.42794 -24.62415,25.42794 l 0,0 -53.26727,0 86.21005,23.8714 c 0.1531,0.10206 0.8043,0.29395 1.45448,0.29395 l 0,0 c 0.44706,0 1.28862,0 1.93931,-1.23758 l 0,0 89.6166,-332.52811 c 0.14086,-0.54811 1.68414,-5.67759 -1.40345,-6.7238 l 0,0 -99.8235,-26.920702 -0.10207,317.817412 z M 56.712126,115.78442 c -3.381036,1.13552 -1.837242,6.27724 -1.594828,7.11931 l 0,0 89.208322,331.43087 c 0.95639,2.04138 1.85,2.04138 2.29655,2.04138 l 0,0 c 0.6512,0 1.25035,-0.20414 2.24552,-0.6512 l 0,0 85.26591,-23.52691 -53.12692,0 c -16.84139,0 -23.46312,-16.58622 -24.71347,-26.06588 l 0,0 0,-317.166718 -99.581084,26.818638 z" style="fill:url(#radialGradient3003)"/>
  <g id="text5657" style="fill:#ffffff;stroke:#8b723c;stroke-width:12.75862789;stroke-opacity:0.39215686">
    <path d="m 369.73804,130.61255 c -2.84731,2.03476 -7.52276,3.50951 -14.02637,4.42423 -6.50392,0.91514 -9.90777,2.03322 -10.21157,3.35424 -0.30409,1.32142 -0.45606,3.4056 -0.45592,6.25255 -1.4e-4,9.1433 2.33681,26.06332 7.01086,50.76012 4.67375,24.69708 7.72404,38.67071 9.15087,41.92094 1.8297,13.41702 4.77609,30.49057 8.83917,51.22068 4.06275,20.73022 7.66975,32.16376 10.82101,34.30065 3.15091,2.13692 8.08068,3.20537 14.78934,3.20536 6.70826,1e-5 9.6562,3.55429 8.84382,10.66284 -4.06932,0.81878 -7.2204,1.22818 -9.45326,1.22818 -2.03475,0 -6.10077,-0.45747 -12.19806,-1.3724 -6.09765,-0.91493 -15.7525,-1.3724 -28.96458,-1.3724 -12.19509,0 -20.17205,0.50709 -23.93089,1.52127 -3.7591,1.01418 -5.84329,1.31967 -6.25256,0.91648 -2.02847,-2.03456 -3.04265,-3.76207 -3.04253,-5.18254 -1.2e-4,-2.03456 3.91237,-3.91559 11.73749,-5.64312 7.82485,-1.7275 12.54993,-4.01483 14.17524,-6.86199 -2.64259,-18.0877 -5.33621,-36.32895 -8.08086,-54.72379 -2.74493,-18.39469 -5.03226,-27.99837 -6.86199,-28.81105 -1.83,-0.81248 -16.66739,0.76306 -44.51222,4.72663 -27.84501,3.96377 -42.88709,7.36607 -45.12631,10.20692 -2.84098,9.96198 -5.68502,20.83725 -8.53213,32.62585 -2.84717,11.78871 -4.27074,22.56164 -4.27071,32.31881 -3e-5,2.84717 0.20312,5.84628 0.60944,8.99735 0.40626,3.1511 2.64396,4.72664 6.71312,4.72663 4.67076,-0.40938 9.34466,-0.81877 14.02172,-1.22818 2.03451,0.6141 3.05178,1.93688 3.05184,3.96833 -6e-5,2.03146 -6e-5,3.65818 0,4.88015 l -58.2362,3.96367 c -0.60788,-4.677 -0.91182,-7.62649 -0.91183,-8.84847 1e-5,-1.01108 0.55827,-1.41582 1.67479,-1.21423 1.11653,0.2016 2.58973,0.5071 4.41959,0.91649 2.03456,0 4.01639,-0.71179 5.9455,-2.13536 1.92911,-1.42357 5.58728,-12.24767 10.97454,-32.47233 5.38722,-20.22459 9.50441,-35.51945 12.35158,-45.88462 -3e-5,-0.40931 -0.15355,0.20013 -0.46057,1.82831 -0.30707,1.62835 -0.46059,2.54173 -0.46057,2.74015 l 29.88571,-111.28054 c -5.89903,-2.03437 -11.79491,-4.16818 -17.68765,-6.40143 -28.86224,-1.42027 -43.29333,-5.58553 -43.29334,-12.4958 16.25787,1.01129 33.22906,1.97429 50.91364,2.88902 17.68449,0.91514 30.49042,1.3726 38.41784,1.3724 11.99016,2e-4 25.81183,-0.91473 41.46503,-2.7448 15.65295,-1.82965 25.0023,-2.74458 28.04809,-2.7448 7.52399,2.2e-4 11.89395,1.83008 13.10989,5.4896 z m -120.11971,92.07627 c 0.60783,0.6142 3.85817,0.92125 9.751,0.92113 9.96184,1.2e-4 21.49772,-0.45735 34.60769,-1.37239 13.10978,-0.91482 25.05196,-1.98327 35.82656,-3.20537 -1.2e-4,-10.16027 -2.74492,-25.35277 -8.23438,-45.57757 -5.48971,-20.22446 -8.74314,-30.79424 -9.76031,-31.70937 -1.01739,-0.91473 -2.54176,-1.3722 -4.57311,-1.3724 -2.03156,2e-4 -3.85987,2e-4 -5.48494,0 -4.6771,2e-4 -9.75885,0.0514 -15.24525,0.15353 -5.48657,0.10254 -10.67066,0.25296 -15.55229,0.45126 -4.87557,18.09412 -9.70144,36.18494 -14.47764,54.27252 -4.7763,18.08787 -7.06208,27.23408 -6.85733,27.43866 z"/>
  </g>
  <g id="text5661" style="stroke:#8b723c;stroke-width:12.75862789;stroke-opacity:0">
    <path d="m 369.73804,130.61255 c -2.84731,2.03476 -7.52276,3.50951 -14.02637,4.42423 -6.50392,0.91514 -9.90777,2.03322 -10.21157,3.35424 -0.30409,1.32142 -0.45606,3.4056 -0.45592,6.25255 -1.4e-4,9.1433 2.33681,26.06332 7.01086,50.76012 4.67375,24.69708 7.72404,38.67071 9.15087,41.92094 1.8297,13.41702 4.77609,30.49057 8.83917,51.22068 4.06275,20.73022 7.66975,32.16376 10.82101,34.30065 3.15091,2.13692 8.08068,3.20537 14.78934,3.20536 6.70826,1e-5 9.6562,3.55429 8.84382,10.66284 -4.06932,0.81878 -7.2204,1.22818 -9.45326,1.22818 -2.03475,0 -6.10077,-0.45747 -12.19806,-1.3724 -6.09765,-0.91493 -15.7525,-1.3724 -28.96458,-1.3724 -12.19509,0 -20.17205,0.50709 -23.93089,1.52127 -3.7591,1.01418 -5.84329,1.31967 -6.25256,0.91648 -2.02847,-2.03456 -3.04265,-3.76207 -3.04253,-5.18254 -1.2e-4,-2.03456 3.91237,-3.91559 11.73749,-5.64312 7.82485,-1.7275 12.54993,-4.01483 14.17524,-6.86199 -2.64259,-18.0877 -5.33621,-36.32895 -8.08086,-54.72379 -2.74493,-18.39469 -5.03226,-27.99837 -6.86199,-28.81105 -1.83,-0.81248 -16.66739,0.76306 -44.51222,4.72663 -27.84501,3.96377 -42.88709,7.36607 -45.12631,10.20692 -2.84098,9.96198 -5.68502,20.83725 -8.53213,32.62585 -2.84717,11.78871 -4.27074,22.56164 -4.27071,32.31881 -3e-5,2.84717 0.20312,5.84628 0.60944,8.99735 0.40626,3.1511 2.64396,4.72664 6.71312,4.72663 4.67076,-0.40938 9.34466,-0.81877 14.02172,-1.22818 2.03451,0.6141 3.05178,1.93688 3.05184,3.96833 -6e-5,2.03146 -6e-5,3.65818 0,4.88015 l -58.2362,3.96367 c -0.60788,-4.677 -0.91182,-7.62649 -0.91183,-8.84847 1e-5,-1.01108 0.55827,-1.41582 1.67479,-1.21423 1.11653,0.2016 2.58973,0.5071 4.41959,0.91649 2.03456,0 4.01639,-0.71179 5.9455,-2.13536 1.92911,-1.42357 5.58728,-12.24767 10.97454,-32.47233 5.38722,-20.22459 9.50441,-35.51945 12.35158,-45.88462 -3e-5,-0.40931 -0.15355,0.20013 -0.46057,1.82831 -0.30707,1.62835 -0.46059,2.54173 -0.46057,2.74015 l 29.88571,-111.28054 c -5.89903,-2.03437 -11.79491,-4.16818 -17.68765,-6.40143 -28.86224,-1.42027 -43.29333,-5.58553 -43.29334,-12.4958 16.25787,1.01129 33.22906,1.97429 50.91364,2.88902 17.68449,0.91514 30.49042,1.3726 38.41784,1.3724 11.99016,2e-4 25.81183,-0.91473 41.46503,-2.7448 15.65295,-1.82965 25.0023,-2.74458 28.04809,-2.7448 7.52399,2.2e-4 11.89395,1.83008 13.10989,5.4896 z m -120.11971,92.07627 c 0.60783,0.6142 3.85817,0.92125 9.751,0.92113 9.96184,1.2e-4 21.49772,-0.45735 34.60769,-1.37239 13.10978,-0.91482 25.05196,-1.98327 35.82656,-3.20537 -1.2e-4,-10.16027 -2.74492,-25.35277 -8.23438,-45.57757 -5.48971,-20.22446 -8.74314,-30.79424 -9.76031,-31.70937 -1.01739,-0.91473 -2.54176,-1.3722 -4.57311,-1.3724 -2.03156,2e-4 -3.85987,2e-4 -5.48494,0 -4.6771,2e-4 -9.75885,0.0514 -15.24525,0.15353 -5.48657,0.10254 -10.67066,0.25296 -15.55229,0.45126 -4.87557,18.09412 -9.70144,36.18494 -14.47764,54.27252 -4.7763,18.08787 -7.06208,27.23408 -6.85733,27.43866 z"/>
  </g>
</svg>
