<?xml version="1.0" encoding="UTF-8" standalone="no"?>
<svg xmlns="http://www.w3.org/2000/svg" xmlns:xlink="http://www.w3.org/1999/xlink" version="1.1" width="600" height="510.33374">
  <radialGradient cx="0" cy="0" r="1" fx="0" fy="0" id="radialGradient392" gradientUnits="userSpaceOnUse" gradientTransform="matrix(17.570526,0,0,-17.570526,397.94434,483.6748)" spreadMethod="pad">
    <stop style="stop-color:#bf99c3" offset="0"/>
    <stop style="stop-color:#7b5190" offset="0.7"/>
    <stop style="stop-color:#612c75" offset="1"/>
  </radialGradient>
  <radialGradient cx="0" cy="0" r="1" fx="0" fy="0" id="radialGradient2997" xlink:href="#radialGradient392" gradientUnits="userSpaceOnUse" gradientTransform="matrix(21.963157,0,0,21.963157,391.43713,615.278)" spreadMethod="pad"/>
  <radialGradient cx="0" cy="0" r="1" fx="0" fy="0" id="radialGradient3002" xlink:href="#radialGradient392" gradientUnits="userSpaceOnUse" gradientTransform="matrix(224.15673,0,0,224.15673,391.51589,615.8184)" spreadMethod="pad"/>
  <g transform="translate(-91.428575,-360.05243)">
    <path d="m 510.78177,360.05243 -239.75251,0 -1.14817,0.15309 c -16.18933,1.74778 -38.61709,13.40817 -46.09301,37.92817 -20.33552,5.67711 -96.93181,27.00772 -96.93181,27.00772 l -0.99509,0.39497 c -13.15302,5.03923 -34.432605,22.13434 -34.432605,53.2755 0,5.62608 0.702175,11.6604 2.245328,18.14123 l 91.446067,341.45563 2.53875,3.34248 c 10.3081,13.80366 35.52976,34.98118 64.28526,26.71429 0,0 128.91497,-35.42769 139.52925,-38.37468 10.6653,2.94699 139.78439,38.47674 139.78439,38.47674 28.56414,8.16483 53.72202,-13.01269 64.0939,-26.81635 l 2.48772,-3.34248 91.29298,-340.805 c 1.59469,-6.68495 2.29636,-12.8596 2.29636,-18.58774 0,-31.44734 -21.17753,-48.44039 -34.33055,-53.47962 l -0.94406,-0.39497 -96.98284,-27.00772 c -7.47592,-24.52 -29.90368,-36.18039 -46.04197,-37.92817 l -1.14818,-0.15309 -1.19921,0 z" style="fill:#ffffff"/>
    <path d="m 272.17744,381.82955 c 0,0 -29.3551,3.13836 -29.3551,33.53958 l -109.14078,30.45226 c 0,0 -27.25011,10.46118 -18.88117,46.14403 l 90.24686,336.78637 c 0,0 18.89392,25.10685 40.91344,18.83014 l 145.51254,-40.02041 145.57632,40.02041 c 22.01952,6.27671 40.91344,-18.83014 40.91344,-18.83014 L 668.15882,491.96542 C 676.5788,456.28257 649.2649,445.82139 649.2649,445.82139 l -109.077,-30.45226 c 0,-30.40122 -29.3551,-33.53958 -29.3551,-33.53958 l -238.65536,0 z" style="fill:#612c75"/>
    <path d="m 273.1215,394.39573 c -1.33954,0.2429 -5.57505,1.18645 -9.51713,3.84002 -5.62607,3.7252 -8.22861,9.15992 -8.22861,17.13338 l 0,9.56816 c 0,0 -115.76195,32.3021 -117.4587,32.74861 -3.03629,1.4416 -12.10691,6.87632 -12.10691,21.36889 0,2.94699 0.396,6.23843 1.25024,9.97639 0.15309,0.60012 88.00153,328.4557 89.40486,333.73733 3.8783,4.38859 15.2963,15.79383 26.01263,12.75754 l 149.04638,-41.0155 148.95707,41.0155 c 10.76736,3.03629 22.17261,-8.36895 26.01263,-12.75754 1.4416,-5.28163 89.3028,-333.13772 89.40486,-333.73733 0.89303,-3.73796 1.30127,-7.0294 1.30127,-9.97639 0,-14.49257 -9.12165,-19.92729 -12.11967,-21.36889 -1.68399,-0.44702 -117.4587,-32.74861 -117.4587,-32.74861 l 0,-9.56816 c 0,-7.97346 -2.64081,-13.40818 -8.21585,-17.13338 -3.94208,-2.65357 -8.17759,-3.59763 -9.56816,-3.84002 l -236.71621,0 z" style="fill:#ffffff"/>
    <path d="m 530.1222,441.58588 0,323.82471 c 0,0 -2.7939,21.02443 -19.54455,21.02443 l -90.94853,0 121.70696,33.53958 c 0,0 6.96562,3.49557 10.46119,-4.18447 l 89.54519,-332.24469 c 0,0 3.49557,-10.46118 -4.87338,-13.25509 L 530.1222,441.58588 z m -383.58104,29.40614 c -8.36895,2.78114 -4.88614,13.30612 -4.88614,13.30612 l 89.50692,332.14262 c 3.48281,7.71832 10.51222,4.23551 10.51222,4.23551 l 121.64317,-33.53958 -90.89749,0 c -16.78893,0 -19.58283,-21.03719 -19.58283,-21.03719 l 0,-323.76092 -106.29585,28.65344 z m 127.97091,-60.85348 234.33055,0 c 4.87338,0 5.57505,6.27671 5.57505,6.27671 l 0,348.34471 c 0,5.53677 -5.57505,6.92734 -5.57505,6.92734 l -234.33055,0 c -4.87338,0 -4.87338,-6.92734 -4.87338,-6.92734 l 0,-348.34471 c 0,-4.18447 4.87338,-6.27671 4.87338,-6.27671" style="fill:#612c75"/>
    <path d="m 275.81334,415.26728 c -0.60011,0.40824 -1.04612,0.9563 -1.04612,1.1992 l 0,0 0,348.19162 c 0,0.85527 0.24291,1.95191 -0.20412,1.95191 l 0,0 233.42477,0 c 0.60011,-0.30618 1.3523,-0.85425 1.3523,-1.90088 l 0,0 0.051,-347.64304 c -0.10206,-0.70218 -0.49704,-1.64572 -0.54807,-1.79881 l 0,0 -233.02928,0 z M 535.1997,766.0997 c -1.1992,8.82822 -7.82037,25.42579 -24.67308,25.42579 l 0,0 -53.26274,0 86.25374,23.86936 c 0.15309,0.10206 0.80424,0.29291 1.45436,0.29291 l 0,0 c 0.44601,0 1.28851,0 1.88812,-1.23748 l 0,0 89.60898,-332.49984 c 0.19187,-0.54908 1.73503,-5.67711 -1.3523,-6.72322 l 0,0 -99.86605,-26.91842 -0.051,317.79039 z M 148.13585,475.82733 c -3.34247,1.13542 -1.78605,6.27671 -1.54366,7.11871 l 0,0 89.20074,331.40269 c 0.9063,2.04121 1.79881,2.04121 2.24533,2.04121 l 0,0 c 0.65012,0 1.25024,-0.20412 2.24533,-0.65115 l 0,0 85.25865,-23.52491 -53.1224,0 c -16.78893,0 -23.46113,-16.5848 -24.66033,-26.06366 l 0,0 0,-317.13975 -99.62366,26.81635 z" style="fill:url(#radialGradient3002)"/>
    <g transform="matrix(10.206034,0,0,10.206034,-3603.5049,-5663.73)" id="text5649" style="fill:#ffffff;stroke:#612c75;stroke-width:1.25;stroke-opacity:0.4627451">
      <path d="m 398.26269,603.01424 c -0.27896,0.19936 -0.73703,0.34384 -1.37421,0.43346 -0.6372,0.0897 -0.97069,0.1992 -1.00045,0.32862 -0.0298,0.12947 -0.0447,0.33366 -0.0447,0.61258 -10e-6,0.8958 0.22894,2.5535 0.68687,4.97312 0.4579,2.41965 0.75675,3.78868 0.89654,4.10712 0.17926,1.3145 0.46793,2.98725 0.866,5.01824 0.39804,2.031 0.75143,3.15118 1.06017,3.36053 0.3087,0.20936 0.79168,0.31404 1.44895,0.31404 0.65723,0 0.94605,0.34823 0.86646,1.04467 -0.39869,0.0802 -0.70741,0.12033 -0.92617,0.12033 -0.19935,0 -0.59771,-0.0448 -1.19508,-0.13446 -0.5974,-0.0896 -1.54332,-0.13446 -2.83774,-0.13446 -1.19479,0 -1.97632,0.0497 -2.34458,0.14905 -0.36829,0.0994 -0.57248,0.12929 -0.61258,0.0898 -0.19874,-0.19933 -0.2981,-0.36858 -0.29809,-0.50775 -10e-6,-0.19933 0.38331,-0.38362 1.14996,-0.55287 0.76662,-0.16925 1.22955,-0.39335 1.38879,-0.67229 -0.2589,-1.77211 -0.52281,-3.55926 -0.79171,-5.36145 -0.26893,-1.80219 -0.49302,-2.74309 -0.67229,-2.82271 -0.17929,-0.0796 -1.63295,0.0748 -4.36099,0.46309 -2.72806,0.38834 -4.20177,0.72167 -4.42115,1 -0.27834,0.976 -0.55698,2.04148 -0.83592,3.19645 -0.27895,1.15497 -0.41842,2.21043 -0.41842,3.16637 0,0.27894 0.0199,0.57277 0.0597,0.88149 0.0398,0.30872 0.25904,0.46308 0.65771,0.46308 0.4576,-0.0401 0.91552,-0.0802 1.37374,-0.12032 0.19933,0.0602 0.299,0.18976 0.299,0.38878 0,0.19903 0,0.35841 0,0.47813 l -5.70557,0.38833 c -0.0596,-0.45822 -0.0893,-0.74719 -0.0893,-0.86691 0,-0.0991 0.0547,-0.13871 0.16408,-0.11896 0.10939,0.0197 0.25372,0.0497 0.433,0.0898 0.19933,0 0.3935,-0.0697 0.5825,-0.20921 0.189,-0.13947 0.5474,-1.19994 1.07521,-3.18141 0.5278,-1.98146 0.93117,-3.47994 1.21012,-4.49545 -1e-5,-0.0401 -0.015,0.0196 -0.0451,0.17913 -0.0301,0.15953 -0.0451,0.24902 -0.0451,0.26846 l 2.92799,-10.90248 c -0.57794,-0.19932 -1.15558,-0.40837 -1.73291,-0.62717 -2.82772,-0.13915 -4.24157,-0.54723 -4.24157,-1.22425 1.59283,0.0991 3.25554,0.19343 4.98815,0.28305 1.7326,0.0897 2.98724,0.13447 3.76391,0.13445 1.17471,2e-5 2.52886,-0.0896 4.06245,-0.26891 1.53357,-0.17926 2.44955,-0.2689 2.74795,-0.26892 0.73715,2e-5 1.16529,0.1793 1.28442,0.53783 z m -11.76848,9.02099 c 0.0596,0.0602 0.378,0.0903 0.95533,0.0902 0.97599,10e-6 2.1062,-0.0448 3.39062,-0.13446 1.2844,-0.0896 2.45441,-0.1943 3.51003,-0.31403 -10e-6,-0.99544 -0.26892,-2.48389 -0.80674,-4.46537 -0.53785,-1.98145 -0.85659,-3.017 -0.95625,-3.10666 -0.0997,-0.0896 -0.24902,-0.13444 -0.44804,-0.13446 -0.19904,2e-5 -0.37816,2e-5 -0.53738,0 -0.45823,2e-5 -0.9561,0.005 -1.49362,0.015 -0.53753,0.01 -1.04543,0.0248 -1.5237,0.0442 -0.47767,1.77274 -0.95048,3.54515 -1.41842,5.31724 -0.46795,1.77212 -0.69189,2.6682 -0.67183,2.68825 z"/>
    </g>
    <g transform="matrix(10.206034,0,0,10.206034,-3603.5049,-5663.73)" id="text5653" style="fill:#ffffff;stroke:#612c75;stroke-width:1.25;stroke-opacity:0">
      <path d="m 398.26269,603.01424 c -0.27896,0.19936 -0.73703,0.34384 -1.37421,0.43346 -0.6372,0.0897 -0.97069,0.1992 -1.00045,0.32862 -0.0298,0.12947 -0.0447,0.33366 -0.0447,0.61258 -10e-6,0.8958 0.22894,2.5535 0.68687,4.97312 0.4579,2.41965 0.75675,3.78868 0.89654,4.10712 0.17926,1.3145 0.46793,2.98725 0.866,5.01824 0.39804,2.031 0.75143,3.15118 1.06017,3.36053 0.3087,0.20936 0.79168,0.31404 1.44895,0.31404 0.65723,0 0.94605,0.34823 0.86646,1.04467 -0.39869,0.0802 -0.70741,0.12033 -0.92617,0.12033 -0.19935,0 -0.59771,-0.0448 -1.19508,-0.13446 -0.5974,-0.0896 -1.54332,-0.13446 -2.83774,-0.13446 -1.19479,0 -1.97632,0.0497 -2.34458,0.14905 -0.36829,0.0994 -0.57248,0.12929 -0.61258,0.0898 -0.19874,-0.19933 -0.2981,-0.36858 -0.29809,-0.50775 -10e-6,-0.19933 0.38331,-0.38362 1.14996,-0.55287 0.76662,-0.16925 1.22955,-0.39335 1.38879,-0.67229 -0.2589,-1.77211 -0.52281,-3.55926 -0.79171,-5.36145 -0.26893,-1.80219 -0.49302,-2.74309 -0.67229,-2.82271 -0.17929,-0.0796 -1.63295,0.0748 -4.36099,0.46309 -2.72806,0.38834 -4.20177,0.72167 -4.42115,1 -0.27834,0.976 -0.55698,2.04148 -0.83592,3.19645 -0.27895,1.15497 -0.41842,2.21043 -0.41842,3.16637 0,0.27894 0.0199,0.57277 0.0597,0.88149 0.0398,0.30872 0.25904,0.46308 0.65771,0.46308 0.4576,-0.0401 0.91552,-0.0802 1.37374,-0.12032 0.19933,0.0602 0.299,0.18976 0.299,0.38878 0,0.19903 0,0.35841 0,0.47813 l -5.70557,0.38833 c -0.0596,-0.45822 -0.0893,-0.74719 -0.0893,-0.86691 0,-0.0991 0.0547,-0.13871 0.16408,-0.11896 0.10939,0.0197 0.25372,0.0497 0.433,0.0898 0.19933,0 0.3935,-0.0697 0.5825,-0.20921 0.189,-0.13947 0.5474,-1.19994 1.07521,-3.18141 0.5278,-1.98146 0.93117,-3.47994 1.21012,-4.49545 -1e-5,-0.0401 -0.015,0.0196 -0.0451,0.17913 -0.0301,0.15953 -0.0451,0.24902 -0.0451,0.26846 l 2.92799,-10.90248 c -0.57794,-0.19932 -1.15558,-0.40837 -1.73291,-0.62717 -2.82772,-0.13915 -4.24157,-0.54723 -4.24157,-1.22425 1.59283,0.0991 3.25554,0.19343 4.98815,0.28305 1.7326,0.0897 2.98724,0.13447 3.76391,0.13445 1.17471,2e-5 2.52886,-0.0896 4.06245,-0.26891 1.53357,-0.17926 2.44955,-0.2689 2.74795,-0.26892 0.73715,2e-5 1.16529,0.1793 1.28442,0.53783 z m -11.76848,9.02099 c 0.0596,0.0602 0.378,0.0903 0.95533,0.0902 0.97599,10e-6 2.1062,-0.0448 3.39062,-0.13446 1.2844,-0.0896 2.45441,-0.1943 3.51003,-0.31403 -10e-6,-0.99544 -0.26892,-2.48389 -0.80674,-4.46537 -0.53785,-1.98145 -0.85659,-3.017 -0.95625,-3.10666 -0.0997,-0.0896 -0.24902,-0.13444 -0.44804,-0.13446 -0.19904,2e-5 -0.37816,2e-5 -0.53738,0 -0.45823,2e-5 -0.9561,0.005 -1.49362,0.015 -0.53753,0.01 -1.04543,0.0248 -1.5237,0.0442 -0.47767,1.77274 -0.95048,3.54515 -1.41842,5.31724 -0.46795,1.77212 -0.69189,2.6682 -0.67183,2.68825 z"/>
    </g>
  </g>
</svg>
