<?xml version="1.0" encoding="UTF-8" standalone="no"?>
<svg xmlns="http://www.w3.org/2000/svg" version="1.1" width="599.99963" height="510.36099">
  <path d="M 180.71289 21.728516 C 180.71289 21.728516 151.35547 24.918476 151.35547 55.322266 L 42.21875 85.724609 C 42.21875 85.724609 14.952616 96.237968 23.322266 131.92383 L 113.57812 468.6875 C 113.57812 468.6875 132.47276 493.89858 154.49414 487.57031 L 300.07031 447.54688 L 445.60742 487.57031 C 467.62879 493.89858 486.52539 468.6875 486.52539 468.6875 L 576.72852 131.92383 C 585.14922 96.237968 557.88281 85.724609 557.88281 85.724609 L 448.74609 55.322266 C 448.74609 24.918476 419.33789 21.728516 419.33789 21.728516 L 180.71289 21.728516 z M 181.6582 34.345703 L 418.39258 34.345703 C 419.78327 34.588123 424.02047 35.5337 427.96289 38.1875 C 433.5384 41.91301 436.12695 47.348126 436.12695 55.322266 L 436.12695 64.890625 C 436.12695 64.890625 551.96431 97.195518 553.64844 97.642578 C 556.64671 99.033268 565.76758 104.51792 565.76758 119.01172 C 565.76758 121.95896 565.35968 125.25197 564.51758 128.99023 C 564.36447 129.53886 476.50917 457.47379 475.05469 462.75586 C 471.17606 467.14483 459.80735 478.55023 449.03906 475.51367 L 300.07031 434.49414 L 151.0625 475.51367 C 140.29421 478.55023 128.87446 467.14483 125.04688 462.75586 C 123.5924 457.47379 35.737084 129.53933 35.583984 128.99023 C 34.741914 125.25197 34.333984 121.95896 34.333984 119.01172 C 34.333984 104.51792 43.405768 99.033268 46.455078 97.642578 C 48.139218 97.196028 163.92188 64.890625 163.92188 64.890625 L 163.92188 55.322266 C 163.92187 47.348126 166.51212 41.91301 172.13867 38.1875 C 176.08109 35.5337 180.31854 34.588623 181.6582 34.345703 z M 183.09961 50.089844 C 183.09961 50.089844 178.17383 52.182358 178.17383 56.367188 L 178.17383 404.69141 C 178.17383 404.69141 178.17478 411.66992 183.09961 411.66992 L 417.39844 411.66992 C 417.39844 411.66992 422.97461 410.27968 422.97461 404.69141 L 422.97461 56.367188 C 422.97461 56.367188 422.28499 50.089844 417.39844 50.089844 L 183.09961 50.089844 z M 438.73047 81.541016 L 438.73047 405.39258 C 438.73047 405.39258 435.88488 426.36719 419.13281 426.36719 L 328.18945 426.36719 L 449.89453 459.96094 C 449.89453 459.96094 456.91259 463.45609 460.35742 455.77539 L 549.91016 123.50391 C 549.91016 123.50391 553.40506 113.04218 544.98438 110.24805 L 438.73047 81.541016 z M 161.42188 82.242188 L 55.066406 110.94922 C 46.645716 113.73061 50.179688 124.20508 50.179688 124.20508 L 139.69336 456.47852 C 143.2275 464.14645 150.20703 460.66211 150.20703 460.66211 L 271.91211 427.12109 L 181.00586 427.12109 C 164.16448 427.12109 161.42187 406.08203 161.42188 406.08203 L 161.42188 82.242188 z M 358.57227 123.26172 C 366.33704 123.26194 370.8467 125.1511 372.10156 128.92773 C 369.16313 131.02761 364.33673 132.55013 357.625 133.49414 C 350.91294 134.43855 347.40141 135.59178 347.08789 136.95508 C 346.77407 138.31879 346.61704 140.47014 346.61719 143.4082 C 346.61704 152.8441 349.02793 170.30584 353.85156 195.79297 C 358.67488 221.2804 361.82437 235.70045 363.29688 239.05469 C 365.18513 252.90108 368.22486 270.52054 372.41797 291.91406 C 376.61073 313.30768 380.33383 325.10723 383.58594 327.3125 C 386.83768 329.51781 391.92431 330.6211 398.84766 330.62109 C 405.7706 330.6211 408.81299 334.28896 407.97461 341.625 C 403.77506 342.46999 400.52307 342.89258 398.21875 342.89258 C 396.11889 342.89258 391.92327 342.42077 385.63086 341.47656 C 379.33807 340.53235 369.37317 340.06055 355.73828 340.06055 C 343.15292 340.06055 334.92211 340.58228 331.04297 341.62891 C 327.16358 342.67554 325.01221 342.99226 324.58984 342.57617 C 322.49645 340.4765 321.44909 338.69249 321.44922 337.22656 C 321.44909 335.1269 325.48696 333.18711 333.5625 331.4043 C 341.63776 329.62151 346.51409 327.26055 348.19141 324.32227 C 345.46426 305.65573 342.68405 286.83116 339.85156 267.84766 C 337.01878 248.8643 334.65977 238.95197 332.77148 238.11328 C 330.88293 237.2748 315.56989 238.90178 286.83398 242.99219 C 258.09788 247.0828 242.57454 250.59363 240.26367 253.52539 C 237.33177 263.80617 234.3972 275.02945 231.45898 287.19531 C 228.52069 299.36128 227.05075 310.4794 227.05078 320.54883 C 227.05075 323.4871 227.26037 326.58206 227.67969 329.83398 C 228.09895 333.08591 230.40805 334.71095 234.60742 334.71094 C 239.42766 334.28845 244.2514 333.86587 249.07812 333.44336 C 251.17774 334.07711 252.22846 335.4426 252.22852 337.53906 C 252.22846 339.63553 252.22846 341.31509 252.22852 342.57617 L 192.12891 346.66602 C 191.50158 341.83934 191.18751 338.79625 191.1875 337.53516 C 191.18751 336.49173 191.76377 336.07321 192.91602 336.28125 C 194.06828 336.4893 195.58814 336.80407 197.47656 337.22656 C 199.57623 337.22657 201.62048 336.49257 203.61133 335.02344 C 205.60217 333.55432 209.37784 322.38361 214.9375 301.51172 C 220.30961 281.34386 224.39766 266.16575 227.32227 255.49805 C 227.54689 254.36308 227.68552 253.80256 227.68555 254.1582 C 227.58645 254.51898 227.42435 255.12569 227.32227 255.49805 C 227.28011 255.71107 227.25906 255.77938 227.20898 256.04492 C 226.89209 257.72538 226.73434 258.66829 226.73438 258.87305 L 257.57617 144.03125 C 251.48836 141.93178 245.40358 139.73049 239.32227 137.42578 C 209.53639 135.96005 194.64454 131.66071 194.64453 124.5293 C 211.42268 125.57295 228.93698 126.56772 247.1875 127.51172 C 265.43792 128.45614 278.65286 128.92795 286.83398 128.92773 C 299.20785 128.92795 313.47281 127.98434 329.62695 126.0957 C 345.78082 124.20749 355.42901 123.26194 358.57227 123.26172 z M 301.9375 139 C 297.11072 139.0002 291.86706 139.05277 286.20508 139.1582 C 280.54293 139.26403 275.19215 139.42036 270.1543 139.625 C 265.12271 158.29816 260.14388 176.96835 255.21484 195.63477 C 250.28568 214.30148 247.92542 223.74004 248.13672 223.95117 C 248.76401 224.58503 252.11976 224.90051 258.20117 224.90039 C 268.48181 224.90051 280.38651 224.4287 293.91602 223.48438 C 307.44534 222.54029 319.76926 221.43894 330.88867 220.17773 C 330.88854 209.69232 328.05577 194.01264 322.39062 173.14062 C 316.72523 152.26895 313.36808 141.36043 312.31836 140.41602 C 311.26841 139.47201 309.69597 139.0002 307.59961 139 C 305.50304 139.0002 303.61457 139.0002 301.9375 139 z "/></svg>
