<?xml version="1.0" encoding="UTF-8" standalone="no"?>
<svg xmlns="http://www.w3.org/2000/svg" version="1.1" width="600" height="875.04767">
  <radialGradient cx="0" cy="0" r="1" fx="0" fy="0" id="radialGradient464" gradientUnits="userSpaceOnUse" gradientTransform="matrix(14.893921,0,0,-14.893921,135.125,372.09326)" spreadMethod="pad">
    <stop style="stop-color:#bf99c3" offset="0"/>
    <stop style="stop-color:#7b5190" offset="0.66291797"/>
    <stop style="stop-color:#612c75" offset="1"/>
  </radialGradient>
  <path d="m 452.35692,875.04501 c -17.08528,0 -34.6956,-5.46904 -49.74641,-10.67557 l -4.17834,-1.37732 c -23.07936,-7.17538 -45.28367,-11.35373 -65.89102,-12.55692 -8.44421,-0.41477 -16.73527,-0.58978 -25.02634,-0.58978 -12.14128,0 -24.19504,0.35002 -36.24881,0.67728 l -2.297,0.0875 c -12.38191,0.43753 -24.7857,0.76654 -37.34262,0.76654 -4.44086,0 -8.96923,-0.0875 -13.4976,-0.175 l -3.7627,0 c -10.08491,0 -40.60217,0.35001 -108.17766,4.02521 -3.34705,0.17501 -6.409718,0.26251 -9.406753,0.26251 -45.896203,0 -67.159839,-20.43234 -76.829106,-37.60513 C 5.1642712,792.07046 6.1049465,766.86911 12.602168,746.69928 9.014477,741.49275 5.776804,735.41118 3.45793,728.49831 -1.0704369,714.8257 -3.3674347,693.12454 10.983332,667.13565 33.800176,625.9647 65.936268,602.29469 94.222155,581.42482 c 9.384885,-6.82536 18.441615,-13.49759 27.082705,-20.67298 -0.35002,-2.472 -0.94155,-5.11902 -1.88135,-7.76604 -0.8523,-2.05636 -3.5877,-3.8502 -14.78829,-9.58176 l -6.409726,-3.32518 C 85.077916,533.14412 63.201747,521.52787 52.351167,498.03287 31.065655,451.96166 66.789439,411.64388 92.843956,386.59566 79.34636,358.65979 62.523586,313.20112 62.523586,261.33272 62.523586,117.25627 179.75798,0 323.74693,0 c 144.07644,0 261.31083,117.25627 261.31083,261.33272 0,58.36562 -33.3174,103.38677 -55.95924,127.14429 15.96961,13.41009 27.43272,30.67039 32.90176,50.92772 8.11606,29.31407 -1.46658,73.41643 -21.28551,98.18025 -2.14386,2.58139 -4.26585,5.0534 -6.58473,7.4379 29.99223,11.96626 51.45275,34.52059 60.83763,63.92216 10.69745,33.57992 4.11272,72.21324 -17.58844,103.23365 -2.40638,3.41268 -6.16908,8.79422 -11.37561,14.52577 1.29157,4.87839 2.23137,9.8224 2.55951,14.78829 1.29157,24.93884 -8.88172,51.43088 -27.43271,71.01005 -9.55989,10.08491 -20.67298,17.52281 -32.55174,21.87617 l -0.32902,0.94155 -3.25955,6.23471 -2.55951,5.11902 c -4.17835,8.46608 -17.69782,28.37339 -50.07455,28.37339" style="fill:#ffffff"/>
  <path d="m 129.94594,458.28212 c -11.20059,24.69819 19.81981,21.87617 35.19876,30.77977 10.08491,5.79718 19.31666,12.81943 24.96071,22.64183 6.56285,11.52874 16.99778,32.81426 18.44161,43.66484 0,0 35.46127,-11.52874 51.78089,-53.83726 0,0 56.65928,4.11272 77.85729,-1.35632 21.1105,-5.46904 34.01744,-14.37264 34.01744,-14.37264 -25.22322,1.37732 -51.78089,-3.41268 -51.78089,-3.41268 0,0 15.70709,-38.19579 43.31481,-62.63148 42.81167,-37.78014 143.98895,-29.99222 160.39607,29.99223 4.87839,18.02597 -2.472,48.69635 -14.08825,63.22213 -10.78495,13.43197 -26.2514,23.16686 -40.42716,32.66112 -30.67039,20.41047 -63.41901,31.52356 -98.88028,40.49279 -42.81167,10.93808 -98.77091,8.20356 -98.77091,8.20356 0,0 -57.33744,27.25771 -109.90587,44.69302 -31.69857,10.43493 -55.45609,35.37376 -66.219169,68.03488 1.968856,0 68.275529,-59.56881 168.337129,-52.21841 23.25436,1.70634 47.51504,5.73155 70.50689,0.67903 55.98112,-12.14127 61.6908,-46.31185 83.32633,-57.16243 29.99223,-14.9633 65.10348,-29.99222 98.85841,-17.87283 49.81203,17.87283 53.92475,72.47575 28.28588,109.22772 -5.90656,8.4442 -15.29144,20.58547 -27.60772,23.31999 0,0 11.11309,18.79163 11.79125,30.67039 1.46483,28.13275 -26.73268,65.03785 -57.57807,54.18727 -17.96034,-6.40972 -25.22323,-30.34225 -21.023,-47.34003 2.472,-9.9099 7.85354,-15.90397 17.76345,-18.46349 23.07935,-5.81906 35.46127,10.93809 35.46127,10.93809 -2.73453,-19.05414 3.17204,-38.63331 -36.57696,-47.60254 -37.16761,-8.37858 -58.60626,8.11605 -82.18877,8.02855 -35.48314,-0.07 -57.27181,0 -95.38009,-4.6815 -39.98964,-5.0534 -98.35526,6.0597 -118.85323,14.26326 -13.25696,5.29403 -38.28329,16.05711 -43.07418,32.90176 -10.60994,37.16761 69.71935,4.87839 79.97928,2.55951 44.60551,-9.8224 86.564,-10.50056 132.28519,-10.93808 24.08566,-0.17501 54.60292,1.37907 74.94776,4.35335 2.82202,50.33707 19.22915,62.56585 58.1031,75.47279 -1.96885,3.82833 -3.8502,7.76604 -5.81906,11.61624 -7.85354,15.72897 -46.7275,-0.35001 -57.33744,-3.58769 -24.34817,-7.4379 -49.98704,-12.64442 -75.3634,-14.11013 -38.96146,-2.29699 -76.56659,1.61884 -115.61555,0.67729 0,0 -26.49204,-0.76479 -115.1124,4.02521 -28.964058,1.61884 -43.489834,-6.2347 -49.899551,-17.52281 -18.726001,-32.98926 7.76604,-60.4001 7.76604,-60.4001 -3.062664,-1.29157 -35.723784,-16.93215 -16.407127,-51.89027 28.198382,-50.92772 73.744568,-68.95369 114.259238,-106.88696 0,0 4.44086,-19.14165 -3.58769,-40.33966 -7.26289,-19.05414 -23.16687,-25.04821 -39.57399,-33.57992 -10.41306,-5.55655 -23.2325,-12.55692 -28.439029,-23.75752 -14.700785,-31.96108 35.526899,-67.94738 53.749749,-87.50468 0,0 -40.01151,-59.13128 -40.01151,-132.78834 0,-122.6378 99.38344,-222.02124 221.93374,-222.02124 122.70343,0 221.99936,99.38344 221.99936,222.02124 0,68.18802 -60.92513,114.76238 -60.92513,114.76238 -50.84022,-15.64146 -90.47984,-6.32221 -122.28779,12.81944 -57.75308,34.76123 -71.86321,91.94554 -71.86321,91.94554 -44.78052,-6.75974 -94.15503,-31.19542 -123.31597,-60.33448 0,0 -35.02374,32.46424 -37.40825,37.75827" style="fill:#612c75"/>
  <g transform="matrix(21.876169,0,0,-21.876169,-2656.0278,8577.5129)">
    <path d="m 126.566,380.152 c 0,-3.168 1.723,-5.769 1.739,-5.797 l 0,0 0.222,-0.328 -0.265,-0.289 c -0.168,-0.179 -0.395,-0.39 -0.641,-0.621 l 0,0 c -0.844,-0.789 -2.121,-1.98 -1.726,-2.828 l 0,0 c 0.167,-0.375 0.695,-0.652 1.078,-0.855 l 0,0 0.261,-0.133 c 0.7,-0.356 1.418,-0.719 1.782,-1.668 l 0,0 c 0.418,-1.098 0.195,-2.094 0.183,-2.133 l 0,0 -0.035,-0.148 -0.109,-0.106 c -0.653,-0.609 -1.325,-1.105 -1.977,-1.586 l 0,0 c -1.211,-0.89 -2.355,-1.734 -3.152,-3.176 l 0,0 c -0.207,-0.371 -0.266,-0.699 -0.172,-0.972 l 0,0 c 0.148,-0.453 0.668,-0.692 0.687,-0.7 l 0,0 0.641,-0.292 -0.48,-0.512 c -0.04,-0.039 -0.942,-1.016 -0.282,-2.168 l 0,0 c 0.207,-0.371 0.715,-0.555 1.516,-0.555 l 0,0 c 0.094,0 0.195,0 0.305,0.004 l 0,0 c 3.152,0.172 4.601,0.191 5.074,0.191 l 0,0 0.223,0 c 0.187,-0.007 0.371,-0.007 0.558,-0.007 l 0,0 c 0.578,0 1.156,0.015 1.731,0.035 l 0,0 c 0.574,0.019 1.144,0.035 1.722,0.035 l 0,0 c 0.43,0 0.86,-0.012 1.293,-0.035 l 0,0 c 1.121,-0.063 2.317,-0.285 3.559,-0.664 l 0,0 0.265,-0.09 c 0.399,-0.137 1.063,-0.363 1.524,-0.363 l 0,0 c 0.187,0 0.242,0.039 0.242,0.039 l 0,0 0.008,0.019 c -1.481,0.578 -2.227,1.324 -2.418,3.285 l 0,0 c -0.793,0.09 -1.836,0.145 -2.789,0.145 l 0,0 -0.168,-0.004 c -2.192,-0.016 -4.02,-0.063 -5.945,-0.484 l 0,0 c -0.067,-0.016 -0.196,-0.059 -0.368,-0.118 l 0,0 c -0.675,-0.218 -1.808,-0.589 -2.64,-0.589 l 0,0 c -0.52,0 -0.891,0.144 -1.106,0.433 l 0,0 c -0.14,0.184 -0.273,0.508 -0.129,1.016 l 0,0 c 0.262,0.926 1.348,1.465 2.262,1.832 l 0,0 c 0.899,0.359 2.914,0.746 4.613,0.746 l 0,0 c 0.371,0 0.739,-0.02 1.071,-0.059 l 0,0 c 1.656,-0.207 2.597,-0.211 4.16,-0.214 l 0,0 0.137,0 c 0.335,0 0.679,0.093 1.168,0.222 l 0,0 c 0.507,0.129 1.015,0.25 1.632,0.25 l 0,0 c 0.356,0 0.703,-0.035 1.067,-0.121 l 0,0 c 0.879,-0.195 1.367,-0.527 1.64,-0.898 l 0,0 0.434,0.097 c 0.422,0.094 0.816,0.657 0.965,0.864 l 0,0 c 0.574,0.824 0.762,1.863 0.492,2.71 l 0,0 c -0.227,0.715 -0.762,1.247 -1.551,1.528 l 0,0 c -0.32,0.117 -0.656,0.172 -1.019,0.172 l 0,0 c -1.078,0 -2.168,-0.5 -3.106,-0.969 l 0,0 c -0.25,-0.125 -0.457,-0.367 -0.722,-0.68 l 0,0 c -0.575,-0.664 -1.356,-1.574 -3.204,-1.972 l 0,0 c -0.378,-0.082 -0.789,-0.125 -1.254,-0.125 l 0,0 c -0.503,0 -1.003,0.046 -1.488,0.093 l 0,0 c -0.207,0.02 -0.418,0.039 -0.621,0.051 l 0,0 c -0.254,0.02 -0.5,0.028 -0.742,0.028 l 0,0 c -1.574,0 -3.977,-0.383 -6.469,-2.215 l 0,0 c -0.176,-0.129 -0.277,-0.2 -0.449,-0.2 l 0,0 -0.691,0 0.214,0.657 c 0.547,1.656 1.766,2.906 3.344,3.425 l 0,0 c 2.348,0.782 4.942,2.012 4.969,2.024 l 0,0 0.113,0.055 0.125,-0.008 c 0.004,0 0.281,-0.012 0.719,-0.012 l 0,0 c 0.816,0 2.379,0.047 3.652,0.367 l 0,0 c 1.348,0.344 2.918,0.824 4.364,1.789 l 0,0 0.16,0.106 c 0.574,0.383 1.172,0.781 1.574,1.281 l 0,0 c 0.449,0.563 0.73,1.797 0.551,2.449 l 0,0 c -0.414,1.516 -2.203,2.055 -3.614,2.055 l 0,0 c -1.156,0 -2.246,-0.348 -2.902,-0.93 l 0,0 c -0.723,-0.636 -1.262,-1.511 -1.566,-2.086 l 0,0 c 0.332,-0.035 0.757,-0.07 1.191,-0.07 l 0,0 c 0.137,0 0.27,0.004 0.406,0.008 l 0,0 1.786,0.097 -1.477,-1.007 c -0.027,-0.02 -0.676,-0.457 -1.719,-0.727 l 0,0 c -0.379,-0.098 -0.969,-0.144 -1.797,-0.144 l 0,0 c -0.605,0 -1.199,0.027 -1.558,0.046 l 0,0 c -0.875,-1.855 -2.465,-2.394 -2.539,-2.418 l 0,0 -0.575,-0.191 -0.078,0.606 c -0.043,0.351 -0.437,1.214 -0.777,1.808 l 0,0 c -0.176,0.305 -0.48,0.578 -0.957,0.852 l 0,0 c -0.149,0.086 -0.387,0.148 -0.613,0.215 l 0,0 c -0.485,0.132 -1.036,0.285 -1.262,0.777 l 0,0 c -0.141,0.301 -0.121,0.656 0.059,1.055 l 0,0 c 0.043,0.089 0.152,0.332 1.828,1.886 l 0,0 0.351,0.328 0.34,-0.343 c 1.184,-1.184 3.125,-2.172 4.945,-2.543 l 0,0 c 0.317,0.863 1.219,2.769 3.364,4.066 l 0,0 c 1.121,0.676 2.328,1.016 3.582,1.016 l 0,0 c 0.691,0 1.418,-0.102 2.152,-0.305 l 0,0 c 0.598,0.527 2.402,2.32 2.402,4.695 l 0,0 c 0,5.317 -4.328,9.645 -9.648,9.645 l 0,0 c -5.316,0 -9.645,-4.328 -9.645,-9.645 m 18.34,-21.578 c 0.008,-0.125 0.016,-0.25 0.035,-0.375 l 0,0 0.094,-0.683 c 0.059,0.191 0.082,0.379 0.074,0.554 l 0,0 c -0.011,0.164 -0.101,0.426 -0.214,0.676 l 0,0 c 0.003,-0.058 0.007,-0.117 0.011,-0.172 m -1.957,-0.429 c -0.261,-0.067 -0.379,-0.196 -0.449,-0.481 l 0,0 c -0.145,-0.57 0.109,-1.379 0.641,-1.57 l 0,0 c 0.117,-0.039 0.23,-0.059 0.347,-0.059 l 0,0 c 0.336,0 0.688,0.176 0.992,0.496 l 0,0 c 0.106,0.114 0.204,0.242 0.286,0.375 l 0,0 -0.719,0.922 c -0.008,0.016 -0.281,0.356 -0.781,0.356 l 0,0 c -0.102,0 -0.207,-0.012 -0.317,-0.039" style="fill:url(#radialGradient464)"/>
  </g>
</svg>
