<?xml version="1.0" encoding="UTF-8" standalone="no"?>
<svg xmlns="http://www.w3.org/2000/svg" version="1.1" width="600" height="875.04767">
  <path d="m 129.94594,458.28212 c -11.20059,24.69819 19.81981,21.87617 35.19876,30.77977 10.08491,5.79718 19.31666,12.81943 24.96071,22.64183 6.56285,11.52874 16.99778,32.81426 18.44161,43.66484 0,0 35.46127,-11.52874 51.80277,-53.83726 0,0 56.6374,4.11272 77.83541,-1.35632 21.1105,-5.46904 34.01744,-14.37264 34.01744,-14.37264 -25.22322,1.37732 -51.78089,-3.41268 -51.78089,-3.41268 0,0 15.70709,-38.19579 43.31481,-62.63148 42.81167,-37.78014 143.98895,-29.99222 160.39607,29.99223 4.87839,18.02597 -2.472,48.69635 -14.08825,63.22213 -10.78495,13.43197 -26.2514,23.16686 -40.42716,32.66112 -30.67039,20.41047 -63.41901,31.52356 -98.88028,40.49279 -42.81167,10.93808 -98.77091,8.20356 -98.77091,8.20356 0,0 -57.33744,27.25771 -109.90587,44.69302 -31.69857,10.43493 -55.45609,35.37376 -66.219169,68.03488 1.968856,0 68.275529,-59.56881 168.337129,-52.21841 23.25436,1.70634 47.51504,5.73155 70.50689,0.67903 55.98112,-12.14127 61.6908,-46.31185 83.32633,-57.16243 29.99223,-14.9633 65.10348,-29.99222 98.85841,-17.87283 49.81203,17.87283 53.92475,72.47575 28.28588,109.22772 -5.88469,8.4442 -15.29144,20.58547 -27.60772,23.31999 0,0 11.11309,18.79163 11.79125,30.67039 1.46483,28.13275 -26.73268,65.03785 -57.57807,54.18727 -17.96034,-6.40972 -25.22323,-30.34225 -21.023,-47.34003 2.472,-9.9099 7.85354,-15.90397 17.76345,-18.46349 23.07935,-5.81906 35.46127,10.93809 35.46127,10.93809 -2.73453,-19.05414 3.17204,-38.63331 -36.57696,-47.60254 -37.16761,-8.37858 -58.60626,8.11605 -82.18877,8.02855 -35.48314,-0.07 -57.27181,0 -95.38009,-4.6815 -39.98964,-5.0534 -98.35526,6.0597 -118.85323,14.26326 -13.25696,5.29403 -38.28329,16.05711 -43.07418,32.90176 -10.60994,37.16761 69.71935,4.87839 79.97928,2.55951 44.60551,-9.8224 86.564,-10.50056 132.28519,-10.93808 24.10754,-0.17501 54.60292,1.37907 74.94776,4.35335 2.82202,50.33707 19.22915,62.56585 58.1031,75.47279 -1.96885,3.82833 -3.8502,7.76604 -5.81906,11.61624 -7.85354,15.72897 -46.7275,-0.35001 -57.33744,-3.58769 -24.34817,-7.4379 -49.98704,-12.64442 -75.3634,-14.11013 -38.96146,-2.29699 -76.56659,1.61884 -115.61555,0.67729 0,0 -26.49204,-0.76479 -115.1124,4.02521 -28.964058,1.61884 -43.489834,-6.2347 -49.899551,-17.52281 -18.726001,-32.98926 7.76604,-60.4001 7.76604,-60.4001 -3.062664,-1.29157 -35.723784,-16.93215 -16.407127,-51.89027 28.198382,-50.92772 73.744568,-68.95369 114.259238,-106.88696 0,0 4.44086,-19.14165 -3.58769,-40.33966 -7.26289,-19.05414 -23.16687,-25.04821 -39.57399,-33.57992 -10.41306,-5.55655 -23.2325,-12.55692 -28.460905,-23.75752 -14.678909,-31.96108 35.570655,-67.94738 53.771625,-87.50468 0,0 -40.01151,-59.13128 -40.01151,-132.78834 0,-122.6378 99.38344,-222.02124 221.93374,-222.02124 122.70343,0 221.99936,99.38344 221.99936,222.02124 0,68.18802 -60.92513,114.76238 -60.92513,114.76238 -50.84022,-15.64146 -90.50171,-6.32221 -122.28779,12.81944 -57.75308,34.76123 -71.86321,91.94554 -71.86321,91.94554 -44.78052,-6.75974 -94.15503,-31.19542 -123.29409,-60.33448 0,0 -35.04562,32.46424 -37.43013,37.75827"/>
</svg>
