<?xml version="1.0" encoding="utf-8"?>
<!-- Generator: Adobe Illustrator 15.1.0, SVG Export Plug-In . SVG Version: 6.00 Build 0)  -->
<!DOCTYPE svg PUBLIC "-//W3C//DTD SVG 1.1//EN" "http://www.w3.org/Graphics/SVG/1.1/DTD/svg11.dtd">
<svg version="1.1"
	 id="svg8" xmlns:dc="http://purl.org/dc/elements/1.1/" xmlns:cc="http://creativecommons.org/ns#" xmlns:rdf="http://www.w3.org/1999/02/22-rdf-syntax-ns#" xmlns:svg="http://www.w3.org/2000/svg" xmlns:inkscape="http://www.inkscape.org/namespaces/inkscape" xmlns:sodipodi="http://sodipodi.sourceforge.net/DTD/sodipodi-0.dtd" sodipodi:docname="80.svg" inkscape:version="1.0 (4035a4fb49, 2020-05-01)"
	 xmlns="http://www.w3.org/2000/svg" xmlns:xlink="http://www.w3.org/1999/xlink" x="0px" y="0px" width="246px" height="180px"
	 viewBox="0 0 246 180" enable-background="new 0 0 246 180" xml:space="preserve">
<sodipodi:namedview  id="base" inkscape:cy="148.27568" inkscape:cx="162.61389" inkscape:zoom="1.9262114" showguides="true" borderopacity="1.0" bordercolor="#666666" showgrid="false" pagecolor="#ffffff" inkscape:document-rotation="0" inkscape:window-maximized="1" inkscape:pagecheckerboard="true" inkscape:window-y="-6" inkscape:pageshadow="2" inkscape:pageopacity="0.0" inkscape:guide-bbox="true" inkscape:window-x="-6" inkscape:window-height="1018" inkscape:window-width="1920" inkscape:current-layer="svg8" inkscape:document-units="mm">
	</sodipodi:namedview>
<g>
	<g>
		<path fill="#747678" d="M238.615,101.924c-2.814,1.021-30.208,10.533-30.208,10.533L186.165,89.85l22.242-22.608
			c0,0,27.394,9.512,30.208,10.531c1.859,0.676,3.569,0.85,4.034,0.296c1.884-2.217-2.25-9.308-3.462-11.513
			c-22.377-40.756-66.973-54.988-68.748-55.695c-3.312-1.315-14.11-4.981-15.168-2.635c-0.864,1.921-0.037,2.86,2.146,4.516
			c3.711,2.816,9.028,8.598,9.028,12.833c0,2.292-1.568,8.241-8.746,8.241c-2.354,0-4.547-1.163-6.759-2.952L122.886,2.35
			L94.832,30.862c-2.215,1.79-4.409,2.955-6.759,2.955c-7.178,0-8.75-5.949-8.75-8.241c0-4.235,5.318-10.017,9.032-12.833
			c2.182-1.656,3.011-2.595,2.146-4.516c-1.06-2.347-11.855,1.32-15.167,2.635C73.554,11.568,28.962,25.8,6.582,66.556
			c-1.212,2.205-5.344,9.296-3.463,11.513c0.469,0.554,2.178,0.38,4.037-0.296c2.813-1.019,30.206-10.531,30.206-10.531
			L59.605,89.85l-22.244,22.607c0,0-27.393-9.512-30.206-10.533c-1.859-0.674-3.568-0.848-4.037-0.296
			c-1.881,2.22,2.251,9.308,3.463,11.513c22.38,40.756,66.972,54.988,68.751,55.697c3.312,1.315,14.107,4.981,15.167,2.633
			c0.865-1.921,0.036-2.86-2.146-4.516c-3.713-2.816-9.032-8.599-9.032-12.833c0-2.293,1.572-8.241,8.75-8.241
			c2.35,0,4.543,1.162,6.757,2.952l28.057,28.517l28.056-28.52c2.212-1.787,4.405-2.949,6.759-2.949
			c7.178,0,8.746,5.948,8.746,8.241c0,4.234-5.317,10.017-9.028,12.833c-2.184,1.655-3.011,2.595-2.146,4.516
			c1.058,2.349,11.856-1.317,15.168-2.633c1.775-0.709,46.371-14.941,68.748-55.697c1.212-2.205,5.346-9.293,3.462-11.513
			C242.185,101.076,240.475,101.25,238.615,101.924z M133.147,57.206l-10.262,10.43l-10.261-10.43l10.261-10.43L133.147,57.206z
			 M112.625,122.493l10.261-10.431l10.262,10.431l-10.262,10.43L112.625,122.493z"/>
	</g>
	<path d="M68.913,122.493l17.128,17.408c-8.754,0.99-12.815,8.337-12.815,14.221c0,5.533,2.596,8.243,2.596,8.243
		s-42.448-13.098-63.897-52.158l27.094,9.259L68.158,89.85L39.019,60.233l-27.094,9.258c21.45-39.062,63.897-52.158,63.897-52.158
		s-2.596,2.71-2.596,8.241c0,5.883,4.061,13.232,12.815,14.221l-17.128,17.41l32.116,32.644L68.913,122.493z M176.855,122.493
		l-17.126,17.408c8.756,0.99,12.814,8.337,12.814,14.221c0,5.533-2.598,8.243-2.598,8.243s42.448-13.098,63.9-52.158l-27.098,9.259
		L177.611,89.85l29.138-29.616l27.098,9.258c-21.452-39.062-63.9-52.158-63.9-52.158s2.598,2.71,2.598,8.241
		c0,5.883-4.059,13.232-12.814,14.221l17.126,17.41L144.74,89.85L176.855,122.493z M127.159,107.716l14.538,14.777l-18.812,19.12
		l-18.814-19.12l64.235-65.287l-45.421-46.164L77.464,57.206l27.842,28.299l13.303-13.523l-14.537-14.775l18.814-19.122
		l18.812,19.122l-64.233,65.287l45.421,46.164l45.421-46.164l-27.841-28.299L127.159,107.716z"/>
</g>
</svg>
