<?xml version="1.0" encoding="utf-8"?>
<!-- Generator: Adobe Illustrator 15.1.0, SVG Export Plug-In . SVG Version: 6.00 Build 0)  -->
<!DOCTYPE svg PUBLIC "-//W3C//DTD SVG 1.1//EN" "http://www.w3.org/Graphics/SVG/1.1/DTD/svg11.dtd">
<svg version="1.1"
	 id="svg8" xmlns:dc="http://purl.org/dc/elements/1.1/" xmlns:cc="http://creativecommons.org/ns#" xmlns:rdf="http://www.w3.org/1999/02/22-rdf-syntax-ns#" xmlns:svg="http://www.w3.org/2000/svg" xmlns:inkscape="http://www.inkscape.org/namespaces/inkscape" xmlns:sodipodi="http://sodipodi.sourceforge.net/DTD/sodipodi-0.dtd" sodipodi:docname="80.svg" inkscape:version="1.0 (4035a4fb49, 2020-05-01)"
	 xmlns="http://www.w3.org/2000/svg" xmlns:xlink="http://www.w3.org/1999/xlink" x="0px" y="0px" width="246px" height="180px"
	 viewBox="0 0 246 180" enable-background="new 0 0 246 180" xml:space="preserve">
<sodipodi:namedview  id="base" inkscape:cy="148.27568" inkscape:cx="162.61389" inkscape:zoom="1.9262114" showguides="true" borderopacity="1.0" bordercolor="#666666" showgrid="false" pagecolor="#ffffff" inkscape:document-rotation="0" inkscape:window-maximized="1" inkscape:pagecheckerboard="true" inkscape:window-y="-6" inkscape:pageshadow="2" inkscape:pageopacity="0.0" inkscape:guide-bbox="true" inkscape:window-x="-6" inkscape:window-height="1018" inkscape:window-width="1920" inkscape:current-layer="svg8" inkscape:document-units="mm">
	</sodipodi:namedview>
<g>
	<g>
		<path fill="#FFFFFF" d="M238.418,101.629c-2.813,1.021-30.205,10.533-30.205,10.533l-22.244-22.607l22.244-22.608
			c0,0,27.395,9.512,30.205,10.531c1.859,0.676,3.568,0.851,4.037,0.296c1.881-2.217-2.25-9.308-3.462-11.513
			c-22.38-40.755-66.974-54.988-68.751-55.695c-3.313-1.316-14.107-4.982-15.167-2.635c-0.864,1.921-0.037,2.86,2.146,4.516
			c3.713,2.816,9.03,8.598,9.03,12.833c0,2.292-1.571,8.241-8.749,8.241c-2.352,0-4.544-1.163-6.757-2.952L122.689,2.055
			L94.636,30.567c-2.215,1.79-4.408,2.955-6.759,2.955c-7.177,0-8.75-5.949-8.75-8.241c0-4.235,5.319-10.017,9.032-12.833
			c2.182-1.656,3.011-2.595,2.146-4.516c-1.059-2.347-11.855,1.319-15.167,2.635c-1.779,0.707-46.371,14.939-68.751,55.695
			c-1.211,2.205-5.344,9.296-3.463,11.513c0.469,0.554,2.178,0.38,4.037-0.296c2.813-1.02,30.206-10.531,30.206-10.531
			l22.244,22.608l-22.244,22.607c0,0-27.393-9.513-30.206-10.533c-1.859-0.675-3.568-0.848-4.037-0.296
			c-1.881,2.221,2.251,9.309,3.463,11.514c22.38,40.756,66.972,54.987,68.751,55.696c3.312,1.315,14.107,4.981,15.167,2.633
			c0.866-1.921,0.037-2.86-2.146-4.517c-3.713-2.815-9.032-8.598-9.032-12.832c0-2.293,1.573-8.241,8.75-8.241
			c2.35,0,4.543,1.162,6.757,2.951l28.058,28.519l28.056-28.521c2.213-1.787,4.405-2.949,6.757-2.949
			c7.178,0,8.749,5.948,8.749,8.241c0,4.234-5.317,10.017-9.03,12.832c-2.184,1.656-3.011,2.596-2.146,4.517
			c1.06,2.349,11.854-1.317,15.167-2.633c1.777-0.709,46.371-14.94,68.751-55.696c1.212-2.205,5.343-9.293,3.462-11.514
			C241.988,100.782,240.279,100.955,238.418,101.629z M132.952,56.912l-10.263,10.43l-10.26-10.431l10.26-10.43L132.952,56.912z
			 M112.43,122.199l10.26-10.432l10.262,10.432l-10.262,10.431L112.43,122.199z"/>
	</g>
	<path d="M68.718,122.199l17.129,17.408c-8.754,0.99-12.815,8.338-12.815,14.221c0,5.533,2.596,8.242,2.596,8.242
		S33.18,148.973,11.73,109.913l27.094,9.259l29.139-29.616L38.824,59.939L11.73,69.197c21.45-39.063,63.897-52.158,63.897-52.158
		s-2.596,2.71-2.596,8.242c0,5.883,4.061,13.232,12.815,14.221l-17.129,17.41l32.116,32.644L68.718,122.199z M176.662,122.199
		l-17.128,17.408c8.755,0.99,12.815,8.338,12.815,14.221c0,5.533-2.598,8.242-2.598,8.242s42.448-13.098,63.898-52.157
		l-27.096,9.259l-29.139-29.616l29.139-29.616l27.096,9.258C212.2,30.136,169.752,17.04,169.752,17.04s2.598,2.71,2.598,8.242
		c0,5.883-4.062,13.232-12.815,14.221l17.128,17.41l-32.118,32.644L176.662,122.199z M126.964,107.421l14.538,14.777l-18.813,19.12
		l-18.813-19.12l64.232-65.287l-45.42-46.164l-45.42,46.165l27.842,28.298l13.303-13.523l-14.537-14.775l18.813-19.122
		l18.813,19.122l-64.233,65.287l45.42,46.164l45.42-46.164L140.27,93.9L126.964,107.421z"/>
</g>
</svg>
