<?xml version="1.0" encoding="utf-8"?>
<!-- Generator: Adobe Illustrator 15.1.0, SVG Export Plug-In . SVG Version: 6.00 Build 0)  -->
<!DOCTYPE svg PUBLIC "-//W3C//DTD SVG 1.1//EN" "http://www.w3.org/Graphics/SVG/1.1/DTD/svg11.dtd">
<svg version="1.1"
	 id="svg8" xmlns:dc="http://purl.org/dc/elements/1.1/" xmlns:cc="http://creativecommons.org/ns#" xmlns:rdf="http://www.w3.org/1999/02/22-rdf-syntax-ns#" xmlns:svg="http://www.w3.org/2000/svg" xmlns:inkscape="http://www.inkscape.org/namespaces/inkscape" xmlns:sodipodi="http://sodipodi.sourceforge.net/DTD/sodipodi-0.dtd" sodipodi:docname="80.svg" inkscape:version="1.0 (4035a4fb49, 2020-05-01)"
	 xmlns="http://www.w3.org/2000/svg" xmlns:xlink="http://www.w3.org/1999/xlink" x="0px" y="0px" width="246px" height="180px"
	 viewBox="0 0 246 180" enable-background="new 0 0 246 180" xml:space="preserve">
<sodipodi:namedview  id="base" inkscape:cy="148.27568" inkscape:cx="162.61389" inkscape:zoom="1.9262114" showguides="true" borderopacity="1.0" bordercolor="#666666" showgrid="false" pagecolor="#ffffff" inkscape:document-rotation="0" inkscape:window-maximized="1" inkscape:pagecheckerboard="true" inkscape:window-y="-6" inkscape:pageshadow="2" inkscape:pageopacity="0.0" inkscape:guide-bbox="true" inkscape:window-x="-6" inkscape:window-height="1018" inkscape:window-width="1920" inkscape:current-layer="svg8" inkscape:document-units="mm">
	</sodipodi:namedview>
<g>
	<g>
		<path d="M238.614,101.924c-2.812,1.021-30.206,10.533-30.206,10.533L186.165,89.85l22.243-22.608c0,0,27.395,9.512,30.206,10.531
			c1.86,0.676,3.569,0.85,4.037,0.296c1.881-2.217-2.25-9.308-3.462-11.513c-22.38-40.756-66.973-54.988-68.751-55.695
			c-3.312-1.315-14.108-4.981-15.167-2.635c-0.864,1.921-0.038,2.86,2.146,4.516c3.713,2.816,9.03,8.598,9.03,12.833
			c0,2.292-1.571,8.241-8.749,8.241c-2.351,0-4.544-1.163-6.757-2.952L122.886,2.35L94.832,30.862
			c-2.215,1.79-4.409,2.955-6.759,2.955c-7.178,0-8.751-5.949-8.751-8.241c0-4.235,5.319-10.017,9.033-12.833
			c2.182-1.656,3.011-2.595,2.146-4.516c-1.062-2.347-11.856,1.32-15.167,2.635C73.553,11.568,28.962,25.8,6.583,66.556
			c-1.212,2.205-5.343,9.296-3.464,11.513c0.47,0.554,2.179,0.38,4.04-0.296c2.811-1.019,30.203-10.531,30.203-10.531L59.607,89.85
			l-22.246,22.607c0,0-27.392-9.512-30.203-10.533c-1.86-0.674-3.57-0.848-4.04-0.296c-1.879,2.22,2.252,9.308,3.464,11.513
			c22.38,40.756,66.971,54.988,68.751,55.697c3.312,1.315,14.106,4.981,15.167,2.633c0.864-1.921,0.035-2.86-2.146-4.516
			c-3.713-2.816-9.033-8.599-9.033-12.833c0-2.293,1.573-8.241,8.751-8.241c2.349,0,4.542,1.162,6.757,2.952l28.057,28.517
			l28.056-28.52c2.213-1.787,4.406-2.949,6.757-2.949c7.178,0,8.749,5.948,8.749,8.241c0,4.234-5.317,10.017-9.03,12.833
			c-2.185,1.655-3.011,2.595-2.146,4.516c1.059,2.349,11.855-1.317,15.167-2.633c1.778-0.709,46.371-14.941,68.751-55.697
			c1.212-2.205,5.343-9.293,3.462-11.513C242.184,101.076,240.475,101.25,238.614,101.924z M133.147,57.206l-10.261,10.43
			l-10.261-10.43l10.261-10.43L133.147,57.206z M112.625,122.493l10.261-10.431l10.261,10.431l-10.261,10.43L112.625,122.493z"/>
	</g>
	<radialGradient id="SVGID_1_" cx="122.8862" cy="89.8496" r="96.2363" gradientUnits="userSpaceOnUse">
		<stop  offset="0" style="stop-color:#D7BD74"/>
		<stop  offset="0.357" style="stop-color:#D5BB72"/>
		<stop  offset="0.5086" style="stop-color:#CEB46C"/>
		<stop  offset="0.621" style="stop-color:#C1A861"/>
		<stop  offset="0.7" style="stop-color:#B39A54"/>
		<stop  offset="0.7962" style="stop-color:#AF9650"/>
		<stop  offset="0.8959" style="stop-color:#A28944"/>
		<stop  offset="0.9968" style="stop-color:#8E7530"/>
		<stop  offset="1" style="stop-color:#8D742F"/>
	</radialGradient>
	<path fill="url(#SVGID_1_)" d="M68.913,122.493l17.131,17.408c-8.756,0.99-12.816,8.337-12.816,14.221
		c0,5.533,2.595,8.243,2.595,8.243s-42.447-13.098-63.896-52.158l27.094,9.259L68.159,89.85L39.02,60.233l-27.094,9.258
		c21.45-39.062,63.896-52.158,63.896-52.158s-2.595,2.71-2.595,8.241c0,5.883,4.061,13.232,12.816,14.221l-17.131,17.41
		L101.03,89.85L68.913,122.493z M176.857,122.493l-17.129,17.408c8.756,0.99,12.816,8.337,12.816,14.221
		c0,5.533-2.598,8.243-2.598,8.243s42.449-13.098,63.899-52.158l-27.097,9.259L177.613,89.85l29.137-29.616l27.097,9.258
		c-21.45-39.062-63.899-52.158-63.899-52.158s2.598,2.71,2.598,8.241c0,5.883-4.061,13.232-12.816,14.221l17.129,17.41L144.74,89.85
		L176.857,122.493z M127.16,107.716l14.538,14.777l-18.812,19.12l-18.815-19.12l64.234-65.287l-45.419-46.164l-45.42,46.164
		l27.84,28.299l13.303-13.523l-14.538-14.775l18.815-19.122l18.812,19.122l-64.232,65.287l45.42,46.164l45.419-46.164l-27.84-28.299
		L127.16,107.716z"/>
</g>
</svg>
