<?xml version="1.0" encoding="utf-8"?>
<!-- Generator: Adobe Illustrator 15.1.0, SVG Export Plug-In . SVG Version: 6.00 Build 0)  -->
<!DOCTYPE svg PUBLIC "-//W3C//DTD SVG 1.1//EN" "http://www.w3.org/Graphics/SVG/1.1/DTD/svg11.dtd">
<svg version="1.1"
	 id="svg8" xmlns:dc="http://purl.org/dc/elements/1.1/" xmlns:cc="http://creativecommons.org/ns#" xmlns:rdf="http://www.w3.org/1999/02/22-rdf-syntax-ns#" xmlns:svg="http://www.w3.org/2000/svg" xmlns:inkscape="http://www.inkscape.org/namespaces/inkscape" xmlns:sodipodi="http://sodipodi.sourceforge.net/DTD/sodipodi-0.dtd" sodipodi:docname="80.svg" inkscape:version="1.0 (4035a4fb49, 2020-05-01)"
	 xmlns="http://www.w3.org/2000/svg" xmlns:xlink="http://www.w3.org/1999/xlink" x="0px" y="0px" width="246px" height="180px"
	 viewBox="0 0 246 180" enable-background="new 0 0 246 180" xml:space="preserve">
<sodipodi:namedview  id="base" inkscape:cy="148.27568" inkscape:cx="162.61389" inkscape:zoom="1.9262114" showguides="true" borderopacity="1.0" bordercolor="#666666" showgrid="false" pagecolor="#ffffff" inkscape:document-rotation="0" inkscape:window-maximized="1" inkscape:pagecheckerboard="true" inkscape:window-y="-6" inkscape:pageshadow="2" inkscape:pageopacity="0.0" inkscape:guide-bbox="true" inkscape:window-x="-6" inkscape:window-height="1018" inkscape:window-width="1920" inkscape:current-layer="svg8" inkscape:document-units="mm">
	</sodipodi:namedview>
<g>
	<path d="M64.516,125.152l18.524,18.826c-9.467,1.071-13.859,9.017-13.859,15.379c0,5.984,2.808,8.915,2.808,8.915
		s-45.906-14.165-69.103-56.407l29.301,10.013L63.7,89.85L32.187,57.821L2.886,67.833c23.197-42.244,69.103-56.406,69.103-56.406
		s-2.808,2.931-2.808,8.913c0,6.362,4.392,14.31,13.859,15.379L64.516,54.547L99.249,89.85L64.516,125.152z M181.252,125.152
		l-18.521,18.826c9.47,1.071,13.859,9.017,13.859,15.379c0,5.984-2.811,8.915-2.811,8.915s45.907-14.165,69.107-56.407
		l-29.306,10.013L182.069,89.85l31.512-32.029l29.306,10.012c-23.2-42.244-69.107-56.406-69.107-56.406s2.811,2.931,2.811,8.913
		c0,6.362-4.39,14.31-13.859,15.379l18.521,18.829L146.521,89.85L181.252,125.152z M127.508,109.171l15.723,15.981l-20.345,20.678
		l-20.347-20.678l69.468-70.605L122.886,4.622L73.764,54.547l30.11,30.604l14.387-14.625l-15.722-15.979l20.347-20.68l20.345,20.68
		l-69.466,70.605l49.122,49.925l49.121-49.925l-30.108-30.604L127.508,109.171z"/>
</g>
</svg>
