<?xml version="1.0" encoding="UTF-8" standalone="no"?>
<svg
   version="1.1"
   id="Layer_1"
   x="0px"
   y="0px"
   width="446.06"
   height="500"
   viewBox="0 0 446.06 500"
   sodipodi:docname="80.svg"
   inkscape:version="1.1.1 (3bf5ae0d25, 2021-09-20)"
   xmlns:inkscape="http://www.inkscape.org/namespaces/inkscape"
   xmlns:sodipodi="http://sodipodi.sourceforge.net/DTD/sodipodi-0.dtd"
   xmlns="http://www.w3.org/2000/svg"
   xmlns:svg="http://www.w3.org/2000/svg">
  <defs
     id="defs27" />
  <sodipodi:namedview
     id="namedview25"
     pagecolor="#ffffff"
     bordercolor="#666666"
     borderopacity="1.0"
     inkscape:pageshadow="2"
     inkscape:pageopacity="0.0"
     inkscape:pagecheckerboard="0"
     showgrid="false"
     inkscape:zoom="15.64"
     inkscape:cx="22.283"
     inkscape:cy="25.001"
     inkscape:window-width="1920"
     inkscape:window-height="986"
     inkscape:window-x="-11"
     inkscape:window-y="-11"
     inkscape:window-maximized="1"
     inkscape:current-layer="Layer_1" />
  <path
     style="fill:#808080;stroke-width:9.99796"
     d="M 197.64,499.99 C 195.73,499.97 0,193.47 0,193.47 L 197.09,0 m 31.64,0 c 30.93,11.968 160.95,110.45 185.91,143.89 28.41,38.08 32.98,50.52 31.03,84.54 -2.19,38.36 -16.59,60.47 -64.9,99.68 -33.44,27.16 -52.33,46.66 -57.03,58.9 -1.85,4.84 2.22,5.93 17.75,4.69 14.25,-1.13 22.41,0.6 27.84,6.07 19.61,19.63 14.81,56.54 -10.67,82.02 -16.4,16.4 -21.21,20.28 -46.53,20.21 -19.4,0 -29.63,-5.49 -40.23,-12.29 v 0 c -9.07,-5.8 -20.33,-20.48 -28.94,-37.69 C 213.97,392 229.19,337.5 289.27,284.24 c 28.95,-25.64 39.61,-41.46 28,-41.46 -6.72,0 -42.57,30.79 -66.26,56.92 l -21.85,24.08"
     id="path2" />
  <path
     d="m 334.96,472.93 c 17.9,-9.24 30.83,-36.97 24.13,-51.69 -5.1,-11.19 -20.75,-14.94 -26.12,-6.25 -1.62,2.61 -1.22,4.44 0.9,4.08 17.44,-3.03 20.6,9.11 6.13,23.56 -12.3,12.3 -30.62,11.97 -37.38,-0.7 -2.99,-5.57 -4.41,-20.76 -3.26,-34.66 2.65,-31.89 15.27,-49.62 67.24,-94.46 44.98,-38.82 61.17,-62.54 61.28,-89.79 0.1,-27.28 -14.73,-52.84 -52.01,-89.52 C 330.59,89.012 253.72,32.044 248.16,37.602 c -1.12,1.13 -0.6,239.928 -0.6,239.928 l 27.54,-27.8 c 32.93,-27.33 44.95,-31.98 56.25,-21.76 11.65,10.55 8.61,20.5 8.61,21.8 0,11.45 -6.68,20.38 -36.78,49.13 -38.74,37 -55.52,64.81 -55.7,92.28 -0.3,42.22 30.88,88.5 59.59,88.5 8.17,0 20.7,-3.04 27.87,-6.75 z M 177.68,41.172 21.006,193.02 175.65,430.08 Z"
     id="path4"
     style="stroke-width:9.99796" />
</svg>
