<?xml version="1.0" encoding="UTF-8" standalone="no"?>
<svg
   version="1.1"
   id="Layer_1"
   x="0px"
   y="0px"
   width="446.07"
   height="500"
   sodipodi:docname="M.svg"
   inkscape:version="1.1.1 (3bf5ae0d25, 2021-09-20)"
   xmlns:inkscape="http://www.inkscape.org/namespaces/inkscape"
   xmlns:sodipodi="http://sodipodi.sourceforge.net/DTD/sodipodi-0.dtd"
   xmlns="http://www.w3.org/2000/svg"
   xmlns:svg="http://www.w3.org/2000/svg">
  <defs
     id="defs18">
    <linearGradient
       id="SVGID_1_"
       gradientUnits="userSpaceOnUse"
       x1="11.747"
       y1="9.1738"
       x2="39.567"
       y2="42.328"
       gradientTransform="scale(9.9982)">
      <stop
         offset="0.1"
         style="stop-color:#bf331c"
         id="stop4" />
      <stop
         offset="0.4"
         style="stop-color:#f6b91d"
         id="stop6" />
      <stop
         offset="0.7"
         style="stop-color:#bf331c"
         id="stop8" />
    </linearGradient>
  </defs>
  <sodipodi:namedview
     id="namedview16"
     pagecolor="#ffffff"
     bordercolor="#666666"
     borderopacity="1.0"
     inkscape:pageshadow="2"
     inkscape:pageopacity="0.0"
     inkscape:pagecheckerboard="0"
     showgrid="false"
     inkscape:zoom="15.635"
     inkscape:cx="22.29"
     inkscape:cy="-5.6925"
     inkscape:window-width="1920"
     inkscape:window-height="986"
     inkscape:window-x="-11"
     inkscape:window-y="-11"
     inkscape:window-maximized="1"
     inkscape:current-layer="Layer_1" />
  <path
     d="M 197.64,499.99 C 195.73,499.96 0,193.46 0,193.46 L 197.09,0 m 31.65,0 c 30.92,11.948 160.95,110.44 185.9,143.88 28.42,38.09 32.99,50.51 31.04,84.55 -2.19,38.35 -16.59,60.46 -64.9,99.68 -33.44,27.15 -52.33,46.66 -57.03,58.9 -1.86,4.84 2.22,5.92 17.75,4.69 14.25,-1.13 22.4,0.6 27.83,6.07 19.62,19.61 14.82,56.54 -10.67,82.02 -16.39,16.4 -21.2,20.28 -46.53,20.21 -19.39,0 -29.62,-5.49 -40.23,-12.29 v 0 c -9.07,-5.81 -20.33,-20.48 -28.93,-37.7 -29,-58.02 -13.77,-112.51 46.31,-165.78 28.94,-25.66 39.61,-41.46 27.99,-41.46 -6.72,0 -42.56,30.79 -66.26,56.92 l -21.84,24.08"
     id="path2"
     style="stroke-width:9.99816" />
  <path
     fill="url(#SVGID_1_)"
     d="m 334.97,472.93 c 17.9,-9.24 30.82,-36.97 24.12,-51.69 -5.09,-11.2 -20.74,-14.95 -26.11,-6.26 -1.62,2.61 -1.22,4.45 0.9,4.08 17.44,-3.03 20.6,9.12 6.13,23.58 -12.3,12.3 -30.63,11.97 -37.39,-0.7 -2.98,-5.58 -4.4,-20.76 -3.25,-34.66 2.65,-31.9 15.26,-49.64 67.23,-94.48 44.99,-38.81 61.18,-62.54 61.29,-89.78 0.1,-27.29 -14.74,-52.85 -52.01,-89.52 C 330.6,89.004 253.72,32.034 248.16,37.593 c -1.11,1.12 -0.6,239.937 -0.6,239.937 l 27.55,-27.81 c 32.92,-27.34 44.94,-31.99 56.25,-21.75 11.65,10.54 8.61,20.49 8.61,21.78 0,11.46 -6.68,20.39 -36.79,49.15 -38.74,37.01 -55.52,64.81 -55.7,92.28 -0.29,42.22 30.89,88.49 59.59,88.49 8.17,0 20.71,-3.03 27.88,-6.74 z M 177.69,41.163 21.006,193.01 175.66,430.07 Z"
     id="path11"
     style="fill:url(#SVGID_1_);stroke-width:9.99816" />
</svg>
