<?xml version="1.0" encoding="UTF-8" standalone="no"?>
<svg xmlns="http://www.w3.org/2000/svg" version="1.1" id="Layer_1" x="0px" y="0px" width="44.6152" height="50.001091" viewBox="0 0 44.615199 50.001093">
  <g transform="rotate(-90,25.000546,25.000546)">
    <g transform="rotate(90,25.000546,25.000546)">
      <g transform="rotate(90,22.307599,22.307599)">
        <g transform="rotate(90,25.000547,25.000546)">
          <g transform="rotate(90,22.307599,22.3076)">
            <g>
              <g>
                <g transform="rotate(90,25.005046,25.005046)">
                  <g>
                    <path d="m 33.503,47.303 c 1.79,-0.925 3.083,-3.698 2.413,-5.17 -0.51,-1.12 -2.075,-1.495 -2.612,-0.626 -0.162,0.261 -0.122,0.444 0.088,0.408 1.744,-0.303 2.06,0.912 0.613,2.357 -1.23,1.23 -3.063,1.197 -3.739,-0.066 -0.299,-0.557 -0.441,-2.076 -0.326,-3.467 0.265,-3.189 1.527,-4.963 6.725,-9.448 4.499,-3.882 6.119,-6.255 6.13,-8.98 0.012,-2.729 -1.474,-5.286 -5.202,-8.954 C 33.066,8.903 25.377,3.205 24.821,3.761 24.709,3.874 24.763,27.759 24.763,27.759 l 2.755,-2.781 c 3.293,-2.734 4.495,-3.199 5.626,-2.176 1.165,1.055 0.861,2.05 0.861,2.18 0,1.145 -0.668,2.038 -3.679,4.914 -3.875,3.701 -5.553,6.482 -5.571,9.23 -0.027,4.223 3.089,8.852 5.96,8.852 0.817,0 2.071,-0.304 2.788,-0.675 z M 17.772,4.118 2.101,19.306 17.569,43.017 Z"/>
                  </g>
                </g>
              </g>
            </g>
          </g>
        </g>
      </g>
    </g>
  </g>
</svg>
