<?xml version="1.0" encoding="utf-8"?>
<!-- Generator: Adobe Illustrator 15.1.0, SVG Export Plug-In . SVG Version: 6.00 Build 0)  -->
<!DOCTYPE svg PUBLIC "-//W3C//DTD SVG 1.1//EN" "http://www.w3.org/Graphics/SVG/1.1/DTD/svg11.dtd">
<svg version="1.1" id="Layer_1" xmlns="http://www.w3.org/2000/svg" xmlns:xlink="http://www.w3.org/1999/xlink" x="0px" y="0px"
	 width="150px" height="160px" viewBox="0 0 150 160" enable-background="new 0 0 150 160" xml:space="preserve">
<g id="Layer_1_1_">
</g>
<g id="Layer_3" display="none">
</g>
<g>
	<path fill="#5D5E61" d="M15.014,97.446v-45.55L1.812,38.997L38.788,4.609h23.865l2.194,3.5c2.189,3.487,5.936,5.571,10.021,5.571
		s7.83-2.083,10.02-5.572l2.195-3.499h23.865l36.977,34.388l-13.202,12.899v45.55l-59.854,57.163L15.014,97.446z"/>
	<path d="M19.089,95.704V50.181L7.717,39.07L40.391,8.684h20.008l0.998,1.591c2.94,4.685,7.977,7.48,13.472,7.48
		s10.531-2.796,13.471-7.48l0.997-1.591h20.01L142.02,39.07l-11.372,11.11v45.523l-55.779,53.271L19.089,95.704z"/>
	<path fill="#5D5E61" d="M105.995,80.99c-0.642,2.166-1.5,4.239-2.557,6.188l7.089,9.387L99.714,107.38l-9.386-7.09
		c-1.949,1.058-4.024,1.914-6.188,2.558l-1.625,11.657H67.223l-1.626-11.657c-2.164-0.644-4.237-1.5-6.188-2.558l-9.387,7.09
		L39.208,96.565l7.092-9.388c-1.058-1.948-1.914-4.021-2.559-6.187l-11.656-1.625V64.075l11.656-1.625
		c0.645-2.166,1.501-4.238,2.559-6.187l-7.092-9.388l10.814-10.814l9.388,7.091c1.95-1.057,4.022-1.912,6.187-2.557l1.625-11.658
		h15.292l1.626,11.656c2.164,0.644,4.236,1.5,6.185,2.558l9.39-7.091l10.813,10.813l-7.09,9.388
		c1.058,1.949,1.914,4.022,2.559,6.188l11.656,1.624v15.292L105.995,80.99z M74.868,50.665c-11.627,0-21.057,9.426-21.057,21.057
		s9.43,21.056,21.057,21.056c11.63,0,21.057-9.425,21.057-21.056S86.498,50.665,74.868,50.665z M90.32,71.722
		c0,8.535-6.917,15.452-15.452,15.452c-8.532,0-15.452-6.917-15.452-15.452s6.92-15.452,15.452-15.452
		C83.403,56.27,90.32,63.187,90.32,71.722z M74.868,66.379c-2.95,0-5.343,2.393-5.343,5.343c0,2.949,2.393,5.343,5.343,5.343
		s5.343-2.394,5.343-5.343C80.211,68.771,77.818,66.379,74.868,66.379z"/>
</g>
</svg>
