<?xml version="1.0" encoding="utf-8"?>
<!-- Generator: Adobe Illustrator 15.1.0, SVG Export Plug-In . SVG Version: 6.00 Build 0)  -->
<!DOCTYPE svg PUBLIC "-//W3C//DTD SVG 1.1//EN" "http://www.w3.org/Graphics/SVG/1.1/DTD/svg11.dtd">
<svg version="1.1" id="Layer_1" xmlns="http://www.w3.org/2000/svg" xmlns:xlink="http://www.w3.org/1999/xlink" x="0px" y="0px"
	 width="150px" height="160px" viewBox="0 0 150 160" enable-background="new 0 0 150 160" xml:space="preserve">
<g id="Layer_1_1_">
</g>
<g id="Layer_3" display="none">
</g>
<g>
	<path fill="#FFFFFF" d="M15.553,97.994v-45.55L2.351,39.545L39.327,5.157h23.865l2.194,3.5c2.189,3.487,5.936,5.571,10.021,5.571
		s7.829-2.083,10.02-5.572l2.195-3.499h23.864l36.978,34.388l-13.202,12.899v45.55l-59.854,57.163L15.553,97.994z"/>
	<path d="M19.628,96.252V50.729L8.256,39.619L40.93,9.231h20.008l0.998,1.591c2.94,4.685,7.977,7.479,13.472,7.479
		c5.494,0,10.531-2.796,13.471-7.479l0.997-1.591h20.011l32.674,30.387l-11.373,11.11v45.523l-55.778,53.271L19.628,96.252z"/>
	<path fill="#FFFFFF" d="M106.534,81.538c-0.642,2.166-1.5,4.239-2.558,6.188l7.09,9.387l-10.813,10.813l-9.386-7.09
		c-1.949,1.058-4.024,1.914-6.188,2.558l-1.625,11.657H67.762l-1.626-11.657c-2.164-0.644-4.237-1.5-6.188-2.558l-9.387,7.09
		L39.747,97.113l7.092-9.389c-1.058-1.947-1.914-4.021-2.559-6.187l-11.656-1.625v-15.29l11.656-1.625
		c0.645-2.166,1.501-4.238,2.559-6.187l-7.092-9.388l10.814-10.814l9.388,7.091c1.95-1.057,4.022-1.912,6.187-2.557l1.625-11.658
		h15.292l1.627,11.656c2.163,0.644,4.235,1.5,6.184,2.558l9.391-7.091l10.813,10.813l-7.09,9.388
		c1.059,1.949,1.914,4.022,2.56,6.188l11.655,1.624v15.292L106.534,81.538z M75.407,51.213c-11.627,0-21.057,9.426-21.057,21.057
		c0,11.63,9.43,21.056,21.057,21.056c11.63,0,21.057-9.426,21.057-21.056C96.464,60.639,87.037,51.213,75.407,51.213z M90.859,72.27
		c0,8.535-6.918,15.453-15.452,15.453c-8.532,0-15.452-6.918-15.452-15.453c0-8.535,6.92-15.452,15.452-15.452
		C83.941,56.817,90.859,63.734,90.859,72.27z M75.407,66.927c-2.95,0-5.343,2.393-5.343,5.343c0,2.949,2.393,5.343,5.343,5.343
		s5.343-2.394,5.343-5.343C80.75,69.319,78.357,66.927,75.407,66.927z"/>
</g>
</svg>
