<?xml version="1.0" encoding="utf-8"?>
<!-- Generator: Adobe Illustrator 15.1.0, SVG Export Plug-In . SVG Version: 6.00 Build 0)  -->
<!DOCTYPE svg PUBLIC "-//W3C//DTD SVG 1.1//EN" "http://www.w3.org/Graphics/SVG/1.1/DTD/svg11.dtd">
<svg version="1.1" id="Layer_1" xmlns="http://www.w3.org/2000/svg" xmlns:xlink="http://www.w3.org/1999/xlink" x="0px" y="0px"
	 width="150px" height="160px" viewBox="0 0 150 160" enable-background="new 0 0 150 160" xml:space="preserve">
<g id="Layer_1_1_">
</g>
<g id="Layer_3" display="none">
</g>
<g>
	<path fill="#FFFFFF" d="M15.202,97.994v-45.55L2,39.545L38.977,5.157h23.865l2.194,3.5c2.189,3.487,5.936,5.571,10.021,5.571
		s7.83-2.083,10.02-5.572l2.195-3.499h23.865l36.977,34.388l-13.202,12.899v45.55l-59.854,57.163L15.202,97.994z"/>
	<path fill="#8D742F" d="M19.277,96.252V50.729L7.905,39.618L40.579,9.231h20.008l0.998,1.591c2.94,4.685,7.977,7.48,13.472,7.48
		s10.531-2.796,13.471-7.48l0.997-1.591h20.01l32.674,30.387l-11.372,11.11v45.523l-55.779,53.271L19.277,96.252z"/>
	<linearGradient id="SVGID_1_" gradientUnits="userSpaceOnUse" x1="12.8252" y1="78.7271" x2="137.2871" y2="78.7271">
		<stop  offset="0" style="stop-color:#8D742F"/>
		<stop  offset="0.0689" style="stop-color:#967D38"/>
		<stop  offset="0.1809" style="stop-color:#AE954F"/>
		<stop  offset="0.2" style="stop-color:#B39A54"/>
		<stop  offset="0.2218" style="stop-color:#B9A059"/>
		<stop  offset="0.3022" style="stop-color:#CAB068"/>
		<stop  offset="0.3903" style="stop-color:#D4BA71"/>
		<stop  offset="0.5" style="stop-color:#D7BD74"/>
		<stop  offset="0.6097" style="stop-color:#D4BA71"/>
		<stop  offset="0.6978" style="stop-color:#CAB068"/>
		<stop  offset="0.7782" style="stop-color:#B9A059"/>
		<stop  offset="0.8" style="stop-color:#B39A54"/>
		<stop  offset="0.8571" style="stop-color:#A38A45"/>
		<stop  offset="0.938" style="stop-color:#937A35"/>
		<stop  offset="1" style="stop-color:#8D742F"/>
	</linearGradient>
	<path fill="url(#SVGID_1_)" d="M75.057,144.827l52.384-50.028v-45.5l9.847-9.62L108.2,12.627H91.403
		c-3.414,5.441-9.449,9.071-16.347,9.071s-12.933-3.63-16.348-9.071H41.913L12.825,39.679l9.848,9.62v45.5L75.057,144.827z"/>
	<path fill="#8D742F" d="M64.456,118.448l-1.743-12.494c-0.934-0.341-1.853-0.721-2.75-1.137l-10.065,7.602l-14.99-14.993
		l7.601-10.065c-0.416-0.896-0.795-1.815-1.136-2.749L28.878,82.87V61.668l12.494-1.742c0.341-0.935,0.72-1.853,1.136-2.749
		l-7.601-10.064l14.99-14.994l10.066,7.604c0.896-0.416,1.813-0.795,2.749-1.136l1.742-12.496h21.202L87.4,38.583
		c0.934,0.341,1.852,0.721,2.748,1.136l10.064-7.601l14.993,14.991l-7.601,10.063c0.416,0.897,0.795,1.816,1.136,2.752l12.494,1.741
		v21.202l-12.491,1.742c-0.343,0.935-0.722,1.854-1.139,2.752l7.601,10.063l-14.99,14.993l-10.063-7.602
		c-0.898,0.416-1.816,0.796-2.752,1.137l-1.742,12.494H64.456z"/>
	<path fill="#FFFFFF" d="M106.184,81.538c-0.642,2.166-1.5,4.239-2.557,6.188l7.089,9.387l-10.813,10.814l-9.386-7.09
		c-1.949,1.058-4.024,1.914-6.188,2.558l-1.625,11.657H67.411l-1.626-11.657c-2.164-0.644-4.237-1.5-6.188-2.558l-9.387,7.09
		L39.396,97.113l7.092-9.388c-1.058-1.948-1.914-4.021-2.559-6.187l-11.656-1.625V64.623l11.656-1.625
		c0.645-2.166,1.501-4.238,2.559-6.187l-7.092-9.388l10.814-10.814l9.388,7.091c1.95-1.057,4.022-1.912,6.187-2.557l1.625-11.658
		h15.292l1.626,11.656c2.164,0.644,4.236,1.5,6.185,2.558l9.39-7.091l10.813,10.813l-7.09,9.388
		c1.058,1.949,1.914,4.022,2.559,6.188l11.656,1.624v15.292L106.184,81.538z M75.057,51.213C63.43,51.213,54,60.639,54,72.27
		s9.43,21.056,21.057,21.056c11.63,0,21.057-9.425,21.057-21.056S86.687,51.213,75.057,51.213z M90.509,72.27
		c0,8.535-6.917,15.452-15.452,15.452c-8.532,0-15.452-6.917-15.452-15.452s6.92-15.452,15.452-15.452
		C83.592,56.817,90.509,63.734,90.509,72.27z M75.057,66.927c-2.95,0-5.343,2.393-5.343,5.343c0,2.949,2.393,5.343,5.343,5.343
		s5.343-2.394,5.343-5.343C80.399,69.319,78.007,66.927,75.057,66.927z"/>
</g>
</svg>
