<?xml version="1.0" encoding="utf-8"?>
<!-- Generator: Adobe Illustrator 15.1.0, SVG Export Plug-In . SVG Version: 6.00 Build 0)  -->
<!DOCTYPE svg PUBLIC "-//W3C//DTD SVG 1.1//EN" "http://www.w3.org/Graphics/SVG/1.1/DTD/svg11.dtd">
<svg version="1.1" id="Layer_1" xmlns="http://www.w3.org/2000/svg" xmlns:xlink="http://www.w3.org/1999/xlink" x="0px" y="0px"
	 width="150px" height="160px" viewBox="0 0 150 160" enable-background="new 0 0 150 160" xml:space="preserve">
<g id="Layer_1_1_">
</g>
<g id="Layer_3" display="none">
</g>
<g>
	<path fill="#FFFFFF" d="M15.202,97.446v-45.55L2,38.997L38.977,4.609h23.865l2.194,3.5c2.189,3.487,5.936,5.571,10.021,5.571
		s7.83-2.083,10.02-5.572l2.195-3.499h23.865l36.977,34.388l-13.202,12.899v45.55l-59.854,57.163L15.202,97.446z"/>
	<path fill="#612C75" d="M19.277,95.704V50.181L7.905,39.07L40.579,8.684h20.008l0.998,1.591c2.94,4.685,7.977,7.48,13.472,7.48
		s10.531-2.796,13.471-7.48l0.997-1.591h20.01l32.674,30.387l-11.372,11.11v45.523l-55.779,53.271L19.277,95.704z"/>
	<linearGradient id="SVGID_1_" gradientUnits="userSpaceOnUse" x1="12.8252" y1="78.1792" x2="137.2871" y2="78.1792">
		<stop  offset="0" style="stop-color:#612C75"/>
		<stop  offset="0.0703" style="stop-color:#67357C"/>
		<stop  offset="0.1845" style="stop-color:#784D8D"/>
		<stop  offset="0.2" style="stop-color:#7B5190"/>
		<stop  offset="0.2344" style="stop-color:#8C639D"/>
		<stop  offset="0.2911" style="stop-color:#A37BAE"/>
		<stop  offset="0.3516" style="stop-color:#B38CBA"/>
		<stop  offset="0.4177" style="stop-color:#BC96C1"/>
		<stop  offset="0.5" style="stop-color:#BF99C3"/>
		<stop  offset="0.5823" style="stop-color:#BC96C1"/>
		<stop  offset="0.6484" style="stop-color:#B38CBA"/>
		<stop  offset="0.7089" style="stop-color:#A37BAE"/>
		<stop  offset="0.7656" style="stop-color:#8C639D"/>
		<stop  offset="0.8" style="stop-color:#7B5190"/>
		<stop  offset="0.8547" style="stop-color:#714285"/>
		<stop  offset="0.937" style="stop-color:#653279"/>
		<stop  offset="1" style="stop-color:#612C75"/>
	</linearGradient>
	<path fill="url(#SVGID_1_)" d="M75.057,144.279l52.384-50.028v-45.5l9.847-9.62L108.2,12.079H91.403
		c-3.414,5.441-9.449,9.071-16.347,9.071s-12.933-3.63-16.348-9.071H41.913L12.825,39.131l9.848,9.62v45.5L75.057,144.279z"/>
	<path fill="#612C75" d="M64.456,117.9l-1.743-12.494c-0.934-0.341-1.853-0.721-2.75-1.137l-10.065,7.602l-14.99-14.993
		l7.601-10.065c-0.416-0.896-0.795-1.815-1.136-2.749l-12.494-1.741V61.12l12.494-1.742c0.341-0.935,0.72-1.853,1.136-2.749
		l-7.601-10.064l14.99-14.994l10.066,7.604c0.896-0.416,1.813-0.795,2.749-1.136l1.742-12.496h21.202L87.4,38.035
		c0.934,0.341,1.852,0.721,2.748,1.136l10.064-7.601l14.993,14.991l-7.601,10.063c0.416,0.897,0.795,1.816,1.136,2.752l12.494,1.741
		V82.32l-12.491,1.742c-0.343,0.935-0.722,1.854-1.139,2.752l7.601,10.063l-14.99,14.993l-10.063-7.602
		c-0.898,0.416-1.816,0.796-2.752,1.137L85.658,117.9H64.456z"/>
	<path fill="#FFFFFF" d="M106.184,80.99c-0.642,2.166-1.5,4.239-2.557,6.188l7.089,9.387L99.902,107.38l-9.386-7.09
		c-1.949,1.058-4.024,1.914-6.188,2.558l-1.625,11.657H67.411l-1.626-11.657c-2.164-0.644-4.237-1.5-6.188-2.558l-9.387,7.09
		L39.396,96.565l7.092-9.388c-1.058-1.948-1.914-4.021-2.559-6.187l-11.656-1.625V64.075L43.93,62.45
		c0.645-2.166,1.501-4.238,2.559-6.187l-7.092-9.388l10.814-10.814l9.388,7.091c1.95-1.057,4.022-1.912,6.187-2.557l1.625-11.658
		h15.292l1.626,11.656c2.164,0.644,4.236,1.5,6.185,2.558l9.39-7.091l10.813,10.813l-7.09,9.388
		c1.058,1.949,1.914,4.022,2.559,6.188l11.656,1.624v15.292L106.184,80.99z M75.057,50.665C63.43,50.665,54,60.091,54,71.722
		s9.43,21.056,21.057,21.056c11.63,0,21.057-9.425,21.057-21.056S86.687,50.665,75.057,50.665z M90.509,71.722
		c0,8.535-6.917,15.452-15.452,15.452c-8.532,0-15.452-6.917-15.452-15.452s6.92-15.452,15.452-15.452
		C83.592,56.27,90.509,63.187,90.509,71.722z M75.057,66.379c-2.95,0-5.343,2.393-5.343,5.343c0,2.949,2.393,5.343,5.343,5.343
		s5.343-2.394,5.343-5.343C80.399,68.771,78.007,66.379,75.057,66.379z"/>
</g>
</svg>
