<?xml version="1.0" encoding="utf-8"?>
<!-- Generator: Adobe Illustrator 15.1.0, SVG Export Plug-In . SVG Version: 6.00 Build 0)  -->
<!DOCTYPE svg PUBLIC "-//W3C//DTD SVG 1.1//EN" "http://www.w3.org/Graphics/SVG/1.1/DTD/svg11.dtd">
<svg version="1.1" id="Layer_1" xmlns="http://www.w3.org/2000/svg" xmlns:xlink="http://www.w3.org/1999/xlink" x="0px" y="0px"
	 width="150px" height="160px" viewBox="0 0 150 160" enable-background="new 0 0 150 160" xml:space="preserve">
<g id="Layer_1_1_">
</g>
<g id="Layer_3" display="none">
</g>
<path d="M15.132,98.415V46.789L3.959,35.873L36.963,5.179h19.057c3.875,6.174,10.723,10.292,18.549,10.292
	s14.674-4.119,18.548-10.292h19.059l33.003,30.694l-11.173,10.916v51.626L74.569,155.18L15.132,98.415z M123.113,81.525V64.174
	l-13.226-1.843c-0.731-2.458-1.703-4.81-2.903-7.021l8.044-10.652L102.761,32.39l-10.654,8.045c-2.211-1.2-4.562-2.172-7.018-2.902
	l-1.845-13.226H65.894L64.05,37.535c-2.456,0.731-4.807,1.702-7.02,2.901l-10.652-8.045L34.108,44.661l8.046,10.652
	c-1.2,2.21-2.171,4.562-2.903,7.02l-13.226,1.844v17.35l13.226,1.844c0.731,2.457,1.703,4.809,2.903,7.02l-8.046,10.651
	l12.271,12.271l10.65-8.044c2.213,1.199,4.565,2.171,7.021,2.901l1.845,13.227h17.351l1.844-13.227
	c2.456-0.73,4.811-1.702,7.022-2.901l10.649,8.044l12.27-12.271l-8.044-10.65c1.199-2.212,2.173-4.564,2.901-7.021L123.113,81.525z
	 M98.461,72.852c0,13.197-10.695,23.891-23.892,23.891c-13.192,0-23.892-10.694-23.892-23.891S61.377,48.96,74.569,48.96
	C87.766,48.96,98.461,59.655,98.461,72.852z M74.569,55.319c-9.681,0-17.533,7.849-17.533,17.533s7.852,17.533,17.533,17.533
	c9.685,0,17.533-7.849,17.533-17.533S84.254,55.319,74.569,55.319z M80.632,72.852c0,3.347-2.715,6.063-6.063,6.063
	c-3.347,0-6.062-2.716-6.062-6.063c0-3.347,2.715-6.062,6.062-6.062C77.917,66.79,80.632,69.505,80.632,72.852z"/>
</svg>
