<?xml version="1.0" encoding="UTF-8" standalone="no"?>
<svg xmlns="http://www.w3.org/2000/svg" version="1.1" width="600" height="510.36133">
  <path d="m 419.33782,0 -239.77289,0 -1.14828,0.15311 c -16.1907,1.74793 -38.56933,13.40931 -46.04589,37.9314 -20.38829,5.62655 -96.99109,27.01001 -96.99109,27.01001 l -0.94414,0.345 C 21.23035,70.53021 0,87.57574 0,118.77058 c 0,5.57552 0.65017,11.61035 2.19448,18.14277 l 91.50488,341.4464 2.48793,3.38104 c 10.32173,13.80484 35.53278,34.93312 64.29073,26.7676 0,0 128.92593,-35.48174 139.59215,-38.42899 10.61518,2.94725 139.75801,38.48003 139.75801,38.48003 28.55381,8.11448 53.71382,-13.0138 64.08659,-26.81864 l 2.48793,-3.34276 91.35178,-340.83399 C 599.31103,130.82749 600,124.65231 600,118.97472 600,87.5247 578.82067,70.53021 565.66653,65.43952 l -0.94414,-0.345 c 0,0 -76.6028,-21.38346 -96.99109,-27.01001 C 460.25474,13.56242 437.82507,1.90104 421.68541,0.15311 L 420.53713,0 419.33782,0 z" style="fill:#ffffff"/>
  <path d="m 180.7132,21.72795 c 0,0 -29.3576,3.18965 -29.3576,33.59346 L 42.2183,85.72522 c 0,0 -27.26519,10.51311 -18.89553,46.199 L 113.5773,468.6882 c 0,0 18.89553,25.21105 40.91692,18.88277 l 145.57595,-40.02381 145.53767,40.02381 c 22.02139,6.32828 40.91692,-18.88277 40.91692,-18.88277 l 90.2035,-336.76398 c 8.42069,-35.68589 -18.8445,-46.199 -18.8445,-46.199 L 448.74646,55.32141 c 0,-30.40381 -29.40864,-33.59346 -29.40864,-33.59346 l -238.62462,0 z"/>
  <path d="m 181.65734,34.34623 c -1.33966,0.24292 -5.57552,1.18655 -9.51794,3.84035 -5.62655,3.72552 -8.21655,9.16069 -8.21655,17.13483 l 0,9.56898 c 0,0 -115.78455,32.30484 -117.46869,32.75139 -3.04931,1.39069 -12.1207,6.8769 -12.1207,21.37071 0,2.94724 0.40828,6.23896 1.25035,9.97724 0.1531,0.54913 88.00901,328.48364 89.4635,333.76571 3.82759,4.38897 15.24656,15.79518 26.01484,12.75863 l 149.00802,-41.01899 148.96974,41.01899 c 10.76828,3.03655 22.13622,-8.36966 26.01484,-12.75863 1.45448,-5.28207 89.3104,-333.21709 89.4635,-333.76571 0.84207,-3.73828 1.25035,-7.03 1.25035,-9.97724 0,-14.49381 -9.12242,-19.98002 -12.1207,-21.37071 C 551.96376,97.19472 436.12818,64.89039 436.12818,64.89039 l 0,-9.56898 c 0,-7.97414 -2.59,-13.40931 -8.16553,-17.13483 -3.94241,-2.6538 -8.17828,-3.59794 -9.56897,-3.84035 l -236.73634,0 z" style="fill:#ffffff"/>
  <path d="m 438.73094,81.54039 0,323.85226 c 0,0 -2.84518,20.97518 -19.59726,20.97518 l -90.9435,0 121.70456,33.59347 c 0,0 7.01724,3.49587 10.46207,-4.18483 l 89.55281,-332.27295 c 0,0 3.49587,-10.46207 -4.92483,-13.25621 L 438.73094,81.54039 z M 55.06623,110.94903 c -8.42069,2.78138 -4.88655,13.25622 -4.88655,13.25622 l 89.51453,332.27295 c 3.53414,7.66793 10.51311,4.18483 10.51311,4.18483 l 121.70456,-33.54244 -90.90523,0 c -16.84139,0 -19.58449,-21.03897 -19.58449,-21.03897 l 0,-323.8395 -106.35593,28.70691 z m 128.03284,-60.85865 234.29944,0 c 4.88656,0 5.57552,6.27724 5.57552,6.27724 l 0,348.32331 c 0,5.58827 -5.57552,6.97896 -5.57552,6.97896 l -234.29944,0 c -4.92484,0 -4.92484,-6.97896 -4.92484,-6.97896 l 0,-348.32331 c 0,-4.18483 4.92484,-6.27724 4.92484,-6.27724"/>
</svg>
