<?xml version="1.0" encoding="UTF-8" standalone="no"?>
<svg xmlns="http://www.w3.org/2000/svg" xmlns:xlink="http://www.w3.org/1999/xlink" version="1.1" width="600" height="510.31689">
  <radialGradient cx="0" cy="0" r="1" fx="0" fy="0" id="radialGradient3019" gradientUnits="userSpaceOnUse" gradientTransform="matrix(224.16862,0,0,224.16843,300.0699,255.74044)" spreadMethod="pad">
    <stop style="stop-color:#ebd491" offset="0"/>
    <stop style="stop-color:#d2bb7b" offset="0.7"/>
    <stop style="stop-color:#8b723c" offset="1"/>
  </radialGradient>
  <path d="M 419.35319,0 179.60068,0 178.4525,0.15309 C 162.25043,1.90087 139.82267,13.56126 132.34675,38.08126 112.02398,43.70734 35.42769,65.08898 35.42769,65.08898 L 34.4326,65.43292 C 21.26682,70.52318 0,87.56726 0,118.75945 c 0,5.57505 0.6889,11.60937 2.23257,18.14123 l 91.44606,341.41736 2.53875,3.38075 c 10.32086,13.80366 35.49149,34.93015 64.29802,26.76533 0,0 128.91497,-35.47873 139.52925,-38.42572 10.6653,2.94699 139.78439,38.47675 139.78439,38.47675 28.55138,8.11379 53.72202,-13.0127 64.0939,-26.81636 l 2.48772,-3.34248 91.29298,-340.805 C 599.29833,130.81533 600,124.64068 600,118.96357 600,87.51623 578.82247,70.52318 565.65669,65.43292 l -0.94406,-0.34394 c 0,0 -76.64732,-21.38164 -96.97008,-27.00772 -7.47592,-24.52 -29.90368,-36.18039 -46.05473,-37.92817 L 420.53964,0 419.35319,0 z"/>
  <path d="m 180.7361,21.72609 c 0,0 -29.39337,3.18939 -29.39337,33.59061 L 42.25298,85.71793 c 0,0 -27.26287,10.51221 -18.88117,46.19506 l 90.24686,336.73534 c 0,0 18.88117,25.20891 40.91344,18.88117 l 145.56357,-40.02041 145.51253,40.02041 c 21.98125,6.32774 40.91344,-18.88117 40.91344,-18.88117 L 576.73024,131.91299 C 585.09918,96.23014 557.83632,85.71793 557.83632,85.71793 L 448.74657,55.3167 c 0,-30.40122 -29.39338,-33.59061 -29.39338,-33.59061 l -238.61709,0 z" style="fill:#8b723c"/>
  <path d="m 181.69292,34.3433 c -1.3523,0.24291 -5.5878,1.18645 -9.51713,3.84002 -5.63883,3.7252 -8.22861,9.15992 -8.22861,17.13338 l 0,9.56816 c 0,0 -115.81298,32.3021 -117.4587,32.74861 -3.03629,1.39057 -12.10691,6.87632 -12.10691,21.36889 0,2.94699 0.34395,6.23844 1.23748,9.9764 0.1531,0.54806 87.96326,328.45569 89.40487,333.73732 3.89105,4.38859 15.30905,15.79384 26.01263,12.75754 l 149.0081,-41.0155 149.0081,41.0155 c 10.75461,3.0363 22.12158,-8.36895 26.01263,-12.75754 1.39057,-5.28163 89.25177,-333.18875 89.45589,-333.73732 0.842,-3.73796 1.23748,-7.02941 1.23748,-9.9764 0,-14.49257 -9.12164,-19.97832 -12.15794,-21.36889 -1.64572,-0.446 -117.4587,-32.74861 -117.4587,-32.74861 l 0,-9.56816 c 0,-7.97346 -2.58978,-13.40818 -8.17758,-17.13338 -3.98035,-2.65357 -8.16483,-3.59762 -9.56816,-3.84002 l -236.70345,0 z"/>
  <path d="m 438.68087,81.53345 0,323.82471 c 0,0 -2.79391,20.97341 -19.58283,20.97341 l -90.8975,0 121.69421,33.59061 c 0,0 6.97837,3.49556 10.46118,-4.18448 l 89.55795,-332.24469 c 0,0 3.48281,-10.46118 -4.93717,-13.25509 L 438.68087,81.53345 z M 55.11258,110.93959 c -8.41998,2.78114 -4.88614,13.25509 -4.88614,13.25509 l 89.50692,332.24469 c 3.48281,7.66728 10.51222,4.18447 10.51222,4.18447 l 121.6942,-33.53958 -90.94852,0 c -16.78893,0 -19.58283,-21.03719 -19.58283,-21.03719 l 0,-323.81195 -106.29585,28.70447 z m 127.97091,-60.85348 234.31779,0 c 4.88614,0 5.58781,6.27671 5.58781,6.27671 l 0,348.29368 c 0,5.5878 -5.58781,6.97838 -5.58781,6.97838 l -234.31779,0 c -4.88614,0 -4.88614,-6.97838 -4.88614,-6.97838 l 0,-348.29368 c 0,-4.18447 4.88614,-6.27671 4.88614,-6.27671" style="fill:#8b723c"/>
  <path d="m 184.43579,55.176041 c -0.65063,0.446514 -1.14818,0.944058 -1.14818,1.186451 v 0 348.242648 c 0,0.80373 0.29342,1.95191 -0.15309,1.95191 v 0 h 233.37373 c 0.65064,-0.30618 1.39058,-0.80373 1.39058,-1.90088 v 0 -347.694073 c -0.0893,-0.688907 -0.44652,-1.645723 -0.49755,-1.786056 v 0 z M 443.77112,406.04675 c -1.1992,8.77719 -7.88416,25.42578 -24.67308,25.42578 v 0 h -53.32653 l 86.31753,23.86936 c 0.20412,0.051 0.80373,0.2424 1.4416,0.2424 v 0 c 0.44652,0 1.30127,0 1.90088,-1.18646 v 0 l 89.59622,-332.49984 c 0.20412,-0.54857 1.74779,-5.72814 -1.33954,-6.72322 v 0 L 443.82215,88.20532 Z M 56.70727,115.77437 c -3.393507,1.13542 -1.849844,6.27671 -1.543663,7.11871 v 0 l 89.200743,331.40269 c 0.89303,1.99018 1.79881,1.99018 2.24533,1.99018 v 0 c 0.5996,0 1.23748,-0.20412 2.23257,-0.5996 v 0 l 85.4245,-23.52491 h -53.2755 c -16.78892,0 -23.47388,-16.63584 -24.67308,-26.11469 v 0 -317.139765 z" style="fill:url(#radialGradient3019)"/>
</svg>
