<?xml version="1.0" encoding="UTF-8" standalone="no"?>
<svg xmlns="http://www.w3.org/2000/svg" version="1.1" width="600" height="510.36133">
  <path d="M 180.71289 21.728516 C 180.71289 21.728516 151.35547 24.918456 151.35547 55.322266 L 42.21875 85.724609 C 42.21875 85.724609 14.952606 96.237938 23.322266 131.92383 L 113.57812 468.6875 C 113.57812 468.6875 132.47275 493.89859 154.49414 487.57031 L 300.07031 447.54688 L 445.60742 487.57031 C 467.62881 493.89859 486.52539 468.6875 486.52539 468.6875 L 576.72852 131.92383 C 585.14921 96.237938 557.88281 85.724609 557.88281 85.724609 L 448.74609 55.322266 C 448.74609 24.918456 419.33789 21.728516 419.33789 21.728516 L 180.71289 21.728516 z M 181.6582 34.345703 L 418.39453 34.345703 C 419.78522 34.588113 424.02048 35.5337 427.96289 38.1875 C 433.53842 41.91302 436.12891 47.348126 436.12891 55.322266 L 436.12891 64.890625 C 436.12891 64.890625 551.9643 97.195518 553.64844 97.642578 C 556.64672 99.033268 565.76953 104.51791 565.76953 119.01172 C 565.76953 121.95896 565.35965 125.25195 564.51758 128.99023 C 564.36448 129.53885 476.50917 457.47379 475.05469 462.75586 C 471.17607 467.14483 459.80734 478.55022 449.03906 475.51367 L 300.07031 434.49414 L 151.0625 475.51367 C 140.29422 478.55022 128.87446 467.14483 125.04688 462.75586 C 123.59238 457.47379 35.737084 129.53936 35.583984 128.99023 C 34.741914 125.25195 34.333984 121.95896 34.333984 119.01172 C 34.333984 104.51791 43.405768 99.033268 46.455078 97.642578 C 48.139218 97.196028 163.92188 64.890625 163.92188 64.890625 L 163.92188 55.322266 C 163.92188 47.348126 166.51212 41.91302 172.13867 38.1875 C 176.08109 35.5337 180.31854 34.588623 181.6582 34.345703 z M 183.09961 50.089844 C 183.09961 50.089844 178.17383 52.182358 178.17383 56.367188 L 178.17383 404.69141 C 178.17383 404.69141 178.17477 411.66992 183.09961 411.66992 L 417.39844 411.66992 C 417.39844 411.66992 422.97461 410.27968 422.97461 404.69141 L 422.97461 56.367188 C 422.97461 56.367188 422.285 50.089844 417.39844 50.089844 L 183.09961 50.089844 z M 438.73047 81.541016 L 438.73047 405.39258 C 438.73047 405.39258 435.88489 426.36719 419.13281 426.36719 L 328.18945 426.36719 L 449.89453 459.96094 C 449.89453 459.96094 456.91259 463.45804 460.35742 455.77734 L 549.91016 123.50391 C 549.91016 123.50391 553.40508 113.04219 544.98438 110.24805 L 438.73047 81.541016 z M 161.42188 82.242188 L 55.066406 110.94922 C 46.645716 113.7306 50.179688 124.20508 50.179688 124.20508 L 139.69336 456.47852 C 143.2275 464.14645 150.20703 460.66211 150.20703 460.66211 L 271.91211 427.12109 L 181.00586 427.12109 C 164.16447 427.12109 161.42187 406.08203 161.42188 406.08203 L 161.42188 82.242188 z "/>
</svg>
