<?xml version="1.0" encoding="utf-8"?>
<svg xmlns="http://www.w3.org/2000/svg" xmlns:xlink="http://www.w3.org/1999/xlink" version="1.1" id="Layer_1" width="167.514px" height="130px" viewBox="98.014 74.5 167.514 130">
  <path fill="#FFFFFF" d="M222.553,74.5h0.33c1.951,1.72,4.34,2.78,6.59,4.03c12.42,6.76,22.631,17.439,28.861,30.13   c7.299,14.66,9.129,31.939,5.1,47.81c-4.08,16.46-14.43,31.271-28.541,40.7c-3.789,2.77-8.32,4.36-11.969,7.33h-0.34   c-1.111-10.4-3.441-20.92-9.42-29.689c-3.141,6.369-8.432,11.699-14.971,14.539c-7.689,3.351-16.359,3.381-24.55,2.32   c3.29,3.59,6.72,7.03,9.96,10.67c-7.21-0.609-14.66-0.22-21.58-2.689c-14.96-5.021-27.43-15.58-37.27-27.681   c-8.851-10.88-17.9-21.579-26.74-32.47c9.039-11.05,18.189-22,27.22-33.05c9.74-11.86,22.069-22.15,36.78-27.101   c6.939-2.47,14.41-2.09,21.639-2.68c-3.289,3.59-6.699,7.07-10.009,10.65c7.729-0.971,15.829-1.021,23.2,1.779   c7.119,2.69,12.99,8.25,16.289,15.09C219.152,95.439,221.482,84.9,222.553,74.5 M125.244,115.23   c10.51-7.92,23.629-13.221,36.969-11.83c6.461,0.67,13.681,2.99,16.931,9.109c2.88,4.58,2.63,11.521-2.091,14.79   c-3.85,2.98-11.239,2.351-12.649-2.909c-0.22-4.711,5.7-6.32,9.31-4.49c-1.479-4.211-4.979-7.521-9.369-8.53   c-8.5-2.431-17.11,0.97-24.7,4.63c-12.91,6.38-24.75,14.71-36.12,23.5c8.26,6.42,16.8,12.5,25.779,17.87   c7.801,4.521,15.881,9.04,24.82,10.75c7.45,1.36,17.03-0.97,19.59-9.011c-3.459,1.541-8.449,0.621-9.359-3.549   c0.109-5.141,6.93-6.841,10.891-4.86c5.84,2.28,7.238,10.02,4.279,15.09c-3.07,6.569-10.6,9.16-17.34,9.819   c-13.34,1.351-26.54-3.89-36.98-11.939c10.73,15.54,26.4,29.17,45.4,32.8c-1.301-2.38-3.641-4.899-2.689-7.819   c0.84-2.08,3.229-2.74,5.27-2.311c5.311,0.74,10.74,1.13,16.07,0.23c7.559-1.07,14.84-5.65,18.299-12.58   c-3.34-1.7-6.549-4.21-7.74-7.91c-1.58-4.59,0.73-9.7,4.49-12.48c3.961-3.149,9.211-3.729,14.1-3.76   c-4.789,2.08-9.35,4.91-12.43,9.221c11.131,9.27,18.65,22.699,20.66,37.049c13.26-7.159,23.85-19.1,29.301-33.149   c5.42-13.79,5.84-29.47,1.219-43.54c-5.029-15.46-16.17-28.859-30.539-36.49c-1.99,14.301-9.471,27.721-20.59,36.93   c2.939,4.4,7.539,7.23,12.35,9.201c-4.689,0.129-9.66-0.471-13.561-3.28c-3.889-2.63-6.469-7.62-5.17-12.32   c1.041-3.93,4.381-6.67,7.881-8.42c-2.051-4.479-6.01-7.86-10.311-10.11c-7.699-3.88-16.66-3.26-24.949-2.21   c-2.41,0.46-4.95-1.7-4.59-4.2c0.39-2.229,1.82-4.069,2.92-5.989C151.613,86.16,136.014,99.76,125.244,115.23z"/>
  <path fill="#FFFFFF" d="M231.104,93.09c10.539,8.561,17.74,20.98,20.68,34.18c4.76,21.311-3.76,44.86-20.65,58.561   c1.281-4.2,3.93-7.77,5.76-11.721c6.602-13.459,9.891-28.819,7.801-43.779c-1.41-11.04-5.359-21.67-10.93-31.28   C232.674,97.17,231.773,95.17,231.104,93.09z"/>
  <linearGradient id="SVGID_1_" gradientUnits="userSpaceOnUse" x1="221.375" y1="199.1748" x2="156.6011" y2="86.9831">
    <stop offset="0.1" style="stop-color:#612c75"/>
    <stop offset="0.5" style="stop-color:#bf99c3"/>
    <stop offset="0.9" style="stop-color:#612c75"/>
  </linearGradient>
  <path fill="url(#SVGID_1_)" d="M125.244,115.23c10.77-15.471,26.369-29.07,45.35-32.7c-1.1,1.92-2.53,3.76-2.92,5.989   c-0.36,2.5,2.18,4.66,4.59,4.2c8.289-1.05,17.25-1.67,24.949,2.21c4.301,2.25,8.26,5.631,10.311,10.11   c-3.5,1.75-6.84,4.49-7.881,8.42c-1.299,4.7,1.281,9.69,5.17,12.32c3.9,2.81,8.871,3.409,13.561,3.28   c-4.811-1.971-9.41-4.801-12.35-9.201c11.119-9.209,18.6-22.629,20.59-36.93c14.369,7.631,25.51,21.03,30.539,36.49   c4.621,14.07,4.201,29.75-1.219,43.54c-5.451,14.05-16.041,25.99-29.301,33.149c-2.01-14.35-9.529-27.779-20.66-37.049   c3.08-4.311,7.641-7.141,12.43-9.221c-4.889,0.03-10.139,0.61-14.1,3.76c-3.76,2.78-6.07,7.891-4.49,12.48   c1.191,3.7,4.4,6.21,7.74,7.91c-3.459,6.93-10.74,11.51-18.299,12.58c-5.33,0.899-10.76,0.51-16.07-0.23   c-2.04-0.43-4.43,0.23-5.27,2.311c-0.951,2.92,1.389,5.439,2.689,7.819c-19-3.63-34.67-17.26-45.4-32.8   c10.44,8.05,23.641,13.29,36.98,11.939c6.74-0.659,14.27-3.25,17.34-9.819c2.959-5.07,1.561-12.81-4.279-15.09   c-3.961-1.98-10.781-0.28-10.891,4.86c0.91,4.17,5.9,5.09,9.359,3.549c-2.56,8.041-12.14,10.371-19.59,9.011   c-8.939-1.71-17.02-6.229-24.82-10.75c-8.979-5.37-17.52-11.45-25.779-17.87c11.37-8.79,23.21-17.12,36.12-23.5   c7.59-3.66,16.2-7.061,24.7-4.63c4.39,1.01,7.89,4.319,9.369,8.53c-3.609-1.83-9.529-0.221-9.31,4.49   c1.41,5.26,8.8,5.89,12.649,2.909c4.721-3.27,4.971-10.21,2.091-14.79c-3.25-6.119-10.47-8.439-16.931-9.109   C148.873,102.01,135.754,107.311,125.244,115.23 M231.104,93.09c0.67,2.08,1.57,4.08,2.66,5.96c5.57,9.61,9.52,20.24,10.93,31.28   c2.09,14.96-1.199,30.32-7.801,43.779c-1.83,3.951-4.479,7.521-5.76,11.721c16.891-13.7,25.41-37.25,20.65-58.561   C248.844,114.07,241.643,101.65,231.104,93.09z"/>
</svg>
