<?xml version="1.0" encoding="utf-8"?>
<svg xmlns="http://www.w3.org/2000/svg" xmlns:xlink="http://www.w3.org/1999/xlink" version="1.1" id="Layer_1" width="167.514px" height="130px" viewBox="98.014 74.5 167.514 130">
  <path d="M125.244,115.23c10.77-15.471,26.369-29.07,45.35-32.7c-1.1,1.92-2.53,3.76-2.92,5.989   c-0.36,2.5,2.18,4.66,4.59,4.2c8.289-1.05,17.25-1.67,24.949,2.21c4.301,2.25,8.26,5.631,10.311,10.11   c-3.5,1.75-6.84,4.49-7.881,8.42c-1.299,4.7,1.281,9.69,5.17,12.32c3.9,2.81,8.871,3.409,13.561,3.28   c-4.811-1.971-9.41-4.801-12.35-9.201c11.119-9.209,18.6-22.629,20.59-36.93c14.369,7.631,25.51,21.03,30.539,36.49   c4.621,14.07,4.201,29.75-1.219,43.54c-5.451,14.05-16.041,25.99-29.301,33.149c-2.01-14.35-9.529-27.779-20.66-37.049   c3.08-4.311,7.641-7.141,12.43-9.221c-4.889,0.03-10.139,0.61-14.1,3.76c-3.76,2.78-6.07,7.891-4.49,12.48   c1.191,3.7,4.4,6.21,7.74,7.91c-3.459,6.93-10.74,11.51-18.299,12.58c-5.33,0.899-10.76,0.51-16.07-0.23   c-2.04-0.43-4.43,0.23-5.27,2.311c-0.951,2.92,1.389,5.439,2.689,7.819c-19-3.63-34.67-17.26-45.4-32.8   c10.44,8.05,23.641,13.29,36.98,11.939c6.74-0.659,14.27-3.25,17.34-9.819c2.959-5.07,1.561-12.81-4.279-15.09   c-3.961-1.98-10.781-0.28-10.891,4.86c0.91,4.17,5.9,5.09,9.359,3.549c-2.56,8.041-12.14,10.371-19.59,9.011   c-8.939-1.71-17.02-6.229-24.82-10.75c-8.979-5.37-17.52-11.45-25.779-17.87c11.37-8.79,23.21-17.12,36.12-23.5   c7.59-3.66,16.2-7.061,24.7-4.63c4.39,1.01,7.89,4.319,9.369,8.53c-3.609-1.83-9.529-0.221-9.31,4.49   c1.41,5.26,8.8,5.89,12.649,2.909c4.721-3.27,4.971-10.21,2.091-14.79c-3.25-6.119-10.47-8.439-16.931-9.109   C148.873,102.01,135.754,107.311,125.244,115.23 M231.104,93.09c0.67,2.08,1.57,4.08,2.66,5.96c5.57,9.61,9.52,20.24,10.93,31.28   c2.09,14.96-1.199,30.32-7.801,43.779c-1.83,3.951-4.479,7.521-5.76,11.721c16.891-13.7,25.41-37.25,20.65-58.561   C248.844,114.07,241.643,101.65,231.104,93.09z"/>
</svg>
