<?xml version="1.0" encoding="utf-8"?>
<!-- Generator: Adobe Illustrator 15.1.0, SVG Export Plug-In . SVG Version: 6.00 Build 0)  -->
<!DOCTYPE svg PUBLIC "-//W3C//DTD SVG 1.1//EN" "http://www.w3.org/Graphics/SVG/1.1/DTD/svg11.dtd">
<svg version="1.1" id="Layer_1" xmlns="http://www.w3.org/2000/svg" xmlns:xlink="http://www.w3.org/1999/xlink" x="0px" y="0px"
	 width="160px" height="78px" viewBox="0 0 160 78" enable-background="new 0 0 160 78" xml:space="preserve">
<g id="Layer_1_1_">
</g>
<g id="Layer_3" display="none">
</g>
<g>
	<path fill="#FFFFFF" d="M143.363,13.918c0,0,2.354-3.814,2.387-3.875c0.574-1.104,1.669-2.547,1.048-3.625
		c-0.541-0.941-1.69-0.889-2.935-0.889H92.077c-3.206-1.842-7.214-2.805-11.795-2.805s-8.591,0.961-11.794,2.805H16.701
		c-1.244,0-2.396-0.053-2.937,0.889c-0.621,1.077,0.476,2.521,1.049,3.625c0.031,0.061,2.387,3.875,2.387,3.875H5.282L8.815,19.4
		c0.55,0.853,13.675,21.086,32.559,38.869l1.027,0.97h16.335c1.186,1.075,2.329,2.103,3.411,3.067l1.012,0.898
		c0,0,2.282,2.003,3.078,2.691c11.187,9.664,12.705,9.664,14.045,9.664c1.34,0,2.858,0,14.044-9.664
		c0.798-0.688,3.078-2.691,3.078-2.691l1.013-0.898c1.079-0.963,2.222-1.99,3.41-3.067h16.336l1.026-0.97
		c18.885-17.783,32.01-38.017,32.56-38.869l3.533-5.482H143.363L143.363,13.918z"/>
	<path d="M78.133,36.51c0,0-1.915,4.104-7.421,4.104c-4.308,0-4.583-3.112-4.583-4.343c0-1.231,1.162-3.111,2.564-3.111
		C70.095,33.16,74.201,35.725,78.133,36.51z M143.611,24.861c3.299-4.519,5.147-7.387,5.147-7.387H97.948
		c0.155,0.951,0.245,1.937,0.245,2.963c0,6.226-1.641,5.813-1.641,10.736c0,3.285,1.301,3.831,1.572,4.721
		c0.275,0.889,0,3.692-1.23,6.019c-1.229,2.323-2.871,3.282-4.033,3.282c-1.164,0-1.713-0.615-2.189-0.615
		c-0.479,0-1.572,0.615-1.572,2.188c0,1.574,1.094,1.642,1.094,2.806c0,0.819,0,1.778,0,2.323c0,0.549-1.024,2.6-3.418,2.6
		c0,0,0-0.512,0-0.887c0-0.379,0.272-0.688,0.272-1.164c0-0.479-0.582-0.854-0.991-0.854c-0.41,0-0.994,0.343-0.994,1.196
		c0,0.548,0.445,0.924,0.207,1.47c-0.238,0.548-2.975,0.479-3.487,0.515s-0.82-0.308-0.82-0.854s0.142-2.358-0.679-2.358
		c-0.821,0-0.68,1.812-0.68,2.358s-0.307,0.89-0.82,0.854s-3.25,0.033-3.488-0.515c-0.24-0.546,0.205-0.922,0.205-1.47
		c0-0.854-0.581-1.196-0.991-1.196c-0.409,0-0.991,0.376-0.991,0.854c0,0.478,0.273,0.785,0.273,1.164c0,0.375,0,0.887,0,0.887
		c-2.394,0-3.421-2.051-3.421-2.6c0-0.545,0-1.504,0-2.323c0-1.164,1.096-1.23,1.096-2.806c0-1.572-1.096-2.188-1.574-2.188
		c-0.479,0-1.025,0.615-2.188,0.615c-1.164,0-2.804-0.959-4.035-3.282c-1.232-2.325-1.506-5.129-1.232-6.019
		c0.274-0.891,1.573-1.437,1.573-4.721c0-4.923-1.641-4.512-1.641-10.736c0-1.026,0.091-2.013,0.246-2.963h-50.81
		c0,0,1.849,2.869,5.146,7.387h15.955c0.82,0.982,1.632,1.947,2.435,2.888H19.093c1.678,2.229,3.615,4.726,5.778,7.386h16.946
		c0.896,0.994,1.775,1.958,2.633,2.889H27.257c2,2.387,4.164,4.871,6.464,7.384h17.754c1.014,1.032,1.972,1.998,2.875,2.889H36.41
		c2.351,2.476,4.824,4.958,7.404,7.388H60.11c1.577,1.436,3.042,2.756,4.403,3.967H96.05c1.361-1.211,2.826-2.531,4.403-3.967
		h16.298c2.579-2.43,5.054-4.912,7.403-7.388h-17.94c0.901-0.891,1.861-1.856,2.875-2.889h17.754
		c2.302-2.515,4.464-4.997,6.464-7.384h-17.193c0.859-0.932,1.738-1.895,2.634-2.889h16.944c2.164-2.66,4.102-5.156,5.779-7.386
		h-16.248c0.803-0.94,1.615-1.904,2.437-2.888H143.611z M91.87,33.16c-1.403,0-5.509,2.564-9.438,3.35c0,0,1.914,4.104,7.42,4.104
		c4.31,0,4.584-3.112,4.584-4.343C94.436,35.04,93.271,33.16,91.87,33.16z M80.282,39.543c-0.615,0-1.544,1.458-2.093,2.758
		c-0.547,1.299-1.664,3.146-0.455,3.146c0.843,0,1.476-1.438,2.548-1.438c1.071,0,1.704,1.438,2.547,1.438
		c1.21,0,0.094-1.848-0.455-3.146C81.826,41.001,80.896,39.543,80.282,39.543z M96.945,13.918h42.174
		c2.09-3.119,2.982-4.834,2.982-4.834H93.516C95.016,10.432,96.161,12.061,96.945,13.918z M80.282,72.006
		c0.721,0,3.946-2.082,11.719-8.8H68.563C76.336,69.924,79.561,72.006,80.282,72.006z M67.048,9.084H18.462
		c0,0,0.893,1.715,2.981,4.834h42.174C64.403,12.061,65.549,10.432,67.048,9.084z"/>
</g>
</svg>
