<?xml version="1.0" encoding="utf-8"?>
<!-- Generator: Adobe Illustrator 15.1.0, SVG Export Plug-In . SVG Version: 6.00 Build 0)  -->
<!DOCTYPE svg PUBLIC "-//W3C//DTD SVG 1.1//EN" "http://www.w3.org/Graphics/SVG/1.1/DTD/svg11.dtd">
<svg version="1.1" id="Layer_1" xmlns="http://www.w3.org/2000/svg" xmlns:xlink="http://www.w3.org/1999/xlink" x="0px" y="0px"
	 width="160px" height="78px" viewBox="0 0 160 78" enable-background="new 0 0 160 78" xml:space="preserve">
<g id="Layer_1_1_">
</g>
<g id="Layer_3" display="none">
</g>
<g>
	<path d="M143.461,13.919c0,0,2.354-3.815,2.387-3.876c0.574-1.103,1.669-2.547,1.048-3.624c-0.541-0.941-1.69-0.889-2.935-0.889
		H92.175c-3.206-1.842-7.214-2.804-11.795-2.804c-4.581,0-8.591,0.962-11.794,2.804H16.799c-1.244,0-2.396-0.052-2.937,0.889
		c-0.621,1.077,0.476,2.521,1.049,3.624c0.031,0.061,2.387,3.876,2.387,3.876H5.38l3.533,5.482
		c0.55,0.853,13.675,21.086,32.559,38.87l1.027,0.969h16.335c1.186,1.075,2.329,2.103,3.411,3.066l1.012,0.901
		c0,0,2.282,2,3.078,2.689c11.187,9.665,12.705,9.665,14.045,9.665s2.859,0,14.044-9.665c0.798-0.689,3.079-2.689,3.079-2.689
		l1.012-0.901c1.079-0.96,2.222-1.989,3.41-3.066h16.336l1.027-0.969c18.884-17.783,32.009-38.017,32.559-38.87l3.533-5.482H143.461
		z"/>
	<linearGradient id="SVGID_1_" gradientUnits="userSpaceOnUse" x1="11.9028" y1="38.5615" x2="148.8574" y2="38.5615">
		<stop  offset="0" style="stop-color:#BB2C26"/>
		<stop  offset="0.0737" style="stop-color:#C43E25"/>
		<stop  offset="0.2216" style="stop-color:#DB6E23"/>
		<stop  offset="0.25" style="stop-color:#E07823"/>
		<stop  offset="0.4023" style="stop-color:#F18F1F"/>
		<stop  offset="0.5" style="stop-color:#F7981D"/>
		<stop  offset="0.5977" style="stop-color:#F18F1F"/>
		<stop  offset="0.75" style="stop-color:#E07823"/>
		<stop  offset="0.7784" style="stop-color:#DB6E23"/>
		<stop  offset="0.9263" style="stop-color:#C43E25"/>
		<stop  offset="1" style="stop-color:#BB2C26"/>
	</linearGradient>
	<path fill="url(#SVGID_1_)" d="M143.709,24.862c3.299-4.519,5.148-7.388,5.148-7.388h-48.721c0.138,0.957,0.208,1.944,0.208,2.964
		c0,3.614-0.525,5.258-0.991,6.707c-0.361,1.136-0.651,2.034-0.651,4.029c0,1.706,0.394,2.259,0.772,2.795
		c0.239,0.337,0.538,0.756,0.71,1.322c0.467,1.513,0.072,4.843-1.379,7.581c-1.427,2.698-3.667,4.375-5.847,4.375
		c-0.3,0-0.615,0-0.615,0s0,1.636,0,2.325v2.325c0,3.334-2.668,4.411-7.463,4.799c-1.912,0.155-2.522,0.121-4.501,0.121
		s-2.588,0.034-4.501-0.121c-4.794-0.388-7.462-1.465-7.462-4.799v-2.325c0-0.689,0-2.325,0-2.325s-0.317,0-0.615,0
		c-2.18,0-4.42-1.677-5.847-4.375c-1.451-2.738-1.846-6.068-1.381-7.581c0.174-0.565,0.471-0.984,0.712-1.322
		c0.379-0.536,0.772-1.089,0.772-2.795c0-1.996-0.29-2.894-0.651-4.029c-0.465-1.449-0.991-3.093-0.991-6.707
		c0-1.021,0.07-2.008,0.208-2.964H11.903c0,0,1.849,2.87,5.146,7.388h15.955c0.82,0.982,1.632,1.945,2.435,2.887H19.191
		c1.678,2.23,3.615,4.725,5.778,7.386h16.946c0.896,0.994,1.775,1.958,2.633,2.888H27.354c2,2.387,4.164,4.87,6.464,7.385h17.754
		c1.014,1.032,1.972,1.997,2.875,2.888h-17.94c2.351,2.475,4.824,4.958,7.404,7.387h16.297c1.577,1.436,3.042,2.757,4.403,3.967
		h31.537c1.361-1.21,2.826-2.531,4.403-3.967h16.298c2.579-2.429,5.053-4.912,7.403-7.387h-17.94
		c0.901-0.891,1.861-1.855,2.875-2.888h17.754c2.301-2.515,4.463-4.998,6.464-7.385h-17.193c0.858-0.931,1.737-1.894,2.633-2.888
		h16.944c2.164-2.661,4.102-5.156,5.78-7.386h-16.248c0.803-0.941,1.615-1.904,2.436-2.887H143.709z"/>
	<path fill="#BB2C26" d="M68.661,63.207h23.438c-7.772,6.716-10.998,8.799-11.719,8.799C79.658,72.006,76.434,69.923,68.661,63.207z
		 M139.217,13.919c2.09-3.119,2.983-4.834,2.983-4.834H96.466c1.206,1.423,2.142,3.043,2.792,4.834H139.217z M18.56,9.085
		c0,0,0.893,1.715,2.981,4.834h39.961c0.648-1.791,1.585-3.411,2.792-4.834H18.56z"/>
	<path fill="#FFFFFF" d="M96.993,41.913c-1.23,2.324-2.871,3.283-4.034,3.283c-1.164,0-1.712-0.615-2.189-0.615
		c-0.479,0-1.573,0.615-1.573,2.188s1.095,1.641,1.095,2.804c0,0.82,0,1.778,0,2.325c0,0.548-1.025,2.599-3.419,2.599
		c0,0,0-0.512,0-0.888c0-0.378,0.273-0.686,0.273-1.163c0-0.479-0.582-0.855-0.992-0.855s-0.993,0.342-0.993,1.196
		c0,0.548,0.445,0.924,0.207,1.47c-0.239,0.549-2.975,0.479-3.488,0.514c-0.514,0.035-0.82-0.307-0.82-0.854
		s0.142-2.359-0.679-2.359s-0.679,1.812-0.679,2.359s-0.307,0.89-0.82,0.854c-0.513-0.034-3.25,0.035-3.488-0.514
		c-0.24-0.546,0.205-0.922,0.205-1.47c0-0.854-0.581-1.196-0.991-1.196s-0.992,0.376-0.992,0.855c0,0.478,0.274,0.785,0.274,1.163
		c0,0.376,0,0.888,0,0.888c-2.394,0-3.421-2.051-3.421-2.599c0-0.547,0-1.505,0-2.325c0-1.163,1.096-1.23,1.096-2.804
		s-1.096-2.188-1.574-2.188c-0.479,0-1.025,0.615-2.188,0.615c-1.164,0-2.804-0.959-4.035-3.283
		c-1.232-2.325-1.506-5.129-1.232-6.018s1.573-1.436,1.573-4.72c0-4.924-1.641-4.512-1.641-10.736
		c0-9.301,6.389-15.662,17.913-15.662c11.524,0,17.912,6.361,17.912,15.662c0,6.225-1.641,5.813-1.641,10.736
		c0,3.285,1.3,3.831,1.572,4.72C98.499,36.784,98.224,39.588,96.993,41.913z M68.792,33.16c-1.403,0-2.564,1.88-2.564,3.11
		s0.274,4.343,4.583,4.343c5.506,0,7.421-4.103,7.421-4.103C74.298,35.725,70.195,33.16,68.792,33.16z M82.529,36.51
		c0,0,1.914,4.103,7.419,4.103c4.31,0,4.584-3.112,4.584-4.343s-1.163-3.11-2.564-3.11C90.564,33.16,86.46,35.725,82.529,36.51z
		 M78.288,42.301c-0.548,1.3-1.665,3.146-0.455,3.146c0.842,0,1.475-1.437,2.547-1.437c1.072,0,1.704,1.437,2.547,1.437
		c1.21,0,0.094-1.847-0.455-3.146c-0.548-1.3-1.477-2.758-2.092-2.758S78.836,41.001,78.288,42.301z"/>
</g>
</svg>
