<?xml version="1.0" encoding="utf-8"?>
<!-- Generator: Adobe Illustrator 15.1.0, SVG Export Plug-In . SVG Version: 6.00 Build 0)  -->
<!DOCTYPE svg PUBLIC "-//W3C//DTD SVG 1.1//EN" "http://www.w3.org/Graphics/SVG/1.1/DTD/svg11.dtd">
<svg version="1.1" id="Layer_1" xmlns="http://www.w3.org/2000/svg" xmlns:xlink="http://www.w3.org/1999/xlink" x="0px" y="0px"
	 width="160px" height="78px" viewBox="0 0 160 78" enable-background="new 0 0 160 78" xml:space="preserve">
<g id="Layer_1_1_">
</g>
<g id="Layer_3" display="none">
</g>
<g>
	<path d="M143.094,13.919c0,0,2.354-3.815,2.389-3.876c0.572-1.103,1.668-2.547,1.048-3.624c-0.541-0.941-1.692-0.889-2.937-0.889
		H91.808c-3.205-1.842-7.214-2.804-11.794-2.804S71.422,3.688,68.219,5.53H16.433c-1.245,0-2.396-0.052-2.937,0.889
		c-0.621,1.077,0.476,2.521,1.049,3.624c0.031,0.061,2.387,3.876,2.387,3.876H5.014l3.533,5.482
		c0.55,0.853,13.675,21.086,32.559,38.869l1.027,0.969h16.335c1.186,1.075,2.328,2.103,3.411,3.065l1.011,0.901
		c0,0,2.282,2.001,3.078,2.69c11.186,9.664,12.704,9.664,14.045,9.664c1.341,0,2.859,0,14.043-9.664
		c0.798-0.689,3.08-2.69,3.08-2.69l1.011-0.901c1.079-0.96,2.222-1.988,3.411-3.065h16.335l1.027-0.969
		c18.886-17.783,32.011-38.016,32.561-38.869l3.532-5.482H143.094z"/>
	<linearGradient id="SVGID_1_" gradientUnits="userSpaceOnUse" x1="11.5371" y1="38.562" x2="148.4912" y2="38.562">
		<stop  offset="0" style="stop-color:#8D742F"/>
		<stop  offset="0.1336" style="stop-color:#9F8641"/>
		<stop  offset="0.25" style="stop-color:#B39A54"/>
		<stop  offset="0.2646" style="stop-color:#B69D57"/>
		<stop  offset="0.4104" style="stop-color:#CEB46C"/>
		<stop  offset="0.5" style="stop-color:#D7BD74"/>
		<stop  offset="0.5896" style="stop-color:#CEB46C"/>
		<stop  offset="0.7354" style="stop-color:#B69D57"/>
		<stop  offset="0.75" style="stop-color:#B39A54"/>
		<stop  offset="0.8664" style="stop-color:#9F8641"/>
		<stop  offset="1" style="stop-color:#8D742F"/>
	</linearGradient>
	<path fill="url(#SVGID_1_)" d="M143.342,24.862c3.299-4.519,5.149-7.388,5.149-7.388H99.77c0.138,0.956,0.208,1.944,0.208,2.964
		c0,3.614-0.525,5.258-0.99,6.708c-0.362,1.135-0.651,2.033-0.651,4.029c0,1.706,0.393,2.259,0.771,2.795
		c0.24,0.338,0.538,0.756,0.71,1.322c0.468,1.513,0.072,4.843-1.378,7.581c-1.428,2.698-3.668,4.375-5.848,4.375
		c-0.3,0-0.615,0-0.615,0s0,1.636,0,2.325v2.324c0,3.335-2.668,4.412-7.462,4.8c-1.913,0.155-2.523,0.121-4.501,0.121
		s-2.588,0.034-4.501-0.121c-4.794-0.388-7.462-1.465-7.462-4.8v-2.324c0-0.689,0-2.325,0-2.325s-0.317,0-0.615,0
		c-2.18,0-4.42-1.677-5.847-4.375c-1.451-2.738-1.846-6.068-1.38-7.581c0.174-0.565,0.471-0.984,0.712-1.322
		c0.379-0.536,0.772-1.089,0.772-2.795c0-1.996-0.29-2.894-0.651-4.029c-0.465-1.45-0.991-3.094-0.991-6.708
		c0-1.02,0.071-2.008,0.209-2.964h-48.72c0,0,1.849,2.869,5.146,7.388h15.955c0.82,0.982,1.632,1.946,2.435,2.887H18.825
		c1.679,2.23,3.616,4.725,5.778,7.386h16.946c0.896,0.994,1.775,1.958,2.633,2.888H26.988c2.001,2.387,4.164,4.87,6.464,7.385
		h17.753c1.014,1.032,1.972,1.997,2.875,2.888h-17.94c2.351,2.475,4.824,4.958,7.404,7.387h16.297
		c1.577,1.436,3.042,2.757,4.403,3.967h31.537c1.362-1.21,2.827-2.531,4.403-3.967h16.298c2.58-2.429,5.053-4.912,7.403-7.387
		h-17.939c0.901-0.891,1.86-1.855,2.874-2.888h17.754c2.301-2.515,4.463-4.998,6.464-7.385h-17.193
		c0.858-0.931,1.737-1.894,2.633-2.888h16.944c2.164-2.661,4.102-5.156,5.78-7.386h-16.248c0.803-0.941,1.615-1.904,2.436-2.887
		H143.342z"/>
	<path fill="#8D742F" d="M68.295,63.206h23.437c-7.771,6.716-10.998,8.8-11.718,8.8C79.291,72.006,76.067,69.922,68.295,63.206z
		 M138.852,13.919c2.088-3.12,2.98-4.834,2.98-4.834H96.099c1.206,1.423,2.143,3.043,2.792,4.834H138.852z M18.194,9.085
		c0,0,0.893,1.714,2.981,4.834h39.96c0.648-1.791,1.586-3.411,2.792-4.834H18.194z"/>
	<path fill="#FFFFFF" d="M96.626,41.913c-1.23,2.324-2.871,3.283-4.034,3.283s-1.711-0.615-2.188-0.615
		c-0.479,0-1.573,0.615-1.573,2.188s1.094,1.641,1.094,2.804c0,0.82,0,1.778,0,2.324c0,0.549-1.025,2.6-3.419,2.6
		c0,0,0-0.513,0-0.888c0-0.378,0.274-0.687,0.274-1.163c0-0.479-0.583-0.855-0.993-0.855s-0.992,0.342-0.992,1.196
		c0,0.548,0.444,0.924,0.207,1.47c-0.24,0.548-2.975,0.479-3.488,0.514s-0.82-0.307-0.82-0.854s0.142-2.359-0.679-2.359
		c-0.82,0-0.679,1.812-0.679,2.359s-0.307,0.889-0.82,0.854c-0.514-0.034-3.25,0.034-3.488-0.514
		c-0.239-0.546,0.205-0.922,0.205-1.47c0-0.854-0.581-1.196-0.991-1.196s-0.993,0.376-0.993,0.855c0,0.477,0.274,0.785,0.274,1.163
		c0,0.375,0,0.888,0,0.888c-2.394,0-3.421-2.051-3.421-2.6c0-0.546,0-1.504,0-2.324c0-1.163,1.096-1.23,1.096-2.804
		s-1.096-2.188-1.573-2.188c-0.479,0-1.025,0.615-2.189,0.615c-1.163,0-2.804-0.959-4.034-3.283
		c-1.232-2.325-1.506-5.129-1.232-6.018c0.274-0.889,1.573-1.436,1.573-4.72c0-4.923-1.641-4.512-1.641-10.736
		c0-9.301,6.388-15.662,17.912-15.662s17.913,6.361,17.913,15.662c0,6.225-1.641,5.813-1.641,10.736c0,3.285,1.299,3.831,1.571,4.72
		C98.133,36.784,97.856,39.588,96.626,41.913z M68.426,33.16c-1.403,0-2.564,1.88-2.564,3.111s0.274,4.342,4.583,4.342
		c5.506,0,7.42-4.103,7.42-4.103C73.932,35.725,69.829,33.16,68.426,33.16z M82.162,36.51c0,0,1.915,4.103,7.419,4.103
		c4.311,0,4.584-3.112,4.584-4.342s-1.163-3.111-2.564-3.111C90.198,33.16,86.093,35.725,82.162,36.51z M77.921,42.301
		c-0.548,1.299-1.665,3.146-0.455,3.146c0.843,0,1.475-1.438,2.547-1.438s1.705,1.438,2.547,1.438c1.21,0,0.093-1.848-0.455-3.146
		c-0.548-1.3-1.477-2.758-2.092-2.758C79.398,39.543,78.469,41.001,77.921,42.301z"/>
</g>
</svg>
