<?xml version="1.0" encoding="utf-8"?>
<!-- Generator: Adobe Illustrator 15.1.0, SVG Export Plug-In . SVG Version: 6.00 Build 0)  -->
<!DOCTYPE svg PUBLIC "-//W3C//DTD SVG 1.1//EN" "http://www.w3.org/Graphics/SVG/1.1/DTD/svg11.dtd">
<svg version="1.1" id="Layer_1" xmlns="http://www.w3.org/2000/svg" xmlns:xlink="http://www.w3.org/1999/xlink" x="0px" y="0px"
	 width="160px" height="78px" viewBox="0 0 160 78" enable-background="new 0 0 160 78" xml:space="preserve">
<g id="Layer_1_1_">
</g>
<g id="Layer_3" display="none">
</g>
<g>
	<path d="M142.73,13.919c0,0,2.354-3.815,2.385-3.876c0.575-1.103,1.668-2.547,1.048-3.624c-0.541-0.941-1.688-0.889-2.934-0.889
		H91.443c-3.205-1.842-7.214-2.804-11.795-2.804S71.057,3.688,67.854,5.53H16.067c-1.244,0-2.396-0.052-2.937,0.889
		c-0.621,1.077,0.476,2.521,1.049,3.624c0.031,0.061,2.387,3.876,2.387,3.876H4.648l3.533,5.482
		c0.55,0.853,13.675,21.086,32.559,38.87l1.027,0.969h16.335c1.186,1.075,2.329,2.103,3.411,3.066l1.012,0.901
		c0,0,2.282,2,3.078,2.689c11.187,9.665,12.706,9.665,14.046,9.665c1.341,0,2.857,0,14.042-9.665c0.8-0.689,3.082-2.689,3.082-2.689
		l1.01-0.901c1.078-0.96,2.223-1.989,3.412-3.066h16.334l1.026-0.969c18.885-17.783,32.01-38.017,32.562-38.87l3.532-5.482H142.73z"
		/>
	<linearGradient id="SVGID_1_" gradientUnits="userSpaceOnUse" x1="11.1709" y1="38.5615" x2="148.124" y2="38.5615">
		<stop  offset="0" style="stop-color:#626E77"/>
		<stop  offset="0.0745" style="stop-color:#718089"/>
		<stop  offset="0.2241" style="stop-color:#99ADB9"/>
		<stop  offset="0.25" style="stop-color:#A0B6C2"/>
		<stop  offset="0.3999" style="stop-color:#B0C9D8"/>
		<stop  offset="0.5" style="stop-color:#B7D1E1"/>
		<stop  offset="0.6001" style="stop-color:#B0C9D8"/>
		<stop  offset="0.75" style="stop-color:#A0B6C2"/>
		<stop  offset="0.7759" style="stop-color:#99ADB9"/>
		<stop  offset="0.9255" style="stop-color:#718089"/>
		<stop  offset="1" style="stop-color:#626E77"/>
	</linearGradient>
	<path fill="url(#SVGID_1_)" d="M142.979,24.862c3.298-4.519,5.146-7.388,5.146-7.388H99.405c0.138,0.957,0.207,1.944,0.207,2.964
		c0,3.614-0.524,5.258-0.989,6.707c-0.362,1.136-0.651,2.034-0.651,4.029c0,1.706,0.393,2.259,0.771,2.795
		c0.238,0.337,0.538,0.756,0.71,1.322c0.466,1.513,0.073,4.843-1.378,7.581c-1.428,2.698-3.668,4.375-5.85,4.375
		c-0.3,0-0.613,0-0.613,0s0,1.636,0,2.325v2.325c0,3.334-2.668,4.411-7.462,4.799c-1.913,0.155-2.523,0.121-4.502,0.121
		c-1.978,0-2.589,0.034-4.502-0.121c-4.794-0.388-7.462-1.465-7.462-4.799v-2.325c0-0.689,0-2.325,0-2.325s-0.317,0-0.615,0
		c-2.18,0-4.42-1.677-5.847-4.375c-1.451-2.738-1.846-6.068-1.381-7.581c0.174-0.565,0.471-0.984,0.712-1.322
		c0.379-0.536,0.772-1.089,0.772-2.795c0-1.996-0.29-2.894-0.651-4.029c-0.465-1.449-0.991-3.093-0.991-6.707
		c0-1.021,0.07-2.008,0.208-2.964H11.171c0,0,1.849,2.87,5.146,7.388h15.955c0.82,0.982,1.632,1.945,2.435,2.887H18.459
		c1.678,2.23,3.615,4.725,5.778,7.386h16.946c0.896,0.994,1.775,1.958,2.633,2.888H26.623c2,2.387,4.164,4.87,6.464,7.385H50.84
		c1.014,1.032,1.972,1.997,2.875,2.888h-17.94c2.351,2.475,4.824,4.958,7.404,7.387h16.297c1.577,1.436,3.042,2.757,4.403,3.967
		h31.538c1.362-1.21,2.827-2.531,4.402-3.967h16.299c2.578-2.429,5.053-4.912,7.403-7.387h-17.939
		c0.899-0.891,1.861-1.855,2.874-2.888h17.754c2.299-2.515,4.464-4.998,6.463-7.385H115.48c0.858-0.931,1.737-1.894,2.634-2.888
		h16.943c2.165-2.661,4.102-5.156,5.78-7.386H124.59c0.804-0.941,1.613-1.904,2.434-2.887H142.979z"/>
	<path fill="#626E77" d="M67.929,63.207h23.438c-7.771,6.716-10.998,8.799-11.719,8.799C78.925,72.006,75.702,69.923,67.929,63.207z
		 M138.483,13.919c2.093-3.119,2.985-4.834,2.985-4.834H95.734c1.206,1.423,2.141,3.043,2.792,4.834H138.483z M17.828,9.085
		c0,0,0.893,1.715,2.981,4.834h39.961c0.648-1.791,1.585-3.411,2.792-4.834H17.828z"/>
	<path fill="#FFFFFF" d="M96.262,41.913c-1.23,2.324-2.871,3.283-4.036,3.283c-1.161,0-1.709-0.615-2.188-0.615
		s-1.571,0.615-1.571,2.188s1.092,1.641,1.092,2.804c0,0.82,0,1.778,0,2.325c0,0.548-1.023,2.599-3.419,2.599c0,0,0-0.512,0-0.888
		c0-0.378,0.276-0.686,0.276-1.163c0-0.479-0.583-0.855-0.993-0.855s-0.992,0.342-0.992,1.196c0,0.548,0.444,0.924,0.206,1.47
		c-0.241,0.549-2.974,0.479-3.487,0.514c-0.514,0.035-0.82-0.307-0.82-0.854s0.141-2.359-0.68-2.359s-0.679,1.812-0.679,2.359
		s-0.307,0.89-0.82,0.854c-0.514-0.034-3.251,0.035-3.489-0.514c-0.24-0.546,0.205-0.922,0.205-1.47
		c0-0.854-0.581-1.196-0.991-1.196s-0.992,0.376-0.992,0.855c0,0.478,0.274,0.785,0.274,1.163c0,0.376,0,0.888,0,0.888
		c-2.394,0-3.421-2.051-3.421-2.599c0-0.547,0-1.505,0-2.325c0-1.163,1.096-1.23,1.096-2.804s-1.096-2.188-1.574-2.188
		c-0.479,0-1.025,0.615-2.188,0.615c-1.164,0-2.804-0.959-4.035-3.283c-1.232-2.325-1.506-5.129-1.232-6.018s1.573-1.436,1.573-4.72
		c0-4.924-1.641-4.512-1.641-10.736c0-9.301,6.389-15.662,17.913-15.662c11.522,0,17.913,6.361,17.913,15.662
		c0,6.225-1.641,5.813-1.641,10.736c0,3.285,1.299,3.831,1.571,4.72C97.769,36.784,97.492,39.588,96.262,41.913z M68.06,33.16
		c-1.403,0-2.564,1.88-2.564,3.11s0.274,4.343,4.583,4.343c5.506,0,7.421-4.103,7.421-4.103C73.566,35.725,69.463,33.16,68.06,33.16
		z M81.796,36.51c0,0,1.917,4.103,7.421,4.103c4.309,0,4.584-3.112,4.584-4.343s-1.165-3.11-2.564-3.11
		C89.834,33.16,85.729,35.725,81.796,36.51z M77.556,42.301c-0.548,1.3-1.665,3.146-0.455,3.146c0.842,0,1.476-1.437,2.547-1.437
		c1.072,0,1.703,1.437,2.548,1.437c1.209,0,0.093-1.847-0.455-3.146s-1.479-2.758-2.093-2.758
		C79.032,39.543,78.104,41.001,77.556,42.301z"/>
</g>
</svg>
