<?xml version="1.0" encoding="UTF-8" standalone="no"?>
<svg xmlns="http://www.w3.org/2000/svg" version="1.1" width="600" height="320">
  <linearGradient x1="0" y1="0" x2="1" y2="0" id="linearGradient24" gradientUnits="userSpaceOnUse" gradientTransform="matrix(275.44675,128.44293,128.44293,-275.44675,12.276367,15.778809)" spreadMethod="pad">
    <stop offset="0" style="stop-color:#8b723c"/>
    <stop offset="0.5" style="stop-color:#ebd491"/>
    <stop offset="1" style="stop-color:#8b723c"/>
  </linearGradient>
  <g transform="matrix(2,0,0,-2,0,320)">
    <g>
      <g>
        <g>
          <path d="M 19.933,160 C 7.254,136.449 0,109.131 0,80 l 0,0 C 0,50.869 7.254,23.551 19.933,0 l 0,0 260.133,0 C 292.745,23.551 300,50.869 300,80 l 0,0 c 0,29.131 -7.255,56.449 -19.934,80 l 0,0 -260.133,0 z" style="fill:url(#linearGradient24)"/>
        </g>
      </g>
    </g>
    <g transform="translate(274.1035,150.5)">
      <path d="m 0,0 -6.129,0 -235.949,0 -6.129,0 -2.527,-5.584 c -9.204,-20.341 -13.87,-42.182 -13.87,-64.916 0,-23.139 4.833,-45.338 14.366,-65.982 l 2.547,-5.518 6.078,0 235.019,0 6.077,0 2.548,5.518 c 9.532,20.643 14.365,42.843 14.365,65.982 0,22.735 -4.667,44.576 -13.87,64.917 L 0,0 z m -6.129,-9.5 c 8.345,-18.442 13.025,-39.136 13.025,-61 0,-22.262 -4.858,-43.306 -13.49,-62 l -235.019,0 c -8.632,18.694 -13.491,39.738 -13.491,62 0,21.864 4.681,42.558 13.026,61 l 235.949,0"/>
    </g>
    <g transform="translate(247.417,118.9165)">
      <path d="m 0,0 -25.5,-21.917 3.084,-5.583 c 13.671,-1.239 27.264,-2.558 31.75,-13.167 0.395,-3.111 0.398,-6.222 -0.083,-9.333 -1.895,-3.036 -5.206,-5.646 -9.834,-8.083 -5.809,-3.06 -13.901,0.588 -19.577,6.624 -2.691,1.031 -5.45,1.634 -7.673,2.376 l -2.5,-5.417 25.917,-16.417 c 7.001,6.457 14.599,12.02 23.25,16 1.052,5.812 1.648,11.77 1.667,17.917 -4.251,10.5 -13.417,15.417 -25.167,18.083 L 18.501,13 -26.333,11.667 C -26.631,6.771 -28.458,2.762 -30.999,-0.833 -21.262,0.464 -10.987,0.841 0,0 m -67.417,-5.833 13.917,0 0,-49.667 13.708,13.708 0,54.792 C -47.615,7.934 -57.078,3.702 -67.417,-0.083 l 0,-5.75 z m -55.128,4.778 c 1.962,-1.695 2.003,-3.528 0.717,-5.572 -2.506,-3.983 -4.923,-7.165 -7.673,-9.54 -1.435,-1.239 -1.213,-3.333 -0.332,-5 1.928,-3.649 4.91,-5.951 7.916,-7.5 2.488,2.49 4.976,3.339 6.416,0.584 5.309,-10.146 9.279,-20.431 14.084,-29.917 4.199,-8.291 3.113,-14.005 -1.583,-17.833 -3.282,-2.675 -6.444,-4.892 -9,-7.5 2.147,-2.237 4.422,-4.378 6.833,-6.417 11.028,8.996 27.748,8.512 48.084,2 0.788,2.417 1.846,4.75 3.166,7 -7.125,6.396 -14.561,7.944 -17.166,14.167 -1.377,3.289 -2.063,9.944 -3.742,14.182 -5.509,13.901 -10.675,24.318 -19.258,41.984 -3.851,7.926 -2.98,15.63 -1,19.917 -2.876,1.228 -5.102,2.703 -6.75,4.396 -3.834,-3.813 -19.084,-3.896 -27.021,0 -1.844,-3.163 -3.702,-5.615 -5.563,-7.875 4.965,-2.1 8.936,-4.538 11.872,-7.076 m -81.038,3.472 c 8.041,-1 13.957,-1.959 11.083,-9.417 -1.565,-4.063 -3.257,-7.869 -5.001,-11.583 -0.992,-2.115 -0.771,-4.458 1.668,-6.084 1.636,-1.09 5.168,-2.87 7,-3.583 2.458,-0.958 3.975,0.039 4.75,1.833 0.568,1.318 1.855,3.885 2.5,5.167 1.21,2.407 3.33,1.89 4.832,-0.25 9.561,-13.613 18.598,-32.622 24.25,-55.333 1.566,-6.289 1.5,-11.419 -0.416,-14.584 2.76,-2.049 5.85,-3.482 9.25,-4.333 4.01,7.537 10.973,13.479 20.416,18.083 -1.937,7.737 -4.424,15.362 -7.666,22.834 -3.268,10.517 -1.291,16.005 2,20.166 0.899,1.138 0.92,2.642 0,4.094 -1.76,2.777 -3.683,4.979 -5.666,6.656 -1.396,1.181 -3.23,1.428 -4.75,-0.083 -0.896,-0.89 -1.679,-1.896 -2.75,-2.667 -10.834,12.834 -20.084,26.584 -23.5,36.25 l -33.334,1.25 c -2.25,-2.375 -4,-5.25 -4.666,-8.416 m -22.834,-83.334 c 6.263,4.911 10.455,11.536 13.975,21.3 3.266,9.058 5.484,17.792 9.599,26.125 1.041,2.107 3.567,3.767 6.301,2.45 1.928,-0.928 3.847,-1.99 5.959,-2.958 2.222,-1.019 2.682,-2.941 1.666,-5.316 -2.93,-6.846 -6.568,-13.392 -8.916,-20.434 -2.334,-7 -2.667,-15.167 5.583,-17.333 l 0,-6.5 c -15.394,1.861 -24.613,-0.346 -30.45,-5.333 l -3.717,7.999 z"/>
    </g>
  </g>
</svg>
