<?xml version="1.0" encoding="UTF-8"?>
<svg xmlns="http://www.w3.org/2000/svg" width="997pt" height="846pt" viewBox="-50 -50 1097 946" version="1.1">
  <path d=" M 83.17 0.00 L 913.29 0.00 C 919.67 19.67 926.22 39.28 932.36 59.02 C 944.53 99.16 954.89 139.83 964.43 180.66 C 973.16 220.32 981.36 260.13 987.44 300.28 C 992.12 329.31 994.65 358.63 996.02 387.98 C 995.99 395.67 996.01 403.36 995.98 411.05 C 995.93 412.59 996.27 414.05 996.30 415.43 L 996.00 417.27 C 995.06 420.13 996.32 423.80 996.00 427.02 C 995.51 478.35 989.04 529.51 979.51 579.93 C 967.28 647.74 950.92 714.76 931.61 780.89 C 925.19 802.70 917.91 824.24 911.34 846.00 L 85.31 846.00 C 78.45 827.99 71.15 810.13 64.88 791.90 C 38.21 713.36 19.27 632.24 7.64 550.14 C 6.22 538.05 5.04 525.94 3.68 513.84 C 2.68 501.47 2.11 489.06 1.21 476.68 C 0.66 471.42 1.37 466.12 0.73 460.87 C -0.07 452.45 1.23 443.93 0.00 435.55 L 0.00 432.53 C 1.14 426.51 -0.02 420.36 0.81 414.31 C 2.38 341.57 13.28 269.33 28.00 198.17 C 36.67 155.32 47.83 113.01 59.99 71.04 C 67.06 47.15 75.20 23.59 83.17 0.00 M 117.54 48.51 C 112.80 63.80 107.63 78.95 103.15 94.33 C 95.93 119.66 88.86 145.06 83.01 170.75 C 78.56 188.87 74.93 207.18 71.11 225.44 C 71.06 225.97 70.94 227.04 70.89 227.57 C 69.74 232.15 69.26 236.87 68.11 241.45 C 68.06 241.98 67.94 243.04 67.89 243.57 C 60.17 283.88 54.97 324.72 51.58 365.59 C 51.56 372.55 50.44 379.45 50.42 386.42 C 49.25 391.05 50.76 395.95 49.57 400.58 C 49.36 406.39 49.78 412.23 49.00 418.01 C 49.01 432.04 48.96 446.07 49.03 460.10 C 49.97 465.99 49.02 471.97 49.90 477.86 C 50.20 488.06 50.80 498.24 51.62 508.42 C 52.20 512.05 52.33 515.75 52.62 519.42 C 53.09 521.44 52.92 523.55 53.38 525.58 C 53.63 530.22 54.11 534.84 54.80 539.44 C 64.56 618.82 83.71 696.87 109.13 772.65 C 112.02 781.01 115.46 789.18 118.27 797.57 C 242.51 797.41 366.75 797.55 490.99 797.50 C 498.32 797.41 505.67 797.82 512.97 796.99 C 634.01 797.01 755.06 796.99 876.10 797.00 C 880.07 782.87 885.19 769.09 889.16 754.96 C 897.12 728.24 904.47 701.32 910.70 674.14 C 922.41 623.95 932.85 573.41 940.40 522.41 C 940.45 521.46 940.52 520.52 940.60 519.59 C 941.09 516.60 941.37 513.59 941.63 510.58 C 941.90 508.86 942.08 507.13 942.37 505.42 C 942.67 502.41 942.80 499.38 943.42 496.42 C 943.48 494.80 943.50 493.19 943.59 491.58 C 944.15 489.22 943.79 486.76 944.38 484.42 C 944.67 478.46 945.60 472.55 945.58 466.58 C 946.60 463.28 945.38 459.72 946.43 456.42 C 946.56 453.24 946.32 450.04 946.82 446.89 C 947.51 440.76 946.32 434.49 947.43 428.42 C 947.55 413.48 947.55 398.52 947.43 383.58 C 946.73 377.97 946.81 372.24 946.42 366.58 C 945.73 362.63 945.78 358.57 945.38 354.58 C 944.84 351.60 944.66 348.58 944.37 345.58 C 943.85 342.60 943.65 339.58 943.37 336.57 C 942.85 333.60 942.66 330.58 942.37 327.58 C 940.52 312.48 938.23 297.44 935.85 282.42 C 934.06 273.24 932.76 263.97 931.11 254.77 C 922.45 210.48 912.34 166.46 900.16 123.01 C 895.09 104.28 889.97 85.55 884.02 67.07 C 882.09 60.73 879.75 54.49 878.36 48.00 C 755.90 48.01 633.44 48.00 510.98 48.00 C 505.65 48.04 500.30 47.76 495.00 48.48 C 369.18 48.54 243.36 48.46 117.54 48.51 Z"/>
  <path d=" M 170.18 103.47 C 300.10 103.54 430.02 103.48 559.94 103.50 C 566.97 103.61 574.03 103.15 581.03 104.00 C 640.00 104.00 698.98 104.00 757.96 104.00 C 763.62 104.06 769.31 103.73 774.95 104.48 C 794.38 104.52 813.82 104.50 833.25 104.49 C 838.63 119.84 844.70 134.95 849.43 150.52 C 864.93 199.89 875.86 250.58 884.39 301.59 C 885.08 307.20 886.06 312.77 886.62 318.40 C 888.87 332.30 889.77 346.39 890.58 360.42 C 891.52 364.84 890.76 369.43 890.98 373.92 C 891.75 383.59 891.76 393.34 890.98 403.01 C 891.30 416.07 890.00 429.05 889.98 442.09 C 889.15 449.22 889.69 456.49 888.57 463.58 C 888.47 470.87 887.52 478.12 887.42 485.42 C 886.59 492.39 885.89 499.40 885.38 506.42 C 884.91 508.44 885.08 510.55 884.62 512.58 C 884.00 520.96 882.76 529.27 881.63 537.59 C 879.39 555.95 876.41 574.23 873.15 592.43 C 868.38 621.08 861.86 649.40 854.62 677.52 C 849.52 698.63 842.72 719.27 836.33 740.00 C 610.34 739.99 384.36 740.02 158.38 739.99 C 152.28 718.78 146.02 697.61 141.12 676.09 C 135.52 653.04 130.69 629.82 126.11 606.56 C 126.06 606.03 125.95 604.96 125.89 604.43 C 122.33 586.83 119.53 569.09 116.61 551.37 C 114.23 536.15 112.10 520.89 110.36 505.58 C 109.99 503.54 109.96 501.45 109.60 499.42 C 109.52 498.13 109.48 496.85 109.41 495.57 C 108.77 492.28 108.67 488.91 108.38 485.58 C 107.73 481.61 107.47 477.59 107.42 473.58 C 106.47 470.60 107.52 467.40 106.58 464.42 C 106.41 459.41 106.23 454.36 105.58 449.42 C 105.28 444.64 105.85 439.82 105.20 435.06 C 104.62 430.02 105.42 424.91 104.73 419.87 C 103.84 412.91 105.43 405.97 105.00 398.99 C 105.28 392.82 104.43 386.53 105.44 380.43 C 105.79 367.06 106.65 353.70 108.38 340.43 C 108.63 337.08 108.83 333.72 109.36 330.41 C 111.24 316.76 113.12 303.09 115.85 289.58 C 123.78 246.11 134.07 203.02 147.85 161.02 C 154.04 141.37 162.19 122.43 170.18 103.47 M 310.43 176.51 C 310.49 177.29 310.61 178.86 310.67 179.64 C 352.66 205.04 394.28 231.04 436.32 256.35 C 436.38 257.14 436.51 258.71 436.57 259.49 C 407.72 259.50 378.86 259.50 350.01 259.49 C 349.93 387.18 350.13 514.88 349.91 642.57 C 336.63 650.22 323.53 658.21 310.44 666.19 C 310.46 666.90 310.50 668.30 310.52 669.00 C 375.71 669.01 440.90 668.97 506.09 669.02 C 507.28 669.05 508.44 668.90 509.58 668.58 C 518.55 668.67 527.48 668.10 536.42 667.38 C 538.46 666.96 540.56 666.96 542.62 666.60 C 543.54 666.53 544.47 666.47 545.40 666.41 C 566.62 663.49 587.70 658.63 607.53 650.39 C 630.90 641.02 652.44 627.10 670.62 609.67 C 677.36 603.30 683.06 595.97 689.13 588.97 C 693.64 582.94 697.76 576.62 701.93 570.35 C 705.04 565.75 706.95 560.50 709.77 555.74 C 714.00 548.51 716.55 540.49 719.79 532.80 C 722.89 525.53 724.58 517.77 726.86 510.23 C 729.72 501.21 730.84 491.78 732.83 482.56 C 733.00 481.49 733.20 480.43 733.41 479.38 C 733.46 478.93 733.55 478.05 733.60 477.60 C 734.10 474.61 734.36 471.59 734.64 468.58 C 735.05 466.54 734.93 464.45 735.36 462.42 C 735.69 459.42 735.78 456.38 736.43 453.43 C 736.36 446.94 737.34 440.51 736.98 434.02 C 738.27 420.88 736.94 407.71 736.41 394.58 C 735.68 386.84 734.81 379.07 733.59 371.37 C 733.55 370.93 733.46 370.05 733.41 369.61 C 733.20 368.55 733.00 367.50 732.83 366.44 C 725.85 326.46 710.13 287.58 684.95 255.56 C 671.16 238.95 655.16 224.05 636.91 212.45 C 604.69 191.36 566.55 180.69 528.42 177.59 C 520.30 176.78 512.14 177.30 504.02 176.49 C 439.49 176.52 374.96 176.47 310.43 176.51 Z"/>
  <path d=" M 455.50 222.50 C 475.35 222.67 495.22 222.05 515.04 223.02 C 532.01 224.52 549.08 229.09 563.28 238.79 C 577.37 247.87 588.25 261.27 595.97 276.04 C 605.57 294.05 610.72 314.01 614.55 333.94 C 616.11 344.41 617.93 354.85 618.62 365.42 C 619.82 372.75 619.55 380.26 620.43 387.58 C 620.49 390.69 620.42 393.82 620.90 396.92 C 621.33 405.55 620.49 414.24 621.43 422.86 C 620.23 431.72 621.79 440.76 620.57 449.58 C 620.41 455.25 620.25 460.97 619.58 466.57 C 619.44 474.90 617.93 483.13 617.39 491.43 C 613.78 516.42 608.65 541.56 597.76 564.50 C 590.40 580.66 578.95 595.04 564.47 605.38 C 552.60 613.69 538.79 619.19 524.43 621.16 C 522.12 621.70 519.75 621.92 517.44 622.43 C 496.83 623.43 476.15 622.85 455.50 623.00 C 455.50 489.50 455.50 356.00 455.50 222.50 Z"/>
</svg>
