<?xml version="1.0" encoding="UTF-8" standalone="no"?>
<svg xmlns="http://www.w3.org/2000/svg" version="1.1" width="600" height="548.41541">
  <path d="m 299.72522,219.3328 c -15.37085,0 -27.79368,-12.42282 -27.79368,-27.79367 0,-15.316 12.42283,-27.79367 27.79368,-27.79367 15.32971,0 27.75254,12.47767 27.75254,27.79367 0,15.37085 -12.42283,27.79367 -27.75254,27.79367 M 575.67375,3.22225 C 562.18141,1.06951 548.52453,0 534.92249,0 453.61194,0 398.71018,37.92664 396.40661,39.53091 l -26.40879,18.53826 17.09853,13.71173 c 0,0 -6.06058,3.57876 -8.25446,4.86766 l -1.06952,0 C 355.49082,61.4971 328.65696,52.65304 299.72522,52.65304 c -28.97288,0 -55.86158,8.89891 -78.14314,24.05037 l -0.31592,0 -8.46014,-4.92251 17.08482,-13.71173 -26.35395,-18.53826 C 201.23332,37.92664 146.33156,0 65.075862,0 51.473828,0 37.7621,1.06951 24.269759,3.22225 L 0,7.0204 4.1820771,31.23532 C 4.8259799,34.75923 20.567592,118.96295 122.65141,174.82453 l 29.83672,16.28954 3.96269,-23.35108 5.47098,3.20855 0.42451,0.80954 c -0.90497,6.47193 -1.54942,13.01243 -1.54942,19.7586 0,56.45118 33.68972,104.92214 82.05098,126.66895 l 0.36967,0.59015 0,13.34151 -20.51275,-7.81569 -2.61894,32.12658 c -0.27423,3.70217 -6.69132,92.34849 59.5089,173.00088 l 15.63137,18.96332 18.7028,-15.90561 c 2.78348,-2.30357 67.37943,-58.53536 63.78696,-174.87938 l -1.06951,-33.89539 -22.17187,8.40529 0,-12.8616 0.0987,-0.0987 c 49.44504,-21.32228 84.09458,-70.38285 84.09458,-127.64302 0,-6.80102 -0.69985,-13.4375 -1.60428,-19.97799 l 6.48565,-3.79815 3.90784,23.35107 29.83672,-16.28953 C 579.37753,118.96079 595.17344,34.75707 595.76305,31.23315 L 600,7.01821 575.67539,3.22006 z" style="fill:#808080"/>
  <path d="m 246.64712,186.34239 c 2.6875,-26.72416 25.33927,-47.67568 52.76273,-47.67568 2.52296,0 5.08705,0.21938 7.55516,0.54847 l 7.92538,-32.56536 -7.18495,-29.4665 c -2.72863,-0.21939 -5.51211,-0.31592 -8.29559,-0.31592 -29.30197,0 -55.97128,10.96938 -76.26464,29.02773 L 170.32764,74.82435 189.66117,59.34381 c 0,0 -67.10519,-47.12721 -161.647561,-32.23627 0,0 13.231818,75.62018 106.265891,126.44956 l 4.12723,-24.47544 50.88423,29.94641 c -3.05772,10.33865 -4.71684,21.32174 -4.71684,32.62021 0,24.31089 7.55517,46.81184 20.40305,65.33638 l 27.05324,-65.33638 14.61671,-5.30644 z M 410.33773,59.34436 429.67127,74.8249 376.11326,106.26589 c -7.1301,-6.4308 -15.16518,-11.99776 -23.88584,-16.49521 l -4.23692,33.48404 -17.83896,25.32557 c 13.45121,9.58449 22.28156,25.33927 22.28156,43.06853 0,9.26913 -2.41326,17.8801 -6.58163,25.49011 l 18.68909,15.37085 42.2047,0 c 4.82652,-12.69707 7.50031,-26.44993 7.50031,-40.86096 0,-11.09278 -1.60427,-21.85649 -4.60714,-32.03059 l 51.89889,-30.53602 4.12723,24.47543 C 558.75348,102.72827 571.93045,27.10809 571.93045,27.10809 477.40179,12.21715 410.33773,59.34436 410.33773,59.34436 M 345.79662,262.3465 372.30139,280.35 c -12.14859,10.00956 -26.39507,17.56472 -41.98531,21.89763 l 0,64.96616 23.18654,-8.83035 c 3.2771,105.99166 -55.21713,155.69667 -55.21713,155.69667 -60.74296,-73.96106 -54.09277,-155.69667 -54.09277,-155.69667 l 23.18653,8.83035 0,-65.28153 c -15.48054,-4.4426 -29.56249,-12.10746 -41.6151,-22.17187 l 15.11033,-6.37595 18.26402,-47.29175 c 9.69419,11.35331 24.14635,18.57939 40.27135,18.57939 11.62754,0 22.4461,-3.79815 31.2216,-10.22895 l 15.16517,27.90337 z"/>
</svg>
