<?xml version="1.0" encoding="UTF-8" standalone="no"?>
<svg xmlns="http://www.w3.org/2000/svg" version="1.1" width="600" height="548.41541">
  <linearGradient x1="0" y1="0" x2="1" y2="0" id="linearGradient508" gradientUnits="userSpaceOnUse" gradientTransform="matrix(35.098068,-12.774658,-12.774658,-35.098068,725.93066,271.18652)" spreadMethod="pad">
    <stop style="stop-color:#8b723c" offset="0"/>
    <stop style="stop-color:#d2bb7b" offset="0.3"/>
    <stop style="stop-color:#ebd491" offset="0.5"/>
    <stop style="stop-color:#d2bb7b" offset="0.7"/>
    <stop style="stop-color:#8b723c" offset="1"/>
  </linearGradient>
  <path d="m 299.72522,219.3328 c -15.37085,0 -27.79368,-12.42282 -27.79368,-27.79367 0,-15.316 12.42283,-27.79367 27.79368,-27.79367 15.32971,0 27.75254,12.47767 27.75254,27.79367 0,15.37085 -12.42283,27.79367 -27.75254,27.79367 M 575.67375,3.22225 C 562.18141,1.06951 548.52453,0 534.92249,0 453.61194,0 398.71018,37.92664 396.40661,39.53091 l -26.40879,18.53826 17.09853,13.71173 c 0,0 -6.06058,3.57876 -8.25446,4.86766 l -1.06952,0 C 355.49082,61.4971 328.65696,52.65304 299.72522,52.65304 c -28.97288,0 -55.86158,8.89891 -78.14314,24.05037 l -0.31592,0 -8.46014,-4.92251 17.08482,-13.71173 -26.35395,-18.53826 C 201.23332,37.92664 146.33156,0 65.075862,0 51.473828,0 37.7621,1.06951 24.269759,3.22225 L 0,7.0204 4.1820771,31.23532 C 4.8259799,34.75923 20.567592,118.96295 122.65141,174.82453 l 29.83672,16.28954 3.96269,-23.35108 5.47098,3.20855 0.42451,0.80954 c -0.90497,6.47193 -1.54942,13.01243 -1.54942,19.7586 0,56.45118 33.68972,104.92214 82.05098,126.66895 l 0.36967,0.59015 0,13.34151 -20.51275,-7.81569 -2.61894,32.12658 c -0.27423,3.70217 -6.69132,92.34849 59.5089,173.00088 l 15.63137,18.96332 18.7028,-15.90561 c 2.78348,-2.30357 67.37943,-58.53536 63.78696,-174.87938 l -1.06951,-33.89539 -22.17187,8.40529 0,-12.8616 0.0987,-0.0987 c 49.44504,-21.32228 84.09458,-70.38285 84.09458,-127.64302 0,-6.80102 -0.69985,-13.4375 -1.60428,-19.97799 l 6.48565,-3.79815 3.90784,23.35107 29.83672,-16.28953 C 579.37753,118.96079 595.17344,34.75707 595.76305,31.23315 L 600,7.01821 575.67539,3.22006 z"/>
  <g transform="matrix(13.711728,0,0,-13.711728,-9956.3733,3829.6994)">
    <path d="m 756.047,274.973 1.41,-1.129 -3.902,-2.293 c -0.528,0.469 -1.114,0.875 -1.746,1.203 l 0,0 -0.313,-2.442 -1.297,-1.847 c 0.981,-0.699 1.621,-1.848 1.621,-3.141 l 0,0 c 0,-0.676 -0.172,-1.304 -0.472,-1.859 l 0,0 1.359,-1.121 3.074,0 c 0.356,0.926 0.547,1.929 0.547,2.98 l 0,0 c 0,0.809 -0.113,1.594 -0.332,2.336 l 0,0 3.785,2.227 0.301,-1.785 c 6.785,3.707 7.75,9.222 7.75,9.222 l 0,0 c -0.941,0.149 -1.844,0.211 -2.703,0.211 l 0,0 c -5.438,0 -9.082,-2.562 -9.082,-2.562 m -27.883,2.351 c 0,0 0.965,-5.515 7.75,-9.222 l 0,0 0.301,1.785 3.715,-2.184 c -0.227,-0.754 -0.348,-1.555 -0.348,-2.379 l 0,0 c 0,-1.773 0.551,-3.414 1.488,-4.765 l 0,0 1.973,4.765 1.066,0.387 c 0.196,1.949 1.844,3.477 3.844,3.477 l 0,0 c 0.192,0 0.375,-0.016 0.555,-0.04 l 0,0 0.578,2.375 -0.524,2.149 c -0.199,0.016 -0.402,0.023 -0.609,0.023 l 0,0 c -2.133,0 -4.082,-0.8 -5.558,-2.117 l 0,0 -3.856,2.266 1.414,1.129 c 0,0 -3.648,2.562 -9.086,2.562 l 0,0 c -0.859,0 -1.762,-0.062 -2.703,-0.211 m 15.524,-17.961 -1.102,-0.465 c 0.879,-0.734 1.906,-1.293 3.035,-1.617 l 0,0 0,-4.761 -1.691,0.644 c 0,0 -0.485,-5.961 3.945,-11.355 l 0,0 c 0,0 4.27,3.625 4.027,11.355 l 0,0 -1.691,-0.644 0,4.738 c 1.137,0.316 2.176,0.867 3.062,1.597 l 0,0 -1.933,1.313 -1.106,2.035 c -0.636,-0.469 -1.429,-0.746 -2.281,-0.746 l 0,0 c -1.172,0 -2.226,0.527 -2.933,1.355 l 0,0 -1.332,-3.449 z" style="fill:url(#linearGradient508)"/>
  </g>
</svg>
