<?xml version="1.0" encoding="UTF-8" standalone="no"?>
<svg xmlns="http://www.w3.org/2000/svg" version="1.1" width="600" height="548.41541">
  <path d="m 246.64712,186.34239 c 2.6875,-26.72416 25.33927,-47.67568 52.76273,-47.67568 2.52296,0 5.08705,0.21938 7.55516,0.54847 l 7.92538,-32.56536 -7.18495,-29.4665 c -2.72863,-0.21939 -5.51211,-0.31592 -8.29559,-0.31592 -29.30197,0 -55.97128,10.96938 -76.26464,29.02773 L 170.32764,74.82435 189.66117,59.34381 c 0,0 -67.10519,-47.12721 -161.647561,-32.23627 0,0 13.231818,75.62018 106.265891,126.44956 l 4.12723,-24.47544 50.88423,29.94641 c -3.05772,10.33865 -4.71684,21.32174 -4.71684,32.62021 0,24.31089 7.55517,46.81184 20.40305,65.33638 l 27.05324,-65.33638 14.61671,-5.30644 z M 410.33773,59.34436 429.67127,74.8249 376.11326,106.26589 c -7.1301,-6.4308 -15.16518,-11.99776 -23.88584,-16.49521 l -4.23692,33.48404 -17.83896,25.32557 c 13.45121,9.58449 22.28156,25.33927 22.28156,43.06853 0,9.26913 -2.41326,17.8801 -6.58163,25.49011 l 18.68909,15.37085 42.2047,0 c 4.82652,-12.69707 7.50031,-26.44993 7.50031,-40.86096 0,-11.09278 -1.60427,-21.85649 -4.60714,-32.03059 l 51.89889,-30.53602 4.12723,24.47543 C 558.75348,102.72827 571.93045,27.10809 571.93045,27.10809 477.40179,12.21715 410.33773,59.34436 410.33773,59.34436 M 345.79662,262.3465 372.30139,280.35 c -12.14859,10.00956 -26.39507,17.56472 -41.98531,21.89763 l 0,64.96616 23.18654,-8.83035 c 3.2771,105.99166 -55.21713,155.69667 -55.21713,155.69667 -60.74296,-73.96106 -54.09277,-155.69667 -54.09277,-155.69667 l 23.18653,8.83035 0,-65.28153 c -15.48054,-4.4426 -29.56249,-12.10746 -41.6151,-22.17187 l 15.11033,-6.37595 18.26402,-47.29175 c 9.69419,11.35331 24.14635,18.57939 40.27135,18.57939 11.62754,0 22.4461,-3.79815 31.2216,-10.22895 l 15.16517,27.90337 z"/>
</svg>
