<?xml version="1.0" encoding="UTF-8" standalone="no"?>
<svg xmlns="http://www.w3.org/2000/svg" version="1.1" width="600" height="120.34855">
  <path d="m 121.38471,120.34624 -4.01539,-3.06923 -10.18847,-7.78847 C 107.00731,109.35008 68.607745,83.25006 16.500013,83.25006 L 0,83.25006 0,36.461562 l 16.500013,0 c 52.280809,0 90.507757,-26.134635 90.865457,-26.411558 L 117.77317,2.80384 121.7424,0 l 8.83847,14.37693 c 0.17354,0.184616 14.01924,16.361551 56.65389,16.361551 l 4.68462,0 c 5.72308,-8.330776 12.8077,-10.903854 15.01155,-11.492316 l 1.67308,-0.449539 0.62307,-0.173539 0.68031,0.03692 1.66154,0 306.31178,7.350006 3.83077,-0.04615 3.70385,0 3.83077,0 c 22.93848,0 70.7539,0 70.7539,31.419255 0,15.819243 -12.43847,26.192328 -36.91157,30.784639 -14.19232,2.700002 -30.46156,3.288464 -41.23849,3.692311 l -3.56539,0.138461 -306.62331,8.965391 -1.98462,0.0923 -0.71538,0 -0.72739,-0.21969 -1.89231,-0.588 c -2.03077,-0.588928 -8.82693,-3.161545 -14.37693,-11.27309 l -4.73077,0 c -42.55388,0 -56.48082,16.14232 -57.01159,16.85771 l -8.83846,14.51539 z" style="fill:#ffffff"/>
  <path d="m 115.8347,75.000054 c 11.00771,0 21.46156,-7.753853 21.46156,-15.496166 0,-7.707698 -10.45385,-15.415397 -21.46156,-15.415397 -10.31539,0 -18.784625,6.761544 -19.823088,13.973088 l -79.465445,0 0,-0.727385 0,4.326926 79.592368,0 c 1.442309,6.946159 9.692315,13.338472 19.696165,13.338472" style="fill:#ffffff"/>
  <path d="m 187.23476,47.238494 c -54.40389,0 -70.40775,-23.665403 -70.40775,-23.665403 0,0 -41.688491,29.388484 -100.326997,29.388484 l 0,4.37308 0,0.727386 79.511599,0 c 1.038463,-7.211544 9.507698,-13.973088 19.823088,-13.973088 11.05386,0 21.46156,7.753852 21.46156,15.415396 0,7.742314 -10.4077,15.496166 -21.46156,15.496166 -10.00385,0 -18.253856,-6.392312 -19.696165,-13.338472 l -79.638522,0 0,0.541847 0,4.511542 c 58.638506,0 100.326997,29.376945 100.326997,29.376945 0,0 16.00386,-23.653864 70.40775,-23.653864 l 0,-25.200019 z m 13.69616,12.392317 c 0,-21.72694 10.23463,-24.426942 10.23463,-24.426942 l 306.49639,7.350006 c 17.38847,0 65.80389,-1.800002 65.80389,14.826934 0,16.580782 -47.05388,17.35386 -65.80389,18.115399 l -306.49639,8.97693 c 0,0 -10.23463,-3.115387 -10.23463,-24.842327"/>
</svg>
