<?xml version="1.0" encoding="UTF-8" standalone="no"?>
<svg xmlns="http://www.w3.org/2000/svg" xmlns:xlink="http://www.w3.org/1999/xlink" version="1.1" width="600" height="140.06929">
  <linearGradient x1="0" y1="0" x2="1" y2="0" id="linearGradient508" gradientUnits="userSpaceOnUse" gradientTransform="matrix(1.874863,-10.632843,-10.632843,-1.874863,757.14746,377.1416)" spreadMethod="pad">
    <stop style="stop-color:#bf331c" offset="0"/>
    <stop style="stop-color:#d3641c" offset="0.3"/>
    <stop style="stop-color:#f7981d" offset="0.5"/>
    <stop style="stop-color:#d3641c" offset="0.7"/>
    <stop style="stop-color:#bf331c" offset="1"/>
  </linearGradient>
  <linearGradient x1="0" y1="0" x2="1" y2="0" id="linearGradient2999" xlink:href="#linearGradient508" gradientUnits="userSpaceOnUse" gradientTransform="matrix(1.874863,-10.632843,-10.632843,-1.874863,757.14746,377.1416)" spreadMethod="pad"/>
  <linearGradient x1="0" y1="0" x2="1" y2="0" id="linearGradient3002" xlink:href="#linearGradient508" gradientUnits="userSpaceOnUse" gradientTransform="matrix(21.067849,119.48134,-119.48134,21.067849,288.29059,4.81393)" spreadMethod="pad"/>
  <path d="m 128.21425,140.06929 -6.97818,-5.405 -3.85429,-2.98904 -9.87733,-7.58498 c -3.38234,-2.20246 -37.576554,-23.96854 -83.580862,-23.96854 l -16.06892,0 -7.854668,0 0,-7.854669 0,-45.566064 0,-7.854668 7.854668,0 16.06892,0 c 47.937073,0 83.659522,-24.058429 84.064052,-24.316879 L 118.07847,7.46137 121.89905,4.77572 128.78734,0 l 4.34872,7.10178 8.03446,13.16978 c 2.67441,2.50585 15.75429,13.001213 49.02706,13.001213 l 0.6967,0 c 6.37138,-7.427661 13.39451,-10.057123 16.38356,-10.888663 l 1.70802,-0.48274 1.01133,-0.22474 1.61813,-0.169 2.50585,0.0449 298.30883,7.146742 3.461,-0.04495 3.65203,0 3.64079,0 c 23.0471,0 76.81618,0 76.81618,38.453038 0,13.563068 -7.33777,31.12651 -42.27362,37.7114 -14.4845,2.71935 -30.67703,3.33739 -41.35219,3.73068 l -3.50594,0.13485 -298.65718,8.73115 -1.88782,0.045 -1.40462,0.045 -2.06761,-0.39285 -2.32606,-0.70838 c -2.89915,-0.92143 -9.5627,-3.59584 -15.58573,-10.66392 l -0.74165,0 c -34.32905,0 -47.36398,11.45051 -49.2518,13.33833 l -8.15807,13.43946 -4.57346,7.55127 z" style="fill:#ffffff"/>
  <path d="m 126.06798,128.42775 -3.91047,-2.97781 -9.92228,-7.59621 C 112.02128,117.71888 74.669913,92.267061 23.923588,92.267061 l -16.102631,0 0.035958,-45.566064 16.068921,0 c 50.914879,0 88.098134,-25.418107 88.491434,-25.676557 l 10.13578,-7.11303 3.86553,-2.71936 8.5626,14.046263 c 0.21305,0.134844 13.69791,15.889129 55.21865,15.889129 l 4.56223,0 c 5.57355,-8.124357 12.47307,-10.585261 14.61934,-11.147112 l 1.62937,-0.437793 0.6068,-0.179793 0.61758,0 1.66308,0.04495 298.30883,7.157974 3.73069,-0.04495 3.60708,0 3.73068,-0.04495 c 22.33917,0 68.87162,0 68.87162,30.632082 0,15.405937 -12.07978,25.508006 -35.91348,29.980335 -13.82151,2.595749 -29.66569,3.202545 -40.16106,3.607075 l -3.47223,0.12406 -298.61223,8.74239 -1.93277,0.045 -0.69669,0.045 -0.70838,-0.22474 -1.84287,-0.57354 c -1.97772,-0.61758 -8.59631,-3.11265 -14.00131,-11.012262 l -4.60718,0 c -41.44208,0 -55.00515,15.754282 -55.52205,16.417272 l -8.60755,14.16986 z"/>
  <path d="m 120.66298,84.232601 c 10.76506,0 20.90084,-7.551269 20.90084,-15.057589 0,-7.506321 -10.13578,-15.05759 -20.90084,-15.05759 -10.04588,0 -18.29384,6.584886 -19.30517,13.608016 l -77.389274,0 0,-0.663433 -0.04495,0 0,4.180166 77.557824,0 c 1.37092,6.753442 9.43909,12.989981 19.18157,12.989981" style="fill:#ffffff"/>
  <path d="m 23.923588,62.814865 0,4.247589 0,0.662984 77.434222,0 c 1.01133,-6.978182 9.25929,-13.608016 19.30517,-13.608016 l 0,0 c 10.76506,0 20.90084,7.551269 20.90084,15.05759 l 0,0 c 0,7.551268 -10.13578,15.102537 -20.90084,15.102537 l 0,0 c -9.74248,0 -17.81065,-6.281487 -19.18157,-13.034928 l 0,0 -77.557822,0 0,0.56185 0,4.39367 c 57.106471,0 97.705782,28.575709 97.705782,28.575709 l 0,0 c 0,0 15.58573,-23.047101 68.56821,-23.047101 l 0,0 0,-24.496676 c -52.98248,0 -68.56821,-23.035865 -68.56821,-23.035865 l 0,0 c 0,0 -40.554363,28.620657 -97.705782,28.620657 m 179.612322,6.494991 c 0,21.114336 9.96723,24.182039 9.96723,24.182039 l 0,0 298.48862,-8.776103 c 18.26014,-0.707931 64.08465,-1.449573 64.08465,-17.60839 l 0,0 c 0,-16.192527 -47.18419,-14.484502 -64.08465,-14.484502 l 0,0 -298.48862,-7.113026 c 0,0 -9.96723,2.640697 -9.96723,23.799982" style="fill:url(#linearGradient3002)"/>
</svg>
