<?xml version="1.0" encoding="UTF-8" standalone="no"?>
<svg xmlns="http://www.w3.org/2000/svg" xmlns:xlink="http://www.w3.org/1999/xlink" version="1.1" width="600" height="120.34763">
  <linearGradient x1="0" y1="0" x2="1" y2="0" id="linearGradient466" gradientUnits="userSpaceOnUse" gradientTransform="matrix(1.874863,-10.632843,-10.632843,-1.874863,623.64648,377.12402)" spreadMethod="pad">
    <stop style="stop-color:#612c75" offset="0"/>
    <stop style="stop-color:#7b5190" offset="0.3"/>
    <stop style="stop-color:#bf99c3" offset="0.5"/>
    <stop style="stop-color:#7b5190" offset="0.7"/>
    <stop style="stop-color:#612c75" offset="1"/>
  </linearGradient>
  <linearGradient x1="0" y1="0" x2="1" y2="0" id="linearGradient2997" xlink:href="#linearGradient466" gradientUnits="userSpaceOnUse" gradientTransform="matrix(1.874863,-10.632843,-10.632843,-1.874863,623.64648,377.12402)" spreadMethod="pad"/>
  <linearGradient x1="0" y1="0" x2="1" y2="0" id="linearGradient3000" xlink:href="#linearGradient466" gradientUnits="userSpaceOnUse" gradientTransform="matrix(21.633051,122.68675,-122.68675,21.633051,287.94807,-6.56562)" spreadMethod="pad"/>
  <path d="m 121.38471,120.34624 -4.01539,-3.06923 -10.18847,-7.78847 C 107.00824,109.35008 68.607745,83.250063 16.500013,83.250063 l -16.500013,0 0,-46.788498 16.500013,0 c 52.280809,0 90.507757,-26.134635 90.865457,-26.411558 L 117.77317,2.80385 121.7424,0 l 8.83847,14.376933 c 0.17354,0.184616 14.01924,16.361551 56.65389,16.361551 l 4.68462,0 c 5.72308,-8.330775 12.8077,-10.903854 15.01155,-11.492316 l 1.67308,-0.449539 0.62307,-0.173539 0.68031,0.03692 1.66154,0 306.31178,7.350006 3.83077,-0.04615 3.70385,0 3.83077,0 c 22.93848,0 70.7539,0 70.7539,31.419255 0,15.819243 -12.43847,26.192328 -36.91157,30.784639 -14.19232,2.700002 -30.46156,3.288464 -41.23849,3.692311 l -3.56539,0.138461 -306.62331,8.965388 -1.98462,0.0923 -0.71538,0 -0.72646,-0.21969 -1.89231,-0.58892 c -2.03077,-0.588005 -8.82693,-3.161545 -14.37694,-11.27309 l -4.73077,0 c -42.55388,0 -56.48081,16.14232 -57.01158,16.85771 l -8.83847,14.51539 z" fill="#ffffff"/>
  <path d="m 115.8347,75.000057 c 11.00771,0 21.46156,-7.753852 21.46156,-15.496166 0,-7.707698 -10.45385,-15.415397 -21.46156,-15.415397 -10.31539,0 -18.784625,6.761544 -19.823088,13.973088 l -79.465445,0 0,-0.726462 0,4.326926 79.592368,0 c 1.442309,6.94616 9.692315,13.338472 19.696165,13.338472" style="fill:#ffffff"/>
  <path d="m 16.500013,52.961578 0,4.37308 0,0.726924 79.511599,0 C 97.050075,50.850038 105.51931,44.088494 115.8347,44.088494 l 0,0 c 11.00771,0 21.46156,7.753853 21.46156,15.415397 l 0,0 c 0,7.742314 -10.45385,15.496166 -21.46156,15.496166 l 0,0 c -10.00385,0 -18.288471,-6.392313 -19.73078,-13.338472 l 0,0 -79.603907,0 0,0.542308 0,4.511542 c 58.638506,0 100.326997,29.376946 100.326997,29.376946 l 0,0 c 0,0 16.00386,-23.653865 70.40775,-23.653865 l 0,0 0,-25.200019 c -54.40389,0 -70.40775,-23.665403 -70.40775,-23.665403 l 0,0 c 0,0 -41.688491,29.388484 -100.326997,29.388484 m 184.430907,6.669236 c 0,21.680786 10.23463,24.842327 10.23463,24.842327 l 0,0 306.49639,-8.97693 c 18.75001,-0.761539 65.75774,-1.534617 65.75774,-18.115399 l 0,0 c 0,-16.626936 -48.36927,-14.826934 -65.75774,-14.826934 l 0,0 -306.49639,-7.350006 c 0,0 -10.23463,2.700002 -10.23463,24.426942" style="fill:url(#linearGradient3000)"/>
</svg>
