<?xml version="1.0" encoding="UTF-8" standalone="no"?>
<svg xmlns="http://www.w3.org/2000/svg" version="1.1" width="600" height="120.34855">
  <path d="m 187.23476,47.238494 c -54.40389,0 -70.40775,-23.665403 -70.40775,-23.665403 0,0 -41.688491,29.388484 -100.326997,29.388484 l 0,4.37308 0,0.727386 79.511599,0 c 1.038463,-7.211544 9.507698,-13.973088 19.823088,-13.973088 11.05386,0 21.46156,7.753852 21.46156,15.415396 0,7.742314 -10.4077,15.496166 -21.46156,15.496166 -10.00385,0 -18.253856,-6.392312 -19.696165,-13.338472 l -79.638522,0 0,0.541847 0,4.511542 c 58.638506,0 100.326997,29.376945 100.326997,29.376945 0,0 16.00386,-23.653864 70.40775,-23.653864 l 0,-25.200019 z m 13.69616,12.392317 c 0,-21.72694 10.23463,-24.426942 10.23463,-24.426942 l 306.49639,7.350006 c 17.38847,0 65.80389,-1.800002 65.80389,14.826934 0,16.580782 -47.05388,17.35386 -65.80389,18.115399 l -306.49639,8.97693 c 0,0 -10.23463,-3.115387 -10.23463,-24.842327"/>
</svg>
