<?xml version="1.0" encoding="utf-8"?>
<svg xmlns="http://www.w3.org/2000/svg" xmlns:xlink="http://www.w3.org/1999/xlink" version="1.1" x="0px" y="0px" width="300px" height="286px">
  <g id="Layer_1">
    <g>
      <path d="M128.789,31.102c-6.737,12.638-11.129,25.241-13.098,37.366c-9.787-0.014-14.938,0.657-14.938,0.657    c-1.766,0.076-42.321,2.379-73.405,39.29c-28.562,33.939-27.69,67.988-27.203,74.464l1.36,18.832c0,0,29.67-26.949,63.715-28.358    c39.193,0.018,71.059,28.569,78.719,65.732c3.392,16.785,1.175,46.925,1.175,46.925s18.504-11.792,27.427-31.083    c7.721-16.587,9.954-23.594,11.902-35.372c11.182,1.2,14.822-0.031,14.822-0.031c1.646-0.1,42.321-2.379,73.383-39.37    c28.439-33.765,27.639-67.861,27.238-74.332l-1.345-18.779l-14.928,11.485c-14.182,10.889-31.078,16.721-48.891,16.702    c-41.199,0.009-74.084-31.501-79.481-71.54C153.219,28.413,155.445,0,155.445,0S136.988,15.777,128.789,31.102"/>
      <path style="fill:url(#SVGID_3_)" id="SVGID_1_" d="M35.063,114.93c-26.264,31.196-25.202,62.245-24.86,67.228c15.182-11.809,34.304-18.861,55.032-18.857    c49.702-0.019,90.032,40.328,90.038,90.09c0.009,4.053-0.336,8.058-0.82,12.072l0.027-0.007    c14.628-21.387,31.837-57.7,12.228-92.994c-15.514-28.055-30.102-18.475-51.23-46.529    c-16.598-21.838-14.313-46.751-14.313-46.751s-5.604,0.254-14.175,2.55C73.445,85.363,52.564,94.106,35.063,114.93     M133.267,116.234c15.507,28.028,30.035,18.436,51.215,46.475c16.546,21.852,14.28,46.731,14.28,46.731    s37.562-1.728,66.209-35.774c26.244-31.163,25.188-62.298,24.854-67.142c-15.316,11.731-34.371,18.822-55.134,18.799    c-49.589,0.016-89.971-40.316-89.964-90.026c0.004-4.113,0.301-8.191,0.825-12.159    C130.872,44.54,113.691,80.846,133.267,116.234"/>
      <linearGradient id="SVGID_3_" gradientUnits="userSpaceOnUse" x1="-512.2751" y1="599.6348" x2="-482.2428" y2="599.6349" gradientTransform="matrix(10.2168 0 0 -10.2168 5230.1514 6270.6543)">
        <stop style="stop-color:#bf331c" offset="0"/>
        <stop style="stop-color:#d3641c" offset="0.3"/>
        <stop style="stop-color:#f6b91d" offset="0.5"/>
        <stop style="stop-color:#d3641c" offset="0.7"/>
        <stop style="stop-color:#bf331c" offset="1"/>
      </linearGradient>
      <path style="fill:url(#SVGID_3_)" id="SVGID_4_" d="M355.063,114.93c-26.264,31.196-25.202,62.245-24.86,67.228c15.182-11.809,34.304-18.861,55.033-18.857      c49.702-0.019,90.032,40.328,90.038,90.09c0.009,4.053-0.336,8.058-0.82,12.072l0.027-0.007      c14.628-21.387,31.837-57.7,12.228-92.994c-15.514-28.055-30.102-18.475-51.23-46.529      c-16.598-21.838-14.313-46.751-14.313-46.751s-5.604,0.254-14.175,2.55C393.445,85.363,372.564,94.106,355.063,114.93       M453.267,116.234c15.507,28.028,30.035,18.436,51.215,46.475c16.546,21.852,14.28,46.731,14.28,46.731      s37.562-1.728,66.209-35.774c26.244-31.163,25.188-62.298,24.854-67.142c-15.316,11.731-34.371,18.822-55.134,18.799      c-49.589,0.016-89.971-40.316-89.964-90.026c0.004-4.113,0.301-8.191,0.825-12.159      C450.872,44.54,433.691,80.846,453.267,116.234"/>
    </g>
  </g>
</svg>
