<?xml version="1.0" encoding="utf-8"?>
<svg xmlns="http://www.w3.org/2000/svg" xmlns:xlink="http://www.w3.org/1999/xlink" version="1.1" x="0px" y="0px" width="300px" height="286px">
      <path d="M35.063,114.93c-26.264,31.196-25.202,62.245-24.86,67.228c15.182-11.809,34.304-18.861,55.032-18.857    c49.702-0.019,90.032,40.328,90.038,90.09c0.009,4.053-0.336,8.058-0.82,12.072l0.027-0.007    c14.628-21.387,31.837-57.7,12.228-92.994c-15.514-28.055-30.102-18.475-51.23-46.529c-16.598-21.838-14.313-46.751-14.313-46.751    s-5.604,0.254-14.175,2.55C73.445,85.363,52.564,94.106,35.063,114.93 M133.267,116.234    c15.507,28.028,30.035,18.436,51.215,46.475c16.546,21.852,14.28,46.731,14.28,46.731s37.562-1.728,66.209-35.774    c26.244-31.163,25.188-62.298,24.854-67.142c-15.316,11.731-34.371,18.822-55.134,18.799    c-49.589,0.016-89.971-40.316-89.964-90.026c0.004-4.113,0.301-8.191,0.825-12.159C130.872,44.54,113.691,80.846,133.267,116.234"/>
</svg>
