<?xml version="1.0" encoding="UTF-8"?>
<svg xmlns="http://www.w3.org/2000/svg" xmlns:svg="http://www.w3.org/2000/svg" version="1.1" x="0px" y="0px" width="563.36px" height="728.99px">
  <path d="M162.9,24.61C200.2,8.96,240.53,0.87,280.93,0c53.921,0.8,107.811,14.86,154.55,41.95    c29.65,17.09,56.36,39.23,78.74,65.11c10.18,11.94,19.78,24.51,27.19,38.38c-9.39,9.93-18.81,19.81-28.2,29.73    c19.67,18.77,34.65,42.06,45.96,66.67c-8.35,5.88-16.739,11.7-25.1,17.57c14.86,20.91,25,45.38,28.399,70.85    c-7.99,4.59-16,9.16-23.96,13.79c8.87,19.76,14.44,40.82,18.62,62.029c2.85,14.891,5.141,29.921,6.23,45.061    c-27.99,13.63-54.351,31.341-75.461,54.38c-22.21,24.091-38.14,54.171-44.359,86.421c-2.109,11.339-3.38,22.949-2.391,34.489    c-16.77,27.17-39.56,50.62-66.34,68.02c-19.41,12.671-40.8,22.291-63.1,28.61c-10.05,2.7-20.279,5.28-30.69,5.931    c-18.379-2.091-36.299-7.351-53.439-14.2c-43.311-17.29-80.93-48.55-105.35-88.341c1.31-17.199-1.62-34.5-6.45-50.97    c-10.011-33.46-30.511-63.31-56.841-86.069C41.23,473.92,21.09,461.44,0,451.109c1.471-18.899,4.5-37.649,8.58-56.149    c3.91-17.42,9-34.63,16.29-50.95c-8-4.57-15.97-9.17-23.95-13.76c3.4-25.46,13.541-49.93,28.391-70.84    c-8.35-5.87-16.74-11.69-25.1-17.56c11.318-24.61,26.289-47.91,45.959-66.68c-9.38-9.93-18.81-19.8-28.189-29.72    c5.49-10.42,12.38-20.02,19.64-29.26C73.5,76.12,115.65,44.33,162.9,24.61z M150.221,76.88c-30.091,18.01-57,41.82-77.19,70.59    c40.84,38.22,73.38,84.92,96.771,135.64c10.369-16.09,23.659-30.37,39.399-41.31c21.149-14.84,46.8-23.39,72.7-23.26    c26.31-0.04,52.33,8.89,73.63,24.22c14.83,10.58,27.45,24.14,37.409,39.37c23.991-50.29,57.2-96.11,97.431-134.65    c-11.91-17.2-26.53-32.41-42.46-45.91c-38.16-32.22-85.71-52.98-135.19-59.5c-13.89-1.75-27.93-3.07-41.919-1.98    C228.46,42.61,186.67,55.13,150.221,76.88z M62.02,219.47c-3.359,4.35-6.619,8.97-8.029,14.36    c24.1,29.83,46.64,60.89,68.359,92.49c-20.42-15.96-40.709-32.08-61.25-47.89c-8.25,8.75-14.1,19.59-17.729,31.02    c26.75,14.81,52.681,31.14,77.42,49.12c21.649,15.89,42.601,33.03,60.44,53.2c-2.711-13.69-6.15-27.229-10.12-40.609    C152.5,309.1,123.01,249.49,79.92,200.72C73.53,206.55,67.38,212.68,62.02,219.47z M418.04,302.63    c-15.98,34.89-28.28,71.52-35.891,109.149c16.61-18.81,35.971-34.959,56.021-49.95c26.05-19.29,53.49-36.67,81.84-52.37    c-3.62-11.44-9.479-22.25-17.71-31.03c-20.55,15.79-40.85,31.92-61.26,47.9c10.399-15.09,20.98-30.06,31.75-44.89    c11.77-16.24,24.23-31.96,36.641-47.71c-1.65-5.67-5.11-10.55-8.741-15.12c-5.21-6.45-11.109-12.3-17.22-17.89    C456.57,231.06,434.99,265.87,418.04,302.63z M237.87,264.53c-23.75,13.01-41.351,35.55-50.95,60.63    c14.44,40.93,24.16,83.669,27.48,126.99c8.91,11.591,17.15,23.73,24.41,36.44c17.64,30.739,31.52,63.53,42.879,97.07    c5.681-16.94,12.131-33.61,19.28-49.98c12.99-29.37,28.04-58.14,48.061-83.39c1.72-44.11,11.689-87.66,26.65-129.1    c-5.261-12.99-12.57-25.2-21.86-35.71c-14.49-16.51-34.171-28.84-55.9-32.88C277.551,250.65,255.96,254.48,237.87,264.53z     M35.961,431.82C58.46,446.27,79.58,462.99,98.09,482.31c23.051,24.08,42.17,52.48,52.79,84.24    c5.44,16.59,9.04,34.029,8.31,51.561c25.23,33.859,63.91,55.979,104.451,66.119c-0.181-39.369-7.32-78.67-20.9-115.609    c-22.561-61.71-62.301-116.24-110.76-160.221c-22.42-20.279-46.541-38.79-72.57-54.2C47.69,378.68,40.779,405.199,35.961,431.82z     M431.56,408.27C383.61,451.74,344.2,505.52,321.47,566.39c-14.109,37.59-21.53,77.67-21.729,117.82    c14.409-3.45,28.38-8.67,41.67-15.2c24.2-11.95,46.44-28.76,62.5-50.62c0.12-11,0.93-22.199,3.42-33.02    c7-32.521,23.43-62.41,44.49-87.921c21.36-25.89,47.489-47.529,75.63-65.67c-4.9-26.6-11.74-53.109-23.471-77.58    C478,369.57,453.939,388.05,431.56,408.27z"/>
  <linearGradient id="SVGID_1_" gradientUnits="userSpaceOnUse" x1="162.8896" y1="-58.3125" x2="550.6009" y2="613.2231">
    <stop offset="0.1" style="stop-color:#6D7984"/>
    <stop offset="0.5" style="stop-color:#B4CDDD"/>
    <stop offset="0.9" style="stop-color:#6D7984"/>
  </linearGradient>
  <path fill="url(#SVGID_1_)" d="M169.801,283.11c10.369-16.09,23.659-30.37,39.399-41.31c21.149-14.84,46.8-23.39,72.7-23.26   c26.31-0.04,52.33,8.89,73.63,24.22c14.83,10.58,27.45,24.14,37.409,39.37c23.991-50.29,57.2-96.11,97.431-134.65   c-11.91-17.2-26.53-32.41-42.46-45.91c-38.16-32.22-85.71-52.98-135.19-59.5c-13.89-1.75-27.93-3.07-41.919-1.98   c-42.341,2.52-84.131,15.04-120.58,36.79c-30.091,18.01-57,41.82-77.19,70.59C113.87,185.69,146.41,232.39,169.801,283.11z"/>
  <path fill="url(#SVGID_1_)" d="M43.37,309.45c26.75,14.81,52.681,31.14,77.42,49.12c21.649,15.89,42.601,33.03,60.44,53.2   c-2.711-13.69-6.15-27.229-10.12-40.609C152.5,309.1,123.01,249.49,79.92,200.72c-6.39,5.83-12.54,11.96-17.9,18.75   c-3.359,4.35-6.619,8.97-8.029,14.36c24.1,29.83,46.64,60.89,68.359,92.49c-20.42-15.96-40.709-32.08-61.25-47.89   C52.85,287.18,47,298.02,43.37,309.45z"/>
  <path fill="url(#SVGID_1_)" d="M483.47,200.72c-26.899,30.34-48.479,65.15-65.43,101.91c-15.98,34.89-28.28,71.52-35.891,109.149   c16.61-18.81,35.971-34.959,56.021-49.95c26.05-19.29,53.49-36.67,81.84-52.37c-3.62-11.44-9.479-22.25-17.71-31.03   c-20.55,15.79-40.85,31.92-61.26,47.9c10.399-15.09,20.98-30.06,31.75-44.89c11.77-16.24,24.23-31.96,36.641-47.71   c-1.65-5.67-5.11-10.55-8.741-15.12C495.479,212.16,489.58,206.31,483.47,200.72z"/>
  <path fill="url(#SVGID_1_)" d="M349.03,452.29c1.72-44.11,11.689-87.66,26.65-129.1c-5.261-12.99-12.57-25.2-21.86-35.71   c-14.49-16.51-34.171-28.84-55.9-32.88c-20.369-3.95-41.96-0.12-60.05,9.93c-23.75,13.01-41.351,35.55-50.95,60.63   c14.44,40.93,24.16,83.669,27.48,126.99c8.91,11.591,17.15,23.73,24.41,36.44c17.64,30.739,31.52,63.53,42.879,97.07   c5.681-16.94,12.131-33.61,19.28-49.98C313.96,506.31,329.01,477.54,349.03,452.29z"/>
  <path fill="url(#SVGID_1_)" d="M131.98,408.399c-22.42-20.279-46.541-38.79-72.57-54.2c-11.72,24.48-18.631,51-23.449,77.621   C58.46,446.27,79.58,462.99,98.09,482.31c23.051,24.08,42.17,52.48,52.79,84.24c5.44,16.59,9.04,34.029,8.31,51.561   c25.23,33.859,63.91,55.979,104.451,66.119c-0.181-39.369-7.32-78.67-20.9-115.609C220.18,506.91,180.439,452.38,131.98,408.399z"/>
  <path fill="url(#SVGID_1_)" d="M503.979,354.2c-25.979,15.371-50.04,33.85-72.42,54.07C383.61,451.74,344.2,505.52,321.47,566.39   c-14.109,37.59-21.53,77.67-21.729,117.82c14.409-3.45,28.38-8.67,41.67-15.2c24.2-11.95,46.44-28.76,62.5-50.62   c0.12-11,0.93-22.199,3.42-33.02c7-32.521,23.43-62.41,44.49-87.921c21.36-25.89,47.489-47.529,75.63-65.67   C522.55,405.18,515.71,378.67,503.979,354.2z"/>
</svg>
