<?xml version="1.0" encoding="UTF-8" standalone="no"?>
<svg xmlns:svg="http://www.w3.org/2000/svg" xmlns="http://www.w3.org/2000/svg" version="1.1" x="0px" y="0px" width="563.36px" height="728.99px" viewBox="0 0 563.36 728.99">
  <path d="M169.8,283.11c10.37-16.09,23.66-30.37,39.4-41.31c21.15-14.84,46.8-23.39,72.7-23.26   c26.31-0.04,52.331,8.89,73.63,24.22c14.83,10.58,27.45,24.14,37.409,39.37c23.991-50.29,57.2-96.11,97.431-134.65   c-11.91-17.2-26.53-32.41-42.46-45.91c-38.16-32.22-85.71-52.98-135.19-59.5c-13.89-1.75-27.93-3.07-41.919-1.98   c-42.34,2.52-84.13,15.04-120.58,36.79c-30.09,18.01-57,41.82-77.19,70.59C113.87,185.69,146.41,232.39,169.8,283.11z"/>
  <path d="M43.37,309.45c26.75,14.81,52.68,31.14,77.42,49.12c21.65,15.89,42.6,33.03,60.44,53.2   c-2.71-13.69-6.15-27.229-10.12-40.609c-18.61-62.061-48.1-121.67-91.19-170.44c-6.39,5.83-12.54,11.96-17.9,18.75   c-3.36,4.35-6.62,8.97-8.03,14.36c24.1,29.83,46.64,60.89,68.36,92.49c-20.42-15.96-40.71-32.08-61.25-47.89   C52.85,287.18,47,298.02,43.37,309.45z"/>
  <path d="M483.47,200.72c-26.899,30.34-48.479,65.15-65.43,101.91c-15.98,34.89-28.28,71.52-35.891,109.149   c16.61-18.81,35.971-34.959,56.021-49.95c26.05-19.29,53.49-36.67,81.84-52.37c-3.62-11.44-9.479-22.25-17.71-31.03   c-20.55,15.79-40.85,31.92-61.26,47.9c10.399-15.09,20.98-30.06,31.75-44.89c11.77-16.24,24.23-31.96,36.641-47.71   c-1.65-5.67-5.11-10.55-8.741-15.12C495.479,212.16,489.58,206.31,483.47,200.72z"/>
  <path d="M349.03,452.29c1.72-44.11,11.689-87.66,26.65-129.1c-5.261-12.99-12.57-25.2-21.86-35.71   c-14.49-16.51-34.171-28.84-55.9-32.88c-20.37-3.95-41.96-0.12-60.05,9.93c-23.75,13.01-41.35,35.55-50.95,60.63   c14.44,40.93,24.16,83.669,27.48,126.99c8.91,11.591,17.15,23.73,24.41,36.44c17.64,30.739,31.52,63.53,42.88,97.07   c5.68-16.94,12.13-33.61,19.28-49.98C313.96,506.31,329.01,477.54,349.03,452.29z"/>
  <path d="M131.98,408.399c-22.42-20.279-46.54-38.79-72.57-54.2c-11.72,24.48-18.63,51-23.45,77.621   c22.5,14.449,43.62,31.17,62.13,50.489c23.05,24.08,42.17,52.48,52.79,84.24c5.44,16.59,9.04,34.029,8.31,51.561   c25.23,33.859,63.91,55.979,104.45,66.119c-0.18-39.369-7.32-78.67-20.9-115.609C220.18,506.91,180.44,452.38,131.98,408.399z"/>
  <path d="M503.979,354.2c-25.979,15.371-50.04,33.85-72.42,54.07C383.61,451.74,344.2,505.52,321.47,566.39   c-14.109,37.59-21.53,77.67-21.729,117.82c14.409-3.45,28.38-8.67,41.67-15.2c24.2-11.95,46.44-28.76,62.5-50.62   c0.12-11,0.93-22.199,3.42-33.02c7-32.521,23.43-62.41,44.49-87.921c21.36-25.89,47.489-47.529,75.63-65.67   C522.55,405.18,515.71,378.67,503.979,354.2z"/>
</svg>
