<?xml version="1.0" encoding="UTF-8" standalone="no"?>
<svg xmlns="http://www.w3.org/2000/svg" version="1.1" width="600" height="744.02838">
  <radialGradient cx="0" cy="0" r="1" fx="0" fy="0" id="radialGradient278" gradientUnits="userSpaceOnUse" gradientTransform="matrix(15.683884,0,0,-15.683884,665.50098,483.97754)" spreadMethod="pad">
    <stop style="stop-color:#d9eaf3" offset="0"/>
    <stop style="stop-color:#99aebc" offset="0.66291797"/>
    <stop style="stop-color:#536e78" offset="1"/>
  </radialGradient>
  <path d="M 297.82306,0.0744 C 275.14967,0.5952 201.1217,14.601 130.64634,72.07497 71.051966,120.69534 0,213.5465 0,380.22102 0,543.32434 54.702574,632.7717 100.55155,679.04848 c 51.22438,51.65217 102.59755,63.14697 108.34495,64.30017 14.15459,2.84579 28.55099,-3.4782 36.17698,-15.7542 3.4038,-5.59859 5.1522,-11.92259 5.1522,-18.17219 0,-7.47719 -2.4738,-15.04739 -7.3284,-21.29699 -5.37539,-6.90059 -12.42479,-16.40519 -20.27399,-27.75118 4.929,-6.0264 7.8492,-13.6524 7.8492,-21.72479 0,-0.87346 -0.0744,-1.8042 -0.1488,-2.6784 -0.372,-5.1708 -0.65026,-12.7968 -0.65026,-21.87359 0,-21.07379 1.7298,-50.05258 8.4258,-74.17677 l 56.52537,0 10.6764,0 56.59977,0 c 6.696,24.12419 8.5002,53.10298 8.5002,74.17677 0,9.07679 -0.35415,16.77719 -0.72466,21.87359 -0.0744,0.87494 -0.1488,1.8042 -0.1488,2.6784 0,8.07239 2.9202,15.69839 7.7748,21.72479 -7.7748,11.34599 -14.8242,20.85059 -20.19959,27.82558 -4.8546,6.1752 -7.254,13.7454 -7.254,21.29699 0,6.2496 1.674,12.4992 5.0778,18.09779 7.62599,12.3504 22.02239,18.59999 36.17698,15.7542 5.673,-1.1532 57.12057,-12.648 108.34495,-64.30017 C 545.35323,632.7717 600,543.32434 600,380.29542 600,212.3003 527.92503,119.24455 467.54946,70.62417 395.8279,13.02 321.00013,0 300.42854,0 l -1.7298,0 c -0.2976,0 -0.5952,0 -0.87494,0.0744" style="fill:#ffffff"/>
  <path d="m 294.62386,505.32456 -80.64956,0 c -24.62639,51.01978 -18.09779,133.32474 -18.09779,133.32474 0,0 -57.60418,-77.37597 -57.60418,-167.90212 0,-90.52616 64.22577,-181.05232 64.22577,-181.05232 14.8242,-6.54719 64.15137,-8.22119 64.15137,-8.22119 0,0 -37.85098,-80.64956 -106.94995,-59.20377 -69.173363,21.35279 -90.526153,98.72875 -90.526153,98.72875 29.648386,-18.09779 93.799753,-21.42719 93.799753,-21.42719 0,0 -59.29677,69.17337 -59.29677,167.90212 0,98.74735 111.97195,241.94868 111.97195,241.94868 0,0 -181.070917,-36.17698 -181.070917,-329.20124 0,-290.42026 226.399087,-344.67643 264.045477,-345.62503 l 1.8042,0 c 34.59598,0 264.99407,52.67517 264.99407,345.69943 0,292.94986 -181.07091,329.20124 -181.07091,329.20124 0,0 111.97194,-143.20133 111.97194,-242.02308 0,-98.72875 -59.29677,-167.90212 -59.29677,-167.90212 0,0 64.15137,3.3294 93.79976,21.42719 0,0 -21.35279,-77.37596 -90.52616,-98.72875 -69.09897,-21.44579 -106.94995,59.20377 -106.94995,59.20377 0,0 49.32718,1.674 64.15137,8.22119 0,0 64.22577,90.60056 64.22577,181.12672 0,90.52615 -57.60417,167.82772 -57.60417,167.82772 0,0 6.52859,-82.30496 -18.0978,-133.32474 l -80.64956,0 -10.75079,0 z" style="fill:#536e78"/>
  <g transform="matrix(18.599991,0,0,-18.599991,-12078.295,9369.2438)">
    <path d="m 651.73,483.277 c 0,-11.562 5.239,-15.457 7.872,-16.683 l 0,0 c -1.731,2.461 -5.153,7.855 -5.153,11.996 l 0,0 c 0,3.922 1.653,6.976 2.621,8.426 l 0,0 c -1.105,-0.125 -2.785,-0.411 -3.718,-0.977 l 0,0 -1.082,-0.66 0.335,1.219 c 0.051,0.179 1.27,4.437 5.204,5.656 l 0,0 c 0.464,0.141 0.929,0.215 1.382,0.215 l 0,0 c 3.211,0 4.899,-3.516 4.969,-3.664 l 0,0 0.32,-0.692 -0.753,-0.023 c -0.926,-0.031 -2.516,-0.152 -3.145,-0.356 l 0,0 c -0.516,-0.765 -3.277,-5.089 -3.277,-9.32 l 0,0 c 0,-2.922 1.175,-5.609 2.058,-7.211 l 0,0 c 0.032,1.582 0.239,3.863 1.063,5.567 l 0,0 0.136,0.281 0.313,0 4.336,0 0.578,0 4.336,0 0.313,0 0.136,-0.281 c 0.824,-1.704 1.031,-3.985 1.063,-5.567 l 0,0 c 0.883,1.598 2.058,4.285 2.058,7.207 l 0,0 c 0,4.235 -2.761,8.559 -3.281,9.324 l 0,0 c -0.629,0.204 -2.219,0.325 -3.141,0.356 l 0,0 -0.757,0.023 0.324,0.692 c 0.07,0.148 1.758,3.664 4.969,3.664 l 0,0 c 0.453,0 0.921,-0.074 1.382,-0.215 l 0,0 c 3.934,-1.219 5.153,-5.477 5.204,-5.656 l 0,0 0.335,-1.219 -1.078,0.66 c -0.933,0.566 -2.617,0.852 -3.722,0.977 l 0,0 c 0.965,-1.45 2.621,-4.504 2.621,-8.426 l 0,0 c 0,-4.141 -3.426,-9.535 -5.153,-12 l 0,0 c 2.633,1.23 7.875,5.121 7.875,16.687 l 0,0 c 0,14.942 -11.488,18.086 -13.835,18.086 l 0,0 c -2.719,-0.066 -13.708,-3.504 -13.708,-18.086" style="fill:url(#radialGradient278)"/>
  </g>
</svg>
