<?xml version="1.0" encoding="UTF-8" standalone="no"?>
<svg xmlns="http://www.w3.org/2000/svg" version="1.1" width="600" height="744.02838">
  <path d="m 294.62386,505.32456 -80.64956,0 c -24.62639,51.01978 -18.09779,133.32474 -18.09779,133.32474 0,0 -57.60418,-77.37597 -57.60418,-167.90212 0,-90.52616 64.22577,-181.05232 64.22577,-181.05232 14.8242,-6.54719 64.15137,-8.22119 64.15137,-8.22119 0,0 -37.85098,-80.64956 -106.94995,-59.20377 -69.173363,21.35279 -90.526153,98.72875 -90.526153,98.72875 29.648386,-18.09779 93.799753,-21.42719 93.799753,-21.42719 0,0 -59.29677,69.17337 -59.29677,167.90212 0,98.74735 111.97195,241.94868 111.97195,241.94868 0,0 -181.070917,-36.17698 -181.070917,-329.20124 0,-290.42026 226.399087,-344.67643 264.045477,-345.62503 l 1.8042,0 c 34.59598,0 264.99407,52.67517 264.99407,345.69943 0,292.94986 -181.07091,329.20124 -181.07091,329.20124 0,0 111.97194,-143.20133 111.97194,-242.02308 0,-98.72875 -59.29677,-167.90212 -59.29677,-167.90212 0,0 64.15137,3.3294 93.79976,21.42719 0,0 -21.35279,-77.37596 -90.52616,-98.72875 -69.09897,-21.44579 -106.94995,59.20377 -106.94995,59.20377 0,0 49.32718,1.674 64.15137,8.22119 0,0 64.22577,90.60056 64.22577,181.12672 0,90.52615 -57.60417,167.82772 -57.60417,167.82772 0,0 6.52859,-82.30496 -18.0978,-133.32474 l -80.64956,0 -10.75079,0 z"/>
</svg>
