<?xml version="1.0" encoding="UTF-8" standalone="no"?>
<svg
   xmlns:dc="http://purl.org/dc/elements/1.1/"
   xmlns:cc="http://creativecommons.org/ns#"
   xmlns:rdf="http://www.w3.org/1999/02/22-rdf-syntax-ns#"
   xmlns:svg="http://www.w3.org/2000/svg"
   xmlns="http://www.w3.org/2000/svg"
   xmlns:xlink="http://www.w3.org/1999/xlink"
   height="534.67664"
   width="469.48239"
   version="1.1">
  <defs>
    <linearGradient id="g1">
      <stop offset="0"   style="stop-color:#c34423" />
      <stop offset="0.2" style="stop-color:#e07e25" />
      <stop offset="0.4" style="stop-color:#f8981d" />
      <stop offset="0.6" style="stop-color:#f8981d" />
      <stop offset="0.8" style="stop-color:#e07e25" />
      <stop offset="1"   style="stop-color:#c34423" />
    </linearGradient>
    <linearGradient
       gradientTransform="translate(-698.29492,-95.80273)"
       gradientUnits="userSpaceOnUse"
       y2="119.55158"
       x2="933"
       y1="484.80991"
       x1="722.11798"
       id="g2"
       xlink:href="#g1" />
  </defs>
  <path
     d="M 234.86328,3.9453913e-6 C 230.76288,-0.00239605 226.66176,1.0549329 222.98633,3.1738319 L 11.96094,124.84375 C 4.6101,129.08181 0.07827,136.91925 0.07227,145.4043 l -0.0723,121.93359 0.0723,121.9336 c 0.006,8.48505 4.53783,16.32249 11.88867,20.56055 l 211.02539,121.66992 c 7.35085,4.2378 16.40404,4.23261 23.75,-0.0137 l 210.88285,-121.9199 c 7.3459,-4.24733 11.868,-12.0908 11.8632,-20.57617 l -0.072,-121.6543 0.072,-121.65429 c 0,-8.48537 -4.5173,-16.32884 -11.8632,-20.57617 L 246.73633,3.1875039 C 243.06335,1.0643489 238.96368,0.00236595 234.86328,3.9453913e-6 Z"
     style="fill:#000000" />
  <path
     d="M 234.56055,23.74805 23.67774,145.66797 23.82227,389.25782 234.84961,510.92579 445.73238,389.00782 445.58788,145.41797 Z m -23.49414,45.56641 c 0.87434,75.39468 60.96447,70.95386 133.81247,176.96679 -10.4296,-43.07013 -73.74215,-90.30074 -90.99997,-114.0332 -10.50075,-14.44033 4.88476,-52.8125 4.88476,-52.8125 -0.45351,45.24795 32.93008,69.8219 76.28911,109.19336 32.6153,29.61583 59.3813,53.90212 50.4824,101.56055 15.2256,0.0361 20.3592,8.68106 19.2715,21.83593 16.7799,-5.90946 21.4113,-17.38552 25.8164,-28.96679 9.0977,65.2024 -29.4161,87.65744 -42.5918,96.10547 9.4973,-43.11029 -29.3513,-50.39383 -59.4082,-44.63086 26.247,-43.37789 -70.41564,-43.97421 -91.16019,-28.08008 12.85092,0.78689 24.81432,-3.30775 39.60547,8.15039 -21.04992,19.7993 -20.07198,42.4151 10.38477,40.36328 -24.77947,27.04076 9.6202,32.16915 17.40035,27.32227 -15.11092,25.60569 12.8932,34.27366 40.8946,18.10937 -5.7099,12.48446 -17.448,60.20878 -134.38284,58 24.00715,-8.27112 42.43201,-21.07824 46.86914,-45.25 -6.20407,4.72232 -12.68276,8.62111 -21.3086,6.07813 18.16216,-20.56526 13.03376,-45.0035 -4.48437,-63.4043 -17.48435,-18.36532 -47.82024,-31.0618 -90.33789,-20.54102 16.04407,-21.38092 33.91149,-42.18222 76.5,-55.11718 -8.51952,-6.30128 -19.45064,-11.68246 -40.75,-13.11524 31.03948,-22.00208 57.28879,-20.80885 74,-22.86718 -40.36403,-7.64095 -82.22149,-1.70538 -117.11914,33.5 23.99658,1.30378 23.00196,4.6068 33.38086,7 -24.82332,6.79796 -50.47742,16.14825 -84.36719,50.75 2.58337,-35.75714 6.73831,-72.46621 -55.86914,-68.75 -0.74031,-2.21699 42.52654,-32.50479 67.67578,-44.77149 23.72394,-11.57151 -9.90132,-53.28042 -25.94531,-51.87305 15.68488,-4.61308 37.52342,-7.73331 57.51953,1.81836 -13.67755,-22.70912 -12.86179,-42.51944 -11.5,-62.2207 40.1893,65.42527 87.55535,51.36707 129.5625,107.49609 -14.53537,-42.62422 -42.39742,-52.43812 -45.9375,-59.0332 -3.54008,-6.59508 -11.37897,-52.65322 11.8125,-88.7832 z m 87.6582,167.41797 c -5.98418,4.6466 3.84287,19.92552 10.63867,30.64453 10.5739,16.67812 29.5524,13.31615 30.2852,12.04687 1.5286,-2.64769 -5.9672,-17.96878 -16.5821,-27.78711 -4.547,-4.20574 -18.6613,-19.31506 -24.34177,-14.90429 z"
     style="fill:url(#g2)" />
</svg>
