<?xml version="1.0" encoding="UTF-8" standalone="no"?>
<svg xmlns="http://www.w3.org/2000/svg" version="1.1" width="600" height="459.59628">
  <path d="m 264.77198,459.59583 c -62.6659,0 -149.24227,-9.96174 -206.059803,-57.49544 C 15.625066,366.06807 -6.2746758,311.89321 1.5729234,260.77466 7.0536039,225.3628 25.632766,194.75372 40.270894,175.35878 l 4.527019,-6.00922 82.141267,-0.41364 -0.45959,-106.00578 6.11262,-4.63043 C 184.3427,19.25704 244.12463,1.26387 326.34633,0.0919 329.31073,0.0459 332.27512,0 335.22802,0 c 62.61994,0 149.24226,9.96174 206.0598,57.49544 43.08711,36.0438 64.98686,90.21867 57.13926,141.33721 -5.43472,35.41186 -24.05985,66.02095 -38.69797,85.41589 l -4.52702,6.05518 -82.17574,0.35664 0.4936,106.01728 -6.11262,4.61894 c -51.75049,39.04264 -111.53242,57.04731 -193.75412,58.20779 -2.9644,0.046 -5.92879,0.0919 -8.88169,0.0919" style="fill:#ffffff"/>
  <path d="m 473.29062,228.76381 c -5.06705,2.83801 -10.27197,5.21642 -15.70669,7.31907 -0.0919,-23.78409 -0.2298,-47.48774 -0.30977,-71.22587 -13.55808,-9.74343 -28.05833,-18.22298 -43.27095,-25.13989 -18.71704,-8.52551 -38.51413,-14.71856 -58.66741,-18.57916 l 0.27576,62.03395 c -63.55062,0.26472 -127.11273,0.54048 -190.66334,0.80429 0.046,-10.99583 2.82651,-22.03762 8.12335,-30.91931 15.35051,-25.588 51.7505,-33.21729 85.50781,-37.97411 59.41426,-8.35315 110.49834,-7.95101 165.16726,-1.62008 17.49911,2.02223 35.3659,4.67639 51.16451,12.61591 20.64734,10.36389 37.79027,29.75883 38.45668,48.96994 0.77029,20.77373 -17.80934,41.2832 -40.07675,53.71526 M 173.51922,215.30915 c 22.62361,-3.86061 46.40769,-4.27425 69.21514,-5.07854 38.73244,-1.39028 74.50048,-3.90656 115.34707,2.28649 25.8063,3.90657 53.58887,11.31755 67.10099,29.89671 0.49453,0.6324 0.89621,1.2524 1.29836,1.88434 -22.62361,3.86061 -46.40769,4.26276 -69.21514,5.06705 -38.73244,1.39028 -74.50048,3.95252 -115.34707,-2.28649 -25.8063,-3.90657 -53.58887,-11.35202 -67.13546,-29.88522 -0.4596,-0.63241 -0.86128,-1.26389 -1.26389,-1.88434 m 253.40966,91.24126 c -15.3505,25.62247 -51.79645,33.21729 -85.5078,37.97411 -59.41426,8.38762 -110.49834,7.93952 -165.16726,1.60858 -17.49912,-2.01073 -35.3659,-4.66489 -51.16451,-12.60441 C 104.44196,323.15331 87.299039,303.7239 86.632625,284.55875 85.862343,263.77353 104.44196,243.31002 126.70938,230.832 c 5.06705,-2.82652 10.27197,-5.20493 15.70669,-7.27311 l 0.30977,71.1914 c 13.55808,9.73194 28.05833,18.17701 43.27095,25.1284 18.71704,8.5255 38.51413,14.71856 58.66741,18.62512 l -0.27576,-62.06842 c 63.55062,-0.27575 127.11272,-0.54048 190.66334,-0.85025 -0.046,11.04179 -2.82651,22.11805 -8.12336,30.96527 M 531.54393,69.16915 C 480.42538,26.43823 399.50204,14.19 326.56418,15.25856 258.0844,16.29265 196.63643,29.00048 141.7492,70.46751 c 0.12685,37.88219 0.30977,75.76438 0.4936,113.64657 -29.94267,0.12593 -59.873845,0.2638 -89.862475,0.40168 -17.499112,23.24406 -31.505295,50.85428 -35.768047,78.59089 -7.3190635,47.70605 14.132573,95.82574 51.842412,127.33104 51.11855,42.73092 132.04189,54.97915 204.97975,53.8991 68.47978,-0.98813 129.92775,-13.77639 184.81498,-55.16299 -0.12685,-37.91666 -0.30977,-75.79885 -0.4936,-113.68104 29.94267,-0.0919 59.87385,-0.2298 89.86248,-0.4026 17.49911,-23.20959 31.50529,-50.85428 35.76804,-78.59089 7.31907,-47.70605 -14.13257,-95.82574 -51.84241,-127.33104"/>
</svg>
