<?xml version="1.0" encoding="UTF-8" standalone="no"?>
<svg xmlns="http://www.w3.org/2000/svg" xmlns:xlink="http://www.w3.org/1999/xlink" version="1.1" width="600" height="459.59595">
  <linearGradient x1="0" y1="0" x2="1" y2="0" id="linearGradient678" gradientUnits="userSpaceOnUse" gradientTransform="matrix(25.040466,-29.842071,-29.842071,-25.040466,470.47949,161.43262)" spreadMethod="pad">
    <stop style="stop-color:#bf331c" offset="0"/>
    <stop style="stop-color:#d3641c" offset="0.3"/>
    <stop style="stop-color:#f6b91d" offset="0.5"/>
    <stop style="stop-color:#d3641c" offset="0.7"/>
    <stop style="stop-color:#bf331c" offset="1"/>
  </linearGradient>
  <linearGradient x1="0" y1="0" x2="1" y2="0" id="linearGradient2991" xlink:href="#linearGradient678" gradientUnits="userSpaceOnUse" gradientTransform="matrix(287.71213,342.88204,-342.88204,287.71213,156.14052,58.36149)" spreadMethod="pad"/>
  <path d="m 264.77177,459.59548 c -62.61988,0 -149.24214,-9.96173 -206.059638,-57.4954 C 15.625054,366.0678 -6.274671,311.89298 1.5729222,260.77447 7.0076389,225.36263 25.632746,194.75357 40.270863,175.35864 l 4.527016,-6.00921 82.175671,-0.41363 -0.4936,-106.00571 6.06666,-4.63042 C 184.34302,19.25703 244.07895,1.26387 326.34654,0.0919 329.31093,0.0459 332.27532,0 335.22822,0 c 62.66585,0 149.24215,9.96173 206.05965,57.4954 43.08708,36.04377 64.9868,90.21859 57.13921,141.3371 -5.48068,35.41184 -24.05983,66.0209 -38.69794,85.41583 l -4.52702,6.05517 -82.17567,0.35664 0.4936,106.0172 -6.06666,4.61893 c -51.79641,39.04262 -111.5783,57.04727 -193.79993,58.20775 -2.96439,0.046 -5.92878,0.0919 -8.88169,0.0919"/>
  <path d="M 326.56439,15.25855 C 258.08466,16.29264 196.63674,29.04642 141.74955,70.46746 l 0,0 c 0.12639,37.88216 0.31023,75.76432 0.49406,113.64648 l 0,0 c -29.94264,0.12639 -59.919759,0.26427 -89.816446,0.40214 l 0,0 c -17.545058,23.19809 -31.551231,50.85425 -35.813979,78.59083 l 0,0 c -7.3190584,47.70602 14.132561,95.82567 51.842372,127.33094 l 0,0 c 51.118513,42.73089 132.041783,54.97911 204.979593,53.89906 l 0,0 C 341.91488,443.30282 403.3628,430.60649 458.24999,389.128 l 0,0 c -0.17235,-37.87067 -0.31023,-75.75283 -0.49406,-113.63499 l 0,0 c 29.94264,-0.13788 59.8738,-0.22979 89.86241,-0.35618 l 0,0 c 17.49909,-23.3015 31.50527,-50.85425 35.76802,-78.63679 l 0,0 C 590.70541,148.79402 569.25379,100.72033 531.54398,69.1691 l 0,0 C 482.44769,28.10425 405.83312,15.21259 335.22777,15.21259 l 0,0 c -2.91844,0 -5.79091,0 -8.66338,0.046 M 173.11694,153.05681 c 15.30453,-25.63394 51.75046,-33.1713 85.41583,-37.92812 l 0,0 c 59.46016,-8.3991 110.5442,-7.99696 165.21309,-1.66603 l 0,0 c 17.4991,2.02222 35.36587,4.67638 51.16447,12.6159 l 0,0 c 20.64733,10.36387 37.79024,29.80476 38.45665,48.9699 l 0,0 c 0.76982,20.77371 -17.85528,41.2372 -40.07673,53.71522 l 0,0 c -5.06704,2.838 -10.31792,5.25088 -15.70667,7.31906 l 0,0 -0.31023,-71.22581 0,0 c -13.55807,-9.74343 -28.05831,-18.17701 -43.27092,-25.13988 l 0,0 c -18.71702,-8.52549 -38.5141,-14.71854 -58.66736,-18.57915 l 0,0 c 0.0919,20.64733 0.18384,41.34062 0.27576,62.03391 l 0,0 c -63.55057,0.26426 -127.11263,0.54002 -190.6632,0.85025 l 0,0 c 0,-11.08774 2.82651,-22.08357 8.16931,-30.96525 m 68.75549,94.02175 C 216.1121,243.172 188.32955,235.77251 174.78298,217.19336 l 0,0 c -0.4596,-0.63194 -0.86175,-1.26388 -1.26389,-1.88434 l 0,0 c 22.62359,-3.8606 46.40765,-4.27424 69.16912,-5.07853 l 0,0 c 38.77837,-1.39027 74.54639,-3.95252 115.39294,2.28649 l 0,0 c 25.80629,3.90656 53.58884,11.3635 67.13541,29.89669 l 0,0 c 0.41364,0.63194 0.86175,1.25239 1.26389,1.88434 l 0,0 c -22.62359,3.8606 -46.40765,4.26275 -69.21508,5.06704 l 0,0 c -19.6592,0.72386 -38.59453,1.71199 -57.80562,1.71199 l 0,0 c -18.57915,0 -37.48002,-0.94217 -57.58732,-3.99848 m -65.61875,99.05432 c -17.4991,-2.01073 -35.36587,-4.66489 -51.21043,-12.60441 l 0,0 C 104.44188,323.15307 87.298973,303.76963 86.632559,284.60449 l 0,0 c -0.769822,-20.83116 17.809321,-41.34061 40.076731,-53.77267 l 0,0 c 5.06704,-2.82651 10.27196,-5.25088 15.70667,-7.2731 l 0,0 0.31023,71.2373 0,0 c 13.55807,9.68598 28.05831,18.17701 43.27092,25.08243 l 0,0 c 18.71702,8.5255 38.5141,14.71854 58.66736,18.57915 l 0,0 c -0.0919,-20.64733 -0.18384,-41.32913 -0.32172,-62.02242 l 0,0 190.70916,-0.85025 c -0.046,11.04178 -2.82651,22.11804 -8.12335,30.96525 l 0,0 c -15.35049,25.58798 -51.79642,33.21726 -85.50775,37.97408 l 0,0 c -30.91928,4.35466 -59.55208,6.31944 -87.64486,6.31944 l 0,0 c -25.8982,0 -51.30235,-1.65455 -77.52227,-4.71086" style="fill:url(#linearGradient2991)"/>
</svg>
