<?xml version="1.0" encoding="UTF-8" standalone="no"?>
<svg xmlns="http://www.w3.org/2000/svg" version="1.1" width="600" height="758.53424">
  <path d="m 401.26271,176.07535 -50.15803,147.85714 0,0 c -0.22756,-0.15171 -0.43692,-0.20936 -0.66296,-0.28521 C 346.74387,207.42099 337.77421,117.933 323.77927,57.49684 L 300.89052,0 277.92592,57.42099 c -13.99495,60.51201 -22.96461,150 -26.60557,266.22629 -0.2852,0.0759 -0.43691,0.13654 -0.66295,0.28521 l -0.0759,0 -49.77876,-148.59671 C 83.912769,216.29659 0,327.6493 0,458.53426 c 0,165.70164 134.35525,300 300,300 165.70164,0 300,-134.29836 300,-300 0,-130.14539 -82.88875,-240.89128 -198.73578,-282.45891" style="fill:#808080"/>
  <path d="m 343.25386,589.72263 c 79.62705,-25.92288 117.62958,-116.45386 80.36662,-191.41593 30.81542,-37.11125 61.55499,-74.2225 92.37042,-111.33375 134.75347,168.22376 33.05309,419.05183 -180.81543,445.86599 0.73882,-7.64223 1.34716,-15.34134 1.93426,-23.04046 1.7067,-21.56131 2.95829,-43.12263 4.00127,-64.66498 0.74033,-14.14665 1.25158,-28.2933 1.78255,-42.43995 0.13654,-4.30468 0.20936,-8.68521 0.36106,-12.97092 M 178.06498,398.3067 c -37.26296,74.96207 0.74033,165.49305 80.36663,191.41593 0.1517,4.28571 0.22756,8.66624 0.45512,12.97092 0.43691,14.14665 1.04222,28.2933 1.7067,42.43995 1.02402,21.54235 2.37041,43.10367 4.00126,64.66498 0.58711,7.69912 1.17573,15.39823 1.9153,23.04046 C 52.66043,706.02478 -49.039949,455.19671 85.694564,286.97295 116.50999,324.0842 147.24956,361.19545 178.06498,398.3067 M 414.95499,208.38887 c 27.55373,12.51581 51.48547,28.44501 73.63464,49.02023 -25.92288,40.01264 -51.92161,79.93047 -77.8445,119.86726 -11.34007,-15.11378 -24.311,-26.73831 -40.6005,-36.21998 14.96207,-44.2225 29.84829,-88.445 44.81036,-132.66751 m -183.4134,132.66751 c -16.21365,9.48167 -29.24146,21.1062 -40.50569,36.21998 -25.99873,-39.93679 -51.99747,-79.85462 -77.93931,-119.86726 22.14917,-20.57522 46.15676,-36.50442 73.63464,-49.02023 14.96207,44.22251 29.84829,88.44501 44.81036,132.66751 m 42.0038,200.80279 c -0.43692,-26.20734 -0.74033,-53.76107 -0.74033,-82.50949 0,-28.82427 0.30341,-56.30215 0.74033,-82.60429 -79.55121,26.30214 -79.55121,138.83059 0,165.11378 m 55.33501,-82.50949 c 0,28.80531 -0.20935,56.30215 -0.73881,82.50949 79.57017,-26.28319 79.57017,-138.81164 0,-165.11378 0.53098,26.30214 0.73881,53.78002 0.73881,82.60429 M 274.28496,341.41669 c 3.33754,-123.622 12.1555,-216.44754 26.60556,-278.66625 14.37421,62.21871 23.1732,155.04425 26.51074,278.66625 55.10746,12.36409 94.38054,61.40328 94.38054,117.93299 0,56.51075 -39.19722,105.47409 -94.38054,117.933 -1.63084,59.46903 -4.43742,111.92162 -8.59039,157.1871 -12.00379,0.73882 -23.93173,0.73882 -35.85967,0 -4.20986,-45.26548 -7.0354,-97.71807 -8.66624,-157.1871 -55.10746,-12.45891 -94.28572,-61.42225 -94.28572,-117.933 0,-56.52971 39.17826,-105.5689 94.28572,-117.93299"/>
</svg>
