<?xml version="1.0" encoding="UTF-8" standalone="no"?>
<svg xmlns="http://www.w3.org/2000/svg" xmlns:xlink="http://www.w3.org/1999/xlink" version="1.1" width="600" height="758.53424">
  <linearGradient x1="0" y1="0" x2="1" y2="0" id="linearGradient570" gradientUnits="userSpaceOnUse" gradientTransform="matrix(16.335449,-28.293823,-28.293823,-16.335449,487.24121,383.55664)" spreadMethod="pad">
    <stop style="stop-color:#bf331c" offset="0"/>
    <stop style="stop-color:#d3641c" offset="0.39999399"/>
    <stop style="stop-color:#f6b91d" offset="0.5"/>
    <stop style="stop-color:#d3641c" offset="0.69999701"/>
    <stop style="stop-color:#bf331c" offset="1"/>
  </linearGradient>
  <linearGradient x1="0" y1="0" x2="1" y2="0" id="linearGradient3000" xlink:href="#linearGradient570" gradientUnits="userSpaceOnUse" gradientTransform="matrix(309.77463,536.54532,-536.54532,309.77463,129.16555,161.8976)" spreadMethod="pad"/>
  <path d="m 401.2665,176.07535 -50.15803,147.85714 -0.0759,0 c -0.20784,-0.15171 -0.43692,-0.20936 -0.66296,-0.28521 C 346.74761,207.42099 337.77795,117.933 323.78301,57.49684 L 300.81841,0 277.92966,57.42099 c -13.99494,60.51201 -22.9646,150 -26.66245,266.22629 -0.22756,0.0759 -0.45512,0.13654 -0.60683,0.28521 l -0.0607,0 -49.77876,-148.59671 C 83.855879,216.29659 0,327.6493 0,458.53426 c 0,165.70164 134.29836,300 300,300 165.70164,0 300,-134.29836 300,-300 0,-130.14539 -82.88875,-240.89128 -198.73578,-282.45891"/>
  <path d="m 405.41947,184.81745 -49.64602,145.94184 -11.92794,-2.29456 -0.13653,-4.60809 C 340.06802,208.44576 331.19317,119.48875 317.33097,59.48875 L 300.81391,18.14867 284.37269,59.48875 c -13.8622,60 -22.73704,148.95701 -26.378,264.36789 l -0.15171,4.60809 -12.06068,2.29456 -49.1909,-146.75727 C 82.735525,226.89709 6.7304678,336.3914 6.7304678,458.53426 c 0,161.70038 131.5676322,293.26801 293.2680122,293.26801 161.70038,0 293.26802,-131.56763 293.26802,-293.26801 0,-121.19469 -75.18964,-230.30973 -187.85082,-273.71681"/>
  <path d="m 274.30695,341.41669 c -55.20227,12.36409 -94.38053,61.40328 -94.38053,117.93299 l 0,0 c 0,56.51075 39.17826,105.47409 94.38053,117.933 l 0,0 c 1.555,59.46903 4.43742,111.84577 8.5904,157.1871 l 0,0 c 11.98482,0.73958 23.91276,0.73958 35.8407,0 l 0,0 c 4.22883,-45.34133 7.0354,-97.71807 8.66625,-157.1871 l 0,0 c 55.12642,-12.45891 94.30468,-61.42225 94.30468,-117.933 l 0,0 c 0,-56.52971 -39.17826,-105.5689 -94.30468,-117.93299 l 0,0 C 324.08571,217.79469 315.26776,124.8933 300.8177,62.75044 l 0,0 c -14.37421,62.14286 -23.26802,155.04425 -26.51075,278.66625 m 54.5196,117.93299 c 0,-28.82427 -0.22756,-56.30215 -0.68268,-82.60429 l 0,0 c 79.57016,26.30214 79.57016,138.83059 0,165.18963 l 0,0 c 0.45512,-26.28319 0.68268,-53.78003 0.68268,-82.58534 m -55.33502,-82.60429 c -0.45512,26.30214 -0.68268,53.78002 -0.68268,82.60429 l 0,0 c 0,28.80531 0.22756,56.30215 0.68268,82.58534 l 0,0 c -79.49431,-26.35904 -79.49431,-138.88749 0,-165.18963 m 96.65613,-35.68901 c 16.30847,9.55753 29.26043,21.18205 40.52465,36.21998 l 0,0 c 25.99874,-39.93679 51.92162,-79.85462 77.92036,-119.7914 l 0,0 c -22.14918,-20.65108 -46.1378,-36.58028 -73.63464,-49.09609 l 0,0 c -14.96208,44.22251 -29.8483,88.44501 -44.81037,132.66751 M 113.11858,257.48496 c 25.92289,39.93678 51.92162,79.85461 77.8445,119.7914 l 0,0 c 11.34008,-15.03793 24.29204,-26.66245 40.60051,-36.21998 l 0,0 c -14.96207,-44.2225 -29.86726,-88.445 -44.82933,-132.66751 l 0,0 c -27.55373,12.51581 -51.48546,28.44501 -73.61568,49.09609 M 423.64324,398.3067 c 37.24399,74.96207 -0.81543,165.49305 -80.38559,191.41593 l 0,0 c -0.15171,4.28571 -0.28445,8.66624 -0.3603,12.97092 l 0,0 c -0.53098,14.14665 -1.11884,28.2933 -1.78256,42.43995 l 0,0 c -1.04298,21.54235 -2.29456,43.10367 -4.00126,64.66498 l 0,0 c -0.58787,7.69912 -1.17573,15.39823 -1.93426,23.11631 l 0,0 C 549.04779,706.02478 650.74817,455.19671 516.01365,286.97295 l 0,0 c -30.81542,37.11125 -61.63084,74.2225 -92.37041,111.33375 M 266.43717,732.91479 c -0.66372,-7.71808 -1.25158,-15.41719 -1.83945,-23.11631 l 0,0 c -1.7067,-21.56131 -2.95828,-43.12263 -4.00126,-64.66498 l 0,0 c -0.66372,-14.14665 -1.27054,-28.2933 -1.78255,-42.43995 l 0,0 c -0.15171,-4.30468 -0.30342,-8.68521 -0.36031,-12.97092 l 0,0 C 178.80759,563.79975 140.80506,473.26877 178.06802,398.3067 l 0,0 C 147.25259,361.19545 116.43717,324.0842 85.697598,286.97295 l 0,0 C -49.112769,455.19671 52.663464,706.02478 266.43717,732.91479" style="fill:url(#linearGradient3000)"/>
</svg>
