<?xml version="1.0" encoding="UTF-8" standalone="no"?>
<svg xmlns="http://www.w3.org/2000/svg" xmlns:xlink="http://www.w3.org/1999/xlink" version="1.1" width="600" height="758.6062">
  <linearGradient x1="0" y1="0" x2="1" y2="0" id="linearGradient550" gradientUnits="userSpaceOnUse" gradientTransform="matrix(16.335937,-28.294678,-28.294678,-16.335937,420.83203,383.55713)" spreadMethod="pad">
    <stop style="stop-color:#8b723c" offset="0"/>
    <stop style="stop-color:#d2bb7b" offset="0.39999399"/>
    <stop style="stop-color:#ebd491" offset="0.5"/>
    <stop style="stop-color:#d2bb7b" offset="0.69999701"/>
    <stop style="stop-color:#8b723c" offset="1"/>
  </linearGradient>
  <linearGradient x1="0" y1="0" x2="1" y2="0" id="linearGradient2998" xlink:href="#linearGradient550" gradientUnits="userSpaceOnUse" gradientTransform="matrix(309.81326,536.6124,-536.6124,309.81326,129.13266,161.90367)" spreadMethod="pad"/>
  <path d="m 401.24386,176.09205 -50.16278,147.87116 0,0 c -0.22759,-0.15172 -0.43696,-0.20938 -0.66303,-0.28524 C 346.71985,207.44066 337.74934,117.94418 323.75307,57.50229 L 300.86216,0 277.89538,57.42643 c -13.99627,60.51775 -22.96678,150.01423 -26.60809,266.25154 -0.28524,0.0759 -0.43696,0.13655 -0.66302,0.28524 l -0.0759,0 L 200.76489,175.3524 C 83.86383,216.3171 0,327.68038 0,458.57774 0,624.2951 134.31109,758.60619 299.97155,758.60619 465.68891,758.60619 600,624.2951 600,458.57774 600,328.42002 517.10339,217.66362 401.24538,176.09205"/>
  <path d="m 274.25331,341.44906 c -55.18854,12.36527 -94.37051,61.40911 -94.37051,117.94418 l 0,0 c 0,56.51611 39.18197,105.48409 94.37051,117.94418 l 0,0 c 1.55514,59.47467 4.45681,111.85637 8.61017,157.20201 l 0,0 c 11.98597,0.73964 23.91504,0.73964 35.84411,0 l 0,0 c 4.22922,-45.34564 7.03606,-97.72734 8.66707,-157.20201 l 0,0 c 55.11268,-12.46009 94.38948,-61.42807 94.38948,-117.94418 l 0,0 c 0,-56.53507 -39.2768,-105.57891 -94.38948,-117.94418 l 0,0 C 324.11265,217.81534 315.23697,124.90514 300.8614,62.75639 l 0,0 c -14.45144,62.14875 -23.34609,155.05895 -26.60809,278.69267 m 54.60063,117.94418 c 0,-28.827 -0.28448,-56.30748 -0.73964,-82.61213 l 0,0 c 79.57771,26.30465 79.57771,138.84376 0,165.2053 l 0,0 c 0.45516,-26.28568 0.73964,-53.78513 0.73964,-82.59317 m -55.34027,-82.61213 c -0.4362,26.30465 -0.73964,53.78513 -0.73964,82.61213 l 0,0 c 0,28.80804 0.30344,56.30749 0.73964,82.59317 l 0,0 c -79.55874,-26.36154 -79.55874,-138.90065 0,-165.2053 m 96.6084,-35.69238 c 16.29105,9.55842 29.33907,21.18405 40.5285,36.22341 l 0,0 c 26.0012,-39.94058 52.0024,-79.86219 77.92774,-119.80277 l 0,0 c -22.15128,-20.65303 -46.08528,-36.58374 -73.64162,-49.10073 l 0,0 c -14.96349,44.22669 -29.85113,88.45339 -44.81462,132.68009 M 113.04966,257.50937 c 26.0012,39.94058 51.9455,79.86219 77.94671,119.80277 l 0,0 c 11.26529,-15.03936 24.21847,-26.66499 40.50952,-36.22341 l 0,0 -44.81461,-132.68009 0,0 c -27.55634,12.51699 -51.49034,28.4477 -73.64162,49.10073 m 310.5541,140.8351 c 37.26649,74.96918 -0.81551,165.50874 -80.37425,191.43408 l 0,0 c -0.15172,4.28612 -0.30344,8.66707 -0.36034,12.97215 l 0,0 c -0.53102,14.148 -1.04308,28.29599 -1.78272,42.44398 l 0,0 c -1.04308,21.54439 -2.29478,43.10775 -4.00164,64.67111 l 0,0 c -0.51206,7.69985 -1.19481,15.39969 -1.85859,23.1185 l 0,0 C 549.03916,706.09173 650.74919,455.23988 515.98293,287.00016 l 0,0 C 485.24045,324.11493 454.4221,361.2297 423.60376,398.34447 M 266.47761,732.98429 c -0.73964,-7.71881 -1.32756,-15.41865 -1.91548,-23.1185 l 0,0 c -1.63101,-21.56336 -2.97753,-43.12672 -4.00165,-64.67111 l 0,0 c -0.66378,-14.14799 -1.27066,-28.29598 -1.70686,-42.44398 l 0,0 c -0.22758,-4.30508 -0.3793,-8.68603 -0.45516,-12.97215 l 0,0 C 178.76385,563.85321 140.75772,473.31365 178.02421,398.34447 l 0,0 C 147.20587,361.2297 116.38752,324.11493 85.645036,287.00016 l 0,0 C -49.102254,455.23988 52.607769,706.09173 266.47761,732.98429" style="fill:url(#linearGradient2998)"/>
</svg>
