<?xml version="1.0" encoding="UTF-8" standalone="no"?>
<svg xmlns="http://www.w3.org/2000/svg" xmlns:xlink="http://www.w3.org/1999/xlink" version="1.1" width="600" height="758.53424">
  <linearGradient x1="0" y1="0" x2="1" y2="0" id="linearGradient532" gradientUnits="userSpaceOnUse" gradientTransform="matrix(16.335937,-28.294678,-28.294678,-16.335937,353.83203,383.55713)" spreadMethod="pad">
    <stop style="stop-color:#536e78" offset="0"/>
    <stop style="stop-color:#99aebc" offset="0.39999399"/>
    <stop style="stop-color:#d9eaf3" offset="0.5"/>
    <stop style="stop-color:#99aebc" offset="0.69999701"/>
    <stop style="stop-color:#536e78" offset="1"/>
  </linearGradient>
  <linearGradient x1="0" y1="0" x2="1" y2="0" id="linearGradient2998" xlink:href="#linearGradient532" gradientUnits="userSpaceOnUse" gradientTransform="matrix(309.78388,536.56152,-536.56152,309.78388,129.17731,161.88831)" spreadMethod="pad"/>
  <path d="m 401.26271,176.07535 -50.15803,147.85714 0,0 c -0.22756,-0.15171 -0.43692,-0.20936 -0.66296,-0.28521 C 346.74387,207.42099 337.77421,117.933 323.77927,57.49684 L 300.89052,0 277.92592,57.42099 c -13.99495,60.51201 -22.96461,150 -26.60557,266.22629 -0.2852,0.0759 -0.43691,0.13654 -0.66295,0.28521 l -0.0759,0 -49.77876,-148.59671 C 83.912769,216.29659 0,327.6493 0,458.53426 c 0,165.70164 134.35525,300 300,300 165.70164,0 300,-134.29836 300,-300 0,-130.14539 -82.88875,-240.89128 -198.73578,-282.45891"/>
  <path d="m 274.2842,341.41669 c -55.10746,12.36409 -94.28572,61.40328 -94.28572,117.93299 l 0,0 c 0,56.51075 39.17826,105.47409 94.28572,117.933 l 0,0 c 1.63084,59.46903 4.45638,111.84577 8.60935,157.1871 l 0,0 c 11.98483,0.73958 23.91277,0.73958 35.84071,0 l 0,0 c 4.22882,-45.34133 7.0354,-97.71807 8.66625,-157.1871 l 0,0 c 55.18331,-12.45891 94.38053,-61.42225 94.38053,-117.933 l 0,0 c 0,-56.52971 -39.19722,-105.5689 -94.38053,-117.93299 l 0,0 C 324.06296,217.79469 315.26397,124.8933 300.88976,62.75044 l 0,0 C 286.4397,124.8933 277.62174,217.79469 274.2842,341.41669 m 54.59545,117.93299 c 0,-28.82427 -0.2086,-56.30215 -0.73957,-82.60429 l 0,0 c 79.57016,26.30214 79.57016,138.83059 0,165.18963 l 0,0 c 0.53097,-26.28319 0.73957,-53.78003 0.73957,-82.58534 m -55.33502,-82.60429 c -0.43616,26.30214 -0.73957,53.78002 -0.73957,82.60429 l 0,0 c 0,28.80531 0.30341,56.30215 0.73957,82.58534 l 0,0 c -79.5512,-26.35904 -79.5512,-138.88749 0,-165.18963 m 96.59924,-35.68901 c 16.28951,9.55753 29.33628,21.18205 40.6005,36.21998 l 0,0 c 25.92289,-39.93679 51.92162,-79.85462 77.8445,-119.7914 l 0,0 C 466.4397,236.83388 442.50796,220.90468 414.95424,208.38887 l 0,0 c -14.96208,44.22251 -29.8483,88.44501 -44.81037,132.66751 M 113.09583,257.48496 c 25.94184,39.93678 51.94058,79.85461 77.93932,119.7914 l 0,0 c 11.26422,-15.03793 24.21618,-26.66245 40.50568,-36.21998 l 0,0 c -14.96207,-44.2225 -29.84829,-88.445 -44.81036,-132.66751 l 0,0 c -27.55373,12.51581 -51.48546,28.44501 -73.63464,49.09609 M 423.62048,398.3067 c 37.26296,74.96207 -0.73957,165.49305 -80.36662,191.41593 l 0,0 c -0.0759,4.28571 -0.30342,8.66624 -0.36031,12.97092 l 0,0 c -0.53097,14.14665 -1.11883,28.2933 -1.78255,42.43995 l 0,0 c -1.04298,21.54235 -2.29457,43.10367 -4.00127,64.66498 l 0,0 c -0.58786,7.69912 -1.19469,15.39823 -1.93426,23.11631 l 0,0 C 549.04399,706.02478 650.74437,455.19671 515.9909,286.97295 l 0,0 c -30.81543,37.11125 -61.555,74.2225 -92.37042,111.33375 M 266.50923,732.91479 c -0.73957,-7.71808 -1.32743,-15.41719 -1.9153,-23.11631 l 0,0 c -1.63085,-21.56131 -2.97724,-43.12263 -4.00126,-64.66498 l 0,0 c -0.66372,-14.14665 -1.27055,-28.2933 -1.7067,-42.43995 l 0,0 c -0.22756,-4.30468 -0.30342,-8.68521 -0.45512,-12.97092 l 0,0 C 178.80379,563.79975 140.80126,473.26877 178.06422,398.3067 l 0,0 C 147.2488,361.19545 116.50923,324.0842 85.693805,286.97295 l 0,0 C -49.040708,455.19671 52.659671,706.02478 266.50923,732.91479" style="fill:url(#linearGradient2998)"/>
</svg>
