<?xml version="1.0" encoding="UTF-8" standalone="no"?>
<svg xmlns="http://www.w3.org/2000/svg" version="1.1" x="0px" y="0px" width="879.00201" height="878.99902" viewBox="-43.951 -38.879 879.00201 878.99901">
  <path d="m 366.739,-38.879 h 2.818 c 0.13,18.38 1.23,36.73 1.71,55.1 2.87,80.02 5.682,160.03 8.5,240.05 0.2,2.77 0.67,5.65 -0.04,8.39 -6.51,1.33 -13.04,2.64 -19.648,3.41 -4.41,0.3 -8.19,2.85 -12.262,4.32 -24.078,-98.33 -48.218,-196.63 -72.228,-294.97 2.99,-0.85 5.97,-1.73 8.92,-2.71 26.68,-8.26 55.003,-10.821 82.23,-13.59 z m 55.37,0 h 3.102 c 9.32,1.4 18.77,1.8 28.08,3.35 21.13,2.77 42.08,7.02 62.49,13.19 -24.062,98.25 -48.212,196.49 -72.171,294.77 -4.109,-1.68 -8.091,-4 -12.591,-4.4 -6.55,-0.74 -12.988,-2.16 -19.46,-3.37 0.021,-4.48 -0.188,-8.98 0.23,-13.44 3.49,-96.7 6.74,-193.4 10.32,-290.1 z m -280.69,80.22 c 23.77,-17.28 49.75,-31.28 76.48,-43.39 31.36,97.92 62.38,195.95 93.83,293.84 -3.47,3.24 -7.608,5.7 -10.858,9.2 -6.512,6.79 -12.17,14.36 -17.34,22.21 -6.771,-9.18 -12.62,-19 -19.24,-28.29 -51.2,-76.23 -102.54,-152.36 -153.76,-228.57 10.028,-8.65 20.018,-17.39 30.888,-25 z m 432.79,-42.34 c 16.14,6.04 31.77,13.48 46.39,22.63 11.67,7.12 22.49,15.521 33.62,23.45 8.63,6.62 17.01,13.58 25.55,20.31 -20.2,30.76 -41.01,61.12 -61.29,91.83 -36.948,54.92 -73.54,110.07 -110.54,164.96 -5.318,-7.54 -10.79,-15.05 -17.5,-21.43 -3.188,-3.47 -7.35,-5.78 -10.79,-8.95 30.83,-94.66 61.262,-189.46 91.98,-284.17 0.98,-2.83 1.91,-5.69 2.58,-8.63 z m -47.73,362.4 c 66.13,-84.3 132.142,-168.71 198.352,-252.94 16.66,19.39 32.06,39.92 45.18,61.89 37.2,61.88 58.98,132.74 63.91,204.73 0.81,5.9 0.229,11.89 1.13,17.771 v 21.38 c -1,13.46 -1.28,27.04 -3.26,40.438 -6.5,57 -25.642,112.23 -53.98,162 -23.75,42.16 -54.67,80.21 -90.85,112.32 -40.37,35.93 -87.61,63.898 -138.021,83.28 -39.77,15.08 -81.85,24.04 -124.3,26.55 -3.41,0.438 -6.979,-0.15 -10.2,1.3 h -37.47 c -0.51,-0.21 -1.54,-0.63 -2.06,-0.84 -36.38,-1.562 -72.552,-7.71 -107.38,-18.37 C 217.21,805.139 169.69,780.42 127.86,748.33 65.62,700.79 17.12,635.9 -12.24,563.39 -28.141,525.021 -37.811,484.181 -41.771,442.881 c -0.55,-7.229 -1.03,-14.46 -1.59,-21.68 -0.43,-6.26 0.49,-12.59 -0.59,-18.8 v -3.4 c 1.07,-5.8 0.06,-11.729 0.79,-17.56 1.25,-24.83 4.08,-49.63 9.39,-73.94 7.84,-37.8 21.77,-74.19 39.97,-108.18 16.89,-32.03 37.64,-61.86 60.35,-90 66.09,84.34 132.18,168.69 198.32,253 -1.602,6.53 -2.98,13.108 -4.49,19.648 -3.88,29.25 1.07,60.062 16.02,85.7 9.021,15.71 21.382,29.392 35.472,40.71 18.54,14.932 41.238,24.67 64.91,27.4 25.229,3.229 51.51,0.188 74.85,-10.23 26.8,-12.318 49.34,-33.42 64,-58.96 14.71,-25.79 19.3,-56.568 15.35,-85.77 -1.562,-6.458 -2.822,-12.988 -4.502,-19.418 z"/>
</svg>
