<?xml version="1.0" encoding="utf-8"?>
<!-- Generator: Adobe Illustrator 15.1.0, SVG Export Plug-In . SVG Version: 6.00 Build 0)  -->
<!DOCTYPE svg PUBLIC "-//W3C//DTD SVG 1.1//EN" "http://www.w3.org/Graphics/SVG/1.1/DTD/svg11.dtd">
<svg version="1.1" id="Layer_1" xmlns="http://www.w3.org/2000/svg" xmlns:xlink="http://www.w3.org/1999/xlink" x="0px" y="0px"
	 width="300px" height="350px" viewBox="0 0 300 350" enable-background="new 0 0 300 350" xml:space="preserve">
<g id="Layer_1_1_">
</g>
<g>
	<path fill="#808080" d="M150.662,336.198c0,0,93.904-48.932,130.124-121.247c0,0-12.476-22.666-15.472-55.047c0,0-22.571,0.764-30.564-4.025
		c-7.336-4.396-12.49-12.178-12.49-21.339c0-13.513,10.953-24.466,24.465-24.466c13.673,0,18.979,9.534,18.979,9.534l5.008-6.079
		V69.566c-42.695-42.241-91.624-53.369-91.624-53.369s2.156,5.331,2.156,11.308c0,16.89-13.69,30.582-30.582,30.582
		c-16.89,0-30.58-13.692-30.58-30.582c0-5.977,2.159-11.308,2.159-11.308s-48.93,11.128-91.625,53.369v43.963l5.008,6.079
		c0,0,5.306-9.534,18.978-9.534c13.513,0,24.466,10.953,24.466,24.466c0,9.161-5.154,16.943-12.49,21.339
		c-7.993,4.789-30.564,4.025-30.564,4.025c-2.998,32.381-15.47,55.047-15.47,55.047C56.761,287.267,150.662,336.198,150.662,336.198
		z"/>
	<path d="M150.662,326.344c-17.635-9.948-88.972-52.8-120.438-111.48c3.495-7.486,10.362-24.28,13.472-46.33
		c12.84-0.311,22.021-2.073,27.32-5.249c10.448-6.26,16.686-17.006,16.686-28.745c0-18.251-14.848-33.1-33.1-33.1
		c-6.145,0-11.261,1.514-15.35,3.656V73.216c26.831-25.586,55.998-38.744,72.212-44.617c0.58,21.121,17.943,38.122,39.198,38.122
		c21.26,0,38.621-17.001,39.203-38.122c16.21,5.871,45.377,19.028,72.21,44.617v31.879c-4.088-2.142-9.203-3.656-15.351-3.656
		c-18.252,0-33.1,14.849-33.1,33.1c0,11.739,6.24,22.485,16.687,28.745c5.301,3.176,14.479,4.938,27.318,5.249
		c3.111,22.049,9.979,38.843,13.472,46.33C239.639,273.544,168.301,316.396,150.662,326.344z"/>
	<g>
		<path fill="#808080" d="M79.564,170.271c0,0,24.182-24.962,65.7-10.726c0,0-25.308-1.51-40.764,7.36c0,0,14.436,2.483,19.977,9.562
			c0,0-26.75,3.387-42.482,23.458c0,0,9.697-0.267,14.696,0.342c25.356,3.087,37.915,22.979,36.249,36.669
			c-1.116,9.166-7.797,13.428-7.797,13.428s6.793,2.761,11.347-1.88c0,0-0.842,15.844-26.653,20.435c0,0,52.499,13.34,72.742-20.439
			c0,0-6.692,2.868-12.884,2.114c-6.188-0.754-14.934-4.354-7.275-14.658c0,0-13.871,1.815-12.639-8.306
			c0.578-4.763,5.746-7.514,5.746-7.514s-13.576,1.366-12.229-9.706c0.915-7.499,8.753-12.343,8.753-12.343
			s-5.15-5.339-20.785-5.914c0,0,7.106-5.781,23.656-3.766c16.546,2.015,35.016,10.063,24.229,23.248c0,0,5.219-0.209,8.314,0.168
			s27.533,4.076,20.329,26.516c0,0,28.713-9.552,27.702-45.919c0,0-4.476,9.969-16.289,13.724c0,0,4.35-11.913-7.806-13.273
			c0,0,1.35-5.151,1.729-8.247c0.375-3.096,0.686-20.031-7.646-30.469c-8.334-10.438-34.602-40.277-41.646-52.371
			c-7.045-12.093-6.298-22.694-5.706-26.065c0,0-5.691,6.557-6.822,15.842c-1.131,9.285,2.227,12.956,6.169,17.786
			c3.942,4.829,36.968,40.202,35.464,58.502c0,0-6.244-12.72-16.821-27.056c-10.577-14.335-30.231-34.489-38.195-47.963
			s-4.904-26.692-4.904-26.692s-15.401,19.327-10.747,45.083c0,0,20.691,20.097,20.298,34.729c0,0-5.991-12.328-22.81-25.008
			c-16.526-12.458-24.377-13.116-39.216-39.086c0,0-1.914,9.833-0.956,19.3c10.159,7.619,16.745,19.756,16.745,33.404
			c0,14.802-7.81,28.317-20.883,36.152c-5.523,3.308-13.529,5.329-24.353,6.13c-1.61,8.826-3.731,16.684-5.894,23.343
			c6.842-6.604,25.589-22.349,50.87-24.62C96.078,175.545,90.323,171.219,79.564,170.271z M168.151,157.138
			c0,0,2.361-0.558,5.971,2.539c3.611,3.098,14.146,13.804,14.839,25.972c0,0-7.823,0.736-11.999-3.639
			C172.781,177.636,163.534,165.274,168.151,157.138z"/>
	</g>
</g>
</svg>
