<?xml version="1.0" encoding="utf-8"?>
<!-- Generator: Adobe Illustrator 27.2.0, SVG Export Plug-In . SVG Version: 6.00 Build 0)  -->
<svg version="1.1" id="Layer_1" xmlns="http://www.w3.org/2000/svg" xmlns:xlink="http://www.w3.org/1999/xlink" x="0px" y="0px"
	 viewBox="0 0 300 350" style="enable-background:new 0 0 300 350;" xml:space="preserve">
<style type="text/css">
	.st0{fill:#FFFFFF;}
	.st1{fill:url(#SVGID_1_);}
</style>
<g id="Layer_1_1_">
</g>
<g>
	<path d="M150.1,331C140,325.5,58,279.5,24.8,214.5c2.4-4.7,11.8-24.5,14.7-51.8c0.4,0,0.9,0,1.4,0c7.7,0,21.5-0.6,27.8-4.3
		c8.4-5,13.3-13.6,13.3-22.9c0-14.5-11.8-26.3-26.3-26.3c-10.1,0-16,4.9-18.7,8l-2.6-3.2V72.5c34.1-33.4,72.5-46.6,84.5-50.2
		c-0.5,2.1-1,4.9-1,7.9c0,17.8,14.5,32.3,32.3,32.3s32.3-14.5,32.3-32.3c0-3-0.5-5.8-1-7.9c12,3.5,50.4,16.8,84.5,50.2V114l-2.6,3.2
		c-2.7-3.1-8.6-8-18.7-8c-14.5,0-26.3,11.8-26.3,26.3c0,9.3,5,17.9,13.3,22.9c6.3,3.8,20.1,4.3,27.8,4.3c0.5,0,1,0,1.4,0
		c2.9,27.4,12.3,47.1,14.7,51.8C242.3,279.5,160.3,325.5,150.1,331z"/>
	<path class="st0" d="M80.2,170.7c0,0,23.7-24.6,64.5-10.7c0,0-24.9-1.4-40,7.4c0,0,14.2,2.4,19.7,9.3c0,0-26.3,3.4-41.7,23.2
		c0,0,9.5-0.3,14.4,0.3c24.9,3,37.3,22.5,35.7,35.9c-1.1,9-7.6,13.2-7.6,13.2s6.7,2.7,11.1-1.9c0,0-0.8,15.6-26.1,20.2
		c0,0,51.6,12.9,71.4-20.3c0,0-6.6,2.8-12.6,2.1c-6.1-0.7-14.7-4.2-7.2-14.4c0,0-13.6,1.8-12.4-8.1c0.6-4.7,5.6-7.4,5.6-7.4
		s-13.3,1.4-12-9.5c0.9-7.4,8.6-12.2,8.6-12.2s-5.1-5.2-20.4-5.7c0,0,7-5.7,23.2-3.8c16.3,1.9,34.4,9.8,23.9,22.8
		c0,0,5.1-0.2,8.2,0.1c3,0.4,27.1,3.9,20.1,26c0,0,28.2-9.5,27.1-45.2c0,0-4.4,9.8-16,13.5c0,0,4.2-11.7-7.7-13c0,0,1.3-5.1,1.7-8.1
		c0.4-3,0.6-19.7-7.6-29.9c-8.2-10.2-34.1-39.5-41.1-51.3c-7-11.9-6.3-22.3-5.7-25.6c0,0-5.6,6.5-6.7,15.6
		c-1.1,9.1,2.2,12.7,6.1,17.5c3.9,4.7,36.4,39.4,35,57.4c0,0-6.2-12.5-16.6-26.5c-10.4-14.1-29.8-33.8-37.7-47
		c-7.9-13.2-4.9-26.2-4.9-26.2s-15.1,19-10.4,44.3c0,0,20.4,19.7,20,34.1c0,0-5.9-12.1-22.5-24.5c-16.3-12.2-24-12.8-38.6-38.3
		c0,0-4.4,22.7,3.8,32c0,0-1.9-1.3-5.3-2.7c5.5,5.8,8.9,13.7,8.9,22.3c0,11.5-6.1,22.1-16.4,28.2c-5.2,3.1-14.2,4.9-26.8,5.2
		c-2.1,15.2-6.1,27.8-9.4,36.5c11.2-9.4,35.1-26.8,60.9-29.6C96.4,175.8,90.8,171.6,80.2,170.7z M167.2,157.5c0,0,2.3-0.6,5.9,2.5
		c3.6,3,13.9,13.5,14.7,25.5c0,0-7.7,0.8-11.8-3.5C171.8,177.7,162.7,165.5,167.2,157.5z"/>
	
		<linearGradient id="SVGID_1_" gradientUnits="userSpaceOnUse" x1="32.043" y1="172.2745" x2="268.454" y2="172.2745" gradientTransform="matrix(1 0 0 -1 0 349.89)">
		<stop  offset="0" style="stop-color:#B73826"/>
		<stop  offset="0.25" style="stop-color:#D86A24"/>
		<stop  offset="0.5" style="stop-color:#F8981D"/>
		<stop  offset="0.75" style="stop-color:#D86A24"/>
		<stop  offset="1" style="stop-color:#B73826"/>
	</linearGradient>
	<path class="st1" d="M176.1,202.6c-2.8-6.2-16.9-4.8-22-0.6c-1.1,0.9-5.8,4.5-6.3,8.5c-0.1,1.2,0,2.1,0.4,2.6
		c3.7,4.1,18.2,3.3,18.2,3.3s-11.2,5.7-12.2,11c-0.1,0.4-0.1,1.2,0.2,1.6c2.8,3.5,17,0.5,17,0.5s-8.9,9.6-7.6,12.7
		c0.3,0.7,2.3,1.9,5.7,2.2c7.3,0.8,21.8-7.3,21.8-7.3s-4.6,13.9-12.3,21.5c-10.7,10.5-26.2,16.3-46.1,16.3c-25.8,0-41-9.6-41-9.6
		s23.9-0.1,35.1-10.5c-8-0.9-12.3-5-12.3-5s12-3,13.1-14.3c0.6-5.6-1.9-12.5-6.7-18.1c-5.9-6.8-14.6-11.2-24.7-12.4
		c-1.8-0.2-4.7-0.3-8.4-0.3c-8.5,0-15.3,0.5-15.3,0.5s5.9-11.6,25.2-24.6l-1,0.1c-24.2,2.5-46.8,18.9-58.2,28.4l-6.7,5.6
		c31,57.4,100.8,99.3,118.1,109.1c17.3-9.8,87.4-51.9,118.3-109.5c-3.4-7.4-10.2-23.9-13.2-45.5c-12.6-0.3-21.6-2-26.8-5.2
		c-10.3-6.1-16.4-16.7-16.4-28.2c0-17.9,14.6-32.5,32.5-32.5c6,0,11.1,1.5,15.1,3.6V75.2c-26.4-25.1-55-38.1-70.9-43.8
		c-0.4,15.8-10.5,29.3-24.4,34.8c-1.2,3.6-2.5,9.3-2.5,16c0,4.1,0.9,10.9,5.4,18.5c4.8,8.2,19.7,25.8,30.6,38.7
		c4.2,4.9,7.8,9.2,10.1,12c10.6,13.1,8.7,33.4,8.7,33.6c-0.1,1.2-0.4,2.6-0.7,4c2.8,1.3,4.5,3.1,5.5,4.7c0.7,1.2,1.2,2.4,1.5,3.6
		c10.8-9.2,12.8-22.6,12.8-22.6s2.7,9.4,2.9,17.2c0.7,19.4-7.7,32.7-14.6,39.7c-10.4,10.5-25.2,12.8-25.2,12.8s4.1-6.2,4.1-14.7
		c0-2.2-0.6-4.1-1.6-5.8c-4-6.2-16.1-10.1-31.2-7.4C169.8,216.4,178,206.7,176.1,202.6z M45.1,104.6c7-2.6,20.8-6.1,30.4,1.6
		c0,0-0.7-5.9-0.7-8.7c0-14.1,4.4-26.7,4.4-26.7S86,85,95,96.1c5.8,7.2,10.9,10.6,17.4,15c1.5,1,3.1,2.1,4.8,3.3l-0.2-1
		c-2.5-13.8,0.4-25.8,3.7-34.4c2.4-6.2,6.6-12,9.5-15.7c-10.9-6.6-18.4-18.4-18.7-32C95.7,37.1,67,50,40.7,75.2v31.3
		c0,0,0.1-0.1,0.4-0.2C42.3,105.7,43.7,105.1,45.1,104.6z M141.6,91.9c1,1.8,2.3,3.6,3.8,5.6c-0.1-1.5,0-3.2,0.2-5
		c1.3-10.7,8-19.4,13.4-24.8c-2.8,0.7-5.8,1-8.8,1c-4.3,0-8.5-0.7-12.4-2.1c-0.5,2-0.9,4.5-0.9,7.1C136.8,78.2,137.5,85,141.6,91.9z
		"/>
</g>
</svg>
