<?xml version="1.0" encoding="UTF-8" standalone="no"?>
<!-- Generator: Adobe Illustrator 15.1.0, SVG Export Plug-In . SVG Version: 6.00 Build 0)  -->

<svg
   version="1.1"
   id="Layer_1"
   x="0px"
   y="0px"
   width="300px"
   height="350px"
   viewBox="0 0 300 350"
   enable-background="new 0 0 300 350"
   xml:space="preserve"
   sodipodi:docname="T.svg"
   inkscape:version="1.1.1 (3bf5ae0d25, 2021-09-20)"
   xmlns:inkscape="http://www.inkscape.org/namespaces/inkscape"
   xmlns:sodipodi="http://sodipodi.sourceforge.net/DTD/sodipodi-0.dtd"
   xmlns="http://www.w3.org/2000/svg"
   xmlns:svg="http://www.w3.org/2000/svg"><defs
   id="defs27">
		
	
	
	<linearGradient
   id="SVGID_1_"
   gradientUnits="userSpaceOnUse"
   x1="30.225"
   y1="177.47"
   x2="271.1"
   y2="177.47">
<stop
   style="stop-color:#612c75"
   offset="0"
   id="stop5" />
<stop
   style="stop-color:#7b5190"
   offset="0.25"
   id="stop7" />
<stop
   style="stop-color:#bf99c3"
   offset="0.5"
   id="stop9" />
<stop
   style="stop-color:#7b5190"
   offset="0.75"
   id="stop11" />
<stop
   style="stop-color:#612c75"
   offset="1"
   id="stop13" />
	</linearGradient>
	
	
</defs><sodipodi:namedview
   id="namedview25"
   pagecolor="#ffffff"
   bordercolor="#666666"
   borderopacity="1.0"
   inkscape:pageshadow="2"
   inkscape:pageopacity="0.0"
   inkscape:pagecheckerboard="0"
   showgrid="false"
   inkscape:zoom="2.0543"
   inkscape:cx="149.93"
   inkscape:cy="174.76"
   inkscape:window-width="1920"
   inkscape:window-height="986"
   inkscape:window-x="-11"
   inkscape:window-y="-11"
   inkscape:window-maximized="1"
   inkscape:current-layer="Layer_1" />

<path
   d="m 150.66,336.2 c 0,0 93.91,-48.93 130.13,-121.25 0,0 -12.48,-22.67 -15.48,-55.05 0,0 -22.57,0.77 -30.56,-4.02 -7.34,-4.4 -12.49,-12.18 -12.49,-21.34 0,-13.51 10.95,-24.47 24.47,-24.47 13.67,0 18.97,9.54 18.97,9.54 l 5.01,-6.08 V 69.566 C 228.02,27.325 179.09,16.197 179.09,16.197 c 0,0 2.15,5.331 2.15,11.308 0,16.89 -13.69,30.582 -30.58,30.582 -16.89,0 -30.58,-13.692 -30.58,-30.582 0,-5.977 2.16,-11.308 2.16,-11.308 0,0 -48.929,11.128 -91.624,53.369 v 43.964 l 5.008,6.08 c 0,0 5.306,-9.54 18.978,-9.54 13.513,0 24.466,10.96 24.466,24.47 0,9.16 -5.154,16.94 -12.49,21.34 -7.993,4.79 -30.564,4.02 -30.564,4.02 -2.998,32.38 -15.47,55.05 -15.47,55.05 C 56.761,287.27 150.66,336.2 150.66,336.2 Z"
   id="path3"
   style="fill:#ffffff;fill-opacity:1" /><path
   fill="url(#SVGID_1_)"
   d="M 150.66,326.34 C 133.03,316.4 61.69,273.54 30.224,214.86 c 3.495,-7.48 10.362,-24.28 13.472,-46.33 12.84,-0.31 22.021,-2.07 27.32,-5.25 10.448,-6.25 16.686,-17 16.686,-28.74 0,-18.25 -14.848,-33.1 -33.1,-33.1 -6.145,0 -11.261,1.51 -15.35,3.66 V 73.216 C 66.083,47.63 95.25,34.472 111.46,28.599 c 0.58,21.121 17.95,38.122 39.2,38.122 21.26,0 38.62,-17.001 39.21,-38.122 16.21,5.871 45.37,19.028 72.2,44.617 V 105.1 c -4.08,-2.15 -9.2,-3.66 -15.35,-3.66 -18.25,0 -33.1,14.85 -33.1,33.1 0,11.74 6.24,22.48 16.69,28.74 5.3,3.18 14.48,4.94 27.32,5.25 3.11,22.05 9.98,38.85 13.47,46.33 -31.46,58.68 -102.8,101.54 -120.44,111.48 z"
   id="path16"
   style="fill:url(#SVGID_1_)" /><path
   d="m 79.564,170.27 c 0,0 24.186,-24.96 65.696,-10.73 0,0 -25.3,-1.51 -40.76,7.36 0,0 14.44,2.49 19.98,9.57 0,0 -26.753,3.38 -42.485,23.46 0,0 9.697,-0.27 14.696,0.34 25.359,3.08 37.919,22.98 36.249,36.67 -1.12,9.16 -7.8,13.42 -7.8,13.42 0,0 6.8,2.77 11.35,-1.88 0,0 -0.84,15.85 -26.65,20.44 0,0 52.5,13.34 72.74,-20.44 0,0 -6.69,2.87 -12.89,2.11 -6.18,-0.75 -14.93,-4.35 -7.27,-14.65 0,0 -13.87,1.81 -12.64,-8.31 0.58,-4.76 5.75,-7.51 5.75,-7.51 0,0 -13.58,1.36 -12.23,-9.71 0.91,-7.5 8.75,-12.34 8.75,-12.34 0,0 -5.15,-5.34 -20.78,-5.92 0,0 7.1,-5.78 23.65,-3.76 16.55,2.01 35.02,10.06 24.23,23.25 0,0 5.22,-0.21 8.31,0.16 3.1,0.38 27.54,4.08 20.33,26.52 0,0 28.72,-9.55 27.71,-45.92 0,0 -4.48,9.97 -16.29,13.72 0,0 4.35,-11.91 -7.81,-13.27 0,0 1.35,-5.15 1.73,-8.25 0.37,-3.09 0.69,-20.03 -7.65,-30.46 -8.33,-10.44 -34.6,-40.28 -41.64,-52.38 -7.05,-12.089 -6.3,-22.69 -5.71,-26.061 0,0 -5.69,6.557 -6.82,15.842 -1.13,9.289 2.23,12.959 6.17,17.789 3.94,4.83 36.97,40.2 35.46,58.5 0,0 -6.24,-12.72 -16.82,-27.06 -10.57,-14.33 -30.23,-34.49 -38.19,-47.96 -7.97,-13.474 -4.91,-26.692 -4.91,-26.692 0,0 -15.4,19.327 -10.74,45.082 0,0 20.69,20.1 20.29,34.73 0,0 -5.99,-12.33 -22.81,-25.01 -16.52,-12.46 -24.373,-13.11 -39.212,-39.084 0,0 -1.914,9.833 -0.956,19.304 10.159,7.62 16.745,19.75 16.745,33.4 0,14.8 -7.81,28.32 -20.883,36.15 -5.523,3.31 -13.529,5.33 -24.353,6.13 -1.61,8.83 -3.731,16.69 -5.894,23.35 6.842,-6.61 25.589,-22.35 50.87,-24.62 0,0 -5.754,-4.33 -16.513,-5.28 z m 88.586,-13.13 c 0,0 2.36,-0.56 5.97,2.54 3.61,3.1 14.15,13.8 14.84,25.97 0,0 -7.82,0.73 -12,-3.64 -4.18,-4.37 -13.43,-16.74 -8.81,-24.87 z"
   id="path18"
   style="fill:#ffffff;fill-opacity:1" />
</svg>
