<?xml version="1.0" encoding="UTF-8" standalone="no"?>
<!-- Generator: Adobe Illustrator 15.1.0, SVG Export Plug-In . SVG Version: 6.00 Build 0)  -->

<svg
   version="1.1"
   id="Layer_1"
   x="0px"
   y="0px"
   width="300px"
   height="350px"
   viewBox="0 0 300 350"
   enable-background="new 0 0 300 350"
   xml:space="preserve"
   sodipodi:docname="WM.svg"
   inkscape:version="1.1.1 (3bf5ae0d25, 2021-09-20)"
   xmlns:inkscape="http://www.inkscape.org/namespaces/inkscape"
   xmlns:sodipodi="http://sodipodi.sourceforge.net/DTD/sodipodi-0.dtd"
   xmlns="http://www.w3.org/2000/svg"
   xmlns:svg="http://www.w3.org/2000/svg"><defs
   id="defs16">
	
	
	

		
	</defs><sodipodi:namedview
   id="namedview14"
   pagecolor="#ffffff"
   bordercolor="#666666"
   borderopacity="1.0"
   inkscape:pageshadow="2"
   inkscape:pageopacity="0.0"
   inkscape:pagecheckerboard="0"
   showgrid="false"
   inkscape:zoom="2.0543"
   inkscape:cx="149.93"
   inkscape:cy="174.76"
   inkscape:window-width="1920"
   inkscape:window-height="986"
   inkscape:window-x="-11"
   inkscape:window-y="-11"
   inkscape:window-maximized="1"
   inkscape:current-layer="Layer_1" />

<path
   id="path3"
   style="display:inline;fill:#000001;fill-opacity:1"
   d="M 122.24 16.197 C 122.24 16.197 73.31 27.325 30.615 69.566 L 30.615 113.53 L 35.623 119.61 C 35.623 119.61 40.93 110.07 54.602 110.07 C 68.115 110.07 79.068 121.03 79.068 134.54 C 79.068 143.7 73.914 151.48 66.578 155.88 C 58.585 160.67 36.014 159.9 36.014 159.9 C 33.016 192.28 20.545 214.95 20.545 214.95 C 56.762 287.27 150.66 336.2 150.66 336.2 C 150.66 336.2 244.57 287.27 280.79 214.95 C 280.79 214.95 268.31 192.28 265.31 159.9 C 265.31 159.9 242.74 160.67 234.75 155.88 C 227.41 151.48 222.26 143.7 222.26 134.54 C 222.26 121.03 233.21 110.07 246.73 110.07 C 260.4 110.07 265.7 119.61 265.7 119.61 L 270.71 113.53 L 270.71 69.566 C 228.02 27.325 179.09 16.197 179.09 16.197 C 179.09 16.197 181.24 21.529 181.24 27.506 C 181.24 44.396 167.55 58.088 150.66 58.088 C 133.77 58.088 120.08 44.396 120.08 27.506 C 120.08 21.529 122.24 16.197 122.24 16.197 z M 111.46 28.6 C 112.04 49.721 129.41 66.721 150.66 66.721 C 171.92 66.721 189.28 49.721 189.87 28.6 C 206.08 34.471 235.24 47.628 262.07 73.217 L 262.07 105.1 C 257.99 102.95 252.87 101.44 246.72 101.44 C 228.47 101.44 213.62 116.29 213.62 134.54 C 213.62 146.28 219.86 157.02 230.31 163.28 C 235.61 166.46 244.79 168.22 257.63 168.53 C 260.74 190.58 267.61 207.38 271.1 214.86 C 239.64 273.54 168.3 316.4 150.66 326.34 C 133.03 316.4 61.691 273.54 30.225 214.86 C 33.72 207.38 40.585 190.58 43.695 168.53 C 56.535 168.22 65.717 166.46 71.016 163.28 C 81.464 157.03 87.701 146.28 87.701 134.54 C 87.701 116.29 72.854 101.44 54.602 101.44 C 48.457 101.44 43.341 102.95 39.252 105.1 L 39.252 73.217 C 66.083 47.631 95.252 34.473 111.46 28.6 z M 133.02 66.117 C 133.02 66.117 117.62 85.443 122.28 111.2 C 122.28 111.2 142.97 131.3 142.57 145.93 C 142.57 145.93 136.58 133.6 119.76 120.92 C 103.24 108.46 95.388 107.81 80.549 81.836 C 80.549 81.836 78.634 91.671 79.592 101.14 C 89.751 108.76 96.338 120.89 96.338 134.54 C 96.338 149.34 88.526 162.86 75.453 170.69 C 69.93 174 61.926 176.02 51.102 176.82 C 49.492 185.65 47.37 193.51 45.207 200.17 C 52.049 193.56 70.795 177.82 96.076 175.55 C 96.076 175.55 90.323 171.22 79.564 170.27 C 79.564 170.27 103.75 145.31 145.26 159.54 C 145.26 159.54 119.96 158.03 104.5 166.9 C 104.5 166.9 118.94 169.39 124.48 176.47 C 124.48 176.47 97.726 179.85 81.994 199.93 C 81.994 199.93 91.692 199.66 96.691 200.27 C 122.05 203.35 134.61 223.25 132.94 236.94 C 131.82 246.1 125.14 250.36 125.14 250.36 C 125.14 250.36 131.94 253.13 136.49 248.48 C 136.49 248.48 135.65 264.33 109.84 268.92 C 109.84 268.92 162.34 282.26 182.58 248.48 C 182.58 248.48 175.89 251.35 169.69 250.59 C 163.51 249.84 154.76 246.24 162.42 235.94 C 162.42 235.94 148.55 237.75 149.78 227.63 C 150.36 222.87 155.53 220.12 155.53 220.12 C 155.53 220.12 141.95 221.48 143.3 210.41 C 144.21 202.91 152.05 198.07 152.05 198.07 C 152.05 198.07 146.9 192.73 131.27 192.15 C 131.27 192.15 138.37 186.37 154.92 188.39 C 171.47 190.4 189.94 198.45 179.15 211.64 C 179.15 211.64 184.37 211.43 187.46 211.8 C 190.56 212.18 215 215.88 207.79 238.32 C 207.79 238.32 236.51 228.77 235.5 192.4 C 235.5 192.4 231.02 202.37 219.21 206.12 C 219.21 206.12 223.56 194.21 211.4 192.85 C 211.4 192.85 212.75 187.7 213.13 184.6 C 213.5 181.51 213.82 164.57 205.48 154.14 C 197.15 143.7 170.88 113.86 163.84 101.76 C 156.79 89.671 157.54 79.07 158.13 75.699 C 158.13 75.699 152.44 82.256 151.31 91.541 C 150.18 100.83 153.54 104.5 157.48 109.33 C 161.42 114.16 194.45 149.53 192.94 167.83 C 192.94 167.83 186.7 155.11 176.12 140.77 C 165.55 126.44 145.89 106.28 137.93 92.811 C 129.96 79.337 133.02 66.117 133.02 66.117 z M 168.57 157.1 C 169.41 157.09 171.41 157.35 174.12 159.68 C 177.73 162.78 188.27 173.48 188.96 185.65 C 188.96 185.65 181.14 186.38 176.96 182.01 C 172.78 177.64 163.53 165.27 168.15 157.14 C 168.15 157.14 168.3 157.11 168.57 157.1 z " />
</svg>
