<?xml version="1.0" encoding="UTF-8" standalone="no"?>
<svg xmlns="http://www.w3.org/2000/svg" xmlns:xlink="http://www.w3.org/1999/xlink" version="1.1" width="600" height="927.82312">
  <linearGradient x1="0" y1="0" x2="1" y2="0" id="linearGradient472" gradientUnits="userSpaceOnUse" gradientTransform="matrix(22.892578,0,0,-22.892578,613.89844,371.94775)" spreadMethod="pad">
    <stop style="stop-color:#612c75" offset="0"/>
    <stop style="stop-color:#7b5190" offset="0.39999399"/>
    <stop style="stop-color:#bf99c3" offset="0.5"/>
    <stop style="stop-color:#7b5190" offset="0.69999701"/>
    <stop style="stop-color:#612c75" offset="1"/>
  </linearGradient>
  <linearGradient x1="0" y1="0" x2="1" y2="0" id="linearGradient2995" xlink:href="#linearGradient472" gradientUnits="userSpaceOnUse" gradientTransform="matrix(22.892578,0,0,-22.892578,613.89844,371.94775)" spreadMethod="pad"/>
  <linearGradient x1="0" y1="0" x2="1" y2="0" id="linearGradient2998" xlink:href="#linearGradient472" gradientUnits="userSpaceOnUse" gradientTransform="matrix(531.00656,0,0,531.00656,34.525225,463.94054)" spreadMethod="pad"/>
  <path d="m 222.44559,927.8231 0,-213.30653 C 165.26849,701.20231 113.44957,673.29803 74.10987,634.16709 26.373371,586.68574 0,525.61179 0,462.19508 0,398.84796 26.373371,337.774 74.10987,290.29266 c 39.3397,-39.13094 91.15862,-67.12801 148.33572,-80.44227 l 0,-76.38303 L 377.57761,0 l 0,209.85039 c 57.1539,13.31426 109.0888,41.31133 148.4053,80.44227 C 573.74261,337.774 600,398.84796 600,462.19508 c 0,63.41671 -26.25739,124.49066 -74.01709,171.97201 -39.3165,39.13094 -91.2514,67.03522 -148.4053,80.34948 l 0,79.93196 -155.13202,133.37457 z" fill="#ffffff"/>
  <path d="m 256.96061,149.30994 0,89.25658 C 130.84625,256.14877 34.515019,349.55736 34.515019,462.19508 l 0,0 c 0,112.70731 96.331231,206.1159 222.445591,223.69815 l 0,0 0,166.79939 86.17157,-74.10987 0,-92.68952 c 126.13755,-17.58225 222.3528,-110.99084 222.3528,-223.69815 l 0,0 c 0,-112.63772 -96.21525,-206.04631 -222.3528,-223.62856 l 0,0 0,-163.36645 -86.17157,74.10987 z m 86.17157,195.0748 c 59.79819,15.49465 103.2899,62.4425 103.2899,117.81034 l 0,0 c 0,55.43743 -43.49171,102.38528 -103.2899,117.87992 l 0,0 0,-235.69026 z M 153.6707,462.19508 c 0,-55.36784 43.39893,-102.31569 103.28991,-117.81034 l 0,0 0,235.69026 C 197.06963,564.58036 153.6707,517.63251 153.6707,462.19508" style="fill:url(#linearGradient2998)"/>
</svg>
