<?xml version="1.0" encoding="UTF-8" standalone="no"?>
<svg xmlns="http://www.w3.org/2000/svg" version="1.1" width="600" height="927.82312">
  <g transform="matrix(18.556462,0,0,18.556462,-6658.6733,-9414.847)">
    <path d="m 377.32438,538.62218 0,-12.70125 c 3.2225,0.835 5.56625,3.365 5.56625,6.34875 0,2.9875 -2.34375,5.5175 -5.56625,6.3525 m -10.215,-6.3525 c 0,-2.98375 2.34375,-5.51375 5.56625,-6.34875 l 0,12.70125 c -3.2225,-0.835 -5.56625,-3.365 -5.56625,-6.3525 m 22.2025,0 c 0,-6.07 -5.19,-11.10375 -11.9875,-12.05125 l 0,-8.80375 -4.64875,3.99375 0,4.81 c -6.79125,0.9475 -11.9825,5.98125 -11.9825,12.05125 0,6.07375 5.19125,11.1075 11.9825,12.055 l 0,8.98875 4.64875,-3.99375 0,-4.995 c 6.7975,-0.9475 11.9875,-5.98125 11.9875,-12.055"/>
  </g>
</svg>
