<?xml version="1.0" encoding="UTF-8" standalone="no"?><!DOCTYPE svg PUBLIC "-//W3C//DTD SVG 1.1//EN" "http://www.w3.org/Graphics/SVG/1.1/DTD/svg11.dtd"><svg width="100%" height="100%" viewBox="0 0 91 90" version="1.1" xmlns="http://www.w3.org/2000/svg" xmlns:xlink="http://www.w3.org/1999/xlink" xml:space="preserve" xmlns:serif="http://www.serif.com/" style="fill-rule:evenodd;clip-rule:evenodd;stroke-linejoin:round;stroke-miterlimit:2;"><rect id="Uncommon" x="0.065" y="0" width="90" height="90" style="fill:none;"/><path d="M85.942,24.467c1.404,0 2.697,0.763 3.375,1.993c0.677,1.229 0.633,2.729 -0.116,3.916c-0.001,0.003 -0.003,0.005 -0.004,0.007c-11.36,17.891 -26.415,32.329 -42.513,43.31c-0.976,0.666 -2.261,0.666 -3.238,0c-16.098,-10.982 -31.045,-25.419 -42.399,-43.31c-0.002,-0.003 -0.003,-0.005 -0.005,-0.007c-0.748,-1.187 -0.792,-2.688 -0.114,-3.917c0.678,-1.229 1.97,-1.992 3.374,-1.992l81.64,0Z"/><path d="M85.942,27.34c0.358,0 0.686,0.194 0.859,0.507c0.172,0.313 0.161,0.694 -0.03,0.996c-11.142,17.549 -25.916,31.705 -41.706,42.477c-15.789,-10.772 -30.456,-24.928 -41.592,-42.477c-0.191,-0.302 -0.202,-0.683 -0.03,-0.996c0.173,-0.313 0.502,-0.507 0.859,-0.507l81.64,0Z" style="fill:url(#_Linear1);"/><path d="M45.065,15.583c10.653,-0 20.302,2.646 27.699,10.313c2.681,2.779 4.755,7.7 4.755,15.451c0,-0 0.109,6.166 -1.73,9.462c-5.409,9.698 -16.388,16.217 -30.724,16.217c-14.336,0 -25.314,-6.519 -30.723,-16.217c-1.839,-3.296 -1.731,-9.462 -1.731,-9.462c0,-7.751 2.075,-12.672 4.756,-15.451c7.396,-7.667 17.046,-10.313 27.698,-10.313Zm18.33,26.133c-6.932,-6.261 -12.72,-8.345 -18.33,-8.345c-5.71,0 -11.719,1.596 -18.83,8.075c6.539,3.607 15.034,4.993 18.83,4.993c3.701,0 11.865,-1.317 18.33,-4.723Z"/><path d="M45.065,48.781c7.01,0 29.113,-4.448 29.113,-18.022c2.257,5.301 2.475,13.767 0.938,17.516c-3.684,8.986 -15.425,16.854 -30.051,16.854c-14.625,-0 -26.366,-7.868 -30.05,-16.854c-1.537,-3.749 -1.319,-12.215 0.938,-17.516c-0,13.574 22.103,18.022 29.112,18.022Z" style="fill:url(#_Linear2);"/><path d="M45.065,31.029c-6.462,0 -13.311,1.823 -21.48,9.691c-2.312,-1.783 -5.818,-4.428 -5.818,-8.343c-0,-3.915 3.126,-7.647 5.945,-9.362c4.506,-2.74 10.037,-5.531 21.353,-5.531c11.316,-0 16.929,3.399 21.435,6.14c2.819,1.715 5.945,5.446 5.945,9.361c0,3.915 -3.701,6.579 -6.014,8.362c-8.168,-7.869 -14.903,-10.318 -21.366,-10.318Z" style="fill:url(#_Linear3);"/><path d="M49.765,63.977c-0.204,-0.204 -0.207,-0.19 0.183,-0.779c0.732,-1.102 1.014,-2.749 0.751,-4.38c-0.173,-1.072 -0.174,-1.073 -0.534,-0.732c-0.169,0.161 -0.486,0.381 -0.703,0.488c-1.534,0.756 -3.209,0.416 -3.839,-0.778c-0.701,-1.331 0.067,-2.84 1.687,-3.31c0.453,-0.132 0.589,-0.135 0.945,-0.023c0.31,0.099 0.424,0.19 0.448,0.36c0.054,0.381 -0.137,0.509 -0.666,0.446c-0.588,-0.069 -1.052,0.134 -1.538,0.671c-0.283,0.314 -0.348,0.463 -0.348,0.805c0.001,1.085 1.009,1.652 2.322,1.308c0.729,-0.191 1.248,-0.523 1.618,-1.034c0.239,-0.33 0.289,-0.51 0.333,-1.208c0.086,-1.365 0.374,-2.016 0.838,-1.894c0.301,0.078 0.342,0.272 0.149,0.7c-0.229,0.508 -0.224,2.617 0.009,3.769c0.428,2.122 0.02,4.403 -0.981,5.483c-0.279,0.301 -0.453,0.329 -0.674,0.108l0,0Zm-11.382,-5.026c-0.327,-0.142 -0.464,-0.361 -0.373,-0.597c0.084,-0.219 0.396,-0.278 0.786,-0.149c0.491,0.162 0.94,0.05 1.302,-0.325c0.388,-0.402 0.518,-0.745 0.518,-1.364c0,-0.712 -0.206,-0.883 -1.062,-0.883c-0.714,0.001 -1.19,0.103 -1.909,0.409c-0.351,0.15 -0.479,0.269 -0.577,0.541c-0.424,1.173 -1.797,1.745 -2.879,1.199c-0.396,-0.199 -0.441,-0.258 -0.441,-0.566c-0,-0.44 0.196,-0.487 0.801,-0.194c0.394,0.19 0.5,0.204 0.829,0.105c0.517,-0.155 0.958,-0.681 1.042,-1.242c0.191,-1.268 -0.531,-1.667 -2.252,-1.245c-1.228,0.301 -1.326,0.358 -1.591,0.935c-0.281,0.612 -0.706,1.131 -1.026,1.252c-0.555,0.211 -0.868,-0.434 -0.369,-0.761c0.331,-0.217 0.683,-0.831 0.985,-1.721c0.312,-0.915 0.316,-1.097 0.024,-1.072c-0.438,0.037 -0.565,-0.016 -0.627,-0.26c-0.1,-0.399 0.104,-0.543 0.767,-0.543c0.497,0 0.624,0.039 0.839,0.254c0.262,0.262 0.261,0.236 0.065,1.089l-0.048,0.207l0.676,-0.176c0.782,-0.204 1.735,-0.237 2.217,-0.076c0.467,0.156 0.962,0.652 1.096,1.096c0.061,0.206 0.128,0.374 0.148,0.374c0.021,-0 0.314,-0.095 0.652,-0.211c0.808,-0.277 2.245,-0.31 2.705,-0.061c0.513,0.277 0.776,0.807 0.772,1.556c-0.005,1.048 -0.519,1.953 -1.352,2.381c-0.431,0.222 -1.264,0.245 -1.718,0.048l-0,-0Zm15.378,-0.896c-0.076,-0.093 -0.096,-0.25 -0.051,-0.42c0.16,-0.614 0.161,-1.378 0.002,-2.26c-0.092,-0.51 -0.183,-0.928 -0.202,-0.928c-0.019,-0 -0.196,0.095 -0.394,0.212l-0.359,0.212l-0.205,-0.206c-0.195,-0.194 -0.197,-0.219 -0.043,-0.454c0.09,-0.137 0.363,-0.366 0.608,-0.509c0.61,-0.358 0.935,-0.255 1.127,0.357c0.076,0.24 0.148,0.45 0.16,0.466c0.013,0.015 0.326,-0.285 0.695,-0.668c0.672,-0.696 1.626,-1.29 2.063,-1.286c0.303,0.004 0.964,0.332 1.214,0.604c0.656,0.713 0.866,2.108 0.44,2.929c-0.363,0.702 -1.34,1.273 -2.043,1.193c-0.251,-0.028 -0.299,-0.08 -0.325,-0.351c-0.027,-0.278 0.004,-0.326 0.247,-0.38c0.672,-0.149 0.929,-0.274 1.202,-0.586c0.39,-0.444 0.459,-0.819 0.271,-1.467c-0.48,-1.652 -1.674,-1.32 -3.411,0.948c-0.092,0.121 -0.128,0.437 -0.115,1.021c0.021,0.933 -0.109,1.473 -0.388,1.622c-0.25,0.134 -0.349,0.124 -0.493,-0.049l0,-0Zm6.467,-2.058c-0.104,-0.269 -0,-0.507 0.279,-0.641c0.213,-0.101 0.271,-0.198 0.271,-0.449c-0,-0.598 -0.601,-2.536 -0.787,-2.536c-0.04,0 -0.154,0.092 -0.255,0.203c-0.244,0.27 -0.676,0.225 -0.719,-0.074c-0.065,-0.463 0.753,-1.175 1.268,-1.102c0.177,0.025 0.304,0.155 0.454,0.469l0.209,0.434l0.442,-0.681c1.039,-1.599 2.045,-2.156 2.923,-1.62c0.178,0.108 0.339,0.197 0.356,0.197c0.018,0 0.176,-0.282 0.351,-0.628c0.399,-0.785 1.077,-1.568 1.649,-1.903c0.592,-0.347 0.998,-0.27 1.564,0.296c0.504,0.503 0.748,1.148 0.748,1.975l-0,0.594l0.3,-0.288c0.165,-0.158 0.376,-0.504 0.47,-0.769c0.191,-0.546 0.414,-0.721 0.712,-0.562c0.477,0.255 0.005,1.388 -0.934,2.245c-0.997,0.909 -4.174,2.806 -7.04,4.204c-1.478,0.721 -2.156,0.912 -2.261,0.636Zm2.693,-1.762c0.972,-0.517 1.183,-0.674 1.426,-1.057c0.216,-0.341 0.285,-0.569 0.285,-0.943c0,-0.662 -0.32,-1.313 -0.745,-1.516c-0.302,-0.144 -0.347,-0.142 -0.654,0.038c-0.421,0.245 -1.123,1.116 -1.558,1.931l-0.339,0.634l0.13,0.76c0.072,0.418 0.172,0.76 0.223,0.76c0.051,0 0.605,-0.273 1.232,-0.607Zm3.984,-2.217c0.792,-0.499 1.286,-1.265 1.285,-1.991c-0.002,-0.842 -0.475,-1.708 -0.933,-1.708c-0.36,0 -1.192,0.966 -1.644,1.908c-0.339,0.707 -0.381,0.864 -0.293,1.096c0.057,0.149 0.103,0.56 0.103,0.914l-0,0.643l0.568,-0.322c0.313,-0.177 0.724,-0.42 0.914,-0.54Zm-38.791,3.388c-1.212,-0.495 -3.849,-2.17 -6.226,-3.955c-2.018,-1.514 -2.313,-1.819 -2.139,-2.202c0.128,-0.281 0.458,-0.314 0.725,-0.072c0.174,0.157 0.205,0.145 0.582,-0.222c0.36,-0.351 1.44,-1.906 1.359,-1.957c-0.018,-0.011 -0.162,-0.063 -0.319,-0.116c-0.375,-0.124 -0.541,-0.381 -0.395,-0.613c0.156,-0.25 0.559,-0.264 1.073,-0.037c0.627,0.278 0.731,0.582 0.401,1.173c-0.137,0.245 -0.249,0.455 -0.249,0.467c-0,0.013 0.389,0.05 0.864,0.083c0.708,0.049 0.982,0.119 1.508,0.385c0.529,0.268 0.681,0.403 0.864,0.766c0.131,0.259 0.223,0.622 0.223,0.878l-0,0.436l0.39,-0.062c1.091,-0.175 2.735,0.372 3.083,1.024c0.516,0.967 -0.105,2.512 -1.242,3.09l-0.288,0.146l0.377,0.125c0.22,0.072 0.61,0.103 0.938,0.073c0.654,-0.059 0.893,0.041 0.893,0.375c-0,0.611 -1.191,0.717 -2.422,0.215l0,-0Zm-0.023,-1.608c0.369,-0.088 1.04,-0.869 1.122,-1.304c0.116,-0.619 -0.035,-0.837 -0.754,-1.088c-0.517,-0.182 -0.8,-0.218 -1.464,-0.191l-0.822,0.035l-0.364,0.407c-0.2,0.224 -0.511,0.494 -0.692,0.599l-0.329,0.192l0.823,0.54c1.209,0.792 1.671,0.997 2.059,0.909c0.081,-0.019 0.271,-0.063 0.421,-0.099l-0,0Zm-3.275,-2.372c0.315,-0.163 0.775,-0.99 0.777,-1.397c0.004,-0.771 -0.662,-1.134 -2.199,-1.197c-1.043,-0.043 -1.079,-0.038 -1.239,0.191c-0.09,0.129 -0.306,0.392 -0.479,0.584l-0.314,0.348l0.986,0.739c0.543,0.406 1.061,0.769 1.153,0.806c0.304,0.123 1.012,0.083 1.315,-0.074Zm26.643,1.872c-0.273,-0.273 0.457,-1.808 1.294,-2.717c0.628,-0.682 1.044,-0.859 1.618,-0.687c0.754,0.226 0.968,1.018 0.53,1.959c-0.25,0.537 -0.33,0.588 -0.652,0.416c-0.234,-0.125 -0.24,-0.307 -0.031,-0.854c0.196,-0.513 0.13,-0.724 -0.226,-0.724c-0.379,0 -0.942,0.644 -1.517,1.733c-0.371,0.704 -0.516,0.892 -0.706,0.916c-0.132,0.016 -0.271,-0.003 -0.31,-0.042l0,0Zm-14.641,-0.192c-0.345,-0.345 -0.264,-0.44 1.203,-1.41c1.198,-0.791 1.533,-0.874 1.589,-0.391c0.025,0.224 -0.054,0.328 -0.49,0.642c-0.669,0.482 -1.983,1.314 -2.075,1.314c-0.039,-0 -0.141,-0.07 -0.227,-0.155Zm25.744,-4.189c-0.112,-0.111 -0.203,-0.271 -0.203,-0.355c0,-0.176 0.431,-0.638 0.595,-0.638c0.268,0 0.492,0.218 0.492,0.479c0,0.556 -0.533,0.866 -0.884,0.514Zm-34.991,-0.795c-0.258,-0.258 -0.253,-0.643 0.011,-0.827c0.265,-0.186 0.581,-0.08 0.775,0.26c0.324,0.57 -0.319,1.034 -0.786,0.567Zm36.699,-0.358c-0.152,-0.231 -0.154,-0.285 -0.024,-0.517c0.185,-0.33 0.611,-0.494 0.825,-0.316c0.355,0.294 0.036,1.092 -0.436,1.092c-0.108,-0 -0.272,-0.116 -0.365,-0.259l-0,0Zm-1.439,-0.689c-0.164,-0.36 0.07,-0.769 0.465,-0.815c0.505,-0.058 0.725,0.496 0.348,0.873c-0.285,0.285 -0.669,0.258 -0.813,-0.058Zm1.011,-14.229c-0.68,-0.465 -2.306,-1.485 -3.613,-2.268c-2.248,-1.346 -2.908,-1.826 -3.267,-2.373c-0.188,-0.287 -0.105,-0.606 0.182,-0.697c0.169,-0.053 0.295,0.033 0.646,0.44c0.24,0.279 0.465,0.507 0.501,0.507c0.036,-0 0.051,-0.312 0.033,-0.693c-0.07,-1.472 0.839,-2.329 1.924,-1.815c0.487,0.231 1.249,0.945 1.611,1.509l0.311,0.485l0.384,-0.151c0.707,-0.277 1.355,0.009 2.033,0.897c0.193,0.253 0.456,0.686 0.584,0.964l0.234,0.504l0.169,-0.257c0.256,-0.392 0.731,-0.356 1.119,0.086c0.299,0.342 0.489,0.931 0.365,1.132c-0.122,0.197 -0.53,0.111 -0.74,-0.156c-0.113,-0.145 -0.222,-0.245 -0.241,-0.223c-0.019,0.022 -0.219,0.377 -0.443,0.79c-0.427,0.782 -0.512,1.265 -0.261,1.474c0.254,0.21 -0.852,0.309 -1.531,-0.155l-0,-0Zm0.788,-1.197c0.238,-0.539 0.197,-0.748 -0.368,-1.837c-0.415,-0.799 -0.919,-1.283 -1.29,-1.24c-0.355,0.042 -0.636,0.551 -0.636,1.154c0,0.536 0.174,0.93 0.583,1.317c0.313,0.298 1.329,1.047 1.437,1.06c0.038,0.004 0.161,-0.2 0.274,-0.454Zm-3.264,-3.402c-0.409,-0.802 -1.278,-1.571 -1.774,-1.571c-0.399,-0 -0.614,0.901 -0.38,1.591c0.199,0.588 0.461,0.853 1.345,1.361l0.863,0.496l0.076,-0.736c0.067,-0.645 0.05,-0.787 -0.13,-1.141Zm-37.131,4.999c-0.122,-0.087 -0.222,-0.219 -0.222,-0.293c-0,-0.229 0.295,-0.447 0.605,-0.447c0.269,0 0.877,-0.24 0.877,-0.346c0,-0.025 -0.166,-0.13 -0.37,-0.235c-1.24,-0.636 -1.527,-2.259 -0.525,-2.972c0.525,-0.374 1.184,-0.608 1.876,-0.666l0.677,-0.057l0.053,-0.398c0.137,-1.017 1.297,-1.656 2.766,-1.523l0.578,0.053l-0.065,-0.383c-0.084,-0.498 -0.003,-0.73 0.304,-0.87c0.311,-0.141 0.981,-0.148 1.236,-0.011c0.415,0.222 0.158,0.688 -0.38,0.688c-0.325,0 -0.333,0.009 -0.268,0.321c0.037,0.177 0.229,0.654 0.428,1.061c0.36,0.736 0.363,0.74 0.757,0.741c0.372,0.002 0.395,0.019 0.395,0.295c0,0.271 -0.086,0.341 -1.156,0.939c-1.596,0.892 -4.503,2.714 -5.307,3.326c-0.811,0.618 -1.127,0.785 -1.641,0.869c-0.285,0.047 -0.457,0.021 -0.618,-0.092l0,-0Zm2.124,-1.918c0.175,-0.05 0.698,-0.344 1.161,-0.652c0.783,-0.521 0.999,-0.739 0.732,-0.739c-0.061,-0 -0.313,-0.206 -0.56,-0.457l-0.451,-0.457l-0.627,0.065c-1.606,0.164 -2.253,0.931 -1.504,1.784c0.169,0.192 0.447,0.39 0.618,0.439c0.171,0.05 0.311,0.095 0.312,0.099c-0,0.005 0.144,-0.032 0.319,-0.082Zm4.044,-2.441c0.48,-0.251 0.911,-0.49 0.956,-0.531c0.045,-0.041 -0.033,-0.301 -0.173,-0.577c-0.27,-0.534 -0.193,-0.495 -1.324,-0.669c-0.5,-0.077 -1.397,0.145 -1.663,0.411c-0.595,0.594 0.05,1.823 0.957,1.823c0.251,-0 0.658,-0.149 1.247,-0.457Zm10.788,1.17c-0.77,-0.852 -1.198,-2.199 -1.363,-4.289c-0.102,-1.294 -0.321,-2.105 -0.698,-2.584c-0.229,-0.291 -0.249,-0.589 -0.05,-0.754c0.368,-0.306 0.879,0.268 1.248,1.402c0.195,0.6 0.265,0.697 0.702,0.978c0.387,0.248 0.623,0.321 1.159,0.359c0.817,0.059 1.299,-0.084 1.636,-0.484c0.524,-0.623 0.186,-1.401 -0.728,-1.675c-0.333,-0.1 -0.486,-0.1 -0.754,-0.004c-0.726,0.263 -1.053,-0.406 -0.374,-0.763c0.325,-0.171 1.214,-0.133 1.662,0.071c0.459,0.209 1.103,0.883 1.195,1.252c0.218,0.865 -0.262,1.8 -1.128,2.2c-0.858,0.395 -1.77,0.355 -2.918,-0.129c-0.171,-0.072 -0.178,-0.033 -0.115,0.604c0.146,1.46 0.558,2.634 1.188,3.383c0.329,0.391 0.302,0.745 -0.059,0.787c-0.193,0.023 -0.342,-0.065 -0.603,-0.354l-0,-0Zm14.448,-1.8c-0.21,-0.21 -0.245,-0.457 -0.21,-1.483l0.022,-0.642l-0.543,-0.603c-0.319,-0.354 -0.77,-0.721 -1.092,-0.889c-0.517,-0.271 -0.565,-0.278 -0.821,-0.136c-0.818,0.456 -0.334,2.171 0.613,2.171c0.401,0 0.739,0.327 0.587,0.568c-0.201,0.318 -0.402,0.372 -0.898,0.239c-0.259,-0.069 -0.611,-0.232 -0.781,-0.362c-0.401,-0.306 -0.732,-1.017 -0.732,-1.572c0,-0.397 -0.042,-0.474 -0.469,-0.851c-0.586,-0.516 -1.085,-0.775 -1.642,-0.852c-0.376,-0.051 -0.452,-0.029 -0.593,0.172c-0.344,0.492 -0.072,1.572 0.469,1.861c0.139,0.075 0.416,0.162 0.615,0.195c0.431,0.07 0.635,0.319 0.473,0.578c-0.256,0.408 -1.332,0.183 -1.894,-0.397c-0.754,-0.778 -0.822,-2.189 -0.143,-2.964c0.471,-0.537 1.623,-0.363 2.756,0.418c0.617,0.425 0.724,0.468 0.833,0.337c0.212,-0.255 0.654,-0.433 1.076,-0.433c0.531,-0 1.22,0.358 1.919,0.996c0.308,0.282 0.57,0.495 0.582,0.475c0.011,-0.021 0.089,-0.172 0.172,-0.335c0.205,-0.401 0.591,-0.44 1.068,-0.109c0.441,0.306 0.638,0.604 0.561,0.848c-0.09,0.281 -0.342,0.322 -0.697,0.112l-0.323,-0.19l-0.126,0.46c-0.069,0.253 -0.13,0.896 -0.135,1.429c-0.006,0.741 -0.042,0.99 -0.155,1.061c-0.209,0.132 -0.271,0.12 -0.492,-0.102l-0,-0Zm-30.668,-0.608c-0.252,-0.141 -0.205,-0.535 0.093,-0.769c0.333,-0.262 0.592,-0.26 0.734,0.005c0.207,0.386 -0.439,0.981 -0.827,0.764l-0,-0Zm9.06,-0.087c-0.405,-0.125 -0.984,-0.773 -1.116,-1.25c-0.266,-0.959 0.032,-1.886 0.734,-2.278c0.555,-0.311 1.696,-0.306 2.684,0.011c0.199,0.064 0.21,0.043 0.162,-0.319c-0.092,-0.684 0.387,-0.95 1.269,-0.705c0.445,0.123 0.617,0.317 0.528,0.595c-0.058,0.183 -0.127,0.207 -0.513,0.176l-0.446,-0.035l0.058,0.496c0.09,0.758 0.337,1.492 0.616,1.823c0.267,0.317 0.258,0.631 -0.021,0.738c-0.358,0.138 -0.84,-0.386 -1.092,-1.187c-0.161,-0.51 -0.19,-0.541 -0.718,-0.743c-0.303,-0.115 -0.871,-0.232 -1.262,-0.26c-0.696,-0.048 -0.718,-0.042 -1.025,0.264c-0.288,0.288 -0.31,0.355 -0.266,0.811c0.087,0.906 0.681,1.337 1.419,1.028c0.198,-0.083 0.442,-0.15 0.543,-0.15c0.218,-0 0.41,0.318 0.325,0.54c-0.146,0.38 -1.243,0.64 -1.879,0.445l0,-0Zm-7.276,-1.092c-0.419,-0.244 -0.063,-0.882 0.492,-0.882c0.509,0 0.511,0.48 0.005,0.835c-0.255,0.179 -0.268,0.18 -0.497,0.047l0,-0Zm-1.433,-0.354c-0.226,-0.091 -0.141,-0.598 0.137,-0.817c0.312,-0.245 0.465,-0.257 0.672,-0.049c0.216,0.216 0.197,0.312 -0.134,0.642c-0.281,0.281 -0.419,0.327 -0.675,0.224Zm37.482,-0.049c-0.48,-0.262 -0.588,-0.714 -0.211,-0.886c0.494,-0.225 1.179,0.46 0.852,0.853c-0.143,0.173 -0.365,0.184 -0.641,0.033l-0,0Zm-10.119,-3.318c-0.16,-0.151 -0.609,-0.647 -0.996,-1.104c-0.543,-0.639 -0.699,-0.89 -0.676,-1.087c0.021,-0.183 0.097,-0.267 0.261,-0.29c0.285,-0.04 0.452,0.106 1.365,1.198c0.763,0.912 0.89,1.26 0.532,1.452c-0.158,0.085 -0.248,0.054 -0.486,-0.169Zm-17.554,-0.322c-0.336,-0.221 -0.642,-0.728 -0.642,-1.064c-0,-0.124 0.144,-0.382 0.321,-0.575c0.741,-0.806 2.037,-0.614 3.478,0.518c0.467,0.366 0.556,0.485 0.531,0.706c-0.05,0.431 -0.439,0.402 -1.04,-0.076c-0.916,-0.729 -1.893,-0.999 -2.357,-0.651c-0.185,0.138 -0.176,0.159 0.235,0.538c0.37,0.342 0.412,0.421 0.317,0.597c-0.137,0.256 -0.46,0.259 -0.843,0.007l0,0Z" style="fill-rule:nonzero;"/><defs><linearGradient id="_Linear1" x1="0" y1="0" x2="1" y2="0" gradientUnits="userSpaceOnUse" gradientTransform="matrix(7.15198,-7.16675,7.16675,7.15198,14.0278,74.1929)"><stop offset="0" style="stop-color:#626e77;stop-opacity:1"/><stop offset="0.04" style="stop-color:#697780;stop-opacity:1"/><stop offset="0.11" style="stop-color:#7d8e98;stop-opacity:1"/><stop offset="0.2" style="stop-color:#9eb4c0;stop-opacity:1"/><stop offset="0.2" style="stop-color:#a0b6c2;stop-opacity:1"/><stop offset="0.2" style="stop-color:#a1b7c3;stop-opacity:1"/><stop offset="0.29" style="stop-color:#adc6d4;stop-opacity:1"/><stop offset="0.38" style="stop-color:#b5cede;stop-opacity:1"/><stop offset="0.5" style="stop-color:#b7d1e1;stop-opacity:1"/><stop offset="0.62" style="stop-color:#b5cede;stop-opacity:1"/><stop offset="0.71" style="stop-color:#adc6d4;stop-opacity:1"/><stop offset="0.8" style="stop-color:#a1b7c3;stop-opacity:1"/><stop offset="0.8" style="stop-color:#a0b6c2;stop-opacity:1"/><stop offset="0.85" style="stop-color:#8b9da8;stop-opacity:1"/><stop offset="0.91" style="stop-color:#74838d;stop-opacity:1"/><stop offset="0.96" style="stop-color:#67747d;stop-opacity:1"/><stop offset="1" style="stop-color:#626e77;stop-opacity:1"/></linearGradient><linearGradient id="_Linear2" x1="0" y1="0" x2="1" y2="0" gradientUnits="userSpaceOnUse" gradientTransform="matrix(64.8794,-31.3462,31.3462,64.8794,17.7668,64.1223)"><stop offset="0" style="stop-color:#626e77;stop-opacity:1"/><stop offset="0.04" style="stop-color:#697780;stop-opacity:1"/><stop offset="0.11" style="stop-color:#7d8e98;stop-opacity:1"/><stop offset="0.2" style="stop-color:#9eb4c0;stop-opacity:1"/><stop offset="0.2" style="stop-color:#a0b6c2;stop-opacity:1"/><stop offset="0.2" style="stop-color:#a1b7c3;stop-opacity:1"/><stop offset="0.29" style="stop-color:#adc6d4;stop-opacity:1"/><stop offset="0.38" style="stop-color:#b5cede;stop-opacity:1"/><stop offset="0.5" style="stop-color:#b7d1e1;stop-opacity:1"/><stop offset="0.62" style="stop-color:#b5cede;stop-opacity:1"/><stop offset="0.71" style="stop-color:#adc6d4;stop-opacity:1"/><stop offset="0.8" style="stop-color:#a1b7c3;stop-opacity:1"/><stop offset="0.8" style="stop-color:#a0b6c2;stop-opacity:1"/><stop offset="0.85" style="stop-color:#8b9da8;stop-opacity:1"/><stop offset="0.91" style="stop-color:#74838d;stop-opacity:1"/><stop offset="0.96" style="stop-color:#67747d;stop-opacity:1"/><stop offset="1" style="stop-color:#626e77;stop-opacity:1"/></linearGradient><linearGradient id="_Linear3" x1="0" y1="0" x2="1" y2="0" gradientUnits="userSpaceOnUse" gradientTransform="matrix(52.7388,-32.2924,32.2924,52.7388,19.7066,58.3188)"><stop offset="0" style="stop-color:#626e77;stop-opacity:1"/><stop offset="0.04" style="stop-color:#697780;stop-opacity:1"/><stop offset="0.11" style="stop-color:#7d8e98;stop-opacity:1"/><stop offset="0.2" style="stop-color:#9eb4c0;stop-opacity:1"/><stop offset="0.2" style="stop-color:#a0b6c2;stop-opacity:1"/><stop offset="0.2" style="stop-color:#a1b7c3;stop-opacity:1"/><stop offset="0.29" style="stop-color:#adc6d4;stop-opacity:1"/><stop offset="0.38" style="stop-color:#b5cede;stop-opacity:1"/><stop offset="0.5" style="stop-color:#b7d1e1;stop-opacity:1"/><stop offset="0.62" style="stop-color:#b5cede;stop-opacity:1"/><stop offset="0.71" style="stop-color:#adc6d4;stop-opacity:1"/><stop offset="0.8" style="stop-color:#a1b7c3;stop-opacity:1"/><stop offset="0.8" style="stop-color:#a0b6c2;stop-opacity:1"/><stop offset="0.85" style="stop-color:#8b9da8;stop-opacity:1"/><stop offset="0.91" style="stop-color:#74838d;stop-opacity:1"/><stop offset="0.96" style="stop-color:#67747d;stop-opacity:1"/><stop offset="1" style="stop-color:#626e77;stop-opacity:1"/></linearGradient></defs></svg>