<?xml version="1.0" encoding="UTF-8" standalone="no"?><!DOCTYPE svg PUBLIC "-//W3C//DTD SVG 1.1//EN" "http://www.w3.org/Graphics/SVG/1.1/DTD/svg11.dtd"><svg width="100%" height="100%" viewBox="0 0 91 90" version="1.1" xmlns="http://www.w3.org/2000/svg" xmlns:xlink="http://www.w3.org/1999/xlink" xml:space="preserve" xmlns:serif="http://www.serif.com/" style="fill-rule:evenodd;clip-rule:evenodd;stroke-linejoin:round;stroke-miterlimit:2;"><rect id="WM" x="0.079" y="0" width="90" height="90" style="fill:none;"/><path d="M12.623,41.568c-3.247,-4.022 -6.306,-8.264 -9.137,-12.725c-0.19,-0.302 -0.202,-0.683 -0.029,-0.996c0.172,-0.313 0.501,-0.507 0.858,-0.507l11.871,0c-2.078,2.924 -3.561,7.454 -3.561,14.007c-0,-0 -0.002,0.078 -0.002,0.221Zm61.348,-14.228l11.985,0c0.357,0 0.686,0.194 0.858,0.507c0.173,0.313 0.161,0.694 -0.029,0.996c-2.86,4.504 -5.958,8.784 -9.251,12.84c0.001,-0.216 -0.001,-0.336 -0.001,-0.336c-0,-6.553 -1.483,-11.083 -3.562,-14.007Zm-22.245,39.194c-2.191,1.663 -4.409,3.259 -6.647,4.786c-2.238,-1.527 -4.454,-3.122 -6.64,-4.785c2.12,0.323 4.337,0.491 6.64,0.491c2.305,0 4.524,-0.168 6.647,-0.492Zm11.683,-24.818c-6.466,3.406 -14.63,4.723 -18.33,4.723c-3.797,0 -12.292,-1.386 -18.831,-4.993c7.111,-6.479 13.121,-8.075 18.831,-8.075c5.61,0 11.397,2.084 18.33,8.345Z"/><path d="M45.079,48.781c7.009,0 29.112,-4.448 29.112,-18.022c2.257,5.301 2.475,13.767 0.938,17.516c-3.684,8.986 -15.425,16.854 -30.05,16.854c-14.626,-0 -26.367,-7.868 -30.051,-16.854c-1.537,-3.749 -1.319,-12.215 0.938,-17.516c0,13.574 22.103,18.022 29.113,18.022Zm6.394,4.517c0.038,0.039 0.178,0.058 0.309,0.042c0.19,-0.024 0.335,-0.212 0.706,-0.916c0.575,-1.089 1.138,-1.733 1.517,-1.733c0.356,0 0.422,0.211 0.226,0.724c-0.209,0.547 -0.202,0.729 0.031,0.854c0.322,0.172 0.402,0.121 0.652,-0.416c0.438,-0.941 0.224,-1.733 -0.529,-1.959c-0.575,-0.172 -0.991,0.005 -1.619,0.687c-0.837,0.909 -1.567,2.444 -1.293,2.717Zm-14.641,-0.192c0.085,0.085 0.187,0.155 0.226,0.155c0.092,-0 1.406,-0.832 2.075,-1.314c0.437,-0.314 0.516,-0.418 0.49,-0.642c-0.056,-0.483 -0.39,-0.4 -1.589,0.391c-1.466,0.97 -1.547,1.065 -1.202,1.41Zm27.451,-5.342c0.093,0.143 0.257,0.259 0.365,0.259c0.473,-0 0.791,-0.798 0.436,-1.092c-0.213,-0.178 -0.639,-0.014 -0.825,0.316c-0.13,0.232 -0.127,0.286 0.024,0.517Zm-25.887,11.187c0.454,0.197 1.287,0.174 1.719,-0.048c0.832,-0.428 1.346,-1.333 1.351,-2.381c0.004,-0.749 -0.258,-1.279 -0.772,-1.556c-0.46,-0.249 -1.897,-0.216 -2.705,0.061c-0.338,0.116 -0.631,0.211 -0.651,0.211c-0.021,-0 -0.088,-0.168 -0.149,-0.374c-0.133,-0.444 -0.629,-0.94 -1.095,-1.096c-0.483,-0.161 -1.436,-0.128 -2.218,0.076l-0.676,0.176l0.048,-0.207c0.196,-0.853 0.197,-0.827 -0.064,-1.089c-0.216,-0.215 -0.343,-0.254 -0.839,-0.254c-0.664,0 -0.867,0.144 -0.767,0.543c0.061,0.244 0.189,0.297 0.626,0.26c0.292,-0.025 0.288,0.157 -0.023,1.072c-0.303,0.89 -0.654,1.504 -0.986,1.721c-0.498,0.327 -0.186,0.972 0.369,0.761c0.32,-0.121 0.745,-0.64 1.027,-1.252c0.265,-0.577 0.362,-0.634 1.591,-0.935c1.72,-0.422 2.442,-0.023 2.252,1.245c-0.084,0.561 -0.526,1.087 -1.043,1.242c-0.329,0.099 -0.435,0.085 -0.828,-0.105c-0.606,-0.293 -0.802,-0.246 -0.802,0.194c0,0.308 0.046,0.367 0.441,0.566c1.082,0.546 2.455,-0.026 2.879,-1.199c0.099,-0.272 0.226,-0.391 0.577,-0.541c0.72,-0.306 1.195,-0.408 1.909,-0.409c0.856,-0 1.063,0.171 1.063,0.883c-0,0.619 -0.131,0.962 -0.519,1.364c-0.361,0.375 -0.811,0.487 -1.302,0.325c-0.39,-0.129 -0.702,-0.07 -0.786,0.149c-0.09,0.236 0.047,0.455 0.373,0.597Zm15.379,-0.896c0.143,0.173 0.242,0.183 0.492,0.049c0.28,-0.149 0.409,-0.689 0.389,-1.622c-0.013,-0.584 0.022,-0.9 0.115,-1.021c1.736,-2.268 2.93,-2.6 3.41,-0.948c0.189,0.648 0.119,1.023 -0.27,1.467c-0.274,0.312 -0.531,0.437 -1.203,0.586c-0.243,0.054 -0.273,0.102 -0.247,0.38c0.027,0.271 0.075,0.323 0.326,0.351c0.702,0.08 1.679,-0.491 2.043,-1.193c0.425,-0.821 0.215,-2.216 -0.44,-2.929c-0.25,-0.272 -0.911,-0.6 -1.215,-0.604c-0.437,-0.004 -1.391,0.59 -2.062,1.286c-0.37,0.383 -0.683,0.683 -0.695,0.668c-0.013,-0.016 -0.085,-0.226 -0.16,-0.466c-0.193,-0.612 -0.518,-0.715 -1.128,-0.357c-0.244,0.143 -0.518,0.372 -0.607,0.509c-0.155,0.235 -0.153,0.26 0.042,0.454l0.206,0.206l0.359,-0.212c0.197,-0.117 0.375,-0.212 0.394,-0.212c0.019,-0 0.11,0.418 0.201,0.928c0.159,0.882 0.158,1.646 -0.002,2.26c-0.044,0.17 -0.025,0.327 0.052,0.42Zm6.466,-2.058c0.106,0.276 0.783,0.085 2.261,-0.636c2.867,-1.398 6.043,-3.295 7.04,-4.204c0.94,-0.857 1.411,-1.99 0.935,-2.245c-0.298,-0.159 -0.521,0.016 -0.713,0.562c-0.093,0.265 -0.304,0.611 -0.47,0.769l-0.3,0.288l0,-0.594c0,-0.827 -0.244,-1.472 -0.748,-1.975c-0.566,-0.566 -0.972,-0.643 -1.564,-0.296c-0.572,0.335 -1.25,1.118 -1.648,1.903c-0.176,0.346 -0.334,0.628 -0.351,0.628c-0.018,0 -0.178,-0.089 -0.356,-0.197c-0.879,-0.536 -1.884,0.021 -2.923,1.62l-0.443,0.681l-0.208,-0.434c-0.151,-0.314 -0.277,-0.444 -0.455,-0.469c-0.514,-0.073 -1.333,0.639 -1.267,1.102c0.042,0.299 0.474,0.344 0.718,0.074c0.101,-0.111 0.216,-0.203 0.255,-0.203c0.186,0 0.787,1.938 0.787,2.536c0,0.251 -0.058,0.348 -0.27,0.449c-0.28,0.134 -0.383,0.372 -0.28,0.641Zm6.678,-3.979c-0.191,0.12 -0.602,0.363 -0.914,0.54l-0.569,0.322l0,-0.643c0,-0.354 -0.046,-0.765 -0.103,-0.914c-0.088,-0.232 -0.046,-0.389 0.293,-1.096c0.453,-0.942 1.284,-1.908 1.644,-1.908c0.459,0 0.932,0.866 0.933,1.708c0.001,0.726 -0.493,1.492 -1.284,1.991Zm-3.984,2.217c-0.627,0.334 -1.182,0.607 -1.233,0.607c-0.051,0 -0.151,-0.342 -0.222,-0.76l-0.13,-0.76l0.338,-0.634c0.435,-0.815 1.138,-1.686 1.558,-1.931c0.307,-0.18 0.352,-0.182 0.655,-0.038c0.424,0.203 0.745,0.854 0.745,1.516c-0,0.374 -0.069,0.602 -0.286,0.943c-0.243,0.383 -0.454,0.54 -1.425,1.057Zm-0.36,-5.318c0.352,0.352 0.885,0.042 0.885,-0.514c-0,-0.261 -0.224,-0.479 -0.492,-0.479c-0.164,0 -0.595,0.462 -0.595,0.638c-0,0.084 0.091,0.244 0.202,0.355Zm-34.991,-0.795c0.468,0.467 1.111,0.003 0.786,-0.567c-0.193,-0.34 -0.509,-0.446 -0.774,-0.26c-0.264,0.184 -0.27,0.569 -0.012,0.827Zm35.26,-1.047c0.144,0.316 0.528,0.343 0.813,0.058c0.378,-0.377 0.157,-0.931 -0.347,-0.873c-0.396,0.046 -0.629,0.455 -0.466,0.815Zm-34.716,8.331c1.23,0.502 2.421,0.396 2.421,-0.215c0,-0.334 -0.239,-0.434 -0.893,-0.375c-0.327,0.03 -0.717,-0.001 -0.938,-0.073l-0.377,-0.125l0.289,-0.146c1.136,-0.578 1.757,-2.123 1.241,-3.09c-0.347,-0.652 -1.992,-1.199 -3.083,-1.024l-0.39,0.062l0,-0.436c0,-0.256 -0.092,-0.619 -0.222,-0.878c-0.183,-0.363 -0.336,-0.498 -0.865,-0.766c-0.526,-0.266 -0.799,-0.336 -1.507,-0.385c-0.476,-0.033 -0.865,-0.07 -0.865,-0.083c0,-0.012 0.112,-0.222 0.249,-0.467c0.33,-0.591 0.227,-0.895 -0.4,-1.173c-0.515,-0.227 -0.917,-0.213 -1.074,0.037c-0.145,0.232 0.021,0.489 0.395,0.613c0.158,0.053 0.301,0.105 0.32,0.116c0.081,0.051 -1,1.606 -1.359,1.957c-0.378,0.367 -0.409,0.379 -0.582,0.222c-0.268,-0.242 -0.597,-0.209 -0.725,0.072c-0.175,0.383 0.121,0.688 2.138,2.202c2.377,1.785 5.015,3.46 6.227,3.955Zm-0.024,-1.608c-0.15,0.036 -0.34,0.08 -0.421,0.099c-0.388,0.088 -0.85,-0.117 -2.058,-0.909l-0.823,-0.54l0.328,-0.192c0.181,-0.105 0.493,-0.375 0.693,-0.599l0.363,-0.407l0.823,-0.035c0.663,-0.027 0.946,0.009 1.464,0.191c0.718,0.251 0.869,0.469 0.753,1.088c-0.081,0.435 -0.753,1.216 -1.122,1.304Zm-3.275,-2.372c-0.303,0.157 -1.011,0.197 -1.315,0.074c-0.091,-0.037 -0.61,-0.4 -1.152,-0.806l-0.987,-0.739l0.315,-0.348c0.173,-0.192 0.388,-0.455 0.479,-0.584c0.16,-0.229 0.196,-0.234 1.239,-0.191c1.536,0.063 2.202,0.426 2.199,1.197c-0.002,0.407 -0.462,1.234 -0.778,1.397Zm24.95,12.551c0.221,0.221 0.394,0.193 0.674,-0.108c1.001,-1.08 1.409,-3.361 0.98,-5.483c-0.233,-1.152 -0.238,-3.261 -0.009,-3.769c0.193,-0.428 0.152,-0.622 -0.148,-0.7c-0.465,-0.122 -0.753,0.529 -0.839,1.894c-0.044,0.698 -0.093,0.878 -0.333,1.208c-0.37,0.511 -0.889,0.843 -1.617,1.034c-1.314,0.344 -2.321,-0.223 -2.322,-1.308c-0.001,-0.342 0.064,-0.491 0.348,-0.805c0.485,-0.537 0.95,-0.74 1.537,-0.671c0.529,0.063 0.721,-0.065 0.667,-0.446c-0.024,-0.17 -0.138,-0.261 -0.449,-0.36c-0.356,-0.112 -0.492,-0.109 -0.945,0.023c-1.619,0.47 -2.388,1.979 -1.686,3.31c0.629,1.194 2.305,1.534 3.838,0.778c0.218,-0.107 0.534,-0.327 0.704,-0.488c0.359,-0.341 0.361,-0.34 0.534,0.732c0.263,1.631 -0.02,3.278 -0.751,4.38c-0.391,0.589 -0.388,0.575 -0.183,0.779Z"/><path d="M45.079,31.029c-6.463,0 -13.312,1.823 -21.48,9.691c-2.313,-1.783 -5.819,-4.428 -5.819,-8.343c0,-3.915 3.126,-7.647 5.946,-9.362c4.506,-2.74 10.037,-5.531 21.353,-5.531c11.316,-0 16.928,3.399 21.434,6.14c2.82,1.715 5.946,5.446 5.946,9.361c-0,3.915 -3.701,6.579 -6.014,8.362c-8.168,-7.869 -14.904,-10.318 -21.366,-10.318Zm18.776,1.817c0.679,0.464 1.786,0.365 1.532,0.155c-0.252,-0.209 -0.166,-0.692 0.26,-1.474c0.225,-0.413 0.424,-0.768 0.443,-0.79c0.02,-0.022 0.128,0.078 0.242,0.223c0.21,0.267 0.617,0.353 0.739,0.156c0.125,-0.201 -0.065,-0.79 -0.365,-1.132c-0.388,-0.442 -0.862,-0.478 -1.119,-0.086l-0.169,0.257l-0.233,-0.504c-0.129,-0.278 -0.391,-0.711 -0.584,-0.964c-0.679,-0.888 -1.327,-1.174 -2.034,-0.897l-0.384,0.151l-0.311,-0.485c-0.362,-0.564 -1.124,-1.278 -1.611,-1.509c-1.084,-0.514 -1.994,0.343 -1.924,1.815c0.018,0.381 0.004,0.693 -0.032,0.693c-0.036,-0 -0.262,-0.228 -0.502,-0.507c-0.351,-0.407 -0.477,-0.493 -0.646,-0.44c-0.286,0.091 -0.369,0.41 -0.181,0.697c0.358,0.547 1.018,1.027 3.266,2.373c1.308,0.783 2.934,1.803 3.613,2.268Zm-2.476,-4.599c0.181,0.354 0.197,0.496 0.131,1.141l-0.076,0.736l-0.863,-0.496c-0.884,-0.508 -1.146,-0.773 -1.346,-1.361c-0.234,-0.69 -0.019,-1.591 0.38,-1.591c0.496,-0 1.365,0.769 1.774,1.571Zm3.264,3.402c-0.112,0.254 -0.236,0.458 -0.274,0.454c-0.108,-0.013 -1.124,-0.762 -1.437,-1.06c-0.408,-0.387 -0.582,-0.781 -0.582,-1.317c-0,-0.603 0.28,-1.112 0.635,-1.154c0.371,-0.043 0.875,0.441 1.29,1.24c0.565,1.089 0.607,1.298 0.368,1.837Zm-40.394,1.597c0.16,0.113 0.332,0.139 0.617,0.092c0.515,-0.084 0.831,-0.251 1.641,-0.869c0.805,-0.612 3.711,-2.434 5.307,-3.326c1.07,-0.598 1.156,-0.668 1.156,-0.939c0,-0.276 -0.023,-0.293 -0.395,-0.295c-0.393,-0.001 -0.397,-0.005 -0.756,-0.741c-0.199,-0.407 -0.392,-0.884 -0.428,-1.061c-0.065,-0.312 -0.058,-0.321 0.267,-0.321c0.538,0 0.795,-0.466 0.38,-0.688c-0.255,-0.137 -0.925,-0.13 -1.235,0.011c-0.307,0.14 -0.388,0.372 -0.304,0.87l0.064,0.383l-0.577,-0.053c-1.469,-0.133 -2.63,0.506 -2.766,1.523l-0.054,0.398l-0.677,0.057c-0.691,0.058 -1.35,0.292 -1.876,0.666c-1.001,0.713 -0.715,2.336 0.525,2.972c0.204,0.105 0.371,0.21 0.371,0.235c-0,0.106 -0.608,0.346 -0.878,0.346c-0.31,0 -0.605,0.218 -0.605,0.447c0,0.074 0.1,0.206 0.223,0.293Zm2.123,-1.918c-0.175,0.05 -0.319,0.087 -0.319,0.082c-0,-0.004 -0.141,-0.049 -0.312,-0.099c-0.171,-0.049 -0.449,-0.247 -0.618,-0.439c-0.748,-0.853 -0.102,-1.62 1.505,-1.784l0.627,-0.065l0.45,0.457c0.248,0.251 0.5,0.457 0.56,0.457c0.267,-0 0.051,0.218 -0.732,0.739c-0.463,0.308 -0.985,0.602 -1.161,0.652Zm4.044,-2.441c-0.589,0.308 -0.996,0.457 -1.247,0.457c-0.906,-0 -1.551,-1.229 -0.957,-1.823c0.267,-0.266 1.163,-0.488 1.664,-0.411c1.13,0.174 1.053,0.135 1.324,0.669c0.14,0.276 0.217,0.536 0.172,0.577c-0.045,0.041 -0.475,0.28 -0.956,0.531Zm25.236,-0.63c0.222,0.222 0.283,0.234 0.493,0.102c0.112,-0.071 0.148,-0.32 0.155,-1.061c0.005,-0.533 0.065,-1.176 0.134,-1.429l0.126,-0.46l0.324,0.19c0.355,0.21 0.607,0.169 0.696,-0.112c0.077,-0.244 -0.12,-0.542 -0.56,-0.848c-0.477,-0.331 -0.864,-0.292 -1.068,0.109c-0.084,0.163 -0.161,0.314 -0.173,0.335c-0.012,0.02 -0.274,-0.193 -0.582,-0.475c-0.698,-0.638 -1.388,-0.996 -1.919,-0.996c-0.421,-0 -0.864,0.178 -1.076,0.433c-0.108,0.131 -0.215,0.088 -0.833,-0.337c-1.133,-0.781 -2.285,-0.955 -2.756,-0.418c-0.679,0.775 -0.611,2.186 0.143,2.964c0.563,0.58 1.639,0.805 1.895,0.397c0.161,-0.259 -0.043,-0.508 -0.473,-0.578c-0.2,-0.033 -0.477,-0.12 -0.616,-0.195c-0.541,-0.289 -0.813,-1.369 -0.469,-1.861c0.142,-0.201 0.218,-0.223 0.594,-0.172c0.556,0.077 1.056,0.336 1.641,0.852c0.427,0.377 0.47,0.454 0.47,0.851c-0,0.555 0.331,1.266 0.731,1.572c0.171,0.13 0.522,0.293 0.782,0.362c0.495,0.133 0.697,0.079 0.897,-0.239c0.152,-0.241 -0.186,-0.568 -0.587,-0.568c-0.946,0 -1.43,-1.715 -0.613,-2.171c0.257,-0.142 0.304,-0.135 0.821,0.136c0.323,0.168 0.773,0.535 1.092,0.889l0.544,0.603l-0.022,0.642c-0.036,1.026 -0.001,1.273 0.209,1.483Zm-30.316,-2.141c0.255,0.103 0.394,0.057 0.674,-0.224c0.331,-0.33 0.351,-0.426 0.134,-0.642c-0.207,-0.208 -0.36,-0.196 -0.671,0.049c-0.279,0.219 -0.364,0.726 -0.137,0.817Zm8.709,1.446c0.635,0.195 1.732,-0.065 1.878,-0.445c0.085,-0.222 -0.106,-0.54 -0.325,-0.54c-0.1,-0 -0.344,0.067 -0.542,0.15c-0.738,0.309 -1.333,-0.122 -1.42,-1.028c-0.044,-0.456 -0.022,-0.523 0.266,-0.811c0.307,-0.306 0.33,-0.312 1.025,-0.264c0.392,0.028 0.959,0.145 1.262,0.26c0.528,0.202 0.557,0.233 0.718,0.743c0.253,0.801 0.735,1.325 1.093,1.187c0.279,-0.107 0.287,-0.421 0.02,-0.738c-0.278,-0.331 -0.526,-1.065 -0.615,-1.823l-0.058,-0.496l0.446,0.035c0.385,0.031 0.455,0.007 0.513,-0.176c0.088,-0.278 -0.084,-0.472 -0.528,-0.595c-0.882,-0.245 -1.362,0.021 -1.27,0.705c0.048,0.362 0.038,0.383 -0.162,0.319c-0.988,-0.317 -2.128,-0.322 -2.684,-0.011c-0.701,0.392 -1,1.319 -0.734,2.278c0.132,0.477 0.712,1.125 1.117,1.25Zm18.654,-4.813c0.238,0.223 0.327,0.254 0.486,0.169c0.358,-0.192 0.23,-0.54 -0.532,-1.452c-0.913,-1.092 -1.08,-1.238 -1.366,-1.198c-0.164,0.023 -0.239,0.107 -0.26,0.29c-0.023,0.197 0.133,0.448 0.675,1.087c0.388,0.457 0.836,0.953 0.997,1.104Zm-27.715,4.9c0.389,0.217 1.034,-0.378 0.828,-0.764c-0.142,-0.265 -0.401,-0.267 -0.735,-0.005c-0.297,0.234 -0.345,0.628 -0.093,0.769Zm1.785,-1.179c0.228,0.133 0.241,0.132 0.496,-0.047c0.507,-0.355 0.504,-0.835 -0.005,-0.835c-0.555,0 -0.91,0.638 -0.491,0.882Zm14.435,3.587c0.261,0.289 0.411,0.377 0.603,0.354c0.362,-0.042 0.388,-0.396 0.059,-0.787c-0.63,-0.749 -1.042,-1.923 -1.187,-3.383c-0.064,-0.637 -0.056,-0.676 0.114,-0.604c1.148,0.484 2.06,0.524 2.918,0.129c0.866,-0.4 1.346,-1.335 1.129,-2.2c-0.093,-0.369 -0.736,-1.043 -1.196,-1.252c-0.448,-0.204 -1.337,-0.242 -1.662,-0.071c-0.679,0.357 -0.351,1.026 0.374,0.763c0.268,-0.096 0.422,-0.096 0.755,0.004c0.913,0.274 1.251,1.052 0.728,1.675c-0.337,0.4 -0.819,0.543 -1.637,0.484c-0.536,-0.038 -0.771,-0.111 -1.159,-0.359c-0.437,-0.281 -0.507,-0.378 -0.702,-0.978c-0.369,-1.134 -0.88,-1.708 -1.248,-1.402c-0.199,0.165 -0.179,0.463 0.05,0.754c0.377,0.479 0.596,1.29 0.698,2.584c0.165,2.09 0.593,3.436 1.363,4.289Zm-6.059,-7.63c0.382,0.252 0.706,0.249 0.843,-0.007c0.094,-0.176 0.052,-0.255 -0.318,-0.597c-0.41,-0.379 -0.419,-0.4 -0.235,-0.538c0.465,-0.348 1.441,-0.078 2.358,0.651c0.6,0.478 0.989,0.507 1.039,0.076c0.026,-0.221 -0.063,-0.34 -0.531,-0.706c-1.441,-1.132 -2.737,-1.324 -3.478,-0.518c-0.176,0.193 -0.321,0.451 -0.321,0.575c0,0.336 0.307,0.843 0.643,1.064Zm27.672,3.64c0.276,0.151 0.499,0.14 0.642,-0.033c0.326,-0.393 -0.358,-1.078 -0.853,-0.853c-0.377,0.172 -0.269,0.624 0.211,0.886Z"/></svg>