<?xml version="1.0" encoding="UTF-8" standalone="no"?>
<svg xmlns="http://www.w3.org/2000/svg" version="1.1" width="600" height="579.64691">
  <path d="m 526.27403,579.6469 -1.65199,-0.058 c -4.98496,-0.39184 -18.17191,-2.99967 -32.82247,-18.56317 -4.927,-5.21682 -11.21616,-11.10023 -16.14315,-15.67944 -1.34768,-1.3042 -3.15908,-1.98528 -5.02844,-1.98528 l -126.69619,0 c -2.26062,0 -4.34735,1.01438 -5.70952,2.76781 -0.6237,0.68166 -1.07234,1.3042 -1.42013,1.81139 -5.37622,8.78164 -14.88242,20.95422 -24.56251,27.40278 -3.56483,2.37655 -7.81074,3.68075 -12.23054,3.68075 -4.36184,0 -8.60775,-1.3042 -12.23054,-3.68075 -9.68009,-6.44856 -19.24426,-18.62114 -24.44658,-27.11296 -0.1739,-0.33271 -0.73847,-1.18827 -1.52157,-2.10121 -1.36217,-1.75343 -3.52135,-2.76781 -5.72401,-2.76781 l -126.6817,0 c -1.86936,0 -3.68076,0.68166 -5.10089,1.98528 -4.927,4.57921 -11.1437,10.46262 -16.01273,15.67944 -14.723015,15.62147 -27.909968,18.17191 -32.836962,18.56317 l -1.695466,0.058 c -10.868368,0 -20.27313,-8.15852 -21.852666,-18.85299 -1.637501,-11.43353 -0.797593,-22.86705 2.550444,-33.96728 0.62254,-1.91283 0.390682,-4.07202 -0.62254,-5.82545 C 30.966833,481.03457 38.096482,454.6027 39.791948,449.6757 c 2.550444,-7.41947 8.999009,-12.95509 16.751778,-14.43319 2.217148,-0.39184 4.187945,-1.86936 5.274782,-3.85465 1.014381,-2.02876 1.072346,-4.46327 0.115929,-6.56449 C 39.226793,375.52445 9.3460252,262.65282 0.68031272,229.19274 -1.3049759,221.382 1.1289589,213.06408 7.0129487,207.57193 c 4.1444713,-3.79669 9.5206903,-5.94138 15.1142773,-5.94138 2.37655,0 4.709626,0.39068 6.970247,1.13031 9.390271,3.1156 19.012399,12.6218 47.835313,42.22724 l 1.13031,1.13031 c 7.071685,7.24558 16.925673,17.33142 26.823134,27.05499 1.42013,1.42013 3.28949,2.15918 5.21681,2.15918 1.13031,0 2.20266,-0.28982 3.21704,-0.79759 2.89823,-1.36217 4.53573,-4.36184 4.14447,-7.46295 -1.08626,-9.62213 -2.27511,-19.53408 -3.40542,-28.70698 l -0.56458,-4.4198 -0.68166,-5.70952 c -1.52157,-12.44791 -3.1156,-25.2436 -4.46328,-37.76396 -5.43418,-49.80611 -6.23119,-94.85912 -6.23119,-96.72848 -0.23186,-9.11494 5.20232,-17.33142 13.63617,-20.83828 2.60841,-1.01438 5.43419,-1.57954 8.39039,-1.57954 5.99933,0 11.82478,2.49248 15.8968,6.79635 14.31726,14.88242 33.34415,43.00976 53.38542,72.84705 4.7531,7.01373 9.44824,14.0999 14.14337,20.99769 l 8.33242,12.11461 c 1.40564,2.04325 3.66626,3.17356 6.10078,3.17356 0.46371,0 0.85555,0 1.36216,-0.11593 2.82578,-0.56573 5.15886,-2.70984 5.83994,-5.55011 l 0.66659,-2.65188 1.02946,-4.18795 6.50653,-26.50432 C 252.79806,86.32383 279.01256,15.17224 279.30238,14.49116 282.46146,5.76748 290.79387,0 300.01025,0 c 9.46272,0.058 17.78065,5.94138 20.83828,14.72302 6.50653,18.56317 27.62015,80.09263 41.66208,133.24619 3.275,12.23054 5.94138,22.57723 8.14403,31.41684 l 0.44981,1.86935 c 0.73847,2.76782 3.01416,4.927 5.8979,5.43419 0.44865,0.11593 0.89845,0.15882 1.34768,0.15882 2.39104,0 4.65166,-1.18827 6.0573,-3.21703 l 5.55012,-8.0426 2.49247,-3.62279 c 4.63718,-6.89779 9.44824,-13.98396 14.21583,-20.99769 20.20068,-30.05466 39.05367,-58.08056 53.25501,-72.84705 4.14447,-4.30387 9.96991,-6.79635 15.96925,-6.79635 2.88374,0 5.70952,0.56458 8.31793,1.57954 8.49182,3.50686 13.86804,11.72334 13.75211,20.83828 -0.058,1.86936 -0.78253,46.92237 -6.27468,96.72848 -1.59402,14.44769 -3.40542,29.21418 -5.21681,43.47348 -1.24624,10.30321 -2.65188,21.91063 -3.89812,33.12678 -0.34779,3.10111 1.3042,6.10078 4.12998,7.46295 1.01438,0.50777 2.14469,0.79759 3.23152,0.79759 1.91284,0 3.7822,-0.73963 5.20233,-2.15918 9.3468,-9.15841 18.62114,-18.6791 25.59139,-25.80875 l 2.31858,-2.37655 c 28.86639,-29.60544 38.43055,-39.11164 47.93675,-42.22724 2.21715,-0.73963 4.53573,-1.13031 6.91228,-1.13031 5.66605,0 11.04227,2.14469 15.05632,5.94138 5.94137,5.49215 8.37589,13.81007 6.34712,21.67877 -6.0573,23.6061 -37.59006,144.17253 -61.19616,195.57267 -0.95641,2.10122 -0.91352,4.53573 0.11593,6.56449 1.07235,1.98529 2.99967,3.46339 5.26029,3.85465 7.75277,1.4781 14.20134,7.01372 16.75178,14.49116 1.69547,4.86903 8.94105,31.18497 -14.04193,71.26751 -0.95642,1.75343 -1.23175,3.85465 -0.60863,5.82545 3.39093,11.21616 4.23142,22.64968 2.53595,33.90931 -1.57953,10.75244 -10.9698,18.91096 -21.83817,18.91096" style="fill:#ffffff"/>
  <path d="m 258.79624,153.62135 c -15.05632,60.51507 -17.20101,76.25247 -26.43188,78.68698 -8.65122,2.31859 -24.56251,-20.88175 -43.00975,-47.93675 -23.56263,-34.53243 -49.02359,-74.10778 -65.16674,-90.97549 0,0 0.73963,45.51673 6.11527,94.65625 6.85432,62.48587 18.11395,132.21732 9.85399,137.70947 -14.78099,9.85399 -105.118862,-97.75735 -118.030484,-102.06122 0,0 44.270488,172.14046 66.355013,204.12245 0,0 102.104701,-8.59326 138.955711,-22.128 0,0 11.49149,-21.73674 26.44636,-70.07924 14.94039,-48.3425 32.60511,-132.79697 46.12536,-132.79697 13.53474,0 31.19946,84.45447 46.13985,132.79697 14.94038,48.3425 26.43187,70.07924 26.43187,70.07924 36.85101,13.53474 138.9702,22.128 138.9702,22.128 22.07004,-31.98199 66.34052,-204.12245 66.34052,-204.12245 -12.85365,4.30387 -103.2495,111.91521 -118.03048,102.06122 -8.25996,-5.49215 2.99967,-75.2236 9.85399,-137.70947 5.43418,-49.13952 6.17323,-94.65625 6.17323,-94.65625 -16.18662,16.86771 -41.66208,56.44306 -65.21021,90.97549 -18.44724,27.055 -34.35853,50.25534 -43.02425,47.93675 -9.23086,-2.43451 -10.41914,-18.44724 -26.43187,-78.68698 C 325.25269,93.39609 300.00909,22.07061 300.00909,22.07061 c 0,0 -26.25798,71.49938 -41.21285,131.55074 m 260.7394,368.29278 c 0,0 9.8395,14.76649 6.73839,35.66274 0,0 -7.98463,-0.62254 -18.46174,-11.72335 -10.41914,-11.04226 -25.80875,-24.56251 -25.80875,-24.56251 l -150.01247,0 c 0,0 -9.21637,7.34701 -14.14337,15.38961 -4.92699,7.98462 -12.2885,16.59237 -17.83861,20.27313 l 0,0 c -5.55011,-3.68076 -12.89713,-12.2885 -17.82413,-20.27313 -4.92699,-8.0426 -14.15786,-15.38961 -14.15786,-15.38961 l -149.99797,0 c 0,0 -15.4041,13.52025 -25.823243,24.56251 -10.462617,11.10023 -18.447245,11.72335 -18.447245,11.72335 -3.057634,-20.89625 6.738389,-35.66274 6.738389,-35.66274 -28.243267,-40.58974 -19.867378,-64.99285 -19.867378,-64.99285 147.563457,-4.07201 187.703967,-6.50653 195.123437,-13.926 7.34702,-7.36151 8.202,-16.36052 19.63552,-54.10998 11.49149,-37.706 24.62048,-62.26851 24.62048,-62.26851 0,0 13.30288,24.50455 24.62048,62.26851 11.33208,37.74946 12.2885,46.74847 19.65001,54.10998 7.41947,7.41947 47.54549,9.85399 195.12344,13.926 0,0 8.37589,24.40311 -19.86738,64.99285"/>
</svg>
