<?xml version="1.0" encoding="UTF-8" standalone="no"?>
<svg xmlns="http://www.w3.org/2000/svg" xmlns:xlink="http://www.w3.org/1999/xlink" version="1.1" width="600" height="579.6817">
  <linearGradient x1="0" y1="0" x2="1" y2="0" id="linearGradient586" gradientUnits="userSpaceOnUse" gradientTransform="matrix(38.355469,0,0,-38.355469,214.05273,311.54102)" spreadMethod="pad">
    <stop style="stop-color:#bf331c" offset="0"/>
    <stop style="stop-color:#d3641c" offset="0.39999399"/>
    <stop style="stop-color:#f6b91d" offset="0.5"/>
    <stop style="stop-color:#d3641c" offset="0.69999701"/>
    <stop style="stop-color:#bf331c" offset="1"/>
  </linearGradient>
  <linearGradient x1="0" y1="0" x2="1" y2="0" id="linearGradient2997" xlink:href="#linearGradient586" gradientUnits="userSpaceOnUse" gradientTransform="matrix(38.355469,0,0,-38.355469,214.05273,311.54102)" spreadMethod="pad"/>
  <linearGradient x1="0" y1="0" x2="1" y2="0" id="linearGradient3000" xlink:href="#linearGradient586" gradientUnits="userSpaceOnUse" gradientTransform="matrix(555.84851,0,0,555.84851,22.076461,289.81186)" spreadMethod="pad"/>
  <path d="m 526.27251,579.68169 -1.65209,-0.11594 c -4.97077,-0.33389 -18.15851,-2.99985 -32.88241,-18.44835 -4.86932,-5.2751 -11.1009,-11.21683 -16.02818,-15.73834 -1.40573,-1.30428 -3.21723,-1.98541 -5.08671,-1.98541 l -126.6893,0 c -2.21728,0 -4.3621,0.95648 -5.78232,2.7245 -0.62258,0.78257 -1.13038,1.52167 -1.52166,2.14482 -5.21713,8.49233 -14.7239,20.7236 -24.34661,27.05662 -3.68098,2.43466 -7.92714,3.73894 -12.28924,3.73894 -4.34761,0 -8.59377,-1.30428 -12.21678,-3.73894 -9.68067,-6.33302 -19.20194,-18.56429 -24.40457,-27.05662 -0.3339,-0.5078 -0.84054,-1.30428 -1.57963,-2.14482 -1.36226,-1.76802 -3.4636,-2.7245 -5.72436,-2.7245 l -126.6893,0 c -1.86947,0 -3.68098,0.68055 -5.1012,1.98541 -4.91279,4.52151 -11.14436,10.46324 -16.07165,15.73834 -14.665938,15.50647 -27.853683,18.11504 -32.838941,18.44835 l -1.637599,0.11594 c -10.926988,0 -20.259854,-8.15901 -21.853977,-18.9121 -1.695568,-11.31827 -0.78257,-22.75248 2.550597,-33.91134 0.623736,-1.91295 0.390705,-4.07226 -0.622578,-5.88376 -22.984356,-40.02698 -15.738342,-66.34451 -14.086251,-71.21383 2.594073,-7.47788 9.057517,-13.07181 16.752784,-14.49203 2.260756,-0.3907 4.246164,-1.86947 5.260606,-3.85488 1.07241,-2.08685 1.130378,-4.46354 0.173904,-6.56488 C 38.239564,373.28623 6.7628799,252.81401 0.70521234,229.20649 -1.3236716,221.39529 1.0959174,213.07687 7.0527204,207.52642 c 4.0142916,-3.78242 9.3908346,-5.88376 15.0572176,-5.88376 2.376692,0 4.695417,0.33389 6.840237,1.13037 9.57923,3.17376 19.143968,12.68053 47.954119,42.22977 7.130078,7.24602 17.491877,17.94113 27.969616,28.187 1.40573,1.36225 3.2752,2.15931 5.20264,2.15931 1.07241,0 2.20279,-0.28984 3.23172,-0.79764 2.82594,-1.36225 4.52151,-4.3621 4.13023,-7.4634 -1.02952,-9.40532 -2.21728,-19.086 -3.34766,-28.02758 l -0.62258,-5.10119 -0.6817,-5.76783 c -1.52167,-12.44865 -3.1013,-25.18714 -4.46355,-37.70825 -5.43451,-49.86707 -6.23157,-94.86482 -6.23157,-96.73429 -0.1739,-9.17345 5.21713,-17.33246 13.65149,-20.78157 2.71001,-1.13037 5.53595,-1.69556 8.37639,-1.69556 5.94173,0 11.8255,2.49263 16.01369,6.79676 14.15871,14.82534 33.01284,42.85292 52.98286,72.5181 l 14.44855,21.33227 8.26045,12.11533 c 1.42022,2.04338 3.73895,3.23173 6.17361,3.23173 0.44867,0 0.8985,-0.058 1.30428,-0.17391 2.88391,-0.50664 5.20264,-2.65204 5.88376,-5.49248 l 0.44868,-1.98541 1.24631,-4.91279 1.69557,-6.97067 4.81135,-19.41931 C 252.44565,87.74923 278.21247,17.37595 279.28488,14.43406 282.45864,5.76783 290.77706,0 300.05196,0 c 9.34736,0 17.66578,5.94174 20.78157,14.7239 6.50692,18.56429 27.6218,80.09744 41.72254,133.2542 3.05782,11.60811 5.60842,21.6221 7.75324,30.1724 l 0.79648,3.11579 c 0.73967,2.76797 3.33317,4.46354 6.21708,4.97076 0.34781,0.058 0.73851,0.058 1.08632,0.058 2.53611,0 5.26061,-1.52166 6.68083,-3.62301 l 7.34746,-10.75308 c 4.7099,-6.84024 9.46329,-13.92684 14.15871,-20.94098 20.10044,-29.83909 39.05601,-57.96811 53.33066,-72.90939 4.18819,-4.30413 9.95602,-6.79676 15.95572,-6.79676 2.82595,0 5.72435,0.56577 8.37639,1.6376 8.43436,3.50707 13.86887,11.66608 13.70946,20.83953 -0.058,1.86947 -0.79764,46.86722 -6.28954,96.73429 -1.36225,12.52111 -2.94188,25.2596 -4.47804,37.70825 l -0.66663,5.76783 c -1.30428,10.30383 -2.7245,21.91194 -3.97081,33.12877 -0.3339,3.1013 1.30428,6.10115 4.13022,7.4634 1.08633,0.5078 2.15932,0.79764 3.28969,0.79764 1.86947,0 3.79691,-0.79764 5.20264,-2.15931 10.1879,-10.07196 20.37579,-20.49173 27.46239,-27.78122 29.25941,-29.95502 38.82415,-39.46179 48.28744,-42.63555 2.26076,-0.79764 4.57948,-1.13037 6.95617,-1.13037 5.66639,0 10.98496,2.10134 15.05722,5.88376 5.94173,5.55045 8.37639,13.86887 6.34751,21.68007 -6.05767,23.60752 -37.53435,144.07974 -61.19983,195.64238 -0.95648,2.10134 -0.89851,4.47803 0.1739,6.56488 1.01444,1.98541 2.94188,3.4636 5.20264,3.85488 7.75323,1.42022 14.21668,7.01415 16.76727,14.49203 1.69557,4.86932 8.94158,31.18685 -14.04277,71.27179 -0.97155,1.75354 -1.24632,3.85488 -0.62258,5.8258 3.39114,11.21683 4.24617,22.59307 2.5506,33.91134 -1.59413,10.75309 -10.98496,18.9121 -21.85398,18.9121" style="fill:#ffffff"/>
  <path d="m 354.06375,431.8775 c 10.47773,4.30413 64.25765,6.73879 137.79019,8.94158 -31.70855,-3.23172 -95.56043,-10.69512 -124.37058,-21.28879 -3.40562,-1.24631 -6.28954,-3.68097 -7.9851,-6.8982 -0.44868,-0.97155 -12.28924,-23.50607 -27.4624,-72.63405 -4.18819,-13.53555 -8.43436,-29.21592 -12.8979,-45.91074 -5.15916,-19.12948 -12.79646,-47.49037 -19.14397,-64.76487 -6.33302,17.2745 -13.91235,45.57743 -19.07151,64.64893 -4.52151,16.69482 -8.76768,32.49113 -12.95587,46.02668 -15.17315,49.12798 -27.01314,71.66308 -27.46239,72.63405 -1.69557,3.21723 -4.57948,5.65189 -7.98511,6.8982 -28.81015,10.59367 -92.66203,18.05707 -124.37058,21.28879 73.47458,-2.20279 127.25449,-4.63745 137.7902,-8.94158 2.31872,-2.89841 3.95632,-8.31842 8.31842,-23.49158 1.8115,-6.28954 4.07226,-14.10074 7.02863,-23.78141 11.76753,-38.60677 25.12918,-63.85188 25.69437,-64.92429 2.5506,-4.81135 7.53585,-7.82569 12.97036,-7.82569 l 0.0464,0 c 5.39103,0 10.3618,2.95637 12.97036,7.70976 0.56577,1.07241 14.15871,26.31752 25.75234,65.09818 2.66653,8.82565 4.75338,16.12963 6.52141,22.1873 4.63745,16.24556 6.33301,21.96991 8.82564,25.02773 m 172.20817,140.50021 c -0.34781,0 -0.73852,-0.058 -1.13038,-0.11594 -3.17375,-0.15999 -14.7239,-2.08685 -28.02758,-16.24556 -6.68083,-7.01414 -15.62241,-15.28909 -20.7236,-19.98451 l -138.80464,0 c -2.49263,2.3767 -5.43451,5.49248 -7.18805,8.37639 -4.81135,7.86918 -13.52106,19.086 -22.18729,24.85383 -2.49263,1.6376 -5.37654,2.43466 -8.21698,2.43466 -2.88391,0 -5.70986,-0.79648 -8.20249,-2.43466 -8.66623,-5.76783 -17.37594,-16.98465 -22.18729,-24.85383 -1.75354,-2.88391 -4.69542,-5.99969 -7.18805,-8.37639 l -138.80464,0 c -5.10119,4.69542 -14.04277,12.97037 -20.7236,19.98451 -13.303683,14.15871 -24.795861,16.08615 -28.027583,16.24556 -0.390705,0.058 -0.782569,0.11594 -1.130378,0.11594 -7.303982,0 -13.521062,-5.37654 -14.607964,-12.68053 -2.318724,-15.68037 1.086323,-28.5348 4.362101,-36.67932 -25.810302,-41.27329 -17.883163,-67.82269 -16.810753,-70.88051 1.985408,-5.76782 7.361951,-9.73864 13.535554,-9.89805 7.753235,-0.23187 15.332566,-0.46375 22.810452,-0.68055 -2.666533,-1.08632 -4.985258,-2.84043 -6.680825,-5.27509 C 53.414456,403.05344 12.373034,245.29322 7.7790609,227.39557 c -1.3477586,-5.26061 0.2898405,-10.81105 4.2461641,-14.49203 2.78247,-2.5361 6.347508,-3.95632 10.028483,-3.95632 1.579632,0 3.173755,0.27593 4.695417,0.79764 7.419919,2.47814 15.622406,10.34731 44.896302,40.3603 14.318123,14.60796 40.418263,41.4327 56.547893,54.46104 -0.85445,-17.89766 -4.536,-47.89615 -7.41992,-71.50367 -1.75353,-14.26015 -3.56504,-28.98405 -5.14467,-43.36014 -5.43451,-49.31637 -6.23157,-94.19818 -6.23157,-96.12562 -0.11594,-6.05767 3.50707,-11.55015 9.11549,-13.86887 1.86947,-0.73968 3.73894,-1.07241 5.60841,-1.07241 3.95632,0 7.86917,1.57963 10.69512,4.52151 13.8109,14.43406 32.60706,42.3457 52.5336,71.95292 4.75338,7.01414 9.4488,14.10074 14.15871,20.94098 8.08655,11.89795 19.36135,28.41886 26.94068,37.02713 2.5506,-7.81121 5.72435,-21.05692 9.56474,-36.62136 1.86947,-7.65179 3.97081,-16.41947 6.44895,-26.38998 15.01374,-60.1709 40.59217,-130.13841 41.66458,-133.08029 2.15931,-5.84029 7.70976,-9.68067 13.86887,-9.68067 l 0.11594,0 c 6.23157,0.058 11.72405,3.95632 13.8109,9.85457 0.28984,0.66664 25.59292,72.56159 41.56313,132.68901 3.89836,14.76738 6.95618,26.94068 9.4488,36.79526 2.60857,10.3618 4.92729,19.8106 6.85473,26.15811 7.57933,-8.66624 18.68023,-24.96977 26.70881,-36.75178 4.65194,-6.78227 9.40533,-13.81091 14.10074,-20.82505 19.92654,-29.66518 38.78067,-57.63479 52.59157,-72.06885 2.88392,-2.94188 6.73879,-4.52151 10.69512,-4.52151 1.86947,0 3.79691,0.33389 5.60841,1.07241 5.60842,2.31872 9.23142,7.8112 9.11549,13.86887 0,1.92744 -0.79648,46.80925 -6.23157,96.12562 -1.57963,14.37609 -3.39114,29.14346 -5.14467,43.36014 -2.89841,23.60752 -6.56489,53.60601 -7.41992,71.50367 16.12963,-13.0863 42.28774,-39.85308 56.54789,-54.46104 29.2739,-30.01299 37.47638,-37.88216 44.8963,-40.3603 1.52167,-0.52171 3.11579,-0.79764 4.63745,-0.79764 3.73894,0 7.30398,1.42022 10.08645,3.95632 3.95633,3.68098 5.59392,9.23142 4.24617,14.49203 -4.59398,17.89765 -45.57743,175.65787 -68.56179,208.88809 -1.69556,2.43466 -4.01429,4.18819 -6.68082,5.27509 7.47789,0.21796 15.05722,0.44868 22.81045,0.68055 6.1736,0.15999 11.55015,4.13023 13.53555,9.89805 1.07241,3.05782 8.99955,29.60722 -16.81075,70.82254 3.2752,8.20249 6.68083,21.05692 4.3621,36.73729 -1.08632,7.30399 -7.30398,12.68053 -14.60796,12.68053"/>
  <path d="m 258.79316,153.63057 c -15.05722,60.46074 -17.21653,76.25705 -26.44795,78.69171 l 0,0 c -8.65175,2.31872 -24.56399,-20.88301 -43.01234,-47.93963 l 0,0 c -23.54955,-34.5345 -49.02653,-74.1702 -65.15616,-91.03892 l 0,0 c 0,0 0.68113,45.57743 6.11564,94.7199 l 0,0 c 6.84023,62.43165 18.11503,132.22526 9.84008,137.71774 l 0,0 C 125.36506,335.63594 34.949294,228.01815 22.05139,223.71401 l 0,0 c 0,0 44.258652,172.1508 66.460439,204.13471 l 0,0 c 0,0 102.067351,-8.59378 138.920581,-22.12933 l 0,0 c 0,0 11.49218,-21.73804 26.43346,-70.08345 l 0,0 C 268.80715,287.23257 286.47293,202.831 299.99399,202.831 l 0,0 c 13.53555,0 31.20134,84.40157 46.14262,132.80494 l 0,0 c 14.94128,48.34541 26.43345,70.08345 26.43345,70.08345 l 0,0 c 36.85323,13.53555 138.97855,22.12933 138.97855,22.12933 l 0,0 c 22.08585,-31.98391 66.40247,-204.13471 66.40247,-204.13471 l 0,0 c -12.8979,4.30414 -103.31366,111.92193 -118.08104,102.06736 l 0,0 c -8.27495,-5.49248 2.99985,-75.28609 9.84009,-137.71774 l 0,0 c 5.43451,-49.14247 6.1736,-94.7199 6.1736,-94.7199 l 0,0 c -16.1876,16.86872 -41.66458,56.50442 -65.21412,91.03892 l 0,0 c -18.44836,27.05662 -34.3606,50.25835 -43.02683,47.93963 l 0,0 c -9.21693,-2.43466 -10.46325,-18.44835 -26.43346,-78.69171 l 0,0 C 325.25359,93.34373 299.99399,22.07194 299.99399,22.07194 l 0,0 c 0,0 -26.20159,71.50367 -41.20083,131.55863 m 16.57888,235.27807 c -11.49218,37.69376 -12.27475,46.75128 -19.6367,54.11323 l 0,0 c -7.41992,7.36195 -47.54835,9.85458 -195.135157,13.92684 l 0,0 c 0,0 -8.376392,24.40457 19.86857,64.99674 l 0,0 c 0,0 -9.854579,14.70941 -6.738793,35.66488 l 0,0 c 0,0 7.985108,-0.62316 18.462844,-11.66608 l 0,0 c 10.405276,-11.10089 25.810306,-24.62196 25.810306,-24.62196 l 0,0 150.00698,0 c 0,0 9.23142,7.34746 14.15871,15.33257 l 0,0 c 4.92729,8.04307 12.28924,16.65134 17.82519,20.33231 l 0,0 0,0 c 5.55045,-3.68097 12.9124,-12.28924 17.83969,-20.33231 l 0,0 c 4.92729,-7.98511 14.15871,-15.33257 14.15871,-15.33257 l 0,0 150.00698,0 c 0,0 15.40502,13.52107 25.8103,24.62196 l 0,0 c 10.47773,11.04292 18.46284,11.66608 18.46284,11.66608 l 0,0 c 3.11579,-20.95547 -6.73879,-35.66488 -6.73879,-35.66488 l 0,0 c 28.24496,-40.59217 19.86857,-64.99674 19.86857,-64.99674 l 0,0 C 391.81548,452.87645 351.68705,450.38382 344.26713,443.02187 l 0,0 c -7.36195,-7.36195 -8.31842,-16.3615 -19.63669,-54.11323 l 0,0 C 313.29767,351.14241 299.99399,326.6364 299.99399,326.6364 l 0,0 c 0,0 -13.12978,24.56398 -24.62195,62.27224" style="fill:url(#linearGradient3000)"/>
</svg>
