<?xml version="1.0" encoding="UTF-8" standalone="no"?>
<svg xmlns="http://www.w3.org/2000/svg" xmlns:xlink="http://www.w3.org/1999/xlink" version="1.1" width="600" height="579.67047">
  <linearGradient x1="0" y1="0" x2="1" y2="0" id="linearGradient566" gradientUnits="userSpaceOnUse" gradientTransform="matrix(38.354492,0,0,-38.354492,147.73047,311.54004)" spreadMethod="pad">
    <stop style="stop-color:#8b723c" offset="0"/>
    <stop style="stop-color:#d2bb7b" offset="0.39999399"/>
    <stop style="stop-color:#ebd491" offset="0.5"/>
    <stop style="stop-color:#d2bb7b" offset="0.69999701"/>
    <stop style="stop-color:#8b723c" offset="1"/>
  </linearGradient>
  <linearGradient x1="0" y1="0" x2="1" y2="0" id="linearGradient5552" xlink:href="#linearGradient566" gradientUnits="userSpaceOnUse" gradientTransform="matrix(38.354492,0,0,-38.354492,147.73047,311.54004)" spreadMethod="pad"/>
  <linearGradient x1="0" y1="0" x2="1" y2="0" id="linearGradient2996" xlink:href="#linearGradient566" gradientUnits="userSpaceOnUse" gradientTransform="matrix(38.354492,0,0,-38.354492,147.73047,311.54004)" spreadMethod="pad"/>
  <linearGradient x1="0" y1="0" x2="1" y2="0" id="linearGradient2999" xlink:href="#linearGradient566" gradientUnits="userSpaceOnUse" gradientTransform="matrix(555.82304,0,0,555.82304,22.083414,289.82016)" spreadMethod="pad"/>
  <path d="m 526.28757,579.66988 -1.69553,-0.058 c -4.98516,-0.39069 -18.17264,-2.99978 -32.82378,-18.56391 -4.86922,-5.21702 -11.15863,-11.10066 -16.08582,-15.68005 -1.4057,-1.30426 -3.21716,-1.98537 -5.0866,-1.98537 l -126.64325,0 c -2.26071,0 -4.34752,1.01442 -5.76771,2.76792 -0.62372,0.68169 -1.07239,1.30426 -1.42019,1.81147 -5.31846,8.78199 -14.88301,20.95505 -24.50552,27.40387 -3.62293,2.37664 -7.86901,3.6809 -12.28899,3.6809 -4.36201,0 -8.55012,-1.30426 -12.23102,-3.6809 -9.66599,-6.44882 -19.18705,-18.62188 -24.38959,-27.11404 -0.1739,-0.33273 -0.79762,-1.18832 -1.53612,-2.1013 -1.4057,-1.7535 -3.507,-2.76792 -5.76771,-2.76792 l -126.68673,0 c -1.86943,0 -3.6809,0.68053 -5.04312,1.98537 -4.92719,4.57939 -11.20211,10.46303 -16.07133,15.68005 -14.7236,15.62209 -27.853109,18.17264 -32.838265,18.56391 l -1.695533,0.058 c -10.868799,0 -20.259442,-8.15884 -21.853533,-18.85374 -1.637566,-11.43398 -0.797625,-22.86796 2.550545,-33.96862 0.623724,-1.91291 0.390697,-4.07218 -0.622565,-5.82568 -22.867954,-39.9682 -15.738021,-66.40112 -14.042489,-71.32831 2.550545,-7.41977 8.999366,-12.95561 16.752443,-14.43376 2.275202,-0.3907 4.202603,-1.86944 5.274991,-3.85481 1.014421,-2.02884 1.072388,-4.46345 0.115934,-6.56475 C 39.23551,375.53934 9.2955905,262.66323 0.68750129,229.20182 -1.2978661,221.39078 1.0781984,213.07252 7.0203885,207.58015 c 4.0866685,-3.79683 9.4631015,-5.94161 15.0569095,-5.94161 2.391136,0 4.76778,0.3907 7.028491,1.13036 9.390642,3.11572 18.955186,12.6223 47.779242,42.22891 l 1.130355,1.13035 c 7.129933,7.24587 16.984311,17.33212 26.824194,27.05607 1.42019,1.42019 3.34759,2.15927 5.21703,2.15927 1.13035,0 2.20274,-0.28984 3.27513,-0.79763 2.84038,-1.36222 4.47794,-4.36201 4.13014,-7.46324 -1.07239,-9.62251 -2.31868,-19.53486 -3.39106,-28.70812 l -0.5646,-4.41998 -0.73966,-5.70974 c -1.52163,-12.4484 -3.05776,-25.2446 -4.46345,-37.76546 -5.4344,-49.80808 -6.17348,-94.86288 -6.23145,-96.73231 -0.1739,-9.1153 5.20253,-17.33212 13.63672,-20.83912 2.66648,-1.01442 5.49237,-1.5796 8.43419,-1.5796 6.01407,0 11.78178,2.49258 15.91192,6.79663 14.31783,14.88301 33.28751,43.01146 53.32958,72.84994 4.75329,7.014 9.50657,14.10045 14.2019,20.99852 l 8.31825,12.11509 c 1.42019,2.04333 3.6809,3.17369 6.05755,3.17369 0.46373,0 0.91355,0 1.36222,-0.11594 2.88385,-0.5646 5.15905,-2.70995 5.88364,-5.55033 l 0.62373,-2.65199 1.02949,-4.18811 6.50679,-26.50538 C 252.81582,86.32725 279.03137,15.17284 279.30671,14.49173 282.42243,5.76771 290.79865,0 300.02989,0 c 9.40513,0.058 17.72339,5.94161 20.83911,14.7236 6.44882,18.56391 27.56327,80.0958 41.66373,133.25148 3.27513,12.23102 5.88364,22.57812 8.08639,31.41807 l 0.50663,1.86944 c 0.68053,2.76792 2.99979,4.92719 5.84017,5.4344 0.44866,0.11593 0.89848,0.15999 1.34773,0.15999 2.39113,0 4.65184,-1.18833 6.11551,-3.21717 l 5.49237,-8.04291 2.49257,-3.62293 c 4.69532,-6.89807 9.4631,-13.98452 14.21639,-20.99852 20.20148,-30.05586 39.11319,-58.08287 53.25712,-72.84994 4.14464,-4.30405 9.97031,-6.79663 15.96989,-6.79663 2.94182,0 5.76771,0.56576 8.37622,1.5796 8.49216,3.507 13.86859,11.72381 13.69469,20.83911 0,1.86944 -0.78256,46.92423 -6.27492,96.73232 -1.59409,14.44826 -3.40556,29.21533 -5.15906,43.4752 -1.24629,10.30362 -2.65199,21.9115 -3.95624,33.1281 -0.3478,3.10123 1.30425,6.10102 4.18811,7.46324 1.01442,0.50663 2.14478,0.79763 3.23166,0.79763 1.86943,0 3.78234,-0.73966 5.20253,-2.15927 9.34717,-9.15878 18.56391,-18.67985 25.53443,-25.80978 l 2.31868,-2.37664 c 28.86753,-29.60661 38.49004,-39.11319 47.93865,-42.22891 2.21723,-0.73966 4.53591,-1.13036 6.97052,-1.13036 5.6083,0 10.98474,2.14478 15.05691,5.94161 5.94161,5.49237 8.31826,13.81063 6.33289,21.67964 -6.10102,23.60703 -37.63503,144.17824 -61.24206,195.58042 -0.95646,2.1013 -0.91356,4.53591 0.1739,6.56475 1.07239,1.98537 2.99979,3.46353 5.20253,3.85481 7.81104,1.47815 14.21639,7.01399 16.81041,14.49173 1.63757,4.86922 8.88343,31.18621 -14.04249,71.27034 -1.01442,1.7535 -1.24629,3.8548 -0.66662,5.82567 3.39107,11.21661 4.24608,22.65058 2.53606,33.91066 -1.5796,10.75287 -10.92677,18.91171 -21.79557,18.91171"/>
  <path d="m 258.75558,153.62743 c -15.05691,60.51748 -17.20169,76.2555 -26.43292,78.69011 l 0,0 c -8.5936,2.31868 -24.56349,-20.88258 -43.01146,-47.93865 l 0,0 c -23.54907,-34.5338 -48.96757,-74.16869 -65.16933,-90.9791 l 0,0 c 0,0 0.73908,45.51854 6.11552,94.66 l 0,0 c 6.91255,62.43038 18.11466,132.22257 9.85437,137.71494 l 0,0 C 125.38816,335.6291 34.988737,228.0135 22.076603,223.70945 l 0,0 c 0,0 44.272243,172.14729 66.401119,204.13055 l 0,0 c 0,0 102.065268,-8.5936 138.975718,-22.12888 l 0,0 c 0,0 11.43397,-21.7376 26.44741,-70.08202 l 0,0 c 14.94097,-48.40238 32.54843,-132.80223 46.06922,-132.80223 l 0,0 c 13.53527,0 31.2007,84.39985 46.14167,132.80223 l 0,0 c 14.94098,48.34442 26.43292,70.08202 26.43292,70.08202 l 0,0 C 409.45511,419.2464 511.52038,427.84 511.52038,427.84 l 0,0 C 533.64925,395.85674 577.9215,223.70945 577.9215,223.70945 l 0,0 C 565.00936,228.0135 474.60994,335.6291 459.88634,325.77473 l 0,0 c -8.26029,-5.49237 2.95631,-75.28456 9.79641,-137.71494 l 0,0 c 5.4344,-49.14146 6.17347,-94.66 6.17347,-94.66 l 0,0 c -16.18726,16.81041 -41.60576,56.4453 -65.15483,90.9791 l 0,0 c -18.46246,27.05607 -34.41786,50.25733 -43.08392,47.93865 l 0,0 c -9.21674,-2.43461 -10.41955,-18.44797 -26.43292,-78.69011 l 0,0 C 325.21466,93.39979 300.02803,22.07149 300.02803,22.07149 l 0,0 c 0,0 -26.25902,71.5022 -41.27245,131.55594 m 16.651,235.27328 c -11.49194,37.75097 -12.28899,46.75033 -19.69427,54.11213 l 0,0 c -7.3618,7.3618 -47.56186,9.85438 -195.073207,13.92656 l 0,0 c 0,0 -8.434188,24.40407 19.868166,64.99542 l 0,0 c 0,0 -9.854379,14.70911 -6.796623,35.66415 l 0,0 c 0,0 7.984945,-0.62314 18.447976,-11.66584 l 0,0 c 10.477518,-11.10067 25.824268,-24.62146 25.824268,-24.62146 l 0,0 150.00392,0 c 0,0 9.23124,7.34731 14.15842,15.33226 l 0,0 c 4.92719,8.04291 12.2745,16.651 17.82484,20.3319 l 0,0 0.058,0 c 5.49237,-3.6809 12.91214,-12.28899 17.83933,-20.3319 l 0,0 c 4.86922,-7.98495 14.08596,-15.33226 14.08596,-15.33226 l 0,0 150.01842,0 c 0,0 15.39022,13.52079 25.80977,24.62146 l 0,0 c 10.53549,11.0427 18.50594,11.66584 18.50594,11.66584 l 0,0 c 3.05776,-20.95504 -6.78213,-35.66415 -6.78213,-35.66415 l 0,0 c 28.30236,-40.59134 19.86817,-64.99542 19.86817,-64.99542 l 0,0 C 391.84765,452.86722 351.66208,450.37464 344.30028,443.01284 l 0,0 c -7.41977,-7.3618 -8.37623,-16.36116 -19.70876,-54.11213 l 0,0 c -11.31804,-37.76545 -24.62145,-62.27097 -24.62145,-62.27097 l 0,0 c 0,0 -13.07155,24.56348 -24.56349,62.27097" style="fill:url(#linearGradient2999)"/>
</svg>
