<?xml version="1.0" encoding="UTF-8" standalone="no"?>
<svg xmlns="http://www.w3.org/2000/svg" xmlns:xlink="http://www.w3.org/1999/xlink" version="1.1" width="600" height="579.64801">
  <linearGradient x1="0" y1="0" x2="1" y2="0" id="linearGradient548" gradientUnits="userSpaceOnUse" gradientTransform="matrix(38.354492,0,0,-38.354492,80.396973,311.54004)" spreadMethod="pad">
    <stop style="stop-color:#536e78" offset="0"/>
    <stop style="stop-color:#99aebc" offset="0.39999399"/>
    <stop style="stop-color:#d9eaf3" offset="0.5"/>
    <stop style="stop-color:#99aebc" offset="0.69999701"/>
    <stop style="stop-color:#536e78" offset="1"/>
  </linearGradient>
  <linearGradient x1="0" y1="0" x2="1" y2="0" id="linearGradient2995" xlink:href="#linearGradient548" gradientUnits="userSpaceOnUse" gradientTransform="matrix(38.354492,0,0,-38.354492,80.396973,311.54004)" spreadMethod="pad"/>
  <linearGradient x1="0" y1="0" x2="1" y2="0" id="linearGradient2998" xlink:href="#linearGradient548" gradientUnits="userSpaceOnUse" gradientTransform="matrix(555.80208,0,0,555.80208,22.113012,289.80923)" spreadMethod="pad"/>
  <path d="m 526.27621,579.64802 -1.652,-0.058 c -4.98497,-0.39184 -18.17195,-2.99968 -32.82254,-18.56321 -4.927,-5.21683 -11.21617,-11.10025 -16.14318,-15.67946 -1.34768,-1.30421 -3.15907,-1.9853 -5.02844,-1.9853 l -126.69644,0 c -2.26062,0 -4.34735,1.01439 -5.70952,2.76782 -0.62371,0.68167 -1.07235,1.30421 -1.42014,1.8114 -5.37623,8.78166 -14.88245,20.95425 -24.56256,27.40283 -3.56483,2.37656 -7.81075,3.68076 -12.23056,3.68076 -4.36185,0 -8.60777,-1.3042 -12.23056,-3.68076 -9.68012,-6.44858 -19.2443,-18.62117 -24.44663,-27.11301 -0.1739,-0.33271 -0.73847,-1.18827 -1.52158,-2.10122 -1.36217,-1.75343 -3.52136,-2.76782 -5.72402,-2.76782 l -126.68194,0 c -1.86937,0 -3.68077,0.68167 -5.1009,1.9853 -4.92701,4.57921 -11.14372,10.46263 -16.01276,15.67946 -14.723045,15.6215 -27.910024,18.17195 -32.837027,18.56321 l -1.695469,0.058 c -10.868389,0 -20.273169,-8.15853 -21.852708,-18.85303 -1.637504,-11.43354 -0.797595,-22.86709 2.550448,-33.96734 0.622542,-1.91283 0.390683,-4.07202 -0.6237,-5.82545 -22.867092,-39.9667 -15.737428,-66.39862 -14.041959,-71.32563 2.550448,-7.41948 8.999026,-12.95512 16.751811,-14.43322 2.217151,-0.39068 4.187952,-1.86936 5.274791,-3.85465 1.014383,-2.02877 1.072348,-4.46329 0.11593,-6.56451 C 39.226868,375.52517 9.3460433,262.65333 0.68031406,229.19318 -1.3049784,221.38243 1.1289612,213.06449 7.0129624,207.57233 c 4.1444786,-3.79669 9.5207086,-5.94139 15.1143066,-5.94139 2.376554,0 4.709635,0.39068 6.97026,1.13031 9.390289,3.11561 19.012436,12.62183 47.835405,42.22732 l 1.130313,1.13031 c 7.071699,7.2456 16.925705,17.33146 26.823183,27.05505 1.42014,1.42013 3.2895,2.15918 5.21683,2.15918 1.13031,0 2.20266,-0.28982 3.21704,-0.79759 2.89824,-1.36217 4.53574,-4.36185 4.14448,-7.46296 -1.08626,-9.62215 -2.27512,-19.53412 -3.40543,-28.70704 l -0.56458,-4.41981 -0.68166,-5.70953 c -1.52158,-12.44793 -3.11561,-25.24365 -4.46329,-37.76403 -5.43419,-49.80621 -6.23121,-94.8593 -6.23121,-96.72867 -0.23186,-9.11495 5.20234,-17.33146 13.63621,-20.83832 2.60841,-1.01439 5.43419,-1.57954 8.3904,-1.57954 5.99935,0 11.8248,2.49248 15.89683,6.79636 14.31729,14.88245 33.34422,43.00984 53.38553,72.8472 4.7531,7.01373 9.44825,14.09992 14.14339,20.99772 l 8.33243,12.11464 c 1.40565,2.04325 3.66628,3.17357 6.10079,3.17357 0.46372,0 0.85556,0 1.36218,-0.11593 2.82578,-0.56574 5.15886,-2.70986 5.83994,-5.55013 l 0.6666,-2.65188 1.02945,-4.18796 6.50654,-26.50438 C 252.79854,86.324 279.0131,15.17227 279.30292,14.49119 282.462,5.76749 290.79443,0 300.01083,0 c 9.46274,0.058 17.78068,5.94139 20.83832,14.72305 6.50655,18.5632 27.6202,80.09278 41.66216,133.24645 3.27501,12.23056 5.94139,22.57727 8.14405,31.41689 l 0.44865,1.86937 c 0.73847,2.76781 3.01416,4.927 5.89791,5.43419 0.44865,0.11593 0.89845,0.15882 1.34768,0.15882 2.39105,0 4.65167,-1.18827 6.05732,-3.21704 l 5.55012,-8.04261 2.49248,-3.62279 c 4.63718,-6.89781 9.44826,-13.984 14.21586,-20.99773 20.20071,-30.05472 39.05374,-58.08068 53.25511,-72.8472 4.14448,-4.30388 9.96993,-6.79636 15.96928,-6.79636 2.88375,0 5.70953,0.56458 8.31794,1.57954 8.49184,3.50686 13.86807,11.72337 13.75214,20.83832 -0.058,1.86937 -0.78252,46.92246 -6.27468,96.72867 -1.59403,14.44771 -3.40543,29.21423 -5.21683,43.47356 -1.24624,10.30323 -2.65189,21.91067 -3.89813,33.12685 -0.34779,3.10111 1.30421,6.10079 4.12999,7.46296 1.01438,0.50777 2.14469,0.79759 3.23153,0.79759 1.91284,0 3.7822,-0.73963 5.20234,-2.15918 9.34681,-9.15843 18.62117,-18.67914 25.59143,-25.8088 l 2.31859,-2.37656 c 28.86644,-29.60549 38.43063,-39.11171 47.93685,-42.22731 2.21715,-0.73964 4.53574,-1.13032 6.91229,-1.13032 5.66605,0 11.04228,2.1447 15.05634,5.94139 5.94139,5.49216 8.37591,13.8101 6.34714,21.67881 -6.05731,23.60615 -37.59013,144.17281 -61.19628,195.57305 -0.95641,2.10122 -0.91352,4.53574 0.11593,6.56451 1.07235,1.98529 2.99968,3.46339 5.2603,3.85465 7.75279,1.4781 14.20137,7.01374 16.75182,14.49119 1.69546,4.86904 8.94106,31.18503 -14.04196,71.26765 -0.95642,1.75343 -1.23175,3.85466 -0.60863,5.82546 3.39093,11.21618 4.23142,22.64972 2.53595,33.90937 -1.57954,10.75246 -10.96982,18.911 -21.83821,18.911"/>
  <path d="m 258.79794,153.62164 c -15.05634,60.5152 -17.20104,76.25262 -26.43192,78.68714 l 0,0 c -8.65124,2.31859 -24.56256,-20.8818 -43.00984,-47.93684 l 0,0 C 165.79351,149.83944 140.3325,110.20605 124.14584,93.39627 l 0,0 c 0,0 0.72456,45.51682 6.15876,94.65643 l 0,0 c 6.91229,62.42803 18.11398,132.21758 9.854,137.70974 l 0,0 C 125.37759,335.61645 35.039542,228.0049 22.127895,223.70102 l 0,0 c 0,0 44.270573,172.1408 66.398614,204.12284 l 0,0 c 0,0 102.017951,-8.59327 138.912511,-22.12804 l 0,0 c 0,0 11.49151,-21.73678 26.44641,-70.07937 l 0,0 c 14.99838,-48.40056 32.60517,-132.79723 46.12544,-132.79723 l 0,0 c 13.53477,0 31.19953,84.39667 46.13994,132.79723 l 0,0 c 14.94041,48.34259 26.43192,70.07937 26.43192,70.07937 l 0,0 c 36.90905,13.53477 138.97048,22.12804 138.97048,22.12804 l 0,0 c 22.07007,-31.98204 66.34065,-204.12284 66.34065,-204.12284 l 0,0 c -12.91165,4.30388 -103.2497,111.91543 -118.03071,102.06142 l 0,0 c -8.25998,-5.49216 2.99967,-75.28171 9.854,-137.70974 l 0,0 c 5.4342,-49.13961 6.17325,-94.65643 6.17325,-94.65643 l 0,0 c -16.18666,16.80978 -41.66216,56.44317 -65.21034,90.97567 l 0,0 c -18.44728,27.05504 -34.3586,50.25543 -43.02433,47.93684 l 0,0 c -9.23088,-2.43452 -10.46264,-18.44728 -26.43192,-78.68714 l 0,0 C 325.25452,93.39627 300.01087,22.07066 300.01087,22.07066 l 0,0 c 0,0 -26.25802,71.49951 -41.21293,131.55098 m 16.65037,235.26441 c -11.49151,37.74954 -12.34649,46.74856 -19.69352,54.11009 l 0,0 c -7.41948,7.36152 -47.56007,9.854 -195.123814,13.92603 l 0,0 c 0,0 -8.375905,24.40315 19.867416,64.99296 l 0,0 c 0,0 -9.854006,14.70856 -6.738401,35.66281 l 0,0 c 0,0 7.984643,-0.62312 18.447279,-11.6654 l 0,0 c 10.41916,-11.10025 25.82329,-24.62053 25.82329,-24.62053 l 0,0 149.99827,0 c 0,0 9.23088,7.34704 14.15789,15.33168 l 0,0 c 4.927,8.04261 12.27403,16.65037 17.82415,20.33113 l 0,0 0,0 c 5.55013,-3.68076 12.91165,-12.28852 17.83865,-20.33113 l 0,0 c 4.92701,-7.98464 14.1434,-15.33168 14.1434,-15.33168 l 0,0 150.01276,0 c 0,0 15.38964,13.52028 25.8088,24.62053 l 0,0 c 10.47713,11.04228 18.46177,11.6654 18.46177,11.6654 l 0,0 c 3.10112,-20.95425 -6.7384,-35.66281 -6.7384,-35.66281 l 0,0 c 28.24332,-40.58981 19.86742,-64.99296 19.86742,-64.99296 l 0,0 C 391.82703,452.85014 351.70093,450.35766 344.28145,442.99614 l 0,0 c -7.36152,-7.36153 -8.31794,-16.36055 -19.65005,-54.11009 l 0,0 c -11.37558,-37.76403 -24.62053,-62.26863 -24.62053,-62.26863 l 0,0 c 0,0 -13.12901,24.56256 -24.56256,62.26863" style="fill:url(#linearGradient2998)"/>
</svg>
