<?xml version="1.0" encoding="UTF-8" standalone="no"?>
<svg xmlns="http://www.w3.org/2000/svg" version="1.1" width="600" height="579.64691">
  <path d="m 258.79624,153.62135 c -15.05632,60.51507 -17.20101,76.25247 -26.43188,78.68698 -8.65122,2.31859 -24.56251,-20.88175 -43.00975,-47.93675 -23.56263,-34.53243 -49.02359,-74.10778 -65.16674,-90.97549 0,0 0.73963,45.51673 6.11527,94.65625 6.85432,62.48587 18.11395,132.21732 9.85399,137.70947 -14.78099,9.85399 -105.118862,-97.75735 -118.030484,-102.06122 0,0 44.270488,172.14046 66.355013,204.12245 0,0 102.104701,-8.59326 138.955711,-22.128 0,0 11.49149,-21.73674 26.44636,-70.07924 14.94039,-48.3425 32.60511,-132.79697 46.12536,-132.79697 13.53474,0 31.19946,84.45447 46.13985,132.79697 14.94038,48.3425 26.43187,70.07924 26.43187,70.07924 36.85101,13.53474 138.9702,22.128 138.9702,22.128 22.07004,-31.98199 66.34052,-204.12245 66.34052,-204.12245 -12.85365,4.30387 -103.2495,111.91521 -118.03048,102.06122 -8.25996,-5.49215 2.99967,-75.2236 9.85399,-137.70947 5.43418,-49.13952 6.17323,-94.65625 6.17323,-94.65625 -16.18662,16.86771 -41.66208,56.44306 -65.21021,90.97549 -18.44724,27.055 -34.35853,50.25534 -43.02425,47.93675 -9.23086,-2.43451 -10.41914,-18.44724 -26.43187,-78.68698 C 325.25269,93.39609 300.00909,22.07061 300.00909,22.07061 c 0,0 -26.25798,71.49938 -41.21285,131.55074 m 260.7394,368.29278 c 0,0 9.8395,14.76649 6.73839,35.66274 0,0 -7.98463,-0.62254 -18.46174,-11.72335 -10.41914,-11.04226 -25.80875,-24.56251 -25.80875,-24.56251 l -150.01247,0 c 0,0 -9.21637,7.34701 -14.14337,15.38961 -4.92699,7.98462 -12.2885,16.59237 -17.83861,20.27313 l 0,0 c -5.55011,-3.68076 -12.89713,-12.2885 -17.82413,-20.27313 -4.92699,-8.0426 -14.15786,-15.38961 -14.15786,-15.38961 l -149.99797,0 c 0,0 -15.4041,13.52025 -25.823243,24.56251 -10.462617,11.10023 -18.447245,11.72335 -18.447245,11.72335 -3.057634,-20.89625 6.738389,-35.66274 6.738389,-35.66274 -28.243267,-40.58974 -19.867378,-64.99285 -19.867378,-64.99285 147.563457,-4.07201 187.703967,-6.50653 195.123437,-13.926 7.34702,-7.36151 8.202,-16.36052 19.63552,-54.10998 11.49149,-37.706 24.62048,-62.26851 24.62048,-62.26851 0,0 13.30288,24.50455 24.62048,62.26851 11.33208,37.74946 12.2885,46.74847 19.65001,54.10998 7.41947,7.41947 47.54549,9.85399 195.12344,13.926 0,0 8.37589,24.40311 -19.86738,64.99285"/>
</svg>
