<?xml version="1.0" encoding="UTF-8" standalone="no"?>
<svg xmlns="http://www.w3.org/2000/svg" xmlns:xlink="http://www.w3.org/1999/xlink" version="1.1" width="600" height="576">
  <linearGradient x1="0" y1="0" x2="1" y2="0" id="linearGradient3409" gradientUnits="userSpaceOnUse" gradientTransform="matrix(-170.50069,-119.49944,-119.49944,170.50069,238.35742,199.02051)" spreadMethod="pad">
    <stop style="stop-color:#8b723c" offset="0"/>
    <stop style="stop-color:#ebd491" offset="0.46751401"/>
    <stop style="stop-color:#8b723c" offset="1"/>
  </linearGradient>
  <linearGradient x1="0" y1="0" x2="1" y2="0" id="linearGradient3387" gradientUnits="userSpaceOnUse" gradientTransform="matrix(-170.50069,-119.49944,-119.49944,170.50069,231.86523,208.28418)" spreadMethod="pad">
    <stop style="stop-color:#8b723c" offset="0"/>
    <stop style="stop-color:#ebd491" offset="0.46751401"/>
    <stop style="stop-color:#8b723c" offset="1"/>
  </linearGradient>
  <linearGradient x1="0" y1="0" x2="1" y2="0" id="linearGradient3024" xlink:href="#linearGradient3409" gradientUnits="userSpaceOnUse" gradientTransform="matrix(-170.50069,-119.49944,-119.49944,170.50069,238.35742,199.02051)" spreadMethod="pad"/>
  <linearGradient x1="0" y1="0" x2="1" y2="0" id="linearGradient3029" xlink:href="#linearGradient3387" gradientUnits="userSpaceOnUse" gradientTransform="matrix(-170.50069,-119.49944,-119.49944,170.50069,231.86523,208.28418)" spreadMethod="pad"/>
  <linearGradient x1="0" y1="0" x2="1" y2="0" id="linearGradient3037" xlink:href="#linearGradient3387" gradientUnits="userSpaceOnUse" gradientTransform="matrix(-170.50069,-119.49944,-119.49944,170.50069,231.86523,208.28418)" spreadMethod="pad"/>
  <linearGradient x1="0" y1="0" x2="1" y2="0" id="linearGradient3041" xlink:href="#linearGradient3409" gradientUnits="userSpaceOnUse" gradientTransform="matrix(-170.50069,-119.49944,-119.49944,170.50069,238.35742,199.02051)" spreadMethod="pad"/>
  <linearGradient x1="0" y1="0" x2="1" y2="0" id="linearGradient3045" xlink:href="#linearGradient3409" gradientUnits="userSpaceOnUse" gradientTransform="matrix(-170.50069,-119.49944,-119.49944,170.50069,238.35742,199.02051)" spreadMethod="pad"/>
  <linearGradient x1="0" y1="0" x2="1" y2="0" id="linearGradient3048" xlink:href="#linearGradient3409" gradientUnits="userSpaceOnUse" gradientTransform="matrix(-170.50069,-119.49944,-119.49944,170.50069,238.35742,199.02051)" spreadMethod="pad"/>
  <linearGradient x1="0" y1="0" x2="1" y2="0" id="linearGradient3050" xlink:href="#linearGradient3387" gradientUnits="userSpaceOnUse" gradientTransform="matrix(-170.50069,-119.49944,-119.49944,170.50069,231.86523,208.28418)" spreadMethod="pad"/>
  <linearGradient x1="0" y1="0" x2="1" y2="0" id="linearGradient3053" xlink:href="#linearGradient3387" gradientUnits="userSpaceOnUse" gradientTransform="matrix(-170.50069,-119.49944,-119.49944,170.50069,231.86523,208.28418)" spreadMethod="pad"/>
  <g transform="matrix(1.6,0,0,1.6,-1236.0004,-576.0002)">
    <g transform="matrix(1.25,0,0,-1.25,772.5,720)">
      <path d="m 189.0742,186.5059 -62.119,-81.932 29.621,-18.953 0,-65.476 -45.647,81.347 62.118,81.932 -29.619,18.955 0,65.477 45.646,-81.35 z m 84.447,-13.123 c -16.508,-0.002 -29.888,-13.398 -29.888,-29.924 0,-16.527 13.382,-29.926 29.888,-29.926 l -107.754,-93.388 0,70.517 -25.468,16.295 59.742,78.793 -46.094,82.106 119.574,-94.473 z m -247.039,-58.766 c 16.506,0 29.887,13.399 29.887,29.924 0,16.529 -13.381,29.926 -29.889,29.926 l 107.756,93.389 0,-70.516 25.466,-16.297 -59.741,-78.795 46.093,-82.103 -119.572,94.472 z m 116.882,173.328 -141.545,-122.681 24.661,0 c 11.412,0 20.698,-9.297 20.698,-20.723 0,-11.426 -9.284,-20.721 -20.696,-20.721 l -26.482,0 156.576,-123.718 0,-0.102 0.06,0.053 141.546,122.682 -24.661,0 c -11.412,0 -20.697,9.296 -20.697,20.724 0,11.426 9.285,20.721 20.697,20.721 l 26.479,0.004 -156.572,123.713 0,0.103 -0.064,-0.055 z"/>
      <path d="m 26.481,174.467 c 16.507,0 29.888,-13.397 29.888,-29.926 l 0,0 c 0,-16.525 -13.381,-29.924 -29.887,-29.924 l 0,0 119.573,-94.472 -46.094,82.103 59.741,78.795 -25.466,16.296 0,70.516 -107.755,-93.388 z" style="fill:url(#linearGradient3053)"/>
      <path d="m 200.041,185.75 -59.742,-78.793 25.468,-16.295 0,-70.517 107.755,93.388 c -16.506,0 -29.889,13.399 -29.889,29.926 l 0,0 c 0,16.525 13.381,29.921 29.889,29.924 l 0,0 -119.574,94.472 46.093,-82.105 z" style="fill:url(#linearGradient3048)"/>
    </g>
  </g>
</svg>
