<?xml version="1.0" encoding="UTF-8" standalone="no"?>
<svg xmlns="http://www.w3.org/2000/svg" version="1.1" width="600" height="576">
  <g transform="matrix(1.6,0,0,1.6,-1123.9245,-618.66686)">
    <path d="m 735.55319,528.58304 c 20.635,0 37.36125,16.745 37.36125,37.4075 0,20.65625 -16.72625,37.40375 -37.35875,37.40375 l 149.46625,118.09125 -57.61875,-102.62875 74.6775,-98.49375 -31.8325,-20.37125 0,-88.145 -134.695,116.73625 z"/>
    <path d="m 1044.3551,604.75004 c -20.6325,0 -37.3613,-16.74875 -37.3613,-37.4075 0,-20.65625 16.7263,-37.40375 37.3613,-37.40625 l -149.46875,-118.08875 57.61875,102.63 -74.6775,98.4925 31.835,20.36875 0,88.1475 134.6925,-116.73625 z"/>
  </g>
</svg>
