<?xml version="1.0"?>
<svg xmlns="http://www.w3.org/2000/svg" xmlns:xlink="http://www.w3.org/1999/xlink" version="1.1" baseProfile="full" width="98.245056" height="67.238716">
  <linearGradient id="grad_mythic" gradientUnits="userSpaceOnUse" x1="19.22177" y1="13.9221" x2="75.94046" y2="53.7661">
    <stop offset="0.1" style="stop-color:#bf331c"/>
    <stop offset="0.4" style="stop-color:#f6b91d"/>
    <stop offset="0.7" style="stop-color:#bf331c"/>
  </linearGradient>
  <g>
    <path d="M 35.184 0.908 L 32.765 1.484 C 27.845 2.653 22.329 4.891 17.576 8.629 L 17.209 8.917 L 17.189 9.386 C 16.842 17.865 19.450 24.565 24.508 29.057 C 29.566 33.549 36.962 35.805 46.053 35.805 C 55.144 35.805 62.538 33.549 67.596 29.057 C 72.653 24.565 75.261 17.865 74.914 9.387 L 74.895 8.918 L 74.527 8.629 C 69.774 4.892 64.258 2.654 59.338 1.484 L 56.920 0.908 L 58.242 3.011 C 62.378 9.592 61.817 15.199 59.055 19.309 C 56.293 23.418 51.175 25.996 46.052 25.996 C 40.931 25.996 35.814 23.418 33.051 19.309 C 30.288 15.199 29.726 9.592 33.861 3.012 Z M 11.945312,19.916016 10.585938,21.572266 C 4.7422466,28.685546 1.2919882,34.999072 0.96679688,45.28125 L 0.9375,46.222656 1.875,46.322266 C 14.702408,47.703119 22.658302,58.362159 25.873047,61.753906 L 26.173828,62.070312 H 65.929688 L 66.230469,61.753906 C 69.445073,58.362307 77.403052,47.70312 90.230469,46.322266 L 91.167969,46.222656 91.138672,45.28125 C 90.813481,34.999072 87.363221,28.685546 81.519531,21.572266 L 80.160156,19.916016 79.738281,22.017578 C 79.129974,25.05377 77.20625,30.147099 72.224609,34.466797 67.242968,38.786495 59.173825,42.398438 46.052734,42.398438 32.931634,42.398438 24.8625,38.786495 19.880859,34.466797 14.899219,30.147099 12.975495,25.053771 12.367188,22.017578 Z"/>
    <path d="M 31.076172,4.1972656 C 28.030992,10.432876 28.523856,16.216988 31.363281,20.441406 34.548005,25.179551 40.257664,28.027344 46.052734,28.027344 51.8478,28.027344 57.555982,25.179581 60.740234,20.441406 63.579239,16.216961 64.072603,10.432846 61.027344,4.1972656 64.994353,5.3703477 69.156918,7.1279085 72.863281,9.9472656 73.071622,17.718237 70.722165,23.561307 66.246094,27.537109 61.673003,31.599088 54.807839,33.771484 46.052734,33.771484 37.29763,33.771484 30.430979,31.599112 25.857422,27.537109 21.380894,23.561284 19.031913,17.7182 19.240234,9.9472656 22.946606,7.1279076 27.109159,5.3703476 31.076172,4.1972656 Z M 10.947266,24.472656 C 11.972794,27.816166 14.119047,32.160786 18.548828,36.001953 23.930762,40.668755 32.556425,44.429688 46.052734,44.429688 59.549034,44.429688 68.174707,40.668755 73.556641,36.001953 77.986421,32.160786 80.132674,27.816166 81.158203,24.472656 85.87853,30.512685 88.577503,35.962898 89.011719,44.503906 76.0783,46.397267 68.009729,56.807084 65.039062,60.039062 H 27.064453 C 24.093986,56.807213 16.027099,46.397275 3.09375,44.503906 3.527966,35.962898 6.2269375,30.512685 10.947266,24.472656 Z" style="fill: url(#grad_mythic);"/>
  </g>
</svg>
