<?xml version="1.0" encoding="utf-8"?>
<!-- Generator: Adobe Illustrator 15.1.0, SVG Export Plug-In . SVG Version: 6.00 Build 0)  -->
<!DOCTYPE svg PUBLIC "-//W3C//DTD SVG 1.1//EN" "http://www.w3.org/Graphics/SVG/1.1/DTD/svg11.dtd">
<svg version="1.1" id="Layer_1" xmlns:svg="http://www.w3.org/2000/svg"
	 xmlns="http://www.w3.org/2000/svg" xmlns:xlink="http://www.w3.org/1999/xlink" x="0px" y="0px" width="550px" height="610px"
	 viewBox="0 0 550 610" enable-background="new 0 0 550 610" xml:space="preserve">
<g>
	<path fill="#FFFFFF" d="M266.216,604.559c-92.549-35.087-132.683-89.635-134.346-91.94l-6.321-8.754l2.077-10.606
		c16.986-86.77-99.153-141.315-100.331-141.858l-11.606-5.34l-2.433-12.54c-15.47-79.742-4.421-137.388-3.944-139.794l0.69-3.504
		l1.652-3.162C102.437,12.683,244.23,3.853,271.734,3.853c1.406,0,2.52,0.017,3.314,0.047c0.791-0.03,1.899-0.047,3.303-0.047
		c27.509,0,169.304,8.831,260.089,183.205l1.646,3.162l0.69,3.504c0.482,2.407,11.525,60.052-3.941,139.794l-2.436,12.54
		l-11.604,5.34c-1.133,0.524-117.226,55.563-100.331,141.858l2.077,10.606l-6.324,8.754c-1.663,2.307-41.794,56.854-134.344,91.94
		l-8.824,3.352L266.216,604.559z"/>
	<path d="M194.579,181.901c-13.094-13.391-47.792-52.206-63.453-101.934C176.617,46,220.614,34.473,247.735,30.634
		c-17.591,27.177-40.181,70.027-40.181,110.742c0,13.09,1.967,24.174,5.385,33.5L194.579,181.901z M116.057,314.298
		c-17.871,7.231-36.47,16.17-55.368,27.201c37.638,23.319,106.792,77.825,91.381,156.548c0,0,33.179,45.924,111.577,78.657
		c-1.2-20.299-5.058-55.764-17.287-95.104C222.295,404.188,178.475,347.953,116.057,314.298z M263.724,260.311v-44.525
		c-14.308-2.159-28.186-8.441-38.571-20.121l-36.045,13.786l-5.412-4.931c-2.322-2.118-49.507-45.693-72.221-108.471
		c-24.201,21.614-48.192,50.141-69.682,87.789c8.792,10.642,28.029,28.94,65.556,45.292c0,0-38.113,1.393-76.016-11.822
		c-1.985,21.991-3.141,61.704,6.182,110.417C137.171,265.426,229.837,259.922,263.724,260.311z M145.013,303.799
		c53.958,34.608,94.516,87.446,118.711,154.801V284.18C243.861,284.073,199.469,286.236,145.013,303.799z M275.049,32.763
		c-16.104,22.983-43.72,68.287-43.72,108.612c0,44.325,27.56,51.51,43.72,51.51c16.151,0,43.712-7.185,43.712-51.51
		C318.761,101.05,291.143,55.746,275.049,32.763v-0.006c0,0,0,0-0.006,0l0,0L275.049,32.763z M355.511,181.901
		c13.09-13.391,47.794-52.206,63.455-101.934C373.474,46,329.474,34.473,302.356,30.634c17.59,27.177,40.184,70.027,40.184,110.742
		c0,13.09-1.971,24.174-5.386,33.5L355.511,181.901z M303.731,481.601c-12.235,39.341-16.089,74.806-17.284,95.104
		c78.392-32.733,111.571-78.657,111.571-78.657c-15.406-78.723,53.747-133.229,91.389-156.548
		c-18.9-11.031-37.506-19.969-55.374-27.201C371.616,347.953,327.792,404.188,303.731,481.601z M512.579,327.725
		c9.32-48.713,8.164-88.426,6.177-110.417c-37.901,13.214-76.009,11.822-76.009,11.822c37.522-16.353,56.76-34.651,65.555-45.292
		c-21.495-37.647-45.485-66.175-69.685-87.789c-22.712,62.777-69.897,106.353-72.223,108.471l-5.408,4.931l-36.049-13.786
		c-10.389,11.68-24.264,17.962-38.573,20.121v44.525C320.252,259.922,412.92,265.426,512.579,327.725z M286.364,284.18V458.6
		c24.198-67.354,64.759-120.191,118.711-154.801C350.622,286.236,306.231,284.073,286.364,284.18z"/>
</g>
</svg>
