<?xml version="1.0" encoding="utf-8"?>
<!-- Generator: Adobe Illustrator 15.1.0, SVG Export Plug-In . SVG Version: 6.00 Build 0)  -->
<!DOCTYPE svg PUBLIC "-//W3C//DTD SVG 1.1//EN" "http://www.w3.org/Graphics/SVG/1.1/DTD/svg11.dtd">
<svg version="1.1" id="Layer_1" xmlns:svg="http://www.w3.org/2000/svg"
	 xmlns="http://www.w3.org/2000/svg" xmlns:xlink="http://www.w3.org/1999/xlink" x="0px" y="0px" width="550px" height="610px"
	 viewBox="0 0 550 610" enable-background="new 0 0 550 610" xml:space="preserve">
<g>
	<path d="M266.202,604.061c-92.549-35.086-132.679-89.634-134.343-91.94l-6.324-8.754l2.077-10.606
		c16.989-86.768-99.152-141.315-100.33-141.857l-11.606-5.339l-2.434-12.541C-2.227,253.28,8.822,195.636,9.3,193.229l0.69-3.504
		l1.651-3.162C102.424,12.19,244.217,3.36,271.723,3.36c1.404,0,2.513,0.018,3.315,0.047c0.791-0.029,1.899-0.047,3.303-0.047
		c27.501,0,169.3,8.831,260.085,183.204l1.64,3.162l0.696,3.504c0.483,2.407,11.526,60.051-3.94,139.793l-2.442,12.541
		l-11.598,5.339c-1.133,0.524-117.224,55.562-100.329,141.857l2.076,10.606l-6.323,8.754c-1.664,2.307-41.8,56.854-134.343,91.94
		l-8.825,3.352L266.202,604.061z"/>
	<linearGradient id="SVGID_1_" gradientUnits="userSpaceOnUse" x1="29.9463" y1="303.1738" x2="520.1172" y2="303.1738">
		<stop  offset="0" style="stop-color:#BB2C26"/>
		<stop  offset="0.0517" style="stop-color:#BF3526"/>
		<stop  offset="0.136" style="stop-color:#CB4D25"/>
		<stop  offset="0.2418" style="stop-color:#DE7523"/>
		<stop  offset="0.25" style="stop-color:#E07823"/>
		<stop  offset="0.2566" style="stop-color:#E17A23"/>
		<stop  offset="0.327" style="stop-color:#EE8B1F"/>
		<stop  offset="0.404" style="stop-color:#F5951E"/>
		<stop  offset="0.5" style="stop-color:#F7981D"/>
		<stop  offset="0.596" style="stop-color:#F5951E"/>
		<stop  offset="0.673" style="stop-color:#EE8B1F"/>
		<stop  offset="0.7434" style="stop-color:#E17A23"/>
		<stop  offset="0.75" style="stop-color:#E07823"/>
		<stop  offset="0.8095" style="stop-color:#D35D24"/>
		<stop  offset="0.8837" style="stop-color:#C64225"/>
		<stop  offset="0.9496" style="stop-color:#BE3226"/>
		<stop  offset="1" style="stop-color:#BB2C26"/>
	</linearGradient>
	<path fill="url(#SVGID_1_)" d="M194.565,181.408c-13.095-13.391-47.793-52.206-63.449-101.934
		c45.487-33.966,89.487-45.493,116.604-49.333c-17.591,27.176-40.178,70.026-40.178,110.741c0,13.09,1.964,24.174,5.38,33.5
		L194.565,181.408z M116.044,313.804c-17.868,7.231-36.47,16.169-55.368,27.2c37.641,23.318,106.789,77.824,91.38,156.546
		c0,0,33.176,45.923,111.573,78.656c-1.197-20.298-5.055-55.763-17.284-95.103C222.278,403.691,178.461,347.457,116.044,313.804z
		 M263.712,259.816v-44.525c-14.311-2.159-28.185-8.441-38.573-20.121l-36.048,13.786l-5.409-4.932
		c-2.318-2.118-49.51-45.693-72.221-108.47c-24.201,21.614-48.191,50.141-69.682,87.788c8.792,10.642,28.029,28.94,65.552,45.292
		c0,0-38.11,1.392-76.011-11.822c-1.985,21.991-3.141,61.703,6.182,110.417C137.157,264.931,229.823,259.427,263.712,259.816z
		 M145.002,303.303c53.952,34.609,94.513,87.446,118.71,154.8v-174.42C243.845,283.577,199.456,285.742,145.002,303.303z
		 M275.039,32.271c-16.104,22.982-43.723,68.286-43.723,108.611c0,44.325,27.56,51.51,43.723,51.51
		c16.151,0,43.711-7.185,43.711-51.51C318.75,100.557,291.131,55.253,275.039,32.271v-0.006c0,0,0,0-0.012,0l0,0L275.039,32.271z
		 M355.5,181.408c13.084-13.391,47.793-52.206,63.449-101.934c-45.493-33.966-89.487-45.493-116.61-49.333
		c17.591,27.176,40.184,70.026,40.184,110.741c0,13.09-1.971,24.174-5.38,33.5L355.5,181.408z M303.719,481.104
		c-12.234,39.34-16.092,74.805-17.283,95.103c78.385-32.733,111.572-78.656,111.572-78.656
		c-15.408-78.722,53.739-133.228,91.387-156.546c-18.9-11.031-37.506-19.969-55.38-27.2
		C371.604,347.457,327.775,403.691,303.719,481.104z M512.565,327.229c9.32-48.713,8.164-88.425,6.17-110.417
		c-37.895,13.214-76.002,11.822-76.002,11.822c37.518-16.352,56.76-34.65,65.55-45.292c-21.496-37.647-45.481-66.174-69.679-87.788
		c-22.711,62.777-69.902,106.352-72.227,108.47l-5.403,4.932L324.92,195.17c-10.382,11.68-24.257,17.962-38.567,20.121v44.525
		C320.236,259.427,412.908,264.931,512.565,327.229z M286.353,283.684v174.42c24.197-67.354,64.759-120.191,118.711-154.8
		C350.604,285.742,306.221,283.577,286.353,283.684z"/>
</g>
</svg>
