<?xml version="1.0" encoding="utf-8"?>
<!-- Generator: Adobe Illustrator 15.1.0, SVG Export Plug-In . SVG Version: 6.00 Build 0)  -->
<!DOCTYPE svg PUBLIC "-//W3C//DTD SVG 1.1//EN" "http://www.w3.org/Graphics/SVG/1.1/DTD/svg11.dtd">
<svg version="1.1" id="Layer_1" xmlns:svg="http://www.w3.org/2000/svg"
	 xmlns="http://www.w3.org/2000/svg" xmlns:xlink="http://www.w3.org/1999/xlink" x="0px" y="0px" width="550px" height="610px"
	 viewBox="0 0 550 610" enable-background="new 0 0 550 610" xml:space="preserve">
<g>
	<path d="M266.314,604.063c-92.549-35.087-132.683-89.635-134.346-91.941l-6.321-8.754l2.076-10.606
		c16.986-86.768-99.153-141.315-100.33-141.858l-11.606-5.339l-2.433-12.541c-15.47-79.742-4.421-137.387-3.943-139.794l0.69-3.504
		l1.652-3.162C102.535,12.189,244.328,3.358,271.833,3.358c1.407,0,2.519,0.018,3.315,0.047c0.79-0.029,1.899-0.047,3.304-0.047
		c27.507,0,169.301,8.831,260.086,183.205l1.646,3.162l0.69,3.504c0.483,2.407,11.526,60.052-3.94,139.794l-2.437,12.541
		l-11.604,5.339c-1.133,0.525-117.225,55.563-100.33,141.858l2.077,10.606l-6.324,8.754c-1.663,2.307-41.794,56.854-134.343,91.941
		l-8.825,3.351L266.314,604.063z"/>
	<linearGradient id="SVGID_1_" gradientUnits="userSpaceOnUse" x1="30.0566" y1="303.1738" x2="520.2285" y2="303.1738">
		<stop  offset="0" style="stop-color:#612C75"/>
		<stop  offset="0.0155" style="stop-color:#643078"/>
		<stop  offset="0.1297" style="stop-color:#754889"/>
		<stop  offset="0.2" style="stop-color:#7B5190"/>
		<stop  offset="0.2344" style="stop-color:#8C639D"/>
		<stop  offset="0.2911" style="stop-color:#A37BAE"/>
		<stop  offset="0.3516" style="stop-color:#B38CBA"/>
		<stop  offset="0.4177" style="stop-color:#BC96C1"/>
		<stop  offset="0.5" style="stop-color:#BF99C3"/>
		<stop  offset="0.5823" style="stop-color:#BC96C1"/>
		<stop  offset="0.6484" style="stop-color:#B38CBA"/>
		<stop  offset="0.7089" style="stop-color:#A37BAE"/>
		<stop  offset="0.7656" style="stop-color:#8C639D"/>
		<stop  offset="0.8" style="stop-color:#7B5190"/>
		<stop  offset="0.8703" style="stop-color:#754889"/>
		<stop  offset="0.9845" style="stop-color:#643078"/>
		<stop  offset="1" style="stop-color:#612C75"/>
	</linearGradient>
	<path fill="url(#SVGID_1_)" d="M194.677,181.407c-13.093-13.391-47.791-52.206-63.453-101.934
		c45.49-33.966,89.488-45.493,116.608-49.333c-17.591,27.176-40.181,70.026-40.181,110.741c0,13.09,1.967,24.174,5.386,33.5
		L194.677,181.407z M116.155,313.804c-17.871,7.232-36.47,16.169-55.368,27.2c37.638,23.318,106.792,77.825,91.381,156.547
		c0,0,33.179,45.924,111.576,78.657c-1.2-20.299-5.058-55.764-17.287-95.104C222.393,403.692,178.572,347.457,116.155,313.804z
		 M263.821,259.816v-44.525c-14.308-2.159-28.185-8.441-38.57-20.121l-36.045,13.786l-5.413-4.932
		c-2.321-2.118-49.507-45.693-72.221-108.47c-24.201,21.614-48.191,50.141-69.682,87.789c8.792,10.642,28.029,28.94,65.555,45.292
		c0,0-38.113,1.392-76.014-11.822c-1.985,21.992-3.141,61.704,6.182,110.417C137.271,264.931,229.935,259.427,263.821,259.816z
		 M145.11,303.303c53.958,34.61,94.517,87.447,118.711,154.801V283.684C243.959,283.577,199.567,285.742,145.11,303.303z
		 M275.147,32.269c-16.104,22.982-43.72,68.287-43.72,108.612c0,44.325,27.56,51.51,43.72,51.51c16.151,0,43.712-7.185,43.712-51.51
		C318.859,100.556,291.24,55.251,275.147,32.269v-0.006c0,0,0,0-0.006,0l0,0L275.147,32.269z M355.609,181.407
		c13.09-13.391,47.794-52.206,63.455-101.934c-45.492-33.966-89.493-45.493-116.61-49.333
		c17.591,27.176,40.184,70.026,40.184,110.741c0,13.09-1.971,24.174-5.386,33.5L355.609,181.407z M303.828,481.104
		c-12.234,39.34-16.086,74.805-17.284,95.104c78.392-32.733,111.573-78.657,111.573-78.657
		c-15.408-78.722,53.746-133.229,91.388-156.547c-18.9-11.031-37.506-19.968-55.374-27.2
		C371.714,347.457,327.891,403.692,303.828,481.104z M512.676,327.229c9.32-48.713,8.164-88.425,6.176-110.417
		c-37.9,13.214-76.008,11.822-76.008,11.822c37.523-16.352,56.76-34.651,65.555-45.292c-21.495-37.647-45.486-66.175-69.685-87.789
		c-22.711,62.777-69.896,106.353-72.221,108.47l-5.409,4.932l-36.049-13.786c-10.388,11.68-24.263,17.962-38.573,20.121v44.525
		C320.352,259.427,413.019,264.931,512.676,327.229z M286.462,283.684v174.421c24.197-67.354,64.759-120.191,118.711-154.801
		C350.72,285.742,306.329,283.577,286.462,283.684z"/>
</g>
</svg>
