<?xml version="1.0" encoding="utf-8"?>
<!-- Generator: Adobe Illustrator 15.1.0, SVG Export Plug-In . SVG Version: 6.00 Build 0)  -->
<!DOCTYPE svg PUBLIC "-//W3C//DTD SVG 1.1//EN" "http://www.w3.org/Graphics/SVG/1.1/DTD/svg11.dtd">
<svg version="1.1" id="Layer_1" xmlns:svg="http://www.w3.org/2000/svg"
	 xmlns="http://www.w3.org/2000/svg" xmlns:xlink="http://www.w3.org/1999/xlink" x="0px" y="0px" width="550px" height="610px"
	 viewBox="0 0 550 610" enable-background="new 0 0 550 610" xml:space="preserve">
<g>
	<path d="M266.425,604.063c-92.549-35.087-132.683-89.635-134.346-91.941l-6.321-8.754l2.076-10.606
		c16.986-86.768-99.153-141.315-100.33-141.858l-11.606-5.339l-2.433-12.541c-15.47-79.742-4.421-137.387-3.943-139.794l0.69-3.504
		l1.652-3.162C102.646,12.189,244.439,3.358,271.943,3.358c1.407,0,2.519,0.018,3.315,0.047c0.791-0.029,1.897-0.047,3.3-0.047
		c27.513,0,169.301,8.831,260.086,183.205l1.652,3.162l0.684,3.504c0.484,2.407,11.527,60.052-3.94,139.794l-2.43,12.541
		l-11.609,5.339c-1.133,0.525-117.225,55.563-100.33,141.858l2.076,10.606l-6.323,8.754c-1.664,2.307-41.788,56.854-134.344,91.941
		l-8.822,3.351L266.425,604.063z"/>
	<linearGradient id="SVGID_1_" gradientUnits="userSpaceOnUse" x1="30.1675" y1="303.1738" x2="520.3389" y2="303.1738">
		<stop  offset="0" style="stop-color:#626E77"/>
		<stop  offset="0.0522" style="stop-color:#697780"/>
		<stop  offset="0.1373" style="stop-color:#7D8E98"/>
		<stop  offset="0.2442" style="stop-color:#9EB4C0"/>
		<stop  offset="0.25" style="stop-color:#A0B6C2"/>
		<stop  offset="0.2534" style="stop-color:#A1B7C3"/>
		<stop  offset="0.3247" style="stop-color:#ADC6D4"/>
		<stop  offset="0.4027" style="stop-color:#B5CEDE"/>
		<stop  offset="0.5" style="stop-color:#B7D1E1"/>
		<stop  offset="0.5973" style="stop-color:#B5CEDE"/>
		<stop  offset="0.6753" style="stop-color:#ADC6D4"/>
		<stop  offset="0.7466" style="stop-color:#A1B7C3"/>
		<stop  offset="0.75" style="stop-color:#A0B6C2"/>
		<stop  offset="0.8079" style="stop-color:#8B9DA8"/>
		<stop  offset="0.8827" style="stop-color:#74838D"/>
		<stop  offset="0.9492" style="stop-color:#67747D"/>
		<stop  offset="1" style="stop-color:#626E77"/>
	</linearGradient>
	<path fill="url(#SVGID_1_)" d="M194.788,181.407c-13.093-13.391-47.791-52.206-63.452-101.934
		c45.49-33.966,89.487-45.493,116.608-49.333c-17.591,27.176-40.181,70.026-40.181,110.741c0,13.09,1.967,24.174,5.386,33.5
		L194.788,181.407z M116.266,313.804c-17.871,7.232-36.47,16.169-55.368,27.2c37.639,23.318,106.792,77.825,91.381,156.547
		c0,0,33.179,45.924,111.576,78.657c-1.201-20.299-5.059-55.764-17.287-95.104C222.504,403.692,178.684,347.457,116.266,313.804z
		 M263.933,259.816v-44.525c-14.308-2.159-28.186-8.441-38.571-20.121l-36.045,13.786l-5.413-4.932
		c-2.321-2.118-49.507-45.693-72.221-108.47c-24.2,21.614-48.191,50.141-69.682,87.789c8.792,10.642,28.029,28.94,65.556,45.292
		c0,0-38.113,1.392-76.014-11.822c-1.985,21.992-3.142,61.704,6.182,110.417C137.382,264.931,230.046,259.427,263.933,259.816z
		 M145.221,303.303c53.958,34.61,94.517,87.447,118.711,154.801V283.684C244.071,283.577,199.678,285.742,145.221,303.303z
		 M275.258,32.269c-16.104,22.982-43.72,68.287-43.72,108.612c0,44.325,27.56,51.51,43.72,51.51c16.149,0,43.708-7.185,43.708-51.51
		C318.967,100.556,291.348,55.251,275.258,32.269v-0.006c0,0,0,0-0.006,0l0,0L275.258,32.269z M355.718,181.407
		c13.096-13.391,47.793-52.206,63.461-101.934C373.686,45.506,329.68,33.979,302.567,30.14
		c17.591,27.176,40.185,70.026,40.185,110.741c0,13.09-1.971,24.174-5.392,33.5L355.718,181.407z M303.937,481.104
		c-12.234,39.34-16.081,74.805-17.284,95.104c78.397-32.733,111.573-78.657,111.573-78.657
		c-15.408-78.722,53.751-133.229,91.387-156.547c-18.9-11.031-37.506-19.968-55.367-27.2
		C371.821,347.457,328.004,403.692,303.937,481.104z M512.783,327.229c9.321-48.713,8.165-88.425,6.183-110.417
		c-37.907,13.214-76.015,11.822-76.015,11.822c37.529-16.352,56.761-34.651,65.562-45.292
		c-21.496-37.647-45.493-66.175-69.69-87.789c-22.711,62.777-69.891,106.353-72.215,108.47l-5.416,4.932l-36.042-13.786
		c-10.395,11.68-24.269,17.962-38.58,20.121v44.525C320.465,259.427,413.126,264.931,512.783,327.229z M286.569,283.684v174.421
		c24.198-67.354,64.76-120.191,118.711-154.801C350.833,285.742,306.438,283.577,286.569,283.684z"/>
</g>
</svg>
