<?xml version="1.0" encoding="utf-8"?>
<!-- Generator: Adobe Illustrator 15.1.0, SVG Export Plug-In . SVG Version: 6.00 Build 0)  -->
<!DOCTYPE svg PUBLIC "-//W3C//DTD SVG 1.1//EN" "http://www.w3.org/Graphics/SVG/1.1/DTD/svg11.dtd">
<svg version="1.1" id="Layer_1" xmlns:svg="http://www.w3.org/2000/svg"
	 xmlns="http://www.w3.org/2000/svg" xmlns:xlink="http://www.w3.org/1999/xlink" x="0px" y="0px" width="550px" height="610px"
	 viewBox="0 0 550 610" enable-background="new 0 0 550 610" xml:space="preserve">
<g>
	<path d="M186.719,170.875c-14.424-14.752-52.648-57.513-69.902-112.296C166.93,21.159,215.4,8.461,245.278,4.23
		c-19.379,29.939-44.265,77.145-44.265,121.999c0,14.42,2.167,26.631,5.933,36.905L186.719,170.875z M100.215,316.73
		c-19.688,7.967-40.178,17.813-60.996,29.965c41.464,25.689,117.648,85.736,100.67,172.461c0,0,36.551,50.592,122.918,86.652
		c-1.323-22.361-5.573-61.432-19.044-104.771C217.252,415.756,168.978,353.805,100.215,316.73z M262.893,257.255v-49.052
		c-15.763-2.378-31.051-9.3-42.491-22.167l-39.71,15.188l-5.963-5.433c-2.557-2.333-54.54-50.338-79.563-119.497
		c-26.661,23.811-53.09,55.238-76.765,96.712c9.687,11.724,30.878,31.882,72.219,49.896c0,0-41.987,1.534-83.741-13.023
		c-2.187,24.227-3.46,67.976,6.811,121.642C123.478,262.889,225.561,256.826,262.893,257.255z M132.114,305.163
		c59.443,38.127,104.125,96.335,130.779,170.537V283.548C241.012,283.431,192.106,285.816,132.114,305.163z M275.37,6.577
		c-17.741,25.318-48.165,75.228-48.165,119.653c0,48.831,30.362,56.746,48.165,56.746c17.793,0,48.155-7.915,48.155-56.746
		C323.524,81.805,293.098,31.895,275.37,6.577V6.57c0,0,0,0-0.006,0l0,0L275.37,6.577z M364.011,170.875
		c14.421-14.752,52.652-57.513,69.906-112.296C383.8,21.159,335.326,8.461,305.452,4.23c19.379,29.939,44.269,77.145,44.269,121.999
		c0,14.42-2.171,26.631-5.934,36.905L364.011,170.875z M306.966,501.038c-13.478,43.339-17.722,82.409-19.041,104.771
		c86.36-36.061,122.915-86.652,122.915-86.652c-16.974-86.725,59.209-146.771,100.677-172.461
		c-20.821-12.152-41.317-21.998-61.002-29.965C381.752,353.805,333.474,415.756,306.966,501.038z M537.044,331.521
		c10.268-53.666,8.994-97.415,6.804-121.642c-41.754,14.557-83.734,13.023-83.734,13.023c41.337-18.014,62.529-38.173,72.219-49.896
		c-23.681-41.474-50.111-72.901-76.769-96.712c-25.02,69.158-77.002,117.164-79.563,119.497l-5.959,5.433l-39.713-15.188
		c-11.444,12.867-26.729,19.789-42.495,22.167v49.052C325.169,256.826,427.256,262.889,537.044,331.521z M287.834,283.548v192.151
		c26.657-74.201,71.342-132.409,130.778-170.537C358.624,285.816,309.722,283.431,287.834,283.548z"/>
</g>
</svg>
