<?xml version="1.0" encoding="utf-8"?>
<svg xmlns="http://www.w3.org/2000/svg" xmlns:xlink="http://www.w3.org/1999/xlink" version="1.1" id="Layer_1" x="0px" y="0px" width="455px" height="416px">
  <path fill="#808080" d="M324.08,1.36c5.78-0.94,11.63-0.49,17.46-0.46c7.229,0.12,14.58,1.61,20.899,5.25c8.291,4.74,14.36,13.08,16.4,22.4  c2.62,11.02,0.09,22.34-2.75,33.04c-6.811,31.34-9.42,63.46-9.57,95.48c20.45-6.57,40.73-13.84,60.32-22.71  c9.53-4.28,19.141-8.41,28.66-12.72v1.84c-1.2,12.13-2.03,24.3-3.13,36.44c-1.15,12.38-4.21,24.56-8.851,36.08  c-4.52,10.92-10.859,21.37-19.959,29.069c-4.82,4.021-10.141,7.421-15.721,10.28c-11.84,6.131-25.18,8.47-38.271,10.2  c1.75,30.42,4.32,60.83,8.46,91.03c0.75,5.7,2.091,11.31,4.19,16.66c3.24,8.87,3.7,19.199-0.87,27.69  c-3.27,6.509-9.35,11.17-16,13.889c-14.199,5.851-29.75,6.641-44.89,7.531c-8.67,0.479-17.529-1.711-24.74-6.591  c-9.729-6.409-15.92-17.09-18.739-28.21c-2.3-8.34-2.161-17.05-2.67-25.61c-1.391-26-2.83-52-4.15-78.009  c-7.57,1.029-15.07,2.459-22.641,3.439c0.86,19.93,2.841,39.8,4.28,59.699c1.45,15.32,2.3,30.73,4.811,45.94  c1.31,8.95-0.61,18.601-6.32,25.771c-4.5,5.869-11.141,9.789-18.2,11.76c-19.05,5.3-39.03,5.33-58.63,4.561  c-7.9-0.491-15.69-3.271-21.93-8.181c-9.62-7.439-15.18-19.09-17.16-30.9c-2.93-18.56-3.65-37.369-5.04-56.089  c-0.77-12.98-1.88-25.961-2.29-38.971c-10.83-0.05-21.67,0.76-32.51,0.45c-18.52-0.44-37.28-1.26-55.24-6.221  c-10.43-3-20.79-7.629-28.43-15.56c-6.07-6.29-9.58-14.899-9.64-23.64c-0.7-10.95,5.27-21.04,12.42-28.84  c9.74-9.77,21.66-17.09,34.05-23.01c22.66-10.53,47-16.86,71.46-21.59c0.06-4.38,0.35-8.78-0.26-13.14  c-0.93-6.41-0.47-12.93-1.44-19.34c-0.49-12.58-1.95-25.09-2.53-37.66c-0.5-3.24-0.02-7.59-3.56-9.21  c-10-5.72-15.77-18.84-11.79-29.9c2.65-9.11,10.48-15.45,18.56-19.73c21.87-12.69,46.5-19.74,71.3-23.96  c9.51-1.99,19.54-3.22,29.09-0.81c8.31,2.22,16.11,7.09,20.84,14.4c6.57,9.14,8.02,20.9,7.26,31.87  c-1.33,11.6-1.63,23.28-2.78,34.89c-0.14,4.5-0.465,8.165-0.69,13.48c-0.649,9.56-0.274,18.31-0.939,27.95  c-0.44,9.19-0.335,18.235-0.33,27.62c0.2,8.95-0.199,17.95,0.91,26.86c7.91-0.56,15.62-2.6,23.37-4.14  c0.6-17.9,0.24-35.82,0.35-53.73c-0.63-23.32-0.16-46.66-0.32-69.99c0.141-2.35-1.64-4.09-2.84-5.9  c-4.63-6.21-6.669-14.7-4.02-22.14c2.46-8.1,9.41-14.02,17.02-17.2C291.24,5.6,307.77,2.91,324.08,1.36z"/>
  <linearGradient id="SVGID_1_" gradientUnits="userSpaceOnUse" x1="392.5352" y1="341.4121" x2="114.848" y2="63.7249">
    <stop offset="0.1" style="stop-color:#612c75"/>
    <stop offset="0.5" style="stop-color:#bf99c3"/>
    <stop offset="0.9" style="stop-color:#612c75"/>
  </linearGradient>
  <path d="M281.529,34.11c15.581-8.41,33.551-10.35,50.921-11.6c7.14,0.11,15.319-1.61,21.39,3.2   c4.12,3.08,4.8,8.5,4.46,13.29c0.511,7.64-2.46,14.82-3.83,22.2c-8.42,40.88-10.08,82.79-9.34,124.41   c27.63-7.88,55-16.88,81.5-28.04c0.901-0.398,4.573-2.367,4.573-2.367s-0.031,0.891-0.104,1.917c-0.53,8.98-2.699,17.79-5.41,26.33   c-3.129,8.67-7.189,17.31-13.85,23.84c-5.9,5.45-13.05,9.47-20.6,12.16c-9.73,3.21-19.99,4.25-30.04,6.04   c-4.74,0.72-9.4,1.94-14.19,2.329c1.38,28.261,3.68,56.471,6.38,84.641c2.16,16.43,3,33.34,8.99,48.971   c1.08,4.259,1.771,10.13-2.851,12.55c-8.829,4.539-19,5.05-28.68,6.27c-5.13,0.311-10.28,0.431-15.419,0.38   c-6.521-0.04-12.241-4.729-14.911-10.47c-5.939-11.5-3.659-24.82-5.31-37.18c-0.54-16.681-2.01-33.291-2.521-49.971   c-1.06-7.41-0.449-14.92-1.37-22.34c-0.569-7.27-0.229-14.59-1.259-21.82c-21.73,3.891-43.541,7.34-65.38,10.61   c2.37,34.109,4.78,68.221,7.81,102.271c0.699,7.409,1.46,14.819,2.62,22.17c0.159,4.81,1.209,11.03-3.601,14.05   c-7.35,3.88-15.94,4.21-24.02,5.41c-8.65,0.63-17.34,0.3-26,0.359c-4.98-0.28-10.33,0.65-14.85-2   c-6.63-3.75-10.06-11.229-11.22-18.489c-2.93-19.67-3.6-39.57-5.22-59.36c-1.01-18.56-2.36-37.11-3.17-55.67   c-10.51,0.439-20.98,1.54-31.51,1.48c-23.66,0.089-47.74,1.06-70.82-5.101c-7.72-2.08-15.92-5.2-20.55-12.141   c-2.55-5.359-1.58-12.17,2.05-16.84c4.94-6.369,11.5-11.28,18.33-15.46c14.53-8.669,30.58-14.49,46.84-19.02   c16.7-4.52,33.69-8.27,50.92-10.08c-0.31-16.21-1.85-32.33-2.66-48.5c-1.22-15.87-2.18-31.75-3.6-47.6   c-0.25-6.72-2.9-13.75-8.66-17.62c-2.37-1.43-5.41-1.99-7.02-4.45c-0.87-2.66,0.38-5.74,2.77-7.16   c19.05-12.31,41.05-19.23,63.18-23.49c9.08-1.58,18.3-4.13,27.56-2.38c4.42,1.18,8.17,4.54,9.58,8.92   c3.24,9.18,0.42,18.85,0.39,28.25c-1,5.96-0.53,12.03-1.48,17.99c-1.48,30.14-3.19,60.35-1.72,90.53c0.3,12.01,0.85,24,1.52,35.99   c20.98-3.359,41.89-7.18,62.71-11.45c1.27-0.38,2.729-0.38,3.81-1.23c-1.101-12.57-0.48-25.21-0.87-37.8   c0.14-34.37,0.32-68.74,0.21-103.12c-0.06-4-0.97-8-2.609-11.66c-1.311-2.88-3.771-4.99-5.32-7.72   C279.89,36.93,279.71,34.86,281.529,34.11z M115.25,208.52c-4.91,1.98-10.03,4.141-13.44,8.381c2.59,1.72,5.38,3.38,8.56,3.56   c11.48,1.83,23.12,0.66,34.63,0.05c-0.61-7.05-1.21-14.1-1.22-21.18C134.14,201.95,124.52,204.76,115.25,208.52z"/>
</svg>
