<?xml version="1.0" encoding="utf-8"?>
<svg xmlns="http://www.w3.org/2000/svg" xmlns:xlink="http://www.w3.org/1999/xlink" version="1.1" id="Layer_1" x="0px" y="0px" width="455px" height="416px">
  <linearGradient id="SVGID_1_" gradientUnits="userSpaceOnUse" x1="392.5352" y1="341.4121" x2="114.848" y2="63.7249">
    <stop offset="0.1" style="stop-color:#612c75"/>
    <stop offset="0.5" style="stop-color:#bf99c3"/>
    <stop offset="0.9" style="stop-color:#612c75"/>
  </linearGradient>
  <path d="M281.529,34.11c15.581-8.41,33.551-10.35,50.921-11.6c7.14,0.11,15.319-1.61,21.39,3.2   c4.12,3.08,4.8,8.5,4.46,13.29c0.511,7.64-2.46,14.82-3.83,22.2c-8.42,40.88-10.08,82.79-9.34,124.41   c27.63-7.88,55-16.88,81.5-28.04c0.901-0.398,4.573-2.367,4.573-2.367s-0.031,0.891-0.104,1.917c-0.53,8.98-2.699,17.79-5.41,26.33   c-3.129,8.67-7.189,17.31-13.85,23.84c-5.9,5.45-13.05,9.47-20.6,12.16c-9.73,3.21-19.99,4.25-30.04,6.04   c-4.74,0.72-9.4,1.94-14.19,2.329c1.38,28.261,3.68,56.471,6.38,84.641c2.16,16.43,3,33.34,8.99,48.971   c1.08,4.259,1.771,10.13-2.851,12.55c-8.829,4.539-19,5.05-28.68,6.27c-5.13,0.311-10.28,0.431-15.419,0.38   c-6.521-0.04-12.241-4.729-14.911-10.47c-5.939-11.5-3.659-24.82-5.31-37.18c-0.54-16.681-2.01-33.291-2.521-49.971   c-1.06-7.41-0.449-14.92-1.37-22.34c-0.569-7.27-0.229-14.59-1.259-21.82c-21.73,3.891-43.541,7.34-65.38,10.61   c2.37,34.109,4.78,68.221,7.81,102.271c0.699,7.409,1.46,14.819,2.62,22.17c0.159,4.81,1.209,11.03-3.601,14.05   c-7.35,3.88-15.94,4.21-24.02,5.41c-8.65,0.63-17.34,0.3-26,0.359c-4.98-0.28-10.33,0.65-14.85-2   c-6.63-3.75-10.06-11.229-11.22-18.489c-2.93-19.67-3.6-39.57-5.22-59.36c-1.01-18.56-2.36-37.11-3.17-55.67   c-10.51,0.439-20.98,1.54-31.51,1.48c-23.66,0.089-47.74,1.06-70.82-5.101c-7.72-2.08-15.92-5.2-20.55-12.141   c-2.55-5.359-1.58-12.17,2.05-16.84c4.94-6.369,11.5-11.28,18.33-15.46c14.53-8.669,30.58-14.49,46.84-19.02   c16.7-4.52,33.69-8.27,50.92-10.08c-0.31-16.21-1.85-32.33-2.66-48.5c-1.22-15.87-2.18-31.75-3.6-47.6   c-0.25-6.72-2.9-13.75-8.66-17.62c-2.37-1.43-5.41-1.99-7.02-4.45c-0.87-2.66,0.38-5.74,2.77-7.16   c19.05-12.31,41.05-19.23,63.18-23.49c9.08-1.58,18.3-4.13,27.56-2.38c4.42,1.18,8.17,4.54,9.58,8.92   c3.24,9.18,0.42,18.85,0.39,28.25c-1,5.96-0.53,12.03-1.48,17.99c-1.48,30.14-3.19,60.35-1.72,90.53c0.3,12.01,0.85,24,1.52,35.99   c20.98-3.359,41.89-7.18,62.71-11.45c1.27-0.38,2.729-0.38,3.81-1.23c-1.101-12.57-0.48-25.21-0.87-37.8   c0.14-34.37,0.32-68.74,0.21-103.12c-0.06-4-0.97-8-2.609-11.66c-1.311-2.88-3.771-4.99-5.32-7.72   C279.89,36.93,279.71,34.86,281.529,34.11z M115.25,208.52c-4.91,1.98-10.03,4.141-13.44,8.381c2.59,1.72,5.38,3.38,8.56,3.56   c11.48,1.83,23.12,0.66,34.63,0.05c-0.61-7.05-1.21-14.1-1.22-21.18C134.14,201.95,124.52,204.76,115.25,208.52z"/>
</svg>
