<?xml version="1.0" encoding="UTF-8" standalone="no"?>
<svg
   xmlns:dc="http://purl.org/dc/elements/1.1/"
   xmlns:cc="http://creativecommons.org/ns#"
   xmlns:rdf="http://www.w3.org/1999/02/22-rdf-syntax-ns#"
   xmlns:svg="http://www.w3.org/2000/svg"
   xmlns="http://www.w3.org/2000/svg"
   xmlns:xlink="http://www.w3.org/1999/xlink"
   height="500.75"
   width="434.99731"
   version="1.1">
  <defs>
    <linearGradient id="g1">
      <stop offset="0"    style="stop-color:#7f6e41" />
      <stop offset="0.25" style="stop-color:#ae975f" />
      <stop offset="0.5"  style="stop-color:#e3cd99" />
      <stop offset="0.75" style="stop-color:#ae975f" />
      <stop offset="1"    style="stop-color:#7f6e41" />
    </linearGradient>
    <linearGradient
       gradientTransform="translate(-37.501348,-22.689453)"
       gradientUnits="userSpaceOnUse"
       y2="271.4209"
       x2="453.35956"
       y1="271.4209"
       x1="56.64043"
       id="g2"
       xlink:href="#g1" />
  </defs>
  <path
     d="M 217.49865,0 C 183.11515,0.01516 152.15024,17.126065 139.11779,43.3125 118.0651,37.740868 105.59162,27.631296 90.186152,13.75 69.477922,27.134151 57.615373,50.690558 57.373652,67.25 43.966466,62.629011 38.981067,57.459994 22.11584,44.001953 -8.3734646,85.950047 -10.407166,149.45677 35.498652,175.39649 V 187.625 c -9.822489,0.71303 -19,15.92251 -19,26.90039 v 62.41797 C 82.786422,381.49621 137.09991,452.24794 217.49865,500.75 c 80.39874,-48.50206 134.71223,-119.25379 201,-223.80664 v -62.41797 c 0,-10.97788 -9.17751,-26.18736 -19,-26.90039 V 175.39649 C 445.40447,149.45677 443.37076,85.950047 412.88146,44.001953 396.01623,57.459994 391.03083,62.629011 377.62365,67.25 377.38193,50.690558 365.51938,27.134151 344.81115,13.75 329.40568,27.631296 316.9322,37.740868 295.87951,43.3125 282.84706,17.126065 251.88215,0.01516 217.49865,0 Z"
     style="fill:#000000" />
  <path
     d="m 217.49865,104.875 c -10.40623,45.92431 -33.8334,54.375 -43.99219,54.375 H 57.852168 c -1.996579,0 -3.603516,1.60694 -3.603516,3.60352 v 26.29297 c 0,1.99658 1.606937,3.6035 3.603516,3.60351 H 167.58068 c 21.78637,0 40.31714,1.63714 49.91797,62.75 9.60083,-61.11286 28.1316,-62.75 49.91797,-62.75 h 109.72851 c 1.99658,-1e-5 3.60352,-1.60693 3.60352,-3.60351 v -26.29297 c 0,-1.99658 -1.60694,-3.60352 -3.60352,-3.60352 H 261.49084 c -10.15879,0 -33.58596,-8.45069 -43.99219,-54.375 z"
     style="fill:#ffffff" />
  <path
     d="m 217.49865,19.371094 a 66.360672,52.503651 0 0 0 -63.71484,37.830078 66.360672,52.503651 0 0 0 -1.86719,7.091797 C 130.366,61.161127 108.87238,56.157756 90.670532,40.455078 76.032532,48.655028 75.299072,77.06804 75.498652,88.749997 53.281807,87.753337 42.200157,83.017507 28.067011,73.740235 12.80624,104.06981 16.422289,142.29287 44.248652,157.75 c 3.02807,-7.28733 11.54151,-10 17.125,-10 H 174.74865 c 7.02983,0 23.59535,0 42.75,-75.875 19.15465,75.875 35.72017,75.875 42.75,75.875 h 113.375 c 5.58349,0 14.09693,2.71267 17.125,10 27.82636,-15.45713 31.44241,-53.68019 16.18164,-84.009765 C 392.79715,83.017507 381.7155,87.753337 359.49865,88.749997 359.69823,77.06804 358.96477,48.655028 344.32677,40.455078 326.12493,56.157756 304.6313,61.161127 283.08068,64.292969 A 66.360672,52.503651 0 0 0 281.21349,57.201172 66.360672,52.503651 0 0 0 217.49865,19.371094 Z M 47.705683,203.73438 c -6.659531,0 -12.021484,5.36195 -12.021484,12.02148 v 55.50781 c 9.683499,16.06388 19.660427,32.26318 30.322263,48.43165 4.80307,-0.21038 13.24219,-2.2925 13.24219,-13.32032 V 269.75 c 0,-6.7865 5.4635,-12.25 12.25,-12.25 6.7865,0 12.249998,5.4635 12.249998,12.25 v 102.30078 c 12.09243,15.15895 25.27733,30.11374 39.85742,44.73438 6.47375,-0.15149 12.14258,-6.635 12.14258,-13.98242 V 326.625 c 0,-6.85575 5.51925,-12.375 12.375,-12.375 6.85575,0 12.375,5.51925 12.375,12.375 v 123.73438 c 11.51346,9.46746 23.80502,18.72646 37,27.73242 13.19498,-9.00596 25.48654,-18.26496 37,-27.73242 V 326.625 c 0,-6.85575 5.51925,-12.375 12.375,-12.375 6.85575,0 12.375,5.51925 12.375,12.375 v 76.17774 c 0,7.34742 5.66883,13.83093 12.14258,13.98242 14.58009,-14.62064 27.76499,-29.57543 39.85742,-44.73438 V 269.75 c 0,-6.7865 5.4635,-12.25 12.25,-12.25 6.7865,0 12.25,5.4635 12.25,12.25 v 36.625 c 0,11.02782 8.43912,13.10994 13.24219,13.32032 10.66184,-16.16847 20.63876,-32.36776 30.32226,-48.43165 v -55.50781 c 0,-6.65953 -5.36195,-12.02148 -12.02148,-12.02148 H 258.86388 c -18.97909,1.40775 -24.66991,22.25338 -27.70703,35.67578 -9.00578,39.80062 -11.73422,101.00248 -13.6582,121.65625 -1.92398,-20.65377 -4.65242,-81.85563 -13.6582,-121.65625 -3.03712,-13.4224 -8.72794,-34.26803 -27.70703,-35.67578 z"
     style="fill:url(#g2)" />
</svg>
