<?xml version="1.0" encoding="UTF-8" standalone="no"?>
<svg
   version="1.1"
   id="Layer_1"
   x="0px"
   y="0px"
   width="756.75"
   height="500"
   sodipodi:docname="80.svg"
   inkscape:version="1.1.1 (3bf5ae0d25, 2021-09-20)"
   xmlns:inkscape="http://www.inkscape.org/namespaces/inkscape"
   xmlns:sodipodi="http://sodipodi.sourceforge.net/DTD/sodipodi-0.dtd"
   xmlns="http://www.w3.org/2000/svg"
   xmlns:svg="http://www.w3.org/2000/svg">
  <defs
     id="defs11" />
  <sodipodi:namedview
     id="namedview9"
     pagecolor="#ffffff"
     bordercolor="#666666"
     borderopacity="1.0"
     inkscape:pageshadow="2"
     inkscape:pageopacity="0.0"
     inkscape:pagecheckerboard="0"
     showgrid="false"
     inkscape:zoom="15.64"
     inkscape:cx="37.819693"
     inkscape:cy="25"
     inkscape:window-width="1920"
     inkscape:window-height="986"
     inkscape:window-x="-11"
     inkscape:window-y="-11"
     inkscape:window-maximized="1"
     inkscape:current-layer="Layer_1" />
  <path
     fill="#808080"
     d="m 515.32,500 c -45.7,0 -134.64,-45.68 -134.64,-129.42 0,-42.36 14.72,-64.4 21.01,-73.81 0.12,-0.19 0.24,-0.37 0.36,-0.55 -1.33,-6.13 -6.41,-15.78 -10.1,-21.43 l -3.22,-4.92 27.02,-38.39 c -1.16,-17.43 -13.95,-34.25 -37.37,-34.25 -23.42,0 -36.2,16.82 -37.37,34.25 l 27.02,38.39 -3.21,4.92 c -3.69,5.66 -8.77,15.31 -10.1,21.44 0.12,0.17 0.23,0.35 0.36,0.54 6.28,9.4 21.01,31.45 21.01,73.81 C 376.06,454.32 287.12,500 241.42,500 c -28.41,0 -58.99,-16.13 -58.99,-51.55 0,-38.83 42.99,-51.78 54.54,-51.78 0.98,0 1.85,0.09 2.67,0.26 l 5.66,12.83 c -2.62,4.5 -9.77,16.8 -11.69,23.1 25.58,-2.07 57.79,-47.2 58.67,-64.93 -55.55,24.89 -105.72,37.51 -149.13,37.51 C 49.17,405.44 0,358.63 0,312.39 0,269.49 42.86,243.85 84.29,243.85 h 0.78 c 39.04,1.14 63.59,21.76 70.68,41.69 5.37,15.1 1.41,30.31 -10.61,40.69 l -13.58,-3.03 c -0.4,-0.88 -10.45,-22.32 -32.21,-22.32 -6.89,0 -12.6,1.46 -14.88,3.83 -0.67,0.69 -1.41,1.79 -1.33,4.29 0.59,17.48 30.37,20.1 48.07,20.1 47.78,0 91.3,-23.6 91.3,-49.52 0,-27.12 -33.9,-56.81 -66.68,-85.53 -10.77,-9.43 -21.91,-19.19 -31.49,-28.63 l -0.6,-0.6 -0.47,-0.69 c -8.38,-12.28 5.22,-28.08 9.63,-31.22 33.37,-23.8 91.88,-58.86 143.51,-89.79 12.1,-7.25 23.74,-14.22 34.44,-20.68 C 327.98,12.09 355.77,0 377.67,0 l 0.7,0.01 0.7,-0.01 c 21.9,0 49.68,12.09 66.83,22.44 10.7,6.46 22.34,13.44 34.44,20.68 51.63,30.93 110.14,65.99 143.51,89.79 4.41,3.14 18.02,18.95 9.63,31.22 l -0.47,0.69 -0.6,0.6 c -9.58,9.44 -20.72,19.2 -31.49,28.63 -32.78,28.72 -66.68,58.41 -66.68,85.53 0,25.92 43.52,49.52 91.3,49.52 17.7,0 47.48,-2.62 48.07,-20.1 0.08,-2.5 -0.66,-3.6 -1.33,-4.3 -2.29,-2.36 -7.99,-3.83 -14.88,-3.83 -22,0 -32.11,22.1 -32.21,22.32 l -13.58,3.03 c -12.02,-10.38 -15.98,-25.6 -10.61,-40.69 7.09,-19.93 31.64,-40.55 70.5,-41.68 l 0.96,-0.01 c 41.43,0 84.29,25.64 84.29,68.54 0,46.24 -49.17,93.05 -143.14,93.05 -43.41,0 -93.58,-12.62 -149.13,-37.51 0.88,17.73 33.09,62.86 58.67,64.93 -1.92,-6.3 -9.07,-18.59 -11.69,-23.1 l 5.66,-12.83 c 0.82,-0.18 1.69,-0.26 2.67,-0.26 11.55,0 54.54,12.95 54.54,51.78 -0.02,35.43 -30.6,51.56 -59.01,51.56 z"
     id="path2"
     style="stroke-width:10" />
  <path
     d="m 409.55,270.39 c 3.93,6.77 9.8,18.37 10.13,27.55 l 0.09,2.48 -1.24,2.16 c -0.66,1.14 -1.48,2.38 -2.44,3.81 -5.87,8.79 -18.09,27.09 -18.09,64.19 0,40.96 24.35,68.04 44.77,83.54 25.84,19.61 55.72,28.54 72.54,28.54 4.27,0 41.66,-0.96 41.66,-34.22 0,-15.14 -10.69,-24.16 -20.66,-29.15 4.63,9.92 6.27,17.69 2.71,23.88 -1.87,3.23 -5.82,7.09 -14.09,7.09 -37.94,0 -77.82,-57.64 -77.82,-83.07 0,-13.43 7.94,-18.2 15.37,-18.2 2.12,0 3.08,0.43 8.38,2.81 53.57,24.09 101.59,36.3 142.72,36.3 82.6,0 125.81,-38.09 125.81,-75.71 0,-35.32 -39.16,-51.21 -66.96,-51.21 h -0.63 c -30.33,0.89 -49.55,16.26 -54.49,30.17 -1.63,4.57 -1.77,8.95 -0.48,12.91 7.41,-9.32 20.55,-20.71 40.55,-20.71 8.45,0 20.06,1.58 27.34,9.11 4.27,4.42 6.41,10.28 6.19,16.93 -0.57,16.81 -12.37,36.84 -65.39,36.84 -52.46,0 -108.63,-26.86 -108.63,-66.85 0,-34.97 36.9,-67.3 72.59,-98.56 10.45,-9.16 20.36,-17.83 29.2,-26.43 -0.62,-2.15 -3.43,-6.12 -5.17,-7.74 C 580.66,123.44 522.63,88.68 471.42,57.99 459.3,50.73 447.65,43.75 436.93,37.28 424.66,29.88 398.67,17.34 379.06,17.34 l -0.7,0.01 -0.7,-0.01 c -19.61,0 -45.6,12.54 -57.87,19.94 -10.72,6.47 -22.37,13.46 -34.49,20.71 -51.21,30.68 -109.24,65.45 -142.09,88.86 -1.74,1.62 -4.55,5.6 -5.17,7.74 8.84,8.59 18.75,17.27 29.2,26.43 35.69,31.26 72.59,63.59 72.59,98.56 0,39.99 -56.17,66.85 -108.63,66.85 -53.02,0 -64.82,-20.03 -65.39,-36.84 -0.22,-6.65 1.92,-12.51 6.19,-16.93 7.29,-7.53 18.89,-9.11 27.34,-9.11 20,0 33.14,11.4 40.55,20.71 1.28,-3.96 1.15,-8.34 -0.48,-12.91 -4.94,-13.91 -24.17,-29.28 -54.67,-30.17 h -0.45 c -27.8,0 -66.96,15.89 -66.96,51.21 0,37.63 43.21,75.71 125.81,75.71 41.13,0 89.15,-12.21 142.72,-36.3 5.3,-2.38 6.26,-2.81 8.38,-2.81 7.43,0 15.37,4.78 15.37,18.2 0,25.43 -39.88,83.07 -77.82,83.07 -8.27,0 -12.23,-3.86 -14.09,-7.09 -3.56,-6.19 -1.92,-13.96 2.71,-23.88 -9.97,4.99 -20.65,14.01 -20.65,29.15 0,33.26 37.39,34.22 41.66,34.22 16.83,0 46.7,-8.94 72.54,-28.54 20.42,-15.51 44.77,-42.59 44.77,-83.54 0,-37.1 -12.21,-55.4 -18.09,-64.19 -0.96,-1.43 -1.78,-2.67 -2.44,-3.81 l -1.24,-2.16 0.09,-2.48 c 0.33,-9.18 6.21,-20.78 10.13,-27.55 l -23.61,-33.54 v -2.75 c 0,-30.9 23.55,-54.2 54.79,-54.2 31.24,0 54.79,23.3 54.79,54.2 v 2.74 z"
     id="path4"
     style="stroke-width:10" />
</svg>
