<?xml version="1.0" encoding="UTF-8" standalone="no"?>
<svg
   version="1.1"
   id="Layer_1"
   x="0px"
   y="0px"
   width="775.87469"
   height="500"
   sodipodi:docname="WM.svg"
   inkscape:version="1.1.1 (3bf5ae0d25, 2021-09-20)"
   xmlns:inkscape="http://www.inkscape.org/namespaces/inkscape"
   xmlns:sodipodi="http://sodipodi.sourceforge.net/DTD/sodipodi-0.dtd"
   xmlns="http://www.w3.org/2000/svg"
   xmlns:svg="http://www.w3.org/2000/svg">
  <defs
     id="defs7" />
  <sodipodi:namedview
     id="namedview5"
     pagecolor="#ffffff"
     bordercolor="#666666"
     borderopacity="1.0"
     inkscape:pageshadow="2"
     inkscape:pageopacity="0.0"
     inkscape:pagecheckerboard="0"
     showgrid="false"
     inkscape:zoom="15.64"
     inkscape:cx="36.09335"
     inkscape:cy="23.273657"
     inkscape:window-width="1920"
     inkscape:window-height="986"
     inkscape:window-x="-11"
     inkscape:window-y="-11"
     inkscape:window-maximized="1"
     inkscape:current-layer="Layer_1" />
  <path
     d="m 421.4519,271.90965 c 4.2229,7.27457 10.53039,19.73911 10.88499,29.60329 l 0.0967,2.66483 -1.33241,2.32098 c -0.70919,1.22497 -1.59031,2.55738 -2.62185,4.09396 -6.30749,9.44511 -19.43824,29.109 -19.43824,68.97404 0,44.01272 26.16479,73.11098 48.10668,89.76618 C 484.91361,490.40445 517.02055,500 535.09413,500 c 4.58824,0 44.76489,-1.03155 44.76489,-36.77039 0,-16.26838 -11.48672,-25.96063 -22.19977,-31.32254 4.97507,10.65934 6.73729,19.00843 2.91197,25.65977 -2.00937,3.47073 -6.25376,7.61841 -15.14012,7.61841 -40.76764,0 -83.61987,-61.93587 -83.61987,-89.26115 0,-14.43093 8.53176,-19.55644 16.51551,-19.55644 2.27801,0 3.30955,0.46205 9.00456,3.01943 57.56254,25.88541 109.16144,39.00541 153.35683,39.00541 88.75612,0 135.18654,-40.92882 135.18654,-81.35261 0,-37.95238 -42.07857,-55.02665 -71.95049,-55.02665 h -0.67695 c -32.59048,0.95633 -53.24293,17.47185 -58.55111,32.41855 -1.75148,4.9106 -1.90191,9.61704 -0.51577,13.87217 7.96226,-10.01461 22.08158,-22.2535 43.57216,-22.2535 9.07978,0 21.55506,1.69776 29.37764,9.78896 4.58824,4.74942 6.88773,11.04616 6.65133,18.19178 -0.61248,18.06284 -13.29192,39.58567 -70.26347,39.58567 -56.36981,0 -116.72612,-28.86186 -116.72612,-71.83229 0,-37.57629 39.65013,-72.31583 78.00008,-105.90561 11.22883,-9.84269 21.87742,-19.15886 31.37626,-28.39982 -0.66621,-2.31023 -3.68564,-6.57612 -5.55532,-8.31685 C 605.31462,114.00756 542.95968,76.656924 487.93304,43.679618 474.90974,35.878535 462.39147,28.37832 450.87252,21.426115 437.68804,13.474598 409.76102,0 388.6895,0 L 387.93733,0.0107453 387.18516,0 C 366.11364,0 338.18662,13.474598 325.00215,21.426115 313.48319,28.37832 300.96493,35.88928 287.94163,43.679618 232.91498,76.646179 170.56004,114.00756 135.26176,139.1623 c -1.86969,1.74073 -4.88911,6.01736 -5.55532,8.31685 9.49884,9.23021 20.14742,18.55713 31.37626,28.39982 38.34995,33.58978 78.00008,68.32932 78.00008,105.90561 0,42.97043 -60.35631,71.83229 -116.72612,71.83229 -56.971549,0 -69.650995,-21.52283 -70.263477,-39.58567 -0.236396,-7.14562 2.063097,-13.44236 6.651337,-18.19178 7.833319,-8.0912 20.297859,-9.78896 29.377632,-9.78896 21.490588,0 35.609908,12.24963 43.572168,22.2535 1.3754,-4.25513 1.23571,-8.96157 -0.51578,-13.87217 -5.30817,-14.9467 -25.97137,-31.46222 -58.744516,-32.41855 H 71.950486 C 42.07857,262.01324 0,279.08751 0,317.03989 c 0,40.43454 46.430413,81.35261 135.18654,81.35261 44.19539,0 95.79429,-13.12 153.35683,-39.00541 5.695,-2.55738 6.72655,-3.01943 9.00455,-3.01943 7.98376,0 16.51552,5.13625 16.51552,19.55644 0,27.32528 -42.85223,89.26115 -83.61987,89.26115 -8.88636,0 -13.1415,-4.14768 -15.14012,-7.61841 -3.82533,-6.65134 -2.0631,-15.00043 2.91197,-25.65977 -10.71306,5.36191 -22.18903,15.05416 -22.18903,31.32254 0,35.73884 40.17665,36.77039 44.76489,36.77039 18.08433,0 50.18052,-9.60629 77.94636,-30.66707 21.94189,-16.66595 48.10668,-45.7642 48.10668,-89.76618 0,-39.86504 -13.12,-59.52893 -19.43823,-68.97404 -1.03155,-1.53658 -1.91267,-2.86899 -2.62186,-4.09396 l -1.33241,-2.32098 0.0967,-2.66483 c 0.35459,-9.86418 6.67282,-22.32872 10.88498,-29.60329 l -25.36964,-36.03971 v -2.95496 c 0,-33.20295 25.30517,-58.23949 58.87346,-58.23949 33.5683,0 58.87347,25.03654 58.87347,58.23949 v 2.94421 z"
     id="path2"
     style="stroke-width:10.7453" />
</svg>
