<?xml version="1.0" encoding="UTF-8" standalone="no"?>
<svg xmlns="http://www.w3.org/2000/svg" xmlns:xlink="http://www.w3.org/1999/xlink" height="550.98633" width="565.33984" version="1.1">
    <linearGradient id="g1">
      <stop offset="0" style="stop-color:#7f6e41"/>
      <stop offset="0.2" style="stop-color:#ae975f"/>
      <stop offset="0.5" style="stop-color:#e3cd99"/>
      <stop offset="0.8" style="stop-color:#ae975f"/>
      <stop offset="1" style="stop-color:#7f6e41"/>
    </linearGradient>
    <linearGradient gradientTransform="translate(-650.33006,-91.675781)" gradientUnits="userSpaceOnUse" y2="260.56641" x2="1193.3066" y1="260.56641" x1="672.69336" id="g2" xlink:href="#g1"/>
  <path d="M 244.66994,0 C 119.94355,29.599979 75.400329,143.32719 55.968769,152.91211 38.012349,161.7694 27.021789,147.44452 3.0136889,128.05274 -15.838331,214.79169 58.688269,270.39576 89.738299,303.64063 c 35.146681,37.63111 56.962911,52.9183 45.386721,61.73828 -10.66405,8.12502 -25.52884,-10.12755 -34.74024,-20.26953 -8.544031,89.84824 101.04379,171.17969 182.28516,205.87695 81.2414,-34.69726 190.8292,-116.02871 182.2852,-205.87695 -9.2114,10.14198 -24.0762,28.39455 -34.7403,20.26953 -11.5762,-8.81998 10.2401,-24.10717 45.3867,-61.73828 31.0501,-33.24487 105.5767,-88.84894 86.7246,-175.58789 -24.0081,19.39178 -34.9986,33.71666 -52.955,24.85937 C 489.93954,143.32719 445.39634,29.599979 320.66994,0 v 73.982419 c 0,21.09223 -16.93182,38.080991 -38,38.179691 -21.06818,-0.0987 -38,-17.087461 -38,-38.179691 z"/>
  <path d="M 185.91994,70.214839 74.419939,194.71484 l 37.250001,90.25 86,-12 85,146 85,-146 86,12 37.25,-90.25 -111.5,-124.500001 -96.75,89.750001 z"/>
  <path d="m 184.16994,104.46484 c -32.91176,28.72151 -58.93078,63.83155 -64,132.5 34.57514,-57.0674 70.94508,-78.17398 89.75,-87.75 -11.4911,-11.13092 -18.83225,-18.53496 -25.75,-44.75 z m 197,0 c -6.9177,26.21504 -14.2589,33.61908 -25.75,44.75 18.8049,9.57602 55.1749,30.6826 89.75,87.75 -5.0692,-68.66845 -31.0882,-103.77849 -64,-132.5 z m -98.5,81.94336 c -22.89482,14.48016 -38.36061,28.59538 -52.26758,43.53516 26.04917,40.37444 41.26021,78.82879 52.26758,115.07813 11.00737,-36.24934 26.21841,-74.70369 52.26758,-115.07813 -13.90697,-14.93978 -29.37276,-29.055 -52.26758,-43.53516 z m -93,150.30664 c -7.01073,41.02157 -34.44781,53.54549 -64.22461,50.39649 16.97626,30.02105 36.66618,56.27965 60.67969,78.99023 20.76076,-36.47894 28.72074,-90.95122 3.54492,-129.38672 z m 186,0 c -25.1758,38.4355 -17.2158,92.90778 3.5449,129.38672 24.0135,-22.71058 43.7034,-48.96918 60.6797,-78.99023 -29.7768,3.149 -57.2139,-9.37492 -64.2246,-50.39649 z" style="fill:#ffffff"/>
  <path d="M 224.50392,28.234379 C 135.18054,61.118349 101.67965,129.67891 95.337909,139.56055 c -18.66556,29.08449 -38.16515,44.82699 -72.97461,29.33008 1.64741,71.95757 142.606721,153.61758 136.851561,194.03125 -1.02542,7.20065 -6.25009,11.59144 -13.05078,14.30664 23.71029,-5.80448 42.17775,-25.23236 36.00586,-71.01368 51.77678,70.08466 29.84592,134.08768 10.21875,165.65626 24.98561,22.29677 54.52092,40.99983 90.28125,56.3164 35.7603,-15.31657 65.29565,-34.01963 90.2812,-56.3164 -19.6271,-31.56858 -41.558,-95.5716 10.2188,-165.65626 -6.1719,45.78132 12.2956,65.2092 36.0059,71.01368 -6.8007,-2.7152 -12.0253,-7.10599 -13.0508,-14.30664 -5.7551,-40.41367 135.2041,-122.07368 136.8515,-194.03125 -34.8095,15.49691 -54.309,-0.24559 -72.9746,-29.33008 -6.3417,-9.88164 -39.8426,-78.442201 -129.16598,-111.326171 v 49 c 0,30.935611 -24.90425,55.839841 -55.83985,55.839841 h -2.32617 -2.32617 c -30.93561,0 -55.83985,-24.90423 -55.83985,-55.839841 z m -33.58398,58.73046 c 4.16775,36.465051 22.0089,52.369091 33.5,63.500001 -14.30492,7.32602 -79.42486,40.93262 -112.75,122 -7.86374,-91.61405 26.4336,-145.16575 79.25,-185.500001 z m 183.5,0 c 52.8164,40.334251 87.1137,93.885951 79.25,185.500001 -33.3252,-81.06738 -98.4451,-114.67398 -112.75,-122 11.4911,-11.13091 29.3322,-27.03495 33.5,-63.500001 z m -91.75,87.779301 c 29.9817,17.9723 46.2212,35.94567 62.9043,53.91797 -36.4494,51.17737 -49.4069,101.41453 -62.9043,151.67383 -13.49741,-50.2593 -26.45498,-100.49646 -62.9043,-151.67383 16.68303,-17.9723 32.92255,-35.94567 62.9043,-53.91797 z" style="fill:url(#g2)"/>
</svg>
