<?xml version="1.0" encoding="UTF-8" standalone="no"?>
<svg xmlns="http://www.w3.org/2000/svg" version="1.1" width="600" height="416.7879">
  <path d="m 297.86248,155.58671 c -73.53689,0 -146.97851,14.64546 -201.488204,40.18572 C 34.184649,224.93237 0,266.55882 0,313.01946 c 0,78.28773 139.21523,92.83793 181.91329,95.44554 0.22671,0 0.51247,0 0.73823,0 5.72721,0 10.70428,-3.85783 12.04976,-9.48978 1.39311,-5.81056 -1.53599,-11.85925 -7.07269,-14.27635 -33.91079,-15.02648 -80.64529,-46.18678 -80.64529,-65.48783 0,-5.72721 11.90688,-14.05012 53.24757,-26.32611 39.49511,-11.71637 89.63498,-15.02648 137.63161,-15.63373 47.53226,0.60677 99.81536,4.09596 139.81057,15.68136 48.04425,13.8596 55.30745,22.51591 55.30745,26.27848 0,19.25342 -46.69878,50.46135 -80.70483,65.48783 -5.48907,2.46473 -8.46579,8.46579 -7.02505,14.27635 1.40501,5.63195 6.38208,9.48978 12.04976,9.48978 0.28576,0 0.51152,0 0.79823,0 C 460.74905,405.85739 600,391.30719 600,313.01946 600,214.46623 446.37745,155.58671 297.86295,155.58671 M 457.21271,332.6539 c 2.32184,-2.51235 2.92909,-6.2392 2.32184,-9.63266 -0.60677,-3.44109 -2.55998,-6.41781 -5.48907,-8.32291 -0.97636,-0.60677 -24.59961,-15.71708 -70.51253,-22.56353 -0.60678,-0.0381 -1.15497,-0.0857 -1.76222,-0.0857 -4.65559,0 -8.97779,2.64332 -11.16865,6.83454 -0.64298,1.29785 -16.50294,30.83882 -70.59589,30.9698 -54.09295,-0.13146 -69.95291,-29.67195 -70.65542,-30.9698 -2.14323,-4.19122 -6.51306,-6.83454 -11.15674,-6.83454 -0.5601,0 -1.16688,0.0476 -1.77413,0.0857 -45.85339,6.84645 -69.53617,21.95628 -70.56016,22.56353 -2.88146,1.9051 -4.88182,4.88182 -5.44144,8.32291 -0.59535,3.39346 0,7.07269 2.38137,9.63266 44.36503,48.65151 99.94634,84.13401 157.20652,84.13401 57.20065,0 111.19834,-34.87525 157.20652,-84.13401 m -53.58095,-312.84133 0,0 c 0.32196,0.42865 33.52977,46.60353 41.06682,129.40396 l 0.70203,7.34655 6.78692,2.92909 c 0.22576,0.14288 24.64724,10.59712 46.18678,21.76577 l 16.88396,8.78728 1.20259,-18.96718 C 516.74663,166.79156 521.94993,66.2856 420.22947,1.95273 418.18149,0.65488 415.9549,0 413.68069,0 c -3.40537,0 -6.70358,1.35739 -9.12067,3.95309 -4.09597,4.38173 -4.46508,11.02577 -0.92874,15.85996 M 83.538661,171.07804 C 83.265279,166.79156 78.001962,66.38085 179.57954,2.00036 c 0.0476,0 0.0953,-0.0476 0.0953,-0.0476 2.09561,-1.29785 4.36982,-1.95273 6.65594,-1.95273 3.34584,0 6.64404,1.35739 9.06114,3.95309 4.04834,4.38173 4.46508,11.02577 0.94017,15.82424 l 0.0476,0.0381 c -0.38102,0.42865 -33.5893,46.60353 -41.12636,129.40396 l -0.64297,7.34654 -6.84645,2.9291 c -0.22671,0.14288 -24.64724,10.59712 -46.13916,21.76577 l -16.883951,8.78728 -1.202594,-18.96766 z" style="fill:#808080"/>
  <path d="m 447.35334,325.16448 c 0,0 -21.90866,-14.18109 -65.67834,-20.69416 0,0 -18.22944,37.67337 -81.66928,37.80434 -63.48748,-0.13145 -81.72882,-37.80434 -81.72882,-37.80434 -43.75778,6.51307 -65.61881,20.69416 -65.61881,20.69416 0,0 55.75991,73.25112 147.34763,73.25112 91.52817,0 147.34762,-73.25112 147.34762,-73.25112 m 140.17968,-12.14502 c 0,62.93976 -116.69932,79.82372 -170.23264,83.02667 0,0 91.67106,-40.45958 91.67106,-76.78746 0,-32.79155 -110.50774,-62.23726 -211.15659,-63.48748 -100.60122,1.25022 -206.786762,30.69593 -206.786762,63.48748 0,36.32788 91.623432,76.78746 91.623432,76.78746 -53.53333,-3.20295 -170.232646,-20.08691 -170.232646,-83.02667 0,-89.30159 142.882546,-145.01387 285.395976,-145.01387 142.60869,0 289.71817,55.71228 289.71817,145.01387 m -83.4434,-142.78729 c 0,0 6.19157,-96.6005 -90.45656,-157.81377 0,0 35.43487,47.91328 43.43629,135.67889 0,0 24.83775,10.59712 47.02027,22.13488 M 142.88254,148.09729 C 150.88397,60.33168 186.33074,12.4184 186.33074,12.4184 89.718331,73.63167 95.909908,170.23217 95.909908,170.23217 118.09242,158.69441 142.88254,148.09729 142.88254,148.09729"/>
</svg>
