<?xml version="1.0" encoding="UTF-8" standalone="no"?>
<svg xmlns="http://www.w3.org/2000/svg" xmlns:xlink="http://www.w3.org/1999/xlink" version="1.1" width="600" height="421.74536">
  <linearGradient x1="0" y1="0" x2="1" y2="0" id="linearGradient338" gradientUnits="userSpaceOnUse" gradientTransform="matrix(29.450516,29.450516,29.450516,-29.450516,744.04102,465.146)" spreadMethod="pad">
    <stop style="stop-color:#bf331c" offset="0"/>
    <stop style="stop-color:#d3641c" offset="0.3"/>
    <stop style="stop-color:#f6b91d" offset="0.5"/>
    <stop style="stop-color:#d3641c" offset="0.7"/>
    <stop style="stop-color:#bf331c" offset="1"/>
  </linearGradient>
  <linearGradient x1="0" y1="0" x2="1" y2="0" id="linearGradient3013" xlink:href="#linearGradient338" gradientUnits="userSpaceOnUse" gradientTransform="matrix(29.450516,29.450516,29.450516,-29.450516,744.04102,465.146)" spreadMethod="pad"/>
  <linearGradient x1="0" y1="0" x2="1" y2="0" id="linearGradient3019" xlink:href="#linearGradient338" gradientUnits="userSpaceOnUse" gradientTransform="matrix(29.450516,29.450516,29.450516,-29.450516,744.04102,465.146)" spreadMethod="pad"/>
  <linearGradient x1="0" y1="0" x2="1" y2="0" id="linearGradient3022" xlink:href="#linearGradient338" gradientUnits="userSpaceOnUse" gradientTransform="matrix(354.87481,-354.87481,354.87481,354.87481,122.59655,434.72277)" spreadMethod="pad"/>
  <path d="m 233.56354,289.06426 c 2.02438,1.68698 3.72341,3.75956 4.94044,6.15749 0.51767,1.03628 14.02605,25.65416 61.57483,25.70236 47.44032,-0.0482 60.85183,-24.61788 61.41817,-25.65417 1.18089,-2.25332 2.73532,-4.2295 4.5669,-5.88033 -20.14738,-1.92798 -42.83728,-3.06067 -68.25045,-3.33781 -24.05153,0.27666 -45.3316,1.26523 -64.24989,3.01246 m -113.1603,30.67896 c 1.37368,8.33851 18.36399,23.54545 40.19835,37.37869 -6.59127,-6.21773 -13.13435,-12.79696 -19.53283,-19.80998 -3.80776,-4.24155 -5.36219,-10.12189 -4.2777,-16.29142 0.93989,-5.45859 4.1331,-10.35084 8.7964,-13.4115 -18.64115,6.62743 -23.81054,10.72438 -25.18422,12.13421 m 335.4683,-11.09792 c 3.95236,3.14501 6.59128,7.53116 7.43477,12.42341 1.08448,6.21773 -0.51767,12.14627 -4.3741,16.27937 -6.72383,7.15762 -13.50791,13.9417 -20.32813,20.24378 21.97896,-13.78505 39.21027,-29.04018 40.94545,-37.51124 -1.60263,-1.55443 -7.01302,-5.41039 -23.67799,-11.43532 M 300.03061,421.74535 c -30.78741,0 -62.79186,-10.15804 -94.00102,-29.51012 0.0964,1.97617 -0.0964,4.00055 -0.56682,6.07313 -2.16898,9.0374 -10.21829,15.38768 -19.58104,15.38768 l -0.27763,0 -0.98809,-0.0482 C 141.30879,411.06917 0,396.00683 0,312.69405 0,268.30234 29.281177,228.47753 82.842837,199.2084 l -0.324865,-5.60319 -1.180887,-18.49654 C 81.012221,170.81892 75.45675,68.58784 178.59156,3.20526 181.92938,1.08449 185.64074,0 189.46054,0 c 5.50679,0 10.91718,2.36177 14.72494,6.41053 6.63948,7.14557 7.25402,17.9784 1.51828,25.78671 -0.33739,0.47043 -31.30555,43.63257 -38.41497,121.82416 l -0.66323,7.19377 -0.42126,4.8079 -4.4705,1.92798 -4.79585,2.07257 c 43.21083,-12.00166 92.10919,-18.59294 140.9714,-18.59294 52.57357,0 105.76168,7.53117 152.55132,21.78616 -1.97618,-0.89169 -3.67521,-1.63878 -4.98865,-2.20513 l -7.15762,-3.06066 -4.4705,-1.87978 -0.42223,-4.8561 -0.66226,-7.19377 C 425.69819,76.25156 394.68183,32.61899 394.35648,32.19724 388.6087,24.38893 389.27144,13.6043 395.81452,6.44668 399.67048,2.36177 405.08087,0 410.58766,0 c 3.8198,0 7.57936,1.08449 10.83283,3.10886 102.56847,64.96084 97.61597,167.61366 97.33882,171.95161 l -1.22908,18.54474 -0.42127,7.01303 C 567.15206,228.00759 600,266.00082 600,312.69405 c 0,83.31278 -141.24854,98.37512 -184.55577,100.95379 l -0.24099,0.0482 -1.03629,0 c -9.26635,0 -17.36386,-6.30208 -19.58104,-15.38768 -0.51766,-2.12078 -0.65069,-4.24155 -0.51766,-6.30208 -31.4381,19.62923 -63.1654,29.73907 -94.03716,29.73907" style="fill:#ffffff"/>
  <path d="m 297.95803,159.52819 c -71.55211,0 -142.99577,14.25499 -196.05134,39.11387 -60.478283,28.32924 -93.7600158,68.86499 -93.7600158,114.05199 0,76.20336 135.4646058,90.37401 176.9763958,92.86833 0.241,0 0.482,0.0482 0.75963,0.0482 5.50679,0 10.39903,-3.81981 11.72452,-9.2302 1.36163,-5.69959 -1.50624,-11.57992 -6.88048,-13.92965 -33.04073,-14.59239 -78.50488,-44.95805 -78.50488,-63.69559 0,-5.59114 11.57992,-13.68865 51.81443,-25.64212 38.41497,-11.39918 87.22899,-14.59239 133.92222,-15.20693 46.27149,0.61502 97.14603,4.00055 136.03095,15.24308 46.78964,13.51995 53.85086,21.89461 53.85086,25.60597 0,18.68934 -45.4762,49.1032 -78.51694,63.69559 -5.36219,2.39793 -8.24211,8.23006 -6.86842,13.92965 1.36163,5.41039 6.20568,9.2302 11.71247,9.2302 0.2892,0 0.51863,-0.0482 0.75962,-0.0482 41.5118,-2.49432 176.9764,-16.66497 176.9764,-92.86833 0,-95.88079 -149.44245,-153.16586 -293.94446,-153.16586 m 155.04564,172.2649 c 2.30153,-2.44612 2.86787,-6.06108 2.30153,-9.36274 -0.60249,-3.33782 -2.54252,-6.25389 -5.36219,-8.09752 -0.93989,-0.61502 -23.95514,-15.29128 -68.624,-21.93075 -0.56586,-0.0964 -1.13268,-0.0964 -1.69903,-0.0964 -4.5187,0 -8.7482,2.59072 -10.86898,6.63947 -0.66322,1.26524 -16.09862,30.02827 -68.67219,30.12467 -52.68202,-0.0964 -68.1179,-28.85943 -68.78064,-30.12467 -2.06053,-4.04875 -6.35028,-6.63947 -10.82078,-6.63947 -0.61503,0 -1.18089,0 -1.73518,0.0964 -44.68091,6.63947 -67.69616,21.31621 -68.68425,21.93075 -2.77147,1.84363 -4.69944,4.7597 -5.26579,8.09752 -0.61502,3.30166 0,6.86842 2.25333,9.36274 43.21082,47.35598 97.30267,81.85475 152.98511,81.85475 55.68244,0 108.20781,-33.93243 152.97306,-81.85475 M 400.90101,27.4014 l 0,0 c 0.27763,0.42126 32.61899,45.36775 39.95736,125.90906 l 0.66322,7.20582 6.59128,2.81967 c 0.27763,0.0964 24.05154,10.31468 44.946,21.18367 l 16.42397,8.51925 1.18089,-18.44835 c 0.2892,-4.14515 5.36219,-101.95392 -93.61542,-164.56503 -1.98823,-1.26524 -4.19335,-1.87978 -6.41053,-1.87978 -3.28961,0 -6.49488,1.31343 -8.8446,3.81981 -3.95236,4.2777 -4.3259,10.72438 -0.89169,15.43588 M 89.388325,174.59052 C 89.110696,170.44537 84.026134,72.72095 182.91939,10.07369 c 0,0 0.0482,-0.0482 0.0482,-0.0482 2.02438,-1.26524 4.22951,-1.87978 6.49488,-1.87978 3.24142,0 6.44668,1.31343 8.7964,3.81981 3.95236,4.2777 4.33796,10.72438 0.90326,15.43588 l 0.0386,0 c -0.37306,0.42126 -32.65514,45.36775 -40.00556,125.90906 l -0.66226,7.20582 -6.57923,2.81967 c -0.24099,0.0964 -24.01538,10.31468 -44.90985,21.18367 l -16.47265,8.56745 -1.180887,-18.49655 z"/>
  <path d="m 452.85907,152.22568 c 0,0 24.19614,10.36289 45.75335,21.55721 l 0,0 c 0,0 6.02493,-94.03716 -88.02428,-153.5876 l 0,0 c 0,0 34.55902,46.59683 42.27093,132.03039 m -351.42232,21.55721 c 21.60541,-11.19432 45.70514,-21.55721 45.70514,-21.55721 l 0,0 C 154.96226,66.79212 189.46103,20.19529 189.46103,20.19529 l 0,0 c -94.049218,59.55044 -88.02428,153.5876 -88.02428,153.5876 M 20.196541,312.69376 c 0,61.23743 113.630249,77.6614 165.685669,80.81846 l 0,0 c 0,0 -89.193112,-39.40306 -89.193112,-74.75737 l 0,0 c 0,-31.90805 103.315562,-60.52649 201.268932,-61.75557 l 0,0 c 97.90517,1.22908 205.41409,29.84752 205.41409,61.75557 l 0,0 c 0,35.35431 -89.15697,74.75737 -89.15697,74.75737 l 0,0 c 52.01927,-3.15706 165.63747,-19.58103 165.63747,-80.81846 l 0,0 c 0,-86.89159 -143.18857,-141.06779 -281.89459,-141.06779 l 0,0 c -138.71807,0 -277.761489,54.1762 -277.761489,141.06779 M 300.03061,341.1676 c -61.75557,-0.1446 -79.50503,-36.81234 -79.50503,-36.81234 l 0,0 c -42.59628,6.35028 -63.87634,20.14737 -63.87634,20.14737 l 0,0 c 0,0 54.2726,71.31112 143.38137,71.31112 l 0,0 c 89.09671,0 143.36932,-71.31112 143.36932,-71.31112 l 0,0 c 0,0 -21.28007,-13.79709 -63.87635,-20.14737 l 0,0 c 0,0 -17.7374,36.66774 -79.49297,36.81234" style="fill:url(#linearGradient3022)"/>
</svg>
