<?xml version="1.0" encoding="UTF-8" standalone="no"?>
<svg xmlns="http://www.w3.org/2000/svg" version="1.1" id="Layer_1" x="0px" y="0px" width="69.221046" height="28.000221" viewBox="0 0 69.221046 28.000221">
  <g transform="rotate(-90,14.000111,14.000111)">
    <g transform="rotate(90,19.500606,19.500606)">
      <path d="m 43.756,36.677 -10e-4,1.518 -22.666,0.003 v -1.521 c 1.5,0 2.364,0.043 2.292,-1.968 -0.073,-2.001 0.029,-18.27 0.029,-18.27 L 15.59,34.342 13.032,34.341 5.71,16.439 5.709,34.795 c 0.012,0.403 0.073,1.527 1.445,1.761 0.083,0.013 0.905,0.121 0.905,0.121 v 1.521 L 0.011,38.231 0,36.677 c 0,0 1.228,-0.127 1.655,-0.355 C 2.24,36.01 2.686,35.512 2.686,34.796 2.683,31.93 2.684,19.678 2.685,16.422 2.687,13.604 2.386,13.369 0,13.304 l 0.007,-1.628 h 10.319 l 6.204,15.758 7.026,-15.758 c 0,0 15.205,0.11 22.684,0.089 2.172,-0.007 5.529,0.634 6.57,3.557 0.911,-1.44 2.945,-4.319 7.996,-4.321 4.028,-0.002 4.568,0.287 6.91,1.301 l 0.011,4.62 H 65.86 c -0.589,-3.319 -1.556,-4.292 -4.936,-4.188 -2.802,0.088 -3.459,2.861 -3.205,4.821 0.128,0.987 0.74,2.304 2.603,3.462 4.209,2.622 8.698,4.359 8.894,10.093 0.156,4.813 -3.318,7.456 -8.791,7.85 -2.979,0.216 -5.256,-0.46 -8.108,-1.029 0,-1.613 -0.011,-5.107 -0.017,-5.335 0.229,0.007 2.078,0.028 2.156,0 0.294,2.307 0.265,4.639 5.684,4.753 1.107,0.023 4.018,-1.035 3.985,-4.297 0.063,-5.587 -7.699,-4.94 -11.081,-11.644 -0.514,1.396 -1.524,3.004 -3.443,4.055 -2.119,1.159 -4.3,1.51 -8.963,1.523 0,0 -0.007,6.889 -0.004,7.688 0.006,1.864 1.007,1.959 3.122,2.003 z M 34.623,15.2 c 0,-1.544 -1.424,-1.682 -2.604,-1.682 -1.181,0 -2.573,0.061 -2.573,1.712 0.014,6.617 0.009,19.604 0.009,19.604 0,1.419 1.406,1.63 2.571,1.63 1.034,0 2.599,-0.181 2.599,-1.561 C 34.572,31.704 34.623,18.475 34.623,15.2 Z m 6.016,10 c 4.116,0 6.821,-0.529 6.821,-5.911 0,-5.452 -2.754,-5.893 -6.821,-5.893 z"/>
    </g>
  </g>
</svg>
