<?xml version="1.0" encoding="UTF-8" standalone="no"?>
<svg xmlns="http://www.w3.org/2000/svg" xmlns:xlink="http://www.w3.org/1999/xlink" version="1.1" width="600" height="691.63635">
  <radialGradient cx="0" cy="0" r="1" fx="0" fy="0" id="radialGradient384" gradientUnits="userSpaceOnUse" gradientTransform="matrix(16.34938,0,0,-16.34938,400.66504,370.1333)" spreadMethod="pad">
    <stop style="stop-color:#d9eaf3" offset="0"/>
    <stop style="stop-color:#99aebc" offset="0.66291797"/>
    <stop style="stop-color:#536e78" offset="1"/>
  </radialGradient>
  <radialGradient cx="0" cy="0" r="1" fx="0" fy="0" id="radialGradient2995" xlink:href="#radialGradient384" gradientUnits="userSpaceOnUse" gradientTransform="matrix(16.34938,0,0,-16.34938,400.66504,370.1333)" spreadMethod="pad"/>
  <radialGradient cx="0" cy="0" r="1" fx="0" fy="0" id="radialGradient2998" xlink:href="#radialGradient384" gradientUnits="userSpaceOnUse" gradientTransform="matrix(282.70636,0,0,282.70636,303.83077,345.80402)" spreadMethod="pad"/>
  <path d="m 424.71541,376.88215 c -1.55624,19.91989 -5.46413,39.25186 -11.87931,56.80279 -7.3662,20.12738 -20.05821,42.34705 -35.39583,57.47716 -27.56275,27.16505 -64.09983,41.48247 -96.19297,49.24638 1.76374,-27.28609 3.31998,-50.85449 5.20476,-80.92452 l 59.31007,0 36.13937,-138.86856 c -36.81375,-14.99178 -78.62475,-32.49085 -93.01133,-38.36998 l 0,-117.58264 c 30.86544,10.2539 56.87196,24.10444 76.861,42.00121 44.37016,39.85706 63.63296,108.14145 58.96424,170.21816 M 52.808438,2.2777015 7.62558,6.4622615 c 0,0 88.359895,252.2839185 99.96253,285.5874785 -23.896937,9.11265 -32.075847,24.10444 -34.652291,34.51396 l -10.997435,44.04162 15.268452,0 c -0.484164,1.4179 -26.957549,80.85535 -26.957549,80.85535 l 54.105303,0 C 97.334217,490.15919 90.106343,530.34479 84.901582,559.58482 68.561054,559.25559 58.549238,558.11504 58.359031,558.11504 L 25.868181,554.25902 19.383844,586.33487 0,683.34055 38.300816,687.66344 C 50.785325,689.08135 345.41629,720.62116 503.34015,579.59116 567.50915,522.23505 600,445.37404 600,350.94481 600,255.0285 567.23249,176.54209 502.66578,117.64702 347.99274,-23.313818 64.843367,1.2056215 52.808438,2.2777015" style="fill:#ffffff"/>
  <path d="m 55.782587,33.679182 -5.066428,0.48416 61.333181,175.267298 c 0,0 22.77299,-99.08066 24.05256,-104.82146 16.54803,0 41.88017,0.2075 69.84063,2.76665 0.32924,5.87913 12.89951,464.64163 12.89951,464.64163 l 20.80175,-2.02312 c 0,0 9.25099,-143.26061 9.66599,-150.09077 l 66.05378,0 9.92535,-37.41895 -76.0483,0 0,-37.74748 74.09436,0 -74.09436,-35.88 0,-195.39468 c 59.77694,10.92827 107.93395,32.28335 142.98395,63.754 47.69013,42.76204 71.81187,104.49292 71.81187,183.58454 0,66.8146 -19.79884,120.24554 -58.8432,158.59823 -43.02141,42.4162 -102.40064,59.0334 -144.47102,65.51773 -23.91423,3.64853 -44.99265,4.46123 -58.49736,4.59956 0,0 -14.52492,-0.46618 -19.98905,-0.67368 l 0,-427.49935 c 0,0 -23.70674,148.46538 -24.86527,154.20618 -47.81118,0.67368 -53.36177,16.82469 -53.82864,18.6403 l -1.76374,8.17891 51.68449,0 -5.80997,40.11643 -41.2058,0 -12.432633,37.41895 48.035963,0 c -1.55624,8.64578 -29.7242,165.0134 -30.7444,170.89253 -33.770424,1.27957 -56.387791,-1.34874 -56.664456,-1.41791 l -3.64852,-0.39701 -0.742846,3.57935 -12.622842,63.28713 4.253725,0.53534 c 0.744229,0.0692 73.817689,8.10975 164.062369,-0.13833 83.48367,-7.62558 199.18153,-31.26315 276.45753,-100.2392 57.07946,-50.99282 86.06012,-120.02075 86.06012,-205.06066 0,-86.66532 -29.25733,-157.31866 -87.06303,-209.98876 C 405.79913,72.049852 294.02646,46.527502 213.63797,37.259232 126.71328,27.333872 56.45765,33.610712 55.783279,33.679872" style="fill:#536e78"/>
  <path d="M 61.402346,41.045392 110.4931,181.47018 c 6.89933,-29.84524 17.17052,-74.83789 18.0351,-78.62474 l 0,0 1.34874,-6.000168 6.22496,0 c 19.91989,0 43.90329,0.32853 70.51501,2.83581 l 0,0 6.62266,0.536038 0.46688,6.62267 c 0.34583,5.60247 10.94556,392.50122 12.7093,456.60105 l 0,0 5.86184,-0.53604 c 1.8329,-28.23712 8.85328,-137.58897 9.25098,-143.60644 l 0,0 0.55333,-7.15871 7.29704,0 59.96715,0 5.80997,-21.87383 -65.91545,0 -7.76391,0 0,-7.7812 0,-37.74748 0,-7.83308 7.76391,0 40.11643,0 -43.55745,-21.07842 -4.32289,-2.09228 0,-4.87622 0,-195.39468 0,-9.38932 9.18182,1.74645 c 61.33318,11.22222 110.7006,33.30355 146.70163,65.5869 l 0,0 c 49.45388,44.31828 74.50936,108.00311 74.50936,189.39451 l 0,0 c 0,69.04522 -20.61155,124.29177 -61.19485,164.14882 l 0,0 C 366.21805,568.78394 305.2307,585.93717 261.93262,592.629 l 0,0 c -19.31468,2.95686 -39.30373,4.5131 -59.98444,4.65143 l 0,0 -20.05821,-0.67437 -7.41808,-0.27666 0,-7.48725 0,-329.62909 c -4.87622,29.86253 -8.99162,55.45404 -9.45849,57.89215 l 0,0 -1.34874,6.08664 -6.22496,0.12173 c -30.32941,0.415 -42.27788,7.50454 -45.45953,11.22222 l 0,0 41.48247,0 8.97432,0 -1.27958,8.90516 -5.80996,40.20289 -1.00291,6.62267 -6.69184,0 -35.53417,0 -7.3662,21.87383 37.2979,0 9.32016,0 -1.62541,9.11265 c -1.55624,8.71495 -29.79337,165.0134 -30.79628,170.89253 l 0,0 -1.15853,6.1558 -6.20767,0.25937 c -6.83017,0.27667 -13.245342,0.34583 -19.124474,0.34583 l 0,0 c -16.409695,-6.9e-4 -29.378368,-0.81339 -35.2575,-1.34943 l 0,0 -10.253898,51.45969 c 10.876394,1.08937 38.283524,3.18165 75.581432,3.18165 l 0,0 c 28.16796,0 55.99008,-1.21041 82.74013,-3.71768 l 0,0 c 82.27327,-7.48725 196.20739,-30.65795 271.92715,-98.21609 l 0,0 c 55.40217,-49.57491 83.50096,-116.64889 83.50096,-199.31986 l 0,0 c 0,-84.36555 -28.44462,-153.11681 -84.50387,-204.24796 l 0,0 C 402.09804,79.207872 291.98536,54.083232 212.75541,45.039742 l 0,0 c -32.21418,-3.71769 -65.77711,-5.61976 -99.8242,-5.61976 l 0,0 c -24.242775,0 -42.485376,1.0202 -51.528864,1.62541" style="fill:url(#radialGradient2998)"/>
</svg>
