<?xml version="1.0" encoding="UTF-8" standalone="no"?>
<svg xmlns="http://www.w3.org/2000/svg" version="1.1" width="600" height="691.63635">
  <path d="m 55.782587,33.679182 -5.066428,0.48416 61.333181,175.267298 c 0,0 22.77299,-99.08066 24.12173,-104.82146 16.47886,0 41.811,0.2075 69.77146,2.76665 0.32924,5.87913 12.89951,464.64163 12.89951,464.64163 l 20.80175,-2.02311 c 0,0 9.25099,-143.26062 9.73515,-150.09078 l 65.98462,0 9.92535,-37.41895 -76.0483,0 0,-37.74748 74.09436,0 -74.09436,-35.88 0,-195.39468 c 59.77694,10.92827 107.93395,32.28335 142.98395,63.754 47.62097,42.76204 71.81187,104.49292 71.81187,183.58454 0,66.8146 -19.79884,120.24554 -58.8432,158.59823 -43.09058,42.41621 -102.33148,59.0334 -144.47102,65.51774 -23.9834,3.64852 -44.99265,4.46122 -58.49736,4.59956 0,0 -14.52492,-0.46619 -19.98905,-0.67368 l 0,-427.49936 c 0,0 -23.70674,148.46538 -24.86527,154.20618 -47.81118,0.67368 -53.36177,16.82469 -53.82864,18.6403 l -1.76374,8.17891 51.68449,0 -5.80997,40.11643 -41.2058,0 -12.432633,37.41895 48.087843,0 c -1.60812,8.64578 -29.77608,165.0134 -30.79628,170.89253 -33.770424,1.27958 -56.387791,-1.34874 -56.664456,-1.41791 l -3.64852,-0.39701 -0.742846,3.57935 -12.622842,63.28713 4.253725,0.53535 c 0.744229,0.0692 73.817689,8.10974 164.062369,-0.13834 83.48367,-7.62558 199.18153,-31.26314 276.38836,-100.2392 57.14863,-50.99282 86.19845,-120.02075 86.19845,-205.06066 0,-86.66532 -29.32649,-157.31866 -87.13219,-209.98876 C 405.79913,72.049852 294.09562,46.527502 213.63797,37.259232 126.71328,27.333872 56.45765,33.610712 55.783279,33.679872"/>
</svg>
