<?xml version="1.0" encoding="UTF-8" standalone="no"?>
<!DOCTYPE svg PUBLIC "-//W3C//DTD SVG 1.1//EN" "http://www.w3.org/Graphics/SVG/1.1/DTD/svg11.dtd">
<svg width="100%" height="100%" viewBox="0 0 1000 1000" version="1.1" xmlns="http://www.w3.org/2000/svg" xmlns:xlink="http://www.w3.org/1999/xlink" xml:space="preserve" xmlns:serif="http://www.serif.com/" style="fill-rule:evenodd;clip-rule:evenodd;stroke-linejoin:round;stroke-miterlimit:2;">
    <g transform="matrix(1,0,0,1,-3207,0)">
        <g id="C" transform="matrix(1,0,0,1,-0.444444,0)">
            <rect x="3207.44" y="0" width="1000" height="1000" style="fill:none;"/>
            <g transform="matrix(1,0,0,1,3207.44,0)">
                <g transform="matrix(0.805339,0,0,0.798018,272.637,-1.02707)">
                    <path d="M428.583,885.417C428.583,885.417 453.128,809.434 530.4,807.485L578.986,745.424L627.831,807.864C627.831,807.864 694.581,799.915 729.545,885.957C729.545,885.957 773.623,885.502 793.213,940.216L793.216,940.216L793.216,940.222L793.216,1215.99L428.583,1215.99L428.583,1216.15L-229.55,1216.15L-229.55,678.148L-145.446,678.148L-145.446,633.945L-85.138,633.945L-3.275,271.922L79.132,633.945L203.412,633.945L203.412,363.808L159.556,363.808L316.135,80.549L474.13,363.808L428.594,363.808L428.594,498.139L428.594,503.817L620.368,503.817L620.368,376.28L688.664,282.929L756.96,376.28L756.96,503.817L756.966,503.817L756.967,597.749L756.966,597.759L756.958,597.759L689.416,679.982L621.873,597.759L428.594,597.759L428.595,777.727L428.583,777.727L428.583,940.216L428.652,940.216L428.583,885.417Z"/>
                </g>
                <g>
                    <g transform="matrix(0.890773,0,0,0.899876,-31.1703,-1.56067)">
                        <circle cx="338.433" cy="664.928" r="72.144" style="fill:white;"/>
                    </g>
                    <g transform="matrix(0.890773,0,0,0.899876,226.088,-157.19)">
                        <circle cx="338.433" cy="664.928" r="72.144" style="fill:white;"/>
                    </g>
                    <g transform="matrix(0.890773,0,0,0.899876,437.773,167.53)">
                        <circle cx="338.433" cy="664.928" r="72.144" style="fill:white;"/>
                    </g>
                    <g transform="matrix(0.621572,0,0,0.627924,59.9363,179.268)">
                        <circle cx="338.433" cy="664.928" r="72.144" style="fill:white;"/>
                    </g>
                    <g transform="matrix(0.621572,0,0,0.627924,317.194,23.6388)">
                        <circle cx="338.433" cy="664.928" r="72.144" style="fill:white;"/>
                    </g>
                    <g transform="matrix(0.621572,0,0,0.627924,528.879,348.359)">
                        <circle cx="338.433" cy="664.928" r="72.144" style="fill:white;"/>
                    </g>
                </g>
            </g>
        </g>
    </g>
</svg>
