<?xml version="1.0" encoding="utf-8"?>
<svg xmlns="http://www.w3.org/2000/svg" xmlns:xlink="http://www.w3.org/1999/xlink" version="1.1" id="Layer_1" x="0px" y="0px" width="49.041px" height="50px">
  <g id="layer1_6_" transform="translate(-49.013669,-176.87695)">
    <path fill="#ffffff" d="M73.534,176.877c-13.282,0-23.07,0.272-23.07,0.272l-1.243,0.034l-0.161,1.233   c-0.184,1.407,0.184,2.707,0.853,3.678c0.669,0.972,1.58,1.637,2.489,2.121c0.088,0.047,0.175,0.085,0.263,0.129   c-0.085,0.051-0.17,0.097-0.254,0.149c-1.565,0.992-3.121,2.759-3.037,5.213c0.081,2.341,1.407,4.288,3.297,5.44   c1.89,1.152,4.307,1.65,6.961,1.607c2.738-0.045,4.624-0.937,5.646-2.271c0.545-0.712,0.816-1.479,0.902-2.213   c0.033,0.234,0.054,0.47,0.054,0.701v14.614c0,1.72-0.102,3.242-0.284,4.564c-0.296-1.211-0.934-2.348-1.938-3.213   c-1.292-1.113-3.126-1.73-5.333-1.694c-2.279,0.037-4.655,0.882-6.492,2.617c-1.837,1.734-3.069,4.38-3.053,7.711   c0.017,3.459,1.874,6,4.254,7.415s5.23,1.897,7.756,1.891c5.125-0.014,8.396-1.786,10.033-4.69   c1.637-2.905,1.779-6.524,1.914-10.453c0.164-4.82,0.318-9.124,0.441-12.677c0.123,3.553,0.277,7.856,0.441,12.677   c0.134,3.929,0.276,7.548,1.913,10.453c1.637,2.904,4.909,4.677,10.033,4.69c2.526,0.007,5.376-0.476,7.756-1.891   c2.38-1.415,4.237-3.956,4.254-7.415c0.017-3.331-1.215-5.977-3.053-7.711c-1.837-1.735-4.213-2.58-6.492-2.617   c-2.207-0.036-4.041,0.581-5.333,1.694c-1.003,0.865-1.641,2.002-1.938,3.213c-0.182-1.322-0.283-2.845-0.283-4.564v-14.614   c0-0.231,0.021-0.467,0.054-0.701c0.086,0.734,0.357,1.501,0.902,2.213c1.021,1.335,2.908,2.227,5.646,2.271   c2.655,0.043,5.071-0.455,6.961-1.607s3.216-3.1,3.297-5.44c0.084-2.454-1.471-4.221-3.037-5.213   c-0.084-0.053-0.169-0.099-0.254-0.149c0.088-0.044,0.175-0.082,0.263-0.129c0.91-0.484,1.82-1.149,2.489-2.121   c0.669-0.971,1.037-2.271,0.853-3.678l-0.161-1.233l-1.243-0.034C96.604,177.149,86.816,176.877,73.534,176.877z"/>
    <path d="M73.534,178.334c-13.262,0-23.029,0.271-23.029,0.271   c-0.562,4.313,5.294,5.391,6.468,5.491c-1.768,0.654-6.27,1.835-6.142,5.56s3.877,5.722,8.778,5.642s5.458-2.989,5.028-4.387   c-0.429-1.397-2.086-2.35-3.335-2.338c-1.25,0.013-2.52,0.626-2.521,1.794c0,1.168,1.242,1.509,2.305,1.576   c-0.801-0.89-0.548-1.461,0.02-1.712c0.567-0.25,1.403,0.143,1.359,1.18c-0.044,1.038-1.385,1.273-2.521,1.192   c-1.136-0.081-2.882-0.792-2.793-2.341c0.09-1.549,2.049-2.907,5.524-2.858c3.475,0.049,5.016,2.957,5.016,5.567v14.614   c0,7.741-1.76,12.13-5.961,12.08c-4.2-0.049-5.762-2.591-5.816-4.305s1.426-2.978,3.18-3.027c1.754-0.049,2.555,0.903,2.582,1.811   c0.027,0.906-0.529,1.384-1.604,1.375s-1.676-1.232-0.571-1.479c-0.625-0.494-1.125-0.453-1.685,0.533s0.898,3.368,3.502,3.288   s3.555-2.013,3.354-4.538s-2.106-4.688-5.969-4.624c-3.863,0.063-8.142,2.899-8.112,8.864c0.029,5.964,5.899,7.869,10.549,7.856   c9.655-0.027,10.228-5.926,10.495-13.737s0.564-15.628,0.615-18.022s-0.195-3.655,1.283-3.655s1.232,1.261,1.282,3.655   s0.349,10.211,0.615,18.022c0.267,7.812,0.839,13.71,10.495,13.737c4.65,0.013,10.52-1.893,10.549-7.856   c0.029-5.965-4.249-8.802-8.112-8.864c-3.863-0.063-5.769,2.099-5.969,4.624s0.75,4.458,3.354,4.538s4.063-2.302,3.502-3.288   s-1.06-1.027-1.685-0.533c1.105,0.246,0.504,1.47-0.571,1.479c-1.074,0.009-1.63-0.469-1.604-1.375   c0.027-0.907,0.828-1.859,2.582-1.811c1.754,0.05,3.234,1.313,3.18,3.027s-1.616,4.256-5.816,4.305   c-4.201,0.05-5.961-4.339-5.961-12.08v-14.614c0-2.61,1.542-5.519,5.017-5.567c3.475-0.049,5.435,1.31,5.524,2.858   s-1.657,2.26-2.792,2.341c-1.136,0.081-2.477-0.154-2.521-1.192c-0.044-1.037,0.792-1.43,1.359-1.18   c0.567,0.251,0.82,0.822,0.02,1.712c1.063-0.067,2.306-0.408,2.305-1.576s-1.271-1.781-2.521-1.794   c-1.249-0.012-2.906,0.94-3.335,2.338c-0.429,1.397,0.127,4.307,5.028,4.387c4.901,0.08,8.65-1.917,8.778-5.642   c0.128-3.725-4.374-4.905-6.142-5.56c1.174-0.101,7.03-1.179,6.468-5.491C96.563,178.605,86.796,178.334,73.534,178.334z"/>
  </g>
</svg>
