<?xml version="1.0" encoding="utf-8"?>
<svg xmlns="http://www.w3.org/2000/svg" xmlns:xlink="http://www.w3.org/1999/xlink" version="1.1" id="Layer_1" x="0px" y="0px" width="49.041px" height="50px">
  <g id="layer1_6_" transform="translate(-49.013669,-176.87695)">
    <path d="M73.534,178.334c-13.262,0-23.029,0.271-23.029,0.271   c-0.562,4.313,5.294,5.391,6.468,5.491c-1.768,0.654-6.27,1.835-6.142,5.56s3.877,5.722,8.778,5.642s5.458-2.989,5.028-4.387   c-0.429-1.397-2.086-2.35-3.335-2.338c-1.25,0.013-2.52,0.626-2.521,1.794c0,1.168,1.242,1.509,2.305,1.576   c-0.801-0.89-0.548-1.461,0.02-1.712c0.567-0.25,1.403,0.143,1.359,1.18c-0.044,1.038-1.385,1.273-2.521,1.192   c-1.136-0.081-2.882-0.792-2.793-2.341c0.09-1.549,2.049-2.907,5.524-2.858c3.475,0.049,5.016,2.957,5.016,5.567v14.614   c0,7.741-1.76,12.13-5.961,12.08c-4.2-0.049-5.762-2.591-5.816-4.305s1.426-2.978,3.18-3.027c1.754-0.049,2.555,0.903,2.582,1.811   c0.027,0.906-0.529,1.384-1.604,1.375s-1.676-1.232-0.571-1.479c-0.625-0.494-1.125-0.453-1.685,0.533s0.898,3.368,3.502,3.288   s3.555-2.013,3.354-4.538s-2.106-4.688-5.969-4.624c-3.863,0.063-8.142,2.899-8.112,8.864c0.029,5.964,5.899,7.869,10.549,7.856   c9.655-0.027,10.228-5.926,10.495-13.737s0.564-15.628,0.615-18.022s-0.195-3.655,1.283-3.655s1.232,1.261,1.282,3.655   s0.349,10.211,0.615,18.022c0.267,7.812,0.839,13.71,10.495,13.737c4.65,0.013,10.52-1.893,10.549-7.856   c0.029-5.965-4.249-8.802-8.112-8.864c-3.863-0.063-5.769,2.099-5.969,4.624s0.75,4.458,3.354,4.538s4.063-2.302,3.502-3.288   s-1.06-1.027-1.685-0.533c1.105,0.246,0.504,1.47-0.571,1.479c-1.074,0.009-1.63-0.469-1.604-1.375   c0.027-0.907,0.828-1.859,2.582-1.811c1.754,0.05,3.234,1.313,3.18,3.027s-1.616,4.256-5.816,4.305   c-4.201,0.05-5.961-4.339-5.961-12.08v-14.614c0-2.61,1.542-5.519,5.017-5.567c3.475-0.049,5.435,1.31,5.524,2.858   s-1.657,2.26-2.792,2.341c-1.136,0.081-2.477-0.154-2.521-1.192c-0.044-1.037,0.792-1.43,1.359-1.18   c0.567,0.251,0.82,0.822,0.02,1.712c1.063-0.067,2.306-0.408,2.305-1.576s-1.271-1.781-2.521-1.794   c-1.249-0.012-2.906,0.94-3.335,2.338c-0.429,1.397,0.127,4.307,5.028,4.387c4.901,0.08,8.65-1.917,8.778-5.642   c0.128-3.725-4.374-4.905-6.142-5.56c1.174-0.101,7.03-1.179,6.468-5.491C96.563,178.605,86.796,178.334,73.534,178.334z"/>
  </g>
</svg>
