<?xml version="1.0" encoding="UTF-8" standalone="no"?>
<svg xmlns="http://www.w3.org/2000/svg" version="1.1" width="600" height="487.85431" viewBox="0 0 600.00001 487.8543" id="Layer_1">
  <g transform="matrix(9.756891,0,0,9.756891,-3.3893761e-6,0.00975965)" id="g3">
    <path d="M 5.2930003,27.117 C 5.2930003,10.36 16.254,0.05999965 28.446,0.05999965 c 0,0 0.09,0.931 -0.09,1.87600005 -0.162,0.851 -3.493,2.883 -3.469,6.689 C 24.909,12.094 27.386,14.594 30.81,14.594 c 3.244,0 5.924,-2.522 5.924,-5.9690003 0,-3.514 -3.262,-5.65 -3.446,-6.712 -0.175,-1.01000005 -0.09,-1.26100005 -0.09,-1.91400005 9.662,0 23.131,8.01800005 23.131,27.11700035 -6.142,-0.421 -9.531,3.186 -10.165,4.955 4.744,5.465 8.588,4.984 15.331,4.984 C 61.146,37.907 47.962,50 47.962,50 L 13.739,49.973 3.473828e-7,37.005 C 7.4550003,37.005 11.96,36.847 15.181,32.05 13.886,26.712 5.2930003,27.117 5.2930003,27.117 z" style="fill:#ffffff"/>
    <path d="m 44.813,34.245 c 5.796,4.523 7.731,4.69 11.849,4.836 -2.473,2.37 -6.05,5.71 -9.494,8.875 L 14.552,47.93 5.0489997,38.961 C 9.9299997,38.694 10.305,39.268 16.655,34.245 H 44.813 z M 44.78,30.284 c 1.352,-2.202 4.548,-4.848 9.45,-5.203 -0.491,-8.876 -4.152,-14.229 -7.258,-17.2109997 -3.061,-2.938 -6.995,-4.923 -10.931,-5.584 1.121,1.339 2.735,3.447 2.735,6.34 0,4.4919997 -3.499,8.0119997 -7.967,8.0119997 -4.512,0 -7.937,-3.438 -7.966,-7.9979997 -0.019,-2.904 1.435,-4.979 2.571,-6.302 -4.405,0.69 -8.448,2.883 -11.609,6.345 C 11.79,10.889 10.211,13.527 9.1129997,16.524 c -0.974,2.655 -1.551,5.546 -1.724,8.617 C 10.271,25.386 14.93,26.404 16.673,30.3 L 44.78,30.284 z"/>
  </g>
</svg>
