<?xml version="1.0" encoding="UTF-8" standalone="no"?>
<svg xmlns="http://www.w3.org/2000/svg" xmlns:xlink="http://www.w3.org/1999/xlink" version="1.1" width="600" height="487.85431" viewBox="0 0 600.00001 487.85431" id="Layer_1">
  <radialGradient cx="-8.3114996" cy="46.367199" r="68.588097" fx="-10.8441" fy="46.2738" id="SVGID_2_" gradientUnits="userSpaceOnUse" gradientTransform="matrix(0.9668,-0.2556,0.2468,0.9337,-11.7209,0.9495)">
    <stop offset="0.45" style="stop-color:#8b723c"/>
    <stop offset="0.7" style="stop-color:#ebd491"/>
    <stop offset="0.95" style="stop-color:#8b723c"/>
  </radialGradient>
  <radialGradient cx="-8.3114996" cy="46.367199" r="68.588097" fx="-10.8441" fy="46.2738" id="radialGradient3014" xlink:href="#SVGID_2_" gradientUnits="userSpaceOnUse" gradientTransform="matrix(9.4329622,-2.4938613,2.4080007,9.1100091,-114.35954,9.2739296)"/>
  <path d="m 51.643224,264.58737 c 0,-163.49622 106.945286,-263.99220043 225.891536,-263.99220043 0,0 0.88788,9.08367003 -0.87812,18.30393043 -1.58061,8.30312 -34.08082,28.12912 -33.84665,65.26385 0.21465,33.84665 24.38247,58.23888 57.79982,58.23888 31.6416,0 57.79982,-24.60688 57.79982,-58.23888 0,-34.28572 -31.83673,-55.12644 -33.62224,-65.48826 C 323.07993,8.8202296 323.90927,6.3712496 323.90927,-4.3422842e-7 418.18035,-4.3422842e-7 549.58615,78.23076 549.58615,264.57762 c -59.91706,-4.10765 -92.98317,31.08545 -99.17879,48.34539 46.29645,53.32141 83.80193,48.62835 149.59265,48.62835 C 596.59486,369.86423 467.96,487.85431 467.96,487.85431 L 134.04017,487.59087 0,361.06351 c 72.737622,0 116.68266,-1.54159 148.1096,-48.34539 -12.63517,-52.08229 -96.466376,-48.13075 -96.466376,-48.13075 z"/>
  <path d="m 437.2258,334.13449 c 56.55094,44.13042 75.43052,45.75982 115.61916,47.18433 -24.1288,23.12383 -59.03895,55.71184 -92.63193,86.5924 L 141.97252,467.65755 49.26254,380.14799 c 47.613628,-2.60509 51.27246,2.99537 113.23848,-46.0135 H 437.2258 z m -0.32198,-38.64704 c 13.20107,-21.48468 44.3841,-47.30141 92.21238,-50.76511 C 524.31581,158.12018 488.59583,105.89154 458.29093,76.79649 428.42508,48.13075 390.04147,28.76332 351.64811,22.31401 c 10.92772,13.06448 26.68509,33.63201 26.68509,61.85869 0,43.82796 -34.14911,78.17221 -77.73315,78.17221 -44.02309,0 -77.44044,-33.54419 -77.73315,-78.03561 -0.18538,-28.33401 14.00114,-48.57956 25.08497,-61.48793 -42.96935,6.73226 -82.42621,28.12912 -113.26775,61.90748 -19.66013,21.5237 -35.056506,47.26238 -45.769575,76.50378 -9.512969,25.90454 -15.142695,54.11172 -16.820881,84.07513 28.119366,2.39044 73.576716,12.32295 90.573226,50.3358 l 274.23693,-0.15611 z" style="fill:url(#radialGradient3014)"/>
</svg>
