<?xml version="1.0" encoding="UTF-8" standalone="no"?>
<svg xmlns="http://www.w3.org/2000/svg" xmlns:xlink="http://www.w3.org/1999/xlink" version="1.1" width="600" height="487.85428" viewBox="0 0 600.00001 487.85428" id="Layer_1">
  <radialGradient cx="-8.3114996" cy="46.367199" r="68.588097" fx="-10.8441" fy="46.2738" id="SVGID_2_" gradientUnits="userSpaceOnUse" gradientTransform="matrix(0.9668,-0.2556,0.2468,0.9337,-11.7209,0.9495)">
    <stop offset="0.45" style="stop-color:#612c75"/>
    <stop offset="0.7" style="stop-color:#bf99c3"/>
    <stop offset="0.95" style="stop-color:#612c75"/>
  </radialGradient>
  <radialGradient cx="-8.3114996" cy="46.367199" r="68.588097" fx="-10.8441" fy="46.2738" id="radialGradient3016" xlink:href="#SVGID_2_" gradientUnits="userSpaceOnUse" gradientTransform="matrix(9.4329621,-2.4938613,2.4080007,9.110009,-114.35954,9.2739196)"/>
  <path d="m 51.643223,264.58737 c 0,-163.49622 106.945287,-263.99220043 225.891547,-263.99220043 0,0 0.88787,9.08367003 -0.87812,18.30393043 -1.58062,8.30311 -34.08082,28.12911 -33.84666,65.26384 0.21465,33.84665 24.38247,58.23888 57.79982,58.23888 31.6416,0 57.79982,-24.60688 57.79982,-58.23888 0,-34.28571 -31.83673,-55.12643 -33.62224,-65.48825 C 323.07993,8.8202296 323.90927,6.3712496 323.90927,-4.3422848e-7 418.18035,-4.3422848e-7 549.58615,78.23075 549.58615,264.57761 c -59.91706,-4.10765 -92.98317,31.08545 -99.17879,48.34539 46.29645,53.32141 83.80193,48.62835 149.59265,48.62835 -3.40516,8.31287 -132.04,126.30295 -132.04,126.30295 L 134.04017,487.59086 0,361.0635 c 72.737621,0 116.68266,-1.54159 148.10961,-48.34539 -12.63517,-52.08228 -96.466387,-48.13074 -96.466387,-48.13074 z" fill="#ffffff"/>
  <path d="m 437.2258,334.13448 c 56.55094,44.13042 75.43052,45.75982 115.61916,47.18433 -24.12879,23.12383 -59.03895,55.71185 -92.63193,86.5924 L 141.97252,467.65754 49.262546,380.14798 c 47.613627,-2.60509 51.272464,2.99537 113.238474,-46.0135 H 437.2258 z m -0.32198,-38.64704 c 13.20108,-21.48467 44.3841,-47.30141 92.21238,-50.7651 C 524.31581,158.12017 488.59583,105.89154 458.29093,76.79649 428.42508,48.13074 390.04148,28.76331 351.64811,22.31401 c 10.92772,13.06448 26.6851,33.632 26.6851,61.85869 0,43.82795 -34.14912,78.17221 -77.73315,78.17221 -44.0231,0 -77.44045,-33.54419 -77.73315,-78.03562 -0.18538,-28.33401 14.00114,-48.57956 25.08496,-61.48792 -42.96934,6.73225 -82.42621,28.12911 -113.26774,61.90747 -19.66014,21.5237 -35.056511,47.26238 -45.76958,76.50378 -9.512968,25.90455 -15.142694,54.11172 -16.82088,84.07513 28.11936,2.39044 73.57672,12.32295 90.57322,50.3358 l 274.23693,-0.15611 z" style="fill:url(#radialGradient3016)"/>
</svg>
