<?xml version="1.0" encoding="UTF-8" standalone="no"?>
<svg xmlns="http://www.w3.org/2000/svg" version="1.1" width="600" height="322.77118">
  <path d="M 591.72256,15.14719 C 548.58188,5.08134 506.05909,0 465.33459,0 371.27446,0 283.10721,26.43957 195.76994,80.87262 89.499835,147.10065 6.2479277,258.23538 2.752777,262.91556 L 0,266.62743 9.7061903,322.77117 68.731816,241.48356 c 6.879637,-2.32396 15.23941,-3.47671 24.9456,-3.47671 38.312934,0 83.357964,18.08441 83.809844,18.28268 l 6.62603,2.68361 5.02601,-5.08134 C 299.73453,142.52652 402.68931,89.30156 469.5675,64.26374 542.01119,37.16018 588.92828,36.3302 589.38016,36.3302 c 5.441,-0.0738 9.9598,-4.15914 10.55462,-9.56325 0.59482,-5.40411 -2.93722,-10.39323 -8.21222,-11.61976" style="fill:#ffffff"/>
  <path d="m 517.24541,24.8211 c 7.87101,1.90896 14.03133,5.00756 18.78529,8.37361 33.69731,-7.43757 53.26185,-7.59896 53.26185,-7.59896 C 431.3975,-11.20477 307.22743,24.06489 201.44149,89.97016 95.678598,155.89386 11.366156,269.32949 11.366156,269.32949 l 4.592573,26.58712 45.999503,-63.36459 c 37.376902,-15.15181 100.344948,6.55225 115.962458,12.3898 -9.65547,-12.19153 -26.53179,-28.8373 -50.8134,-36.16882 0,0 28.67591,-7.31307 63.00493,29.01713 14.08666,-13.85149 28.0442,-26.83612 41.84037,-38.94004 -6.51998,-11.58287 -18.02908,-26.17213 -36.63453,-32.22178 0,0 22.91214,-3.17238 46.68654,23.5208 56.66479,-48.39724 110.23097,-82.52798 157.56767,-106.64821 -6.08654,-6.55687 -15.36391,-15.68668 -29.50129,-28.02576 0,0 18.47635,8.17994 40.30951,22.64009 26.09836,-12.71257 50.14481,-22.36804 71.57681,-29.66267 -3.52742,-6.41392 -9.02376,-14.12354 -17.61408,-22.08216 0,0 15.29013,3.85481 30.3866,17.90458 11.77654,-3.71187 22.62165,-6.66753 32.47539,-9.0422 -5.34878,-6.91653 -9.9598,-10.41168 -9.9598,-10.41168"/>
</svg>
