<?xml version="1.0" encoding="UTF-8" standalone="no"?>
<svg xmlns="http://www.w3.org/2000/svg" version="1.1" width="600" height="600">
  <path d="M 0,300.03 C 0,380.13801 31.23,455.49055 87.885,512.16622 144.555,568.82688 219.9,600 300,600 380.16,600 455.505,568.82688 512.115,512.16622 568.77,455.49055 600,380.13801 600,300.03 600,219.92199 568.77,144.62946 512.055,87.90879 455.325,31.23312 380.04,0 300,0 134.595,0 0,134.54845 0,300.03" style="fill:#808080"/>
  <path d="m 166.695,267.62676 c -1.23,7.26073 -1.815,14.71647 -1.815,22.26223 0,14.47645 2.235,28.54785 6.57,41.89919 l 29.175,-11.71617 c -3.57,-10.48605 -5.565,-21.73718 -5.565,-33.51335 0,-3.81039 0.24,-7.56076 0.6444,-11.25113 l -29.01,-7.68077 z m 29.655,-64.40144 c -12.42,14.88149 -21.735,32.46325 -26.895,51.74018 l 28.245,8.32583 c 3.57,-15.46655 10.605,-29.65797 20.265,-41.59916 L 196.35,203.22532 z m 29.175,10.14102 c 13.95,-13.89139 31.815,-23.79238 51.855,-27.9478 L 266.13,159.0459 c -23.37,6.03061 -44.295,18.22683 -60.99,34.68347 l 20.385,19.63697 z M 176.01,343.9844 c 6.69,15.28653 16.23,29.35793 28.425,41.49415 8.205,8.19082 17.28,15.22652 27.015,21.0321 l 16.575,-29.77798 C 228.99,366.12661 213.69,349.66997 204.495,329.80798 L 176.01,343.9844 z m 67.92,69.0219 c 17.4,7.92079 36.39,12.07621 56.07,12.07621 2.46,0 4.92,-0.06 7.38,-0.18002 l -4.455,-35.14851 c -1.515,0.06 -3.045,0.06 -4.62,0.06 -13.605,0 -26.61,-2.64026 -38.505,-7.44074 l -15.87,30.63306 z m 75.405,10.72607 C 345.585,419.982 370.02,408.67087 390,390.80408 l -24.9,-25.42754 c -14.175,12.0012 -31.65,20.20702 -50.805,23.25232 l 5.04,35.10351 z m 78.75,-40.77407 c 16.29,-17.11672 27.54,-37.80378 33.105,-60.24603 l -34.395,-5.0405 c -4.92,15.76657 -13.59,29.88299 -24.9,41.37413 l 26.19,23.9124 z m 35.28,-70.79208 c 1.17,-7.27573 1.815,-14.71648 1.815,-22.27723 0,-19.50195 -4.17,-38.08881 -11.67,-54.90549 l -27.825,17.11671 c 3.81,10.78608 5.91,22.38224 5.91,34.45845 0,7.72577 -0.87,15.22652 -2.46,22.50225 l 34.23,3.10531 z M 417.3,222.86229 c -13.065,-22.9223 -32.685,-41.55416 -56.31,-53.57036 l -14.415,25.9676 c 19.35,10.20102 34.995,26.37263 44.595,45.9946 l 26.13,-18.39184 z m -66.33,-58.13082 c -15.75,-6.45064 -32.925,-9.96099 -50.97,-9.96099 -7.38,0 -14.7,0.58446 -21.795,1.75517 l 10.245,27.24273 c 3.285,-0.28563 6.57,-0.46565 9.855,-0.46565 14.295,0 27.885,2.86529 40.245,8.14581 l 12.42,-26.71767 z M 57.3,238.73387 c -3.225,16.0066 -4.92,32.52326 -4.92,49.51996 0,29.65796 5.1,58.53585 15,85.61356 l 89.535,-36.33364 c -4.695,-14.64146 -7.215,-30.12301 -7.215,-45.93459 0,-9.43594 0.9444,-18.69187 2.64,-27.72277 L 57.3,238.73387 z m 53.145,-110.33603 c -22.665,27.06271 -39.72,59.06091 -49.275,94.0444 l 94.275,28.24783 c 6.105,-21.21212 16.755,-40.42904 30.885,-56.60066 l -75.885,-65.69157 z m 84.795,56.31563 c 18.27,-17.64176 41.07,-30.64806 66.375,-37.15871 l -39.96,-95.45455 c -38.25,12.94629 -72.3,34.9835 -99.72,63.51635 l 73.305,69.09691 z M 75.18,392.73927 c 12.18,26.37264 29.055,50.69007 50.205,71.84219 15.645,15.64656 32.94,28.95289 51.63,39.66396 l 46.875,-83.96339 c -11.07,-6.45065 -21.33,-14.29643 -30.645,-23.61236 -13.485,-13.48635 -24.03,-29.13292 -31.41,-46.18962 L 75.18,392.73927 z m 116.895,119.60696 c 33.69,16.51666 71.01,25.24753 109.62,25.24753 6.39,0 12.78,-0.22442 19.11,-0.70567 l -11.73,-97.0297 c -3.57,0.22442 -7.14,0.34443 -10.77,0.34443 -21.63,0 -42.6,-4.63546 -61.71,-13.36634 l -44.52,85.50855 z M 335.1,535.43354 c 50.265,-6.75067 97.035,-28.54785 134.88,-63.17131 l -70.785,-71.55716 c -21.855,20.28203 -48.87,33.28833 -77.985,37.74377 l 13.89,96.9847 z m 147.015,-75.12751 c 32.34,-33.87339 54.075,-75.24752 63.51,-120.13201 l -102.36,-15.70657 c -5.625,25.20252 -17.82,48.46984 -35.625,67.80678 l 74.475,68.0318 z M 548.67,322.89229 c 1.53,-11.37114 2.34,-22.9823 2.34,-34.63846 0,-41.59916 -10.245,-80.87309 -28.29,-115.31654 l -89.475,56.36064 c 8.79,18.93189 13.65,40.024 13.65,62.30123 0,7.32073 -0.5244,14.58146 -1.53,21.67717 l 103.305,9.61596 z M 513.345,156.58566 c -23.325,-37.38374 -56.31,-68.21182 -95.4,-88.89889 l -51.33,91.94419 c 24.915,12.9463 45.765,32.74828 59.955,56.9607 l 86.775,-60.006 z M 400.32,59.24092 C 370.08,46.11461 336.735,38.85389 301.695,38.85389 c -22.26,0 -43.83,2.92529 -64.335,8.44584 l 36.855,97.61476 c 7.86,-1.29013 15.885,-1.93519 24.09,-1.93519 20.385,0 39.84,4.17041 57.54,11.61116 L 400.32,59.24092 z M 300,28.77288 c 72.3,0 140.385,28.30783 191.655,79.58296 51.27,51.27512 79.515,119.30693 79.515,191.61416 0,72.42724 -28.185,140.57905 -79.455,191.79418 -51.15,51.23012 -119.295,79.40294 -191.715,79.40294 -72.42,0 -140.505,-28.17282 -191.715,-79.40294 C 57.075,440.48905 28.89,372.39724 28.89,299.97 28.89,150.43504 150.465,28.77288 300,28.77288"/>
</svg>
