<?xml version="1.0" encoding="UTF-8" standalone="no"?>
<svg xmlns="http://www.w3.org/2000/svg" xmlns:xlink="http://www.w3.org/1999/xlink" version="1.1" width="600" height="600">
  <radialGradient cx="0" cy="0" r="1" fx="0" fy="0" id="radialGradient536" gradientUnits="userSpaceOnUse" gradientTransform="matrix(17.776367,0,0,-17.776367,219.24902,259.30371)" spreadMethod="pad">
    <stop style="stop-color:#ebd491" offset="0"/>
    <stop style="stop-color:#d2bb7b" offset="0.7"/>
    <stop style="stop-color:#8b723c" offset="1"/>
  </radialGradient>
  <radialGradient cx="0" cy="0" r="1" fx="0" fy="0" id="radialGradient2995" xlink:href="#radialGradient536" gradientUnits="userSpaceOnUse" gradientTransform="matrix(17.776367,0,0,-17.776367,219.24902,259.30371)" spreadMethod="pad"/>
  <radialGradient cx="0" cy="0" r="1" fx="0" fy="0" id="radialGradient2998" xlink:href="#radialGradient536" gradientUnits="userSpaceOnUse" gradientTransform="matrix(266.64551,0,0,266.67217,299.98531,299.98934)" spreadMethod="pad"/>
  <path d="m 0,300.03001 c 0,80.108 31.17,155.46054 87.885,212.13621 C 144.55501,568.82688 219.84,600 300,600 380.16,600 455.44499,568.82688 512.17499,512.16622 568.83,455.49055 600,380.13801 600,300.03001 600,219.92199 568.77,144.62946 512.05501,87.90879 455.32501,31.23312 380.04,0 300,0 134.59501,0 0,134.54845 0,300.03001" style="fill:#ffffff"/>
  <path d="m 166.63501,267.62677 c -1.16988,7.26072 -1.75501,14.71646 -1.75501,22.26222 0,14.47645 2.17501,28.54785 6.51,41.89919 l 29.23501,-11.71617 c -3.63,-10.48605 -5.56501,-21.73717 -5.56501,-33.51336 0,-3.81037 0.18,-7.56075 0.64446,-11.25112 l -29.07003,-7.68076 z M 196.35,203.22532 c -12.48,14.8815 -21.79499,32.46325 -26.89501,51.74018 L 197.7,263.29134 c 3.57,-15.46656 10.60499,-29.65798 20.26499,-41.59917 L 196.35,203.22532 z m 29.17499,10.14102 c 13.95,-13.89139 31.81501,-23.79238 51.85501,-27.9478 l -11.25,-26.37263 c -23.37,6.0306 -44.29501,18.22682 -60.99,34.68346 l 20.38499,19.63697 z M 176.01,343.9844 c 6.69,15.28653 16.23,29.35794 28.42499,41.49414 8.20501,8.19083 17.28002,15.22653 27.01501,21.03211 l 16.57499,-29.77797 C 228.99,366.12662 213.69,349.66997 204.49499,329.80798 L 176.01,343.9844 z m 67.92,69.0219 c 17.4,7.92079 36.39,12.07621 56.07,12.07621 2.46,0 4.92,-0.0599 7.38,-0.18002 l -4.45501,-35.14852 c -1.51499,0.0599 -3.04499,0.0599 -4.62,0.0599 -13.60499,0 -26.61,-2.64027 -38.56499,-7.44074 l -15.81,30.63306 z m 75.40501,10.72608 C 345.58499,419.982 370.02,408.67087 390,390.80408 l -24.9,-25.42754 c -14.17499,12.0012 -31.65,20.20702 -50.80501,23.25232 l 5.04002,35.10352 z m 78.74998,-40.77409 c 16.29,-17.11671 27.54,-37.80377 33.10501,-60.24602 l -34.39501,-5.0405 c -4.92,15.76657 -13.59,29.88299 -24.9,41.37413 l 26.19,23.91239 z m 35.22002,-70.79208 c 1.23,-7.27572 1.87499,-14.71646 1.87499,-22.27722 0,-19.50195 -4.23,-38.08881 -11.73,-54.9055 l -27.76499,17.11672 c 3.81,10.78608 5.91,22.38224 5.91,34.45844 0,7.72578 -0.87012,15.22653 -2.46,22.50226 l 34.17,3.1053 z M 417.3,222.86228 c -13.06501,-22.92229 -32.68501,-41.55415 -56.31,-53.57035 l -14.41501,25.9676 C 365.86501,205.46054 381.57,221.63216 391.17,241.25412 L 417.3,222.86228 z M 350.92499,164.73147 C 335.22,158.28082 318.04499,154.77048 300,154.77048 c -7.38,0 -14.7,0.58449 -21.79501,1.75518 L 288.45,183.76837 c 3.28501,-0.28566 6.57,-0.46568 9.85499,-0.46568 14.29501,0 27.88501,2.8653 40.18501,8.14582 l 12.43499,-26.71768 z M 57.3,238.73387 c -3.27,16.0066 -4.92,32.52325 -4.92,49.51995 0,29.65797 5.1,58.53586 15,85.61356 l 89.53501,-36.33363 c -4.74,-14.64146 -7.21501,-30.12301 -7.21501,-45.93459 0,-9.43595 0.94446,-18.69187 2.64,-27.72277 L 57.3,238.73387 z m 53.145,-110.33603 c -22.665,27.0627 -39.72,59.0609 -49.275,94.04441 l 94.27501,28.24782 C 161.55,229.47795 172.2,210.26103 186.33,194.08941 l -75.885,-65.69157 z m 84.735,56.31564 c 18.27,-17.64177 41.13,-30.64808 66.43499,-37.15873 l -40.02,-95.45454 c -38.19,12.94629 -72.24,34.9835 -99.65998,63.51635 L 195.18,184.71348 z M 75.12,392.73927 c 12.24,26.37264 29.115,50.69008 50.26501,71.84219 15.58499,15.64656 32.94,28.95289 51.63,39.66396 L 223.89,420.28203 c -11.07,-6.45065 -21.33,-14.29643 -30.64501,-23.61236 -13.48499,-13.48635 -24.09,-29.13292 -31.41,-46.18963 L 75.12,392.73927 z m 116.95501,119.60697 c 33.69,16.51665 71.01,25.24752 109.56,25.24752 6.45,0 12.84,-0.22445 19.17,-0.7057 l -11.73,-97.02969 c -3.57,0.22445 -7.14,0.34446 -10.77,0.34446 -21.63,0 -42.6,-4.63546 -61.75501,-13.36633 l -44.47499,85.50854 z M 335.1,535.43354 c 50.26501,-6.75067 97.03501,-28.54786 134.88,-63.17131 L 399.19499,400.70507 C 377.34,420.9871 350.32499,433.9934 321.21,438.44884 l 13.89,96.9847 z m 147.01501,-75.12752 c 32.34,-33.87337 54.07499,-75.24752 63.51,-120.13201 L 443.26499,324.46744 c -5.62499,25.20253 -17.82,48.46986 -35.62499,67.80679 l 74.47499,68.0318 z M 548.67,322.89229 c 1.53,-11.37114 2.34,-22.9823 2.34,-34.63847 0,-41.59915 -10.24499,-80.87308 -28.35,-115.31653 l -89.41499,56.36064 c 8.73,18.9319 13.65,40.024 13.65,62.30123 0,7.32073 -0.52446,14.58146 -1.57501,21.67717 l 103.35,9.61596 z M 513.34501,156.58565 C 490.02,119.20192 457.03499,88.37384 417.88499,67.68677 l -51.27,91.94419 C 391.53,172.57726 412.38,192.37924 426.51,216.59166 l 86.83499,-60.00601 z M 400.32,59.24092 C 370.08,46.11461 336.73501,38.85389 301.63499,38.85389 c -22.2,0 -43.77,2.92529 -64.27499,8.44584 l 36.85499,97.61476 c 7.8,-1.29013 15.88501,-1.93519 24.09,-1.93519 20.38501,0 39.84002,4.17041 57.48,11.61116 L 400.32,59.24092 z M 300,28.77288 c 72.3,0 140.38501,28.30783 191.65499,79.58296 51.21,51.27512 79.51501,119.30693 79.51501,191.61416 0,72.42724 -28.18501,140.57906 -79.45501,191.79418 C 440.56499,542.9943 372.42,571.16712 300,571.16712 c -72.42,0 -140.50499,-28.17282 -191.715,-79.40294 C 57.015,440.48905 28.83,372.39724 28.83,299.97 28.83,150.43505 150.46501,28.77288 300,28.77288" style="fill:#8b723c"/>
  <path d="m 33.345,299.97 c 0,71.25712 27.765,138.23882 78.105,188.64387 l 0,0 c 50.32499,50.33002 117.3,78.0528 188.55,78.0528 l 0,0 c 71.31,0 138.22499,-27.72278 188.55,-78.0528 l 0,0 C 538.89,438.20882 566.65499,371.28713 566.65499,299.97 l 0,0 c 0,-71.13712 -27.76499,-138.05881 -78.16499,-188.44885 l 0,0 C 438.04499,61.11611 371.13,33.34833 300,33.34833 l 0,0 C 152.92501,33.34833 33.345,152.9553 33.345,299.97 M 270,146.56466 233.14499,48.87489 231.39,44.23942 l 4.8,-1.29012 c 21.27,-5.67057 43.36499,-8.55086 65.44499,-8.55086 l 0,0 c 34.87501,0 68.68501,6.9757 100.5,20.68707 l 0,0 4.21501,1.81518 -1.93501,4.27543 -44.53499,95.28953 -1.81501,3.93039 -3.99,-1.71017 C 336.39,151.24512 317.64,147.49476 298.30499,147.49476 l 0,0 c -7.86,0 -15.70499,0.64509 -23.38499,1.87517 l 0,0 -3.63,0.6451 -1.29,-3.45037 z M 192.07501,187.9838 118.83,118.90189 l -3.285,-3.16532 3.105,-3.22532 C 146.83499,83.15332 181.99499,60.77108 220.14,47.82478 l 0,0 3.97499,-1.35013 1.65,3.87038 40.02,95.51456 2.04002,4.80048 -5.02501,1.29013 c -24.15,6.1506 -46.47,18.57185 -64.45499,35.98859 l 0,0 -3.10501,2.98531 -3.16499,-2.9403 z M 422.64,218.87189 c -13.83,-23.55235 -33.93,-42.66427 -58.06501,-55.26553 l 0,0 -4.17,-2.10021 2.29501,-4.05041 51.33,-91.94419 2.1,-3.85538 3.93,2.0402 c 39.66,21.0471 73.30499,52.34023 97.09499,90.48905 l 0,0 2.28,3.69037 -3.51,2.40023 -86.85,60.006 -3.91499,2.74528 -2.52,-4.15541 z M 154.15499,254.9655 59.88,226.71768 l -4.215,-1.23013 1.17,-4.21542 c 9.675,-35.26853 26.55,-67.50676 50.16,-95.75458 l 0,0 2.925,-3.51036 3.465,2.98531 75.81001,65.69157 3.46499,2.92529 -2.98499,3.46535 c -13.77,15.76658 -24.15002,34.74347 -29.89501,54.84548 l 0,0 -1.29,4.39544 -4.33499,-1.35013 z M 284.23501,185.35854 273.99,158.1008 l -1.93501,-5.1455 5.38501,-0.88512 c 7.44,-1.17009 15.06,-1.81515 22.56,-1.81515 l 0,0 c 18.22499,0 35.97,3.45034 52.68,10.30603 l 0,0 4.33499,1.77017 -1.93499,4.27543 -11.89501,25.54755 13.89,-25.0225 2.1,-3.75037 3.87,1.9352 C 387.48,177.73777 407.64,196.83469 421.23,220.62707 l 0,0 2.05501,3.58535 -3.40501,2.34023 -26.13,18.39184 -4.27501,3.04531 -2.34,-4.74048 c -9.15,-18.63186 -24.27,-34.21842 -42.66,-44.01439 l 0,0 -3.81,-1.98021 -3.87,-1.71017 c -12.24,-5.14551 -25.2,-7.72577 -38.49,-7.72577 l 0,0 c -3.10499,0 -6.27,0.12001 -9.37499,0.40507 l 0,0 -3.46501,0.40507 -1.23,-3.27032 z M 222.42,216.59166 201.97499,197.01471 198.63,193.78938 l 3.34499,-3.22532 C 219.55501,173.22232 241.35,160.86109 265.02,154.71048 l 0,0 3.75,-1.00514 1.53,3.58537 11.25,26.35762 2.1,5.10052 -5.38501,1.11006 C 259.45501,193.7293 242.34,202.94022 228.69,216.53159 l 0,0 -3.10499,3.1053 -3.16501,-3.0453 z M 548.26499,327.34773 444.9,317.79178 l -4.68,-0.46508 0.70494,-4.69547 c 0.99012,-6.85569 1.45501,-13.9514 1.45501,-21.0321 l 0,0 c 0,-21.15212 -4.45499,-41.49416 -13.24499,-60.42604 l 0,0 -1.69501,-3.57036 3.40499,-2.11522 89.47501,-56.36064 4.09501,-2.64026 2.28,4.33543 c 18.81,35.9736 28.83,76.58266 28.83,117.37174 l 0,0 c 0,11.8962 -0.82506,23.73237 -2.46,35.28353 l 0,0 -0.52506,4.27543 -4.27501,-0.40507 z M 196.47,267.62677 168.16501,259.24093 163.95,258.0108 l 1.11,-4.21542 c 5.26501,-19.68197 14.64,-37.62376 27.82499,-53.43534 l 0,0 2.94002,-3.52535 3.45,3.0003 21.63,18.45183 3.27,2.8653 -2.68501,3.34532 c -9.37499,11.65618 -16.06499,25.42755 -19.39499,39.78399 l 0,0 -1.06506,4.69547 -4.56,-1.35013 z m 172.14,88.25382 c 11.02499,-11.07111 19.21501,-24.78248 23.85,-39.55896 l 0,0 1.17012,-3.69036 0.0598,0 1.05012,-4.57546 c 1.59,-7.08071 2.35499,-14.35644 2.35499,-21.49716 l 0,0 c 0,-11.19111 -1.87499,-22.33723 -5.62499,-32.98829 l 0,0 -1.23,-3.46535 3.10499,-1.87518 27.76501,-17.11672 4.39501,-2.62526 2.11499,4.68047 c 7.96501,17.9418 12.06,36.9787 12.06,56.72067 l 0,0 c 0,7.68077 -0.69,15.36153 -1.92,23.0423 l 0,0 -0.64506,4.15542 -4.23,-0.40507 -31.98,-3.0003 30.93,4.57546 4.92,0.76511 -1.23,4.80049 c -5.745,23.14731 -17.58,44.71946 -34.155,62.18122 l 0,0 -3.045,3.22531 -3.225,-3.0003 -26.25,-23.85238 -3.225,-2.92529 2.64,2.76028 24.9,25.42754 3.285,3.40534 -3.525,3.16531 c -20.505,18.33183 -45.75001,30.10801 -73.005,33.9784 l 0,0 -4.455,0.5851 -0.58506,-4.45545 -5.04,-35.08851 -0.64506,-4.35043 4.39501,-0.75014 c 17.94,-2.70027 34.69499,-10.44105 48.58499,-22.21722 l 0,0 3.15,-2.68527 0,0 3.28501,-3.34533 z M 63.165,375.39754 c -10.2,-27.84278 -15.3,-57.20072 -15.3,-87.20372 l 0,0 c 0,-16.9367 1.71,-33.87339 4.98,-50.33004 l 0,0 1.005012,-4.69546 4.575,1.23012 95.025008,25.14252 4.11,1.11005 -0.82506,4.11042 c -1.635,8.85088 -2.52,17.86679 -2.52,26.83769 l 0,0 c 0,15.16651 2.355,30.16801 6.975,44.52445 l 0,0 1.35002,3.99039 -3.93,1.59016 -89.534998,36.31863 -4.335,1.77018 -1.575,-4.39543 z M 167.17501,333.19832 C 162.66,319.30693 160.32,304.72548 160.32,289.88899 l 0,0 c 0,-7.78578 0.69012,-15.52655 1.86,-22.9673 l 0,0 0.82506,-4.92049 4.815,1.29014 28.995,7.62075 3.75,0.99004 -0.40506,3.87038 c -0.42,3.57036 -0.58506,7.15572 -0.58506,10.78608 l 0,0 c 0,11.01111 1.75501,21.79719 5.26501,32.05821 l 0,0 1.47,4.0354 -4.05,1.63517 -29.17501,11.73117 -4.45499,1.75517 -1.45501,-4.57545 z m 311.94,130.43804 -74.52,-68.03181 -3.34501,-3.1053 3.04499,-3.27033 c 17.17501,-18.58685 29.13,-41.31413 34.63501,-65.75158 l 0,0 0.87,-4.1104 4.17,0.6451 102.36,15.70656 4.68,0.70511 -0.98988,4.69547 c -9.675,45.75456 -31.995,88.0738 -64.635,122.29222 l 0,0 -3.045,3.22532 -3.225,-3.0003 z m -249.96,-53.25532 c -10.08,-5.9856 -19.5,-13.24633 -27.94501,-21.69217 l 0,0 c -12.48,-12.54126 -22.32,-27.0027 -29.29499,-42.9493 l 0,0 -1.69501,-3.93039 3.81,-1.87518 28.53,-14.17642 4.09501,-2.05521 1.93499,4.23042 c 8.67,18.79689 23.50499,34.74348 41.61,44.8845 l 0,0 3.91501,2.22022 -2.16,3.93039 -16.59,29.70297 -2.22,4.0504 -3.99,-2.34023 z M 174.72,508.17582 c -19.03499,-11.0111 -36.73499,-24.60247 -52.5,-40.42905 l 0,0 C 100.785,446.35463 83.61,421.73718 71.07,394.61446 l 0,0 -1.875,-4.05041 3.99,-1.87518 86.655,-42.24423 4.27499,-2.0552 1.81501,4.33544 c 7.27499,16.71166 17.52,31.75817 30.54,44.77947 l 0,0 c 8.79,8.85088 18.81,16.51665 29.7,22.84728 l 0,0 3.81,2.28023 -2.16,3.81038 -46.93499,84.03841 -2.23501,3.9904 -3.93,-2.29523 z m 67.33501,-91.05911 -4.27501,-1.9952 2.16,-4.15542 15.82499,-30.64806 1.87501,-3.63036 3.81,1.51515 c 11.71499,4.75547 24.13499,7.0957 36.85499,7.0957 l 0,0 c 1.45501,0 2.92501,0 4.39501,-0.0599 l 0,0 4.21501,-0.30003 0.46506,4.23041 4.395,35.14852 0.64506,4.81548 -4.8,0.22506 c -2.52,0.24002 -5.04,0.24002 -7.62,0.24002 l 0,0 c -20.28,0 -39.78,-4.21542 -57.94499,-12.48125 m 88.53,118.9019 -13.83,-96.92469 -0.64506,-4.39545 4.39502,-0.6451 c 28.36498,-4.39544 54.55498,-17.05671 75.64498,-36.63366 l 0,0 3.22502,-2.9853 3.04498,3.10531 70.725,71.55716 3.285,3.28533 -3.465,3.21032 c -38.37,35.16351 -85.83,57.42574 -137.28,64.23643 l 0,0 -4.455,0.64509 -0.64506,-4.45544 z m -140.50507,-19.63697 -4.15499,-2.0552 2.09998,-4.03541 44.59501,-85.49354 1.93499,-3.81039 3.91501,1.81518 c 18.75,8.55086 38.91,12.88629 59.83499,12.88629 l 0,0 c 3.51002,0 7.02002,-0.12001 10.48501,-0.34507 l 0,0 4.21501,-0.30003 0.52506,4.27543 11.79,96.9847 0.52506,4.69547 -4.69501,0.34506 c -6.45,0.46508 -12.94499,0.76511 -19.51499,0.76511 l 0,0 c -39.25501,0 -76.81501,-8.67086 -111.55501,-25.72757" style="fill:url(#radialGradient2998)"/>
</svg>
