<?xml version="1.0" encoding="UTF-8" standalone="no"?>
<svg xmlns="http://www.w3.org/2000/svg" xmlns:xlink="http://www.w3.org/1999/xlink" version="1.1" width="600" height="600">
  <radialGradient cx="0" cy="0" r="1" fx="0" fy="0" id="radialGradient520" gradientUnits="userSpaceOnUse" gradientTransform="matrix(17.776123,0,0,-17.776123,135.12549,259.30371)" spreadMethod="pad">
    <stop style="stop-color:#bf99c3" offset="0"/>
    <stop style="stop-color:#7b5190" offset="0.66291797"/>
    <stop style="stop-color:#612c75" offset="1"/>
  </radialGradient>
  <radialGradient cx="0" cy="0" r="1" fx="0" fy="0" id="radialGradient2995" xlink:href="#radialGradient520" gradientUnits="userSpaceOnUse" gradientTransform="matrix(17.776123,0,0,-17.776123,135.12549,259.30371)" spreadMethod="pad"/>
  <radialGradient cx="0" cy="0" r="1" fx="0" fy="0" id="radialGradient2998" xlink:href="#radialGradient520" gradientUnits="userSpaceOnUse" gradientTransform="matrix(266.64185,0,0,266.66851,300.00736,299.98934)" spreadMethod="pad"/>
  <path d="M 0,300.02999 C 0,380.13801 31.23,455.49055 87.885,512.16622 144.555,568.82688 219.84,600 300,600 380.16,600 455.445,568.82688 512.175,512.16622 568.83,455.49055 600,380.13801 600,300.02999 600,219.92199 568.77,144.62946 512.055,87.90879 455.325,31.23312 380.04,0 300,0 134.595,0 0,134.54845 0,300.02999" style="fill:#ffffff"/>
  <path d="m 166.695,267.62676 c -1.23,7.26073 -1.815,14.71647 -1.815,22.26223 0,14.47645 2.235,28.54785 6.57,41.89919 l 29.175,-11.71617 c -3.63,-10.48605 -5.565,-21.73718 -5.565,-33.51335 0,-3.81039 0.24,-7.56076 0.6444,-11.25113 l -29.01,-7.68077 z m 29.655,-64.40144 c -12.42,14.88149 -21.795,32.46325 -26.895,51.74018 l 28.245,8.32583 c 3.57,-15.46655 10.605,-29.65797 20.265,-41.59916 L 196.35,203.22532 z m 29.175,10.14102 c 13.95,-13.89139 31.815,-23.79238 51.855,-27.9478 L 266.13,159.0459 c -23.37,6.03061 -44.295,18.22683 -60.99,34.68347 l 20.385,19.63697 z M 176.01,343.9844 c 6.69,15.28653 16.23,29.35793 28.425,41.49415 8.205,8.19082 17.28,15.22652 27.015,21.0321 l 16.575,-29.77798 C 228.99,366.12661 213.69,349.66997 204.495,329.80798 L 176.01,343.9844 z m 67.92,69.0219 c 17.4,7.92079 36.375,12.07621 56.07,12.07621 2.46,0 4.92,-0.06 7.38,-0.18002 l -4.455,-35.14851 c -1.515,0.06 -3.045,0.06 -4.62,0.06 -13.605,0 -26.61,-2.64026 -38.505,-7.44074 l -15.87,30.63306 z m 75.405,10.72607 C 345.585,419.982 370.02,408.67087 390,390.80408 l -24.9,-25.42754 c -14.175,12.0012 -31.65,20.20702 -50.805,23.25232 l 5.04,35.10351 z m 78.75,-40.77407 c 16.29,-17.11672 27.54,-37.80378 33.105,-60.24603 l -34.395,-5.0405 c -4.92,15.76657 -13.59,29.88299 -24.9,41.37413 l 26.19,23.9124 z m 35.28,-70.79208 c 1.17,-7.27573 1.815,-14.71648 1.815,-22.27723 0,-19.50195 -4.17,-38.08881 -11.67,-54.90549 l -27.825,17.11671 c 3.81,10.78608 5.91,22.38224 5.91,34.45845 0,7.72577 -0.87,15.22652 -2.46,22.50225 l 34.23,3.10531 z M 417.3,222.86229 c -13.065,-22.9223 -32.685,-41.55416 -56.31,-53.57036 l -14.415,25.9676 c 19.35,10.20102 34.98,26.37263 44.595,45.9946 l 26.13,-18.39184 z m -66.33,-58.13082 c -15.75,-6.45064 -32.925,-9.96099 -50.97,-9.96099 -7.38,0 -14.7,0.58446 -21.795,1.75517 l 10.245,27.24273 c 3.285,-0.28563 6.57,-0.46565 9.855,-0.46565 14.295,0 27.885,2.86529 40.245,8.14581 l 12.42,-26.71767 z M 57.3,238.73387 c -3.27,16.0066 -4.92,32.52326 -4.92,49.51996 0,29.65796 5.1,58.53585 15,85.61356 l 89.535,-36.33364 c -4.74,-14.64146 -7.215,-30.12301 -7.215,-45.93459 0,-9.43594 0.9444,-18.69187 2.64,-27.72277 L 57.3,238.73387 z m 53.145,-110.33603 c -22.665,27.06271 -39.72,59.06091 -49.275,94.0444 l 94.275,28.24783 c 6.105,-21.21212 16.755,-40.42904 30.885,-56.60066 l -75.885,-65.69157 z m 84.735,56.31563 c 18.33,-17.64176 41.13,-30.64806 66.435,-37.15871 l -39.96,-95.45455 c -38.25,12.94629 -72.3,34.9835 -99.72,63.51635 l 73.245,69.09691 z M 75.12,392.73927 c 12.24,26.37264 29.115,50.69007 50.265,71.84219 15.585,15.64656 32.94,28.95289 51.63,39.66396 l 46.875,-83.96339 c -11.085,-6.45065 -21.33,-14.29643 -30.645,-23.61236 -13.485,-13.48635 -24.09,-29.13292 -31.41,-46.18962 L 75.12,392.73927 z m 116.955,119.60696 c 33.69,16.51666 71.01,25.24753 109.62,25.24753 6.39,0 12.78,-0.22442 19.11,-0.70567 l -11.73,-97.0297 c -3.57,0.22442 -7.14,0.34443 -10.77,0.34443 -21.63,0 -42.6,-4.63546 -61.71,-13.36634 l -44.52,85.50855 z M 335.1,535.43354 c 50.265,-6.75067 97.035,-28.54785 134.88,-63.17131 l -70.785,-71.55716 c -21.855,20.28203 -48.87,33.28833 -77.985,37.74377 l 13.89,96.9847 z m 147.015,-75.12751 c 32.34,-33.87339 54.075,-75.24752 63.51,-120.13201 l -102.36,-15.70657 c -5.625,25.20252 -17.82,48.46984 -35.625,67.80678 l 74.475,68.0318 z M 548.67,322.89229 c 1.53,-11.37114 2.34,-22.9823 2.34,-34.63846 0,-41.59916 -10.245,-80.87309 -28.29,-115.31654 l -89.475,56.36064 c 8.79,18.93189 13.65,40.024 13.65,62.30123 0,7.32073 -0.5244,14.58146 -1.53,21.67717 l 103.305,9.61596 z M 513.345,156.58566 c -23.325,-37.38374 -56.31,-68.21182 -95.4,-88.89889 l -51.33,91.94419 c 24.915,12.9463 45.765,32.74828 59.94,56.9607 l 86.79,-60.006 z M 400.305,59.24092 c -30.225,-13.12631 -63.57,-20.38703 -98.61,-20.38703 -22.26,0 -43.83,2.92529 -64.335,8.44584 l 36.855,97.61476 c 7.86,-1.29013 15.885,-1.93519 24.09,-1.93519 20.385,0 39.84,4.17041 57.54,11.61116 l 44.46,-95.34954 z M 300,28.77288 c 72.3,0 140.385,28.30783 191.655,79.58296 51.27,51.27512 79.515,119.30693 79.515,191.61417 0,72.42723 -28.185,140.57904 -79.455,191.79417 -51.15,51.23012 -119.295,79.40294 -191.715,79.40294 -72.42,0 -140.505,-28.17282 -191.715,-79.40294 C 57.075,440.48905 28.89,372.39724 28.89,299.97001 28.89,150.43504 150.465,28.77288 300,28.77288" style="fill:#612c75"/>
  <path d="m 33.345,299.97001 c 0,71.31712 27.765,138.23881 78.105,188.64385 l 0,0 c 50.325,50.33003 117.3,78.05281 188.55,78.05281 l 0,0 c 71.25,0 138.165,-27.72278 188.55,-78.05281 l 0,0 c 50.34,-50.40504 78.105,-117.38674 78.105,-188.64385 l 0,0 c 0,-71.13713 -27.765,-138.05882 -78.165,-188.44886 l 0,0 C 438.045,61.11611 371.13,33.34833 300,33.34833 l 0,0 c -147.015,0 -266.655,119.60697 -266.655,266.62168 M 270,146.56466 233.205,48.87489 l -1.755,-4.63547 4.8,-1.29013 c 21.27,-5.67056 43.305,-8.55085 65.445,-8.55085 l 0,0 c 34.86,0 68.61,6.9757 100.44,20.68707 l 0,0 4.215,1.81518 -1.935,4.27543 -44.535,95.28953 -1.815,3.93039 -3.99,-1.71017 c -17.685,-7.44075 -36.435,-11.19112 -55.77,-11.19112 l 0,0 c -7.86,0 -15.705,0.64506 -23.385,1.87519 l 0,0 -3.63,0.64506 -1.29,-3.45034 z m -77.865,41.41914 -73.245,-69.08191 -3.345,-3.16532 3.165,-3.22532 C 146.835,83.15332 181.935,60.77108 220.2,47.82478 l 0,0 3.975,-1.35013 1.65,3.87038 39.96,95.51456 2.04,4.80048 -5.085,1.29013 c -24.09,6.15061 -46.35,18.57185 -64.395,35.98859 l 0,0 -3.105,2.9853 -3.105,-2.94029 z m 230.505,30.88809 c -13.83,-23.61236 -33.93,-42.66427 -58.065,-55.26553 l 0,0 -4.11,-2.10021 2.235,-4.0504 51.33,-91.9442 2.1,-3.85538 3.93,2.0402 c 39.72,21.0471 73.305,52.34023 97.095,90.48905 l 0,0 2.28,3.69037 -3.51,2.40024 -86.85,60.006 -3.915,2.74527 -2.52,-4.15541 z M 154.155,254.9655 59.82,226.71767 l -4.155,-1.23012 1.17,-4.21542 c 9.675,-35.32854 26.55,-67.50675 50.16,-95.75458 l 0,0 2.925,-3.51035 3.465,2.9853 75.87,65.69157 3.405,2.92529 -2.985,3.46535 c -13.77,15.76657 -24.09,34.74347 -29.895,54.84548 l 0,0 -1.29,4.39544 -4.335,-1.35013 z m 130.08,-69.60696 -10.245,-27.25773 -1.935,-5.14551 5.385,-0.88509 c 7.44,-1.17012 15.06,-1.81518 22.56,-1.81518 l 0,0 c 18.225,0 35.97,3.45034 52.68,10.30603 l 0,0 4.395,1.81518 -1.995,4.23042 -12.075,25.89259 14.07,-25.36754 2.1,-3.75037 3.87,1.93519 c 24.375,12.36124 44.535,31.51815 58.125,55.31053 l 0,0 2.055,3.58536 -3.345,2.34024 -26.13,18.39183 -4.335,3.04531 -2.28,-4.74048 c -9.15,-18.63186 -24.27,-34.27842 -42.66,-44.0144 l 0,0 -3.93,-2.10021 -3.81,-1.59016 c -12.18,-5.14551 -25.14,-7.72577 -38.43,-7.72577 l 0,0 c -3.165,0 -6.27,0.12001 -9.375,0.40504 l 0,0 -3.465,0.36004 -1.23,-3.22532 z m -61.875,31.23312 -20.385,-19.57696 -3.345,-3.22532 3.345,-3.22532 c 17.58,-17.34174 39.375,-29.70297 63.045,-35.85359 l 0,0 3.75,-1.0051 1.53,3.58536 11.19,26.35763 2.16,5.10051 -5.385,1.11012 c -18.75,3.87038 -35.925,13.0813 -49.575,26.67266 l 0,0 -3.105,3.10531 -3.225,-3.0453 z m 325.845,110.75607 -103.245,-9.55595 -4.74,-0.46505 0.705,-4.69547 c 0.99,-6.85568 1.455,-13.95139 1.455,-21.0321 l 0,0 c 0,-21.0471 -4.455,-41.37414 -13.245,-60.42604 l 0,0 -1.695,-3.57036 3.405,-2.11521 89.46,-56.36064 4.11,-2.64026 2.28,4.33543 c 18.81,36.03361 28.83,76.64267 28.83,117.37174 l 0,0 c 0,11.77617 -0.825,23.61236 -2.46,35.28353 l 0,0 -0.525,4.27543 -4.335,-0.40505 z m -351.795,-59.72097 -28.245,-8.38584 -4.215,-1.23012 1.11,-4.27543 c 5.265,-19.62196 14.64,-37.56375 27.825,-53.37533 l 0,0 2.94,-3.52536 3.45,3.0003 21.63,18.45185 3.27,2.86529 -2.685,3.34533 c -9.375,11.65617 -16.065,25.36754 -19.395,39.78398 l 0,0 -1.125,4.69547 -4.56,-1.35014 z m 172.26,88.25383 c 10.965,-11.07111 19.215,-24.78248 23.85,-39.55896 l 0,0 1.11,-3.69037 0.06,0 1.05,-4.57545 c 1.59,-7.02071 2.355,-14.29643 2.355,-21.49715 l 0,0 c 0,-11.25113 -1.875,-22.38224 -5.625,-32.9883 l 0,0 -1.23,-3.46535 3.105,-1.87519 27.765,-17.11671 4.395,-2.62526 2.115,4.68047 c 7.965,17.94179 12.075,37.0387 12.075,56.72067 l 0,0 c 0,7.80078 -0.645,15.54155 -1.89,23.0423 l 0,0 -0.69,4.15542 -4.23,-0.40504 -31.98,-3.0003 30.93,4.57546 4.92,0.76507 -1.23,4.80048 c -5.745,23.14732 -17.58,44.71947 -34.155,62.18122 l 0,0 -3.045,3.22532 -3.285,-3.0003 -26.19,-23.85238 -3.225,-2.92529 2.64,2.76027 24.9,25.42754 3.345,3.40534 -3.585,3.16532 c -20.505,18.33183 -45.75,30.10801 -72.945,33.9784 l 0,0 -4.455,0.58506 -0.645,-4.45545 -5.04,-35.08851 -0.645,-4.35043 4.395,-0.75008 c 17.94,-2.70027 34.695,-10.44104 48.585,-22.21722 l 0,0 3.15,-2.68527 0,0 3.345,-3.34533 z M 63.105,375.39754 c -10.14,-27.84278 -15.24,-57.20072 -15.24,-87.20372 l 0,0 c 0,-16.75668 1.65,-33.75338 4.98,-50.33003 l 0,0 0.945,-4.69547 4.635,1.23012 95.025,25.14251 4.05,1.11012 -0.765,4.11041 c -1.635,8.79088 -2.52,17.74677 -2.52,26.83768 l 0,0 c 0,15.28653 2.34,30.28803 6.975,44.52445 l 0,0 1.35,3.9904 -3.93,1.59016 -89.535,36.31863 -4.335,1.77018 -1.635,-4.39544 z m 104.01,-42.19922 c -4.455,-13.89139 -6.81,-28.47285 -6.81,-43.30933 l 0,0 c 0,-7.66577 0.705,-15.40654 1.935,-22.9673 l 0,0 0.825,-4.92049 4.74,1.29013 29.01,7.62076 3.69,0.9901 -0.345,3.87039 c -0.42,3.51035 -0.585,7.09571 -0.585,10.78608 l 0,0 c 0,11.0111 1.815,21.79718 5.325,32.0582 l 0,0 1.41,4.03541 -4.05,1.63516 -29.175,11.73117 -4.455,1.75518 -1.515,-4.57546 z m 312,130.43804 -74.52,-68.0318 -3.345,-3.10531 3.105,-3.27033 c 17.115,-18.64686 29.115,-41.31413 34.575,-65.75157 l 0,0 0.87,-4.11041 4.17,0.64506 102.36,15.70657 4.68,0.70507 -0.99,4.69547 c -9.675,45.81458 -31.995,88.11881 -64.575,122.29223 l 0,0 -3.105,3.22532 -3.225,-3.0003 z m -249.96,-53.25532 c -10.08,-5.9856 -19.5,-13.24633 -27.885,-21.69217 l 0,0 c -12.54,-12.54126 -22.38,-27.0027 -29.355,-42.9493 l 0,0 -1.695,-3.93039 3.81,-1.87519 28.47,-14.17641 4.155,-2.05521 1.935,4.23042 c 8.73,18.79688 23.505,34.74348 41.67,44.88449 l 0,0 3.855,2.22022 -2.16,3.9304 -16.53,29.70297 -2.22,4.0504 -4.05,-2.34023 z m -54.435,97.79478 c -18.975,-10.9511 -36.615,-24.54246 -52.545,-40.42905 l 0,0 C 100.845,446.41464 83.61,421.73717 71.07,394.61446 l 0,0 -1.875,-4.0504 3.99,-1.87519 86.655,-42.24423 4.275,-2.0552 1.83,4.33543 c 7.26,16.71167 17.505,31.75818 30.465,44.77948 l 0,0 c 8.895,8.89589 18.915,16.57666 29.76,22.84729 l 0,0 3.81,2.28022 -2.115,3.81038 -46.92,84.03841 -2.295,3.9904 -3.93,-2.29523 z m 67.395,-91.05911 -4.335,-1.9952 2.16,-4.15541 15.885,-30.64807 1.875,-3.63036 3.75,1.51515 c 11.715,4.75548 24.135,7.09571 36.855,7.09571 l 0,0 c 1.455,0 2.925,0 4.395,-0.06 l 0,0 4.215,-0.30003 0.465,4.23043 4.455,35.14851 0.585,4.81548 -4.8,0.22503 c -2.52,0.24002 -5.04,0.24002 -7.62,0.24002 l 0,0 c -20.325,0 -39.78,-4.21542 -57.885,-12.48125 m 88.53,118.90189 -13.89,-96.92469 -0.645,-4.39544 4.395,-0.64506 c 28.425,-4.39544 54.555,-17.05671 75.645,-36.63367 l 0,0 3.165,-2.9853 3.105,3.10531 70.725,71.55716 3.285,3.28533 -3.465,3.21032 c -38.37,35.16352 -85.83,57.42574 -137.28,64.23642 l 0,0 -4.395,0.64507 -0.645,-4.45545 z m -140.565,-19.63696 -4.11,-2.05521 2.115,-4.0354 44.535,-85.49355 1.935,-3.81038 3.915,1.81518 c 18.75,8.55086 38.91,12.88629 59.835,12.88629 l 0,0 c 3.51,0 6.975,-0.12001 10.485,-0.34504 l 0,0 4.215,-0.30003 0.585,4.27543 11.67,96.9847 0.585,4.69547 -4.695,0.34503 c -6.45,0.46505 -12.885,0.76508 -19.455,0.76508 l 0,0 c -39.315,0 -76.875,-8.67087 -111.615,-25.72757" style="fill:url(#radialGradient2998)"/>
</svg>
