<?xml version="1.0" encoding="utf-8"?>
<svg xmlns:svg="http://www.w3.org/2000/svg" xmlns="http://www.w3.org/2000/svg" xmlns:xlink="http://www.w3.org/1999/xlink" version="1.1" id="svg2" x="0px" y="0px" width="388px" height="329px" viewBox="408 0 388 329">
  <g id="layer1_3_">
    <path fill="#ffffff" d="M408.001,111.361l10.978-2.771l50.723,123.873l8.66,0.635l7.658-11.057l-4.541-7.289   c-23.619-37.916-27.021-86.312-9.061-128.889c13.213-31.324,41.21-59.772,72.268-73.431c19.623-8.63,35.174-11.854,57.145-11.846   c22.827,0.008,40.806,3.977,60.413,13.334c27.563,13.155,53.565,39.119,66.477,66.372c20.229,42.701,18.146,93.453-5.438,132.574   c-2.998,4.974-5.566,9.21-5.566,9.21l8.396,11l9.192-0.613l48.918-125.227L796,109.183V329l-167.85-59.649l-20.588-164.136   l8.719-2.531l47.033,53.885c3.297-0.877,2.957-24.186-0.504-34.605c-5.486-16.511-17.121-30.051-32.49-37.808   c-10.137-5.118-16.773-6.623-28.991-6.573c-9.312,0.038-12.228,0.466-18.99,2.787c-19.918,6.836-34.073,20.804-41.312,40.761   c-2.34,6.453-2.661,8.836-2.68,19.834c-0.012,7.285,0.438,13.27,1.073,14.346l46.62-52.151l8.902,3.034l-20.616,163.97L407.999,329   L408.001,111.361z M417.329,314.381l147.131-51.82l20.407-143.025l-48.873,58.151c0,0-2.814-6.617-5.096-13.158   c-2.5-7.168-2.881-9.469-3.062-22.547c-0.024-16.25,1.53-21.131,7.815-33.843c12.867-26.023,41.254-42.569,70.14-40.886   c27.272,1.589,50.813,16.964,62.94,41.963c7.229,14.902,9.398,31.487,5.629,47.529c-1.655,8.02-6.008,20.122-7.266,20.122   l-49.34-57.091l19.818,143.164l147.911,51.23c0,0-0.027-185.227-0.045-186.633c-0.357,1.104-43.275,115.697-43.275,115.697h-21.32   l-16.469-20.864c0,0,2.201-3.087,5.845-8.09c15.512-23.457,21.94-44.49,21.975-72.315c0.024-21.686-3.203-36.734-12-55.937   c-11.357-24.794-35.299-49.41-60.359-62.06c-28.939-14.608-66.357-17.431-97.505-7.356   c-49.823,16.112-84.908,59.399-90.661,111.851c-3.215,29.308,4.577,60.862,21.46,86.041c1.625,2.424,1.675,2.502,5.271,7.881   l-14.594,20.852h-21.094l-45.468-115.522L417.329,314.381z"/>
  </g>
  <g id="layer1_2_">
    <linearGradient id="path4147_5_" gradientUnits="userSpaceOnUse" x1="521.2354" y1="290.9551" x2="719.7419" y2="117.8209">
      <stop offset="0.2" style="stop-color:#612c75"/>
      <stop offset="0.5" style="stop-color:#bf99c3"/>
      <stop offset="0.8" style="stop-color:#612c75"/>
    </linearGradient>
    <path fill="url(#path4147_5_)" stroke="#ffffff" stroke-width="7" stroke-miterlimit="10" d="M417.357,127.809   l45.355,115.427h21.094l14.596-20.853l-5.115-7.646c-9.088-13.588-16.008-29.989-19.627-46.518   c-2.533-11.568-3.002-34.531-0.961-46.958c8.574-52.161,46.354-93.541,97.172-106.432c60.82-15.429,124.04,14.903,150.518,72.215   c8.543,18.492,12.316,37.675,11.576,58.839c-0.926,26.409-7.266,46.425-21.639,68.313l-5.95,8.175l16.469,20.864h21.32   l43.12-115.333c0,0,0.012,185.344,0,186.5c-0.631-0.179-147.711-51.462-147.711-51.462l-19.818-143.164l49.457,57.137   c1.723-1.064,6.92-17.417,8.1-25.481c3.713-25.393-7.611-52.938-28.178-68.52c-42.277-32.037-102.381-12.003-117.058,39.018   c-1.836,6.381-2.278,10.33-2.239,19.955c0.053,12.602,1.255,18.854,5.754,29.901l2.403,5.899l48.872-58.149L564.46,262.561   l-147.101,51.842L417.357,127.809z"/>
  </g>
</svg>
