<?xml version="1.0" encoding="utf-8"?>
<svg xmlns:svg="http://www.w3.org/2000/svg" xmlns="http://www.w3.org/2000/svg" xmlns:xlink="http://www.w3.org/1999/xlink" version="1.1" id="svg2" x="0px" y="0px" width="388px" height="329px">
    <path d="M9.357,127.781l45.356,115.427h21.094l14.595-20.853l-5.115-7.646   c-9.088-13.588-16.008-29.989-19.627-46.518c-2.533-11.568-3.002-34.531-0.961-46.958c8.574-52.161,46.354-93.541,97.172-106.432   c60.82-15.429,124.04,14.903,150.518,72.215c8.543,18.492,12.316,37.675,11.576,58.839c-0.926,26.409-7.266,46.425-21.639,68.313   l-5.95,8.175l16.469,20.864h21.32l43.12-115.333c0,0,0.012,185.344,0,186.5c-0.631-0.179-147.711-51.462-147.711-51.462   l-19.818-143.164l49.457,57.137c1.723-1.064,6.92-17.417,8.1-25.481c3.713-25.393-7.611-52.938-28.178-68.52   c-42.277-32.037-102.381-12.003-117.058,39.018c-1.836,6.381-2.278,10.33-2.239,19.955c0.052,12.602,1.255,18.854,5.754,29.901   l2.403,5.899l48.872-58.149L156.46,262.533L9.359,314.375L9.357,127.781z"/>
</svg>
