<?xml version="1.0" encoding="utf-8"?>
<!-- Generator: Adobe Illustrator 15.1.0, SVG Export Plug-In . SVG Version: 6.00 Build 0)  -->
<!DOCTYPE svg PUBLIC "-//W3C//DTD SVG 1.1//EN" "http://www.w3.org/Graphics/SVG/1.1/DTD/svg11.dtd">
<svg version="1.1" id="Layer_1" xmlns="http://www.w3.org/2000/svg" xmlns:xlink="http://www.w3.org/1999/xlink" x="0px" y="0px"
	 width="160px" height="112px" viewBox="0 0 160 112" enable-background="new 0 0 160 112" xml:space="preserve">
<g id="Layer_1_1_">
</g>
<g id="Layer_3" display="none">
</g>
<g>
	<path fill="#FFFFFF" d="M26.129,90.555l1.78-4.564c-0.687-0.247-1.315-0.484-1.878-0.703C19.03,82.559,12.905,77.732,9.227,72.05
		c-4.422-6.835-5.231-14.37-2.339-21.79c6.519-16.729,33.983-34.033,68.657-34.033c1.496,0,3.016,0.031,4.519,0.095l0.624,0.026
		l5.254-13.479l48.306,18.827l-1.78,4.564c0.688,0.248,1.315,0.484,1.879,0.704c7,2.729,13.125,7.555,16.805,13.238
		c4.422,6.834,5.229,14.369,2.338,21.788c-6.521,16.729-33.982,34.033-68.654,34.033c-1.496,0-3.018-0.031-4.521-0.096l-0.623-0.025
		l-5.253,13.479L26.129,90.555z M114.793,71.605c11.607-5.281,17.924-12.369,19.4-16.158c1.049-2.688,0.82-5.064-0.695-7.266
		c-1.255-1.82-3.395-3.45-5.725-4.358c-0.623-0.243-1.25-0.476-1.881-0.699L114.793,71.605z M45.582,40.644
		c-11.609,5.282-17.924,12.37-19.4,16.159c-1.048,2.688-0.821,5.064,0.695,7.266c1.255,1.82,3.396,3.451,5.726,4.358
		c0.623,0.243,1.25,0.476,1.88,0.699L45.582,40.644z"/>
	<path d="M74.623,72.833c-3.808,9.08-11.701,14.442-17.881,12.035c-6.33-2.47-8.465-12.152-4.771-21.63
		c3.308-8.489,10.171-13.936,16.115-13.205l-6.853,17.58L74.623,72.833z M77.283,73.87c-4.317,10.547-11.151,14.762-20.191,16.313
		c-8.09,1.391-17.025-0.769-25.838-3.569l-0.795,2.038l42.075,16.399l11.177-28.678L77.283,73.87z M83.092,38.38
		c4.317-10.547,11.15-14.762,20.191-16.313c8.09-1.391,17.023,0.768,25.838,3.569l0.795-2.039L87.842,7.198L76.665,35.875
		L83.092,38.38z M107.002,82.393l16.924-43.426c1.684,0.503,3.377,1.085,5.061,1.741c5.021,1.956,11.58,7.599,8.322,15.954
		c-2.222,5.699-10.951,14.178-24.834,19.543l-3.852,9.878l-13.991-5.452c-3.112,0.387-6.368,0.604-9.763,0.621l-4.417,11.336
		c36.478,1.536,63.899-16.365,69.92-31.813c5.396-13.839-5.063-25.949-17.243-30.696c-7.502-2.925-17.699-5.475-26.932-4.623
		c6.732,3.854,8.904,14.227,4.865,24.592C106.73,61.16,97.137,67.449,89.221,64.364c-0.242-0.095-0.479-0.195-0.711-0.304
		l6.938-17.805L53.373,29.858L36.45,73.283c-1.683-0.503-3.377-1.085-5.062-1.741c-5.019-1.956-11.579-7.599-8.322-15.954
		c2.222-5.699,10.951-14.178,24.835-19.543l3.851-9.878l13.992,5.453c3.112-0.387,6.368-0.604,9.762-0.622l4.417-11.336
		c-36.477-1.535-63.9,16.364-69.92,31.812c-5.395,13.84,5.063,25.951,17.243,30.697c7.502,2.925,17.701,5.476,26.932,4.623
		c-6.733-3.854-8.904-14.228-4.864-24.592C53.646,51.09,63.24,44.801,71.156,47.886c0.242,0.094,0.479,0.195,0.71,0.304
		l-6.938,17.803L107.002,82.393 M99.143,44.637l-6.854,17.58c5.943,0.729,12.807-4.716,16.115-13.205
		c3.693-9.478,1.559-19.161-4.771-21.629c-6.181-2.408-14.072,2.954-17.882,12.034L99.143,44.637z"/>
</g>
</svg>
