<?xml version="1.0" encoding="utf-8"?>
<!-- Generator: Adobe Illustrator 15.1.0, SVG Export Plug-In . SVG Version: 6.00 Build 0)  -->
<!DOCTYPE svg PUBLIC "-//W3C//DTD SVG 1.1//EN" "http://www.w3.org/Graphics/SVG/1.1/DTD/svg11.dtd">
<svg version="1.1" id="Layer_1" xmlns="http://www.w3.org/2000/svg" xmlns:xlink="http://www.w3.org/1999/xlink" x="0px" y="0px"
	 width="160px" height="112px" viewBox="0 0 160 112" enable-background="new 0 0 160 112" xml:space="preserve">
<g id="Layer_1_1_">
</g>
<g id="Layer_3" display="none">
</g>
<g>
	<path d="M26.018,90.555l1.78-4.565c-0.687-0.247-1.315-0.484-1.878-0.703c-7.001-2.728-13.126-7.554-16.804-13.237
		C4.693,65.215,3.884,57.68,6.776,50.26c6.52-16.729,33.983-34.033,68.657-34.033c1.495,0,3.016,0.031,4.519,0.095l0.623,0.026
		l5.254-13.479l48.305,18.827l-1.779,4.564c0.687,0.248,1.314,0.484,1.878,0.704c7.001,2.729,13.126,7.555,16.804,13.238
		c4.423,6.834,5.231,14.369,2.34,21.788c-6.52,16.729-33.982,34.033-68.654,34.033c-1.497,0-3.018-0.031-4.521-0.095l-0.623-0.026
		l-5.254,13.479L26.018,90.555z M114.682,71.606c11.608-5.282,17.924-12.37,19.4-16.159c1.048-2.688,0.821-5.064-0.694-7.266
		c-1.256-1.82-3.396-3.45-5.727-4.358c-0.622-0.243-1.25-0.476-1.879-0.699L114.682,71.606z M45.471,40.644
		c-11.609,5.282-17.924,12.37-19.4,16.159c-1.048,2.688-0.821,5.064,0.695,7.266c1.255,1.82,3.396,3.45,5.726,4.358
		c0.623,0.243,1.25,0.476,1.88,0.699L45.471,40.644z"/>
	<linearGradient id="SVGID_1_" gradientUnits="userSpaceOnUse" x1="8.4355" y1="56.1255" x2="151.7168" y2="56.1255">
		<stop  offset="0" style="stop-color:#8D742F"/>
		<stop  offset="0.1336" style="stop-color:#9F8641"/>
		<stop  offset="0.25" style="stop-color:#B39A54"/>
		<stop  offset="0.2646" style="stop-color:#B69D57"/>
		<stop  offset="0.4104" style="stop-color:#CEB46C"/>
		<stop  offset="0.5" style="stop-color:#D7BD74"/>
		<stop  offset="0.5896" style="stop-color:#CEB46C"/>
		<stop  offset="0.7354" style="stop-color:#B69D57"/>
		<stop  offset="0.75" style="stop-color:#B39A54"/>
		<stop  offset="0.8664" style="stop-color:#9F8641"/>
		<stop  offset="1" style="stop-color:#8D742F"/>
	</linearGradient>
	<path fill="url(#SVGID_1_)" d="M74.511,72.833c-3.807,9.08-11.7,14.442-17.881,12.035c-6.33-2.469-8.465-12.152-4.771-21.63
		c3.308-8.489,10.171-13.935,16.115-13.205l-6.853,17.58L74.511,72.833z M77.172,73.87c-4.317,10.547-11.151,14.762-20.19,16.313
		c-8.09,1.391-17.025-0.768-25.839-3.569l-0.795,2.039l42.076,16.399l11.176-28.678L77.172,73.87z M82.98,38.38
		c4.317-10.547,11.151-14.762,20.19-16.313c8.09-1.391,17.025,0.768,25.838,3.569l0.796-2.039L87.729,7.198L76.554,35.875
		L82.98,38.38z M106.891,82.392l16.923-43.425c1.684,0.503,3.378,1.085,5.063,1.741c5.02,1.956,11.578,7.599,8.321,15.954
		c-2.222,5.699-10.952,14.178-24.835,19.543l-3.851,9.878l-13.991-5.452c-3.112,0.386-6.367,0.603-9.762,0.621l-4.418,11.336
		c36.478,1.536,63.9-16.365,69.92-31.812c5.395-13.84-5.063-25.95-17.242-30.697c-7.502-2.925-17.701-5.475-26.932-4.623
		c6.732,3.854,8.904,14.227,4.863,24.592c-4.331,11.112-13.926,17.401-21.842,14.316c-0.241-0.094-0.479-0.195-0.71-0.304
		l6.938-17.804L53.262,29.858L36.338,73.283c-1.683-0.503-3.377-1.085-5.062-1.741c-5.019-1.956-11.579-7.598-8.322-15.954
		c2.222-5.699,10.951-14.178,24.835-19.543l3.851-9.878l13.991,5.453c3.112-0.387,6.368-0.604,9.762-0.622l4.418-11.336
		c-36.477-1.535-63.9,16.364-69.92,31.812c-5.395,13.84,5.063,25.951,17.243,30.697c7.502,2.925,17.701,5.475,26.931,4.623
		c-6.732-3.854-8.904-14.227-4.864-24.592c4.332-11.112,13.926-17.401,21.842-14.316c0.241,0.094,0.479,0.195,0.71,0.304
		l-6.938,17.803L106.891,82.392 M99.03,44.637l-6.853,17.58c5.944,0.729,12.808-4.716,16.115-13.205
		c3.694-9.478,1.56-19.161-4.771-21.629c-6.181-2.408-14.074,2.954-17.881,12.034L99.03,44.637z M64.815,65.992"/>
</g>
</svg>
