<?xml version="1.0" encoding="utf-8"?>
<!-- Generator: Adobe Illustrator 15.1.0, SVG Export Plug-In . SVG Version: 6.00 Build 0)  -->
<!DOCTYPE svg PUBLIC "-//W3C//DTD SVG 1.1//EN" "http://www.w3.org/Graphics/SVG/1.1/DTD/svg11.dtd">
<svg version="1.1" id="Layer_1" xmlns="http://www.w3.org/2000/svg" xmlns:xlink="http://www.w3.org/1999/xlink" x="0px" y="0px"
	 width="160px" height="112px" viewBox="0 0 160 112" enable-background="new 0 0 160 112" xml:space="preserve">
<g id="Layer_1_1_">
</g>
<g id="Layer_3" display="none">
</g>
<g>
	<path d="M25.462,90.427l1.78-4.565c-0.687-0.247-1.314-0.484-1.878-0.703c-7.001-2.728-13.126-7.554-16.804-13.237
		c-4.423-6.834-5.232-14.369-2.34-21.789c6.52-16.729,33.982-34.033,68.657-34.033c1.495,0,3.016,0.031,4.519,0.095l0.623,0.026
		L85.273,2.74l48.305,18.827l-1.779,4.564c0.687,0.248,1.314,0.484,1.878,0.704c7.001,2.729,13.126,7.555,16.804,13.238
		c4.423,6.834,5.231,14.369,2.34,21.788c-6.52,16.729-33.982,34.033-68.654,34.033c-1.497,0-3.018-0.031-4.521-0.095l-0.623-0.026
		l-5.254,13.479L25.462,90.427z M114.126,71.479c11.608-5.282,17.924-12.37,19.4-16.159c1.048-2.688,0.821-5.064-0.694-7.266
		c-1.256-1.82-3.396-3.45-5.727-4.358c-0.622-0.243-1.25-0.476-1.879-0.699L114.126,71.479z M44.915,40.516
		c-11.608,5.282-17.924,12.37-19.4,16.159c-1.048,2.688-0.821,5.064,0.694,7.266c1.256,1.82,3.396,3.45,5.727,4.358
		c0.622,0.243,1.25,0.476,1.879,0.699L44.915,40.516z"/>
	<linearGradient id="SVGID_1_" gradientUnits="userSpaceOnUse" x1="7.8799" y1="55.9976" x2="151.1611" y2="55.9976">
		<stop  offset="0" style="stop-color:#612C75"/>
		<stop  offset="0.1367" style="stop-color:#6E3E82"/>
		<stop  offset="0.25" style="stop-color:#7B5190"/>
		<stop  offset="0.3585" style="stop-color:#A078AB"/>
		<stop  offset="0.4462" style="stop-color:#B790BD"/>
		<stop  offset="0.5" style="stop-color:#BF99C3"/>
		<stop  offset="0.5538" style="stop-color:#B790BD"/>
		<stop  offset="0.6415" style="stop-color:#A078AB"/>
		<stop  offset="0.75" style="stop-color:#7B5190"/>
		<stop  offset="0.8633" style="stop-color:#6E3E82"/>
		<stop  offset="1" style="stop-color:#612C75"/>
	</linearGradient>
	<path fill="url(#SVGID_1_)" d="M73.955,72.705c-3.807,9.08-11.7,14.442-17.881,12.035c-6.33-2.469-8.465-12.152-4.771-21.63
		c3.308-8.489,10.171-13.935,16.115-13.205l-6.853,17.58L73.955,72.705z M76.616,73.742c-4.317,10.547-11.151,14.762-20.19,16.313
		c-8.09,1.391-17.025-0.768-25.839-3.569l-0.796,2.039l42.076,16.399l11.176-28.678L76.616,73.742z M82.425,38.252
		c4.317-10.547,11.151-14.762,20.19-16.313c8.09-1.391,17.025,0.768,25.838,3.569l0.796-2.039L87.174,7.07L75.998,35.747
		L82.425,38.252z M106.335,82.264l16.923-43.425c1.684,0.503,3.378,1.085,5.063,1.741c5.02,1.956,11.578,7.599,8.321,15.954
		c-2.222,5.699-10.952,14.178-24.835,19.543l-3.851,9.878l-13.991-5.452c-3.112,0.386-6.367,0.603-9.762,0.621L79.785,92.46
		c36.478,1.536,63.9-16.365,69.92-31.812c5.395-13.84-5.063-25.95-17.242-30.697c-7.502-2.925-17.701-5.475-26.932-4.623
		c6.732,3.854,8.904,14.227,4.863,24.592c-4.331,11.112-13.926,17.401-21.842,14.316c-0.241-0.094-0.479-0.195-0.71-0.304
		l6.938-17.804L52.706,29.73L35.783,73.155c-1.684-0.503-3.377-1.085-5.063-1.741c-5.019-1.956-11.578-7.598-8.321-15.954
		c2.222-5.699,10.951-14.178,24.835-19.543l3.851-9.878l13.991,5.453c3.112-0.387,6.368-0.604,9.762-0.622l4.418-11.336
		c-36.477-1.535-63.9,16.364-69.92,31.812c-5.395,13.84,5.063,25.951,17.242,30.697c7.503,2.925,17.701,5.475,26.932,4.623
		c-6.732-3.854-8.904-14.227-4.863-24.592c4.331-11.112,13.926-17.401,21.842-14.316c0.241,0.094,0.479,0.195,0.71,0.304
		L64.26,65.864L106.335,82.264 M98.475,44.509l-6.853,17.58c5.944,0.729,12.808-4.716,16.115-13.205
		c3.694-9.478,1.56-19.161-4.771-21.629c-6.181-2.408-14.074,2.954-17.881,12.034L98.475,44.509z M64.26,65.864"/>
</g>
</svg>
