<?xml version="1.0" encoding="utf-8"?>
<!-- Generator: Adobe Illustrator 15.1.0, SVG Export Plug-In . SVG Version: 6.00 Build 0)  -->
<!DOCTYPE svg PUBLIC "-//W3C//DTD SVG 1.1//EN" "http://www.w3.org/Graphics/SVG/1.1/DTD/svg11.dtd">
<svg version="1.1" id="Layer_1" xmlns="http://www.w3.org/2000/svg" xmlns:xlink="http://www.w3.org/1999/xlink" x="0px" y="0px"
	 width="160px" height="112px" viewBox="0 0 160 112" enable-background="new 0 0 160 112" xml:space="preserve">
<g id="Layer_1_1_">
</g>
<g id="Layer_3" display="none">
</g>
<g>
	<path d="M73.806,73.488c-3.986,9.506-12.25,15.12-18.72,12.6c-6.626-2.584-8.862-12.722-4.994-22.644
		c3.463-8.888,10.648-14.589,16.871-13.825l-7.174,18.405L73.806,73.488z M76.591,74.574c-4.52,11.042-11.674,15.454-21.138,17.078
		c-8.469,1.456-17.823-0.803-27.05-3.736l-0.833,2.135l44.048,17.169L83.32,77.196L76.591,74.574z M82.672,37.42
		c4.521-11.042,11.674-15.454,21.139-17.079c8.469-1.455,17.822,0.804,27.049,3.737l0.833-2.135L87.645,4.775L75.944,34.798
		L82.672,37.42z M107.703,83.495l17.718-45.461c1.762,0.526,3.536,1.136,5.299,1.823c5.255,2.048,12.122,7.955,8.712,16.702
		c-2.326,5.966-11.465,14.843-26,20.459L109.4,87.36l-14.646-5.708c-3.259,0.403-6.666,0.631-10.221,0.65L79.909,94.17
		c38.189,1.608,66.897-17.133,73.199-33.304c5.648-14.488-5.301-27.167-18.051-32.137c-7.854-3.062-18.53-5.731-28.195-4.84
		c7.049,4.034,9.322,14.894,5.093,25.745c-4.534,11.634-14.579,18.218-22.866,14.988c-0.253-0.099-0.501-0.205-0.744-0.318
		l7.264-18.639L51.56,28.499L33.843,73.96c-1.761-0.526-3.535-1.136-5.299-1.823c-5.254-2.048-12.122-7.954-8.712-16.702
		c2.326-5.966,11.465-14.843,26-20.459l4.031-10.342l14.648,5.709c3.258-0.404,6.666-0.632,10.219-0.651l4.625-11.867
		C41.167,16.217,12.458,34.956,6.156,51.128c-5.647,14.488,5.301,27.168,18.051,32.137c7.854,3.062,18.531,5.731,28.195,4.84
		c-7.049-4.034-9.322-14.894-5.092-25.745c4.535-11.634,14.579-18.218,22.866-14.988c0.253,0.099,0.501,0.205,0.744,0.318
		l-7.264,18.638L107.703,83.495 M99.475,43.97l-7.174,18.405c6.223,0.764,13.408-4.938,16.871-13.825
		c3.867-9.922,1.633-20.06-4.994-22.643C97.707,23.386,89.443,29,85.458,38.506L99.475,43.97z M63.656,66.327"/>
</g>
</svg>
