<?xml version="1.0" encoding="UTF-8" standalone="no"?>
<svg xmlns="http://www.w3.org/2000/svg" version="1.1" width="600" height="431.49213">
  <radialGradient cx="0" cy="0" r="1" fx="0" fy="0" id="radialGradient802" gradientUnits="userSpaceOnUse" gradientTransform="matrix(21.145584,0,0,-21.145584,481.18359,259.30273)" spreadMethod="pad">
    <stop style="stop-color:#ebd491" offset="0"/>
    <stop style="stop-color:#d2bb7b" offset="0.7"/>
    <stop style="stop-color:#8b723c" offset="1"/>
  </radialGradient>
  <path d="m 398.20211,206.94385 0,98.17515 -44.67018,0 c 12.30831,-27.04374 22.96615,-50.56004 44.67018,-98.17515 M 279.75764,126.37356 C 269.21846,148.6709 264.83881,157.89403 252.23926,184.57101 240.233,157.80773 236.01517,148.4983 226.02614,126.37356 l 53.7315,0 z M 0,4.3e-4 l 0,126.41628 62.07008,0 c 10.45288,22.41599 59.83711,128.22855 82.87877,177.61277 l -123.75183,0 0,127.46265 578.80297,0 0,-126.32998 c 0,0 -39.94534,-0.0777 -52.76064,-0.11909 l 0,-178.62678 52.76064,0 L 600,0 0,0 z"/>
  <path d="m 322.69106,99.157223 -138.75694,0 67.71184,150.385647 71.0451,-150.385647 z m -11.4561,233.188907 114.18349,0 0,-233.145758 -8.09047,0 L 311.23496,332.34613 z M 79.38368,99.200372 l -52.16735,0 0,-71.972812 545.56733,0 0,71.972812 -52.76065,0 0,232.973158 52.76065,0.1726 0,71.92966 -524.3703,0 0,-73.02997 139.26395,0 L 79.38368,99.200372 z" style="fill:#8b723c"/>
  <g transform="matrix(10.787293,0,0,-10.787293,-4890.6887,3012.9451)">
    <path d="m 456.496,276.18 0,-5.473 4.238,0 0.383,0 0.164,-0.348 10.039,-21.507 0.399,-0.856 -0.946,0 -12.308,0 0,-5.57 47.406,0 0,5.472 -4.293,0.012 -0.598,0 0,0.602 0,21.597 0,0.598 0.602,0 4.289,0 0,5.473 -49.375,0 z m 19.66,-20.254 -6.277,13.941 -0.383,0.848 0.93,0 12.863,0 0.945,0 -0.402,-0.856 -6.586,-13.941 -0.555,-1.18 -0.535,1.188 z m 5.524,-7.18 9.836,21.609 0.16,0.352 0.386,0 0.75,0 0.602,0 0,-0.598 0,-21.613 0,-0.601 -0.602,0 -10.585,0 -0.934,0 0.387,0.851 z" style="fill:url(#radialGradient802)"/>
  </g>
</svg>
