<?xml version="1.0" encoding="UTF-8" standalone="no"?>
<svg
   xmlns:dc="http://purl.org/dc/elements/1.1/"
   xmlns:cc="http://creativecommons.org/ns#"
   xmlns:rdf="http://www.w3.org/1999/02/22-rdf-syntax-ns#"
   xmlns:svg="http://www.w3.org/2000/svg"
   xmlns="http://www.w3.org/2000/svg"
   xmlns:xlink="http://www.w3.org/1999/xlink"
   height="612.85718"
   width="1355.4628"
   version="1.1">
  <path
     d="m 70,0 h 1211.8913 c 0,0 73.5715,160.35086 73.5715,306.42786 0,146.077 -73.5715,306.42932 -73.5715,306.42932 H 70 c 0,0 -70,-160.35232 -70,-306.42932 C 0,160.35086 70,0 70,0 Z"
     style="fill:#ffffff" />
  <path
     d="M 94.257812 35.71875 C 94.257812 35.71875 35.476562 160.3605 35.476562 306.4375 C 35.476562 452.5145 94.257812 576.4375 94.257812 576.4375 L 1260.1016 576.4375 C 1260.1016 576.4375 1320.8203 452.5145 1320.8203 306.4375 C 1320.8203 160.3605 1260.1016 35.71875 1260.1016 35.71875 L 94.257812 35.71875 z M 915.75781 88.712891 C 963.69671 88.712891 1020.7429 116.62995 1020.7285 164.97461 C 1020.7145 213.31926 1017.4803 218.3719 899.2793 345.4707 L 989.08398 345.4707 L 1009.082 299.63281 C 1009.082 299.63281 1018.925 297.03361 1020.7285 299.63281 L 1020.7285 402.60156 L 816.5 402.60156 L 812.51367 393.93555 C 910.12136 283.06077 947.3418 204.32158 947.3418 173.7168 C 947.3418 143.11202 939.85024 123.67969 913.79297 123.67969 C 887.73571 123.67969 880.3418 153.26791 880.3418 163.45117 C 880.3418 173.63442 880.74158 179.69522 885.98828 187.58008 L 875.92773 199.20508 L 821.78516 129.0332 C 844.92537 109.20885 873.58238 88.712891 915.75781 88.712891 z M 1164.7812 88.712891 L 1178.0547 88.712891 L 1178.0547 333.29102 C 1178.0547 365.62335 1199.1446 386.76758 1222.0488 386.76758 L 1222.0488 402.60156 L 1062.5293 402.60156 L 1062.5293 386.76758 L 1107.0195 371.05469 L 1107.0195 160.34961 L 1062.5293 160.34961 L 1062.5293 144.63867 C 1107.0328 131.82313 1130.8726 116.54208 1164.7812 88.712891 z M 234.66406 93.21875 L 399.85156 93.21875 C 404.88537 93.21876 409.36168 95.6762 411.16406 100.125 C 411.16906 100.1379 411.19021 100.14335 411.19531 100.15625 L 481.13281 274.75 C 484.0303 281.98305 486.23819 282.05417 489.35156 275 L 489.47656 274.75 L 538.38281 161.9375 C 538.91395 160.71239 539.43832 159.50523 539.94531 158.28125 C 546.31673 142.89913 549.10295 127.16142 506.19531 99.84375 C 506.25671 99.83975 506.32137 99.84775 506.38281 99.84375 C 502.56715 97.02197 499.24306 93.21875 510.53906 93.21875 L 701.35156 93.21875 C 708.76934 93.21875 709.27008 96.04806 702.03906 100.5625 C 702.04606 100.5745 702.06331 100.58195 702.07031 100.59375 L 699.85156 101.96875 C 673.89761 118.17219 670.91001 136.16361 686.16406 173.90625 L 787.00781 423.4375 C 787.09331 423.64896 787.17197 423.85233 787.25781 424.0625 C 797.00309 447.92259 809.26697 463.6059 837.75781 494.59375 C 838.54091 495.44543 839.24607 496.19484 839.88281 496.90625 C 844.34002 501.88615 844.87774 503.55375 837.07031 503.5625 L 631.13281 503.5625 L 629.69531 503.5625 C 622.68169 503.35606 619.90642 501.46933 630.75781 494.28125 C 662.18724 470.60445 659.35536 447.3584 642.88281 406.3125 L 642.75781 406.03125 L 584.28906 260.59375 L 583.50781 258.6875 C 579.60818 249.93198 576.58567 250.4063 572.25781 260.0625 C 572.17551 260.24612 572.09107 260.40347 572.00781 260.59375 L 457.78906 521.875 C 457.63788 521.97537 457.57655 522.08619 457.63281 522.1875 C 451.68549 535.79075 449.83621 535.97653 444.47656 522.8125 C 444.38856 522.59649 444.31643 522.41072 444.22656 522.1875 C 444.30986 522.05712 444.23846 521.9097 444.07031 521.78125 L 338.91406 260.59375 L 338.60156 259.875 C 334.41631 249.84404 331.30797 249.99031 326.72656 260.34375 C 326.68716 260.43275 326.64116 260.50321 326.60156 260.59375 L 263.57031 404.625 C 263.52841 404.7207 263.48671 404.81064 263.44531 404.90625 C 249.71328 436.63376 264.11472 461.18628 309.57031 495.75 C 309.54901 495.7794 309.52871 495.81455 309.50781 495.84375 C 315.24077 499.95937 317.49159 503.5625 307.03906 503.5625 L 123.85156 503.5625 C 117.11378 503.5625 116.70569 502.60604 122.44531 496.59375 C 148.5875 469.18376 168.65065 445.97569 181.44531 417.09375 L 280.66406 193.0625 C 280.65606 193.0585 280.64071 193.0665 280.63281 193.0625 C 281.75774 190.5223 282.86089 188.09832 283.88281 185.75 C 299.21162 150.52528 301.41292 135.727 244.97656 106.78125 L 234.00781 101.15625 C 233.96451 101.13405 233.92571 101.11605 233.88281 101.09375 C 226.91716 97.47442 226.09877 93.21875 234.66406 93.21875 z "
     style="fill:#000000" />
</svg>
