<?xml version="1.0" encoding="UTF-8" standalone="no"?>
<svg xmlns="http://www.w3.org/2000/svg" xmlns:xlink="http://www.w3.org/1999/xlink" version="1.1" width="600" height="843.99438" viewBox="0 0 600 843.99438" id="M">
  <linearGradient x1="89.138702" y1="199.0762" x2="210.6963" y2="199.0762" id="SVGID_1_" gradientUnits="userSpaceOnUse">
    <stop offset="0.1" style="stop-color:#f6b91d"/>
    <stop offset="0.5" style="stop-color:#bf331c"/>
    <stop offset="0.9" style="stop-color:#f6b91d"/>
  </linearGradient>
  <linearGradient x1="8.0370998" y1="226.02251" x2="138.4424" y2="226.02251" id="SVGID_2_" gradientUnits="userSpaceOnUse">
    <stop offset="0.1" style="stop-color:#f6b91d"/>
    <stop offset="0.5" style="stop-color:#bf331c"/>
    <stop offset="0.9" style="stop-color:#f6b91d"/>
  </linearGradient>
  <linearGradient x1="161.5576" y1="226.02251" x2="291.96289" y2="226.02251" id="SVGID_3_" gradientUnits="userSpaceOnUse">
    <stop offset="0.1" style="stop-color:#f6b91d"/>
    <stop offset="0.5" style="stop-color:#bf331c"/>
    <stop offset="0.9" style="stop-color:#f6b91d"/>
  </linearGradient>
  <linearGradient x1="161.5576" y1="226.02251" x2="291.96289" y2="226.02251" id="linearGradient3068" xlink:href="#SVGID_3_" gradientUnits="userSpaceOnUse" gradientTransform="scale(1.9999867,1.9999867)"/>
  <linearGradient x1="8.0370998" y1="226.02251" x2="138.4424" y2="226.02251" id="linearGradient3071" xlink:href="#SVGID_2_" gradientUnits="userSpaceOnUse" gradientTransform="scale(1.9999867,1.9999867)"/>
  <linearGradient x1="89.138702" y1="199.0762" x2="210.6963" y2="199.0762" id="linearGradient3074" xlink:href="#SVGID_1_" gradientUnits="userSpaceOnUse" gradientTransform="scale(1.9999867,1.9999867)"/>
  <path d="m 299.998,780.2368 c -2.71398,0 -5.43196,-0.684 -7.87595,-2.06199 L 186.47476,718.8272 c -5.06397,-2.84798 -8.19995,-8.19994 -8.19995,-14.0039 V 91.47939 c 0,-5.80396 3.13398,-11.15993 8.19995,-14.00191 l 105.64729,-59.3516 c 2.44399,-1.374 5.15997,-2.05999 7.87595,-2.05999 2.71598,0 5.43196,0.68599 7.87595,2.05999 l 105.3193,59.1656 c 5.06396,2.84398 8.19794,8.19795 8.19794,14.00191 V 705.0113 c 0,5.80396 -3.13198,11.15992 -8.19794,13.9999 l -105.3193,59.16361 c -2.44399,1.37799 -5.16197,2.06199 -7.87595,2.06199 z" style="fill:url(#linearGradient3074)"/>
  <path d="m 260.81226,827.92848 c -1.20199,0 -2.41798,-0.132 -3.62997,-0.414 L 28.52181,774.58483 C 21.233858,772.90084 16.073893,766.41289 16.073893,758.93694 V 152.04098 c 0,-5.80596 3.131979,-11.15792 8.197945,-14.0019 L 130.75913,78.21548 c 2.44798,-1.376 5.16196,-2.06199 7.87595,-2.06199 2.80598,0 5.61196,0.73199 8.11794,2.19798 4.92797,2.88199 7.95795,8.15995 7.95795,13.86591 v 639.11774 l 114.20524,66.65556 c 6.86395,4.00797 9.76593,12.42191 6.83195,19.79986 -2.47598,6.22796 -8.47394,10.13794 -14.9359,10.13794 z" style="fill:url(#linearGradient3071)"/>
  <path d="m 339.18374,827.92848 c -6.45996,0 -12.45792,-3.90998 -14.9319,-10.13594 -2.93398,-7.37795 -0.032,-15.79189 6.83195,-19.79986 L 445.28903,731.33712 V 92.21738 c 0,-5.70796 3.02998,-10.98392 7.95795,-13.86591 2.50598,-1.46399 5.30996,-2.19798 8.11794,-2.19798 2.71199,0 5.42797,0.68599 7.87595,2.06199 l 106.48729,59.8216 c 5.06397,2.84398 8.19795,8.19794 8.19795,14.0019 v 606.89596 c 0,7.47595 -5.15997,13.9639 -12.44792,15.64789 l -228.66448,52.93165 c -1.20999,0.28 -2.42998,0.414 -3.62997,0.414 z" style="fill:url(#linearGradient3068)"/>
  <path d="M 583.60211,124.03517 477.11482,64.21157 c -4.89397,-2.74998 -10.32593,-4.12197 -15.7519,-4.12197 -5.61596,0 -11.22392,1.46599 -16.23389,4.39797 -4.86397,2.84198 -8.79194,6.85395 -11.53792,11.55592 -2.83798,-5.25797 -7.12595,-9.72394 -12.52392,-12.75592 L 315.7499,4.12197 C 310.85993,1.37599 305.42996,0 299.998,0 294.56604,0 289.13407,1.37399 284.24611,4.12197 l -105.6473,59.3516 c -5.26597,2.95798 -9.47594,7.27995 -12.31592,12.37392 -2.73598,-4.61597 -6.62195,-8.55794 -11.41392,-11.35992 -5.00997,-2.92998 -10.62393,-4.39797 -16.23389,-4.39797 -5.42797,0 -10.85793,1.37399 -15.7519,4.12197 L 16.393891,124.03517 C 6.2679582,129.72313 0,140.42906 0,152.04098 v 606.89596 c 0,14.9499 10.317931,27.92581 24.891834,31.29579 l 228.660476,52.92965 c 2.42798,0.56199 4.86397,0.83199 7.26795,0.83199 12.92192,0 24.91784,-7.82395 29.8638,-20.27386 4.06797,-10.23394 2.51399,-21.45786 -3.38998,-30.0498 4.05398,1.74198 8.37595,2.63198 12.70592,2.63198 4.32997,0 8.64994,-0.89 12.70592,-2.63198 -5.90397,8.59394 -7.45795,19.81586 -3.38998,30.0498 4.94596,12.44991 16.94388,20.27386 29.8638,20.27386 2.40398,0 4.83797,-0.27 7.26795,-0.83199 L 575.10817,790.23273 C 589.68207,786.86075 600,773.88484 600,758.93694 V 152.04098 c -0.004,-11.61192 -6.27196,-22.31785 -16.39789,-28.00581 z M 32.145786,758.93694 V 152.04098 L 138.63308,92.21938 V 740.55506 L 260.80626,811.86258 32.145786,758.93694 z M 194.3507,704.8233 V 91.47939 L 299.998,32.12778 405.3153,91.29339 V 705.0113 L 299.998,764.1749 194.3507,704.8233 z m 373.49951,54.11364 -228.66047,52.92564 122.17318,-71.30752 V 92.21738 l 106.48729,59.8216 v 606.89796 z" style="fill:#ffffff"/>
  <path d="m 299.998,777.22482 c -2.20599,0 -4.41197,-0.558 -6.39996,-1.67599 L 187.95075,716.20122 c -4.11398,-2.31198 -6.65996,-6.66395 -6.65996,-11.37792 V 91.47939 c 0,-4.71597 2.54598,-9.06594 6.65996,-11.37793 l 105.64729,-59.3516 c 3.97398,-2.23399 8.82594,-2.23399 12.79992,0 l 105.3153,59.1636 c 4.11597,2.31199 6.66195,6.66196 6.66195,11.37793 V 705.0093 c 0,4.71397 -2.54598,9.06594 -6.66195,11.37592 l -105.3153,59.16361 c -1.98799,1.11799 -4.19397,1.67599 -6.39996,1.67599 z M 207.41062,697.18735 299.998,749.199 392.25538,697.37535 V 98.92734 L 299.998,47.09968 207.41062,99.11534 v 598.07201 z"/>
  <path d="m 260.81226,824.9165 c -0.97599,0 -1.96599,-0.11 -2.95398,-0.34 L 29.199805,771.65085 C 23.279845,770.27886 19.085873,765.0069 19.085873,758.93694 V 152.04098 c 0,-4.71597 2.545983,-9.06594 6.659955,-11.37592 L 132.23312,80.84346 c 4.04197,-2.27199 8.98994,-2.23199 12.99391,0.112 4.00398,2.33998 6.46396,6.62995 6.46396,11.26592 v 640.84373 l 115.69923,67.53155 c 5.57596,3.25398 7.93594,10.09393 5.55196,16.08989 -2.00599,5.05397 -6.88195,8.22995 -12.12992,8.22995 z M 45.207699,748.56101 179.8548,779.7288 132.04912,751.82698 c -4.00997,-2.34398 -6.47196,-6.63195 -6.47196,-11.27392 V 114.52723 l -80.369461,45.1477 v 588.88608 z"/>
  <path d="m 339.18374,824.9165 c -5.24797,0 -10.12393,-3.17598 -12.13192,-8.23395 -2.38198,-5.99596 -0.024,-12.83591 5.55196,-16.08989 L 448.30301,733.06111 V 92.21738 c 0,-4.63597 2.45998,-8.92394 6.46396,-11.26592 4.00397,-2.34199 8.95194,-2.38199 12.99391,-0.112 l 106.48729,59.8216 c 4.11397,2.31198 6.65996,6.65995 6.65996,11.37592 v 606.89596 c 0,6.06996 -4.19397,11.34392 -10.11394,12.71391 L 342.13572,824.5725 c -0.98599,0.234 -1.97599,0.344 -2.95198,0.344 z m 135.2371,-710.38927 v 626.02583 c 0,4.63997 -2.46199,8.92994 -6.47196,11.27392 L 420.1432,779.7288 554.7903,748.56101 V 159.67493 l -80.36946,-45.1477 z"/>
</svg>
