<?xml version="1.0" encoding="UTF-8" standalone="no"?>
<svg xmlns="http://www.w3.org/2000/svg" xmlns:xlink="http://www.w3.org/1999/xlink" version="1.1" width="600" height="843.99438" viewBox="0 0 600 843.99438" id="U">
  <linearGradient x1="89.138702" y1="199.0762" x2="210.6963" y2="199.0762" id="SVGID_1_" gradientUnits="userSpaceOnUse">
    <stop offset="0.1" style="stop-color:#d9eaf3"/>
    <stop offset="0.5" style="stop-color:#536e78"/>
    <stop offset="0.9" style="stop-color:#d9eaf3"/>
  </linearGradient>
  <linearGradient x1="8.0370998" y1="226.02251" x2="138.4424" y2="226.02251" id="SVGID_2_" gradientUnits="userSpaceOnUse">
    <stop offset="0.1" style="stop-color:#d9eaf3"/>
    <stop offset="0.5" style="stop-color:#536e78"/>
    <stop offset="0.9" style="stop-color:#d9eaf3"/>
  </linearGradient>
  <linearGradient x1="161.5576" y1="226.02251" x2="291.96289" y2="226.02251" id="SVGID_3_" gradientUnits="userSpaceOnUse">
    <stop offset="0.1" style="stop-color:#d9eaf3"/>
    <stop offset="0.5" style="stop-color:#536e78"/>
    <stop offset="0.9" style="stop-color:#d9eaf3"/>
  </linearGradient>
  <linearGradient x1="161.5576" y1="226.02251" x2="291.96289" y2="226.02251" id="linearGradient3059" xlink:href="#SVGID_3_" gradientUnits="userSpaceOnUse" gradientTransform="matrix(1.9999867,0,0,1.9999867,0,-2.3828125e-6)"/>
  <linearGradient x1="8.0370998" y1="226.02251" x2="138.4424" y2="226.02251" id="linearGradient3062" xlink:href="#SVGID_2_" gradientUnits="userSpaceOnUse" gradientTransform="matrix(1.9999867,0,0,1.9999867,0,-2.3828125e-6)"/>
  <linearGradient x1="89.138702" y1="199.0762" x2="210.6963" y2="199.0762" id="linearGradient3065" xlink:href="#SVGID_1_" gradientUnits="userSpaceOnUse" gradientTransform="matrix(1.9999867,0,0,1.9999867,0,-2.3828125e-6)"/>
  <path d="m 299.998,780.2368 c -2.71398,0 -5.43196,-0.684 -7.87595,-2.06199 L 186.47476,718.8272 c -5.06397,-2.84798 -8.19995,-8.19994 -8.19995,-14.0039 V 91.477388 c 0,-5.80396 3.13398,-11.15793 8.19995,-14.00191 l 105.64729,-59.3496 c 2.44399,-1.376 5.15997,-2.06199 7.87595,-2.06199 2.71598,0 5.43196,0.68599 7.87595,2.06199 l 105.3193,59.1636 c 5.06396,2.84398 8.19794,8.19795 8.19794,14.00191 V 705.0093 c 0,5.80396 -3.13198,11.15992 -8.19794,13.9999 l -105.3193,59.16361 c -2.44399,1.37999 -5.16197,2.06399 -7.87595,2.06399 z" style="fill:url(#linearGradient3065)"/>
  <path d="m 260.81226,827.92848 c -1.20199,0 -2.41798,-0.132 -3.62997,-0.414 L 28.52181,774.58483 C 21.233858,772.90084 16.073893,766.41289 16.073893,758.93694 V 152.04098 c 0,-5.80596 3.131979,-11.15992 8.197945,-14.0019 L 130.75913,78.219478 c 2.44798,-1.376 5.16196,-2.06199 7.87595,-2.06199 2.80598,0 5.61196,0.73199 8.11794,2.19798 4.92797,2.88199 7.95795,8.15995 7.95795,13.86591 V 731.33512 l 114.20524,66.65556 c 6.86395,4.00797 9.76593,12.42191 6.83195,19.79986 -2.47598,6.22796 -8.47394,10.13794 -14.9359,10.13794 z" style="fill:url(#linearGradient3062)"/>
  <path d="m 339.18374,827.92848 c -6.45996,0 -12.45792,-3.90998 -14.9319,-10.13594 -2.93398,-7.37795 -0.032,-15.79189 6.83195,-19.79986 L 445.28903,731.33712 V 92.217378 c 0,-5.70596 3.02998,-10.98392 7.95795,-13.86591 2.50598,-1.46599 5.30996,-2.19798 8.11794,-2.19798 2.71199,0 5.42797,0.68399 7.87595,2.06199 l 106.48729,59.819602 c 5.06397,2.84398 8.19795,8.19794 8.19795,14.0019 v 606.89596 c 0,7.47595 -5.15997,13.9639 -12.44792,15.64789 l -228.66448,52.93365 c -1.20999,0.28 -2.42998,0.414 -3.62997,0.414 z" style="fill:url(#linearGradient3059)"/>
  <path d="M 583.60211,124.03717 477.11482,64.213568 c -4.89397,-2.74998 -10.32593,-4.12197 -15.7519,-4.12197 -5.61596,0 -11.22392,1.46599 -16.23389,4.39597 -4.86397,2.84198 -8.79194,6.85595 -11.53792,11.55592 -2.83798,-5.25797 -7.12595,-9.72394 -12.52392,-12.75592 L 315.7499,4.1219676 C 310.85993,1.3739876 305.42996,-2.3828125e-6 299.998,-2.3828125e-6 294.56604,-2.3828125e-6 289.13407,1.3739876 284.24611,4.1219676 L 178.59881,63.471568 c -5.26597,2.95798 -9.47594,7.27995 -12.31592,12.37592 -2.73598,-4.61597 -6.62195,-8.55794 -11.41392,-11.35992 -5.00997,-2.92798 -10.62393,-4.39597 -16.23389,-4.39597 -5.42797,0 -10.85793,1.37199 -15.7519,4.12197 L 16.393891,124.03717 C 6.2679582,129.72313 0,140.42906 0,152.04098 v 606.89596 c 0,14.9499 10.317931,27.92581 24.891834,31.29579 l 228.660476,52.92965 c 2.42798,0.56199 4.86397,0.83199 7.26795,0.83199 12.92192,0 24.91784,-7.82395 29.8638,-20.27386 4.06797,-10.23394 2.51399,-21.45786 -3.38998,-30.0498 4.05398,1.74198 8.37595,2.63198 12.70592,2.63198 4.32997,0 8.64994,-0.89 12.70592,-2.63198 -5.90397,8.59394 -7.45795,19.81586 -3.38998,30.0498 4.94596,12.44991 16.94388,20.27386 29.8638,20.27386 2.40398,0 4.83797,-0.27 7.26795,-0.83199 L 575.10817,790.23273 C 589.68207,786.86075 600,773.88484 600,758.93694 V 152.04098 c -0.004,-11.61192 -6.27196,-22.31785 -16.39789,-28.00381 z M 32.145786,758.93694 V 152.04098 L 138.63308,92.219378 V 740.55506 L 260.80626,811.86258 32.145786,758.93694 z M 194.3507,704.8233 V 91.477388 L 299.998,32.127778 405.3153,91.291388 V 705.0093 L 299.998,764.1749 194.3507,704.8233 z m 373.49951,54.11364 -228.66047,52.92564 122.17318,-71.30752 V 92.217378 l 106.48729,59.821602 v 606.89796 z"/>
</svg>
