<?xml version="1.0" encoding="UTF-8" standalone="no"?>
<svg xmlns="http://www.w3.org/2000/svg" version="1.1" width="600" height="595.70648">
  <path d="M 509.18838,395.16009 C 491.67535,410.75205 468.29486,431.4073 437.98958,444.4974 326.88012,492.49442 195.81534,442.33805 145.83768,332.62845 116.00894,267.07372 120.77439,192.09233 157.48325,125.71854 194.41549,58.98735 267.83321,0 267.83321,0 c 0,0 -54.3857,11.64557 -102.50186,34.90693 C 61.02755,85.34624 0,191.09457 0,300.69993 c 0,40.89352 8.5629188,82.4274 26.597171,122.04021 32.688011,71.66046 91.377509,126.40357 165.376019,154.04318 74.05808,27.68429 154.26657,24.89948 226.00149,-7.74385 C 489.93299,536.23232 543.97617,475.1452 572.76247,401.6828 595.91958,342.69546 599.94043,276.60462 600,276.44081 c 0,0 -37.58749,71.19881 -90.81162,118.71928" style="fill:#808080"/>
  <path d="M 447.58004,466.65674 C 324.13999,520 179.8213,465.4356 123.85704,342.63589 88.771407,265.73344 98.138496,180.92331 137.17051,112.50931 154.34103,82.48697 182.4274,53.52197 182.4274,53.52197 46.656739,115.77067 -13.373045,276.72376 48.577811,412.67312 110.58824,548.8012 271.83917,609.06925 407.96724,546.99926 c 73.58153,-33.50708 125.01861,-96.09829 146.93968,-167.95235 0,0 -39.31496,58.24274 -107.32688,87.60983"/>
</svg>
