<?xml version="1.0" encoding="UTF-8" standalone="no"?>
<svg xmlns="http://www.w3.org/2000/svg" version="1.1" width="600" height="595.70648">
  <radialGradient cx="0" cy="0" r="1" fx="0" fy="0" id="radialGradient464" gradientUnits="userSpaceOnUse" gradientTransform="matrix(16.75679,0,0,-16.75679,218.1377,370.62402)" spreadMethod="pad">
    <stop style="stop-color:#f6b91d" offset="0"/>
    <stop style="stop-color:#d3641c" offset="0.7"/>
    <stop style="stop-color:#bf331c" offset="1"/>
  </radialGradient>
  <path d="m 509.18838,395.16008 c -17.45346,15.59196 -40.83395,36.24721 -71.1988,49.33731 C 326.88012,492.49441 195.81534,442.33804 145.83768,332.62844 116.00894,267.07371 120.77439,192.09233 157.48325,125.71854 194.41549,58.98734 267.83321,0 267.83321,0 c 0,0 -54.3857,11.64557 -102.50186,34.90692 C 61.02755,85.34624 0,191.09456 0,300.69992 c 0,40.89352 8.5629188,82.4274 26.597171,122.04021 32.688011,71.66046 91.437079,126.40357 165.435589,154.04319 73.99851,27.68428 154.207,24.89947 225.94192,-7.74386 C 489.93299,536.23231 543.97617,475.14519 572.76247,401.6828 595.91958,342.69545 599.94043,276.60461 600,276.4408 c 0,0 -37.58749,71.19881 -90.81162,118.71928" style="fill:#ffffff"/>
  <path d="M 447.58004,466.65673 C 324.13999,520 179.8213,465.43559 123.85704,342.63589 88.771407,265.73343 98.138496,180.9233 137.17051,112.5093 154.34103,82.48696 182.4274,53.52196 182.4274,53.52196 46.656739,115.77066 -13.373045,276.72375 48.577811,412.67312 110.6478,548.80119 271.83917,609.06924 407.96724,546.99925 c 73.58153,-33.50707 125.01861,-96.09829 146.93968,-167.95234 0,0 -39.31496,58.24274 -107.32688,87.60982" style="fill:#bf331c"/>
  <g transform="matrix(14.892033,0,0,-14.892033,-2965.0782,5839.0766)">
    <path d="m 202.73,364.551 c 2.887,-6.336 9.262,-10.43 16.243,-10.43 l 0,0 c 2.547,0 5.023,0.539 7.359,1.606 l 0,0 c 3.922,1.785 7.039,4.933 8.813,8.82 l 0,0 c -1.25,-1.317 -3.227,-3.031 -5.829,-4.16 l 0,0 c -2.152,-0.93 -4.429,-1.399 -6.765,-1.399 l 0,0 c -6.66,0 -12.742,3.895 -15.492,9.934 l 0,0 c -2.293,5.023 -1.961,10.789 0.91,15.812 l 0,0 c 0.492,0.864 1.109,1.704 1.66,2.391 l 0,0 c -7.559,-4.629 -10.664,-14.313 -6.899,-22.574" style="fill:url(#radialGradient464)"/>
  </g>
</svg>
