<?xml version="1.0" encoding="UTF-8" standalone="no"?>
<svg xmlns="http://www.w3.org/2000/svg" xmlns:xlink="http://www.w3.org/1999/xlink" version="1.1" width="600" height="712.6933" viewBox="0 0 600.00002 712.6933" id="Layer_1">
  <linearGradient gradientUnits="userSpaceOnUse" id="path3809_4_" y2="14.9063" x2="38.468102" y1="34.352501" x1="4.7860999">
    <stop offset="0.3" style="stop-color:#bf331c"/>
    <stop offset="0.4" style="stop-color:#d3641c"/>
    <stop offset="0.5" style="stop-color:#f6b91d"/>
    <stop offset="0.6" style="stop-color:#d3641c"/>
    <stop offset=".7" style="stop-color:#bf331c"/>
  </linearGradient>
  <linearGradient xlink:href="#path3809_4_" id="linearGradient2997" gradientUnits="userSpaceOnUse" x1="4.7860999" y1="34.352501" x2="38.468102" y2="14.9063" gradientTransform="scale(14.254152,14.254152)"/>
  <linearGradient xlink:href="#path3809_4_" id="linearGradient3813" gradientUnits="userSpaceOnUse" gradientTransform="scale(14.254152,14.254152)" x1="4.7860999" y1="34.352501" x2="38.468102" y2="14.9063"/>
  <path id="path3765_3_" d="M 301.4183,-1.1048143e-5 C 195.98034,55.890519 97.555416,148.68505 0,246.18345 c 5.815694,86.36591 57.045116,163.83722 103.55641,242.24931 -8.680774,13.88355 -21.552274,25.68598 -36.775708,36.29107 13.712494,64.21496 60.651418,97.14205 136.255438,103.11454 53.08246,50.00356 74.89132,64.91341 98.39641,84.85497 33.05538,-27.99516 65.45507,-56.77429 98.09708,-85.25409 85.25408,-3.82011 119.54957,-54.7787 135.74229,-101.07619 -10.14896,-8.03934 -37.97307,-26.44145 -38.82831,-37.9303 C 545.64894,416.86267 590.93438,342.84085 600.00002,246.18345 508.73068,157.82196 419.48544,67.935277 301.4183,-1.1048143e-5 l 0,0 z" style="fill:#ffffff"/>
  <path style="stroke-width:20" d="m 301.40625,18.781239 -5.5625,3.78125 -0.78125,0.5 -84.5,56.875 -0.125,0.0625 -4.96875,2.8125 0,5.84375 0,0.28125 0,515.062501 0,0.21875 0,4.15625 2.9375,2.90625 0.15625,0.15625 0.25,0.25 0.25,0.21875 84.9375,74.125 0.0625,0.0312 0.0312,0.0312 0.875,0.75 6.46875,5.5 6.46875,-5.5 0.84375,-0.75 0.0625,-0.0312 0.0625,-0.0312 84.9375,-74.125 0.25,-0.21875 0.25,-0.25 0.15625,-0.15625 2.90625,-2.90625 0,-4.15625 0,-0.21875 0,-515.093751 0,-0.28125 0,-6.1875 -5.09375,-2.53125 -84.5,-56.84375 -0.78125,-0.5 -5.59375,-3.78125 z M 16.375,251.74994 l 0.53125,4.78125 0.03125,0.25 0.03125,0.28125 0.0625,0.25 c 16.532401,99.15072 59.101408,154.34925 83.5625,190.78125 12.23377,18.21037 18.90488,31.22755 18.4375,41.0625 l 0,0.0312 c -0.45748,9.81591 -7.1767,20.98918 -30.0625,37.4375 l -0.15625,0.0937 -0.125,0.125 -0.375,0.28125 -7.53125,5.78125 5.40625,7.84375 0.25,0.28125 0.03125,0.0625 c 27.58158,45.21388 60.37386,61.78603 88.75,66.6875 l 0.0312,0 0.0312,0.0312 0.59375,0.0937 11.65625,1.9375 0,-11.8125 0,-0.59375 0,-508.718752 z M 412.5,89.531238 c 0,161.958332 0,345.916672 0,507.875002 l 0,0.625 0,11.78125 11.625,-1.9375 0.625,-0.0937 0.0312,0 c 28.38469,-4.88753 61.15592,-21.47695 88.75,-66.6875 l 0.0312,0 c 0.0821,-0.13456 0.16798,-0.23993 0.25,-0.375 l 0.0625,-0.125 5.34375,-7.6875 -7.53125,-5.8125 -0.375,-0.28125 -0.125,-0.0937 -0.125,-0.0937 C 488.1646,510.17778 481.4578,498.9789 481,489.15624 c -0.46694,-9.81575 6.1738,-22.88536 18.40625,-41.09375 24.46031,-36.44487 67.06127,-91.61334 83.59375,-190.75 l 0.0312,-0.28125 0.0312,-0.25 0.0312,-0.28125 0.53125,-4.78125 z" id="path3809_3_"/>
  <path d="m 301.4183,30.845974 -0.78398,0.527404 -84.92624,57.144895 -0.22806,0.128287 v 0.285083 515.059527 0.22807 l 0.15679,0.15679 84.94049,74.10734 0.85525,0.72696 0.85525,-0.72696 84.94049,-74.10734 0.1568,-0.15679 V 603.99117 88.917389 88.632306 l -0.22807,-0.114033 -84.95474,-57.144895 -0.78398,-0.527404 0,0 z m -123.91135,80.692756 -0.85524,0.82674 -149.611584,142.86937 -0.185304,0.1853 0.02851,0.25657 c 16.178462,97.02802 57.173403,149.8254 82.018388,186.82917 12.42962,18.50189 20.78255,33.04113 20.11261,47.13849 -0.65569,14.06884 -10.30575,27.92388 -34.224218,45.11439 l -0.370608,0.28508 0.256575,0.37061 c 26.441451,43.63196 56.004561,57.98589 82.246451,62.51871 l 0.59868,0.0998 v -0.59868 -484.72669 -1.16884 l -0.0143,0 z m 244.98612,0 v 1.16884 484.71244 0.59867 l 0.59867,-0.0998 c 26.24189,-4.51856 55.79075,-18.88675 82.24646,-62.51871 l 0.25657,-0.3706 -0.37061,-0.28509 c -23.93272,-17.19051 -33.56852,-31.04554 -34.22422,-45.11439 -0.66994,-14.0831 7.68299,-28.63659 20.11261,-47.13848 24.84499,-37.01803 65.83993,-89.81541 82.01839,-186.82917 l 0.0285,-0.25657 -0.1853,-0.18531 -149.64009,-142.85511 -0.84099,-0.82674 0,0 z" id="path3000" style="fill:url(#linearGradient3813)"/>
</svg>
