<?xml version="1.0" encoding="utf-8"?>
<svg xmlns="http://www.w3.org/2000/svg" xmlns:xlink="http://www.w3.org/1999/xlink" version="1.1" id="Layer_1" x="0px" y="0px" width="42.093px" height="50px">
  <g>
    <path d="M21.146,0   C13.749,3.921,6.844,10.431,0,17.271c0.408,6.059,4.002,11.494,7.265,16.995c-0.609,0.974-1.512,1.802-2.58,2.546   c0.962,4.505,4.255,6.815,9.559,7.234c3.724,3.508,5.254,4.554,6.903,5.953c2.319-1.964,4.592-3.983,6.882-5.981   c5.981-0.268,8.387-3.843,9.523-7.091c-0.712-0.564-2.664-1.855-2.724-2.661c3.452-5.021,6.629-10.214,7.265-16.995   C35.69,11.072,29.429,4.766,21.146,0L21.146,0z"/>
    <linearGradient id="path3809_4_" gradientUnits="userSpaceOnUse" x1="4.7861" y1="34.3525" x2="38.4681" y2="14.9063">
      <stop offset="0" style="stop-color:#8b723c"/>
      <stop offset="0.4" style="stop-color:#d2bb7b"/>
      <stop offset="0.5" style="stop-color:#ebd491"/>
      <stop offset="0.6" style="stop-color:#d2bb7b"/>
      <stop offset="1" style="stop-color:#8b723c"/>
    </linearGradient>
    <path fill="url(#path3809_4_)" d="M21.146,2.164l-0.055,0.037L15.133,6.21   l-0.016,0.009v0.02v36.134v0.016l0.011,0.011l5.959,5.199l0.06,0.051l0.06-0.051l5.959-5.199l0.011-0.011v-0.016V6.238v-0.02   L27.161,6.21l-5.96-4.009L21.146,2.164L21.146,2.164z M12.453,7.825l-0.06,0.058L1.897,17.906l-0.013,0.013l0.002,0.018   c1.135,6.807,4.011,10.511,5.754,13.107c0.872,1.298,1.458,2.318,1.411,3.307c-0.046,0.987-0.723,1.959-2.401,3.165l-0.026,0.02   l0.018,0.026c1.855,3.061,3.929,4.068,5.77,4.386l0.042,0.007v-0.042V7.907V7.825L12.453,7.825z M29.64,7.825v0.082v34.005v0.042   l0.042-0.007c1.841-0.317,3.914-1.325,5.77-4.386l0.018-0.026l-0.026-0.02c-1.679-1.206-2.355-2.178-2.401-3.165   c-0.047-0.988,0.539-2.009,1.411-3.307c1.743-2.597,4.619-6.301,5.754-13.107l0.002-0.018l-0.013-0.013L29.699,7.883L29.64,7.825   L29.64,7.825z"/>
  </g>
</svg>
