<?xml version="1.0" encoding="UTF-8" standalone="no"?>
<svg xmlns="http://www.w3.org/2000/svg" width="599.99994" height="712.71405" version="1.1">
  <g transform="translate(-573.57384,-550.60793)"><path d="m 875.00164,581.45362 -0.78443,0.53344 -84.94335,57.14139 -0.2196,0.12552 0,0.28241 0,515.05702 0,0.2197 0.15684,0.1568 84.94335,74.1175 0.84719,0.7218 0.84728,-0.7218 84.94325,-74.1175 0.15695,-0.1568 0,-0.2197 0,-515.05702 0,-0.28241 -0.21971,-0.12552 -84.94325,-57.14139 -0.78452,-0.53344 z m -123.91613,80.70711 -0.84728,0.81586 -149.61568,142.86916 -0.18828,0.18828 0.0311,0.25103 c 16.17838,97.02394 57.16976,149.81508 82.02504,186.83133 12.42754,18.50811 20.777,33.04701 20.11397,47.13141 -0.66303,14.0845 -10.31083,27.9266 -34.23458,45.1232 l -0.37655,0.2825 0.25104,0.3765 c 26.44311,43.6266 55.99944,57.9886 82.24464,62.5073 l 0.59625,0.094 0,-0.5962 0,-484.71339 0,-1.16103 z m 244.9768,0 0,1.16103 0,484.71344 0,0.5961 0.59625,-0.094 c 26.24514,-4.5187 55.80134,-18.8806 82.24464,-62.5073 l 0.251,-0.3765 -0.3766,-0.2824 c -23.9237,-17.1967 -33.5716,-31.0387 -34.2345,-45.1232 -0.6631,-14.0845 7.6863,-28.6234 20.1139,-47.13147 24.8553,-37.01624 65.8466,-89.80738 82.0251,-186.83132 l 0.031,-0.25103 -0.1883,-0.18828 -149.61561,-142.86916 -0.84698,-0.81591 z" style="stroke-width:50.79999923999999800"/></g>
</svg>
