<?xml version="1.0" encoding="UTF-8" standalone="no"?>
<svg xmlns="http://www.w3.org/2000/svg" version="1.1" width="600" height="507.63568">
  <path d="M 355.64956,253.81785 C 506.25238,202.01362 600,0 600,0 L 0,0 C 0,0 93.74762,202.01362 244.4012,253.81785 93.74762,305.62207 0,507.63569 0,507.63569 l 600,0 c 0,0 -93.74762,-202.01362 -244.35044,-253.81784" style="fill:#808080"/>
  <path d="m 317.2723,274.09789 0,199.72926 222.29367,0 c 0,0 -79.60997,-156.16142 -222.29367,-199.72926 m -256.787508,199.72926 222.242908,0 0,-199.72926 C 140.05669,317.66573 60.484792,473.82715 60.484792,473.82715 M 539.56597,33.80854 l -222.29367,0 0,199.72926 C 459.956,190.02073 539.56597,33.80854 539.56597,33.80854 m -479.081178,0 222.242908,0 0,199.72926 C 140.05669,190.02073 60.484792,33.80854 60.484792,33.80854"/>
</svg>
