<?xml version="1.0" encoding="UTF-8" standalone="no"?>
<svg xmlns="http://www.w3.org/2000/svg" xmlns:xlink="http://www.w3.org/1999/xlink" version="1.1" width="600" height="507.63568">
  <linearGradient x1="0" y1="0" x2="1" y2="0" id="linearGradient664" gradientUnits="userSpaceOnUse" gradientTransform="matrix(36.210907,-36.210907,-36.210907,-36.210907,647.59961,164.64648)" spreadMethod="pad">
    <stop style="stop-color:#612c75" offset="0"/>
    <stop style="stop-color:#bf99c3" offset="0.25"/>
    <stop style="stop-color:#7b5190" offset="0.39999399"/>
    <stop style="stop-color:#612c75" offset="0.5"/>
    <stop style="stop-color:#7b5190" offset="0.69999701"/>
    <stop style="stop-color:#bf99c3" offset="0.75"/>
    <stop style="stop-color:#612c75" offset="1"/>
  </linearGradient>
  <linearGradient x1="0" y1="0" x2="1" y2="0" id="linearGradient2997" xlink:href="#linearGradient664" gradientUnits="userSpaceOnUse" gradientTransform="matrix(36.210907,-36.210907,-36.210907,-36.210907,647.59961,164.64648)" spreadMethod="pad"/>
  <linearGradient x1="0" y1="0" x2="1" y2="0" id="linearGradient3000" xlink:href="#linearGradient664" gradientUnits="userSpaceOnUse" gradientTransform="matrix(459.54872,459.54872,-459.54872,459.54872,70.226448,24.06853)" spreadMethod="pad"/>
  <path d="M 355.64956,253.81785 C 506.25238,202.01362 600,0 600,0 L 0,0 C 0,0 93.74762,202.01362 244.4012,253.81785 93.74762,305.62207 0,507.63569 0,507.63569 l 600,0 c 0,0 -93.74762,-202.01362 -244.35044,-253.81784" fill="#ffffff"/>
  <path d="m 317.2723,33.80854 0,199.72926 C 459.956,190.02073 539.56597,33.80854 539.56597,33.80854 l 0,0 -222.29367,0 z m -256.838271,0 c 0,0 79.622661,156.21219 222.293671,199.72926 l 0,0 0,-199.72926 -222.293671,0 z m 256.838271,440.06938 222.29367,0 c 0,0 -79.60997,-156.21219 -222.29367,-199.78003 l 0,0 0,199.78003 z m -256.838271,0 222.293671,0 0,-199.78003 C 140.05669,317.66573 60.434029,473.87792 60.434029,473.87792" style="fill:url(#linearGradient3000)"/>
</svg>
