<?xml version="1.0" encoding="UTF-8" standalone="no"?><!DOCTYPE svg PUBLIC "-//W3C//DTD SVG 1.1//EN" "http://www.w3.org/Graphics/SVG/1.1/DTD/svg11.dtd"><svg width="100%" height="100%" viewBox="0 0 90 90" version="1.1" xmlns="http://www.w3.org/2000/svg" xmlns:xlink="http://www.w3.org/1999/xlink" xml:space="preserve" xmlns:serif="http://www.serif.com/" style="fill-rule:evenodd;clip-rule:evenodd;stroke-linejoin:round;stroke-miterlimit:2;"><rect id="Mythic" x="0" y="0" width="90" height="90" style="fill:none;"/><g id="Mythic1" serif:id="Mythic"><path d="M45,17.938c4.236,-7.495 8.435,-7.947 14.19,-9.827c4.222,-1.379 12.561,-5.129 14.385,-8.111c4.23,3.076 9.049,5.342 14.386,6.896c-5.605,19.147 -7.267,38.427 -4.768,57.844c-12.357,9.244 -24.971,17.919 -38.193,25.26c-13.222,-7.341 -25.836,-16.016 -38.193,-25.26c2.499,-19.417 0.837,-38.697 -4.768,-57.844c5.337,-1.554 10.156,-3.82 14.386,-6.896c1.824,2.982 10.163,6.732 14.385,8.111c5.755,1.88 9.954,2.332 14.19,9.827Z"/><path d="M45,86.256c-8.47,-4.702 -16.654,-10.202 -24.673,-16.166c1.595,-17.603 0.995,-35.553 -2.237,-53.919c3.992,1.401 8.347,3.008 14.945,5.307c2.911,3.885 6.528,6.901 11.965,6.901c5.437,0 9.054,-3.016 11.965,-6.901c6.598,-2.299 10.953,-3.906 14.945,-5.307c-3.232,18.366 -3.832,36.316 -2.237,53.919c-8.019,5.964 -16.203,11.464 -24.673,16.166Zm-27.501,-18.293c-2.115,-1.608 -4.218,-3.246 -6.314,-4.907c1.001,-17.763 -0.434,-34.42 -3.594,-50.292c2.701,0.8 5,1.532 7.249,2.289c3.323,18.021 4.068,35.636 2.659,52.91Zm55.002,-0c-1.409,-17.274 -0.664,-34.889 2.659,-52.91c2.249,-0.757 4.548,-1.489 7.249,-2.289c-3.16,15.872 -4.595,32.529 -3.594,50.292c-2.096,1.661 -4.199,3.299 -6.314,4.907Z" style="fill:url(#_Linear1);"/><path d="M44.997,25.251c-4.392,-0.001 -8.184,-2.59 -9.933,-6.323l-28.257,-10.83c3.021,-1.257 6.256,-3.181 9.276,-5.136c1.791,1.595 8.961,6.089 14.936,7.595c8.191,2.066 13.048,6.977 13.981,13.662c0.933,-6.685 5.79,-11.596 13.981,-13.662c5.975,-1.506 13.145,-6 14.936,-7.595c3.02,1.955 6.255,3.879 9.276,5.136l-28.257,10.83c-1.749,3.733 -5.541,6.322 -9.933,6.323l-0.006,0Z" style="fill:url(#_Linear2);"/><path d="M48.005,36.79c3.544,6.534 7.549,12.057 12.04,16.539l2.525,2.52l-2.625,2.416c-4.967,4.572 -8.917,9.927 -11.864,16.053l-3.081,6.406l-3.081,-6.406c-2.947,-6.126 -6.897,-11.481 -11.864,-16.053l-2.625,-2.416l2.525,-2.52c4.491,-4.482 8.496,-10.005 12.04,-16.539l3.005,-5.542l3.005,5.542Z"/><path d="M45,38.42c3.715,6.849 7.922,12.631 12.63,17.329c-5.288,4.867 -9.493,10.566 -12.63,17.087c-3.137,-6.521 -7.342,-12.22 -12.63,-17.087c4.708,-4.698 8.915,-10.48 12.63,-17.329Z" style="fill:#fff;"/></g><defs><linearGradient id="_Linear1" x1="0" y1="0" x2="1" y2="0" gradientUnits="userSpaceOnUse" gradientTransform="matrix(76.3864,0,0,86.2563,6.80681,43.1282)"><stop offset="0" style="stop-color:#bb2c26;stop-opacity:1"/><stop offset="0.04" style="stop-color:#bf3526;stop-opacity:1"/><stop offset="0.11" style="stop-color:#cb4d25;stop-opacity:1"/><stop offset="0.19" style="stop-color:#de7523;stop-opacity:1"/><stop offset="0.21" style="stop-color:#e17a23;stop-opacity:1"/><stop offset="0.29" style="stop-color:#ee8b1f;stop-opacity:1"/><stop offset="0.38" style="stop-color:#f5951e;stop-opacity:1"/><stop offset="0.5" style="stop-color:#ff9915;stop-opacity:1"/><stop offset="0.62" style="stop-color:#f5951e;stop-opacity:1"/><stop offset="0.71" style="stop-color:#ee8b1f;stop-opacity:1"/><stop offset="0.79" style="stop-color:#e17a23;stop-opacity:1"/><stop offset="0.8" style="stop-color:#e07823;stop-opacity:1"/><stop offset="0.85" style="stop-color:#d35d24;stop-opacity:1"/><stop offset="0.91" style="stop-color:#c64225;stop-opacity:1"/><stop offset="0.96" style="stop-color:#be3226;stop-opacity:1"/><stop offset="1" style="stop-color:#bb2c26;stop-opacity:1"/></linearGradient><linearGradient id="_Linear2" x1="0" y1="0" x2="1" y2="0" gradientUnits="userSpaceOnUse" gradientTransform="matrix(123.566,0,0,123.566,-18.5187,40.0506)"><stop offset="0" style="stop-color:#bb2c26;stop-opacity:1"/><stop offset="0.04" style="stop-color:#bf3526;stop-opacity:1"/><stop offset="0.11" style="stop-color:#cb4d25;stop-opacity:1"/><stop offset="0.19" style="stop-color:#de7523;stop-opacity:1"/><stop offset="0.21" style="stop-color:#e17a23;stop-opacity:1"/><stop offset="0.29" style="stop-color:#ee8b1f;stop-opacity:1"/><stop offset="0.38" style="stop-color:#f5951e;stop-opacity:1"/><stop offset="0.5" style="stop-color:#ff9915;stop-opacity:1"/><stop offset="0.62" style="stop-color:#f5951e;stop-opacity:1"/><stop offset="0.71" style="stop-color:#ee8b1f;stop-opacity:1"/><stop offset="0.79" style="stop-color:#e17a23;stop-opacity:1"/><stop offset="0.8" style="stop-color:#e07823;stop-opacity:1"/><stop offset="0.85" style="stop-color:#d35d24;stop-opacity:1"/><stop offset="0.91" style="stop-color:#c64225;stop-opacity:1"/><stop offset="0.96" style="stop-color:#be3226;stop-opacity:1"/><stop offset="1" style="stop-color:#bb2c26;stop-opacity:1"/></linearGradient></defs></svg>