<?xml version="1.0" encoding="UTF-8" standalone="no"?><!DOCTYPE svg PUBLIC "-//W3C//DTD SVG 1.1//EN" "http://www.w3.org/Graphics/SVG/1.1/DTD/svg11.dtd"><svg width="100%" height="100%" viewBox="0 0 91 90" version="1.1" xmlns="http://www.w3.org/2000/svg" xmlns:xlink="http://www.w3.org/1999/xlink" xml:space="preserve" xmlns:serif="http://www.serif.com/" style="fill-rule:evenodd;clip-rule:evenodd;stroke-linejoin:round;stroke-miterlimit:2;"><rect id="Uncommon" x="0.065" y="0" width="90" height="90" style="fill:none;"/><path d="M45.065,17.938c4.236,-7.495 8.435,-7.947 14.191,-9.827c4.222,-1.379 12.561,-5.129 14.385,-8.111c4.23,3.076 9.048,5.342 14.385,6.896c-5.605,19.147 -7.267,38.427 -4.767,57.844c-12.357,9.244 -24.972,17.919 -38.194,25.26c-13.221,-7.341 -25.836,-16.016 -38.193,-25.26c2.499,-19.417 0.838,-38.697 -4.767,-57.844c5.336,-1.554 10.155,-3.82 14.385,-6.896c1.824,2.982 10.163,6.732 14.385,8.111c5.755,1.88 9.955,2.332 14.19,9.827Z"/><path d="M45.065,86.256c-8.469,-4.702 -16.654,-10.202 -24.673,-16.166c1.595,-17.603 0.995,-35.553 -2.237,-53.919c3.992,1.401 8.348,3.008 14.946,5.307c2.91,3.885 6.527,6.901 11.964,6.901c5.437,0 9.055,-3.016 11.965,-6.901c6.598,-2.299 10.953,-3.906 14.945,-5.307c-3.232,18.366 -3.832,36.316 -2.236,53.919c-8.019,5.964 -16.204,11.464 -24.674,16.166Zm-27.501,-18.293c-2.114,-1.608 -4.218,-3.246 -6.313,-4.907c1,-17.763 -0.435,-34.42 -3.595,-50.292c2.701,0.8 5,1.532 7.249,2.289c3.324,18.021 4.068,35.636 2.659,52.91Zm55.003,-0c-1.41,-17.274 -0.665,-34.889 2.658,-52.91c2.249,-0.757 4.549,-1.489 7.249,-2.289c-3.16,15.872 -4.594,32.529 -3.594,50.292c-2.095,1.661 -4.199,3.299 -6.313,4.907Z" style="fill:url(#_Linear1);"/><path d="M45.063,25.251c-4.393,-0.001 -8.185,-2.59 -9.934,-6.323l-28.257,-10.83c3.021,-1.257 6.256,-3.181 9.277,-5.136c1.79,1.595 8.96,6.089 14.935,7.595c8.192,2.066 13.048,6.977 13.981,13.662c0.934,-6.685 5.79,-11.596 13.982,-13.662c5.975,-1.506 13.145,-6 14.935,-7.595c3.021,1.955 6.256,3.879 9.277,5.136l-28.257,10.83c-1.749,3.733 -5.542,6.322 -9.934,6.323l-0.005,0Z" style="fill:url(#_Linear2);"/><path d="M48.071,36.79c3.544,6.534 7.548,12.057 12.039,16.539l2.525,2.52l-2.625,2.416c-4.967,4.572 -8.917,9.927 -11.864,16.053l-3.081,6.406l-3.081,-6.406c-2.947,-6.126 -6.896,-11.481 -11.864,-16.053l-2.624,-2.416l2.524,-2.52c4.491,-4.482 8.496,-10.005 12.04,-16.539l3.005,-5.542l3.006,5.542Z"/><path d="M45.065,38.42c3.715,6.849 7.923,12.631 12.63,17.329c-5.288,4.867 -9.493,10.566 -12.63,17.087c-3.136,-6.521 -7.342,-12.22 -12.629,-17.087c4.707,-4.698 8.915,-10.48 12.629,-17.329Z" style="fill:#fff;"/><defs><linearGradient id="_Linear1" x1="0" y1="0" x2="1" y2="0" gradientUnits="userSpaceOnUse" gradientTransform="matrix(76.3864,0,0,86.2563,6.87214,43.1282)"><stop offset="0" style="stop-color:#626e77;stop-opacity:1"/><stop offset="0.04" style="stop-color:#697780;stop-opacity:1"/><stop offset="0.11" style="stop-color:#7d8e98;stop-opacity:1"/><stop offset="0.2" style="stop-color:#9eb4c0;stop-opacity:1"/><stop offset="0.2" style="stop-color:#a0b6c2;stop-opacity:1"/><stop offset="0.2" style="stop-color:#a1b7c3;stop-opacity:1"/><stop offset="0.29" style="stop-color:#adc6d4;stop-opacity:1"/><stop offset="0.38" style="stop-color:#b5cede;stop-opacity:1"/><stop offset="0.5" style="stop-color:#b7d1e1;stop-opacity:1"/><stop offset="0.62" style="stop-color:#b5cede;stop-opacity:1"/><stop offset="0.71" style="stop-color:#adc6d4;stop-opacity:1"/><stop offset="0.8" style="stop-color:#a1b7c3;stop-opacity:1"/><stop offset="0.8" style="stop-color:#a0b6c2;stop-opacity:1"/><stop offset="0.85" style="stop-color:#8b9da8;stop-opacity:1"/><stop offset="0.91" style="stop-color:#74838d;stop-opacity:1"/><stop offset="0.96" style="stop-color:#67747d;stop-opacity:1"/><stop offset="1" style="stop-color:#626e77;stop-opacity:1"/></linearGradient><linearGradient id="_Linear2" x1="0" y1="0" x2="1" y2="0" gradientUnits="userSpaceOnUse" gradientTransform="matrix(123.566,0,0,123.566,-18.4534,40.0506)"><stop offset="0" style="stop-color:#626e77;stop-opacity:1"/><stop offset="0.04" style="stop-color:#697780;stop-opacity:1"/><stop offset="0.11" style="stop-color:#7d8e98;stop-opacity:1"/><stop offset="0.2" style="stop-color:#9eb4c0;stop-opacity:1"/><stop offset="0.2" style="stop-color:#a0b6c2;stop-opacity:1"/><stop offset="0.2" style="stop-color:#a1b7c3;stop-opacity:1"/><stop offset="0.29" style="stop-color:#adc6d4;stop-opacity:1"/><stop offset="0.38" style="stop-color:#b5cede;stop-opacity:1"/><stop offset="0.5" style="stop-color:#b7d1e1;stop-opacity:1"/><stop offset="0.62" style="stop-color:#b5cede;stop-opacity:1"/><stop offset="0.71" style="stop-color:#adc6d4;stop-opacity:1"/><stop offset="0.8" style="stop-color:#a1b7c3;stop-opacity:1"/><stop offset="0.8" style="stop-color:#a0b6c2;stop-opacity:1"/><stop offset="0.85" style="stop-color:#8b9da8;stop-opacity:1"/><stop offset="0.91" style="stop-color:#74838d;stop-opacity:1"/><stop offset="0.96" style="stop-color:#67747d;stop-opacity:1"/><stop offset="1" style="stop-color:#626e77;stop-opacity:1"/></linearGradient></defs></svg>