<?xml version="1.0" encoding="UTF-8" standalone="no"?><!DOCTYPE svg PUBLIC "-//W3C//DTD SVG 1.1//EN" "http://www.w3.org/Graphics/SVG/1.1/DTD/svg11.dtd"><svg width="100%" height="100%" viewBox="0 0 91 90" version="1.1" xmlns="http://www.w3.org/2000/svg" xmlns:xlink="http://www.w3.org/1999/xlink" xml:space="preserve" xmlns:serif="http://www.serif.com/" style="fill-rule:evenodd;clip-rule:evenodd;stroke-linejoin:round;stroke-miterlimit:2;"><rect id="WM" x="0.079" y="0" width="90" height="90" style="fill:none;"/><path d="M45.079,86.256c-8.47,-4.702 -16.655,-10.202 -24.674,-16.166c1.596,-17.603 0.996,-35.553 -2.236,-53.919c3.992,1.401 8.347,3.008 14.945,5.307c2.91,3.885 6.528,6.901 11.965,6.901c5.437,0 9.054,-3.016 11.964,-6.901c6.598,-2.299 10.954,-3.906 14.946,-5.307c-3.232,18.366 -3.832,36.316 -2.237,53.919c-8.019,5.964 -16.204,11.464 -24.673,16.166Zm-0,-47.836c-3.715,6.849 -7.923,12.631 -12.63,17.329c5.288,4.867 9.493,10.566 12.63,17.087c3.136,-6.521 7.342,-12.22 12.629,-17.087c-4.707,-4.698 -8.915,-10.48 -12.629,-17.329Zm-27.502,29.543c-2.114,-1.608 -4.218,-3.246 -6.313,-4.907c1,-17.763 -0.434,-34.42 -3.594,-50.292c2.7,0.8 5,1.532 7.249,2.289c3.323,18.021 4.068,35.636 2.658,52.91Zm55.003,-0c-1.409,-17.274 -0.665,-34.889 2.659,-52.91c2.249,-0.757 4.548,-1.489 7.249,-2.289c-3.16,15.872 -4.595,32.529 -3.595,50.292c-2.095,1.661 -4.199,3.299 -6.313,4.907Z"/><path d="M45.076,25.251c-4.392,-0.001 -8.185,-2.59 -9.934,-6.323l-28.256,-10.83c3.02,-1.257 6.255,-3.181 9.276,-5.136c1.79,1.595 8.96,6.089 14.935,7.595c8.192,2.066 13.048,6.977 13.982,13.662c0.933,-6.685 5.789,-11.596 13.981,-13.662c5.975,-1.506 13.145,-6 14.935,-7.595c3.021,1.955 6.256,3.879 9.277,5.136l-28.257,10.83c-1.749,3.733 -5.541,6.322 -9.934,6.323l-0.005,0Z"/></svg>