<?xml version="1.0" encoding="utf-8"?>
<!-- Generator: Adobe Illustrator 15.1.0, SVG Export Plug-In . SVG Version: 6.00 Build 0)  -->
<!DOCTYPE svg PUBLIC "-//W3C//DTD SVG 1.1//EN" "http://www.w3.org/Graphics/SVG/1.1/DTD/svg11.dtd">
<svg version="1.1"
	 id="Layer_1" xmlns:rdf="http://www.w3.org/1999/02/22-rdf-syntax-ns#" xmlns:svg="http://www.w3.org/2000/svg" xmlns:cc="http://creativecommons.org/ns#" xmlns:dc="http://purl.org/dc/elements/1.1/"
	 xmlns="http://www.w3.org/2000/svg" xmlns:xlink="http://www.w3.org/1999/xlink" x="0px" y="0px" width="150px" height="156px"
	 viewBox="0 0 150 156" enable-background="new 0 0 150 156" xml:space="preserve">
<g>
	<polygon fill="#5D5E61" points="10.212,95.283 10.212,69.312 5.486,38.362 38.603,22.505 50.486,2.696 99.291,2.696 
		111.175,22.505 144.291,38.362 139.565,69.312 139.565,95.283 74.889,152.696 	"/>
	<polygon points="16.405,92.5 16.405,68.842 12.301,41.965 42.953,27.286 53.993,8.889 95.784,8.889 106.824,27.286 137.477,41.965 
		133.372,68.842 133.372,92.5 74.889,144.417 	"/>
	<path fill="#5D5E61" d="M101.985,32.598L91.888,15.77H57.89L47.792,32.598l-27.92,13.37l3.414,22.351v21.09l51.603,45.809
		l51.603-45.809v-21.09l3.414-22.351L101.985,32.598z M59.836,19.21h30.104l8.681,14.464l-23.73,31.97l-23.72-31.99L59.836,19.21z
		 M76.61,71.075l45.003,18.063l-45.005,39.953L76.61,71.075z M73.169,129.091L28.164,89.138l45.005-18.063V129.091z M48.634,36.009
		L72.18,67.766L26.726,86.009v-17.95l-3.068-20.09L48.634,36.009z M123.052,68.059v17.948L77.601,67.766l23.564-31.746
		l24.955,11.949L123.052,68.059z"/>
	<path fill="#5D5E61" d="M74.889,48.796c-6.213,0-11.267-5.055-11.267-11.268c0-6.211,5.054-11.266,11.267-11.266
		s11.267,5.054,11.267,11.266C86.155,43.741,81.102,48.796,74.889,48.796z"/>
	<path fill="#FFFFFF" d="M74.889,45.355c-4.315,0-7.827-3.512-7.827-7.827c0-4.315,3.512-7.826,7.827-7.826s7.827,3.511,7.827,7.826
		C82.716,41.844,79.204,45.355,74.889,45.355z"/>
	<path fill="#5D5E61" d="M43.066,71.845c-6.213,0-11.266-5.054-11.266-11.266c0-6.213,5.053-11.268,11.266-11.268
		s11.267,5.055,11.267,11.268C54.333,66.791,49.279,71.845,43.066,71.845z"/>
	<path fill="#FFFFFF" d="M43.066,68.404c-4.315,0-7.827-3.511-7.827-7.825c0-4.315,3.512-7.827,7.827-7.827s7.827,3.512,7.827,7.827
		C50.894,64.894,47.382,68.404,43.066,68.404z"/>
	<path fill="#5D5E61" d="M57.172,106.42c-6.214,0-11.267-5.055-11.267-11.268s5.053-11.267,11.267-11.267
		c6.212,0,11.267,5.054,11.267,11.267S63.384,106.42,57.172,106.42z"/>
	<path fill="#FFFFFF" d="M57.172,102.979c-4.315,0-7.827-3.512-7.827-7.827c0-4.314,3.512-7.826,7.827-7.826
		c4.314,0,7.826,3.512,7.826,7.826C64.998,99.468,61.486,102.979,57.172,102.979z"/>
	<path fill="#5D5E61" d="M106.711,71.845c6.213,0,11.266-5.054,11.266-11.266c0-6.213-5.053-11.268-11.266-11.268
		s-11.267,5.055-11.267,11.268C95.444,66.791,100.498,71.845,106.711,71.845z"/>
	<path fill="#FFFFFF" d="M106.711,68.404c4.315,0,7.826-3.511,7.826-7.825c0-4.315-3.511-7.827-7.826-7.827
		s-7.827,3.512-7.827,7.827C98.884,64.894,102.396,68.404,106.711,68.404z"/>
	<path fill="#5D5E61" d="M92.605,106.42c6.214,0,11.267-5.055,11.267-11.268s-5.053-11.267-11.267-11.267
		c-6.212,0-11.267,5.054-11.267,11.267S86.394,106.42,92.605,106.42z"/>
	<path fill="#FFFFFF" d="M92.605,102.979c4.315,0,7.827-3.512,7.827-7.827c0-4.314-3.512-7.826-7.827-7.826
		c-4.314,0-7.826,3.512-7.826,7.826C84.779,99.468,88.291,102.979,92.605,102.979z"/>
</g>
</svg>
