<?xml version="1.0" encoding="utf-8"?>
<!-- Generator: Adobe Illustrator 15.1.0, SVG Export Plug-In . SVG Version: 6.00 Build 0)  -->
<!DOCTYPE svg PUBLIC "-//W3C//DTD SVG 1.1//EN" "http://www.w3.org/Graphics/SVG/1.1/DTD/svg11.dtd">
<svg version="1.1"
	 id="Layer_1" xmlns:rdf="http://www.w3.org/1999/02/22-rdf-syntax-ns#" xmlns:svg="http://www.w3.org/2000/svg" xmlns:cc="http://creativecommons.org/ns#" xmlns:dc="http://purl.org/dc/elements/1.1/"
	 xmlns="http://www.w3.org/2000/svg" xmlns:xlink="http://www.w3.org/1999/xlink" x="0px" y="0px" width="150px" height="156px"
	 viewBox="0 0 150 156" enable-background="new 0 0 150 156" xml:space="preserve">
<g>
	<polygon points="10.238,95.283 10.238,69.312 5.513,38.362 38.629,22.505 50.513,2.696 99.317,2.696 111.201,22.505 
		144.317,38.362 139.592,69.312 139.592,95.283 74.915,152.696 	"/>
	<linearGradient id="SVGID_1_" gradientUnits="userSpaceOnUse" x1="12.3271" y1="76.6533" x2="137.5029" y2="76.6533">
		<stop  offset="0" style="stop-color:#612C75"/>
		<stop  offset="0.0703" style="stop-color:#67357C"/>
		<stop  offset="0.1845" style="stop-color:#784D8D"/>
		<stop  offset="0.2" style="stop-color:#7B5190"/>
		<stop  offset="0.2344" style="stop-color:#8C639D"/>
		<stop  offset="0.2911" style="stop-color:#A37BAE"/>
		<stop  offset="0.3516" style="stop-color:#B38CBA"/>
		<stop  offset="0.4177" style="stop-color:#BC96C1"/>
		<stop  offset="0.5" style="stop-color:#BF99C3"/>
		<stop  offset="0.5823" style="stop-color:#BC96C1"/>
		<stop  offset="0.6484" style="stop-color:#B38CBA"/>
		<stop  offset="0.7089" style="stop-color:#A37BAE"/>
		<stop  offset="0.7656" style="stop-color:#8C639D"/>
		<stop  offset="0.8" style="stop-color:#7B5190"/>
		<stop  offset="0.8547" style="stop-color:#714285"/>
		<stop  offset="0.937" style="stop-color:#653279"/>
		<stop  offset="1" style="stop-color:#612C75"/>
	</linearGradient>
	<polygon fill="url(#SVGID_1_)" points="16.432,92.5 16.432,68.842 12.327,41.965 42.979,27.286 54.02,8.889 95.811,8.889 
		106.851,27.286 137.503,41.965 133.398,68.842 133.398,92.5 74.915,144.417 	"/>
	<path d="M102.012,32.598L91.914,15.77H57.916L47.818,32.598l-27.92,13.37l3.414,22.351v21.09l51.603,45.809l51.603-45.809v-21.09
		l3.414-22.351L102.012,32.598z M59.862,19.21h30.104l8.681,14.464l-23.73,31.97l-23.72-31.99L59.862,19.21z M76.637,71.075
		l45.003,18.063l-45.005,39.953L76.637,71.075z M73.195,129.091L28.19,89.138l45.005-18.063V129.091z M48.66,36.009l23.546,31.757
		L26.752,86.009v-17.95l-3.068-20.09L48.66,36.009z M123.078,68.059v17.948L77.627,67.766l23.564-31.746l24.955,11.949
		L123.078,68.059z"/>
	<path d="M74.915,48.796c-6.213,0-11.267-5.055-11.267-11.268c0-6.211,5.054-11.266,11.267-11.266s11.267,5.054,11.267,11.266
		C86.182,43.741,81.128,48.796,74.915,48.796z"/>
	<path fill="#FFFFFF" d="M74.915,45.355c-4.315,0-7.827-3.512-7.827-7.827c0-4.315,3.512-7.826,7.827-7.826s7.827,3.511,7.827,7.826
		C82.742,41.844,79.23,45.355,74.915,45.355z"/>
	<path d="M43.093,71.845c-6.213,0-11.266-5.054-11.266-11.266c0-6.213,5.053-11.268,11.266-11.268s11.267,5.055,11.267,11.268
		C54.359,66.791,49.306,71.845,43.093,71.845z"/>
	<path fill="#FFFFFF" d="M43.093,68.404c-4.315,0-7.827-3.511-7.827-7.825c0-4.315,3.512-7.827,7.827-7.827s7.827,3.512,7.827,7.827
		C50.92,64.894,47.408,68.404,43.093,68.404z"/>
	<path d="M57.198,106.42c-6.214,0-11.267-5.055-11.267-11.268s5.053-11.267,11.267-11.267c6.212,0,11.267,5.054,11.267,11.267
		S63.41,106.42,57.198,106.42z"/>
	<path fill="#FFFFFF" d="M57.198,102.979c-4.315,0-7.827-3.512-7.827-7.827c0-4.314,3.512-7.826,7.827-7.826
		c4.314,0,7.826,3.512,7.826,7.826C65.024,99.468,61.513,102.979,57.198,102.979z"/>
	<path d="M106.737,71.845c6.213,0,11.267-5.054,11.267-11.266c0-6.213-5.054-11.268-11.267-11.268s-11.267,5.055-11.267,11.268
		C95.471,66.791,100.524,71.845,106.737,71.845z"/>
	<path fill="#FFFFFF" d="M106.737,68.404c4.315,0,7.827-3.511,7.827-7.825c0-4.315-3.512-7.827-7.827-7.827
		s-7.827,3.512-7.827,7.827C98.91,64.894,102.422,68.404,106.737,68.404z"/>
	<path d="M92.632,106.42c6.214,0,11.267-5.055,11.267-11.268s-5.053-11.267-11.267-11.267c-6.212,0-11.267,5.054-11.267,11.267
		S86.42,106.42,92.632,106.42z"/>
	<path fill="#FFFFFF" d="M92.632,102.979c4.315,0,7.827-3.512,7.827-7.827c0-4.314-3.512-7.826-7.827-7.826
		c-4.314,0-7.826,3.512-7.826,7.826C84.806,99.468,88.317,102.979,92.632,102.979z"/>
</g>
</svg>
