<?xml version="1.0" encoding="utf-8"?>
<!-- Generator: Adobe Illustrator 15.1.0, SVG Export Plug-In . SVG Version: 6.00 Build 0)  -->
<!DOCTYPE svg PUBLIC "-//W3C//DTD SVG 1.1//EN" "http://www.w3.org/Graphics/SVG/1.1/DTD/svg11.dtd">
<svg version="1.1"
	 id="Layer_1" xmlns:rdf="http://www.w3.org/1999/02/22-rdf-syntax-ns#" xmlns:svg="http://www.w3.org/2000/svg" xmlns:cc="http://creativecommons.org/ns#" xmlns:dc="http://purl.org/dc/elements/1.1/"
	 xmlns="http://www.w3.org/2000/svg" xmlns:xlink="http://www.w3.org/1999/xlink" x="0px" y="0px" width="150px" height="156px"
	 viewBox="0 0 150 156" enable-background="new 0 0 150 156" xml:space="preserve">
<g>
	<polygon points="10.591,95.229 10.591,69.258 5.864,38.309 38.981,22.451 50.865,2.643 99.669,2.643 111.554,22.451 144.67,38.309 
		139.944,69.258 139.944,95.229 75.267,152.643 	"/>
	<linearGradient id="SVGID_1_" gradientUnits="userSpaceOnUse" x1="12.6792" y1="76.5996" x2="137.8545" y2="76.5996">
		<stop  offset="0" style="stop-color:#626E77"/>
		<stop  offset="0.0418" style="stop-color:#697780"/>
		<stop  offset="0.1099" style="stop-color:#7D8E98"/>
		<stop  offset="0.1954" style="stop-color:#9EB4C0"/>
		<stop  offset="0.2" style="stop-color:#A0B6C2"/>
		<stop  offset="0.2041" style="stop-color:#A1B7C3"/>
		<stop  offset="0.2896" style="stop-color:#ADC6D4"/>
		<stop  offset="0.3832" style="stop-color:#B5CEDE"/>
		<stop  offset="0.5" style="stop-color:#B7D1E1"/>
		<stop  offset="0.6168" style="stop-color:#B5CEDE"/>
		<stop  offset="0.7104" style="stop-color:#ADC6D4"/>
		<stop  offset="0.7959" style="stop-color:#A1B7C3"/>
		<stop  offset="0.8" style="stop-color:#A0B6C2"/>
		<stop  offset="0.8463" style="stop-color:#8B9DA8"/>
		<stop  offset="0.9062" style="stop-color:#74838D"/>
		<stop  offset="0.9594" style="stop-color:#67747D"/>
		<stop  offset="1" style="stop-color:#626E77"/>
	</linearGradient>
	<polygon fill="url(#SVGID_1_)" points="16.784,92.446 16.784,68.788 12.679,41.911 43.332,27.232 54.371,8.836 96.163,8.836 
		107.202,27.232 137.854,41.911 133.75,68.788 133.75,92.446 75.267,144.363 	"/>
	<path d="M102.363,32.545L92.266,15.716H58.268L48.17,32.545L20.25,45.914l3.414,22.351v21.09l51.603,45.809l51.602-45.809v-21.09
		l3.414-22.351L102.363,32.545z M60.214,19.156h30.104l8.68,14.465l-23.73,31.97l-23.72-31.99L60.214,19.156z M76.988,71.021
		l45.003,18.063l-45.005,39.953L76.988,71.021z M73.547,129.037L28.542,89.084l45.005-18.063V129.037z M49.013,35.955l23.545,31.757
		L27.104,85.955v-17.95l-3.068-20.09L49.013,35.955z M123.43,68.005v17.948L77.979,67.712l23.564-31.746l24.956,11.949
		L123.43,68.005z"/>
	<path d="M75.267,48.742c-6.213,0-11.266-5.055-11.266-11.268c0-6.212,5.053-11.266,11.266-11.266
		c6.213,0,11.266,5.054,11.266,11.266C86.533,43.688,81.48,48.742,75.267,48.742z"/>
	<path fill="#FFFFFF" d="M75.267,45.302c-4.315,0-7.827-3.512-7.827-7.827c0-4.314,3.512-7.825,7.827-7.825s7.827,3.511,7.827,7.825
		C83.094,41.79,79.582,45.302,75.267,45.302z"/>
	<path d="M43.445,71.791c-6.213,0-11.266-5.054-11.266-11.266c0-6.213,5.053-11.268,11.266-11.268s11.266,5.055,11.266,11.268
		C54.711,66.737,49.658,71.791,43.445,71.791z"/>
	<path fill="#FFFFFF" d="M43.445,68.351c-4.315,0-7.827-3.511-7.827-7.825c0-4.315,3.512-7.827,7.827-7.827s7.827,3.512,7.827,7.827
		C51.271,64.84,47.76,68.351,43.445,68.351z"/>
	<path d="M57.55,106.366c-6.213,0-11.267-5.055-11.267-11.268s5.054-11.267,11.267-11.267c6.212,0,11.266,5.054,11.266,11.267
		S63.762,106.366,57.55,106.366z"/>
	<path fill="#FFFFFF" d="M57.55,102.926c-4.316,0-7.828-3.512-7.828-7.827c0-4.314,3.512-7.826,7.828-7.826
		c4.314,0,7.826,3.512,7.826,7.826C65.376,99.414,61.865,102.926,57.55,102.926z"/>
	<path d="M107.09,71.791c6.213,0,11.266-5.054,11.266-11.266c0-6.213-5.053-11.268-11.266-11.268s-11.267,5.055-11.267,11.268
		C95.823,66.737,100.877,71.791,107.09,71.791z"/>
	<path fill="#FFFFFF" d="M107.09,68.351c4.314,0,7.826-3.511,7.826-7.825c0-4.315-3.512-7.827-7.826-7.827
		c-4.315,0-7.827,3.512-7.827,7.827C99.263,64.84,102.774,68.351,107.09,68.351z"/>
	<path d="M92.984,106.366c6.213,0,11.267-5.055,11.267-11.268s-5.054-11.267-11.267-11.267s-11.267,5.054-11.267,11.267
		S86.771,106.366,92.984,106.366z"/>
	<path fill="#FFFFFF" d="M92.984,102.926c4.315,0,7.827-3.512,7.827-7.827c0-4.314-3.512-7.826-7.827-7.826
		c-4.314,0-7.826,3.512-7.826,7.826C85.158,99.414,88.67,102.926,92.984,102.926z"/>
</g>
</svg>
