<?xml version="1.0" encoding="utf-8"?>
<!-- Generator: Adobe Illustrator 15.1.0, SVG Export Plug-In . SVG Version: 6.00 Build 0)  -->
<!DOCTYPE svg PUBLIC "-//W3C//DTD SVG 1.1//EN" "http://www.w3.org/Graphics/SVG/1.1/DTD/svg11.dtd">
<svg version="1.1"
	 id="Layer_1" xmlns:rdf="http://www.w3.org/1999/02/22-rdf-syntax-ns#" xmlns:svg="http://www.w3.org/2000/svg" xmlns:cc="http://creativecommons.org/ns#" xmlns:dc="http://purl.org/dc/elements/1.1/"
	 xmlns="http://www.w3.org/2000/svg" xmlns:xlink="http://www.w3.org/1999/xlink" x="0px" y="0px" width="150px" height="156px"
	 viewBox="0 0 150 156" enable-background="new 0 0 150 156" xml:space="preserve">
<path d="M10.591,95.283V69.312L5.864,38.362l33.117-15.857L50.865,2.696h48.804l11.885,19.809l33.116,15.857l-4.726,30.949v25.972
	l-64.677,57.413L10.591,95.283z M75.267,144.417L133.75,92.5V68.842l4.104-26.877l-30.652-14.679L96.163,8.889H54.371L43.332,27.286
	L12.679,41.965l4.104,26.877V92.5L75.267,144.417z M130.283,45.968l-3.414,22.351v21.09l-51.602,45.809L23.664,89.408v-21.09
	L20.25,45.968l27.92-13.37L58.268,15.77h33.998l10.098,16.828L130.283,45.968z M51.548,33.655l23.72,31.99l23.73-31.97l-8.68-14.464
	H60.214L51.548,33.655z M76.986,129.091l45.005-39.953L76.988,71.075L76.986,129.091z M73.547,71.075L28.542,89.138l45.005,39.953
	V71.075z M24.036,47.969l3.068,20.09v17.95l45.455-18.243L49.013,36.009L24.036,47.969z M126.499,47.969L101.543,36.02
	L77.979,67.766l45.451,18.241V68.059L126.499,47.969z M75.267,48.796c-6.213,0-11.266-5.055-11.266-11.268
	c0-6.211,5.053-11.266,11.266-11.266c6.213,0,11.266,5.054,11.266,11.266C86.533,43.741,81.48,48.796,75.267,48.796z M83.094,37.528
	c0-4.315-3.512-7.826-7.827-7.826s-7.827,3.511-7.827,7.826c0,4.315,3.512,7.827,7.827,7.827S83.094,41.844,83.094,37.528z
	 M43.445,71.845c-6.213,0-11.266-5.054-11.266-11.266c0-6.213,5.053-11.268,11.266-11.268s11.266,5.055,11.266,11.268
	C54.711,66.791,49.658,71.845,43.445,71.845z M51.271,60.579c0-4.315-3.512-7.827-7.827-7.827s-7.827,3.512-7.827,7.827
	c0,4.314,3.512,7.825,7.827,7.825S51.271,64.894,51.271,60.579z M68.816,95.152c0,6.213-5.054,11.268-11.266,11.268
	c-6.213,0-11.267-5.055-11.267-11.268s5.054-11.267,11.267-11.267C63.762,83.886,68.816,88.939,68.816,95.152z M65.376,95.152
	c0-4.314-3.512-7.826-7.826-7.826c-4.316,0-7.828,3.512-7.828,7.826c0,4.315,3.512,7.827,7.828,7.827
	C61.865,102.979,65.376,99.468,65.376,95.152z M118.355,60.579c0,6.212-5.053,11.266-11.266,11.266s-11.267-5.054-11.267-11.266
	c0-6.213,5.054-11.268,11.267-11.268S118.355,54.366,118.355,60.579z M114.916,60.579c0-4.315-3.512-7.827-7.826-7.827
	c-4.315,0-7.827,3.512-7.827,7.827c0,4.314,3.512,7.825,7.827,7.825C111.404,68.404,114.916,64.894,114.916,60.579z M104.251,95.152
	c0,6.213-5.054,11.268-11.267,11.268s-11.267-5.055-11.267-11.268s5.054-11.267,11.267-11.267S104.251,88.939,104.251,95.152z
	 M100.812,95.152c0-4.314-3.512-7.826-7.827-7.826c-4.314,0-7.826,3.512-7.826,7.826c0,4.315,3.512,7.827,7.826,7.827
	C97.3,102.979,100.812,99.468,100.812,95.152z"/>
</svg>
