<?xml version="1.0" encoding="UTF-8" standalone="no"?>
<!-- Created with Inkscape (http://www.inkscape.org/) -->

<svg
   xmlns:dc="http://purl.org/dc/elements/1.1/"
   xmlns:cc="http://creativecommons.org/ns#"
   xmlns:rdf="http://www.w3.org/1999/02/22-rdf-syntax-ns#"
   xmlns:svg="http://www.w3.org/2000/svg"
   xmlns="http://www.w3.org/2000/svg"
   xmlns:xlink="http://www.w3.org/1999/xlink"
   version="1.1"
   width="266"
   height="270.5"
   id="svg2">
  <defs
     id="d1">
    <linearGradient
       id="g1">
      <stop
         id="s1"
         style="stop-color:#7f6e41;stop-opacity:1"
         offset="0" />
      <stop
         id="s2"
         style="stop-color:#ae975f;stop-opacity:1"
         offset="0.1" />
      <stop
         id="s3"
         style="stop-color:#e3cd99;stop-opacity:1"
         offset="0.5" />
      <stop
         id="s4"
         style="stop-color:#ae975f;stop-opacity:1"
         offset="0.9" />
      <stop
         id="s5"
         style="stop-color:#7f6e41;stop-opacity:1"
         offset="1" />
    </linearGradient>
    <linearGradient
       x1="369"
       y1="195.89104"
       x2="603"
       y2="195.89104"
       id="g2"
       xlink:href="#g1"
       gradientUnits="userSpaceOnUse"
       gradientTransform="translate(-353,-55)" />
  </defs>
  <path
     d="M 133,0 C 118.71365,0 105.46826,4.4740882 94.59375,12.09375 74.900417,7.1660163 50.936335,2.4519402 30.8125,2.3125 22.9541,2.258048 15.68049,2.895321 9.5,4.5 l 0,14 C 9.5,18.5 7.98662,17 0,17 l 0,212 115,41.5 36,0 115,-41.5 0,-212 c -7.98662,0 -9.5,1.5 -9.5,1.5 l 0,-14 C 234.49082,-1.2143828 198.76251,5.2387388 171.375,12.09375 160.50441,4.4829653 147.27723,0 133,0 z"
     id="p1"
     style="fill:#000000;fill-opacity:1;stroke:none" />
  <path
     d="M 27.375,8.59375 C 23.57031,8.58848 19.76292,8.716675 16,9 l 0,213 c 96.41168,2.41384 117,38 117,38 0,0 20.58832,-35.58616 117,-38 L 250,9 C 223.04227,6.9702452 194.03155,13.015127 177.84375,17.21875 191.45278,29.481942 200,47.238434 200,67 c 0,24.59383 -13.24794,46.09634 -33,57.75 l 0,19.5 c 8.93051,9.58795 14.46875,22.91013 14.46875,37.65625 0,20.14017 -10.33632,37.64419 -25.53125,46.5625 4.92682,-7.05848 7.90625,-16.40684 7.90625,-26.65625 0,-17.47321 -8.72089,-32.31656 -20.84375,-37.6875 l 0,-55.8125 C 161.64717,103.81572 175.5,87.02795 175.5,67 175.5,43.527898 156.4721,24.5 133,24.5 109.5279,24.5 90.5,43.527898 90.5,67 c 0,20.02795 13.85283,36.81572 32.5,41.3125 l 0,55.8125 c -12.12286,5.37094 -20.84375,20.21429 -20.84375,37.6875 0,10.24941 2.97943,19.59777 7.90625,26.65625 -15.19493,-8.91831 -25.53125,-26.42233 -25.53125,-46.5625 0,-14.74612 5.53824,-28.0683 14.46875,-37.65625 l 0,-19.5 C 79.24794,113.09634 66,91.59383 66,67 66,47.246965 74.526205,29.481394 88.125,17.21875 74.191586,13.602542 50.798233,8.6261947 27.375,8.59375 z M 133,51 c 8.83656,0 16,7.16344 16,16 0,8.83656 -7.16344,16 -16,16 -8.83656,0 -16,-7.16344 -16,-16 0,-8.83656 7.16344,-16 16,-16 z"
     id="p2"
     style="fill:url(#g2);fill-opacity:1;stroke:none" />
</svg>
