<?xml version="1.0" encoding="UTF-8" standalone="no"?>
<svg xmlns="http://www.w3.org/2000/svg" xmlns:xlink="http://www.w3.org/1999/xlink" version="1.1" width="600" height="436.15826" viewBox="0 0 600.00002 436.15827" id="Layer_1">
  <linearGradient xlink:href="#linearGradient3932" id="linearGradient3938" x1="26.529333" y1="226.80684" x2="571.91797" y2="226.80684" gradientUnits="userSpaceOnUse"/>
  <linearGradient gradientTransform="translate(-69.733345,670.31456)" xlink:href="#linearGradient3932-7" id="linearGradient3938-1" x1="26.529333" y1="226.80684" x2="571.91797" y2="226.80684" gradientUnits="userSpaceOnUse"/>
  <linearGradient id="linearGradient3932-7">
    <stop offset="0.25" style="stop-color:#bf331c"/>
    <stop offset="0.5" style="stop-color:#f6b91d"/>
    <stop offset="0.75" style="stop-color:#bf331c"/>
  </linearGradient>
  <linearGradient xlink:href="#linearGradient3932-7" id="linearGradient3083" gradientUnits="userSpaceOnUse" gradientTransform="translate(-0.014595,0.00205925)" x1="26.529333" y1="226.80684" x2="571.91797" y2="226.80684"/>
  <path d="m 600.00002,436.15827 c -43.93946,0 -86.50936,0 -134.95006,0 10.9914,-55.0879 -3.8121,-108.13452 -24.90514,-149.8408 -18.33646,35.47782 -37.03058,79.07706 -8.30462,149.8408 -30.10424,0 -178.89824,0 -267.48376,0 20.08113,-41.35736 24.91386,-87.7219 -4.50124,-149.8408 -22.48877,33.74186 -38.74908,100.8767 -27.33022,149.8408 -26.29215,0 -67.82397,0 -132.52498,0 21.930476,-39.21142 157.43883,-294.29931 187.54308,-351.393574 25.26278,0 40.83396,0.17446 59.51062,0.17446 51.90388,-84.9391603493825 0,0 51.90388,-84.9391603493825 C 304.61902,9.9882257 348.95976,83.395136 348.95976,83.395136 c 0,0 0,0 61.4123,0 C 475.31732,204.01275 537.04368,321.27189 600.00002,436.15827 z M 303.29308,269.51631 c 0,-38.56588 1.75338,-89.35317 -4.32678,-106.80857 -5.70506,17.63859 -4.38784,66.42823 -4.38784,106.81729 -18.6854,2.17212 -33.18358,18.0486 -33.18358,37.30972 0,20.7441 16.82732,37.57142 37.57142,37.57142 20.75282,0 37.57142,-16.82732 37.57142,-37.57142 -0.008,-19.26986 -14.5418,-35.16378 -33.24464,-37.31844 z" style="fill:#ffffff"/>
  <path style="stroke-width:12" d="m 299.5625,25.999998 -5.3125,8.78125 -38.3125,63.53125 -34.65625,0 -11.15625,0 6.15625,9.312502 50.125,75.9375 -91.5,95.5 -3.15625,3.3125 2.34375,3.90625 c 8.18852,13.7176 15.66594,36.52266 18.78125,60.3125 3.11531,23.78984 1.84718,48.62321 -6,66.75 l -3.625,8.40625 9.125,0 212.125,0 8.65625,0 -3.03125,-8.125 c -15.2628,-40.66532 -2.75715,-100.65622 13.84375,-127.34375 l 2.4375,-3.9375 -3.21875,-3.375 L 331.96875,183.5625 382.5,107.625 l 6.21875,-9.312502 -11.21875,0 -36.96875,0 -35.90625,-63.40625 z m -0.53125,58.3125 16.78125,100.312502 0.40625,71.90625 0,3.84375 3.5,1.59375 c 17.30933,7.85302 29.40625,25.2657 29.40625,45.59375 0,27.71654 -22.34484,50.0625 -50.0625,50.0625 -27.71652,0 -50.0625,-22.34596 -50.0625,-50.0625 0,-20.17078 11.88904,-37.48923 29,-45.4375 l 3.4375,-1.59375 0.0312,-3.78125 0.65625,-71.78125 L 299.0312,84.312498 z M 188.59375,111.9375 183.8125,120.84375 27.25,412.90625 22.5,421.75 l 10.03125,0 78.03125,0 6.40625,0 -0.4375,-6.40625 c -4.59644,-67.84761 19.38268,-121.33559 47.375,-158.90625 13.99616,-18.78533 29.01072,-33.55984 41.8125,-43.96875 12.80178,-10.40891 23.99449,-16.48909 27.8125,-17.625 l 7.71875,-2.3125 -4.40625,-6.71875 -42.71875,-65.40625 z m 221.28125,0 -5.53125,8.46875 -42.75,65.40625 -4.40625,6.75 7.71875,2.28125 c 3.81801,1.13591 15.01071,7.24746 27.8125,17.65625 12.80179,10.40879 27.81634,25.1527 41.8125,43.9375 27.99232,37.5696 51.97143,91.06312 47.375,158.90625 l -0.4375,6.40625 6.40625,0 78.03125,0 10.03125,0 -4.71875,-8.84375 L 414.625,120.875 z"/>
  <path style="fill:url(#linearGradient3083);stroke-width:12;marker-end:none" d="m 290.125,64.874998 -25.65625,42.531252 -1.75,2.90625 -3.375,0 -26.90625,0 L 272.34375,170.75 290.125,64.874998 z m 17.90625,0.4375 L 325.75,171.25 l 40.59375,-60.9375 -29.3125,0 -3.5,0 -1.75,-3.03125 -23.75,-41.968752 z M 189.625,135.4375 42.53125,409.75 l 61.75,0 c -2.91847,-68.0598 21.59347,-122.34215 50,-160.46875 14.64911,-19.6617 30.32739,-35.10967 43.875,-46.125 9.72213,-7.9049 17.98778,-13.4082 24.71875,-16.78125 l -33.25,-50.9375 z m 219.21875,0 -33.28125,50.9375 c 6.73441,3.37196 14.98715,8.9 24.71875,16.8125 13.5476,11.01519 29.2259,26.43261 43.875,46.09375 28.40653,38.12552 52.91848,92.41295 50,160.46875 l 61.75,0 -147.0625,-274.3125 z m -80.96875,61.25 0.3125,56.25 c 19.54872,10.44877 32.9375,30.96008 32.9375,54.625 0,34.2017 -27.86188,62.0625 -62.0625,62.0625 -34.20172,0 -62.0625,-27.8608 -62.0625,-62.0625 0,-23.49039 13.17935,-43.87854 32.5,-54.40625 L 270,197.125 186.5,284.3125 c 8.45272,15.7461 15.23814,37.48032 18.28125,60.7188 2.88268,22.0133 2.48477,45.0662 -3.78125,64.7187 l 195.21875,0 c -12.51257,-42.9242 -1.53671,-95.57892 15.3125,-125.59375 L 327.875,196.6875 z"/>
</svg>
