<?xml version="1.0" encoding="UTF-8" standalone="no"?>
<svg xmlns="http://www.w3.org/2000/svg" version="1.1" width="600" height="436.15826" viewBox="0 0 600.00002 436.15827" id="Layer_1">
  <path d="M 299.39374,37.876748 337.0175,104.3137 h 40.49374 l -53.20364,79.93196 94.55228,98.87905 c -17.91774,28.80448 -30.62766,89.26594 -14.35862,132.61222 H 192.38453 c 17.05413,-39.3946 4.52741,-102.91796 -13.14607,-132.52498 l 94.81398,-98.96629 -52.7762,-79.93196 h 38.05992 l 40.05758,-66.436952 z m 67.21334,151.219092 c 22.81152,6.78676 130.69306,87.71319 121.28058,226.64109 h 78.03028 L 409.35144,123.69696 366.60708,189.09584 z M 189.10456,123.68824 32.529334,415.73693 H 110.55088 C 101.1384,276.80029 209.01994,195.87387 231.83148,189.08712 L 189.10456,123.68824 z M 355.1097,307.57623 c 0,-22.70684 -13.50372,-42.26458 -32.90442,-51.06642 L 321.804,183.99269 299.05352,47.995818 276.11986,184.50736 l -0.64552,72.18563 c -19.1739,8.90654 -32.477,28.34214 -32.477,50.87452 0,30.95914 25.09706,56.05618 56.05618,56.05618 30.95914,0 56.05618,-25.08832 56.05618,-56.04746 z"/>
</svg>
