<?xml version="1.0" encoding="UTF-8" standalone="no"?>
<svg xmlns="http://www.w3.org/2000/svg" version="1.1" width="600" height="612.02631">
  <path d="M 53.001479,612.02632 0,490.585 99.270669,380.25195 150.31366,299.44918 168.41434,167.4198 194.42546,217.86607 228.60713,84.87275 247.25863,167.3586 319.21763,9.93013 298.95956,192.69649 501.44846,0 471.26026,98.73515 600,15.72908 481.374,209.37421 l 16.66242,34.65599 -32.14669,34.61008 14.39792,24.32805 -22.95098,43.63748 138.66986,164.95639 -207.75234,-58.57092 -30.72372,31.42755 26.05702,37.2418 -58.2802,14.58153 3.35084,23.91493 -23.73132,11.88861 -27.31167,29.75978 -42.79594,-42.73474 0,-5.67654 -49.35993,36.99699 -132.457791,21.63513 z" style="fill:#808080"/>
  <path d="m 229.73938,390.28919 c -27.60239,0 -38.25165,-28.56633 -38.25165,-28.56633 l 66.28245,-51.76213 c 15.30066,36.99699 -0.4125,80.32846 -28.0308,80.32846 m 300.70383,79.01259 -100.66303,-119.77355 24.20564,-45.90197 -16.55531,-28.03081 33.12592,-35.68113 -15.25475,-31.91717 72.63222,-118.5189 -96.89907,62.45729 22.95099,-75.18744 -184.74014,175.89637 11.41429,-103.21824 -40.69975,89.17223 -12.79135,-56.06161 -25.4603,99.39308 -20.38047,-39.5063 -8.90499,65.02779 -54.80695,86.66293 -90.488093,100.64773 24.20564,53.5523 8.904983,-31.85597 26.776152,7.65033 0,-14.046 19.125818,5.07981 5.07982,-20.38047 21.63513,11.47549 6.39568,-29.28546 34.42648,25.4603 -25.5215,1.31585 0,17.80997 -28.0308,-2.57051 8.90498,17.87117 -26.71495,-11.4755 -2.570511,22.95099 -31.85597,-3.82516 -8.904983,25.46029 7.650329,16.61652 109.613915,-17.87117 81.5219,-61.20263 0,42.0768 19.06462,19.12583 14.10721,-15.30066 12.66895,-6.39568 -3.82517,-28.0308 45.90197,-11.47549 -17.87116,-25.4603 53.5523,-54.80696 149.07431,42.07681 z"/>
</svg>
