<?xml version="1.0" encoding="UTF-8" standalone="no"?>
<svg xmlns="http://www.w3.org/2000/svg" version="1.1" width="600" height="612.02631">
  <radialGradient cx="0" cy="0" r="1" fx="0" fy="0" id="radialGradient552" gradientUnits="userSpaceOnUse" gradientTransform="matrix(15.493256,0,0,-15.493256,746.19141,257.06543)" spreadMethod="pad">
    <stop style="stop-color:#ebd491" offset="0"/>
    <stop style="stop-color:#d2bb7b" offset="0.7"/>
    <stop style="stop-color:#8b723c" offset="1"/>
  </radialGradient>
  <path d="M 53.001479,612.02632 0,490.585 99.270669,380.25195 150.31366,299.44918 168.41434,167.4198 194.42546,217.86607 228.60713,84.87275 247.25863,167.3586 319.21763,9.93013 298.95956,192.69649 501.44846,0 471.26026,98.73515 600,15.72908 481.374,209.37421 l 16.66242,34.65599 -32.14669,34.61008 14.39792,24.32805 -22.95098,43.63748 138.66986,164.95639 -207.75234,-58.57092 -30.72372,31.42755 26.05702,37.2418 -58.2802,14.58153 3.35084,23.91493 -23.73132,11.88861 -27.31167,29.75978 -42.79594,-42.73474 0,-5.67654 -49.35993,36.99699 -132.457791,21.63513 z" style="fill:#ffffff"/>
  <path d="m 229.73938,390.28919 c -27.60239,0 -38.25165,-28.56633 -38.25165,-28.56633 l 66.28245,-51.76213 c 15.30066,36.99699 -0.4125,80.32846 -28.0308,80.32846 m 300.70383,79.01259 -100.66303,-119.77355 24.20564,-45.90197 -16.55531,-28.03081 33.12592,-35.68113 -15.25475,-31.91717 72.63222,-118.5189 -96.89907,62.45729 22.95099,-75.18744 -184.74014,175.89637 11.41429,-103.21824 -40.69975,89.17223 -12.79135,-56.06161 -25.4603,99.39308 -20.38047,-39.5063 -8.90499,65.02779 -54.80695,86.66293 -90.488093,100.64773 24.20564,53.5523 8.904983,-31.85597 26.776152,7.65033 0,-14.046 19.125818,5.07981 5.07982,-20.38047 21.63513,11.47549 6.39568,-29.28546 34.42648,25.4603 -25.5215,1.31585 0,17.80997 -28.0308,-2.57051 8.90498,17.87117 -26.71495,-11.4755 -2.570511,22.95099 -31.85597,-3.82516 -8.904983,25.46029 7.650329,16.61652 109.613915,-17.87117 81.5219,-61.20263 0,42.0768 19.06462,19.12583 14.10721,-15.30066 12.66895,-6.39568 -3.82517,-28.0308 45.90197,-11.47549 -17.87116,-25.4603 53.5523,-54.80696 149.07431,42.07681 z" style="fill:#8b723c"/>
  <g transform="matrix(15.300658,0,0,-15.300658,-11144.862,4273.489)">
    <path d="m 746.332,262.43 -0.988,-0.95 0.148,1.364 0.406,3.652 -1.375,-3 -0.613,-1.344 -0.324,1.446 -0.375,1.644 -1.156,-4.496 -0.325,-1.269 -0.601,1.168 -0.606,1.175 -0.371,-2.679 -0.015,-0.11 -0.059,-0.09 -3.629,-5.73 -5.695,-6.336 0.879,-1.949 0.215,0.758 0.132,0.484 0.485,-0.141 1.113,-0.316 0,0.254 0,0.652 0.625,-0.168 0.758,-0.203 0.215,0.84 0.152,0.621 0.567,-0.301 0.832,-0.441 0.277,1.269 0.164,0.758 0.621,-0.461 2.246,-1.664 1.121,-0.832 -1.39,-0.07 -1.192,-0.063 0,-0.687 0,-0.551 -0.543,0.055 -0.937,0.086 0.179,-0.367 0.61,-1.219 -1.254,0.535 -1.129,0.484 -0.094,-0.828 -0.054,-0.504 -0.5,0.063 -1.688,0.203 -0.383,-1.094 0.258,-0.558 6.668,1.085 5.231,3.926 0.796,0.602 0,-1 0,-2.543 0.739,-0.735 0.562,0.614 0.063,0.07 0.082,0.039 0.511,0.258 -0.199,1.48 -0.058,0.442 0.433,0.109 2.293,0.574 -0.75,1.071 -0.238,0.34 0.293,0.293 3.496,3.582 0.203,0.214 0.289,-0.082 8.176,-2.308 -5.527,6.586 -0.219,0.258 0.156,0.296 1.453,2.754 -0.937,1.59 -0.192,0.32 0.254,0.274 1.934,2.086 -0.856,1.777 -0.117,0.242 0.145,0.235 3.601,5.875 -4.488,-2.895 -1.148,-0.738 0.402,1.305 0.941,3.097 -10.699,-10.183 z m -5.894,-6.942 -0.129,0.34 0.289,0.227 4.332,3.383 0.519,0.402 0.25,-0.606 c 0.664,-1.601 0.547,-3.515 -0.289,-4.765 l 0,0 c -0.508,-0.758 -1.215,-1.176 -2.004,-1.176 l 0,0 c -2.125,0 -2.937,2.102 -2.968,2.195" style="fill:url(#radialGradient552)"/>
  </g>
</svg>
