<?xml version="1.0" encoding="UTF-8" standalone="no"?>
<svg xmlns:svg="http://www.w3.org/2000/svg" xmlns="http://www.w3.org/2000/svg" xmlns:xlink="http://www.w3.org/1999/xlink" version="1.1" width="235.6875" height="276.90625">
  <path d="m 11.57603,160.01583 124.54872,-98.26739 0,34.69055 93.25975,-73.580784 -15.86252,40.879664 -1.27282,40.41469 -110.07138,86.84495 0,-35.065 -63.2527,49.90559 z"/>
  <path d="m 0,0 0,37.875 c 13.22347,11.74314 16.3125,26.21586 16.3125,42.90625 l 0,71.125 -11.59375,8.625 c 9.7402,57.81766 113.125,116.375 113.125,116.375 0,0 103.385,-58.557 113.125,-116.375 l -11.59375,-8.625 0,-71.40625 c 0,-16.41419 3.0885,-30.88186 16.3125,-42.625 l 0,-37.875 -89.53125,0 -14.8125,13.78125 0,8.40625 c 0,7.455844 -6.04416,13.5 -13.5,13.5 -7.45584,0 -13.5,-6.044156 -13.5,-13.5 l 0,-8.40625 L 89.53125,0 z" style="fill:#ffffff"/>
  <path d="m 12.875,12.5625 0,20.46875 c 12.70824,9.35432 16.40625,30.71082 16.40625,47.125 l 0,73.8125 100.5625,-80.21875 0,35.65625 L 214.625,42.5 c 2.18191,-3.768049 4.87607,-7.030897 8.1875,-9.46875 l 0,-20.46875 -72.1875,0 -5.875,6.15625 0,3.46875 c 0,14.857122 -12.04924,26.90625 -26.90625,26.90625 -14.85701,0 -26.90625,-12.049128 -26.90625,-26.90625 l 0,-3.46875 -5.875,-6.15625 z m 193.53125,88.1875 -97.9375,77.28125 0,-35.0625 -69.21875,54.625 c 29.8868,35.68447 78.59375,64.34375 78.59375,64.34375 0,0 79.88124,-46.9666 97.8125,-95.53125 l -9.25,-7.375 z"/>
</svg>
