<?xml version="1.0" encoding="utf-8"?>
<svg xmlns="http://www.w3.org/2000/svg" xmlns:xlink="http://www.w3.org/1999/xlink" version="1.1" id="Layer_1" x="0px" y="0px" width="300px" height="300px">
  <polygon points="280.235,117.507 258.166,108.342 246.917,103.671 200.065,70.299 189.562,50.632 181.822,36.141 173.428,50.263  150,89.679 126.572,50.263 118.178,36.141 110.438,50.632 99.934,70.299 53.082,103.671 41.834,108.342 19.765,117.507 0,125.715  19.512,134.508 38.19,142.925 40.005,143.743 41.996,143.743 51.442,143.743 93.863,210.637 94.488,211.623 95.338,212.422  122.832,238.294 143.652,257.886 150,263.859 156.348,257.886 177.168,238.294 204.662,212.422 205.512,211.623 206.137,210.637  248.558,143.743 258.004,143.743 259.995,143.743 261.81,142.925 280.488,134.508 300,125.715  "/>
  <linearGradient id="SVGID_1_" gradientUnits="userSpaceOnUse" x1="92.6316" y1="69.3165" x2="207.1767" y2="183.8616">
    <stop style="stop-color:#8b723c" offset="0"/>
    <stop style="stop-color:#d2bb7b" offset="0.3"/>
    <stop style="stop-color:#ebd491" offset="0.5"/>
    <stop style="stop-color:#d2bb7b" offset="0.7"/>
    <stop style="stop-color:#8b723c" offset="1"/>
  </linearGradient>
  <path fill="url(#SVGID_1_)" d="M276.683,126.062l-18.679,8.417h-14.54l-45.15,71.197l-27.494,25.872l7.436-65.794l41.87-69.792   l22.27,15.863l12.216,5.073L276.683,126.062z M135.908,156.094l5.491,9.153l0.738,6.527L150,241.35l7.864-69.577l0.738-6.527   l5.491-9.153l32.55-54.257l23.484-5.876l-27.207-19.379l-11.529-21.586L150,107.809l-31.391-52.812l-11.529,21.586L79.873,95.961   l23.484,5.876L135.908,156.094z M79.873,95.961l-22.27,15.863l-12.216,5.073l-22.069,9.165l18.679,8.417h14.54l45.15,71.197   l27.494,25.872l-7.436-65.794L79.873,95.961z"/>
</svg>
