<?xml version="1.0" encoding="utf-8"?>
<svg xmlns="http://www.w3.org/2000/svg" xmlns:xlink="http://www.w3.org/1999/xlink" version="1.1" id="Layer_1" x="0px" y="0px" width="300px" height="300px">
    <path d="M276.683,126.062l-18.679,8.417h-14.54l-45.15,71.197l-27.494,25.872l7.436-65.794l41.87-69.792l22.27,15.863l12.216,5.073   L276.683,126.062z M135.908,156.094l5.491,9.153l0.738,6.527L150,241.35l7.864-69.577l0.738-6.527l5.491-9.153l32.55-54.257   l23.484-5.876l-27.207-19.379l-11.529-21.586L150,107.809l-31.391-52.812l-11.529,21.586L79.873,95.961l23.484,5.876   L135.908,156.094z M79.873,95.961l-22.27,15.863l-12.216,5.073l-22.069,9.165l18.679,8.417h14.54l45.15,71.197l27.494,25.872   l-7.436-65.794L79.873,95.961z"/>
</svg>
