<?xml version="1.0" encoding="UTF-8" standalone="no"?>
<svg
   xmlns:dc="http://purl.org/dc/elements/1.1/"
   xmlns:cc="http://creativecommons.org/ns#"
   xmlns:rdf="http://www.w3.org/1999/02/22-rdf-syntax-ns#"
   xmlns:svg="http://www.w3.org/2000/svg"
   xmlns="http://www.w3.org/2000/svg"
   xmlns:xlink="http://www.w3.org/1999/xlink"
   version="1.1"
   width="144.632"
   height="68.890298">
  <defs>
    <linearGradient id="g1">
      <stop offset="0"   style="stop-color:#a72029" />
      <stop offset="0.2" style="stop-color:#dc7725" />
      <stop offset="0.5" style="stop-color:#f7af21" />
      <stop offset="0.8" style="stop-color:#dc7725" />
      <stop offset="1"   style="stop-color:#a72029" />
    </linearGradient>
    <linearGradient
       gradientTransform="matrix(7.0710678,-7.0710678,7.0710678,7.0710678,-1382.8966,-622.77505)"
       xlink:href="#g1"
       id="g2"
       x1="49.438473"
       y1="146.91357"
       x2="58.884472"
       y2="156.35957"
       gradientUnits="userSpaceOnUse" />
  </defs>
  <path
     style="fill:#000000"
     d="M 114.18985,6.9829194 A 24.717524,24.717524 0 0 0 96.968218,3.5700997e-7 24.717524,24.717524 0 0 0 75.222832,13.056033 L 65.528539,3.3617414 0,68.890281 l 16.688144,-0.0037 21.471347,-21.471347 13.578571,13.578571 8.345911,-8.34591 -6.789286,-6.789286 6.789272,-6.789271 -6.789286,-6.789286 12.230189,-12.23019 5.232661,5.232661 -6.785616,6.785616 6.789286,6.789286 -7.001205,7.001205 8.342233,8.342234 7.001206,-7.001206 5.232661,5.232661 -7.001206,7.001206 9.456775,9.456775 17.108343,-3.5e-5 -9.665018,-9.665019 6.789268,-6.789271 -6.789282,-6.789286 5.232632,-5.232632 12.02195,12.021946 -6.78927,6.789272 8.34223,8.342233 6.78927,-6.789271 8.112,8.111999 16.68822,-0.0036 -28.5749,-28.574875 A 24.717524,24.717524 0 0 0 121.68436,24.71614 24.717524,24.717524 0 0 0 114.18985,6.9829194 Z" />
  <path
     style="fill:#a72029"
     d="M 112.54919,8.6747714 A 22.361497,22.361497 0 0 0 96.968232,2.3532374 22.361497,22.361497 0 0 0 76.958496,14.791698 l 15.723509,15.723509 6.789272,-6.789271 14.945123,14.945126 a 22.361497,22.361497 0 0 0 4.91844,-13.958514 22.361497,22.361497 0 0 0 -6.78565,-16.0377766 z" />
  <path
     style="fill:url(#g2)"
     d="m 107.81215,59.223134 6.78829,-6.78814 -15.132154,-15.132163 -8.34381,8.343952 6.788239,6.788211 -6.788282,6.78814 7.254923,7.254908 H 87.489911 l -7.042776,-7.04279 7.000399,-7.000258 -8.343909,-8.343952 -7.000308,7.000449 -5.232654,-5.232668 7.000379,-7.000378 -6.788239,-6.788211 6.788281,-6.78814 -8.343909,-8.343953 -15.34421,15.344211 6.78826,6.788331 -6.788282,6.78814 6.78824,6.788211 -5.232598,5.232597 -13.5764,-13.576358 -22.174911,22.174769 H 5.522093 l 60.00511,-60.0049676 27.1529,27.1529006 6.78819,-6.788331 39.640417,39.640398 h -10.46518 l -8.81051,-8.810458 -6.78828,6.788147 z" />
</svg>
