<?xml version="1.0" encoding="UTF-8" standalone="no"?>
<svg xmlns="http://www.w3.org/2000/svg" version="1.1" width="600" height="451.11771" viewBox="0 0 600 451.11771" id="PC2">
  <path d="m 540.44967,451.10972 -39.70993,-25.40996 c -44.95393,-54.2299 -119.7998,-87.17385 -200.73766,-87.17385 -80.93986,0 -155.78773,32.94395 -200.739649,87.17585 L 59.540499,451.11772 C 54.110509,282.66601 173.6203,184.03818 300.00008,184.03818 c 127.62378,0 245.96558,99.93783 240.44959,267.07154 z m 53.5999,-120.42579 c 19.31797,-88.46585 -8.46598,-182.50769 -82.39785,-250.225573 -117.0898,-107.26381 -306.17947,-107.29181 -423.299271,0 C 14.846577,147.78824 -13.481374,241.68408 5.9525922,330.68393 L 28.130553,365.83387 46.104522,335.87392 C 66.896486,270.15203 109.22641,223.46611 167.98631,187.96017 c -7.16599,-46.88192 0.386,2.522 -6.53199,-42.72592 37.30594,27.09995 29.87795,21.70796 38.30594,27.82595 33.15794,-11.96398 48.65191,-14.87598 79.45786,-18.16797 4.29999,-10.30798 0.686,-1.648 20.78196,-49.78591 18.79397,45.01992 16.11797,38.61193 20.78197,49.78591 30.80394,3.29199 46.12992,6.14199 79.45786,18.16797 8.37398,-6.07999 1.064,-0.77 38.30593,-27.82595 -6.91599,45.23992 0.632,-4.152 -6.53199,42.72592 58.7559,35.50194 101.08783,82.18586 121.88179,147.91375 l 17.97397,29.95995 22.17996,-35.14994 z" style="fill:#808080"/>
  <g transform="matrix(1.9999965,0,0,1.9999965,6.0237148e-4,-76.287373)" id="g5">
    <path d="m 262.106,252.462 c -23.239,-33.075 -65.864,-53.496 -112.107,-53.496 -46.241,0 -88.865,20.421 -112.106,53.493 C 37.717,222.42 48.987,194.194 69.821,172.68 91.1,150.705 119.574,138.604 150,138.604 c 30.439,0 58.921,12.11 80.199,34.102 20.842,21.538 32.105,49.755 31.907,79.756 z m 24.665,-42.803 C 277.93,176.077 255.668,146.43 225.204,127.821 l 5.468,-35.776 -31.896,23.17 c -10.482,-3.737 -21.417,-6.256 -32.521,-7.488 L 150,68.783 133.744,107.726 c -11.104,1.232 -22.039,3.751 -32.521,7.488 L 69.327,92.044 74.795,127.82 C 44.331,146.429 22.069,176.076 13.228,209.658 10.056,198.772 8.45,187.531 8.45,176.19 8.45,104.742 71.949,46.614 150,46.614 c 78.051,0 141.55,58.128 141.55,129.577 -0.001,11.341 -1.607,22.582 -4.779,33.468 z"/>
    <path d="m 150,47.614 c 37.576,0 72.894,13.396 99.448,37.72 26.505,24.279 41.102,56.546 41.102,90.857 0,10.045 -1.271,20.011 -3.784,29.718 -9.433,-32.18 -31.139,-60.481 -60.473,-78.593 l 5.006,-32.753 0.724,-4.735 -3.876,2.815 -29.532,21.453 c -10.219,-3.602 -20.859,-6.055 -31.663,-7.298 L 151.846,70.608 150,66.187 l -1.846,4.422 -15.106,36.19 c -10.804,1.243 -21.444,3.696 -31.663,7.298 l -29.532,-21.453 -3.876,-2.815 0.724,4.735 5.006,32.753 C 44.374,145.428 22.667,173.73 13.234,205.91 10.721,196.203 9.45,186.237 9.45,176.192 9.45,141.88 24.047,109.614 50.552,85.335 77.106,61.01 112.424,47.614 150,47.614 m 0,91.99 c 30.166,0 58.393,12.003 79.48,33.797 19.937,20.604 31.031,47.374 31.605,75.949 -23.789,-31.842 -65.715,-51.384 -111.086,-51.384 -45.369,0 -87.293,19.54 -111.083,51.378 0.594,-28.61 11.694,-55.388 31.624,-75.969 21.088,-21.778 49.308,-33.771 79.46,-33.771 m 0,-93.99 c -78.729,0 -142.55,58.461 -142.55,130.577 0,12.926 2.061,25.41 5.881,37.203 8.356,-35.787 31.342,-66.203 62.554,-85.065 l -5.207,-34.067 30.386,22.073 c 10.58,-3.817 21.763,-6.438 33.376,-7.679 L 150,71.379 l 15.561,37.277 c 11.613,1.241 22.796,3.861 33.376,7.679 l 30.386,-22.073 -5.207,34.067 c 31.212,18.862 54.197,49.278 62.554,85.065 3.82,-11.793 5.881,-24.277 5.881,-37.203 C 292.549,104.075 228.729,45.614 150,45.614 l 0,0 z m 0,91.99 C 86.387,137.604 34.864,190.68 36.954,255.618 58.8,222.458 101.231,199.966 150,199.966 c 48.768,0 91.198,22.492 113.045,55.651 C 265.175,190.938 213.812,137.604 150,137.604 l 0,0 z" style="fill:#808080"/>
  </g>
</svg>
