<?xml version="1.0" encoding="UTF-8" standalone="no"?>
<svg xmlns="http://www.w3.org/2000/svg" xmlns:xlink="http://www.w3.org/1999/xlink" version="1.1" width="600" height="451.11978" viewBox="0 0 600.00001 451.11978" id="PC2">
  <linearGradient x1="120.709999" y1="235.7383" x2="259.58951" y2="105.547" id="SVGID_1_" gradientUnits="userSpaceOnUse">
    <stop style="stop-color:#bf331c" offset="0"/>
    <stop style="stop-color:#d3641c" offset="0.3"/>
    <stop style="stop-color:#f6b91d" offset="0.5"/>
    <stop style="stop-color:#d3641c" offset="0.7"/>
    <stop style="stop-color:#bf331c" offset="1"/>
  </linearGradient>
  <linearGradient x1="120.709999" y1="235.7383" x2="259.58951" y2="105.547" id="linearGradient3045" xlink:href="#SVGID_1_" gradientUnits="userSpaceOnUse" gradientTransform="matrix(2.0000058,0,0,2.0000058,-0.00138042,-76.287722)"/>
  <path d="m 540.45218,451.1118 -39.71012,-25.41007 c -44.95413,-54.23016 -119.80034,-87.17425 -200.73858,-87.17425 -80.94023,0 -155.78844,32.94409 -200.740574,87.17625 L 59.538792,451.1198 C 54.110776,282.66532 173.62112,184.03903 300.00148,184.03903 c 127.62437,0 245.96471,99.93829 240.4507,267.07277 z M 594.05033,330.68545 C 613.36639,242.2192 585.58431,148.17693 511.65209,80.458728 394.56176,-26.805582 205.47121,-26.833582 88.350875,80.458728 14.846662,147.78893 -13.481419,241.6852 5.9526368,330.68545 l 22.1780642,35.1501 17.974052,-29.96008 C 66.896813,270.15328 109.22693,223.46715 167.9871,187.96104 c -7.16602,-46.88213 0.38601,2.52201 -6.53201,-42.72612 37.3061,27.10008 29.87808,21.70806 38.30611,27.82608 33.15809,-11.96403 48.65214,-14.87604 79.45822,-18.16805 4.30002,-10.30803 0.68601,-1.64801 20.78206,-49.78615 18.79406,45.02013 16.11805,38.61212 20.78206,49.78615 30.80409,3.29201 46.13014,6.14202 79.45823,18.16805 8.37403,-6.08002 1.06401,-0.77 38.30611,-27.82608 -6.91602,45.24013 0.63201,-4.15201 -6.53202,42.72612 58.75617,35.50211 101.0883,82.18624 121.88236,147.91443 l 17.97405,29.96008 22.17806,-35.1501 z" style="fill:#ffffff"/>
  <path d="M 520.81212,418.56171 C 472.61998,356.40553 389.64774,318.39542 299.99948,318.39542 c -89.64425,0 -172.61049,38.00211 -220.802632,100.15229 2.082006,-55.44216 24.046072,-107.21231 62.782182,-147.21443 41.94012,-43.31012 98.05828,-67.16219 158.02245,-67.16219 59.99018,0 116.12634,23.87007 158.06246,67.21219 38.74611,40.04612 60.70217,91.80227 62.74818,147.17843 z m 52.60215,-87.73426 C 553.88822,268.23327 511.19809,213.29712 453.94793,177.71701 l 11.78803,-77.12022 -68.7082,49.91215 c -20.10605,-7.03602 -41.01811,-11.85804 -62.25018,-14.35805 l -34.7781,-83.310242 -34.7761,83.310242 c -21.23206,2.50001 -42.14412,7.32203 -62.25018,14.35805 l -68.70819,-49.91215 11.78803,77.12022 C 88.802876,213.29712 46.110753,268.23327 26.586697,330.82745 22.310684,312.9074 20.150678,294.56935 20.150678,276.0973 c 0,-141.10641 125.540362,-255.904742 279.850802,-255.904742 154.31045,0 279.85081,114.798332 279.85081,255.904742 -0.002,18.47205 -2.16201,36.8101 -6.43802,54.73015 z" style="fill:url(#linearGradient3045)"/>
  <path d="m 299.99948,25.440568 c 73.52222,0 142.59842,26.18608 194.50456,73.73222 51.65015,47.312132 80.09624,110.144312 80.09624,176.922512 0,11.68003 -0.88201,23.30206 -2.63601,34.7981 C 550.34221,255.82924 510.87409,207.8031 459.65794,175.10701 l 9.36803,-61.28818 3.80001,-24.866072 -20.35206,14.786042 -56.32216,40.91412 C 377.45371,138.3049 358.09565,133.83089 338.4456,131.31088 l -28.75609,-68.888202 -9.69003,-23.21007 -9.69002,23.21207 -28.75609,68.888202 c -19.64805,2.52001 -39.00811,6.99402 -57.70616,13.34204 l -56.32016,-40.91212 -20.35206,-14.786042 3.80001,24.866072 9.36802,61.28818 C 89.126877,207.8071 49.656763,255.83124 28.036701,310.8974 c -1.754005,-11.49604 -2.636008,-23.12007 -2.636008,-34.7981 0,-66.7782 28.446082,-129.61038 80.096227,-176.922512 51.90415,-47.55014 120.98035,-73.73622 194.50256,-73.73622 m 0,183.980542 c 58.55417,0 113.35033,23.30206 154.29045,65.61418 34.0621,35.20211 54.83416,79.68023 60.10017,127.65637 C 464.19396,346.8015 385.02373,313.1474 300.00148,313.1474 c -85.01224,0 -164.17647,33.6461 -214.372613,89.52226 5.292015,-48.03014 26.070073,-92.51826 60.122173,-127.68237 40.94012,-42.28212 95.72028,-65.56618 154.24844,-65.56618 m 0,-194.480572 c -157.45845,0 -285.100817,116.922342 -285.100817,261.154762 0,25.85207 4.122011,50.82014 11.762034,74.40621 16.712048,-71.5742 62.68418,-132.40638 125.108363,-170.13049 l -10.41403,-68.1342 60.77217,44.14613 c 21.16006,-7.63402 43.52613,-12.87603 66.75219,-15.35804 l 31.12009,-74.554222 31.12209,74.554222 c 23.22607,2.48201 45.59214,7.72202 66.7522,15.35804 l 60.77217,-44.14613 -10.41403,68.1342 c 62.42418,37.72411 108.39431,98.55629 125.10836,170.13049 7.64002,-23.58607 11.76204,-48.55414 11.76204,-74.40621 C 585.10031,131.86288 457.45794,14.940538 299.99948,14.940538 l 0,0 z m 0,183.980532 c -127.22636,0 -230.272659,106.15231 -226.092647,236.02868 C 117.60096,368.63156 202.4612,323.64743 299.99948,323.64743 c 97.53629,0 182.39653,44.98413 226.09066,111.30232 4.26201,-129.36037 -98.46429,-236.02868 -226.09066,-236.02868 l 0,0 z"/>
</svg>
