<?xml version="1.0" encoding="UTF-8" standalone="no"?>
<svg xmlns="http://www.w3.org/2000/svg" xmlns:xlink="http://www.w3.org/1999/xlink" version="1.1" width="600" height="451.11978" viewBox="0 0 600.00001 451.11978" id="PC2">
  <linearGradient x1="108.916" y1="238.82809" x2="261.78531" y2="106.3673" id="linearGradient3028" xlink:href="#SVGID_1_" gradientUnits="userSpaceOnUse" gradientTransform="translate(-360,0)"/>
  <path d="m 540.45218,451.1118 -39.71012,-25.41007 c -44.95413,-54.23016 -119.80034,-87.17425 -200.73858,-87.17425 -80.94023,0 -155.78844,32.94409 -200.740574,87.17625 L 59.538792,451.1198 C 54.110776,282.66532 173.62112,184.03903 300.00148,184.03903 c 127.62437,0 245.96471,99.93829 240.4507,267.07277 z M 594.05033,330.68545 C 613.36639,242.2192 585.58431,148.17693 511.65209,80.458731 394.56176,-26.805579 205.47121,-26.833579 88.350875,80.458731 14.846662,147.78893 -13.481419,241.6852 5.9526368,330.68545 l 22.1780642,35.1501 17.974052,-29.96008 C 66.896813,270.15328 109.22693,223.46715 167.9871,187.96104 c -7.16602,-46.88213 0.38601,2.52201 -6.53201,-42.72612 37.3061,27.10008 29.87808,21.70806 38.30611,27.82608 33.15809,-11.96403 48.65214,-14.87604 79.45822,-18.16805 4.30002,-10.30803 0.68601,-1.64801 20.78206,-49.78615 18.79406,45.02013 16.11805,38.61212 20.78206,49.78615 30.80409,3.29201 46.13014,6.14202 79.45823,18.16805 8.37403,-6.08002 1.06401,-0.77 38.30611,-27.82608 -6.91602,45.24013 0.63201,-4.15201 -6.53202,42.72612 58.75617,35.50211 101.0883,82.18624 121.88236,147.91443 l 17.97405,29.96008 22.17806,-35.1501 z"/>
  <g transform="matrix(2.0000058,0,0,2.0000058,720.00069,-76.287719)" id="g5">
    <linearGradient x1="108.916" y1="238.82809" x2="261.78531" y2="106.3673" id="SVGID_1_" gradientUnits="userSpaceOnUse">
      <stop style="stop-color:#8b723c" offset="0"/>
      <stop style="stop-color:#d2bb7b" offset="0.3"/>
      <stop style="stop-color:#ebd491" offset="0.5"/>
      <stop style="stop-color:#d2bb7b" offset="0.7"/>
      <stop style="stop-color:#8b723c" offset="1"/>
    </linearGradient>
    <path d="m -97.893,252.462 c -23.24,-33.075 -65.864,-53.496 -112.107,-53.496 -46.241,0 -88.865,20.421 -112.105,53.493 -0.177,-30.039 11.094,-58.265 31.928,-79.779 21.278,-21.975 49.753,-34.076 80.178,-34.076 30.439,0 58.921,12.11 80.199,34.102 20.841,21.538 32.104,49.755 31.907,79.756 z m 24.664,-42.803 c -8.841,-33.582 -31.103,-63.229 -61.567,-81.838 l 5.469,-35.776 -31.896,23.17 c -10.482,-3.737 -21.417,-6.256 -32.521,-7.488 L -210,68.783 l -16.256,38.943 c -11.104,1.232 -22.038,3.751 -32.521,7.488 l -31.896,-23.17 5.469,35.776 c -30.465,18.609 -52.727,48.256 -61.567,81.838 -3.172,-10.886 -4.778,-22.127 -4.778,-33.468 -0.001,-71.448 63.498,-129.576 141.549,-129.576 78.051,0 141.55,58.128 141.55,129.577 0,11.341 -1.607,22.582 -4.779,33.468 z" style="fill:url(#linearGradient3028)"/>
    <path d="m -210,47.614 c 37.575,0 72.894,13.396 99.447,37.72 26.506,24.279 41.103,56.546 41.103,90.857 0,10.045 -1.271,20.011 -3.783,29.718 -9.434,-32.18 -31.14,-60.481 -60.474,-78.593 l 5.006,-32.753 0.725,-4.735 -3.877,2.815 -29.532,21.453 c -10.219,-3.602 -20.858,-6.055 -31.662,-7.298 l -15.106,-36.19 -1.847,-4.421 -1.846,4.422 -15.106,36.19 c -10.804,1.243 -21.443,3.696 -31.662,7.298 l -29.532,-21.453 -3.877,-2.815 0.725,4.735 5.006,32.753 c -29.334,18.111 -51.04,46.413 -60.474,78.593 -2.513,-9.707 -3.783,-19.673 -3.783,-29.718 0,-34.312 14.597,-66.578 41.103,-90.857 26.552,-24.325 61.871,-37.721 99.446,-37.721 m 0,91.99 c 30.166,0 58.393,12.003 79.48,33.797 19.937,20.604 31.03,47.374 31.605,75.949 -23.789,-31.842 -65.715,-51.384 -111.086,-51.384 -45.369,0 -87.293,19.54 -111.083,51.378 0.594,-28.61 11.694,-55.388 31.624,-75.969 21.089,-21.778 49.308,-33.771 79.46,-33.771 m 0,-93.99 c -78.729,0 -142.55,58.461 -142.55,130.577 0,12.926 2.061,25.41 5.881,37.203 8.356,-35.787 31.342,-66.203 62.554,-85.065 l -5.207,-34.067 30.386,22.073 c 10.58,-3.817 21.763,-6.438 33.376,-7.679 l 15.56,-37.277 15.561,37.277 c 11.613,1.241 22.796,3.861 33.376,7.679 l 30.386,-22.073 -5.207,34.067 c 31.212,18.862 54.197,49.278 62.554,85.065 3.82,-11.793 5.881,-24.277 5.881,-37.203 C -67.45,104.075 -131.271,45.614 -210,45.614 l 0,0 z m 0,91.99 c -63.613,0 -115.136,53.076 -113.046,118.014 21.847,-33.159 64.277,-55.651 113.046,-55.651 48.768,0 91.198,22.492 113.045,55.651 2.131,-64.68 -49.232,-118.014 -113.045,-118.014 l 0,0 z"/>
  </g>
</svg>
