<?xml version="1.0" encoding="UTF-8" standalone="no"?>
<svg xmlns="http://www.w3.org/2000/svg" xmlns:xlink="http://www.w3.org/1999/xlink" version="1.1" width="600" height="451.11978" viewBox="0 0 600.00001 451.11978" id="PC2">
  <linearGradient x1="108.917" y1="238.82809" x2="261.78629" y2="106.3673" id="SVGID_1_" gradientUnits="userSpaceOnUse">
    <stop style="stop-color:#536e78" offset="0"/>
    <stop style="stop-color:#99aebc" offset="0.3"/>
    <stop style="stop-color:#d9eaf3" offset="0.5"/>
    <stop style="stop-color:#99aebc" offset="0.7"/>
    <stop style="stop-color:#536e78" offset="1"/>
  </linearGradient>
  <linearGradient x1="108.917" y1="238.82809" x2="261.78629" y2="106.3673" id="linearGradient3023" xlink:href="#SVGID_1_" gradientUnits="userSpaceOnUse" gradientTransform="matrix(2.0000058,0,0,2.0000058,-0.0013803,-76.287719)"/>
  <path d="m 540.45218,451.1118 -39.71012,-25.41007 c -44.95413,-54.23016 -119.80034,-87.17425 -200.73858,-87.17425 -80.94023,0 -155.78844,32.94409 -200.740574,87.17625 L 59.538792,451.1198 C 54.110776,282.66532 173.62112,184.03903 300.00148,184.03903 c 127.62437,0 245.96471,99.93829 240.4507,267.07277 z M 594.05033,330.68545 C 613.36639,242.2192 585.58431,148.17693 511.65209,80.458731 394.56176,-26.805579 205.47121,-26.833579 88.350875,80.458731 14.846662,147.78893 -13.481419,241.6852 5.9526368,330.68545 l 22.1780642,35.1501 17.974052,-29.96008 C 66.896813,270.15328 109.22693,223.46715 167.9871,187.96104 c -7.16602,-46.88213 0.38601,2.52201 -6.53201,-42.72612 37.3061,27.10008 29.87808,21.70806 38.30611,27.82608 33.15809,-11.96404 48.65214,-14.87604 79.45822,-18.16805 4.30002,-10.30803 0.68601,-1.64801 20.78206,-49.78615 18.79406,45.02013 16.11805,38.61211 20.78206,49.78615 30.80409,3.29201 46.13014,6.14201 79.45823,18.16805 8.37403,-6.08002 1.06401,-0.77 38.30611,-27.82608 -6.91602,45.24013 0.63201,-4.15201 -6.53202,42.72612 58.75617,35.50211 101.0883,82.18624 121.88236,147.91443 l 17.97405,29.96008 22.17806,-35.1501 z"/>
  <path d="M 524.21413,428.63774 C 477.734,362.48754 392.48575,321.64543 299.99948,321.64543 c -92.48226,0 -177.73051,40.84211 -224.210642,106.98631 -0.354001,-60.07818 22.188064,-116.53034 63.856182,-159.55846 42.55613,-43.95013 99.50629,-68.1522 160.35646,-68.1522 60.87818,0 117.84234,24.22007 160.39847,68.2042 41.68212,43.07612 64.20818,99.51028 63.81418,159.51246 z m 49.32814,-85.60625 C 555.86022,275.8673 511.33609,216.57313 450.40792,179.35502 l 10.93803,-71.55221 -63.79218,46.34013 C 376.58971,146.66892 354.71964,141.63091 332.51158,139.1669 L 299.99948,61.278671 267.48739,139.1649 c -22.20806,2.46401 -44.07613,7.50202 -65.04219,14.97604 l -63.79218,-46.34013 10.93803,71.55221 C 88.660875,216.57113 44.136747,275.8653 26.456696,343.02949 20.112678,321.25743 16.900668,298.77536 16.900668,276.0933 16.898668,133.19688 143.89703,16.940551 299.99948,16.940551 c 156.10245,0 283.10082,116.256329 283.10082,259.154749 0,22.68206 -3.21401,45.16413 -9.55803,66.93619 z" style="fill:url(#linearGradient3023)"/>
  <path d="m 299.99948,18.940551 c 75.15022,0 145.78842,26.79208 198.89458,75.44022 53.01215,48.558139 82.20623,113.092329 82.20623,181.714529 0,20.09006 -2.542,40.02211 -7.56602,59.43617 C 554.66622,271.17128 511.25409,214.56912 452.58592,178.34501 l 10.01203,-65.50619 1.45001,-9.47002 -7.75403,5.63001 -59.06417,42.90613 C 376.79171,144.70092 355.51364,139.7949 333.90558,137.3089 l -30.21208,-72.380209 -3.69402,-8.84203 -3.69201,8.84403 -30.21208,72.380209 c -21.60807,2.486 -42.88613,7.39202 -63.32419,14.59604 l -59.06417,-42.90613 -7.75402,-5.63001 1.45001,9.47002 10.01202,65.50619 C 88.746876,214.56912 45.334751,271.17328 26.466696,335.53347 21.440682,316.11941 18.900674,296.18736 18.900674,276.0973 c 0,-68.6242 29.194085,-133.15639 82.206236,-181.714529 53.10415,-48.65014 123.74236,-75.44222 198.89257,-75.44222 m 0,183.980539 c 60.33218,0 116.78634,24.00607 158.96046,67.59419 39.87412,41.20812 62.06018,94.74827 63.21018,151.89844 -47.57813,-63.68419 -131.43037,-102.7683 -222.17264,-102.7683 -90.73826,0 -174.5865,39.08011 -222.166636,102.7563 1.188004,-57.22017 23.388066,-110.77632 63.248186,-151.93844 42.17812,-43.55612 98.61628,-67.54219 158.92045,-67.54219 m 0,-187.980549 c -157.45845,0 -285.100817,116.922339 -285.100817,261.154759 0,25.85207 4.122011,50.82014 11.762034,74.40621 16.712048,-71.5742 62.68418,-132.40638 125.108363,-170.13049 l -10.41403,-68.1342 60.77217,44.14613 c 21.16006,-7.63402 43.52613,-12.87604 66.75219,-15.35804 l 31.12009,-74.554219 31.12209,74.554219 c 23.22607,2.482 45.59214,7.72202 66.7522,15.35804 l 60.77217,-44.14613 -10.41403,68.1342 c 62.42418,37.72411 108.39431,98.55629 125.10836,170.13049 7.64002,-23.58607 11.76204,-48.55414 11.76204,-74.40621 C 585.10031,131.86288 457.45794,14.940541 299.99948,14.940541 l 0,0 z m 0,183.980529 c -127.22636,0 -230.272659,106.15231 -226.092647,236.02868 C 117.60096,368.63156 202.4612,323.64743 299.99948,323.64743 c 97.53629,0 182.39653,44.98413 226.09066,111.30232 4.26201,-129.36037 -98.46429,-236.02868 -226.09066,-236.02868 l 0,0 z"/>
</svg>
