<?xml version="1.0" encoding="UTF-8" standalone="no"?>
<svg xmlns="http://www.w3.org/2000/svg" version="1.1" width="600" height="320.57999">
  <path d="M 38.724,0 561.42,0 c 12.096,30.144 25.968,59.999995 31.548,92.243995 C 596.064,104.58 597.24,117.228 600,129.612 l 0,54.648 c -2.484,15 -3.564,30.336 -7.176,45.144 -2.196,13.92 -7.404,27.048 -11.244,40.5 -6.096,17.25599 -12.984,34.272 -21.096,50.676 l -520.824,0 C 28.824,299.72399 20.952,277.45199 13.596,255.192 10.356,241.968 5.952,229.08 4.128,215.58 3.096,207.744 1.92,199.92 0,192.228 L 0,135.144 C 1.452,126 2.772,116.856 3.804,107.676 5.34,93.047995 9.984,78.983995 13.92,64.919995 20.208,42.564 29.82,21.372 38.724,0"/>
  <path d="m 457.224,105.744 c 0,0 -10.788,6.384 -24.804,17.208 0,0 0.80448,-12.42 2.4,-21.612 1.632,-9.180005 0.41952,-13.212005 0.41952,-13.212005 0,0 3.6,-5.58 10.404,-10.788 6.792,-5.196 12.612,-8.388 15.372,-9.612 2.808,-1.212 8.628,-7.212 23.016,-13.584 0,0 10.08,4.26 15.192,9.6 4.032,4.224 13.212,9.192 16.032,12 2.76,2.772 10.584,12.804 15.984,19.224 0,0 1.212,9.984005 -0.41952,28.776005 0,0 -28.368,27.984 -36,39.612 0,0 10.404,1.176 14.808,0.37248 4.404,-0.792 11.628,-2.76 19.596,-2.388 0,0 5.196,-7.968 9.6,-13.212 l 8.016,9.228 c 0,0 -15.6,27.192 -16.824,43.596 0,0 -12.372,-1.224 -14.388,1.176 0,0 0.37152,-6.756 -0.37248,-11.16001 0,0 -18.804,-1.596 -34.416,-0.41951 -15.6,1.176 -33.228,1.596 -49.212,2.808 0,0 10.404,-9.612 16.824,-15.228 6.372,-5.58 12.372,-12 18,-15.984 5.58,-3.984 8.772,-6.804 12.804,-9.984 3.984,-3.192 15.984,-17.628 25.968,-25.224 0,0 1.596,-8.388 -0.80448,-16.776 -2.388,-8.436 -8.808,-12.432005 -18.792,-20.016005 -9.984,-7.596 -23.208,-7.596 -29.628,-4.416 0,0 -3.564,13.224 1.224,20.016005 m -223.692,85.596 c 5.904,15.24 12.048,30.66 14.34,46.968 -4.968,2.724 -10.548,4.368 -15.372,7.49999 -10.92,7.08 -19.452,17.256 -25.728,28.596 -5.676,-2.484 -11.352,-5.112 -16.176,-9 -0.936,-2.064 -0.24,-4.5 -0.288,-6.696 1.272,-14.448 -1.68,-28.88399 -5.904,-42.612 -4.164,-13.224 -7.872,-26.676 -13.68,-39.33599 -7.416,-17.532 -15.516,-35.14801 -27.852,-49.824 -2.532,-2.208 -5.568,-7.128 -9.276,-4.26 -4.596,4.212 -4.644,11.71199 -9.612,15.648 -6.372,1.78799 -12,-2.48401 -17.436,-5.112 -3.744,-1.96801 -9.192,-4.584 -8.064,-9.792 2.58,-10.452 8.256,-19.92 10.92,-30.420005 0.192,-3.276 1.692,-8.532 -2.388,-9.984 -5.532,-2.772 -12,-2.904 -17.532,-5.532 -2.292,-1.176 -2.484,-4.128 -1.032,-6.048 2.772,-4.032 5.628,-8.292 9.612,-11.244 8.436,-1.128 16.872,0.792 25.26,0.744 13.644,0.37152 27.288,-0.048 40.884,0.888 1.116,9.288 6.048,17.484 11.76,24.708 10.224,13.776005 16.968,29.952005 28.788,42.563995 1.632,1.452 3.324,3.37201 5.664,3.46801 3.804,-1.27201 6.984,-4.12801 11.016,-4.836 4.692,0.384 7.644,4.74 10.692,7.836 3.048,3.744 7.728,7.77599 6.144,13.12799 -1.884,5.34001 -7.08,9.03601 -7.836,14.856 -1.08,9.32401 -0.41952,18.98401 3.096,27.792 m 149.532,-120.563995 c 11.292,-4.68 22.176,-10.452 33.792,-14.34 -0.51552,16.92 0.192,33.888 -0.936,50.808005 -0.18048,16.548 0.75648,38.35199 0.51552,54.89999 0.24,2.904 -1.728,6.648 -3.612,8.38801 -6.696,5.80799 -12.324,10.40399 -18,17.196 -1.356,1.78799 -7.164,6.70799 -9.18,7.644 1.5,-30.564 2.196,-67.08001 0.37152,-97.644005 -0.048,-1.632 1.032,-4.872 -0.792,-4.776 -7.32,-0.61248 -18.708,1.08 -25.968,0.41952 -0.288,-3.372 -0.61152,-8.244 -0.432,-11.628 6.192,-4.5 17.352,-7.776 24.24,-10.968 m 3.048,172.451995 c -0.41952,4.64401 -2.808,8.72401 -5.016,12.70801 -10.692,-1.176 -20.772,-5.436 -31.596,-6.096 -16.68,-2.244 -33.984,-2.38801 -50.196,2.58 -5.868,1.788 -10.836,5.532 -16.128,8.58 -4.356,-4.452 -8.772,-8.856 -12.372,-13.92 8.148,-8.064 19.356,-13.74001 23.952,-24.85201 3.372,-9.42 -1.932,-18.84 -5.256,-27.504 -6.468,-17.868 -16.404,-34.176 -24,-51.516 -1.548,-2.724 -2.676,-6.144 -5.676,-7.548 -4.116,0.552 -8.004,4.26 -12.228,2.532 -4.356,-2.82 -7.596,-7.032 -10.824,-10.98 -2.676,-3.084 -3.984,-7.584 -2.208,-11.38799 2.484,-3.84 6.276,-6.61201 8.808,-10.40401 3.24,-4.72799 6.432,-9.563995 8.58,-14.903995 1.08,-2.388 -0.42048,-4.872 -2.196,-6.372 -7.176,-5.82 -16.08,-8.772 -23.676,-13.932 3.048,-5.196 6.372,-10.212 9.468,-15.276 5.952,0.41952 11.436,2.772 17.34,3.276 8.436,0.80448 16.932,0.80448 25.368,0.288 4.872,-0.192 9.324,-2.388 14.148,-3.096 4.176,1.968 7.884,4.824 11.82,7.272 -0.51648,6.228 -3.192,12.132 -2.352,18.42 1.128,9.42 3.096,18.888 7.224,27.468005 6.372,12.744 14.064,24.88799 19.356,38.19599 7.032,16.884 15.192,33.336 20.628,50.868 2.676,8.244 3.096,17.904 9.744,24.18 6.096,5.35201 13.128,9.564 19.884,14.064 2.808,1.96801 5.856,4.08 7.404,7.356 m 175.872,-69.036 c 0.096,6.984 -0.984,13.82401 -1.92,20.664 -1.032,6.80401 -1.26,13.74 -2.724,20.532 -1.536,7.22401 -3.648,14.256 -5.52,21.468 -3.384,15.04801 -9.384,29.35201 -15,43.692 -0.384,2.16001 -2.82,1.968 -4.512,2.112 -151.212,-0.048 -302.436,-0.048 -453.696,0 -4.824,-0.19199 -9.936,0.69601 -14.676,-0.65952 -3.696,-8.34 -7.08,-16.87199 -9.744,-25.64399 7.776,-4.728 16.872,-6.32401 25.728,-7.548 10.224,-0.792 20.58,-0.792 30.756,1.032 0.32352,-4.824 0.32352,-9.69601 -0.096,-14.532 -4.644,-3.18 -11.388,-5.29201 -12.612,-11.58 -1.92,-9.18001 1.692,-18.18001 4.032,-26.904 2.064,-8.71201 6.708,-16.404 9.888,-24.744 2.256,-6 7.32,-11.48401 6.192,-18.33601 -0.192,-3.32399 -3.612,-5.052 -6.24,-6.46799 -4.776,-2.292 -9.744,-4.68001 -15.084,-5.244 -3.468,-0.46848 -6.192,2.388 -7.596,5.196 -9,18.9 -13.92,39.336 -22.224,58.5 -4.404,11.304 -9.648,22.74 -18.564,31.272 -3,-6.516 -3.552,-13.788 -5.388,-20.628 -2.16,-10.776 -3.468,-21.696 -4.644,-32.53201 -0.6,-14.904 -0.46752,-29.85599 -0.0864,-44.75999 1.212,-17.112 4.824,-33.936 8.148,-50.724005 4.968,-16.92 10.74,-33.696 17.436,-50.015995 1.644,-0.18048 3.336,-0.37248 5.016,-0.42048 155.58,0.144 311.112,-0.096 466.644,0.096 3.048,4.596 4.692,9.935995 6.516,15.095995 3.984,12.048 8.388,23.952 11.808,36.228 2.16,11.724005 5.016,23.352005 6.096,35.256005 2.904,16.404 2.016,33.096 2.064,49.596 m 16.452,-54.9 c -2.016,-10.584 -3.372,-21.324005 -6.276,-31.728005 -1.968,-12.468 -7.128,-24.096 -10.644,-36.144 -3.888,-10.967995 -8.856,-21.515995 -13.26,-32.291995 -1.74,-0.096 -3.384,-0.192 -5.016,-0.24001 -157.692,0.048 -315.384,0 -473.112,0.048 -6.372,0.048 -12.804,-0.32448 -19.176,0.23999 -3.096,11.48401 -9.372,21.84 -12.792,33.228005 -5.064,16.224 -10.836,32.388 -13.836,49.176005 -3.504,16.308 -4.356,33 -4.5,49.632 -0.13248,16.836 -0.13248,33.708 1.596,50.4 1.452,11.388 4.272,22.452 6.756,33.564 2.904,15.372 9.468,29.712 14.34,44.48399 3.192,7.26 6.096,14.568 9,21.936 165.612,0.096 331.308,0.096 496.92,0 12.144,-29.952 24.048,-60.46799 28.644,-92.67599 3.516,-16.596 2.724,-33.612 3.708,-50.436 -0.89952,-13.08 -0.56352,-26.208 -2.352,-39.192" style="fill:#808080"/>
</svg>
