<?xml version="1.0" encoding="UTF-8" standalone="no"?>
<svg xmlns="http://www.w3.org/2000/svg" xmlns:xlink="http://www.w3.org/1999/xlink" version="1.1" width="600" height="320.35574">
  <linearGradient x1="0" y1="0" x2="1" y2="0" id="linearGradient4105" xlink:href="#linearGradient1046" gradientUnits="userSpaceOnUse" gradientTransform="matrix(-33.878906,-33.878906,-33.878906,33.878906,775.81934,51.890625)" spreadMethod="pad"/>
  <linearGradient x1="0" y1="0" x2="1" y2="0" id="linearGradient1046" gradientUnits="userSpaceOnUse" gradientTransform="matrix(-33.878906,-33.878906,-33.878906,33.878906,775.81934,51.890625)" spreadMethod="pad">
    <stop offset="0" style="stop-color:#bf331c"/>
    <stop offset="0.5" style="stop-color:#f6b91d"/>
    <stop offset="1" style="stop-color:#bf331c"/>
  </linearGradient>
  <path d="m 560.37973,320.35575 c 10.81643,-20.84141 18.73089,-43.09783 26.04577,-65.34226 3.17777,-13.21475 13.57449,-50.88038 13.57449,-92.851 0,-41.97062 -9.97701,-83.185774 -13.91026,-97.287903 C 579.77016,42.53423 570.16488,21.35705 561.26711,0 L 38.64894,0 C 29.79914,21.35705 20.19386,42.53423 13.91026,64.874587 9.97701,78.976716 0,120.19187 0,162.16249 c 0,41.97062 10.36074,79.63625 13.58648,92.851 7.30289,22.24443 15.18138,44.50085 26.04577,65.34226 l 520.74748,0 z" style="fill:#ffffff"/>
  <g transform="matrix(11.991606,0,0,-11.991606,-8800.1959,579.06266)">
    <path d="m 737.59,47.539 -0.184,-0.43 c -0.609,-1.441 -1.238,-2.925 -1.664,-4.433 l 0,0 C 735.555,42 734.609,38.434 734.609,34.77 l 0,0 c 0,-3.129 0.727,-6.024 1.036,-7.258 l 0,0 0.062,-0.254 c 0.617,-1.879 1.188,-3.457 1.922,-4.934 l 0,0 42.5,0 c 0.785,1.59 1.387,3.301 1.902,4.879 l 0,0 0.074,0.285 c 0.313,1.239 1.043,4.137 1.043,7.282 l 0,0 c 0,3.664 -0.945,7.23 -1.132,7.906 l 0,0 c -0.418,1.492 -1.047,2.969 -1.649,4.394 l 0,0 -0.195,0.469 -42.582,0 z" style="fill:url(#linearGradient4105)"/>
  </g>
  <path d="m 457.08404,105.67003 c 0,0 -10.76847,6.37954 -24.7267,17.19596 0,0 0.74348,-12.41131 2.38633,-21.59688 1.59489,-9.173577 0.37126,-13.202757 0.37126,-13.202757 0,0 3.60948,-5.576097 10.40872,-10.780454 6.78725,-5.192365 12.59118,-8.382132 15.36125,-9.605276 2.854,-1.211152 8.62196,-7.206955 22.9999,-13.574498 0,0 10.12091,4.25702 15.16938,9.593285 4.02918,4.221045 13.21475,9.18557 16.02078,11.991606 2.77006,2.770061 10.58859,12.795043 15.97282,19.210552 0,0 1.22315,9.977012 -0.37126,28.755872 0,0 -28.38413,27.96442 -35.97482,39.58429 0,0 10.34876,1.17518 14.76167,0.37126 4.40092,-0.79145 11.60788,-2.75807 19.5703,-2.38633 0,0 5.25232,-7.96243 9.65324,-13.20276 l 7.96243,9.22155 c 0,0 -15.60108,27.17298 -16.81223,43.5655 0,0 -12.36335,-1.22314 -14.37794,1.17518 0,0 0.41923,-6.75128 -0.38373,-11.15219 0,0 -18.77885,-1.59489 -34.37993,-0.41923 -15.60108,1.17518 -33.20476,1.59488 -49.17758,2.80603 0,0 10.39672,-9.60527 16.81223,-15.21734 6.41551,-5.5761 12.41132,-11.99161 17.98741,-15.97282 5.5761,-3.98122 8.75387,-6.79924 12.78305,-9.97702 3.98122,-3.18977 15.97282,-17.61567 25.94984,-25.20635 0,0 1.64285,-8.38214 -0.74348,-16.76427 -2.4343,-8.4301 -8.84981,-12.423302 -18.82682,-20.001997 -9.97702,-7.590687 -23.1438,-7.590687 -29.55931,-4.412911 0,0 -3.60947,13.21475 1.16319,20.001998 M 233.5605,191.20615 c 5.94784,15.22934 12.03957,30.63856 14.37794,46.93515 -5.01249,2.72209 -10.58859,4.36494 -15.36125,7.49475 -10.91236,7.07505 -19.48636,17.24393 -25.76996,28.576 -5.61207,-2.48226 -11.2841,-5.10842 -16.15269,-8.9937 -0.93535,-2.06256 -0.23984,-4.49686 -0.2878,-6.69132 1.31907,-14.43789 -1.67883,-28.8638 -5.89987,-42.58219 -4.17308,-13.21475 -7.8665,-26.65734 -13.68242,-39.30849 -7.39882,-17.51973 -15.50515,-35.12341 -27.82053,-49.78914 -2.48226,-2.20646 -5.5761,-7.12302 -9.26951,-4.25702 -4.59279,4.20905 -4.64075,11.7038 -9.60528,15.63705 -6.36754,1.78675 -11.9916,-2.48226 -17.4238,-5.10842 -3.75337,-1.96663 -9.18557,-4.5808 -8.05836,-9.78515 2.62616,-10.44469 8.23823,-19.90607 10.91236,-30.398725 0.23983,-3.273708 1.69082,-8.526032 -2.38633,-9.977016 -5.52813,-2.770061 -11.9916,-2.901969 -17.51973,-5.52813 -2.25443,-1.175178 -2.48227,-4.125113 -1.03128,-6.04377 2.75807,-4.029179 5.62406,-8.286199 9.65324,-11.236134 8.38213,-1.127211 16.81223,0.791446 25.24233,0.743479 13.58649,0.37126 27.22095,-0.04797 40.79544,0.887379 1.17518,9.281503 6.09174,17.47177 11.76377,24.690716 10.21685,13.766361 16.95613,29.931051 28.80384,42.534231 1.59488,1.45098 3.33366,3.36964 5.67203,3.46557 3.74138,-1.27111 6.93114,-4.12511 10.96032,-4.83262 4.73669,0.38373 7.63866,4.73669 10.73249,7.83052 2.9979,3.74138 7.67463,7.77056 6.12771,13.11882 -1.91866,5.33626 -7.11102,9.02968 -7.81853,14.84561 -1.12721,9.31747 -0.46815,18.97072 3.04587,27.77255 M 382.9879,70.726491 c 11.33207,-4.676726 22.19647,-10.444689 33.81633,-14.329969 -0.56408,16.908164 0.1439,33.864295 -0.98331,50.772458 -0.1439,16.53643 0.75595,38.32517 0.51612,54.8616 0.23983,2.90197 -1.72679,6.64335 -3.56151,8.38213 -6.73928,5.80394 -12.36334,10.39672 -17.98741,17.18397 -1.40301,1.78675 -7.20695,6.70331 -9.22154,7.63865 1.49895,-30.54262 2.24243,-67.03307 0.37126,-97.575692 -0.048,-1.630859 1.03128,-4.868592 -0.80296,-4.772659 -7.25492,-0.612052 -18.68292,1.079244 -25.94984,0.419226 -0.27628,-3.369641 -0.59958,-8.238233 -0.37126,-11.619866 6.13971,-4.496852 17.2919,-7.770561 24.17508,-10.960328 m 3.04587,172.331369 c -0.38373,4.64075 -2.81803,8.7179 -4.96452,12.69911 -10.68452,-1.17518 -20.80544,-5.4322 -31.5739,-6.09174 -16.68033,-2.24243 -34.0082,-2.38633 -50.22085,2.5782 -5.8519,1.78675 -10.81643,5.52813 -16.10473,8.574 -4.31697,-4.44889 -8.76586,-8.84981 -12.32737,-13.91027 8.1543,-8.05835 19.34246,-13.73038 23.93525,-24.83461 3.33367,-9.41341 -1.91866,-18.82682 -5.2883,-27.48476 -6.46347,-17.8555 -16.39252,-34.1521 -23.98321,-51.47997 -1.49895,-2.72209 -2.67413,-6.1397 -5.67203,-7.54272 -4.11312,0.55162 -8.01039,4.25702 -12.21945,2.53023 -4.31697,-2.81802 -7.54272,-7.02708 -10.78045,-10.97232 -2.7101,-3.08184 -3.98121,-7.57869 -2.24243,-11.38003 2.48226,-3.83731 6.27161,-6.60738 8.8498,-10.39672 3.18977,-4.7247 6.36755,-9.557312 8.52604,-14.893577 1.07924,-2.38633 -0.41923,-4.868592 -2.15849,-6.367543 -7.15899,-5.815929 -16.06875,-8.765864 -23.64745,-13.922254 2.9979,-5.192366 6.31958,-10.204857 9.46138,-15.265314 5.89987,0.419226 11.428,2.770061 17.32787,3.273708 8.38213,0.802958 16.90816,0.802958 25.33826,0.287798 4.83262,-0.191865 9.32947,-2.386329 14.10213,-3.093834 4.17308,1.966624 7.86649,4.820626 11.79974,7.266913 -0.50365,6.223644 -3.12981,12.123514 -2.2904,18.407115 1.07925,9.413411 3.04587,18.874788 7.21895,27.448788 6.36754,12.73508 14.0062,24.87059 19.34246,38.16928 6.97911,16.87219 15.18137,33.31268 20.61357,50.83242 2.61417,8.23823 3.04587,17.89147 9.68922,24.16308 6.1397,5.34826 13.11882,9.55731 19.87009,14.05416 2.854,1.96663 5.89987,4.07715 7.39882,7.35086 m 175.74898,-68.98771 c 0.0959,6.97911 -0.98332,13.81433 -1.91866,20.64955 -1.03128,6.79924 -1.27111,13.73038 -2.7221,20.51763 -1.49895,7.21895 -3.64544,14.24603 -5.48016,21.45299 -3.36964,15.03747 -9.41341,29.33146 -15.03747,43.66143 -0.37126,2.15849 -2.80604,1.96663 -4.44889,2.11053 -151.15419,-0.048 -302.27241,-0.048 -453.4266,0 -4.83262,-0.19187 -9.92905,0.69551 -14.61777,-0.66002 -3.75337,-8.33417 -7.12301,-16.8602 -9.78515,-25.62606 7.77056,-4.7247 16.8602,-6.31958 25.71001,-7.54272 10.21684,-0.79145 20.61357,-0.79145 30.73448,1.03127 0.32329,-4.82062 0.32329,-9.68921 -0.0959,-14.52183 -4.64075,-3.17778 -11.38004,-5.2883 -12.60318,-11.5719 -1.91866,-9.17358 1.69082,-18.16728 4.02918,-26.88518 2.06256,-8.70591 6.70331,-16.39252 9.92905,-24.72669 2.25442,-5.9958 7.25492,-11.47597 6.1397,-18.32317 -0.19186,-3.32168 -3.60947,-5.04847 -6.18767,-6.46348 -4.82062,-2.2904 -9.78515,-4.67673 -15.1334,-5.24033 -3.41761,-0.46815 -6.17568,2.38633 -7.54272,5.19236 -8.99371,18.88678 -13.95823,39.30849 -22.24443,58.45908 -4.35296,11.29609 -9.65325,22.72409 -18.55102,31.25013 -2.9979,-6.51145 -3.5615,-13.77836 -5.38423,-20.61357 -2.15849,-10.76847 -3.46557,-21.68083 -4.64075,-32.50925 -0.56313,-14.89357 -0.46719,-29.83511 -0.0959,-44.72869 1.22314,-17.10003 4.88058,-33.91226 8.15429,-50.688516 5.01249,-16.908164 10.73249,-33.672429 17.4238,-49.981014 1.64285,-0.17939 3.33367,-0.37126 5.01249,-0.41923 155.47117,0.1439 310.89438,-0.0959 466.36555,0.0959 2.9979,4.59278 4.67672,9.929047 6.46347,15.085437 3.98122,12.039573 8.4301,23.935246 11.84771,36.202659 2.11052,11.715804 5.01249,23.335664 6.09174,35.231334 2.90197,16.39253 2.01459,33.07285 2.01459,49.56131 m 16.44049,-54.8616 C 576.25763,108.63144 574.85462,97.89895 571.95265,87.502228 569.98602,75.042949 564.82963,63.423083 561.31609,51.383511 557.47878,40.42318 552.46629,29.88256 548.05338,19.1141 c -1.72679,-0.0959 -3.32168,-0.19187 -5.01249,-0.23983 -157.5697,0.048 -315.1514,0 -472.7211,0.048 -6.37953,0.048 -12.79504,-0.32329 -19.21055,0.23984 -3.09384,11.47596 -9.31748,21.82472 -12.78305,33.204753 -5.06046,16.212651 -10.78046,32.365344 -13.82632,49.141597 -3.46558,16.2966 -4.35296,32.97692 -4.49686,49.59729 -0.13238,16.82422 -0.0959,33.68442 1.64285,50.36474 1.45099,11.38003 4.22105,22.4363 6.73929,33.54052 2.86599,15.36125 9.4254,29.69122 14.34196,44.45288 3.1418,7.25493 6.04377,14.55781 8.94573,21.92066 165.54412,0.0959 331.12422,0.0959 496.62037,0 12.1355,-29.93105 23.98321,-60.4257 28.576,-92.61117 3.51354,-16.58439 2.7101,-33.58849 3.69341,-50.40072 -0.88738,-13.07085 -0.56312,-26.18967 -2.33836,-39.16459"/>
</svg>
