<?xml version="1.0" encoding="UTF-8" standalone="no"?>
<svg xmlns="http://www.w3.org/2000/svg" xmlns:xlink="http://www.w3.org/1999/xlink" version="1.1" width="600" height="320.57999">
  <linearGradient x1="0" y1="0" x2="1" y2="0" id="linearGradient1028" gradientUnits="userSpaceOnUse" gradientTransform="matrix(-35.097168,-35.097168,-35.097168,35.097168,710.09668,52.519531)" spreadMethod="pad">
    <stop offset="0" style="stop-color:#8b723c"/>
    <stop offset="0.5" style="stop-color:#ebd491"/>
    <stop offset="1" style="stop-color:#8b723c"/>
  </linearGradient>
  <linearGradient x1="0" y1="0" x2="1" y2="0" id="linearGradient4559" xlink:href="#linearGradient1028" gradientUnits="userSpaceOnUse" gradientTransform="matrix(-35.097168,-35.097168,-35.097168,35.097168,710.09668,52.519531)" spreadMethod="pad"/>
  <g transform="matrix(12,0,0,-12,-8010.468,579.468)">
    <path d="m 670.77,48.289 c -0.743,-1.781 -1.543,-3.547 -2.071,-5.41 l 0,0 c -0.328,-1.176 -0.715,-2.344 -0.84,-3.563 l 0,0 c -0.086,-0.765 -0.195,-1.527 -0.32,-2.289 l 0,0 0,-4.757 c 0.16,-0.641 0.262,-1.29 0.352,-1.946 l 0,0 c 0.148,-1.125 0.515,-2.203 0.785,-3.301 l 0,0 c 0.609,-1.859 1.265,-3.711 2.172,-5.449 l 0,0 43.398,0 c 0.68,1.367 1.254,2.785 1.762,4.223 l 0,0 c 0.316,1.121 0.754,2.215 0.937,3.375 l 0,0 c 0.301,1.234 0.391,2.512 0.594,3.766 l 0,0 0,4.55 c -0.227,1.035 -0.324,2.09 -0.582,3.117 l 0,0 c -0.469,2.684 -1.621,5.172 -2.629,7.684 l 0,0 -43.558,0 z" style="fill:url(#linearGradient4559)"/>
  </g>
  <path d="m 457.272,105.74399 c 0,0 -10.788,6.384 -24.804,17.208 0,0 0.80448,-12.42 2.388,-21.612 1.596,-9.179995 0.384,-13.211995 0.384,-13.211995 0,0 3.648,-5.58 10.404,-10.788 6.84,-5.196 12.612,-8.388 15.42,-9.612 2.808,-1.212 8.58,-7.212 23.016,-13.584 0,0 10.08,4.26 15.192,9.6 3.984,4.224 13.212,9.192 15.984,12 2.808,2.772 10.584,12.804 15.984,19.224 0,0 1.212,9.983995 -0.384,28.775995 0,0 -28.404,27.984 -36,39.612 0,0 10.416,1.176 14.82,0.37248 4.404,-0.792 11.58,-2.76 19.596,-2.388 0,0 5.196,-7.968 9.6,-13.212 l 7.968,9.228 c 0,0 -15.6,27.192 -16.776,43.596 0,0 -12.42,-1.224 -14.388,1.176 0,0 0.37152,-6.756 -0.41952,-11.16 0,0 -18.804,-1.596 -34.416,-0.41952 -15.6,1.176 -33.18,1.596 -49.164,2.808 0,0 10.356,-9.612 16.776,-15.228 6.42,-5.58 12.42,-12 18,-15.984 5.628,-3.984 8.82,-6.804 12.804,-9.984 3.984,-3.192 15.984,-17.628 26.016,-25.224 0,0 1.584,-8.388 -0.80448,-16.776 -2.388,-8.436 -8.808,-12.431995 -18.792,-20.015995 -10.032,-7.596 -23.208,-7.596 -29.628,-4.416 0,0 -3.564,13.224 1.224,20.015995 m -223.692,85.596 c 5.904,15.24 12,30.66 14.34,46.968 -5.016,2.724 -10.548,4.368 -15.372,7.50001 -10.92,7.07999 -19.452,17.25599 -25.74,28.59599 -5.664,-2.484 -11.34,-5.112 -16.164,-9 -0.984,-2.064 -0.24,-4.5 -0.288,-6.696 1.272,-14.448 -1.68,-28.884 -5.904,-42.612 -4.212,-13.224 -7.872,-26.676 -13.68,-39.336 -7.464,-17.532 -15.564,-35.148 -27.9,-49.824 -2.484,-2.208 -5.58,-7.128 -9.228,-4.26 -4.644,4.212 -4.692,11.712 -9.612,15.648 -6.372,1.788 -12,-2.484 -17.436,-5.112 -3.756,-1.968 -9.192,-4.584 -8.064,-9.792 2.58,-10.452 8.208,-19.92 10.92,-30.419995 0.192,-3.276 1.692,-8.532 -2.388,-9.984 -5.532,-2.772 -12,-2.904 -17.532,-5.532 -2.292,-1.176 -2.532,-4.128 -1.032,-6.048 2.772,-4.032 5.628,-8.292 9.612,-11.244 8.436,-1.128 16.824,0.792 25.26,0.744 13.644,0.37152 27.288,-0.048 40.884,0.888 1.116,9.288 6.036,17.484 11.76,24.708 10.224,13.775995 16.968,29.951995 28.776,42.563995 1.644,1.452 3.336,3.372 5.676,3.468 3.804,-1.272 6.984,-4.128 10.968,-4.836 4.74,0.384 7.692,4.74 10.74,7.836 3.048,3.744 7.68,7.776 6.132,13.128 -1.872,5.34 -7.116,9.036 -7.824,14.856 -1.08,9.324 -0.46848,18.984 3.096,27.792 M 383.064,70.776955 c 11.34,-4.68 22.212,-10.452 33.84,-14.34 -0.56448,16.92 0.192,33.888 -0.936,50.807995 -0.18048,16.548 0.70848,38.352 0.51648,54.9 0.24,2.904 -1.728,6.648 -3.612,8.388 -6.696,5.808 -12.372,10.404 -18,17.196 -1.356,1.788 -7.212,6.708 -9.228,7.644 1.5,-30.564 2.244,-67.08 0.41952,-97.643995 -0.048,-1.632 1.032,-4.872 -0.792,-4.776 -7.32,-0.61248 -18.708,1.08 -26.016,0.41952 -0.288,-3.372 -0.56448,-8.244 -0.384,-11.628 6.192,-4.5 17.352,-7.776 24.192,-10.968 m 3.096,172.451995 c -0.42048,4.64401 -2.868,8.72401 -5.016,12.70801 -10.692,-1.176 -20.82,-5.436 -31.596,-6.096 -16.692,-2.244 -33.984,-2.388 -50.208,2.58 -5.904,1.788 -10.872,5.532 -16.116,8.58 -4.368,-4.452 -8.772,-8.856 -12.384,-13.92 8.16,-8.06401 19.368,-13.74001 23.952,-24.85201 3.384,-9.42 -1.92,-18.84 -5.244,-27.504 -6.468,-17.868 -16.404,-34.176 -24.048,-51.516 -1.5,-2.724 -2.676,-6.144 -5.628,-7.548 -4.164,0.552 -8.016,4.26 -12.276,2.532 -4.32,-2.82 -7.548,-7.032 -10.788,-10.98 -2.664,-3.084 -3.984,-7.584 -2.244,-11.388 2.532,-3.84 6.324,-6.612 8.856,-10.404 3.24,-4.728 6.372,-9.563995 8.532,-14.903995 1.08,-2.388 -0.37152,-4.872 -2.16,-6.372 -7.164,-5.82 -16.068,-8.772 -23.664,-13.932 3,-5.196 6.372,-10.212 9.468,-15.276 5.904,0.41952 11.436,2.772 17.34,3.276 8.436,0.80448 16.92,0.80448 25.356,0.288 4.836,-0.192 9.336,-2.388 14.112,-3.096 4.176,1.968 7.92,4.824 11.82,7.272 -0.51552,6.228 -3.144,12.132 -2.304,18.42 1.08,9.42 3.096,18.888 7.224,27.467995 6.372,12.744 14.064,24.888 19.356,38.196 6.984,16.884 15.192,33.336 20.628,50.868 2.628,8.244 3.096,17.904 9.696,24.18 6.144,5.352 13.128,9.564 19.884,14.064 2.856,1.968 5.904,4.08 7.452,7.356 m 175.872,-69.036 c 0.096,6.984 -1.032,13.824 -1.968,20.664 -1.032,6.804 -1.272,13.74 -2.676,20.532 -1.548,7.224 -3.696,14.256 -5.532,21.468 -3.372,15.04801 -9.372,29.35201 -15,43.69201 -0.41952,2.16 -2.808,1.968 -4.5,2.112 -151.212,-0.048 -302.436,-0.048 -453.696,0 -4.872,-0.192 -9.936,0.696 -14.676,-0.65952 -3.744,-8.34 -7.128,-16.872 -9.744,-25.644 7.728,-4.728 16.824,-6.324 25.728,-7.548 10.224,-0.792 20.58,-0.792 30.708,1.032 0.32352,-4.824 0.37152,-9.69601 -0.048,-14.53201 -4.692,-3.18 -11.388,-5.292 -12.612,-11.58 -1.92,-9.18 1.692,-18.18 4.032,-26.904 2.064,-8.712 6.708,-16.404 9.888,-24.744 2.256,-6 7.272,-11.484 6.192,-18.336 -0.192,-3.324 -3.612,-5.052 -6.24,-6.468 -4.824,-2.292 -9.792,-4.68 -15.132,-5.244 -3.432,-0.46848 -6.144,2.388 -7.548,5.196 -9,18.9 -13.968,39.336 -22.224,58.5 -4.404,11.304 -9.708,22.74 -18.564,31.272 -3.048,-6.516 -3.612,-13.788 -5.388,-20.628 -2.16,-10.776 -3.468,-21.696 -4.644,-32.532 -0.6,-14.904 -0.51648,-29.856 -0.13152,-44.76 1.26,-17.112 4.872,-33.936 8.148,-50.723995 5.016,-16.92 10.788,-33.696 17.436,-50.015995 1.692,-0.18048 3.336,-0.37248 5.064,-0.42048 155.58,0.144 311.112,-0.096 466.644,0.096 3.048,4.596 4.692,9.935995 6.516,15.095995 3.984,12.048 8.388,23.952 11.808,36.228 2.112,11.723995 5.016,23.351995 6.096,35.255995 2.904,16.404 2.016,33.096 2.064,49.596 m 16.452,-54.9 c -2.016,-10.584 -3.372,-21.323995 -6.276,-31.727995 -1.968,-12.468 -7.128,-24.096 -10.692,-36.144 -3.84,-10.967995 -8.808,-21.515995 -13.26,-32.291995 -1.692,-0.096 -3.336,-0.192 -5.016,-0.24 -157.692,0.048 -315.336,0 -473.064,0.048 -6.384,0.048 -12.804,-0.32448 -19.176,0.24 -3.096,11.484 -9.372,21.84 -12.792,33.227995 -5.112,16.224 -10.836,32.388 -13.836,49.175995 -3.516,16.30801 -4.356,33 -4.5,49.632 -0.17952,16.836 -0.13152,33.708 1.596,50.4 1.452,11.388 4.224,22.452 6.756,33.564 2.904,15.37201 9.42,29.71201 14.34,44.48401 3.192,7.26 6.096,14.568 8.952,21.936 165.66,0.096 331.356,0.096 496.968,0 12.144,-29.952 24.048,-60.46801 28.596,-92.67601 3.516,-16.596 2.76,-33.612 3.708,-50.436 -0.85152,-13.08 -0.56352,-26.208 -2.304,-39.192"/>
</svg>
