<?xml version="1.0" encoding="UTF-8" standalone="no"?>
<svg xmlns="http://www.w3.org/2000/svg" xmlns:xlink="http://www.w3.org/1999/xlink" version="1.1" width="600" height="320.55435">
  <linearGradient x1="0" y1="0" x2="1" y2="0" id="linearGradient1010" gradientUnits="userSpaceOnUse" gradientTransform="matrix(-35.097168,-35.097168,-35.097168,35.097168,643.02246,52.519531)" spreadMethod="pad">
    <stop offset="0" style="stop-color:#612c75"/>
    <stop offset="0.5" style="stop-color:#bf99c3"/>
    <stop offset="1" style="stop-color:#612c75"/>
  </linearGradient>
  <linearGradient x1="0" y1="0" x2="1" y2="0" id="linearGradient4484" xlink:href="#linearGradient1010" gradientUnits="userSpaceOnUse" gradientTransform="matrix(-35.097168,-35.097168,-35.097168,35.097168,643.02246,52.519531)" spreadMethod="pad"/>
  <g transform="matrix(11.99904,0,0,-11.99904,-7205.0036,579.42164)">
    <path d="m 603.695,48.289 c -0.742,-1.781 -1.543,-3.547 -2.066,-5.41 l 0,0 c -0.328,-1.176 -0.719,-2.344 -0.848,-3.563 l 0,0 c -0.082,-0.765 -0.191,-1.527 -0.316,-2.289 l 0,0 0,-4.757 c 0.16,-0.641 0.262,-1.29 0.351,-1.946 l 0,0 c 0.149,-1.125 0.516,-2.203 0.786,-3.301 l 0,0 c 0.609,-1.859 1.265,-3.711 2.171,-5.449 l 0,0 43.399,0 c 0.68,1.367 1.254,2.785 1.762,4.223 l 0,0 c 0.32,1.121 0.754,2.215 0.937,3.375 l 0,0 c 0.301,1.234 0.391,2.512 0.598,3.766 l 0,0 0,4.55 c -0.231,1.035 -0.332,2.09 -0.586,3.117 l 0,0 c -0.469,2.684 -1.621,5.172 -2.629,7.684 l 0,0 -43.559,0 z" style="fill:url(#linearGradient4484)"/>
  </g>
  <path d="m 457.22347,105.73554 c 0,0 -10.77514,6.38349 -24.79001,17.20662 0,0 0.79193,-12.419 2.3878,-21.61027 1.59588,-9.179262 0.37149,-13.21094 0.37149,-13.21094 0,0 3.65971,-5.579553 10.41517,-10.787137 6.83945,-5.195584 12.59899,-8.387329 15.41877,-9.611231 2.80777,-1.211903 8.57931,-7.211423 23.01416,-13.582913 0,0 10.07919,4.259659 15.17878,9.599232 3.98368,4.223662 13.22294,9.191265 15.98272,11.99904 2.81978,2.771778 10.59516,12.802976 15.98273,19.222462 0,0 1.2239,9.983197 -0.3715,28.773697 0,0 -28.40172,27.98176 -35.99712,39.60883 0,0 10.40317,1.17591 14.81882,0.37149 4.40365,-0.79193 11.56707,-2.75978 19.58243,-2.38781 0,0 5.20759,-7.96736 9.61123,-13.21094 l 7.96737,9.22726 c 0,0 -15.61075,27.18983 -16.77466,43.59251 0,0 -12.41901,-1.2239 -14.38685,1.17591 0,0 0.37149,-6.75546 -0.43197,-11.15911 0,0 -18.79049,-1.59587 -34.40124,-0.42044 -15.61076,1.1759 -33.17735,1.59587 -49.16007,2.80777 0,0 10.35517,-9.61123 16.77466,-15.22678 6.41948,-5.57955 12.419,-11.99904 17.99856,-15.98272 5.62755,-3.98368 8.80729,-6.80346 12.79097,-9.9832 3.98368,-3.19175 15.98272,-17.62659 26.01392,-25.22198 0,0 1.59587,-8.38733 -0.79193,-16.77466 -2.38781,-8.43533 -8.8073,-12.431007 -18.7905,-20.014401 -10.0312,-7.595392 -23.20614,-7.595392 -29.62563,-4.415646 0,0 -3.56372,13.222942 1.2119,20.014397 m -223.66211,85.58915 c 5.90353,15.23878 11.99904,30.65755 14.33885,46.96425 -5.01559,2.72378 -10.54715,4.36765 -15.37077,7.49939 -10.91912,7.07944 -19.45044,17.25462 -25.73794,28.59372 -5.66354,-2.4838 -11.33909,-5.11159 -16.1627,-8.99928 -0.98393,-2.06384 -0.23998,-4.49964 -0.28798,-6.69547 1.2719,-14.44684 -1.67987,-28.88168 -5.90353,-42.60859 -4.22366,-13.22294 -7.87137,-26.67386 -13.6909,-39.33285 -7.4514,-17.5306 -15.56275,-35.14519 -27.88577,-49.82001 -2.4838,-2.20783 -5.57955,-7.12743 -9.22726,-4.25966 -4.64363,4.21166 -4.69163,11.71106 -9.61123,15.64674 -6.37149,1.78786 -11.99904,-2.4838 -17.43461,-5.11159 -3.7557,-1.96784 -9.191264,-4.58363 -8.063354,-9.79121 2.579794,-10.45117 8.195344,-19.91841 10.919124,-30.417569 0.19199,-3.275738 1.69187,-8.531318 -2.3878,-9.983201 -5.53156,-2.771779 -11.999044,-2.903768 -17.530604,-5.531558 -2.30382,-1.175906 -2.5318,-4.12767 -1.03192,-6.047516 2.75978,-4.031678 5.62755,-8.291337 9.61123,-11.243101 8.435334,-1.127909 16.822664,0.791937 25.257984,0.743941 13.64291,0.37245 27.28582,-0.048 40.86873,0.887929 1.12791,9.287257 6.04751,17.482601 11.77106,24.706023 10.21118,13.774902 16.96664,29.949602 28.77369,42.560592 1.64387,1.45189 3.33574,3.37173 5.67555,3.46773 3.7917,-1.2719 6.98344,-4.12767 10.96712,-4.83562 4.72762,0.38397 7.69139,4.73962 10.72714,7.83538 3.04776,3.7437 7.69139,7.77537 6.14351,13.12695 -1.87185,5.33957 -7.12743,9.03527 -7.82337,14.85481 -1.07991,9.32325 -0.46844,18.98248 3.09575,27.78977 M 383.03341,70.770339 c 11.33909,-4.679626 22.21022,-10.451164 33.83729,-14.338853 -0.56443,16.918646 0.19198,33.885289 -0.93592,50.803934 -0.19199,16.54668 0.70842,38.34893 0.51643,54.89561 0.22751,2.90377 -1.73986,6.64747 -3.61171,8.38733 -6.70746,5.80753 -12.37101,10.40317 -17.99856,17.19462 -1.35589,1.78786 -7.21142,6.70747 -9.22726,7.64339 1.49988,-30.56155 2.24382,-67.07463 0.41949,-97.636187 -0.048,-1.63187 1.03191,-4.871611 -0.80346,-4.775618 -7.30741,-0.612431 -18.69451,1.079913 -26.01392,0.419486 -0.27646,-3.37173 -0.56348,-8.24334 -0.37149,-11.62707 6.1915,-4.49964 17.33862,-7.775378 24.19007,-10.967122 m 3.09575,172.438201 c -0.43197,4.64363 -2.86777,8.7233 -5.0156,12.70698 -10.69114,-1.1759 -20.81834,-5.43556 -31.59348,-6.09551 -16.69066,-2.24382 -33.98128,-2.38781 -50.20398,2.5798 -5.90353,1.78785 -10.87113,5.53155 -16.12671,8.57931 -4.35565,-4.45164 -8.7593,-8.85529 -12.37101,-13.91889 8.15935,-8.06335 19.35445,-13.7389 23.95008,-24.85001 3.37174,-9.41924 -1.91984,-18.83849 -5.24358,-27.5018 -6.46748,-17.86657 -16.40268,-34.17326 -24.04607,-51.51188 -1.49988,-2.72378 -2.67579,-6.1435 -5.62755,-7.54739 -4.17567,0.55195 -8.01536,4.25966 -12.27502,2.5318 -4.31965,-2.81978 -7.5474,-7.03144 -10.78714,-10.97913 -2.66378,-3.08375 -3.98368,-7.58339 -2.24382,-11.38709 2.5318,-3.83969 6.3235,-6.61147 8.85529,-10.40316 3.23975,-4.72763 6.37149,-9.563238 8.53132,-14.90281 1.07992,-2.387809 -0.37149,-4.871611 -2.15983,-6.371491 -7.16342,-5.819534 -16.07871,-8.771298 -23.6621,-13.930885 2.99976,-5.195585 6.37149,-10.211183 9.46724,-15.274778 5.90353,0.420446 11.43509,2.771778 17.33861,3.275738 8.43533,0.804415 16.91865,0.804415 25.35397,0.287977 4.83562,-0.191985 9.33526,-2.387809 14.11088,-3.095753 4.17566,1.967843 7.91936,4.823614 11.80705,7.271419 -0.51548,6.227501 -3.13175,12.131029 -2.29182,18.418526 1.07992,9.419247 3.09576,18.886489 7.22343,27.465807 6.37149,12.74298 14.05087,24.886 19.35445,38.19294 6.98344,16.88265 15.17878,33.33333 20.62635,50.86393 2.61579,8.24334 3.08375,17.90257 9.69522,24.17807 6.14351,5.35157 13.12696,9.56323 19.87042,14.06287 2.86777,1.96784 5.91552,4.07968 7.4634,7.35541 m 175.85793,-69.03047 c 0.096,6.98344 -1.03192,13.82289 -1.96784,20.66234 -1.03192,6.80346 -1.2719,13.7389 -2.67579,20.53036 -1.54787,7.22342 -3.7077,14.25486 -5.53156,21.46628 -3.37173,15.0468 -9.37125,29.34965 -14.9988,43.68851 -0.41948,2.15982 -2.80777,1.96784 -4.49964,2.11183 -151.1999,-0.048 -302.41181,-0.048 -453.659704,0 -4.88361,-0.19199 -9.94721,0.69594 -14.67483,-0.66043 -3.7557,-8.33933 -7.12743,-16.87065 -9.75522,-25.64195 7.73938,-4.72762 16.83466,-6.32349 25.73794,-7.5474 10.21119,-0.79193 20.578364,-0.79193 30.705554,1.03192 0.32349,-4.82361 0.37149,-9.69522 -0.048,-14.53083 -4.69162,-3.17975 -11.399094,-5.29158 -12.610994,-11.57908 -1.91985,-9.17926 1.67986,-18.17854 4.031684,-26.90184 2.06383,-8.71131 6.69546,-16.40269 9.88721,-24.74203 2.24382,-5.99952 7.25942,-11.48308 6.1915,-18.33453 -0.19198,-3.32373 -3.61171,-5.05159 -6.2395,-6.46748 -4.82361,-2.29182 -9.79122,-4.67963 -15.094794,-5.24358 -3.46773,-0.46748 -6.17951,2.38781 -7.5954,5.19558 -8.99928,18.89849 -13.96688,39.33286 -22.21022,58.49532 -4.40365,11.3031 -9.70722,22.73818 -18.56251,31.2695 -3.04776,-6.51548 -3.61171,-13.7869 -5.38757,-20.62635 -2.15983,-10.77514 -3.46772,-21.69426 -4.64363,-32.5294 -0.61147,-14.9028 -0.51548,-29.85361 -0.096,-44.75642 1.2239,-17.11063 4.83561,-33.93328 8.11135,-50.719938 5.0156,-16.918646 10.77514,-33.693304 17.4346,-50.011999 1.69187,-0.17951 3.32374,-0.37149 5.0636,-0.42045 155.567554,0.14399 311.087114,-0.096 466.606674,0.096 3.04776,4.59563 4.67963,9.935201 6.51548,15.094789 3.98368,12.047036 8.38733,23.950084 11.80705,36.225102 2.11183,11.723066 5.0156,23.350136 6.09552,35.253176 2.90376,16.40269 2.01583,33.09336 2.06383,49.59204 m 16.45068,-54.89561 c -2.01583,-10.58316 -3.37173,-21.322297 -6.28749,-31.725464 -1.96784,-12.467003 -7.11543,-24.094073 -10.67915,-36.141109 -3.83969,-10.967124 -8.81929,-21.514274 -13.27094,-32.289414 -1.67986,-0.096 -3.32373,-0.19199 -5.01559,-0.23998 -157.66739,0.048 -315.29878,0 -473.026164,0.048 -6.37149,0.048 -12.79098,-0.32349 -19.16247,0.23998 -3.09575,11.48308 -9.37125,21.83826 -12.80298,33.225345 -5.09959,16.222702 -10.82313,32.385409 -13.82289,49.172062 -3.51572,16.3067 -4.35565,32.99736 -4.49964,49.62803 -0.19198,16.83466 -0.14399,33.70531 1.59587,50.39597 1.45189,11.38709 4.21167,22.45021 6.74346,33.56132 2.91577,15.37077 9.43125,29.70962 14.35086,44.48044 3.17974,7.25942 6.09551,14.56683 8.95128,21.93424 165.634744,0.096 331.329494,0.096 496.928244,0 12.14303,-29.9496 24.04608,-60.46316 28.59372,-92.66858 3.51572,-16.59467 2.75978,-33.60931 3.6957,-50.43197 -0.83993,-13.07895 -0.56443,-26.2059 -2.29182,-39.18886" fill="#ffffff"/>
</svg>
