<?xml version="1.0" encoding="UTF-8" standalone="no"?>
<svg xmlns="http://www.w3.org/2000/svg" version="1.1" width="600" height="320.57999">
 <path
     d="M 38.724609 0 C 29.820609 21.372 20.207922 42.563927 13.919922 64.919922 C 9.9839219 78.983922 5.3406875 93.047776 3.8046875 107.67578 C 2.7726875 116.85578 1.452 126.00053 0 135.14453 L 0 192.22852 C 1.92 199.92052 3.0969062 207.74408 4.1289062 215.58008 C 5.9529062 229.08008 10.355703 241.96741 13.595703 255.19141 C 20.951703 277.4514 28.824156 299.72407 39.660156 320.58008 L 560.48438 320.58008 C 568.59637 304.17608 575.48408 287.16029 581.58008 269.9043 C 585.42008 256.4523 590.62822 243.3243 592.82422 229.4043 C 596.43622 214.5963 597.516 199.25977 600 184.25977 L 600 129.61133 C 597.24 117.22733 596.06475 104.58015 592.96875 92.244141 C 587.38875 60.000141 573.51592 30.144 561.41992 0 L 38.724609 0 z M 60.535156 18.863281 C 63.736156 18.879842 66.937047 18.959547 70.123047 18.935547 C 227.85105 18.887547 385.54433 18.936672 543.23633 18.888672 C 544.86833 18.936682 546.51195 19.032906 548.25195 19.128906 C 552.65595 29.904906 557.62372 40.451927 561.51172 51.419922 C 565.02772 63.467922 570.18825 75.096453 572.15625 87.564453 C 575.06025 97.968453 576.41564 108.70897 578.43164 119.29297 C 580.22012 132.27697 579.88368 145.40437 580.7832 158.48438 C 579.7992 175.30838 580.59217 192.32392 577.07617 208.91992 C 572.48017 241.12792 560.57564 271.6437 548.43164 301.5957 C 382.81964 301.6917 217.12372 301.6917 51.511719 301.5957 C 48.607719 294.2277 45.703719 286.92016 42.511719 279.66016 C 37.639719 264.88817 31.075875 250.54778 28.171875 235.17578 C 25.687875 224.06378 22.868016 213.00128 21.416016 201.61328 C 19.687536 184.92128 19.687832 168.04889 19.820312 151.21289 C 19.964312 134.58089 20.816312 117.88808 24.320312 101.58008 C 27.320312 84.792073 33.09225 68.628297 38.15625 52.404297 C 41.57625 41.016292 47.851266 30.659791 50.947266 19.175781 C 54.133266 18.893546 57.334156 18.84672 60.535156 18.863281 z M 68.851562 37.919922 C 67.171562 37.967922 65.479938 38.161317 63.835938 38.341797 C 57.139937 54.661792 51.368391 71.437422 46.400391 88.357422 C 43.076391 105.14543 39.463953 121.96808 38.251953 139.08008 C 37.870833 153.98408 37.737891 168.9378 38.337891 183.8418 C 39.513891 194.67781 40.822422 205.59705 42.982422 216.37305 C 44.818422 223.21305 45.369141 230.484 48.369141 237 C 57.285141 228.468 62.529594 217.03252 66.933594 205.72852 C 75.237594 186.56452 80.158203 166.12852 89.158203 147.22852 C 90.562203 144.42052 93.285906 141.56472 96.753906 142.0332 C 102.09391 142.59719 107.06189 144.98534 111.83789 147.27734 C 114.46589 148.69333 117.88613 150.42015 118.07812 153.74414 C 119.20613 160.59614 114.14272 166.08008 111.88672 172.08008 C 108.70672 180.42008 104.06205 188.11221 101.99805 196.82422 C 99.658047 205.54821 96.046797 214.54851 97.966797 223.72852 C 99.190797 230.01651 105.93412 232.12859 110.57812 235.30859 C 110.99765 240.14458 110.99735 245.0178 110.67383 249.8418 C 100.49783 248.0178 90.141969 248.01659 79.917969 248.80859 C 71.061969 250.03258 61.965453 251.62942 54.189453 256.35742 C 56.853453 265.12942 60.237594 273.66 63.933594 282 C 68.673594 283.35553 73.785375 282.46817 78.609375 282.66016 C 229.86938 282.61216 381.09464 282.61216 532.30664 282.66016 C 533.99864 282.51616 536.43436 282.70884 536.81836 280.54883 C 542.43436 266.20884 548.43436 251.90543 551.81836 236.85742 C 553.69036 229.64542 555.80189 222.61268 557.33789 215.38867 C 558.80189 208.59667 559.0305 201.66143 560.0625 194.85742 C 560.9985 188.01743 562.07842 181.17736 561.98242 174.19336 L 561.98047 174.19336 C 561.93247 157.69336 562.82002 140.9997 559.91602 124.5957 C 558.83602 112.6917 555.98031 101.06385 553.82031 89.339844 C 550.40031 77.063844 545.99572 65.161281 542.01172 53.113281 C 540.18772 47.953281 538.54409 42.611625 535.49609 38.015625 C 379.96409 37.823625 224.43156 38.063922 68.851562 37.919922 z M 484.03125 54.144531 C 484.03125 54.144531 494.11066 58.404141 499.22266 63.744141 C 503.25466 67.968141 512.43586 72.936141 515.25586 75.744141 C 518.01586 78.516141 525.84023 88.54875 531.24023 94.96875 C 531.24023 94.96875 532.45183 104.95214 530.82031 123.74414 C 530.82031 123.74414 502.45231 151.72747 494.82031 163.35547 C 494.82031 163.35547 505.22491 164.53204 509.62891 163.72852 C 514.03291 162.93652 521.25661 160.96784 529.22461 161.33984 C 529.22461 161.33984 534.42022 153.37291 538.82422 148.12891 L 546.83984 157.35742 C 546.83984 157.35742 531.23962 184.54913 530.01562 200.95312 C 530.01562 200.95312 517.64491 199.72891 515.62891 202.12891 C 515.62891 202.12891 515.99986 195.37276 515.25586 190.96875 C 515.25586 190.96875 496.45184 189.37234 480.83984 190.54883 C 465.23984 191.72483 447.61095 192.14542 431.62695 193.35742 C 431.62695 193.35742 442.03117 183.74491 448.45117 178.12891 C 454.82317 172.54891 460.82317 166.12853 466.45117 162.14453 C 472.03117 158.16053 475.22386 155.34016 479.25586 152.16016 C 483.23986 148.96816 495.23866 134.5335 505.22266 126.9375 C 505.22266 126.9375 506.8204 118.54816 504.41992 110.16016 C 502.03192 101.72416 495.61095 97.728531 485.62695 90.144531 C 475.64295 82.548531 462.42 82.548516 456 85.728516 C 456 85.728516 452.43466 98.952136 457.22266 105.74414 C 457.21863 105.74652 446.43331 112.12919 432.41992 122.95117 C 432.41992 122.95117 433.22479 110.53184 434.82031 101.33984 C 436.45231 92.159839 435.24023 88.128906 435.24023 88.128906 C 435.24023 88.128906 438.83858 82.547844 445.64258 77.339844 C 452.43458 72.143844 458.25562 68.952516 461.01562 67.728516 C 463.82362 66.516516 469.64325 60.516531 484.03125 54.144531 z M 235.54688 54.935547 C 241.49887 55.355067 246.98272 57.708891 252.88672 58.212891 C 261.32272 59.017371 269.81791 59.01648 278.25391 58.5 C 283.12591 58.308 287.57834 56.112297 292.40234 55.404297 C 296.57834 57.372297 300.28666 60.227781 304.22266 62.675781 C 303.70618 68.903781 301.02914 74.807703 301.86914 81.095703 C 302.99714 90.515703 304.96575 99.984448 309.09375 108.56445 C 315.46575 121.30845 323.15722 133.45177 328.44922 146.75977 C 335.48122 163.64377 343.64212 180.09691 349.07812 197.62891 C 351.75412 205.87291 352.17427 215.53259 358.82227 221.80859 C 364.91827 227.1606 371.95103 231.37305 378.70703 235.87305 C 381.51503 237.84106 384.56137 239.95252 386.10938 243.22852 C 385.68986 247.87253 383.30175 251.95155 381.09375 255.93555 C 370.40175 254.75955 360.32205 250.49984 349.49805 249.83984 C 332.81805 247.59584 315.51473 247.45191 299.30273 252.41992 C 293.43473 254.20792 288.46583 257.952 283.17383 261 C 278.81783 256.548 274.40273 252.14408 270.80273 247.08008 C 278.95073 239.01608 290.15791 233.34052 294.75391 222.22852 C 298.12591 212.80852 292.82205 203.38861 289.49805 194.72461 C 283.03005 176.85661 273.09405 160.54898 265.49805 143.20898 C 263.95005 140.48498 262.82227 137.06416 259.82227 135.66016 C 255.70627 136.21216 251.81775 139.92136 247.59375 138.19336 C 243.23775 135.37336 239.99753 131.16089 236.76953 127.21289 C 234.09353 124.12889 232.7865 119.62821 234.5625 115.82422 C 237.0465 111.98422 240.83714 109.21192 243.36914 105.41992 C 246.60914 100.69193 249.80122 95.855625 251.94922 90.515625 C 253.02922 88.127625 251.52943 85.644531 249.75391 84.144531 C 242.57791 78.324531 233.67413 75.372891 226.07812 70.212891 C 229.12613 65.016891 232.45087 59.999547 235.54688 54.935547 z M 416.85547 56.4375 C 416.33995 73.3575 417.04792 90.324136 415.91992 107.24414 C 415.73944 123.79214 416.67455 145.59653 416.43359 162.14453 C 416.67359 165.04853 414.70627 168.79319 412.82227 170.5332 C 406.12627 176.34119 400.49827 180.93651 394.82227 187.72852 C 393.46627 189.51651 387.65858 194.43704 385.64258 195.37305 C 387.14258 164.80905 387.83815 128.29251 386.01367 97.728516 C 385.96567 96.096516 387.04666 92.857125 385.22266 92.953125 C 377.90266 92.340645 366.51391 94.033527 359.25391 93.373047 C 358.96591 90.001047 358.64275 85.128141 358.82227 81.744141 C 365.01427 77.244141 376.1745 73.969344 383.0625 70.777344 C 394.3545 66.097344 405.23947 60.3255 416.85547 56.4375 z M 104.38867 59.839844 C 110.71342 59.901719 117.03127 60.9735 123.32227 60.9375 C 136.96627 61.30902 150.61103 60.888219 164.20703 61.824219 C 165.32303 71.112219 170.2548 79.309203 175.9668 86.533203 C 186.1908 100.30921 192.93586 116.48567 204.75586 129.09766 C 206.38786 130.54966 208.07992 132.46845 210.41992 132.56445 C 214.22392 131.29244 217.40355 128.43651 221.43555 127.72852 C 226.12755 128.11252 229.07895 132.46845 232.12695 135.56445 C 235.17495 139.30845 239.85548 143.34136 238.27148 148.69336 C 236.38748 154.03337 231.19155 157.72884 230.43555 163.54883 C 229.35555 172.87284 230.01573 182.53381 233.53125 191.3418 C 239.43525 206.5818 245.57909 222.00059 247.87109 238.30859 C 242.90309 241.03259 237.324 242.6766 232.5 245.80859 C 221.58 252.88859 213.04748 263.0643 206.77148 274.4043 C 201.09548 271.9203 195.4197 269.2923 190.5957 265.4043 C 189.6597 263.3403 190.35464 260.90498 190.30664 258.70898 C 191.57864 244.26098 188.62634 229.82567 184.40234 216.09766 C 180.23834 202.87366 176.53066 189.42171 170.72266 176.76172 C 163.30666 159.22972 155.20709 141.61349 142.87109 126.9375 C 140.33909 124.7295 137.3037 119.80973 133.5957 122.67773 C 128.9997 126.88973 128.95042 134.38821 123.98242 138.32422 C 117.61042 140.11221 111.98288 135.84088 106.54688 133.21289 C 102.80288 131.24488 97.354422 128.62987 98.482422 123.42188 C 101.06242 112.96988 106.73834 103.50001 109.40234 93 C 109.59434 89.724 111.09562 84.469578 107.01562 83.017578 C 101.48363 80.245578 95.014422 80.112375 89.482422 77.484375 C 87.190422 76.308375 86.999172 73.3575 88.451172 71.4375 C 91.223172 67.4055 94.0785 63.145359 98.0625 60.193359 C 100.1715 59.911359 102.28042 59.819219 104.38867 59.839844 z "
 /></svg>
