<?xml version="1.0" encoding="UTF-8" standalone="no"?>
<svg xmlns="http://www.w3.org/2000/svg" version="1.1" width="600" height="679.5791">
  <path d="m 307.3064,679.57912 c -211.700339,0 -287.77778,-61.6835 -290.875424,-64.25926 L 0,601.51515 10.841751,583.09764 200.10101,261.0101 l 0,-158.88889 C 171.49832,90.55555 164.86532,73.51851 164.86532,60.23569 164.86532,20.25252 211.41414,0 303.28283,0 c 33.01347,0 133.56902,0 133.56902,60.23569 0,13.0808 -6.17845,29.78114 -32.49158,41.43097 l 0,159.52862 L 589.61279,587.57575 600,605.79124 583.95623,619.34343 c -2.96296,2.42424 -73.97307,60.23569 -276.64983,60.23569" style="fill:#ffffff"/>
  <path d="m 187.28956,586.0606 c -26.70033,-2.03704 -58.33333,-16.83501 -58.33333,-16.83501 L 226.73401,388.77104 187.28956,586.0606 z m 191.81818,-318.14815 0,-184.3266 c 21.17846,-5.47138 32.49159,-13.55218 32.49159,-23.35016 0,-18.14815 -25.77441,-34.98317 -108.38384,-34.98317 -82.59259,0 -113.09764,16.83502 -113.09764,34.98317 0,9.79798 12.55892,17.94612 35.23569,23.40067 l 0,184.27609 -192.744112,328.01347 c 0,0 69.713802,58.40068 274.764312,58.40068 C 503.13131,654.3266 567.6431,600 567.6431,600 L 379.10774,267.91245 z"/>
</svg>
