<?xml version="1.0" encoding="UTF-8" standalone="no"?>
<svg xmlns="http://www.w3.org/2000/svg" version="1.1" width="600" height="679.5791">
  <radialGradient cx="0" cy="0" r="1" fx="0" fy="0" id="radialGradient800" gradientUnits="userSpaceOnUse" gradientTransform="matrix(16.712707,0,0,-16.712707,748.01172,146.5127)" spreadMethod="pad">
    <stop style="stop-color:#ebd491" offset="0"/>
    <stop style="stop-color:#d2bb7b" offset="0.7"/>
    <stop style="stop-color:#8b723c" offset="1"/>
  </radialGradient>
  <path d="m 307.3064,679.57912 c -211.700339,0 -287.77778,-61.6835 -290.875424,-64.25926 L 0,601.51515 10.841751,583.09764 200.10101,261.0101 l 0,-158.88889 C 171.49832,90.55555 164.86532,73.51851 164.86532,60.23569 164.86532,20.25252 211.41414,0 303.28283,0 c 33.01347,0 133.56902,0 133.56902,60.23569 0,13.0808 -6.17845,29.78114 -32.49158,41.43097 l 0,159.52862 L 589.61279,587.57575 600,605.79124 583.95623,619.34343 c -2.96296,2.42424 -73.97307,60.23569 -276.64983,60.23569" style="fill:#ffffff"/>
  <path d="m 187.28956,586.0606 c -26.70033,-2.03704 -58.33333,-16.83501 -58.33333,-16.83501 L 226.73401,388.77104 187.28956,586.0606 z m 191.81818,-318.14815 0,-184.3266 c 21.17846,-5.47138 32.49159,-13.55218 32.49159,-23.35016 0,-18.14815 -25.77441,-34.98317 -108.38384,-34.98317 -82.59259,0 -113.09764,16.83502 -113.09764,34.98317 0,9.79798 12.55892,17.94612 35.23569,23.40067 l 0,184.27609 -192.744112,328.01347 c 0,0 69.713802,58.40068 274.764312,58.40068 C 503.13131,654.3266 567.6431,600 567.6431,600 L 379.10774,267.91245 z" style="fill:#8b723c"/>
  <g transform="matrix(16.835017,0,0,-16.835017,-12292.593,2806.3132)">
    <path d="m 742.023,163.117 c 0,-0.125 0.297,-0.523 1.672,-0.855 l 0,0 0.422,-0.106 0,-0.429 0,-10.946 0,-0.152 -0.078,-0.129 -11.187,-19.039 c 1.257,-0.789 5.781,-3.082 15.582,-3.082 l 0,0 c 9.296,0 13.535,2.105 14.738,2.844 l 0,0 -10.953,19.285 -0.074,0.125 0,0.148 0,10.949 0,0.426 0.414,0.11 c 1.203,0.304 1.519,0.679 1.519,0.851 l 0,0 c 0,0.707 -1.543,1.528 -5.887,1.528 l 0,0 c -4.879,0 -6.168,-0.997 -6.168,-1.528 m -0.761,-31.781 c -1.664,0.129 -3.571,1.012 -3.653,1.047 l 0,0 -0.527,0.25 0.277,0.512 5.805,10.718 1.738,3.211 -0.714,-3.582 -2.344,-11.715 -0.098,-0.476 -0.484,0.035 z" style="fill:url(#radialGradient800)"/>
  </g>
</svg>
