<?xml version="1.0" encoding="UTF-8" standalone="no"?>
<svg xmlns="http://www.w3.org/2000/svg" version="1.1" width="600" height="679.5791">
  <path d="m 187.28956,586.0606 c -26.70033,-2.03704 -58.33333,-16.83501 -58.33333,-16.83501 L 226.73401,388.77104 187.28956,586.0606 z m 191.81818,-318.14815 0,-184.3266 c 21.17846,-5.47138 32.49159,-13.55218 32.49159,-23.35016 0,-18.14815 -25.77441,-34.98317 -108.38384,-34.98317 -82.59259,0 -113.09764,16.83502 -113.09764,34.98317 0,9.79798 12.55892,17.94612 35.23569,23.40067 l 0,184.27609 -192.744112,328.01347 c 0,0 69.713802,58.40068 274.764312,58.40068 C 503.13131,654.3266 567.6431,600 567.6431,600 L 379.10774,267.91245 z"/>
</svg>
