<?xml version="1.0" encoding="UTF-8" standalone="no"?>
<svg
   version="1.1"
   id="Layer_1"
   x="0px"
   y="0px"
   width="547.27692"
   height="500"
   viewBox="0 0 547.2769 500"
   sodipodi:docname="80.svg"
   inkscape:version="1.1.1 (3bf5ae0d25, 2021-09-20)"
   xmlns:inkscape="http://www.inkscape.org/namespaces/inkscape"
   xmlns:sodipodi="http://sodipodi.sourceforge.net/DTD/sodipodi-0.dtd"
   xmlns="http://www.w3.org/2000/svg"
   xmlns:svg="http://www.w3.org/2000/svg">
  <defs
     id="defs17" />
  <sodipodi:namedview
     id="namedview15"
     pagecolor="#ffffff"
     bordercolor="#666666"
     borderopacity="1.0"
     inkscape:pageshadow="2"
     inkscape:pageopacity="0.0"
     inkscape:pagecheckerboard="0"
     showgrid="false"
     inkscape:zoom="15.640484"
     inkscape:cx="27.332914"
     inkscape:cy="24.999226"
     inkscape:window-width="1920"
     inkscape:window-height="986"
     inkscape:window-x="-11"
     inkscape:window-y="-11"
     inkscape:window-maximized="1"
     inkscape:current-layer="Layer_1" />
  <path
     style="fill:#808080;stroke-width:10.0003"
     d="m 357.45106,0 -7.16022,9.8703054 -12.9304,17.7905506 C 326.76011,42.221307 310.88962,74.00229 302.17935,112.06347 l -0.05,0.21 c -8.68027,38.03118 -9.88031,82.68256 14.66045,118.17366 16.47051,23.83074 16.88053,46.45144 8.27026,63.85198 -8.59027,17.35053 -26.57082,29.83092 -51.5116,30.86095 -0.05,0 -0.09,0 -0.14,0 h -0.03 l -0.38001,0.03 h -0.33001 l -0.35001,-0.03 h -0.06 c -0.04,0 -0.09,0 -0.13,0 -24.94077,-1.03003 -42.90133,-13.51042 -51.49159,-30.86095 -8.62027,-17.40054 -8.20026,-40.02124 8.27025,-63.85198 24.58076,-35.5611 23.30072,-80.32248 14.58045,-118.39366 -8.71026,-38.06118 -24.55076,-69.832163 -35.15108,-84.402614 l -12.9304,-17.7905509 -7.16022,-9.84030448 -0.65002,12.17037638 -1.19004,21.96068 c -2.35007,44.021362 -3.2401,84.302613 -26.93084,120.283723 -15.69048,-18.56058 -33.38103,-30.34094 -51.8416,-37.16115 -22.540697,-8.32026 -45.741415,-9.6203 -68.262112,-9.7703 L 14.060435,107.31332 0,107.23332 l 11.550357,7.97024 20.850646,14.39045 c 19.4006,13.39041 44.60138,32.361 56.981763,63.91198 12.390384,31.55097 13.100404,77.03238 -22.070683,146.87454 0,0.01 0,0.02 0,0.02 l -1.270039,2.47008 -0.730023,1.41004 0.380012,1.53005 0.620019,2.73009 c 0,0.01 0,0.02 0,0.03 11.150345,48.91151 40.881268,87.2827 79.182448,112.98349 v 0.09 l 1.87006,1.30004 c 0.26001,0.18 0.01,-0.02 0.08,0.02 0.08,0.05 0.26001,0.19 0.08,0.06 -0.05,-0.03 0.09,0.05 0.02,0 37.17115,25.44079 81.31251,37.24115 125.05387,36.97114 -0.04,0 0.25,0 0.51001,0 0.01,-0.01 0.01,0 0.02,0 0.07,0 0.11001,0 0.11001,0 43.76135,0.23001 87.90272,-11.55036 125.07387,-37.05114 -0.07,0.05 -0.04,0.03 0.08,-0.06 39.22121,-25.70079 69.67215,-64.622 81.0025,-114.34353 v -0.02 l 0.62002,-2.76008 0.32001,-1.48005 -0.67002,-1.39004 -1.25004,-2.49008 C 443.24371,270.59838 444.32374,225.18698 457.08413,193.616 c 12.7304,-31.55097 38.33119,-50.59156 57.79179,-64.01198 l 20.83065,-14.39044 11.57036,-7.97025 -14.06044,0.08 -25.31078,0.19001 h -0.03 c -22.5107,0.15 -46.07143,1.45004 -68.96214,9.7403 -18.77058,6.81021 -36.83114,18.58057 -52.68163,37.22115 C 362.52122,118.47367 361.65119,78.19242 359.30112,34.161057 l -1.19004,-21.960679 z"
     id="path2" />
  <path
     d="m 198.52614,34.811077 c -2.61008,48.821511 -3.2201,97.243013 -38.8812,139.784323 -33.58104,-49.46153 -76.182357,-54.66169 -120.343724,-54.9417 39.481222,27.26085 111.193444,82.56256 38.831202,226.227 10.610328,46.59144 39.011202,82.86257 76.102352,107.08332 34.95108,23.97074 76.69238,35.17109 118.28366,34.91108 0.22001,0 0.44002,0 0.67002,0 41.64129,0.25 83.44259,-10.97034 118.42367,-35.01109 37.02114,-24.22075 65.36202,-60.45187 75.96235,-106.98331 -72.37224,-143.66444 0.92003,-198.96615 40.40125,-226.227 -44.16137,0.28001 -88.32273,5.48017 -121.89377,54.9417 C 350.43084,132.05409 349.80082,83.632588 347.18074,34.811077 329.41019,59.221833 283.34877,160.72497 326.78011,223.55692 c 37.08115,53.65166 5.00016,111.48345 -52.87163,113.75352 l -1.06004,0.05 -1.04003,-0.05 C 213.93662,335.04037 181.84563,277.20858 218.92677,223.55692 262.35812,160.72497 216.29669,59.221833 198.52614,34.811077 Z"
     id="path4"
     style="stroke-width:10.0003" />
</svg>
