<?xml version="1.0" encoding="UTF-8" standalone="no"?>
<svg
   version="1.1"
   id="Layer_1"
   x="0px"
   y="0px"
   width="468.6745"
   height="453.06845"
   viewBox="0 0 468.67448 453.06845"
   sodipodi:docname="C.svg"
   inkscape:version="1.1.1 (3bf5ae0d25, 2021-09-20)"
   xmlns:inkscape="http://www.inkscape.org/namespaces/inkscape"
   xmlns:sodipodi="http://sodipodi.sourceforge.net/DTD/sodipodi-0.dtd"
   xmlns="http://www.w3.org/2000/svg"
   xmlns:svg="http://www.w3.org/2000/svg">
  <defs
     id="defs17" />
  <sodipodi:namedview
     id="namedview15"
     pagecolor="#ffffff"
     bordercolor="#666666"
     borderopacity="1.0"
     inkscape:pageshadow="2"
     inkscape:pageopacity="0.0"
     inkscape:pagecheckerboard="0"
     showgrid="false"
     inkscape:zoom="0.48876513"
     inkscape:cx="-512.51611"
     inkscape:cy="132.98821"
     inkscape:window-width="1920"
     inkscape:window-height="986"
     inkscape:window-x="-11"
     inkscape:window-y="-11"
     inkscape:window-maximized="1"
     inkscape:current-layer="Layer_1" />
  <path
     style="fill:#ffffff;stroke-width:10.0003"
     d="m 318.14984,-34.811077 -7.16022,9.870305 -12.9304,17.790551 C 287.45889,7.41023 271.5884,39.191213 262.87813,77.252393 l -0.05,0.21 c -8.68027,38.031177 -9.88031,82.682557 14.66045,118.173657 16.47051,23.83074 16.88053,46.45144 8.27026,63.85198 -8.59027,17.35053 -26.57082,29.83092 -51.5116,30.86095 -0.05,0 -0.09,0 -0.14,0 h -0.03 l -0.38001,0.03 h -0.33001 l -0.35001,-0.03 h -0.06 c -0.04,0 -0.09,0 -0.13,0 -24.94077,-1.03003 -42.90133,-13.51042 -51.49159,-30.86095 -8.62027,-17.40054 -8.20026,-40.02124 8.27025,-63.85198 24.58076,-35.5611 23.30072,-80.32248 14.58045,-118.393657 C 195.47606,39.181213 179.63556,7.41023 169.03524,-7.160221 l -12.9304,-17.790551 -7.16022,-9.840304 -0.65002,12.170376 -1.19004,21.96068 C 144.75449,43.361342 143.86446,83.642593 120.17372,119.6237 104.48324,101.06312 86.792694,89.282763 68.332124,82.462553 45.791427,74.142293 22.590709,72.842253 0.070012,72.692253 l -25.310793,-0.19001 -14.060435,-0.08 11.550357,7.97024 20.850646,14.39045 c 19.4006,13.390407 44.60138,32.360997 56.981763,63.911977 12.390384,31.55097 13.100404,77.03238 -22.070683,146.87454 0,0.01 0,0.02 0,0.02 l -1.270039,2.47008 -0.730023,1.41004 0.380012,1.53005 0.620019,2.73009 c 0,0.01 0,0.02 0,0.03 11.150345,48.91151 40.881268,87.2827 79.182444,112.98349 v 0.09 l 1.87006,1.30004 c 0.26001,0.18 0.01,-0.02 0.08,0.02 0.08,0.05 0.26001,0.19 0.08,0.06 -0.05,-0.03 0.09,0.05 0.02,0 37.17115,25.44079 81.31251,37.24115 125.05387,36.97114 -0.04,0 0.25,0 0.51001,0 0.01,-0.01 0.01,0 0.02,0 0.07,0 0.11001,0 0.11001,0 43.76135,0.23001 87.90272,-11.55036 125.07387,-37.05114 -0.07,0.05 -0.04,0.03 0.08,-0.06 39.22121,-25.70079 69.67215,-64.622 81.0025,-114.34353 v -0.02 l 0.62002,-2.76008 0.32001,-1.48005 -0.67002,-1.39004 -1.25004,-2.49008 C 403.94249,235.7873 405.02252,190.3759 417.78291,158.80492 430.51331,127.25395 456.1141,108.21336 475.5747,94.792943 l 20.83065,-14.39044 11.57036,-7.97025 -14.06044,0.08 -25.31078,0.19001 h -0.03 c -22.5107,0.15 -46.07143,1.45004 -68.96214,9.7403 -18.77058,6.81021 -36.83114,18.580567 -52.68163,37.221147 C 323.22,83.662593 322.34997,43.381343 319.9999,-0.65002 l -1.19004,-21.960679 z"
     id="path2" />
  <path
     d="m 159.22492,0 c -2.61008,48.821511 -3.2201,97.243013 -38.8812,139.78432 C 86.762684,90.322793 44.161367,85.122633 0,84.842623 39.481222,112.10347 111.19344,167.40518 38.831202,311.06962 c 10.610328,46.59144 39.011202,82.86257 76.102348,107.08332 34.95108,23.97074 76.69238,35.17109 118.28366,34.91108 0.22001,0 0.44002,0 0.67002,0 41.64129,0.25 83.44259,-10.97034 118.42367,-35.01109 37.02114,-24.22075 65.36202,-60.45187 75.96235,-106.98331 -72.37224,-143.66444 0.92003,-198.96615 40.40125,-226.226997 -44.16137,0.28001 -88.32273,5.48017 -121.89377,54.941697 C 311.12962,97.243013 310.4996,48.821511 307.87952,0 c -17.77055,24.410756 -63.83197,125.91389 -20.40063,188.74584 37.08115,53.65166 5.00016,111.48345 -52.87163,113.75352 l -1.06004,0.05 -1.04003,-0.05 C 174.6354,300.22929 142.54441,242.3975 179.62555,188.74584 223.0569,125.91389 176.99547,24.410756 159.22492,0 Z"
     id="path4"
     style="stroke-width:10.0003" />
</svg>
