<?xml version="1.0" encoding="utf-8"?>
<!-- Generator: Adobe Illustrator 27.6.1, SVG Export Plug-In . SVG Version: 6.00 Build 0)  -->
<svg version="1.1"
	 id="Layer_1" xmlns:inkscape="http://www.inkscape.org/namespaces/inkscape" xmlns:sodipodi="http://sodipodi.sourceforge.net/DTD/sodipodi-0.dtd" xmlns:svg="http://www.w3.org/2000/svg"
	 xmlns="http://www.w3.org/2000/svg" xmlns:xlink="http://www.w3.org/1999/xlink" x="0px" y="0px" viewBox="0 0 547.3 500"
	 style="enable-background:new 0 0 547.3 500;" xml:space="preserve">
<style type="text/css">
	.st0{fill:#FFFFFF;}
</style>
<sodipodi:namedview  bordercolor="#666666" borderopacity="1.0" id="namedview19" inkscape:current-layer="Layer_1" inkscape:cx="27.33376" inkscape:cy="25" inkscape:pagecheckerboard="0" inkscape:pageopacity="0.0" inkscape:pageshadow="2" inkscape:window-height="986" inkscape:window-maximized="1" inkscape:window-width="1920" inkscape:window-x="-11" inkscape:window-y="-11" inkscape:zoom="15.64" pagecolor="#ffffff" showgrid="false">
	</sodipodi:namedview>
<path id="path2" class="st0" d="M357.4,0l-7.2,9.9l-12.9,17.8c-10.6,14.6-26.5,46.3-35.2,84.4l0,0.2c-8.7,38-9.9,82.7,14.7,118.2
	c16.5,23.8,16.9,46.5,8.3,63.9c-8.6,17.4-26.6,29.8-51.5,30.9c0,0-0.1,0-0.1,0h0l-0.4,0h-0.3l-0.4,0h0c0,0-0.1,0-0.1,0
	c-25-1-42.9-13.5-51.5-30.9c-8.6-17.4-8.2-40,8.3-63.9c24.6-35.6,23.3-80.3,14.6-118.4c-8.7-38.1-24.6-69.8-35.2-84.4L195.4,9.9
	L188.2,0l-0.7,12.2l-1.2,22c-2.4,44-3.2,84.3-26.9,120.3c-15.7-18.6-33.4-30.3-51.8-37.2c-22.5-8.3-45.7-9.6-68.3-9.8l-25.3-0.2
	L0,107.2l11.6,8l20.9,14.4C51.8,143,77,162,89.4,193.5c12.4,31.6,13.1,77-22.1,146.9c0,0,0,0,0,0l-1.3,2.5l-0.7,1.4l0.4,1.5l0.6,2.7
	c0,0,0,0,0,0c11.2,48.9,40.9,87.3,79.2,113v0.1l1.9,1.3c0.3,0.2,0,0,0.1,0c0.1,0,0.3,0.2,0.1,0.1c-0.1,0,0.1,0,0,0
	c37.2,25.4,81.3,37.2,125.1,37c0,0,0.2,0,0.5,0c0,0,0,0,0,0c0.1,0,0.1,0,0.1,0c43.8,0.2,87.9-11.6,125.1-37.1c-0.1,0,0,0,0.1-0.1
	c39.2-25.7,69.7-64.6,81-114.3v0l0.6-2.8l0.3-1.5l-0.7-1.4l-1.3-2.5c-35.2-69.8-34.1-115.2-21.3-146.8c12.7-31.5,38.3-50.6,57.8-64
	l20.8-14.4l11.6-8l-14.1,0.1l-25.3,0.2h0c-22.5,0.2-46.1,1.5-69,9.7c-18.8,6.8-36.8,18.6-52.7,37.2c-23.7-36-24.6-76.3-26.9-120.3
	l-1.2-22L357.4,0z"/>
<path id="path15" d="M198.5,34.8c-2.6,48.8-3.2,97.2-38.9,139.8c-33.6-49.5-76.2-54.7-120.3-54.9c39.5,27.3,111.2,82.6,38.8,226.2
	c10.6,46.6,39,82.9,76.1,107.1c35,24,76.7,35.2,118.3,34.9c0.2,0,0.4,0,0.7,0c41.6,0.2,83.4-11,118.4-35c37-24.2,65.4-60.5,76-107
	c-72.4-143.7,0.9-199,40.4-226.2c-44.2,0.3-88.3,5.5-121.9,54.9c-35.7-42.5-36.3-91-38.9-139.8c-17.8,24.4-63.8,125.9-20.4,188.7
	c37.1,53.7,5,111.5-52.9,113.8l-1.1,0l-1,0c-57.9-2.3-90-60.1-52.9-113.8C262.3,160.7,216.3,59.2,198.5,34.8z"/>
</svg>
