<?xml version="1.0" encoding="UTF-8" standalone="no"?>
<svg
   version="1.1"
   id="Layer_1"
   x="0px"
   y="0px"
   width="547.27692"
   height="500"
   sodipodi:docname="M.svg"
   inkscape:version="1.1.1 (3bf5ae0d25, 2021-09-20)"
   xmlns:inkscape="http://www.inkscape.org/namespaces/inkscape"
   xmlns:sodipodi="http://sodipodi.sourceforge.net/DTD/sodipodi-0.dtd"
   xmlns="http://www.w3.org/2000/svg"
   xmlns:svg="http://www.w3.org/2000/svg">
  <defs
     id="defs21">
    <linearGradient
       id="path2989_3_"
       gradientUnits="userSpaceOnUse"
       x1="-1214.3965"
       y1="-614.57861"
       x2="-1167.5317"
       y2="-614.57861"
       gradientTransform="matrix(10.000309,0,0,-10.000309,12183.631,-5884.6338)">
      <stop
         style="stop-color:#bf331c"
         offset="0"
         id="stop4" />
      <stop
         style="stop-color:#d3641c"
         offset="0.3"
         id="stop6" />
      <stop
         style="stop-color:#f6b91d"
         offset="0.5"
         id="stop8" />
      <stop
         style="stop-color:#d3641c"
         offset="0.7"
         id="stop10" />
      <stop
         style="stop-color:#bf331c"
         offset="1"
         id="stop12" />
    </linearGradient>
  </defs>
  <sodipodi:namedview
     id="namedview19"
     pagecolor="#ffffff"
     bordercolor="#666666"
     borderopacity="1.0"
     inkscape:pageshadow="2"
     inkscape:pageopacity="0.0"
     inkscape:pagecheckerboard="0"
     showgrid="false"
     inkscape:zoom="1.955"
     inkscape:cx="45.780051"
     inkscape:cy="95.140665"
     inkscape:window-width="1920"
     inkscape:window-height="986"
     inkscape:window-x="-11"
     inkscape:window-y="-11"
     inkscape:window-maximized="1"
     inkscape:current-layer="Layer_1" />
  <path
     d="m 357.44106,0 -7.16022,9.8703054 -12.9304,17.7905506 C 326.75011,42.221307 310.87962,74.00229 302.16935,112.06347 l -0.05,0.21 c -8.68027,38.03118 -9.88031,82.68256 14.65045,118.17366 16.47051,23.83074 16.89053,46.45144 8.28026,63.85198 -8.59027,17.35053 -26.57082,29.83092 -51.5116,30.86095 -0.05,0 -0.09,0 -0.14,0 h -0.03 l -0.38001,0.02 h -0.33001 l -0.35001,-0.02 h -0.05 c -0.04,0 -0.09,0 -0.13,0 -24.95077,-1.03003 -42.90133,-13.51042 -51.49159,-30.86095 -8.62027,-17.40054 -8.20026,-40.02124 8.27025,-63.85198 24.58076,-35.5611 23.30072,-80.31249 14.58045,-118.39366 C 234.77727,73.99229 218.93677,42.221307 208.33645,27.650856 L 195.40605,9.8603051 188.24583,0.02000062 187.59581,12.190377 186.40577,34.141056 c -2.35007,44.031363 -3.2401,84.312604 -26.93084,120.293724 -15.69048,-18.56058 -33.38103,-30.34094 -51.8416,-37.16115 -22.540697,-8.32026 -45.741415,-9.6203 -68.262112,-9.77031 l -25.310783,-0.19 L 0,107.23332 l 11.550357,7.98024 20.850646,14.38045 c 19.4006,13.39041 44.59138,32.361 56.981763,63.90198 12.390384,31.56097 13.110404,77.04238 -22.070683,146.88454 0,0.01 0,0.02 0,0.03 l -1.270039,2.46008 -0.730023,1.40004 0.380012,1.54005 0.620019,2.73008 c 0,0.01 0,0.02 0,0.03 11.150345,48.91152 40.871268,87.28271 79.182448,112.9935 v 0.08 l 1.87006,1.30004 c 0.26001,0.18001 0.01,-0.02 0.08,0.02 0.07,0.05 0.26001,0.19001 0.08,0.06 -0.05,-0.03 0.09,0.04 0.02,0 37.17115,25.44078 81.31251,37.24115 125.05387,36.97114 -0.04,0 0.25,0 0.51001,0 0.01,-0.01 0.01,0 0.03,0 0.06,0 0.11001,0 0.11001,0 43.76135,0.23001 87.90272,-11.55036 125.07387,-37.05115 -0.08,0.05 -0.04,0.03 0.08,-0.06 39.22121,-25.70079 69.67215,-64.622 81.00251,-114.34354 v -0.03 l 0.62001,-2.75008 0.33001,-1.49005 -0.68002,-1.38004 -1.25004,-2.48008 C 443.25371,270.59836 444.33374,225.19696 457.08413,193.60598 469.82453,162.065 495.41532,143.02441 514.87592,129.604 l 20.83065,-14.38045 11.57036,-7.98024 -14.06044,0.08 -25.31078,0.19 h -0.02 c -22.5107,0.15001 -46.07143,1.45005 -68.96214,9.74031 -18.77058,6.81021 -36.83114,18.57057 -52.68163,37.22115 C 362.53122,118.47366 361.66119,78.19242 359.31112,34.151057 l -1.19004,-21.950679 z"
     id="path2"
     style="stroke-width:10.0003" />
  <path
     fill="url(#path2989_3_)"
     d="m 198.51614,34.811077 c -2.61008,48.821511 -3.2201,97.243003 -38.8812,139.784323 -33.58104,-49.46153 -76.182358,-54.66169 -120.343724,-54.9417 39.481222,27.26084 111.193444,82.56256 38.831201,226.227 10.610329,46.59144 39.011203,82.86257 76.102353,107.08331 34.95108,23.97075 76.69238,35.17109 118.28366,34.91109 0.22001,0 0.44002,0 0.67002,0 41.64129,0.25 83.44259,-10.97034 118.42367,-35.01109 37.02114,-24.22075 65.36202,-60.45187 75.96235,-106.98331 -72.37224,-143.66444 0.92003,-198.96616 40.40125,-226.227 -44.16137,0.28001 -88.31273,5.48017 -121.89377,54.9417 C 350.42084,132.05408 349.78082,83.632588 347.17074,34.811077 329.40019,59.221833 283.33877,160.72497 326.77011,223.55692 c 37.08115,53.65166 4.99016,111.48345 -52.88163,113.75352 l -1.06004,0.05 -1.04003,-0.05 C 213.91662,335.04037 181.82563,277.20858 218.90677,223.55692 262.34812,160.72497 216.28669,59.221833 198.51614,34.811077 Z"
     id="path15"
     style="fill:url(#path2989_3_);stroke-width:10.0003" />
</svg>
