<?xml version="1.0" encoding="utf-8"?>
<svg xmlns="http://www.w3.org/2000/svg" xmlns:xlink="http://www.w3.org/1999/xlink" version="1.1" x="0px" y="0px" width="897.035px" height="896.997px">
  <path
     d="M 445.42383 0.021484375 C 421.23903 0.24045312 397.08491 2.25975 373.28516 6 C 247.84316 26.476 133.44592 103.83916 67.044922 212.16016 C -8.1540781 331.43716 -20.314453 486.47619 31.685547 617.11719 C 64.005547 699.68019 123.2047 770.47687 195.8457 820.79688 C 293.0447 887.35987 416.96522 910.63638 532.32422 889.35938 C 669.60522 864.31738 791.84419 770.47886 852.24219 644.88086 C 898.56219 551.27886 908.16366 441.59741 884.72266 340.31641 C 855.68366 215.83941 769.285 106.31691 655.125 48.878906 C 590.8035 14.918156 517.97822 -0.63542187 445.42383 0.021484375 z M 559.55078 143.16992 C 616.53409 143.73547 670.1325 170.529 717.27148 200.83789 C 717.26932 200.83548 717.26779 200.83249 717.26562 200.83008 C 717.45663 200.95308 717.65275 201.07522 717.84375 201.19922 C 717.65485 201.07751 717.4606 200.95948 717.27148 200.83789 C 769.4388 258.98484 803.30354 333.60184 809.61328 411.68359 C 810.57428 453.28559 812.81247 495.84238 801.85547 536.48438 C 776.57447 644.16437 698.41413 737.12683 597.45312 781.92383 C 490.61213 830.47383 360.80061 821.10631 260.34961 762.07031 C 248.16961 742.89831 229.64919 724.38181 232.24219 699.75781 C 233.44519 666.23781 269.20312 647.59728 299.20312 646.23828 C 354.64413 639.84028 403.60537 672.559 444.48438 706 C 409.52337 599.757 287.12439 531.83991 178.40039 550.87891 C 226.32239 513.35891 286.1622 491.35891 347.2832 490.87891 C 427.3612 490.31691 504.40191 520.1605 572.00391 561.4375 C 500.32491 447.7575 371.20272 379.91753 241.76172 355.51953 C 266.32372 341.67953 295.92017 344.1605 323.20117 341.4375 C 468.00217 342.4765 603.12491 404.87916 726.00391 476.16016 C 646.00391 338.63616 503.92144 249.19934 355.52344 201.27734 C 496.80444 187.19934 638.00381 235.67991 754.88281 312.87891 C 705.68381 238.71891 634.32391 180.79722 554.00391 143.19922 C 555.85644 143.16175 557.70524 143.15161 559.55078 143.16992 z "
   /></svg>