<?xml version="1.0" encoding="UTF-8" standalone="no"?>
<svg xmlns="http://www.w3.org/2000/svg" version="1.1" width="600" height="547.10577" viewBox="0 0 600 547.10579" id="Layer_1">
  <path d="m 0.1571089,223.10728 c 0.71501212,23.90286 -2.6360096,48.18104 4.7457296,71.30966 4.7057048,35.74929 10.7814305,71.83509 28.7961585,103.66963 20.136522,40.90076 62.51424,76.06395 110.270783,71.90169 38.28963,-1.02126 74.12942,-19.97445 112.86874,-16.95769 19.18096,-0.70025 38.31375,-0.436 57.30924,2.57861 -2.47742,28.43926 12.54204,54.63672 21.9676,79.20787 10.54012,12.31578 27.80841,15.43318 42.19091,9.08669 39.29961,-7.68115 80.12258,-4.53993 118.85589,-16.11016 28.91155,-10.26832 60.98835,-13.35106 85.82575,-31.13192 11.80939,-11.06452 19.27567,-24.77667 16.39232,-41.05248 -9.98064,-26.80753 -23.77116,-51.42943 -40.34693,-74.66473 -7.52987,-22.55967 20.18701,-41.64376 13.99257,-66.0536 -1.23282,-28.47243 -24.58054,-50.96341 -25.85229,-79.84371 -1.40829,-33.78351 -11.36709,-66.83246 -31.0694,-94.53524 C 481.69352,88.447172 439.82827,35.542744 379.29127,13.534507 356.48558,9.2617953 333.63484,2.7140093 310.82341,0.18779611 285.13703,1.1050255 258.91726,-2.9365369 234.10128,5.473422 142.4102,20.932029 61.297015,83.09694 17.244391,164.1835 8.2840388,182.73328 5.6745407,203.44292 0.1571089,223.10728 z" style="fill:#ffffff"/>
  <path d="m 26.522402,268.64833 v -2.4038 c 0,-100.35857 22.770522,-115.04359 73.709188,-165.98225 33.77336,-33.773364 100.09632,-73.709187 165.98224,-73.709187 h 40.74438 c 41.22514,0 92.02176,17.558645 112.66164,40.755301 l 33.55484,31.151033 26.37621,33.565763 26.3653,43.13724 2.39287,2.39288 c 9.03609,18.82611 12.30308,44.43748 14.37908,69.51347 l 9.60427,31.17288 2.39287,2.39288 v 2.39287 l 11.98621,28.76909 c 10.13965,15.97433 -16.78288,41.55293 -16.78288,69.51346 v 2.39288 c 0,8.2494 43.14818,48.66599 43.14818,79.09587 v 4.79668 c 0,13.12255 -34.95342,22.87978 -47.93393,23.96149 v -7.18954 c 0,-6.47933 -1.14726,-6.61044 -2.40379,-11.98621 l -12.09548,1.75914 8.14014,17.04512 c -5.41948,7.23324 -27.74201,14.77243 -36.77811,14.77243 h -2.39288 c -9.23277,0 -8.97053,-8.10736 -11.98621,-14.39001 h -9.57148 l 2.9829,19.07741 c -10.20522,0.89597 -32.96482,1.46413 -43.36671,3.13587 -14.78335,2.34916 -14.7615,-4.99335 -14.7615,-24.61708 h -7.18954 c -5.53967,0 -7.18954,1.67173 -7.18954,7.20047 v 19.17575 c -8.92683,2.076 -17.89737,4.78574 -28.75816,4.78574 -1.27839,0 -5.26651,-3.4418 -7.18955,-4.78574 v -14.39001 c -15.30783,-10.24892 -10.04131,-24.86838 -13.78905,-43.74912 -6.67601,-33.69688 -13.43942,-18.05034 -29.35912,-28.14629 -7.50641,-0.63372 -8.51164,-2.4038 -16.78288,-2.4038 h -47.93392 c -15.31874,0 -18.24701,4.79667 -33.56576,4.79667 -0.2513,0.10927 -54.31491,11.98621 -55.12346,11.98621 h -23.97242 c -13.67979,0 -23.85223,-3.24512 -31.16196,-9.58241 C 83.962247,425.1028 62.49196,406.63726 57.706217,386.10664 l -16.804733,-40.75531 -2.392871,-7.20046 v -2.39288 l -9.59334,-50.3377 -2.392871,-16.77196 0,0 z"/>
  <path d="m 467.54284,196.73106 -2.39287,2.4038 -2.41473,2.38195 -4.78574,4.78574 c -3.49643,5.23373 -7.17861,10.22706 -7.17861,19.1976 0,18.36721 18.62943,29.31541 31.15104,35.94771 2.33824,1.23468 14.26982,9.58241 14.37908,9.58241 7.58288,0 8.17291,-5.91115 9.58241,-11.98621 v -4.78574 l 2.39287,-4.8076 c 0,-25.79712 -3.05937,-57.51633 -26.36529,-57.51633 -4.62185,0.0109 -7.77956,3.26698 -14.36816,4.79667 z" id="_287321336_4_" style="fill:#ffffff"/>
  <path d="m 467.54284,278.24166 -7.18954,4.78575 -2.4038,38.35151 -11.96436,38.3515 c 1.49692,18.06127 21.89642,0.0655 38.34058,31.16196 11.14488,-2.60047 26.37622,-15.39523 26.37622,-28.76909 v -7.20046 c 0,-8.26034 -1.781,-9.27649 -2.4038,-16.77196 l -9.57148,-40.74437 c -2.30546,-3.45274 -18.03941,-21.57956 -21.57955,-21.57956 -5.10261,0.0109 -3.16864,0.87411 -9.60427,2.41472 z" id="_287325080_4_" style="fill:#ffffff"/>
  <path d="m 268.59579,306.99983 c 1.2893,15.36246 18.62942,36.35199 28.78001,43.14818 5.29928,2.79714 11.69119,7.18953 19.16482,7.18953 h 4.78575 c 47.90114,0 70.26738,-16.92491 86.28542,-50.33771 v -2.39287 -2.40379 c 0,-29.12967 -9.03609,-53.10209 -26.3653,-64.69496 -7.62659,-5.13538 -13.38478,-9.60425 -26.37622,-9.60425 h -2.38194 c -45.65031,-0.0109 -83.89254,31.44604 -83.89254,79.09587 z" id="_287324960_4_" style="fill:#ffffff"/>
</svg>
