<?xml version="1.0" encoding="UTF-8" standalone="no"?>
<svg xmlns="http://www.w3.org/2000/svg" xmlns:xlink="http://www.w3.org/1999/xlink" version="1.1" width="600" height="547.09589" viewBox="0 0 600 547.09587" id="Layer_1">
  <linearGradient x1="707.62292" y1="43.601013" x2="982.84595" y2="543.60101" id="linearGradient3846" xlink:href="#SVGID_4_" gradientUnits="userSpaceOnUse" gradientTransform="matrix(0.99870501,0,0,0.99870501,-546.35767,0.18777346)"/>
  <linearGradient x1="49.6255" y1="-314.39969" x2="50.875801" y2="-314.39969" id="SVGID_4_" gradientUnits="userSpaceOnUse" gradientTransform="matrix(22.793,39.4786,-39.4786,22.793,-13530.904,5209.8652)">
    <stop style="stop-color:#8b723c" offset="0"/>
    <stop style="stop-color:#d2bb7b" offset="0.3"/>
    <stop style="stop-color:#ebd491" offset="0.5"/>
    <stop style="stop-color:#d2bb7b" offset="0.7"/>
    <stop style="stop-color:#8b723c" offset="1"/>
  </linearGradient>
  <path d="m 0.15713674,223.10314 c 0.71494701,23.89973 -2.63596424,48.1747 4.74564226,71.3003 4.7045356,35.74787 10.782482,71.83158 28.795627,103.66484 20.136152,40.9 62.513088,76.06253 110.268754,71.90036 38.28896,-1.02127 74.12815,-19.9741 112.8668,-16.95738 19.18114,-0.70188 38.31375,-0.43579 57.30803,2.58949 -2.48219,28.44093 12.56167,54.62603 21.97813,79.20009 10.53449,12.31681 27.79923,15.44271 42.17965,9.09285 39.30164,-7.68005 80.12598,-4.54121 118.86152,-16.10987 28.9115,-10.26541 60.98582,-13.35198 85.82329,-31.13135 11.81153,-11.06312 19.2794,-24.7753 16.39556,-41.05172 -9.9757,-26.81313 -23.77907,-51.43115 -40.34772,-74.67411 -7.52842,-22.55751 20.18642,-41.63553 13.99384,-66.04169 -1.21835,-28.47776 -24.59617,-50.95867 -25.85985,-79.84217 -1.40836,-33.78331 -11.3658,-66.83444 -31.06621,-94.53821 C 481.68902,88.450283 439.83417,35.532048 379.29536,13.543239 356.48332,9.2642975 333.62604,2.7129977 310.80671,0.18777346 285.12387,1.1042477 258.90803,-2.9367107 234.09699,5.4773946 142.40875,20.940592 61.296292,83.107565 17.244103,164.19291 8.2836305,182.73803 5.6730448,203.4428 0.15713674,223.10314 z"/>
  <path d="m 26.522397,268.64327 v -2.4038 c 0,-100.35855 22.770514,-115.04357 73.709163,-165.98222 33.77337,-33.773351 100.09632,-73.709167 165.98225,-73.709167 h 40.74437 c 41.22514,0 92.02167,17.558642 112.66161,40.755293 l 33.55479,31.151028 26.3763,33.565756 26.36521,43.13723 2.3929,2.39288 c 9.03608,18.82611 12.30305,44.43747 14.37906,69.51345 l 9.60434,31.17288 2.3928,2.39288 v 2.39287 l 11.98626,28.76909 c 10.13965,15.97433 -16.78294,41.55292 -16.78294,69.51346 v 2.39287 c 0,8.2494 43.14825,48.66598 43.14825,79.09586 v 4.79667 c 0,13.12256 -34.95348,22.87977 -47.93395,23.96148 v -7.18953 c 0,-6.47932 -1.14731,-6.61043 -2.40378,-11.9862 l -12.09551,1.75914 8.14014,17.0451 c -5.41947,7.23324 -27.74203,14.77243 -36.77811,14.77243 h -2.3929 c -9.23273,0 -8.97047,-8.10736 -11.98616,-14.39001 h -9.57158 l 2.98303,19.07741 c -10.20527,0.89597 -32.96486,1.46413 -43.36677,3.13586 -14.78333,2.34917 -14.76156,-4.99334 -14.76156,-24.61706 h -7.18948 c -5.53971,0 -7.18957,1.67173 -7.18957,7.20046 v 19.17575 c -8.92683,2.076 -17.8974,4.78574 -28.75811,4.78574 -1.27835,0 -5.26648,-3.4418 -7.18958,-4.78574 v -14.39001 c -15.30775,-10.24892 -10.04128,-24.86836 -13.78902,-43.7491 -6.67605,-33.69688 -13.43938,-18.05033 -29.35913,-28.14628 -7.50637,-0.63373 -8.51157,-2.40381 -16.78284,-2.40381 h -47.93393 c -15.31874,0 -18.24701,4.79667 -33.56575,4.79667 -0.25132,0.10927 -54.31491,11.98621 -55.12346,11.98621 h -23.97241 c -13.6798,0 -23.85224,-3.24512 -31.16196,-9.58241 -16.892133,-8.94868 -38.362423,-27.41421 -43.148168,-47.94483 l -16.80473,-40.7553 -2.392867,-7.20046 v -2.39288 l -9.593341,-50.33771 -2.392867,-16.77195 0,0 z" style="fill:url(#linearGradient3846)"/>
  <g transform="matrix(10.926153,0,0,10.926153,0.15713674,0.18777417)" id="_287324792_3_">
    <path d="m 42.776,17.988 -0.219,0.22 -0.221,0.218 -0.438,0.438 c -0.319,0.479 -0.657,0.936 -0.657,1.757 0,1.681 1.705,2.684 2.852,3.29 0.214,0.113 1.306,0.877 1.316,0.877 0.693,0 0.748,-0.541 0.877,-1.097 v -0.438 l 0.219,-0.439 c 0,-2.361 -0.28,-5.265 -2.414,-5.265 -0.423,0.001 -0.712,0.299 -1.315,0.439 z" id="_287321336_3_"/>
    <path d="m 42.776,25.448 -0.658,0.438 -0.22,3.511 -1.095,3.51 c 0.137,1.653 2.004,0.006 3.509,2.852 1.021,-0.237 2.414,-1.408 2.414,-2.633 v -0.659 c 0,-0.756 -0.163,-0.849 -0.22,-1.534 l -0.877,-3.729 c -0.211,-0.316 -1.65,-1.975 -1.975,-1.975 -0.466,-10e-4 -0.288,0.078 -0.878,0.219 z" id="_287325080_3_"/>
    <path d="m 24.568,28.08 c 0.118,1.406 1.705,3.327 2.634,3.949 0.485,0.256 1.07,0.658 1.753,0.658 h 0.438 c 4.384,0 6.431,-1.549 7.897,-4.607 v -0.219 -0.22 c 0,-2.666 -0.828,-4.86 -2.414,-5.921 -0.697,-0.471 -1.225,-0.88 -2.414,-0.88 h -0.217 c -4.177,0 -7.677,2.879 -7.677,7.24 z" id="_287324960_3_"/>
  </g>
</svg>
