<?xml version="1.0" encoding="UTF-8" standalone="no"?>
<svg xmlns="http://www.w3.org/2000/svg" version="1.1" width="600" height="547.10577">
  <path d="M 266.21289 26.552734 C 200.32697 26.552734 134.00578 66.488353 100.23242 100.26172 C 49.29376 151.20038 26.521484 165.88557 26.521484 266.24414 L 26.521484 268.64844 L 28.916016 285.41992 L 38.507812 335.75781 L 38.507812 338.15039 L 40.902344 345.35156 L 57.707031 386.10742 C 62.492774 406.63804 83.961365 425.1021 100.85352 434.05078 C 108.16325 440.38807 118.33584 443.63477 132.01562 443.63477 L 155.98828 443.63477 C 156.79683 443.63477 210.86003 431.75771 211.11133 431.64844 C 226.43008 431.64844 229.35899 426.85156 244.67773 426.85156 L 292.61133 426.85156 C 300.88257 426.85156 301.88812 428.62019 309.39453 429.25391 C 325.31423 439.34986 332.0779 423.70351 338.75391 457.40039 C 342.50165 476.28113 337.23514 490.90147 352.54297 501.15039 L 352.54297 515.54102 C 354.46601 516.88496 358.45403 520.32617 359.73242 520.32617 C 370.59321 520.32617 379.5634 517.61702 388.49023 515.54102 L 388.49023 496.36523 C 388.49023 490.83649 390.14002 489.16406 395.67969 489.16406 L 402.86914 489.16406 C 402.86914 508.78779 402.84751 516.13041 417.63086 513.78125 C 428.03275 512.10951 450.79283 511.5405 460.99805 510.64453 L 458.01562 491.56836 L 467.58594 491.56836 C 470.60162 497.85101 470.3395 505.95703 479.57227 505.95703 L 481.96484 505.95703 C 491.00094 505.95703 513.32466 498.41879 518.74414 491.18555 L 510.60352 474.14062 L 522.69922 472.38086 C 523.95575 477.75663 525.10352 477.88786 525.10352 484.36719 L 525.10352 491.55664 C 538.08403 490.47493 573.03711 480.71825 573.03711 467.5957 L 573.03711 462.79883 C 573.03711 432.36895 529.88867 391.95254 529.88867 383.70312 L 529.88867 381.31055 C 529.88867 353.35002 556.81151 327.77121 546.67188 311.79688 L 534.68555 283.02734 L 534.68555 280.63477 L 532.29297 278.24219 L 522.6875 247.06836 C 520.6115 221.99237 517.34468 196.3808 508.30859 177.55469 L 505.91602 175.16211 L 479.55078 132.02539 L 453.17383 98.458984 L 419.61914 67.308594 C 398.97926 44.111938 348.18412 26.552734 306.95898 26.552734 L 266.21289 26.552734 z M 481.91016 191.93359 C 505.21608 191.93359 508.27539 223.65405 508.27539 249.45117 L 505.88281 254.25781 L 505.88281 259.04492 C 504.47331 265.11998 503.88366 271.0293 496.30078 271.0293 C 496.19152 271.0293 484.26009 262.68195 481.92188 261.44727 C 469.40026 254.81497 450.77148 243.86721 450.77148 225.5 C 450.77148 216.52946 454.45279 211.53646 457.94922 206.30273 L 462.73438 201.51758 L 465.15039 199.13477 L 467.54297 196.73047 C 474.13157 195.20078 477.28831 191.94449 481.91016 191.93359 z M 352.48828 227.9043 L 354.87109 227.9043 C 367.86253 227.9043 373.6195 232.37243 381.24609 237.50781 C 398.5753 249.10068 407.61133 273.07346 407.61133 302.20312 L 407.61133 304.60742 L 407.61133 307 C 391.59329 340.4128 369.22731 357.33789 321.32617 357.33789 L 316.54102 357.33789 C 309.06739 357.33789 302.67428 352.94558 297.375 350.14844 C 287.22441 343.35225 269.885 322.36246 268.5957 307 C 268.5957 259.35017 306.83797 227.8934 352.48828 227.9043 z M 477.14648 275.82617 C 480.68662 275.82617 496.4211 293.95351 498.72656 297.40625 L 508.29883 338.15039 C 508.92163 345.64586 510.70117 346.66153 510.70117 354.92188 L 510.70117 362.12305 C 510.70117 375.49691 495.47105 388.29211 484.32617 390.89258 C 467.88201 359.79612 447.48128 377.79174 445.98438 359.73047 L 457.94922 321.37891 L 460.35352 283.02734 L 467.54297 278.24219 C 473.9786 276.70158 472.04387 275.83707 477.14648 275.82617 z "/>
</svg>
