<?xml version="1.0" encoding="UTF-8" standalone="no"?>
<svg xmlns="http://www.w3.org/2000/svg" version="1.1" width="600" height="542.31592">
  <path d="m 304.89447,16.10702 -103.58385,99.5571 c 0,0 -2.60316,70.01401 -4.71822,127.43255 -19.22538,-34.00371 -44.00958,-77.85059 -44.00958,-77.85059 L 39.67099,141.61431 0,247.48949 c 0,0 78.853889,146.2783 97.442039,180.75654 -39.874362,3.18615 -64.400958,13.24626 -75.99313,31.08872 -4.867357,7.47051 -6.670584,15.14439 -6.670584,21.97767 0,5.55882 1.165996,10.5482 2.914991,14.52072 l 7.307814,16.45953 18.005152,-2.06083 c 35.318841,-4.02675 100.465498,-6.19605 124.666698,5.35545 38.03046,18.10006 81.03674,38.5999 146.441,18.31699 49.45993,-15.36133 92.90008,-19.33385 122.28047,-11.17187 16.85271,4.71821 41.79961,5.87065 74.14923,3.44375 12.02603,-0.90893 22.7776,-2.07439 29.66511,-2.96922 4.23013,-0.58354 7.83658,-1.0033 10.95495,-1.5863 C 570.97212,519.98011 600,505.20179 600,470.66932 c 0,-30.13965 -31.61748,-56.40169 -49.20233,-68.63109 14.77832,-19.71347 36.5933,-48.83626 36.5933,-48.83626 l -8.41958,-103.90925 -100.46549,8.6365 c 0,0 -18.80508,20.86591 -28.17373,31.29209 3.38953,-64.87549 8.36535,-161.53116 8.36535,-161.53116 L 321.69295,0 304.89447,16.10702 z" style="fill:#ffffff"/>
  <path d="m 461.92435,391.23243 13.24626,15.14439 52.95792,-64.29249 -0.94907,-28.33642 -65.25511,77.48452 z M 119.63664,227.68111 83.680571,221.06476 174.45203,395.04225 c 0,0 32.14624,18.89999 28.39065,-18.91354 l -83.20604,-148.4476 z m 279.85267,-70.90884 -28.33642,-28.39066 -17.00185,268.57234 c 0,0 3.71492,35.90184 32.09201,28.37709 L 399.48931,156.77227 z M 130.97121,438.5773 26.953496,245.68626 55.34415,170.00497 l 81.29435,17.00185 81.34857,143.74294 7.52475,-204.22561 96.49297,-92.68314 111.54246,104.01771 -11.3888,219.37 68.15655,-75.62706 66.14995,-5.72152 5.72152,70.01401 -51.11402,68.04809 18.91354,3.76915 c 0,0 45.37895,28.39066 45.37895,52.95793 0,24.6215 -26.42473,26.53319 -26.42473,26.53319 0,0 -71.91214,11.28034 -105.97008,1.85746 -34.00371,-9.43644 -81.29435,-5.66728 -136.16397,11.33457 -54.81538,17.05608 -88.81909,1.89813 -128.58498,-17.00185 -39.72522,-18.91355 -138.021424,-7.57898 -138.021424,-7.57898 0,0 -15.144394,-34.00371 86.961634,-34.00371 0,0 5.66728,-11.37524 3.80982,-13.2327"/>
</svg>
