<?xml version="1.0" encoding="UTF-8" standalone="no"?>
<svg xmlns="http://www.w3.org/2000/svg" version="1.1" width="600" height="542.36493">
  <radialGradient cx="0" cy="0" r="1" fx="0" fy="0" id="radialGradient836" gradientUnits="userSpaceOnUse" gradientTransform="matrix(18.462723,0,0,-18.462723,748.1123,34.435547)" spreadMethod="pad">
    <stop style="stop-color:#ebd491" offset="0"/>
    <stop style="stop-color:#d2bb7b" offset="0.7"/>
    <stop style="stop-color:#8b723c" offset="1"/>
  </radialGradient>
  <path d="m 304.92203,16.10848 -103.64745,99.5661 c 0,0 -2.54916,70.02034 -4.66441,127.44407 -19.22712,-34.00678 -44.0678,-77.85763 -44.0678,-77.85763 L 39.674576,141.62712 0,247.51187 c 0,0 78.861017,146.29152 97.450847,180.77288 -39.932203,3.18644 -64.406779,13.24746 -76,31.09153 -4.867796,7.47118 -6.671186,15.14576 -6.671186,21.97966 0,5.55932 1.166102,10.54915 2.915254,14.52203 l 7.308475,16.46102 18.006779,-2.06102 c 35.322034,-4.02712 100.420341,-6.19661 124.623731,5.35593 38.0339,18.1017 81.0983,38.60339 146.50847,18.31865 49.46441,-15.36272 92.90848,-19.3356 122.29153,-11.17288 16.85424,4.71864 41.80339,5.87118 74.10169,3.44406 12.02712,-0.90901 22.8339,-2.07457 29.72204,-2.96949 4.23051,-0.58359 7.83729,-1.00339 10.90169,-1.58644 C 571.02373,520.02712 600,505.24746 600,470.71187 c 0,-30.14237 -31.5661,-56.40678 -49.20678,-68.63729 14.8339,-19.71525 36.65085,-48.84068 36.65085,-48.84068 l -8.42034,-103.91864 -100.47458,8.63729 c 0,0 -18.80678,20.86779 -28.17627,31.29491 3.33559,-64.88135 8.3661,-161.54576 8.3661,-161.54576 L 321.72203,0 l -16.8,16.10848 z" style="fill:#ffffff"/>
  <path d="m 461.9661,391.2678 13.19322,15.14576 52.96271,-64.2983 -0.89491,-28.33898 -65.26102,77.49152 z M 119.59322,227.7017 83.688136,221.08475 174.4678,395.07797 c 0,0 32.14915,18.9017 28.39322,-18.91525 L 119.59322,227.7017 z m 279.9322,-70.91525 -28.33898,-28.39323 -17.05763,268.59661 c 0,0 3.7695,35.90509 32.14916,28.37967 L 399.52542,156.78645 z M 130.98305,438.61695 26.955932,245.70848 l 28.338983,-75.68814 81.355935,17.00339 81.30169,143.75594 7.57966,-204.24407 96.44746,-92.69153 111.60678,104.02712 -11.38983,219.38983 68.10847,-75.6339 66.21017,-5.72203 5.6678,70.02034 -51.06441,68.05424 18.91526,3.76949 c 0,0 45.38305,28.39322 45.38305,52.96271 0,24.62373 -26.48136,26.53559 -26.48136,26.53559 0,0 -71.8644,11.28136 -105.92542,1.85763 -34.00678,-9.43729 -81.3017,-5.6678 -136.17627,11.33559 -54.82034,17.05763 -88.88136,1.89831 -128.59661,-17.00339 -39.72882,-18.91525 -138.0339,-7.57966 -138.0339,-7.57966 0,0 -15.145763,-34.00678 86.96949,-34.00678 0,0 5.6678,-11.37627 3.81017,-13.2339" style="fill:#8b723c"/>
  <g transform="matrix(13.559322,0,0,-13.559322,-9842.3729,744.17628)">
    <path d="m 743.047,45.309 -0.551,-14.84 -0.066,-1.942 -0.957,1.692 -5.875,10.386 -5.297,1.106 -1.836,-4.906 7.523,-13.957 c 0.172,-0.227 0.223,-0.602 -0.242,-1.532 l 0,0 -0.148,-0.304 -0.34,0 c -4.434,0 -5.535,-0.891 -5.805,-1.27 l 0,0 c -0.015,-0.027 -0.031,-0.054 -0.051,-0.082 l 0,0 c 0.825,0.074 2.352,0.192 4.024,0.192 l 0,0 c 2.672,0 4.633,-0.293 5.832,-0.864 l 0,0 c 1.804,-0.859 3.676,-1.746 5.91,-1.746 l 0,0 c 1.008,0 2.043,0.168 3.176,0.52 l 0,0 c 2.64,0.82 5.051,1.234 7.164,1.234 l 0,0 c 1.172,0 2.25,-0.133 3.187,-0.391 l 0,0 c 0.614,-0.171 1.485,-0.257 2.586,-0.257 l 0,0 c 2.364,0 4.965,0.406 5.035,0.414 l 0,0 c 0.153,0.011 1.446,0.156 1.446,1.402 l 0,0 c 0,1.07 -1.809,2.621 -3.004,3.391 l 0,0 -1.297,0.254 -0.859,0.171 0.527,0.7 3.641,4.855 -0.36,4.403 -4.109,-0.352 -4.875,-5.418 -1.043,-1.152 0.082,1.546 0.824,15.922 -7.66,7.145 -6.582,-6.32 z m 8.394,-19.668 1.254,19.804 0.078,1.215 0.864,-0.859 2.09,-2.09 0.171,-0.172 -0.011,-0.246 -0.977,-19.809 -0.019,-0.398 -0.387,-0.106 c -0.238,-0.062 -0.469,-0.093 -0.692,-0.093 l 0,0 c -1.652,0 -2.269,1.742 -2.371,2.754 m -12.98,-0.368 -0.137,0.079 -0.07,0.14 -6.695,12.832 -0.524,0.996 1.11,-0.203 2.652,-0.484 0.254,-0.047 0.125,-0.227 6.136,-10.949 0.055,-0.101 0.012,-0.114 c 0.09,-0.875 -0.047,-1.496 -0.414,-1.902 l 0,0 c -0.266,-0.293 -0.637,-0.449 -1.07,-0.449 l 0,0 c -0.692,0 -1.36,0.386 -1.434,0.429 m 22.043,-0.726 -0.973,1.117 -0.308,0.356 0.3,0.363 4.813,5.715 0.922,1.097 0.047,-1.433 0.066,-2.094 0.012,-0.207 -0.137,-0.16 -3.902,-4.742 -0.41,-0.5 -0.43,0.488 z" style="fill:url(#radialGradient836)"/>
  </g>
</svg>
