<?xml version="1.0" encoding="UTF-8" standalone="no"?>
<svg xmlns="http://www.w3.org/2000/svg" version="1.1" width="600" height="542.31592">
  <radialGradient cx="0" cy="0" r="1" fx="0" fy="0" id="radialGradient820" gradientUnits="userSpaceOnUse" gradientTransform="matrix(18.46318,0,0,-18.46318,665.61426,34.43457)" spreadMethod="pad">
    <stop style="stop-color:#bf99c3" offset="0"/>
    <stop style="stop-color:#7b5190" offset="0.66291797"/>
    <stop style="stop-color:#612c75" offset="1"/>
  </radialGradient>
  <path d="m 304.89447,16.10702 -103.58385,99.5571 c 0,0 -2.60316,70.01401 -4.71822,127.43255 -19.22538,-34.00371 -44.00958,-77.85059 -44.00958,-77.85059 L 39.67099,141.61431 0,247.48949 c 0,0 78.853889,146.2783 97.442039,180.75654 -39.874362,3.18615 -64.400958,13.24626 -75.99313,31.08872 -4.867357,7.47051 -6.670584,15.14439 -6.670584,21.97767 0,5.55882 1.165996,10.5482 2.914991,14.52072 l 7.307814,16.45953 18.005152,-2.06083 c 35.318841,-4.02675 100.465498,-6.19605 124.666698,5.35545 38.03046,18.10006 81.03674,38.5999 146.441,18.31699 49.45993,-15.36133 92.90008,-19.33385 122.28047,-11.17187 16.85271,4.71821 41.79961,5.87065 74.14923,3.44375 12.02603,-0.90893 22.7776,-2.07439 29.66511,-2.96922 4.23013,-0.58354 7.83658,-1.0033 10.95495,-1.5863 C 570.97212,519.98011 600,505.20179 600,470.66932 c 0,-30.13965 -31.61748,-56.40169 -49.20233,-68.63109 14.77832,-19.71347 36.5933,-48.83626 36.5933,-48.83626 l -8.41958,-103.90925 -100.46549,8.6365 c 0,0 -18.80508,20.86591 -28.17373,31.29209 3.38953,-64.87549 8.36535,-161.53116 8.36535,-161.53116 L 321.69295,0 304.89447,16.10702 z" style="fill:#ffffff"/>
  <path d="m 461.92435,391.23243 13.24626,15.14439 52.95792,-64.29249 -0.94907,-28.33642 -65.25511,77.48452 z M 119.63664,227.68111 83.680571,221.06476 174.45203,395.04225 c 0,0 32.14624,18.89999 28.39065,-18.91354 l -83.20604,-148.4476 z m 279.85267,-70.90884 -28.33642,-28.39066 -17.00185,268.57234 c 0,0 3.71492,35.90184 32.09201,28.37709 L 399.48931,156.77227 z M 130.97121,438.5773 26.953496,245.68626 55.34415,170.00497 l 81.29435,17.00185 81.34857,143.74294 7.52475,-204.22561 96.49297,-92.68314 111.54246,104.01771 -11.3888,219.37 68.15655,-75.62706 66.14995,-5.72152 5.72152,70.01401 -51.11402,68.04809 18.91354,3.76915 c 0,0 45.37895,28.39066 45.37895,52.95793 0,24.6215 -26.42473,26.53319 -26.42473,26.53319 0,0 -71.91214,11.28034 -105.97008,1.85746 -34.00371,-9.43644 -81.29435,-5.66728 -136.16397,11.33457 -54.81538,17.05608 -88.81909,1.89813 -128.58498,-17.00185 -39.72522,-18.91355 -138.021424,-7.57898 -138.021424,-7.57898 0,0 -15.144394,-34.00371 86.961634,-34.00371 0,0 5.66728,-11.37524 3.80982,-13.2327" style="fill:#612c75"/>
  <g transform="matrix(13.558096,0,0,-13.558096,-8722.9403,744.109)">
    <path d="M 660.551,45.309 660,30.469 l -0.07,-1.942 -0.957,1.692 -5.875,10.383 -5.293,1.109 -1.84,-4.91 7.519,-13.949 c 0.176,-0.223 0.235,-0.598 -0.238,-1.536 l 0,0 -0.152,-0.304 -0.336,0 c -4.43,0 -5.535,-0.891 -5.805,-1.27 l 0,0 c -0.019,-0.027 -0.031,-0.054 -0.047,-0.082 l 0,0 c 0.821,0.074 2.344,0.188 4.02,0.188 l 0,0 c 2.668,0 4.629,-0.289 5.832,-0.86 l 0,0 c 1.804,-0.859 3.672,-1.75 5.906,-1.75 l 0,0 c 1.008,0 2.047,0.172 3.18,0.524 l 0,0 c 2.644,0.82 5.054,1.234 7.168,1.234 l 0,0 c 1.172,0 2.246,-0.129 3.183,-0.391 l 0,0 c 0.617,-0.171 1.489,-0.257 2.59,-0.257 l 0,0 c 2.363,0 4.965,0.406 5.031,0.414 l 0,0 c 0.149,0.011 1.45,0.156 1.45,1.406 l 0,0 c 0,1.066 -1.813,2.617 -3.008,3.383 l 0,0 -1.297,0.261 -0.856,0.172 0.528,0.7 3.64,4.851 -0.359,4.403 -4.113,-0.352 -4.879,-5.422 -1.035,-1.152 0.078,1.55 0.824,15.926 -7.66,7.141 -6.578,-6.32 z m 8.394,-19.668 1.254,19.804 0.078,1.215 0.86,-0.859 2.093,-2.09 0.172,-0.172 -0.011,-0.246 -0.977,-19.809 -0.019,-0.398 -0.387,-0.106 c -0.242,-0.062 -0.477,-0.093 -0.692,-0.093 l 0,0 c -1.652,0 -2.273,1.742 -2.371,2.754 m -12.98,-0.368 -0.141,0.079 -0.07,0.14 -6.695,12.832 -0.52,0.996 1.106,-0.203 2.652,-0.484 0.254,-0.047 0.125,-0.227 6.136,-10.949 0.055,-0.101 0.016,-0.114 c 0.09,-0.875 -0.047,-1.496 -0.414,-1.902 l 0,0 c -0.266,-0.289 -0.637,-0.445 -1.078,-0.445 l 0,0 c -0.688,0 -1.356,0.379 -1.426,0.425 m 22.043,-0.726 -0.981,1.117 -0.308,0.356 0.304,0.359 4.817,5.719 0.922,1.097 0.047,-1.433 0.066,-2.098 0.004,-0.203 -0.129,-0.16 -3.906,-4.742 -0.41,-0.5 -0.426,0.488 z" style="fill:url(#radialGradient820)"/>
  </g>
</svg>
