<?xml version="1.0" encoding="UTF-8" standalone="no"?>
<svg xmlns="http://www.w3.org/2000/svg" version="1.1" width="600" height="542.31592">
  <path d="m 461.92435,391.23243 13.24626,15.14439 52.95792,-64.29249 -0.94907,-28.33642 -65.25511,77.48452 z M 119.63664,227.68111 83.680571,221.06476 174.45203,395.04225 c 0,0 32.14624,18.89999 28.39065,-18.91354 l -83.20604,-148.4476 z m 279.85267,-70.90884 -28.33642,-28.39066 -17.00185,268.57234 c 0,0 3.71492,35.90184 32.09201,28.37709 L 399.48931,156.77227 z M 130.97121,438.5773 26.953496,245.68626 55.34415,170.00497 l 81.29435,17.00185 81.34857,143.74294 7.52475,-204.22561 96.49297,-92.68314 111.54246,104.01771 -11.3888,219.37 68.15655,-75.62706 66.14995,-5.72152 5.72152,70.01401 -51.11402,68.04809 18.91354,3.76915 c 0,0 45.37895,28.39066 45.37895,52.95793 0,24.6215 -26.42473,26.53319 -26.42473,26.53319 0,0 -71.91214,11.28034 -105.97008,1.85746 -34.00371,-9.43644 -81.29435,-5.66728 -136.16397,11.33457 -54.81538,17.05608 -88.81909,1.89813 -128.58498,-17.00185 -39.72522,-18.91355 -138.021424,-7.57898 -138.021424,-7.57898 0,0 -15.144394,-34.00371 86.961634,-34.00371 0,0 5.66728,-11.37524 3.80982,-13.2327"/>
</svg>
