<?xml version="1.0" encoding="UTF-8" standalone="no"?>
<svg xmlns="http://www.w3.org/2000/svg" xmlns:xlink="http://www.w3.org/1999/xlink" version="1.1" width="600" height="452.99921">
  <linearGradient x1="0" y1="0" x2="1" y2="0" id="linearGradient254" gradientUnits="userSpaceOnUse" gradientTransform="matrix(49.701172,0,0,-49.701172,207.09326,434.3457)" spreadMethod="pad">
    <stop style="stop-color:#bf331c" offset="0"/>
    <stop style="stop-color:#d3641c" offset="0.3"/>
    <stop style="stop-color:#f6b91d" offset="0.5"/>
    <stop style="stop-color:#d3641c" offset="0.7"/>
    <stop style="stop-color:#bf331c" offset="1"/>
  </linearGradient>
  <linearGradient x1="0" y1="0" x2="1" y2="0" id="linearGradient2997" xlink:href="#linearGradient254" gradientUnits="userSpaceOnUse" gradientTransform="matrix(49.701172,0,0,-49.701172,207.09326,434.3457)" spreadMethod="pad"/>
  <linearGradient x1="0" y1="0" x2="1" y2="0" id="linearGradient3000" xlink:href="#linearGradient254" gradientUnits="userSpaceOnUse" gradientTransform="matrix(562.86477,0,0,562.86477,18.569885,226.48053)" spreadMethod="pad"/>
  <path d="m 201.98631,452.9992 c -4.99432,0 -9.90936,-2.02717 -13.53335,-5.83237 -18.44839,-19.51294 -28.09728,-43.75972 -33.04629,-61.58524 -16.4099,6.01357 -32.87642,9.07131 -49.15042,9.07131 -61.981605,0 -99.489939,-43.62382 -101.0414612,-45.48112 -6.5005385,-7.68966 -6.5911383,-20.03389 0.9739483,-26.76092 3.7598933,-3.31822 8.2672359,-5.08492 12.6953029,-5.08492 4.292167,0 8.493735,1.6308 11.857254,4.99432 2.038496,0.97394 9.422383,3.89579 25.03953,3.89579 14.156225,0 35.390562,-4.99432 52.423326,-18.93537 21.27964,-17.42914 32.07234,-44.90354 32.07234,-81.66443 0,-35.83223 -11.46088,-62.54786 -34.06554,-79.41076 -17.519734,-13.13697 -38.572872,-17.78021 -51.313474,-17.78021 -14.337425,0 -28.890024,6.10416 -29.025924,6.14946 -2.38957,0.97395 -4.824441,1.46092 -7.247987,1.46092 -6.104164,0 -12.0384536,-3.01244 -15.5718474,-8.35783 -4.9150413,-7.51979 -3.80519322,-17.42915 2.6953452,-23.62391 30.5661212,-29.2864 64.4051612,-44.1108 100.5997872,-44.1108 18.98067,0 35.43587,4.24687 47.94997,9.02601 C 163.45873,31.5061 185.48581,7.21402 186.64096,5.97959 190.21966,2.0838 195.21397,0 200.31021,0 c 2.87655,0 5.83237,0.66772 8.53904,2.0838 7.42918,3.85049 11.35895,12.20833 9.59226,20.44159 -13.36348,61.87969 8.53903,98.07433 28.40305,117.22487 11.0192,-41.14366 29.77337,-64.14469 53.17078,-64.14469 23.40873,0 42.1176,23.00103 53.1368,64.14469 19.86402,-19.15054 41.7552,-55.34518 28.40305,-117.22487 -1.77802,-8.23326 2.16307,-16.5911 9.63756,-20.44159 C 393.88809,0.66818 396.80994,0 399.73178,0 c 5.08492,0 10.04526,2.0385 13.66925,5.97959 1.15515,1.23443 23.18224,25.52651 32.33282,62.98954 12.52543,-4.77914 28.98063,-9.02601 47.96129,-9.02601 36.13801,0 70.02235,14.8244 100.5998,44.1108 6.45524,6.19476 7.56508,16.10412 2.65004,23.62391 -3.53339,5.34539 -9.42238,8.35783 -15.57184,8.35783 -2.38957,0 -4.86975,-0.48652 -7.21402,-1.46092 -0.12502,-0.0453 -14.68849,-6.14946 -29.05989,-6.14946 -12.69531,0 -33.75977,4.64324 -51.31349,17.78021 -22.57068,16.8629 -34.06554,43.57853 -34.06554,79.41076 0,36.76089 10.83801,64.23529 32.07235,81.66443 17.07806,13.94105 38.2671,18.93537 52.46863,18.93537 15.57184,0 23.00103,-2.92185 24.99423,-3.89579 3.36352,-3.36352 7.56508,-4.99432 11.85725,-4.99432 4.46204,0 8.98071,1.7667 12.7406,5.08492 7.56509,6.72703 7.47449,19.07126 0.92865,26.76092 -1.50622,1.8573 -39.02588,45.48112 -100.99617,45.48112 -16.33062,0 -32.78582,-3.05774 -49.19571,-9.07131 -4.96034,17.82552 -14.5979,42.0723 -33.04629,61.58524 -3.5787,3.8052 -8.49374,5.78707 -13.45408,5.78707 -3.22762,0 -6.50054,-0.83805 -9.45636,-2.55945 -7.44051,-4.38276 -10.9286,-13.40877 -8.32386,-21.63071 1.01925,-3.19364 21.32494,-70.29415 -27.2026,-115.51479 -10.9739,41.09835 -29.68277,64.11071 -53.0915,64.11071 -23.39741,0 -42.15158,-23.01236 -53.17078,-64.18999 -18.3125,17.02145 -28.89003,39.05986 -31.49477,65.77549 -2.61607,27.2479 4.24686,49.50148 4.33746,49.72798 2.65005,8.26724 -0.75922,17.29325 -8.23326,21.72131 -2.96714,1.7214 -6.24006,2.60475 -9.46768,2.60475" style="fill:#ffffff"/>
  <path d="m 201.98631,447.33671 c -3.62399,0 -6.94221,-1.46092 -9.37708,-4.06567 -17.87082,-18.93536 -27.12333,-42.60457 -31.72127,-59.19567 l -1.6761,-5.92296 -5.75309,2.11777 c -15.75305,5.79839 -31.58537,8.72023 -47.20252,8.72023 -59.727934,0 -96.3529195,-43.00095 -96.7039939,-43.44262 -4.7791415,-5.66249 -4.5526419,-14.462 0.3959213,-18.89007 2.6500456,-2.34427 5.8436896,-3.66929 8.9354096,-3.66929 2.967144,0 5.70779,1.14382 7.870861,3.36352 l 0.668627,0.70215 0.928648,0.39683 c 2.785945,1.33634 11.109805,4.42806 27.429101,4.42806 15.130173,0 37.780133,-5.31141 56.047316,-20.21509 22.60466,-18.53899 34.06554,-47.47431 34.06554,-86.04719 0,-37.73484 -12.16302,-66.00199 -36.31921,-83.9634 -18.584283,-13.92973 -41.098343,-18.84477 -54.676994,-18.84477 -14.156225,0 -28.35775,5.40201 -31.053095,6.45524 -1.778022,0.75922 -3.499419,1.10985 -5.220816,1.10985 -4.428067,0 -8.448435,-2.16308 -10.8380058,-5.79839 C 4.3767403,119.35442 5.1241889,112.41221 9.6428559,108.12004 39.144429,79.89819 71.658446,65.60607 106.34685,65.60607 c 15.48125,0 30.9172,2.92184 45.91147,8.67493 l 5.97959,2.25367 1.5402,-6.24006 c 8.90143,-36.22861 30.09047,-59.50145 31.01912,-60.4754 2.43487,-2.65004 5.87766,-4.15626 9.46768,-4.15626 2.07247,0 4.11097,0.48652 6.01357,1.46092 5.13021,2.66137 7.87086,8.49373 6.63644,14.15622 -13.85046,64.09939 8.7089,102.01542 30.03384,122.53629 l 6.90824,6.68173 2.46885,-9.24118 c 10.35103,-38.66348 27.30452,-59.98842 47.68949,-59.98842 20.39628,0 37.33845,21.32494 47.64419,59.98842 l 2.48017,9.24118 6.94221,-6.68173 c 21.32494,-20.52087 43.839,-58.4369 29.99987,-122.53629 -1.20045,-5.66249 1.55152,-11.49485 6.72704,-14.15622 1.8573,-0.97395 3.83917,-1.46092 5.92296,-1.46092 3.624,0 7.07812,1.50622 9.51299,4.15626 0.92865,0.97395 22.11768,24.24679 31.00779,60.4754 l 1.50622,6.24006 6.01357,-2.25367 c 14.99427,-5.75309 30.44154,-8.67493 45.92279,-8.67493 34.67709,0 67.19111,14.29212 96.70401,42.51397 4.42806,4.29217 5.22081,11.23438 1.81199,16.4552 -2.38957,3.63531 -6.45524,5.79839 -10.838,5.79839 -1.7214,0 -3.40882,-0.35063 -5.03962,-1.01925 -1.64212,-0.70215 -16.4099,-6.54584 -31.23429,-6.54584 -13.57866,0 -36.05874,4.91504 -54.67701,18.84477 -24.11088,18.00671 -36.31921,46.27386 -36.31921,83.9634 0,38.52758 11.44956,67.4629 34.09952,86.04719 18.23321,14.90368 40.92847,20.21509 56.05865,20.21509 16.36459,0 24.64315,-3.09172 27.4291,-4.42806 l 0.88335,-0.44213 0.65685,-0.65685 c 2.21969,-2.2197 4.91504,-3.36352 7.88218,-3.36352 3.09172,0 6.31934,1.32502 9.01469,3.71459 4.91504,4.38277 5.09624,13.18228 0.3624,18.84477 -0.39683,0.44213 -36.50042,43.44262 -96.70401,43.44262 -15.61715,0 -31.50609,-2.92184 -47.24781,-8.72023 l -5.75309,-2.11777 -1.6761,5.92296 c -4.56397,16.5911 -13.80515,40.26031 -31.67597,59.15037 -2.43487,2.60475 -5.84369,4.06567 -9.37708,4.06567 -2.265,0 -4.56397,-0.61155 -6.55717,-1.7667 -5.13021,-3.04642 -7.56508,-9.42238 -5.78706,-15.08487 0.92865,-2.96715 22.64996,-73.47647 -28.75413,-121.34716 l -6.86293,-6.45524 -2.43487,9.11661 c -10.35104,38.66348 -27.29321,59.94312 -47.64419,59.94312 -20.38497,0 -37.33846,-21.32494 -47.68949,-59.98842 l -2.42355,-9.07131 -6.90824,6.36464 c -19.33174,18.00672 -30.56612,41.37015 -33.26146,69.4108 -2.75197,28.49365 4.50734,51.81178 4.55264,52.07226 1.85729,5.70779 -0.48743,11.94785 -5.75309,15.03957 -1.9932,1.20045 -4.24687,1.812 -6.54584,1.812"/>
  <path d="M 340.80791,171.86808 C 333.7298,126.08119 318.15795,94.23534 300.01534,94.23534 l 0,0 c -18.1313,0 -33.74844,31.84585 -40.78126,77.63274 l 0,0 C 241.53314,162.2192 178.3624,120.02232 200.31021,18.58448 l 0,0 c 0,0 -29.60349,32.11764 -31.27959,78.56138 l 0,0 c 0,0 -73.521766,-53.21608 -150.452355,20.30569 l 0,0 c 0,0 17.734919,-7.61038 36.319211,-7.61038 l 0,0 c 27.916075,0 103.951984,18.58429 103.951984,115.77526 l 0,0 c 0,97.19098 -69.274896,119.18409 -103.068636,119.18409 l 0,0 c -27.078027,0 -36.36451,-7.61038 -36.36451,-7.61038 l 0,0 c 0,0 59.19567,70.15825 149.614306,21.98178 l 0,0 c 0,0 4.20157,44.76765 32.91039,75.20919 l 0,0 c 0,0 -32.72919,-101.52844 57.29307,-153.06842 l 0,0 c 7.07812,45.69629 22.64996,77.46286 40.78126,77.46286 l 0,0 c 18.09731,0 33.71446,-31.76657 40.74727,-77.46286 l 0,0 c 90.02227,51.53998 57.29308,153.06842 57.29308,153.06842 l 0,0 c 28.70882,-30.44154 32.95569,-75.20919 32.95569,-75.20919 l 0,0 c 90.41864,48.17647 149.61431,-21.98178 149.61431,-21.98178 l 0,0 c 0,0 -9.34311,7.61038 -36.36451,7.61038 l 0,0 c -33.80507,0 -103.12527,-21.99311 -103.12527,-119.18409 l 0,0 c 0,-97.19097 76.04724,-115.77526 103.96332,-115.77526 l 0,0 c 18.58429,0 36.31921,7.61038 36.31921,7.61038 l 0,0 C 504.53315,43.92978 431.01138,97.14586 431.01138,97.14586 l 0,0 c -1.68742,-46.44374 -31.2796,-78.56138 -31.2796,-78.56138 l 0,0 c 21.90251,101.43784 -41.27955,143.63472 -58.92387,153.2836" style="fill:url(#linearGradient3000)"/>
</svg>
