<?xml version="1.0" encoding="UTF-8" standalone="no"?>
<svg xmlns="http://www.w3.org/2000/svg" xmlns:xlink="http://www.w3.org/1999/xlink" version="1.1" width="600" height="452.99921">
  <linearGradient x1="0" y1="0" x2="1" y2="0" id="linearGradient234" gradientUnits="userSpaceOnUse" gradientTransform="matrix(49.701172,0,0,-49.701172,142.59326,434.3457)" spreadMethod="pad">
    <stop style="stop-color:#8b723c" offset="0"/>
    <stop style="stop-color:#d2bb7b" offset="0.3"/>
    <stop style="stop-color:#ebd491" offset="0.5"/>
    <stop style="stop-color:#d2bb7b" offset="0.7"/>
    <stop style="stop-color:#8b723c" offset="1"/>
  </linearGradient>
  <linearGradient x1="0" y1="0" x2="1" y2="0" id="linearGradient2995" xlink:href="#linearGradient234" gradientUnits="userSpaceOnUse" gradientTransform="matrix(49.701172,0,0,-49.701172,142.59326,434.3457)" spreadMethod="pad"/>
  <linearGradient x1="0" y1="0" x2="1" y2="0" id="linearGradient2998" xlink:href="#linearGradient234" gradientUnits="userSpaceOnUse" gradientTransform="matrix(562.86477,0,0,562.86477,18.569885,226.48053)" spreadMethod="pad"/>
  <path d="m 201.98631,452.9992 c -4.99432,0 -9.90936,-2.02717 -13.53335,-5.83237 -18.44839,-19.51294 -28.09728,-43.75972 -33.04629,-61.58524 -16.4099,6.01357 -32.87642,9.07131 -49.15042,9.07131 -61.981605,0 -99.489939,-43.62382 -101.0414612,-45.48112 -6.5005385,-7.68966 -6.5911383,-20.03389 0.9739483,-26.76092 3.7598933,-3.31822 8.2672359,-5.08492 12.6953029,-5.08492 4.292167,0 8.493735,1.6308 11.857254,4.99432 2.038496,0.97394 9.422383,3.89579 25.03953,3.89579 14.156225,0 35.390562,-4.99432 52.423326,-18.93537 21.27964,-17.42914 32.07234,-44.90354 32.07234,-81.66443 0,-35.83223 -11.46088,-62.54786 -34.06554,-79.41076 -17.519734,-13.13697 -38.572872,-17.78021 -51.313474,-17.78021 -14.337425,0 -28.890024,6.10416 -29.025924,6.14946 -2.38957,0.97395 -4.824441,1.46092 -7.247987,1.46092 -6.104164,0 -12.0384536,-3.01244 -15.5718474,-8.35783 -4.9150413,-7.51979 -3.80519322,-17.42915 2.6953452,-23.62391 30.5661212,-29.2864 64.4051612,-44.1108 100.5997872,-44.1108 18.98067,0 35.43587,4.24687 47.94997,9.02601 C 163.45873,31.5061 185.48581,7.21402 186.64096,5.97959 190.21966,2.0838 195.21397,0 200.31021,0 c 2.87655,0 5.83237,0.66772 8.53904,2.0838 7.42918,3.85049 11.35895,12.20833 9.59226,20.44159 -13.36348,61.87969 8.53903,98.07433 28.40305,117.22487 11.0192,-41.14366 29.77337,-64.14469 53.17078,-64.14469 23.40873,0 42.1176,23.00103 53.1368,64.14469 19.86402,-19.15054 41.7552,-55.34518 28.40305,-117.22487 -1.77802,-8.23326 2.16307,-16.5911 9.63756,-20.44159 C 393.88809,0.66818 396.80994,0 399.73178,0 c 5.08492,0 10.04526,2.0385 13.66925,5.97959 1.15515,1.23443 23.18224,25.52651 32.33282,62.98954 12.52543,-4.77914 28.98063,-9.02601 47.96129,-9.02601 36.13801,0 70.02235,14.8244 100.5998,44.1108 6.45524,6.19476 7.56508,16.10412 2.65004,23.62391 -3.53339,5.34539 -9.42238,8.35783 -15.57184,8.35783 -2.38957,0 -4.86975,-0.48652 -7.21402,-1.46092 -0.12502,-0.0453 -14.68849,-6.14946 -29.05989,-6.14946 -12.69531,0 -33.75977,4.64324 -51.31349,17.78021 -22.57068,16.8629 -34.06554,43.57853 -34.06554,79.41076 0,36.76089 10.83801,64.23529 32.07235,81.66443 17.07806,13.94105 38.2671,18.93537 52.46863,18.93537 15.57184,0 23.00103,-2.92185 24.99423,-3.89579 3.36352,-3.36352 7.56508,-4.99432 11.85725,-4.99432 4.46204,0 8.98071,1.7667 12.7406,5.08492 7.56509,6.72703 7.47449,19.07126 0.92865,26.76092 -1.50622,1.8573 -39.02588,45.48112 -100.99617,45.48112 -16.33062,0 -32.78582,-3.05774 -49.19571,-9.07131 -4.96034,17.82552 -14.5979,42.0723 -33.04629,61.58524 -3.5787,3.8052 -8.49374,5.78707 -13.45408,5.78707 -3.22762,0 -6.50054,-0.83805 -9.45636,-2.55945 -7.44051,-4.38276 -10.9286,-13.40877 -8.32386,-21.63071 1.01925,-3.19364 21.32494,-70.29415 -27.2026,-115.51479 -10.9739,41.09835 -29.68277,64.11071 -53.0915,64.11071 -23.39741,0 -42.15158,-23.01236 -53.17078,-64.18999 -18.3125,17.02145 -28.89003,39.05986 -31.49477,65.77549 -2.61607,27.2479 4.24686,49.50148 4.33746,49.72798 2.65005,8.26724 -0.75922,17.29325 -8.23326,21.72131 -2.96714,1.7214 -6.24006,2.60475 -9.46768,2.60475"/>
  <path d="M 340.80791,171.86808 C 333.7298,126.08119 318.15795,94.23534 300.01534,94.23534 l 0,0 c -18.1313,0 -33.74844,31.84585 -40.78126,77.63274 l 0,0 C 241.53314,162.2192 178.3624,120.02232 200.31021,18.58448 l 0,0 c 0,0 -29.60349,32.11764 -31.27959,78.56138 l 0,0 c 0,0 -73.521766,-53.21608 -150.452355,20.30569 l 0,0 c 0,0 17.734919,-7.61038 36.319211,-7.61038 l 0,0 c 27.916075,0 103.951984,18.58429 103.951984,115.77526 l 0,0 c 0,97.19098 -69.274896,119.18409 -103.068636,119.18409 l 0,0 c -27.078027,0 -36.36451,-7.61038 -36.36451,-7.61038 l 0,0 c 0,0 59.19567,70.15825 149.614306,21.98178 l 0,0 c 0,0 4.20157,44.76765 32.95569,75.20919 l 0,0 c 0,0 -32.77449,-101.52844 57.24777,-153.06842 l 0,0 c 7.07812,45.69629 22.64996,77.46286 40.78126,77.46286 l 0,0 c 18.09731,0 33.71446,-31.76657 40.74727,-77.46286 l 0,0 c 90.02227,51.53998 57.29308,153.06842 57.29308,153.06842 l 0,0 c 28.70882,-30.44154 32.95569,-75.20919 32.95569,-75.20919 l 0,0 c 90.41864,48.17647 149.61431,-21.98178 149.61431,-21.98178 l 0,0 c 0,0 -9.34311,7.61038 -36.36451,7.61038 l 0,0 c -33.80507,0 -103.12527,-21.99311 -103.12527,-119.18409 l 0,0 c 0,-97.19097 76.04724,-115.77526 103.96332,-115.77526 l 0,0 c 18.58429,0 36.31921,7.61038 36.31921,7.61038 l 0,0 C 504.53315,43.92978 431.01138,97.14586 431.01138,97.14586 l 0,0 c -1.73272,-46.44374 -31.2796,-78.56138 -31.2796,-78.56138 l 0,0 c 21.90251,101.43784 -41.27955,143.63472 -58.92387,153.2836" style="fill:url(#linearGradient2998)"/>
</svg>
