<?xml version="1.0" encoding="UTF-8" standalone="no"?>
<svg xmlns="http://www.w3.org/2000/svg" version="1.1" width="600" height="452.99921">
  <path d="m 441.13591,225.61625 c 0,-97.19097 76.09254,-115.77527 103.96332,-115.77527 18.58429,0 36.31921,7.61039 36.31921,7.61039 C 504.53315,43.9296 431.01138,97.14568 431.01138,97.14568 429.32396,50.70194 399.73178,18.5843 399.73178,18.5843 421.63429,120.02214 358.45223,162.21902 340.80791,171.8679 333.7298,126.08101 318.15795,94.23516 300.01534,94.23516 c -18.1313,0 -33.74844,31.84585 -40.78126,77.63274 -17.70094,-9.64888 -80.87168,-51.84576 -58.92387,-153.2836 0,0 -29.60349,32.11764 -31.27959,78.56138 0,0 -73.521766,-53.21608 -150.452355,20.30569 0,0 17.734919,-7.61039 36.319211,-7.61039 27.916075,0 103.951984,18.5843 103.951984,115.77527 0,97.19098 -69.274896,119.18409 -103.068636,119.18409 -27.078027,0 -36.36451,-7.61038 -36.36451,-7.61038 0,0 59.15037,70.15825 149.614306,21.98178 0,0 4.20157,44.76765 32.95569,75.20919 0,0 -32.77449,-101.52844 57.24777,-153.06843 7.07812,45.6963 22.64996,77.41757 40.78126,77.41757 18.09731,0 33.71446,-31.72127 40.74727,-77.41757 90.02227,51.53999 57.29308,153.06843 57.29308,153.06843 28.70882,-30.44154 32.95569,-75.20919 32.95569,-75.20919 90.41864,48.17647 149.61431,-21.98178 149.61431,-21.98178 0,0 -9.34311,7.61038 -36.36451,7.61038 -33.80507,0 -103.12527,-21.99311 -103.12527,-119.18409"/>
</svg>
