<?xml version="1.0" encoding="UTF-8" standalone="no"?>
<svg
   version="1.1"
   id="Layer_1"
   x="0px"
   y="0px"
   width="1010.6"
   height="1024"
   viewBox="0 0 1010.6 1024"
   sodipodi:docname="80.svg"
   inkscape:version="1.1.1 (3bf5ae0d25, 2021-09-20)"
   xmlns:inkscape="http://www.inkscape.org/namespaces/inkscape"
   xmlns:sodipodi="http://sodipodi.sourceforge.net/DTD/sodipodi-0.dtd"
   xmlns="http://www.w3.org/2000/svg"
   xmlns:svg="http://www.w3.org/2000/svg">
  <defs
     id="defs9" />
  <sodipodi:namedview
     id="namedview7"
     pagecolor="#ffffff"
     bordercolor="#666666"
     borderopacity="1.0"
     inkscape:pageshadow="2"
     inkscape:pageopacity="0.0"
     inkscape:pagecheckerboard="0"
     showgrid="false"
     inkscape:zoom="15.639"
     inkscape:cx="24.681"
     inkscape:cy="25.001"
     inkscape:window-width="1920"
     inkscape:window-height="986"
     inkscape:window-x="-11"
     inkscape:window-y="-11"
     inkscape:window-maximized="1"
     inkscape:current-layer="Layer_1" />
  <path
     style="fill:#808080;stroke-width:20.4792"
     d="m 784.36,1024 -17.49,-19.1 C 713.67,947.2 700.33,902.09 684.93,849.93 l -2.43,-8.11 c -7.07,-23.86 -25.77,-32.3 -60.99,-46.29 -11.65,-4.66 -23.63,-9.46 -35.61,-15.52 -25.01,-12.68 -56.69,-20.46 -57,-20.56 l -16.81,-4.1 -7.41,-15.72 c -0.56,-1.21 -14.01,-29.86 -21.22,-53.43 -1.02,-3.2 -1.47,-4.2 -1.62,-4.47 -0.37,0 -11.67,-7.92 -73.56,-10.89 -85.95,-4.16 -140.02,-47.76 -183.47,-82.78 -2.13,-1.66 -4.28,-3.42 -6.37,-5.14 1.06,7.88 1.31,15.6 0.27,22.67 -2.44,17.02 -11.53,30.45 -25.58,37.8 -8.17,4.28 -16.96,6.46 -26.26,6.46 -31.43,0 -56.44,-24.66 -79.274,-49.95 -22.63,-24.82 -65.78,-88.53 -66.967,-151.45 -1.454,-77.76 11.878,-120.84 43.293,-139.58 8.191,-4.9 17.448,-7.31 27.544,-7.31 14.954,0 30.614,5.89 44.724,13.74 4.1,-5.86 8.44,-10.63 12.74,-14.5 -0.92,-17.08 -1.12,-32.2 -1.12,-44.36 -7.07,-4.26 -14.13,-10.57 -20.61,-19.82 -0.16,-0.25 -0.36,-0.5 -0.51,-0.76 -1.35,0.51 -3.01,1.17 -4.93,2.03 -12.37,5.22 -25.932,8 -39.059,8 C 38.773,245.89 4.9829,217.14 0.4775,176.12 -3.8027,137.07 21.304,109.32 51.225,99.119 92.818,61.704 138.04,49.723 165.11,45.873 177.09,25.619 200.07,1.024 251.06,0 c 33.61,0 50.42,14.09 58.92,26.029 7.93,11.018 10.9,22.998 11.55,33.668 26.93,18.8 46.9,42.253 61.77,67.133 2.15,-3.87 4.54,-7.62 7.16,-11.16 12.37,-16.469 35.92,-36.784 77.93,-39.754 39.91,-2.785 86.6,-8.642 140.65,-15.359 23.8,-2.99 49.31,-6.123 76.96,-9.441 42.04,-4.956 79.79,-8.499 113.06,-11.673 38.55,-3.645 71.85,-6.779 97.85,-10.854 29.37,-4.751 42.91,-6.267 53.46,-6.267 17.57,0 27.72,4.936 36.18,10.301 l 24.05,15.401 -9.3,26.971 c -2.73,7.843 -17.53,48.245 -40.51,71.285 -21.87,21.87 -43.36,50.07 -52.26,68.71 -15.3,32.03 -45.98,58.71 -74.49,65.02 -24.86,5.53 -72.39,15.01 -96.43,19.76 -26.65,37.91 -57.65,73.46 -83.03,100.43 9.65,5.88 16.59,12.48 21.81,17.6 2.09,1.96 4.8,4.64 5.86,5.3 1.68,0 4.67,0.1 7.48,0.1 l 4.75,-0.1 h 5.3 c 23.8,0 50.38,4.73 83.25,39.05 50.58,52.74 33.26,130.7 32.5,134.04 l -2.38,10.36 c 46.04,12.54 56.61,47.15 57.1,74.87 0.49,25.21 -6.47,45.39 -20.66,59.89 -8.71,8.88 -24.23,19.39 -48.87,20.19 1.01,4.67 1.76,9.15 2.32,13.23 29.49,21.17 41.78,54.51 45.36,82.34 v 0.1 l 24.23,9.89 -1.68,26.05 c -6.07,92.97 -57.14,117.89 -63,120.39 z"
     id="path2" />
  <path
     d="m 580.92,422.9 c 0,0 81.41,-75.08 135.22,-155.81 0,0 76.31,-14.95 110.14,-22.45 14.95,-3.33 37.77,-20.52 49.58,-45.28 11.82,-24.75 36.99,-56.37 59.31,-78.72 18.29,-18.29 31.89,-57.544 31.89,-57.544 -9.3,-5.918 -14.46,-6.778 -64.43,1.168 C 852.8,72.21 782.01,76.183 690.22,87.098 598.37,97.972 529.21,107.95 470.99,112.02 c -58.26,4.14 -72.66,53.45 -62.65,99.35 10.04,45.81 10.69,82.61 -0.92,119.63 0,0 -15.77,-24.3 -19.6,-67.13 -3.85,-42.9 -20.97,-140.71 -104.58,-185.169 0,0 14.56,-43.252 -31.48,-42.432 -45.98,0.839 -54.72,25.537 -63.57,44.132 0,0 -64.45,-1.925 -118.739,51.219 0,0 -36.678,6.78 -32.971,40.49 3.686,33.66 40.651,45.28 71.15,32.44 30.41,-12.84 36.67,-6.78 49.25,11.36 12.63,18.21 27.83,11.78 27.83,11.78 0,0 -2.38,39.91 1.66,92.01 0,0 -27.48,6.59 -32.85,52.73 0,0 -49.87,-45.11 -71.147,-32.48 -21.155,12.68 -26.479,58.76 -25.558,107.87 0.861,49.07 35.614,103.68 57.545,127.77 21.88,24.16 43.77,45.22 61.99,35.67 18.25,-9.5 -4.23,-64.32 -19.86,-79.37 -15.61,-15.06 -28.63,-54.73 -29,-76.15 0,0 40.67,45.22 90.44,81.14 49.72,35.92 99.83,93.33 191.95,97.77 92.09,4.44 101.6,19.54 108.11,40.92 6.51,21.38 19.39,48.7 19.39,48.7 0,0 35.57,8.64 64.78,23.4 44.11,22.35 98.63,28.9 114.99,83.83 16.38,54.92 26.27,94.63 76.34,148.94 0,0 36.54,-16.01 41.29,-89.74 l -21.63,-8.78 c 0,0 4.96,-64.53 -44.46,-85.1 0,0 -0.65,-33.72 -13.29,-54.96 -12.67,-21.28 -22.01,-30.29 -40.65,-42.25 -18.59,-11.94 -34.46,-39.22 -31.88,-66.91 2.58,-27.7 24.14,-21.93 29.14,-83.37 0,0 15.73,18.15 -5,61.44 -20.66,43.36 31.95,66.97 31.95,66.97 0,0 3.68,36.72 40.67,45.26 36.99,8.54 55.05,-7.19 54.45,-40.88 -0.59,-33.73 -22.17,-39.5 -37.6,-42.27 0,0 -27.87,-17.88 -34.56,-45.38 l 18.3,-6.45 c 0,0 14.24,-61.6 -23.3,-100.8 C 719.38,448 701.24,463.63 673.57,458.06 645.9,452.41 648.28,415.56 580.92,422.9"
     id="path4"
     style="stroke-width:20.4792" />
</svg>
