<?xml version="1.0" encoding="UTF-8" standalone="no"?>
<svg
   version="1.1"
   id="Layer_1"
   x="0px"
   y="0px"
   width="1010.6"
   height="1024"
   sodipodi:docname="T.svg"
   inkscape:version="1.1.1 (3bf5ae0d25, 2021-09-20)"
   xmlns:inkscape="http://www.inkscape.org/namespaces/inkscape"
   xmlns:sodipodi="http://sodipodi.sourceforge.net/DTD/sodipodi-0.dtd"
   xmlns="http://www.w3.org/2000/svg"
   xmlns:svg="http://www.w3.org/2000/svg">
  <defs
     id="defs21" />
  <sodipodi:namedview
     id="namedview19"
     pagecolor="#ffffff"
     bordercolor="#666666"
     borderopacity="1.0"
     inkscape:pageshadow="2"
     inkscape:pageopacity="0.0"
     inkscape:pagecheckerboard="0"
     showgrid="false"
     inkscape:zoom="15.639"
     inkscape:cx="24.681"
     inkscape:cy="25.001"
     inkscape:window-width="1920"
     inkscape:window-height="986"
     inkscape:window-x="-11"
     inkscape:window-y="-11"
     inkscape:window-maximized="1"
     inkscape:current-layer="Layer_1" />
  <g
     id="g16"
     transform="matrix(20.479,0,0,20.479,-0.03449,0)">
    <path
       fill="#ffffff"
       d="M 38.302,50.002 37.448,49.071 C 34.85,46.252 34.199,44.049 33.447,41.502 L 33.329,41.106 C 32.983,39.941 32.07,39.529 30.35,38.846 29.781,38.618 29.196,38.384 28.611,38.088 27.39,37.469 25.843,37.089 25.828,37.084 l -0.821,-0.2 -0.362,-0.768 c -0.03,-0.06 -0.684,-1.458 -1.036,-2.609 -0.05,-0.156 -0.07,-0.205 -0.08,-0.218 -0.02,0 -0.57,-0.387 -3.592,-0.532 -4.197,-0.203 -6.837,-2.332 -8.959,-4.042 -0.104,-0.08 -0.209,-0.167 -0.311,-0.251 0.05,0.385 0.06,0.762 0.01,1.107 -0.119,0.831 -0.563,1.487 -1.249,1.846 C 9.029,31.626 8.6,31.732 8.146,31.732 6.611,31.732 5.39,30.528 4.275,29.293 3.17,28.081 1.063,24.97 1.005,21.898 0.934,18.101 1.585,15.997 3.12,15.082 c 0.399,-0.239 0.851,-0.357 1.344,-0.357 0.73,0 1.495,0.288 2.184,0.671 C 6.848,15.11 7.06,14.877 7.27,14.688 7.229,13.854 7.219,13.116 7.219,12.522 6.874,12.314 6.529,12.006 6.213,11.554 6.205,11.542 6.195,11.53 6.188,11.517 6.122,11.542 6.041,11.574 5.947,11.616 5.343,11.871 4.681,12.007 4.04,12.007 1.895,12.007 0.245,10.603 0.025,8.6 -0.184,6.693 1.042,5.338 2.503,4.84 4.534,3.013 6.742,2.428 8.064,2.24 8.649,1.251 9.771,0.05 12.261,0 c 1.641,0 2.462,0.688 2.877,1.271 0.387,0.538 0.532,1.123 0.564,1.644 1.315,0.918 2.29,2.063 3.016,3.278 0.105,-0.189 0.222,-0.372 0.35,-0.545 0.604,-0.804 1.755,-1.796 3.805,-1.941 1.949,-0.136 4.229,-0.422 6.868,-0.75 1.162,-0.146 2.408,-0.299 3.758,-0.461 2.053,-0.242 3.896,-0.415 5.521,-0.57 1.882,-0.178 3.508,-0.331 4.778,-0.53 1.434,-0.232 2.095,-0.306 2.61,-0.306 0.858,0 1.354,0.241 1.767,0.503 l 1.175,0.752 -0.457,1.317 c -0.131,0.383 -0.854,2.356 -1.976,3.481 -1.068,1.068 -2.117,2.445 -2.552,3.355 -0.747,1.564 -2.245,2.867 -3.637,3.175 -1.213,0.27 -3.535,0.733 -4.709,0.965 -1.301,1.851 -2.815,3.587 -4.054,4.904 0.472,0.287 0.81,0.609 1.065,0.859 0.102,0.1 0.234,0.227 0.286,0.259 0.08,0 0.228,0 0.365,0 h 0.232 0.259 c 1.162,0 2.46,0.231 4.065,1.907 2.47,2.575 1.624,6.382 1.587,6.545 l -0.116,0.506 c 2.248,0.612 2.764,2.302 2.788,3.656 0.02,1.231 -0.316,2.216 -1.009,2.924 -0.425,0.434 -1.183,0.947 -2.386,0.986 0.05,0.228 0.09,0.447 0.113,0.646 1.44,1.034 2.04,2.662 2.215,4.021 v 0 l 1.183,0.483 -0.08,1.272 c -0.296,4.54 -2.79,5.759 -3.076,5.882 z"
       id="path2" />
    <path
       style="fill:url(#SVGID_4_)"
       id="SVGID_37_"
       d="m 12.295,1.77 c -2.244,0.042 -2.672,1.248 -3.104,2.156 0,0 -3.147,-0.094 -5.8,2.501 0,0 -1.789,0.331 -1.608,1.977 0.178,1.644 1.983,2.211 3.474,1.584 1.485,-0.628 1.791,-0.332 2.403,0.554 0.619,0.889 1.359,0.575 1.359,0.575 0,0 -0.114,1.949 0.083,4.493 0,0 -1.344,0.322 -1.604,2.575 0,0 -2.435,-2.206 -3.471,-1.586 -1.036,0.619 -1.296,2.871 -1.251,5.267 0.042,2.396 1.739,5.063 2.81,6.239 1.068,1.18 2.137,2.211 3.027,1.745 0.891,-0.467 -0.207,-3.144 -0.97,-3.879 -0.762,-0.737 -1.396,-2.672 -1.416,-3.718 0,0 1.986,2.208 4.416,3.962 2.428,1.754 4.875,4.555 9.373,4.771 4.497,0.22 4.961,0.957 5.279,2.001 0.321,1.044 0.947,2.378 0.947,2.378 0,0 1.737,0.422 3.163,1.143 2.154,1.091 4.816,1.411 5.613,4.093 0.799,2.682 1.285,4.621 3.728,7.273 0,0 1.786,-0.782 2.018,-4.382 l -1.056,-0.429 c 0,0 0.242,-3.151 -2.171,-4.155 0,0 -0.03,-1.646 -0.648,-2.684 -0.62,-1.039 -1.076,-1.479 -1.986,-2.063 -0.908,-0.583 -1.683,-1.915 -1.557,-3.267 0.126,-1.353 1.179,-1.071 1.423,-4.071 0,0 0.768,0.886 -0.244,3 -1.009,2.117 1.56,3.267 1.56,3.267 0,0 0.18,1.796 1.986,2.213 1.806,0.417 2.688,-0.351 2.659,-1.996 -0.03,-1.647 -1.086,-1.929 -1.836,-2.064 0,0 -1.361,-0.871 -1.688,-2.216 L 38.1,28.712 c 0,0 0.695,-3.008 -1.138,-4.922 -1.324,-1.379 -2.153,-1.367 -3.02,-1.354 -0.335,0 -0.674,0 -1.051,-0.07 -1.353,-0.279 -1.238,-2.078 -4.524,-1.72 0,0 3.977,-3.666 6.602,-7.611 0,0 3.726,-0.728 5.378,-1.093 0.73,-0.16 1.844,-1.002 2.421,-2.211 0.574,-1.209 1.806,-2.753 2.896,-3.844 0.893,-0.893 1.557,-2.81 1.557,-2.81 C 46.764,2.792 46.515,2.75 44.075,3.138 41.642,3.526 38.185,3.72 33.701,4.255 29.22,4.784 25.843,5.271 23,5.47 c -2.845,0.2 -3.548,2.61 -3.059,4.851 0.49,2.237 0.522,4.034 -0.04,5.842 0,0 -0.77,-1.187 -0.957,-3.276 -0.188,-2.097 -1.023,-6.873 -5.107,-9.044 0,0 0.696,-2.072 -1.473,-2.072 C 12.337,1.77 12.317,1.77 12.295,1.77" />
    <linearGradient
       id="SVGID_4_"
       gradientUnits="userSpaceOnUse"
       x1="-29.361"
       y1="523.46"
       x2="-28.098"
       y2="523.46"
       gradientTransform="matrix(36.597,13.32,13.32,-36.597,-5899.2,19564)">
      <stop
         style="stop-color:#612c75"
         offset="0"
         id="stop5" />
      <stop
         style="stop-color:#7b5190"
         offset="0.3"
         id="stop7" />
      <stop
         style="stop-color:#bf99c3"
         offset="0.5"
         id="stop9" />
      <stop
         style="stop-color:#7b5190"
         offset="0.7"
         id="stop11" />
      <stop
         style="stop-color:#612c75"
         offset="1"
         id="stop13" />
    </linearGradient>
  </g>
</svg>
