<?xml version="1.0" encoding="UTF-8" standalone="no"?>
<svg
   version="1.1"
   id="Layer_1"
   x="0px"
   y="0px"
   width="1010.6"
   height="1024"
   viewBox="0 0 1010.6 1024"
   sodipodi:docname="C.svg"
   inkscape:version="1.1.1 (3bf5ae0d25, 2021-09-20)"
   xmlns:inkscape="http://www.inkscape.org/namespaces/inkscape"
   xmlns:sodipodi="http://sodipodi.sourceforge.net/DTD/sodipodi-0.dtd"
   xmlns="http://www.w3.org/2000/svg"
   xmlns:svg="http://www.w3.org/2000/svg">
  <defs
     id="defs9" />
  <sodipodi:namedview
     id="namedview7"
     pagecolor="#ffffff"
     bordercolor="#666666"
     borderopacity="1.0"
     inkscape:pageshadow="2"
     inkscape:pageopacity="0.0"
     inkscape:pagecheckerboard="0"
     showgrid="false"
     inkscape:zoom="15.639"
     inkscape:cx="24.681"
     inkscape:cy="25.001"
     inkscape:window-width="1920"
     inkscape:window-height="986"
     inkscape:window-x="-11"
     inkscape:window-y="-11"
     inkscape:window-maximized="1"
     inkscape:current-layer="Layer_1" />
  <path
     d="m 580.92,422.9 c 0,0 81.41,-75.08 135.22,-155.81 0,0 76.31,-14.95 110.14,-22.45 14.95,-3.33 37.77,-20.52 49.58,-45.28 11.82,-24.75 36.99,-56.37 59.31,-78.72 18.29,-18.29 31.89,-57.544 31.89,-57.544 -9.3,-5.918 -14.46,-6.778 -64.43,1.168 C 852.8,72.21 782.01,76.183 690.22,87.098 598.37,97.972 529.21,107.95 470.99,112.02 c -58.26,4.14 -72.66,53.45 -62.65,99.35 10.04,45.81 10.69,82.61 -0.92,119.63 0,0 -15.77,-24.3 -19.6,-67.13 -3.85,-42.9 -20.97,-140.71 -104.58,-185.169 0,0 14.56,-43.252 -31.48,-42.432 -45.98,0.839 -54.72,25.537 -63.57,44.132 0,0 -64.45,-1.925 -118.739,51.219 0,0 -36.678,6.78 -32.971,40.49 3.686,33.66 40.651,45.28 71.15,32.44 30.41,-12.84 36.67,-6.78 49.25,11.36 12.63,18.21 27.83,11.78 27.83,11.78 0,0 -2.38,39.91 1.66,92.01 0,0 -27.48,6.59 -32.85,52.73 0,0 -49.87,-45.11 -71.147,-32.48 -21.155,12.68 -26.479,58.76 -25.558,107.87 0.861,49.07 35.614,103.68 57.545,127.77 21.88,24.16 43.77,45.22 61.99,35.67 18.25,-9.5 -4.23,-64.32 -19.86,-79.37 -15.61,-15.06 -28.63,-54.73 -29,-76.15 0,0 40.67,45.22 90.44,81.14 49.72,35.92 99.83,93.33 191.95,97.77 92.09,4.44 101.6,19.54 108.11,40.92 6.51,21.38 19.39,48.7 19.39,48.7 0,0 35.57,8.64 64.78,23.4 44.11,22.35 98.63,28.9 114.99,83.83 16.38,54.92 26.27,94.63 76.34,148.94 0,0 36.54,-16.01 41.29,-89.74 l -21.63,-8.78 c 0,0 4.96,-64.53 -44.46,-85.1 0,0 -0.65,-33.72 -13.29,-54.96 -12.67,-21.28 -22.01,-30.29 -40.65,-42.25 -18.59,-11.94 -34.46,-39.22 -31.88,-66.91 2.58,-27.7 24.14,-21.93 29.14,-83.37 0,0 15.73,18.15 -5,61.44 -20.66,43.36 31.95,66.97 31.95,66.97 0,0 3.68,36.72 40.67,45.26 36.99,8.54 55.05,-7.19 54.45,-40.88 -0.59,-33.73 -22.17,-39.5 -37.6,-42.27 0,0 -27.87,-17.88 -34.56,-45.38 l 18.3,-6.45 c 0,0 14.24,-61.6 -23.3,-100.8 C 719.38,448 701.24,463.63 673.57,458.06 645.9,452.41 648.28,415.56 580.92,422.9"
     id="path4"
     style="stroke-width:20.4792" />
</svg>
