<?xml version="1.0" encoding="UTF-8" standalone="no"?>
<svg xmlns="http://www.w3.org/2000/svg" version="1.1" width="600" height="510.36029">
  <radialGradient cx="0" cy="0" r="1" fx="0" fy="0" id="radialGradient3009" gradientUnits="userSpaceOnUse" gradientTransform="matrix(224.18535,0,0,224.18535,300.07367,255.77455)" spreadMethod="pad">
    <stop style="stop-color:#f6b91d" offset="0"/>
    <stop style="stop-color:#d3641c" offset="0.7"/>
    <stop style="stop-color:#bf331c" offset="1"/>
  </radialGradient>
  <path d="m 419.38886,0 -239.82393,0 -1.14828,0.15311 c -16.15242,1.74793 -38.56933,13.40932 -46.04589,37.9314 L 35.37967,65.09452 34.43553,65.4385 C 21.23035,70.52919 0,87.57472 0,118.76956 c 0,5.57552 0.68896,11.61035 2.19448,18.14277 l 91.50488,341.4464 2.48793,3.38104 c 10.30897,13.80484 35.53278,34.93312 64.29073,26.7676 0,0 128.92593,-35.48174 139.59215,-38.42899 10.61518,2.94725 139.74525,38.48003 139.74525,38.48003 28.56657,8.11448 53.72658,-13.0138 64.09935,-26.81864 l 2.48793,-3.34276 91.35178,-340.83399 C 599.29827,130.8775 600,124.65129 600,118.9737 600,87.52368 578.82067,70.52919 565.66653,65.4385 l -0.95639,-0.34398 c 0,0 -76.59004,-21.33242 -96.97833,-27.01001 C 460.25525,13.56243 437.82558,1.90104 421.68592,0.15311 L 420.53764,0 419.38937,0 z"/>
  <path d="m 180.76424,21.77898 c 0,0 -29.40864,3.13862 -29.40864,33.54243 L 42.25657,85.77626 c 0,0 -27.30346,10.46207 -18.9338,46.14796 L 113.5773,468.6882 c 0,0 18.89553,25.21105 40.91692,18.88277 l 145.57595,-40.02381 145.53767,40.02381 c 22.02139,6.32828 40.91692,-18.88277 40.91692,-18.88277 l 90.2035,-336.76398 c 8.42069,-35.68589 -18.8445,-46.14796 -18.8445,-46.14796 L 448.74646,55.32141 c 0,-30.40381 -29.40864,-33.54243 -29.40864,-33.54243 l -238.57358,0 z" style="fill:#bf331c"/>
  <path d="m 181.70837,34.34623 c -1.39069,0.24292 -5.58827,1.18655 -9.56897,3.84035 -5.58827,3.72552 -8.22931,9.16069 -8.22931,17.13483 l 0,9.56898 c 0,0 -115.77179,32.30484 -117.46869,32.75139 -2.98552,1.44173 -12.10794,6.8769 -12.10794,21.37071 0,2.94724 0.39501,6.23896 1.30138,9.97724 0.14086,0.60017 87.95798,328.48364 89.41247,333.76571 3.82759,4.38897 15.24656,15.79518 26.01484,12.7076 l 149.00802,-40.96796 148.96974,40.96796 c 10.76828,3.08758 22.12346,-8.31863 26.01484,-12.7076 1.44173,-5.28207 89.3104,-333.16605 89.4635,-333.76571 0.84207,-3.73828 1.25035,-7.03 1.25035,-9.97724 0,-14.49381 -9.12242,-19.92898 -12.1207,-21.37071 C 551.951,97.19574 436.12818,64.89039 436.12818,64.89039 l 0,-9.56898 c 0,-7.97414 -2.59,-13.40931 -8.16553,-17.13483 -3.94241,-2.6538 -8.17828,-3.59794 -9.56897,-3.84035 l -236.68531,0 z"/>
  <path d="m 438.6799,81.5404 0,323.85225 c 0,0 -2.79414,20.97518 -19.54622,20.97518 l -90.95626,0 121.70456,33.59347 c 0,0 6.97897,3.49587 10.47483,-4.18483 l 89.55281,-332.27295 c 0,0 3.49587,-10.46207 -4.92483,-13.25621 L 438.6799,81.5404 z M 55.06623,110.94903 c -8.36966,2.78138 -4.88655,13.30725 -4.88655,13.30725 l 89.51453,332.22192 c 3.53414,7.66793 10.51311,4.18483 10.51311,4.18483 l 121.70456,-33.54244 -90.90523,0 c -16.84139,0 -19.58449,-21.03897 -19.58449,-21.03897 l 0,-323.8395 -106.35593,28.70691 z m 128.03284,-60.85865 234.29944,0 c 4.92483,0 5.57552,6.27724 5.57552,6.27724 l 0,348.32331 c 0,5.63931 -5.57552,7.03 -5.57552,7.03 l -234.29944,0 c -4.92484,0 -4.92484,-7.03 -4.92484,-7.03 l 0,-348.32331 c 0,-4.18483 4.92484,-6.27724 4.92484,-6.27724" style="fill:#bf331c"/>
  <path style="fill:url(#radialGradient3009)" d="m 184.40038,55.21887 c -0.65069,0.408276 -1.09725,0.905863 -1.09725,1.148276 v 0 348.272264 c 0,0.8038 0.24242,1.95208 -0.20413,1.95208 v 0 h 233.44461 c 0.59966,-0.30621 1.35242,-0.85483 1.35242,-1.90104 v 0 -347.723648 c -0.10207,-0.688966 -0.45931,-1.645863 -0.49759,-1.747932 v 0 z m 259.35739,350.86227 c -1.14828,8.77794 -7.82104,25.42795 -24.67519,25.42795 v 0 h -53.31831 l 86.26109,23.87139 c 0.20414,0.051 0.85483,0.29345 1.45448,0.29345 v 0 c 0.49759,0 1.33966,0 1.93931,-1.23759 v 0 L 545.023,121.90822 c 0.35724,-0.94414 1.64586,-5.72863 -1.33966,-6.7238 v 0 L 443.8088,88.212682 Z M 56.660993,115.78408 c -3.342761,1.13551 -1.837242,6.27724 -1.543794,7.11931 v 0 l 89.208331,331.48192 c 0.94413,1.93931 1.79896,1.93931 2.24551,1.93931 v 0 c 0.65069,0 1.25035,-0.20414 2.29656,-0.59966 v 0 l 85.36798,-23.52691 h -53.229 c -16.84139,0 -23.47587,-16.58621 -24.66243,-26.06588 v 0 -317.217764 z"/>
  <path style="fill:#ffffff;stroke:#bf331c;stroke-width:9.34585953;stroke-opacity:0.37391304" d="m 408.02721,324.24146 c -0.5965,2.59203 -2.63937,5.08517 -6.12866,7.47944 -3.48967,2.39426 -7.62564,3.5914 -12.40791,3.5914 -2.79297,0 -5.33632,-0.3499 -7.63001,-1.04959 -2.29404,-0.69968 -5.63446,-2.54486 -10.02125,-5.53542 -4.38711,-2.99054 -7.92527,-7.52504 -10.61448,-13.60351 -2.68952,-6.07844 -5.531,-8.81952 -8.52445,-8.22326 -6.77831,6.18192 -14.2045,12.36229 -22.27856,18.54112 -8.0743,6.17886 -16.79648,9.86761 -26.16658,11.06626 -9.37029,1.19866 -19.63794,2.59507 -30.803,4.18921 -7.17983,0 -13.90932,-1.3462 -20.18852,-4.03862 -6.27929,-2.6924 -12.70913,-7.22842 -19.28954,-13.60807 -6.58044,-6.37963 -11.36593,-15.9506 -14.35647,-28.71297 -2.99056,-12.76228 -4.48583,-33.09832 -4.48583,-61.0082 v -19.7413 -13.45293 c 0,-13.95779 -0.10003,-22.38184 -0.30121,-25.27216 -0.20077,-2.88999 -0.89902,-6.97728 -2.0946,-12.26187 -1.19562,-5.28425 -4.93305,-9.621 -11.2123,-13.01028 -6.27923,-3.3889 -9.41885,-7.17652 -9.41887,-11.36288 9.7657,1.9e-4 18.03916,-0.59762 24.82038,-1.79343 6.78121,-1.19541 13.36012,-2.49293 19.73674,-3.89258 1.59412,2e-4 3.23846,0.39878 4.93303,1.19561 1.69452,0.79726 2.5418,4.18636 2.54183,10.16727 -3e-5,5.9813 -0.099,12.06279 -0.29661,18.24451 -0.19781,6.18207 -0.39705,12.06278 -0.59782,17.64213 -3e-5,6.18205 -0.05,12.26354 -0.15055,18.24451 -0.10003,5.98124 -0.15066,11.96234 -0.15055,17.94332 -4e-5,32.89922 2.94184,57.42447 8.82563,73.57583 5.88371,16.15145 14.35794,24.87516 25.42275,26.17115 11.06467,1.29602 17.99343,1.94403 20.78632,1.94401 9.7656,2e-5 19.23466,-1.84512 28.40722,-5.53541 9.17232,-3.69026 16.14977,-9.82195 20.93234,-18.3951 2.39718,-5.78028 4.19364,-12.25878 5.38939,-19.43556 1.19547,-7.17664 1.79328,-16.25021 1.79343,-27.22072 -1.5e-4,-9.16931 -0.4489,-18.43911 -1.34621,-27.80942 -0.8976,-9.37007 -1.49542,-17.19631 -1.79343,-23.47874 -0.29824,-6.28214 -0.44737,-11.71411 -0.44716,-16.29593 v -6.27924 c -1.4e-4,-3.58972 -0.10105,-6.38252 -0.30121,-8.37842 -0.20097,-1.99556 -0.7501,-4.63777 -1.64739,-7.92664 -0.8976,-3.28851 -3.48962,-6.97574 -7.77605,-11.0617 -4.28668,-4.08558 -6.42996,-6.72779 -6.42985,-7.92664 -1.1e-4,-0.99762 0.64794,-1.79474 1.94402,-2.39123 1.29588,-0.59608 6.37952,-1.54222 15.25091,-2.83844 8.87111,-1.2958 15.60062,-1.9438 20.18852,-1.94401 1.99557,2.1e-4 3.64143,0.44747 4.93761,1.34164 1.29584,0.89464 1.94384,7.82188 1.94401,20.78177 v 15.85327 90.62017 c -1.7e-4,20.33459 1.69438,35.23715 5.08363,44.7077 3.38892,9.47062 11.36271,16.1986 23.92139,20.18395 z"/>
  <path d="m 408.02721,324.24146 c -0.5965,2.59203 -2.63937,5.08517 -6.12866,7.47944 -3.48967,2.39426 -7.62564,3.5914 -12.40791,3.5914 -2.79297,0 -5.33632,-0.3499 -7.63001,-1.04959 -2.29404,-0.69968 -5.63446,-2.54486 -10.02125,-5.53542 -4.38711,-2.99054 -7.92527,-7.52504 -10.61448,-13.60351 -2.68952,-6.07844 -5.531,-8.81952 -8.52445,-8.22326 -6.77831,6.18192 -14.2045,12.36229 -22.27856,18.54112 -8.0743,6.17886 -16.79648,9.86761 -26.16658,11.06626 -9.37029,1.19866 -19.63794,2.59507 -30.803,4.18921 -7.17983,0 -13.90932,-1.3462 -20.18852,-4.03862 -6.27929,-2.6924 -12.70913,-7.22842 -19.28954,-13.60807 -6.58044,-6.37963 -11.36593,-15.9506 -14.35647,-28.71297 -2.99056,-12.76228 -4.48583,-33.09832 -4.48583,-61.0082 v -19.7413 -13.45293 c 0,-13.95779 -0.10003,-22.38184 -0.30121,-25.27216 -0.20077,-2.88999 -0.89902,-6.97728 -2.0946,-12.26187 -1.19562,-5.28425 -4.93305,-9.621 -11.2123,-13.01028 -6.27923,-3.3889 -9.41885,-7.17652 -9.41887,-11.36288 9.7657,1.9e-4 18.03916,-0.59762 24.82038,-1.79343 6.78121,-1.19541 13.36012,-2.49293 19.73674,-3.89258 1.59412,2e-4 3.23846,0.39878 4.93303,1.19561 1.69452,0.79726 2.5418,4.18636 2.54183,10.16727 -3e-5,5.9813 -0.099,12.06279 -0.29661,18.24451 -0.19781,6.18207 -0.39705,12.06278 -0.59782,17.64213 -3e-5,6.18205 -0.05,12.26354 -0.15055,18.24451 -0.10003,5.98124 -0.15066,11.96234 -0.15055,17.94332 -4e-5,32.89922 2.94184,57.42447 8.82563,73.57583 5.88371,16.15145 14.35794,24.87516 25.42275,26.17115 11.06467,1.29602 17.99343,1.94403 20.78632,1.94401 9.7656,2e-5 19.23466,-1.84512 28.40722,-5.53541 9.17232,-3.69026 16.14977,-9.82195 20.93234,-18.3951 2.39718,-5.78028 4.19364,-12.25878 5.38939,-19.43556 1.19547,-7.17664 1.79328,-16.25021 1.79343,-27.22072 -1.5e-4,-9.16931 -0.4489,-18.43911 -1.34621,-27.80942 -0.8976,-9.37007 -1.49542,-17.19631 -1.79343,-23.47874 -0.29824,-6.28214 -0.44737,-11.71411 -0.44716,-16.29593 v -6.27924 c -1.4e-4,-3.58972 -0.10105,-6.38252 -0.30121,-8.37842 -0.20097,-1.99556 -0.7501,-4.63777 -1.64739,-7.92664 -0.8976,-3.28851 -3.48962,-6.97574 -7.77605,-11.0617 -4.28668,-4.08558 -6.42996,-6.72779 -6.42985,-7.92664 -1.1e-4,-0.99762 0.64794,-1.79474 1.94402,-2.39123 1.29588,-0.59608 6.37952,-1.54222 15.25091,-2.83844 8.87111,-1.2958 15.60062,-1.9438 20.18852,-1.94401 1.99557,2.1e-4 3.64143,0.44747 4.93761,1.34164 1.29584,0.89464 1.94384,7.82188 1.94401,20.78177 v 15.85327 90.62017 c -1.7e-4,20.33459 1.69438,35.23715 5.08363,44.7077 3.38892,9.47062 11.36271,16.1986 23.92139,20.18395 z"/>
</svg>
