<?xml version="1.0" encoding="UTF-8" standalone="no"?>
<svg xmlns="http://www.w3.org/2000/svg" version="1.1" width="600" height="563.15558">
  <path d="M 300.00704,563.15555 163.7234,357.85719 167.67956,353.90103 0,281.57778 167.67956,209.2686 163.7234,205.29836 300.00704,0 436.22029,205.29836 432.32044,209.2686 600,281.57778 l -167.67956,72.32325 3.89985,3.95616 -136.21325,205.29836 z" style="fill:#ffffff"/>
  <path d="m 410.37145,360.44771 -78.85586,-78.86993 78.85586,-78.85586 -95.90539,-144.53387 0,223.38973 0,223.44604 95.90539,-144.57611 z m -1.30934,-18.42926 134.07326,-57.79384 -181.37832,10.50285 47.30506,47.29099 z m 0,-120.88134 134.07326,57.80791 -181.37832,-10.50285 47.30506,-47.30506 z M 190.89565,342.01845 56.864631,284.22461 l 181.378319,10.50285 -47.3473,47.29099 z m -1.32341,18.42926 78.85585,-78.86993 -78.85585,-78.85586 95.9617,-144.53387 0,223.38973 0,223.44604 -95.9617,-144.57611 z m 1.32341,-139.3106 -134.031019,57.80791 181.378319,-10.50285 -47.3473,-47.30506 z"/>
</svg>
