<?xml version="1.0" encoding="utf-8"?>
<!-- Generator: Adobe Illustrator 15.1.0, SVG Export Plug-In . SVG Version: 6.00 Build 0)  -->
<!DOCTYPE svg PUBLIC "-//W3C//DTD SVG 1.1//EN" "http://www.w3.org/Graphics/SVG/1.1/DTD/svg11.dtd">
<svg version="1.1" id="Layer_1" xmlns="http://www.w3.org/2000/svg" xmlns:xlink="http://www.w3.org/1999/xlink" x="0px" y="0px"
	 width="155px" height="155px" viewBox="0 0 155 155" enable-background="new 0 0 155 155" xml:space="preserve">
<g>
	<path fill="#5D5E61" d="M73.843,122.592c0.21,14.547,0.594,24.026,1.248,29.835c-40.076-1.465-72.23-34.503-72.23-74.93
		s32.154-73.465,72.23-74.93c-0.654,5.809-1.038,15.288-1.248,29.835C50.75,34.443,32.578,53.884,32.578,77.497
		S50.75,120.551,73.843,122.592z M152.861,77.497c0-40.427-32.154-73.465-72.229-74.93c0.654,5.809,1.038,15.288,1.248,29.835
		c23.092,2.041,41.265,21.481,41.265,45.095s-18.173,43.054-41.265,45.095c-0.21,14.547-0.594,24.026-1.248,29.835
		C120.707,150.962,152.861,117.924,152.861,77.497z M73.743,40.94c-18.355,2.056-32.675,17.661-32.675,36.557
		s14.32,34.501,32.675,36.557c-0.093-10.083-0.127-22.154-0.127-36.557S73.65,51.023,73.743,40.94z M114.653,77.497
		c0-18.896-14.319-34.501-32.674-36.557c0.093,10.083,0.127,22.154,0.127,36.557s-0.034,26.474-0.127,36.557
		C100.334,111.998,114.653,96.393,114.653,77.497z"/>
	<path d="M68.758,143.572c0.044,0.9,0.09,1.787,0.137,2.665c-34.012-4.414-60.374-33.547-60.374-68.74s26.362-64.326,60.374-68.74
		c-0.047,0.878-0.093,1.765-0.137,2.665c-0.212,4.272-0.375,9.458-0.498,16.051c-23.515,4.505-41.343,25.216-41.343,50.024
		s17.828,45.52,41.343,50.024C68.383,134.114,68.546,139.3,68.758,143.572z M147.201,77.497c0-35.193-26.362-64.326-60.374-68.74
		c0.047,0.878,0.093,1.765,0.137,2.665c0.212,4.272,0.375,9.458,0.498,16.051c23.515,4.505,41.343,25.216,41.343,50.024
		s-17.828,45.52-41.343,50.024c-0.123,6.593-0.286,11.778-0.498,16.051c-0.044,0.9-0.09,1.787-0.137,2.665
		C120.839,141.823,147.201,112.69,147.201,77.497z M108.993,77.497c0-13.757-8.927-25.422-21.301-29.539
		c0.051,8.293,0.074,18.017,0.074,29.539s-0.023,21.246-0.074,29.539C100.066,102.919,108.993,91.254,108.993,77.497z M68.03,47.958
		C55.656,52.075,46.729,63.74,46.729,77.497s8.927,25.422,21.301,29.539c-0.051-8.293-0.074-18.017-0.074-29.539
		S67.979,56.251,68.03,47.958z"/>
</g>
</svg>
