<?xml version="1.0" encoding="utf-8"?>
<!-- Generator: Adobe Illustrator 15.1.0, SVG Export Plug-In . SVG Version: 6.00 Build 0)  -->
<!DOCTYPE svg PUBLIC "-//W3C//DTD SVG 1.1//EN" "http://www.w3.org/Graphics/SVG/1.1/DTD/svg11.dtd">
<svg version="1.1" id="Layer_1" xmlns="http://www.w3.org/2000/svg" xmlns:xlink="http://www.w3.org/1999/xlink" x="0px" y="0px"
	 width="155px" height="155px" viewBox="0 0 155 155" enable-background="new 0 0 155 155" xml:space="preserve">
<g>
	<path d="M77.083,152.164c-41.355,0-75-33.645-75-75s33.645-75,75-75c41.354,0,75,33.645,75,75S118.438,152.164,77.083,152.164z"/>
	<path fill="#FFFFFF" d="M75.14,38.374C54.623,39.391,38.244,56.4,38.244,77.164s16.379,37.773,36.896,38.79
		c-0.047-10.614-0.065-23.401-0.065-38.79S75.092,48.988,75.14,38.374z"/>
	<path fill="#FFFFFF" d="M115.922,77.164c0-20.764-16.379-37.773-36.896-38.79c0.048,10.614,0.065,23.401,0.065,38.79
		s-0.018,28.176-0.065,38.79C99.543,114.938,115.922,97.928,115.922,77.164z"/>
	<path fill="#FFFFFF" d="M34.226,77.164c0-22.986,18.191-41.798,40.933-42.809c0.068-12.447,0.186-21.592,0.374-28.135
		C37.109,7.052,6.101,38.545,6.101,77.164s31.008,70.112,69.432,70.943c-0.188-6.541-0.305-15.688-0.374-28.135
		C52.417,118.962,34.226,100.15,34.226,77.164z"/>
	<path fill="#FFFFFF" d="M148.065,77.164c0-38.619-31.009-70.112-69.433-70.943c0.188,6.543,0.306,15.688,0.374,28.135
		c22.742,1.011,40.934,19.822,40.934,42.809s-18.191,41.798-40.934,42.809c-0.068,12.447-0.186,21.594-0.374,28.135
		C117.057,147.276,148.065,115.783,148.065,77.164z"/>
	<path d="M69.753,45.874C55.552,49.201,44.94,61.963,44.94,77.164c0,15.202,10.612,27.963,24.813,31.29
		c-0.027-9.318-0.037-19.783-0.037-31.29S69.726,55.192,69.753,45.874z"/>
	<path d="M109.226,77.164c0-15.201-10.611-27.963-24.813-31.29c0.027,9.318,0.037,19.783,0.037,31.29s-0.01,21.972-0.037,31.29
		C98.614,105.127,109.226,92.366,109.226,77.164z"/>
	<path d="M27.529,77.164c0-24.864,18.409-45.504,42.313-49.02c0.042-5.634,0.1-10.596,0.174-14.87
		c-32.134,3.531-57.219,30.831-57.219,63.89s25.085,60.358,57.219,63.89c-0.075-4.274-0.132-9.236-0.174-14.87
		C45.938,122.668,27.529,102.028,27.529,77.164z"/>
	<path d="M141.369,77.164c0-33.059-25.086-60.358-57.22-63.89c0.075,4.274,0.132,9.236,0.175,14.87
		c23.903,3.516,42.313,24.155,42.313,49.02s-18.409,45.504-42.313,49.02c-0.043,5.634-0.1,10.596-0.175,14.87
		C116.283,137.522,141.369,110.223,141.369,77.164z"/>
</g>
</svg>
