<?xml version="1.0" encoding="utf-8"?>
<!-- Generator: Adobe Illustrator 15.1.0, SVG Export Plug-In . SVG Version: 6.00 Build 0)  -->
<!DOCTYPE svg PUBLIC "-//W3C//DTD SVG 1.1//EN" "http://www.w3.org/Graphics/SVG/1.1/DTD/svg11.dtd">
<svg version="1.1" id="Layer_1" xmlns="http://www.w3.org/2000/svg" xmlns:xlink="http://www.w3.org/1999/xlink" x="0px" y="0px"
	 width="155px" height="155px" viewBox="0 0 155 155" enable-background="new 0 0 155 155" xml:space="preserve">
<g>
	<path d="M32.467,77.164c0-23.613,18.173-43.054,41.265-45.095c0.21-14.547,0.594-24.026,1.248-29.835
		C34.904,3.699,2.75,36.737,2.75,77.164s32.154,73.465,72.229,74.93c-0.654-5.809-1.038-15.288-1.248-29.835
		C50.64,120.218,32.467,100.777,32.467,77.164z"/>
	<path d="M152.75,77.164c0-40.427-32.154-73.465-72.229-74.93c0.654,5.809,1.038,15.288,1.248,29.835
		c23.092,2.041,41.265,21.481,41.265,45.095s-18.173,43.054-41.265,45.095c-0.21,14.547-0.594,24.026-1.248,29.835
		C120.596,150.629,152.75,117.591,152.75,77.164z"/>
	<path d="M73.632,40.607c-18.354,2.056-32.675,17.661-32.675,36.557s14.32,34.501,32.675,36.557
		c-0.093-10.083-0.127-22.154-0.127-36.557S73.539,50.69,73.632,40.607z"/>
	<path d="M114.543,77.164c0-18.896-14.32-34.501-32.675-36.557c0.093,10.083,0.127,22.154,0.127,36.557s-0.034,26.474-0.127,36.557
		C100.223,111.665,114.543,96.06,114.543,77.164z"/>
	<linearGradient id="SVGID_1_" gradientUnits="userSpaceOnUse" x1="8.4102" y1="77.1641" x2="147.0898" y2="77.1641">
		<stop  offset="0" style="stop-color:#BB2C26"/>
		<stop  offset="0.0504" style="stop-color:#BE3226"/>
		<stop  offset="0.1163" style="stop-color:#C64225"/>
		<stop  offset="0.1905" style="stop-color:#D35D24"/>
		<stop  offset="0.25" style="stop-color:#E07823"/>
		<stop  offset="0.2566" style="stop-color:#E17A23"/>
		<stop  offset="0.327" style="stop-color:#EE8B1F"/>
		<stop  offset="0.404" style="stop-color:#F5951E"/>
		<stop  offset="0.5" style="stop-color:#F7981D"/>
		<stop  offset="0.596" style="stop-color:#F5951E"/>
		<stop  offset="0.673" style="stop-color:#EE8B1F"/>
		<stop  offset="0.7434" style="stop-color:#E17A23"/>
		<stop  offset="0.75" style="stop-color:#E07823"/>
		<stop  offset="0.7672" style="stop-color:#DB6E23"/>
		<stop  offset="0.8266" style="stop-color:#CD5125"/>
		<stop  offset="0.8857" style="stop-color:#C33D25"/>
		<stop  offset="0.9439" style="stop-color:#BD3026"/>
		<stop  offset="1" style="stop-color:#BB2C26"/>
	</linearGradient>
	<path fill="url(#SVGID_1_)" d="M68.647,143.239c0.044,0.9,0.09,1.787,0.137,2.665C34.772,141.49,8.41,112.357,8.41,77.164
		s26.362-64.326,60.374-68.74c-0.047,0.878-0.093,1.765-0.137,2.665c-0.212,4.272-0.375,9.458-0.498,16.051
		c-23.515,4.505-41.343,25.216-41.343,50.024s17.828,45.52,41.343,50.024C68.272,133.781,68.436,138.967,68.647,143.239z
		 M147.09,77.164c0-35.193-26.362-64.326-60.374-68.74c0.047,0.878,0.093,1.765,0.137,2.665c0.212,4.272,0.375,9.458,0.498,16.051
		c23.515,4.505,41.343,25.216,41.343,50.024s-17.828,45.52-41.343,50.024c-0.123,6.593-0.286,11.778-0.498,16.051
		c-0.044,0.9-0.09,1.787-0.137,2.665C120.728,141.49,147.09,112.357,147.09,77.164z M108.882,77.164
		c0-13.757-8.927-25.422-21.301-29.539c0.051,8.293,0.074,18.017,0.074,29.539s-0.023,21.246-0.074,29.539
		C99.955,102.586,108.882,90.921,108.882,77.164z M67.919,47.625c-12.374,4.117-21.301,15.782-21.301,29.539
		s8.927,25.422,21.301,29.539c-0.051-8.293-0.074-18.017-0.074-29.539S67.868,55.918,67.919,47.625z"/>
</g>
</svg>
