<?xml version="1.0" encoding="utf-8"?>
<!-- Generator: Adobe Illustrator 15.1.0, SVG Export Plug-In . SVG Version: 6.00 Build 0)  -->
<!DOCTYPE svg PUBLIC "-//W3C//DTD SVG 1.1//EN" "http://www.w3.org/Graphics/SVG/1.1/DTD/svg11.dtd">
<svg version="1.1" id="Layer_1" xmlns="http://www.w3.org/2000/svg" xmlns:xlink="http://www.w3.org/1999/xlink" x="0px" y="0px"
	 width="155px" height="155px" viewBox="0 0 155 155" enable-background="new 0 0 155 155" xml:space="preserve">
<g>
	<path d="M73.731,122.592c0.21,14.547,0.594,24.026,1.248,29.835C34.904,150.962,2.75,117.924,2.75,77.497
		S34.904,4.032,74.979,2.567c-0.654,5.809-1.038,15.288-1.248,29.835C50.64,34.443,32.467,53.884,32.467,77.497
		S50.64,120.551,73.731,122.592z M152.75,77.497c0-40.427-32.154-73.465-72.229-74.93c0.654,5.809,1.038,15.288,1.248,29.835
		c23.092,2.041,41.265,21.481,41.265,45.095s-18.173,43.054-41.265,45.095c-0.21,14.547-0.594,24.026-1.248,29.835
		C120.596,150.962,152.75,117.924,152.75,77.497z M73.632,40.94c-18.354,2.056-32.675,17.661-32.675,36.557
		s14.32,34.501,32.675,36.557c-0.093-10.083-0.127-22.154-0.127-36.557S73.539,51.023,73.632,40.94z M114.543,77.497
		c0-18.896-14.32-34.501-32.675-36.557c0.093,10.083,0.127,22.154,0.127,36.557s-0.034,26.474-0.127,36.557
		C100.223,111.998,114.543,96.393,114.543,77.497z"/>
	<linearGradient id="SVGID_1_" gradientUnits="userSpaceOnUse" x1="8.4102" y1="77.4971" x2="147.0898" y2="77.4971">
		<stop  offset="0" style="stop-color:#612C75"/>
		<stop  offset="0.0788" style="stop-color:#653279"/>
		<stop  offset="0.1817" style="stop-color:#714285"/>
		<stop  offset="0.25" style="stop-color:#7B5190"/>
		<stop  offset="0.2786" style="stop-color:#8C639D"/>
		<stop  offset="0.3259" style="stop-color:#A37BAE"/>
		<stop  offset="0.3763" style="stop-color:#B38CBA"/>
		<stop  offset="0.4314" style="stop-color:#BC96C1"/>
		<stop  offset="0.5" style="stop-color:#BF99C3"/>
		<stop  offset="0.5686" style="stop-color:#BC96C1"/>
		<stop  offset="0.6237" style="stop-color:#B38CBA"/>
		<stop  offset="0.6741" style="stop-color:#A37BAE"/>
		<stop  offset="0.7214" style="stop-color:#8C639D"/>
		<stop  offset="0.75" style="stop-color:#7B5190"/>
		<stop  offset="0.8345" style="stop-color:#6D3D81"/>
		<stop  offset="0.9187" style="stop-color:#643078"/>
		<stop  offset="1" style="stop-color:#612C75"/>
	</linearGradient>
	<path fill="url(#SVGID_1_)" d="M68.647,143.572c0.044,0.9,0.09,1.787,0.137,2.665C34.772,141.823,8.41,112.69,8.41,77.497
		s26.362-64.326,60.374-68.74c-0.047,0.878-0.093,1.765-0.137,2.665c-0.212,4.272-0.375,9.458-0.498,16.051
		c-23.515,4.505-41.343,25.216-41.343,50.024s17.828,45.52,41.343,50.024C68.272,134.114,68.436,139.3,68.647,143.572z
		 M147.09,77.497c0-35.193-26.362-64.326-60.374-68.74c0.047,0.878,0.093,1.765,0.137,2.665c0.212,4.272,0.375,9.458,0.498,16.051
		c23.515,4.505,41.343,25.216,41.343,50.024s-17.828,45.52-41.343,50.024c-0.123,6.593-0.286,11.778-0.498,16.051
		c-0.044,0.9-0.09,1.787-0.137,2.665C120.728,141.823,147.09,112.69,147.09,77.497z M108.882,77.497
		c0-13.757-8.927-25.422-21.301-29.539c0.051,8.293,0.074,18.017,0.074,29.539s-0.023,21.246-0.074,29.539
		C99.955,102.919,108.882,91.254,108.882,77.497z M67.919,47.958C55.545,52.075,46.618,63.74,46.618,77.497
		s8.927,25.422,21.301,29.539c-0.051-8.293-0.074-18.017-0.074-29.539S67.868,56.251,67.919,47.958z"/>
</g>
</svg>
