<?xml version="1.0" encoding="utf-8"?>
<!-- Generator: Adobe Illustrator 15.1.0, SVG Export Plug-In . SVG Version: 6.00 Build 0)  -->
<!DOCTYPE svg PUBLIC "-//W3C//DTD SVG 1.1//EN" "http://www.w3.org/Graphics/SVG/1.1/DTD/svg11.dtd">
<svg version="1.1" id="Layer_1" xmlns="http://www.w3.org/2000/svg" xmlns:xlink="http://www.w3.org/1999/xlink" x="0px" y="0px"
	 width="155px" height="155px" viewBox="0 0 155 155" enable-background="new 0 0 155 155" xml:space="preserve">
<g>
	<path d="M32.689,77.164c0-23.613,18.173-43.054,41.265-45.095c0.21-14.547,0.594-24.026,1.248-29.835
		C35.126,3.699,2.972,36.737,2.972,77.164s32.154,73.465,72.229,74.93c-0.654-5.809-1.038-15.288-1.248-29.835
		C50.862,120.218,32.689,100.777,32.689,77.164z"/>
	<path d="M152.973,77.164c0-40.427-32.154-73.465-72.23-74.93c0.654,5.809,1.039,15.288,1.248,29.835
		c23.092,2.041,41.266,21.481,41.266,45.095s-18.174,43.054-41.266,45.095c-0.209,14.547-0.594,24.026-1.248,29.835
		C120.818,150.629,152.973,117.591,152.973,77.164z"/>
	<path d="M73.854,40.607C55.5,42.663,41.179,58.269,41.179,77.164s14.32,34.501,32.675,36.557
		c-0.093-10.083-0.127-22.154-0.127-36.557S73.761,50.69,73.854,40.607z"/>
	<path d="M114.764,77.164c0-18.896-14.318-34.501-32.674-36.557c0.094,10.083,0.127,22.154,0.127,36.557s-0.033,26.474-0.127,36.557
		C100.445,111.665,114.764,96.06,114.764,77.164z"/>
	<linearGradient id="SVGID_1_" gradientUnits="userSpaceOnUse" x1="8.6323" y1="77.1641" x2="147.3125" y2="77.1641">
		<stop  offset="0" style="stop-color:#626E77"/>
		<stop  offset="0.0508" style="stop-color:#67747D"/>
		<stop  offset="0.1173" style="stop-color:#74838D"/>
		<stop  offset="0.1921" style="stop-color:#8B9DA8"/>
		<stop  offset="0.25" style="stop-color:#A0B6C2"/>
		<stop  offset="0.2534" style="stop-color:#A1B7C3"/>
		<stop  offset="0.3247" style="stop-color:#ADC6D4"/>
		<stop  offset="0.4027" style="stop-color:#B5CEDE"/>
		<stop  offset="0.5" style="stop-color:#B7D1E1"/>
		<stop  offset="0.5973" style="stop-color:#B5CEDE"/>
		<stop  offset="0.6753" style="stop-color:#ADC6D4"/>
		<stop  offset="0.7466" style="stop-color:#A1B7C3"/>
		<stop  offset="0.75" style="stop-color:#A0B6C2"/>
		<stop  offset="0.7657" style="stop-color:#99ADB9"/>
		<stop  offset="0.8254" style="stop-color:#81929C"/>
		<stop  offset="0.8849" style="stop-color:#707E88"/>
		<stop  offset="0.9435" style="stop-color:#65727B"/>
		<stop  offset="1" style="stop-color:#626E77"/>
	</linearGradient>
	<path fill="url(#SVGID_1_)" d="M68.87,143.239c0.044,0.9,0.09,1.787,0.137,2.665c-34.012-4.414-60.374-33.547-60.374-68.74
		s26.362-64.326,60.374-68.74c-0.047,0.878-0.093,1.765-0.137,2.665c-0.212,4.272-0.375,9.458-0.498,16.051
		c-23.515,4.505-41.343,25.216-41.343,50.024s17.828,45.52,41.343,50.024C68.495,133.781,68.658,138.967,68.87,143.239z
		 M147.313,77.164c0-35.193-26.363-64.326-60.375-68.74c0.047,0.878,0.094,1.765,0.137,2.665c0.213,4.272,0.375,9.458,0.498,16.051
		c23.516,4.505,41.344,25.216,41.344,50.024s-17.828,45.52-41.344,50.024c-0.123,6.593-0.285,11.778-0.498,16.051
		c-0.043,0.9-0.09,1.787-0.137,2.665C120.949,141.49,147.313,112.357,147.313,77.164z M109.104,77.164
		c0-13.757-8.926-25.422-21.301-29.539c0.051,8.293,0.074,18.017,0.074,29.539s-0.023,21.246-0.074,29.539
		C100.178,102.586,109.104,90.921,109.104,77.164z M68.141,47.625C55.767,51.742,46.84,63.407,46.84,77.164
		s8.927,25.422,21.301,29.539c-0.051-8.293-0.074-18.017-0.074-29.539S68.09,55.918,68.141,47.625z"/>
</g>
</svg>
