<?xml version="1.0" encoding="UTF-8" standalone="no"?>
<svg xmlns:svg="http://www.w3.org/2000/svg" xmlns="http://www.w3.org/2000/svg" x="0px" y="0px" width="328.875px" height="426.762px">
  <path d="M66.429,19.781c24.55,3.01,49.28,4.51,74.011,5c23-0.189,46.01,0.52,68.989-0.68   c17.72-0.75,35.42-2.16,53.03-4.33c2.56,12.25,5.939,24.32,9.91,36.189c-7.92,2.061-16.211,4.93-21.73,11.301   c-6.109,6.92-6.62,18.18-0.92,25.5c4.18,5.549,10.68,8.729,17.12,10.879c9.29,3.051,19.12,3.781,28.819,4.261   c-13.449,18.06-32,31.899-52.16,41.68c-20.889-10.819-36.159-31.75-39.59-55.069c-26.31,0.029-52.619,0.049-78.92-0.01   c-3.439,23.319-18.68,44.27-39.58,55.069c-20.18-9.729-38.699-23.62-52.17-41.66c10.19-0.521,20.551-1.28,30.23-4.771   c6.15-2.189,12.3-5.479,16.109-10.969c5.281-7.301,4.65-18.181-1.33-24.9c-5.5-6.381-13.809-9.221-21.719-11.311   C60.498,44.092,63.869,32.021,66.429,19.781z"/>
  <path d="M17.509,114.981c14.749,21.021,35.64,37,58.26,48.771c1.87,4.739,2.55,9.869,4.181,14.709   c7.359,26.95,18.47,52.75,31.709,77.311c-14.879,10.47-27.1,24.359-36.83,39.66c-1.5,2.22-2.549,4.75-4.379,6.729   c-0.931-1.17-1.681-2.47-2.381-3.771C37.539,242.191,19.738,178.941,17.509,114.981z"/>
  <path d="M253.119,163.731c22.629-11.74,43.5-27.75,58.27-48.75c-1.72,50.25-13.199,100.021-32.66,146.329   c-6.08,13.941-12.4,27.861-20.279,40.881c-5.561-8.391-10.83-17.07-17.551-24.641c-7-8.149-14.88-15.58-23.67-21.77   c13.07-24.34,24.18-49.84,31.48-76.52C250.408,174.151,251.179,168.752,253.119,163.731z"/>
  <path d="M118.988,271.541c0.98-0.83,1.76-0.66,2.33,0.52c12.381,19.721,26.561,38.421,43.131,54.82   c15.16-15.029,28.33-31.99,39.97-49.85c1.37-2.04,2.44-4.311,4.149-6.09c1.211,0.24,2.101,1.17,3.07,1.88   c15.561,12.53,28.01,28.92,36.37,47.01c-21.69,34.101-49.3,65.181-83.569,87.04c-34.371-21.84-61.761-53.1-83.75-87.07   C89.809,301.262,102.408,284.071,118.988,271.541z"/>
</svg>
