<?xml version="1.0" encoding="UTF-8" standalone="no"?>
<svg xmlns="http://www.w3.org/2000/svg" version="1.1" width="600" height="338.65573">
  <path d="m 470.91672,338.65573 37.60688,-38.90844 c 25.71742,-26.57589 23.51122,-35.18837 22.21889,-37.17302 -2.09543,-3.28622 -8.90787,-7.92938 -18.93267,-10.45866 -4.47701,-1.11695 -9.23095,-1.68926 -14.16951,-1.68926 -11.07713,0 -23.37275,2.8062 -37.46841,8.53862 -28.69901,11.7233 -55.16413,31.80984 -74.6045,56.57647 l -16.47724,21.0281 -7.92939,-25.45895 c -4.08007,-13.05256 -11.15098,-25.0251 -20.99117,-35.59453 -9.12017,-9.76634 -18.24035,-15.79415 -26.39127,-17.34495 -1.73542,-0.32345 -3.6093,-0.46155 -5.6678,-0.46155 -8.28939,0 -17.9542,2.80621 -27.11129,5.73242 -8.11401,2.52005 -14.8526,4.82778 -21.12964,7.754 l -32.34524,14.96336 13.48642,-33.00064 c 1.32925,-3.24006 2.4185,-6.84936 3.49853,-11.60329 2.27081,-10.13558 2.48312,-17.30803 0.68309,-21.38811 -2.91698,-6.4155 -14.49259,-11.97253 -26.89898,-12.86794 -1.15387,-0.0738 -2.34466,-0.11077 -3.49853,-0.11077 -8.36324,0 -16.62494,2.16004 -25.13587,6.67398 l -62.30889,28.88363 45.83165,-51.13944 c 4.6524,-4.68009 8.65863,-10.38482 12.55409,-17.88035 2.63082,-5.0124 6.01858,-12.33254 5.33549,-17.85265 -0.68309,-5.51087 -5.6955,-12.07408 -11.89869,-15.5726 -4.6524,-2.63082 -10.74482,-3.85854 -19.11729,-3.85854 -4.35701,0 -9.00941,0.32345 -13.08948,0.64617 -6.81244,0.54425 -14.05874,1.15387 -20.9081,2.66774 l -55.570294,12.40639 43.486984,-36.77609 c 5.44626,-4.57855 10.31097,-10.45866 14.88952,-17.96342 2.70467,-4.43085 6.31397,-10.95713 6.35089,-16.7634 0.0369,-5.73242 -3.13852,-12.51716 -7.79092,-16.47724 -5.88011,-4.97548 -15.89569,-6.67397 -25.56049,-8.33554 -11.178674,-1.87388 -22.75428,-3.78469 -34.117575,-3.78469 -0.609243,0 -1.292333,0 -1.94773,0 L 0,53.40103 59.567296,25.38511 C 94.792587,8.87094 132.261,0.03693 167.88322,0 l 0.43349,0 c 30.96982,0 62.99197,6.52628 95.08797,19.39422 48.78555,19.57884 97.82034,54.37951 139.3596,98.62343 8.29862,-7.03398 16.19108,-12.58178 24.26816,-17.09571 11.86176,-6.60013 23.29891,-10.42174 34.83759,-11.64022 2.74159,-0.25847 5.5478,-0.43423 8.36324,-0.43423 18.02803,0 37.92995,6.01858 57.58264,17.34495 l 29.92673,17.2711 -33.5268,8.43709 c -32.52986,8.17861 -54.5272,25.02509 -65.91819,40.38539 2.91698,-0.11078 5.98166,-0.18462 9.19402,-0.18462 5.29857,0 11.03099,0.14769 18.57267,0.3973 37.89303,1.4031 80.15231,5.59395 101.90041,37.68072 11.35407,16.80032 15.07414,38.33612 9.44326,54.85028 -5.29856,15.49876 -18.35112,26.39128 -30.43443,34.97606 -15.75722,11.17867 -29.81595,18.46189 -44.27162,22.85582 l -51.7856,15.79415 z" style="fill:#ffffff"/>
  <path d="m 518.62226,309.48594 c 24.05584,-24.8774 31.87445,-42.08388 23.90815,-54.48104 -4.97548,-7.71708 -16.04339,-13.63411 -27.29591,-16.48647 -20.12346,-5.0401 -40.89309,-0.42463 -60.36116,7.50475 -31.47753,12.84025 -59.53037,34.32989 -80.33693,60.90579 -4.72624,-15.11106 -12.91409,-28.92056 -24.12969,-40.96694 -9.48018,-10.16327 -21.19425,-19.07114 -33.99757,-21.52657 -12.7664,-2.4462 -26.64975,1.51388 -39.62846,5.62165 -7.90169,2.45543 -15.43414,5.0124 -22.7912,8.44631 1.80003,-4.51393 3.06467,-9.05555 4.18162,-13.84642 2.27081,-10.13557 3.72007,-21.49887 -0.21269,-30.25904 -5.76934,-12.72947 -23.00351,-19.93884 -38.6592,-21.05579 -13.19102,-0.97848 -25.23741,2.38159 -36.16685,8.15093 6.10166,-6.2032 10.89252,-13.34795 15.00029,-21.31426 4.29239,-8.18785 7.93862,-17.2711 6.82167,-26.03126 -1.30156,-10.53251 -9.34172,-20.65886 -18.89575,-26.03127 -12.00946,-6.78475 -26.46512,-6.06473 -40.17307,-4.98471 -7.79092,0.61884 -15.3603,1.30156 -22.85583,3.00005 7.06168,-6.0278 12.83102,-13.31102 17.76957,-21.42502 4.55086,-7.34784 8.33555,-15.42491 8.4094,-23.93585 C 149.30982,70.70905 144.19624,60.06577 136.5161,53.5118 127.78362,46.08089 115.74647,43.98546 104.17086,42.03773 91.044454,39.84077 78.462674,37.81919 65.511657,38.07766 97.24765,23.14199 132.72218,14.05873 167.91977,13.98489 c 30.79444,-0.0738 61.36734,6.82167 90.25097,18.38804 56.65031,22.75428 106.8482,63.64738 143.66121,105.39895 10.67098,-10.23712 20.98194,-18.48959 32.02216,-24.62817 9.25864,-5.11394 19.03421,-8.83401 29.49287,-9.91403 17.91727,-1.87389 37.89303,3.78468 57.47187,15.07413 -54.48104,13.73565 -81.7031,48.53632 -85.20163,70.45981 14.60335,-2.99082 31.47752,-2.92621 49.90249,-2.23388 33.6468,1.21848 72.48139,4.39393 90.83251,31.51445 8.22478,12.14792 12.33255,29.13286 7.79092,42.43466 -3.9693,11.64945 -14.56643,20.48347 -25.27433,28.08977 -12.84024,9.16633 -25.78203,16.48647 -40.24692,20.91732"/>
</svg>
