<?xml version="1.0" encoding="UTF-8" standalone="no"?>
<svg xmlns="http://www.w3.org/2000/svg" xmlns:xlink="http://www.w3.org/1999/xlink" version="1.1" width="600" height="338.65573">
  <linearGradient x1="0" y1="0" x2="1" y2="0" id="linearGradient828" gradientUnits="userSpaceOnUse" gradientTransform="matrix(10.755646,-40.140625,-40.140625,-10.755646,479.16797,53.647461)" spreadMethod="pad">
    <stop style="stop-color:#bf331c" offset="0"/>
    <stop style="stop-color:#d3641c" offset="0.3"/>
    <stop style="stop-color:#f6b91d" offset="0.5"/>
    <stop style="stop-color:#d3641c" offset="0.7"/>
    <stop style="stop-color:#bf331c" offset="1"/>
  </linearGradient>
  <linearGradient x1="0" y1="0" x2="1" y2="0" id="linearGradient2995" xlink:href="#linearGradient828" gradientUnits="userSpaceOnUse" gradientTransform="matrix(10.755646,-40.140625,-40.140625,-10.755646,479.16797,53.647461)" spreadMethod="pad"/>
  <linearGradient x1="0" y1="0" x2="1" y2="0" id="linearGradient2998" xlink:href="#linearGradient828" gradientUnits="userSpaceOnUse" gradientTransform="matrix(99.284794,370.53595,-370.53595,99.284794,281.7559,-24.18933)" spreadMethod="pad"/>
  <path d="m 470.91672,338.65573 37.60688,-38.90844 c 25.71742,-26.57589 23.51122,-35.18837 22.21889,-37.17302 -2.09543,-3.28622 -8.90787,-7.92938 -18.93267,-10.45866 -4.47701,-1.11695 -9.23095,-1.68926 -14.16951,-1.68926 -11.07713,0 -23.37275,2.8062 -37.46841,8.53862 -28.69901,11.7233 -55.16413,31.80984 -74.6045,56.57647 l -16.47724,21.0281 -7.92939,-25.45895 c -4.08007,-13.05256 -11.15098,-25.0251 -20.99117,-35.59453 -9.12017,-9.76634 -18.24035,-15.79415 -26.39127,-17.34495 -1.73542,-0.32345 -3.6093,-0.46155 -5.6678,-0.46155 -8.28939,0 -17.9542,2.80621 -27.11129,5.73242 -8.11401,2.52005 -14.8526,4.82778 -21.12964,7.754 l -32.34524,14.96336 13.48642,-33.00064 c 1.32925,-3.24006 2.4185,-6.84936 3.49853,-11.60329 2.27081,-10.13558 2.48312,-17.30803 0.68309,-21.38811 -2.91698,-6.4155 -14.49259,-11.97253 -26.89898,-12.86794 -1.15387,-0.0738 -2.34466,-0.11077 -3.49853,-0.11077 -8.36324,0 -16.62494,2.16004 -25.13587,6.67398 l -62.30889,28.88363 45.83165,-51.13944 c 4.6524,-4.68009 8.65863,-10.38482 12.55409,-17.88035 2.63082,-5.0124 6.01858,-12.33254 5.33549,-17.85265 -0.68309,-5.51087 -5.6955,-12.07408 -11.89869,-15.5726 -4.6524,-2.63082 -10.74482,-3.85854 -19.11729,-3.85854 -4.35701,0 -9.00941,0.32345 -13.08948,0.64617 -6.81244,0.54425 -14.05874,1.15387 -20.9081,2.66774 l -55.570294,12.40639 43.486984,-36.77609 c 5.44626,-4.57855 10.31097,-10.45866 14.88952,-17.96342 2.70467,-4.43085 6.31397,-10.95713 6.35089,-16.7634 0.0369,-5.73242 -3.13852,-12.51716 -7.79092,-16.47724 -5.88011,-4.97548 -15.89569,-6.67397 -25.56049,-8.33554 -11.178674,-1.87388 -22.75428,-3.78469 -34.117575,-3.78469 -0.609243,0 -1.292333,0 -1.94773,0 L 0,53.40103 59.567296,25.38511 C 94.792587,8.87094 132.261,0.03693 167.88322,0 l 0.43349,0 c 30.96982,0 62.99197,6.52628 95.08797,19.39422 48.78555,19.57884 97.82034,54.37951 139.3596,98.62343 8.29862,-7.03398 16.19108,-12.58178 24.26816,-17.09571 11.86176,-6.60013 23.29891,-10.42174 34.83759,-11.64022 2.74159,-0.25847 5.5478,-0.43423 8.36324,-0.43423 18.02803,0 37.92995,6.01858 57.58264,17.34495 l 29.92673,17.2711 -33.5268,8.43709 c -32.52986,8.17861 -54.5272,25.02509 -65.91819,40.38539 2.91698,-0.11078 5.98166,-0.18462 9.19402,-0.18462 5.29857,0 11.03099,0.14769 18.57267,0.3973 37.89303,1.4031 80.15231,5.59395 101.90041,37.68072 11.35407,16.80032 15.07414,38.33612 9.44326,54.85028 -5.29856,15.49876 -18.35112,26.39128 -30.43443,34.97606 -15.75722,11.17867 -29.81595,18.46189 -44.27162,22.85582 l -51.7856,15.79415 z"/>
  <path d="m 167.92014,13.98489 c -35.19759,0.0738 -70.672121,9.19402 -102.408114,24.09277 l 0,0 c 12.951017,-0.25847 25.532797,1.76311 38.659204,3.96007 l 0,0 c 11.57561,1.94773 23.61276,4.04316 32.34523,11.47407 l 0,0 c 7.68015,6.55397 12.7941,17.19725 12.69256,27.25898 l 0,0 c -0.0739,8.47401 -3.89546,16.58801 -8.4094,23.93585 l 0,0 c -4.93855,8.114 -10.70789,15.43414 -17.76957,21.42502 l 0,0 c 7.49553,-1.69849 15.06491,-2.38158 22.85583,-3.00005 l 0,0 c 13.70795,-1.08002 28.12669,-1.80004 40.17307,4.98471 l 0,0 c 9.55403,5.37241 17.59419,15.49876 18.89575,26.03127 l 0,0 c 1.08002,8.76016 -2.52928,17.84341 -6.82167,26.03126 l 0,0 c -4.10777,7.93862 -8.87094,15.11106 -15.00029,21.31426 l 0,0 c 10.92944,-5.76934 22.97583,-9.12941 36.16685,-8.15093 l 0,0 c 15.65569,1.11695 32.88986,8.32632 38.6592,21.05579 l 0,0 c 3.93239,8.76017 2.48313,20.12347 0.21232,30.25904 l 0,0 c -1.11695,4.79087 -2.38159,9.33249 -4.18162,13.8095 l 0,0 c 7.32014,-3.39699 14.88951,-5.95396 22.7912,-8.40939 l 0,0 c 12.97871,-4.10777 26.86206,-8.04016 39.62846,-5.62165 l 0,0 c 12.83101,2.45543 24.51739,11.3633 33.99757,21.52657 l 0,0 c 11.2156,12.04638 19.40345,25.85588 24.12969,40.96694 l 0,0 c 20.84348,-26.5759 48.8594,-48.06554 80.33693,-60.90579 l 0,0 c 19.46807,-7.92938 40.2377,-12.54485 60.36116,-7.50475 l 0,0 c 11.25252,2.85236 22.32043,8.73247 27.29591,16.48647 l 0,0 c 7.9663,12.43408 0.14769,29.60364 -23.90815,54.48104 l 0,0 c 14.46489,-4.40316 27.40667,-11.78792 40.24692,-20.91732 l 0,0 c 10.7079,-7.6063 21.30503,-16.44032 25.27433,-28.08977 l 0,0 c 4.54163,-13.3018 0.43386,-30.28674 -7.79092,-42.43466 l 0,0 c -18.35112,-27.12052 -57.18571,-30.29597 -90.83251,-31.51445 l 0,0 c -18.42497,-0.69233 -35.29914,-0.75694 -49.90249,2.23388 l 0,0 c 3.49852,-21.92349 30.72059,-56.72416 85.20163,-70.45981 l 0,0 c -19.57884,-11.28945 -39.5546,-16.94802 -57.47187,-15.07413 l 0,0 c -10.45866,1.11694 -20.19731,4.80009 -29.49287,9.91403 l 0,0 c -11.04022,6.16627 -21.35118,14.39105 -32.02216,24.62817 l 0,0 C 365.01931,96.02031 314.82142,55.12721 258.17111,32.40986 l 0,0 C 229.39825,20.83425 198.96382,13.98489 168.28015,13.98489 l 0,0 -0.36001,0" style="fill:url(#linearGradient2998)"/>
</svg>
