<svg xmlns="http://www.w3.org/2000/svg" version="1.1" width="520.5119" height="295.50165">
  <path d="m 453.1106,295.50164 c 24.05584,-24.8774 31.87445,-42.08388 23.90815,-54.48104 -4.97548,-7.71708 -16.04339,-13.63411 -27.29591,-16.48647 -20.12346,-5.0401 -40.89309,-0.42463 -60.36116,7.50475 -31.47753,12.84025 -59.53037,34.32989 -80.33693,60.90579 -4.72624,-15.11106 -12.91409,-28.92056 -24.12969,-40.96694 -9.48018,-10.16327 -21.19425,-19.07114 -33.99757,-21.52657 -12.7664,-2.4462 -26.64975,1.51388 -39.62846,5.62165 -7.90169,2.45543 -15.43414,5.0124 -22.7912,8.44631 1.80003,-4.51393 3.06467,-9.05555 4.18162,-13.84642 2.27081,-10.13557 3.72007,-21.49887 -0.21269,-30.25904 -5.76934,-12.72947 -23.00351,-19.93884 -38.6592,-21.05579 -13.19102,-0.97848 -25.23741,2.38159 -36.16685,8.15093 6.10166,-6.2032 10.89252,-13.34795 15.00029,-21.31426 4.29239,-8.18785 7.93862,-17.2711 6.82167,-26.03126 -1.30156,-10.53251 -9.34172,-20.65886 -18.89575,-26.03127 -12.00946,-6.78475 -26.465117,-6.06473 -40.173067,-4.98471 -7.79092,0.61884 -15.3603,1.30156 -22.85583,3.00005 7.06168,-6.0278 12.83102,-13.311024 17.76957,-21.425024 4.55086,-7.34784 8.33555,-15.42491 8.4094,-23.93585 0.10117,-10.06173 -5.01241,-20.70501 -12.69255,-27.25898 -8.73248,-7.43091 -20.76963,-9.52634 -32.34524,-11.47407 C 25.532797,25.856466 12.951017,23.834886 0,24.093356 31.735993,9.1576865 67.210523,0.07442646 102.40811,5.864618e-4 133.20255,-0.07321354 163.77545,6.8222565 192.65908,18.388626 c 56.65031,22.75428 106.8482,63.64738 143.66121,105.398954 10.67098,-10.23712 20.98194,-18.48959 32.02216,-24.628174 9.25864,-5.11394 19.03421,-8.83401 29.49287,-9.91403 17.91727,-1.87389 37.89303,3.78468 57.47187,15.074134 -54.48104,13.73565 -81.7031,48.53632 -85.20163,70.45981 14.60335,-2.99082 31.47752,-2.92621 49.90249,-2.23388 33.6468,1.21848 72.48139,4.39393 90.83251,31.51445 8.22478,12.14792 12.33255,29.13286 7.79092,42.43466 -3.9693,11.64945 -14.56643,20.48347 -25.27433,28.08977 -12.84024,9.16633 -25.78203,16.48647 -40.24692,20.91732"/>
</svg>
