<?xml version="1.0" encoding="utf-8"?>
<!-- Generator: Adobe Illustrator 15.1.0, SVG Export Plug-In . SVG Version: 6.00 Build 0)  -->
<!DOCTYPE svg PUBLIC "-//W3C//DTD SVG 1.1//EN" "http://www.w3.org/Graphics/SVG/1.1/DTD/svg11.dtd">
<svg version="1.1" id="Layer_1" xmlns="http://www.w3.org/2000/svg" xmlns:xlink="http://www.w3.org/1999/xlink" x="0px" y="0px"
	 width="155px" height="155px" viewBox="0 0 155 155" enable-background="new 0 0 155 155" xml:space="preserve">
<g id="Layer_1_1_">
</g>
<g id="Layer_3" display="none">
</g>
<g>
	<path fill="#FFFFFF" d="M59.237,152.117l-2.832-20.297c-0.894-0.344-1.777-0.709-2.648-1.094l-16.346,12.348l-25.854-25.852
		l12.349-16.349c-0.386-0.871-0.75-1.757-1.095-2.649L2.516,95.398V58.835l20.296-2.828c0.344-0.894,0.709-1.776,1.094-2.647
		L11.557,37.009l25.856-25.853l16.346,12.352c0.87-0.385,1.754-0.749,2.646-1.093l2.829-20.298h36.56l2.832,20.294
		c0.894,0.343,1.776,0.708,2.646,1.093l16.351-12.349l25.853,25.851l-12.347,16.349c0.386,0.871,0.751,1.756,1.095,2.65
		l20.293,2.829v36.563l-20.291,2.826c-0.345,0.895-0.709,1.778-1.095,2.651l12.349,16.349l-25.855,25.854l-16.346-12.348
		c-0.873,0.386-1.758,0.752-2.65,1.095L95.8,152.118L59.237,152.117L59.237,152.117z"/>
	<path d="M145.465,89.258V64.971l-18.513-2.581c-1.022-3.439-2.384-6.733-4.063-9.827l11.26-14.91L116.975,20.48l-14.91,11.262
		c-3.096-1.679-6.385-3.04-9.821-4.062L89.66,9.167H65.371l-2.579,18.514c-3.438,1.025-6.729,2.383-9.825,4.063L38.058,20.482
		L20.881,37.656l11.262,14.912c-1.679,3.093-3.039,6.385-4.063,9.824l-18.512,2.58V89.26l18.512,2.579
		c1.024,3.44,2.385,6.731,4.063,9.825l-11.262,14.91l17.177,17.174l14.906-11.259c3.098,1.68,6.391,3.038,9.828,4.063l2.582,18.513
		h24.287l2.581-18.513c3.438-1.022,6.73-2.383,9.828-4.063l14.904,11.259l17.176-17.174l-11.26-14.909
		c1.68-3.095,3.043-6.39,4.062-9.829L145.465,89.258z M119.396,79.682c-2.963,0-5.849,0.34-8.625,0.965
		c-1.642,15.651-14.074,28.084-29.727,29.727c-0.625,2.775-0.965,5.66-0.965,8.622c0,1.416-2.564,5.128-2.564,5.128
		s-2.564-3.712-2.564-5.128c0-2.962-0.339-5.847-0.964-8.622C58.34,108.73,45.904,96.298,44.263,80.646
		c-2.778-0.625-5.663-0.965-8.627-0.965c-1.416,0-5.128-2.564-5.128-2.564s3.712-2.564,5.128-2.564c2.964,0,5.849-0.34,8.627-0.965
		c1.642-15.651,14.077-28.084,29.725-29.726c0.624-2.777,0.964-5.662,0.964-8.627c0-1.416,2.564-5.128,2.564-5.128
		s2.564,3.712,2.564,5.128c0,2.965,0.34,5.85,0.966,8.627c15.649,1.642,28.084,14.074,29.726,29.726
		c2.776,0.625,5.662,0.965,8.625,0.965c1.416,0,5.127,2.564,5.127,2.564S120.813,79.682,119.396,79.682z M119.396,77.117
		c-23.131,0-41.88,18.749-41.88,41.877c0-23.128-18.749-41.877-41.88-41.877c23.131,0,41.88-18.75,41.88-41.882
		C77.516,58.367,96.266,77.117,119.396,77.117z"/>
</g>
</svg>
