<?xml version="1.0" encoding="utf-8"?>
<!-- Generator: Adobe Illustrator 15.1.0, SVG Export Plug-In . SVG Version: 6.00 Build 0)  -->
<!DOCTYPE svg PUBLIC "-//W3C//DTD SVG 1.1//EN" "http://www.w3.org/Graphics/SVG/1.1/DTD/svg11.dtd">
<svg version="1.1" id="Layer_1" xmlns="http://www.w3.org/2000/svg" xmlns:xlink="http://www.w3.org/1999/xlink" x="0px" y="0px"
	 width="155px" height="155px" viewBox="0 0 155 155" enable-background="new 0 0 155 155" xml:space="preserve">
<g id="Layer_1_1_">
</g>
<g id="Layer_3" display="none">
</g>
<g>
	<path fill="#FFFFFF" d="M59.53,152.617l-2.832-20.296c-0.894-0.344-1.777-0.709-2.648-1.094l-16.346,12.347l-25.854-25.852
		l12.349-16.349c-0.386-0.871-0.75-1.757-1.095-2.649L2.808,95.897V59.335l20.296-2.828c0.344-0.894,0.709-1.776,1.094-2.647
		L11.849,37.509l25.856-25.853l16.346,12.352c0.87-0.385,1.754-0.749,2.646-1.093l2.829-20.298h36.559l2.832,20.294
		c0.893,0.343,1.777,0.708,2.646,1.093l16.351-12.349l25.852,25.851l-12.346,16.349c0.386,0.871,0.751,1.756,1.094,2.65
		l20.294,2.829v36.562l-20.291,2.827c-0.345,0.894-0.709,1.778-1.095,2.651l12.348,16.349l-25.855,25.853l-16.347-12.348
		c-0.873,0.386-1.758,0.752-2.65,1.095l-2.826,20.295H59.53z"/>
	<path fill="#626E77" d="M62.876,148.771l-2.689-19.277c-2.271-0.771-4.483-1.683-6.609-2.73l-15.521,11.724l-21.121-21.118
		l11.726-15.524c-1.048-2.126-1.962-4.337-2.731-6.609L6.654,92.55V62.684l19.276-2.688c0.771-2.272,1.684-4.481,2.731-6.607
		L16.936,37.862l21.121-21.119L53.58,28.471c2.123-1.045,4.334-1.958,6.607-2.729l2.688-19.278H92.74l2.689,19.275
		c2.268,0.769,4.479,1.681,6.605,2.73l15.527-11.727l21.117,21.116l-11.724,15.525c1.048,2.124,1.962,4.337,2.731,6.61l19.275,2.687
		v29.866l-19.273,2.686c-0.77,2.271-1.682,4.483-2.729,6.613l11.724,15.523l-21.121,21.119l-15.521-11.724
		c-2.125,1.045-4.336,1.959-6.611,2.729l-2.686,19.277H62.876z"/>
	<linearGradient id="SVGID_1_" gradientUnits="userSpaceOnUse" x1="29.7617" y1="29.5684" x2="125.8571" y2="125.6638">
		<stop  offset="0" style="stop-color:#626E77"/>
		<stop  offset="0.0418" style="stop-color:#697780"/>
		<stop  offset="0.1099" style="stop-color:#7D8E98"/>
		<stop  offset="0.1954" style="stop-color:#9EB4C0"/>
		<stop  offset="0.2" style="stop-color:#A0B6C2"/>
		<stop  offset="0.2041" style="stop-color:#A1B7C3"/>
		<stop  offset="0.2896" style="stop-color:#ADC6D4"/>
		<stop  offset="0.3832" style="stop-color:#B5CEDE"/>
		<stop  offset="0.5" style="stop-color:#B7D1E1"/>
		<stop  offset="0.6168" style="stop-color:#B5CEDE"/>
		<stop  offset="0.7104" style="stop-color:#ADC6D4"/>
		<stop  offset="0.7959" style="stop-color:#A1B7C3"/>
		<stop  offset="0.8" style="stop-color:#A0B6C2"/>
		<stop  offset="0.8463" style="stop-color:#8B9DA8"/>
		<stop  offset="0.9062" style="stop-color:#74838D"/>
		<stop  offset="0.9594" style="stop-color:#67747D"/>
		<stop  offset="1" style="stop-color:#626E77"/>
	</linearGradient>
	<path fill="url(#SVGID_1_)" d="M145.758,89.758V65.471l-18.513-2.581c-1.022-3.439-2.384-6.733-4.063-9.827l11.26-14.91
		L117.268,20.98l-14.91,11.262c-3.096-1.679-6.385-3.04-9.822-4.062L89.951,9.668H65.664l-2.579,18.514
		c-3.438,1.025-6.729,2.383-9.825,4.063L38.35,20.982L21.173,38.156l11.262,14.912c-1.679,3.093-3.039,6.385-4.063,9.824
		L9.86,65.473v24.288l18.512,2.579c1.024,3.44,2.385,6.731,4.063,9.825l-11.262,14.91l17.177,17.174l14.906-11.259
		c3.098,1.68,6.391,3.039,9.828,4.063l2.582,18.513h24.287l2.582-18.513c3.438-1.023,6.73-2.383,9.828-4.063l14.904,11.259
		l17.177-17.174l-11.26-14.909c1.68-3.095,3.042-6.389,4.061-9.829L145.758,89.758z M119.688,80.182
		c-2.963,0-5.848,0.34-8.624,0.964c-1.643,15.652-14.076,28.085-29.727,29.727c-0.625,2.776-0.965,5.66-0.965,8.622
		c0,1.416-2.565,5.128-2.565,5.128s-2.564-3.712-2.564-5.128c0-2.962-0.339-5.846-0.964-8.622
		c-15.647-1.642-28.083-14.074-29.725-29.726c-2.778-0.625-5.663-0.965-8.627-0.965c-1.416,0-5.128-2.564-5.128-2.564
		s3.712-2.564,5.128-2.564c2.964,0,5.849-0.34,8.627-0.965c1.642-15.651,14.077-28.084,29.725-29.726
		c0.624-2.777,0.964-5.662,0.964-8.627c0-1.416,2.564-5.128,2.564-5.128s2.565,3.712,2.565,5.128c0,2.965,0.34,5.85,0.965,8.627
		c15.65,1.642,28.084,14.074,29.727,29.726c2.776,0.625,5.661,0.965,8.624,0.965c1.417,0,5.128,2.564,5.128,2.564
		S121.105,80.182,119.688,80.182z M119.688,77.617c-23.13,0-41.88,18.749-41.88,41.877c0-23.128-18.749-41.877-41.88-41.877
		c23.131,0,41.88-18.75,41.88-41.882C77.808,58.867,96.559,77.617,119.688,77.617z"/>
</g>
</svg>
