<?xml version="1.0" encoding="utf-8"?>
<!-- Generator: Adobe Illustrator 15.1.0, SVG Export Plug-In . SVG Version: 6.00 Build 0)  -->
<!DOCTYPE svg PUBLIC "-//W3C//DTD SVG 1.1//EN" "http://www.w3.org/Graphics/SVG/1.1/DTD/svg11.dtd">
<svg version="1.1" id="Layer_1" xmlns="http://www.w3.org/2000/svg" xmlns:xlink="http://www.w3.org/1999/xlink" x="0px" y="0px"
	 width="155px" height="155px" viewBox="0 0 155 155" enable-background="new 0 0 155 155" xml:space="preserve">
<g id="Layer_1_1_">
</g>
<g id="Layer_3" display="none">
</g>
<g>
	<path d="M152.016,91.018V64.21l-20.434-2.849c-1.129-3.796-2.631-7.432-4.484-10.847l12.428-16.458l-18.956-18.954l-16.458,12.431
		c-3.416-1.853-7.047-3.355-10.841-4.483L90.42,2.617H63.611l-2.847,20.435c-3.794,1.132-7.427,2.63-10.845,4.484l-16.457-12.43
		L14.503,34.062l12.431,16.459c-1.853,3.414-3.354,7.048-4.485,10.844L2.016,64.213v26.808l20.433,2.848
		c1.131,3.797,2.632,7.43,4.485,10.845L14.503,121.17l18.959,18.956l16.453-12.427c3.419,1.854,7.054,3.354,10.848,4.483
		l2.85,20.435h26.808l2.849-20.435c3.794-1.13,7.43-2.63,10.848-4.483l16.451,12.427l18.96-18.956l-12.429-16.456
		c1.854-3.416,3.357-7.052,4.481-10.85L152.016,91.018z M123.242,80.448c-3.271,0-6.455,0.375-9.52,1.063
		c-1.813,17.276-15.536,30.999-32.812,32.812c-0.69,3.064-1.065,6.247-1.065,9.517c0,1.563-2.83,5.66-2.83,5.66
		s-2.831-4.097-2.831-5.66c0-3.27-0.374-6.452-1.064-9.517c-17.271-1.813-30.997-15.535-32.809-32.811
		c-3.067-0.689-6.251-1.064-9.522-1.064c-1.563,0-5.66-2.831-5.66-2.831s4.097-2.83,5.66-2.83c3.271,0,6.456-0.376,9.522-1.065
		c1.812-17.275,15.538-30.998,32.809-32.811c0.689-3.065,1.064-6.249,1.064-9.522c0-1.563,2.831-5.66,2.831-5.66
		s2.83,4.097,2.83,5.66c0,3.273,0.375,6.457,1.066,9.522c17.274,1.813,30.998,15.535,32.811,32.811
		c3.064,0.689,6.248,1.065,9.52,1.065c1.563,0,5.659,2.83,5.659,2.83S124.806,80.448,123.242,80.448z M123.242,77.617
		c-25.531,0-46.227,20.694-46.227,46.223c0-25.528-20.695-46.223-46.226-46.223c25.531,0,46.226-20.695,46.226-46.228
		C77.016,56.922,97.711,77.617,123.242,77.617z"/>
</g>
</svg>
