<?xml version="1.0" encoding="utf-8"?>
<!-- Generator: Adobe Illustrator 15.1.0, SVG Export Plug-In . SVG Version: 6.00 Build 0)  -->
<!DOCTYPE svg PUBLIC "-//W3C//DTD SVG 1.1//EN" "http://www.w3.org/Graphics/SVG/1.1/DTD/svg11.dtd">
<svg version="1.1" id="Layer_1" xmlns="http://www.w3.org/2000/svg" xmlns:xlink="http://www.w3.org/1999/xlink" x="0px" y="0px"
	 width="400px" height="350px" viewBox="0 0 400 350" enable-background="new 0 0 400 350" xml:space="preserve">
<g id="Layer_1_1_">
</g>
<g>
	<path fill="#FFFFFF" d="M32.179,326.697c-6.724,0-12.783-3.99-15.452-10.155c-2.693-6.083-1.484-13.213,3.09-18.152
		c36.524-39.623,45.82-77.948,45.909-78.338c0.949-4.145,1.922-14.422-9.612-20.1c-5.694-2.798-9.084-8.452-8.638-14.389
		c0.024-0.39,3.488-46.339,6.229-72.04c0.795-7.41,7-12.994,14.454-12.994h1.2c3.845,0,7.406,1.48,10.05,4.015
		c0.746-8.801,0.917-14.138,0.917-14.191c0.235-7.945,6.627-14.142,14.535-14.142h1.541c3.634,0,7.041,1.351,9.652,3.667
		c0.689-13.59,1.769-26.106,14.43-27.136c1.331-6.639,7.154-30.169,22.898-30.169h108.284c5.63,0,10.861,2.798,13.992,7.487
		c3.082,4.445,3.723,10.232,1.712,15.448l-2.49,6.367c-0.446,1.196-0.852,3.038-0.852,3.5c0,4.485,0,7.45,1.897,11.903
		c1.89,4.465,24.649,56.085,42.94,97.561l7.941,17.982c14.511,32.883,27.018,61.256,29.07,65.984
		c5.629,12.938,15.281,30.458,25.469,40.832l7.738,7.884c4.817,4.939,6.156,12.191,3.431,18.485
		c-2.393,6.051-8.614,10.171-15.46,10.171H244.254c-5.686,0-10.95-2.854-14.089-7.624c-3.212-5.054-3.618-11.21-1.104-16.481
		c0,0,3.099-6.603,3.106-6.619c1.038-2.279,4.088-10.334,4.088-16.238c0-4.007-1.127-11.227-6.513-22.89
		c-0.365-0.787-22.833-51.863-26.321-59.739c-2.822,0.146-9.604,0.763-15.086,3.383c-9.052,4.331-20.464,10.723-28.438,21.884
		c-16.831,23.587-20.318,45.114-21.989,55.464l-0.203,1.266c-4.007,24.35-9.376,48.115-26.832,48.115H32.179z"/>
	<path d="M32.179,322.545c-5.061,0-9.636-3.002-11.64-7.649c-2.036-4.599-1.119-9.96,2.328-13.684
		c37.4-40.58,46.81-79.83,46.899-80.22c0.917-3.99,2.774-17.576-11.818-24.755c-4.161-2.061-6.651-6.116-6.334-10.366
		c0.032-0.405,3.496-46.343,6.229-71.909c0.56-5.289,4.996-9.279,10.317-9.279h1.2c4.291,0,8.087,2.583,9.668,6.578l3.164,8.01
		l0.835-8.573c1.135-11.708,1.452-19.771,1.452-20.314c0.17-5.589,4.729-10.018,10.382-10.018h1.541c4.137,0,7.868,2.45,9.515,6.242
		l3.512,8.091l0.697-13.1c0.811-16.279,1.72-24.771,12.102-24.771h1.768l0.284-1.752c0.041-0.28,4.688-28.349,19.102-28.349h108.284
		c4.242,0,8.185,2.109,10.537,5.637c2.304,3.322,2.79,7.775,1.289,11.652l-2.474,6.351c-0.552,1.456-1.144,3.853-1.144,5.009
		c0,4.64,0,8.302,2.238,13.533c1.891,4.481,23.701,53.956,42.957,97.606l7.94,17.978c14.495,32.866,27.003,61.239,29.055,65.969
		c5.783,13.277,15.728,31.301,26.313,42.089l7.738,7.884c3.625,3.715,4.647,9.182,2.587,13.919
		c-1.824,4.606-6.497,7.673-11.647,7.673H244.254c-4.283,0-8.257-2.149-10.617-5.743c-2.441-3.853-2.75-8.387-0.828-12.41
		l3.091-6.586c1.266-2.79,4.51-11.404,4.51-18.071c0-4.421-1.2-12.28-6.902-24.642c-0.357-0.779-27.399-62.181-27.399-62.181h-1.355
		c-0.413,0-10.276,0.041-18.201,3.828c-9.506,4.543-21.511,11.291-30.027,23.215c-17.407,24.39-20.992,46.558-22.711,57.216
		l-0.211,1.257c-3.544,21.593-8.524,44.637-22.727,44.637H32.179z"/>
	<linearGradient id="SVGID_1_" gradientUnits="userSpaceOnUse" x1="366.3242" y1="314.8574" x2="62.1035" y2="124.7593">
		<stop  offset="0" style="stop-color:#BB2C26"/>
		<stop  offset="0.0786" style="stop-color:#BD3026"/>
		<stop  offset="0.16" style="stop-color:#C33D25"/>
		<stop  offset="0.2427" style="stop-color:#CD5125"/>
		<stop  offset="0.3259" style="stop-color:#DB6E23"/>
		<stop  offset="0.35" style="stop-color:#E07823"/>
		<stop  offset="0.4012" style="stop-color:#E78221"/>
		<stop  offset="0.5138" style="stop-color:#F3921E"/>
		<stop  offset="0.6" style="stop-color:#F7981D"/>
		<stop  offset="0.6027" style="stop-color:#F6961D"/>
		<stop  offset="0.6308" style="stop-color:#E98521"/>
		<stop  offset="0.6616" style="stop-color:#E27B22"/>
		<stop  offset="0.7" style="stop-color:#E07823"/>
		<stop  offset="0.7059" style="stop-color:#DE7323"/>
		<stop  offset="0.7457" style="stop-color:#D15924"/>
		<stop  offset="0.7897" style="stop-color:#C74525"/>
		<stop  offset="0.8394" style="stop-color:#C03726"/>
		<stop  offset="0.8997" style="stop-color:#BC2F26"/>
		<stop  offset="1" style="stop-color:#BB2C26"/>
	</linearGradient>
	<path fill="url(#SVGID_1_)" d="M244.254,311.643c-0.778,0-1.509-0.405-1.947-1.07c-0.421-0.665-0.47-1.524-0.129-2.238l3.098-6.603
		c0.065-0.114,5.516-11.973,5.516-22.517c0-7.949-2.644-17.699-7.852-28.989c-3.325-7.203-71.216-160.516-74.493-168.563
		c-3.666-9.044-12.021-25.915-18.802-32.696l-7.9-7.892c-0.666-0.673-0.86-1.671-0.503-2.539c0.357-0.86,1.2-1.428,2.141-1.428
		h108.284c0.763,0,1.477,0.381,1.898,1.014c0.438,0.632,0.52,1.436,0.243,2.149l-2.466,6.318c-0.016,0.041-1.85,4.818-1.85,8.785
		c0,5.126,0,10.423,3.066,17.609c2.093,4.948,27.757,63.129,48.375,109.886l2.579,5.824c14.487,32.834,26.979,61.174,29.022,65.895
		c2.984,6.846,13.854,30.385,28.438,45.229l7.738,7.884c0.648,0.665,0.843,1.654,0.47,2.515c-0.341,0.859-1.184,1.427-2.125,1.427
		H244.254z M32.179,312.162c-0.924,0-1.752-0.552-2.109-1.396c-0.373-0.843-0.211-1.816,0.406-2.498
		c39.891-43.281,49.332-84.583,49.429-85.005c0.195-0.844,0.844-1.524,1.687-1.735c0.179-0.049,0.39-0.081,0.584-0.081
		c0.648,0,1.297,0.292,1.735,0.795c1.217,1.379,29.638,34.537,29.282,87.616c0,1.266-1.039,2.304-2.32,2.304H32.179z
		 M122.229,281.161c1.784,0,0.422-32.137,25.842-67.761c9.182-12.848,22.5-21.608,34.44-26.75c0,0-3.456-45.727-6.197-71.585h-1.216
		c0,0-1.671,31.455-8.89,57.565c0,0-1.979-0.722-5.305-1.744c-10.188-42.072-11.291-80.138-11.291-80.138h-1.541
		c-2.417,41.399-6.44,65.352-8.371,75.028c-2.166-0.373-4.38-0.698-6.61-0.957c-0.917-4.826-2.62-14.543-4.485-28.527
		c-2.758-20.651-3.618-35.129-4.299-47.856c-0.698-12.734-0.876-21.227-2.077-21.227c-1.201,0-1.371,8.493-2.06,21.227
		c-0.698,12.727-1.558,27.205-4.315,47.856c-1.857,13.983-3.553,23.701-4.477,28.527c-2.231,0.259-4.437,0.584-6.611,0.957
		c-1.931-9.677-5.945-33.629-8.363-75.028h-1.541c0,0-1.111,38.066-11.291,80.138c-3.326,1.022-5.305,1.744-5.305,1.744
		c-7.235-26.11-8.906-57.565-8.906-57.565h-1.2c-2.758,25.858-6.197,71.585-6.197,71.585c11.94,5.142,25.258,13.902,34.44,26.75
		C121.824,249.024,120.453,281.161,122.229,281.161z"/>
</g>
</svg>
