<?xml version="1.0" encoding="utf-8"?>
<!-- Generator: Adobe Illustrator 15.1.0, SVG Export Plug-In . SVG Version: 6.00 Build 0)  -->
<!DOCTYPE svg PUBLIC "-//W3C//DTD SVG 1.1//EN" "http://www.w3.org/Graphics/SVG/1.1/DTD/svg11.dtd">
<svg version="1.1" id="Layer_1" xmlns="http://www.w3.org/2000/svg" xmlns:xlink="http://www.w3.org/1999/xlink" x="0px" y="0px"
	 width="400px" height="350px" viewBox="0 0 400 350" enable-background="new 0 0 400 350" xml:space="preserve">
<g id="Layer_1_1_">
</g>
<path d="M187.604,198.419c-7.056,3.372-20.575,10.173-29.637,22.861c-18.099,25.369-21.249,48.542-22.869,58.394
	c-3.939,23.963-9.202,47.021-25.118,47.021H30.197c-5.974,0-11.369-3.545-13.741-9.029c-2.376-5.378-1.315-11.743,2.755-16.135
	c37.577-40.771,46.951-79.979,47.042-80.374c1.106-4.836,1.883-16.464-10.859-22.738c-4.835-2.376-8.001-7.17-7.594-12.54
	c0.033-0.478,3.532-46.873,6.316-72.978c0.687-6.418,6.102-11.291,12.561-11.291h1.217c5.316,0,9.901,3.297,11.755,8.001
	c1.205-12.364,1.459-20.225,1.464-20.394c0.206-6.83,5.797-12.261,12.627-12.261h1.563c5.16,0,9.633,3.104,11.586,7.594l0.222-4.35
	c0.761-15.147,1.361-27.108,14.382-27.108c0,0,4.84-30.517,21.442-30.517h109.781c5.009,0,9.654,2.488,12.435,6.653
	c2.697,3.894,3.313,9.095,1.521,13.737l-2.516,6.447c-0.502,1.34-1.012,3.487-1.012,4.313c0,4.634,0,7.985,2.097,12.894
	c1.99,4.716,26.29,59.813,45.813,104.079l5.781,13.084c14.703,33.329,27.383,62.094,29.464,66.888
	c5.781,13.281,15.723,31.307,26.249,42.03l7.845,7.993c4.293,4.407,5.477,10.838,3.051,16.43c-2.113,5.345-7.565,9.046-13.741,9.046
	H245.2c-5.049,0-9.736-2.533-12.524-6.776c-2.895-4.556-3.215-9.967-0.979-14.646c0,0,3.125-6.652,3.133-6.669
	c1.151-2.541,4.367-11.003,4.367-17.417c0-4.26-1.176-11.907-6.801-24.095c-0.781-1.694-20.994-47.729-27.244-61.823
	C205.152,194.743,195.317,194.727,187.604,198.419z"/>
<linearGradient id="SVGID_1_" gradientUnits="userSpaceOnUse" x1="368.96" y1="316.7959" x2="60.5346" y2="124.0704">
	<stop  offset="0" style="stop-color:#626E77"/>
	<stop  offset="0.0791" style="stop-color:#65727B"/>
	<stop  offset="0.1611" style="stop-color:#707E88"/>
	<stop  offset="0.2444" style="stop-color:#81929C"/>
	<stop  offset="0.3281" style="stop-color:#99ADB9"/>
	<stop  offset="0.35" style="stop-color:#A0B6C2"/>
	<stop  offset="0.3972" style="stop-color:#A7BECB"/>
	<stop  offset="0.512" style="stop-color:#B3CCDB"/>
	<stop  offset="0.6" style="stop-color:#B7D1E1"/>
	<stop  offset="0.6014" style="stop-color:#B6D0E0"/>
	<stop  offset="0.6299" style="stop-color:#AAC1CF"/>
	<stop  offset="0.6611" style="stop-color:#A2B9C5"/>
	<stop  offset="0.7" style="stop-color:#A0B6C2"/>
	<stop  offset="0.7047" style="stop-color:#9DB3BE"/>
	<stop  offset="0.7446" style="stop-color:#889AA4"/>
	<stop  offset="0.7888" style="stop-color:#778690"/>
	<stop  offset="0.8387" style="stop-color:#6B7882"/>
	<stop  offset="0.8993" style="stop-color:#64707A"/>
	<stop  offset="1" style="stop-color:#626E77"/>
</linearGradient>
<path fill="url(#SVGID_1_)" d="M245.2,313.538c-0.789,0-1.529-0.411-1.974-1.086c-0.428-0.674-0.477-1.546-0.132-2.27l3.142-6.693
	c0.065-0.115,5.592-12.138,5.592-22.828c0-8.06-2.681-17.943-7.96-29.391c-3.372-7.302-72.201-162.735-75.523-170.893
	c-3.717-9.169-12.187-26.273-19.062-33.148l-8.01-8.001c-0.674-0.683-0.872-1.694-0.51-2.574c0.362-0.872,1.217-1.447,2.171-1.447
	h109.781c0.773,0,1.497,0.387,1.925,1.028c0.444,0.641,0.526,1.455,0.246,2.179l-2.499,6.406c-0.017,0.041-1.875,4.885-1.875,8.906
	c0,5.197,0,10.567,3.108,17.853c2.121,5.016,28.14,64.006,49.044,111.406l2.614,5.904c14.688,33.288,27.352,62.021,29.424,66.806
	c3.026,6.941,14.045,30.805,28.831,45.854l7.845,7.993c0.658,0.675,0.855,1.678,0.477,2.55c-0.345,0.871-1.2,1.447-2.154,1.447
	H245.2z M30.197,314.064c-0.937,0-1.776-0.56-2.146-1.415c-0.378-0.855-0.214-1.842,0.419-2.532
	c40.442-43.88,50.014-85.753,50.104-86.181c0.197-0.855,0.855-1.546,1.719-1.76c0.181-0.05,0.387-0.082,0.584-0.082
	c0.658,0,1.316,0.296,1.76,0.806c1.233,1.397,30.056,35.015,29.686,88.828c0,1.283-1.052,2.336-2.343,2.336H30.197z
	 M121.492,282.635c1.805,0,0.419-32.581,26.196-68.698c9.309-13.025,22.812-21.907,34.916-27.12c0,0-3.503-46.363-6.283-72.575
	h-1.233c0,0-1.694,31.886-9.013,58.365c0,0-2.006-0.74-5.378-1.776c-10.329-42.646-11.447-81.243-11.447-81.243h-1.563
	c-2.451,41.968-6.529,66.26-8.487,76.062c-2.195-0.378-4.44-0.708-6.702-0.97c-0.925-4.885-2.656-14.736-4.548-28.914
	c-2.792-20.937-3.671-35.619-4.358-48.521c-0.707-12.911-0.884-21.521-2.101-21.521c-1.225,0-1.394,8.61-2.097,21.521
	c-0.699,12.902-1.571,27.585-4.367,48.521c-1.887,14.177-3.61,24.029-4.543,28.914c-2.261,0.263-4.498,0.592-6.702,0.97
	c-1.958-9.802-6.024-34.094-8.482-76.062h-1.563c0,0-1.123,38.596-11.439,81.243c-3.372,1.036-5.386,1.776-5.386,1.776
	c-7.331-26.479-9.021-58.365-9.021-58.365h-1.217c-2.796,26.212-6.283,72.575-6.283,72.575c12.101,5.213,25.604,14.095,34.908,27.12
	C121.081,250.054,119.688,282.635,121.492,282.635z"/>
</svg>
