<?xml version="1.0" encoding="UTF-8" standalone="no"?>
<svg xmlns="http://www.w3.org/2000/svg" version="1.1" width="600" height="599.97913">
  <path d="m 582.63387,319.74357 -61.57279,-19.6943 61.57279,-19.79929 c 11.72958,-3.80986 18.98932,-15.52444 17.05439,-27.71901 -1.93493,-12.17956 -12.41955,-21.08924 -24.65911,-21.08924 l -0.12,0 -64.69269,0.23999 52.49813,-37.79865 c 10.01964,-7.19974 13.24452,-20.62426 7.61972,-31.63387 -4.33484,-8.56469 -13.06453,-13.66451 -22.1992,-13.66451 -2.63991,0 -5.27981,0.41998 -7.85972,1.28995 l -61.4528,20.21928 38.20363,-52.19813 c 7.31974,-9.95965 6.25478,-23.66916 -2.47491,-32.41385 -4.85983,-4.85982 -11.2496,-7.31973 -17.62437,-7.31973 -5.21982,0 -10.37963,1.58994 -14.83447,4.81482 l -46.04836,33.7488 -0.82437,-11.60959 14.93947,-45.40337 c 3.80986,-11.66959 -1.39495,-24.49413 -12.41956,-30.05893 -3.56987,-1.81493 -7.49973,-2.6999 -11.30959,-2.6999 -7.84472,0 -15.46445,3.62987 -20.26428,10.37963 l -10.90461,15.04446 c -8.08471,-0.74997 -16.97939,-1.16996 -26.77404,-1.28996 l 0.06,-26.00907 C 368.60713,12.77954 359.63745,2.23492 347.45789,0.29999 346.16793,0.12 344.87798,0 343.58803,0 332.86341,0 323.14376,6.91475 319.73888,17.39938 l -11.59459,36.2687 c -5.15981,0.64438 -10.31963,1.46995 -15.47944,2.45991 L 280.24529,17.39938 C 276.91541,6.91475 267.18076,0 256.45614,0 c -1.28996,0 -2.56491,0.12 -3.91486,0.29999 -12.19457,1.93493 -21.10425,12.47955 -21.10425,24.77911 l 0.23999,52.15314 c -2.15992,1.16996 -4.27484,2.39991 -6.38977,3.62987 L 193.89338,37.33367 c -4.87483,-6.74976 -12.49456,-10.37963 -20.27928,-10.37963 -3.86986,0 -7.73973,0.88557 -11.3696,2.6999 -10.9496,5.5648 -16.22942,18.38934 -12.35955,30.05893 l 20.21927,61.5128 -52.21313,-38.24864 c -4.39484,-3.22488 -9.59966,-4.81482 -14.75947,-4.81482 -6.389767,0 -12.839537,2.45991 -17.639367,7.31973 -8.72969,8.74469 -9.77965,22.4542 -2.51991,32.41385 l 38.263627,52.19813 -61.467797,-20.21928 c -2.63991,-0.86997 -5.21981,-1.28995 -7.84472,-1.28995 -9.14967,0 -17.87936,5.09982 -22.2742,13.66451 -5.56481,11.00961 -2.33992,24.43413 7.67972,31.63387 l 52.49812,37.79865 -64.73768,-0.23999 -0.06,0 c -12.31456,0 -22.7991804,8.90968 -24.73411044,21.08924 -1.87493996,12.19457 5.33980004,23.90915 17.05439044,27.71901 l 61.57279,19.79929 -61.57279,19.6943 C 5.6351026,323.49343 -1.5796374,335.26801 0.29530256,347.44758 2.2302326,359.64214 12.714853,368.55182 25.029413,368.55182 l 0.06,0 64.67769,-0.23999 -52.43813,37.84365 c -10.01964,7.21474 -13.24453,20.62426 -7.67972,31.58887 4.39484,8.54969 13.12453,13.64951 22.2742,13.64951 2.62491,0 5.26481,-0.40438 7.84472,-1.22995 l 61.467797,-20.21928 -38.263627,52.15313 c -7.25974,9.95965 -6.20978,23.72916 2.51991,32.45884 4.79983,4.85983 11.2496,7.31974 17.639367,7.31974 5.15981,0 10.36463,-1.57494 14.75947,-4.85982 l 28.36399,-20.74426 2.6399,23.78915 c 0.1656,2.39991 0.98997,6.62976 4.15485,10.60462 l -3.16488,9.61465 c -3.86987,11.71458 1.40995,24.49413 12.35955,30.05893 3.62987,1.87493 7.49974,2.7449 11.3696,2.7449 7.78472,0 15.40445,-3.68987 20.27928,-10.36463 l 10.64961,-14.81947 c 6.97476,0.74997 14.47449,1.10996 22.73919,1.10996 1.40995,0 2.8649,-0.06 4.27485,-0.11999 l -0.12,26.00907 c 0,12.31456 8.90968,22.85918 21.10425,24.79411 1.34995,0.22559 2.6249,0.28559 3.91486,0.28559 10.72462,0 20.45927,-6.85476 23.78915,-17.33938 l 12.59955,-39.1936 c 4.57483,-0.76437 9.08967,-1.40995 13.58951,-2.35492 l 13.30453,41.54852 c 3.40487,10.48462 13.12453,17.33938 23.84914,17.33938 1.28996,0 2.57991,-0.06 3.86986,-0.28559 12.17957,-1.93493 21.14925,-12.47955 21.08925,-24.79411 l -0.17999,-55.24303 c 1.64994,-0.82437 3.22488,-1.69494 4.91982,-2.57991 l 32.87882,45.58337 c 4.79983,6.73476 12.41956,10.42463 20.26428,10.42463 3.80986,0 7.73972,-0.86997 11.30959,-2.7449 11.02461,-5.5648 16.22942,-18.34435 12.41956,-30.05893 l -20.26428,-61.4678 52.19814,38.20364 c 4.45484,3.28488 9.61465,4.85982 14.83447,4.85982 6.37477,0 12.76454,-2.45991 17.62437,-7.31974 8.72969,-8.72968 9.79465,-22.49919 2.47491,-32.45884 l -38.20363,-52.15313 61.4528,20.21928 c 2.57991,0.82557 5.21981,1.22995 7.85972,1.22995 9.13467,0 17.86436,-5.09982 22.1992,-13.64951 5.6248,-10.96461 2.39992,-24.37413 -7.61972,-31.58887 l -52.43813,-37.84365 64.63269,0.23999 0.12,0 c 12.23956,0 22.72418,-8.90968 24.65911,-21.10424 1.93493,-12.17957 -5.32481,-23.95415 -17.05439,-27.70401" style="fill:#ffffff"/>
  <path d="m 444.65381,390.16605 c 0,85.90193 -95.2016,131.4853 -169.08895,139.09003 -25.66409,2.6399 -58.58791,5.4598 -83.84701,-0.22559 -8.4297,-1.87494 -16.10942,-4.21485 -23.08417,-6.91476 -2.11493,-0.88557 -3.10489,-1.93493 -3.10489,-3.16488 l -10.19964,-92.11171 c 0,-2.03993 1.06436,-3.10489 3.16489,-3.10489 l 15.17946,8.14471 c 2.11492,0.64558 11.65458,56.023 56.95296,66.79261 29.35395,7.03475 62.21778,0 89.81679,-9.65965 32.98382,-11.66959 66.14763,-35.62373 66.14763,-74.23235 0,-35.39873 -23.54915,-64.10771 -70.72247,-86.20192 -58.99289,-27.47902 -142.01492,-56.83297 -142.01492,-135.04017 0,-84.37198 83.36702,-122.35062 156.30941,-125.09553 26.42906,-0.94556 57.07296,-1.99492 83.03703,3.28489 2.09993,0.40438 3.16489,1.45494 3.16489,3.14988 l 6.95975,97.9765 c 0,2.09993 -0.98996,3.16489 -3.10489,3.16489 l -17.86436,-11.3096 c -2.11492,0 -14.93947,-36.73368 -20.56427,-47.11331 -24.43412,-44.9384 -93.62665,-26.36906 -126.50547,-1.46995 -30.28392,22.97918 -31.28888,69.55251 -9.77965,97.33152 46.28835,59.81786 138.98503,54.07307 182.27348,119.05074 10.78461,16.16942 16.8744,38.14364 16.8744,57.65794 m 52.21313,106.69119 -40.43855,-55.24303 c -2.8049,6.37477 -6.14978,12.53955 -9.83965,18.38934 l 50.2782,36.85369 z m -240.4114,78.1622 7.03475,-21.97421 c -2.27992,0.17999 -4.61984,0.41998 -6.97475,0.52438 l -0.06,21.44923 z m 169.97392,-26.95403 -15.86943,-48.22328 c -3.98986,3.16489 -8.08471,6.22478 -12.29956,9.14967 l 28.16899,39.07361 z m -82.84204,26.95403 -0.17999,-38.30863 c -3.62987,1.27496 -7.25974,2.50491 -10.94961,3.68987 l 11.1296,34.61876 z m -240.4564,-471.89813 50.09821,68.44256 c 1.45494,-9.43467 3.74986,-18.34435 6.95975,-26.66905 l -57.05796,-41.77351 z m 310.4739,95.39659 -5.44481,-3.46487 -14.53448,-9.25467 c -1.99493,-0.76438 -3.68987,-1.81494 -5.27981,-3.22489 l -6.49477,4.79983 2.8049,-8.66969 c -4.39484,-5.78979 -8.02471,-14.93946 -13.18452,-27.884 -1.81494,-4.57484 -3.97486,-9.95965 -5.84979,-14.53448 l -22.6192,31.28888 0.24,-53.2031 c -3.64487,-0.92996 -7.85972,-1.57494 -13.01954,-1.57494 -5.03982,0 -10.18463,0.64558 -15.34445,1.57494 L 299.99898,160.77865 287.86442,122.98 c -7.43974,3.40488 -13.9945,7.33474 -19.03432,11.08461 -6.04479,4.55983 -9.61466,10.30463 -11.89458,15.86943 l 0.06,17.63937 -3.34488,-4.57484 c -1.40995,13.07954 2.15992,27.01404 9.61466,36.68869 18.62933,24.07414 48.10328,36.20871 79.27216,48.97325 36.4337,14.99946 77.74222,31.93386 103.99128,71.36745 4.57484,6.91475 8.2647,14.81947 11.42959,23.08417 l 117.07082,0.46439 -135.82015,-43.58845 135.82015,-43.52844 -142.61491,0.52438 115.72087,-83.38202 -135.47516,44.59341 15.23946,-20.90925 c -2.39992,0.74997 -4.97983,1.22995 -7.73973,1.22995 l -6.55476,0 z m 32.21885,-26.42905 0,0.76437 51.04317,-69.73251 -53.2031,38.96861 2.11493,29.17396 0.048,0.82557 z m 20.74425,227.51186 81.56709,26.83404 -83.56202,-60.23784 c 1.52995,7.97971 2.57991,16.06442 2.57991,23.96914 0,3.22489 -0.40438,6.26978 -0.58438,9.43466 m -270.05034,28.88897 21.68923,-15.88443 -12.47956,37.96364 c 5.08482,9.61466 11.93958,18.10435 21.55423,23.02418 l 29.71394,-41.18853 -0.17999,46.58833 c 9.65965,-0.06 20.38427,-1.52994 31.75386,-4.16985 l 11.42959,-35.60872 9.53966,29.63894 c 1.18436,-0.34559 2.29492,-0.64438 3.46488,-1.04997 7.37973,-2.6399 19.5143,-7.85971 30.11892,-15.94443 l -0.12,-19.4543 8.6097,11.89458 c 7.27474,-7.78473 12.47955,-17.51938 12.47955,-29.51895 0,-9.55466 0,-38.72861 -57.76293,-65.80265 -5.45981,-2.5799 -11.1896,-5.15981 -17.05439,-7.79972 C 234.13694,316.27809 159.84459,282.5893 152.10487,206.60201 L 51.923453,173.60319 167.64431,256.98521 25.029413,256.46083 160.78956,299.98928 25.029413,343.57772 167.64431,342.99334 51.923453,426.43535 l 135.460157,-44.5934 -16.69441,22.85918 12.88454,6.97475 c 8.20471,3.91486 11.12961,11.47459 12.94454,16.8144 m 229.91178,-376.57653 -0.58438,0.82437 c 0.06,0.06 0.17999,0.06 0.23999,0.11999 l 0.34439,-0.94436 z m -82.84204,-26.89404 -6.67476,20.68426 c 2.21992,-0.06 4.33485,-0.12 6.55477,-0.22439 l 0.11999,-20.45927 z m -240.4564,471.83813 34.51376,-25.2441 -2.05492,-19.04932 -32.45884,44.29342 z m 153.32452,-471.83813 0.11999,34.81375 c 3.28489,-1.18436 6.62977,-2.35491 9.95965,-3.34488 L 256.45614,25.01971 z M 173.6141,548.066 l 0.34559,-0.46438 -0.1644,0 -0.17999,0.46438 z M 201.21311,90.23737 c -4.04985,3.28489 -7.91971,6.73476 -11.54958,10.42463 L 173.6141,51.91375 201.21311,90.23737 z"/>
</svg>
