<?xml version="1.0" encoding="UTF-8" standalone="no"?>
<svg xmlns="http://www.w3.org/2000/svg" xmlns:xlink="http://www.w3.org/1999/xlink" version="1.1" width="600" height="600.01764">
  <radialGradient cx="0" cy="0" r="1" fx="0" fy="0" id="radialGradient514" gradientUnits="userSpaceOnUse" gradientTransform="matrix(15.421722,0,0,-15.421722,481.18457,372.09229)" spreadMethod="pad">
    <stop style="stop-color:#f6b91d" offset="0"/>
    <stop style="stop-color:#d3641c" offset="0.7"/>
    <stop style="stop-color:#bf331c" offset="1"/>
  </radialGradient>
  <radialGradient cx="0" cy="0" r="1" fx="0" fy="0" id="radialGradient2995" xlink:href="#radialGradient514" gradientUnits="userSpaceOnUse" gradientTransform="matrix(15.421722,0,0,-15.421722,481.18457,372.09229)" spreadMethod="pad"/>
  <radialGradient cx="0" cy="0" r="1" fx="0" fy="0" id="radialGradient2998" xlink:href="#radialGradient514" gradientUnits="userSpaceOnUse" gradientTransform="matrix(231.33285,0,0,231.33285,299.9877,300.03477)" spreadMethod="pad"/>
  <path d="m 582.63273,319.76472 -61.57687,-19.6956 61.57687,-19.8006 c 11.73035,-3.81012 18.99058,-15.52548 17.05552,-27.72085 -1.93506,-12.18037 -12.36038,-21.09064 -24.66075,-21.09064 l -0.12001,0 -64.69696,0.24001 52.50159,-37.80115 c 10.02031,-7.20022 13.24541,-20.62562 7.68024,-31.63596 -4.33514,-8.56526 -13.1254,-13.66541 -22.32068,-13.66541 -2.58008,0 -5.16016,0.42001 -7.74024,1.29004 l -61.53187,20.22061 38.26617,-52.20159 c 7.27522,-9.9603 6.21019,-23.67071 -2.52008,-32.41598 -4.80015,-4.86015 -11.25034,-7.32022 -17.68554,-7.32022 -5.16015,0 -10.32031,1.59005 -14.71544,4.81514 l -46.1114,33.75103 -0.82443,-11.61035 14.88045,-45.40638 c 3.93012,-11.67036 -1.33504,-24.49575 -12.30037,-30.06092 -3.63011,-1.81505 -7.50023,-2.70008 -11.43035,-2.70008 -7.78523,0 -15.40547,3.63011 -20.26561,10.38032 l -10.78533,15.04545 c -8.14525,-0.75002 -17.05552,-1.17003 -26.83581,-1.29003 l 0.12,-26.01079 c 0,-12.30038 -8.91027,-22.8457 -21.15064,-24.78076 C 346.15115,0.12001 344.86111,0 343.57107,0 332.84575,0 323.12545,6.91521 319.78035,17.40053 L 308.125,53.67163 c -5.16016,0.64442 -10.32032,1.47005 -15.42047,2.46008 L 280.28415,17.40053 C 276.83405,6.91521 267.15875,0 256.43343,0 c -1.29004,0 -2.58008,0.12001 -3.91512,0.30001 -12.13537,1.93506 -21.16565,12.48038 -21.04564,24.78076 l 0.18,52.15658 c -2.23506,1.17003 -4.33513,2.40007 -6.39019,3.63011 L 193.85152,37.33614 c -4.80014,-6.75021 -12.48037,-10.38032 -20.26562,-10.38032 -3.87011,0 -7.74023,0.88563 -11.37034,2.70008 -10.95033,5.56517 -16.23049,18.39056 -12.36038,30.06092 l 20.20562,61.51687 -52.14159,-38.25117 c -4.45513,-3.22509 -9.61529,-4.81514 -14.82045,-4.81514 -6.390185,0 -12.780375,2.46007 -17.640525,7.32022 -8.73027,8.74527 -9.7953,22.45568 -2.52008,32.41598 l 38.206155,52.20159 -61.411855,-20.22061 c -2.58008,-0.87003 -5.28016,-1.29004 -7.84524,-1.29004 -9.15028,0 -17.88054,5.10015 -22.21568,13.66541 -5.62517,11.01034 -2.40007,24.43574 7.62024,31.63596 l 52.50159,37.80115 -64.75697,-0.24001 -0.108,0 c -12.25537,0 -22.68069,8.91027 -24.61575002,21.09064 C -1.622415,264.74304 5.592805,276.4584 17.308165,280.26852 l 61.63687,19.8006 -61.63687,19.6956 C 5.592805,323.51483 -1.622415,335.29019 0.31264498,347.47056 2.247705,359.66593 12.673025,368.5762 24.928395,368.5762 l 0.108,0 64.75697,-0.24001 -52.50159,37.84615 c -10.02031,7.21522 -13.24541,20.62563 -7.62024,31.59096 4.33514,8.55026 13.0654,13.65041 22.21568,13.65041 2.56508,0 5.26516,-0.40441 7.84524,-1.23003 l 61.411855,-20.22062 -38.206155,52.15659 c -7.27522,9.9603 -6.21019,23.73072 2.52008,32.46098 4.86015,4.86015 11.25034,7.32022 17.640525,7.32022 5.20516,0 10.36532,-1.57504 14.82045,-4.86014 l 28.30586,-20.74563 2.62508,23.79072 c 0.18001,2.40007 1.00443,6.6302 4.11013,10.60532 l -3.1051,9.61529 c -3.87011,11.71536 1.41005,24.49575 12.36038,30.06092 3.63011,1.87505 7.50023,2.74508 11.37034,2.74508 7.78525,0 15.46548,-3.69011 20.26562,-10.36531 l 10.66533,-14.82046 c 6.97521,0.75003 14.47544,1.11004 22.74069,1.11004 1.41004,0 2.80508,-0.06 4.27513,-0.12001 l -0.06,26.01079 c -0.12,12.31538 8.91027,22.8607 21.04564,24.79576 1.33504,0.2244 2.62508,0.28441 3.91512,0.28441 10.72532,0 20.40062,-6.85521 23.85072,-17.34053 l 12.54038,-39.19619 c 4.51514,-0.76562 9.07528,-1.41004 13.59041,-2.35507 l 13.36541,41.55126 c 3.3451,10.48532 13.0654,17.34053 23.79072,17.34053 1.29004,0 2.58008,-0.06 3.87012,-0.28441 12.24037,-1.93506 21.15064,-12.48038 21.15064,-24.79576 l -0.24001,-55.24667 c 1.65005,-0.82563 3.2851,-1.69505 4.86015,-2.58008 l 32.881,45.58638 c 4.86014,6.73521 12.48038,10.42532 20.26561,10.42532 3.93012,0 7.80024,-0.87003 11.43035,-2.74508 10.96533,-5.56517 16.23049,-18.34556 12.30037,-30.06092 l -20.20561,-61.47186 52.26159,38.20616 c 4.39513,3.2851 9.55529,4.86014 14.71544,4.86014 6.4352,0 12.88539,-2.46007 17.68554,-7.32022 8.73027,-8.73026 9.7953,-22.50068 2.52008,-32.46098 l -38.26617,-52.15659 61.53187,20.22062 c 2.58008,0.82442 5.16016,1.23003 7.74024,1.23003 9.19528,0 17.92554,-5.10015 22.32068,-13.65041 5.56517,-10.96533 2.34007,-24.37574 -7.68024,-31.59096 l -52.44159,-37.84615 64.63696,0.24001 0.12001,0 c 12.30037,0 22.72569,-8.91027 24.66075,-21.10564 1.93506,-12.18037 -5.32517,-23.95573 -17.05552,-27.70584"/>
  <path d="m 444.64354,390.19185 c 0,85.90761 -95.26789,131.494 -169.10013,139.09923 -25.60578,2.64008 -58.65179,5.46016 -83.85255,-0.22561 -8.44526,-1.87506 -16.11049,-4.21513 -23.0257,-6.91521 -2.17507,-0.88563 -3.1651,-1.93506 -3.1651,-3.16509 l -10.14031,-92.1178 c 0,-2.04006 0.99003,-3.1051 3.1051,-3.1051 l 15.18046,8.14525 c 2.10007,0.64442 11.65536,56.0267 56.95673,66.79703 29.35589,7.03521 62.28189,0 89.82273,-9.66029 32.926,-11.67036 66.152,-35.62609 66.152,-74.23726 0,-35.40107 -23.55071,-64.11195 -70.72714,-86.20762 -58.99679,-27.48083 -142.08432,-56.83672 -142.08432,-135.0491 0,-84.37756 83.49254,-122.35871 156.37975,-125.1038 26.43081,-0.94563 57.13674,-1.99506 83.02752,3.2851 2.11507,0.40441 3.1651,1.45505 3.1651,3.1501 l 6.97521,97.98297 c 0,2.10007 -0.99003,3.1651 -3.1651,3.1651 l -17.74554,-11.31034 c -2.17506,0 -14.94045,-36.73612 -20.62562,-47.11643 -24.43574,-44.94137 -93.63284,-26.37081 -126.57384,-1.47005 -30.22592,22.9807 -31.29095,69.55711 -9.7203,97.33796 46.29141,59.82181 138.97922,54.07664 182.34554,119.05861 10.72532,16.17049 16.81551,38.14616 16.81551,57.66175 m 52.21658,106.69824 -40.50123,-55.24667 c -2.68508,6.37519 -6.03018,12.54038 -9.78029,18.39056 l 50.28152,36.85611 z m -240.42729,78.16738 7.09521,-21.97567 c -2.34007,0.18001 -4.69514,0.42001 -7.03521,0.52562 l -0.06,21.45065 z M 426.35798,548.10105 410.5475,499.87459 c -3.93012,3.16509 -8.08524,6.22518 -12.37537,9.15027 l 28.18585,39.07619 z m -82.78751,26.95582 -0.18,-38.31116 c -3.57011,1.27503 -7.26022,2.50507 -10.95034,3.69011 l 11.13034,34.62105 z m -240.47231,-471.92933 50.08653,68.44707 c 1.47004,-9.43528 3.75011,-18.34555 6.97521,-26.67081 l -57.06174,-41.77626 z m 310.55444,95.40289 -5.50517,-3.4651 -14.53544,-9.25528 c -1.93506,-0.76563 -3.63011,-1.81506 -5.28016,-3.2251 l -6.4952,4.80014 2.86509,-8.67026 c -4.45514,-5.79017 -8.08525,-14.94045 -13.2454,-27.88585 -1.81506,-4.57513 -3.97512,-9.9603 -5.85018,-14.53544 l -22.56068,31.29095 0.1644,-53.20661 c -3.63011,-0.93003 -7.84524,-1.57505 -13.00539,-1.57505 -5.04016,0 -10.18531,0.64442 -15.28547,1.57505 l -14.94045,46.41141 -12.07537,-37.80115 c -7.44022,3.4051 -14.07043,7.33522 -19.11058,11.08534 -6.03018,4.56013 -9.60029,10.30531 -11.89536,15.87048 l 0.06,17.64053 -3.3301,-4.57514 c -1.41004,13.0804 2.16006,27.01583 9.60029,36.69112 18.64557,24.07573 48.10646,36.2111 79.29241,48.97649 36.4361,15.00045 77.74736,31.93597 103.93815,71.37216 4.63514,6.91521 8.32526,14.82045 11.49035,23.08571 l 117.07856,0.46561 -135.76913,-43.59132 135.76913,-43.53133 -142.62433,0.52562 115.66851,-83.38753 -135.48412,44.59635 15.36047,-20.91063 c -2.46007,0.75002 -5.04015,1.23003 -7.80024,1.23003 l -6.49519,0 z m 32.16097,-26.4308 0,0.76562 51.04655,-69.73711 -53.14661,38.97118 2.04006,29.17589 0.06,0.82442 z m 20.68563,227.52691 81.57248,26.83582 -83.56754,-60.24183 c 1.59005,7.98024 2.64008,16.06548 2.64008,23.97072 0,3.2251 -0.34441,6.27019 -0.64442,9.43529 m -270.00819,28.89088 21.67565,-15.88548 -12.52538,37.96615 c 5.14516,9.61529 12.00037,18.10555 21.67566,23.0257 l 29.6409,-41.19125 -0.1644,46.59141 c 9.66029,-0.06 20.32561,-1.53004 31.81596,-4.17012 l 11.37035,-35.61109 9.54029,29.6409 c 1.17003,-0.34561 2.29507,-0.64562 3.4651,-1.05003 7.38023,-2.64008 19.5156,-7.86024 30.12092,-15.94548 l -0.06,-19.45559 8.55026,11.89536 c 7.26022,-7.78524 12.54038,-17.52053 12.54038,-29.5209 0,-9.55529 0,-38.73117 -57.84176,-65.807 -5.50517,-2.58007 -11.25034,-5.16015 -17.04052,-7.80023 C 234.11335,316.29901 159.81609,282.60799 152.07585,206.61568 L 51.887815,173.61468 167.54132,257.00221 24.991995,256.47659 160.74612,300.00792 24.991995,343.59924 167.54132,343.01362 51.887815,426.46116 187.35693,381.8648 l -16.75552,22.8607 13.0054,6.97521 c 8.14525,3.91512 11.13034,11.47535 12.8854,16.81551 m 229.86697,-376.60144 -0.52561,0.82563 c 0.12,0.06 0.18,0.06 0.30001,0.12 l 0.2256,-0.94563 z m -82.78751,-26.89582 -6.6752,20.68563 c 2.22007,-0.06 4.33513,-0.12 6.6152,-0.22561 l 0.06,-20.46062 z m -240.47231,471.86933 34.50105,-25.24576 -2.04006,-19.05058 -32.46099,44.29634 z m 153.33467,-471.86933 0.12,34.81606 c 3.3451,-1.18444 6.5702,-2.35507 9.9603,-3.3451 l -10.0803,-31.47096 z m -82.84753,523.08089 0.28441,-0.46441 -0.108,0 -0.18001,0.46441 z M 201.18735,90.24094 c -4.05013,3.2851 -7.92024,6.73521 -11.61035,10.42532 l -15.9905,-48.75148 27.60085,38.32616 z" style="fill:#bf331c"/>
  <path d="M 330.38507,74.47727 C 255.4428,77.29735 179.7955,115.2035 179.7955,193.55088 l 0,0 c 0,66.96204 64.39695,96.03292 121.17368,121.6987 l 0,0 c 5.97018,2.64008 11.77536,5.32516 17.40053,7.90524 l 0,0 c 49.27649,23.0857 74.17725,53.97164 74.17725,91.65278 l 0,0 c 0,49.62151 -49.03649,72.4222 -70.12713,79.92243 l 0,0 c -24.37574,8.49026 -46.65142,12.82539 -66.39202,12.82539 l 0,0 c -9.43528,0 -18.46556,-0.99003 -26.77581,-2.92509 l 0,0 c -40.60623,-9.7353 -54.73667,-52.03658 -59.35681,-65.927 l 0,0 c -0.36001,-0.93003 -0.52501,-1.75506 -0.76502,-2.46008 l 0,0 -7.15522,-3.81011 9.27028,84.27256 c 6.67521,2.56507 13.99543,4.74014 21.73567,6.49519 l 0,0 c 9.55529,2.11507 20.74563,3.1651 34.39604,3.1651 l 0,0 c 16.17049,0 33.10601,-1.51505 47.58145,-3.04509 l 0,0 c 65.792,-6.79521 163.71497,-47.86646 163.71497,-133.12905 l 0,0 c 0,-18.81057 -6.10519,-39.6162 -15.88549,-54.31665 l 0,0 C 401.33722,303.69923 367.5412,289.82381 331.73511,275.04836 l 0,0 C 298.3891,261.33794 263.99306,247.22251 240.78735,217.1616 l 0,0 C 228.36697,201.15611 222.5618,179.07544 225.38188,157.9848 l 0,0 c 2.58008,-19.23058 11.89536,-35.74608 26.3108,-46.65142 l 0,0 c 17.74554,-13.4704 48.93149,-27.01582 78.51239,-27.01582 l 0,0 c 26.3108,0 46.00639,10.50032 56.77672,30.42093 l 0,0 c 2.82008,5.10015 6.97521,15.58547 11.08533,25.66578 l 0,0 c 3.0451,7.78523 7.26022,18.39056 7.56023,19.27558 l 0,0 11.29535,7.20022 -6.4352,-89.58272 c -12.90039,-2.46007 -27.94585,-3.64511 -47.23643,-3.64511 l 0,0 c -11.25034,0 -22.38068,0.42001 -32.866,0.82503 m -10.90533,45.24137 -13.77042,42.8863 -5.67017,17.82054 -5.74517,-17.82054 -10.02031,-31.17094 c -4.45513,2.34007 -8.50526,4.92014 -11.83536,7.44022 l 0,0 c -4.11012,3.1051 -7.27522,7.15522 -9.55529,12.30037 l 0,0 0.12001,16.4105 0.06,18.69057 -1.00504,-1.41004 c 1.53005,4.17013 3.52511,7.98024 5.98519,11.20534 l 0,0 c 17.62553,22.78569 46.3514,34.56105 76.87733,47.10143 l 0,0 c 29.94091,12.36037 63.16692,25.96579 89.11771,52.21659 l 0,0 3.4051,-1.12504 98.733,-31.63596 -103.71315,0.36001 -18.75057,0.0456 15.16546,-10.89033 84.21256,-60.70684 -98.628,32.46098 -17.74554,5.86518 11.01034,-15.06046 7.44022,-10.1403 -1.57505,0 -1.75505,0 -1.47004,-0.99003 -5.44517,-3.40571 -13.48541,-8.73026 c -0.99003,-0.34501 -1.99506,-0.88503 -3.04509,-1.41005 l 0,0 -2.98509,2.23507 -15.12046,11.01034 5.86518,-17.76054 1.93506,-5.79018 C 373.97639,173.33027 370.52629,164.6 365.83115,152.98965 l 0,0 c -0.52502,-1.39504 -1.17004,-2.86509 -1.69506,-4.39513 l 0,0 -16.23049,22.50068 -10.96533,15.18046 0.06,-18.69057 0.12,-48.28646 c -2.10006,-0.28501 -4.45513,-0.46502 -6.91521,-0.46502 l 0,0 c -3.2851,0 -6.85521,0.30001 -10.72532,0.88503 m 130.44396,25.24577 0.75002,11.08533 18.34556,-25.08076 -19.09558,13.99543 z m -299.88911,12.07536 c 0.87003,-3.4501 1.81505,-6.6752 2.92509,-9.9003 l 0,0 -22.03567,-16.11049 19.11058,26.01079 z m 3.85512,82.74252 c -3.45011,-8.85027 -5.97018,-18.40556 -7.38023,-28.71088 l 0,0 -59.641805,-19.63559 67.022035,48.34647 z m 8.73026,54.48165 17.82054,5.74517 -17.82054,5.74518 -98.837995,31.69596 103.818145,-0.40501 18.69057,-0.06 -15.16546,10.96533 -84.257555,60.69184 98.612995,-32.46098 17.80554,-5.85018 -11.07034,15.06046 -12.66038,17.34052 6.6302,3.57011 c 6.6152,3.1651 10.60532,8.32526 12.94539,12.9004 l 0,0 15.46547,-11.37035 15.18046,-11.08534 -5.92518,17.76054 -11.65535,35.44608 c 3.93012,6.85521 8.38525,12.07537 13.47041,15.64547 l 0,0 26.4908,-36.67611 10.90533,-15.18046 -0.06,18.75057 -0.18,40.32122 c 6.39019,-0.46501 13.47041,-1.47004 21.09064,-3.04509 l 0,0 10.38031,-32.35598 5.74518,-17.86554 5.67017,17.86554 7.62023,23.85072 c 6.04519,-2.28007 15.24046,-6.39019 23.73072,-12.36037 l 0,0 -0.06,-16.4105 -0.06,-18.75057 10.96534,15.18046 3.93012,5.50517 c 4.15512,-6.09019 6.27019,-12.70539 6.27019,-19.6206 l 0,0 c 0,-8.62526 0,-34.93606 -54.37666,-60.42183 l 0,0 c -4.45513,-2.10007 -9.15028,-4.15513 -13.95042,-6.3902 l 0,0 -2.98509,-1.33504 C 246.12751,328.31498 194.49594,304.92926 166.20508,262.98799 l 0,0 -102.423105,-0.36001 98.837995,31.63596 z m 288.87878,22.50068 c 3.81011,5.62517 7.15521,12.25538 10.42531,20.40062 l 0,0 74.25226,0.28501 -90.76776,-29.17588 c 2.05506,2.76008 4.09512,5.56516 6.09019,8.49025 m 21.63065,73.42723 c 0,1.75506 -0.06,3.45011 -0.24,5.16016 l 0,0 40.20122,13.2454 -40.50123,-29.19088 c 0.36001,3.75011 0.54001,7.33522 0.54001,10.78532 m -18.58556,68.26708 14.47544,10.60532 -11.53535,-15.82548 c -0.94503,1.69505 -1.87506,3.4651 -2.94009,5.22016" style="fill:url(#radialGradient2998)"/>
</svg>
