<?xml version="1.0" encoding="UTF-8" standalone="no"?>
<svg xmlns="http://www.w3.org/2000/svg" xmlns:xlink="http://www.w3.org/1999/xlink" version="1.1" width="600" height="599.9762">
  <radialGradient cx="0" cy="0" r="1" fx="0" fy="0" id="radialGradient498" gradientUnits="userSpaceOnUse" gradientTransform="matrix(15.420715,0,0,-15.420715,397.9375,372.09229)" spreadMethod="pad">
    <stop style="stop-color:#d9eaf3" offset="0"/>
    <stop style="stop-color:#99aebc" offset="0.66291797"/>
    <stop style="stop-color:#536e78" offset="1"/>
  </radialGradient>
  <radialGradient cx="0" cy="0" r="1" fx="0" fy="0" id="radialGradient3000" xlink:href="#radialGradient498" gradientUnits="userSpaceOnUse" gradientTransform="matrix(15.420715,0,0,-15.420715,397.9375,372.09229)" spreadMethod="pad"/>
  <path d="m 582.63444,319.74198 -61.5725,-19.6942 61.5725,-19.79919 c 11.71452,-3.80985 18.98922,-15.52437 17.0543,-27.71887 -1.93492,-12.17951 -12.41949,-21.08914 -24.71899,-21.08914 l -0.06,0 -64.69236,0.23999 52.43786,-37.79846 c 10.01959,-7.19971 13.30446,-20.62416 7.67969,-31.63372 -4.33483,-8.56465 -13.06447,-13.66444 -22.2591,-13.66444 -2.57989,0 -5.21978,0.41998 -7.79968,1.28995 l -61.4675,20.21918 38.20345,-52.19788 c 7.3347,-9.95959 6.26974,-23.66903 -2.4599,-32.41368 -4.8598,-4.8598 -11.24954,-7.3197 -17.69928,-7.3197 -5.14479,0 -10.30458,1.58993 -14.7594,4.8148 l -46.04812,33.74863 -0.82437,-11.60953 14.87939,-45.40315 c 3.86985,-11.66952 -1.39494,-24.494 -12.35949,-30.05878 -3.62986,-1.81492 -7.4997,-2.69989 -11.36954,-2.69989 -7.78468,0 -15.40437,3.62986 -20.26417,10.37958 L 395.26267,52.37787 C 387.178,51.6279 378.26836,51.20792 368.48876,51.08792 l 0.06,-26.00894 C 368.60876,12.77948 359.63912,2.23491 347.45962,0.29999 346.16967,0.12 344.81972,0 343.58977,0 332.86521,0 323.13061,6.91472 319.74075,17.39929 l -11.65453,36.26853 c -5.15979,0.64557 -10.25958,1.46994 -15.41937,2.4599 L 280.24735,17.39929 C 276.85749,6.91472 267.18288,0 256.45832,0 c -1.28995,0 -2.57989,0.12 -3.92984,0.29999 -12.1795,1.93492 -21.08914,12.47949 -21.08914,24.77899 l 0.23999,52.15288 c -2.23491,1.16995 -4.33482,2.3999 -6.38974,3.62985 L 193.88087,37.33348 c -4.8598,-6.74972 -12.47949,-10.37958 -20.26418,-10.37958 -3.86984,0 -7.73968,0.88557 -11.36953,2.69989 -10.96456,5.56478 -16.22934,18.38926 -12.3595,30.05878 l 20.20418,61.5125 -52.19788,-38.24845 c -4.39482,-3.22487 -9.61461,-4.8148 -14.7744,-4.8148 -6.43473,0 -12.82447,2.4599 -17.62428,7.3197 -8.72964,8.74465 -9.7946,22.45409 -2.51989,32.41368 l 38.20344,52.19788 -61.4075,-20.21918 c -2.63989,-0.86997 -5.21979,-1.28995 -7.85968,-1.28995 -9.13463,0 -17.86427,5.09979 -22.25909,13.66444 -5.56478,11.00956 -2.33991,24.43401 7.67968,31.63372 l 52.49787,37.79846 -64.75237,-0.23999 -0.10799,0 c -12.2545,0 -22.7390797,8.90963 -24.67399971,21.08914 -1.87491999,12.1945 5.32479001,23.90902 17.05430971,27.71887 l 61.57249,19.79919 -61.57249,19.6942 C 5.6205403,323.49183 -1.5791697,335.26635 0.29575029,347.44585 2.2306703,359.64036 12.71525,368.54999 24.96975,368.54999 l 0.10799,0 64.69237,-0.23999 -52.43787,37.84346 c -10.01959,7.21471 -13.24446,20.62416 -7.67968,31.58871 4.39482,8.54966 13.12446,13.64945 22.25909,13.64945 2.63989,0 5.27979,-0.40438 7.85968,-1.22995 l 61.4075,-20.21918 -38.20344,52.15288 c -7.27471,9.95959 -6.20975,23.72903 2.51989,32.45868 4.79981,4.8598 11.18955,7.3197 17.62428,7.3197 5.15979,0 10.37958,-1.57494 14.7744,-4.8598 l 28.36385,-20.74416 2.62489,23.78903 c 0.17999,2.3999 1.00556,6.62973 4.10983,10.60457 l -3.10487,9.61461 c -3.86984,11.71452 1.39494,24.494 12.3595,30.05877 3.62985,1.87493 7.49969,2.74489 11.36953,2.74489 7.78469,0 15.40438,-3.68985 20.26418,-10.36458 l 10.66456,-14.81939 c 6.97472,0.74997 14.47442,1.10995 22.73908,1.10995 1.40994,0 2.86488,-0.06 4.27482,-0.11999 l -0.11999,26.00894 c 0,12.3145 8.90964,22.85907 21.08914,24.79399 1.34995,0.22559 2.63989,0.28559 3.92984,0.28559 10.72456,0 20.39917,-6.85472 23.78903,-17.3393 l 12.59949,-39.1934 c 4.51481,-0.76557 9.07463,-1.40994 13.58945,-2.3549 l 13.30445,41.5483 c 3.38987,10.48458 13.12447,17.3393 23.84903,17.3393 1.22995,0 2.5799,-0.06 3.86984,-0.28559 12.17951,-1.93492 21.14914,-12.47949 21.08915,-24.79399 l -0.18,-55.24275 c 1.63494,-0.82557 3.22487,-1.69493 4.8598,-2.5799 l 32.87867,45.58315 c 4.8598,6.73472 12.47949,10.42457 20.26417,10.42457 3.86984,0 7.73968,-0.86996 11.36954,-2.74489 10.96455,-5.56477 16.22934,-18.34425 12.35949,-30.05877 l -20.20417,-61.4675 52.19787,38.20345 c 4.45482,3.28486 9.61461,4.8598 14.7594,4.8598 6.44974,0 12.83948,-2.4599 17.69928,-7.3197 8.72964,-8.72965 9.7946,-22.49909 2.4599,-32.45868 l -38.20345,-52.15288 61.4675,20.21918 c 2.5799,0.82557 5.21979,1.22995 7.79968,1.22995 9.19463,0 17.92427,-5.09979 22.2591,-13.64945 5.62477,-10.96455 2.3399,-24.374 -7.61969,-31.58871 L 510.21799,368.31 l 64.69236,0.23999 0.06,0 c 12.2995,0 22.78407,-8.90963 24.71899,-21.10414 1.93492,-12.1795 -5.33978,-23.95402 -17.0543,-27.70387"/>
  <path d="m 444.65506,390.16411 c 0,85.9015 -95.27612,131.48465 -169.08812,139.08934 -25.66395,2.63989 -58.66261,5.45978 -83.84658,-0.22439 -8.44466,-1.87493 -16.10935,-4.21483 -23.08406,-6.91472 -2.11492,-0.88437 -3.10488,-1.93492 -3.10488,-3.16487 l -10.19958,-92.11125 c 0,-2.03992 1.04996,-3.10487 3.16487,-3.10487 l 15.17938,8.14466 c 2.09992,0.64558 11.65453,56.02272 56.93768,66.79228 29.36881,7.03472 62.23247,0 89.83134,-9.6596 32.92366,-11.66953 66.14731,-35.62355 66.14731,-74.23198 0,-35.39856 -23.60904,-64.10739 -70.72212,-86.20149 -59.0076,-27.47888 -142.08921,-56.83268 -142.08921,-135.0395 0,-84.37156 83.4416,-122.35002 156.38363,-125.0949 26.42892,-0.94437 57.07267,-1.99492 83.02162,3.28486 2.11491,0.40438 3.16487,1.45494 3.16487,3.14987 l 6.97471,97.97601 c 0,2.09992 -1.04995,3.16487 -3.16487,3.16487 l -17.80427,-11.30954 c -2.11492,0 -14.93939,-36.7335 -20.56416,-47.11308 -24.49401,-44.93817 -93.64119,-26.36892 -126.50485,-1.46994 -30.34377,22.97907 -31.34873,69.55217 -9.7796,97.33104 46.28811,59.81756 138.96934,54.0728 182.27257,119.05015 10.78456,16.16934 16.87432,38.14345 16.87432,57.65765 m 52.19787,106.69066 -40.48335,-55.24275 c -2.74489,6.37474 -6.08975,12.53949 -9.8396,18.38925 l 50.32295,36.8535 z m -240.39521,78.16181 7.03471,-21.9741 c -2.2799,0.17999 -4.63481,0.41998 -6.97471,0.52438 l -0.06,21.44912 z m 169.91308,-26.9539 -15.80936,-48.22303 c -3.98983,3.16487 -8.08467,6.22474 -12.37449,9.14962 l 28.18385,39.07341 z m -82.84163,26.9539 -0.11999,-38.30844 c -3.62985,1.27495 -7.25971,2.5049 -10.94955,3.68985 l 11.06954,34.61859 z M 103.11896,103.1214 l 50.09796,68.44222 c 1.46994,-9.43462 3.74985,-18.34426 6.97472,-26.66892 l -57.07268,-41.7733 z m 310.48736,95.39612 -5.50478,-3.46486 -14.5344,-9.25462 c -1.93493,-0.76557 -3.62986,-1.81493 -5.21979,-3.22487 l -6.49474,4.7998 2.80489,-8.66964 c -4.39482,-5.78977 -8.02467,-14.9394 -13.24446,-27.88387 -1.75493,-4.57481 -3.91484,-9.95959 -5.84976,-14.53441 l -22.55908,31.28873 0.22439,-53.20284 c -3.62986,-0.92996 -7.84468,-1.57493 -13.00447,-1.57493 -5.0398,0 -10.19959,0.64437 -15.34438,1.57493 l -14.87939,46.40811 -12.13451,-37.79846 c -7.4397,3.40487 -14.00943,7.33471 -19.04922,11.08455 -6.02976,4.55982 -9.59961,10.30458 -11.89452,15.86936 l 0.06,17.63928 -3.32986,-4.57482 c -1.40995,13.07947 2.15991,27.0139 9.59961,36.68851 18.62924,24.07402 48.10304,36.20853 79.27177,48.97301 36.44851,14.99939 77.75683,31.93369 103.94576,71.36709 4.63481,6.91472 8.26466,14.8194 11.42954,23.08406 l 117.07023,0.46438 -135.75947,-43.58822 135.75947,-43.52823 -142.5542,0.52558 115.66029,-83.38161 -135.47448,44.59319 15.29938,-20.90915 c -2.3999,0.74997 -4.9798,1.22995 -7.73969,1.22995 l -6.55473,0 z m 32.21869,-26.42893 0,0.76557 51.02792,-69.73216 -53.18783,38.96842 2.09991,29.17381 0.06,0.82556 z m 20.68416,227.51074 81.56667,26.83391 -83.56159,-60.23755 c 1.52993,7.97967 2.63989,16.06434 2.63989,23.96902 0,3.22487 -0.40438,6.26975 -0.64557,9.43462 m -269.98901,28.88882 21.67412,-15.88435 -12.53949,37.96345 c 5.15979,9.61461 12.01451,18.10427 21.62912,23.02406 l 29.69879,-41.18832 -0.16439,46.5881 c 9.6596,-0.06 20.38417,-1.52993 31.7537,-4.16983 l 11.42954,-35.60855 9.47961,29.6388 c 1.16995,-0.34559 2.29491,-0.64558 3.52486,-1.04996 7.3797,-2.63989 19.45421,-7.85968 30.05877,-15.94435 l -0.06,-19.45421 8.54966,11.89452 c 7.3197,-7.78469 12.53948,-17.51929 12.53948,-29.5188 0,-9.55461 0,-38.72842 -57.77764,-65.80232 -5.50478,-2.57989 -11.24954,-5.15979 -17.03931,-7.79968 C 234.13863,316.27772 159.84665,282.58909 152.10697,206.60219 l -100.19592,-32.99866 115.66029,83.38161 -142.55419,-0.52558 135.75947,43.52823 -135.75947,43.58822 142.55419,-0.58438 -115.66029,83.44161 135.47448,-44.59319 -16.76931,22.85907 12.95947,6.97472 c 8.20466,3.91484 11.12955,11.47453 12.94447,16.81431 M 426.3708,51.91349 l -0.52438,0.82556 c 0.06,0.06 0.17999,0.06 0.23999,0.12 l 0.28559,-0.94556 z m -82.84163,-26.89391 -6.62973,20.68416 c 2.17492,-0.06 4.34983,-0.11999 6.56974,-0.22439 l 0.06,-20.45917 z m -240.41021,471.83579 34.5136,-25.24397 -2.03992,-19.04923 -32.47368,44.2932 z m 153.33876,-471.83579 0.12,34.81359 c 3.28486,-1.18436 6.55473,-2.35491 9.95959,-3.34487 L 256.45772,25.01958 z m -82.84163,523.0437 0.28559,-0.46438 -0.11999,0 -0.1644,0.46438 z M 201.21497,90.23693 c -4.04983,3.28486 -7.91968,6.73472 -11.54953,10.42457 l -16.04935,-48.74801 27.59888,38.32344 z" style="fill:#536e78"/>
  <g transform="matrix(14.999389,0,0,-14.999389,-5668.8258,5881.1704)">
    <path d="m 399.965,387.129 c -4.996,-0.188 -10.039,-2.715 -10.039,-7.938 l 0,0 c 0,-4.464 4.293,-6.402 8.078,-8.113 l 0,0 c 0.398,-0.176 0.785,-0.355 1.16,-0.527 l 0,0 c 3.285,-1.539 4.945,-3.598 4.945,-6.11 l 0,0 c 0,-3.308 -3.269,-4.828 -4.675,-5.328 l 0,0 c -1.625,-0.566 -3.114,-0.855 -4.426,-0.855 l 0,0 c -0.629,0 -1.231,0.066 -1.789,0.195 l 0,0 c -2.703,0.649 -3.645,3.469 -3.953,4.395 l 0,0 c -0.02,0.062 -0.039,0.117 -0.055,0.164 l 0,0 -0.473,0.254 0.614,-5.618 c 0.449,-0.171 0.937,-0.316 1.453,-0.433 l 0,0 c 0.636,-0.141 1.383,-0.211 2.289,-0.211 l 0,0 c 1.078,0 2.211,0.101 3.172,0.203 l 0,0 c 4.386,0.453 10.918,3.191 10.918,8.875 l 0,0 c 0,1.254 -0.407,2.641 -1.059,3.621 l 0,0 c -1.43,2.145 -3.687,3.07 -6.074,4.055 l 0,0 c -2.219,0.914 -4.512,1.855 -6.067,3.859 l 0,0 c -0.824,1.067 -1.207,2.543 -1.015,3.945 l 0,0 c 0.168,1.282 0.789,2.383 1.746,3.11 l 0,0 c 1.187,0.898 3.265,1.801 5.238,1.801 l 0,0 c 1.754,0 3.067,-0.7 3.785,-2.028 l 0,0 c 0.184,-0.34 0.461,-1.027 0.727,-1.691 l 0,0 c 0.207,-0.527 0.492,-1.242 0.512,-1.305 l 0,0 0.757,-0.48 -0.429,5.972 c -0.86,0.164 -1.864,0.243 -3.149,0.243 l 0,0 c -0.75,0 -1.492,-0.028 -2.191,-0.055 m -0.727,-3.016 -0.918,-2.859 -0.382,-1.188 -0.379,1.188 -0.668,2.078 c -0.297,-0.156 -0.571,-0.328 -0.789,-0.496 l 0,0 c -0.274,-0.207 -0.485,-0.477 -0.637,-0.82 l 0,0 0.004,-1.094 0.004,-1.254 -0.055,0.082 c 0.098,-0.27 0.227,-0.516 0.387,-0.727 l 0,0 c 1.175,-1.515 3.09,-2.304 5.129,-3.14 l 0,0 c 1.996,-0.824 4.207,-1.731 5.941,-3.481 l 0,0 0.223,0.075 6.586,2.109 -6.918,-0.024 -1.246,-0.003 1.011,0.726 5.614,4.047 -6.575,-2.164 -1.183,-0.391 0.734,1.004 0.496,0.676 -0.105,0 -0.117,0 -0.098,0.063 -0.367,0.23 -0.895,0.582 c -0.066,0.023 -0.137,0.059 -0.199,0.094 l 0,0 -0.207,-0.149 -1.004,-0.734 0.391,1.184 0.125,0.386 c -0.27,0.426 -0.504,1.008 -0.813,1.782 l 0,0 c -0.035,0.093 -0.078,0.191 -0.117,0.293 l 0,0 -1.082,-1.5 -0.727,-1.012 0.004,1.246 0.008,3.219 c -0.144,0.019 -0.297,0.031 -0.461,0.031 l 0,0 c -0.223,0 -0.457,-0.02 -0.715,-0.059 m 8.692,-1.683 0.054,-0.742 1.227,1.675 -1.281,-0.933 z m -19.989,-0.805 c 0.055,0.23 0.125,0.445 0.196,0.66 l 0,0 -1.465,1.074 1.269,-1.734 z m 0.258,-5.516 c -0.23,0.59 -0.398,1.227 -0.488,1.914 l 0,0 -3.981,1.309 4.469,-3.223 z m 0.578,-3.632 1.188,-0.383 -1.188,-0.383 -6.586,-2.113 6.918,0.027 1.25,0.004 -1.011,-0.731 -5.621,-4.046 6.578,2.164 1.183,0.39 -0.734,-1.004 -0.844,-1.156 0.442,-0.238 c 0.445,-0.211 0.703,-0.555 0.863,-0.86 l 0,0 1.031,0.758 1.008,0.739 -0.391,-1.184 -0.777,-2.363 c 0.262,-0.457 0.559,-0.805 0.894,-1.043 l 0,0 1.766,2.445 0.727,1.012 -0.004,-1.25 -0.008,-2.688 c 0.426,0.031 0.894,0.098 1.406,0.203 l 0,0 0.692,2.157 0.379,1.191 0.382,-1.191 0.508,-1.59 c 0.402,0.152 1.012,0.426 1.582,0.824 l 0,0 -0.004,1.094 -0.004,1.25 0.727,-1.012 0.266,-0.367 c 0.277,0.406 0.414,0.847 0.414,1.308 l 0,0 c 0,0.575 0,2.329 -3.621,4.028 l 0,0 c -0.34,0.156 -0.696,0.316 -1.133,0.515 l 0,0 c -2.711,1.227 -6.153,2.782 -8.035,5.578 l 0,0 -6.829,0.024 6.586,-2.109 z m 19.262,-1.5 c 0.25,-0.375 0.477,-0.817 0.695,-1.36 l 0,0 4.95,-0.019 -6.051,1.945 c 0.137,-0.184 0.273,-0.371 0.406,-0.566 m 1.441,-4.895 c 0,-0.117 -0.003,-0.23 -0.015,-0.344 l 0,0 2.68,-0.883 -2.704,1.946 c 0.028,-0.25 0.039,-0.489 0.039,-0.719 m -1.242,-4.551 0.973,-0.711 -0.773,1.059 c -0.063,-0.113 -0.129,-0.231 -0.2,-0.348" style="fill:url(#radialGradient3000)"/>
  </g>
</svg>
