<?xml version="1.0" encoding="UTF-8" standalone="no"?>
<svg xmlns="http://www.w3.org/2000/svg" version="1.1" width="600" height="599.97913">
  <path d="m 444.65381,390.16605 c 0,85.90193 -95.2016,131.4853 -169.08895,139.09003 -25.66409,2.6399 -58.58791,5.4598 -83.84701,-0.22559 -8.4297,-1.87494 -16.10942,-4.21485 -23.08417,-6.91476 -2.11493,-0.88557 -3.10489,-1.93493 -3.10489,-3.16488 l -10.19964,-92.11171 c 0,-2.03993 1.06436,-3.10489 3.16489,-3.10489 l 15.17946,8.14471 c 2.11492,0.64558 11.65458,56.023 56.95296,66.79261 29.35395,7.03475 62.21778,0 89.81679,-9.65965 32.98382,-11.66959 66.14763,-35.62373 66.14763,-74.23235 0,-35.39873 -23.54915,-64.10771 -70.72247,-86.20192 -58.99289,-27.47902 -142.01492,-56.83297 -142.01492,-135.04017 0,-84.37198 83.36702,-122.35062 156.30941,-125.09553 26.42906,-0.94556 57.07296,-1.99492 83.03703,3.28489 2.09993,0.40438 3.16489,1.45494 3.16489,3.14988 l 6.95975,97.9765 c 0,2.09993 -0.98996,3.16489 -3.10489,3.16489 l -17.86436,-11.3096 c -2.11492,0 -14.93947,-36.73368 -20.56427,-47.11331 -24.43412,-44.9384 -93.62665,-26.36906 -126.50547,-1.46995 -30.28392,22.97918 -31.28888,69.55251 -9.77965,97.33152 46.28835,59.81786 138.98503,54.07307 182.27348,119.05074 10.78461,16.16942 16.8744,38.14364 16.8744,57.65794 m 52.21313,106.69119 -40.43855,-55.24303 c -2.8049,6.37477 -6.14978,12.53955 -9.83965,18.38934 l 50.2782,36.85369 z m -240.4114,78.1622 7.03475,-21.97421 c -2.27992,0.17999 -4.61984,0.41998 -6.97475,0.52438 l -0.06,21.44923 z m 169.97392,-26.95403 -15.86943,-48.22328 c -3.98986,3.16489 -8.08471,6.22478 -12.29956,9.14967 l 28.16899,39.07361 z m -82.84204,26.95403 -0.17999,-38.30863 c -3.62987,1.27496 -7.25974,2.50491 -10.94961,3.68987 l 11.1296,34.61876 z m -240.4564,-471.89813 50.09821,68.44256 c 1.45494,-9.43467 3.74986,-18.34435 6.95975,-26.66905 l -57.05796,-41.77351 z m 310.4739,95.39659 -5.44481,-3.46487 -14.53448,-9.25467 c -1.99493,-0.76438 -3.68987,-1.81494 -5.27981,-3.22489 l -6.49477,4.79983 2.8049,-8.66969 c -4.39484,-5.78979 -8.02471,-14.93946 -13.18452,-27.884 -1.81494,-4.57484 -3.97486,-9.95965 -5.84979,-14.53448 l -22.6192,31.28888 0.24,-53.2031 c -3.64487,-0.92996 -7.85972,-1.57494 -13.01954,-1.57494 -5.03982,0 -10.18463,0.64558 -15.34445,1.57494 L 299.99898,160.77865 287.86442,122.98 c -7.43974,3.40488 -13.9945,7.33474 -19.03432,11.08461 -6.04479,4.55983 -9.61466,10.30463 -11.89458,15.86943 l 0.06,17.63937 -3.34488,-4.57484 c -1.40995,13.07954 2.15992,27.01404 9.61466,36.68869 18.62933,24.07414 48.10328,36.20871 79.27216,48.97325 36.4337,14.99946 77.74222,31.93386 103.99128,71.36745 4.57484,6.91475 8.2647,14.81947 11.42959,23.08417 l 117.07082,0.46439 -135.82015,-43.58845 135.82015,-43.52844 -142.61491,0.52438 115.72087,-83.38202 -135.47516,44.59341 15.23946,-20.90925 c -2.39992,0.74997 -4.97983,1.22995 -7.73973,1.22995 l -6.55476,0 z m 32.21885,-26.42905 0,0.76437 51.04317,-69.73251 -53.2031,38.96861 2.11493,29.17396 0.048,0.82557 z m 20.74425,227.51186 81.56709,26.83404 -83.56202,-60.23784 c 1.52995,7.97971 2.57991,16.06442 2.57991,23.96914 0,3.22489 -0.40438,6.26978 -0.58438,9.43466 m -270.05034,28.88897 21.68923,-15.88443 -12.47956,37.96364 c 5.08482,9.61466 11.93958,18.10435 21.55423,23.02418 l 29.71394,-41.18853 -0.17999,46.58833 c 9.65965,-0.06 20.38427,-1.52994 31.75386,-4.16985 l 11.42959,-35.60872 9.53966,29.63894 c 1.18436,-0.34559 2.29492,-0.64438 3.46488,-1.04997 7.37973,-2.6399 19.5143,-7.85971 30.11892,-15.94443 l -0.12,-19.4543 8.6097,11.89458 c 7.27474,-7.78473 12.47955,-17.51938 12.47955,-29.51895 0,-9.55466 0,-38.72861 -57.76293,-65.80265 -5.45981,-2.5799 -11.1896,-5.15981 -17.05439,-7.79972 C 234.13694,316.27809 159.84459,282.5893 152.10487,206.60201 L 51.923453,173.60319 167.64431,256.98521 25.029413,256.46083 160.78956,299.98928 25.029413,343.57772 167.64431,342.99334 51.923453,426.43535 l 135.460157,-44.5934 -16.69441,22.85918 12.88454,6.97475 c 8.20471,3.91486 11.12961,11.47459 12.94454,16.8144 m 229.91178,-376.57653 -0.58438,0.82437 c 0.06,0.06 0.17999,0.06 0.23999,0.11999 l 0.34439,-0.94436 z m -82.84204,-26.89404 -6.67476,20.68426 c 2.21992,-0.06 4.33485,-0.12 6.55477,-0.22439 l 0.11999,-20.45927 z m -240.4564,471.83813 34.51376,-25.2441 -2.05492,-19.04932 -32.45884,44.29342 z m 153.32452,-471.83813 0.11999,34.81375 c 3.28489,-1.18436 6.62977,-2.35491 9.95965,-3.34488 L 256.45614,25.01971 z M 173.6141,548.066 l 0.34559,-0.46438 -0.1644,0 -0.17999,0.46438 z M 201.21311,90.23737 c -4.04985,3.28489 -7.91971,6.73476 -11.54958,10.42463 L 173.6141,51.91375 201.21311,90.23737 z"/>
</svg>
