<?xml version="1.0" encoding="UTF-8" standalone="no"?>
<svg xmlns="http://www.w3.org/2000/svg" version="1.1" width="600" height="614.38702">
  <radialGradient cx="0" cy="0" r="1" fx="0" fy="0" id="radialGradient522" gradientUnits="userSpaceOnUse" gradientTransform="matrix(17.286789,0,0,-17.286789,219.68359,372.13086)" spreadMethod="pad">
    <stop style="stop-color:#ebd491" offset="0"/>
    <stop style="stop-color:#d2bb7b" offset="0.7"/>
    <stop style="stop-color:#8b723c" offset="1"/>
  </radialGradient>
  <path d="m 295.97167,614.38643 c -2.87226,0 -5.75988,-0.47554 -8.57069,-1.38237 -5.82132,-1.96604 -57.78305,-20.21332 -79.50161,-57.16866 -4.56182,-7.74127 -4.97653,-17.27962 -1.13661,-25.38952 15.95869,-33.59158 33.17686,-79.37873 33.17686,-94.73839 0,-9.95306 5.51412,-19.13813 14.22305,-23.80747 1.07518,-0.59841 2.21179,-1.09115 3.28697,-1.50525 2.94905,-23.63851 3.4252,-47.87606 0.84539,-54.83398 -3.47128,-9.47692 -1.38237,-20.04436 5.4066,-27.53988 1.91996,-2.10427 4.07031,-3.83991 6.42034,-5.22228 -0.65985,-5.22229 -1.32093,-10.32169 -2.10427,-15.23678 -37.80013,83.81766 -87.47327,112.43271 -90.17657,113.93796 -4.08567,2.27323 -8.64749,3.40984 -13.19395,3.40984 -3.79383,0 -7.51087,-0.76798 -11.04359,-2.33467 -7.80271,-3.48664 -13.50114,-10.44456 -15.35966,-18.78486 -14.40736,-63.42004 9.0622,-117.24029 37.43149,-156.05415 -7.14224,3.96279 -13.6701,7.86414 -19.01526,11.22791 -24.23754,20.39763 -59.334371,62.45238 -59.703003,62.86709 -1.136615,1.25949 -2.334668,2.51898 -3.655599,3.60952 -11.873018,9.72267 -29.336952,11.15111 -38.644906,11.15111 -13.439703,0 -24.836571,-9.83018 -26.817968,-23.16236 -9.538349,-64.6181 46.140421,-142.67589 52.560759,-151.30802 2.764739,-3.77848 6.481777,-6.77361 10.736403,-8.69357 4.208547,-1.91996 8.770366,-3.67096 13.624024,-5.22228 -39.121061,0.47553 -69.302794,6.3589 -69.594627,6.42034 -1.797081,0.35388 -3.609521,0.5382 -5.345162,0.5382 -10.383131,0 -19.9829187,-5.94419 -24.5447379,-15.54398 L 2.5874025,133.79862 C -3.2953475,121.32658 1.1435944,106.38163 12.955173,99.11651 72.719613,62.5298 142.62143,46.8015 145.61656,46.20248 c 1.91996,-0.47554 3.83992,-0.66108 5.82132,-0.66108 l 0.36863,0 c 32.63928,0.47676 67.42891,23.03949 93.1717,44.40477 -0.35389,-7.8027 0.35388,-16.80346 3.4252,-27.12516 7.91023,-26.63365 38.62955,-44.88092 47.87606,-49.85745 4.07031,-2.16572 8.46318,-3.17945 12.77924,-3.17945 8.81645,0 17.4025,4.25462 22.56334,11.99589 7.18832,10.7364 5.69844,24.89801 -3.07193,33.89877 -0.0614,0.59841 -0.0614,1.79708 0.43007,3.67096 0.29245,1.25949 0.65985,2.33467 1.01374,3.34841 18.53911,-25.61992 43.74431,-52.49932 72.29792,-61.07001 2.04284,-0.59964 4.08567,-0.96828 6.23602,-1.09115 0,0 7.67983,-0.53698 20.52051,-0.53698 25.2052,0 74.58651,1.9814 121.55635,15.12927 13.33219,3.71704 21.71856,16.78811 19.50677,30.47356 l -1.01373,6.23603 c -2.04284,12.30309 -12.18022,21.61104 -24.54474,22.68622 -0.59841,0 -25.14377,2.21179 -57.3069,9.95306 2.7033,0.18431 5.22229,0.4915 7.74127,0.84539 4.62326,0.72252 9.00076,2.51899 12.7178,5.39124 8.52461,6.60466 83.4644,66.43053 92.05045,131.1715 1.79708,13.31683 -6.48178,25.97319 -19.44533,29.62879 -1.85852,0.5382 -11.87302,3.30233 -22.19471,3.30233 -6.78897,0 -12.61028,-1.13662 -17.94009,-3.42521 -1.56668,-0.65985 -3.11801,-1.48989 -4.56181,-2.51898 -0.43008,-0.23101 -42.6077,-28.8608 -71.45315,-42.46946 28.67649,27.00228 53.32875,65.63183 56.2778,119.63639 0.4141,7.43408 -2.35003,14.82207 -7.57231,20.21332 -5.09941,5.34516 -12.18021,8.27885 -19.55285,8.27885 l -0.36863,0 c -2.87226,0 -50.564,-1.48988 -100.54434,-47.81462 1.01374,7.74127 1.6742,15.83581 1.55133,24.00715 3.36376,4.31606 5.34516,9.64587 5.57555,15.23678 0.12288,2.64186 2.7033,63.589 -19.30709,112.01801 2.27323,5.16084 2.99513,10.98215 1.79708,16.61915 -0.72129,3.17945 -17.15674,80.26959 -66.47661,131.50941 -5.22229,5.4066 -12.30309,8.27886 -19.56821,8.27886" style="fill:#ffffff"/>
  <path d="m 283.97577,263.21851 c 9.18508,13.4397 14.34592,68.15081 14.34592,68.15081 23.33133,10.21417 68.51945,0.78273 68.51945,0.78273 0.89086,-38.56811 -16.98778,-76.26072 -16.98778,-76.26072 -29.0912,5.75988 -65.87759,7.32656 -65.87759,7.32656 m -0.24575,82.97289 c 7.86414,21.30385 -0.65985,77.28981 -0.65985,77.28981 31.02651,24.46794 70.56228,27.29412 70.56228,27.29412 21.65712,-43.31425 18.8463,-103.55483 18.8463,-103.55483 -38.58347,12.24164 -88.74812,-1.02972 -88.74812,-1.02972 m -8.21742,-201.16547 c 0,0 35.64978,-19.92148 37.73869,-38.82922 2.10427,-18.89239 -5.22229,-19.96756 -10.49065,-39.88904 -5.22228,-19.98292 6.29746,-29.39839 6.29746,-29.39839 0,0 -29.39839,15.71293 -34.62067,33.59158 -5.28373,17.8172 -1.07518,28.32321 3.11801,37.80012 4.19319,9.41547 4.19319,24.11467 -2.04284,36.72495 m 12.7178,6.89649 c -7.91022,0.29244 -14.80671,0.66108 -15.52861,2.81081 -0.72252,2.10428 1.48988,10.87464 3.77847,18.78487 2.21179,8.04846 5.16085,15.77437 7.20368,17.03386 1.85852,1.15136 7.72591,-0.47676 15.35966,-1.48988 8.81645,-1.13662 16.84955,-1.02972 17.87865,-2.82618 1.07517,-1.79708 -1.38237,-9.95306 -4.20855,-18.3548 -2.45754,-7.01936 -4.97653,-14.40736 -7.55695,-15.54397 -2.7033,-1.13662 -9.41547,-0.72252 -16.92635,-0.41533 m -30.65788,52.08461 c 0,0 -118.54586,81.11437 -92.92595,193.79284 0,0 73.3731,-40.91814 104.87577,-181.50511 0,0 0.47553,-10.26025 -11.94982,-12.28773 m -2.74938,-14.88351 c 0,0 1.73564,-9.18508 2.87226,-20.45907 0,0 -102.29534,-14.4688 -155.45513,9.41547 0,0 -55.740208,75.95353 -47.584228,131.46334 0,0 15.252143,0 21.426726,-5.09941 0,0 38.214842,-45.78715 64.740972,-67.56715 0,0 67.32139,-43.12992 109.97517,-46.61657 l 4.02423,-1.13661 z M 29.820081,128.03629 c 0,0 127.915259,-25.55848 208.860669,21.11953 0,0 9.72266,7.32656 23.57708,-5.3298 0,0 -63.71188,-70.4394 -110.81995,-71.16131 0,0 -67.73611,14.86816 -124.3211,49.61171 l 2.703301,5.75987 z M 348.59448,193.97531 C 405.24091,326.16055 493.37464,327.48148 493.37464,327.48148 487.07718,212.09971 360.17566,177.17184 360.17566,177.17184 c -11.4583,5.4066 -11.58118,16.80347 -11.58118,16.80347 m 2.99513,-29.39839 c 41.94724,-8.34029 118.49978,14.6992 118.49978,14.6992 31.50267,13.68546 80.7611,47.21559 80.7611,47.21559 7.37264,3.11802 22.08719,-1.07517 22.08719,-1.07517 -7.388,-55.55589 -81.85163,-113.2775 -81.85163,-113.2775 -57.70625,-8.34029 -152.09136,33.60694 -152.09136,33.60694 4.19319,10.49065 8.40173,18.83094 8.40173,18.83094 l 4.19319,0 z M 543.35497,41.22349 C 479.39735,23.40628 410.156,27.53803 410.156,27.53803 c -45.12668,13.68546 -87.05856,98.8855 -87.05856,98.8855 16.80347,8.40173 24.11467,-1.32094 24.11467,-1.32094 65.04816,-67.13707 195.11377,-77.64308 195.11377,-77.64308 l 1.02848,-6.23602 z M 267.05004,435.70565 c 0,31.02651 -35.75729,106.31957 -35.75729,106.31957 17.21818,29.33695 64.74097,45.311 64.74097,45.311 44.40478,-46.20186 59.39581,-118.33083 59.39581,-118.33083 -38.50667,-0.35388 -88.37949,-33.29974 -88.37949,-33.29974 m 76.26072,-192.04184 c -8.50926,-35.77264 -22.60943,-47.99893 -22.60943,-47.99893 -24.48329,2.81081 -37.63116,7.06544 -37.63116,7.06544 9.36939,2.35003 10.32169,46.63193 10.32169,46.63193 25.86567,-0.24576 49.9189,-5.69844 49.9189,-5.69844" style="fill:#8b723c"/>
  <g transform="matrix(15.359661,0,0,-15.359661,-3067.6097,6022.4308)">
    <path d="m 226.504,389.852 c -2.234,-0.719 -4.41,-4.446 -5.113,-5.743 l 0,0 c 0.066,-0.011 0.129,-0.019 0.187,-0.019 l 0,0 c 0.266,0 0.383,0.129 0.422,0.172 l 0,0 c 3.336,3.441 9.094,4.648 11.68,5.031 l 0,0 c -2.395,0.5 -4.739,0.586 -6.035,0.586 l 0,0 c -0.594,0 -1,-0.02 -1.141,-0.027 m -8.488,-2.473 c -0.309,-1.047 -0.047,-1.633 0.187,-2.152 l 0,0 c 0.195,-0.45 0.27,-0.989 0.211,-1.536 l 0,0 c 0.625,0.485 1.199,1.071 1.254,1.539 l 0,0 c 0.07,0.633 -0.035,0.86 -0.234,1.274 l 0,0 c -0.133,0.277 -0.297,0.625 -0.442,1.16 l 0,0 c -0.078,0.309 -0.105,0.586 -0.101,0.832 l 0,0 c -0.399,-0.336 -0.762,-0.734 -0.875,-1.117 m -15.149,-2.977 c 0.961,0.125 2.375,0.258 3.996,0.258 l 0,0 c 3.547,0 6.449,-0.637 8.657,-1.91 l 0,0 c 0,-0.004 0.085,-0.055 0.23,-0.055 l 0,0 c 0.109,0 0.234,0.035 0.363,0.098 l 0,0 c -1.031,1.059 -4.148,4.039 -6.488,4.121 l 0,0 c -0.445,-0.105 -3.68,-0.894 -6.758,-2.512 m 19.512,-2.039 c 0.09,-0.207 0.172,-0.39 0.234,-0.523 l 0,0 c 0.407,0.07 0.871,0.105 1.387,0.105 l 0,0 c 2.789,0 6.305,-1.047 6.504,-1.113 l 0,0 c 2.062,-0.894 5.199,-3.023 5.254,-3.07 l 0,0 c 0.027,-0.012 0.113,-0.039 0.293,-0.039 l 0,0 c 0.148,0 0.308,0.015 0.445,0.039 l 0,0 c -0.676,3.004 -4.351,6.086 -4.988,6.597 l 0,0 c -0.278,0.036 -0.578,0.055 -0.895,0.055 l 0,0 c -3.008,0 -6.972,-1.531 -8.234,-2.051 m -3.754,-0.605 -0.125,-0.004 c -0.148,-0.008 -0.383,-0.016 -0.555,-0.031 l 0,0 c 0.032,-0.153 0.09,-0.403 0.203,-0.805 l 0,0 c 0.122,-0.418 0.227,-0.691 0.266,-0.797 l 0,0 c 0.082,0.008 0.18,0.024 0.293,0.043 l 0,0 c 0.129,0.024 0.27,0.047 0.422,0.066 l 0,0 c 0.191,0.024 0.379,0.04 0.547,0.055 l 0,0 c 0.062,0.004 0.129,0.012 0.195,0.02 l 0,0 c -0.035,0.144 -0.105,0.371 -0.223,0.715 l 0,0 c -0.078,0.226 -0.203,0.597 -0.289,0.746 l 0,0 c -0.043,0.007 -0.113,0.007 -0.218,0.007 l 0,0 c -0.153,0 -0.329,-0.007 -0.516,-0.015 m -11.949,-1.621 c -0.469,-0.66 -3.168,-4.641 -2.996,-7.719 l 0,0 c 0.281,0.027 0.562,0.078 0.648,0.141 l 0,0 c 0.102,0.125 2.531,3.035 4.317,4.492 l 0,0 c 0.179,0.117 4.503,2.871 7.269,3.086 l 0,0 c 0.024,0.148 0.055,0.351 0.086,0.586 l 0,0 c -0.711,0.082 -2.199,0.222 -3.871,0.222 l 0,0 c -2.324,0 -4.207,-0.277 -5.453,-0.808 m 16.199,-0.602 c 2.887,-6.644 7.043,-7.98 8.469,-8.246 l 0,0 c -0.68,6.098 -6.989,8.414 -8.121,8.781 l 0,0 c -0.25,-0.172 -0.325,-0.41 -0.348,-0.535 m -3.988,-0.914 c 0.199,-0.508 0.324,-1.273 0.371,-2.297 l 0,0 c 0.914,0.035 1.762,0.168 2.258,0.254 l 0,0 c -0.379,1.328 -0.868,2.031 -1.094,2.301 l 0,0 c -0.656,-0.082 -1.176,-0.18 -1.535,-0.258 m -8.137,-11.66 c 1.273,0.996 4.504,4.113 6.062,11.062 l 0,0 c 0,0.082 -0.035,0.223 -0.23,0.301 l 0,0 c -1.043,-0.773 -6.73,-5.324 -5.832,-11.363 m 8.133,7.582 c 0.375,-1.121 0.597,-2.965 0.679,-3.703 l 0,0 c 0.387,-0.117 0.895,-0.18 1.516,-0.18 l 0,0 c 0.817,0 1.621,0.11 2.07,0.184 l 0,0 c -0.039,1.734 -0.644,3.402 -0.921,4.082 l 0,0 c -1.231,-0.219 -2.571,-0.332 -3.344,-0.383 m -0.254,-9.82 c 1.453,-1.055 3.164,-1.395 3.844,-1.493 l 0,0 c 0.91,2.024 1.043,4.563 1.05,5.676 l 0,0 c -0.609,-0.136 -1.289,-0.207 -2.031,-0.207 l 0,0 c -1.086,0 -2.074,0.149 -2.707,0.27 l 0,0 c 0.195,-1.41 -0.051,-3.477 -0.156,-4.246 m -3.34,-7.883 c 0.906,-1.317 2.859,-2.176 3.574,-2.453 l 0,0 c 2.086,2.297 3.102,5.523 3.43,6.758 l 0,0 c -1.824,0.207 -3.82,1.246 -4.813,1.824 l 0,0 c -0.339,-2.031 -1.781,-5.242 -2.191,-6.129" style="fill:url(#radialGradient522)"/>
  </g>
</svg>
