<?xml version="1.0" encoding="UTF-8" standalone="no"?>
<svg xmlns="http://www.w3.org/2000/svg" version="1.1" width="600" height="614.35974">
  <radialGradient cx="0" cy="0" r="1" fx="0" fy="0" id="radialGradient506" gradientUnits="userSpaceOnUse" gradientTransform="matrix(17.286545,0,0,-17.286545,135.55859,372.13086)" spreadMethod="pad">
    <stop style="stop-color:#d9eaf3" offset="0"/>
    <stop style="stop-color:#99aebc" offset="0.66291797"/>
    <stop style="stop-color:#536e78" offset="1"/>
  </radialGradient>
  <path d="m 295.98517,614.35913 c -2.87212,0 -5.75961,-0.47552 -8.5703,-1.38231 -5.82106,-1.96595 -57.78048,-20.21242 -79.49808,-57.16612 -4.56161,-7.74092 -4.9763,-17.27885 -1.13656,-25.38839 15.95798,-33.59009 33.17539,-79.3752 33.17539,-94.73418 0,-9.95262 5.45244,-19.13728 14.22242,-23.80641 1.07512,-0.59839 2.15025,-1.09111 3.28682,-1.50518 2.94892,-23.63747 3.42505,-47.87394 0.84536,-54.83156 -3.47113,-9.47648 -1.38231,-20.04346 5.40636,-27.53864 1.91987,-2.10418 4.07013,-3.83975 6.42005,-5.22206 -0.65982,-5.22205 -1.32087,-10.32123 -2.16562,-15.2361 -37.73701,83.81394 -87.40794,112.42772 -90.11112,113.9329 -4.08549,2.27313 -8.64711,3.40969 -13.20872,3.40969 -3.77831,0 -7.55662,-0.76795 -11.02775,-2.33456 -7.80236,-3.48649 -13.50054,-10.44411 -15.35898,-18.78403 -14.46815,-63.41722 9.0618,-117.23508 37.42983,-156.04722 -7.14192,3.96261 -13.66949,7.86379 -19.07585,11.22741 -24.17503,20.39672 -59.270297,62.44961 -59.700349,62.8643 -1.075128,1.25943 -2.273128,2.51887 -3.594001,3.60936 -11.87249,9.72223 -29.335648,11.15062 -38.643189,11.15062 -13.439106,0 -24.896903,-9.82975 -26.816776,-23.16134 -9.537925,-64.61522 46.138371,-142.66955 52.558424,-151.3013 2.764616,-3.7783 6.420053,-6.77331 10.735925,-8.69318 4.20836,-1.91987 8.769977,-3.67079 13.561976,-5.22205 -39.057879,0.47551 -69.238271,6.35862 -69.591528,6.42005 -1.735564,0.35387 -3.547924,0.53818 -5.283488,0.53818 -10.38267,0 -19.9820314,-5.94392 -24.528289,-15.54328 L 2.6139449,133.79267 C -3.3299797,121.32118 1.1702009,106.3769 12.996615,99.1121 72.74304,62.52701 142.64175,46.79942 145.57532,46.20042 c 1.9813,-0.47551 3.90118,-0.66105 5.82105,-0.66105 l 0.43005,0 c 32.63783,0.47674 67.36448,23.03847 93.16756,44.40281 -0.35387,-7.80237 0.35387,-16.80273 3.42505,-27.12396 7.90988,-26.63247 38.62783,-44.87893 47.8125,-49.85524 4.13157,-2.16562 8.52424,-3.17931 12.84011,-3.17931 8.75462,0 17.40172,4.25444 22.56234,11.99536 7.188,10.73593 5.69818,24.8969 -3.0718,33.89726 -0.0614,0.59839 -0.0614,1.79701 0.43005,3.6708 0.29244,1.25944 0.65983,2.33457 1.0137,3.34826 18.53828,-25.61878 43.74237,-52.49699 72.29471,-61.0673 1.9813,-0.59961 4.08548,-0.96823 6.23574,-1.0911 0,0 7.67949,-0.53695 20.5196,-0.53695 25.20408,0 74.58319,1.98131 121.55095,15.12859 13.33159,3.71688 21.71759,16.78737 19.5059,30.47222 l -1.01369,6.23574 c -2.04275,12.30254 -12.17967,21.61008 -24.54365,22.68521 -0.59838,0 -25.20408,2.21169 -57.30435,9.95262 2.70318,0.18431 5.22206,0.49149 7.74093,0.84536 4.62305,0.72248 9.00036,2.51887 12.71723,5.391 8.4628,6.60436 83.46069,66.42758 92.04636,131.16567 1.797,13.31624 -6.48149,25.97203 -19.44447,29.62747 -1.91987,0.53818 -11.87249,3.30218 -22.19372,3.30218 -6.78867,0 -12.60972,-1.13656 -17.93929,-3.42505 -1.56661,-0.65982 -3.11787,-1.48982 -4.56161,-2.51887 -0.41408,-0.231 -42.60581,-28.85952 -71.46533,-42.46758 28.69057,27.00109 53.34173,65.62892 56.29066,119.63108 0.41407,7.43375 -2.34993,14.82142 -7.57198,20.21242 -5.09918,5.34492 -12.17967,8.27849 -19.55198,8.27849 l -0.35387,0 c -2.88749,0 -50.57712,-1.48982 -100.55523,-47.8125 1.01369,7.74092 1.61269,15.8351 1.55126,24.00608 3.30218,4.31587 5.28349,9.64544 5.57531,15.23611 0.12287,2.64174 2.70318,63.58617 -19.30624,112.01303 2.27313,5.16061 2.93356,10.98167 1.797,16.61841 -0.72126,3.17931 -17.15598,80.26602 -66.47366,131.50357 -5.22205,5.40636 -12.30254,8.27849 -19.56734,8.27849" style="fill:#ffffff"/>
  <path d="m 283.98981,263.20681 c 9.18467,13.4391 14.34529,68.14778 14.34529,68.14778 23.26885,10.21372 68.5164,0.7827 68.5164,0.7827 0.89082,-38.5664 -16.98703,-76.25733 -16.98703,-76.25733 -29.0899,5.75962 -65.87466,7.32623 -65.87466,7.32623 m -0.24574,82.9692 c 7.8638,21.30291 -0.70651,77.28638 -0.70651,77.28638 31.07121,24.46685 70.60522,27.29291 70.60522,27.29291 21.65616,-43.31232 18.84547,-103.55023 18.84547,-103.55023 -38.64319,12.2411 -88.74418,-1.02967 -88.74418,-1.02967 m -8.27849,-201.15654 c 0,0 35.70962,-19.92059 37.79845,-38.82749 2.10418,-18.89155 -5.22206,-19.96668 -10.49019,-39.88727 -5.22205,-19.98203 6.29718,-29.39709 6.29718,-29.39709 0,0 -29.39708,15.71224 -34.61913,33.59009 -5.28349,17.81641 -1.07513,28.32196 3.11787,37.79845 4.20836,9.41505 4.20836,24.11359 -2.10418,36.72331 m 12.77867,6.89618 c -7.90987,0.29244 -14.80606,0.66105 -15.52793,2.8107 -0.72125,2.10418 1.48982,10.87415 3.77831,18.78403 2.21169,8.0481 5.16062,15.77367 7.188,17.0331 1.8738,1.15131 7.74093,-0.47674 15.35898,-1.48982 8.83141,-1.13656 16.86416,-1.02966 17.89321,-2.82605 1.07513,-1.797 -1.38231,-9.95262 -4.26979,-18.35398 -2.39601,-7.01905 -4.91488,-14.40672 -7.49519,-15.54328 -2.76461,-1.13657 -9.41505,-0.72249 -16.92559,-0.41531 m -30.65652,52.08229 c 0,0 -118.54059,81.11077 -92.93718,193.78423 0,0 73.3852,-40.91632 104.88646,-181.49704 0,0 0.47552,-10.2598 -11.94928,-12.28719 m -2.74926,-14.88285 c 0,0 1.73557,-9.18466 2.87213,-20.45815 0,0 -102.29079,-14.46816 -155.44822,9.41505 0,0 -55.799166,75.95015 -47.582113,131.45749 0,0 15.251465,0 21.425775,-5.09918 0,0 38.213138,-45.78511 64.738098,-67.56414 0,0 67.3184,-43.12801 109.97028,-46.6145 l 4.02405,-1.13657 z M 29.844799,128.0306 c 0,0 127.909571,-25.55734 208.851391,21.11859 0,0 9.72223,7.32624 23.57603,-5.32956 0,0 -63.70904,-70.43628 -110.81503,-71.15815 0,0 -67.733095,14.86749 -124.377007,49.6095 l 2.764616,5.75962 z M 348.60503,193.96669 C 405.24895,326.14606 493.37876,327.46693 493.37876,327.46693 487.08158,212.09029 360.1857,177.16397 360.1857,177.16397 c -11.45779,5.40636 -11.58067,16.80272 -11.58067,16.80272 m 2.995,-29.39708 c 41.94537,-8.33993 118.49452,14.69854 118.49452,14.69854 31.43983,13.68485 80.75751,47.2135 80.75751,47.2135 7.38767,3.11787 22.08621,-1.07513 22.08621,-1.07513 -7.38767,-55.55342 -81.848,-113.27246 -81.848,-113.27246 -57.70368,-8.33993 -152.0846,33.60544 -152.0846,33.60544 4.20836,10.49018 8.40136,18.83011 8.40136,18.83011 l 4.193,0 z M 543.35688,41.22165 C 479.40209,23.40524 410.16382,27.5368 410.16382,27.5368 c -45.12468,13.68485 -87.05469,98.88111 -87.05469,98.88111 16.80272,8.40136 24.1136,-1.32088 24.1136,-1.32088 C 412.268,57.96294 542.32783,47.4574 542.32783,47.4574 l 1.02843,-6.23575 z M 267.06422,435.68629 c 0,31.02514 -35.81714,106.31485 -35.81714,106.31485 17.27885,29.33564 64.73809,45.30898 64.73809,45.30898 44.46425,-46.1998 59.45461,-118.32557 59.45461,-118.32557 -38.50496,-0.35387 -88.37556,-33.29826 -88.37556,-33.29826 m 76.19589,-192.0333 c -8.44744,-35.77106 -22.54698,-47.99681 -22.54698,-47.99681 -24.48221,2.81069 -37.67557,7.06513 -37.67557,7.06513 9.41505,2.34992 10.36731,46.62986 10.36731,46.62986 25.86452,-0.24575 49.85524,-5.69818 49.85524,-5.69818" style="fill:#536e78"/>
  <g transform="matrix(15.358978,0,0,-15.358978,-1775.3727,6022.1632)">
    <path d="m 142.379,389.852 c -2.234,-0.719 -4.414,-4.446 -5.113,-5.743 l 0,0 c 0.062,-0.011 0.129,-0.019 0.187,-0.019 l 0,0 c 0.266,0 0.383,0.129 0.422,0.172 l 0,0 c 3.336,3.441 9.094,4.648 11.68,5.031 l 0,0 c -2.395,0.5 -4.739,0.586 -6.035,0.586 l 0,0 c -0.594,0 -1,-0.02 -1.141,-0.027 m -8.488,-2.473 c -0.309,-1.047 -0.047,-1.633 0.187,-2.152 l 0,0 c 0.195,-0.45 0.27,-0.989 0.211,-1.536 l 0,0 c 0.625,0.485 1.199,1.071 1.254,1.539 l 0,0 c 0.07,0.633 -0.039,0.86 -0.234,1.274 l 0,0 c -0.133,0.277 -0.297,0.625 -0.442,1.16 l 0,0 c -0.078,0.309 -0.105,0.586 -0.101,0.832 l 0,0 c -0.403,-0.336 -0.762,-0.734 -0.875,-1.117 m -15.149,-2.977 c 0.957,0.125 2.375,0.258 3.996,0.258 l 0,0 c 3.547,0 6.45,-0.637 8.657,-1.91 l 0,0 c 0,-0.004 0.085,-0.055 0.226,-0.055 l 0,0 c 0.117,0 0.238,0.035 0.367,0.098 l 0,0 c -1.031,1.059 -4.148,4.039 -6.488,4.121 l 0,0 c -0.445,-0.105 -3.68,-0.894 -6.758,-2.512 m 19.512,-2.039 c 0.09,-0.207 0.172,-0.39 0.234,-0.523 l 0,0 c 0.407,0.07 0.871,0.105 1.387,0.105 l 0,0 c 2.789,0 6.305,-1.047 6.504,-1.113 l 0,0 c 2.062,-0.894 5.199,-3.023 5.254,-3.07 l 0,0 c 0.027,-0.012 0.113,-0.039 0.293,-0.039 l 0,0 c 0.152,0 0.308,0.015 0.445,0.039 l 0,0 c -0.676,3.004 -4.351,6.086 -4.988,6.597 l 0,0 c -0.278,0.036 -0.578,0.055 -0.895,0.055 l 0,0 c -3.008,0 -6.972,-1.531 -8.234,-2.051 m -3.754,-0.605 -0.125,-0.004 c -0.148,-0.008 -0.383,-0.016 -0.555,-0.031 l 0,0 c 0.032,-0.153 0.09,-0.403 0.203,-0.805 l 0,0 c 0.122,-0.418 0.227,-0.691 0.266,-0.797 l 0,0 c 0.082,0.008 0.18,0.024 0.293,0.043 l 0,0 c 0.129,0.024 0.27,0.047 0.422,0.066 l 0,0 c 0.191,0.024 0.379,0.04 0.547,0.055 l 0,0 c 0.062,0.004 0.129,0.012 0.195,0.02 l 0,0 c -0.039,0.144 -0.105,0.371 -0.223,0.715 l 0,0 c -0.078,0.226 -0.203,0.597 -0.289,0.746 l 0,0 c -0.043,0.007 -0.113,0.007 -0.218,0.007 l 0,0 c -0.153,0 -0.328,-0.007 -0.516,-0.015 m -11.949,-1.621 c -0.469,-0.66 -3.168,-4.641 -2.996,-7.719 l 0,0 c 0.281,0.027 0.562,0.078 0.644,0.141 l 0,0 c 0.106,0.125 2.535,3.035 4.321,4.492 l 0,0 c 0.179,0.117 4.503,2.871 7.269,3.086 l 0,0 c 0.023,0.148 0.055,0.351 0.082,0.586 l 0,0 c -0.707,0.082 -2.199,0.222 -3.867,0.222 l 0,0 c -2.324,0 -4.207,-0.277 -5.453,-0.808 m 16.199,-0.602 c 2.887,-6.644 7.043,-7.98 8.469,-8.246 l 0,0 c -0.68,6.098 -6.992,8.414 -8.125,8.781 l 0,0 c -0.246,-0.172 -0.321,-0.41 -0.344,-0.535 m -3.988,-0.914 c 0.199,-0.508 0.324,-1.273 0.367,-2.297 l 0,0 c 0.918,0.035 1.762,0.168 2.262,0.254 l 0,0 c -0.379,1.328 -0.868,2.031 -1.09,2.301 l 0,0 c -0.664,-0.082 -1.18,-0.18 -1.539,-0.258 m -8.137,-11.66 c 1.273,0.996 4.5,4.113 6.066,11.062 l 0,0 c 0,0.082 -0.039,0.223 -0.234,0.301 l 0,0 c -1.043,-0.773 -6.73,-5.324 -5.832,-11.363 m 8.129,7.582 c 0.375,-1.121 0.601,-2.965 0.684,-3.703 l 0,0 c 0.386,-0.117 0.894,-0.18 1.515,-0.18 l 0,0 c 0.817,0 1.625,0.11 2.07,0.184 l 0,0 c -0.039,1.734 -0.644,3.402 -0.921,4.082 l 0,0 c -1.231,-0.219 -2.571,-0.332 -3.348,-0.383 m -0.25,-9.82 c 1.453,-1.055 3.164,-1.395 3.844,-1.493 l 0,0 c 0.91,2.024 1.039,4.563 1.05,5.676 l 0,0 c -0.609,-0.136 -1.289,-0.207 -2.031,-0.207 l 0,0 c -1.086,0 -2.074,0.149 -2.707,0.27 l 0,0 c 0.195,-1.41 -0.051,-3.477 -0.156,-4.246 m -3.34,-7.883 c 0.906,-1.317 2.859,-2.176 3.574,-2.453 l 0,0 c 2.086,2.297 3.102,5.523 3.43,6.758 l 0,0 c -1.824,0.207 -3.82,1.246 -4.813,1.824 l 0,0 c -0.339,-2.031 -1.781,-5.242 -2.191,-6.129" style="fill:url(#radialGradient506)"/>
  </g>
</svg>
