<?xml version="1.0" encoding="UTF-8" standalone="no"?>
<svg xmlns="http://www.w3.org/2000/svg" version="1.1" width="600" height="614.38702">
  <path d="m 283.97577,263.21851 c 9.18508,13.4397 14.34592,68.15081 14.34592,68.15081 23.33133,10.21417 68.51945,0.78273 68.51945,0.78273 0.89086,-38.56811 -16.98778,-76.26072 -16.98778,-76.26072 -29.0912,5.75988 -65.87759,7.32656 -65.87759,7.32656 m -0.24575,82.97289 c 7.86414,21.30385 -0.65985,77.28981 -0.65985,77.28981 31.02651,24.46794 70.56228,27.29412 70.56228,27.29412 21.65712,-43.31425 18.8463,-103.55483 18.8463,-103.55483 -38.58347,12.24164 -88.74812,-1.02972 -88.74812,-1.02972 m -8.21742,-201.16547 c 0,0 35.64978,-19.92148 37.73869,-38.82922 2.10427,-18.89239 -5.22229,-19.96756 -10.49065,-39.88904 -5.22228,-19.98292 6.29746,-29.39839 6.29746,-29.39839 0,0 -29.39839,15.71293 -34.62067,33.59158 -5.28373,17.8172 -1.07518,28.32321 3.11801,37.80012 4.19319,9.41547 4.19319,24.11467 -2.04284,36.72495 m 12.7178,6.89649 c -7.91022,0.29244 -14.80671,0.66108 -15.52861,2.81081 -0.72252,2.10428 1.48988,10.87464 3.77847,18.78487 2.21179,8.04846 5.16085,15.77437 7.20368,17.03386 1.85852,1.15136 7.72591,-0.47676 15.35966,-1.48988 8.81645,-1.13662 16.84955,-1.02972 17.87865,-2.82618 1.07517,-1.79708 -1.38237,-9.95306 -4.20855,-18.3548 -2.45754,-7.01936 -4.97653,-14.40736 -7.55695,-15.54397 -2.7033,-1.13662 -9.41547,-0.72252 -16.92635,-0.41533 m -30.65788,52.08461 c 0,0 -118.54586,81.11437 -92.92595,193.79284 0,0 73.3731,-40.91814 104.87577,-181.50511 0,0 0.47553,-10.26025 -11.94982,-12.28773 m -2.74938,-14.88351 c 0,0 1.73564,-9.18508 2.87226,-20.45907 0,0 -102.29534,-14.4688 -155.45513,9.41547 0,0 -55.740208,75.95353 -47.584228,131.46334 0,0 15.252143,0 21.426726,-5.09941 0,0 38.214842,-45.78715 64.740972,-67.56715 0,0 67.32139,-43.12992 109.97517,-46.61657 l 4.02423,-1.13661 z M 29.820081,128.03629 c 0,0 127.915259,-25.55848 208.860669,21.11953 0,0 9.72266,7.32656 23.57708,-5.3298 0,0 -63.71188,-70.4394 -110.81995,-71.16131 0,0 -67.73611,14.86816 -124.3211,49.61171 l 2.703301,5.75987 z M 348.59448,193.97531 C 405.24091,326.16055 493.37464,327.48148 493.37464,327.48148 487.07718,212.09971 360.17566,177.17184 360.17566,177.17184 c -11.4583,5.4066 -11.58118,16.80347 -11.58118,16.80347 m 2.99513,-29.39839 c 41.94724,-8.34029 118.49978,14.6992 118.49978,14.6992 31.50267,13.68546 80.7611,47.21559 80.7611,47.21559 7.37264,3.11802 22.08719,-1.07517 22.08719,-1.07517 -7.388,-55.55589 -81.85163,-113.2775 -81.85163,-113.2775 -57.70625,-8.34029 -152.09136,33.60694 -152.09136,33.60694 4.19319,10.49065 8.40173,18.83094 8.40173,18.83094 l 4.19319,0 z M 543.35497,41.22349 C 479.39735,23.40628 410.156,27.53803 410.156,27.53803 c -45.12668,13.68546 -87.05856,98.8855 -87.05856,98.8855 16.80347,8.40173 24.11467,-1.32094 24.11467,-1.32094 65.04816,-67.13707 195.11377,-77.64308 195.11377,-77.64308 l 1.02848,-6.23602 z M 267.05004,435.70565 c 0,31.02651 -35.75729,106.31957 -35.75729,106.31957 17.21818,29.33695 64.74097,45.311 64.74097,45.311 44.40478,-46.20186 59.39581,-118.33083 59.39581,-118.33083 -38.50667,-0.35388 -88.37949,-33.29974 -88.37949,-33.29974 m 76.26072,-192.04184 c -8.50926,-35.77264 -22.60943,-47.99893 -22.60943,-47.99893 -24.48329,2.81081 -37.63116,7.06544 -37.63116,7.06544 9.36939,2.35003 10.32169,46.63193 10.32169,46.63193 25.86567,-0.24576 49.9189,-5.69844 49.9189,-5.69844"/>
</svg>
