<?xml version="1.0" encoding="UTF-8" standalone="no"?>
<svg xmlns="http://www.w3.org/2000/svg" width="54.251507pt" height="53.744793pt" viewBox="0 0 72.335343 71.659724" version="1.1">
    <path d="m 39.626312,0 c -3.177676,2.268695 -6.407614,5.6573595 -6.054539,9.8642115 0.713663,3.1927005 1.329876,6.4450995 0.961769,9.7354585 1.832993,-1.34469 3.944284,-2.621695 4.868282,-4.807755 0.961566,-2.606746 0.06739,-5.3414405 -0.44347,-7.9406665 C 38.447522,4.5449925 39.032874,2.2161094 39.626312,0 Z m 21.07644,5.6352815 c -2.347033,-0.04117 -4.681167,0.209779 -6.960191,0.930953 -5.754365,2.576697 -9.58589,7.9024895 -13.056543,12.9432065 5.123352,-3.207732 11.118055,-4.521915 17.030184,-5.355773 l 1.351459,-1.862817 3.516823,0.09036 c 0.661069,-0.878932 1.322078,-1.750892 1.990667,-2.6223045 1.254543,0.232872 2.523788,0.4662255 3.800868,0.6690555 l 1.308849,-2.0374765 2.650475,-0.938075 C 68.560445,6.5838075 64.61447,5.7042005 60.702752,5.6356135 Z M 15.804308,10.448543 C 10.284873,10.475133 4.9299041,12.700584 0,15.047218 c 0.9765981,0.157757 1.9531286,0.315229 2.9447436,0.465473 0.4432219,0.563418 0.8930771,1.127745 1.3513159,1.68365 1.2695756,-0.488295 2.5547986,-0.962588 3.8393906,-1.428354 0.683614,0.743711 1.382266,1.487761 2.0809039,2.223967 1.134348,-0.225367 2.276057,-0.458577 3.417917,-0.70648 0.50332,0.510839 1.02225,1.022257 1.540594,1.540601 C 21.049433,18.548115 27.16425,18.56335 32.678223,20.91468 28.824446,16.399826 24.091152,12.027149 18.179031,10.577288 17.384612,10.485268 16.5928,10.444735 15.804308,10.448543 Z m 42.297039,6.649861 c -5.516918,-0.101415 -11.062442,1.842286 -16.138835,3.853687 1.577569,0.05259 3.163064,-0.02224 4.740633,0.143055 4.372121,0.458246 8.015458,3.410547 12.477725,3.55328 0.383124,0.991615 0.683546,2.028243 1.254484,2.944735 1.036688,0.05259 2.088897,0.0746 3.14061,0.06708 0.616003,1.126835 0.991066,2.43416 1.88503,3.388214 1.021656,0.292977 2.07349,0.413218 3.125202,0.608528 1.119324,1.457381 2.178466,2.960121 3.290277,4.432519 -0.420693,-3.455628 -0.811014,-6.941778 -1.937849,-10.247162 -1.089281,-3.222749 -2.79507,-6.85867 -6.348357,-7.887847 -1.814205,-0.561532 -3.649947,-0.822326 -5.48892,-0.856132 z m -36.940169,4.228938 c -4.890465,-0.04507 -10.532116,0.721347 -13.8675559,4.687807 -3.0950413,5.003149 -3.1318362,11.223475 -2.786281,16.910229 0.939037,-1.555033 1.517149,-3.34263 2.67404,-4.754936 0.999128,-0.518345 2.065595,-0.90992 3.1098029,-1.338117 0.345555,-1.179414 0.608829,-2.38811 1.097117,-3.522457 1.074249,-0.315514 2.193873,-0.511539 3.305676,-0.721882 0.165269,-1.021664 0.322605,-2.042825 0.502899,-3.056976 2.261183,-0.833858 4.567176,-1.652473 6.490308,-3.154921 2.92226,-2.193573 6.48354,-3.253632 10.074389,-3.674325 -3.42558,-1.059225 -7.039596,-1.321845 -10.600395,-1.374422 z m 20.358961,1.645134 c 4.154273,2.163524 6.78336,6.430968 7.316729,11.028457 0.13522,1.675229 2.366677,1.584984 3.523562,2.336208 0.07512,1.021664 0.149553,2.05072 0.232195,3.072384 1.171909,-0.03005 2.358632,-0.0598 3.545565,-0.07482 0.172781,1.07425 0.353796,2.141191 0.549107,3.21544 1.089281,-0.0601 2.185978,-0.120368 3.290276,-0.180466 0.999127,0.751223 2.005985,1.494889 3.042673,2.208551 C 61.825801,38.861416 59.489218,33.271637 55.59788,28.861955 51.992007,24.963105 46.583393,23.656096 41.520139,22.972484 Z m -4.57556,0.272905 c -0.589342,0.01465 -1.205105,0.272731 -1.727671,0.726283 0.63854,1.171907 0.450832,3.004757 1.607723,3.808567 0.585955,-0.04507 1.757946,-0.142184 2.3439,-0.194778 -0.788784,0.631028 -1.592293,1.224525 -2.3285,1.908138 0.14274,1.34469 0.428295,2.673876 0.653663,4.011053 0.676101,-0.05259 2.035537,-0.149704 2.719143,-0.194777 -0.863899,0.698638 -1.751079,1.359496 -2.630011,2.028085 0.0075,1.457366 -0.01412,2.914612 -0.05168,4.371986 1.419812,0.27044 2.838836,0.518607 4.258649,0.834121 -1.434845,0.533369 -2.943993,0.833903 -4.431415,1.171954 -0.308002,1.494935 -0.638743,2.9825 -0.961777,4.469922 1.660212,0.893964 3.440882,1.509442 5.168703,2.275689 -2.005774,0.232872 -4.026573,0.143063 -6.024827,-0.02967 -0.608499,1.64518 -1.915538,3.087837 -2.163434,4.823163 1.532496,2.035816 3.71752,3.410164 5.896076,4.664708 -2.892211,0 -5.701133,-0.713655 -8.337928,-1.863019 -1.968198,2.261182 -4.259918,4.213762 -6.693882,5.956594 0.63854,2.291239 1.382183,4.688582 3.11751,6.408876 1.622643,1.615138 3.808966,2.418617 5.90488,3.23745 4.589968,-4.785294 8.166062,-10.629798 9.848795,-17.075295 2.651827,-10.073908 0.743937,-21.057013 -4.281748,-30.08672 -0.414112,-0.887383 -1.128406,-1.2711 -1.886127,-1.252282 z m -4.454522,1.214871 c -4.897978,1.667716 -9.999169,3.943495 -12.974006,8.390738 -3.117585,5.04071 -4.995742,10.930828 -4.988237,16.880519 4.58e-4,-1.73e-4 2.149048,-2.63711 2.149048,-2.63711 l 3.523644,-0.427574 c 0.06761,-1.126836 0.135062,-2.246684 0.210184,-3.358495 1.134348,-0.157757 2.130478,-0.169837 3.27233,-0.327594 -0.03005,-1.089274 0.08541,-2.324383 0.05537,-3.406145 1.00664,-0.57845 2.013309,-1.156734 3.034966,-1.727671 -0.195311,-5.078271 1.660106,-10.186456 5.716713,-13.386668 z"/>
</svg>
