<?xml version="1.0" encoding="UTF-8" standalone="no"?>
<svg xmlns="http://www.w3.org/2000/svg" version="1.1" width="600" height="822.65863">
  <path d="m 381.61077,401.76591 c -6.4373,7.71242 -13.01857,15.01352 -19.76437,22.08838 -41.54426,43.53921 -78.00861,63.94114 -134.73092,75.10874 -20.56646,4.11329 -44.99943,17.68716 -63.79718,35.51828 -20.40193,19.35305 -36.29981,41.93503 -49.31838,70.54298 1.76872,-1.04971 3.53743,-2.09778 5.30615,-3.22894 14.37596,-8.43225 45.06112,-21.59479 66.59421,-29.71854 67.00555,-25.15279 100.09699,-43.06618 131.11122,-71.18054 26.98321,-24.41239 49.00989,-58.49103 64.59927,-99.13036 M 47.07664,822.65863 c -16.556005,0 -31.404993,-9.25491 -39.7755447,-24.74146 C 5.1416164,793.88614 0,784.405 0,748.66049 0,718.30438 0.80126951,708.49418 18.633218,685.9122 c 0.636738,-0.88518 1.378776,-1.68645 2.09778,-2.57081 L 17.831126,664.70817 15.980144,652.65622 C 14.293694,641.89996 12.689509,613.04521 12.051949,599.30681 7.7946905,505.48259 29.554011,423.85429 75.026467,363.36832 101.39268,328.48759 129.98006,305.84391 184.37837,277.07143 296.8358,217.63434 388.27431,127.88228 406.66073,58.79952 408.12177,53.26715 409.14927,47.24117 409.3138,45.55472 409.3961,20.4842 428.68741,0 453.26434,0 c 8.59678,0 17.02903,2.57081 24.35069,7.46563 18.05736,12.05195 60.81504,92.87816 61.20581,93.68025 23.21954,46.74757 42.98391,107.97394 52.85581,163.64737 5.63522,31.81632 9.00812,93.98874 8.20602,126.2781 l -1.76871,65.95665 -29.24552,-18.55095 c 7.71243,17.3581 13.01858,37.8423 14.2937,61.61713 l 3.0644,57.68894 -53.90471,-20.81327 c -3.61969,-1.35738 -7.95922,-2.89987 -12.62781,-4.42179 7.32167,31.17877 10.94136,75.35553 2.65308,136.08831 l -8.82302,64.517 -52.15655,-40.80387 c -0.30932,-0.24679 -29.96534,-22.82877 -103.69612,-22.82877 -46.52135,0 -98.34884,13.7384 -150.0735,39.61101 -45.71926,22.89048 -80.18865,48.04326 -102.52384,74.96477 -16.946764,20.31967 -34.058064,38.56212 -57.99743,38.56212" style="fill:#808080"/>
  <path d="m 467.80483,386.09426 c 0,0 73.27832,29.24552 78.00861,116.01543 0,0 -71.26281,-27.64133 -82.6772,-6.99259 0,0 39.36422,42.18182 22.19122,168.45992 0,0 -35.76508,-31.405 -127.65605,-31.405 -52.95865,0 -110.54476,15.34259 -166.79404,43.45695 -50.61407,25.39958 -88.76487,53.51394 -114.555216,84.52817 -21.06006,25.21449 -30.458935,30.52064 -36.07358,20.07287 -1.604185,-2.96157 -2.899872,-17.19356 -2.899872,-31.56952 0,-26.18112 0,-26.18112 10.612296,-39.61102 18.962282,-23.93936 56.146452,-54.87133 90.369052,-75.02646 10.6123,-6.27278 38.00683,-18.40699 60.81504,-26.92151 71.83866,-26.9832 107.97394,-46.74757 143.0192,-78.48163 48.10496,-43.53921 82.10133,-112.06667 95.922,-193.30421 5.69691,-33.81127 11.16759,-122.51444 7.30109,-118.89474 -1.13198,1.04971 -7.95922,15.50711 -15.01352,32.06312 -25.79035,59.68388 -58.32649,110.70928 -95.53123,149.49764 -36.23811,38.00683 -66.03892,54.6451 -114.96654,64.2702 -27.62077,5.55295 -58.24424,22.25292 -82.34813,45.0817 -33.25598,31.65179 -55.899657,69.63805 -73.504552,123.39879 l -9.234343,28.27889 -1.850982,-12.05195 C 51.890016,640.29578 50.285009,618.0223 49.400651,597.5381 45.554722,513.19502 65.072298,438.88838 104.90954,385.84746 c 22.99331,-30.43837 47.24117,-49.40065 96.97089,-75.66402 123.39879,-65.3191 219.56759,-161.79639 240.85388,-241.73824 2.09778,-7.87696 3.86649,-17.6049 3.86649,-21.61536 0.0823,-7.38336 5.22389,-11.64062 10.20097,-8.26772 4.17499,2.79704 37.8423,57.66837 48.51629,79.20146 21.77989,43.70374 40.24858,100.98135 49.48292,153.4464 4.91539,27.55907 8.53508,86.85219 7.65073,118.89474 0,0 -45.0817,-30.43837 -94.64688,-4.01046"/>
</svg>
