<?xml version="1.0" encoding="UTF-8" standalone="no"?>
<svg xmlns="http://www.w3.org/2000/svg" xmlns:xlink="http://www.w3.org/1999/xlink" version="1.1" width="600" height="822.65863">
  <linearGradient x1="0" y1="0" x2="1" y2="0" id="linearGradient748" gradientUnits="userSpaceOnUse" gradientTransform="matrix(21.231186,-7.727524,-7.727524,-21.231186,735.42187,148.57812)" spreadMethod="pad">
    <stop style="stop-color:#bf331c" offset="0"/>
    <stop style="stop-color:#d3641c" offset="0.3"/>
    <stop style="stop-color:#f6b91d" offset="0.5"/>
    <stop style="stop-color:#d3641c" offset="0.7"/>
    <stop style="stop-color:#bf331c" offset="1"/>
  </linearGradient>
  <linearGradient x1="0" y1="0" x2="1" y2="0" id="linearGradient2995" xlink:href="#linearGradient748" gradientUnits="userSpaceOnUse" gradientTransform="matrix(21.231186,-7.727524,-7.727524,-21.231186,735.42187,148.57812)" spreadMethod="pad"/>
  <linearGradient x1="0" y1="0" x2="1" y2="0" id="linearGradient2998" xlink:href="#linearGradient748" gradientUnits="userSpaceOnUse" gradientTransform="matrix(436.65047,158.92786,-158.92786,436.65047,103.71401,358.0597)" spreadMethod="pad"/>
  <path d="m 381.61077,401.76591 c -6.4373,7.71242 -13.01857,15.01352 -19.76437,22.08838 -41.54426,43.53921 -78.00861,63.94114 -134.73092,75.10874 -20.56646,4.11329 -44.99943,17.68716 -63.79718,35.51828 -20.40193,19.35305 -36.29981,41.93503 -49.31838,70.54298 1.76872,-1.04971 3.53743,-2.09778 5.30615,-3.22894 14.37596,-8.43225 45.06112,-21.59479 66.59421,-29.71854 67.00555,-25.15279 100.09699,-43.06618 131.11122,-71.18054 26.98321,-24.41239 49.00989,-58.49103 64.59927,-99.13036 M 47.07664,822.65863 c -16.556005,0 -31.404993,-9.25491 -39.7755447,-24.74146 C 5.1416164,793.88614 0,784.405 0,748.66049 0,718.30438 0.80126951,708.49418 18.633218,685.9122 c 0.636738,-0.88518 1.378776,-1.68645 2.09778,-2.57081 L 17.831126,664.70817 15.980144,652.65622 C 14.293694,641.89996 12.689509,613.04521 12.051949,599.30681 7.7946905,505.48259 29.554011,423.85429 75.026467,363.36832 101.39268,328.48759 129.98006,305.84391 184.37837,277.07143 296.8358,217.63434 388.27431,127.88228 406.66073,58.79952 408.12177,53.26715 409.14927,47.24117 409.3138,45.55472 409.3961,20.4842 428.68741,0 453.26434,0 c 8.59678,0 17.02903,2.57081 24.35069,7.46563 18.05736,12.05195 60.81504,92.87816 61.20581,93.68025 23.21954,46.74757 42.98391,107.97394 52.85581,163.64737 5.63522,31.81632 9.00812,93.98874 8.20602,126.2781 l -1.76871,65.95665 -29.24552,-18.55095 c 7.71243,17.3581 13.01858,37.8423 14.2937,61.61713 l 3.0644,57.68894 -53.90471,-20.81327 c -3.61969,-1.35738 -7.95922,-2.89987 -12.62781,-4.42179 7.32167,31.17877 10.94136,75.35553 2.65308,136.08831 l -8.82302,64.517 -52.15655,-40.80387 c -0.30932,-0.24679 -29.96534,-22.82877 -103.69612,-22.82877 -46.52135,0 -98.34884,13.7384 -150.0735,39.61101 -45.71926,22.89048 -80.18865,48.04326 -102.52384,74.96477 -16.946764,20.31967 -34.058064,38.56212 -57.99743,38.56212"/>
  <path d="m 446.6008,46.82984 c 0,4.01046 -1.76871,13.7384 -3.78423,21.61536 l 0,0 C 421.44802,148.38705 325.27922,244.86434 201.88043,310.18344 l 0,0 c -49.72972,26.26337 -73.97758,45.22565 -96.97089,75.66402 l 0,0 C 65.072298,438.88838 45.554722,513.19502 49.400651,597.5381 l 0,0 c 0.884358,20.56646 2.488542,42.75768 3.537432,49.42121 l 0,0 1.850982,12.05195 9.234343,-28.27889 c 17.604895,-53.76074 40.248572,-91.747 73.504552,-123.39879 l 0,0 c 24.10389,-22.82878 54.6451,-39.52875 82.34813,-45.0817 l 0,0 c 48.92762,-9.6251 78.72843,-26.26337 114.96654,-64.2702 l 0,0 c 37.20474,-38.78836 69.74088,-89.81376 95.53123,-149.49764 l 0,0 c 7.0543,-16.63827 13.88237,-31.01423 15.01352,-32.06312 l 0,0 c 3.8665,-3.6197 -1.60418,85.08347 -7.38336,118.89474 l 0,0 c -13.7384,81.3198 -47.73477,149.765 -95.92199,193.30421 l 0,0 c -34.963,31.73406 -71.09828,51.49843 -142.93694,78.48163 l 0,0 c -22.80821,8.51452 -50.20274,20.64873 -60.81504,26.92151 l 0,0 c -34.2226,20.2374 -71.40677,51.0871 -90.369052,75.02646 l 0,0 c -10.612296,13.42991 -10.612296,13.42991 -10.612296,39.61102 l 0,0 c 0,14.45822 1.295687,28.60795 2.899872,31.56952 l 0,0 c 5.614645,10.44777 15.01352,5.14162 36.07358,-20.07287 l 0,0 C 102.1125,729.14291 140.2633,701.02855 190.87737,675.62897 l 0,0 c 56.24928,-28.11436 113.83539,-43.45695 166.79404,-43.45695 l 0,0 c 91.89097,0 127.65605,31.405 127.65605,31.405 l 0,0 C 502.58272,537.29892 463.13624,495.1171 463.13624,495.1171 l 0,0 c 11.41439,-20.731 82.6772,6.99259 82.6772,6.99259 l 0,0 C 541.08315,415.33978 467.80483,386.09426 467.80483,386.09426 l 0,0 c 49.56518,-26.51017 94.70858,4.01046 94.70858,4.01046 l 0,0 c 0.82265,-32.04255 -2.79704,-91.33567 -7.71243,-118.89474 l 0,0 c -9.23434,-52.46505 -27.70303,-109.74266 -49.48292,-153.4464 l 0,0 C 494.64407,96.23049 460.97676,41.35916 456.80177,38.56212 l 0,0 c -1.21342,-0.80209 -2.40628,-1.21342 -3.45516,-1.21342 l 0,0 c -3.70197,0 -6.74581,3.8665 -6.74581,9.48114" style="fill:url(#linearGradient2998)"/>
</svg>
