<?xml version="1.0" encoding="UTF-8" standalone="no"?>
<svg xmlns="http://www.w3.org/2000/svg" version="1.1" width="600" height="822.65863">
  <path d="m 467.80483,386.09426 c 0,0 73.27832,29.24552 78.00861,116.01543 0,0 -71.26281,-27.64133 -82.6772,-6.99259 0,0 39.36422,42.18182 22.19122,168.45992 0,0 -35.76508,-31.405 -127.65605,-31.405 -52.95865,0 -110.54476,15.34259 -166.79404,43.45695 -50.61407,25.39958 -88.76487,53.51394 -114.555216,84.52817 -21.06006,25.21449 -30.458935,30.52064 -36.07358,20.07287 -1.604185,-2.96157 -2.899872,-17.19356 -2.899872,-31.56952 0,-26.18112 0,-26.18112 10.612296,-39.61102 18.962282,-23.93936 56.146452,-54.87133 90.369052,-75.02646 10.6123,-6.27278 38.00683,-18.40699 60.81504,-26.92151 71.83866,-26.9832 107.97394,-46.74757 143.0192,-78.48163 48.10496,-43.53921 82.10133,-112.06667 95.922,-193.30421 5.69691,-33.81127 11.16759,-122.51444 7.30109,-118.89474 -1.13198,1.04971 -7.95922,15.50711 -15.01352,32.06312 -25.79035,59.68388 -58.32649,110.70928 -95.53123,149.49764 -36.23811,38.00683 -66.03892,54.6451 -114.96654,64.2702 -27.62077,5.55295 -58.24424,22.25292 -82.34813,45.0817 -33.25598,31.65179 -55.899657,69.63805 -73.504552,123.39879 l -9.234343,28.27889 -1.850982,-12.05195 C 51.890016,640.29578 50.285009,618.0223 49.400651,597.5381 45.554722,513.19502 65.072298,438.88838 104.90954,385.84746 c 22.99331,-30.43837 47.24117,-49.40065 96.97089,-75.66402 123.39879,-65.3191 219.56759,-161.79639 240.85388,-241.73824 2.09778,-7.87696 3.86649,-17.6049 3.86649,-21.61536 0.0823,-7.38336 5.22389,-11.64062 10.20097,-8.26772 4.17499,2.79704 37.8423,57.66837 48.51629,79.20146 21.77989,43.70374 40.24858,100.98135 49.48292,153.4464 4.91539,27.55907 8.53508,86.85219 7.65073,118.89474 0,0 -45.0817,-30.43837 -94.64688,-4.01046"/>
</svg>
