<?xml version="1.0" encoding="UTF-8" standalone="no"?>
<svg
   viewBox="0 0 412.46 259.02"
   version="1.1"
   id="svg4"
   sodipodi:docname="M.svg"
   inkscape:version="1.1.1 (3bf5ae0d25, 2021-09-20)"
   width="412.46"
   height="259.02"
   xmlns:inkscape="http://www.inkscape.org/namespaces/inkscape"
   xmlns:sodipodi="http://sodipodi.sourceforge.net/DTD/sodipodi-0.dtd"
   xmlns:xlink="http://www.w3.org/1999/xlink"
   xmlns="http://www.w3.org/2000/svg"
   xmlns:svg="http://www.w3.org/2000/svg">
  <g
     id="g13066"
     style="fill:#ffffff;fill-opacity:1"
     transform="translate(190.1,135.58)">
    <path
       style="fill:#ffffff;fill-opacity:1"
       d="m 9.24,122.36 c -1.79,-0.51 -5.4547,-2.91 -7.17,-4.81 l -2.74,-3.04 -3.475,2.88 c -5.6744,4.69 -15.223,4.07 -20.625,-1.09 l -3.75,-3.58 -10.495,-0.39 c -19.703,-0.73 -31.963,-6.26 -36.78,-17.731 l -1.485,-4.105 h -44.18 L -144.09,37.99 h -21.15 L -190.1,-7.776 -165.31,-54 h 21.44 l 22.44,-52.49 h 85.96 l 2.955,-4.29 c 22.7808,-33.07 74.581,-33.07 97.29,0 l 2.955,4.3 h 85.96 l 22.44,52.49 h 21.43 L 222.36,-7.766 197.5,38 h -21.14 l -22.65,52.503 h -44.17 c -1.31,0 -1.48,4.107 -1.48,4.107 -3.71,12.28 -13.835,17.68 -36.785,17.73 -7.55,0 -11.365,0.44 -12.245,2.09 -3.59,6.7 -16.353,8.16 -22.625,2.97 l -3.475,-2.88 -2.74,3.04 c -4.32,5.5 -12.78,7.2 -20.95,4.84 z"
       id="path2079"
       sodipodi:nodetypes="sscsscsscccccccccssccccccccscsssscss" />
    <path
       style="fill:#ffffff;fill-opacity:1"
       d="m 23.02,122.36 c 1.79,-0.51 5.455,-2.9 7.17,-4.8 l 2.74,-3.04 3.475,2.88 c 5.674,4.69 15.223,4.06 20.625,-1.1 l 3.75,-3.58 10.495,-0.38 c 19.704,-0.72 32.545,-6.03 36.785,-17.73 l 1.48,-4.104 h 44.17 l 22.65,-52.503 h 21.14 l 24.86,-45.766 -24.8,-46.224 H 176.13 L 153.69,-106.47 H 67.73 l -2.955,-4.28 c -22.797,-33.06 -74.5501,-33.06 -97.29,0 l -2.955,4.29 h -85.96 L -143.87,-54 h -21.44 l -24.79,46.224 24.86,45.766 h 21.15 l 22.63,52.504 h 44.18 c 1.31,0 1.485,4.105 1.485,4.105 3.7,12.281 13.83,17.681 36.78,17.731 7.55,0 11.365,0.43 12.245,2.08 3.59,6.7 16.353,8.17 22.625,2.98 l 3.475,-2.88 2.74,3.04 c 4.32,5.5 12.78,7.19 20.95,4.83 z"
       id="path7863"
       sodipodi:nodetypes="sscsscsscccccccccssccccccccscsssscss" />
  </g>
  <path
     style="display:inline;fill:#000000;fill-opacity:1.0;stroke-width:11.7725"
     d="m 252.26,173.49 c -3.83,0.14 -7.45,0.92 -10.26,3.78 l 0,-0 c -4.45,5.22 -3.64,12.53 -4.31,18.81 -0.8,6.04 1.13,13.2 7.34,16.14 8.06,2.52 16.71,2.71 25.13,3.17 22.04,0.59 44.09,0.23 66.11,0.32 6.03,-14.04 12.13,-28.06 18.19,-42.1 h -29.85 c -6.29,8.28 -15.89,14.62 -26.85,15.52 -13.35,1.43 -26.53,-5.24 -34.04,-15.48 -3.62,0.25 -7.66,-0.28 -11.48,-0.15 z"
     id="path846" />
  <path
     style="display:inline;fill:#000000;fill-opacity:1.0;stroke-width:11.7725"
     d="m 157.57,173.45 c -3.23,0 -6.51,0.29 -9.43,0.18 -7.51,10.21 -20.69,16.9 -34.05,15.47 -10.94,-0.91 -20.569,-7.24 -26.801,-15.52 H 57.43 l -0.02,0 c 6.08,14.03 12.11,28.06 18.17,42.08 28.45,-0.54 57.08,1.53 85.36,-2 a 13.995,13.187 0 0 0 13.24,-12.83 c -0.15,-7.33 0.27,-15.12 -2.96,-21.93 -3.08,-4.7 -8.28,-5.47 -13.65,-5.47 z"
     id="path844" />
  <path
     style="display:inline;fill:#000000;fill-opacity:1.0;stroke-width:11.7725"
     d="m 325.62,92.51 a 38.399,36.18 0 0 1 -0.75,37.27 c 6.63,9.75 8.7,22.01 5.2,33.17 h 51.04 c 6.26,-11.73 12.61,-23.45 18.9,-35.17 -6.3,-11.76 -12.66,-23.48 -18.91,-35.231 -18.49,-0.04 -36.99,0.06 -55.48,-0.04 z"
     id="path842" />
  <path
     style="display:inline;fill:#000000;fill-opacity:1.0;stroke-width:11.7725"
     d="m 86.27,92.502 c -18.49,0.08 -36.959,-10e-4 -55.469,0.04 v 0 c -6.28,11.771 -12.67,23.491 -18.91,35.301 6.38,11.67 12.57,23.41 18.91,35.09 H 81.84 A 42.862,40.384 0 0 1 87.051,129.77 38.422,36.201 0 0 1 86.27,92.502 Z"
     id="path840" />
  <path
     style="display:inline;fill:#000000;fill-opacity:1.0;stroke-width:11.7725"
     d="m 112.01,39.688 c -12.134,0.203 -24.271,-0 -36.401,0.134 l -0,-0.02 C 69.52,53.885 63.49,67.929 57.4,81.98 H 96.812 C 94.097,66.639 99.517,50.067 112.01,39.688 Z"
     id="path838" />
  <path
     style="display:inline;fill:#000000;fill-opacity:1.0;stroke-width:11.7725"
     d="m 299.89,39.648 v 0.03 c 12.5,10.369 17.89,26.937 15.2,42.291 h 39.42 c -6.08,-14.065 -12.19,-28.11 -18.23,-42.176 -12.11,-0.145 -24.27,0.116 -36.39,-0.145 z"
     id="path836" />
  <path
     id="path832"
     style="display:inline;fill:#000000;fill-opacity:1;stroke-width:11.7725"
     d="M 206.99 10.467 A 46.488 43.799 0 0 0 181.35 17.082 L 181.35 17.113 C 170.47 23.413 162.69 33.813 159.04 45.266 C 153.26 41.978 146.72 39.58 139.87 39.852 C 127 39.881 115.06 47.971 109.99 58.961 C 105.5 68.074 105.81 78.782 109.88 87.955 C 103.39 89.84 97.34 93.726 94.283 99.588 C 88.37 109.77 92.263 123.28 102.31 129.78 C 94.343 135.61 89.37 145.12 90.662 154.7 C 91.657 167.42 103.46 178.91 117.28 178.78 C 128.1 179.1 137.63 172.03 142.06 163.05 C 149.39 163.19 156.75 162.79 164.12 163.19 C 172.18 164.54 179.69 170.05 182.12 177.57 C 184.43 184.55 184.52 191.94 184.75 199.19 C 185.18 209.59 178.05 220.85 166.81 223.18 C 152.63 226.36 137.94 225.87 123.49 226.36 C 126.28 231.65 131.5 235.81 137.88 236.51 C 147.24 237.52 156.71 236.33 166.1 237.14 C 171.23 237.98 170.23 245.97 175.82 245.87 C 179.5 246.3 180.33 242.43 182.08 240.28 C 183.77 236.8 188.64 236.39 192.16 237.24 C 196.4 238.29 197.3 242.87 199.66 245.8 C 201.68 248.97 206.43 248.88 209.77 247.9 C 214.46 245.56 214.27 238.5 219.84 237.21 C 223.31 236.41 228.07 236.82 229.77 240.24 C 231.56 242.42 232.42 246.36 236.13 245.85 C 241.65 245.87 240.66 238.09 245.69 237.14 C 255.08 236.29 264.57 237.51 273.96 236.5 C 280.34 235.83 285.58 231.65 288.37 226.34 C 274.33 225.91 260.1 226.26 246.28 223.43 C 239.34 222.4 233.58 217.8 230.37 212.03 C 225.71 204.38 227.23 195.21 227.84 186.83 C 228.47 179.46 230.95 171.44 237.88 167.19 C 247.02 160.43 259.18 163.83 269.81 163.02 C 274.26 172.01 283.83 179.11 294.68 178.76 C 308.48 178.85 320.23 167.36 321.22 154.67 C 322.53 145.07 317.51 135.58 309.58 129.76 C 317.07 124.65 321.64 115.8 320.13 107.07 C 319 97.887 311.33 90.333 301.98 87.955 C 308.75 73.727 304.53 55.388 291.02 46.035 C 280.2 37.93 264.15 37.929 252.87 45.242 C 248.59 31.712 238.37 19.682 224.44 14.072 A 46.488 43.799 0 0 0 206.99 10.467 z M 192.73 84.707 L 192.73 118.18 A 87.516 82.456 0 0 0 169.69 96.775 L 169.72 96.775 A 60.316 56.829 0 0 1 192.73 84.707 z M 219.2 84.719 L 219.24 84.719 A 60.837 57.32 0 0 1 242.24 96.766 A 87.747 82.674 0 0 0 219.2 118.19 L 219.2 84.719 z M 253.86 111.35 A 71.728 67.581 0 0 1 260.46 131.98 C 249.35 131.32 237.99 132.96 228.25 138.25 C 234.25 127.46 242.55 117.55 253.86 111.35 z M 158.02 111.36 L 158.03 111.37 C 169.34 117.55 177.71 127.45 183.65 138.27 C 173.91 132.97 162.53 131.36 151.42 131.97 A 72.723 68.517 0 0 1 158.02 111.36 z " />
</svg>
