<?xml version="1.0" encoding="UTF-8"?>
<svg xmlns="http://www.w3.org/2000/svg" xmlns:xlink="http://www.w3.org/1999/xlink" width="143pt" height="200pt" viewBox="0 0 143 200" version="1.1">
  <g>
    <polygon fill="url(#radialGradient856)" points="10,9 134,9 134,190 10,190"/>
    <radialGradient cx="0" cy="0" r="1" fx="0" fy="0" id="radialGradient856" gradientUnits="userSpaceOnUse" gradientTransform="matrix(71.5,0,0,-71.5,71.5,100)" spreadMethod="pad">
      <stop style="stop-color:#d9eaf3" offset="0"/>
      <stop style="stop-color:#99aebc" offset="0.7"/>
      <stop style="stop-color:#536e78" offset="1"/>
    </radialGradient>
    <path d=" M 0.00 0.00 L 143.00 0.00 L 143.00 200.00 L 0.00 200.00 L 0.00 0.00 M 10.00 9.00 C 10.00 69.33 10.00 129.67 10.00 190.00 C 51.33 190.00 92.67 190.00 134.00 190.00 C 134.00 129.67 134.00 69.33 134.00 9.00 C 92.67 9.00 51.33 9.00 10.00 9.00 Z"/>
    <path d=" M 94.10 43.09 C 100.39 42.06 106.73 41.02 113.12 40.98 C 115.23 40.84 116.43 43.07 116.24 44.96 C 116.27 69.31 116.22 93.67 116.27 118.02 C 116.72 126.16 116.65 135.20 122.08 141.87 C 124.67 145.32 128.67 147.12 132.57 148.68 C 131.01 152.91 126.21 154.68 122.06 155.01 C 115.08 154.97 109.25 149.62 106.42 143.58 C 105.34 141.74 104.61 138.62 101.86 138.96 C 93.74 145.57 85.86 154.20 74.85 155.34 C 66.51 156.42 57.89 159.01 49.56 156.59 C 43.21 154.60 37.58 150.61 33.24 145.62 C 28.64 139.39 27.11 131.56 26.15 124.04 C 24.09 104.76 25.63 85.33 24.55 66.00 C 24.35 61.45 24.14 55.86 19.88 53.10 C 17.11 50.68 12.25 49.78 11.98 45.43 C 19.22 45.01 26.48 44.60 33.52 42.70 C 35.91 42.38 39.79 41.39 41.04 44.08 C 41.73 51.03 40.80 58.02 41.00 64.99 C 41.28 83.32 39.49 101.84 42.96 119.98 C 44.44 128.05 48.42 136.12 55.49 140.67 C 64.22 145.87 75.21 145.66 84.59 142.37 C 90.55 140.51 95.94 136.46 98.72 130.78 C 101.77 123.55 101.98 115.56 102.33 107.83 C 102.84 96.43 100.63 85.15 100.37 73.77 C 99.96 67.86 100.82 61.85 99.30 56.05 C 98.51 51.65 94.14 49.44 91.88 45.94 C 91.24 44.48 92.80 43.26 94.10 43.09 Z"/>
  </g>
</svg>
