<?xml version="1.0" encoding="UTF-8" standalone="no"?>
<svg xmlns="http://www.w3.org/2000/svg" version="1.1" width="600" height="377.44159">
  <path d="M 232.73048,0 203.83732,0 C 87.613626,0 0,83.85809 0,195.02407 c 0,114.19495 95.945648,182.41751 188.72079,182.41751 67.44881,0 105.82518,-19.12685 121.45126,-29.14793 5.85978,7.03929 24.59032,22.8824 74.67682,22.8824 C 519.57664,371.17605 600,313.78606 600,217.66113 600,77.03583 447.9571,13.86155 408.73148,13.86155 l -29.11962,0 c 0,0 8.55849,59.89997 10.95525,76.55458 -14.82402,12.38952 -65.4295,54.92719 -65.4295,54.92719 0,0 18.94757,55.13478 26.60963,77.47932 -18.12663,10.83257 -41.82996,24.98663 -51.86047,30.95964 9.91727,-16.55081 30.93133,-51.56795 30.93133,-51.56795 0,0 -53.30418,-45.26468 -70.07202,-59.49423 7.15251,-22.04259 29.37439,-90.6709 29.37439,-90.6709 L 244.11977,0 232.73048,0 z" style="fill:#ffffff"/>
  <path d="m 417.54474,100.73916 -62.84402,52.78521 27.6476,80.4611 -77.96056,46.55742 25.13761,51.53021 c 0,0 11.31381,13.8238 55.3235,13.8238 44.00968,0 189.86254,-7.52052 189.86254,-128.23577 0,-120.67751 -134.53905,-178.511 -165.97993,-178.511 l 8.81326,61.58903 z m -155.91168,-42.75469 -30.15758,93.02991 66.64675,56.57849 -41.50914,69.1473 45.26468,46.51967 c 0,0 -33.94143,28.94034 -113.15698,28.94034 -79.20612,0 -163.432204,-57.83349 -163.432204,-157.17611 0,-99.33319 77.951124,-169.73548 178.548734,-169.73548 l 28.89316,0 28.90258,32.69588 z"/>
</svg>
