<?xml version="1.0" encoding="UTF-8" standalone="no"?>
<svg xmlns="http://www.w3.org/2000/svg" version="1.1" width="600" height="377.44159">
  <path d="m 417.54474,100.73916 -62.84402,52.78521 27.6476,80.4611 -77.96056,46.55742 25.13761,51.53021 c 0,0 11.31381,13.8238 55.3235,13.8238 44.00968,0 189.86254,-7.52052 189.86254,-128.23577 0,-120.67751 -134.53905,-178.511 -165.97993,-178.511 l 8.81326,61.58903 z m -155.91168,-42.75469 -30.15758,93.02991 66.64675,56.57849 -41.50914,69.1473 45.26468,46.51967 c 0,0 -33.94143,28.94034 -113.15698,28.94034 -79.20612,0 -163.432204,-57.83349 -163.432204,-157.17611 0,-99.33319 77.951124,-169.73548 178.548734,-169.73548 l 28.89316,0 28.90258,32.69588 z"/>
</svg>
