<?xml version="1.0" encoding="UTF-8" standalone="no"?>
<svg xmlns="http://www.w3.org/2000/svg" version="1.1" width="600" height="468.67764">
  <path d="m 599.89506,240.74775 c -0.45743,-14.7399 -2.06218,-33.9088 -10.70927,-51.26157 -7.92065,-15.92331 -21.51229,-29.9719 -38.26749,-39.5915 -6.08109,-3.47993 -12.12703,-6.08109 -17.93862,-8.6471 -6.18654,-2.74176 -11.99814,-5.2609 -16.89582,-8.47134 -5.02656,-3.24559 -9.79535,-7.73317 -13.35729,-11.2131 L 484.45987,103.812 C 483.32333,83.52999 478.55454,63.35344 470.2238,44.12596 458.88182,17.90347 448.25456,0.73817 448.25456,0.73817 c 0,0 -4.39385,22.5668 -12.90034,46.08268 -10.99048,30.44058 -26.64429,51.54277 -49.0705,63.98615 -18.58305,10.39292 -41.8763,15.19686 -73.13707,15.19686 -31.26077,0 -54.50715,-4.80394 -73.13707,-15.19686 C 217.48964,98.31676 201.92956,76.99194 190.81019,46.32874 182.33885,23.02377 178.58944,0 178.58944,0 c 0,0 -11.81067,19.82505 -22.93004,45.08675 -8.9283,20.23513 -13.6385,41.60681 -14.3298,62.97849 l -14.28294,8.06125 c -11.52945,6.58491 -27.23014,17.89175 -36.240459,34.60009 -6.502895,12.12702 -8.424472,24.85161 -10.29918,37.11923 -0.550227,3.84315 -1.148259,7.5457 -1.839558,11.16624 -2.882365,14.96251 -7.826909,26.36309 -14.693029,33.90879 -6.631782,7.22934 -17.294188,12.5957 -29.104853,16.6146 C 17.657412,255.39391 0,258.14739 0,258.14739 c 0,0 9.5610142,10.56867 28.284667,25.12109 13.861127,10.80301 29.374342,21.14906 49.703214,30.71007 14.142333,6.69037 30.979559,13.55649 48.379199,13.55649 1.64037,0 3.33933,-0.0937 4.9797,-0.18747 16.15764,-1.24199 32.86598,-8.56507 51.13268,-22.4262 2.06218,-1.55835 4.06577,-3.21044 6.08108,-4.80394 4.62819,-3.71427 9.06891,-7.1942 13.41589,-9.6196 3.10498,-1.68724 6.86612,-3.24559 11.48259,-4.75707 l 1.41775,-0.4565 c 0.0469,11.30684 1.79269,21.78178 5.22575,31.2139 5.30776,14.5993 15.46634,28.51901 30.97956,42.61448 2.83549,2.566 5.68271,4.99141 8.42447,7.32308 6.50289,5.49524 12.58398,10.70927 17.0247,16.474 6.26855,8.19013 10.80301,18.72365 10.80301,28.9291 0,34.28373 -15.00939,56.83882 -15.00939,56.83882 0,0 30.6632,-10.28746 61.92397,-27.49963 17.0247,-9.38526 38.80647,-20.04767 53.90959,-38.77132 10.94361,-13.4979 17.80973,-29.88989 19.46182,-46.08268 1.04281,-10.84988 -0.28121,-20.96159 -1.55835,-30.72179 -0.86705,-6.58492 -1.69896,-12.80661 -1.60522,-18.6182 0.0469,-5.72958 0.91392,-11.67006 2.01531,-18.31356 13.22841,6.36229 26.17562,9.84222 38.44325,10.34604 0.96078,0 1.92157,0.0469 2.88236,0.0469 16.34512,0 31.16703,-5.13201 45.5437,-10.11171 l 3.98376,-1.33573 c 10.15858,-3.47993 20.86785,-6.86612 30.15938,-6.86612 1.51148,0 2.92923,0.0937 4.30011,0.28121 10.34605,1.27714 22.37933,8.28387 32.67852,18.53618 14.51727,14.45869 23.48072,24.85161 23.48072,24.85161 0,0 3.84315,-13.82598 7.82691,-33.73304 3.02297,-15.19686 4.67506,-31.53026 4.12436,-49.93755" style="fill:#808080"/>
  <path d="m 135.65861,131.27648 c -11.7638,6.63178 -23.25811,16.06391 -29.52667,27.73397 -6.912983,12.77145 -7.463679,28.19093 -10.346044,43.24718 -3.022967,15.70069 -8.600226,30.99128 -18.946274,42.38014 -10.346049,11.3537 -25.542906,18.81739 -40.552292,22.5668 14.470407,12.86519 31.038145,22.51994 49.117367,31.0733 14.364955,6.7841 29.655543,12.86519 44.618063,11.71693 14.8805,-1.13654 29.38606,-9.42041 41.92318,-18.89941 7.27621,-5.57726 13.87284,-11.52946 21.60601,-15.82957 4.58132,-2.51914 9.56102,-4.44072 14.55243,-6.0928 -21.00845,-14.78677 -41.51308,-36.52167 -53.04254,-60.0024 -12.31449,-25.08594 -18.31356,-50.03128 -19.40323,-77.89414 m 277.5389,141.3296 c 10.06484,4.94454 21.32481,8.60022 32.36216,8.97517 15.56008,0.63271 30.6632,-5.17889 46.12955,-10.43979 14.01345,-4.80394 28.33153,-9.15092 42.29811,-7.36995 16.56774,2.06218 32.67852,12.77146 44.34858,25.13282 3.60881,-15.52493 4.61647,-31.44824 4.15951,-47.60589 -0.45743,-15.24372 -2.23793,-30.71007 -8.86972,-44.07908 -6.64349,-13.40417 -18.17295,-24.71101 -31.3545,-32.22156 -11.67006,-6.67865 -24.62898,-10.42807 -35.65461,-17.61054 -5.8116,-3.76114 -11.08422,-8.51821 -16.06391,-13.36902 -1.46462,27.51135 -8.51821,54.60089 -21.28966,79.08927 -12.12703,23.24639 -34.6001,45.4031 -56.06551,59.49857 M 173.18793,48.51981 c -22.15671,47.78163 -18.40729,103.53078 9.92424,147.92623 28.33153,44.39544 77.35517,71.26236 130.03448,71.26236 52.67931,0 101.70295,-26.86692 130.03448,-71.26236 28.3784,-44.39545 32.12782,-100.1446 9.97111,-147.92623 -25.98815,80.09692 -82.9793,94.88369 -140.00559,94.88369 -56.97943,0 -113.95885,-14.78677 -139.95872,-94.88369 m 127.6911,389.44729 c 8.64709,-3.65568 16.97783,-7.87378 25.35543,-12.22076 17.716,-9.15092 35.88895,-18.80567 48.3792,-34.27201 8.47134,-10.48666 14.37667,-23.62133 15.65382,-36.84975 1.60522,-15.87644 -3.38619,-31.85833 -3.24559,-47.8285 0.0937,-6.95986 1.13654,-13.95487 2.23793,-20.91472 -12.39651,5.76473 -25.07423,10.11171 -38.44324,13.13468 -10.66241,2.4254 -29.19859,5.30777 -40.2828,4.75707 -28.05033,-1.32401 -53.08941,-7.63944 -78.25738,-20.1414 -0.1406,9.0689 1.05453,18.36043 4.15951,26.91378 5.03828,13.82598 15.14999,25.54291 26.3631,35.65462 9.52586,8.65881 19.82504,16.11078 27.51135,26.0936 8.33073,10.84988 13.59163,24.71101 14.36495,38.58385 0.55023,9.19779 -0.96079,18.44245 -3.79628,27.08954"/>
</svg>
