<?xml version="1.0" encoding="UTF-8" standalone="no"?>
<svg xmlns="http://www.w3.org/2000/svg" xmlns:xlink="http://www.w3.org/1999/xlink" version="1.1" width="600" height="468.67764">
  <linearGradient x1="0" y1="0" x2="1" y2="0" id="linearGradient882" gradientUnits="userSpaceOnUse" gradientTransform="matrix(7.58757,-10.836166,-10.836166,-7.58757,641.67285,37.612305)" spreadMethod="pad">
    <stop style="stop-color:#536e78" offset="0"/>
    <stop style="stop-color:#99aebc" offset="0.3"/>
    <stop style="stop-color:#d9eaf3" offset="0.5"/>
    <stop style="stop-color:#99aebc" offset="0.7"/>
    <stop style="stop-color:#536e78" offset="1"/>
  </linearGradient>
  <linearGradient x1="0" y1="0" x2="1" y2="0" id="linearGradient866" gradientUnits="userSpaceOnUse" gradientTransform="matrix(6.772949,11.731094,11.731094,-6.772949,676.45312,26.240234)" spreadMethod="pad">
    <stop style="stop-color:#536e78" offset="0"/>
    <stop style="stop-color:#99aebc" offset="0.3"/>
    <stop style="stop-color:#d9eaf3" offset="0.5"/>
    <stop style="stop-color:#99aebc" offset="0.7"/>
    <stop style="stop-color:#536e78" offset="1"/>
  </linearGradient>
  <linearGradient x1="0" y1="0" x2="1" y2="0" id="linearGradient850" gradientUnits="userSpaceOnUse" gradientTransform="matrix(26.337891,0,0,-26.337891,649.24609,31.925781)" spreadMethod="pad">
    <stop style="stop-color:#536e78" offset="0"/>
    <stop style="stop-color:#99aebc" offset="0.3"/>
    <stop style="stop-color:#d9eaf3" offset="0.5"/>
    <stop style="stop-color:#99aebc" offset="0.7"/>
    <stop style="stop-color:#536e78" offset="1"/>
  </linearGradient>
  <linearGradient x1="0" y1="0" x2="1" y2="0" id="linearGradient3015" xlink:href="#linearGradient882" gradientUnits="userSpaceOnUse" gradientTransform="matrix(7.58757,-10.836166,-10.836166,-7.58757,641.67285,37.612305)" spreadMethod="pad"/>
  <linearGradient x1="0" y1="0" x2="1" y2="0" id="linearGradient3018" xlink:href="#linearGradient882" gradientUnits="userSpaceOnUse" gradientTransform="matrix(88.903021,126.96659,-126.96659,88.903021,70.124064,176.59399)" spreadMethod="pad"/>
  <linearGradient x1="0" y1="0" x2="1" y2="0" id="linearGradient3020" xlink:href="#linearGradient866" gradientUnits="userSpaceOnUse" gradientTransform="matrix(6.772949,11.731094,11.731094,-6.772949,676.45312,26.240234)" spreadMethod="pad"/>
  <linearGradient x1="0" y1="0" x2="1" y2="0" id="linearGradient3023" xlink:href="#linearGradient866" gradientUnits="userSpaceOnUse" gradientTransform="matrix(79.358165,-137.4524,137.4524,79.358165,477.64203,309.83974)" spreadMethod="pad"/>
  <linearGradient x1="0" y1="0" x2="1" y2="0" id="linearGradient3025" xlink:href="#linearGradient850" gradientUnits="userSpaceOnUse" gradientTransform="matrix(26.337891,0,0,-26.337891,649.24609,31.925781)" spreadMethod="pad"/>
  <linearGradient x1="0" y1="0" x2="1" y2="0" id="linearGradient3028" xlink:href="#linearGradient850" gradientUnits="userSpaceOnUse" gradientTransform="matrix(308.59921,0,0,308.59921,158.85918,243.22259)" spreadMethod="pad"/>
  <path d="m 599.89506,240.74775 c -0.45743,-14.7399 -2.06218,-33.9088 -10.70927,-51.26157 -7.92065,-15.92331 -21.51229,-29.9719 -38.26749,-39.5915 -6.08109,-3.47993 -12.12703,-6.08109 -17.93862,-8.6471 -6.18654,-2.74176 -11.99814,-5.2609 -16.89582,-8.47134 -5.02656,-3.24559 -9.79535,-7.73317 -13.35729,-11.2131 L 484.45987,103.812 C 483.32333,83.52999 478.55454,63.35344 470.2238,44.12596 458.88182,17.90347 448.25456,0.73817 448.25456,0.73817 c 0,0 -4.39385,22.5668 -12.90034,46.08268 -10.99048,30.44058 -26.64429,51.54277 -49.0705,63.98615 -18.58305,10.39292 -41.8763,15.19686 -73.13707,15.19686 -31.26077,0 -54.50715,-4.80394 -73.13707,-15.19686 C 217.48964,98.31676 201.92956,76.99194 190.81019,46.32874 182.33885,23.02377 178.58944,0 178.58944,0 c 0,0 -11.81067,19.82505 -22.93004,45.08675 -8.9283,20.23513 -13.6385,41.60681 -14.3298,62.97849 l -14.28294,8.06125 c -11.52945,6.58491 -27.23014,17.89175 -36.240459,34.60009 -6.502895,12.12702 -8.424472,24.85161 -10.29918,37.11923 -0.550227,3.84315 -1.148259,7.5457 -1.839558,11.16624 -2.882365,14.96251 -7.826909,26.36309 -14.693029,33.90879 -6.631782,7.22934 -17.294188,12.5957 -29.104853,16.6146 C 17.657412,255.39391 0,258.14739 0,258.14739 c 0,0 9.5610142,10.56867 28.284667,25.12109 13.861127,10.80301 29.374342,21.14906 49.703214,30.71007 14.142333,6.69037 30.979559,13.55649 48.379199,13.55649 1.64037,0 3.33933,-0.0937 4.9797,-0.18747 16.15764,-1.24199 32.86598,-8.56507 51.13268,-22.4262 2.06218,-1.55835 4.06577,-3.21044 6.08108,-4.80394 4.62819,-3.71427 9.06891,-7.1942 13.41589,-9.6196 3.10498,-1.68724 6.86612,-3.24559 11.48259,-4.75707 l 1.41775,-0.4565 c 0.0469,11.30684 1.79269,21.78178 5.22575,31.2139 5.30776,14.5993 15.46634,28.51901 30.97956,42.61448 2.83549,2.566 5.68271,4.99141 8.42447,7.32308 6.50289,5.49524 12.58398,10.70927 17.0247,16.474 6.26855,8.19013 10.80301,18.72365 10.80301,28.9291 0,34.28373 -15.00939,56.83882 -15.00939,56.83882 0,0 30.6632,-10.28746 61.92397,-27.49963 17.0247,-9.38526 38.80647,-20.04767 53.90959,-38.77132 10.94361,-13.4979 17.80973,-29.88989 19.46182,-46.08268 1.04281,-10.84988 -0.28121,-20.96159 -1.55835,-30.72179 -0.86705,-6.58492 -1.69896,-12.80661 -1.60522,-18.6182 0.0469,-5.72958 0.91392,-11.67006 2.01531,-18.31356 13.22841,6.36229 26.17562,9.84222 38.44325,10.34604 0.96078,0 1.92157,0.0469 2.88236,0.0469 16.34512,0 31.16703,-5.13201 45.5437,-10.11171 l 3.98376,-1.33573 c 10.15858,-3.47993 20.86785,-6.86612 30.15938,-6.86612 1.51148,0 2.92923,0.0937 4.30011,0.28121 10.34605,1.27714 22.37933,8.28387 32.67852,18.53618 14.51727,14.45869 23.48072,24.85161 23.48072,24.85161 0,0 3.84315,-13.82598 7.82691,-33.73304 3.02297,-15.19686 4.67506,-31.53026 4.12436,-49.93755"/>
  <path d="m 313.14665,143.45037 c -56.97943,0 -113.95885,-14.78677 -139.95872,-94.97743 l 0,0 c -22.15671,47.78164 -18.40729,103.62452 9.92424,148.01997 l 0,0 c 28.33153,44.34857 77.40203,71.21549 130.03448,71.21549 l 0,0 c 52.67931,0 101.70295,-26.86692 130.08135,-71.21549 l 0,0 c 28.33153,-44.39545 32.08095,-100.23833 9.87737,-148.01997 l 0,0 c -25.94128,80.19066 -82.97929,94.97743 -139.95872,94.97743 m -76.71074,167.04826 c 5.03828,13.91971 15.14999,25.63664 26.31623,35.70148 l 0,0 c 9.57273,8.65881 19.87191,16.11078 27.55822,26.14047 l 0,0 c 8.3776,10.80301 13.6385,24.66414 14.36495,38.53698 l 0,0 c 0.5507,9.19779 -0.96079,18.39558 -3.79628,27.08954 l 0,0 c 8.64709,-3.60881 16.93096,-7.90893 25.35543,-12.22076 l 0,0 c 17.716,-9.19779 35.88895,-18.7588 48.3792,-34.27201 l 0,0 c 8.47134,-10.43979 14.37667,-23.57447 15.65382,-36.84975 l 0,0 c 1.60522,-15.87644 -3.38619,-31.85833 -3.19872,-47.78164 l 0,0 c 0.0469,-7.00672 1.08967,-14.00173 2.19106,-20.91471 l 0,0 c -12.39651,5.76473 -25.07423,10.01797 -38.39637,13.08781 l 0,0 c -10.70928,2.4254 -29.19859,5.2609 -40.36483,4.75707 l 0,0 C 282.48345,302.4491 257.3975,296.13367 232.2764,283.59656 l 0,0 c -0.1406,9.10405 1.05453,18.44244 4.15951,26.90207" style="fill:url(#linearGradient3028)"/>
  <path d="m 469.26302,213.15438 c -12.12703,23.19952 -34.6001,45.35623 -56.06551,59.49857 l 0,0 c 10.02969,4.89767 21.32481,8.50649 32.36216,8.9283 l 0,0 c 15.56008,0.63271 30.71007,-5.17889 46.12955,-10.43979 l 0,0 c 14.01345,-4.75707 28.33153,-9.10405 42.29811,-7.36995 l 0,0 c 16.56774,2.06218 32.67852,12.77146 44.34858,25.13282 l 0,0 c 3.60881,-15.56009 4.61647,-31.44824 4.11264,-47.65275 l 0,0 c -0.41009,-15.19686 -2.19106,-30.66321 -8.82285,-44.03222 l 0,0 c -6.69036,-13.40417 -18.17295,-24.71101 -31.3545,-32.25671 l 0,0 c -11.67006,-6.6435 -24.62898,-10.39292 -35.65461,-17.57539 l 0,0 c -5.8116,-3.80801 -11.08422,-8.47134 -16.06391,-13.36902 l 0,0 c -1.46462,27.51135 -8.51821,54.60089 -21.28966,79.13614" style="fill:url(#linearGradient3023)"/>
  <path d="m 106.13194,159.01045 c -6.912983,12.77145 -7.463679,28.2378 -10.392911,43.24718 l 0,0 c -2.9761,15.74756 -8.553359,31.03815 -18.899407,42.38014 l 0,0 c -10.346049,11.3537 -25.542906,18.81739 -40.552292,22.51994 l 0,0 c 14.470407,12.91205 31.038145,22.5668 49.117367,31.12016 l 0,0 c 14.364955,6.7841 29.655543,12.81832 44.618063,11.71693 l 0,0 c 14.8805,-1.13654 29.43293,-9.42041 41.92318,-18.94628 l 0,0 c 7.27621,-5.53039 13.87284,-11.43572 21.60601,-15.7827 l 0,0 c 4.58132,-2.47227 9.56102,-4.44072 14.55243,-6.0928 l 0,0 C 187.04906,254.38625 166.5913,232.65135 155.06184,209.21749 l 0,0 c -12.31449,-25.13281 -18.31356,-50.07815 -19.40323,-77.94101 l 0,0 c -11.7638,6.67865 -23.25811,16.06391 -29.52667,27.73397" style="fill:url(#linearGradient3018)"/>
</svg>
