<?xml version="1.0" encoding="UTF-8" standalone="no"?>
<svg xmlns="http://www.w3.org/2000/svg" version="1.1" width="600" height="468.67764">
  <path d="m 135.65861,131.27648 c -11.7638,6.63178 -23.25811,16.06391 -29.52667,27.73397 -6.912983,12.77145 -7.463679,28.19093 -10.346044,43.24718 -3.022967,15.70069 -8.600226,30.99128 -18.946274,42.38014 -10.346049,11.3537 -25.542906,18.81739 -40.552292,22.5668 14.470407,12.86519 31.038145,22.51994 49.117367,31.0733 14.364955,6.7841 29.655543,12.86519 44.618063,11.71693 14.8805,-1.13654 29.38606,-9.42041 41.92318,-18.89941 7.27621,-5.57726 13.87284,-11.52946 21.60601,-15.82957 4.58132,-2.51914 9.56102,-4.44072 14.55243,-6.0928 -21.00845,-14.78677 -41.51308,-36.52167 -53.04254,-60.0024 -12.31449,-25.08594 -18.31356,-50.03128 -19.40323,-77.89414 m 277.5389,141.3296 c 10.06484,4.94454 21.32481,8.60022 32.36216,8.97517 15.56008,0.63271 30.6632,-5.17889 46.12955,-10.43979 14.01345,-4.80394 28.33153,-9.15092 42.29811,-7.36995 16.56774,2.06218 32.67852,12.77146 44.34858,25.13282 3.60881,-15.52493 4.61647,-31.44824 4.15951,-47.60589 -0.45743,-15.24372 -2.23793,-30.71007 -8.86972,-44.07908 -6.64349,-13.40417 -18.17295,-24.71101 -31.3545,-32.22156 -11.67006,-6.67865 -24.62898,-10.42807 -35.65461,-17.61054 -5.8116,-3.76114 -11.08422,-8.51821 -16.06391,-13.36902 -1.46462,27.51135 -8.51821,54.60089 -21.28966,79.08927 -12.12703,23.24639 -34.6001,45.4031 -56.06551,59.49857 M 173.18793,48.51981 c -22.15671,47.78163 -18.40729,103.53078 9.92424,147.92623 28.33153,44.39544 77.35517,71.26236 130.03448,71.26236 52.67931,0 101.70295,-26.86692 130.03448,-71.26236 28.3784,-44.39545 32.12782,-100.1446 9.97111,-147.92623 -25.98815,80.09692 -82.9793,94.88369 -140.00559,94.88369 -56.97943,0 -113.95885,-14.78677 -139.95872,-94.88369 m 127.6911,389.44729 c 8.64709,-3.65568 16.97783,-7.87378 25.35543,-12.22076 17.716,-9.15092 35.88895,-18.80567 48.3792,-34.27201 8.47134,-10.48666 14.37667,-23.62133 15.65382,-36.84975 1.60522,-15.87644 -3.38619,-31.85833 -3.24559,-47.8285 0.0937,-6.95986 1.13654,-13.95487 2.23793,-20.91472 -12.39651,5.76473 -25.07423,10.11171 -38.44324,13.13468 -10.66241,2.4254 -29.19859,5.30777 -40.2828,4.75707 -28.05033,-1.32401 -53.08941,-7.63944 -78.25738,-20.1414 -0.1406,9.0689 1.05453,18.36043 4.15951,26.91378 5.03828,13.82598 15.14999,25.54291 26.3631,35.65462 9.52586,8.65881 19.82504,16.11078 27.51135,26.0936 8.33073,10.84988 13.59163,24.71101 14.36495,38.58385 0.55023,9.19779 -0.96079,18.44245 -3.79628,27.08954"/>
</svg>
