<?xml version="1.0" encoding="utf-8"?>
<svg xmlns:svg="http://www.w3.org/2000/svg" xmlns="http://www.w3.org/2000/svg" xmlns:xlink="http://www.w3.org/1999/xlink" version="1.1" id="svg4142" x="0px" y="0px" width="212.728px" height="153.553px" viewBox="80.735 111.276 212.728 153.553">
  <g>
    <path fill="#ffffff" d="M122.376,262.377c-2.219-2.22-2.491-3.508-1.763-8.364c2.91-19.399,17.879-38.657,37.511-48.257   c19.661-9.613,41.977-9.307,61.127,0.838c17.882,9.473,33.195,30.867,34.279,47.89c0.485,7.629,0.373,8-2.879,9.481   c-3.869,1.763-4.265,1.575-16.771-7.949c-15.64-11.91-38.787-17.137-59.589-13.452c-16.192,2.868-24.389,6.67-41.665,19.325   C127.45,265.682,125.762,265.762,122.376,262.377L122.376,262.377z"/>
    <path fill="#ffffff" d="M102.549,248.514c-2.922-3.136-3.458-13.382-1.295-24.785c1.397-7.367,2.432-5.473-14.604-26.738   l-5.916-7.385l15.821,0.88l15.821,0.879l1.861-3.6c1.024-1.98,4.189-6.544,7.033-10.142l5.171-6.543l-3.186-15.159   c-1.752-8.337-2.955-15.389-2.673-15.671s6.656,2.741,14.165,6.717l13.653,7.229l10.131-3.348   c5.572-1.841,10.909-3.348,11.861-3.348c1.542,0,9.886-17.91,14.705-31.563c0.91-2.578,1.963-4.676,2.341-4.662   s4.062,7.984,8.187,17.711l7.5,17.686l8.551,2.315c4.703,1.273,10.223,3.179,12.266,4.235c3.613,1.869,4.15,1.718,20.059-5.652   c8.989-4.165,16.791-7.572,17.335-7.572c0.545,0-1.472,7.34-4.48,16.311l-5.471,16.312l6.337,9.34l6.338,9.34l15.042-0.85   c8.944-0.506,14.758-0.39,14.341,0.286c-0.387,0.625-5.008,6.479-10.268,13.011c-9.124,11.327-9.531,12.105-8.838,16.875   c0.4,2.75,1.059,9.219,1.461,14.375c0.656,8.386,0.445,9.738-1.997,12.813c-2.642,3.325-6.691,4.375-9.571,2.48   c-0.768-0.505-3.455-5.392-5.973-10.859c-10.551-22.912-27.221-38.54-48.881-45.821c-6.838-2.298-11.481-2.946-21.25-2.964   c-20.943-0.039-37.724,7.262-53.313,23.191c-7.329,7.49-16.099,20.935-18.696,28.66   C113.141,251.354,107.517,253.847,102.549,248.514L102.549,248.514z"/>
  </g>
  <g>
    <path d="M135.551,253.406c14.372-11.299,30.59-16.424,51.949-16.417c22.027,0.007,35.742,4.439,51.71,16.709   c9.524,7.319,11.214,7.024,9.354-1.636c-3.245-15.113-15.726-31.668-30.285-40.174c-17.403-10.169-39.754-10.688-58.81-1.364   c-8.146,3.985-20.487,15.066-25.485,22.882c-4.516,7.063-9.622,21.879-8.524,24.738   C126.347,260.457,126.93,260.184,135.551,253.406z"/>
    <path d="M112.374,238.203c18.907-41.699,60.397-61.995,99.736-48.789c12.377,4.154,19.046,8.164,28.872,17.355   c9.229,8.633,16.313,18.534,21.83,30.508c4.704,10.21,4.235,9.654,6.533,7.748c2.771-2.299,2.101-16.94-1.265-27.646   c-0.379-1.207,2.35-5.728,6.896-11.422c4.138-5.185,7.523-9.791,7.523-10.236s-4.922-0.475-10.938-0.064l-10.938,0.747l-5-8.262   c-2.75-4.543-6.213-9.407-7.693-10.808l-2.694-2.547l4.247-12.611c2.336-6.936,4.11-12.736,3.943-12.889   c-0.166-0.153-5.928,2.261-12.803,5.364c-11.456,5.171-12.813,5.512-16.25,4.083c-2.063-0.857-8.604-2.984-14.537-4.727   l-10.787-3.167l-5.387-12.92c-2.962-7.106-5.702-12.912-6.087-12.902s-2.898,5.494-5.582,12.188   c-2.684,6.693-5.24,12.588-5.68,13.1s-4.712,1.974-9.495,3.25s-10.882,3.251-13.554,4.391l-4.859,2.071l-10.454-5.698   c-5.75-3.134-10.454-5.04-10.454-4.235c0,0.805,0.954,6.096,2.119,11.757l2.119,10.293l-6.026,7.996   c-3.314,4.398-6.938,9.897-8.053,12.221l-2.027,4.227l-11.566-0.813c-6.361-0.447-11.566-0.477-11.566-0.064   c0,0.411,3.429,4.944,7.62,10.073l7.62,9.325l-1.37,7.866c-1.524,8.753-1.821,21.17-0.537,22.453   C107.666,247.25,108.878,245.913,112.374,238.203z"/>
  </g>
</svg>
