<?xml version="1.0" encoding="UTF-8" standalone="no"?>
<svg xmlns="http://www.w3.org/2000/svg" xmlns:xlink="http://www.w3.org/1999/xlink" version="1.1" width="600" height="793.995" viewBox="0 0 600 793.995" id="M">
  <linearGradient x1="297.2139" y1="167.5527" x2="30.530001" y2="219.39079" id="linearGradient3045" xlink:href="#SVGID_1_" gradientUnits="userSpaceOnUse" gradientTransform="matrix(-1,0,0,1,311.207,0)"/>
  <linearGradient x1="297.2139" y1="167.5527" x2="30.530001" y2="219.39079" id="SVGID_1_" gradientUnits="userSpaceOnUse" gradientTransform="matrix(-1,0,0,1,311.207,0)">
    <stop style="stop-color:#bf331c" offset="0"/>
    <stop style="stop-color:#d3641c" offset="0.3"/>
    <stop style="stop-color:#f6b91d" offset="0.5"/>
    <stop style="stop-color:#d3641c" offset="0.7"/>
    <stop style="stop-color:#bf331c" offset="1"/>
  </linearGradient>
  <linearGradient x1="297.2139" y1="167.5527" x2="30.530001" y2="219.39079" id="linearGradient3062" xlink:href="#SVGID_1_" gradientUnits="userSpaceOnUse" gradientTransform="matrix(-1,0,0,1,311.207,0)"/>
  <linearGradient x1="297.2139" y1="167.5527" x2="30.530001" y2="219.39079" id="linearGradient3786" xlink:href="#SVGID_1_" gradientUnits="userSpaceOnUse" gradientTransform="matrix(-1.9999867,0,0,1.9999867,622.40985,2.6504505e-4)"/>
  <path d="m 541.99639,153.07925 -13.49991,46.48169 c -22.80785,-21.51585 -40.99973,-74.4715 -40.99973,-120.203205 0,-20.89786 4.91797,-34.03377 12.49992,-55.39563 C 505.49663,8.4682151 494.8287,-2.8617149 479.4968,0.63826505 424.60317,13.172185 384.89143,67.623815 370.21953,129.27741 c -22.57785,31.88179 -49.67167,57.62762 -79.47147,72.03152 -36.25176,17.52388 -43.54371,39.26774 -69.36354,53.61164 v -0.124 c 8.42395,-20.69386 14.61391,-43.6977 14.61391,-73.22951 0,-80.46946 -45.3617,-164.914905 -115.49923,-180.92879495 C 105.1673,-2.8617149 94.501368,8.4682151 100.00133,23.962105 c 7.58195,21.36186 12.49792,34.49777 12.49792,55.39563 0,45.731705 -18.191881,98.687355 -40.999729,120.203205 L 57.999611,153.07925 C 20.833859,217.71882 -1.844903e-6,269.28648 -1.844903e-6,371.16379 c 0,46.98969 4.021973244903,74.82351 16.269891844903,99.27334 12.363917,24.67584 31.027793,42.51572 56.85962,67.20756 11.343925,10.84193 24.201839,23.12984 39.10574,38.38174 42.57372,43.56571 68.55154,72.68352 70.34553,109.56727 0.724,14.8979 -0.55999,29.46781 -1.69199,42.32372 -1.99398,22.64785 -3.56997,40.54173 9.20994,54.48964 6.84596,7.47395 16.23789,11.58792 26.44383,11.58792 8.83994,0 17.28588,-3.65398 23.33584,-10.09993 l 71.32753,-75.9875 71.32752,75.9875 c 6.04996,6.44595 14.4959,10.09993 23.33584,10.09993 10.20394,0 19.59787,-4.11197 26.44983,-11.58192 12.86791,-14.02191 11.36392,-31.36979 9.28994,-55.38763 -1.098,-12.67992 -2.33999,-27.04782 -1.76199,-41.72173 1.14399,-28.9878 24.09784,-66.78155 70.16353,-115.53923 26.17183,-27.69381 49.13967,-53.08764 65.19957,-83.44344 C 592.63205,453.38125 600,416.78949 600,371.16379 599.996,269.28648 579.16414,217.71882 541.99639,153.07925 z" style="fill:#ffffff"/>
  <path d="m 175.91683,59.707875 c -14.28791,-17.84789 -31.75979,-31.63179 -49.19767,-38.81175 -1.236,-0.50999 -2.52799,-0.75399 -3.80198,-0.75399 -3.19998,0 -6.29796,1.53799 -8.21394,4.29397 -2.67799,3.85397 -2.31399,9.05194 0.87399,12.49792 6.78395,7.32795 18.07188,22.38985 17.45588,40.92972 -0.61799,18.55788 -3.04198,37.541755 -7.01595,54.905645 -0.68,2.96598 0.032,6.08196 1.92799,8.45994 1.89598,2.37799 4.77597,3.76598 7.81794,3.76598 h 65.09157 c 3.05198,0 5.93996,-1.39599 7.83595,-3.78798 1.89599,-2.39198 2.59598,-5.52196 1.89799,-8.49394 -6.45196,-27.47982 -18.43988,-52.725655 -34.67177,-73.005515 z"/>
  <path d="m 487.07875,30.142065 c 0,-5.35796 -4.20797,-9.72993 -9.50393,-9.98593 -0.168,-0.008 -0.336,-0.012 -0.504,-0.012 -0.428,0 -0.85799,0.028 -1.28599,0.084 -0.962,0.124 -1.87999,0.384 -2.73798,0.76199 -17.36389,7.20596 -34.74977,20.94786 -48.97568,38.71975 -16.23189,20.27786 -28.21981,45.523695 -34.66977,73.005515 -0.69799,2.97198 0.002,6.10196 1.89799,8.49394 1.89599,2.39199 4.78397,3.78798 7.83595,3.78798 h 65.09157 c 3.04197,0 5.92196,-1.38599 7.81794,-3.76598 1.89599,-2.37998 2.60799,-5.49396 1.92799,-8.45994 -3.97197,-17.36389 -6.39796,-36.347765 -7.01595,-54.905645 -0.614,-18.42787 10.53593,-33.41777 17.32988,-40.79572 1.72999,-1.79799 2.79198,-4.23798 2.79198,-6.92796 z"/>
  <path d="m 417.37322,263.05252 c 47.33168,-6.16596 66.99955,23.82184 66.99955,39.64973 0,16.49189 -15.62589,20.80986 -36.74975,10.91193 l 41.24972,61.72559 c 0,58.47761 -32.68378,102.30931 -67.97355,102.30931 -20.64786,0 -35.87176,-4.49197 -41.39972,-23.00584 -3.71998,-12.45592 -4.78197,-25.73383 -5.87596,-39.06974 -2.34399,-28.57581 16.83589,-51.56166 55.99963,-69.47154 -20.84187,-3.90197 -38.96574,-11.09192 -51.74966,-24.73983 10.12593,-18.74388 25.37583,-38.36174 41.87572,-54.85563 -11.12592,-1.25 -36.24976,6.49795 -51.49965,14.8699 -10.96793,6.01996 -18.74988,8.74594 -31.2078,11.82992 -5.16796,-5.99796 -5.56396,-19.60387 -1.00199,-30.8218 9.75193,-23.97784 20.70786,-43.9577 20.49986,-70.80352 -13.69991,13.8219 -25.73583,23.69384 -33.83177,27.81981 -36.58776,18.64988 -54.16564,34.48777 -67.64955,52.35165 -32.52378,20.28587 -55.29163,57.23962 -83.62144,104.7293 -8.56195,14.3539 -8.06195,34.51377 -1.99399,47.93368 9.21994,20.39386 23.59984,47.22168 59.8056,52.51165 -10.17593,-7.10395 -17.91388,-19.72587 -17.37588,-33.77778 0.42999,-11.19992 7.09395,-18.59387 25.66783,-17.82588 15.62189,0.646 26.66582,10.83993 26.66582,29.32181 0,23.81984 -21.70786,36.51975 -50.33367,36.98575 -47.55368,0.776 -103.49931,-44.0677 -103.49931,-116.29122 l 41.24973,-61.72559 c -21.12586,9.89793 -36.74976,5.57996 -36.74976,-10.91193 0,-15.82789 19.66787,-45.81569 66.99956,-39.64973 15.73389,-20.65386 24.16784,-49.98967 24.16784,-78.63748 0,-85.301435 -45.6677,-138.697075 -83.49945,-154.272975 10.05994,10.86993 20.78186,27.84782 20.10987,48.05368 C 140.87306,131.6854 124.58317,199.44494 78.373476,234.89471 55.881625,252.15059 50.623661,250.6386 48.541674,246.05863 36.841752,274.77244 31.24979,316.75616 31.24979,373.00978 c 0,101.29333 22.811848,99.55934 103.87531,182.51279 41.83772,42.81171 76.96949,80.02747 79.41747,130.36713 1.99999,41.14973 -9.16794,77.96548 1.99999,77.96548 l 94.66337,-100.84733 94.66536,100.84733 c 11.16793,0 0.376,-36.79975 1.99999,-77.96548 1.61599,-40.88973 30.5418,-85.08743 78.87548,-136.24109 51.12565,-54.10364 81.99945,-90.8394 81.99945,-176.63683 0,-56.25362 -6.34396,-98.23534 -18.04188,-126.95115 -2.08199,4.57997 -7.34195,6.09196 -29.8318,-11.16392 -46.20769,-35.45177 -62.49959,-103.20931 -64.27757,-156.698965 -0.672,-20.20586 10.04793,-37.18375 20.10986,-48.05368 -37.83175,15.5759 -83.49944,68.97154 -83.49944,154.272975 0,28.64581 8.43194,57.98162 24.16784,78.63548 z" style="fill:url(#linearGradient3786)"/>
  <path d="m 417.37322,263.05252 c 47.33168,-6.16596 66.99955,23.82184 66.99955,39.64973 0,16.49189 -15.62589,20.80986 -36.74975,10.91193 l 41.24972,61.72559 c 0,58.47761 -32.68378,102.30931 -67.97355,102.30931 -20.64786,0 -35.87176,-4.49197 -41.39972,-23.00584 -3.71998,-12.45592 -4.78197,-25.73383 -5.87596,-39.06974 -2.34399,-28.57581 16.83589,-51.56166 55.99963,-69.47154 -20.84187,-3.90197 -38.96574,-11.09192 -51.74966,-24.73983 10.12593,-18.74388 25.37583,-38.36174 41.87572,-54.85563 -11.12592,-1.25 -36.24976,6.49795 -51.49965,14.8699 -10.96793,6.01996 -18.74988,8.74594 -31.2078,11.82992 -5.16796,-5.99796 -5.56396,-19.60387 -1.00199,-30.8218 9.75193,-23.97784 20.70786,-43.9577 20.49986,-70.80352 -13.69991,13.8219 -25.73583,23.69384 -33.83177,27.81981 -36.58776,18.64988 -54.16564,34.48777 -67.64955,52.35165 -32.52378,20.28587 -55.29163,57.23962 -83.62144,104.7293 -8.56195,14.3539 -8.06195,34.51377 -1.99399,47.93368 9.21994,20.39386 23.59984,47.22168 59.8056,52.51165 -10.17593,-7.10395 -17.91388,-19.72587 -17.37588,-33.77778 0.42999,-11.19992 7.09395,-18.59387 25.66783,-17.82588 15.62189,0.646 26.66582,10.83993 26.66582,29.32181 0,23.81984 -21.70786,36.51975 -50.33367,36.98575 -47.55368,0.776 -103.49931,-44.0677 -103.49931,-116.29122 l 41.24973,-61.72559 c -21.12586,9.89793 -36.74976,5.57996 -36.74976,-10.91193 0,-15.82789 19.66787,-45.81569 66.99956,-39.64973 15.73389,-20.65386 24.16784,-49.98967 24.16784,-78.63748 0,-85.301435 -45.6677,-138.697075 -83.49945,-154.272975 10.05994,10.86993 20.78186,27.84782 20.10987,48.05368 C 140.87306,131.6854 124.58317,199.44494 78.373476,234.89471 55.881625,252.15059 50.623661,250.6386 48.541674,246.05863 36.841752,274.77244 31.24979,316.75616 31.24979,373.00978 c 0,101.29333 22.811848,99.55934 103.87531,182.51279 41.83772,42.81171 76.96949,80.02747 79.41747,130.36713 1.99999,41.14973 -9.16794,77.96548 1.99999,77.96548 l 94.66337,-100.84733 94.66536,100.84733 c 11.16793,0 0.376,-36.79975 1.99999,-77.96548 1.61599,-40.88973 30.5418,-85.08743 78.87548,-136.24109 51.12565,-54.10364 81.99945,-90.8394 81.99945,-176.63683 0,-56.25362 -6.34396,-98.23534 -18.04188,-126.95115 -2.08199,4.57997 -7.34195,6.09196 -29.8318,-11.16392 -46.20769,-35.45177 -62.49959,-103.20931 -64.27757,-156.698965 -0.672,-20.20586 10.04793,-37.18375 20.10986,-48.05368 -37.83175,15.5759 -83.49944,68.97154 -83.49944,154.272975 0,28.64581 8.43194,57.98162 24.16784,78.63548 z" style="fill:none;stroke:#000000;stroke-width:15.99689293"/>
  <path d="m 476.70482,30.142065 c -10.05993,10.86993 -20.78186,27.84782 -20.10986,48.05368 1.77798,53.489655 18.06788,121.249195 64.27757,156.698965 13.9679,10.71593 21.28986,14.1959 25.33183,14.1959 2.46398,0 3.70997,-1.29399 4.49997,-3.03198 11.69992,28.71381 18.04188,70.69753 18.04188,126.95115 0,85.79743 -30.8758,122.53519 -81.99945,176.63683 -48.33568,51.15366 -77.26149,95.35136 -78.87548,136.24109 -1.62599,41.16573 9.16794,77.96548 -1.99999,77.96548 L 311.20593,663.00585 216.54256,763.85318 c -11.16793,0 0,-36.81575 -1.99999,-77.96548 C 212.09459,635.54804 176.96282,598.33428 135.1251,555.52057 54.063638,472.56712 31.24979,474.30311 31.24979,373.00778 c 0,-56.25362 5.593962,-98.23534 17.291884,-126.95115 0.789995,1.73599 2.033987,3.03198 4.49997,3.03198 4.041973,0 11.363925,-3.47797 25.331832,-14.1959 46.207694,-35.45177 62.499584,-103.20931 64.277574,-156.698965 0.67199,-20.20586 -10.04793,-37.18375 -20.10987,-48.05368 37.83175,15.5759 83.49945,68.97154 83.49945,154.272975 0,28.64781 -8.43395,57.98362 -24.16784,78.63748 -4.30997,-0.562 -8.38795,-0.82199 -12.24592,-0.82199 -38.50174,0 -54.75364,26.08582 -54.75364,40.47172 0,10.59993 6.45396,16.16989 16.67389,16.16989 5.68197,0 12.52992,-1.72199 20.07587,-5.25796 l -41.24973,61.72559 c 0,71.60952 54.99564,116.29922 102.28332,116.29922 0.404,0 0.812,-0.004 1.21599,-0.01 28.62581,-0.466 50.33367,-13.16591 50.33367,-36.98575 0,-18.48188 -11.04393,-28.67581 -26.66582,-29.32181 -0.884,-0.038 -1.74199,-0.054 -2.57399,-0.054 -16.61989,0 -22.68385,7.21396 -23.09384,17.87988 -0.54,14.04991 7.19995,26.67383 17.37588,33.77778 -36.20776,-5.28997 -50.58566,-32.11779 -59.8056,-52.51165 -6.06796,-13.41991 -6.56796,-33.57978 1.99399,-47.93368 28.32781,-47.48968 51.09766,-84.44543 83.62144,-104.7293 13.48391,-17.86388 31.06179,-33.70177 67.64955,-52.35165 8.09594,-4.12597 20.13186,-13.99791 33.83177,-27.81981 0.208,26.84782 -10.74793,46.82568 -20.49986,70.80352 -4.56197,11.21793 -4.16597,24.82384 1.00199,30.8218 12.45792,-3.08398 20.23787,-5.80996 31.2078,-11.82992 14.1539,-7.76995 36.81375,-15.0019 48.89367,-15.0019 0.93399,0 1.80599,0.042 2.60598,0.132 -16.49989,16.49389 -31.74979,36.11175 -41.87572,54.85563 12.78392,13.64791 30.90779,20.83786 51.74966,24.73983 -39.16374,17.90988 -58.34362,40.89573 -55.99963,69.47154 1.09399,13.33591 2.15398,26.61582 5.87596,39.06974 5.52996,18.51387 20.75186,23.00584 41.39972,23.00584 35.29177,0 67.97355,-43.8317 67.97355,-102.30931 l -41.24972,-61.72559 c 7.54595,3.53797 14.3939,5.25796 20.07586,5.25796 10.21993,0 16.67389,-5.56996 16.67389,-16.16989 0,-14.3879 -16.24589,-40.47172 -54.75363,-40.47172 -3.85598,0 -7.93995,0.26199 -12.24592,0.82199 -15.7339,-20.65386 -24.16784,-49.98967 -24.16784,-78.63748 0,-85.297435 45.66769,-138.693075 83.49944,-154.268975 m -3.80797,-9.24394 c -22.58585,9.29994 -44.6817,29.32981 -60.6196,54.95364 -19.01987,30.577795 -29.0718,68.117545 -29.0718,108.563275 0,26.99182 6.81395,53.20765 18.96787,73.87751 -13.35791,2.93398 -28.64981,8.78194 -38.73774,14.31991 -7.19795,3.94997 -12.78992,6.36795 -20.44387,8.63994 -0.40399,-3.96198 0.022,-9.48394 2.30599,-15.1039 1.63599,-4.02397 3.33998,-8.00795 4.98596,-11.85992 8.45595,-19.77587 16.4399,-38.45175 16.2499,-62.78958 l -0.188,-24.02384 -16.91189,17.06388 c -12.74191,12.85592 -24.13984,22.31585 -31.27179,25.94983 -33.17778,16.91189 -53.60564,32.58578 -69.97153,53.77364 -34.89577,22.51985 -59.40961,63.61957 -85.34344,107.09528 -11.08992,18.58588 -9.07794,42.66572 -2.51798,57.17362 6.34996,14.04591 18.42788,40.76173 47.84168,52.95765 -20.04986,-1.35599 -41.14172,-11.65392 -57.23962,-28.13181 -19.05587,-19.50587 -29.8338,-46.0577 -30.52779,-75.0375 l 39.52973,-59.15161 19.93787,-29.8318 -32.49178,15.2239 c -7.60995,3.56397 -12.80992,4.31197 -15.8339,4.31197 -5.64196,0 -6.67595,-2.07799 -6.67595,-6.17196 0,-7.80994 11.01792,-30.47379 44.7557,-30.47379 3.50398,0 7.18795,0.248 10.95593,0.73799 l 5.73796,0.748 3.50597,-4.60397 c 16.65789,-21.86785 26.21183,-52.73765 26.21183,-84.69744 0,-40.44573 -10.05193,-77.98748 -29.07181,-108.563275 -15.93789,-25.62583 -38.03374,-45.6537 -60.61959,-54.95364 l -11.14393,16.0359 c 6.78396,7.32995 18.06988,22.39185 17.45589,40.92972 -0.822,24.743845 -7.60595,108.617285 -60.371604,149.099015 -8.585943,6.58596 -13.645909,9.60194 -16.45189,10.98193 l -7.795948,-17.15189 -8.757942,21.49386 c -12.131919,29.7818 -18.03188,72.54151 -18.03188,130.72112 0,43.25171 4.119973,68.32555 14.691902,89.42741 10.651929,21.26585 27.257819,37.13575 52.391651,61.16159 11.469924,10.96393 24.471841,23.38985 39.637741,38.91174 38.18574,39.07574 74.2535,75.9835 76.58149,123.86518 0.79599,16.39789 -0.616,32.43178 -1.74999,45.3157 -1.69799,19.26787 -2.71998,30.89579 3.51797,37.70974 2.62999,2.87198 6.25796,4.45197 10.21794,4.45197 h 4.32797 l 2.95998,-3.15597 87.37542,-93.07938 87.37541,93.08138 2.95998,3.15397 h 4.32797 c 3.96198,0 7.59995,-1.58399 10.23594,-4.45797 6.32395,-6.89395 5.29196,-18.83987 3.57797,-38.62774 -1.09399,-12.66591 -2.45798,-28.42781 -1.82399,-44.4817 1.382,-35.01377 25.58183,-76.24749 76.1535,-129.76914 52.53365,-55.59363 84.72943,-94.20137 84.72943,-183.50478 0,-56.15162 -6.31796,-100.13333 -18.78187,-130.72112 l -8.75794,-21.49386 -7.79595,17.15189 c -2.80398,-1.37999 -7.86595,-4.39597 -16.45189,-10.98193 -52.76565,-40.48173 -59.54761,-124.35717 -60.3716,-149.099015 -0.616,-18.53987 10.67193,-33.60177 17.45588,-40.92972 l -11.13592,-16.0339 0,0 z m -44.7437,251.344335 c 0.49199,-0.01 0.97999,-0.014 1.46399,-0.014 33.73777,0 44.7557,22.66385 44.7557,30.47379 0,4.09397 -1.034,6.17196 -6.67596,6.17196 -3.02398,0 -8.22394,-0.748 -15.83389,-4.31197 l -32.49179,-15.2239 19.93787,29.8318 14.18791,21.23186 -22.03586,-4.12597 c -17.70988,-3.31398 -31.20779,-8.84194 -40.99772,-16.81589 9.24194,-15.4199 21.94385,-31.47579 36.35175,-45.87969 l 1.338,-1.33799 0,0 z m -7.25596,195.41069 c -22.54985,0 -28.8938,-6.07196 -31.81978,-15.86989 -3.38198,-11.32393 -4.38997,-23.60785 -5.45797,-36.60976 l -0.034,-0.416 c -1.94798,-23.74384 14.46991,-43.22771 50.19367,-59.5636 l 22.67385,-10.36993 22.38785,33.50378 c -0.502,24.55583 -7.18995,47.33768 -18.95788,64.42557 -10.89792,15.82389 -25.10583,24.89983 -38.98574,24.89983 l 0,0 z m -190.18073,11.80992 4.25397,-10.73393 c -8.32594,-5.81196 -13.46991,-15.70389 -13.10791,-25.19783 0.148,-3.87397 0.318,-8.26594 13.10391,-8.26594 0.7,0 1.41799,0.016 2.16199,0.046 11.17392,0.45999 17.07989,7.14595 17.07989,19.33187 0,15.2639 -12.09392,21.92985 -23.49185,24.81983 l 0,0 z"/>
  <path d="m 233.41198,468.84834 c 3.84486,2.80108 8.57025,5.27199 13.60439,7.62709 l -20.8801,9.30212 z" style="stroke:#000000;stroke-width:1.99998665px"/>
</svg>
