<?xml version="1.0" encoding="UTF-8" standalone="no"?>
<svg xmlns="http://www.w3.org/2000/svg" xmlns:xlink="http://www.w3.org/1999/xlink" version="1.1" width="600" height="793.99298" viewBox="0 0 600 793.99298" id="U">
  <linearGradient x1="13.9932" y1="167.5527" x2="280.67749" y2="219.3909" id="linearGradient3030" xlink:href="#SVGID_1_" gradientUnits="userSpaceOnUse"/>
  <linearGradient x1="13.9932" y1="167.5527" x2="280.67749" y2="219.3909" id="SVGID_1_" gradientUnits="userSpaceOnUse">
    <stop style="stop-color:#536e78" offset="0"/>
    <stop style="stop-color:#99aebc" offset="0.3"/>
    <stop style="stop-color:#d9eaf3" offset="0.5"/>
    <stop style="stop-color:#99aebc" offset="0.7"/>
    <stop style="stop-color:#536e78" offset="1"/>
  </linearGradient>
  <linearGradient x1="13.9932" y1="167.5527" x2="280.67749" y2="219.3909" id="linearGradient3045" xlink:href="#SVGID_1_" gradientUnits="userSpaceOnUse" gradientTransform="matrix(1.9999867,0,0,1.9999867,0,2.6505896e-4)"/>
  <path d="m 541.99639,153.07925 -13.49991,46.48369 c -22.80785,-21.51585 -40.99973,-74.4735 -40.99973,-120.205205 0,-20.89786 4.91797,-34.03377 12.49992,-55.39563 C 505.49663,8.4682151 494.8287,-2.8617149 479.4968,0.63826506 424.60317,13.172185 384.89143,67.621815 370.21953,129.27541 c -22.57785,31.88179 -49.67167,57.62962 -79.47147,72.03352 -36.25176,17.52388 -43.54371,39.26774 -69.36354,53.61164 v -0.126 c 8.42395,-20.68986 14.61391,-43.6937 14.61391,-73.22551 0,-80.46946 -45.3617,-164.914905 -115.49923,-180.92879494 C 105.1673,-2.8597149 94.50137,8.4702151 100.00133,23.964105 c 7.58195,21.36186 12.49792,34.49777 12.49792,55.39563 0,45.731705 -18.191879,98.687355 -40.999727,120.205205 L 57.999613,153.07925 C 20.833861,217.71882 0,269.28448 0,371.16179 c 0,46.99169 4.0219732,74.82551 16.269892,99.27134 12.363917,24.67584 31.027793,42.51972 56.85962,67.20956 11.343925,10.84193 24.201839,23.12984 39.105738,38.38174 42.57372,43.56371 68.55154,72.67952 70.34553,109.56727 0.724,14.8979 -0.55999,29.46781 -1.69199,42.32172 -1.99398,22.64985 -3.56997,40.54173 9.20994,54.49164 6.84596,7.47195 16.23789,11.58792 26.44383,11.58792 8.83994,0 17.28588,-3.65398 23.33584,-10.09993 l 71.32753,-75.9875 71.32752,75.9875 c 6.04996,6.44595 14.4959,10.09993 23.33584,10.09993 10.20394,0 19.59787,-4.11397 26.44983,-11.58192 12.86791,-14.02191 11.36392,-31.37379 9.28994,-55.38963 -1.098,-12.67792 -2.33999,-27.04982 -1.76199,-41.72173 1.14399,-28.9858 24.09784,-66.78355 70.16353,-115.53723 26.17183,-27.69381 49.13967,-53.08764 65.19957,-83.44344 C 592.63205,453.37925 600,416.78549 600,371.15979 599.996,269.28448 579.16414,217.71882 541.99639,153.07925 z"/>
  <path d="m 486.74476,549.64661 c 51.12565,-54.10364 81.99945,-90.8394 81.99945,-176.63683 0,-56.25562 -6.34396,-98.23734 -18.04188,-126.95115 -2.08199,4.57997 -7.34195,6.09196 -29.8318,-11.16392 -46.20769,-35.45177 -62.49959,-103.20931 -64.27757,-156.698965 -0.672,-20.20586 10.04793,-37.18575 20.10986,-48.05368 -37.83175,15.5779 -83.49944,68.97154 -83.49944,154.272975 0,28.64981 8.43394,57.98362 24.16784,78.63748 47.33168,-6.16396 66.99955,23.82384 66.99955,39.65173 0,16.48989 -15.4999,25.48783 -36.74975,16.90789 l 41.24972,51.72965 c 0,58.47761 -32.68378,106.30929 -67.97355,106.30929 -20.64786,0 -35.87176,-4.49397 -41.39972,-23.00584 -3.71998,-12.45792 -4.78197,-25.73383 -5.87596,-39.07174 -2.34399,-28.57381 16.83589,-51.55966 55.99963,-69.47154 -20.84187,-3.89997 -38.96574,-11.08992 -51.74966,-24.73983 10.12593,-18.74188 25.37583,-38.36174 41.87572,-54.85563 -11.12592,-1.248 -36.24976,6.49795 -51.49965,14.8719 -10.96793,6.01996 -18.74988,8.74594 -31.2078,11.82792 -5.16796,-5.99596 -5.56396,-19.60187 -1.00199,-30.8198 9.75193,-23.97984 21.99985,-46.14969 20.49986,-70.80552 -13.69991,13.8219 -25.65583,23.85784 -33.83177,27.82181 -36.95576,17.91388 -54.16564,34.48577 -67.64955,52.34965 -32.52378,20.28587 -55.29163,57.24162 -83.62144,104.7293 -8.56195,14.3539 -8.06195,34.51377 -1.99399,47.93568 9.21994,20.38986 23.59984,47.22168 59.8056,52.50965 -10.17593,-7.10195 -17.91388,-19.72587 -17.37588,-33.77778 0.42999,-11.19792 7.09395,-18.59387 25.66783,-17.82588 15.62189,0.648 26.66582,10.84193 26.66582,29.32381 0,23.81984 -21.70786,36.51975 -50.33367,36.98575 -47.55368,0.774 -103.49931,-48.06768 -103.49931,-120.2912 l 41.24973,-51.72965 c -21.24986,8.57994 -36.74976,-0.418 -36.74976,-16.90789 0,-15.82789 19.66787,-45.81569 66.99956,-39.65173 15.73389,-20.65386 24.16784,-49.98767 24.16784,-78.63748 0,-85.301435 -45.6677,-138.695075 -83.49945,-154.272975 10.05994,10.86993 20.78186,27.84782 20.10987,48.05368 C 140.87106,131.6854 124.58117,199.44494 78.371478,234.89471 55.879627,252.15059 50.621663,250.6386 48.539676,246.05863 36.839754,274.77044 31.247792,316.75416 31.247792,373.00978 c 0,101.29133 22.811848,99.55934 103.875308,182.51079 41.83772,42.81171 76.96949,80.02747 79.41747,130.36913 1.99999,41.14773 -9.16794,77.96548 1.99999,77.96548 l 94.66337,-100.84733 94.66536,100.84733 c 11.16793,0 0.376,-36.80175 1.99999,-77.96548 1.61399,-40.89173 30.5398,-85.08943 78.87548,-136.24309 z" style="fill:url(#linearGradient3045)"/>
</svg>
