<?xml version="1.0" encoding="UTF-8" standalone="no"?>
<svg xmlns="http://www.w3.org/2000/svg" version="1.1" width="600" height="793.99298" viewBox="0 0 600 793.99298" id="C">
  <path d="m 486.74676,547.80062 c 51.12565,-54.10564 81.99945,-90.8394 81.99945,-176.63883 0,-56.25362 -6.34396,-98.23734 -18.04188,-126.95114 -2.08199,4.57996 -7.34195,6.09195 -29.8318,-11.16393 -46.20769,-35.45176 -62.49959,-103.20931 -64.27757,-156.698965 -0.672,-20.20586 10.04793,-37.18575 20.10986,-48.05368 -37.83175,15.5759 -83.49944,68.97154 -83.49944,154.272985 0,28.64981 8.43394,57.98361 24.16784,78.63547 47.33168,-6.16396 66.99955,23.82384 66.99955,39.65173 0,16.49189 -15.4999,25.48783 -36.74975,16.90789 l 41.24972,51.72966 c 0,58.47761 -32.68378,106.30929 -67.97355,106.30929 -20.64786,0 -35.87176,-4.49397 -41.39972,-23.00585 -3.71998,-12.45792 -4.78197,-25.73383 -5.87596,-39.07174 -2.34399,-28.57381 16.83589,-51.55966 55.99963,-69.47154 -20.84187,-3.89997 -38.96574,-11.08992 -51.74966,-24.73983 10.12593,-18.74188 25.37583,-38.36174 41.87572,-54.85363 -11.12592,-1.24999 -36.24976,6.49596 -51.49965,14.8699 -10.96793,6.02196 -18.74988,8.74594 -31.2078,11.82792 -5.16796,-5.99596 -5.56396,-19.60187 -1.00199,-30.81979 9.75193,-23.97784 21.99985,-46.1497 20.49986,-70.80553 -13.69991,13.82191 -25.65583,23.85784 -33.83177,27.82181 -36.95376,17.91388 -54.16564,34.48577 -67.64955,52.35165 -32.52578,20.28587 -55.29163,57.23962 -83.62144,104.7293 -8.56195,14.35191 -8.06195,34.51177 -1.99399,47.93368 9.22194,20.39187 23.59784,47.22169 59.8056,52.50965 -10.17593,-7.10195 -17.91388,-19.72387 -17.37588,-33.77777 0.42999,-11.19793 7.09395,-18.59188 25.66583,-17.82388 15.62189,0.64599 26.66582,10.83992 26.66582,29.3218 0,23.81984 -21.70786,36.51976 -50.33367,36.98375 -47.55368,0.776 -103.49931,-48.06568 -103.49931,-120.28919 l 41.24973,-51.72966 c -21.24986,8.57994 -36.74976,-0.416 -36.74976,-16.90789 0,-15.82789 19.66587,-45.81569 66.99956,-39.65173 15.73389,-20.65186 24.16584,-49.98566 24.16584,-78.63547 0,-85.301445 -45.6657,-138.697085 -83.49945,-154.272985 10.06194,10.86993 20.78186,27.84782 20.10987,48.05368 -1.77799,53.489655 -18.06788,121.247205 -64.277572,156.698965 -22.491851,17.25588 -27.749815,15.74389 -29.833802,11.16393 -11.699922,28.7118 -17.291884,70.69752 -17.291884,126.95114 0,101.29333 22.811848,99.55934 103.875308,182.51079 41.83772,42.81372 76.96949,80.02947 79.41547,130.36913 1.99999,41.14973 -9.16594,77.96548 1.99999,77.96548 l 94.66537,-100.84732 94.66536,100.84732 c 11.16793,0 0.376,-36.79975 1.99999,-77.96548 1.61999,-40.88972 30.5458,-85.08743 78.88148,-136.24109 z"/>
</svg>
