<?xml version="1.0" encoding="utf-8"?>
<!-- Generator: Adobe Illustrator 15.1.0, SVG Export Plug-In . SVG Version: 6.00 Build 0)  -->
<!DOCTYPE svg PUBLIC "-//W3C//DTD SVG 1.1//EN" "http://www.w3.org/Graphics/SVG/1.1/DTD/svg11.dtd">
<svg version="1.1" id="Layer_1" xmlns="http://www.w3.org/2000/svg" xmlns:xlink="http://www.w3.org/1999/xlink" x="0px" y="0px"
	 width="155px" height="155px" viewBox="0 0 155 155" enable-background="new 0 0 155 155" xml:space="preserve">
<g id="Layer_1_1_">
</g>
<g id="Layer_3" display="none">
</g>
<g>
	
		<rect x="71.02" y="71.217" transform="matrix(0.7071 0.7071 -0.7071 0.7071 77.4454 -31.9656)" fill="none" width="12.582" height="12.584"/>
	<path fill="#5D5E61" d="M38.927,90.168l-22.084,31.727C-2.532,95.567-2.532,59.452,16.842,33.126l22.083,31.726L26.268,77.51
		L38.927,90.168z M77.312,26.466l12.659,12.658l31.727-22.083c-26.328-19.375-62.444-19.375-88.77,0l31.727,22.083L77.312,26.466z
		 M77.311,128.552l-12.656-12.656l-31.727,22.084c26.326,19.373,62.441,19.373,88.767,0l-31.727-22.085L77.311,128.552z
		 M137.781,33.126l-22.082,31.727l12.656,12.656l-12.658,12.657l22.084,31.727C157.156,95.567,157.156,59.452,137.781,33.126z
		 M150.727,150.924l-42.77-61.446l11.969-11.969l-11.969-11.968l42.77-61.446L89.281,46.865l-11.969-11.97l-11.97,11.969
		L3.898,4.096l42.769,61.445L34.697,77.51l11.971,11.97l-42.77,61.444l61.446-42.769l11.968,11.967l11.97-11.969L150.727,150.924z
		 M77.311,86.406l-8.897-8.896l8.898-8.897l8.897,8.896L77.311,86.406z"/>
	<path d="M31.185,90.855l-14.139,20.312c-11.631-20.845-11.631-46.47,0-67.314l14.138,20.312L17.839,77.51L31.185,90.855z
		 M137.578,43.854l-14.139,20.311l13.344,13.345l-13.344,13.345l14.139,20.313C149.207,90.321,149.207,64.697,137.578,43.854z
		 M77.312,18.037l13.346,13.347l20.313-14.14c-20.848-11.632-46.47-11.632-67.317,0l20.313,14.139L77.312,18.037z M77.311,136.98
		l-13.345-13.344l-20.312,14.139c20.845,11.63,46.468,11.63,67.314,0l-20.313-14.14L77.311,136.98z M111.496,77.509L100.215,88.79
		l26.619,38.24l-38.242-26.617l-11.281,11.28l-11.28-11.279l-38.24,26.616l26.617-38.239L43.126,77.51l11.281-11.281l-26.617-38.24
		l38.24,26.617l11.281-11.281l11.282,11.282l38.24-26.618l-26.617,38.24L111.496,77.509z M77.312,60.183L59.985,77.51l17.326,17.326
		l17.328-17.327L77.312,60.183z"/>
</g>
</svg>
