<?xml version="1.0" encoding="utf-8"?>
<!-- Generator: Adobe Illustrator 15.1.0, SVG Export Plug-In . SVG Version: 6.00 Build 0)  -->
<!DOCTYPE svg PUBLIC "-//W3C//DTD SVG 1.1//EN" "http://www.w3.org/Graphics/SVG/1.1/DTD/svg11.dtd">
<svg version="1.1" id="Layer_1" xmlns="http://www.w3.org/2000/svg" xmlns:xlink="http://www.w3.org/1999/xlink" x="0px" y="0px"
	 width="155px" height="155px" viewBox="0 0 155 155" enable-background="new 0 0 155 155" xml:space="preserve">
<g id="Layer_1_1_">
</g>
<g id="Layer_3" display="none">
</g>
<g>
	
		<rect x="71.606" y="71.542" transform="matrix(0.7071 0.7071 -0.7071 0.7071 77.846 -32.2846)" fill="none" width="12.582" height="12.584"/>
	<path fill="#FFFFFF" d="M39.513,90.492l-22.084,31.727C-1.946,95.892-1.946,59.776,17.428,33.45l22.083,31.726L26.854,77.834
		L39.513,90.492z M77.897,26.79l12.658,12.658l31.727-22.083c-26.328-19.375-62.443-19.375-88.77,0l31.727,22.083L77.897,26.79z
		 M77.896,128.876L65.24,116.22l-31.727,22.084c26.326,19.373,62.441,19.373,88.767,0l-31.727-22.085L77.896,128.876z
		 M138.367,33.45l-22.083,31.727l12.656,12.656L116.282,90.49l22.084,31.727C157.741,95.892,157.741,59.776,138.367,33.45z
		 M151.312,151.248l-42.77-61.446l11.969-11.969l-11.969-11.968l42.77-61.446L89.867,47.189l-11.97-11.97l-11.97,11.969L4.483,4.42
		l42.769,61.445l-11.97,11.969l11.971,11.97l-42.77,61.444l61.445-42.769l11.968,11.967l11.97-11.969L151.312,151.248z
		 M77.896,86.73l-8.897-8.896l8.898-8.897l8.896,8.896L77.896,86.73z"/>
	<path d="M31.771,91.18l-14.139,20.312c-11.631-20.845-11.631-46.47,0-67.314L31.77,64.488L18.425,77.834L31.771,91.18z
		 M138.163,44.178l-14.139,20.311l13.345,13.345l-13.345,13.345l14.139,20.313C149.793,90.646,149.793,65.021,138.163,44.178z
		 M77.897,18.361l13.346,13.347l20.313-14.14c-20.847-11.632-46.47-11.632-67.316,0l20.313,14.139L77.897,18.361z M77.896,137.305
		l-13.345-13.344L44.24,138.1c20.845,11.63,46.468,11.63,67.313,0l-20.313-14.14L77.896,137.305z M112.081,77.833l-11.28,11.281
		l26.618,38.24l-38.242-26.617l-11.28,11.28l-11.28-11.279l-38.24,26.616l26.617-38.239L43.712,77.834l11.281-11.281l-26.617-38.24
		l38.24,26.617l11.281-11.281l11.281,11.282l38.24-26.618l-26.617,38.24L112.081,77.833z M77.897,60.507L60.57,77.834L77.896,95.16
		l17.327-17.327L77.897,60.507z"/>
</g>
</svg>
