<?xml version="1.0" encoding="UTF-8" standalone="no"?>
<svg xmlns="http://www.w3.org/2000/svg" version="1.1" width="600" height="600">
  <path d="M 300,600 C 134.595,600 0,465.405 0,300 0,134.595 134.595,0 300,0 465.405,0 600,134.595 600,300 600,465.405 465.405,600 300,600" style="fill:#808080"/>
  <path d="m 361.47,425.505 c -21.795,15.825 -46.41,28.89 -58.125,54.795 L 280.08,468.69 c 1.815,-4.8 2.985,-10.305 3.285,-16.635 0.2256,-3.63 -1.41,-8.145 -1.995,-11.835 -0.7044,-3.87 -1.41,-7.8 -2.115,-11.73 -1.41,-7.725 -2.925,-15.525 -4.575,-23.25 -3.21,-15 -6.96,-29.895 -11.475,-44.475 -4.215,-13.95 -9.09,-27.78 -15.12,-41.07 -5.625,-12.435 -12.42,-24.33 -20.745,-35.16 -4.98,-6.39 -10.425,-12.36 -16.17,-18.105 -2.58,-2.52 -5.325,-4.98 -7.845,-7.56 -1.755,-1.875 -3.99,-5.34 -6.795,-5.445 -4.515,-0.18 -6.915,4.86 -8.385,8.37 -1.995,4.755 -3.87,9.15 -6.51,13.65 -2.625,4.515 -6.15,2.4 -10.485,1.59 -5.04,-0.9456 -15.525,-8.61 -17.64,-9.615 -1.875,-0.99 -7.5,-1.995 -8.61,-3.93 -1.11,-1.92 0.7056,-4.8 2.055,-8.19 1.41,-3.285 12.015,-31.995 13.245,-37.395 0.7044,-2.925 1.23,-5.97 1.515,-9.075 0.18,-1.47 1.41,-8.385 0.36,-9.375 -7.68,-7.38 -22.035,-7.965 -31.59,-13.305 5.685,-8.43 9.555,-13.89 13.305,-19.92 33.345,-1.23 61.575,2.64 94.74,1.635 18.045,41.73 41.025,78.585 66.45,113.04 9.375,-3.405 10.485,-15.06 23.265,-15 5.385,0.06 9.375,3.51 12.54,7.44 1.515,1.98 2.865,4.095 4.395,6.09 1.455,2.055 3.75,4.095 4.035,6.795 0.24,2.58 -0.6444,6.735 -2.04,8.91 -24.915,38.955 4.86,91.29 14.295,130.365 m 188.145,5.16 c -3.105,5.97 -6.51,11.895 -10.08,17.64 -5.805,-1.875 -27.96,-8.85 -41.715,-9.495 -37.98,-2.46 -61.71,9.195 -86.49,19.92 l -11.61,-14.94 c 1.41,-1.935 2.88,-3.81 4.455,-5.565 9.09,-10.2 22.44,-16.995 27.48,-30.525 4.98,-13.125 0.36,-27.315 -4.86,-39.555 -5.565,-13.125 -11.595,-26.01 -17.115,-39.075 -6.855,-16.29 -13.755,-32.52 -23.835,-47.115 -1.77,-2.58 -3,-5.985 -5.52,-7.905 -3.915,-2.94 -6.96,0.99 -10.305,2.685 -8.205,4.05 -15.825,-4.56 -21.15,-10.02 -2.82,-2.925 -6.045,-6.675 -6.855,-10.83 -0.9456,-4.815 2.4,-8.445 5.265,-11.895 6.15,-7.335 12.78,-15.06 17.175,-23.565 2.865,-5.385 4.68,-11.595 5.325,-17.685 -7.14,-13.89 -28.35,-13.71 -36.555,-26.55 0.6444,-0.99 1.23,-2.055 1.815,-3.045 2.16,-3.93 4.215,-8.385 7.845,-11.19 4.515,-3.51 9.675,-0.5256 14.25,1.11 5.04,1.815 10.305,2.58 15.585,3.045 5.85,0.4644 11.715,1.41 17.625,1.53 5.22,0.12 10.605,-0.06 15.825,-0.42 7.44,-0.4656 18.63,-4.68 22.86,-4.56 5.385,0.2244 5.67,2.16 10.605,5.205 -0.7056,1.83 -1.1844,3.99 -1.47,6.27 -0.7056,5.34 -0.4644,10.725 -0.3,16.005 0.24,5.685 -0.108,11.715 0.7656,17.46 1.0056,6.15 3.93,11.475 6.21,17.22 2.4,6.105 4.98,12.195 7.62,18.285 5.28,11.835 10.905,23.55 16.59,35.22 11.415,23.49 22.905,46.875 32.04,71.31 4.515,12.18 8.79,24.6 11.37,37.32 3.045,15.285 18.225,30.285 30.36,39.195 1.98,1.47 4.62,3.165 6.795,4.515 m -392.52,11.43 c 3.75,-1.23 0.6444,-9.315 1.635,-13.245 -8.145,-4.695 -15.825,-9.735 -19.98,-18.285 -1.11,-2.34 0.3456,-8.49 0.5844,-11.01 0.3456,-3.63 0.7656,-7.275 1.35,-10.785 1.05,-6.675 2.58,-13.185 4.455,-19.695 3.51,-12 8.31,-23.55 13.125,-35.145 2.865,-6.855 10.545,-27.96 11.895,-31.53 1.05,-2.745 2.64,-5.97 1.23,-9.075 -1.11,-2.46 -3.405,-3 -5.625,-4.05 -2.46,-1.23 -12.54,-6.39 -15.24,-7.26 -2.16,-0.7656 -6.855,-3.69 -9.015,-2.64 -2.355,1.11 -7.155,10.95 -8.265,13.005 -2.52,4.695 -4.755,9.555 -6.795,14.415 -4.815,11.25 -8.85,22.8 -12.78,34.455 -7.095,20.925 -13.125,42.78 -23.085,62.64 -7.5,14.94 -19.215,29.58 -34.395,37.32 3.51,6.03 7.26,12.015 11.25,17.76 19.695,-15.765 54.09,-22.395 89.655,-16.875 m 339.66,14.94 -0.18,0 c -2.985,-0.18 -5.97,-0.3 -8.835,-0.3 -15.705,0 -28.665,2.94 -40.785,7.155 -39.03,34.98 -90.525,56.31 -146.955,56.31 -58.83,0 -112.32,-23.145 -151.815,-60.825 -5.28,-0.5844 -10.545,-0.93 -15.705,-0.93 -22.62,0 -42.78,5.73 -54.255,15.285 51.555,65.745 131.715,107.985 221.775,107.985 94.335,0 177.885,-46.395 228.99,-117.6 -10.14,-3.105 -24.15,-6.675 -32.115,-7.08 l -0.12,0 z M 47.58,425.1 l -0.06,0 C 28.83,387.42 18.285,344.94 18.285,300 18.285,144.435 144.435,18.285 300,18.285 c 155.565,0 281.715,126.15 281.715,281.715 0,40.665 -8.61,79.215 -24.075,114.075 -1.53,-0.87 -2.985,-1.92 -4.05,-2.685 -12.36,-9.03 -21.675,-20.34 -23.265,-28.065 -2.865,-14.415 -7.725,-28.365 -12.06,-40.02 -0.5256,-1.35 -1.0656,-2.7 -1.53,-3.99 C 519.03,326.55 520.2,313.425 520.2,300 520.2,178.53 421.41,79.74 300,79.74 178.59,79.74 79.8,178.53 79.8,300 c 0,20.925 2.88,41.19 8.385,60.3 -4.11,12.48 -8.385,24.315 -13.95,35.385 C 67.32,409.395 57.6,420.12 47.58,425.1"/>
</svg>
