<?xml version="1.0" encoding="UTF-8" standalone="no"?>
<svg xmlns="http://www.w3.org/2000/svg" xmlns:xlink="http://www.w3.org/1999/xlink" version="1.1" width="600" height="600">
  <radialGradient cx="0" cy="0" r="1" fx="0" fy="0" id="radialGradient594" gradientUnits="userSpaceOnUse" gradientTransform="matrix(20,0,0,-20,218.16553,146.29297)" spreadMethod="pad">
    <stop style="stop-color:#ebd491" offset="0"/>
    <stop style="stop-color:#d2bb7b" offset="0.7"/>
    <stop style="stop-color:#8b723c" offset="1"/>
  </radialGradient>
  <radialGradient cx="0" cy="0" r="1" fx="0" fy="0" id="radialGradient5760" xlink:href="#radialGradient594" gradientUnits="userSpaceOnUse" gradientTransform="matrix(20,0,0,-20,218.16553,146.29297)" spreadMethod="pad"/>
  <radialGradient cx="0" cy="0" r="1" fx="0" fy="0" id="radialGradient2994" xlink:href="#radialGradient594" gradientUnits="userSpaceOnUse" gradientTransform="matrix(20,0,0,-20,218.16553,146.29297)" spreadMethod="pad"/>
  <radialGradient cx="0" cy="0" r="1" fx="0" fy="0" id="radialGradient2997" xlink:href="#radialGradient594" gradientUnits="userSpaceOnUse" gradientTransform="matrix(300,0,0,300,300.02294,300.00046)" spreadMethod="pad"/>
  <path d="m 0,300 c 0,165.405 134.655,300 300,300 l 0,0 c 165.465,0 300,-134.595 300,-300 l 0,0 C 600,134.535 465.465,0 300,0 l 0,0 C 134.655,0 0,134.535 0,300" style="fill:url(#radialGradient2997)"/>
  <path d="m 361.53,425.505 c -21.855,15.825 -46.41,28.89 -58.185,54.795 L 280.08,468.69 c 1.875,-4.8 2.985,-10.305 3.345,-16.635 0.1656,-3.63 -1.41,-8.145 -2.055,-11.835 -0.7044,-3.87 -1.41,-7.8 -2.115,-11.73 -1.395,-7.725 -2.925,-15.525 -4.56,-23.25 -3.225,-15 -6.975,-29.895 -11.43,-44.475 -4.275,-13.95 -9.09,-27.78 -15.12,-41.07 -5.685,-12.435 -12.42,-24.33 -20.805,-35.16 -4.92,-6.39 -10.425,-12.36 -16.17,-18.105 -2.58,-2.52 -5.325,-4.98 -7.845,-7.56 -1.71,-1.875 -3.99,-5.34 -6.735,-5.445 -4.515,-0.18 -6.915,4.86 -8.385,8.37 -2.055,4.755 -3.87,9.15 -6.51,13.65 -2.625,4.515 -6.15,2.4 -10.485,1.59 -5.1,-0.9456 -15.585,-8.61 -17.64,-9.615 -1.935,-0.99 -7.56,-1.995 -8.67,-3.93 -1.11,-1.92 0.7656,-4.8 2.115,-8.19 1.35,-3.285 11.955,-31.995 13.245,-37.395 0.7044,-2.925 1.17,-5.97 1.515,-9.075 0.12,-1.47 1.35,-8.385 0.3,-9.375 -7.62,-7.38 -21.975,-7.965 -31.59,-13.305 5.685,-8.43 9.555,-13.89 13.305,-19.92 33.405,-1.23 61.575,2.64 94.74,1.635 18.105,41.73 41.085,78.585 66.51,113.04 9.315,-3.405 10.425,-15.06 23.265,-15 5.325,0.06 9.315,3.51 12.48,7.44 1.575,1.98 2.925,4.095 4.395,6.09 1.515,2.055 3.75,4.095 4.035,6.795 0.24,2.58 -0.5844,6.735 -1.995,8.91 -24.9,38.955 4.815,91.29 14.31,130.365 m 188.145,5.16 c -3.165,5.97 -6.51,11.895 -10.08,17.64 -5.805,-1.875 -27.96,-8.85 -41.775,-9.495 -37.92,-2.46 -61.71,9.195 -86.43,19.92 l -11.67,-14.94 c 1.41,-1.935 2.88,-3.81 4.455,-5.565 9.15,-10.2 22.44,-16.995 27.54,-30.525 4.92,-13.125 0.3,-27.315 -4.92,-39.555 -5.505,-13.125 -11.535,-26.01 -17.055,-39.075 -6.9,-16.29 -13.815,-32.52 -23.895,-47.115 -1.755,-2.58 -2.985,-5.985 -5.505,-7.905 -3.87,-2.94 -6.915,0.99 -10.32,2.685 -8.205,4.05 -15.825,-4.56 -21.15,-10.02 -2.82,-2.925 -6.03,-6.675 -6.795,-10.83 -1.0056,-4.815 2.34,-8.445 5.265,-11.895 6.105,-7.335 12.72,-15.06 17.175,-23.565 2.805,-5.385 4.62,-11.595 5.325,-17.685 -7.14,-13.89 -28.35,-13.71 -36.555,-26.55 0.5844,-0.99 1.17,-2.055 1.755,-3.045 2.22,-3.93 4.215,-8.385 7.905,-11.19 4.455,-3.51 9.675,-0.5256 14.25,1.11 4.98,1.815 10.245,2.58 15.525,3.045 5.85,0.4644 11.775,1.41 17.685,1.53 5.16,0.12 10.56,-0.06 15.765,-0.42 7.5,-0.4656 18.69,-4.68 22.86,-4.56 5.385,0.2244 5.73,2.16 10.605,5.205 -0.7056,1.83 -1.17,3.99 -1.47,6.27 -0.6456,5.34 -0.4044,10.725 -0.24,16.005 0.18,5.685 -0.1644,11.715 0.7656,17.46 0.9456,6.15 3.87,11.475 6.15,17.22 2.46,6.105 4.98,12.195 7.68,18.285 5.22,11.835 10.845,23.55 16.53,35.22 11.415,23.49 22.965,46.875 32.1,71.31 4.515,12.18 8.73,24.6 11.31,37.32 3.045,15.285 18.285,30.285 30.36,39.195 1.98,1.47 4.62,3.165 6.855,4.515 m -392.58,11.43 c 3.75,-1.23 0.6444,-9.315 1.635,-13.245 -8.085,-4.695 -15.825,-9.735 -19.92,-18.285 -1.11,-2.34 0.3456,-8.49 0.5844,-11.01 0.3,-3.63 0.7656,-7.275 1.29,-10.785 1.05,-6.675 2.58,-13.185 4.455,-19.695 3.51,-12 8.37,-23.55 13.185,-35.145 2.865,-6.855 10.545,-27.96 11.895,-31.53 0.99,-2.745 2.58,-5.97 1.23,-9.075 -1.17,-2.46 -3.465,-3 -5.685,-4.05 -2.46,-1.23 -12.48,-6.39 -15.18,-7.26 -2.22,-0.7656 -6.915,-3.69 -9.075,-2.64 -2.355,1.11 -7.155,10.95 -8.205,13.005 -2.58,4.695 -4.755,9.555 -6.855,14.415 -4.755,11.25 -8.79,22.8 -12.72,34.455 -7.14,20.925 -13.125,42.78 -23.145,62.64 -7.5,14.94 -19.215,29.58 -34.395,37.32 3.57,6.03 7.275,12.015 11.25,17.76 19.755,-15.765 54.15,-22.395 89.655,-16.875 m 339.66,14.94 -0.12,0 c -3.045,-0.18 -6.03,-0.3 -8.895,-0.3 -15.705,0 -28.65,2.94 -40.785,7.155 -38.97,34.98 -90.525,56.31 -146.955,56.31 -58.77,0 -112.26,-23.145 -151.815,-60.825 -5.28,-0.5844 -10.485,-0.93 -15.705,-0.93 -22.56,0 -42.765,5.73 -54.255,15.285 C 129.78,539.475 210,581.715 300,581.715 c 94.395,0 177.885,-46.395 228.99,-117.6 -10.08,-3.105 -24.15,-6.675 -32.055,-7.08 l -0.18,0 z M 47.58,425.1 l 0,0 C 28.83,387.42 18.285,344.94 18.285,300 18.285,144.435 144.435,18.285 300,18.285 c 155.625,0 281.715,126.15 281.715,281.715 0,40.665 -8.61,79.215 -24.075,114.075 -1.47,-0.87 -2.985,-1.92 -3.99,-2.685 -12.36,-9.03 -21.735,-20.34 -23.265,-28.065 -2.925,-14.415 -7.785,-28.365 -12.12,-40.02 -0.4656,-1.35 -1.0056,-2.7 -1.53,-3.99 C 519.03,326.55 520.26,313.425 520.26,300 520.26,178.53 421.47,79.74 300,79.74 178.59,79.74 79.8,178.53 79.8,300 c 0,20.925 2.94,41.19 8.385,60.3 C 84.09,372.78 79.8,384.615 74.295,395.685 67.38,409.395 57.66,420.12 47.58,425.1"/>
</svg>
