<?xml version="1.0" encoding="UTF-8" standalone="no"?>
<svg
   version="1.1"
   width="600"
   height="600"
   id="svg16"
   sodipodi:docname="T.svg"
   inkscape:version="1.1.1 (3bf5ae0d25, 2021-09-20)"
   xmlns:inkscape="http://www.inkscape.org/namespaces/inkscape"
   xmlns:sodipodi="http://sodipodi.sourceforge.net/DTD/sodipodi-0.dtd"
   xmlns:xlink="http://www.w3.org/1999/xlink"
   xmlns="http://www.w3.org/2000/svg"
   xmlns:svg="http://www.w3.org/2000/svg">
  <defs
     id="defs20" />
  <sodipodi:namedview
     id="namedview18"
     pagecolor="#ffffff"
     bordercolor="#666666"
     borderopacity="1.0"
     inkscape:pageshadow="2"
     inkscape:pageopacity="0.0"
     inkscape:pagecheckerboard="0"
     showgrid="false"
     inkscape:zoom="1.1983"
     inkscape:cx="299.58"
     inkscape:cy="299.58"
     inkscape:window-width="1920"
     inkscape:window-height="986"
     inkscape:window-x="-11"
     inkscape:window-y="-11"
     inkscape:window-maximized="1"
     inkscape:current-layer="svg16" />
  <radialGradient
     cx="0"
     cy="0"
     r="1"
     fx="0"
     fy="0"
     id="radialGradient580"
     gradientUnits="userSpaceOnUse"
     gradientTransform="matrix(20,0,0,-20,135.64062,146.29297)"
     spreadMethod="pad">
    <stop
       style="stop-color:#bf99c3"
       offset="0"
       id="stop2" />
    <stop
       style="stop-color:#7b5190"
       offset="0.7"
       id="stop4" />
    <stop
       style="stop-color:#612c75"
       offset="1"
       id="stop6" />
  </radialGradient>
  <radialGradient
     cx="0"
     cy="0"
     r="1"
     fx="0"
     fy="0"
     id="radialGradient5693"
     xlink:href="#radialGradient580"
     gradientUnits="userSpaceOnUse"
     gradientTransform="matrix(20,0,0,-20,135.64062,146.29297)"
     spreadMethod="pad" />
  <radialGradient
     cx="0"
     cy="0"
     r="1"
     fx="0"
     fy="0"
     id="radialGradient2994"
     xlink:href="#radialGradient580"
     gradientUnits="userSpaceOnUse"
     gradientTransform="matrix(20,0,0,-20,135.64062,146.29297)"
     spreadMethod="pad" />
  <radialGradient
     cx="0"
     cy="0"
     r="1"
     fx="0"
     fy="0"
     id="radialGradient2997"
     xlink:href="#radialGradient580"
     gradientUnits="userSpaceOnUse"
     gradientTransform="matrix(300,0,0,300,299.9943,300.00046)"
     spreadMethod="pad" />
  <path
     d="m 0,300 c 0,165.405 134.58,300 300,300 l 0,0 c 165.465,0 300,-134.595 300,-300 l 0,0 C 600,134.535 465.465,0 300,0 l 0,0 C 134.58,0 0,134.535 0,300"
     style="fill:url(#radialGradient2997)"
     id="path12" />
  <path
     d="M 361.455,425.505 C 339.66,441.33 315.06,454.395 303.33,480.3 l -23.265,-11.61 c 1.83,-4.8 3,-10.305 3.285,-16.635 0.24,-3.63 -1.395,-8.145 -1.995,-11.835 -0.69,-3.87 -1.395,-7.8 -2.1,-11.73 -1.41,-7.725 -2.94,-15.525 -4.575,-23.25 -3.225,-15 -6.975,-29.895 -11.43,-44.475 -4.275,-13.95 -9.135,-27.78 -15.165,-41.07 -5.625,-12.435 -12.42,-24.33 -20.745,-35.16 -4.98,-6.39 -10.425,-12.36 -16.17,-18.105 -2.58,-2.52 -5.34,-4.98 -7.86,-7.56 -1.695,-1.875 -3.975,-5.34 -6.795,-5.445 -4.515,-0.18 -6.915,4.86 -8.37,8.37 -1.995,4.755 -3.87,9.15 -6.51,13.65 -2.64,4.515 -6.15,2.4 -10.425,1.59 -5.1,-0.9456 -15.585,-8.61 -17.7,-9.615 -1.875,-0.99 -7.5,-1.995 -8.61,-3.93 -1.11,-1.92 0.7056,-4.8 2.055,-8.19 1.395,-3.285 12,-31.995 13.23,-37.395 0.7056,-2.925 1.23,-5.97 1.53,-9.075 0.18,-1.47 1.41,-8.385 0.3456,-9.375 -7.605,-7.38 -21.975,-7.965 -31.575,-13.305 5.685,-8.43 9.555,-13.89 13.305,-19.92 33.33,-1.23 61.575,2.64 94.74,1.635 18.105,41.73 41.01,78.585 66.45,113.04 9.375,-3.405 10.485,-15.06 23.25,-15 5.4,0.06 9.375,3.51 12.54,7.44 1.53,1.98 2.88,4.095 4.395,6.09 1.53,2.055 3.75,4.095 4.05,6.795 0.24,2.58 -0.5844,6.735 -1.995,8.91 -24.9,38.955 4.8,91.29 14.235,130.365 m 188.145,5.16 c -3.105,5.97 -6.495,11.895 -10.08,17.64 -5.79,-1.875 -27.885,-8.85 -41.715,-9.495 -37.905,-2.46 -61.695,9.195 -86.49,19.92 l -11.595,-14.94 c 1.41,-1.935 2.865,-3.81 4.455,-5.565 9.075,-10.2 22.44,-16.995 27.54,-30.525 4.92,-13.125 0.2856,-27.315 -4.92,-39.555 -5.565,-13.125 -11.61,-26.01 -17.115,-39.075 -6.855,-16.29 -13.83,-32.52 -23.85,-47.115 -1.755,-2.58 -2.985,-5.985 -5.505,-7.905 -3.93,-2.94 -6.975,0.99 -10.305,2.685 -8.205,4.05 -15.825,-4.56 -21.165,-10.02 -2.805,-2.925 -6.03,-6.675 -6.855,-10.83 -0.93,-4.815 2.415,-8.445 5.28,-11.895 6.15,-7.335 12.78,-15.06 17.175,-23.565 2.865,-5.385 4.68,-11.595 5.385,-17.685 -7.215,-13.89 -28.425,-13.71 -36.63,-26.55 0.6456,-0.99 1.245,-2.055 1.83,-3.045 2.16,-3.93 4.215,-8.385 7.845,-11.19 4.515,-3.51 9.675,-0.5256 14.295,1.11 4.98,1.815 10.26,2.58 15.525,3.045 5.865,0.4644 11.73,1.41 17.7,1.53 5.16,0.12 10.545,-0.06 15.765,-0.42 7.5,-0.4656 18.69,-4.68 22.845,-4.56 5.4,0.2244 5.745,2.16 10.605,5.205 -0.7044,1.83 -1.17,3.99 -1.455,6.27 -0.7056,5.34 -0.48,10.725 -0.24,16.005 0.18,5.685 -0.18,11.715 0.7656,17.46 0.93,6.15 3.87,11.475 6.15,17.22 2.4,6.105 4.98,12.195 7.62,18.285 5.265,11.835 10.89,23.55 16.575,35.22 11.43,23.49 22.92,46.875 32.115,71.31 4.455,12.18 8.73,24.6 11.31,37.32 3.045,15.285 18.225,30.285 30.345,39.195 1.995,1.47 4.635,3.165 6.795,4.515 m -392.52,11.43 c 3.75,-1.23 0.6456,-9.315 1.65,-13.245 -8.085,-4.695 -15.825,-9.735 -19.92,-18.285 -1.1244,-2.34 0.3456,-8.49 0.5244,-11.01 0.3456,-3.63 0.75,-7.275 1.35,-10.785 1.05,-6.675 2.565,-13.185 4.44,-19.695 3.525,-12 8.325,-23.55 13.125,-35.145 2.88,-6.855 10.56,-27.96 11.895,-31.53 1.0656,-2.745 2.64,-5.97 1.23,-9.075 -1.11,-2.46 -3.39,-3 -5.625,-4.05 -2.46,-1.23 -12.48,-6.39 -15.225,-7.26 -2.175,-0.7656 -6.855,-3.69 -9.03,-2.64 -2.34,1.11 -7.14,10.95 -8.265,13.005 -2.52,4.695 -4.74,9.555 -6.795,14.415 -4.8,11.25 -8.85,22.8 -12.765,34.455 -7.095,20.925 -13.125,42.78 -23.085,62.64 -7.5,14.94 -19.23,29.58 -34.395,37.32 3.51,6.03 7.26,12.015 11.25,17.76 19.68,-15.765 54.075,-22.395 89.64,-16.875 m 339.675,14.94 -0.12,0 c -3.045,-0.18 -6.03,-0.3 -8.91,-0.3 -15.705,0 -28.65,2.94 -40.77,7.155 -38.97,34.98 -90.54,56.31 -146.955,56.31 -58.83,0 -112.275,-23.145 -151.815,-60.825 -5.28,-0.5844 -10.56,-0.93 -15.705,-0.93 -22.62,0 -42.78,5.73 -54.27,15.285 51.57,65.745 131.73,107.985 221.79,107.985 94.335,0 177.885,-46.395 228.975,-117.6 -10.14,-3.105 -24.135,-6.675 -32.1,-7.08 l -0.12,0 z m -449.19,-31.935 -0.048,0 c -18.705,-37.68 -29.25,-80.16 -29.25,-125.1 0,-155.565 126.165,-281.715 281.73,-281.715 155.565,0 281.715,126.15 281.715,281.715 0,40.665 -8.61,79.215 -24.09,114.075 -1.455,-0.87 -2.985,-1.92 -4.035,-2.685 -12.36,-9.03 -21.675,-20.34 -23.205,-28.065 -2.925,-14.415 -7.8,-28.365 -12.135,-40.02 -0.5244,-1.35 -1.05,-2.7 -1.515,-3.99 2.28,-12.765 3.45,-25.89 3.45,-39.315 0,-121.47 -98.79,-220.26 -220.185,-220.26 -121.41,0 -220.2,98.79 -220.2,220.26 0,20.925 2.925,41.19 8.385,60.3 -4.11,12.48 -8.385,24.315 -13.95,35.385 -6.855,13.71 -16.65,24.435 -26.67,29.415"
     id="path14"
     style="fill:#ffffff;fill-opacity:1" />
</svg>
