<?xml version="1.0" encoding="UTF-8" standalone="no"?>
<svg xmlns="http://www.w3.org/2000/svg" xmlns:xlink="http://www.w3.org/1999/xlink" version="1.1" width="600" height="604.02698" viewBox="0 0 599.99998 604.02697">
  <g transform="translate(-82.347056,-5533.8562)" id="Layer_1" style="display:none">
</g>
  <path d="m 300.00003,603.52092 c 89.86777,-0.3541 194.22584,-13.5869 240.58136,-79.124 62.51232,-70.378 34.75685,-156.3434 17.97296,-177.1234 -1.54172,-1.7427 -1.95063,-6.4679 0.82131,-7.9052 13.7573,-5.9546 39.33586,1.7817 40.08514,-37.9302 1.22203,-64.7708 -25.79345,-156.6497 -81.73977,-199.8083 -3.90505,-3.123999 -3.90505,-6.716399 -2.4992,-12.651999 14.83866,-63.7287 -8.87529,-91.5320003 -66.82478,-54.9817 -3.74871,2.0307 -6.87271,2.9678 -11.24621,0.781 -33.69268,-16.6809 -87.41533,-34.27760028 -137.15091,-34.27760028 -49.73548,0 -103.45823,17.59670028 -137.1509,34.27760028 -4.3735,2.1868 -7.49751,1.2496 -11.24621,-0.781 -57.949496,-36.5502003 -81.663436,-8.747 -66.824676,54.9818 1.40575,5.9355 1.40575,9.528 -2.4992,12.651999 -55.94632,43.1586 -82.96179956,135.0374 -81.73977256,199.8083 0.74928106,39.7119 26.32774256,31.9756 40.08494256,37.9302 2.77204,1.4373 2.36293,6.1625 0.82141,7.9052 -16.7839,20.7801 -44.5392665,106.7454 17.97295,177.1234 46.355716,65.537 150.713786,79.4781 240.581556,79.1239 z" style="fill:#808080;stroke:#808080;stroke-width:0.99904144"/>
  <path d="m 300.00003,570.27142 c 138.04924,0 244.77784,-50.8607 244.28751,-157.122 -0.22848,-49.4916 -100.81247,-132.6001 -106.26174,-182.5521 -4.12654,-37.8256 35.01,-127.1615 49.15713,-167.359399 1.60766,-4.5676 -0.82601,-7.1091 -3.21801,-8.7039 -2.11228,-1.4081 -7.44516,-0.6893 -9.49249,2.6818 -25.31851,41.6952 -85.72845,146.509099 -84.58235,190.637599 1.81646,69.9329 74.15755,117.4058 74.47405,160.7548 0.49032,67.208 -74.45067,76.2905 -164.3642,76.2905 -89.91352,0 -164.85452,-9.0825 -164.36409,-76.2905 0.3164,-43.3491 72.65749,-90.8219 74.47394,-160.7548 1.1463,-44.1285 -59.26393,-148.942499 -84.58244,-190.637599 -2.04704,-3.3711 -7.38022,-4.0899 -9.49239,-2.6818 -2.39201,1.5947 -4.82567,4.1362 -3.21811,8.7039 14.14722,40.197899 53.28367,129.533899 49.15723,167.359399 -5.44927,49.952 -106.033256,133.0605 -106.261636,182.5521 -0.49023,106.2613 106.238356,157.122 244.287596,157.122 z" style="stroke:#000000"/>
  <path d="m 300.00013,443.67432 c 0,0 18.67588,0.018 22.44657,0.018 0.63479,0 1.58907,-0.7036 1.58597,-1.9786 -0.0332,-13.7431 -0.0286,-102.7097 -0.0286,-131.7441 0,-1.6984 1.06088,-2.5772 2.66414,-2.5921 4.41667,-0.041 13.11552,-0.1053 16.90638,-0.1239 3.45898,-0.017 10.66197,0.8845 13.18475,-4.1952 2.34715,-4.7259 -0.37524,-10.0473 -2.99652,-11.3867 -6.74733,-3.4479 -16.53793,-2.0493 -16.7805,-15.582 -0.15855,-8.8445 8.11211,-13.841 12.83049,-13.841 3.39674,0 5.05715,-1.799 5.14876,-6.1941 0.19551,-9.3747 0.50721,-31.1701 4.50338,-43.9578 13.18744,-47.0548 53.249,-122.782199 65.26937,-137.977999 1.36079,-1.7202 -0.43149,-3.2864 -0.43149,-3.2864 0,0 -40.99916,-29.8693 -124.30263,-29.8693 -83.30347,0 -124.30263,29.8694 -124.30263,29.8694 0,0 -1.79238,1.5662 -0.43168,3.2864 12.02056,15.1958 52.08212,90.923199 65.26947,137.977999 3.99617,12.7877 4.30787,34.5831 4.50338,43.9578 0.0916,4.3951 1.75202,6.1941 5.14876,6.1941 4.71837,0 12.98894,4.9965 12.83049,13.841 -0.24257,13.5327 -10.03318,12.1341 -16.7806,15.582 -2.62119,1.3394 -5.34357,6.6608 -2.99643,11.3867 2.52268,5.0796 9.72577,4.1781 13.18475,4.1952 3.79077,0.019 12.48972,0.083 16.90638,0.1239 1.60326,0.015 2.66414,0.8937 2.66414,2.5921 0,29.0344 0.005,118.001 -0.0286,131.7441 -0.003,1.275 0.95119,1.9786 1.58588,1.9786 3.77068,0 22.44656,-0.018 22.44656,-0.018 z" style="stroke:#000000"/>
  <path d="m 33.654194,294.56752 c 0.314,-81.7549 49.45775,-147.0919 64.47374,-162.475 0.65547,-0.7518 1.52134,-0.3522 2.008966,0.708 7.25564,16.8553 19.72628,55.8185 25.09802,76.4923 0.35606,1.5382 0.023,2.7037 -1.2524,3.6632 -22.49551,14.5971 -62.163746,48.543 -62.331686,81.3615 -0.0319,1.2488 -0.75617,2.3228 -2.2964,2.2977 -7.7134,0.031 -16.54242,-0.075 -23.8594,-0.1582 -0.91183,-0.017 -1.81826,-0.865 -1.84084,-1.8895 z" style="stroke:#000000;stroke-width:0.99904144"/>
  <path d="m 566.34587,294.56752 c -0.314,-81.7549 -49.45784,-147.0919 -64.47363,-162.475 -0.65568,-0.7518 -1.52144,-0.3522 -2.00898,0.708 -7.25573,16.8553 -19.72637,55.8185 -25.09821,76.4923 -0.35596,1.5382 -0.023,2.7037 1.25249,3.6632 22.49542,14.5971 62.16356,48.543 62.3316,81.3615 0.0318,1.2488 0.75607,2.3228 2.29639,2.2977 7.7133,0.031 16.54233,-0.075 23.85931,-0.1582 0.81662,-0.033 1.84693,-0.9918 1.84103,-1.8895 z" style="stroke:#000000;stroke-width:0.99904144"/>
</svg>
