<?xml version="1.0" encoding="UTF-8" standalone="no"?>
<svg
   version="1.1"
   width="800"
   height="805.37"
   viewBox="0 0 800 805.37"
   xmlns="http://www.w3.org/2000/svg">
  <linearGradient
     x1="404.59"
     y1="5788.4"
     x2="5756.2"
     y2="474.98"
     id="linearGradient3114"
     gradientUnits="userSpaceOnUse"
     gradientTransform="matrix(0.13321,0,0,0.13321,-11.03,-12.137)"
	 spreadMethod="pad">
    <stop style="stop-color:#8b723c" offset="0"/>
    <stop style="stop-color:#d2bb7b" offset="0.3"/>
    <stop style="stop-color:#ebd491" offset="0.5"/>
    <stop style="stop-color:#d2bb7b" offset="0.7"/>
    <stop style="stop-color:#8b723c" offset="1"/>
	     </linearGradient>
  <path
     d="m 400,804.69 c 119.82,-0.47 258.97,-18.11 320.78,-105.49 83.34,-93.84 46.34,-208.46 23.96,-236.17 -2.06,-2.32 -2.6,-8.62 1.09,-10.54 18.35,-7.94 52.45,2.38 53.45,-50.57 1.63,-86.36 -34.39,-208.87 -108.99,-266.41 -5.2,-4.17 -5.2,-8.96 -3.33,-16.87 19.79,-84.975 -11.83,-122.0456 -89.1,-73.312 -5,2.708 -9.16,3.957 -14.99,1.041 C 537.94,24.128 466.31,0.66602 400,0.66602 c -66.31,0 -137.94,23.46198 -182.87,45.70298 -5.83,2.916 -9.99,1.667 -14.99,-1.041 -77.27,-48.7334 -108.887,-11.663 -89.1,73.312 1.87,7.91 1.87,12.7 -3.33,16.87 C 35.11,193.05 -0.91033,315.56 0.71904,401.92 1.7181,454.87 35.823,444.55 54.166,452.49 c 3.696,1.92 3.15,8.22 1.095,10.54 C 32.882,490.74 -4.1248,605.36 79.225,699.2 141.03,786.58 280.18,805.17 400,804.69 Z"/>
  <path
     style="fill:url(#linearGradient3114)"
     d="m 399.94,54.711 c -111.07,0 -165.74,39.826 -165.74,39.826 0,0 -2.39,2.087 -0.57,4.381 16.02,20.262 69.44,121.232 87.02,183.972 5.33,17.05 5.75,46.11 6.01,58.61 0.12,5.86 2.33,8.26 6.86,8.26 6.29,0 17.32,6.66 17.11,18.45 -0.32,18.05 -13.38,16.18 -22.37,20.78 -3.5,1.78 -7.13,8.88 -4,15.18 3.36,6.77 12.97,5.57 17.58,5.6 5.05,0 16.65,0.11 22.54,0.16 2.14,0 3.55,1.19 3.55,3.46 0,38.71 0,157.33 0,175.65 0,1.7 1.26,2.64 2.11,2.64 5.03,0 29.93,0 29.93,0 v 0 c 0,0 24.9,0 29.93,0 0.84,0 2.12,-0.94 2.11,-2.64 0,-18.32 0,-136.94 0,-175.65 0,-2.27 1.41,-3.44 3.55,-3.46 5.88,-0.1 17.48,-0.14 22.54,-0.16 4.61,0 14.22,1.17 17.58,-5.6 3.13,-6.3 -0.5,-13.4 -4,-15.18 -8.99,-4.6 -22.05,-2.73 -22.37,-20.78 -0.21,-11.79 10.81,-18.45 17.11,-18.45 4.52,0 6.74,-2.4 6.86,-8.26 0.26,-12.5 0.68,-41.56 6.01,-58.61 17.58,-62.74 70.99,-163.71 87.02,-183.972 1.82,-2.294 -0.57,-4.381 -0.57,-4.381 0,0 -54.67,-39.826 -165.74,-39.826 z M 157.43,71.939 c -1.1,0.104 -2.07,0.396 -2.78,0.866 -3.19,2.126 -6.43,5.515 -4.29,11.605 18.86,53.6 71.05,172.71 65.54,223.15 -7.26,66.6 -141.373,177.41 -141.677,243.4 -0.654,141.68 141.647,209.5 325.717,209.5 184.07,0 326.37,-67.82 325.72,-209.5 -0.31,-65.99 -134.42,-176.8 -141.69,-243.4 -5.5,-50.44 46.68,-169.55 65.55,-223.15 2.14,-6.09 -1.11,-9.479 -4.3,-11.605 -2.81,-1.878 -9.92,-0.919 -12.65,3.576 -33.76,55.589 -114.31,195.349 -112.78,254.179 2.42,93.25 98.88,156.55 99.3,214.34 0.66,89.61 -99.27,101.72 -219.15,101.72 -119.89,0 -219.81,-12.11 -219.15,-101.72 0.42,-57.79 96.87,-121.09 99.3,-214.34 1.52,-58.83 -79.02,-198.59 -112.78,-254.179 -2.05,-3.371 -6.56,-4.753 -9.88,-4.442 z M 131.47,175.74 c -0.24,0.1 -0.47,0.23 -0.69,0.48 -20.02,20.51 -85.551,107.62 -85.969,216.63 0.03,1.37 1.239,2.5 2.455,2.52 9.756,0.11 21.528,0.25 31.812,0.21 2.054,0 3.02,-1.4 3.063,-3.06 0.224,-43.76 53.119,-89.02 83.109,-108.48 1.7,-1.28 2.14,-2.84 1.67,-4.89 -7.16,-27.56 -23.79,-79.52 -33.46,-101.99 -0.49,-1.06 -1.26,-1.62 -1.99,-1.42 z m 536.94,0 c -0.73,-0.2 -1.5,0.36 -1.99,1.42 -9.67,22.47 -26.3,74.43 -33.46,101.99 -0.48,2.05 0,3.61 1.67,4.89 29.99,19.46 82.88,64.72 83.11,108.48 0,1.66 1.01,3.09 3.06,3.06 10.28,0 22.06,-0.1 31.81,-0.21 1.09,0 2.46,-1.32 2.46,-2.52 -0.42,-109.01 -65.95,-196.12 -85.97,-216.63 -0.22,-0.25 -0.45,-0.41 -0.69,-0.48 z" />
</svg>
