<?xml version="1.0" encoding="UTF-8"?>
<svg xmlns="http://www.w3.org/2000/svg" width="143pt" height="200pt" viewBox="0 0 143 200">
    <path d=" M 0.00 0.00 L 143.00 0.00 L 143.00 200.00 L 0.00 200.00 L 0.00 0.00 M 10.00 9.00 C 9.99 22.24 10.02 35.47 9.98 48.71 C 10.43 48.60 11.32 48.38 11.76 48.27 C 24.43 50.40 37.20 52.84 50.11 52.18 C 52.86 51.62 54.81 49.42 56.98 47.82 C 64.93 41.33 75.74 39.43 85.74 40.59 C 95.12 41.59 104.61 45.82 110.26 53.60 C 116.81 62.08 117.59 73.80 114.89 83.85 C 111.57 94.02 101.32 98.79 93.18 104.50 C 99.83 117.11 108.62 128.35 117.28 139.60 C 119.88 142.74 121.39 146.85 124.78 149.27 C 127.64 150.64 130.92 150.61 134.00 151.19 C 134.01 103.79 134.00 56.40 134.00 9.00 C 92.67 9.00 51.33 9.00 10.00 9.00 M 64.52 51.70 C 60.50 52.74 56.93 55.69 55.45 59.62 C 53.64 64.16 54.04 69.17 54.00 73.97 C 54.03 79.60 53.50 85.60 56.21 90.77 C 58.80 95.86 64.47 98.51 69.94 99.11 C 77.35 100.28 85.69 98.63 90.96 92.95 C 96.01 88.17 97.25 80.68 96.43 74.03 C 95.84 66.58 92.27 59.19 86.07 54.85 C 79.80 50.67 71.71 50.19 64.52 51.70 M 10.00 52.87 C 10.00 98.58 10.00 144.29 10.00 190.00 C 51.33 190.00 92.67 190.00 134.00 190.00 C 134.00 178.75 134.01 167.50 133.99 156.25 C 126.99 156.27 119.99 156.23 112.99 156.27 C 111.46 156.17 109.72 156.60 108.46 155.49 C 102.30 151.59 98.76 144.98 94.85 139.06 C 88.93 130.15 83.13 121.07 75.96 113.09 C 70.92 107.31 63.22 104.37 55.63 104.45 C 54.48 111.22 54.81 118.13 54.75 124.97 C 54.92 131.91 53.92 138.89 54.85 145.80 C 55.14 148.35 56.78 150.79 59.40 151.34 C 66.37 153.13 73.64 151.77 80.74 152.35 C 83.07 153.17 82.31 156.46 81.19 158.05 C 74.77 158.21 68.42 157.12 62.02 156.76 C 50.37 156.85 38.68 156.25 27.10 157.80 C 23.43 157.78 19.45 159.42 15.97 157.87 C 15.73 157.09 15.25 155.53 15.01 154.76 C 20.38 150.81 27.58 153.28 33.63 151.56 C 36.76 147.90 36.31 142.60 36.90 138.10 C 37.14 123.06 36.93 108.01 37.00 92.97 C 37.19 82.76 36.39 72.51 34.32 62.51 C 33.70 60.21 33.24 57.15 30.55 56.40 C 23.89 54.21 16.60 55.32 10.00 52.87 Z"/>
</svg>
