<?xml version="1.0" encoding="UTF-8" standalone="no"?>
<!-- Created with Inkscape (http://www.inkscape.org/) -->

<svg
   xmlns:dc="http://purl.org/dc/elements/1.1/"
   xmlns:cc="http://creativecommons.org/ns#"
   xmlns:rdf="http://www.w3.org/1999/02/22-rdf-syntax-ns#"
   xmlns:svg="http://www.w3.org/2000/svg"
   xmlns="http://www.w3.org/2000/svg"
   xmlns:xlink="http://www.w3.org/1999/xlink"
   version="1.1"
   width="163.39499"
   height="178.9731"
   id="svg2">
  <defs
     id="d1">
    <linearGradient
       id="g1">
      <stop
         id="s1"
         style="stop-color:#b63426;stop-opacity:1"
         offset="0" />
      <stop
         id="s2"
         style="stop-color:#c34f25;stop-opacity:1"
         offset="0.1" />
      <stop
         id="s3"
         style="stop-color:#f69932;stop-opacity:1"
         offset="0.5" />
      <stop
         id="s4"
         style="stop-color:#c34f25;stop-opacity:1"
         offset="0.9" />
      <stop
         id="s5"
         style="stop-color:#b63426;stop-opacity:1"
         offset="1" />
    </linearGradient>
    <linearGradient
       x1="892.36084"
       y1="191.89513"
       x2="766.64594"
       y2="52.749149"
       id="g2"
       xlink:href="#g1"
       gradientUnits="userSpaceOnUse"
       gradientTransform="translate(-734.16891,-44.609216)" />
  </defs>
  <path
     d="m 82.487925,7.5112432 c 10.24451,-12.182826 33.052455,-9.002065 36.548625,5.6111978 16.92669,-8.7185608 33.43121,5.503229 27.18128,21.446033 10.00677,3.080897 17.25393,18.541999 10.10101,30.62974 18.09675,20.8647 -2.06073,44.840516 -20.79472,32.90283 -28.04433,35.659746 -65.617915,4.287826 -50.421735,-22.70455 -21.0509,10.46976 -28.44896,38.968526 -10.34882,60.262376 8.37545,9.85328 38.176885,16.78223 59.950635,-4.44245 6.68013,-6.51168 -1.15946,-8.46661 -3.81738,-6.16308 -0.0891,-2.65785 15.38217,-8.71431 15.5991,1.8096 0.90042,43.68234 -55.081425,60.4174 -97.825235,48.25007 -36.39088,-10.35892 -63.47098,-59.75067 -28.75225,-95.888616 -41.72888,-20.18735 -8.09278,-64.577259 12.53367,-56.244446 2.67136,-4.246748 12.13232,-12.132326 18.04683,-10.009168 1.07117,-10.3057508 21.44359,-17.4866938 31.99899,-5.4595368 z"
     id="p1"
     style="fill:#000000;fill-opacity:1;stroke:none" />
  <path
     d="m 99.424835,6.3907842 c -9.49722,0.334121 -17.32102,6.7138328 -16.6875,7.9374998 -10.70454,-12.9336488 -27.88626,-7.1513438 -27.71875,5.5625 -9.90197,0.492681 -14.10241,5.254038 -16.875,11.09375 -11.96302,-4.754325 -33.1988099,5.51459 -31.6562499,23 1.68315,19.0791 22.0600299,20.64236 28.7499999,8.5625 2.64075,-4.76832 0.87868,-13.429557 -5,-6.9375 -11.93893,13.18461 -21.7959099,-8.827277 1.09375,-13.625 15.49536,-3.247862 22.54037,20.41245 12.5625,27.125 -4.60879,3.10054 -56.53401,33.959356 -22,78.656246 -0.30874,-5.70015 -2.65652,-12.31835 -1.125,-17.90625 3.02556,11.96968 14.68465,35.48527 37.4375,41.5 4.22617,0.60653 4.25922,0.83116 1.75,-3.0625 -4.12038,-6.10927 -9.07875,-12.63068 -8.21875,-17.1875 27.33243,46.89377 90.582575,5.20791 88.843755,-16.125 -0.0307,-0.37629 -1.00358,0.39915 -1.875,1.21875 -2.90218,2.72964 -8.29442,9.3362 -14.15625,12.21875 -13.16824,6.47547 -34.231545,8.04825 -46.093755,-0.1875 -26.87157,-18.65652 -23.46785,-41.38559 -20.5,-54.718746 4.66564,-20.96058 33.4937,-36.28535 51.750005,-29.9375 25.3825,8.82569 -1.95304,45.847566 -12.718755,23.46875 -1.3029,-2.70837 3.115955,-6.9869 6.531255,-8.09375 1.54652,-0.50121 0.39327,-2.21075 0.0937,-2.21875 -20.197705,-0.51106 -18.243605,20.69801 -6.250005,27.374996 12.567365,6.9964 36.241545,-0.14041 33.906255,-28.593746 22.12804,-10.57967 21.29941,21.1966 11.0625,11.78125 -3.32089,-3.05438 -6.86568,-0.45285 -3.53125,2.9375 15.29158,15.548016 26.90735,-14.21585 8.78125,-23.8125 9.44554,-5.45496 10.42734,-26.043872 -10.75,-28.09375 7.61681,-6.18158 9.33011,-21.185908 -5.28125,-21.65625 -14.65114,-0.471622 -11.96915,10.505849 -8.34375,12.34375 1.79461,0.909776 4.43171,0.123453 2.84375,-1.71875 -2.33347,-2.707083 7.55184,-7.694982 8.03125,-0.15625 0.77733,12.223577 -28.11698,-0.09753 -51.031255,13.71875 -1.25091,0.125091 1.19475,-15.677747 8.5,-20.71875 11.693385,-8.069044 20.094735,1.158537 8.718755,3.5 -5.858985,1.205924 -3.413965,5.391167 1.375,6.09375 9.06147,1.329397 17.34982,-15.037834 9.65625,-20.0624998 -3.94403,-2.575876 -8.03877,-3.416211 -11.874955,-3.28125 z m -33.34375,8.6562498 c 5.14563,-0.100154 11.09604,5.613669 9.0625,13.5625 -0.33318,1.302348 -1.179,1.43509 -1.3125,0.375 -0.34511,-2.740491 -5.61583,-8.658175 -12.375,-9.1875 -1.12437,-0.08805 -0.83985,-1.18841 -0.5,-1.75 1.23599,-2.042462 3.11149,-2.960809 5.125,-3 z m -11.25,14.71875 c 7.26544,0.185272 14.57133,7.362447 8.28125,18.6875 -0.85478,1.539003 -1.96747,1.954286 -2.40625,0.5625 -1.10385,-3.501406 -8.01168,-12.430436 -13.1875,-14.25 -1.19348,-0.419567 -0.91844,-1.238515 -0.375,-1.84375 2.01005,-2.238629 4.8445,-3.228748 7.6875,-3.15625 z m 63.625005,13.09375 c 1.00835,-0.0127 1.76779,0.170563 2.125,0.625 -0.71101,-0.20896 -8.04683,9.245014 -7.84375,9.53125 -2.11021,-2.65224 -5.62516,-3.937396 -8.59375,-4.65625 0.93229,-1.685335 9.94299,-5.44496 14.3125,-5.5 z m 17.90625,5.8125 c 2.37359,-0.01157 4.81893,0.707856 7.0625,2.40625 3.17873,2.406314 1.55248,10.17516 -2.03125,10.3125 -1.8684,0.0716 -3.96424,-4.4698 -6.28125,-5.625 -1.68698,-0.841087 -4.85954,0.73938 -4.1875,5 0.72246,4.58023 -2.32618,5.61976 -5.59375,2.28125 -5.09488,-5.20551 2.55414,-14.33369 11.03125,-14.375 z"
     id="p2"
     style="fill:url(#g2);fill-opacity:1;stroke:none" />
</svg>
