<?xml version="1.0" encoding="UTF-8" standalone="no"?>
<!-- Created with Inkscape (http://www.inkscape.org/) -->

<svg
   xmlns:dc="http://purl.org/dc/elements/1.1/"
   xmlns:cc="http://creativecommons.org/ns#"
   xmlns:rdf="http://www.w3.org/1999/02/22-rdf-syntax-ns#"
   xmlns:svg="http://www.w3.org/2000/svg"
   xmlns="http://www.w3.org/2000/svg"
   xmlns:xlink="http://www.w3.org/1999/xlink"
   version="1.1"
   width="131.22801"
   height="220.49658"
   id="svg2">
  <defs
     id="d1">
    <linearGradient
       id="g1">
      <stop
         id="s1"
         style="stop-color:#7f6e41;stop-opacity:1"
         offset="0" />
      <stop
         id="s2"
         style="stop-color:#ae975f;stop-opacity:1"
         offset="0.1" />
      <stop
         id="s3"
         style="stop-color:#e3cd99;stop-opacity:1"
         offset="0.5" />
      <stop
         id="s4"
         style="stop-color:#ae975f;stop-opacity:1"
         offset="0.9" />
      <stop
         id="s5"
         style="stop-color:#7f6e41;stop-opacity:1"
         offset="1" />
    </linearGradient>
    <linearGradient
       x1="434.60678"
       y1="142.39325"
       x2="546.4126"
       y2="330.12851"
       id="g2"
       xlink:href="#g1"
       gradientUnits="userSpaceOnUse"
       gradientTransform="translate(-429.04517,-109.32458)" />
  </defs>
  <path
     d="m 2.4900545,218.84726 6.45006,-10.69119 33.0160295,-29.98065 -30.85981,-25.70082 -1.1947695,-30.01374 21.5911995,15.0441 c -2.65188,-3.39016 -5.83137,-7.71245 -6.32501,-14.65018 C 7.0738145,113.76885 -0.20576554,102.56768 0.00441446,80.56089 0.10221446,70.32268 2.5177745,60.08934 12.309864,52.90371 c -0.27056,-10.1213 15.18749,-19.89718 15.56358,-24.77124 0.3761,-4.87405 0.0706,-8.98352 -1.87217,-10.22179 8.08858,-1.32901 8.53253,2.43839 11.70534,4.38656 C 42.515364,9.54541 51.593774,2.30682 64.491524,0 c -2.02808,14.56105 6.83934,21.05738 16.59443,27.09429 8.33931,-8.80862 16.02258,-5.67785 21.424596,-4.92038 0,0 -2.553136,3.34233 -2.726296,9.06947 -0.17316,5.72714 9.895346,11.64533 9.466956,16.63871 4.42002,-5.49608 10.30373,-6.84507 16.59442,-7.04094 -0.33025,-1.32102 -4.2283,10.01309 -2.90301,18.64147 6.88846,3.94259 11.16951,21.86565 5.99508,33.37966 -5.11316,11.37766 -20.87355,24.43805 -27.56153,25.05372 0.16244,7.38165 -1.875306,13.54857 -5.481806,18.73167 l 22.144456,-15.96316 -4.0681,32.75097 -31.046406,24.73994 34.724256,30.83476 6.96547,10.86791 -29.967716,0.61849 -18.89366,-15.10903 -0.51541,14.6378 -15.12376,-0.35343 -7.9963,-15.78644 -19.36489,15.78644 -30.2622495,-0.82466"
     id="p1"
     style="fill:#000000;fill-opacity:1;stroke:none" />
  <path
     d="m 56.986084,10.64417 c -19.37538,14.18391 -5.04686,23.94426 -18.21875,36.25 0.94466,-7.18388 4.7344,-13.63163 -5.0625,-20.21875 0.35957,14.95814 -17.08972,18.56234 -16.84375,30.03125 0.32035,14.93714 19.03856,10.3462 18.5625,31.125 8.80875,-4.04779 9.59635,-11.88227 10.15625,-16.84375 0.99336,-8.80252 7.19741,-8.91065 12.3125,-13.53125 5.27761,-4.7674 5.43169,-14.75867 4.6875,-16.375 15.19613,18.44324 7.32968,24.40182 6.28125,30.34375 4.30495,-0.96384 8.39067,-2.36365 11.4375,-5.84375 -1.81031,14.6177 5.57032,13.15618 10.40625,21.375 1.49116,-13.93878 8.9058,-12.55357 12.093746,-24.625 1.87716,-7.10799 -0.56658,-14.17575 -6.593746,-18.75 -2.78082,-2.11048 -4.16945,-9.71841 -3.0625,-13.5625 -5.83181,-1.73047 -9.38589,7.69965 -9.5625,9.21875 -9.4716,-17.34858 -22.98523,-3.22529 -26.59375,-28.59375 z m 58.843746,42.9375 c -5.15124,3.66461 -5.30077,5.60028 -6.65625,15.15625 -1.70031,11.98705 -9.970966,12.42667 -10.343746,22.34375 -0.24395,6.48977 3.132936,6.14171 3.249996,16.53125 4.25409,0.67581 11.55526,-6.62606 14.78125,-10.5625 5.30314,-6.47105 6.28038,-13.48799 4.90625,-23.21875 -1.31074,-9.28193 -6.17464,-9.25235 -5.9375,-20.25 z m -103.999996,7 c -4.1286095,6.60388 -4.7078295,14.24148 -4.9999995,22.34375 -0.48738,13.51602 4.6549595,25.7541 18.1874995,32.96875 -4.4339,-13.4454 12.02558,-28.62975 -1.03125,-37.84375 -7.09905,-5.00968 -13.43076,-12.08774 -12.15625,-17.46875 z m 51.625,20.09375 c -10.41112,0 -19.68451,5.07466 -25.71875,12.96875 -0.007,0.0122 -0.024,0.0191 -0.0312,0.0312 -3.12744,5.2806 -6.24939,10.51361 -6.625,27.71875 2.81241,16.0446 16.2306,28.21875 32.375,28.21875 16.51182,0 30.18333,-12.72499 32.5625,-29.3125 -0.30909,-6.5206 -0.66249,-13.06944 -4.03125,-22.34375 -0.004,-0.008 0.004,-0.0233 0,-0.0312 -5.6939,-10.31172 -16.33641,-17.25 -28.5313,-17.25 z m -10.4375,15.65625 c 2.2169,-0.0317 10.4375,9.3125 10.4375,9.3125 0,0 7.63979,-9.18297 10.3125,-9.0625 2.67271,0.12048 8.96875,9.78125 8.96875,9.78125 0,0 2.48902,15.52083 2,18.34375 -0.48902,2.82292 -10.05893,11.88675 -12.0625,11.9375 -2.00357,0.0507 -9.5625,-8.65625 -9.5625,-8.65625 0,0 -6.8873,8.61167 -9.25,8.625 -2.3627,0.0133 -10.86619,-8.54933 -11.65625,-10.71875 -0.79006,-2.16942 0.50182,-17.4944 1.28125,-19.5625 0.77943,-2.0681 7.31435,-9.96825 9.53125,-10 z m 10.4375,10.5625 c -5.40118,0 -9.78125,4.38007 -9.78125,9.78125 0,5.40118 4.38007,9.78125 9.78125,9.78125 5.40118,0 9.78125,-4.38007 9.78125,-9.78125 0,-5.40118 -4.38007,-9.78125 -9.78125,-9.78125 z m 46.656246,26.59375 -40.968746,29.75 -0.1875,-3.59375 -5.4375,-3.34375 -5.5,0.59375 0.0312,7.65625 -41.5,-30.65625 0.65625,15.75 34.15625,28.5 -15.1875,14.0625 8.03125,9.71875 13.5,-11.34375 -0.1875,8.96875 6.6875,14 4.75,0.15625 0.78125,-20.96875 26.78125,20.8125 15.906246,0.0625 -39.187496,-35.96875 34.937496,-27.59375 1.9375,-16.5625 z m -79.812496,64.15625 -16.65625,15.40625 16.65625,0.5625 7.78125,-6.53125 -7.78125,-9.4375 z"
     id="p2"
     style="fill:url(#g2);fill-opacity:1;stroke:none" />
</svg>
