<?xml version="1.0" encoding="UTF-8" standalone="no"?>
<!-- Created with Inkscape (http://www.inkscape.org/) -->

<svg
   xmlns:dc="http://purl.org/dc/elements/1.1/"
   xmlns:cc="http://creativecommons.org/ns#"
   xmlns:rdf="http://www.w3.org/1999/02/22-rdf-syntax-ns#"
   xmlns:svg="http://www.w3.org/2000/svg"
   xmlns="http://www.w3.org/2000/svg"
   xmlns:xlink="http://www.w3.org/1999/xlink"
   version="1.1"
   width="200.99837"
   height="200.99918"
   id="svg2">
  <defs
     id="d1" />
  <path
     d="m 100.49918,0 c -3.34541,9.9e-5 -6.54374,2.432439 -7.4375,5.65625 L 84.18668,37.5 83.87418,37.25 c -0.98911,-0.768791 -2.06316,-1.507445 -3.75,-2.09375 -1.68684,-0.586305 -4.53125,-0.876169 -7.0625,0.40625 -2.53125,1.282419 -3.80042,3.430981 -4.375,4.90625 -0.57458,1.475269 -0.71157,2.609501 -0.8125,3.6875 L 67.49918,48 52.56168,39.875 c -0.85389,-0.463863 -1.45265,-0.986236 -3.5,-1.53125 -2.04735,-0.545014 -6.529,0.461661 -8.15625,1.90625 -0.23165,0.205326 -0.45092,0.424604 -0.65625,0.65625 -1.44461,1.627256 -2.45126,6.108899 -1.90625,8.15625 0.54501,2.047351 1.06738,2.64611 1.53125,3.5 l 8.125,14.9375 -3.84375,0.375 c -1.078,0.10093 -2.21223,0.23792 -3.6875,0.8125 -1.47527,0.57458 -3.62383,1.84375 -4.90625,4.375 -1.28242,2.53125 -0.99255,5.37566 -0.40625,7.0625 0.5863,1.68684 1.32496,2.76089 2.09375,3.75 l 0.25,0.3125 -31.84375,8.875 C 2.43192,93.95656 0,97.1548 0,100.5 c 0,3.3452 2.43192,6.54344 5.65543,7.4375 l 31.84375,8.875 -0.25,0.3125 c -0.76879,0.98911 -1.50745,2.06316 -2.09375,3.75 -0.5863,1.68684 -0.87617,4.53125 0.40625,7.0625 1.28242,2.53125 3.43098,3.80042 4.90625,4.375 1.47527,0.57458 2.6095,0.71157 3.6875,0.8125 l 3.84375,0.375 -8.125,14.9375 c -0.46386,0.85389 -0.98623,1.45265 -1.53125,3.5 -0.54502,2.04735 0.46166,6.529 1.90625,8.15625 0.20533,0.23165 0.4246,0.45092 0.65625,0.65625 1.62725,1.44459 6.1089,2.45127 8.15625,1.90625 2.04735,-0.54502 2.64611,-1.06739 3.5,-1.53125 l 14.9375,-8.125 0.375,3.84375 c 0.10093,1.078 0.23792,2.21223 0.8125,3.6875 0.57458,1.47527 1.84375,3.62383 4.375,4.90625 2.53125,1.28242 5.37566,0.99255 7.0625,0.40625 1.68684,-0.5863 2.76089,-1.32496 3.75,-2.09375 l 0.3125,-0.25 8.875,31.84375 c 0.89406,3.22351 4.0923,5.65543 7.4375,5.65543 3.3452,0 6.54344,-2.43192 7.4375,-5.65543 l 8.875,-31.84375 0.3125,0.25 c 0.98911,0.76879 2.06316,1.50745 3.75,2.09375 1.68684,0.5863 4.53125,0.87617 7.0625,-0.40625 2.53125,-1.28242 3.80042,-3.43098 4.375,-4.90625 0.57458,-1.47527 0.71157,-2.6095 0.8125,-3.6875 l 0.375,-3.84375 14.9375,8.125 c 0.85389,0.46386 1.45265,0.98623 3.5,1.53125 2.04735,0.54502 6.529,-0.46166 8.15625,-1.90625 0.23165,-0.20533 0.45092,-0.4246 0.65625,-0.65625 1.44459,-1.62725 2.45127,-6.1089 1.90625,-8.15625 -0.54502,-2.04735 -1.06739,-2.64611 -1.53125,-3.5 l -8.125,-14.9375 3.84375,-0.375 c 1.078,-0.10093 2.21223,-0.23792 3.6875,-0.8125 1.47527,-0.57458 3.62383,-1.84375 4.90625,-4.375 1.28242,-2.53125 0.99255,-5.37566 0.40625,-7.0625 -0.5863,-1.68684 -1.32496,-2.76089 -2.09375,-3.75 l -0.25,-0.3125 31.84375,-8.875 c 3.22351,-0.89406 5.65543,-4.0923 5.65543,-7.4375 0,-3.3452 -2.43192,-6.54344 -5.65543,-7.4375 l -31.84375,-8.875 0.25,-0.3125 c 0.76879,-0.98911 1.50745,-2.06316 2.09375,-3.75 0.5863,-1.68684 0.87617,-4.53125 -0.40625,-7.0625 -1.28242,-2.53125 -3.43098,-3.80042 -4.90625,-4.375 -1.47527,-0.57458 -2.6095,-0.71157 -3.6875,-0.8125 l -3.84375,-0.375 8.125,-14.9375 c 0.46387,-0.85389 0.98624,-1.452649 1.53125,-3.5 0.54501,-2.047351 -0.46164,-6.528994 -1.90625,-8.15625 -0.20533,-0.231646 -0.4246,-0.450924 -0.65625,-0.65625 -1.62725,-1.444589 -6.1089,-2.451264 -8.15625,-1.90625 -2.04735,0.545014 -2.64611,1.067387 -3.5,1.53125 l -14.9375,8.125 -0.375,-3.84375 c -0.10093,-1.077999 -0.23792,-2.212231 -0.8125,-3.6875 -0.57458,-1.475269 -1.84375,-3.623831 -4.375,-4.90625 -2.53125,-1.282419 -5.37566,-0.992555 -7.0625,-0.40625 -1.68684,0.586305 -2.76089,1.324959 -3.75,2.09375 l -0.3125,0.25 -8.875,-31.84375 C 107.04292,2.432439 103.84459,9.9e-5 100.49918,0 z"
     id="p1"
     style="fill:#ffffff;fill-opacity:1;stroke:none" />
  <path
     d="M 100.49918,7.71875 89.43668,47.4375 c -0.62999,2.26406 -1.51219,2.75682 -3.53125,1.1875 l -6.78125,-5.28125 c -2.37444,-1.845541 -3.31666,-1.09454 -3.5625,1.53125 l -1.21875,13 c -0.10986,1.17334 -1.47778,1.80261 -2.4375,1.28125 l -23.03125,-12.5 c -1.66494,-0.904458 -2.21523,-1.182968 -2.84375,-0.625 -0.55797,0.628514 -0.27946,1.17881 0.625,2.84375 l 12.5,23.03125 c 0.52136,0.95972 -0.10791,2.32764 -1.28125,2.4375 l -13,1.21875 c -2.62579,0.24584 -3.37679,1.18806 -1.53125,3.5625 l 5.28125,6.78125 c 1.56932,2.01906 1.07656,2.90126 -1.1875,3.53125 L 7.71793,100.5 47.43668,111.5625 c 2.26406,0.62999 2.75682,1.51219 1.1875,3.53125 l -5.28125,6.78125 c -1.84554,2.37444 -1.09454,3.31666 1.53125,3.5625 l 13,1.21875 c 1.17334,0.10986 1.80261,1.47778 1.28125,2.4375 l -12.5,23.03125 c -0.90446,1.66494 -1.18297,2.21523 -0.625,2.84375 0.62852,0.55797 1.17881,0.27946 2.84375,-0.625 l 23.03125,-12.5 c 0.95972,-0.52136 2.32764,0.10791 2.4375,1.28125 l 1.21875,13 c 0.24584,2.62579 1.18806,3.37679 3.5625,1.53125 l 6.78125,-5.28125 c 2.01906,-1.56932 2.90126,-1.07656 3.53125,1.1875 l 11.0625,39.71875 11.0625,-39.71875 c 0.62999,-2.26406 1.51219,-2.75682 3.53125,-1.1875 l 6.78125,5.28125 c 2.37444,1.84554 3.31666,1.09454 3.5625,-1.53125 l 1.21875,-13 c 0.10986,-1.17334 1.47778,-1.80261 2.4375,-1.28125 l 23.03125,12.5 c 1.66494,0.90446 2.21523,1.18297 2.84375,0.625 0.55797,-0.62852 0.27946,-1.17881 -0.625,-2.84375 l -12.5,-23.03125 c -0.52136,-0.95972 0.10791,-2.32764 1.28125,-2.4375 l 13,-1.21875 c 2.62579,-0.24584 3.37679,-1.18806 1.53125,-3.5625 l -5.28125,-6.78125 c -1.56932,-2.01906 -1.07656,-2.90126 1.1875,-3.53125 L 193.28043,100.5 153.56168,89.4375 c -2.26406,-0.62999 -2.75682,-1.51219 -1.1875,-3.53125 l 5.28125,-6.78125 c 1.84554,-2.37444 1.09454,-3.31666 -1.53125,-3.5625 l -13,-1.21875 c -1.17334,-0.10986 -1.80261,-1.47778 -1.28125,-2.4375 l 12.5,-23.03125 c 0.90446,-1.66494 1.18297,-2.215236 0.625,-2.84375 -0.62852,-0.557968 -1.17881,-0.279458 -2.84375,0.625 l -23.03125,12.5 c -0.95972,0.52136 -2.32764,-0.10791 -2.4375,-1.28125 l -1.21875,-13 c -0.24584,-2.62579 -1.18806,-3.376791 -3.5625,-1.53125 l -6.78125,5.28125 c -2.01906,1.56932 -2.90126,1.07656 -3.53125,-1.1875 L 100.49918,7.71875 z m 0,54.28125 c 21.26296,0 38.5,17.23704 38.5,38.5 0,21.26296 -17.23704,38.5 -38.5,38.5 -21.26296,0 -38.5,-17.23704 -38.5,-38.5 0,-21.26296 17.23704,-38.5 38.5,-38.5 z m 0,11 c -15.18783,0 -27.5,12.31217 -27.5,27.5 0,15.18783 12.31217,27.5 27.5,27.5 15.18783,0 27.5,-12.31217 27.5,-27.5 0,-15.18783 -12.31217,-27.5 -27.5,-27.5 z"
     id="p2"
     style="fill:#000000;fill-opacity:1;stroke:none" />
</svg>
