<?xml version="1.0" encoding="UTF-8" standalone="no"?>
<svg xmlns="http://www.w3.org/2000/svg" version="1.1" width="200.91789" height="174" id="svg2">
  <path d="M 141,147 241.45895,321 40.541052,321 z" transform="translate(-40.541052,-147)" style="fill:#ffffff"/>
  <path d="M 100.45895,20 64.927698,81.5625 C 73.924758,72.28292 86.512988,66.5 100.45895,66.5 c 13.94596,0 26.53419,5.78292 35.53125,15.0625 L 100.45895,20 z m 0,52 c -9.624162,0 -18.507162,3.10182 -25.750002,8.34375 l 4.65625,5.875 C 85.323078,81.99028 92.596858,79.5 100.45895,79.5 c 0.48312,0 0.95893,0.0439 1.4375,0.0625 l 0.71875,-7.5 C 101.89608,72.02757 101.18672,72 100.45895,72 z m 6.125,0.4375 -0.6875,7.46875 c 13.80861,2.06239 25.07689,11.86131 29.28125,24.84375 l 7.28125,-1.90625 C 137.4581,86.85577 123.56718,74.80839 106.58395,72.4375 z M 71.552698,82.84375 c -7.1039,6.19436 -12.173723,14.60953 -14.15625,24.1875 l 7.40625,1.1875 c 1.67003,-7.68045 5.76907,-14.46118 11.4375,-19.5 l -4.6875,-5.875 z M 100.45895,84 c -12.200002,0 -22.788852,6.83268 -28.187502,16.875 l 6.375,2.9375 C 82.924188,96.17282 91.080608,91 100.45895,91 c 8.38281,0 15.77688,4.13692 20.3125,10.46875 l 6.03125,-3.625 C 121.03041,89.47816 111.39159,84 100.45895,84 z m 0,12 c -2.374352,0 -4.637092,0.42817 -6.750002,1.1875 l 3.25,6.8125 c 1.11023,-0.32305 2.28551,-0.5 3.500002,-0.5 1.2838,0 2.52169,0.20301 3.6875,0.5625 l 3.3125,-6.78125 C 105.27594,96.46341 102.92747,96 100.45895,96 z m -10.375002,2.90625 c -5.76665,3.50917 -9.625,9.84979 -9.625,17.09375 0,6.84734 3.44033,12.89497 8.6875,16.5 l 3.625,-6.65625 c -2.92002,-2.28817 -4.8125,-5.84636 -4.8125,-9.84375 0,-4.25766 2.12386,-8.02414 5.375,-10.28125 l -3.25,-6.8125 z m 20.968752,0.15625 -3.34375,6.75 c 2.11954,1.51173 3.7448,3.67213 4.59375,6.1875 l 7.4375,-1.25 c -1.33418,-4.90424 -4.48441,-9.05221 -8.6875,-11.6875 z m 17.8125,2.21875 -6.03125,3.59375 c 1.66922,3.35178 2.625,7.1263 2.625,11.125 0,13.80712 -11.19288,25 -25,25 -0.684232,0 -1.360912,-0.0398 -2.031252,-0.0937 l -1.125,6.9375 c 1.03577,0.1011 2.09391,0.1562 3.156252,0.1562 17.67311,0 32,-14.32689 32,-32 0,-5.30888 -1.30579,-10.31141 -3.59375,-14.71875 z M 52.833948,102.5 l -35.5,61.5 71.03125,0 c -21.49216,-5.39665 -37.40625,-24.83388 -37.40625,-48 0,-4.68141 0.660559,-9.20745 1.875,-13.5 z m 95.250002,0 c 1.21444,4.29255 1.875,8.81859 1.875,13.5 0,23.16612 -15.91409,42.60335 -37.40625,48 l 71.03125,0 -35.5,-61.5 z m -77.500002,2.03125 c -1.36826,3.56148 -2.125,7.42549 -2.125,11.46875 0,15.23113 10.65275,27.95601 24.90625,31.1875 l 1.125,-6.90625 C 83.566388,137.60412 75.458948,127.74914 75.458948,116 c 0,-2.9959 0.53369,-5.86915 1.5,-8.53125 l -6.375,-2.9375 z m 72.875002,2.15625 -7.25,1.90625 c 0.49415,2.39446 0.75,4.86544 0.75,7.40625 0,4.92059 -0.9848,9.62266 -2.75,13.90625 l 6.78125,3.25 c 2.23359,-5.27115 3.46875,-11.07094 3.46875,-17.15625 0,-3.1937 -0.35375,-6.31201 -1,-9.3125 z M 56.740198,111 c -0.185973,1.64255 -0.28125,3.30772 -0.28125,5 0,11.83857 4.67614,22.59119 12.28125,30.5 l 5.1875,-5.4375 c -6.18242,-6.53889 -9.96875,-15.35337 -9.96875,-25.0625 0,-1.29149 0.0566,-2.55564 0.1875,-3.8125 L 56.740198,111 z m 63.656252,3.6875 -7.4375,1.25 c 1e-4,0.021 0,0.0415 0,0.0625 0,6.90356 -5.59644,12.5 -12.5,12.5 -1.457972,0 -2.855282,-0.25993 -4.156252,-0.71875 l -3.65625,6.65625 c 2.3997,1.01901 5.04107,1.5625 7.812502,1.5625 11.04569,0 20,-8.95431 20,-20 0,-0.44255 -0.0342,-0.8771 -0.0625,-1.3125 z m 12.09375,18.84375 c -3.47147,6.33237 -8.77588,11.50112 -15.1875,14.84375 l 3.09375,6.84375 c 8.0121,-4.08292 14.59945,-10.55437 18.84375,-18.46875 l -6.75,-3.21875 z m -55.656252,10.25 -5.1875,5.46875 c 7.71824,6.68941 17.79705,10.75 28.812502,10.75 5.75463,0 11.24318,-1.11604 16.28125,-3.125 l -3.09375,-6.84375 c -4.0884,1.58384 -8.53983,2.46875 -13.1875,2.46875 -9.020632,0 -17.255272,-3.29641 -23.625002,-8.71875 z"/>
</svg>
