<?xml version="1.0" encoding="utf-8"?>
<svg xmlns="http://www.w3.org/2000/svg" xmlns:xlink="http://www.w3.org/1999/xlink" version="1.1" id="Layer_1" x="0px" y="0px" width="255.676px" height="255.674px">
  <circle cx="127.838" cy="127.838" r="127.838"/>
  <linearGradient id="SVGID_1_" gradientUnits="userSpaceOnUse" x1="211.6436" y1="44.1104" x2="44.0755" y2="211.6784">
    <stop offset="0.1" style="stop-color:#BF331C"/>
    <stop offset="0.5" style="stop-color:#F6971D"/>
    <stop offset="0.9" style="stop-color:#BF331C"/>
  </linearGradient>
  <path fill="url(#SVGID_1_)" d="M11.666,148.865c-2.51-12.197-2.867-24.393-1.076-36.593c1.791-12.196,5.288-23.766,10.492-34.708   c5.201-10.939,11.974-20.986,20.314-30.135s17.893-16.77,28.654-22.87c4.844,6.458,9.641,12.961,14.395,19.507   c4.751,6.55,9.506,13.049,14.26,19.507c4.752,6.457,9.506,12.961,14.261,19.507c4.751,6.549,9.552,13.049,14.395,19.506   c5.02-6.457,9.908-13.002,14.663-19.641c4.751-6.635,9.506-13.272,14.26-19.91c4.751-6.635,9.46-13.227,14.126-19.775   c4.662-6.547,9.417-13.05,14.26-19.508c13.272,7.177,24.573,16.594,33.901,28.252c9.324,11.662,16.366,24.484,21.121,38.475   c4.751,13.991,6.903,28.432,6.457,43.318c-0.449,14.891-3.901,29.152-10.358,42.781c-3.767,9.148-8.879,17.488-15.336,25.021   c-6.458,7.533-13.453,14.529-20.986,20.986c-3.41-5.557-6.907-11.072-10.493-16.547c-3.591-5.469-7.177-10.984-10.763-16.547   c6.276-7.533,12.107-15.559,17.488-24.08c5.382-8.518,8.518-17.893,9.417-28.117c1.434-9.148,0.808-18.068-1.883-26.771   c-2.69-8.698-5.563-17.262-8.61-25.695c-5.204,6.281-10.224,12.646-15.067,19.104c-4.843,6.457-9.644,13.008-14.395,19.641   c-4.754,6.639-9.417,13.277-13.99,19.912c-4.574,6.637-9.194,13.275-13.856,19.91c7.353,11.838,14.84,23.588,22.466,35.246   c7.622,11.662,15.021,23.5,22.197,35.516c-8.609,3.947-16.908,7.088-24.888,9.416c-7.983,2.334-17.893,3.498-29.73,3.498   c-9.147,0-18.208-1.164-27.175-3.498c-8.971-2.328-17.758-5.469-26.367-9.416c7.172-12.016,14.617-23.854,22.332-35.516   c7.709-11.658,15.243-23.496,22.6-35.516c-4.666-6.457-9.375-12.957-14.125-19.508c-4.755-6.545-9.51-13.049-14.26-19.506   c-4.755-6.457-9.552-12.915-14.395-19.373c-4.844-6.457-9.779-12.822-14.799-19.103c-4.666,8.61-7.76,17.581-9.282,26.905   c-1.526,9.329-1.526,18.611,0,27.848c1.522,9.242,4.439,18.074,8.745,26.504c4.305,8.432,9.861,16.143,16.682,23.139   c-3.591,5.381-7.177,10.854-10.764,16.412c-3.59,5.563-7.176,11.031-10.762,16.412c-5.563-4.844-10.762-10.043-15.605-15.605   c-4.843-5.557-9.193-11.436-13.049-17.623c-3.859-6.188-7.131-12.688-9.82-19.506C14.625,163.305,12.742,156.223,11.666,148.865z    M127.36,10.3c-2.333,0-4.573,0-6.727,0c-8.071,0.538-16.009,1.795-23.812,3.767c-7.803,1.977-15.383,4.574-22.735,7.803   l53.273,39.014l52.196-37.938l1.346-1.076c-7.533-3.229-15.159-5.873-22.87-7.938c-7.714-2.06-15.697-3.271-23.946-3.632   C131.935,10.3,129.689,10.3,127.36,10.3z"/>
</svg>
