<?xml version="1.0" encoding="UTF-8" standalone="no"?>
<svg xmlns="http://www.w3.org/2000/svg" version="1.1" width="600" height="600">
  <path d="M 0,300 C 0,465.42 134.595,600 300,600 465.405,600 600,465.42 600,300 600,134.595 465.405,0 300,0 134.595,0 0,134.595 0,300" style="fill:#808080"/>
  <path d="m 91.755,321.51 c 0.5244,2.4 0.12,4.575 0.06,7.32 -0.12,6.45 0.7044,13.065 1.755,19.455 4.11,26.55 16.53,48.51 35.46,67.44 9.54,9.495 19.98,18.165 30.585,26.43 5.325,4.095 10.71,8.145 16.17,12.18 2.745,1.995 7.035,8.145 8.31,1.59 1.23,-6.15 1.0656,-10.38 4.515,-16.005 7.44,-12.06 29.715,0 30.645,11.145 0.9456,11.13 4.635,42.705 30.645,45.525 25.965,2.745 36.21,6.495 45.465,10.185 6.855,2.76 17.055,0.5856 24.15,-0.1644 9.9,-1.0656 19.74,-2.52 29.58,-4.23 3.105,-0.5244 6.75,-0.4644 8.145,-3.855 1.41,-3.405 -1.05,-7.215 -3.33,-9.495 -5.565,-5.505 -14.235,-7.92 -21.21,-10.785 -5.925,-2.4 -11.835,-4.8 -17.88,-6.795 -7.2,-2.4 -14.58,-3.51 -19.98,-9.495 -7.905,-8.73 -8.955,-21.39 -8.55,-32.7 0.4644,-12.24 1.935,-24.9 8.145,-35.73 4.275,-7.44 7.62,-15.42 11.13,-23.265 2.055,-4.515 9.675,-21.33 4.635,-25.425 -4.755,-3.99 -15.42,2.865 -16.71,7.845 -2.745,11.13 -23.145,11.13 -23.145,11.13 0,0 -34.395,-0.93 -49.215,5.565 -14.88,6.51 -55.725,-1.815 -69.6,-21.33 -0.9456,-1.335 -6.21,-0.81 -7.8,-1.755 -5.445,-3.285 -6.09,-18.93 -0.5856,-22.38 7.44,-4.635 0,-34.335 -26.895,-34.335 -8.79,0 -18.81,1.35 -25.665,7.44 -4.86,4.275 -5.325,9.375 -2.985,15.12 1.05,2.64 2.64,4.98 3.69,7.68 0.18,0.5856 0.3456,1.11 0.4644,1.695 m 101.55,-191.61 c 0,0 -56.085,13.71 -51.45,55.44 0,0 -29.355,9.54 -37.68,36.435 -8.37,26.955 1.815,34.395 12.96,34.395 11.19,0 20.445,-4.62 20.445,-4.62 0,0 16.695,-3.69 26.01,2.745 9.255,6.51 49.17,5.565 58.485,-7.44 9.255,-13.005 30.585,0 39.9,22.335 9.255,22.26 38.025,29.7 47.34,2.745 0,0 8.325,-35.265 0,-82.62 0,0 -28.77,-26.01 -66.855,-32.46 -38.085,-6.495 -43.59,-9.315 -49.155,-26.955 m 226.395,119.775 c 0,-58.485 -61.23,-77.985 -61.23,-77.985 0,0 -13.875,-2.76 -13.875,-13.95 0,0 -23.79,0.3456 -37.74,-7.095 0,0 -12.42,-3.105 -12.42,-11.415 0,-8.385 -62.175,-24.855 -40.365,-42.96 0,0 161.535,-37.5 244.98,127.86 0,0 -34.755,-18.105 -34.755,30.645 0,33.69 22.56,43.995 41.31,42.12 0,0 33.75,117.195 -130.425,179.235 0,0 -11.835,-3.45 -6.915,-14.64 4.86,-11.07 -6.975,-11.07 -6.975,-11.07 0,0 -16.695,1.335 -16.695,-22.335 0,-23.67 6.27,-25.725 6.27,-25.725 l 25.02,-19.5 c 0,0 5.565,-4.875 0.69,-11.13 -4.92,-6.27 -17.4,-20.925 -17.4,-28.545 0,-5.565 3.345,-10.02 7.035,-12.075 0,0 53.49,8.205 53.49,-81.435 M 300,537.84 C 168.87,537.84 62.175,431.13 62.175,300 62.175,168.87 168.87,62.175 300,62.175 431.13,62.175 537.825,168.87 537.825,300 537.825,431.13 431.13,537.84 300,537.84 M 300,22.98 C 147.015,22.98 22.905,147.015 22.905,300 22.905,453.045 147.015,577.095 300,577.095 453.045,577.095 577.095,453.045 577.095,300 577.095,147.015 453.045,22.98 300,22.98"/>
</svg>
