<?xml version="1.0" encoding="UTF-8" standalone="no"?>
<svg xmlns="http://www.w3.org/2000/svg" version="1.1" width="600" height="600">
  <radialGradient cx="0" cy="0" r="1" fx="0" fy="0" id="radialGradient274" gradientUnits="userSpaceOnUse" gradientTransform="matrix(17.971435,0,0,-17.971435,748,372.09277)" spreadMethod="pad">
    <stop style="stop-color:#f6b91d" offset="0"/>
    <stop style="stop-color:#d3641c" offset="0.7"/>
    <stop style="stop-color:#bf331c" offset="1"/>
  </radialGradient>
  <path d="M 0,300 C 0,465.42 134.595,600 300,600 465.405,600 600,465.42 600,300 600,134.595 465.405,0 300,0 134.595,0 0,134.595 0,300" style="fill:#ffffff"/>
  <path d="m 91.755,321.51 c 0.4644,2.4 0.12,4.575 0.06,7.32 -0.12,6.45 0.7044,13.065 1.695,19.455 4.17,26.55 16.59,48.51 35.52,67.44 9.54,9.495 19.92,18.165 30.585,26.43 5.325,4.095 10.71,8.145 16.17,12.18 2.685,1.995 6.975,8.145 8.31,1.59 1.1844,-6.15 1.0656,-10.38 4.515,-16.005 7.44,-12.06 29.715,0 30.645,11.145 0.9456,11.13 4.635,42.705 30.585,45.525 26.025,2.745 36.21,6.495 45.525,10.185 6.855,2.76 17.055,0.5856 24.09,-0.1644 9.96,-1.0656 19.8,-2.52 29.64,-4.23 3.105,-0.5244 6.75,-0.4644 8.145,-3.855 1.41,-3.405 -1.05,-7.215 -3.33,-9.495 -5.565,-5.505 -14.235,-7.92 -21.27,-10.785 -5.865,-2.4 -11.835,-4.8 -17.82,-6.795 -7.2,-2.4 -14.64,-3.51 -19.98,-9.495 -7.905,-8.73 -9.015,-21.39 -8.55,-32.7 0.4644,-12.24 1.935,-24.9 8.145,-35.73 4.275,-7.44 7.62,-15.42 11.13,-23.265 2.055,-4.515 9.615,-21.33 4.635,-25.425 -4.755,-3.99 -15.48,2.865 -16.71,7.845 -2.745,11.13 -23.19,11.13 -23.19,11.13 0,0 -34.35,-0.93 -49.23,5.565 -14.82,6.51 -55.665,-1.815 -69.6,-21.33 -0.8856,-1.335 -6.21,-0.81 -7.74,-1.755 -5.445,-3.285 -6.09,-18.93 -0.5856,-22.38 7.44,-4.635 0,-34.335 -26.895,-34.335 -8.79,0 -18.81,1.35 -25.665,7.44 -4.86,4.275 -5.325,9.375 -2.985,15.12 0.99,2.64 2.64,4.98 3.69,7.68 0.18,0.5856 0.3456,1.11 0.4644,1.695 m 101.55,-191.61 c 0,0 -56.085,13.71 -51.45,55.44 0,0 -29.355,9.54 -37.74,36.435 -8.31,26.955 1.875,34.395 13.02,34.395 11.19,0 20.445,-4.62 20.445,-4.62 0,0 16.695,-3.69 25.95,2.745 9.315,6.51 49.23,5.565 58.545,-7.44 9.255,-13.005 30.585,0 39.9,22.335 9.255,22.26 38.025,29.7 47.34,2.745 0,0 8.325,-35.265 0,-82.62 0,0 -28.77,-26.01 -66.855,-32.46 -38.085,-6.495 -43.59,-9.315 -49.155,-26.955 m 226.395,119.775 c 0,-58.485 -61.23,-77.985 -61.23,-77.985 0,0 -13.935,-2.76 -13.935,-13.95 0,0 -23.79,0.3456 -37.68,-7.095 0,0 -12.42,-3.105 -12.42,-11.415 0,-8.385 -62.235,-24.855 -40.365,-42.96 0,0 161.535,-37.5 244.98,127.86 0,0 -34.755,-18.105 -34.755,30.645 0,33.69 22.56,43.995 41.31,42.12 0,0 33.75,117.195 -130.425,179.235 0,0 -11.835,-3.45 -6.975,-14.64 4.86,-11.07 -6.975,-11.07 -6.975,-11.07 0,0 -16.695,1.335 -16.695,-22.335 0,-23.67 6.27,-25.725 6.27,-25.725 l 25.08,-19.5 c 0,0 5.565,-4.875 0.69,-11.13 -4.92,-6.27 -17.4,-20.925 -17.4,-28.545 0,-5.565 3.285,-10.02 6.975,-12.075 0,0 53.55,8.205 53.55,-81.435 M 300,537.84 C 168.87,537.84 62.175,431.13 62.175,300 62.175,168.87 168.87,62.175 300,62.175 431.13,62.175 537.825,168.87 537.825,300 537.825,431.13 431.13,537.84 300,537.84 M 300,22.98 C 147.015,22.98 22.905,147.015 22.905,300 22.905,453.045 147.015,577.095 300,577.095 452.985,577.095 577.095,453.045 577.095,300 577.095,147.015 452.985,22.98 300,22.98" style="fill:#bf331c"/>
  <g transform="matrix(15,0,0,-15,-10920,5881.41)">
    <path d="m 730.027,372.09 c 0,-9.906 8.063,-17.969 17.973,-17.969 l 0,0 c 9.906,0 17.973,8.063 17.973,17.969 l 0,0 c 0,9.91 -8.067,17.972 -17.973,17.972 l 0,0 c -9.91,0 -17.973,-8.062 -17.973,-17.972 m 1.618,0 c 0,9.019 7.335,16.359 16.355,16.359 l 0,0 c 9.02,0 16.355,-7.34 16.355,-16.359 l 0,0 c 0,-9.016 -7.335,-16.352 -16.355,-16.352 l 0,0 c -9.02,0 -16.355,7.336 -16.355,16.352 m 13.531,13.125 c -0.035,-0.039 -0.043,-0.067 -0.047,-0.074 l 0,0 c 0.019,-0.289 1.191,-0.895 1.637,-1.125 l 0,0 c 0.847,-0.438 1.363,-0.704 1.363,-1.204 l 0,0 c 0,-0.074 0.238,-0.222 0.449,-0.277 l 0,0 0.063,-0.015 0.05,-0.028 c 0.75,-0.402 2.094,-0.418 2.243,-0.418 l 0,0 0.535,0 0,-0.496 c 0,-0.324 0.527,-0.441 0.582,-0.457 l 0,0 c 0.043,-0.012 4.429,-1.457 4.429,-5.672 l 0,0 c 0,-2.297 -0.511,-3.969 -1.523,-4.972 l 0,0 c -0.852,-0.844 -1.816,-0.969 -2.316,-0.969 l 0,0 -0.082,0 c -0.063,-0.07 -0.118,-0.172 -0.118,-0.289 l 0,0 c 0.008,-0.188 0.313,-0.66 0.907,-1.41 l 0,0 0.148,-0.188 c 0.453,-0.578 0.184,-1.172 -0.129,-1.445 l 0,0 -1.672,-1.301 -0.035,-0.027 c -0.047,-0.078 -0.191,-0.395 -0.191,-1.293 l 0,0 c 0,-0.301 0.051,-0.7 0.281,-0.883 l 0,0 c 0.129,-0.102 0.273,-0.106 0.336,-0.106 l 0,0 c 0.102,0 0.625,-0.019 0.898,-0.437 l 0,0 c 0.129,-0.195 0.231,-0.524 0.024,-1.004 l 0,0 c -0.035,-0.074 -0.047,-0.137 -0.035,-0.168 l 0,0 c 0.011,-0.019 0.035,-0.043 0.062,-0.062 l 0,0 c 8.926,3.464 8.547,9.339 8.274,10.89 l 0,0 c -1.344,0.047 -2.856,0.938 -2.856,3.324 l 0,0 c 0,2.418 1.262,2.743 1.863,2.762 l 0,0 c -3.761,6.539 -9.527,7.547 -12.718,7.547 l 0,0 c -1.215,0 -2.106,-0.145 -2.422,-0.203 m -7.223,-5.422 0.043,-0.402 -0.383,-0.129 c -0.015,-0.004 -1.722,-0.586 -2.191,-2.106 l 0,0 c -0.309,-0.992 -0.152,-1.355 -0.067,-1.468 l 0,0 c 0.083,-0.114 0.239,-0.172 0.454,-0.172 l 0,0 c 0.609,0 1.132,0.257 1.14,0.257 l 0,0 0.055,0.028 0.058,0.015 c 0.016,0 0.376,0.079 0.813,0.079 l 0,0 c 0.543,0 0.988,-0.118 1.316,-0.344 l 0,0 c 0.094,-0.067 0.485,-0.172 1.125,-0.172 l 0,0 c 1.094,0 1.887,0.281 2.079,0.547 l 0,0 c 0.257,0.359 0.632,0.554 1.066,0.554 l 0,0 c 0.91,0 1.945,-0.898 2.461,-2.136 l 0,0 c 0.254,-0.606 0.793,-1.032 1.312,-1.032 l 0,0 c 0.524,0 0.786,0.442 0.899,0.766 l 0,0 c 0.004,0.024 0.5,2.207 0.023,5.129 l 0,0 c -0.453,0.371 -2.074,1.598 -4.074,1.938 l 0,0 c -2.301,0.394 -3.043,0.621 -3.504,1.667 l 0,0 c -0.883,-0.312 -2.824,-1.21 -2.625,-3.019 m -3.582,-7.871 c -0.109,-0.098 -0.176,-0.184 -0.066,-0.449 l 0,0 c 0.027,-0.071 0.058,-0.137 0.097,-0.203 l 0,0 c 0.055,-0.106 0.106,-0.208 0.149,-0.313 l 0,0 c 0.023,-0.062 0.039,-0.125 0.058,-0.199 l 0,0 c 0.036,-0.172 0.028,-0.32 0.016,-0.449 l 0,0 -0.008,-0.145 c -0.004,-0.43 0.059,-0.871 0.113,-1.211 l 0,0 c 0.25,-1.594 0.977,-2.973 2.223,-4.219 l 0,0 c 0.539,-0.539 1.176,-1.086 1.992,-1.722 l 0,0 c 0.309,-0.235 0.617,-0.469 0.926,-0.7 l 0,0 c 0.043,0.223 0.113,0.454 0.277,0.715 l 0,0 c 0.227,0.368 0.606,0.575 1.063,0.575 l 0,0 c 0.805,0 1.832,-0.688 1.906,-1.54 l 0,0 c 0.133,-1.609 0.672,-2.476 1.594,-2.578 l 0,0 c 1.742,-0.183 2.465,-0.429 3.168,-0.711 l 0,0 c 0.09,-0.035 0.215,-0.054 0.383,-0.054 l 0,0 c 0.23,0 0.48,0.035 0.703,0.066 l 0,0 0.281,0.035 c 0.652,0.067 1.297,0.164 1.945,0.274 l 0,0 0.079,0.011 c -0.008,0.012 -0.016,0.024 -0.028,0.032 l 0,0 c -0.219,0.215 -0.582,0.355 -0.937,0.488 l 0,0 -0.317,0.125 c -0.383,0.156 -0.769,0.312 -1.16,0.441 l 0,0 -0.266,0.082 c -0.417,0.125 -0.894,0.266 -1.277,0.688 l 0,0 c -0.687,0.754 -0.726,1.805 -0.695,2.535 l 0,0 c 0.027,0.82 0.125,1.774 0.605,2.606 l 0,0 c 0.215,0.39 0.399,0.796 0.582,1.203 l 0,0 0.145,0.32 c 0.234,0.527 0.324,0.836 0.355,1.008 l 0,0 c -0.097,-0.055 -0.203,-0.129 -0.226,-0.172 l 0,0 c -0.27,-1.09 -1.852,-1.121 -2.043,-1.121 l 0,0 -0.285,0.004 c -1.27,0 -2.309,-0.125 -2.782,-0.336 l 0,0 c -0.285,-0.121 -0.652,-0.188 -1.093,-0.188 l 0,0 c -1.34,0 -3.168,0.575 -4.047,1.641 l 0,0 c -0.012,0 -0.016,0.004 -0.024,0.004 l 0,0 c -0.144,0.012 -0.304,0.023 -0.457,0.113 l 0,0 c -0.492,0.301 -0.531,1.004 -0.535,1.211 l 0,0 c 0,0.527 0.18,0.941 0.426,1.066 l 0,0 c 0.031,0.083 0.019,0.426 -0.223,0.793 l 0,0 c -0.191,0.29 -0.566,0.641 -1.238,0.641 l 0,0 c -0.648,0 -1.102,-0.121 -1.379,-0.367" style="fill:url(#radialGradient274)"/>
  </g>
</svg>
