<?xml version="1.0" encoding="UTF-8" standalone="no"?>
<svg xmlns="http://www.w3.org/2000/svg" version="1.1" width="600" height="600">
  <radialGradient cx="0" cy="0" r="1" fx="0" fy="0" id="radialGradient258" gradientUnits="userSpaceOnUse" gradientTransform="matrix(17.971191,0,0,-17.971191,665.50098,372.09326)" spreadMethod="pad">
    <stop style="stop-color:#bf99c3" offset="0"/>
    <stop style="stop-color:#7b5190" offset="0.66291797"/>
    <stop style="stop-color:#612c75" offset="1"/>
  </radialGradient>
  <path d="M 0,300 C 0,465.42 134.595,600 300,600 465.405,600 600,465.42 600,300 600,134.595 465.405,0 300,0 134.595,0 0,134.595 0,300" style="fill:#ffffff"/>
  <path d="m 91.755,321.51 c 0.5244,2.4 0.12,4.575 0.06,7.32 -0.12,6.45 0.7044,13.065 1.755,19.455 4.11,26.55 16.53,48.51 35.46,67.44 9.54,9.495 19.98,18.165 30.585,26.43 5.325,4.095 10.71,8.145 16.17,12.18 2.745,1.995 7.035,8.145 8.31,1.59 1.23,-6.15 1.0656,-10.38 4.515,-16.005 7.44,-12.06 29.715,0 30.645,11.145 0.9456,11.13 4.635,42.705 30.645,45.525 25.965,2.745 36.21,6.495 45.465,10.185 6.855,2.76 17.055,0.5856 24.15,-0.1644 9.9,-1.0656 19.74,-2.52 29.58,-4.23 3.105,-0.5244 6.75,-0.4644 8.145,-3.855 1.41,-3.405 -1.05,-7.215 -3.33,-9.495 -5.565,-5.505 -14.235,-7.92 -21.21,-10.785 -5.925,-2.4 -11.835,-4.8 -17.88,-6.795 -7.2,-2.4 -14.58,-3.51 -19.98,-9.495 -7.905,-8.73 -8.955,-21.39 -8.55,-32.7 0.4644,-12.24 1.935,-24.9 8.145,-35.73 4.275,-7.44 7.62,-15.42 11.13,-23.265 2.055,-4.515 9.675,-21.33 4.635,-25.425 -4.755,-3.99 -15.42,2.865 -16.71,7.845 -2.745,11.13 -23.145,11.13 -23.145,11.13 0,0 -34.395,-0.93 -49.215,5.565 -14.88,6.51 -55.725,-1.815 -69.6,-21.33 -0.9456,-1.335 -6.21,-0.81 -7.8,-1.755 -5.445,-3.285 -6.09,-18.93 -0.5856,-22.38 7.44,-4.635 0,-34.335 -26.895,-34.335 -8.79,0 -18.81,1.35 -25.665,7.44 -4.86,4.275 -5.325,9.375 -2.985,15.12 1.05,2.64 2.64,4.98 3.69,7.68 0.18,0.5856 0.3456,1.11 0.4644,1.695 m 101.55,-191.61 c 0,0 -56.085,13.71 -51.45,55.44 0,0 -29.355,9.54 -37.68,36.435 -8.37,26.955 1.815,34.395 12.96,34.395 11.19,0 20.445,-4.62 20.445,-4.62 0,0 16.695,-3.69 26.01,2.745 9.255,6.51 49.17,5.565 58.485,-7.44 9.255,-13.005 30.585,0 39.9,22.335 9.255,22.26 38.025,29.7 47.34,2.745 0,0 8.325,-35.265 0,-82.62 0,0 -28.77,-26.01 -66.855,-32.46 -38.085,-6.495 -43.59,-9.315 -49.155,-26.955 m 226.395,119.775 c 0,-58.485 -61.23,-77.985 -61.23,-77.985 0,0 -13.875,-2.76 -13.875,-13.95 0,0 -23.79,0.3456 -37.74,-7.095 0,0 -12.42,-3.105 -12.42,-11.415 0,-8.385 -62.175,-24.855 -40.365,-42.96 0,0 161.535,-37.5 244.98,127.86 0,0 -34.755,-18.105 -34.755,30.645 0,33.69 22.56,43.995 41.31,42.12 0,0 33.75,117.195 -130.425,179.235 0,0 -11.835,-3.45 -6.915,-14.64 4.86,-11.07 -6.975,-11.07 -6.975,-11.07 0,0 -16.695,1.335 -16.695,-22.335 0,-23.67 6.27,-25.725 6.27,-25.725 l 25.02,-19.5 c 0,0 5.565,-4.875 0.69,-11.13 -4.92,-6.27 -17.4,-20.925 -17.4,-28.545 0,-5.565 3.345,-10.02 7.035,-12.075 0,0 53.49,8.205 53.49,-81.435 M 300,537.84 C 168.87,537.84 62.175,431.13 62.175,300 62.175,168.87 168.87,62.175 300,62.175 431.13,62.175 537.825,168.87 537.825,300 537.825,431.13 431.13,537.84 300,537.84 M 300,22.98 C 147.015,22.98 22.905,147.015 22.905,300 22.905,453.045 147.015,577.095 300,577.095 453.045,577.095 577.095,453.045 577.095,300 577.095,147.015 453.045,22.98 300,22.98" style="fill:#612c75"/>
  <g transform="matrix(15,0,0,-15,-9682.5,5881.41)">
    <path d="m 647.527,372.094 c 0,-9.91 8.063,-17.973 17.973,-17.973 l 0,0 c 9.91,0 17.973,8.063 17.973,17.973 l 0,0 c 0,9.91 -8.063,17.968 -17.973,17.968 l 0,0 c -9.91,0 -17.973,-8.058 -17.973,-17.968 m 1.618,0 c 0,9.015 7.335,16.355 16.355,16.355 l 0,0 c 9.02,0 16.355,-7.34 16.355,-16.355 l 0,0 c 0,-9.02 -7.335,-16.36 -16.355,-16.36 l 0,0 c -9.02,0 -16.355,7.34 -16.355,16.36 m 13.531,13.117 c -0.035,-0.035 -0.047,-0.063 -0.047,-0.066 l 0,0 c 0.019,-0.293 1.195,-0.903 1.637,-1.129 l 0,0 c 0.851,-0.438 1.367,-0.704 1.367,-1.204 l 0,0 c 0,-0.074 0.238,-0.222 0.449,-0.281 l 0,0 0.059,-0.011 0.05,-0.032 c 0.75,-0.398 2.094,-0.41 2.247,-0.41 l 0,0 0.535,0 0,-0.504 c 0,-0.32 0.519,-0.433 0.578,-0.449 l 0,0 c 0.043,-0.016 4.429,-1.457 4.429,-5.676 l 0,0 c 0,-2.301 -0.511,-3.972 -1.519,-4.972 l 0,0 c -0.856,-0.844 -1.82,-0.973 -2.32,-0.973 l 0,0 c -0.028,0 -0.055,0 -0.082,0.004 l 0,0 c -0.063,-0.07 -0.114,-0.172 -0.114,-0.293 l 0,0 c 0.004,-0.188 0.313,-0.664 0.914,-1.418 l 0,0 0.141,-0.18 c 0.449,-0.578 0.18,-1.168 -0.137,-1.441 l 0,0 -1.668,-1.301 -0.031,-0.023 c -0.047,-0.075 -0.191,-0.383 -0.191,-1.301 l 0,0 c 0,-0.297 0.047,-0.696 0.281,-0.879 l 0,0 c 0.113,-0.09 0.242,-0.102 0.312,-0.102 l 0,0 0.02,0 c 0.102,0 0.629,-0.023 0.902,-0.441 l 0,0 c 0.125,-0.191 0.231,-0.524 0.02,-1 l 0,0 c -0.035,-0.078 -0.047,-0.145 -0.031,-0.172 l 0,0 c 0.007,-0.019 0.031,-0.043 0.058,-0.062 l 0,0 c 8.93,3.464 8.543,9.343 8.27,10.89 l 0,0 c -1.34,0.051 -2.852,0.938 -2.852,3.324 l 0,0 c 0,2.422 1.266,2.743 1.863,2.762 l 0,0 c -3.761,6.539 -9.527,7.547 -12.718,7.547 l 0,0 c -1.219,0 -2.11,-0.148 -2.422,-0.207 m -7.223,-5.418 0.043,-0.402 -0.387,-0.129 c -0.015,-0.008 -1.714,-0.59 -2.187,-2.102 l 0,0 c -0.309,-0.992 -0.149,-1.359 -0.067,-1.472 l 0,0 c 0.083,-0.114 0.239,-0.172 0.454,-0.172 l 0,0 c 0.613,0 1.136,0.254 1.14,0.257 l 0,0 0.059,0.028 0.054,0.011 c 0.016,0.004 0.376,0.086 0.817,0.086 l 0,0 c 0.543,0 0.984,-0.117 1.312,-0.351 l 0,0 c 0.094,-0.063 0.485,-0.168 1.125,-0.168 l 0,0 c 1.098,0 1.891,0.281 2.079,0.547 l 0,0 c 0.257,0.355 0.636,0.554 1.066,0.554 l 0,0 c 0.91,0 1.949,-0.898 2.469,-2.136 l 0,0 c 0.25,-0.606 0.785,-1.032 1.304,-1.032 l 0,0 c 0.524,0 0.786,0.446 0.903,0.77 l 0,0 c 0.004,0.02 0.5,2.207 0.019,5.125 l 0,0 c -0.453,0.371 -2.074,1.598 -4.074,1.938 l 0,0 c -2.301,0.39 -3.043,0.621 -3.504,1.667 l 0,0 c -0.883,-0.312 -2.824,-1.214 -2.625,-3.019 m -3.582,-7.871 c -0.105,-0.098 -0.176,-0.184 -0.066,-0.449 l 0,0 c 0.027,-0.071 0.062,-0.137 0.097,-0.203 l 0,0 c 0.055,-0.102 0.106,-0.208 0.153,-0.321 l 0,0 c 0.023,-0.066 0.039,-0.121 0.054,-0.191 l 0,0 c 0.036,-0.176 0.028,-0.32 0.016,-0.449 l 0,0 -0.004,-0.145 c -0.008,-0.414 0.051,-0.844 0.113,-1.215 l 0,0 c 0.246,-1.59 0.973,-2.972 2.223,-4.215 l 0,0 c 0.676,-0.679 1.422,-1.277 1.988,-1.718 l 0,0 c 0.309,-0.243 0.617,-0.473 0.926,-0.704 l 0,0 c 0.043,0.219 0.117,0.454 0.277,0.715 l 0,0 c 0.231,0.368 0.606,0.575 1.063,0.575 l 0,0 c 0.805,0 1.836,-0.688 1.906,-1.536 l 0,0 c 0.137,-1.613 0.676,-2.48 1.598,-2.578 l 0,0 c 1.73,-0.187 2.457,-0.433 3.164,-0.715 l 0,0 c 0.09,-0.035 0.219,-0.054 0.387,-0.054 l 0,0 c 0.234,0 0.48,0.035 0.699,0.062 l 0,0 0.281,0.035 c 0.652,0.071 1.301,0.168 1.945,0.278 l 0,0 0.082,0.011 c -0.011,0.008 -0.019,0.02 -0.031,0.032 l 0,0 c -0.219,0.215 -0.586,0.355 -0.945,0.492 l 0,0 -0.324,0.125 c -0.375,0.156 -0.758,0.312 -1.145,0.437 l 0,0 -0.269,0.082 c -0.418,0.125 -0.895,0.266 -1.27,0.688 l 0,0 c -0.691,0.754 -0.73,1.809 -0.703,2.535 l 0,0 c 0.035,0.82 0.129,1.774 0.609,2.609 l 0,0 c 0.215,0.379 0.395,0.778 0.582,1.2 l 0,0 0.137,0.312 c 0.238,0.528 0.328,0.836 0.359,1.012 l 0,0 c -0.093,-0.055 -0.195,-0.129 -0.218,-0.172 l 0,0 c -0.274,-1.09 -1.852,-1.117 -2.043,-1.117 l 0,0 -0.289,0.004 c -1.266,0 -2.305,-0.125 -2.782,-0.332 l 0,0 c -0.285,-0.125 -0.648,-0.188 -1.089,-0.188 l 0,0 c -1.344,-0.004 -3.176,0.571 -4.051,1.637 l 0,0 c -0.008,0.004 -0.016,0.004 -0.024,0.004 l 0,0 c -0.148,0.012 -0.308,0.027 -0.457,0.113 l 0,0 c -0.492,0.301 -0.531,1.004 -0.535,1.211 l 0,0 c 0,0.527 0.18,0.938 0.426,1.066 l 0,0 c 0.035,0.083 0.019,0.426 -0.219,0.79 l 0,0 c -0.195,0.293 -0.566,0.644 -1.242,0.644 l 0,0 c -0.648,0 -1.098,-0.121 -1.379,-0.367" style="fill:url(#radialGradient258)"/>
  </g>
</svg>
