<?xml version="1.0" encoding="UTF-8" standalone="no"?>
<svg xmlns="http://www.w3.org/2000/svg" version="1.1" width="600" height="252.98216">
  <path d="m 139.85999,56.20489 c 0,0 -43.437366,-24.60988 -82.646643,-40.80059 0,0 45.676313,-4.73694 69.166723,-4.73694 12.14765,0 23.60143,0.53661 34.04675,1.55431 35.45303,3.50644 103.72232,15.28403 175.27601,54.71535 1.09172,-8.64121 2.27595,-14.31259 2.31296,-14.42361 l 1.37852,-6.39302 0.93444,-4.45013 4.12632,-1.97989 5.92117,-2.82181 c 18.54068,-8.77999 40.8376,-13.26713 66.31715,-13.26713 50.27448,0 97.5421,17.49522 102.78789,19.44735 l 13.22087,5.12552 4.77395,0.22204 C 535.05212,43.73342 533.75686,38.53389 533.75686,33.14932 533.75686,14.85844 548.60606,0 566.85993,0 585.10455,0 600,14.85844 600,33.14932 c 0,18.20761 -14.89545,33.10307 -33.14007,33.10307 -0.54623,0 -1.08247,-0.037 -1.62833,-0.037 l 1.7671,7.01289 -110.36513,179.75389 -31.69679,-22.33393 44.05724,-76.10559 -7.08691,-4.66293 c -13.47992,-8.49318 -27.94054,-14.31259 -43.07654,-17.20841 -1.15648,14.0998 -7.55875,31.98359 -26.67304,39.82915 -5.20879,2.16493 -11.49078,3.2844 -18.21687,3.2844 -8.66896,0 -22.11188,-1.84112 -37.14611,-10.73213 -3.83951,-2.27595 -96.35786,-55.83482 -195.55604,-55.83482 C 106.03528,109.21791 0,115.68494 0,115.68494 c 0,0 59.924135,-34.87017 139.85999,-59.48005" style="fill:#808080"/>
  <path d="m 472.06563,99.49423 -11.78684,-1.00845 13.76673,32.45544 C 415.07432,93.57305 359.05446,113.2332 359.05446,113.2332 c -5.89342,-23.60143 1.00845,-56.01986 1.00845,-56.01986 59.92414,-28.47715 151.32301,6.90187 151.32301,6.90187 -29.49484,19.62314 -39.32029,35.37902 -39.32029,35.37902 m -76.04084,38.78369 -14.34959,-7.3367 c 6.86486,-5.89342 14.74742,-4.91273 14.74742,-4.91273 l -0.39746,12.24943 z m -47.77647,7.37371 c -21.61229,-12.75828 -125.80645,-66.826 -230.93505,-57.972 0,0 42.24388,-14.74742 77.63214,-20.63159 0,0 -7.84555,-12.75828 -51.10713,-33.39912 0,0 96.3116,0.98069 196.56448,61.91328 0,0 0,16.69031 5.89342,30.46629 5.89342,13.72972 14.74743,9.78844 14.74743,9.78844 0,0 13.72972,10.84315 25.54431,14.74743 0,0 -16.72731,7.87331 -38.3396,-4.91273 m 143.47746,-9.8347 c 0,0 -3.33066,-10.40831 -10.19553,-25.15574 0,0 19.04953,-21.02942 45.57454,-34.75914 l -35.37901,59.91488 z M 566.85993,9.28884 c -13.15611,0 -23.85123,10.66736 -23.85123,23.86048 0,6.5688 2.67378,12.49923 6.97588,16.83834 l -4.69993,7.98433 -14.49763,-0.57361 c -6.75384,-2.60902 -14.59939,-5.68063 -14.59939,-5.68063 -3.96904,-1.5173 -97.46808,-37.0721 -161.8331,-6.46703 l -5.93043,2.82181 -1.36927,6.39302 c -0.18503,0.83266 -2.59976,12.72127 -3.39542,27.68149 C 266.85993,36.43372 191.21692,24.58212 159.52014,21.4365 c -33.96349,-3.35842 -67.760441,-0.074 -67.760441,-0.074 45.213721,21.14044 72.932211,38.52464 72.932211,38.52464 0,0 -41.48522,5.67138 -120.597665,44.49208 l 74.338495,-3.46944 c 110.77222,-9.32585 218.53759,53.48486 223.0895,56.15864 18.36489,10.88015 36.64651,11.20397 47.09184,6.86486 25.40553,-10.44532 20.77962,-41.95707 20.77962,-41.95707 16.91235,1.73934 36.93332,7.12391 57.53716,20.169 l 14.48837,9.42762 -44.23302,76.40165 16.69956,11.78684 103.17646,-168.05958 -1.95213,-7.83631 4.73694,-8.05835 c 2.20193,0.68464 4.5519,1.19349 7.01289,1.19349 13.19311,0 23.85123,-10.70437 23.85123,-23.85123 0,-13.19312 -10.65812,-23.86048 -23.85123,-23.86048"/>
</svg>
