<?xml version="1.0" encoding="UTF-8" standalone="no"?>
<svg xmlns="http://www.w3.org/2000/svg" version="1.1" width="600" height="253.0134">
  <radialGradient cx="0" cy="0" r="1" fx="0" fy="0" id="radialGradient354" gradientUnits="userSpaceOnUse" gradientTransform="matrix(21.765991,0,0,-21.765991,485.66211,484.02148)" spreadMethod="pad">
    <stop style="stop-color:#f6b91d" offset="0"/>
    <stop style="stop-color:#d3641c" offset="0.7"/>
    <stop style="stop-color:#bf331c" offset="1"/>
  </radialGradient>
  <path d="m 139.84023,56.21184 c 0,0 -43.442722,-24.61292 -82.656836,-40.80563 0,0 45.681946,-4.73752 69.175256,-4.73752 12.14915,0 23.60434,0.53667 34.05095,1.5545 35.4574,3.50687 103.73512,15.28591 175.33465,54.7221 1.05484,-8.64228 2.23922,-14.31436 2.27623,-14.42539 l 1.37869,-6.39381 0.93455,-4.45068 4.12683,-1.98014 5.92191,-2.82216 c 18.54296,-8.78107 40.84263,-13.26876 66.32533,-13.26876 50.28067,0 97.55413,17.49738 102.80057,19.44975 l 13.2225,5.12615 4.77454,0.22207 c -2.42428,-4.6635 -3.7197,-9.86367 -3.7197,-15.2489 C 533.7857,14.86028 548.63673,0 566.89285,0 585.17673,0 600,14.86028 600,33.15342 c 0,18.20986 -14.82327,33.10715 -33.10715,33.10715 -0.5463,0 -1.0826,-0.037 -1.62852,-0.037 l 1.80433,7.01375 -110.41577,179.77607 -31.7007,-22.33669 44.06268,-76.11498 -7.08778,-4.6635 c -13.44458,-8.49423 -27.94399,-14.31435 -43.08186,-17.21054 -1.15662,14.10154 -7.55968,31.98754 -26.67633,39.83407 -5.20943,2.16519 -11.4922,3.2848 -18.1821,3.2848 -8.70705,0 -22.15163,-1.84134 -37.18771,-10.73345 C 332.9591,162.79687 240.42934,109.23139 141.21893,109.23139 106.01135,109.23139 0,115.69922 0,115.69922 c 0,0 59.894516,-34.87447 139.84023,-59.48738" style="fill:#ffffff"/>
  <path d="m 491.74943,135.8337 c 0,0 -3.29406,-10.4096 -10.19678,-25.15885 0,0 19.05188,-20.995 45.58016,-34.76343 L 491.74943,135.8337 z M 566.89285,9.28999 c -13.15773,0 -23.85417,10.66868 -23.85417,23.86343 0,6.56961 2.67411,12.50077 6.97674,16.84042 l -4.70051,7.98531 -14.49941,-0.57368 c -6.75468,-2.60934 -14.6012,-5.68133 -14.6012,-5.68133 -3.94177,-1.51749 -97.48011,-37.07667 -161.85306,-6.46783 l -5.93116,2.82216 -1.36944,6.39381 c -0.14805,0.83276 -2.60009,12.72284 -3.39584,27.6849 C 266.85584,36.47524 191.2035,24.58516 159.50281,21.43915 c -33.96768,-3.35883 -67.768802,-0.074 -67.768802,-0.074 45.219292,21.14305 72.941212,38.52939 72.941212,38.52939 0,0 -41.49035,5.67207 -120.612547,44.49756 l 74.347667,-3.46986 c 110.78588,-9.327 218.56455,53.49145 223.11702,56.16556 18.36716,10.8815 36.68805,11.20536 47.09765,6.86571 25.40867,-10.44661 20.78218,-41.96224 20.78218,-41.96224 16.91444,1.70254 36.9749,7.12479 57.54426,20.17148 l 14.49016,9.42879 -44.23848,76.41107 16.70163,11.7883 103.2262,-168.08032 -1.98939,-7.83727 4.73752,-8.05934 c 2.23922,0.68472 4.55247,1.19363 7.01376,1.19363 13.19474,0 23.85417,-10.70569 23.85417,-23.85417 0,-13.19475 -10.65943,-23.86343 -23.85417,-23.86343" style="fill:#bf331c"/>
  <g transform="matrix(9.2529764,0,0,-9.2529764,-4169.1876,4602.384)">
    <path d="m 509.668,493.816 c 0,-0.582 0.227,-1.128 0.637,-1.539 l 0,0 0.218,-0.218 -0.16,-0.266 -0.504,-0.867 -0.121,-0.203 -0.238,0.007 -1.57,0.063 -0.067,0.004 -0.062,0.023 -1.578,0.614 c -0.535,0.203 -5.391,2.007 -10.606,2.007 l 0,0 c -2.547,0 -4.758,-0.433 -6.57,-1.296 l 0,0 -0.461,-0.223 -0.106,-0.5 c -0.003,-0.012 -0.273,-1.285 -0.359,-2.926 l 0,0 -0.035,-0.664 -0.57,0.34 c -8.293,4.933 -16.567,6.195 -19.739,6.508 l 0,0 c -1.089,0.105 -2.285,0.164 -3.558,0.164 l 0,0 c -0.824,0 -1.571,-0.024 -2.172,-0.055 l 0,0 c 4.039,-1.965 6.512,-3.512 6.539,-3.527 l 0,0 0.93,-0.586 -1.09,-0.153 c -0.039,-0.003 -3.899,-0.57 -11.125,-3.918 l 0,0 6.039,0.282 c 0.816,0.066 1.66,0.101 2.504,0.101 l 0,0 c 11.164,0 21.414,-5.972 21.847,-6.226 l 0,0 c 1.051,-0.625 2.223,-0.969 3.297,-0.969 l 0,0 c 0.547,0 1.043,0.09 1.438,0.254 l 0,0 c 2.418,0.992 2.019,3.98 2.004,4.105 l 0,0 -0.075,0.512 0.508,-0.055 c 2.266,-0.23 4.418,-0.988 6.399,-2.242 l 0,0 1.562,-1.019 0.321,-0.207 -0.188,-0.329 -4.598,-7.941 1.161,-0.82 10.839,17.66 -0.171,0.687 -0.043,0.161 0.085,0.136 0.508,0.871 0.164,0.274 0.301,-0.094 c 0.238,-0.074 0.442,-0.109 0.641,-0.109 l 0,0 c 1.203,0 2.176,0.976 2.176,2.179 l 0,0 c 0,1.2 -0.973,2.176 -2.176,2.176 l 0,0 c -1.199,0 -2.176,-0.976 -2.176,-2.176 m -6.324,-11.222 c -0.004,0.008 -0.364,1.125 -1.086,2.676 l 0,0 -0.11,0.238 0.176,0.199 c 0.086,0.094 2.141,2.336 5.043,3.844 l 0,0 1.235,0.64 -0.707,-1.199 -3.825,-6.48 -0.457,-0.774 -0.269,0.856 z" style="fill:url(#radialGradient354)"/>
  </g>
  <path d="M 348.29128,145.66961 C 326.63932,132.90976 222.4323,78.83536 117.29073,87.69046 c 0,0 42.24909,-14.74924 77.64172,-20.63414 0,0 -7.84652,-12.75985 -51.11344,-33.40324 0,0 96.32349,0.98081 196.58874,61.92092 0,0 0,16.69237 5.89414,30.47005 5.89415,13.73141 14.74925,9.78965 14.74925,9.78965 0,0 13.73142,10.84449 25.54747,14.74924 0,0 -16.69237,7.87428 -38.30733,-4.91333" style="fill:#bf331c"/>
  <path d="m 373.30208,149.27827 c -7.73549,0 -15.545,-2.27623 -23.16945,-6.79168 C 346.07982,140.09932 250.26525,84.18358 144.2539,83.06397 159.14194,78.6503 178.26784,73.59818 195.54315,70.702 l 5.42224,-0.9068 -2.85917,-4.65424 c -0.32348,-0.50929 -6.68064,-10.44661 -36.21615,-26.50053 32.13559,3.43286 102.68954,15.61903 174.87201,59.02474 0.21318,5.09839 1.19363,18.33015 6.14397,29.82234 4.70051,10.94627 11.52921,12.5748 15.17488,12.5748 0.79576,0 1.5545,-0.074 2.17445,-0.17618 2.56308,1.91537 8.13337,5.88489 14.41614,9.35476 -0.43452,0.037 -0.86053,0.037 -1.36944,0.037" style="fill:#ffffff"/>
  <path d="m 396.07365,138.29499 -14.38837,-7.33761 c 6.8657,-5.89415 14.74924,-4.91333 14.74924,-4.91333 l -0.3605,12.25094 z" style="fill:#bf331c"/>
  <path d="m 472.08685,99.50651 -11.78829,-1.00857 13.76843,32.45944 C 415.11628,93.58461 359.06175,113.24718 359.06175,113.24718 353.1676,89.64284 360.07032,57.22041 360.07032,57.22041 420.00185,28.73975 511.412,64.12313 511.412,64.12313 481.95053,83.74869 472.08685,99.50651 472.08685,99.50651" style="fill:#bf331c"/>
  <path d="m 466.30374,122.13929 c -21.72598,-11.64024 -45.80223,-17.74721 -70.19307,-17.74721 -16.09093,0 -28.30486,2.60009 -34.26378,4.1916 -3.50687,-18.86682 0.24946,-42.22133 1.48048,-48.8002 14.67522,-6.60662 32.59824,-9.93769 53.24163,-9.93769 36.46598,0 72.24724,10.52063 86.74665,15.35994 -20.09746,14.27734 -29.74832,25.99161 -33.04238,30.43304 l -9.65085,-0.82352 -6.10697,-0.50928 2.38727,5.63506 9.40102,22.19789 z" style="fill:#ffffff"/>
</svg>
