<?xml version="1.0" encoding="UTF-8" standalone="no"?>
<svg xmlns="http://www.w3.org/2000/svg" version="1.1" width="600" height="252.98216">
  <radialGradient cx="0" cy="0" r="1" fx="0" fy="0" id="radialGradient328" gradientUnits="userSpaceOnUse" gradientTransform="matrix(21.76831,0,0,-21.768295,403.66211,484.02197)" spreadMethod="pad">
    <stop style="stop-color:#bf99c3" offset="0"/>
    <stop style="stop-color:#7b5190" offset="0.66291797"/>
    <stop style="stop-color:#612c75" offset="1"/>
  </radialGradient>
  <path d="m 139.85999,56.20489 c 0,0 -43.437366,-24.60988 -82.646643,-40.80059 0,0 45.676313,-4.73694 69.166723,-4.73694 12.14765,0 23.60143,0.53661 34.04675,1.55431 35.45303,3.50644 103.72232,15.28403 175.31302,54.71535 1.05471,-8.64121 2.23894,-14.31259 2.27595,-14.42361 l 1.37852,-6.39302 0.93444,-4.45013 4.12632,-1.97989 5.92117,-2.82181 c 18.54068,-8.77999 40.8376,-13.26713 66.31715,-13.26713 50.27448,0 97.5421,17.49522 102.78789,19.44735 l 13.22087,5.12552 4.77395,0.22204 C 535.05212,43.73342 533.75686,38.53389 533.75686,33.14932 533.75686,14.85844 548.60606,0 566.85993,0 585.14155,0 600,14.85844 600,33.14932 c 0,18.20761 -14.85845,33.10307 -33.14007,33.10307 -0.54623,0 -1.08247,-0.037 -1.62833,-0.037 l 1.80411,7.01289 -110.40214,179.75389 -31.69679,-22.33393 44.05724,-76.10559 -7.08691,-4.66293 c -13.44291,-8.49318 -27.94054,-14.31259 -43.07654,-17.20841 -1.15648,14.0998 -7.55875,31.98359 -26.67304,39.82915 -5.20879,2.16493 -11.49078,3.2844 -18.17986,3.2844 -8.70597,0 -22.14889,-1.84112 -37.18312,-10.73213 -3.83951,-2.27595 -96.35786,-55.83482 -195.55604,-55.83482 C 106.03528,109.21791 0,115.68494 0,115.68494 c 0,0 59.887128,-34.87017 139.85999,-59.48005" style="fill:#ffffff"/>
  <path d="m 491.72578,135.81693 c 0,0 -3.29366,-10.40831 -10.19553,-25.15574 0,0 19.04953,-20.99241 45.57454,-34.75914 l -35.37901,59.91488 z M 566.85993,9.28884 c -13.15611,0 -23.85123,10.66736 -23.85123,23.86048 0,6.5688 2.67378,12.49923 6.97588,16.83834 l -4.69993,7.98433 -14.49763,-0.57361 c -6.75384,-2.60902 -14.59939,-5.68063 -14.59939,-5.68063 -3.94128,-1.5173 -97.46808,-37.0721 -161.8331,-6.46703 l -5.93043,2.82181 -1.36927,6.39302 c -0.14803,0.83266 -2.59976,12.72127 -3.39542,27.68149 C 266.85993,36.47073 191.21692,24.58212 159.52014,21.4365 c -33.96349,-3.35842 -67.760441,-0.074 -67.760441,-0.074 45.213721,21.14044 72.895211,38.52464 72.895211,38.52464 0,0 -41.44822,5.67138 -120.560665,44.49208 l 74.338495,-3.46944 c 110.73521,-9.32585 218.53759,53.48486 223.0895,56.15864 18.36489,10.88015 36.68352,11.20397 47.09184,6.86486 25.40553,-10.44532 20.77962,-41.95707 20.77962,-41.95707 16.91235,1.70234 36.97033,7.12391 57.53716,20.169 l 14.48837,9.42762 -44.23302,76.40165 16.69956,11.78684 103.21347,-168.05958 -1.98914,-7.83631 4.73694,-8.05835 c 2.23894,0.68464 4.5519,1.19349 7.01289,1.19349 13.19311,0 23.85123,-10.70437 23.85123,-23.85123 0,-13.19312 -10.65812,-23.86048 -23.85123,-23.86048" style="fill:#612c75"/>
  <g transform="matrix(9.2518349,0,0,-9.2518349,-3409.9858,4601.8162)">
    <path d="m 427.664,493.812 c 0,-0.578 0.227,-1.124 0.641,-1.535 l 0,0 0.215,-0.218 -0.157,-0.266 -0.504,-0.867 -0.121,-0.207 -0.242,0.011 -1.566,0.063 -0.067,0.004 -0.058,0.023 -1.582,0.61 c -0.211,0.086 -5.289,2.011 -10.61,2.011 l 0,0 c -2.543,0 -4.754,-0.433 -6.566,-1.296 l 0,0 -0.461,-0.223 -0.106,-0.496 c -0.003,-0.016 -0.273,-1.301 -0.359,-2.93 l 0,0 -0.035,-0.66 -0.57,0.34 c -8.297,4.933 -16.571,6.191 -19.739,6.504 l 0,0 c -1.089,0.105 -2.289,0.16 -3.554,0.16 l 0,0 c -0.828,0 -1.575,-0.024 -2.176,-0.051 l 0,0 c 4.043,-1.969 6.512,-3.512 6.539,-3.527 l 0,0 0.93,-0.586 -1.086,-0.153 c -0.039,-0.007 -3.903,-0.57 -11.129,-3.918 l 0,0 6.039,0.282 c 0.816,0.07 1.656,0.101 2.504,0.101 l 0,0 c 11.222,0 21.418,-5.976 21.844,-6.23 l 0,0 c 1.054,-0.621 2.226,-0.965 3.304,-0.965 l 0,0 c 0.543,0 1.039,0.09 1.438,0.254 l 0,0 c 2.414,0.992 2.019,3.98 2,4.105 l 0,0 -0.075,0.508 0.508,-0.051 c 2.27,-0.234 4.418,-0.988 6.399,-2.242 l 0,0 1.566,-1.019 0.317,-0.207 -0.192,-0.329 -4.594,-7.941 1.157,-0.82 10.843,17.66 -0.171,0.684 -0.043,0.16 0.082,0.14 0.511,0.871 0.164,0.274 0.301,-0.094 c 0.238,-0.074 0.442,-0.109 0.641,-0.109 l 0,0 c 1.203,0 2.179,0.976 2.179,2.175 l 0,0 c 0,1.204 -0.976,2.18 -2.179,2.18 l 0,0 c -1.199,0 -2.18,-0.976 -2.18,-2.18 m -6.32,-11.218 c -0.004,0.008 -0.364,1.125 -1.086,2.672 l 0,0 -0.11,0.242 0.176,0.195 c 0.086,0.094 2.141,2.344 5.039,3.844 l 0,0 1.239,0.641 -0.707,-1.2 -3.829,-6.476 -0.449,-0.77 -0.273,0.852 z" style="fill:url(#radialGradient328)"/>
  </g>
  <path d="m 348.28533,145.65163 c -21.6493,-12.75828 -125.84346,-66.826 -230.97206,-57.972 0,0 42.24388,-14.74742 77.63214,-20.63159 0,0 -7.88256,-12.75828 -51.10713,-33.39912 0,0 96.3116,0.98069 196.56448,61.91328 0,0 0,16.69031 5.89342,30.46629 5.89342,13.72972 14.74743,9.78844 14.74743,9.78844 0,0 13.72972,10.84315 25.54431,14.74743 0,0 -16.69031,7.87331 -38.30259,-4.91273" style="fill:#612c75"/>
  <path d="m 373.29304,149.25985 c -7.73454,0 -15.50608,-2.27595 -23.12959,-6.79085 -4.08931,-2.38697 -99.96608,-58.29581 -205.92734,-59.45229 14.8862,-4.37612 34.00974,-9.42762 51.31993,-12.32344 l 5.45858,-0.90668 -2.93283,-4.69068 c -0.28644,-0.47222 -6.67983,-10.40832 -36.17468,-26.42324 32.13162,3.39542 102.63986,15.61709 174.85043,59.01745 0.17616,5.09776 1.22124,18.29088 6.14322,29.78166 4.69993,10.94492 11.52778,12.57324 15.17301,12.57324 0.79566,0 1.5173,-0.074 2.13717,-0.17615 2.56276,1.91513 8.13236,5.88416 14.48838,9.39061 -0.47148,0 -0.89743,0 -1.40628,0" style="fill:#ffffff"/>
  <path d="m 396.0618,138.27792 -14.3866,-7.3367 c 6.86486,-5.89342 14.74742,-4.91273 14.74742,-4.91273 l -0.36045,12.24943 z" style="fill:#612c75"/>
  <path d="m 472.06563,99.49423 -11.78684,-1.00845 13.76673,32.45544 C 415.10208,93.57305 359.05446,113.2332 359.05446,113.2332 c -5.89342,-23.60143 1.00845,-56.01986 1.00845,-56.01986 59.92414,-28.47715 151.32301,6.90187 151.32301,6.90187 -29.45784,19.62314 -39.32029,35.37902 -39.32029,35.37902" style="fill:#612c75"/>
  <path d="m 466.28323,122.12422 c -21.72331,-11.63881 -45.79658,-17.74502 -70.14741,-17.74502 -16.12595,0 -28.33837,2.59976 -34.25955,4.19108 -3.50644,-18.86449 0.24943,-42.21612 1.44329,-48.79418 14.71042,-6.60581 32.59421,-9.97348 53.27206,-9.97348 36.42448,0 72.20132,10.55635 86.73596,15.35805 -20.09499,14.31259 -29.78166,25.9884 -33.07531,30.46629 l -9.64967,-0.82341 -6.10621,-0.50922 2.38698,5.63436 9.39986,22.19516 z" style="fill:#ffffff"/>
</svg>
