<svg xmlns="http://www.w3.org/2000/svg" width="60.850311mm" height="26.937103mm" viewBox="0 0 60.850311 26.937103" version="1.1">
  <path d="m 55.280277,4.2534579 c -0.677334,-1.60514 0.105833,-3.68299997 1.866194,-4.10985997 2.003778,-0.72319996 4.198056,1.41815997 3.605389,3.45015997 -0.229306,1.25942 -1.411111,1.97203 -2.564695,2.25425 -3.926416,6.3641101 -7.806972,12.7564501 -11.705166,19.1382001 -0.486833,0.71261 -0.797278,1.70038 -1.725083,1.95086 -0.903111,0.007 -1.68275,-0.99484 -1.153584,-1.82386 1.74625,-3.16089 3.594806,-6.26887 5.3975,-9.40153 -4.212166,-3.06917 -9.817805,-4.56142 -14.901333,-3.01978 2.074334,0.5715 4.529667,1.17475 5.616222,3.24203 -0.899583,1.95791 -3.432527,1.66511 -5.199944,1.55928 -4.949472,-0.76906 -8.681861,-4.45911 -13.183305,-6.34648 C 17.092083,9.1747079 12.237861,9.0335979 7.6870276,9.7779579 5.0129721,10.222458 2.4235833,11.093818 0,12.303848 3.3231666,7.9893679 8.5160554,5.5904779 13.712472,4.3945679 10.523361,2.8705679 6.9320832,2.6059779 3.4501666,2.6130379 8.5054721,0.78917793 14.044083,0.02364793 19.363972,0.97967793 24.246416,1.9886179 28.783138,4.3804579 32.642527,7.5025379 c 0.148167,-1.39347 0.292806,-2.79047 0.635,-4.15219 7.0485,-2.90336997 15.024805,-1.51342 22.00275,0.90311 m -5.118806,4.63902 c 0.05997,1.4393401 0.162278,2.8751401 0.218722,4.3144801 1.259417,-1.98967 2.374195,-4.0675301 3.580695,-6.0889501 -1.273528,0.57856 -2.525889,1.20297 -3.799417,1.77447 z"/>
</svg>
