<?xml version="1.0" encoding="UTF-8" standalone="no"?>
<svg xmlns="http://www.w3.org/2000/svg" version="1.1" width="600" height="596.51044">
  <path d="m 600,175.58284 -46.18482,8.96257 c -0.0597,0.0596 -6.83004,1.34214 -16.77685,1.34214 -18.87956,0 -45.43918,-4.48874 -64.55734,-25.79907 -24.45693,-27.37983 -61.39584,-73.51991 -61.39584,-73.51991 l -33.83705,0 C 375.60769,81.31928 373.162,75.78664 369.67242,70.31366 359.99403,55.22195 348.00418,48.94368 339.20565,44.27598 337.0433,43.11279 334.83621,41.94959 332.73351,40.60744 330.22817,38.74335 326.97718,29.94482 326.15698,23.12969 324.53149,9.90207 313.28727,0 300,0 c -13.34692,0.0597 -24.53149,10.02137 -26.09733,23.18934 -0.8208,6.81513 -4.07118,15.55401 -6.41249,17.35845 -2.14744,1.4018 -4.36944,2.565 -6.57652,3.72819 -8.73888,4.6677 -20.80331,10.94597 -30.46677,26.09733 -3.54924,5.41333 -5.93528,10.94597 -7.57569,16.19526 l -33.83705,0 c 0,0 -36.87926,46.14008 -61.41075,73.51991 -19.04359,21.31033 -45.603218,25.79907 -64.542424,25.79907 -9.961724,0 -16.717204,-1.28249 -16.776855,-1.34214 L 0,175.52319 l 36.178357,96.51538 95.993433,0 0,188.8552 -20.38574,0 -7.45638,13.86886 c -1.80444,3.3852 -10.901226,21.20595 -10.901226,38.38545 0,17.25406 9.320476,35.19411 11.244216,38.62405 l 7.45639,13.68991 12.34776,0 18.7006,31.04837 313.74957,0 18.7006,-31.04837 12.34776,0 7.45638,-13.68991 c 1.92375,-3.42994 11.24423,-21.36999 11.24423,-38.62405 0,-17.1795 -9.02222,-34.9406 -10.82667,-38.32579 l -7.39673,-13.92852 -20.50504,0 0,-188.8552 96.05309,0 L 600,175.58284 z" style="fill:#808080"/>
  <path d="m 309.26082,481.63742 88.83532,0 0,-103.80773 -88.83532,0 0,103.80773 z m 0,-120.06264 88.83532,0 0,-103.74807 -88.83532,0 0,103.74807 z m -18.34269,16.25491 -88.89497,0 0,103.80773 88.89497,0 0,-103.80773 z m 0,-120.00298 -88.89497,0 0,103.74807 88.89497,0 0,-103.74807 z M 318.3427,62.61868 c 10.37928,6.71074 21.0419,9.15643 29.24392,21.90684 8.51518,13.28727 6.59144,28.31933 6.59144,28.31933 l 44.27598,0 c 0,0 29.18428,36.52135 54.4614,64.76612 41.35309,46.19973 106.13412,32.74842 106.13412,32.74842 l -13.28727,35.41781 -104.09107,0 0,241.39285 30.98872,0 c 0,0 7.75463,14.56977 7.75463,25.91838 0,11.42317 -7.99323,26.05259 -7.99323,26.05259 l -11.64687,0 -18.7006,31.10802 -284.04335,0 -18.68569,-31.10802 -11.66178,0 c 0,0 -7.97832,-14.62942 -7.97832,-26.05259 0,-11.34861 7.81428,-25.91838 7.81428,-25.91838 l 30.92907,0 0,-241.39285 -104.04633,0 -13.272357,-35.41781 c 0,0 64.706467,13.45131 106.074467,-32.74842 25.33678,-28.24477 54.4614,-64.76612 54.4614,-64.76612 l 44.27598,0 c 0,0 -1.92374,-15.03206 6.57653,-28.31933 8.21693,-12.75041 18.87956,-15.1961 29.24392,-21.90684 C 297.25605,52.61221 300,26.09733 300,26.09733 c 0,0 2.84834,26.51488 18.3427,36.52135"/>
</svg>
