<?xml version="1.0" encoding="UTF-8" standalone="no"?>
<svg xmlns="http://www.w3.org/2000/svg" version="1.1" width="600" height="596.51044">
  <radialGradient cx="0" cy="0" r="1" fx="0" fy="0" id="radialGradient584" gradientUnits="userSpaceOnUse" gradientTransform="matrix(17.809357,0,0,-17.809357,748.00488,372.09912)" spreadMethod="pad">
    <stop style="stop-color:#ebd491" offset="0"/>
    <stop style="stop-color:#d2bb7b" offset="0.7"/>
    <stop style="stop-color:#8b723c" offset="1"/>
  </radialGradient>
  <path d="m 600,175.58284 -46.18482,8.96257 c -0.0597,0.0596 -6.83004,1.34214 -16.77685,1.34214 -18.87956,0 -45.43918,-4.48874 -64.55734,-25.79907 -24.45693,-27.37983 -61.39584,-73.51991 -61.39584,-73.51991 l -33.83705,0 C 375.60769,81.31928 373.162,75.78664 369.67242,70.31366 359.99403,55.22195 348.00418,48.94368 339.20565,44.27598 337.0433,43.11279 334.83621,41.94959 332.73351,40.60744 330.22817,38.74335 326.97718,29.94482 326.15698,23.12969 324.53149,9.90207 313.28727,0 300,0 c -13.34692,0.0597 -24.53149,10.02137 -26.09733,23.18934 -0.8208,6.81513 -4.07118,15.55401 -6.41249,17.35845 -2.14744,1.4018 -4.36944,2.565 -6.57652,3.72819 -8.73888,4.6677 -20.80331,10.94597 -30.46677,26.09733 -3.54924,5.41333 -5.93528,10.94597 -7.57569,16.19526 l -33.83705,0 c 0,0 -36.87926,46.14008 -61.41075,73.51991 -19.04359,21.31033 -45.603218,25.79907 -64.542424,25.79907 -9.961724,0 -16.717204,-1.28249 -16.776855,-1.34214 L 0,175.52319 l 36.178357,96.51538 95.993433,0 0,188.8552 -20.38574,0 -7.45638,13.86886 c -1.80444,3.3852 -10.901226,21.20595 -10.901226,38.38545 0,17.25406 9.320476,35.19411 11.244216,38.62405 l 7.45639,13.68991 12.34776,0 18.7006,31.04837 313.74957,0 18.7006,-31.04837 12.34776,0 7.45638,-13.68991 c 1.92375,-3.42994 11.24423,-21.36999 11.24423,-38.62405 0,-17.1795 -9.02222,-34.9406 -10.82667,-38.32579 l -7.39673,-13.92852 -20.50504,0 0,-188.8552 96.05309,0 L 600,175.58284 z"/>
  <g transform="matrix(14.91276,0,0,-14.91276,-10854.745,5847.2038)">
    <path d="m 746.777,387.895 c -0.695,-0.45 -1.41,-0.614 -1.961,-1.469 l 0,0 c -0.57,-0.887 -0.441,-1.899 -0.441,-1.899 l 0,0 -2.969,0 c 0,0 -1.953,-2.449 -3.652,-4.343 l 0,0 c -2.774,-3.098 -7.113,-2.196 -7.113,-2.196 l 0,0 0.89,-2.375 6.977,0 0,-16.187 -2.074,0 c 0,0 -0.524,-0.977 -0.524,-1.742 l 0,0 c 0,-0.762 0.539,-1.743 0.539,-1.743 l 0,0 0.778,0 1.253,-2.086 19.047,0 1.254,2.086 0.781,0 c 0,0 0.536,0.981 0.536,1.743 l 0,0 c 0,0.765 -0.52,1.742 -0.52,1.742 l 0,0 -2.078,0 0,16.187 6.98,0 0.891,2.375 c 0,0 -4.344,-0.902 -7.117,2.196 l 0,0 c -1.695,1.894 -3.652,4.343 -3.652,4.343 l 0,0 -2.969,0 c 0,0 0.129,1.012 -0.442,1.899 l 0,0 c -0.55,0.855 -1.265,1.019 -1.961,1.469 l 0,0 c -1.039,0.671 -1.23,2.449 -1.23,2.449 l 0,0 c 0,0 -0.184,-1.778 -1.223,-2.449 m 1.844,-13.09 5.957,0 0,-6.961 -5.957,0 0,6.961 z m -7.191,0 5.961,0 0,-6.961 -5.961,0 0,6.961 z m 7.191,-8.047 5.957,0 0,-6.961 -5.957,0 0,6.961 z m -7.191,0 5.961,0 0,-6.961 -5.961,0 0,6.961 z" style="fill:url(#radialGradient584)"/>
  </g>
</svg>
