<?xml version="1.0" encoding="UTF-8" standalone="no"?>
<svg xmlns="http://www.w3.org/2000/svg" version="1.1" width="600" height="596.51044">
  <path d="m 309.26082,481.63742 88.83532,0 0,-103.80773 -88.83532,0 0,103.80773 z m 0,-120.06264 88.83532,0 0,-103.74807 -88.83532,0 0,103.74807 z m -18.34269,16.25491 -88.89497,0 0,103.80773 88.89497,0 0,-103.80773 z m 0,-120.00298 -88.89497,0 0,103.74807 88.89497,0 0,-103.74807 z M 318.3427,62.61868 c 10.37928,6.71074 21.0419,9.15643 29.24392,21.90684 8.51518,13.28727 6.59144,28.31933 6.59144,28.31933 l 44.27598,0 c 0,0 29.18428,36.52135 54.4614,64.76612 41.35309,46.19973 106.13412,32.74842 106.13412,32.74842 l -13.28727,35.41781 -104.09107,0 0,241.39285 30.98872,0 c 0,0 7.75463,14.56977 7.75463,25.91838 0,11.42317 -7.99323,26.05259 -7.99323,26.05259 l -11.64687,0 -18.7006,31.10802 -284.04335,0 -18.68569,-31.10802 -11.66178,0 c 0,0 -7.97832,-14.62942 -7.97832,-26.05259 0,-11.34861 7.81428,-25.91838 7.81428,-25.91838 l 30.92907,0 0,-241.39285 -104.04633,0 -13.272357,-35.41781 c 0,0 64.706467,13.45131 106.074467,-32.74842 25.33678,-28.24477 54.4614,-64.76612 54.4614,-64.76612 l 44.27598,0 c 0,0 -1.92374,-15.03206 6.57653,-28.31933 8.21693,-12.75041 18.87956,-15.1961 29.24392,-21.90684 C 297.25605,52.61221 300,26.09733 300,26.09733 c 0,0 2.84834,26.51488 18.3427,36.52135"/>
</svg>
