<?xml version="1.0" encoding="UTF-8"?>
<svg xmlns="http://www.w3.org/2000/svg" xmlns:xlink="http://www.w3.org/1999/xlink" width="143pt" height="200pt" viewBox="0 0 143 200" version="1.1">
  <g>
    <polygon fill="url(#radialGradient856)" points="10,9 134,9 134,190 10,190"/>
    <radialGradient cx="0" cy="0" r="1" fx="0" fy="0" id="radialGradient856" gradientUnits="userSpaceOnUse" gradientTransform="matrix(71.5,0,0,-71.5,71.5,100)" spreadMethod="pad">
      <stop style="stop-color:#f6b91d" offset="0"/>
      <stop style="stop-color:#d3641c" offset="0.7"/>
      <stop style="stop-color:#bf331c" offset="1"/>
    </radialGradient>
    <radialGradient cx="0" cy="0" r="1" fx="0" fy="0" id="radialGradient3009" xlink:href="#radialGradient856" gradientUnits="userSpaceOnUse" gradientTransform="matrix(17.571274,0,0,-17.571274,747.36328,483.67578)" spreadMethod="pad"/>
    <path d=" M 0.00 0.00 L 143.00 0.00 L 143.00 200.00 L 0.00 200.00 L 0.00 0.00 M 10.00 9.00 C 10.00 69.33 10.00 129.67 10.00 190.00 C 51.33 190.00 92.67 190.00 134.00 190.00 C 134.00 129.67 134.00 69.33 134.00 9.00 C 92.67 9.00 51.33 9.00 10.00 9.00 Z"/>
    <path d="m 112.91609,39.386097 c -1.6797,1.200358 -4.43787,2.070349 -8.27453,2.609975 -3.83683,0.539855 -5.84485,1.199439 -6.02407,1.978745 -0.17939,0.77954 -0.26905,2.009053 -0.26896,3.688542 -9e-5,5.393865 1.37854,15.375415 4.13588,29.944678 2.75718,14.569435 4.55662,22.812843 5.39836,24.730243 1.07939,7.91504 2.81754,17.98716 5.21445,30.21638 2.39672,12.22929 4.52458,18.97422 6.38359,20.23482 1.8588,1.26063 4.767,1.89093 8.72461,1.89093 3.95737,0 5.69644,2.09676 5.21719,6.29028 -2.4006,0.48302 -4.2595,0.72453 -5.57672,0.72453 -1.20035,0 -3.599,-0.26987 -7.19594,-0.80962 -3.59716,-0.53973 -9.2928,-0.8096 -17.08697,-0.8096 -7.19419,0 -11.9,0.29915 -14.11744,0.89743 -2.21758,0.59829 -3.4471,0.77851 -3.68854,0.54066 -1.19665,-1.20024 -1.79494,-2.21935 -1.79487,-3.05732 -7e-5,-1.20023 2.30801,-2.3099 6.92424,-3.32902 4.61609,-1.0191 7.40353,-2.36845 8.36234,-4.04806 -1.55893,-10.67039 -3.14796,-21.43137 -4.76711,-32.28295 -1.61931,-10.8515 -2.96866,-16.51695 -4.04806,-16.99638 -1.07955,-0.4793 -9.83251,0.45015 -26.25888,2.78836 -16.42649,2.33833 -25.3002,4.34544 -26.62116,6.02132 -1.67597,5.87683 -3.35374,12.29243 -5.03332,19.24683 -1.67962,6.95446 -2.51943,13.30968 -2.5194,19.06569 -3e-5,1.67961 0.11982,3.44886 0.35952,5.30776 0.23966,1.85891 1.55974,2.78837 3.96023,2.78836 2.75541,-0.24151 5.51266,-0.48302 8.27178,-0.72454 1.2002,0.36228 1.80032,1.14261 1.80036,2.34102 -4e-5,1.19841 -4e-5,2.15805 0,2.87893 l -34.355024,2.33827 c -0.3586001,-2.75908 -0.5379001,-4.49907 -0.5379101,-5.21995 1e-5,-0.59645 0.3293404,-0.83522 0.9880001,-0.7163 0.65867,0.11893 1.52775,0.29915 2.607231,0.54066 1.20024,0 2.369371,-0.4199 3.507402,-1.2597 1.13803,-0.8398 3.296081,-7.22521 6.474161,-19.15625 3.17806,-11.93101 5.60689,-20.95383 7.28651,-27.06851 -1e-5,-0.24146 -0.0906,0.11807 -0.2717,1.07857 -0.18115,0.96061 -0.27171,1.49944 -0.2717,1.61648 L 47.44998,48.020138 C 43.96999,46.820013 40.49186,45.561222 37.01559,44.243776 19.98902,43.405917 11.475746,40.948728 11.475736,36.872184 c 9.590934,0.596584 19.602674,1.164684 30.035254,1.704304 10.43253,0.539861 17.98707,0.809734 22.66367,0.809609 7.0733,1.25e-4 15.22704,-0.539616 24.46127,-1.619222 9.23407,-1.079363 14.74949,-1.619103 16.54629,-1.619229 4.4386,1.26e-4 7.01655,1.079608 7.73387,3.238451 z m -70.8617,54.318137 c 0.35858,0.362334 2.27603,0.543467 5.75237,0.543398 5.87674,6.9e-5 12.68205,-0.269804 20.41596,-0.809613 7.73379,-0.539673 14.77879,-1.169978 21.135,-1.890926 -8e-5,-5.993797 -1.6193,-14.956247 -4.85768,-26.887365 -3.23852,-11.930924 -5.1578,-18.166305 -5.75785,-18.706161 -0.60019,-0.539626 -1.49945,-0.809499 -2.6978,-0.809614 -1.19847,1.15e-4 -2.27703,1.15e-4 -3.2357,0 -2.75914,1.15e-4 -5.75699,0.0303 -8.99357,0.09056 -3.23666,0.0605 -6.29489,0.149236 -9.17469,0.266215 C 51.76422,56.174907 48.91731,66.847143 46.09972,77.517469 43.28205,88.187962 41.9336,93.58354 42.05439,93.70423 Z"/>
  </g>
</svg>
