<?xml version="1.0" encoding="UTF-8" standalone="no"?>
<svg
   width="143pt"
   height="200pt"
   viewBox="0 0 143 200"
   version="1.1"
   id="svg18"
   sodipodi:docname="T.svg"
   inkscape:version="1.1.1 (3bf5ae0d25, 2021-09-20)"
   xmlns:inkscape="http://www.inkscape.org/namespaces/inkscape"
   xmlns:sodipodi="http://sodipodi.sourceforge.net/DTD/sodipodi-0.dtd"
   xmlns:xlink="http://www.w3.org/1999/xlink"
   xmlns="http://www.w3.org/2000/svg"
   xmlns:svg="http://www.w3.org/2000/svg">
  <defs
     id="defs22" />
  <sodipodi:namedview
     id="namedview20"
     pagecolor="#ffffff"
     bordercolor="#666666"
     borderopacity="1.0"
     inkscape:pageshadow="2"
     inkscape:pageopacity="0.0"
     inkscape:pagecheckerboard="0"
     inkscape:document-units="pt"
     showgrid="false"
     inkscape:zoom="2.6963"
     inkscape:cx="95.318"
     inkscape:cy="133.15"
     inkscape:window-width="1920"
     inkscape:window-height="986"
     inkscape:window-x="-11"
     inkscape:window-y="-11"
     inkscape:window-maximized="1"
     inkscape:current-layer="g16" />
  <g
     id="g16">
    <polygon
       fill="url(#radialGradient856)"
       points="10,190 10,9 134,9 134,190 "
       id="polygon2" />
    <radialGradient
       cx="0"
       cy="0"
       r="1"
       fx="0"
       fy="0"
       id="radialGradient856"
       gradientUnits="userSpaceOnUse"
       gradientTransform="matrix(71.5,0,0,-71.5,71.5,100)"
       spreadMethod="pad">
      <stop
         style="stop-color:#bf99c3"
         offset="0"
         id="stop4" />
      <stop
         style="stop-color:#7b5190"
         offset="0.7"
         id="stop6" />
      <stop
         style="stop-color:#612c75"
         offset="1"
         id="stop8" />
    </radialGradient>
    <radialGradient
       cx="0"
       cy="0"
       r="1"
       fx="0"
       fy="0"
       id="radialGradient3009"
       xlink:href="#radialGradient856"
       gradientUnits="userSpaceOnUse"
       gradientTransform="matrix(17.571,0,0,-17.571,747.36,483.68)"
       spreadMethod="pad" />
    <path
       d="M 0,0 H 143 V 200 H 0 V 0 m 10,9 c 0,60.33 0,120.67 0,181 41.33,0 82.67,0 124,0 0,-60.33 0,-120.67 0,-181 C 92.67,9 51.33,9 10,9 Z"
       id="path12"
       style="fill:#ffffff;fill-opacity:1" />
    <path
       d="m 112.92,39.386 c -1.68,1.2 -4.44,2.07 -8.28,2.61 -3.84,0.54 -5.843,1.2 -6.023,1.979 -0.179,0.779 -0.269,2.009 -0.268,3.688 0,5.394 1.378,15.376 4.131,29.945 2.76,14.569 4.56,22.812 5.4,24.732 1.08,7.91 2.82,17.99 5.22,30.21 2.39,12.23 4.52,18.98 6.38,20.24 1.86,1.26 4.77,1.89 8.73,1.89 3.95,0 5.69,2.1 5.21,6.29 -2.4,0.48 -4.26,0.73 -5.57,0.73 -1.2,0 -3.6,-0.27 -7.2,-0.81 -3.6,-0.54 -9.29,-0.81 -17.09,-0.81 -7.191,0 -11.897,0.3 -14.114,0.89 -2.218,0.6 -3.448,0.78 -3.689,0.54 -1.197,-1.2 -1.795,-2.22 -1.795,-3.05 0,-1.2 2.308,-2.31 6.924,-3.33 4.616,-1.02 7.404,-2.37 8.363,-4.05 -1.559,-10.67 -3.148,-21.43 -4.767,-32.28 -1.62,-10.85 -2.969,-16.52 -4.048,-17 -1.08,-0.48 -9.833,0.45 -26.259,2.79 -16.427,2.34 -25.301,4.34 -26.622,6.02 -1.675,5.88 -3.353,12.29 -5.033,19.25 -1.679,6.95 -2.519,13.31 -2.519,19.06 0,1.68 0.12,3.45 0.359,5.31 0.24,1.86 1.56,2.79 3.961,2.79 2.755,-0.24 5.512,-0.48 8.271,-0.73 1.201,0.37 1.801,1.15 1.801,2.35 0,1.19 0,2.15 0,2.87 l -34.355,2.34 c -0.359,-2.76 -0.5383,-4.5 -0.5383,-5.22 0,-0.59 0.3294,-0.83 0.9883,-0.71 0.658,0.12 1.527,0.3 2.607,0.54 1.2,0 2.369,-0.42 3.507,-1.26 1.138,-0.84 3.296,-7.23 6.475,-19.16 3.178,-11.93 5.606,-20.95 7.286,-27.07 0,-0.24 -0.09,0.12 -0.272,1.08 -0.181,0.96 -0.271,1.5 -0.271,1.62 L 47.45,48.02 c -3.48,-1.2 -6.958,-2.459 -10.434,-3.776 -17.027,-0.838 -25.54,-3.295 -25.54,-7.372 9.591,0.597 19.602,1.165 30.035,1.704 10.433,0.54 17.987,0.81 22.664,0.81 7.073,0 15.227,-0.54 24.461,-1.619 9.234,-1.079 14.754,-1.619 16.544,-1.619 4.44,0 7.02,1.079 7.74,3.238 z M 42.054,93.704 c 0.359,0.363 2.276,0.544 5.753,0.544 5.876,0 12.682,-0.27 20.416,-0.81 7.734,-0.54 14.779,-1.17 21.135,-1.891 0,-5.994 -1.62,-14.956 -4.858,-26.887 -3.238,-11.931 -5.158,-18.167 -5.758,-18.706 -0.6,-0.54 -1.499,-0.81 -2.698,-0.81 -1.198,0 -2.277,0 -3.235,0 -2.759,0 -5.757,0.03 -8.994,0.09 -3.237,0.06 -6.295,0.149 -9.175,0.266 -2.876,10.674 -5.723,21.346 -8.54,32.016 -2.818,10.671 -4.166,16.067 -4.046,16.187 z"
       id="path14"
       style="fill:#ffffff;fill-opacity:1" />
  </g>
</svg>
