<?xml version="1.0" encoding="UTF-8" standalone="no"?><!DOCTYPE svg PUBLIC "-//W3C//DTD SVG 1.1//EN" "http://www.w3.org/Graphics/SVG/1.1/DTD/svg11.dtd"><svg width="100%" height="100%" viewBox="0 0 91 90" version="1.1" xmlns="http://www.w3.org/2000/svg" xmlns:xlink="http://www.w3.org/1999/xlink" xml:space="preserve" xmlns:serif="http://www.serif.com/" style="fill-rule:evenodd;clip-rule:evenodd;stroke-linejoin:round;stroke-miterlimit:2;"><rect id="Common" x="0.008" y="0" width="90" height="90" style="fill:none;"/><path d="M46.901,1.671l-0.913,1.36l-30.007,44.638l-1.182,1.769l26.054,38.891l11.717,0l22.647,-40.817l-28.316,-45.841Z" style="fill:#fff;fill-rule:nonzero;"/><path d="M41.23,15.68l3.666,7.106l0.14,8.791l9.527,15.259c1.256,3.645 1.014,7.394 -0.709,11.247c3.925,-6.042 5.235,-10.262 3.929,-12.663c-1.306,-2.404 -4.28,-7.275 -8.926,-14.618l0.034,-8.183l3.007,-6.941l19.642,31.922l-19.642,35.593l-3.397,-5.842l0.038,-9.379l-10.275,-14.153c-1.723,-2.919 -1.437,-6.358 0.866,-10.308c-4.688,4.701 -6.045,8.628 -4.072,11.773l9.447,13.473l-0.06,8.556l-3.211,5.88l-22.615,-33.755l22.611,-33.764l0,0.006Z" style="fill-rule:nonzero;"/></svg>