<?xml version="1.0" encoding="UTF-8" standalone="no"?><!DOCTYPE svg PUBLIC "-//W3C//DTD SVG 1.1//EN" "http://www.w3.org/Graphics/SVG/1.1/DTD/svg11.dtd"><svg width="100%" height="100%" viewBox="0 0 90 90" version="1.1" xmlns="http://www.w3.org/2000/svg" xmlns:xlink="http://www.w3.org/1999/xlink" xml:space="preserve" xmlns:serif="http://www.serif.com/" style="fill-rule:evenodd;clip-rule:evenodd;stroke-linejoin:round;stroke-miterlimit:2;"><rect id="Mythic" x="0" y="0" width="90" height="90" style="fill:none;"/><g id="Mythic1" serif:id="Mythic"><path d="M46.893,1.671l-0.913,1.36l-30.007,44.638l-1.182,1.769l26.054,38.891l11.717,0l22.647,-40.817l-28.316,-45.841Z" style="fill:url(#_Linear1);fill-rule:nonzero;"/><path d="M41.222,15.68l3.666,7.106l0.14,8.791l9.527,15.259c1.256,3.645 1.014,7.394 -0.709,11.247c3.925,-6.042 5.235,-10.262 3.929,-12.663c-1.306,-2.404 -4.28,-7.275 -8.926,-14.618l0.034,-8.183l3.007,-6.941l19.642,31.922l-19.642,35.593l-3.397,-5.842l0.038,-9.379l-10.275,-14.153c-1.723,-2.919 -1.437,-6.358 0.866,-10.308c-4.688,4.701 -6.045,8.628 -4.072,11.773l9.447,13.473l-0.06,8.556l-3.211,5.88l-22.615,-33.755l22.611,-33.764l0,0.006Z" style="fill:url(#_Linear2);fill-rule:nonzero;"/></g><defs><linearGradient id="_Linear1" x1="0" y1="0" x2="1" y2="0" gradientUnits="userSpaceOnUse" gradientTransform="matrix(2e-06,0,0,2e-06,14.7909,88.3291)"><stop offset="0" style="stop-color:#000;stop-opacity:1"/><stop offset="1" style="stop-color:#000;stop-opacity:1"/></linearGradient><linearGradient id="_Linear2" x1="0" y1="0" x2="1" y2="0" gradientUnits="userSpaceOnUse" gradientTransform="matrix(41.3914,-30.8429,30.8429,41.3914,27.4381,68.0265)"><stop offset="0" style="stop-color:#bb2c26;stop-opacity:1"/><stop offset="0.04" style="stop-color:#bf3526;stop-opacity:1"/><stop offset="0.11" style="stop-color:#cb4d25;stop-opacity:1"/><stop offset="0.19" style="stop-color:#de7523;stop-opacity:1"/><stop offset="0.21" style="stop-color:#e17a23;stop-opacity:1"/><stop offset="0.29" style="stop-color:#ee8b1f;stop-opacity:1"/><stop offset="0.38" style="stop-color:#f5951e;stop-opacity:1"/><stop offset="0.5" style="stop-color:#ff9915;stop-opacity:1"/><stop offset="0.62" style="stop-color:#f5951e;stop-opacity:1"/><stop offset="0.71" style="stop-color:#ee8b1f;stop-opacity:1"/><stop offset="0.79" style="stop-color:#e17a23;stop-opacity:1"/><stop offset="0.8" style="stop-color:#e07823;stop-opacity:1"/><stop offset="0.85" style="stop-color:#d35d24;stop-opacity:1"/><stop offset="0.91" style="stop-color:#c64225;stop-opacity:1"/><stop offset="0.96" style="stop-color:#be3226;stop-opacity:1"/><stop offset="1" style="stop-color:#bb2c26;stop-opacity:1"/></linearGradient></defs></svg>