<?xml version="1.0" encoding="UTF-8" standalone="no"?><!DOCTYPE svg PUBLIC "-//W3C//DTD SVG 1.1//EN" "http://www.w3.org/Graphics/SVG/1.1/DTD/svg11.dtd"><svg width="100%" height="100%" viewBox="0 0 91 90" version="1.1" xmlns="http://www.w3.org/2000/svg" xmlns:xlink="http://www.w3.org/1999/xlink" xml:space="preserve" xmlns:serif="http://www.serif.com/" style="fill-rule:evenodd;clip-rule:evenodd;stroke-linejoin:round;stroke-miterlimit:2;"><rect id="Rare" x="0.033" y="0" width="90" height="90" style="fill:none;"/><path d="M46.926,1.671l-0.914,1.36l-30.006,44.638l-1.182,1.769l26.054,38.891l11.716,0l22.648,-40.817l-28.316,-45.841Z" style="fill:url(#_Linear1);fill-rule:nonzero;"/><path d="M41.255,15.68l3.666,7.106l0.14,8.791l9.527,15.259c1.255,3.645 1.014,7.394 -0.709,11.247c3.924,-6.042 5.235,-10.262 3.929,-12.663c-1.306,-2.404 -4.28,-7.275 -8.927,-14.618l0.034,-8.183l3.008,-6.941l19.641,31.922l-19.641,35.593l-3.397,-5.842l0.038,-9.379l-10.275,-14.153c-1.723,-2.919 -1.437,-6.358 0.866,-10.308c-4.689,4.701 -6.046,8.628 -4.073,11.773l9.447,13.473l-0.059,8.556l-3.211,5.88l-22.615,-33.755l22.611,-33.764l-0,0.006Z" style="fill:url(#_Linear2);fill-rule:nonzero;"/><defs><linearGradient id="_Linear1" x1="0" y1="0" x2="1" y2="0" gradientUnits="userSpaceOnUse" gradientTransform="matrix(2e-06,0,0,2e-06,14.8236,88.3291)"><stop offset="0" style="stop-color:#000;stop-opacity:1"/><stop offset="1" style="stop-color:#000;stop-opacity:1"/></linearGradient><linearGradient id="_Linear2" x1="0" y1="0" x2="1" y2="0" gradientUnits="userSpaceOnUse" gradientTransform="matrix(41.3914,-30.8429,30.8429,41.3914,27.4708,68.0265)"><stop offset="0" style="stop-color:#8d742f;stop-opacity:1"/><stop offset="0.07" style="stop-color:#967d38;stop-opacity:1"/><stop offset="0.18" style="stop-color:#ae954f;stop-opacity:1"/><stop offset="0.2" style="stop-color:#b39a54;stop-opacity:1"/><stop offset="0.22" style="stop-color:#b9a059;stop-opacity:1"/><stop offset="0.3" style="stop-color:#cab068;stop-opacity:1"/><stop offset="0.39" style="stop-color:#d4ba71;stop-opacity:1"/><stop offset="0.5" style="stop-color:#d7bd74;stop-opacity:1"/><stop offset="0.61" style="stop-color:#d4ba71;stop-opacity:1"/><stop offset="0.7" style="stop-color:#cab068;stop-opacity:1"/><stop offset="0.78" style="stop-color:#b9a059;stop-opacity:1"/><stop offset="0.8" style="stop-color:#b39a54;stop-opacity:1"/><stop offset="0.86" style="stop-color:#a38a45;stop-opacity:1"/><stop offset="0.94" style="stop-color:#937a35;stop-opacity:1"/><stop offset="1" style="stop-color:#8d742f;stop-opacity:1"/></linearGradient></defs></svg>