<?xml version="1.0" encoding="UTF-8" standalone="no"?><!DOCTYPE svg PUBLIC "-//W3C//DTD SVG 1.1//EN" "http://www.w3.org/Graphics/SVG/1.1/DTD/svg11.dtd"><svg width="100%" height="100%" viewBox="0 0 91 90" version="1.1" xmlns="http://www.w3.org/2000/svg" xmlns:xlink="http://www.w3.org/1999/xlink" xml:space="preserve" xmlns:serif="http://www.serif.com/" style="fill-rule:evenodd;clip-rule:evenodd;stroke-linejoin:round;stroke-miterlimit:2;"><rect id="WM" x="0.079" y="0" width="90" height="90" style="fill:none;"/><path d="M46.972,1.671l28.316,45.841l-22.648,40.817l-11.716,0l-26.054,-38.891l1.182,-1.769l30.007,-44.638l0.913,-1.36Zm-5.671,14.009l-0,-0.006l-22.611,33.764l22.615,33.755l3.211,-5.88l0.059,-8.556l-9.447,-13.473c-1.972,-3.145 -0.616,-7.072 4.073,-11.773c-2.303,3.95 -2.589,7.389 -0.866,10.308l10.275,14.153l-0.038,9.379l3.397,5.842l19.641,-35.593l-19.641,-31.922l-3.008,6.941l-0.034,8.183c4.647,7.343 7.621,12.214 8.927,14.618c1.306,2.401 -0.005,6.621 -3.929,12.663c1.723,-3.853 1.964,-7.602 0.709,-11.247l-9.527,-15.259l-0.14,-8.791l-3.666,-7.106Z" style="fill:url(#_Linear1);"/><defs><linearGradient id="_Linear1" x1="0" y1="0" x2="1" y2="0" gradientUnits="userSpaceOnUse" gradientTransform="matrix(2e-06,0,0,2e-06,-419.821,3.68455)"><stop offset="0" style="stop-color:#000;stop-opacity:1"/><stop offset="1" style="stop-color:#000;stop-opacity:1"/></linearGradient></defs></svg>