<?xml version="1.0" encoding="utf-8"?>
<!-- Generator: Adobe Illustrator 15.1.0, SVG Export Plug-In . SVG Version: 6.00 Build 0)  -->
<!DOCTYPE svg PUBLIC "-//W3C//DTD SVG 1.1//EN" "http://www.w3.org/Graphics/SVG/1.1/DTD/svg11.dtd">
<svg version="1.1" id="Layer_1" xmlns="http://www.w3.org/2000/svg" xmlns:xlink="http://www.w3.org/1999/xlink" x="0px" y="0px"
	 width="160px" height="75px" viewBox="0 0 160 75" enable-background="new 0 0 160 75" xml:space="preserve">
<g id="Layer_1_1_">
</g>
<g id="Layer_3" display="none">
</g>
<g>
	<path fill="#FFFFFF" d="M146.819,5.186l-1.037-1.445H27.755c-1.641,0-3.059,1.15-3.396,2.759c-0.334,1.606,0.5,3.229,2.006,3.892
		c1.291,0.565,3.945,2.243,4.523,3.738c0.111,0.291,0.143,0.538-0.041,0.947L12.601,55.908c-2.396,5.361-6.59,8.939-6.625,8.969
		c-0.791,0.661-1.248,1.637-1.248,2.666v0.552c0,1.916,1.554,3.47,3.471,3.47h30.6c1.57,0,3.037-0.996,3.443-2.512
		c0.402-1.499-0.148-3.025-1.477-3.82c-0.369-0.307-2.756-2.539-2.756-8.494c0-4.26,9.314-10.416,15.609-13.234
		c0.08-0.038,0.158-0.076,0.236-0.117l6.648,14.879c1.643,3.676-3.148,6.756-3.338,6.876c-1.32,0.813-1.941,2.406-1.516,3.9
		c0.422,1.491,1.783,2.522,3.336,2.522h86.797l1.037-1.443c0.324-0.451,7.908-11.248,7.908-32.469
		C154.728,16.43,147.144,5.635,146.819,5.186z"/>
	<path d="M61.165,67.344c2.195-1.977,5.375-5.91,3.189-10.801l-18.398-41.17L34.468,41.084h14.52
		c-5.133,2.706-15.199,8.877-15.199,15.652c0,5.676,1.824,8.955,3.174,10.606H9.533c1.535-1.469,4.784-4.932,6.921-9.713
		L34.7,16.798c0.621-1.388,0.662-2.801,0.125-4.19c-0.775-2.009-2.631-3.599-4.203-4.646h38.152
		c-1.752,1.646-3.189,4.348-1.633,7.83l19.125,42.8c2,4.479,4.85,7.254,6.799,8.753H61.165L61.165,67.344z"/>
	<path d="M143.599,7.961H78.181c-2.053,0-4.404,1.332-5.598,3.166c-0.561,0.867-1.094,2.208-0.438,3.68
		c0.141,0.316,14.221,31.951,18.66,41.754c4.693,10.364,16.771,10.771,18.127,10.783h34.668c1.172-1.841,6.908-11.795,6.908-29.691
		C150.509,19.757,144.771,9.804,143.599,7.961z M92.243,49.855c2.422-2.873,4.643-5.625,6.648-8.258
		c2.01-2.63,3.721-5.132,5.141-7.508c1.42-2.371,2.527-4.585,3.326-6.646c0.795-2.062,1.191-3.954,1.191-5.688
		c0-1.974-0.463-3.419-1.398-4.337c-0.939-0.917-2.045-1.377-3.326-1.377c-0.832,0-1.561,0.164-2.182,0.494
		s-1.125,0.761-1.504,1.298c-0.385,0.536-0.668,1.162-0.859,1.872c-0.189,0.709-0.287,1.445-0.287,2.206
		c0,0.487,0.033,0.96,0.105,1.429c0.068,0.466,0.174,0.875,0.314,1.222l-0.158,0.151l-5.764-7.269
		c1.246-1.214,2.775-2.225,4.594-3.039c1.818-0.813,3.834-1.218,6.053-1.218c1.557,0,3.057,0.199,4.492,0.597
		c1.438,0.396,2.711,0.983,3.818,1.766c1.107,0.778,1.99,1.746,2.65,2.908c0.654,1.158,0.984,2.52,0.984,4.075
		c0,1.838-0.406,3.524-1.223,5.063c-0.811,1.543-1.918,3.137-3.322,4.78c-1.402,1.645-3.063,3.436-4.986,5.376
		c-1.92,1.94-3.99,4.224-6.205,6.856h12.777l0.156-0.056l2.596-5.658h0.207v11.167H92.345L92.243,49.855z M129.38,16.042
		c-0.799,0-1.479,0.172-2.051,0.521c-0.574,0.346-1.039,0.798-1.402,1.352s-0.635,1.191-0.807,1.918
		c-0.174,0.729-0.258,1.455-0.258,2.182l-0.158,0.055l-4.152-4.518c1.174-1.387,2.584-2.46,4.23-3.222
		c1.645-0.761,3.473-1.141,5.48-1.141c1.49,0,2.893,0.182,4.207,0.546c1.314,0.363,2.459,0.899,3.428,1.605
		c0.969,0.71,1.742,1.603,2.313,2.676c0.57,1.074,0.855,2.319,0.855,3.74c0,1.179-0.201,2.245-0.598,3.195
		c-0.398,0.951-0.91,1.801-1.531,2.545c-0.625,0.745-1.336,1.369-2.129,1.867c-0.795,0.504-1.596,0.876-2.389,1.117v0.211
		c1.105,0.274,2.146,0.655,3.115,1.141c0.967,0.486,1.809,1.092,2.52,1.818c0.709,0.727,1.264,1.593,1.66,2.596
		c0.396,1.006,0.6,2.146,0.6,3.427c0,3.36-1.072,6.021-3.221,7.977c-2.146,1.957-5.193,2.934-9.143,2.934
		c-2.18,0-4.111-0.364-5.791-1.091c-1.678-0.727-3.072-1.644-4.18-2.75l4.469-5.509l0.15,0.052c0,0.831,0.098,1.635,0.289,2.416
		c0.189,0.777,0.494,1.462,0.91,2.05c0.412,0.588,0.939,1.064,1.584,1.429c0.637,0.364,1.391,0.546,2.256,0.546
		c1.594,0,2.807-0.571,3.635-1.712c0.834-1.146,1.248-2.789,1.248-4.937c0-1.074-0.102-2.101-0.309-3.09
		c-0.207-0.985-0.545-1.852-1.014-2.596c-0.471-0.744-1.1-1.344-1.896-1.791c-0.797-0.452-1.783-0.677-2.961-0.677l-2.803-2.651
		v-0.207h1.297c1.143,0,2.141-0.24,2.984-0.727c0.85-0.485,1.545-1.124,2.08-1.923c0.537-0.795,0.943-1.687,1.223-2.672
		c0.273-0.987,0.414-1.982,0.414-2.988c0-1.974-0.389-3.419-1.172-4.337C131.587,16.502,130.593,16.042,129.38,16.042z"/>
</g>
</svg>
