<?xml version="1.0" encoding="utf-8"?>
<!-- Generator: Adobe Illustrator 15.1.0, SVG Export Plug-In . SVG Version: 6.00 Build 0)  -->
<!DOCTYPE svg PUBLIC "-//W3C//DTD SVG 1.1//EN" "http://www.w3.org/Graphics/SVG/1.1/DTD/svg11.dtd">
<svg version="1.1" id="Layer_1" xmlns="http://www.w3.org/2000/svg" xmlns:xlink="http://www.w3.org/1999/xlink" x="0px" y="0px"
	 width="160px" height="75px" viewBox="0 0 160 75" enable-background="new 0 0 160 75" xml:space="preserve">
<g id="Layer_1_1_">
</g>
<g id="Layer_3" display="none">
</g>
<g>
	<path d="M146.82,4.645l-1.037-1.445H27.756c-1.642,0-3.06,1.15-3.397,2.759c-0.334,1.606,0.5,3.229,2.006,3.892
		c1.292,0.565,3.945,2.243,4.523,3.738c0.112,0.291,0.143,0.538-0.041,0.947L12.601,55.367c-2.396,5.361-6.59,8.939-6.625,8.969
		c-0.791,0.661-1.248,1.637-1.248,2.666v0.552c0,1.916,1.554,3.47,3.471,3.47h30.6c1.57,0,3.037-0.996,3.444-2.512
		c0.401-1.499-0.149-3.025-1.478-3.82c-0.369-0.307-2.756-2.539-2.756-8.494c0-4.26,9.314-10.416,15.61-13.234
		c0.08-0.038,0.158-0.076,0.235-0.117l6.648,14.879c1.643,3.676-3.148,6.756-3.337,6.876c-1.321,0.813-1.942,2.406-1.517,3.9
		c0.422,1.491,1.783,2.522,3.337,2.522h86.797l1.037-1.443c0.324-0.451,7.908-11.248,7.908-32.469
		C154.729,15.889,147.145,5.094,146.82,4.645z"/>
	<path fill="#8D742F" d="M61.165,66.803c2.195-1.977,5.376-5.91,3.189-10.801l-18.397-41.17L34.468,40.543h14.521
		c-5.134,2.706-15.2,8.877-15.2,15.652c0,5.676,1.825,8.955,3.175,10.606H9.533c1.535-1.469,4.784-4.932,6.921-9.713L34.7,16.257
		c0.621-1.388,0.663-2.801,0.125-4.19c-0.775-2.009-2.63-3.599-4.202-4.646h38.151c-1.752,1.646-3.188,4.348-1.633,7.83l19.126,42.8
		c2,4.479,4.849,7.254,6.799,8.753H61.165L61.165,66.803z"/>
	<linearGradient id="SVGID_1_" gradientUnits="userSpaceOnUse" x1="87.0381" y1="47.9414" x2="149.2014" y2="18.9542">
		<stop  offset="0" style="stop-color:#8D742F"/>
		<stop  offset="0.0465" style="stop-color:#937A35"/>
		<stop  offset="0.1072" style="stop-color:#A38A45"/>
		<stop  offset="0.15" style="stop-color:#B39A54"/>
		<stop  offset="0.1754" style="stop-color:#B9A059"/>
		<stop  offset="0.2692" style="stop-color:#CAB068"/>
		<stop  offset="0.372" style="stop-color:#D4BA71"/>
		<stop  offset="0.5" style="stop-color:#D7BD74"/>
		<stop  offset="0.628" style="stop-color:#D4BA71"/>
		<stop  offset="0.7308" style="stop-color:#CAB068"/>
		<stop  offset="0.8246" style="stop-color:#B9A059"/>
		<stop  offset="0.85" style="stop-color:#B39A54"/>
		<stop  offset="0.8516" style="stop-color:#B29953"/>
		<stop  offset="0.9021" style="stop-color:#9E853F"/>
		<stop  offset="0.9519" style="stop-color:#917833"/>
		<stop  offset="1" style="stop-color:#8D742F"/>
	</linearGradient>
	<path fill="url(#SVGID_1_)" d="M143.6,7.42H78.181c-2.053,0-4.404,1.332-5.597,3.166c-0.562,0.867-1.095,2.208-0.438,3.68
		c0.141,0.316,14.222,31.951,18.661,41.754c4.692,10.364,16.771,10.771,18.127,10.783h34.668c1.172-1.841,6.908-11.795,6.908-29.691
		C150.51,19.216,144.771,9.263,143.6,7.42z M92.244,49.314c2.422-2.873,4.642-5.625,6.648-8.258c2.009-2.63,3.72-5.132,5.14-7.508
		c1.421-2.371,2.528-4.585,3.327-6.646c0.794-2.062,1.19-3.954,1.19-5.688c0-1.974-0.463-3.419-1.397-4.337
		c-0.939-0.917-2.046-1.377-3.327-1.377c-0.832,0-1.56,0.164-2.181,0.494s-1.125,0.761-1.505,1.298
		c-0.385,0.536-0.668,1.162-0.858,1.872c-0.189,0.709-0.287,1.445-0.287,2.206c0,0.487,0.033,0.96,0.105,1.429
		c0.068,0.466,0.174,0.875,0.313,1.222l-0.157,0.151l-5.764-7.269c1.246-1.214,2.775-2.225,4.594-3.039
		c1.817-0.813,3.833-1.218,6.052-1.218c1.557,0,3.058,0.199,4.493,0.597c1.438,0.396,2.71,0.983,3.817,1.766
		c1.107,0.778,1.991,1.746,2.65,2.908c0.654,1.158,0.984,2.52,0.984,4.075c0,1.838-0.405,3.524-1.222,5.063
		c-0.812,1.543-1.918,3.137-3.322,4.78c-1.402,1.645-3.063,3.436-4.987,5.376c-1.919,1.94-3.99,4.224-6.205,6.856h12.777
		l0.157-0.056l2.596-5.658h0.206v11.167H92.346L92.244,49.314z M129.38,15.501c-0.798,0-1.479,0.172-2.05,0.521
		c-0.575,0.346-1.039,0.798-1.402,1.352s-0.635,1.191-0.807,1.918c-0.175,0.729-0.259,1.455-0.259,2.182l-0.157,0.055l-4.153-4.518
		c1.174-1.387,2.585-2.46,4.23-3.222c1.645-0.761,3.474-1.141,5.481-1.141c1.489,0,2.892,0.182,4.206,0.546
		c1.314,0.363,2.46,0.899,3.429,1.605c0.968,0.71,1.741,1.603,2.313,2.676c0.569,1.074,0.855,2.319,0.855,3.74
		c0,1.179-0.201,2.245-0.599,3.195c-0.398,0.951-0.909,1.801-1.531,2.545c-0.624,0.745-1.335,1.369-2.129,1.867
		c-0.795,0.504-1.595,0.876-2.389,1.117v0.211c1.106,0.274,2.147,0.655,3.115,1.141c0.968,0.486,1.81,1.092,2.52,1.818
		s1.264,1.593,1.66,2.596c0.397,1.006,0.601,2.146,0.601,3.427c0,3.36-1.073,6.021-3.221,7.977
		c-2.147,1.957-5.194,2.934-9.143,2.934c-2.181,0-4.112-0.364-5.791-1.091s-3.073-1.644-4.18-2.75l4.468-5.509l0.151,0.052
		c0,0.831,0.098,1.635,0.288,2.416c0.189,0.777,0.494,1.462,0.91,2.05c0.412,0.588,0.94,1.064,1.584,1.429
		c0.637,0.364,1.391,0.546,2.257,0.546c1.594,0,2.807-0.571,3.635-1.712c0.833-1.146,1.247-2.789,1.247-4.937
		c0-1.074-0.102-2.101-0.309-3.09c-0.207-0.985-0.545-1.852-1.014-2.596c-0.47-0.744-1.1-1.344-1.896-1.791
		c-0.798-0.452-1.783-0.677-2.962-0.677l-2.802-2.651v-0.207h1.297c1.142,0,2.14-0.24,2.984-0.727
		c0.85-0.485,1.544-1.124,2.079-1.923c0.538-0.795,0.943-1.687,1.223-2.672c0.274-0.987,0.414-1.982,0.414-2.988
		c0-1.974-0.389-3.419-1.171-4.337C131.587,15.961,130.594,15.501,129.38,15.501z"/>
</g>
</svg>
