<?xml version="1.0" encoding="UTF-8" standalone="no"?>
<svg xmlns="http://www.w3.org/2000/svg" xmlns:xlink="http://www.w3.org/1999/xlink" version="1.1" id="Layer_1" x="0px" y="0px" width="69.217px" height="50px" viewBox="0 0 69.217 50">
  <path d="M 19.085938 1.2460938 C 14.585938 1.2460938 11.517719 2.6386719 9.1367188 5.7636719 C 3.9177187 12.607672 2.3135469 24.041875 1.5605469 32.046875 C 1.1105469 36.834875 0.16984375 46.804953 7.2148438 48.626953 C 7.5438438 48.708953 7.9127812 48.751953 8.3007812 48.751953 C 12.332781 48.751953 19.460406 43.834625 23.566406 39.265625 C 23.595406 39.235625 26.567875 36.3125 34.671875 36.3125 C 42.757875 36.3125 45.602094 39.217328 45.621094 39.236328 C 49.736094 43.814328 56.757922 48.751953 60.919922 48.751953 C 61.307922 48.751953 61.672953 48.709953 62.001953 48.626953 C 69.048953 46.801953 68.10925 36.834875 67.65625 32.046875 C 66.90325 24.044875 65.302984 12.612672 60.083984 5.7636719 C 57.701984 2.6386719 54.632859 1.2460938 50.130859 1.2460938 C 47.063859 1.2460937 43.631375 1.6864219 41.234375 4.8574219 L 27.980469 4.8574219 C 25.584469 1.6864219 22.153938 1.2460938 19.085938 1.2460938 z M 53.794922 7.0996094 C 57.532383 7.0691909 56.697028 12.129348 53.505859 11.390625 C 51.396459 10.891625 51.432582 7.1069594 53.794922 7.0996094 z M 14.785156 10.251953 C 16.989156 10.251953 18.783203 12.044047 18.783203 14.248047 C 18.783203 16.451047 16.989156 18.246094 14.785156 18.246094 C 12.582156 18.246094 10.789062 16.451047 10.789062 14.248047 C 10.789062 12.044047 12.582156 10.251953 14.785156 10.251953 z M 48.890625 12.060547 C 49.679454 12.043382 50.419041 12.534652 50.820312 13.195312 C 52.016951 14.92067 49.760914 17.135147 47.992188 16.220703 C 45.936143 15.393399 46.697905 11.985997 48.890625 12.060547 z M 59.126953 12.214844 C 59.990397 12.19181 60.802695 12.749926 61.242188 13.466797 C 62.492403 15.511021 59.035655 17.926069 57.632812 15.853516 C 56.284996 14.599607 57.400254 12.256384 59.126953 12.214844 z M 54.041016 17.257812 C 54.696792 17.19304 55.280544 17.607401 55.689453 18.080078 C 57.403797 19.533719 55.25492 22.698065 53.318359 21.601562 C 51.171146 20.83359 51.819019 17.331682 54.041016 17.257812 z M 24.349609 20.724609 C 27.307609 20.724609 29.714844 23.132844 29.714844 26.089844 C 29.714844 29.046844 27.307609 31.453125 24.349609 31.453125 C 21.390609 31.453125 18.984375 29.046844 18.984375 26.089844 C 18.984375 23.132844 21.390609 20.724609 24.349609 20.724609 z M 43.777344 21.634766 C 46.146344 21.634766 48.076172 23.5655 48.076172 25.9375 C 48.076172 28.3095 46.145344 30.240234 43.777344 30.240234 C 41.404344 30.240234 39.476562 28.3095 39.476562 25.9375 C 39.476563 23.5665 41.404344 21.634766 43.777344 21.634766 z "/>
</svg>
