<?xml version="1.0" encoding="UTF-8" standalone="no"?>
<svg xmlns:svg="http://www.w3.org/2000/svg" xmlns="http://www.w3.org/2000/svg" version="1.1" id="Layer_1" x="0px" y="0px" width="648.9px" height="634.622px">
  <linearGradient id="SVGID_1_" gradientUnits="userSpaceOnUse" x1="461.917" y1="187.2422" x2="188.2522" y2="460.907">
    <stop offset="0.2" style="stop-color:#BF331C"/>
    <stop offset="0.5" style="stop-color:#F6971D"/>
    <stop offset="0.8" style="stop-color:#BF331C"/>
  </linearGradient>
  <polygon fill="#FFFFFF" points="326.95,595.604 74.95,347.604 324.22,49.544 579.95,344.604 " id="polygon9"/>
  <path d="M323.74,0.454c0.819-1.27,1.76,0.47,2.359,1.02c98.341,117.641,196.761,235.211,295.13,352.83   c9.19,11.1,18.591,22.021,27.671,33.211c-55.71,55.799-111.98,111.039-167.58,166.949c2.649,20.62,8.52,41.24,20.06,58.73   c5.49,8.4,12.71,15.55,20.91,21.3c-106.78,0.25-213.561,0.04-320.33,0.11c-22.03-0.08-44.07,0.149-66.1-0.11   c14.319-9.181,24.22-23.82,30.71-39.28c3.859-9.21,6.62-18.869,8.58-28.65c0.21-1.819,1.18-4.18-0.631-5.51   c-25.72-25.289-51.14-50.869-76.76-76.26C65.13,452.403,32.5,420.024,0,387.515c104.12-124.791,208.54-249.33,312.77-374.031   C316.46,9.164,319.979,4.704,323.74,0.454z M324.22,49.544c-18.939,23.141-38.35,45.91-57.46,68.91   c-63.31,75.68-126.64,151.35-189.93,227.04c-1.1,0.86-0.94,2.239,0.21,2.989c27.9,27.771,55.88,55.471,83.8,83.23   c6.18,5.84,11.78,12.33,18.33,17.75c0.2-53.8-0.08-107.609,0.14-161.41c11.681-9.09,24.94-15.88,38.601-21.47   c1.52-7.13,2.88-14.41,5.99-21.09c8.55-19.899,26.369-34.39,45.8-43.07c4.51-1.909,9.029-4,13.91-4.8   c5.96,16.721,7.779,34.54,10.149,52.029c23.601-1.85,47.3-1.609,70.92-0.119c2.44-17.48,4.061-35.391,10.29-52.02   c16.4,4.539,31.7,13.299,43.87,25.199c11.851,11.6,19.42,27.29,21.39,43.74c13.75,5.91,27.591,12.32,39.08,22.08   c-0.09,50.46-0.06,100.92-0.01,151.38c2.53-1.75,4.601-4.04,6.76-6.2c28.73-28.64,57.62-57.109,86.311-85.779   c1.27-0.92-0.19-2.181-0.74-3c-71.55-85.451-143.02-170.971-214.55-256.431C346.08,75.544,335.479,62.254,324.22,49.544z    M293.76,299.644c-0.05,40.211,0.19,80.42,0.521,120.631c0.87,20.77,4.09,41.439,9.17,61.6c5.5,21.12,13.41,41.88,25.67,60.05   c5.84-7.97,10.25-16.909,14.27-25.92c10.88-25.149,16.67-52.239,19.59-79.399c1.971-16.94,1.25-34,1.431-51   c0.109-28.621,0.1-57.23,0.25-85.84C341.47,294.254,316.979,294.474,293.76,299.644z"/>
</svg>
