<?xml version="1.0" encoding="utf-8"?>
<!-- Generator: Adobe Illustrator 15.1.0, SVG Export Plug-In . SVG Version: 6.00 Build 0)  -->
<!DOCTYPE svg PUBLIC "-//W3C//DTD SVG 1.1//EN" "http://www.w3.org/Graphics/SVG/1.1/DTD/svg11.dtd">
<svg version="1.1" id="Layer_1" xmlns="http://www.w3.org/2000/svg" xmlns:xlink="http://www.w3.org/1999/xlink" x="0px" y="0px"
	 width="135px" height="155px" viewBox="0 0 135 155" enable-background="new 0 0 135 155" xml:space="preserve">
<g id="Layer_1_1_">
</g>
<g id="Layer_3" display="none">
</g>
<g>
	<path fill="#5D5E61" d="M125.779,4.546l-15.582,25.192L90.156,36.89l5.565-31.883l-9.003,2.649l-9.517,17.175h-12.81
		c-12.438,0-24.889,1.962-37.026,5.833l-0.39-1.871H2.008l8.36,46.336L10.7,75.35l3.882,58.985l34.156,18.026h27.079l42.271-21.803
		l7.917-58.695l0.679-1.03L133.2,2.361L125.779,4.546z"/>
	<path d="M65.038,66.933v50.546h-4.263V82.638l-5.241-20.056L65.038,66.933z M59.222,132.493l-4.277,16.117h10.094v-16.117H59.222z
		 M56.422,123.021V93.97l-11.248,9.473v41.624l5.882,2.735l4.519-19.056h9.464v-5.726H56.422z M127.614,10.655l-5.57,58.544
		l-51.55,78.358V84.858l7.617-7.533c2.398-2.517,5.518-5.64,8.185-6.366l25.017-8.849l0.312-4.786L84.719,67.366l1.238-6.747
		l26.066-9.409l0.33-5.058l-25.303,8.505l2.33-12.422l23.996-8.562L127.614,10.655z M108.688,73.915L73.107,87.101l7.844,16.255
		L108.688,73.915z M51,43.223c0,0,6.74-2.189,14.038-2.465V29.627c-12.607-0.07-25.092,1.899-37.456,5.986l2.047,11.02
		l35.409,16.454V51.095L51,43.223z M113.688,127.455l6.595-48.88l-46.142,69.261L113.688,127.455z M74.586,47.826l-4.092,13.564
		v18.953l9.037-10.352l10.06-57.632L75.298,38.19h-4.804v9.636H74.586z M25.814,94.703l-1.202-10.531l-8.907-5.453l3.466,52.65
		l21.969,11.688v-38.336L25.814,94.703z M30.68,82.951L14.706,72.285L7.72,33.567h15.371l3.11,14.995l24.069,11.993l5.9,22.396
		H30.68z M19.869,56.144l25.558,10.691l-0.823-4.388L19.515,51.92L19.869,56.144z M21.052,65.48l26.216,11.188l-0.79-4.221
		L20.705,61.552L21.052,65.48z"/>
</g>
</svg>
