<?xml version="1.0" encoding="utf-8"?>
<!-- Generator: Adobe Illustrator 15.1.0, SVG Export Plug-In . SVG Version: 6.00 Build 0)  -->
<!DOCTYPE svg PUBLIC "-//W3C//DTD SVG 1.1//EN" "http://www.w3.org/Graphics/SVG/1.1/DTD/svg11.dtd">
<svg version="1.1" id="Layer_1" xmlns="http://www.w3.org/2000/svg" xmlns:xlink="http://www.w3.org/1999/xlink" x="0px" y="0px"
	 width="135px" height="155px" viewBox="0 0 135 155" enable-background="new 0 0 135 155" xml:space="preserve">
<g id="Layer_1_1_">
</g>
<g id="Layer_3" display="none">
</g>
<g>
	<path fill="#FFFFFF" d="M125.766,4.766l-15.582,25.192l-20.041,7.151l5.565-31.883l-9.003,2.649L77.188,25.05h-12.81
		c-12.438,0-24.889,1.962-37.026,5.833l-0.39-1.871H1.994l8.36,46.336l0.332,0.221l3.882,58.986l34.156,18.025h27.079l42.271-21.803
		l7.917-58.695l0.679-1.03l6.516-68.472L125.766,4.766z"/>
	<path d="M65.023,67.152v50.546h-4.262V82.857L55.52,62.801L65.023,67.152z M59.208,132.713l-4.277,16.117h10.094v-16.117H59.208z
		 M56.408,123.24V94.189l-11.248,9.473v41.624l5.882,2.735l4.519-19.057h9.464v-5.726L56.408,123.24L56.408,123.24z M127.602,10.875
		l-5.57,58.544L70.48,147.777V85.078l7.617-7.533c2.398-2.517,5.519-5.64,8.186-6.366L111.3,62.33l0.312-4.786L84.705,67.586
		l1.238-6.747l26.065-9.409l0.33-5.058l-25.303,8.505l2.33-12.422l23.995-8.562L127.602,10.875z M108.675,74.135L73.094,87.32
		l7.844,16.255L108.675,74.135z M50.986,43.442c0,0,6.74-2.189,14.038-2.465v-11.13c-12.606-0.07-25.091,1.899-37.456,5.986
		l2.047,11.02l35.408,16.454V51.314L50.986,43.442z M113.675,127.675l6.595-48.88l-46.142,69.262L113.675,127.675z M74.572,48.046
		L70.48,61.61v18.953l9.037-10.352l10.06-57.632L75.284,38.41H70.48v9.636H74.572z M25.801,94.923l-1.202-10.53l-8.907-5.453
		l3.466,52.649l21.969,11.688v-38.336L25.801,94.923z M30.666,83.171L14.692,72.505L7.706,33.787h15.371l3.11,14.995l24.069,11.993
		l5.9,22.396H30.666z M19.855,56.363l25.558,10.691l-0.823-4.388L19.501,52.14L19.855,56.363z M21.038,65.7l26.216,11.188
		l-0.79-4.222L20.691,61.771L21.038,65.7z"/>
</g>
</svg>
