<?xml version="1.0" encoding="utf-8"?>
<!-- Generator: Adobe Illustrator 15.1.0, SVG Export Plug-In . SVG Version: 6.00 Build 0)  -->
<!DOCTYPE svg PUBLIC "-//W3C//DTD SVG 1.1//EN" "http://www.w3.org/Graphics/SVG/1.1/DTD/svg11.dtd">
<svg version="1.1" id="Layer_1" xmlns="http://www.w3.org/2000/svg" xmlns:xlink="http://www.w3.org/1999/xlink" x="0px" y="0px"
	 width="135px" height="155px" viewBox="0 0 135 155" enable-background="new 0 0 135 155" xml:space="preserve">
<g id="Layer_1_1_">
</g>
<g id="Layer_3" display="none">
</g>
<g>
	<path d="M126.022,4.266L110.44,29.458l-20.041,7.151l5.565-31.883l-9.003,2.649l-9.517,17.175h-12.81
		c-12.438,0-24.889,1.962-37.026,5.833l-0.39-1.871H2.251l8.36,46.336l0.332,0.221l3.882,58.985l34.156,18.026h27.079l42.271-21.803
		l7.917-58.695l0.679-1.03l6.516-68.472L126.022,4.266z"/>
	<linearGradient id="SVGID_1_" gradientUnits="userSpaceOnUse" x1="22.0771" y1="19.1733" x2="122.005" y2="119.1012">
		<stop  offset="0" style="stop-color:#626E77"/>
		<stop  offset="0.0508" style="stop-color:#67747D"/>
		<stop  offset="0.1173" style="stop-color:#74838D"/>
		<stop  offset="0.1921" style="stop-color:#8B9DA8"/>
		<stop  offset="0.25" style="stop-color:#A0B6C2"/>
		<stop  offset="0.2534" style="stop-color:#A1B7C3"/>
		<stop  offset="0.3247" style="stop-color:#ADC6D4"/>
		<stop  offset="0.4027" style="stop-color:#B5CEDE"/>
		<stop  offset="0.5" style="stop-color:#B7D1E1"/>
		<stop  offset="0.5973" style="stop-color:#B5CEDE"/>
		<stop  offset="0.6753" style="stop-color:#ADC6D4"/>
		<stop  offset="0.7466" style="stop-color:#A1B7C3"/>
		<stop  offset="0.75" style="stop-color:#A0B6C2"/>
		<stop  offset="0.7657" style="stop-color:#99ADB9"/>
		<stop  offset="0.8254" style="stop-color:#81929C"/>
		<stop  offset="0.8849" style="stop-color:#707E88"/>
		<stop  offset="0.9435" style="stop-color:#65727B"/>
		<stop  offset="1" style="stop-color:#626E77"/>
	</linearGradient>
	<path fill="url(#SVGID_1_)" d="M65.281,66.652v50.546h-4.263V82.357l-5.241-20.056L65.281,66.652z M59.465,132.213l-4.277,16.117
		h10.094v-16.117H59.465z M56.665,122.74V93.689l-11.248,9.473v41.624l5.882,2.735l4.519-19.056h9.464v-5.726H56.665z
		 M127.857,10.375l-5.57,58.544l-51.55,78.358V84.578l7.617-7.533c2.398-2.517,5.518-5.64,8.185-6.366l25.017-8.849l0.312-4.786
		L84.962,67.086l1.238-6.747l26.066-9.409l0.33-5.058l-25.303,8.505l2.33-12.422l23.996-8.562L127.857,10.375z M108.932,73.635
		L73.351,86.82l7.844,16.255L108.932,73.635z M51.243,42.942c0,0,6.74-2.189,14.038-2.465V29.347
		c-12.607-0.07-25.092,1.899-37.456,5.986l2.047,11.02l35.409,16.454V50.814L51.243,42.942z M113.932,127.175l6.595-48.88
		l-46.142,69.261L113.932,127.175z M74.829,47.546L70.737,61.11v18.953l9.037-10.352l10.06-57.632L75.541,37.91h-4.804v9.636H74.829
		z M26.058,94.423l-1.202-10.531l-8.907-5.453l3.466,52.65l21.969,11.688v-38.336L26.058,94.423z M30.923,82.671L14.949,72.005
		L7.963,33.287h15.371l3.11,14.995l24.069,11.993l5.9,22.396H30.923z M20.112,55.863L45.67,66.555l-0.823-4.388L19.758,51.64
		L20.112,55.863z M21.295,65.2l26.216,11.188l-0.79-4.221L20.948,61.271L21.295,65.2z"/>
</g>
</svg>
