<?xml version="1.0" encoding="utf-8"?>
<svg xmlns="http://www.w3.org/2000/svg" xmlns:xlink="http://www.w3.org/1999/xlink" version="1.1" id="Layer_1" x="0px" y="0px" width="299.607px" height="261.949px" viewBox="-144.341 -145.052 299.607 261.949">
  <path fill="#FFFFFF" d="M154.313-9.604c-4.807-35.311-34.843-57.824-52.368-68.111l-0.259-0.13  c-4.138-2.249-13.055-7.367-21.609-13.157c7.471-1.913,13.078-6.928,15.974-14.346c3.853-9.926-2.224-20.576-9.226-27.245  c-8.143-7.806-20.448-12.459-32.96-12.459c-12.354,0-24.503,4.913-32.567,13.132c-6.204,6.281-9.538,14.191-9.384,22.178  c0.207,10.107,5.299,17.5,11.037,24.763c3.205,4.11,13.027,10.573,21.739,16.259c4.859,3.153,9.485,6.204,12.175,8.323  c-17.991,2.12-27.193,13.958-30.062,18.327c-4.344-9.435-7.91-20.912-12.46-37.195c-2.042-7.238-7.962-28.021-7.962-28.021  l-0.905-3.102l-0.956,3.102c0,0-5.919,20.783-7.936,28.021c-4.575,16.283-8.142,27.76-12.484,37.195  c-2.817-4.369-12.071-16.208-30.062-18.327c2.688-2.119,7.341-5.17,12.174-8.323c8.686-5.687,18.534-12.149,21.739-16.259  c5.713-7.264,10.882-14.656,11.037-24.763c0.156-7.987-3.179-15.896-9.383-22.178c-8.064-8.219-20.239-13.132-32.569-13.132  c-12.511,0-24.814,4.653-32.957,12.459c-7.005,6.669-13.054,17.319-9.229,27.245c2.896,7.418,8.504,12.433,15.948,14.346  c-8.504,5.79-17.421,10.908-21.583,13.157l-0.258,0.13c-17.526,10.288-47.587,32.801-52.343,68.111  c-4.394,32.62,6.436,63.56,31.405,89.461c8.375,8.686,30.786,28.976,58.366,30.216c7.987,0.338,17.835-2.507,29.416-8.477  c2.663-1.682,20.626,1.42,29.002,14.14l0.671,1.161l0.596-1.188c8.4-12.717,26.365-15.819,29.027-14.14  c11.58,5.997,21.429,8.814,29.39,8.479c27.582-1.242,50.019-21.506,58.366-30.219C147.851,53.956,158.707,23.016,154.313-9.604"/>
  <path d="M145.914-8.467C141.646-40.235,113.86-60.888,97.705-70.4c0,0-29.622-15.897-40.658-28.745  c-3.077-3.567-4.783-7.573-4.292-11.347c0.749-5.506,9.254-10.21,16.258-4.369c8.014,6.695-2.944,15.147-2.944,15.147  s16.567,5.531,22.1-8.711c2.247-5.816-2.276-13.364-7.16-18.017c-6.618-6.332-16.777-10.131-27.143-10.131  c-17.497,0-33.706,11.967-33.446,26.675c0.128,6.695,3.05,12.174,9.125,19.516c7.856,9.59,44.742,26.495,68.858,55.988  c15.305,18.637,21.558,46.786,15.354,70.18c-5.943,22.28-25.15,44.976-50.609,45.492c-2.095,0.053-5.171,0.414-8.169-2.275  c-3.309-3.05-2.74-10.597,1.914-17.111c4.29-5.944,13.646-11.553,22.799-15.275c10.646-4.344,22.797-9.952,23.082-19.464  c0.205-5.972-1.656-9.668-1.656-9.668s-3.282,7.107-9.796,6.746c-3.901-0.206-7.729-1.085-9.1-3.515  c-4.238-7.42,11.66-25.564,3.232-37.688c-8.323-11.917-27.452-11.554-30.14-19.696c-3.801-11.554,11.53-14.476,11.53-14.476  c-15.976-4.239-26.419,6.023-30.529,10.21c-7.158,7.29-2.455,17.268,2.198,20.085C53.453-11.698,56.915,1.768,55.211,7.56  c-1.525,4.987-6.488,8.916-11.375,8.943c1.655-4.421,3.645-14.062-5.557-25.41C22.59-28.267,15.662-41.347,6.15-77.122l-0.724-2.506  l-0.672,2.506C-4.758-41.348-11.66-28.292-27.375-8.907c-9.202,11.348-7.212,20.989-5.558,25.41  c-4.886-0.027-9.848-3.956-11.373-8.919c-1.733-5.816,1.732-19.256,16.698-28.432c4.626-2.818,9.383-12.795,2.224-20.085  c-4.137-4.187-14.605-14.423-30.554-10.21c0,0,15.329,2.895,11.502,14.449c-2.663,8.169-21.764,7.806-30.088,19.723  c-8.451,12.123,7.419,30.268,3.206,37.661c-1.37,2.456-5.195,3.335-9.072,3.541c-6.54,0.361-9.849-6.746-9.849-6.746  s-1.835,3.696-1.654,9.668c0.31,9.512,12.433,15.12,23.057,19.464c9.202,3.747,18.559,9.355,22.824,15.275  c4.679,6.488,5.221,14.037,1.939,17.111c-2.973,2.689-6.074,2.328-8.195,2.275c-25.435-0.517-44.667-23.212-50.585-45.492  c-6.204-23.421,0.026-51.542,15.329-70.18c24.142-29.493,61.028-46.397,68.911-55.988c6.075-7.367,8.969-12.847,9.1-19.542  c0.258-14.708-15.948-26.676-33.474-26.676c-10.392,0-20.498,3.8-27.116,10.133c-4.859,4.653-9.408,12.226-7.16,18.042  c5.533,14.243,22.101,8.711,22.101,8.711s-10.96-8.453-2.973-15.147c7.03-5.842,15.51-1.137,16.284,4.369  c0.491,3.774-1.188,7.779-4.29,11.322C-57.179-86.297-86.802-70.4-86.802-70.4c-16.181,9.512-43.943,30.165-48.207,61.933  c-4.032,29.983,6.022,58.469,29.104,82.404c12.874,13.338,35.362,29.105,55.006,27.529c7.91-0.569,19.128-3.128,27.865-11.607  c3.49-3.411,4.989-7.624,4.549-12.639c-0.879-9.177-8.66-18.999-15.536-23.574c-17.886-11.865-21.325-22.67-21.48-28.821  c4.265,3.567,14.682,6.593,14.682,6.593c22.462,7.546,27.994,20.058,36.033,48.827l0.646,2.353l0.749-2.327  C1.394,64.787,4.031,53.519-2.69,38.576c-4.834-10.829-6.798-19.826-6.255-28.33c0.647-9.77,7.238-17.99,14.398-25.408  C12.612-7.743,19.229,0.476,19.85,10.246c0.569,8.53-1.448,17.552-6.308,28.33c-6.72,14.942-4.057,26.211,0.75,41.694l0.697,2.327  l0.647-2.353c8.063-28.77,13.596-41.281,36.032-48.827c0,0,10.443-3.025,14.682-6.593c-0.155,6.151-3.566,16.956-21.454,28.821  c-6.849,4.575-14.63,14.397-15.509,23.574c-0.491,4.989,1.061,9.229,4.523,12.639c8.736,8.479,20.008,11.038,27.864,11.607  c19.645,1.576,42.158-14.191,55.032-27.529C139.864,50.002,149.971,21.517,145.914-8.467"/>
</svg>
