<?xml version="1.0" encoding="utf-8"?>
<svg xmlns="http://www.w3.org/2000/svg" xmlns:xlink="http://www.w3.org/1999/xlink" version="1.1" id="Layer_1" x="0px" y="0px" width="299.607px" height="261.949px">
  <path d="M298.654,135.449c-4.808-35.312-34.843-57.824-52.368-68.111l-0.259-0.13c-4.139-2.249-13.056-7.367-21.609-13.157  c7.472-1.913,13.078-6.928,15.975-14.346c3.854-9.926-2.225-20.576-9.227-27.245c-8.143-7.806-20.448-12.459-32.96-12.459  c-12.354,0-24.503,4.913-32.566,13.132c-6.203,6.281-9.538,14.191-9.385,22.178c0.207,10.107,5.3,17.5,11.037,24.763  c3.205,4.11,13.027,10.573,21.739,16.259c4.858,3.153,9.484,6.204,12.175,8.323c-17.991,2.12-27.192,13.958-30.062,18.327  c-4.346-9.435-7.91-20.912-12.461-37.195c-2.042-7.238-7.962-28.021-7.962-28.021l-0.904-3.102l-0.956,3.102  c0,0-5.919,20.783-7.938,28.021c-4.574,16.283-8.142,27.76-12.482,37.195c-2.817-4.369-12.071-16.208-30.063-18.327  c2.688-2.119,7.341-5.17,12.174-8.323c8.688-5.688,18.534-12.149,21.739-16.259c5.713-7.264,10.882-14.656,11.037-24.763  c0.156-7.987-3.179-15.896-9.383-22.178c-8.064-8.219-20.239-13.132-32.569-13.132c-12.511,0-24.813,4.653-32.957,12.459  c-7.005,6.669-13.054,17.319-9.229,27.245c2.896,7.418,8.504,12.433,15.947,14.346c-8.505,5.79-17.422,10.908-21.583,13.157  l-0.259,0.13C35.772,77.626,5.711,100.139,0.955,135.449c-4.394,32.619,6.437,63.56,31.405,89.461  c8.375,8.686,30.786,28.976,58.365,30.216c7.986,0.338,17.836-2.507,29.416-8.478c2.663-1.683,20.626,1.42,29.003,14.141l0.671,1.16  l0.596-1.188c8.4-12.717,26.365-15.817,29.027-14.141c11.579,5.998,21.429,8.813,29.39,8.479  c27.582-1.242,50.02-21.507,58.366-30.22C292.192,199.009,303.048,168.068,298.654,135.449"/>
  <linearGradient id="SVGID_1_" gradientUnits="userSpaceOnUse" x1="220.4626" y1="173.8818" x2="-11.3419" y2="307.7142" gradientTransform="matrix(1 0 0 -1 54 376.9492)">
    <stop style="stop-color:#536e78" offset="0"/>
    <stop style="stop-color:#99aebc" offset="0.3"/>
    <stop style="stop-color:#d9eaf3" offset="0.5"/>
    <stop style="stop-color:#99aebc" offset="0.7"/>
    <stop style="stop-color:#536e78" offset="1"/>
  </linearGradient>
  <path fill="url(#SVGID_1_)" d="M290.255,136.586c-4.268-31.768-32.054-52.421-48.209-61.933c0,0-29.622-15.897-40.657-28.745  c-3.076-3.567-4.782-7.573-4.292-11.347c0.749-5.506,9.254-10.21,16.259-4.369c8.014,6.695-2.944,15.147-2.944,15.147  s16.567,5.531,22.101-8.711c2.246-5.816-2.275-13.364-7.16-18.017c-6.617-6.332-16.776-10.131-27.144-10.131  c-17.497,0-33.706,11.967-33.445,26.675c0.128,6.695,3.051,12.174,9.125,19.516c7.855,9.59,44.741,26.495,68.857,55.988  c15.305,18.637,21.559,46.786,15.354,70.18c-5.942,22.28-25.149,44.976-50.608,45.491c-2.095,0.054-5.171,0.414-8.169-2.273  c-3.31-3.051-2.74-10.598,1.914-17.111c4.29-5.943,13.646-11.553,22.799-15.274c10.646-4.344,22.797-9.952,23.082-19.465  c0.205-5.972-1.656-9.668-1.656-9.668s-3.281,7.106-9.796,6.746c-3.9-0.205-7.729-1.084-9.1-3.515  c-4.238-7.42,11.659-25.563,3.23-37.688c-8.322-11.917-27.452-11.554-30.14-19.696c-3.801-11.554,11.53-14.476,11.53-14.476  c-15.978-4.239-26.42,6.023-30.529,10.21c-7.158,7.29-2.455,17.268,2.198,20.085c14.938,9.151,18.4,22.616,16.696,28.41  c-1.523,4.985-6.486,8.916-11.375,8.942c1.655-4.422,3.646-14.063-5.557-25.41c-15.688-19.36-22.617-32.44-32.129-68.215  l-0.725-2.506l-0.673,2.506c-9.512,35.774-16.413,48.83-32.129,68.215c-9.201,11.349-7.212,20.988-5.558,25.41  c-4.886-0.026-9.848-3.957-11.373-8.92c-1.733-5.816,1.731-19.256,16.698-28.432c4.626-2.818,9.383-12.795,2.224-20.085  c-4.137-4.187-14.604-14.423-30.554-10.21c0,0,15.329,2.895,11.502,14.449c-2.663,8.169-21.765,7.806-30.088,19.723  c-8.451,12.124,7.419,30.268,3.206,37.661c-1.37,2.457-5.195,3.336-9.072,3.541c-6.54,0.36-9.849-6.746-9.849-6.746  s-1.836,3.696-1.654,9.668c0.31,9.513,12.433,15.121,23.057,19.465c9.202,3.747,18.561,9.354,22.824,15.274  c4.679,6.488,5.221,14.037,1.938,17.111c-2.974,2.688-6.073,2.327-8.194,2.273c-25.437-0.518-44.667-23.211-50.585-45.491  c-6.204-23.421,0.025-51.542,15.329-70.18c24.142-29.493,61.026-46.397,68.911-55.988c6.073-7.367,8.969-12.847,9.1-19.542  c0.258-14.708-15.948-26.676-33.474-26.676c-10.394,0-20.498,3.8-27.116,10.133c-4.859,4.653-9.408,12.226-7.16,18.042  c5.533,14.243,22.102,8.711,22.102,8.711s-10.961-8.453-2.974-15.147c7.03-5.842,15.51-1.137,16.284,4.369  c0.491,3.774-1.188,7.779-4.29,11.322c-11.038,12.873-40.661,28.77-40.661,28.77c-16.181,9.512-43.942,30.165-48.207,61.933  c-4.032,29.982,6.022,58.469,29.104,82.404c12.874,13.338,35.36,29.104,55.006,27.527c7.91-0.568,19.128-3.127,27.864-11.605  c3.489-3.411,4.988-7.625,4.55-12.641c-0.879-9.177-8.66-18.998-15.536-23.572c-17.887-11.865-21.325-22.67-21.48-28.821  c4.267,3.567,14.684,6.593,14.684,6.593c22.462,7.547,27.993,20.06,36.032,48.827l0.646,2.353l0.749-2.325  c4.785-15.484,7.422-26.752,0.701-41.695c-4.834-10.829-6.798-19.826-6.255-28.33c0.646-9.771,7.236-17.989,14.396-25.408  c7.159,7.418,13.776,15.639,14.397,25.408c0.567,8.529-1.448,17.552-6.31,28.33c-6.72,14.94-4.057,26.211,0.75,41.693l0.697,2.327  l0.647-2.354c8.063-28.77,13.596-41.281,36.03-48.827c0,0,10.443-3.024,14.684-6.593c-0.155,6.15-3.566,16.956-21.454,28.82  c-6.851,4.576-14.63,14.396-15.509,23.574c-0.491,4.988,1.061,9.229,4.521,12.639c8.736,8.479,20.008,11.039,27.864,11.607  c19.645,1.575,42.158-14.191,55.032-27.529C284.205,195.055,294.312,166.57,290.255,136.586"/>
</svg>
