<?xml version="1.0" encoding="UTF-8" standalone="no"?>
<svg xmlns="http://www.w3.org/2000/svg" version="1.1" width="600" height="569.40082">
  <path d="m 242.23158,59.38902 c -12.61222,-9.01076 -30.74762,-17.566 -54.64819,-17.566 -28.25649,0 -57.50943,17.29553 -74.52026,44.04311 -8.61218,13.6229 -12.89692,28.47001 -13.338198,43.35983 -16.911188,-3.6584 -37.765472,-4.05698 -56.996966,7.34526 -21.18169,12.51257 -43.5448847,42.14986 -42.70501932,77.68043 0.4418546,18.79021 8.55523892,54.22114 57.87953632,80.24273 l 4.113917,2.16373 67.55934,0 C 150.87131,308.99986 600,569.40083 600,569.40083 c 0,0 -126.27875,-133.16849 -157.35377,-165.98018 6.44846,0.95432 76.0007,10.90402 76.0007,10.90402 0,0 -91.13251,-85.52392 -125.32499,-117.66656 l 111.31775,0 1.60855,-0.27104 c 19.30267,-3.45911 55.77276,-22.91836 55.77276,-71.7302 0,-25.97888 -11.23142,-46.98975 -31.57325,-59.23186 -14.46276,-8.66912 -32.19958,-11.44494 -47.71574,-8.34171 -9.62286,-8.89688 -23.68705,-16.84001 -40.04307,-19.17456 2.34877,-8.28477 4.11392,-17.40941 4.11392,-26.97533 C 446.80286,79.36016 413.83458,0 335.92639,0 285.44906,0 256.69434,34.30637 242.23158,59.38845" style="fill:#808080"/>
  <path d="m 497.19478,488.16165 -105.09705,-110.81953 70.56292,10.00721 -116.67011,-109.42449 156.98365,0 c 0,0 40.31354,-7.17445 40.31354,-53.2674 0,-46.10718 -44.65522,-57.55213 -66.22125,-46.10718 0,0 -27.35968,-37.42384 -64.84046,-17.2386 0,0 15.84357,-24.45574 15.84357,-50.37768 0,-24.68351 -27.35969,-92.18591 -92.1432,-92.18591 -64.82622,0 -87.84423,72.00067 -87.84423,72.00067 0,0 -20.18523,-30.24939 -60.49877,-30.24939 -40.31354,0 -86.36379,48.99689 -63.34578,97.92261 0,0 -40.313535,-24.46998 -72.00066,-5.72247 -31.644419,18.67632 -61.8938077,84.91181 14.391592,125.22535 l 158.421378,0 51.82966,38.9185 -95.0329,-11.50188 315.3481,182.82019 z"/>
  <path d="m 322.97253,277.92484 95.36031,88.96879 -66.39207,-9.18158 65.33868,67.5024 -164.69902,-96.64146 66.44901,5.89329 -65.89385,-56.71226 69.83694,0.17082 z" style="fill:#808080"/>
</svg>
