<?xml version="1.0" encoding="UTF-8" standalone="no"?>
<svg xmlns="http://www.w3.org/2000/svg" version="1.1" width="600" height="569.40082">
  <radialGradient cx="0" cy="0" r="1" fx="0" fy="0" id="radialGradient544" gradientUnits="userSpaceOnUse" gradientTransform="matrix(16.774673,0,0,-16.774673,133.79004,262.16699)" spreadMethod="pad">
    <stop style="stop-color:#d9eaf3" offset="0"/>
    <stop style="stop-color:#99aebc" offset="0.66291797"/>
    <stop style="stop-color:#536e78" offset="1"/>
  </radialGradient>
  <path d="m 242.23159,59.38902 c -12.61221,-9.01076 -30.74761,-17.566 -54.64818,-17.566 -28.31343,0 -57.49519,17.29553 -74.52026,44.04311 -8.61218,13.6229 -12.89692,28.47001 -13.338206,43.35983 -16.911188,-3.6584 -37.822412,-4.05698 -56.996965,7.34526 -21.195924,12.51257 -43.54488367,42.14986 -42.70501831,77.68043 0.44185459,18.79021 8.55523871,54.22114 57.87953431,80.24273 l 4.113917,2.16372 67.559348,0 C 150.87132,308.99985 600,569.40082 600,569.40082 c 0,0 -126.27874,-133.16848 -157.35375,-165.98017 6.44845,0.95431 76.00069,10.90401 76.00069,10.90401 0,0 -91.13251,-85.52391 -125.32499,-117.66656 l 111.26081,0 1.66549,-0.27103 c 19.30267,-3.45911 55.77276,-22.91836 55.77276,-71.7302 0,-25.97888 -11.23142,-46.98975 -31.58748,-59.23186 -14.50547,-8.66912 -32.18535,-11.44494 -47.70151,-8.34171 -9.62286,-8.89688 -23.68705,-16.84001 -40.04307,-19.17456 2.33454,-8.28477 4.12815,-17.40941 4.12815,-26.97533 C 446.8171,79.36016 413.83459,0 335.9264,0 285.44907,0 256.63742,34.30637 242.23159,59.38845" style="fill:#ffffff"/>
  <path d="m 497.19479,488.16164 -105.09705,-110.81952 70.56292,10.00721 -116.67011,-109.4245 156.98365,0 c 0,0 40.31354,-7.17444 40.31354,-53.26739 0,-46.10718 -44.65522,-57.55213 -66.23548,-46.10718 0,0 -27.34545,-37.42384 -64.82622,-17.2386 0,0 15.84356,-24.45574 15.84356,-50.37768 0,-24.6835 -27.35968,-92.1859 -92.1432,-92.1859 -64.82621,0 -87.84422,72.00066 -87.84422,72.00066 0,0 -20.18524,-30.24939 -60.49877,-30.24939 -40.31354,0 -86.36379,48.99689 -63.34578,97.92261 0,0 -40.313543,-24.46998 -72.000667,-5.72248 -31.701359,18.67633 -61.9507465,84.91182 14.391591,125.22535 l 158.421386,0 51.82966,38.91851 -95.0329,-11.50188 315.34809,182.82018 z" style="fill:#536e78"/>
  <g transform="matrix(14.235006,0,0,-14.235006,-1623.4937,3975.909)">
    <path d="m 131.855,272.805 -0.253,-0.782 -0.457,0.68 c -0.055,0.082 -1.344,1.953 -3.918,1.953 l 0,0 c -1.391,0 -2.915,-0.926 -3.786,-2.301 l 0,0 c -0.468,-0.738 -1.132,-2.242 -0.3,-4.007 l 0,0 0.558,-1.196 -1.129,0.684 c -0.011,0.008 -1.414,0.84 -2.937,0.84 l 0,0 c -0.645,0 -1.219,-0.149 -1.711,-0.442 l 0,0 c -1.102,-0.648 -2.195,-2.214 -2.156,-3.937 l 0,0 c 0.043,-1.633 1.097,-3.055 3.066,-4.117 l 0,0 11.027,0 0.133,0 0.106,-0.078 3.64,-2.735 1.2,-0.898 -1.485,0.183 -4.746,0.575 18.074,-10.485 -5.48,5.781 -0.789,0.832 1.136,-0.16 3.7,-0.523 -7.266,6.816 -0.738,0.692 1.011,0 10.957,-0.008 c 0.102,0.023 2.504,0.5 2.504,3.351 l 0,0 c 0,2.149 -1.543,3.125 -2.972,3.125 l 0,0 c -0.41,0 -0.801,-0.082 -1.094,-0.242 l 0,0 -0.305,-0.164 -0.207,0.278 c -0.011,0.015 -1.101,1.472 -2.664,1.472 l 0,0 c -0.457,0 -0.918,-0.125 -1.375,-0.371 l 0,0 -1.371,-0.734 0.844,1.301 c 0.012,0.019 1.051,1.648 1.051,3.324 l 0,0 c 0,1.676 -1.868,6.078 -6.075,6.078 l 0,0 c -4.203,0 -5.777,-4.735 -5.793,-4.785" style="fill:url(#radialGradient544)"/>
  </g>
  <path d="m 450.4755,451.25027 -36.08574,-21.13899 -164.69902,-96.64145 -21.90768,-12.83998 25.29561,2.22066 48.76913,4.39862 -52.4987,-45.15344 -11.61577,-10.06415 15.40228,0.0569 69.83694,0.15602 2.2349,0 1.66549,1.50891 95.36031,88.96879 13.12467,12.28481 -17.79376,-2.44842 -50.05028,-6.94669 53.82256,55.65888 29.13906,29.97892 z" style="fill:#536e78"/>
  <path d="m 322.97255,277.92483 95.37454,88.96879 -66.4063,-9.18158 65.33867,67.5024 -164.69902,-96.64145 66.44901,5.89329 -65.89384,-56.71227 69.83694,0.17082 z" style="fill:#ffffff"/>
</svg>
