<svg xmlns="http://www.w3.org/2000/svg" version="1.1" width="524.54163" height="469.41406">
  <path d="m 317.18027,0 c -64.82622,0 -87.84375,72 -87.84375,72 0,0 -20.18451,-30.248047 -60.49805,-30.248047 -40.31354,0 -86.363705,48.99616 -63.3457,97.921877 0,0 -40.314822,-24.47017 -72.001947,-5.72266 -31.6444194,18.67632 -61.892822,84.91302 14.392578,125.22656 H 206.30527 L 258.1334,298.0957 163.10215,286.59375 478.4498,469.41406 373.35215,358.59375 443.91465,368.60156 327.24472,259.17773 H 484.2291 c 0,0 40.3125,-7.17463 40.3125,-53.26758 0,-46.10718 -44.65467,-57.55237 -66.2207,-46.10742 0,0 -27.35907,-37.42352 -64.83985,-17.23828 0,0 15.84375,-24.45697 15.84375,-50.378907 C 409.3248,67.502037 381.96378,0 317.18027,0 Z"/>
</svg>
