<?xml version="1.0" encoding="UTF-8" standalone="no"?>
<svg xmlns="http://www.w3.org/2000/svg" xmlns:xlink="http://www.w3.org/1999/xlink" version="1.1" width="359.37091" height="403.01108" viewBox="0 0 359.3709 403.01108">
    <linearGradient id="linearGradient2260">
      <stop offset="0.1" style="stop-color:#536e78"/>
      <stop offset="0.3" style="stop-color:#99aebc"/>
      <stop offset="0.5" style="stop-color:#d9eaf3"/>
      <stop offset="0.7" style="stop-color:#99aebc"/>
      <stop offset="0.9" style="stop-color:#536e78"/>
    </linearGradient>
       <linearGradient xlink:href="#linearGradient2260" id="linearGradient915" x1="-8.2782097" y1="199.21233" x2="367.64822" y2="199.21233" gradientUnits="userSpaceOnUse"/>
  <g>
    <path d="M 104.26381,0 4.30224,89.448942 53.66393,145.20042 21.12301,173.55797 51.4444,216.45474 0,264.7538 l 90.20851,95.83353 37.29726,-33.36082 52.17922,75.78458 52.30025,-75.78458 37.35668,33.36082 L 359.3709,264.7538 307.92651,216.45474 338.24789,173.55797 305.70698,145.20042 355.06866,89.448942 255.12429,0 205.58804,56.005069 179.68544,33.038318 153.78284,56.005069 Z"/>
    <path d="m 255.89699,22.800187 77.029,67.890625 -39.656,44.927738 -76.849,-68.568363 z m -152.424,0 39.47647,44.25 -76.84947,68.568363 -39.656,-44.927738 z m 76.212,31.90625 132.79,118.259763 -84.084,10.64844 -48.706,-43.87695 -48.706,43.87695 -84.084,-10.64844 z m 133.29,125.619143 -133.29,195.29883 -133.29,-195.29883 83.002,9.68945 50.288,73.38867 50.288,-73.38867 z m -14.752,49.76562 38.098,35.2168 -68.364,73.94141 -27.59,-25.11329 z m -237.076,0 57.856,84.04492 -27.59,25.11329 -68.364,-73.94141 z" style="fill:url(#linearGradient915)"/>
    <path d="m 179.68544,159.80086 -31.56045,29.34766 31.56,46.07031 31.53,-46.07031 z" style="fill:#ffffff"/>
  </g>
</svg>
