<?xml version="1.0" encoding="UTF-8" standalone="no"?>
<svg xmlns="http://www.w3.org/2000/svg" version="1.1" x="0px" y="0px" width="58.787998" height="50.000313" viewBox="0 0 58.788 50.000313">
  <path d="M 41.087,0 H 17.593 l -0.111,0.013 c -1.584,0.171 -3.78,1.314 -4.513,3.713 -1.995,0.558 -9.5,2.65 -9.5,2.65 L 3.375,6.412 C 2.083,6.906 0,8.578 0,11.635 c 0,0.547 0.067,1.14 0.217,1.776 l 8.962,33.454 0.246,0.331 c 1.015,1.352 3.481,3.426 6.299,2.621 0,0 12.633,-3.477 13.676,-3.762 1.043,0.285 13.694,3.767 13.694,3.767 2.797,0.8 5.264,-1.273 6.278,-2.626 l 0.246,-0.328 8.947,-33.396 c 0.153,-0.654 0.223,-1.261 0.223,-1.82 0,-3.08 -2.075,-4.746 -3.363,-5.24 L 55.33,6.376 c 0,0 -7.508,-2.093 -9.501,-2.65 C 45.097,1.328 42.899,0.184 41.316,0.012 L 41.202,0 Z" style="fill:#ffffff"/>
  <path d="m 17.708,2.131 c 0,0 -2.88,0.309 -2.88,3.289 L 4.139,8.4 c 0,0 -2.674,1.027 -1.852,4.523 l 8.842,32.994 c 0,0 1.85,2.469 4.007,1.851 l 14.266,-3.922 14.258,3.922 c 2.155,0.618 4.008,-1.851 4.008,-1.851 L 56.51,12.923 C 57.33,9.428 54.658,8.4 54.658,8.4 L 43.968,5.42 c 0,-2.98 -2.881,-3.289 -2.881,-3.289 z"/>
  <path d="M 17.803,3.362 C 17.667,3.387 17.255,3.48 16.865,3.739 16.317,4.106 16.06,4.638 16.06,5.42 v 0.937 c 0,0 -11.345,3.164 -11.508,3.208 -0.294,0.139 -1.186,0.674 -1.186,2.095 0,0.288 0.036,0.61 0.122,0.974 0.016,0.059 8.62,32.186 8.763,32.703 0.379,0.427 1.493,1.547 2.547,1.248 l 14.6,-4.021 14.6,4.021 c 1.053,0.299 2.168,-0.821 2.549,-1.248 0.137,-0.518 8.747,-32.645 8.762,-32.703 0.084,-0.363 0.123,-0.686 0.123,-0.974 0,-1.421 -0.892,-1.956 -1.189,-2.095 C 54.08,9.521 42.734,6.356 42.734,6.356 V 5.42 C 42.734,4.639 42.478,4.107 41.932,3.739 41.543,3.48 41.13,3.387 40.994,3.362 Z" style="fill:#ffffff"/>
  <path d="m 17.939,4.905 h 22.957 c 0.479,0 0.547,0.616 0.547,0.616 v 34.128 c 0,0.549 -0.547,0.684 -0.547,0.684 H 17.939 c -0.479,0 -0.479,-0.684 -0.479,-0.684 V 5.521 C 17.459,5.11 17.939,4.905 17.939,4.905 M 5.397,10.868 C 4.575,11.14 4.918,12.17 4.918,12.17 l 8.77,32.55 c 0.346,0.752 1.03,0.411 1.03,0.411 l 11.924,-3.289 h -8.906 c -1.65,0 -1.921,-2.057 -1.921,-2.057 V 8.059 Z m 37.585,-2.88 v 31.729 c 0,0 -0.274,2.056 -1.919,2.056 h -8.906 l 11.922,3.29 c 0,0 0.686,0.343 1.027,-0.411 L 53.878,12.1 c 0,0 0.343,-1.028 -0.48,-1.301 z"/>
  <path d="m 25.331,10.011 c -1.518,1.161 -2.152,2.587 -2.888,4.239 l -0.324,0.738 1.936,0.85 0.371,-0.574 c 0.618,-0.957 1.768,-2.738 4.253,-2.738 2.121,0 2.877,1.484 2.877,2.874 0,2.202 -1.771,3.808 -2.813,4.41 -0.758,0.413 -1.604,0.69 -2.397,0.927 l -0.728,0.215 0.418,1.799 0.612,0.024 c 1.712,0.069 3.189,0.128 4.739,1.392 1.238,0.983 1.811,2.18 1.811,3.771 0,3.217 -2.589,5.553 -6.16,5.553 -2.211,0 -3.682,-0.848 -4.561,-1.355 l -0.632,-0.366 -1.215,1.69 0.558,0.48 c 0.969,0.828 3.23,2.764 7.137,2.764 5.445,0 9.552,-3.968 9.552,-9.232 0,-3.947 -2.521,-6.089 -3.297,-6.651 -0.395,-0.27 -0.807,-0.497 -1.222,-0.702 0.914,-0.72 1.793,-1.647 2.333,-3.206 0.265,-0.756 0.4,-1.555 0.4,-2.37 0,-3.392 -2.757,-5.947 -6.411,-5.947 -1.647,-10e-4 -3.15,0.49 -4.349,1.415" style="fill:#ffffff"/>
</svg>
