<?xml version="1.0" encoding="utf-8"?>
<svg xmlns="http://www.w3.org/2000/svg" xmlns:xlink="http://www.w3.org/1999/xlink" version="1.1" id="Layer_1" x="0px" y="0px" width="58.787px" height="50.001px">
  <path d="M41.089,0H17.595l-0.113,0.013c-1.584,0.171-3.78,1.314-4.513,3.713c-1.992,0.558-9.5,2.65-9.5,2.65  L3.375,6.412C2.082,6.906,0,8.578,0,11.635c0,0.547,0.066,1.14,0.217,1.776L9.18,46.865l0.246,0.331  c1.013,1.352,3.481,3.426,6.297,2.621c0,0,12.636-3.477,13.677-3.762c1.043,0.285,13.695,3.767,13.695,3.767  c2.797,0.8,5.263-1.273,6.276-2.626l0.249-0.328l8.943-33.396c0.155-0.654,0.224-1.261,0.224-1.82c0-3.08-2.075-4.746-3.364-5.24  l-0.094-0.036c0,0-7.507-2.093-9.501-2.65c-0.732-2.398-2.93-3.542-4.513-3.714L41.201,0H41.089z"/>
  <path fill="url(#SVGID_8_)" d="M17.707,2.131c0,0-2.878,0.309-2.878,3.289L4.141,8.4c0,0-2.674,1.027-1.852,4.523l8.841,32.994  c0,0,1.851,2.469,4.008,1.851L29.4,43.847l14.26,3.922c2.155,0.618,4.006-1.851,4.006-1.851l8.844-32.994  C57.33,9.428,54.659,8.4,54.659,8.4L43.968,5.42c0-2.98-2.879-3.289-2.879-3.289H17.707z"/>
  <path d="M17.803,3.362c-0.135,0.025-0.547,0.118-0.936,0.377c-0.549,0.367-0.804,0.899-0.804,1.681v0.937  c0,0-11.345,3.164-11.509,3.208c-0.297,0.139-1.188,0.674-1.188,2.095c0,0.288,0.035,0.61,0.122,0.974  c0.017,0.059,8.621,32.186,8.763,32.703c0.379,0.427,1.495,1.547,2.548,1.248l14.6-4.021l14.6,4.021  c1.053,0.299,2.167-0.821,2.549-1.248c0.139-0.518,8.748-32.645,8.763-32.703c0.083-0.363,0.121-0.686,0.121-0.974  c0-1.421-0.892-1.956-1.188-2.095c-0.164-0.044-11.51-3.208-11.51-3.208V5.42c0-0.781-0.256-1.313-0.802-1.681  c-0.39-0.259-0.802-0.352-0.937-0.377H17.803z"/>
  <path fill="url(#SVGID_8_)" d="M17.939,4.905h22.957c0.48,0,0.547,0.616,0.547,0.616v34.128c0,0.549-0.547,0.684-0.547,0.684H17.939  c-0.481,0-0.481-0.684-0.481-0.684V5.521C17.458,5.11,17.939,4.905,17.939,4.905 M5.397,10.868  c-0.823,0.272-0.479,1.302-0.479,1.302l8.771,32.55c0.345,0.752,1.03,0.411,1.03,0.411l11.925-3.289h-8.909  c-1.648,0-1.919-2.057-1.919-2.057V8.059L5.397,10.868z M42.983,7.988v31.729c0,0-0.275,2.056-1.921,2.056h-8.906l11.921,3.29  c0,0,0.687,0.343,1.029-0.411L53.88,12.1c0,0,0.341-1.028-0.48-1.301L42.983,7.988z"/>
  <radialGradient id="SVGID_8_" cx="130.7402" cy="182.4277" r="1.2499" gradientTransform="matrix(17.571 0 0 -17.571 -2267.8333 3230.4902)" gradientUnits="userSpaceOnUse">
    <stop style="stop-color:#f6b91d" offset="0"/>
    <stop style="stop-color:#d3641c" offset="0.7"/>
    <stop style="stop-color:#bf331c" offset="1"/>
  </radialGradient>
  <path fill="#bf331c" d="M25.332,10.011c-1.519,1.161-2.153,2.587-2.887,4.239l-0.327,0.738l1.938,0.85l0.371-0.574  c0.617-0.957,1.766-2.738,4.253-2.738c2.119,0,2.874,1.484,2.874,2.874c0,2.202-1.768,3.808-2.811,4.41  c-0.76,0.413-1.604,0.69-2.399,0.927l-0.726,0.215l0.417,1.799l0.613,0.024c1.711,0.069,3.188,0.128,4.738,1.392  c1.238,0.983,1.81,2.18,1.81,3.771c0,3.217-2.591,5.553-6.16,5.553c-2.212,0-3.682-0.848-4.561-1.355l-0.63-0.366l-1.215,1.692  l0.56,0.48c0.965,0.828,3.228,2.764,7.134,2.764c5.445,0,9.552-3.968,9.552-9.232c0-3.947-2.521-6.089-3.296-6.651  c-0.393-0.27-0.806-0.497-1.223-0.702c0.914-0.72,1.794-1.647,2.334-3.206c0.266-0.756,0.4-1.555,0.4-2.37  c0-3.392-2.757-5.947-6.411-5.947C28.035,8.595,26.531,9.086,25.332,10.011"/>
  <path d="M28.323,36.205c-3.718,0-5.88-1.854-6.804-2.645l-0.212-0.184l0.68-0.95l0.241,0.139  c0.856,0.496,2.452,1.424,4.811,1.424c3.858,0,6.657-2.544,6.657-6.053c0-1.756-0.637-3.078-2.002-4.161  c-1.67-1.367-3.3-1.434-5.024-1.501l-0.234-0.007l-0.222-0.971l0.271-0.08c0.83-0.247,1.706-0.535,2.497-0.97  c1.145-0.659,3.068-2.414,3.068-4.849c0-1.557-0.881-3.375-3.371-3.375c-2.749,0-4.046,2-4.668,2.96l-0.145,0.226l-1.091-0.475  l0.127-0.282c0.704-1.587,1.313-2.958,2.732-4.044c1.112-0.861,2.512-1.314,4.045-1.314c3.371,0,5.911,2.344,5.911,5.449  c0,0.756-0.125,1.496-0.373,2.203c-0.533,1.549-1.44,2.406-2.171,2.979l-0.621,0.491l0.713,0.353  c0.462,0.229,0.831,0.438,1.156,0.664c0.715,0.52,3.082,2.522,3.082,6.241C37.378,32.45,33.484,36.205,28.323,36.205"/>
</svg>
