<?xml version="1.0" encoding="UTF-8" standalone="no"?>
<svg xmlns="http://www.w3.org/2000/svg" version="1.1" x="0px" y="0px" width="58.787998" height="50.000313" viewBox="0 0 58.788 50.000313">
  <path d="M 17.707031 2.1308594 C 17.707031 2.1308594 14.828125 2.4399219 14.828125 5.4199219 L 4.1386719 8.4003906 C 4.1386719 8.4003906 1.4651094 9.4278281 2.2871094 12.923828 L 11.128906 45.917969 C 11.128906 45.917969 12.979719 48.385578 15.136719 47.767578 L 29.402344 43.845703 L 43.660156 47.767578 C 45.815156 48.385578 47.667969 45.917969 47.667969 45.917969 L 56.509766 12.923828 C 57.329766 9.4288281 54.658203 8.4003906 54.658203 8.4003906 L 43.96875 5.4199219 C 43.96875 2.4399219 41.087891 2.1308594 41.087891 2.1308594 L 17.707031 2.1308594 z M 17.802734 3.3613281 L 40.994141 3.3613281 C 41.130141 3.3863281 41.542641 3.4792813 41.931641 3.7382812 C 42.477641 4.1062813 42.734375 4.6389219 42.734375 5.4199219 L 42.734375 6.3554688 C 42.734375 6.3554687 54.079188 9.5204531 54.242188 9.5644531 C 54.539187 9.7034531 55.431641 10.239156 55.431641 11.660156 C 55.431641 11.948156 55.392594 12.271766 55.308594 12.634766 C 55.293594 12.692766 46.683875 44.819891 46.546875 45.337891 C 46.165875 45.764891 45.051047 46.884937 43.998047 46.585938 L 29.398438 42.564453 L 14.798828 46.585938 C 13.744828 46.884937 12.630953 45.764891 12.251953 45.337891 C 12.108953 44.820891 3.5042814 12.693766 3.4882812 12.634766 C 3.4022813 12.270766 3.3652344 11.948156 3.3652344 11.660156 C 3.3652344 10.239156 4.2587344 9.7034531 4.5527344 9.5644531 C 4.7157344 9.5204531 16.060547 6.3574219 16.060547 6.3574219 L 16.060547 5.4199219 C 16.060547 4.6379219 16.317234 4.1052813 16.865234 3.7382812 C 17.255234 3.4792813 17.666734 3.3863281 17.802734 3.3613281 z M 17.939453 4.9042969 C 17.939453 4.9042969 17.459937 5.1104844 17.460938 5.5214844 L 17.460938 39.648438 C 17.460938 39.648438 17.460453 40.332031 17.939453 40.332031 L 40.896484 40.332031 C 40.896484 40.332031 41.443359 40.197437 41.443359 39.648438 L 41.443359 5.5214844 C 41.443359 5.5214844 41.375484 4.9042969 40.896484 4.9042969 L 17.939453 4.9042969 z M 42.982422 7.9882812 L 42.982422 39.716797 C 42.982422 39.716797 42.7075 41.773438 41.0625 41.773438 L 32.15625 41.773438 L 44.078125 45.0625 C 44.078125 45.0625 44.764469 45.406344 45.105469 44.652344 L 53.878906 12.099609 C 53.878906 12.099609 54.221438 11.071828 53.398438 10.798828 L 42.982422 7.9882812 z M 15.814453 8.0585938 L 5.3964844 10.867188 C 4.5744844 11.139187 4.9179688 12.169922 4.9179688 12.169922 L 13.6875 44.720703 C 14.0335 45.472703 14.71875 45.130859 14.71875 45.130859 L 26.642578 41.841797 L 17.736328 41.841797 C 16.086328 41.841797 15.814453 39.785156 15.814453 39.785156 L 15.814453 8.0585938 z M 29.679688 8.5957031 C 33.333688 8.5957031 36.091797 11.150969 36.091797 14.542969 C 36.091797 15.357969 35.956406 16.156109 35.691406 16.912109 C 35.151406 18.471109 34.271422 19.399141 33.357422 20.119141 C 33.772422 20.324141 34.185078 20.550313 34.580078 20.820312 C 35.356078 21.382312 37.876953 23.525656 37.876953 27.472656 C 37.876953 32.736656 33.769219 36.703125 28.324219 36.703125 C 24.417219 36.703125 22.1565 34.767453 21.1875 33.939453 L 20.630859 33.460938 L 21.845703 31.769531 L 22.476562 32.136719 C 23.355563 32.643719 24.826109 33.490234 27.037109 33.490234 C 30.608109 33.490234 33.197266 31.1545 33.197266 27.9375 C 33.197266 26.3465 32.624719 25.150969 31.386719 24.167969 C 29.836719 22.903969 28.360436 22.844391 26.648438 22.775391 L 26.035156 22.751953 L 25.617188 20.951172 L 26.345703 20.736328 C 27.138703 20.499328 27.984188 20.223547 28.742188 19.810547 C 29.784187 19.208547 31.556641 17.602391 31.556641 15.400391 C 31.556641 14.010391 30.800687 12.525391 28.679688 12.525391 C 26.194687 12.525391 25.043781 14.306672 24.425781 15.263672 L 24.054688 15.837891 L 22.119141 14.988281 L 22.443359 14.25 C 23.179359 12.598 23.812078 11.172719 25.330078 10.011719 C 26.529078 9.0867182 28.032688 8.5947031 29.679688 8.5957031 z "/>
</svg>
