<?xml version="1.0" encoding="UTF-8" standalone="no"?>
<svg xmlns="http://www.w3.org/2000/svg" version="1.1" width="600" height="710.92499" viewBox="0 0 599.99998 710.92499" id="Layer_1">
  <g transform="matrix(14.2185,0,0,14.2185,-0.00637599,0)" id="g3">
    <path d="M 20.973,48.637 C 20.899,48.395 20.868,48.09 20.83,47.677 20.784,47.16 20.731,46.575 20.515,45.961 20.438,45.744 20.282,45.564 20.077,45.457 19.455,45.132 18.63,44.624 17.972,44.116 18.75,42.68 17.695,41.359 16.993,40.505 c 0.208,-0.183 0.453,-0.354 0.694,-0.521 0.533,-0.372 1.085,-0.756 1.334,-1.36 0.119,-0.29 0.081,-0.622 -0.101,-0.877 -0.171,-0.238 -0.39,-0.408 -0.602,-0.573 -0.202,-0.157 -0.363,-0.287 -0.48,-0.436 1.435,-0.811 2.438,-2.921 2.487,-3.725 0.027,-0.452 -0.101,-1.032 -0.817,-1.353 0.036,-0.159 0.074,-0.304 0.112,-0.445 0.182,-0.679 0.353,-1.321 -0.17,-2.375 -0.105,-0.213 -0.289,-0.376 -0.513,-0.455 -0.57,-0.201 -2.146,-0.52 -3.952,-0.52 -1.535,0 -2.939,0.22 -4.171,0.655 -2.17,0.766 -2.701,2.321 -3.019,3.25 C 7.776,31.823 7.757,31.881 7.736,31.939 7.391,31.569 6.914,30.658 6.711,30.272 6.529,29.926 6.358,29.599 6.191,29.348 6.007,29.07 5.821,28.836 5.656,28.63 5.25,28.121 5.084,27.897 5.084,27.463 c 0,-0.274 0.095,-0.392 0.499,-0.774 0.359,-0.34 0.852,-0.806 1.139,-1.58 0.434,-1.173 0.82,-1.756 1.048,-2.005 0.019,0.049 0.037,0.098 0.053,0.142 0.287,0.78 0.768,2.084 2.688,3.129 1.402,0.763 3.115,0.77 5.952,0.783 0,0 0.258,10e-4 0.259,10e-4 0.429,0 0.8,-0.298 0.891,-0.717 0.093,-0.42 -0.122,-0.847 -0.513,-1.025 -4.651,-2.116 -5.866,-6.6 -6.938,-10.556 C 9.13,11.051 8.063,7.11 3.686,7.11 2.983,7.11 2.221,7.212 1.382,7.417 1.432,7.355 1.482,7.297 1.531,7.245 2.348,6.371 3.774,5.828 5.252,5.828 c 1.083,0 2.15,0.29 3.085,0.84 3.406,2.002 4.555,5.123 5.568,7.876 0.978,2.657 1.9,5.166 4.755,5.425 0.027,0.002 0.055,0.004 0.082,0.004 0.252,0 0.494,-0.104 0.667,-0.29 0.192,-0.206 0.278,-0.489 0.233,-0.767 -0.382,-2.375 0.134,-10.059 1.544,-15.786 1.371,5.599 1.51,13.296 1.277,15.803 -0.024,0.265 0.067,0.528 0.253,0.719 0.172,0.178 0.409,0.278 0.655,0.278 0.018,0 0.036,-0.001 0.055,-0.002 3.105,-0.189 4.043,-2.82 5.036,-5.604 1.052,-2.952 2.245,-6.299 6.173,-8.16 0.633,-0.3 1.339,-0.452 2.097,-0.452 1.511,0 3.055,0.618 3.935,1.573 0.042,0.046 0.086,0.095 0.128,0.148 -0.883,-0.228 -1.679,-0.34 -2.404,-0.34 -4.231,0 -5.188,3.646 -6.2,7.506 -1.059,4.037 -2.259,8.612 -7.24,10.838 -0.389,0.174 -0.604,0.593 -0.521,1.011 0.082,0.417 0.443,0.722 0.869,0.733 0.547,0.015 1.059,0.023 1.522,0.023 3.748,0 5.081,-0.499 6.354,-1.481 0.909,-0.702 1.344,-1.59 1.66,-2.238 0.058,-0.118 0.128,-0.261 0.19,-0.376 0.171,0.196 0.459,0.683 0.879,1.879 0.012,0.034 0.025,0.067 0.042,0.1 0.23,0.471 0.568,0.846 0.896,1.208 0.387,0.429 0.721,0.8 0.727,1.161 0.009,0.57 -0.216,0.823 -0.724,1.339 -0.245,0.25 -0.522,0.531 -0.768,0.889 -0.289,0.423 -0.484,0.917 -0.656,1.354 -0.105,0.269 -0.288,0.732 -0.433,0.924 -0.043,-0.103 -0.09,-0.232 -0.129,-0.339 -0.35,-0.965 -0.936,-2.58 -3.484,-3.45 -0.763,-0.26 -1.668,-0.386 -2.767,-0.386 -1.233,0 -2.487,0.158 -3.594,0.297 -0.535,0.067 -1.04,0.131 -1.458,0.165 -0.365,0.029 -0.677,0.273 -0.793,0.621 -0.277,0.833 -0.178,1.583 -0.097,2.188 0.032,0.249 0.082,0.624 0.039,0.723 l 0,0 c -10e-4,0 -0.043,0.039 -0.169,0.089 -0.467,0.183 -0.699,0.708 -0.52,1.176 0.5,1.303 1.249,1.899 1.909,2.426 0.252,0.2 0.495,0.395 0.731,0.629 -0.066,0.016 -0.134,0.017 -0.214,0.017 -0.154,0 -0.358,-0.021 -0.625,-0.064 -0.049,-0.008 -0.098,-0.012 -0.146,-0.012 -0.218,0 -0.431,0.078 -0.598,0.223 -0.205,0.177 -0.32,0.437 -0.314,0.708 0.084,4.139 0.186,9.204 -1.786,11.663 z"/>
  </g>
</svg>
