<?xml version="1.0" encoding="UTF-8" standalone="no"?>
<svg xmlns="http://www.w3.org/2000/svg" version="1.1" width="95.172px" height="110.814px">
  <path fill="#FFFFFF" d="M95.172,21.592l-3.125-1.172c-3.456-1.302-9.248-4.197-13.02-7.532v-1.104V3.575V0h-3.575H59.051h-4.554  l1.081,4.423c0.167,0.683,0.248,1.324,0.248,1.96c0,4.544-3.697,8.241-8.241,8.241s-8.241-3.697-8.241-8.241  c0-0.636,0.081-1.277,0.248-1.96L40.672,0h-4.553H19.715h-3.576v3.575v8.209v1.106c-3.771,3.334-9.563,6.229-13.02,7.531L0,21.596  l0.951,3.194C8.58,50.36,7.947,61.643,7.939,61.753l-0.083,1.271l0.737,1.055c5.89,8.27,11.79,14.94,17.623,19.936  c-0.039,1.252-0.083,2.479-0.136,3.653l-0.069,1.573l1.113,1.114l17.932,17.93l2.528,2.528l2.527-2.528l17.932-17.931l1.113-1.113  l-0.069-1.573c-0.002-0.045-0.061-1.384-0.12-3.666c5.828-4.994,11.723-11.66,17.608-19.923l0.751-1.054l-0.099-1.29  c-0.006-0.093-0.64-11.376,6.99-36.946L95.172,21.592z"/>
  <path d="M18.32,15.724c6.614,9.625,8.39,40.775,8.008,63.587c-4.426-4.116-9.409-9.704-14.823-17.306c0,0,0.864-11.449-7.129-38.237  C4.376,23.768,12.688,20.648,18.32,15.724 M90.792,23.768c0,0-8.318-3.122-13.95-8.049c-2.643,3.893-6.271,13.797-7.564,38.998  c-0.482,9.378-0.493,18.353-0.405,24.563c4.418-4.112,9.39-9.692,14.791-17.275C83.663,62.005,82.799,50.556,90.792,23.768   M46.371,104.545V18.119c-5.953-0.61-10.603-5.622-10.603-11.736c0-0.969,0.13-1.906,0.35-2.808H19.714v8.209  c12.746,12.746,9.938,76.042,9.938,76.042L46.371,104.545z M75.452,11.784V3.575H59.051c0.221,0.902,0.351,1.839,0.351,2.808  c0,6.113-4.648,11.124-10.601,11.735v86.423l16.714-16.715C65.515,87.827,62.706,24.53,75.452,11.784"/>
</svg>
