<?xml version="1.0" encoding="UTF-8" standalone="no"?>
<svg xmlns="http://www.w3.org/2000/svg" version="1.1" width="95.172px" height="110.814px">
  <path d="M95.172,21.592l-3.125-1.172c-3.456-1.302-9.248-4.197-13.02-7.532v-1.104V3.575V0h-3.575H59.051h-4.554l1.081,4.423  c0.167,0.683,0.248,1.324,0.248,1.96c0,4.544-3.697,8.241-8.241,8.241s-8.241-3.697-8.241-8.241c0-0.636,0.081-1.277,0.248-1.96  L40.672,0h-4.553H19.715h-3.576v3.575v8.209v1.106c-3.771,3.334-9.563,6.229-13.02,7.531L0,21.596l0.951,3.194  C8.58,50.36,7.947,61.643,7.939,61.753l-0.084,1.271l0.737,1.055c5.89,8.27,11.79,14.94,17.623,19.936  c-0.039,1.252-0.083,2.479-0.136,3.653l-0.069,1.573l1.113,1.114l17.932,17.93l2.528,2.528l2.527-2.528l17.932-17.931l1.113-1.113  l-0.069-1.573c-0.002-0.045-0.061-1.384-0.12-3.666c5.828-4.994,11.723-11.66,17.608-19.923l0.751-1.054l-0.099-1.29  c-0.006-0.093-0.64-11.376,6.99-36.946L95.172,21.592z"/>
  <linearGradient id="SVGID_1_" gradientUnits="userSpaceOnUse" x1="80.0996" y1="73.9312" x2="15.0727" y2="8.9043">
    <stop offset="0" style="stop-color:#8b723c"/>
    <stop offset="0.5" style="stop-color:#ebd491"/>
    <stop offset="1" style="stop-color:#8b723c"/>
  </linearGradient>
  <path fill="url(#SVGID_1_)" d="M18.322,16.409c6.613,9.625,8.39,40.775,8.008,63.587c-4.426-4.116-9.409-9.704-14.823-17.306  c0,0,0.864-11.449-7.129-38.237C4.378,24.453,12.689,21.333,18.322,16.409 M90.794,24.453c0,0-8.318-3.122-13.95-8.049  c-2.643,3.893-6.271,13.797-7.564,38.998c-0.482,9.378-0.493,18.353-0.405,24.563c4.418-4.112,9.39-9.692,14.791-17.275  C83.665,62.69,82.801,51.241,90.794,24.453 M46.373,105.23V18.804C40.42,18.194,35.77,13.182,35.77,7.068  c0-0.969,0.131-1.906,0.351-2.808H19.716v8.209c12.746,12.746,9.938,76.042,9.938,76.042L46.373,105.23z M75.454,12.469V4.26H59.053  c0.221,0.902,0.351,1.839,0.351,2.808c0,6.113-4.648,11.124-10.601,11.735v86.423l16.714-16.715  C65.517,88.511,62.708,25.215,75.454,12.469"/>
</svg>
