<?xml version="1.0" encoding="UTF-8" standalone="no"?>
<svg xmlns="http://www.w3.org/2000/svg" version="1.1" width="95.172px" height="110.814px">
  <path d="M18.32,15.724c6.614,9.625,8.39,40.775,8.008,63.587c-4.426-4.116-9.409-9.704-14.823-17.306c0,0,0.864-11.449-7.129-38.237  C4.376,23.768,12.688,20.648,18.32,15.724 M90.792,23.768c0,0-8.318-3.122-13.95-8.049c-2.643,3.893-6.271,13.797-7.564,38.998  c-0.482,9.378-0.493,18.353-0.405,24.563c4.418-4.112,9.39-9.692,14.791-17.275C83.663,62.005,82.799,50.556,90.792,23.768   M46.371,104.545V18.119c-5.953-0.61-10.603-5.622-10.603-11.736c0-0.969,0.13-1.906,0.35-2.808H19.714v8.209  c12.746,12.746,9.938,76.042,9.938,76.042L46.371,104.545z M75.452,11.784V3.575H59.051c0.221,0.902,0.351,1.839,0.351,2.808  c0,6.113-4.648,11.124-10.601,11.735v86.423l16.714-16.715C65.515,87.827,62.706,24.53,75.452,11.784"/>
</svg>
